<?xml version="1.0" encoding="UTF-8"?>
<svg width="659px" height="114px" viewBox="0 0 659 114" version="1.1" xmlns="http://www.w3.org/2000/svg" xmlns:xlink="http://www.w3.org/1999/xlink">
    <title>logo</title>
    <defs>
        <path d="M0,0 L659,0 L659,114 L0,114 L0,0 Z" id="path-1"></path>
    </defs>
    <g id="logo" stroke="none" fill="none" xlink:href="#path-1" fill-rule="evenodd">
        <use fill="#FFFFFF" xlink:href="#path-1"></use>
        <g id="_レイヤー_2" stroke-width="1" transform="translate(0.0034, -0.0081)">
            <path d="M30.0866378,84.3580723 C25.2666378,84.3580723 22.8866378,81.7980723 21.1966378,79.3080723 C16.8166378,72.7580723 14.6666378,65.1680723 14.8966378,56.1180723 C15.0766378,48.5180723 17.0366378,33.7880723 28.1466378,20.3680723 C39.9266378,6.12807228 54.5766378,0.298072284 70.8466378,0.00807228441 C78.7466378,-0.121927716 85.0066378,1.32807228 90.7566378,3.64807228 C105.696638,9.63807228 110.466638,24.0880723 108.576638,35.7380723 C107.356638,43.3180723 102.516638,50.9180723 95.0166378,56.9480723 C87.2466378,63.1980723 76.2966378,67.2080723 64.1666378,67.6080723 C61.0466378,67.6980723 57.2966378,67.5480723 54.7266378,67.2980723 C53.6666378,67.1980723 53.4366378,67.0380723 53.0766378,66.5080723 C52.6266378,65.8680723 52.3466378,65.3780723 51.9366378,64.3780723 C51.5866378,63.5080723 52.1066378,63.3280723 53.0566378,63.2180723 C57.6466378,62.7480723 61.5866378,62.0180723 66.4066378,59.8580723 C77.4166378,54.8980723 85.0366378,44.2080723 86.9566378,32.5980723 C88.1266378,25.4780723 86.5766378,17.7780723 83.2666378,13.8980723 C79.8366378,9.87807228 75.7366378,7.99807228 70.6166378,7.87807228 C63.8666378,7.70807228 57.4066378,11.4580723 52.8966378,16.8380723 C44.7766378,26.5180723 42.4866378,37.9680723 44.2166378,51.9380723 C45.6266378,63.2880723 51.2966378,71.9980723 58.4366378,80.8480723 C59.1366378,81.7180723 59.3166378,82.6080723 58.9666378,83.2980723 C58.5866378,83.9980723 57.8566378,84.3480723 57.2066378,84.3480723 L30.0966378,84.3480723 L30.0866378,84.3580723 Z M19.9566378,21.3680723 C20.3466378,20.7080723 19.8266378,20.0580723 19.2366378,20.0580723 L4.96663784,20.0580723 C3.34663784,20.0280723 2.55663784,20.5180723 2.17663784,21.3580723 C-2.57336216,31.9780723 0.486637843,44.2680723 11.0066378,54.7480723 C11.3166378,55.0680723 11.9766378,54.9080723 11.9966378,54.3180723 C12.0266378,53.7580723 12.1066378,52.7680723 12.1866378,52.0780723 C12.2566378,51.3780723 12.3266378,50.6280723 11.9066378,49.8780723 C10.5466378,47.4580723 10.9366378,41.6580723 12.1966378,37.5180723 C14.0566378,31.3880723 15.3066378,28.3280723 19.9666378,21.3580723 M25.4866378,14.4180723 C28.0066378,11.7280723 31.1366378,8.83807228 35.0966378,5.87807228 C35.8666378,5.28807228 35.4866378,4.05807228 34.5166378,4.06807228 C32.5566378,4.06807228 23.5866378,4.05807228 20.1466378,4.06807228 C18.8566378,4.06807228 18.0766378,4.23807228 17.1766378,4.81807228 C13.2366378,7.32807228 10.3966378,9.96807228 7.66663784,13.0280723 C6.56663784,14.2680723 6.68663784,15.3280723 8.34663784,15.3280723 L22.4666378,15.3280723 C23.8666378,15.3280723 24.7166378,15.2280723 25.4866378,14.4280723 M274.976638,66.7480723 L264.256638,32.0880723 L239.186638,66.7480723 L182.666638,66.7480723 L192.606638,19.9980723 L239.306638,19.9980723 L236.996638,30.8480723 L204.626638,30.8480723 L203.036638,38.3380723 L231.806638,38.3380723 L229.746638,48.0180723 L200.966638,48.0180723 L199.376638,55.5080723 L231.286638,55.5080723 L257.136638,19.9980723 L274.856638,19.9980723 L287.256638,59.9780723 L295.796638,19.9980723 L332.646638,19.9980723 C346.276638,19.9980723 348.946638,26.8380723 346.996638,36.0180723 L346.146638,40.0180723 C344.756638,46.5380723 340.526638,53.9580723 331.696638,54.8980723 L339.756638,66.7580723 L322.966638,66.7580723 L308.336638,45.0280723 C308.196638,44.8180723 308.166638,44.6880723 308.166638,44.4480723 C308.166638,43.8580723 308.646638,43.3780723 309.236638,43.3780723 L326.066638,43.3780723 C329.426638,43.3780723 331.176638,41.1880723 331.766638,38.3980723 L332.156638,36.6080723 C332.826638,33.4480723 331.666638,31.6380723 327.346638,31.6380723 L307.676638,31.6380723 L300.206638,66.7680723 L274.966638,66.7680723 L274.976638,66.7480723 Z M148.936638,43.3680723 C148.346638,43.3680723 147.866638,43.8480723 147.866638,44.4380723 C147.866638,44.6680723 147.896638,44.8080723 148.026638,45.0180723 L154.726638,54.9980723 L168.806638,54.9980723 C178.946638,54.9980723 183.676638,46.9880723 185.166638,40.0180723 L186.016638,36.0180723 C187.966638,26.8480723 185.296638,19.9980723 171.666638,19.9980723 L135.506638,19.9980723 L125.576638,66.7380723 L139.916638,66.7380723 L147.376638,31.6180723 L166.356638,31.6180723 C170.686638,31.6180723 171.846638,33.4280723 171.176638,36.5880723 L170.796638,38.3780723 C170.206638,41.1680723 168.446638,43.3580723 165.086638,43.3580723 L148.946638,43.3580723 L148.936638,43.3680723 Z M428.396638,66.7480723 L483.866638,66.7480723 L486.256638,55.5080723 L453.416638,55.5080723 L490.636638,31.2280723 L493.026638,19.9980723 L438.406638,19.9980723 L436.016638,31.2280723 L468.066638,31.2280723 L430.776638,55.5080723 L428.396638,66.7480723 Z M409.536638,66.7480723 L416.256638,35.1680723 L430.586638,35.1680723 L423.886638,66.7480723 L409.546638,66.7480723 L409.536638,66.7480723 Z M343.826638,66.7480723 L389.276638,66.7480723 L391.826638,54.7280723 L360.716638,54.7280723 L368.106638,19.9980723 L353.766638,19.9980723 L343.826638,66.7480723 L343.826638,66.7480723 Z M418.676638,22.0580723 C418.956638,20.7780723 420.216638,19.7180723 421.506638,19.7180723 L431.846638,19.7180723 C433.136638,19.7180723 433.956638,20.7680723 433.686638,22.0580723 L432.176638,29.1780723 C431.896638,30.4580723 430.636638,31.5180723 429.346638,31.5180723 L419.006638,31.5180723 C417.716638,31.5180723 416.896638,30.4580723 417.166638,29.1780723 L418.676638,22.0580723 Z M639.956638,22.0580723 C640.226638,20.7780723 641.496638,19.7180723 642.786638,19.7180723 L653.126638,19.7180723 C654.416638,19.7180723 655.226638,20.7680723 654.956638,22.0580723 L653.446638,29.1780723 C653.176638,30.4580723 651.906638,31.5180723 650.626638,31.5180723 L640.286638,31.5180723 C638.986638,31.5180723 638.176638,30.4580723 638.446638,29.1780723 L639.966638,22.0580723 L639.956638,22.0580723 Z M561.066638,19.9980723 L551.126638,66.7480723 L565.346638,66.7480723 L572.376638,33.6680723 L584.546638,66.7480723 L595.276638,66.7480723 L618.866638,33.6880723 L611.816638,66.7480723 L626.206638,66.7480723 L636.146638,19.9980723 L613.576638,19.9980723 L593.166638,48.9980723 L582.896638,19.9980723 L561.076638,19.9980723 L561.066638,19.9980723 Z M541.726638,22.2480723 C541.986638,21.0080723 543.136638,20.0080723 544.456638,20.0080723 L556.536638,20.0080723 L550.246638,49.5880723 C547.776638,61.2080723 540.586638,66.7680723 527.416638,66.7680723 L506.886638,66.7680723 C493.716638,66.7680723 488.886638,61.2080723 491.356638,49.5880723 L497.656638,20.0080723 L509.746638,20.0080723 C510.936638,20.0080723 511.776638,21.0080723 511.506638,22.2480723 L506.346638,46.4880723 C505.086638,52.4280723 506.726638,54.7580723 512.606638,54.7580723 L526.806638,54.7580723 C532.686638,54.7580723 535.306638,52.4280723 536.576638,46.4880723 L541.736638,22.2480723 L541.726638,22.2480723 Z M630.766638,66.7480723 L637.476638,35.1680723 L651.816638,35.1680723 L645.096638,66.7480723 L630.766638,66.7480723 Z" id="Shape" fill="#231815"></path>
            <path d="M658.876638,62.4280723 C658.876638,60.0680723 656.956638,58.1480723 654.586638,58.1480723 C652.216638,58.1480723 650.286638,60.0680723 650.286638,62.4280723 C650.286638,64.7880723 652.216638,66.7180723 654.586638,66.7180723 C656.956638,66.7180723 658.876638,64.7980723 658.876638,62.4280723 M658.016638,62.4280723 C658.016638,64.3880723 656.516638,65.9180723 654.596638,65.9180723 C652.676638,65.9180723 651.166638,64.3780723 651.166638,62.4280723 C651.166638,60.4780723 652.676638,58.9380723 654.596638,58.9380723 C656.516638,58.9380723 658.016638,60.4780723 658.016638,62.4280723 M656.446638,64.7380723 L655.416638,62.7880723 C655.936638,62.5980723 656.326638,62.1780723 656.326638,61.5280723 C656.326638,60.7580723 655.716638,60.1080723 654.836638,60.1080723 L653.096638,60.1080723 L653.096638,64.7380723 L653.946638,64.7380723 L653.946638,62.9080723 L654.546638,62.9080723 L655.496638,64.7380723 L656.456638,64.7380723 L656.446638,64.7380723 Z M655.496638,61.5280723 C655.496638,61.9180723 655.186638,62.2280723 654.736638,62.2280723 L653.946638,62.2280723 L653.946638,60.8280723 L654.736638,60.8280723 C655.186638,60.8280723 655.496638,61.1380723 655.496638,61.5180723" id="Shape" fill="#231815"></path>
            <text id="公式オンラインショップ" font-family="HiraginoSans-W6, Hiragino Sans" font-size="30" font-weight="500" fill="#000000">
                <tspan x="164.996638" y="110.008072">公式オンラインショップ</tspan>
            </text>
        </g>
    </g>
</svg>