<?xml version="1.0" encoding="UTF-8"?>
<svg width="896px" height="42px" viewBox="0 0 896 42" version="1.1" xmlns="http://www.w3.org/2000/svg" xmlns:xlink="http://www.w3.org/1999/xlink">
    <title>logo_whateverpartners</title>
    <g id="Page-1" stroke="none" stroke-width="1" fill="none" fill-rule="evenodd">
        <g id="logo_whateverpartners" fill="#1A1919">
            <polygon id="Fill-3" points="0 1 4.98381877 1 11.1569579 33.7214557 11.2783172 33.7214557 16.9983819 1 23.0016181 1 28.7297735 33.7214557 28.8430421 33.7214557 35.0161812 1 40 1 31.6747573 41 25.6148867 41 20.0566343 8.6224755 19.9433657 8.6224755 14.1100324 41 8.05016181 41"></polygon>
            <polygon id="Fill-4" points="83 41 77.9786368 41 77.9786368 21.7318536 64.0132248 21.7318536 64.0132248 41 59 41 59 1 64.0132248 1 64.0132248 17.3567287 77.9786368 17.3567287 77.9786368 1 83 1"></polygon>
            <path d="M110.161272,25.9870026 L120.951037,25.9870026 L115.840941,6.66286743 L115.720609,6.66286743 L110.161272,25.9870026 Z M112.575934,1 L119.210235,1 L130,41 L124.825726,41 L121.961826,30.0181964 L109.150484,30.0181964 L106.174274,41 L101,41 L112.575934,1 Z" id="Fill-5"></path>
            <polygon id="Fill-6" points="160.936102 41 156.007987 41 156.007987 5.37512498 146 5.37512498 146 1 171 1 171 5.37512498 160.936102 5.37512498"></polygon>
            <polygon id="Fill-7" points="191 1 211.338831 1 211.338831 5.37512498 195.848576 5.37512498 195.848576 17.9166167 210.457271 17.9166167 210.457271 22.2917417 195.848576 22.2917417 195.848576 36.6328734 212 36.6328734 212 41 191 41"></polygon>
            <polygon id="Fill-8" points="229 1 234.137868 1 241.94424 35.345131 242.05576 35.345131 249.870098 1 255 1 244.95527 41 238.710172 41"></polygon>
            <polygon id="Fill-9" points="274 1 294.338831 1 294.338831 5.37512498 278.848576 5.37512498 278.848576 17.9166167 293.457271 17.9166167 293.457271 22.2917417 278.848576 22.2917417 278.848576 36.6328734 295 36.6328734 295 41 274 41"></polygon>
            <path d="M320.898219,19.1563687 L325.740776,19.1563687 C328.64313,19.1563687 333.93098,19.1563687 333.93098,11.4219156 C333.93098,7.50269946 331.314885,5.03919216 326.742684,5.03919216 L320.898219,5.03919216 L320.898219,19.1563687 Z M316,1 L328.857824,1 C335.099873,1 339.051845,4.70325935 339.051845,11.029994 C339.051845,15.3971206 337.548982,19.9962008 332.929071,21.1159768 L332.929071,21.2279544 C336.380089,21.6278744 338.328244,24.4753049 338.550891,27.8986203 L338.88486,34.7292541 C339.115458,39.1523695 339.831107,40.280144 341,41 L335.099873,41 C334.264949,40.160168 333.875318,37.1927614 333.763995,35.2331534 L333.430025,29.0103979 C333.040394,23.5234953 330.034669,23.1875625 327.521947,23.1875625 L320.898219,23.1875625 L320.898219,41 L316,41 L316,1 Z" id="Fill-10"></path>
            <path d="M395.020553,20.0521896 L401.010985,20.0521896 C404.670446,20.0521896 407.75124,17.5806839 407.75124,12.2617477 C407.75124,7.88662268 405.640326,5.03919216 400.668675,5.03919216 L395.020553,5.03919216 L395.020553,20.0521896 Z M390,1 L400.391566,1 C403.928774,1 413,1 413,12.4937013 C413,19.9322136 408.150602,24.0833833 401.247342,24.0833833 L395.020553,24.0833833 L395.020553,41 L390,41 L390,1 Z" id="Fill-11"></path>
            <path d="M438.161272,25.9870026 L448.951037,25.9870026 L443.840941,6.66286743 L443.720609,6.66286743 L438.161272,25.9870026 Z M440.575934,1 L447.210235,1 L458,41 L452.825726,41 L449.961826,30.0181964 L437.150484,30.0181964 L434.174274,41 L429,41 L440.575934,1 Z" id="Fill-12"></path>
            <path d="M480.898219,19.1563687 L485.740776,19.1563687 C488.64313,19.1563687 493.93098,19.1563687 493.93098,11.4219156 C493.93098,7.50269946 491.314885,5.03919216 486.742684,5.03919216 L480.898219,5.03919216 L480.898219,19.1563687 Z M476,1 L488.857824,1 C495.099873,1 499.051845,4.70325935 499.051845,11.029994 C499.051845,15.3971206 497.548982,19.9962008 492.929071,21.1159768 L492.929071,21.2279544 C496.380089,21.6278744 498.328244,24.4753049 498.550891,27.8986203 L498.88486,34.7292541 C499.115458,39.1523695 499.831107,40.280144 501,41 L495.099873,41 C494.264949,40.160168 493.875318,37.1927614 493.763995,35.2331534 L493.430025,29.0103979 C493.040394,23.5234953 490.034669,23.1875625 487.521947,23.1875625 L480.898219,23.1875625 L480.898219,41 L476,41 L476,1 Z" id="Fill-13"></path>
            <polygon id="Fill-14" points="532.936102 41 528.007987 41 528.007987 5.37512498 518 5.37512498 518 1 543 1 543 5.37512498 532.936102 5.37512498"></polygon>
            <polygon id="Fill-15" points="563 1 569.473069 1 582.88157 34.3933213 582.995133 34.3933213 582.995133 1 588 1 588 41 581.12135 41 568.110318 8.6224755 567.996755 8.6224755 567.996755 41 563 41"></polygon>
            <polygon id="Fill-16" points="610 1 630.338831 1 630.338831 5.37512498 614.848576 5.37512498 614.848576 17.9166167 629.457271 17.9166167 629.457271 22.2917417 614.848576 22.2917417 614.848576 36.6328734 631 36.6328734 631 41 610 41"></polygon>
            <path d="M656.898219,19.1563687 L661.740776,19.1563687 C664.64313,19.1563687 669.93098,19.1563687 669.93098,11.4219156 C669.93098,7.50269946 667.314885,5.03919216 662.742684,5.03919216 L656.898219,5.03919216 L656.898219,19.1563687 Z M652,1 L664.857824,1 C671.099873,1 675.051845,4.70325935 675.051845,11.029994 C675.051845,15.3971206 673.548982,19.9962008 668.929071,21.1159768 L668.929071,21.2279544 C672.380089,21.6278744 674.328244,24.4753049 674.550891,27.8986203 L674.88486,34.7292541 C675.115458,39.1523695 675.831107,40.280144 677,41 L671.099873,41 C670.264949,40.160168 669.875318,37.1927614 669.763995,35.2331534 L669.430025,29.0103979 C669.040394,23.5234953 666.034669,23.1875625 663.521947,23.1875625 L656.898219,23.1875625 L656.898219,41 L652,41 L652,1 Z" id="Fill-17"></path>
            <path d="M713.837626,11.2657302 C713.837626,7.02289783 712.297033,4.07311911 707.504076,4.07311911 C703.281709,4.07311911 700.762961,6.34404464 700.762961,10.6434481 C700.762961,22.0223206 720,15.2257071 720,29.9988455 C720,39.3411584 713.095859,42 707.332899,42 C697.795892,42 695,37.1348855 695,28.5360785 L700.021193,28.5360785 C700.021193,33.0536848 700.306488,37.9268809 707.675253,37.9268809 C711.669384,37.9268809 714.750571,35.0902444 714.750571,30.7908409 C714.750571,19.3634789 695.513531,25.9822975 695.513531,11.152588 C695.513531,7.41081393 697.111184,0 707.447017,0 C715.207043,0 718.752853,3.8549163 718.85882,11.2657302 L713.837626,11.2657302 Z" id="Fill-18"></path>
            <polygon id="Fill-19" points="769.536 41 774.464 41 774.464 1 769.536 1"></polygon>
            <polygon id="Fill-20" points="797 1 803.472468 1 816.881404 34.3933213 816.994971 34.3933213 816.994971 1 822 1 822 41 815.121127 41 802.110484 8.6224755 801.996917 8.6224755 801.996917 41 797 41"></polygon>
            <path d="M868,27.3452656 C867.552716,34.9838337 864.589457,42 855.859425,42 C844.509585,42 843,31.2009238 843,21.0080831 C843,10.8152425 844.845048,0 855.859425,0 C864.030351,0 867.440895,4.63972286 867.664537,12.5692841 L862.51278,12.5692841 C862.408946,7.97806005 860.955272,4.073903 855.859425,4.073903 C849.038339,4.073903 848.14377,11.6639723 848.14377,21.0080831 C848.14377,30.3441109 849.038339,37.9341801 855.859425,37.9341801 C861.841853,37.9341801 862.680511,32.2678984 862.85623,27.3452656 L868,27.3452656 Z" id="Fill-21"></path>
            <polygon id="Fill-22" points="889.42 40.968 894.58 40.968 894.58 35.032 889.42 35.032"></polygon>
        </g>
    </g>
</svg>