<?xml version="1.0" encoding="UTF-8"?>
<svg width="511px" height="250px" viewBox="0 0 511 250" version="1.1" xmlns="http://www.w3.org/2000/svg" xmlns:xlink="http://www.w3.org/1999/xlink">
    <title>logo_wp</title>
    <g id="Page-1" stroke="none" stroke-width="1" fill="none" fill-rule="evenodd">
        <g id="logo_wp" transform="translate(-180, 0)" fill="#1A1919">
            <polygon id="Fill-1" points="457.28788 10.9108159 395.329166 161.177757 336.991988 0 278.662822 161.177757 216.71212 10.9108159 180 10.9108159 280.121051 250 336.991988 92.7218345 393.878949 250 494 10.9108159"></polygon>
            <path d="M610.104192,11 L533,11 L533,250 L566.748582,250 L566.748582,43.7925747 L610.104192,43.7925747 C636.709498,43.7925747 658.363305,65.5417676 658.363305,92.2821832 C658.363305,119.014561 636.709498,140.771792 610.104192,140.771792 L590.490178,140.771792 L590.490178,173.556329 L610.104192,173.556329 C654.707675,173.556329 691,137.098702 691,92.2821832 C691,47.4656645 654.707675,11 610.104192,11" id="Fill-2"></path>
        </g>
    </g>
</svg>