<svg clip-rule="evenodd" fill-rule="evenodd" height="512" stroke-linejoin="round" stroke-miterlimit="2" viewBox="0 0 24 24" width="512" xmlns="http://www.w3.org/2000/svg"><g id="Icon"><path d="m22.75 15.5c0-1.888 0-5.112 0-7 0-.597-.237-1.169-.659-1.591s-.994-.659-1.591-.659h-17c-.597 0-1.169.237-1.591.659s-.659.994-.659 1.591v7c0 .597.237 1.169.659 1.591s.994.659 1.591.659h17c.597 0 1.169-.237 1.591-.659s.659-.994.659-1.591zm-1.5-7v7c0 .199-.079.39-.22.53-.14.141-.331.22-.53.22h-17c-.199 0-.39-.079-.53-.22-.141-.14-.22-.331-.22-.53v-7c0-.199.079-.39.22-.53.14-.141.331-.22.53-.22h17c.199 0 .39.079.53.22.141.14.22.331.22.53z"/><path d="m6.25 17v-3c0-.138.112-.25.25-.25h11c.138 0 .25.112.25.25v3c0 .414.336.75.75.75s.75-.336.75-.75v-3c0-.966-.784-1.75-1.75-1.75h-11c-.966 0-1.75.784-1.75 1.75v3c0 .414.336.75.75.75s.75-.336.75-.75z"/><path d="m18.5 8.75h-2c-.414 0-.75.336-.75.75s.336.75.75.75h2c.414 0 .75-.336.75-.75s-.336-.75-.75-.75z"/></g></svg>