<svg clip-rule="evenodd" fill-rule="evenodd" height="512" stroke-linejoin="round" stroke-miterlimit="2" viewBox="0 0 24 24" width="512" xmlns="http://www.w3.org/2000/svg"><g id="Icon"><path d="m9.61 21.472c1.508-1.508 3.958-1.508 5.466 0 .293.293.768.293 1.061 0 .293-.292.293-.768 0-1.06-2.094-2.094-5.494-2.094-7.588 0-.292.292-.292.768 0 1.06.293.293.768.293 1.061 0z"/><path d="m7.217 19.372c2.829-2.829 7.423-2.829 10.253 0 .292.293.768.293 1.06 0 .293-.293.293-.768 0-1.061-3.414-3.415-8.959-3.415-12.374 0-.293.293-.293.768 0 1.061s.768.293 1.061 0z"/><path d="m22.75 5c0-.729-.29-1.429-.805-1.945-.516-.515-1.216-.805-1.945-.805-3.832 0-12.168 0-16 0-.729 0-1.429.29-1.945.805-.515.516-.805 1.216-.805 1.945v6.5c0 .729.29 1.429.805 1.945.516.515 1.216.805 1.945.805h16c.729 0 1.429-.29 1.945-.805.515-.516.805-1.216.805-1.945zm-1.5 0v6.5c0 .332-.132.649-.366.884-.235.234-.552.366-.884.366h-16c-.332 0-.649-.132-.884-.366-.234-.235-.366-.552-.366-.884v-6.5c0-.332.132-.649.366-.884.235-.234.552-.366.884-.366h16c.332 0 .649.132.884.366.234.235.366.552.366.884z"/><path d="m18.879 11.212c-.141-.844-.871-1.462-1.726-1.462-2.205 0-8.101 0-10.306 0-.855 0-1.585.618-1.726 1.462-.148.888-.361 2.165-.361 2.165-.036.217.025.44.168.608.142.168.352.265.572.265h13c.22 0 .43-.097.572-.265.143-.168.204-.391.168-.608 0 0-.213-1.277-.361-2.165zm-1.48.247.216 1.291h-11.23s.216-1.291.216-1.291c.02-.121.124-.209.246-.209h10.306c.122 0 .226.088.246.209z"/><circle cx="18.25" cy="6" r="1"/><circle cx="14.75" cy="6" r="1"/><path d="m8.5 5.25h-3c-.414 0-.75.336-.75.75s.336.75.75.75h3c.414 0 .75-.336.75-.75s-.336-.75-.75-.75z"/></g></svg>