<svg clip-rule="evenodd" fill-rule="evenodd" height="512" stroke-linejoin="round" stroke-miterlimit="2" viewBox="0 0 24 24" width="512" xmlns="http://www.w3.org/2000/svg"><g id="Icon"><path d="m20.75 8.354v-.354c0-1.518-1.232-2.75-2.75-2.75h-14c-1.518 0-2.75 1.232-2.75 2.75v8c0 1.518 1.232 2.75 2.75 2.75h14c1.518 0 2.75-1.232 2.75-2.75v-.354c1.154-.326 2-1.388 2-2.646v-2c0-1.258-.846-2.32-2-2.646zm-1.5.646c0 .414.336.75.75.75.69 0 1.25.56 1.25 1.25v2c0 .69-.56 1.25-1.25 1.25-.414 0-.75.336-.75.75v1c0 .69-.56 1.25-1.25 1.25h-14c-.69 0-1.25-.56-1.25-1.25v-8c0-.69.56-1.25 1.25-1.25h14c.69 0 1.25.56 1.25 1.25z"/></g></svg>