<svg height="512" viewBox="0 0 32 32" width="512" xmlns="http://www.w3.org/2000/svg"><g id="Layer_30" data-name="Layer 30"><path d="m9 15h2v2h-2z"/><path d="m9 19h2v2h-2z"/><path d="m12 11h1v1a1 1 0 0 0 2 0v-1h1a1 1 0 0 0 0-2h-1v-1a1 1 0 0 0 -2 0v1h-1a1 1 0 0 0 0 2z"/><path d="m13 15h2v2h-2z"/><path d="m13 19h2v2h-2z"/><path d="m17 15h2v2h-2z"/><path d="m17 19h2v2h-2z"/><path d="m28 27h-1v-17a1 1 0 0 0 -1-1h-3v-5a1 1 0 0 0 -1-1h-16a1 1 0 0 0 -1 1v23h-1a1 1 0 0 0 0 2h24a1 1 0 0 0 0-2zm-21-22h14v19a1 1 0 0 0 2 0v-13h2v16h-8v-3a1 1 0 0 0 -1-1h-4a1 1 0 0 0 -1 1v3h-4zm8 22h-2v-2h2z"/></g></svg>