<svg clip-rule="evenodd" fill-rule="evenodd" stroke-linejoin="round" stroke-miterlimit="2" viewBox="0 0 32 32" xmlns="http://www.w3.org/2000/svg" xmlns:serif="http://www.serif.com/"><g transform="translate(-240 -96)"><g id="video-call-streaming-meeting-online" transform="translate(240 96)"><path d="m0 0h32v32h-32z" fill="none"/><g transform="translate(-240 -96)"><path d="m256 99c2.01 0 4.019.006 6.029.019 1.546.028 2.928 1.364 2.958 2.958.041 6.682.041 13.364 0 20.046-.029 1.541-1.339 2.928-2.958 2.958-4.019.025-8.039.025-12.058 0-1.545-.029-2.928-1.364-2.958-2.958-.041-6.682-.041-13.364 0-20.046.029-1.546 1.365-2.929 2.958-2.958 2.01-.013 4.019-.019 6.029-.019zm2 2.005c-.003 1.101-.898 1.995-2 1.995-1.1 0-1.994-.891-2-1.99-1.329.003-2.659.006-3.988.006-.522.003-.992.456-1.002.986-.041 6.669-.124 13.34 0 20.009.016.51.467.964.986.973 4.007.025 8.014.075 12.02 0 .513-.016.964-.469.974-.986.041-6.669.124-13.34 0-20.009-.016-.511-.467-.964-.986-.973-1.335-.009-2.669-.011-4.004-.011zm-4.63 13.009c-.71-.629-1.204-1.507-1.336-2.45-.238-1.699.751-3.501 2.318-4.21.524-.237 1.101-.356 1.674-.354 1.469.014 2.905.903 3.562 2.225.54 1.087.549 2.422.021 3.517-.238.494-.586.926-1.006 1.277.841.735 1.398 1.806 1.402 2.992 0 0-.015.452-.319.735-.378.351-1.036.337-1.399-.034-.18-.185-.278-.439-.284-.699-.002-.056-.002-.085-.004-.117-.062-1.041-1.048-1.937-2.103-1.883-1.007.051-1.895.949-1.898 2.001l-.005.095c-.087.712-1.036 1.181-1.642.669-.494-.417-.398-1.258-.168-1.979.22-.694.64-1.309 1.187-1.785zm2.617-5.011c-.896.008-1.743.681-1.941 1.562-.203.906.317 1.922 1.176 2.286 1.109.469 2.568-.3 2.757-1.54.17-1.11-.727-2.281-1.94-2.308-.017 0-.035-.001-.052 0z"/></g></g></g></svg>