<svg clip-rule="evenodd" fill-rule="evenodd" height="512" stroke-linejoin="round" stroke-miterlimit="2" viewBox="0 0 24 24" width="512" xmlns="http://www.w3.org/2000/svg"><g id="Icon"><path d="m21.25 12.048c0 5.08-4.146 9.202-9.25 9.202s-9.25-4.122-9.25-9.202c0-5.079 4.146-9.201 9.25-9.201 2.819 0 5.346 1.257 7.043 3.239.27.314.743.351 1.058.082.314-.27.351-.743.081-1.058-1.972-2.302-4.907-3.763-8.182-3.763-5.934 0-10.75 4.796-10.75 10.701 0 5.906 4.816 10.702 10.75 10.702s10.75-4.796 10.75-10.702c0-.414-.336-.75-.75-.75s-.75.336-.75.75z"/><path d="m19.08 3.041.129 2.36s-2.24.093-2.24.093c-.414.018-.736.367-.718.781.017.414.367.735.78.718l3-.125c.201-.008.389-.096.524-.245.135-.148.205-.345.194-.545l-.171-3.119c-.023-.413-.377-.731-.791-.708-.413.023-.73.377-.707.79z"/><path d="m7.75 11.008h2c.138 0 .25.112.25.25v.986c0 .138-.112.25-.25.25h-1c-.967 0-1.75.783-1.75 1.75v.985c0 .967.783 1.75 1.75 1.75h2c.414 0 .75-.336.75-.75 0-.413-.336-.75-.75-.75h-2c-.138 0-.25-.111-.25-.249 0-.001 0-.986 0-.986 0-.138.112-.25.25-.25h1c.967 0 1.75-.784 1.75-1.75v-.986c0-.966-.783-1.75-1.75-1.75h-2c-.414 0-.75.337-.75.75 0 .414.336.75.75.75z"/><path d="m12.5 10.258v1.986c0 .966.783 1.75 1.75 1.75h2c.414 0 .75-.336.75-.75s-.336-.75-.75-.75h-2c-.138 0-.25-.112-.25-.25v-1.986c0-.413-.336-.75-.75-.75s-.75.337-.75.75z"/><path d="m15.5 10.258v5.971c0 .414.336.75.75.75s.75-.336.75-.75v-5.971c0-.413-.336-.75-.75-.75s-.75.337-.75.75z"/></g></svg>