<svg clip-rule="evenodd" fill-rule="evenodd" height="512" stroke-linejoin="round" stroke-miterlimit="2" viewBox="0 0 24 24" width="512" xmlns="http://www.w3.org/2000/svg"><g id="Icon"><path d="m21 1.25h-9c-.966 0-1.75.784-1.75 1.75v5c0 .966.784 1.75 1.75 1.75h1.25v1.75c0 .293.171.56.438.682.266.122.58.078.802-.114l2.689-2.318h3.821c.966 0 1.75-.784 1.75-1.75v-5c0-.966-.784-1.75-1.75-1.75zm0 1.5c.138 0 .25.112.25.25v5c0 .138-.112.25-.25.25h-4.1c-.18 0-.354.065-.49.182l-1.66 1.431v-.863c0-.414-.336-.75-.75-.75h-2c-.138 0-.25-.112-.25-.25v-5c0-.138.112-.25.25-.25z"/><path d="m14.75 20.484c0-.881-.517-1.73-1.486-2.391-1.189-.81-3.101-1.359-5.264-1.359s-4.075.549-5.264 1.359c-.969.661-1.486 1.51-1.486 2.391v.916c0 .358.142.701.395.955.254.253.597.395.955.395h10.8c.358 0 .701-.142.955-.395.253-.254.395-.597.395-.955zm-1.5.766h-10.5v-.766c0-.444.342-.818.831-1.151.995-.679 2.608-1.099 4.419-1.099s3.424.42 4.419 1.099c.489.333.831.707.831 1.151z"/><path d="m8 9.374c-2.07 0-3.75 1.68-3.75 3.75 0 2.069 1.68 3.75 3.75 3.75s3.75-1.681 3.75-3.75c0-2.07-1.68-3.75-3.75-3.75zm0 1.5c1.242 0 2.25 1.008 2.25 2.25 0 1.241-1.008 2.25-2.25 2.25s-2.25-1.009-2.25-2.25c0-1.242 1.008-2.25 2.25-2.25z"/></g></svg>