<svg clip-rule="evenodd" fill-rule="evenodd" stroke-linejoin="round" stroke-miterlimit="2" viewBox="0 0 32 32" xmlns="http://www.w3.org/2000/svg" xmlns:serif="http://www.serif.com/"><path id="task-report-homework" d="m0 0h32v32h-32z" fill="none"/><path d="m24.001 3h.033c2.586.025 4.94 2.273 4.966 4.966v10.034s-.222.971-1 1h-4c-.582-.022-1.077-.565-.989-1.149.071-.473.396-.829.989-.851h3c0-3.02.047-6.041-.001-9.06-.034-1.553-1.389-2.935-2.999-2.94 0 0-.018-.004-.05-.012-.054.009-.109.016-.165.019-1.494.109-2.78 1.444-2.785 2.993v20c-.025.536-.46.975-1 1h-16c-.782-.037-1.298-1.029-.756-1.655.182-.21.33-.325.756-.345h15c0-6.355-.06-12.711 0-19.066.017-1.056.372-2.086.993-2.927l.006-.007c-4.012 0-8.024-.025-12.036 0-.208.004-.25.011-.37.028-1.411.193-2.584 1.495-2.593 2.975v15.997c-.031.646-.33.793-.585.91-.6.274-1.381-.206-1.415-.91v-16.003c.016-2.592 2.241-4.98 4.997-4.997h16.003zm-13.001 15.586 1.293-1.293c.195-.188.39-.29.717-.293.013 0 .026.001.04.001.77.054 1.258 1.081.657 1.706l-1.293 1.293 1.293 1.293c.684.712-.349 2.438-1.414 1.414l-1.293-1.293-1.293 1.293c-.72.692-2.438-.349-1.414-1.414l1.293-1.293-1.293-1.293c-.545-.567-.17-1.681.697-1.707h.04c.257.013.452.076.677.293zm3.036-9.585c.781.047 1.269 1.078.671 1.706l-4 4c-.127.121-.176.147-.27.192-.375.183-.792.144-1.144-.192l-2-2c-.682-.715.349-2.429 1.414-1.414l1.293 1.293 3.293-3.293s.401-.296.743-.292z"/></svg>