<?xml version="1.0"?>
<svg xmlns="http://www.w3.org/2000/svg" viewBox="0 0 32 32" width="512" height="512"><g id="camera_device" data-name="camera, device"><path d="M16,23a6,6,0,1,0-6-6A6.0066,6.0066,0,0,0,16,23Zm0-10a4,4,0,1,1-4,4A4.0039,4.0039,0,0,1,16,13Z"/><path d="M26,8H21.5352L20.4258,6.3359A2.9934,2.9934,0,0,0,17.93,5H14.07a2.9919,2.9919,0,0,0-2.4961,1.3369L10.4648,8H6a3.0033,3.0033,0,0,0-3,3V24a3.0008,3.0008,0,0,0,3,3H8a1,1,0,0,0,0-2H6a1,1,0,0,1-1-1V11a1.0006,1.0006,0,0,1,1-1h5a1,1,0,0,0,.832-.4453l1.4063-2.1094A.9965.9965,0,0,1,14.07,7H17.93a.998.998,0,0,1,.832.4443l1.4063,2.11A1,1,0,0,0,21,10h5a1.0006,1.0006,0,0,1,1,1V24a1.0006,1.0006,0,0,1-1,1H12a1,1,0,0,0,0,2H26a3.0033,3.0033,0,0,0,3-3V11A3.0033,3.0033,0,0,0,26,8Z"/></g></svg>
