<svg height="512" viewBox="0 0 32 32" width="512" xmlns="http://www.w3.org/2000/svg"><g id="anchor_fm_media_social" data-name="anchor, fm, media, social"><path d="m14 15h-3.28a2 2 0 0 0 -1.72-1 2 2 0 0 0 0 4 2 2 0 0 0 1.72-1h3.28a1 1 0 0 0 0-2z"/><path d="m16.5 20.33a5 5 0 0 0 0-8.66 1 1 0 0 0 -1 1.73 3 3 0 0 1 0 5.2 1 1 0 0 0 -.36 1.4 1 1 0 0 0 .86.5 1 1 0 0 0 .5-.17z"/><path d="m17.43 23.23a8 8 0 0 0 0-14.46 1 1 0 0 0 -.86 1.81 6 6 0 0 1 0 10.84 1 1 0 0 0 .43 1.91 1.08 1.08 0 0 0 .43-.1z"/><path d="m18.4 5.92a1 1 0 1 0 -.8 1.83 9 9 0 0 1 0 16.5 1 1 0 0 0 -.52 1.32 1 1 0 0 0 .92.6 1 1 0 0 0 .4-.09 11 11 0 0 0 0-20.16z"/></g></svg>