<svg clip-rule="evenodd" fill-rule="evenodd" height="512" stroke-linejoin="round" stroke-miterlimit="2" viewBox="0 0 24 24" width="512" xmlns="http://www.w3.org/2000/svg"><g id="Icon"><path d="m22.75 11v-7c0-.729-.29-1.429-.805-1.945-.516-.515-1.216-.805-1.945-.805-3.832 0-12.168 0-16 0-.729 0-1.429.29-1.945.805-.515.516-.805 1.216-.805 1.945v14c0 1.519 1.231 2.75 2.75 2.75h6.5c.414 0 .75-.336.75-.75s-.336-.75-.75-.75h-6.5c-.69 0-1.25-.56-1.25-1.25v-14c0-.332.132-.649.366-.884.235-.234.552-.366.884-.366h16c.332 0 .649.132.884.366.234.235.366.552.366.884v7c0 .414.336.75.75.75s.75-.336.75-.75z"/><path d="m2 7.75h20c.414 0 .75-.336.75-.75s-.336-.75-.75-.75h-20c-.414 0-.75.336-.75.75s.336.75.75.75z"/><path d="m8.5 5.25h1c.414 0 .75-.336.75-.75s-.336-.75-.75-.75h-1c-.414 0-.75.336-.75.75s.336.75.75.75z"/><path d="m5 5.25h1c.414 0 .75-.336.75-.75s-.336-.75-.75-.75h-1c-.414 0-.75.336-.75.75s.336.75.75.75z"/><path d="m18.348 12.691-5.399 5.4c-.112.111-.185.255-.21.41l-.55 3.378c-.039.239.039.481.21.651.17.171.412.249.65.21l3.379-.55c.155-.025.298-.098.41-.21l5.399-5.399c.684-.684.684-1.792 0-2.475l-1.414-1.415c-.683-.683-1.791-.683-2.475 0zm1.061 1.061c.098-.097.256-.097.354 0 0 0 1.414 1.414 1.414 1.414.097.098.097.256 0 .354 0 0-5.229 5.229-5.229 5.229s-2.111.343-2.111.343.343-2.111.343-2.111z"/><path d="m20.798 16.959-2.828-2.828c-.293-.293-.768-.293-1.061 0s-.293.768 0 1.06l2.828 2.829c.293.293.768.293 1.061 0s.293-.768 0-1.061z"/></g></svg>