<svg clip-rule="evenodd" fill-rule="evenodd" height="512" stroke-linejoin="round" stroke-miterlimit="2" viewBox="0 0 24 24" width="512" xmlns="http://www.w3.org/2000/svg"><g id="Icon"><path d="m10.794 1.775-1.445 1.445c-.067.066-.161.097-.253.082 0 0-2.019-.319-2.019-.319-.469-.075-.949.041-1.334.32-.385.28-.643.701-.717 1.17 0 0-.32 2.018-.32 2.018-.015.093-.073.173-.156.216 0 0-1.821.927-1.821.927-.424.216-.744.592-.891 1.044s-.108.945.107 1.368c0 0 .928 1.821.928 1.821.043.084.043.182 0 .266 0 0-.928 1.821-.928 1.821-.215.423-.254.916-.107 1.368s.467.828.891 1.044c0 0 1.821.927 1.821.927.083.043.141.123.156.216 0 0 .32 2.018.32 2.018.074.469.332.89.717 1.17.385.279.865.395 1.335.32-.001 0 2.018-.319 2.018-.319.092-.015.186.016.253.082 0 0 1.445 1.445 1.445 1.445.336.336.792.525 1.268.525.475 0 .931-.189 1.268-.525 0 0 1.444-1.445 1.444-1.445.067-.066.161-.097.254-.082 0 0 2.018.319 2.018.319.469.075.95-.041 1.334-.32.385-.28.643-.701.717-1.17 0 0 .32-2.018.32-2.018.015-.093.073-.173.157-.216 0 0 1.82-.927 1.82-.927.424-.216.745-.592.891-1.044.147-.452.109-.945-.107-1.368 0 0-.928-1.821-.928-1.821-.042-.084-.042-.182 0-.266 0 0 .928-1.821.928-1.821.216-.423.254-.916.107-1.368-.146-.452-.467-.828-.891-1.044 0 0-1.82-.927-1.82-.927-.084-.043-.142-.123-.157-.216 0 0-.32-2.018-.32-2.018-.074-.469-.332-.89-.717-1.17-.384-.279-.865-.395-1.334-.32 0 0-2.018.319-2.018.319-.093.015-.187-.016-.254-.082 0 0-1.444-1.445-1.444-1.445-.337-.336-.793-.525-1.268-.525-.476 0-.932.189-1.268.525zm-.385 2.506 1.445-1.445c.055-.055.13-.086.208-.086.077 0 .152.031.207.086l1.445 1.445c.406.406.981.593 1.548.503l2.018-.32c.077-.012.156.007.219.053.063.045.105.114.117.191l.32 2.018c.089.567.445 1.057.957 1.317l1.82.928c.069.035.122.097.146.171s.018.154-.018.223l-.927 1.821c-.261.511-.261 1.117 0 1.628l.927 1.821c.036.069.042.149.018.223s-.077.136-.146.171l-1.82.928c-.512.26-.868.75-.957 1.317l-.32 2.018c-.012.077-.054.146-.117.191-.063.046-.142.065-.219.053l-2.018-.32c-.567-.09-1.142.097-1.548.503l-1.445 1.445c-.055.055-.13.086-.207.086-.078 0-.153-.031-.208-.086l-1.445-1.445c-.405-.406-.981-.593-1.548-.503l-2.018.32c-.077.012-.155-.007-.218-.053-.063-.045-.105-.114-.118-.191l-.319-2.018c-.09-.567-.446-1.057-.957-1.317l-1.821-.928c-.069-.035-.122-.097-.146-.171s-.017-.154.018-.223l.928-1.821c.26-.511.26-1.117 0-1.628l-.928-1.821c-.035-.069-.042-.149-.018-.223s.077-.136.146-.171l1.821-.928c.511-.26.867-.75.957-1.317l.319-2.018c.013-.077.055-.146.118-.191.063-.046.141-.065.218-.053l2.018.32c.567.09 1.143-.097 1.548-.503z"/><path d="m12.062 5.25c-3.726 0-6.75 3.025-6.75 6.75s3.024 6.75 6.75 6.75c3.725 0 6.75-3.025 6.75-6.75s-3.025-6.75-6.75-6.75zm0 1.5c2.897 0 5.25 2.352 5.25 5.25s-2.353 5.25-5.25 5.25c-2.898 0-5.25-2.352-5.25-5.25s2.352-5.25 5.25-5.25z"/><path d="m8.781 12.28 2 2c.293.293.768.293 1.061 0l3.5-3.5c.293-.292.293-.768 0-1.06-.293-.293-.768-.293-1.061 0l-2.969 2.969s-1.47-1.469-1.47-1.469c-.293-.293-.768-.293-1.061 0-.292.292-.292.768 0 1.06z"/></g></svg>