<svg clip-rule="evenodd" fill-rule="evenodd" height="512" stroke-linejoin="round" stroke-miterlimit="2" viewBox="0 0 24 24" width="512" xmlns="http://www.w3.org/2000/svg"><g id="Icon"><path d="m20 22.75c1.518 0 2.75-1.232 2.75-2.75v-16c0-1.518-1.232-2.75-2.75-2.75h-16c-1.518 0-2.75 1.232-2.75 2.75v16c0 1.518 1.232 2.75 2.75 2.75zm0-1.5h-16c-.69 0-1.25-.56-1.25-1.25v-16c0-.69.56-1.25 1.25-1.25h16c.69 0 1.25.56 1.25 1.25v16c0 .69-.56 1.25-1.25 1.25z"/><path d="m13 9.25c.966 0 1.75-.784 1.75-1.75v-2.5c0-.414-.336-.75-.75-.75h-4c-.414 0-.75.336-.75.75v2.5c0 .966.784 1.75 1.75 1.75zm0-1.5h-2c-.138 0-.25-.112-.25-.25v-1.75h2.5v1.75c0 .138-.112.25-.25.25z"/><path d="m2 6.75h8c.414 0 .75-.336.75-.75s-.336-.75-.75-.75h-8c-.414 0-.75.336-.75.75s.336.75.75.75z"/><path d="m14 6.75h8c.414 0 .75-.336.75-.75s-.336-.75-.75-.75h-8c-.414 0-.75.336-.75.75s.336.75.75.75z"/><path d="m11.25 8.5v2c0 .414.336.75.75.75s.75-.336.75-.75v-2c0-.414-.336-.75-.75-.75s-.75.336-.75.75z"/><path d="m11.451 12.478-3.501 1.711c-.427.21-.7.646-.7 1.123v4.379c0 .472.267.905.689 1.117l3.504 1.752c.352.175.766.174 1.116-.001 0 0 3.5-1.75 3.5-1.75.425-.212.691-.645.691-1.118v-4.379c0-.477-.272-.914-.702-1.124.001 0-3.499-1.71-3.499-1.71-.344-.169-.75-.17-1.098.001zm-2.701 2.989v4.07l3.25 1.625 3.25-1.626v-4.068l-3.25-1.588z"/><path d="m12.7 21.941v-4.441s3.589-1.496 3.589-1.496c.382-.159.563-.599.403-.981-.159-.382-.598-.563-.98-.403l-4.05 1.688c-.28.116-.462.389-.462.692v4.941c0 .414.336.75.75.75s.75-.336.75-.75z"/><path d="m12.265 16.319-3.793-1.751c-.376-.173-.822-.009-.996.367-.173.375-.009.821.367.995l3.793 1.751c.376.173.822.009.995-.367.174-.375.009-.821-.366-.995z"/></g></svg>