<svg clip-rule="evenodd" fill-rule="evenodd" stroke-linejoin="round" stroke-miterlimit="1.414" viewBox="0 0 32 32" xmlns="http://www.w3.org/2000/svg" xmlns:serif="http://www.serif.com/"><path id="ball-basketball-basket-sport" d="m0 0h32v32h-32z" fill="none"/><g id="ball-basketball-basket-sport1"><path d="m5.041 17.032c.027.302.066.603.118.902 0 0 .034.725-.471 1.028-.562.337-1.387-.019-1.512-.748-.014-.084-.027-.168-.04-.252-.716-4.764 1.435-9.833 5.446-12.615 2.127-1.475 4.681-2.293 7.302-2.321h.157c4.455.034 8.831 2.481 11.135 6.358.206.347.287.769.102 1.116-.344.645-1.376.667-1.786-.032-.012-.021-.024-.041-.036-.061-.247-.414-.522-.807-.821-1.18l.038.048c-1.984 1.143-3.288 3.362-3.607 5.757h5.888c-.026-.303-.065-.604-.117-.902 0 0-.032-.548.256-.855.209-.223.512-.33.836-.31.677.104.907.837.996 1.641.441 3.983-1.088 8.14-4.005 10.889-3.973 3.746-10.379 4.605-15.251 1.899-1.97-1.094-3.646-2.717-4.807-4.643-.158-.262-.289-.546-.254-.836.066-.548.651-.978 1.204-.858.503.108.762.684 1.067 1.137.146.216.301.427.463.631l-.026-.032c1.988-1.142 3.297-3.363 3.617-5.761zm11.081 10h-.01.02l.029-.001zm-.084 0h.016l-.04-.001zm.205-.001h-.042.026zm-.3 0h.028-.037l-.009-.001zm.367-.002-.01.001.021-.001.03-.001zm-.462 0h.016l-.038-.001zm.584-.003-.043.001h.027zm-.678 0 .026.001-.034-.001h-.007zm.744-.002h-.009l.021-.001.031-.001zm-.839-.001.016.001-.036-.002zm.962-.005-.044.002.028-.001zm-1.056.001.023.001-.029-.002h-.006zm1.121-.004h-.004l.018-.001.03-.002zm-1.215-.001.014.001-.033-.002zm1.339-.007-.046.003.03-.002zm-1.434.001.02.001-.025-.002h-.004zm1.543-.009-.046.003.016-.001zm-1.637.002.014.001-.03-.002zm1.716-.009-.046.004.031-.002zm-1.81.002.015.001-.019-.002h-.002zm3.88-9.962h-2.07v9.96l.079-.007c.095-.009.189-.019.283-.031 2.178-.27 4.251-1.236 5.903-2.681-2.343-1.537-3.878-4.271-4.195-7.241zm-3.974 9.953.012.001-.026-.002zm-.094-.009.009.001-.012-.001zm-.003 0v-9.944h-2.039c-.147 1.852-.786 3.672-1.989 5.197-.626.794-1.38 1.504-2.226 2.052-.028-.024-.056-.048-.084-.073 1.754 1.541 4.008 2.529 6.338 2.768zm8.406-2.828c-.046.042-.093.084-.14.125.047-.041.094-.083.14-.125zm-14.788.021.021.019-.035-.031zm14.833-.062-.041.038.018-.016zm-14.904-.001.028.025-.023-.021-.029-.026zm14.955-.046-.041.038.027-.025zm.047-.043-.045.042.044-.041.046-.044zm-15.071.026.017.015-.031-.028zm-.069-.064.021.02-.021-.02-.021-.019zm15.224-.042-.038.036.013-.012zm-15.293-.023.014.013-.028-.026zm15.343-.025-.036.035.02-.019zm.129-.127c-.038.038-.076.076-.115.114.039-.038.077-.076.115-.114zm-15.54.087.019.018-.022-.021-.009-.009zm-.067-.066.011.011-.025-.025zm15.655-.069-.033.033.015-.015zm-15.722.003.016.016-.021-.022zm15.772-.054-.032.033.022-.022zm-15.838-.013.009.008-.023-.023zm15.885-.035-.033.034.033-.034.032-.033zm-15.95-.033.014.015-.021-.022zm16.027-.048-.031.033.01-.011zm-16.092-.02.006.007-.02-.022zm16.141-.032-.031.033.018-.019zm.122-.133c-.035.038-.07.077-.105.115.035-.038.07-.077.105-.115zm-16.328.097.014.014-.022-.023zm-.063-.07.004.005-.018-.02zm16.438-.079-.03.034.013-.016zm-16.502.01.013.013-.022-.024zm16.55-.064-.031.035.021-.024zm-16.612-.007.008.009-.006-.006-.015-.018zm16.655-.043-.032.037.033-.038.03-.035zm-16.717-.028.011.013-.022-.025zm16.791-.058-.03.036.01-.013zm-16.852-.013.014.016-.015-.017-.012-.014zm16.898-.042-.03.037.017-.021zm.117-.14c-.034.042-.069.083-.103.125.034-.042.069-.083.103-.125zm-17.076.11.011.012-.024-.028zm-.06-.073.017.021-.021-.026-.007-.009zm17.179-.091-.031.038.015-.018zm-17.238.018.01.012-.025-.031zm19.566-5.844h-5.916c.115 1.128.461 2.24 1.07 3.244.629 1.036 1.509 1.947 2.563 2.526l-.032.04c.399-.499.754-1.034 1.058-1.599.698-1.3 1.122-2.743 1.257-4.211zm.006-.062-.006.062.005-.049.006-.067zm-21.913.058v.003l-.001-.012zm-.01-.114.001.009-.001-.013zm21.933-.069-.004.06.003-.036.004-.058zm-21.941-.045.001.012-.001-.019zm21.95-.073-.004.054.002-.027zm-21.957-.041.001.011-.001-.021zm21.961-.028-.001.006.002-.024.001-.028zm-21.967-.086.001.009-.001-.02zm21.974-.04-.001.02.001-.026.001-.027zm-21.979-.074.001.006-.001-.017zm21.984-.051-.001.028.001-.024v-.02zm-21.987-.062v.005-.006-.005zm21.991-.059-.001.031v-.021zm-21.993-.055v.012-.019zm21.995-.062-.001.03.001-.017zm-21.997-.052.001.013-.001-.024zm21.998-.064v.027-.013zm-21.998-.05v.012-.027zm21.998-.065v.023-.008zm-21.997-.049v.01l.001-.028zm21.996-.063v.017-.005zm-21.993-.051v.011-.005-.026zm21.991-.055v.014-.01zm-21.988-.059v.022-.027l.001-.014zm21.984-.059.001.02-.001-.013zm-21.979-.055-.001.025.002-.04zm21.974-.062.001.022v-.012zm-21.968-.052-.002.024.003-.046zm21.962-.065.002.022-.001-.01zm-21.955-.048-.002.022.004-.053zm21.948-.066.001.019v-.007zm-21.94-.048-.004.051.003-.039.004-.055zm21.932-.064.001.013v-.003zm-19.515-6.025c-.445.543-.838 1.129-1.168 1.75-.702 1.322-1.123 2.786-1.245 4.279.004-.038.007-.076.01-.114h5.92c-.114-1.113-.454-2.211-1.05-3.207-.628-1.05-1.514-1.977-2.584-2.563.039-.049.078-.097.117-.145zm19.506 5.917.001.014v-.01zm-9.956-9.945v9.943h2.043c.034-.419.093-.839.178-1.256.492-2.412 1.947-4.669 4.017-5.992.048.041.095.082.142.124-1.772-1.577-4.039-2.579-6.38-2.819zm-2.001-.017c-.12.01-.241.023-.362.038-2.178.27-4.252 1.237-5.905 2.684 2.388 1.557 3.881 4.318 4.197 7.238h2.07zm9.594 4.102.034.042-.033-.042-.031-.037zm-.079-.096.034.041-.018-.022zm-17.042.012-.018.022.037-.045zm.141-.167c-.039.045-.078.091-.116.137.038-.046.077-.092.116-.137zm16.856.101.026.031-.029-.035-.024-.028zm-.081-.095.031.036-.018-.021zm-16.757-.028-.014.017.036-.041zm16.711-.025.015.017-.021-.024-.021-.023zm-16.657-.037-.022.026.036-.041zm.134-.149c-.039.043-.078.086-.116.13.038-.044.077-.087.116-.13zm16.44.092.028.032-.017-.02zm-.075-.082.028.03-.009-.01zm-16.334-.045-.018.021.034-.037zm16.276-.018.028.03-.019-.021zm-16.137-.13c-.037.039-.074.079-.111.118.037-.039.074-.079.111-.118zm16.06.048.028.03-.01-.011zm-.058-.061.027.028-.02-.021-.014-.015zm-15.972-.019-.015.016.032-.034zm15.892-.063.03.031-.013-.013zm-15.835.004-.022.023.032-.033zm.058-.059-.035.036.033-.034.029-.029zm15.721-.001.026.026-.023-.023-.024-.024zm-15.663-.057-.012.011.031-.03zm15.578-.027.033.032-.015-.015zm-15.52-.031-.018.018.03-.029zm15.466-.022.027.026-.027-.026-.029-.028zm-15.407-.036-.023.023.026-.025.019-.019zm15.318-.049.036.034-.019-.018zm-15.258-.008-.008.008.026-.026zm15.207-.04.031.029-.035-.033-.033-.03zm-15.148-.016-.014.013.027-.025zm14.962-.154c.044.04.088.08.132.12-.044-.04-.088-.08-.132-.12zm-14.901.097-.019.017.024-.022zm.06-.055-.004.004.02-.019zm.061-.056-.01.009.023-.02zm.061-.055-.013.013.02-.019zm8.22-2.769.032.003-.016-.002zm-.078-.007.011.001-.016-.001-.023-.002zm-1.633-.013c-.06.004-.12.008-.181.014.061-.005.121-.01.181-.014zm1.515.004.037.002-.022-.001zm-1.327-.016c-.059.003-.118.007-.177.011.059-.004.118-.008.177-.011zm1.217.008.039.003-.013-.001zm-.084-.005.04.002-.028-.001-.024-.002zm-.113-.006.045.002-.019-.001zm-.83-.005c-.059.002-.117.004-.176.007.059-.003.117-.005.176-.007zm.756.002.037.002-.036-.002-.039-.001zm-.121-.004.049.002-.025-.001zm-.569 0-.051.002.052-.002.051-.001zm.502-.001h.038l-.046-.001h-.038zm-.403-.001h-.031l.057-.001zm.099-.001h-.062.053l.049-.001zm.063-.001c.056 0 .111.001.167.001-.056 0-.111-.001-.167-.001z" fill-rule="nonzero"/></g></svg>