<svg clip-rule="evenodd" fill-rule="evenodd" height="512" stroke-linejoin="round" stroke-miterlimit="2" viewBox="0 0 24 24" width="512" xmlns="http://www.w3.org/2000/svg"><g id="Icon"><path d="m12.364 1.344c-.226-.125-.502-.125-.728 0l-9 5c-.238.133-.386.384-.386.656s.148.523.386.656l9 5c.226.125.502.125.728 0l9-5c.238-.133.386-.384.386-.656s-.148-.523-.386-.656zm-.364 1.514 7.456 4.142s-7.456 4.142-7.456 4.142-7.456-4.142-7.456-4.142z"/><path d="m11.636 11.344c-.238.133-.386.384-.386.656v10c0 .266.141.512.37.646.229.135.512.139.744.01l8.488-4.715c.554-.31.898-.894.898-1.529v-9.412c0-.266-.141-.512-.37-.646-.229-.135-.512-.139-.744-.01zm1.114 1.097 7.5-4.166v8.137c0 .091-.05.175-.13.219 0 0-7.37 4.094-7.37 4.094z"/><path d="m12.75 12c0-.272-.148-.523-.386-.656l-9-5c-.232-.129-.515-.125-.744.01-.229.134-.37.38-.37.646v9.412c0 .635.344 1.219.898 1.529l8.488 4.715c.232.129.515.125.744-.01.229-.134.37-.38.37-.646zm-1.5.441v8.284s-7.37-4.094-7.37-4.094c-.08-.044-.13-.128-.13-.219v-8.137z"/></g></svg>