<svg clip-rule="evenodd" fill-rule="evenodd" height="512" stroke-linejoin="round" stroke-miterlimit="2" viewBox="0 0 24 24" width="512" xmlns="http://www.w3.org/2000/svg"><g id="Icon"><path d="m22.745 8.11c.042-.372-.196-.718-.559-.81-3.07-.787-5.383-2.334-7.483-4.092-.298-.249-.737-.23-1.012.045l-3.535 3.536c-.287.286-.294.748-.016 1.044 1.849 1.967 3.446 4.192 4.052 7.403.073.388.434.653.826.606 2.297-.274 4.087-1.066 5.375-2.349 1.291-1.284 2.091-3.069 2.352-5.383zm-1.579.464c-.275 1.621-.879 2.909-1.831 3.856-.944.94-2.223 1.537-3.819 1.822-.687-2.881-2.109-5.025-3.792-6.91 0 0 2.547-2.548 2.547-2.548 1.972 1.587 4.151 2.964 6.895 3.78z"/><path d="m14.603 13.163c2.828-.814 4.66-2.625 5.47-5.458.113-.398-.118-.814-.516-.927-.398-.114-.813.117-.927.515-.657 2.3-2.146 3.768-4.442 4.428-.398.115-.628.531-.514.928.115.398.531.628.929.514z"/><path d="m15.813 4.667.884-.884s1.06 1.061 1.06 1.061-.53.53-.53.53c-.293.293-.293.768 0 1.061s.768.293 1.061 0l1.06-1.061c.293-.292.293-.767 0-1.06l-2.121-2.122c-.293-.292-.768-.292-1.061 0l-1.414 1.415c-.293.292-.293.768 0 1.06.293.293.768.293 1.061 0z"/><path d="m10.414 7.966c-2.593 3.926-5.558 7.48-8.912 10.644-.147.139-.232.332-.235.535s.076.398.22.541l2.121 2.122c.288.288.754.293 1.048.012 3.298-3.15 6.266-6.631 8.783-10.561.223-.349.122-.813-.227-1.036-.348-.223-.813-.122-1.036.227-2.317 3.618-5.027 6.843-8.028 9.776 0 0-1.058-1.058-1.058-1.058 3.209-3.108 6.063-6.571 8.576-10.375.228-.345.133-.811-.213-1.039-.345-.228-.811-.133-1.039.212z"/></g></svg>