<svg clip-rule="evenodd" fill-rule="evenodd" height="512" stroke-linejoin="round" stroke-miterlimit="2" viewBox="0 0 24 24" width="512" xmlns="http://www.w3.org/2000/svg"><g id="Icon"><path d="m2 22.75h20c.414 0 .75-.336.75-.75s-.336-.75-.75-.75h-20c-.414 0-.75.336-.75.75s.336.75.75.75z"/><path d="m7.25 22v-9c0-.138.112-.25.25-.25h9c.138 0 .25.112.25.25v9c0 .414.336.75.75.75s.75-.336.75-.75v-9c0-.967-.783-1.75-1.75-1.75h-9c-.967 0-1.75.784-1.75 1.75v9c0 .414.336.75.75.75s.75-.336.75-.75z"/><path d="m6.495 13.01 10.5 9.545c.307.278.782.256 1.06-.05.278-.307.256-.782-.05-1.06l-10.5-9.545c-.307-.279-.782-.256-1.06.05s-.256.781.05 1.06z"/><path d="m16.445 11.945-10.45 9.5c-.306.278-.328.753-.05 1.06.278.306.753.328 1.06.05l10.45-9.5c.306-.278.328-.753.05-1.06-.278-.306-.753-.328-1.06-.05z"/><path d="m10.5 5.25c-.414 0-.75.336-.75.75v3c0 .414.336.75.75.75h3c.414 0 .75-.336.75-.75v-3c0-.414-.336-.75-.75-.75zm.75 1.5h1.5v1.5h-1.5z"/><path d="m20.25 9v12.25h-16.5v-12.25c0-.414-.336-.75-.75-.75s-.75.336-.75.75v13c0 .414.336.75.75.75h18c.414 0 .75-.336.75-.75v-13c0-.414-.336-.75-.75-.75s-.75.336-.75.75z"/><path d="m22.671 10.665-3-6c-.08-.159-.213-.284-.376-.354l-7-3c-.188-.081-.402-.081-.59 0l-7 3c-.163.07-.296.195-.376.354l-3 6c-.185.37-.035.821.336 1.006.37.185.821.035 1.006-.336l2.877-5.754s6.452-2.765 6.452-2.765 6.452 2.765 6.452 2.765 2.877 5.754 2.877 5.754c.185.371.636.521 1.006.336.371-.185.521-.636.336-1.006z"/></g></svg>