<svg clip-rule="evenodd" fill-rule="evenodd" stroke-linejoin="round" stroke-miterlimit="1.414" viewBox="0 0 32 32" xmlns="http://www.w3.org/2000/svg" xmlns:serif="http://www.serif.com/"><path id="erlenmeyer-flask-glass-pharmacy" d="m0 0h32v32h-32z" fill="none"/><path d="m18.049 3.006c1.55.03 2.949 1.366 2.959 2.995 0 0-.215.966-.951 1.001-.538.026-1.02-.443-1.047-.998-.003-.063-.002-.063-.004-.091-.046-.484-.478-.892-.969-.908-1.345-.026-2.691-.009-4.036 0-.761.014-1.292 1.078-.711 1.688.187.196.451.308.727.31 0 0 .18.017.18.017.46.108.794.51.816.982v7.994c-.016.377-.045.353-.168.555-1.979 2.968-4.021 5.895-5.937 8.905-.366.588.068 1.522.837 1.532 4.184.018 8.369.09 12.551 0 .704-.021 1.215-.922.81-1.546 0 0-5.927-8.891-5.927-8.891s-.156-.283-.168-.555v-7.994c.03-.613.634-1.117 1.235-.971.37.09.674.407.746.782.016.083.014.105.018.189v7.692c1.923 2.884 3.859 5.76 5.769 8.654.749 1.156.573 2.805-.396 3.768-.548.544-1.308.86-2.087.87-4.189.019-8.379.019-12.568 0-1.454-.018-2.792-1.204-2.954-2.668-.076-.691.098-1.405.485-1.99l5.755-8.634v-6.863c-.201-.073-.249-.098-.366-.158-1.344-.688-2.01-2.481-1.367-3.903.466-1.031 1.532-1.741 2.694-1.764 1.358-.008 2.716-.008 4.074 0z" fill-rule="nonzero"/></svg>