<svg clip-rule="evenodd" fill-rule="evenodd" height="512" stroke-linejoin="round" stroke-miterlimit="2" viewBox="0 0 24 24" width="512" xmlns="http://www.w3.org/2000/svg"><g id="Icon"><path d="m13.95 9.5c0 .464-.184.909-.513 1.237-.328.329-.773.513-1.237.513h-1.4c-.414 0-.75-.336-.75-.75s.336-.75.75-.75h1.4c.066 0 .13-.026.177-.073s.073-.111.073-.177-.026-.13-.073-.177-.111-.073-.177-.073h-.4c-.464 0-.909-.184-1.237-.513-.329-.328-.513-.773-.513-1.237s.184-.909.513-1.237c.328-.329.773-.513 1.237-.513h1.4c.414 0 .75.336.75.75s-.336.75-.75.75h-1.4c-.066 0-.13.026-.177.073s-.073.111-.073.177.026.13.073.177.111.073.177.073h.4c.464 0 .909.184 1.237.513.329.328.513.773.513 1.237z"/><path d="m12.75 6.5c0 .414-.336.75-.75.75s-.75-.336-.75-.75v-1c0-.414.336-.75.75-.75s.75.336.75.75z"/><path d="m12.75 11.5c0 .414-.336.75-.75.75s-.75-.336-.75-.75v-1c0-.414.336-.75.75-.75s.75.336.75.75z"/><path d="m22.75 13c0 .414-.336.75-.75.75s-.75-.336-.75-.75v-9c0-.332-.132-.649-.366-.884-.235-.234-.552-.366-.884-.366h-16c-.332 0-.649.132-.884.366-.234.235-.366.552-.366.884v9c0 .332.132.649.366.884.235.234.552.366.884.366h7c.414 0 .75.336.75.75s-.336.75-.75.75h-7c-.729 0-1.429-.29-1.945-.805-.515-.516-.805-1.216-.805-1.945v-9c0-.729.29-1.429.805-1.945.516-.515 1.216-.805 1.945-.805h16c.729 0 1.429.29 1.945.805.515.516.805 1.216.805 1.945z"/><path d="m17 9.25c-.414 0-.75-.336-.75-.75s.336-.75.75-.75h2c.414 0 .75.336.75.75s-.336.75-.75.75z"/><path d="m5 9.25c-.414 0-.75-.336-.75-.75s.336-.75.75-.75h2c.414 0 .75.336.75.75s-.336.75-.75.75z"/><path d="m20.474 22.75h-6.948c-.811 0-1.561-.432-1.969-1.134-.407-.701-.41-1.567-.007-2.271l3.474-6.08c.405-.709 1.159-1.146 1.976-1.146s1.571.437 1.976 1.146l3.474 6.08c.403.704.4 1.57-.007 2.271-.408.702-1.158 1.134-1.969 1.134zm0-1.5c.277 0 .532-.147.671-.386.139-.24.14-.535.003-.775l-3.474-6.08c-.138-.241-.396-.39-.674-.39s-.536.149-.674.39l-3.474 6.08c-.137.24-.136.535.003.775.139.239.394.386.671.386z"/><path d="m16.25 16.119c0-.414.336-.75.75-.75s.75.336.75.75v2c0 .413-.336.75-.75.75s-.75-.337-.75-.75z"/><circle cx="17" cy="19.869" r=".75"/></g></svg>