<svg clip-rule="evenodd" fill-rule="evenodd" height="512" stroke-linejoin="round" stroke-miterlimit="2" viewBox="0 0 24 24" width="512" xmlns="http://www.w3.org/2000/svg"><g id="Icon"><path d="m22.75 6c0-1.26-.5-2.468-1.391-3.359s-2.099-1.391-3.359-1.391h-12c-1.26 0-2.468.5-3.359 1.391s-1.391 2.099-1.391 3.359v12c0 1.26.5 2.468 1.391 3.359s2.099 1.391 3.359 1.391h12c1.26 0 2.468-.5 3.359-1.391s1.391-2.099 1.391-3.359zm-1.5 0v12c0 .862-.342 1.689-.952 2.298-.609.61-1.436.952-2.298.952h-12c-.862 0-1.689-.342-2.298-.952-.61-.609-.952-1.436-.952-2.298v-12c0-.862.342-1.689.952-2.298.609-.61 1.436-.952 2.298-.952h12c.862 0 1.689.342 2.298.952.61.609.952 1.436.952 2.298z"/><path d="m4.9 10.45 3 4c.248.331.719.398 1.05.15s.398-.719.15-1.05l-3-4c-.248-.331-.719-.398-1.05-.15s-.398.719-.15 1.05z"/><path d="m14.9 10.45 1.5 2c.248.331.719.398 1.05.15s.398-.719.15-1.05l-1.5-2c-.248-.331-.719-.398-1.05-.15s-.398.719-.15 1.05z"/><path d="m7.9 9.55-3 4c-.248.331-.181.802.15 1.05s.802.181 1.05-.15l3-4c.248-.331.181-.802-.15-1.05s-.802-.181-1.05.15z"/><path d="m17.9 9.55-1.5 2c-.097.13-.15.288-.15.45v2c0 .414.336.75.75.75s.75-.336.75-.75v-1.75s1.35-1.8 1.35-1.8c.248-.331.181-.802-.15-1.05s-.802-.181-1.05.15z"/><path d="m11 12.75h2c.414 0 .75-.336.75-.75s-.336-.75-.75-.75h-2c-.414 0-.75.336-.75.75s.336.75.75.75z"/></g></svg>