<svg clip-rule="evenodd" fill-rule="evenodd" height="512" stroke-linejoin="round" stroke-miterlimit="2" viewBox="0 0 24 24" width="512" xmlns="http://www.w3.org/2000/svg"><g id="Icon"><path d="m22.75 5c0-2.071-1.679-3.75-3.75-3.75h-14c-2.071 0-3.75 1.679-3.75 3.75v14c0 2.071 1.679 3.75 3.75 3.75h14c2.071 0 3.75-1.679 3.75-3.75zm-1.5 0v14c0 1.243-1.007 2.25-2.25 2.25h-14c-1.243 0-2.25-1.007-2.25-2.25v-14c0-1.243 1.007-2.25 2.25-2.25h14c1.243 0 2.25 1.007 2.25 2.25z"/><path d="m22 6.25h-20c-.414 0-.75.336-.75.75s.336.75.75.75h20c.414 0 .75-.336.75-.75s-.336-.75-.75-.75z"/><circle cx="12.75" cy="4.5" r=".75"/><circle cx="15.5" cy="4.5" r=".75"/><circle cx="18.25" cy="4.5" r=".75"/><path d="m6.25 14v-1.75c0-.414-.336-.75-.75-.75s-.75.336-.75.75v2c0 .69.56 1.25 1.25 1.25h2c.414 0 .75-.336.75-.75s-.336-.75-.75-.75z"/><path d="m11.75 11.5c-.966 0-1.75.783-1.75 1.75v2.5c0 .967.784 1.75 1.75 1.75h.5c.966 0 1.75-.783 1.75-1.75v-2.5c0-.967-.784-1.75-1.75-1.75zm0 1.5h.5c.138 0 .25.112.25.25v2.5c0 .138-.112.25-.25.25h-.5c-.138 0-.25-.112-.25-.25v-2.5c0-.138.112-.25.25-.25z"/><path d="m16.75 14v-1.75c0-.414-.336-.75-.75-.75s-.75.336-.75.75v2c0 .69.56 1.25 1.25 1.25h2c.414 0 .75-.336.75-.75s-.336-.75-.75-.75z"/><path d="m7.25 12.25v4.5c0 .414.336.75.75.75s.75-.336.75-.75v-4.5c0-.414-.336-.75-.75-.75s-.75.336-.75.75z"/><path d="m17.75 12.25v4.5c0 .414.336.75.75.75s.75-.336.75-.75v-4.5c0-.414-.336-.75-.75-.75s-.75.336-.75.75z"/></g></svg>