<svg clip-rule="evenodd" fill-rule="evenodd" height="512" stroke-linejoin="round" stroke-miterlimit="2" viewBox="0 0 24 24" width="512" xmlns="http://www.w3.org/2000/svg"><g id="Icon"><path d="m20.75 4c0-.729-.29-1.429-.805-1.945-.516-.515-1.216-.805-1.945-.805h-12c-.729 0-1.429.29-1.945.805-.515.516-.805 1.216-.805 1.945v16c0 .729.29 1.429.805 1.945.516.515 1.216.805 1.945.805h12c.729 0 1.429-.29 1.945-.805.515-.516.805-1.216.805-1.945zm-1.5 0v16c0 .332-.132.649-.366.884-.235.234-.552.366-.884.366h-12c-.332 0-.649-.132-.884-.366-.234-.235-.366-.552-.366-.884v-16c0-.332.132-.649.366-.884.235-.234.552-.366.884-.366h12c.332 0 .649.132.884.366.234.235.366.552.366.884z"/><path d="m8.75 9c0 .138-.112.25-.25.25h-1c-.414 0-.75.336-.75.75s.336.75.75.75h1c.966 0 1.75-.784 1.75-1.75s-.784-1.75-1.75-1.75c-.138 0-.25-.112-.25-.25s.112-.25.25-.25h1c.414 0 .75-.336.75-.75s-.336-.75-.75-.75h-1c-.966 0-1.75.784-1.75 1.75s.784 1.75 1.75 1.75c.138 0 .25.112.25.25z"/><path d="m9.25 6v-1c0-.414-.336-.75-.75-.75s-.75.336-.75.75v1c0 .414.336.75.75.75s.75-.336.75-.75z"/><path d="m9.25 11v-1c0-.414-.336-.75-.75-.75s-.75.336-.75.75v1c0 .414.336.75.75.75s.75-.336.75-.75z"/><path d="m12.5 6.75h4.5c.414 0 .75-.336.75-.75s-.336-.75-.75-.75h-4.5c-.414 0-.75.336-.75.75s.336.75.75.75z"/><path d="m12.5 10.75h4.5c.414 0 .75-.336.75-.75s-.336-.75-.75-.75h-4.5c-.414 0-.75.336-.75.75s.336.75.75.75z"/><path d="m7 14.75h10c.414 0 .75-.336.75-.75s-.336-.75-.75-.75h-10c-.414 0-.75.336-.75.75s.336.75.75.75z"/><path d="m7 18.75h10c.414 0 .75-.336.75-.75s-.336-.75-.75-.75h-10c-.414 0-.75.336-.75.75s.336.75.75.75z"/></g></svg>