<svg clip-rule="evenodd" fill-rule="evenodd" height="512" stroke-linejoin="round" stroke-miterlimit="2" viewBox="0 0 24 24" width="512" xmlns="http://www.w3.org/2000/svg"><g id="Icon"><path d="m19.849 1.713c-.115-.279-.387-.462-.689-.463-1.409-.007-2.824.477-4.233 1.46-1.959-.55-3.919-.544-5.879.007-1.376-.857-2.755-1.329-4.132-1.463-.331-.033-.644.157-.768.466-.782 1.944-.929 3.888-.591 5.832 0-.002-1.7 4.417-1.7 4.417-.582 1.514-.145 3.229 1.091 4.279 1.796 1.527 4.664 3.964 6.58 5.593 1.425 1.212 3.519 1.212 4.944 0 1.916-1.629 4.784-4.066 6.58-5.593 1.236-1.05 1.673-2.765 1.091-4.279 0 0-1.695-4.407-1.695-4.407.395-1.949.209-3.899-.599-5.849zm-1.198 1.062c.55 1.561.637 3.122.285 4.683-.033.145-.022.296.032.434 0 0 1.023 2.662 1.775 4.616.353.918.088 1.96-.662 2.597-1.797 1.527-4.664 3.965-6.58 5.593-.866.736-2.136.736-3.002 0-1.916-1.628-4.783-4.066-6.58-5.593-.75-.637-1.015-1.679-.662-2.597l1.775-4.616c.051-.131.063-.273.037-.411-.298-1.551-.244-3.103.27-4.655 1.06.191 2.119.63 3.179 1.333.189.125.423.158.639.09 1.895-.593 3.79-.598 5.684 0 .231.073.482.03.676-.115 1.047-.785 2.088-1.249 3.134-1.359z"/><path d="m14.95 10.6 2-1.5c.331-.248.398-.719.15-1.05s-.719-.398-1.05-.15l-2 1.5c-.331.248-.398.719-.15 1.05s.719.398 1.05.15z"/><path d="m9.95 9.4-2-1.5c-.331-.248-.802-.181-1.05.15s-.181.802.15 1.05l2 1.5c.331.248.802.181 1.05-.15s.181-.802-.15-1.05z"/><path d="m6.89 14.436s.685.959 1.337 1.873c.871 1.218 2.276 1.941 3.773 1.941 1.497 0 2.902-.723 3.773-1.941.652-.914 1.337-1.873 1.337-1.873.241-.337.163-.806-.174-1.046-.337-.241-.806-.163-1.046.174 0 0-.685.959-1.338 1.873-.589.824-1.539 1.313-2.552 1.313-1.013 0-1.963-.489-2.552-1.313-.653-.914-1.338-1.873-1.338-1.873-.24-.337-.709-.415-1.046-.174-.337.24-.415.709-.174 1.046z"/><path d="m9.854 13.811c-.143-.143-.186-.358-.109-.545.078-.187.26-.309.462-.309h3.586c.202 0 .384.122.462.309.077.187.034.402-.109.545-.593.594-1.354 1.355-1.792 1.793-.094.093-.221.146-.354.146s-.26-.053-.354-.146c-.438-.438-1.199-1.199-1.792-1.793z"/><path d="m12.75 17.5v-2.5c0-.414-.336-.75-.75-.75s-.75.336-.75.75v2.5c0 .414.336.75.75.75s.75-.336.75-.75z"/></g></svg>