<svg clip-rule="evenodd" fill-rule="evenodd" stroke-linejoin="round" stroke-miterlimit="1.414" viewBox="0 0 32 32" xmlns="http://www.w3.org/2000/svg" xmlns:serif="http://www.serif.com/"><path id="box-package-stuff-" d="m0 0h32v32h-32z" fill="none"/><path d="m26 27h-20c-.537-.023-.977-.462-1-1v-20c.023-.536.462-.976 1-1h4c.029.002.058.003.087.004.266.035.307.069.413.13.593.343.65 1.357 0 1.732-.101.058-.212.099-.326.119-.077.014-.097.012-.174.015h-3v18h19c.268.012.311.042.423.094.643.3.763 1.376.077 1.772-.101.058-.212.099-.326.119-.077.014-.097.012-.174.015zm-12-4h-4c-.601-.012-1.11-.613-.976-1.217.098-.439.519-.774.976-.783h4c.013.001.027.001.04.001.644.039 1.131.76.889 1.368-.146.369-.527.623-.929.631zm-.482-17.873c.111-.062.234-.104.361-.119.077-.01.106-.008.13-.008h11.991l.078.003c.504.06.902.484.922.997v16c-.01.256-.044.326-.109.454-.281.551-1.132.719-1.598.253-.185-.185-.283-.443-.293-.707v-15h-6v5c-.018.768-1.048 1.308-1.672.741-.012-.011-.024-.023-.035-.034l-1.293-1.293-1.293 1.293s-.496.39-.976.256c-.416-.116-.72-.518-.731-.963v-6c.004-.178.021-.232.057-.332.03-.085.072-.166.125-.239.032-.048.069-.094.111-.136.067-.067.143-.122.225-.166zm4.482 13.873h-8c-.23-.006-.305-.037-.434-.099-.61-.294-.751-1.286-.145-1.716.168-.119.374-.179.579-.185h8c.019.001.037.001.056.002.229.019.302.054.428.123.578.32.678 1.277.095 1.691-.168.119-.374.178-.579.184zm-1-12h-2v2.586l.293-.293s.16-.146.313-.212c.335-.144.747-.086 1.031.148.032.027.039.035.07.064l.293.293z" fill-rule="nonzero"/></svg>