<svg clip-rule="evenodd" fill-rule="evenodd" stroke-linejoin="round" stroke-miterlimit="1.414" viewBox="0 0 32 32" xmlns="http://www.w3.org/2000/svg" xmlns:serif="http://www.serif.com/"><path id="fullscreen-monitor-zoom" d="m0 0h32v32h-32z" fill="none"/><path d="m5 9v5l-.005.095c-.012.084-.012.105-.036.187-.185.63-1.077.939-1.614.474-.216-.187-.331-.468-.345-.756v-6c.025-.536.46-.975 1-1h24c.031.001.062.003.092.004.499.07.885.492.908.996v16c-.025.536-.46.975-1 1h-12c-.292-.014-.339-.05-.458-.111-.629-.324-.706-1.414 0-1.778.14-.072.297-.103.458-.111h11v-14zm7 16h-8c-.182-.005-.233-.022-.33-.056-.353-.123-.621-.457-.664-.832-.005-.05-.005-.062-.006-.112v-6c.005-.182.022-.233.056-.33.123-.353.457-.621.832-.664.05-.005.062-.005.112-.006h8c.019.001.037.001.056.002.182.015.232.035.327.074.327.136.571.456.611.812.005.05.005.062.006.112v6c-.005.182-.022.233-.056.33-.123.353-.457.621-.832.664-.05.005-.062.005-.112.006zm-1-6h-6v4h6z" fill-rule="nonzero"/></svg>