<svg clip-rule="evenodd" fill-rule="evenodd" height="512" stroke-linejoin="round" stroke-miterlimit="2" viewBox="0 0 24 24" width="512" xmlns="http://www.w3.org/2000/svg"><g id="Icon"><path d="m22.75 5v11c0 .729-.29 1.429-.805 1.945-.516.515-1.216.805-1.945.805h-16c-.729 0-1.429-.29-1.945-.805-.515-.516-.805-1.216-.805-1.945v-11c0-.729.29-1.429.805-1.945.516-.515 1.216-.805 1.945-.805h16c.729 0 1.429.29 1.945.805.515.516.805 1.216.805 1.945zm-1.5 0c0-.332-.132-.649-.366-.884-.235-.234-.552-.366-.884-.366h-16c-.332 0-.649.132-.884.366-.234.235-.366.552-.366.884v11c0 .332.132.649.366.884.235.234.552.366.884.366h16c.332 0 .649-.132.884-.366.234-.235.366-.552.366-.884z"/><path d="m5.75 13c0 .414-.336.75-.75.75s-.75-.336-.75-.75v-3.502c0-1.242 1.006-2.248 2.248-2.248h.004c1.242 0 2.248 1.006 2.248 2.248v3.502c0 .414-.336.75-.75.75s-.75-.336-.75-.75v-3.502c0-.413-.335-.748-.748-.748h-.004c-.413 0-.748.335-.748.748z"/><path d="m9.75 13v-5c0-.414.336-.75.75-.75h1.5c.597 0 1.169.237 1.591.659s.659.994.659 1.591v2c0 .597-.237 1.169-.659 1.591s-.994.659-1.591.659h-1.5c-.414 0-.75-.336-.75-.75zm1.5-.75h.75c.199 0 .39-.079.53-.22.141-.14.22-.331.22-.53v-2c0-.199-.079-.39-.22-.53-.14-.141-.331-.22-.53-.22h-.75z"/><path d="m8 10.25c.414 0 .75.336.75.75s-.336.75-.75.75h-3c-.414 0-.75-.336-.75-.75s.336-.75.75-.75z"/><path d="m19 7.25c.414 0 .75.336.75.75s-.336.75-.75.75h-1.75c-.133 0-.26.053-.354.146-.093.094-.146.221-.146.354s.053.26.146.354c.094.093.221.146.354.146h.502c1.103 0 1.998.895 1.998 1.998v.004c0 1.103-.895 1.998-1.998 1.998h-1.752c-.414 0-.75-.336-.75-.75s.336-.75.75-.75h1.752c.275 0 .498-.223.498-.498v-.004c0-.275-.223-.498-.498-.498h-.502c-.53 0-1.039-.211-1.414-.586s-.586-.884-.586-1.414.211-1.039.586-1.414.884-.586 1.414-.586z"/><path d="m11.25 18c0-.414.336-.75.75-.75s.75.336.75.75v3c0 .414-.336.75-.75.75s-.75-.336-.75-.75z"/><path d="m16 20.25c.414 0 .75.336.75.75s-.336.75-.75.75h-8c-.414 0-.75-.336-.75-.75s.336-.75.75-.75z"/></g></svg>