<svg clip-rule="evenodd" fill-rule="evenodd" height="512" stroke-linejoin="round" stroke-miterlimit="2" viewBox="0 0 24 24" width="512" xmlns="http://www.w3.org/2000/svg"><g id="Icon"><path d="m20.25 9c0-1.26-.5-2.468-1.391-3.359s-2.099-1.391-3.359-1.391c-2.166 0-4.834 0-7 0-1.26 0-2.468.5-3.359 1.391s-1.391 2.099-1.391 3.359v.5c0 .597.237 1.169.659 1.591s.994.659 1.591.659h12c.597 0 1.169-.237 1.591-.659s.659-.994.659-1.591zm-1.5 0v.5c0 .199-.079.39-.22.53-.14.141-.331.22-.53.22h-12c-.199 0-.39-.079-.53-.22-.141-.14-.22-.331-.22-.53v-.5c0-.862.342-1.689.952-2.298.609-.61 1.436-.952 2.298-.952h7c.862 0 1.689.342 2.298.952.61.609.952 1.436.952 2.298z"/><path d="m19.25 11c0-.414-.336-.75-.75-.75h-13c-.414 0-.75.336-.75.75v4.274c0 2.711 1.623 5.16 4.12 6.216 1.477.625 2.838 1.201 2.838 1.201.187.079.397.079.584 0 0 0 1.361-.576 2.838-1.201 2.497-1.056 4.12-3.505 4.12-6.216zm-1.5.75v3.524c0 2.109-1.262 4.013-3.204 4.835 0 0-2.546 1.077-2.546 1.077s-2.546-1.077-2.546-1.077c-1.942-.822-3.204-2.726-3.204-4.835v-3.524z"/><path d="m12.75 4.5c0-.966.784-1.75 1.75-1.75.414 0 .75-.336.75-.75s-.336-.75-.75-.75c-1.795 0-3.25 1.455-3.25 3.25 0 .414.336.75.75.75s.75-.336.75-.75z"/></g></svg>