<svg clip-rule="evenodd" fill-rule="evenodd" height="512" stroke-linejoin="round" stroke-miterlimit="2" viewBox="0 0 24 24" width="512" xmlns="http://www.w3.org/2000/svg"><g id="Icon"><path d="m14.75 10c0-1.518-1.232-2.75-2.75-2.75s-2.75 1.232-2.75 2.75 1.232 2.75 2.75 2.75 2.75-1.232 2.75-2.75zm-1.5 0c0 .69-.56 1.25-1.25 1.25s-1.25-.56-1.25-1.25.56-1.25 1.25-1.25 1.25.56 1.25 1.25z"/><path d="m19.847 15.398c.889-1.421 1.403-3.1 1.403-4.898 0-5.105-4.145-9.25-9.25-9.25s-9.25 4.145-9.25 9.25c0 1.798.514 3.477 1.403 4.898.22.351.683.457 1.034.238.351-.22.458-.683.238-1.034-.745-1.19-1.175-2.596-1.175-4.102 0-4.277 3.473-7.75 7.75-7.75s7.75 3.473 7.75 7.75c0 1.506-.43 2.912-1.175 4.102-.22.351-.113.814.238 1.034.351.219.814.113 1.034-.238z"/><path d="m17.073 13.398c.575-.919.908-2.005.908-3.167 0-3.301-2.68-5.981-5.981-5.981s-5.981 2.68-5.981 5.981c0 1.162.333 2.248.908 3.167.219.351.683.457 1.033.238.351-.22.458-.683.238-1.034-.43-.688-.679-1.501-.679-2.371 0-2.473 2.008-4.481 4.481-4.481s4.481 2.008 4.481 4.481c0 .87-.249 1.683-.679 2.371-.22.351-.113.814.238 1.034.35.219.814.113 1.033-.238z"/><path d="m11.25 12v3c0 .414.336.75.75.75s.75-.336.75-.75v-3c0-.414-.336-.75-.75-.75s-.75.336-.75.75z"/><path d="m8.15 18.25.105-.5h1.391c.414 0 .75-.336.75-.75s-.336-.75-.75-.75h-2c-.355 0-.661.249-.734.596l-.5 2.382c-.067.318.078.642.359.804.28.162.633.125.875-.091.133-.119.308-.191.5-.191.414 0 .75.336.75.75s-.336.75-.75.75c-.275 0-.516-.149-.646-.369-.212-.356-.672-.474-1.028-.263s-.474.671-.263 1.028c.392.661 1.113 1.104 1.937 1.104 1.241 0 2.25-1.008 2.25-2.25 0-1.24-1.006-2.248-2.246-2.25z"/><path d="m15.146 20.25h1.081c-.281.591-.884 1-1.581 1-.966 0-1.75-.784-1.75-1.75s.784-1.75 1.75-1.75c.248 0 .485.052.699.145.379.166.822-.007.988-.386s-.008-.822-.387-.988c-.398-.174-.838-.271-1.3-.271-1.794 0-3.25 1.456-3.25 3.25s1.456 3.25 3.25 3.25c1.793 0 3.25-1.456 3.25-3.25 0-.414-.336-.75-.75-.75h-2c-.414 0-.75.336-.75.75s.336.75.75.75z"/></g></svg>