<svg clip-rule="evenodd" fill-rule="evenodd" height="512" stroke-linejoin="round" stroke-miterlimit="2" viewBox="0 0 24 24" width="512" xmlns="http://www.w3.org/2000/svg"><g id="Icon"><path d="m21.75 6.75v11c0 .729-.29 1.429-.805 1.945-.516.515-1.216.805-1.945.805h-14c-.729 0-1.429-.29-1.945-.805-.515-.516-.805-1.216-.805-1.945v-11c0-.414.336-.75.75-.75h18c.414 0 .75.336.75.75zm-1.5.75h-16.5v10.25c0 .332.132.649.366.884.235.234.552.366.884.366h14c.332 0 .649-.132.884-.366.234-.235.366-.552.366-.884z"/><path d="m20.25 4.75v2c0 .414-.336.75-.75.75h-4.5c-.414 0-.75-.336-.75-.75v-2c0-.69.56-1.25 1.25-1.25h3.5c.69 0 1.25.56 1.25 1.25zm-4.5.25v1h3v-1z"/><path d="m9.75 4.75v2c0 .414-.336.75-.75.75h-4.5c-.414 0-.75-.336-.75-.75v-2c0-.69.56-1.25 1.25-1.25h3.5c.69 0 1.25.56 1.25 1.25zm-4.5.25v1h3v-1z"/><path d="m22 6c.414 0 .75.336.75.75s-.336.75-.75.75h-20c-.414 0-.75-.336-.75-.75s.336-.75.75-.75z"/><path d="m12.826 9.461c.011-.088-.042-.172-.126-.201-.085-.029-.178.006-.223.083-.745 1.278-2.178 3.734-2.662 4.564-.034.058-.034.13-.001.189.034.058.096.094.163.094h1.553s-.217 1.736-.356 2.849c-.011.088.042.172.126.201.085.029.178-.006.223-.083.745-1.278 2.178-3.734 2.662-4.564.034-.058.034-.13.001-.189-.034-.058-.096-.094-.163-.094-.539 0-1.553 0-1.553 0s.217-1.736.356-2.849z"/></g></svg>