<svg height="512" viewBox="0 0 32 32" width="512" xmlns="http://www.w3.org/2000/svg"><path d="m21.28 12.6235a1 1 0 0 0 1.44-1.3886l-.8291-.8589a3.24 3.24 0 0 1 -.8909-2.2339 3.0032 3.0032 0 1 1 6 0 3.2363 3.2363 0 0 1 -.8916 2.2339l-2.8284 2.9292a1 1 0 0 0 1.4394 1.39l2.8272-2.9292a5.1792 5.1792 0 0 0 1.4534-3.6239 5.002 5.002 0 1 0 -10 0 5.18 5.18 0 0 0 1.4541 3.6245z"/><path d="m25.4844 21.9648h-13.002a1.4824 1.4824 0 1 1 0-2.9648h11.5176a1 1 0 0 0 0-2h-11.5176a3.4586 3.4586 0 0 0 -2.4619 1.019 3.4827 3.4827 0 0 0 2.4619 5.9458h13.002a1.5176 1.5176 0 0 1 0 3.0352h-21.4844a1 1 0 0 0 0 2h21.4844a3.5176 3.5176 0 0 0 0-7.0352z"/></svg>