<svg clip-rule="evenodd" fill-rule="evenodd" height="512" stroke-linejoin="round" stroke-miterlimit="2" viewBox="0 0 24 24" width="512" xmlns="http://www.w3.org/2000/svg"><g id="Icon"><path d="m5.133 14.782 4.085 4.085c.293.292.768.292 1.061 0 .292-.293.292-.768 0-1.061l-4.085-4.085c-.293-.292-.768-.292-1.061 0-.292.293-.292.768 0 1.061z"/><path d="m8.195 17.847c.274.274.713.294 1.011.046l11.75-9.792c.448-.372.768-.877.915-1.441 0 0 .75-2.882.75-2.882.591-1.497-.902-2.99-2.403-2.397.004-.002-2.878.748-2.878.748-.564.147-1.068.467-1.441.914l-9.792 11.751c-.248.298-.228.737.046 1.011zm.577-1.545-1.074-1.074s9.353-11.224 9.353-11.224c.172-.207.406-.355.666-.423l2.931-.763c.037-.009.072-.021.107-.036.293-.126.589.17.463.463-.015.035-.027.07-.036.107l-.763 2.931c-.068.26-.216.493-.423.665z"/><path d="m7.214 14.744c-.293-.293-.768-.293-1.061 0l-4.384 4.384c-.692.692-.692 1.812 0 2.504 0 0 .599.599.599.599.692.692 1.812.692 2.504 0 0 0 4.384-4.384 4.384-4.384.293-.293.293-.768 0-1.061zm-.531 1.591.982.982s-3.854 3.853-3.854 3.853c-.106.106-.277.106-.383 0 0 0-.598-.598-.598-.598-.106-.106-.106-.277 0-.383z"/></g></svg>