<svg clip-rule="evenodd" fill-rule="evenodd" height="512" stroke-linejoin="round" stroke-miterlimit="2" viewBox="0 0 24 24" width="512" xmlns="http://www.w3.org/2000/svg"><g id="Icon"><path d="m19.75 7c0-.414-.336-.75-.75-.75h-12c-.414 0-.75.336-.75.75v2c0 3.176 2.574 5.75 5.75 5.75h2c3.176 0 5.75-2.574 5.75-5.75 0-1.128 0-2 0-2zm-1.5.75v1.25c0 2.347-1.903 4.25-4.25 4.25h-2c-2.347 0-4.25-1.903-4.25-4.25v-1.25z"/><path d="m9.272 13.818-2 8c-.1.402.145.809.546.91.402.1.809-.145.91-.546l2-8c.1-.402-.145-.809-.546-.91-.402-.1-.809.145-.91.546z"/><path d="m15.269 14.167 1.143 5c.092.404.494.656.898.564s.656-.495.564-.898l-1.143-5c-.092-.404-.495-.656-.898-.564-.404.092-.656.495-.564.898z"/><path d="m17.5 18.25c-1.242 0-2.25 1.008-2.25 2.25s1.008 2.25 2.25 2.25 2.25-1.008 2.25-2.25-1.008-2.25-2.25-2.25zm0 1.5c.414 0 .75.336.75.75s-.336.75-.75.75-.75-.336-.75-.75.336-.75.75-.75z"/><path d="m16.571 17.25h-7.071c-.414 0-.75.336-.75.75s.336.75.75.75h7.071c.414 0 .75-.336.75-.75s-.336-.75-.75-.75z"/><path d="m20 6.25h-14c-.414 0-.75.336-.75.75s.336.75.75.75h14c.414 0 .75-.336.75-.75s-.336-.75-.75-.75z"/><path d="m7 9.25h-3c-.414 0-.75.336-.75.75s.336.75.75.75h3c.414 0 .75-.336.75-.75s-.336-.75-.75-.75z"/><path d="m16.376 1.584c-.774 1.16-.774 2.672 0 3.832.23.344.696.438 1.04.208s.438-.696.208-1.04c-.438-.656-.438-1.512 0-2.168.23-.344.136-.81-.208-1.04s-.81-.136-1.04.208z"/><path d="m12.83 1.584c-.773 1.16-.773 2.672 0 3.832.23.344.696.438 1.04.208.345-.23.438-.696.208-1.04-.437-.656-.437-1.512 0-2.168.23-.344.137-.81-.208-1.04-.344-.23-.81-.136-1.04.208z"/><path d="m9.284 1.584c-.773 1.16-.773 2.672 0 3.832.23.344.696.438 1.04.208.345-.23.438-.696.208-1.04-.437-.656-.437-1.512 0-2.168.23-.344.137-.81-.208-1.04-.344-.23-.81-.136-1.04.208z"/></g></svg>