<svg clip-rule="evenodd" fill-rule="evenodd" height="512" stroke-linejoin="round" stroke-miterlimit="2" viewBox="0 0 24 24" width="512" xmlns="http://www.w3.org/2000/svg"><g id="Icon"><path d="m10.753 4.878-.55 1.693h-1.781c-.541 0-1.021.349-1.189.864-.167.515.016 1.079.455 1.397l1.44 1.047s-.55 1.693-.55 1.693c-.167.515.016 1.079.454 1.397.438.319 1.031.319 1.47 0 0 0 1.44-1.046 1.44-1.046s1.44 1.046 1.44 1.046c.438.319 1.032.319 1.47 0 .438-.318.621-.882.454-1.397l-.55-1.693s1.44-1.047 1.44-1.047c.438-.318.621-.882.454-1.397-.168-.515-.647-.864-1.189-.864h-1.78s-.55-1.693-.55-1.693c-.168-.515-.648-.864-1.189-.864-.542 0-1.022.349-1.189.864zm1.189 1.195.481 1.48c.1.309.388.518.713.518h1.555l-1.258.914c-.263.191-.373.53-.272.839l.48 1.48-1.258-.915c-.263-.191-.619-.191-.882 0l-1.259.915.481-1.48c.101-.309-.009-.648-.272-.839l-1.259-.914h1.556c.325 0 .613-.209.713-.518z"/><path d="m19.75 9c0-4.277-3.473-7.75-7.75-7.75s-7.75 3.473-7.75 7.75 3.473 7.75 7.75 7.75 7.75-3.473 7.75-7.75zm-1.5 0c0 3.449-2.801 6.25-6.25 6.25s-6.25-2.801-6.25-6.25 2.801-6.25 6.25-6.25 6.25 2.801 6.25 6.25z"/><path d="m5.25 13v7.259c0 .627.335 1.205.878 1.517.544.313 1.213.31 1.754-.005l3.488-2.035c.389-.227.871-.227 1.26 0l3.488 2.035c.541.315 1.21.318 1.754.005.543-.312.878-.89.878-1.517 0-2.616 0-7.259 0-7.259 0-.414-.336-.75-.75-.75s-.75.336-.75.75v7.259c0 .089-.048.172-.125.217-.078.044-.174.044-.251-.001l-3.488-2.035c-.857-.499-1.915-.499-2.772 0l-3.488 2.035c-.077.045-.173.045-.251.001-.077-.045-.125-.128-.125-.217v-7.259c0-.414-.336-.75-.75-.75s-.75.336-.75.75z"/></g></svg>