<svg height="512" viewBox="0 0 32 32" width="512" xmlns="http://www.w3.org/2000/svg"><g id="artstation_art_station_design" data-name="artstation, art, station, design"><path d="m28.63 20.66-7.76-14.17a2.94 2.94 0 0 0 -2.55-1.49h-4.51a1 1 0 0 0 -.87.49 1 1 0 0 0 0 1l11.74 21a1 1 0 0 0 .87.51 1 1 0 0 0 .88-.51l2.21-4a3 3 0 0 0 -.01-2.83zm-1.75 1.89-1.34 2.45-10.03-18h2.81a.93.93 0 0 1 .8.46l7.76 14.17a.94.94 0 0 1 0 .92z"/><path d="m21.5 26h-13.5a.93.93 0 0 1 -.79-.44l-1.47-2.56h12.92a1 1 0 0 0 0-2h-14.66a1 1 0 0 0 -.86 1.51l2.37 4.07a3 3 0 0 0 2.49 1.42h13.5a1 1 0 0 0 0-2z"/><path d="m6 19.67h10.9a1 1 0 0 0 .87-.49 1 1 0 0 0 0-1l-5.38-9.47a1 1 0 0 0 -.86-.5 1 1 0 0 0 -.86.5l-5.49 9.46a1 1 0 0 0 0 1 1 1 0 0 0 .82.5zm5.48-8.45 3.67 6.45h-7.37z"/></g></svg>