<svg clip-rule="evenodd" fill-rule="evenodd" stroke-linejoin="round" stroke-miterlimit="2" viewBox="0 0 32 32" xmlns="http://www.w3.org/2000/svg" xmlns:serif="http://www.serif.com/"><path id="bag-school-student" d="m0 0h32v32h-32z" fill="none"/><path d="m10.977 7.013c-.021-.7-.019-1.388.195-1.993.403-1.146 1.546-1.975 2.785-1.999 1.356-.008 2.713-.008 4.069 0 1.548.03 2.945 1.365 2.955 2.99v1.002h3.973s.076.002.164.013c.466.098.814.503.834.984 0 2.139.011 4.278 0 6.416-.022 1.325-.995 2.566-2.311 2.882-2.544.581-5.077 1.19-7.649 1.19-2.352 0-4.67-.508-6.988-1.038-.01 2.846-.051 5.693.003 8.539.016.508.461.955.971.971l.019.001h.007.009c3.984.075 7.97.075 11.954 0h.012.007l.019-.001c.516-.016.968-.463.972-1v-5.985c.001-.018.002-.037.004-.055.03-.464.384-.894.938-.941.034-.001.058-.002.09-.002 2.58.025 4.93 2.269 4.955 4.956.004 1.048.152 2.148-.182 3.059-.417 1.14-1.564 1.956-2.808 1.964h-3.992c-3.994.026-7.987.026-11.98 0-1.343 0-2.685.009-4.028 0-1.545-.029-2.925-1.366-2.955-2.955-.008-1.316-.122-2.634.324-3.808.594-1.563 2.019-2.755 3.667-3.108v-2.513c-.587-.55-.965-1.328-.978-2.156l-.001-6.416s.214-.965.998-.997zm13.997 14.151c.003 1.616.009 3.232-.002 4.847-.006.335-.073.662-.191.971.405-.001.811-.004 1.216-.012.508-.016.955-.461.971-.971.021-1.09.159-2.226-.22-3.155-.318-.777-.987-1.39-1.774-1.68zm-17.964.002c-1.118.419-1.983 1.514-1.995 2.789-.002.682-.013 1.363 0 2.044.016.516.463.968 1.001.972h1.179c-.117-.312-.182-.647-.185-.995zm12.973 1.813h-7.983c-.868-.024-1.414-1.424-.433-1.897.129-.062.204-.092.433-.099h7.983c.019.001.037.001.056.002.985.083 1.288 1.956-.056 1.994zm-.993-15.966c.001-.342.001-.683-.005-1.025-.016-.508-.459-.955-.971-.971-1.348-.026-2.697-.026-4.044 0-.519.016-.969.478-.972 1.001v1.992c-.015.532-.162.591-.333.745-.035.031-.072.059-.111.083-.163.105-.357.162-.554.17h-3.973c0 1.806-.048 3.613.001 5.419.016.435.343.836.769.938 3.713.848 7.435 1.514 11.189.712 1.075-.233 2.154-.449 3.221-.717.422-.111.742-.517.749-.956v-5.396h-7.964c-.871-.036-1.397-1.376-.475-1.875.133-.072.206-.109.475-.12z"/></svg>