<svg clip-rule="evenodd" fill-rule="evenodd" height="512" stroke-linejoin="round" stroke-miterlimit="2" viewBox="0 0 24 24" width="512" xmlns="http://www.w3.org/2000/svg"><g id="Icon"><path d="m11.442 6.734c-.695-.418-1.452-.764-2.231-.764-3.492 0-6.327 2.836-6.327 6.328 0 1.949.938 5.248 2.399 7.572 1.083 1.723 2.484 2.88 3.928 2.88.777 0 1.532-.345 2.227-.761.35-.18.765-.182 1.116-.005.699.42 1.456.766 2.235.766 1.444 0 2.845-1.157 3.928-2.88 1.461-2.324 2.399-5.623 2.399-7.572 0-3.492-2.835-6.328-6.327-6.328-.777 0-1.532.345-2.227.761-.35.181-.765.182-1.116.005zm-.758 1.295c.011.007.023.014.035.02.801.426 1.761.425 2.562-.001.011-.006.023-.013.034-.019.465-.28.954-.559 1.474-.559 2.664 0 4.827 2.163 4.827 4.828 0 1.745-.861 4.693-2.169 6.774-.414.659-.872 1.229-1.368 1.632-.408.33-.837.546-1.29.546-.52 0-1.009-.278-1.473-.558-.011-.007-.023-.014-.035-.021-.801-.425-1.761-.425-2.562.001-.011.007-.023.013-.034.02-.465.279-.954.558-1.474.558-.453 0-.882-.216-1.29-.546-.496-.403-.954-.973-1.368-1.632-1.308-2.081-2.169-5.029-2.169-6.774 0-2.665 2.163-4.828 4.827-4.828.52 0 1.009.279 1.473.559z"/><path d="m18.517 2.315c-.023-.267-.187-.502-.431-.615-1.504-.7-3.331-.601-4.787.419-1.456 1.019-2.174 2.702-2.031 4.355.023.268.187.502.431.616 1.504.699 3.331.6 4.787-.42 1.456-1.019 2.174-2.702 2.031-4.355zm-1.486.582c-.05.984-.537 1.936-1.405 2.545-.869.608-1.93.739-2.872.45.05-.984.537-1.936 1.405-2.544.869-.609 1.93-.74 2.872-.451z"/><path d="m11.25 7.289v.007c0 .052.005.103.015.152.021.107.061.195.113.267.134.2.363.331.622.331 0 0 .75-.058.75-.762v-.96c0-1.854-1.34-3.436-3.169-3.741-.408-.068-.795.209-.863.617s.208.795.617.863c1.105.184 1.915 1.141 1.915 2.261v.96z"/></g></svg>