<svg clip-rule="evenodd" fill-rule="evenodd" height="512" stroke-linejoin="round" stroke-miterlimit="2" viewBox="0 0 24 24" width="512" xmlns="http://www.w3.org/2000/svg"><g id="Icon"><path d="m14.75 10c0-1.518-1.232-2.75-2.75-2.75s-2.75 1.232-2.75 2.75 1.232 2.75 2.75 2.75 2.75-1.232 2.75-2.75zm-1.5 0c0 .69-.56 1.25-1.25 1.25s-1.25-.56-1.25-1.25.56-1.25 1.25-1.25 1.25.56 1.25 1.25z"/><path d="m15.451 14.599c1.391-1.046 2.299-2.725 2.299-4.599 0-3.174-2.576-5.75-5.75-5.75s-5.75 2.576-5.75 5.75c0 1.874.908 3.553 2.299 4.599.331.249.802.183 1.051-.148.248-.331.182-.802-.149-1.05-1.029-.774-1.701-2.015-1.701-3.401 0-2.346 1.904-4.25 4.25-4.25s4.25 1.904 4.25 4.25c0 1.386-.672 2.627-1.701 3.401-.33.248-.397.719-.148 1.05s.719.397 1.05.148z"/><path d="m6.345 14.53c-.997-1.241-1.595-2.817-1.595-4.53 0-4.006 3.244-7.25 7.25-7.25s7.25 3.244 7.25 7.25c0 1.713-.598 3.289-1.595 4.53-.259.323-.207.796.115 1.055.323.259.796.207 1.055-.115 1.203-1.499 1.925-3.403 1.925-5.47 0-4.834-3.916-8.75-8.75-8.75s-8.75 3.916-8.75 8.75c0 2.067.722 3.971 1.925 5.47.259.322.732.374 1.055.115.322-.259.374-.732.115-1.055z"/><path d="m11 17.25h-3c-.414 0-.75.336-.75.75v2c0 .414.336.75.75.75h2.25v.5h-2.25c-.414 0-.75.336-.75.75s.336.75.75.75h3c.414 0 .75-.336.75-.75v-2c0-.414-.336-.75-.75-.75h-2.25v-.5h2.25c.414 0 .75-.336.75-.75s-.336-.75-.75-.75z"/><path d="m16 17.25h-3c-.414 0-.75.336-.75.75v4c0 .414.336.75.75.75h3c.414 0 .75-.336.75-.75v-2c0-.414-.336-.75-.75-.75h-1c-.414 0-.75.336-.75.75s.336.75.75.75h.25v.5h-1.5v-2.5h2.25c.414 0 .75-.336.75-.75s-.336-.75-.75-.75z"/><path d="m11.25 12v3c0 .414.336.75.75.75s.75-.336.75-.75v-3c0-.414-.336-.75-.75-.75s-.75.336-.75.75z"/></g></svg>