<svg clip-rule="evenodd" fill-rule="evenodd" stroke-linejoin="round" stroke-miterlimit="1.414" viewBox="0 0 32 32" xmlns="http://www.w3.org/2000/svg" xmlns:serif="http://www.serif.com/"><path id="card-payment-transfer" d="m0 0h32v32h-32z" fill="none"/><path d="m23.991 13.001h-19.991c-.536-.025-.975-.46-1-.999v-2.003c.01-1.557 1.35-2.965 2.962-2.995 6.677-.041 13.354 0 20.031 0 1.558.009 2.966 1.349 2.996 2.961.025 4.012 0 8.024 0 12.036-.01 1.557-1.35 2.965-2.961 2.995-6.678.041-13.355 0-20.032 0-1.563-.01-2.986-1.363-2.996-2.995v-6.001c.029-.612.6-1.094 1.235-.971.435.127.742.512.764.971 0 2.007-.037 4.015 0 6.022.016.508.46.959.975.975 6.679.124 13.362.124 20.041 0 .508-.016.959-.46.975-.975.074-4.014.074-8.03 0-12.044-.016-.508-.46-.959-.975-.975-6.679-.124-13.362-.124-20.041 0-.515.016-.971.465-.975 1.003v.996h18.992s.509.061.756.345c.484.559.1 1.613-.756 1.654zm-2.519 4.642c.366-.402.893-.655 1.48-.655 1.103 0 1.999.896 1.999 2 0 1.103-.896 1.999-1.999 1.999-.587 0-1.114-.253-1.48-.655-.366.402-.893.655-1.479.655-1.104 0-1.999-.896-1.999-1.999 0-1.104.895-2 1.999-2 .586 0 1.113.253 1.479.655z" fill-rule="nonzero"/></svg>