<svg clip-rule="evenodd" fill-rule="evenodd" height="512" stroke-linejoin="round" stroke-miterlimit="2" viewBox="0 0 24 24" width="512" xmlns="http://www.w3.org/2000/svg"><g id="Icon"><path d="m3.847 9.82c-1.471.311-2.576 1.617-2.576 3.18s1.105 2.869 2.576 3.18c1.273 3.258 4.445 5.57 8.153 5.57 3.706 0 6.877-2.309 8.152-5.566 1.481-.301 2.598-1.613 2.598-3.184s-1.117-2.882-2.599-3.185c-1.274-3.256-4.445-5.565-8.151-5.565-3.708 0-6.88 2.312-8.153 5.57zm.587 1.432c.311-.015.58-.22.677-.515.951-2.894 3.677-4.987 6.889-4.987 3.211 0 5.938 2.092 6.889 4.986.098.298.37.503.683.515.932.038 1.678.807 1.678 1.749s-.746 1.711-1.678 1.749c-.313.012-.585.217-.683.515-.951 2.894-3.678 4.986-6.889 4.986-3.212 0-5.938-2.093-6.889-4.987-.097-.295-.366-.5-.677-.515-.926-.045-1.663-.811-1.663-1.748s.737-1.703 1.663-1.748z"/><path d="m13.696 5.664c.035.159.054.324.054.494 0 1.242-1.008 2.25-2.25 2.25-.409 0-.793-.109-1.124-.301-.358-.207-.818-.085-1.025.273-.207.359-.085.818.273 1.025.552.32 1.193.503 1.876.503 2.07 0 3.75-1.68 3.75-3.75 0-.282-.031-.557-.091-.822-.09-.404-.492-.658-.896-.568-.403.091-.658.492-.567.896z"/><path d="m14.76 13.124c.06-.354.369-.624.74-.624s.68.27.74.624c.068.409.455.684.864.616.408-.069.683-.456.615-.864-.179-1.064-1.105-1.876-2.219-1.876s-2.04.812-2.219 1.876c-.068.408.207.795.615.864.409.068.796-.207.864-.616z"/><path d="m8.753 16.876c.648 1.12 1.86 1.874 3.247 1.874s2.599-.754 3.247-1.874c.208-.358.085-.818-.273-1.025s-.818-.085-1.025.273c-.389.673-1.117 1.126-1.949 1.126s-1.56-.453-1.949-1.126c-.207-.358-.667-.48-1.025-.273s-.481.667-.273 1.025z"/><path d="m7.76 13.124c.06-.354.369-.624.74-.624s.68.27.74.624c.068.409.455.684.864.616.408-.069.683-.456.615-.864-.179-1.064-1.105-1.876-2.219-1.876s-2.04.812-2.219 1.876c-.068.408.207.795.615.864.409.068.796-.207.864-.616z"/><path d="m10 4.5c-1.172 0-2.174-.735-2.569-1.768-.148-.387-.582-.58-.969-.432s-.58.582-.432.968c.611 1.597 2.159 2.732 3.97 2.732.414 0 .75-.336.75-.75s-.336-.75-.75-.75z"/><path d="m12.29 4.304c-.71-.285-1.275-.857-1.548-1.572-.148-.387-.583-.58-.969-.432-.387.148-.58.582-.432.968.423 1.105 1.294 1.988 2.39 2.428.384.154.821-.033.976-.417.154-.384-.033-.821-.417-.975z"/></g></svg>