<svg clip-rule="evenodd" fill-rule="evenodd" height="512" stroke-linejoin="round" stroke-miterlimit="2" viewBox="0 0 24 24" width="512" xmlns="http://www.w3.org/2000/svg"><g id="Icon"><path d="m4.258 10.606s1.099 7.694 1.415 9.91c.092.645.535 1.186 1.15 1.403.004.002.008.003.012.004 3.202 1.071 7.135 1.084 10.335-.003.004-.001.007-.003.011-.004.611-.218 1.05-.756 1.142-1.398.319-2.21 1.419-9.912 1.419-9.912.059-.41-.226-.79-.636-.848-.41-.059-.79.226-.848.636 0 0-1.1 7.7-1.42 9.911v.001c-.013.087-.071.161-.152.194-2.905.985-6.466.972-9.367.004-.086-.032-.148-.109-.161-.2l-1.416-9.91c-.058-.41-.438-.695-.848-.636-.41.058-.695.438-.636.848z"/><path d="m12 7.25c-2.47 0-5.132.609-6.509 1.464-.831.516-1.241 1.166-1.241 1.786s.41 1.27 1.241 1.786c1.377.855 4.039 1.464 6.509 1.464s5.132-.609 6.509-1.464c.831-.516 1.241-1.166 1.241-1.786s-.41-1.27-1.241-1.786c-1.377-.855-4.039-1.464-6.509-1.464zm0 1.5c1.875 0 3.88.372 5.182.958.372.167.681.347.893.547.088.084.175.152.175.245s-.087.161-.175.245c-.212.2-.521.38-.893.547-1.302.586-3.307.958-5.182.958s-3.88-.372-5.182-.958c-.372-.167-.681-.347-.893-.547-.088-.084-.175-.152-.175-.245s.087-.161.175-.245c.212-.2.521-.38.893-.547 1.302-.586 3.307-.958 5.182-.958z"/><path d="m5.748 10.55s.126-1.886.251-3.766c.114-1.707 1.532-3.034 3.243-3.034.414 0 .75-.336.75-.75s-.336-.75-.75-.75c-2.5 0-4.573 1.939-4.739 4.434-.126 1.88-.251 3.766-.251 3.766-.028.413.285.771.698.798.413.028.771-.285.798-.698z"/><path d="m14.758 3.75c1.711 0 3.129 1.327 3.243 3.034.125 1.88.251 3.766.251 3.766.027.413.385.726.798.698.413-.027.726-.385.698-.798 0 0-.125-1.886-.251-3.766-.166-2.495-2.239-4.434-4.739-4.434-.414 0-.75.336-.75.75s.336.75.75.75z"/><path d="m15 3c0-.966-.783-1.75-1.75-1.75h-2.5c-.967 0-1.75.784-1.75 1.75s.783 1.75 1.75 1.75h2.5c.967 0 1.75-.784 1.75-1.75zm-1.5 0c0 .138-.112.25-.25.25h-2.5c-.138 0-.25-.112-.25-.25s.112-.25.25-.25h2.5c.138 0 .25.112.25.25z"/></g></svg>