<svg clip-rule="evenodd" fill-rule="evenodd" stroke-linejoin="round" stroke-miterlimit="1.414" viewBox="0 0 32 32" xmlns="http://www.w3.org/2000/svg" xmlns:serif="http://www.serif.com/"><path id="shoes-basketball-running-sport" d="m0 0h32v32h-32z" fill="none"/><path d="m26.197 20.163-.004-.18c-.019-.891-.68-1.56-1.525-1.914-1.104-.464-2.19-.969-3.243-1.533l.956-1.766c1.157.615 2.331 1.146 3.448 1.618.212.091.267.123.392.194 1.182.671 1.964 2.001 1.97 3.37.005.19.009.418.011.599.67.456.837 1.236.791 1.859-.102 1.363-1.305 2.546-2.738 2.573-6.4.04-12.8 0-19.201 0-2.082-.013-3.989-1.783-4.03-3.983-.008-1.256-.192-2.649.599-3.471.828-.861 2.298-.764 3.573-.76 2.676.018 5.284.902 7.815 1.822.035.012.07.025.105.037 3.511 1.221 7.311 1.47 11.081 1.535zm-19.135-1.396c-.441.002-.881.023-1.321.056-.144.01-.288.022-.432.035-.025.002-.05.005-.074.007-.317.029-.212.448-.213.813 0 .683-.096 1.401.136 2.004.29.752 1.055 1.288 1.874 1.303 6.403.039 12.807.119 19.208 0 .405-.013.77-.376.762-.783-.004-.12-.411-.034-.804-.042-3.198-.075-6.402-.327-9.512-1.022-3.149-.705-6.054-2.318-9.376-2.37-.083-.001-.165-.001-.248-.001zm21.042 1.722.003.002-.002-.001zm-.053-.03.008.004-.004-.002zm-.02-.011.007.004-.001-.001zm-.033-.017.009.005-.005-.003zm-.03-.015.017.008h-.001zm-.025-.012.011.005-.006-.003zm-.033-.015.02.009c-.006-.003-.013-.006-.02-.009zm-.025-.011.014.006-.007-.003zm-.032-.014.021.009c-.007-.003-.014-.006-.021-.009zm-.026-.01.015.006-.008-.003zm-.034-.013.023.009c-.008-.003-.015-.006-.023-.009zm-.027-.01.017.006-.008-.003zm-.034-.012.024.008c-.008-.003-.016-.005-.024-.008zm-.029-.01.019.006-.009-.002zm-.034-.011.025.008c-.008-.003-.017-.005-.025-.008zm-.03-.009.021.006-.01-.003zm-.035-.01.027.008c-.009-.003-.018-.006-.027-.008zm-.031-.009.022.006-.01-.002zm-.036-.009.028.007c-.009-.002-.019-.005-.028-.007zm-.033-.008.024.006-.01-.003zm-.036-.008.03.006c-.01-.002-.02-.004-.03-.006zm-.034-.008.026.006-.01-.002zm-.036-.007.03.006c-.01-.002-.02-.004-.03-.006zm-.036-.007.027.005-.01-.002zm-.037-.006.032.005c-.011-.002-.021-.003-.032-.005zm-.037-.006.029.004-.01-.001zm-.037-.006.032.005c-.01-.002-.021-.003-.032-.005zm-.039-.005.03.004-.01-.001zm-.038-.005.034.004c-.011-.001-.022-.002-.034-.004zm-.04-.004.032.003-.01-.001zm-.038-.004.035.003c-.012-.001-.023-.002-.035-.003zm-.042-.004.033.003-.01-.001zm-.038-.003.035.003c-.011-.001-.023-.002-.035-.003zm-.044-.002.035.002-.01-.001zm-.039-.002.037.002c-.012-.001-.025-.002-.037-.002zm-.045-.002.036.001h-.01zm-.039-.001.037.001c-.012-.001-.025-.001-.037-.001zm-.32-.005c.09.001.181.003.272.004h.038c-.013 0-.025 0-.038 0zm-.332-.005c.094.001.189.003.283.004zm-4.484-7.168c.672.043 1.173.819.832 1.474l-1.392 2.569c-.372.662-1.54.658-1.821-.145-.092-.262-.066-.557.064-.807l1.391-2.569c.19-.337.425-.538.926-.522zm-4.68.14 1.238-1.723c.066-.088.089-.11.134-.152.193-.177.317-.27.71-.264.711.035 1.246.908.779 1.582l-.33.46c.354.255.717.499 1.087.732l-.956 1.765c-.442-.278-.876-.569-1.298-.874l1.018-1.417-1.604 2.232c-.457.613-1.604.447-1.786-.364-.062-.274.001-.568.163-.802l.647-.899c-.334-.297-.656-.605-.965-.925l1.431-1.389c.227.236.462.464.705.684zm-2.457-2.179c-.448-.609-.849-1.257-1.194-1.948l-6.581-.01c-.408 1.642-.85 3.325-.824 4.979 0 0-.002.202-.062.362-.306.831-1.927.916-1.937-.418-.014-1.95.5-3.871.978-5.785 0 0 .201-1.099 1.065-1.137h7.993c.029.002.059.003.089.004.821.111 1.074 1.229 1.613 2.085.099.157.202.312.308.463zm2.447-1.958c.781.032 1.298 1.087.672 1.716l-2.985 2.897c-.638.599-1.997-.071-1.634-1.061.051-.14.136-.266.242-.372l2.986-2.898c.082-.077.109-.094.162-.128.166-.105.279-.156.557-.154z" fill-rule="nonzero"/></svg>