<?xml version="1.0"?>
<svg xmlns="http://www.w3.org/2000/svg" viewBox="0 0 32 32" width="512" height="512"><path d="M24,3a5.0783,5.0783,0,0,0-5,5.1421,5.18,5.18,0,0,0,1.4541,3.6245l.8262.8569A1,1,0,0,0,22.72,11.2349l-.8291-.8589A3.24,3.24,0,0,1,21,8.1421a3.0032,3.0032,0,1,1,6,0,3.2363,3.2363,0,0,1-.8916,2.2339L23.28,13.3052a1,1,0,0,0,1.4394,1.39l2.8272-2.9292A5.1792,5.1792,0,0,0,29,8.1421,5.0783,5.0783,0,0,0,24,3Z"/><path d="M7.28,23.3052a1,1,0,0,0,1.4394,1.39l2.8272-2.9292A5.1792,5.1792,0,0,0,13,18.1421,5.0783,5.0783,0,0,0,8,13a5.0783,5.0783,0,0,0-5,5.1421,5.18,5.18,0,0,0,1.4541,3.6245l.8262.8569A1,1,0,1,0,6.72,21.2349l-.8291-.8589A3.24,3.24,0,0,1,5,18.1421,3.077,3.077,0,0,1,8,15a3.077,3.077,0,0,1,3,3.1421,3.2363,3.2363,0,0,1-.8916,2.2339Z"/><path d="M24.1094,17.0059c-5.9551-.6538-7.9746,2.4414-9.751,5.1728-1.47,2.2608-2.8584,4.396-6.4766,4.8281A1,1,0,0,0,7.999,29a1.0966,1.0966,0,0,0,.1192-.0068c4.5478-.5435,6.3379-3.2959,7.917-5.7242,1.7431-2.6792,3.125-4.7988,7.8554-4.2749a1,1,0,0,0,.2188-1.9882Z"/></svg>
