<svg clip-rule="evenodd" fill-rule="evenodd" height="512" stroke-linejoin="round" stroke-miterlimit="2" viewBox="0 0 24 24" width="512" xmlns="http://www.w3.org/2000/svg"><g id="Icon"><path d="m20.467 1.598-1.902 3c-.146.231-.155.524-.024.764.132.239.384.388.658.388h1.438s-1.172 1.848-1.172 1.848c-.222.35-.118.814.232 1.035.35.222.813.118 1.035-.231l1.901-3c.147-.231.156-.524.024-.764-.132-.239-.384-.388-.657-.388h-1.438s1.171-1.848 1.171-1.848c.222-.35.118-.814-.231-1.035-.35-.222-.814-.118-1.035.231z"/><path d="m18.5 14.25c-2.346 0-4.25 1.904-4.25 4.25s1.904 4.25 4.25 4.25 4.25-1.904 4.25-4.25-1.904-4.25-4.25-4.25zm0 1.5c1.518 0 2.75 1.232 2.75 2.75s-1.232 2.75-2.75 2.75-2.75-1.232-2.75-2.75 1.232-2.75 2.75-2.75z"/><path d="m5.5 14.25c-2.346 0-4.25 1.904-4.25 4.25s1.904 4.25 4.25 4.25 4.25-1.904 4.25-4.25-1.904-4.25-4.25-4.25zm0 1.5c1.518 0 2.75 1.232 2.75 2.75s-1.232 2.75-2.75 2.75-2.75-1.232-2.75-2.75 1.232-2.75 2.75-2.75z"/><path d="m19.223 18.299-2.297-8.267c-.21-.758-.9-1.282-1.686-1.282-.736 0-1.74 0-1.74 0-.414 0-.75.336-.75.75s.336.75.75.75h1.74c.112 0 .211.075.241.183 0 0 2.296 8.268 2.296 8.268.111.399.525.632.924.522.399-.111.632-.525.522-.924z"/><path d="m16.859 13.158c.301-.164.452-.511.368-.843-.085-.333-.384-.565-.727-.565h-9c-.323 0-.609.207-.712.513l-2 6c-.097.292-.006.615.231.812.236.198.57.231.84.083zm-3.3.092-6.745 3.679s1.227-3.679 1.227-3.679z"/><path d="m8.25 12.5v-2.5c0-.414-.336-.75-.75-.75s-.75.336-.75.75v2.5c0 .414.336.75.75.75s.75-.336.75-.75z"/><path d="m9 9.25h-3c-.414 0-.75.336-.75.75s.336.75.75.75h3c.414 0 .75-.336.75-.75s-.336-.75-.75-.75z"/></g></svg>