<svg clip-rule="evenodd" fill-rule="evenodd" height="512" stroke-linejoin="round" stroke-miterlimit="2" viewBox="0 0 24 24" width="512" xmlns="http://www.w3.org/2000/svg"><g id="Icon"><path d="m12 7.75c.414 0 .75-.336.75-.75v-4c0-.966-.784-1.75-1.75-1.75h-4c-.966 0-1.75.784-1.75 1.75v4c0 .414.336.75.75.75zm-.75-1.5h-4.5v-3.25c0-.138.112-.25.25-.25h4c.138 0 .25.112.25.25z"/><path d="m13.25 19v1c0 .69-.56 1.25-1.25 1.25h-6c-.69 0-1.25-.56-1.25-1.25v-11c0-.69.56-1.25 1.25-1.25h6c.69 0 1.25.56 1.25 1.25v2c0 .414.336.75.75.75s.75-.336.75-.75v-2c0-1.518-1.232-2.75-2.75-2.75h-6c-1.518 0-2.75 1.232-2.75 2.75v11c0 1.518 1.232 2.75 2.75 2.75h6c1.518 0 2.75-1.232 2.75-2.75v-1c0-.414-.336-.75-.75-.75s-.75.336-.75.75z"/><path d="m19 19.75c.966 0 1.75-.784 1.75-1.75v-6c0-.966-.784-1.75-1.75-1.75h-8c-.414 0-.75.336-.75.75v7c0 .414.336.75.75.75h1.689s.195.194.195.194c.515.516 1.215.806 1.945.806zm0-1.5h-4.171c-.332 0-.65-.132-.885-.366 0 0-.414-.414-.414-.414-.14-.141-.331-.22-.53-.22h-1.25v-5.5h7.25c.138 0 .25.112.25.25v6c0 .138-.112.25-.25.25z"/><path d="m10.25 9v11c0 .414.336.75.75.75s.75-.336.75-.75v-11c0-.414-.336-.75-.75-.75s-.75.336-.75.75z"/></g></svg>