<svg height="512" viewBox="0 0 32 32" width="512" xmlns="http://www.w3.org/2000/svg"><g id="box_package_stuff" data-name="box, package, stuff"><path d="m26 23a1 1 0 0 0 1-1v-16a1 1 0 0 0 -1-1h-20a1 1 0 0 0 -1 1v20a1 1 0 0 0 1 1h20a1 1 0 0 0 0-2h-19v-18h6v5a1 1 0 0 0 1.707.707l1.293-1.2929 1.293 1.2929a1 1 0 0 0 1.707-.707v-5h6v15a1 1 0 0 0 1 1zm-9-13.4141-.293-.2929a.9994.9994 0 0 0 -1.414 0l-.293.2929v-2.5859h2z"/><path d="m10 21a1 1 0 0 0 0 2h4a1 1 0 0 0 0-2z"/><path d="m19 18a1 1 0 0 0 -1-1h-8a1 1 0 0 0 0 2h8a1 1 0 0 0 1-1z"/></g></svg>