<svg clip-rule="evenodd" fill-rule="evenodd" height="512" stroke-linejoin="round" stroke-miterlimit="2" viewBox="0 0 24 24" width="512" xmlns="http://www.w3.org/2000/svg"><g id="Icon"><path d="m1.329 20.825.84-1.678c.036-.073.083-.138.14-.195l7.554-7.554c.293-.293.768-.293 1.061 0l1.678 1.678c.293.293.293.768 0 1.061l-7.554 7.554c-.057.057-.122.104-.195.14l-1.678.84c-.289.144-.638.088-.866-.141l-.839-.839c-.229-.228-.285-.577-.141-.866zm1.584.188.074.074 1.087-.543 6.937-6.937-.618-.618-6.937 6.937z"/><path d="m8.184 8.88.84-.84c.252-.252.593-.393.95-.393.356 0 .698.141.95.393l5.036 5.036c.252.252.393.594.393.95 0 .357-.141.698-.393.95l-.84.84c-.252.252-.593.393-.95.393-.356 0-.698-.141-.95-.393l-5.036-5.036c-.252-.252-.393-.594-.393-.95 0-.357.141-.698.393-.95zm1.172.95 4.814 4.814.618-.618-4.814-4.814z"/><path d="m10.283 8.46 6.295-6.295c.586-.586 1.38-.915 2.209-.915.828 0 1.623.329 2.209.915l.839.839c.586.586.915 1.381.915 2.209 0 .829-.329 1.623-.915 2.209l-6.295 6.295c-.293.293-.768.293-1.061 0l-4.196-4.196c-.293-.293-.293-.768 0-1.061zm1.591.53s3.136 3.136 3.136 3.136l5.764-5.764c.305-.305.476-.718.476-1.149 0-.43-.171-.843-.476-1.148l-.839-.839c-.305-.305-.718-.476-1.148-.476-.431 0-.844.171-1.149.476z"/><path d="m20.355 2.585c.292-.293.768-.293 1.06 0 .293.292.293.768 0 1.06l-3.357 3.358c-.293.292-.768.292-1.061 0-.292-.293-.292-.768 0-1.061z"/></g></svg>