<svg viewBox="0 0 32 32" xmlns="http://www.w3.org/2000/svg"><g id="drive_gdrive_google_storage" data-name="drive gdrive google storage"><path d="m29 19.26a1 1 0 0 0 0-.34s0-.05 0-.08a.94.94 0 0 0 -.11-.32l-8-14a1 1 0 0 0 -.89-.52h-8a1 1 0 0 0 -.86.5 1 1 0 0 0 0 1l3.71 6.5-6.85 12-2.85-5 5.38-9.41a1 1 0 0 0 -1.74-1l-5.66 9.91a1 1 0 0 0 0 1l4 7 .16.21a1 1 0 0 0 .27.19h.08a1 1 0 0 0 .36.1h16a1 1 0 0 0 .87-.5l4-7a1 1 0 0 0 .09-.22zm-9.58-13.26 6.86 12h-5.7l-6.86-12zm-1.14 12h-4.56l2.28-4zm5.14 7h-13.7l2.86-5h13.7z"/></g></svg>