<svg clip-rule="evenodd" fill-rule="evenodd" height="512" stroke-linejoin="round" stroke-miterlimit="2" viewBox="0 0 24 24" width="512" xmlns="http://www.w3.org/2000/svg"><g id="Icon"><path d="m7.75 11v10.5c0 .332-.132.649-.366.884-.235.234-.552.366-.884.366h-3c-.332 0-.649-.132-.884-.366-.234-.235-.366-.552-.366-.884v-10.5c0-.332.132-.649.366-.884.235-.234.552-.366.884-.366h3c.332 0 .649.132.884.366.234.235.366.552.366.884zm-4 .25v10h2.5v-10z"/><path d="m14.75 14v7.5c0 .332-.132.649-.366.884-.235.234-.552.366-.884.366h-3c-.332 0-.649-.132-.884-.366-.234-.235-.366-.552-.366-.884v-7.5c0-.332.132-.649.366-.884.235-.234.552-.366.884-.366h3c.332 0 .649.132.884.366.234.235.366.552.366.884zm-4 .25v7h2.5v-7z"/><path d="m21.75 17v4.5c0 .332-.132.649-.366.884-.235.234-.553.366-.884.366h-3c-.331 0-.649-.132-.884-.366-.234-.235-.366-.552-.366-.884v-4.5c0-.332.132-.649.366-.884.235-.234.553-.366.884-.366h3c.331 0 .649.132.884.366.234.235.366.552.366.884zm-4 .25v4h2.5v-4z"/><path d="m2 2.75c-.414 0-.75-.336-.75-.75s.336-.75.75-.75h1.638c.409 0 .806.144 1.12.406l5.444 4.536c.045.037.102.058.16.058h4.268c.418 0 .822.149 1.139.421l6.719 5.76c.314.269.351.743.081 1.057-.269.314-.743.351-1.057.081l-6.719-5.759c-.046-.039-.103-.06-.163-.06h-4.268c-.409 0-.806-.144-1.12-.406l-5.444-4.536c-.045-.037-.102-.058-.16-.058h-1.638z"/><path d="m20.812 10.145c-.061-.41.221-.792.631-.853.409-.062.791.221.853.63l.446 2.967c.061.409-.221.791-.631.853l-2.966.446c-.41.061-.792-.221-.853-.631-.062-.409.221-.791.63-.853l2.225-.334z"/></g></svg>