<svg clip-rule="evenodd" fill-rule="evenodd" height="512" stroke-linejoin="round" stroke-miterlimit="2" viewBox="0 0 134 134" width="512" xmlns="http://www.w3.org/2000/svg"><path d="m37.5 62.5v50h58.333v-37.5c0-2.3 1.867-4.167 4.167-4.167s4.167 1.867 4.167 4.167v41.667c0 2.301-1.866 4.166-4.167 4.166h-66.667c-2.301 0-4.166-1.865-4.166-4.166v-54.167h-12.5c-1.383 0-2.675-.686-3.451-1.831-.775-1.145-.931-2.599-.418-3.883l16.667-41.667c.632-1.582 2.165-2.619 3.868-2.619h66.667c1.704 0 3.236 1.037 3.869 2.619l16.666 41.667c.514 1.284.357 2.738-.418 3.883s-2.068 1.831-3.45 1.831zm30.758 29.167h-9.925c-1.444 0-2.785-.748-3.544-1.976-.759-1.229-.828-2.763-.182-4.054l8.333-16.667c1.028-2.057 3.533-2.892 5.59-1.863 2.057 1.028 2.892 3.533 1.863 5.59l-5.318 10.636h9.925c1.444 0 2.785.748 3.544 1.976.76 1.229.829 2.763.183 4.054l-8.334 16.667c-1.028 2.057-3.533 2.892-5.59 1.863-2.057-1.028-2.892-3.533-1.863-5.59zm-21.906-37.5 2.222-16.667h-19.086l-6.667 16.667zm10.629-16.667-2.222 16.667h23.815l-2.222-16.667zm46.865 0h-19.087l2.222 16.667h23.531zm-67.692-16.667-3.333 8.334h16.864l1.111-8.334zm23.05 0-1.112 8.334h17.149l-1.111-8.334zm23.333 0 1.111 8.334h16.864l-3.333-8.334z"/></svg>