<svg clip-rule="evenodd" fill-rule="evenodd" height="512" stroke-linejoin="round" stroke-miterlimit="2" viewBox="0 0 24 24" width="512" xmlns="http://www.w3.org/2000/svg"><g id="Icon"><path d="m20.497 8.5v-4.5c0-1.519-1.232-2.75-2.75-2.75h-12c-.73 0-1.429.29-1.945.805-.516.516-.805 1.216-.805 1.945v16c0 1.519 1.231 2.75 2.75 2.75h6.5c.414 0 .75-.336.75-.75s-.336-.75-.75-.75h-6.5c-.691 0-1.25-.56-1.25-1.25v-16c0-.332.131-.649.366-.884.234-.234.552-.366.884-.366h12c.69 0 1.25.56 1.25 1.25v4.5c0 .414.336.75.75.75s.75-.336.75-.75z"/><path d="m16.497 8v-2c0-.967-.784-1.75-1.75-1.75h-6c-.967 0-1.75.783-1.75 1.75v2c0 .967.783 1.75 1.75 1.75h6c.966 0 1.75-.783 1.75-1.75zm-1.5-2v2c0 .138-.112.25-.25.25h-6c-.138 0-.25-.112-.25-.25v-2c0-.138.112-.25.25-.25h6c.138 0 .25.112.25.25z"/><path d="m21.792 13.676c.253-.54.28-1.159.076-1.72s-.623-1.017-1.164-1.27c-.296-.138-.61-.284-.906-.422-.541-.252-1.16-.279-1.721-.075-.56.204-1.017.622-1.269 1.163-1.082 2.32-3.17 6.797-3.17 6.797-.062.135-.084.284-.061.431l.544 3.564c.038.248.197.46.425.566.227.106.492.092.706-.039l3.081-1.873c.126-.077.227-.19.29-.324zm-1.359-.633-3.074 6.591s-1.925 1.171-1.925 1.171-.34-2.228-.34-2.228l3.073-6.591c.084-.18.237-.32.423-.388.187-.068.394-.059.574.025l.906.423c.181.084.32.236.388.423s.059.393-.025.574z"/><path d="m2.747 6.25h2c.414 0 .75-.336.75-.75s-.336-.75-.75-.75h-2c-.414 0-.75.336-.75.75s.336.75.75.75z"/><path d="m2.747 12.75h2c.414 0 .75-.336.75-.75s-.336-.75-.75-.75h-2c-.414 0-.75.336-.75.75s.336.75.75.75z"/><path d="m2.747 19.25h2c.414 0 .75-.336.75-.75s-.336-.75-.75-.75h-2c-.414 0-.75.336-.75.75s.336.75.75.75z"/></g></svg>