<svg clip-rule="evenodd" fill-rule="evenodd" height="512" stroke-linejoin="round" stroke-miterlimit="2" viewBox="0 0 24 24" width="512" xmlns="http://www.w3.org/2000/svg"><g id="Icon"><path d="m9.75 20.5 2.267 1.7c.476.357 1.055.55 1.65.55h7.333c.464 0 .909-.184 1.237-.513.329-.328.513-.773.513-1.237v-3.46c0-2.133-1.423-4.005-3.479-4.576l-4.606-1.28c-.541-.15-.915-.643-.915-1.204v-3.98c0-.414-.336-.75-.75-.75h-10c-.414 0-.75.336-.75.75v14.5c0 .464.184.909.513 1.237.328.329.773.513 1.237.513h4c.966 0 1.75-.783 1.75-1.75zm2.5-13.25v3.23c0 1.235.824 2.319 2.014 2.65 1.243.345 3.065.851 4.606 1.279 1.407.391 2.38 1.671 2.38 3.131v3.46c0 .066-.026.13-.073.177s-.111.073-.177.073h-7.333c-.271 0-.534-.088-.75-.25-.684-.513-1.875-1.406-2.667-2-.379-.284-.886-.33-1.309-.118s-.691.645-.691 1.118v1c0 .138-.112.25-.25.25h-4c-.066 0-.13-.026-.177-.073s-.073-.111-.073-.177v-13.75z"/><path d="m3 17.75h6.426c.235 0 .464.066.663.19l3.027 1.892c.437.273.942.418 1.458.418h7.426c.414 0 .75-.336.75-.75s-.336-.75-.75-.75h-7.426c-.235 0-.464-.066-.663-.19l-3.027-1.892c-.437-.273-.942-.418-1.458-.418-1.672 0-6.426 0-6.426 0-.414 0-.75.336-.75.75s.336.75.75.75z"/><path d="m14.25 5.5v-2.5c0-.966-.783-1.75-1.75-1.75h-9c-.967 0-1.75.784-1.75 1.75v2.5c0 .966.783 1.75 1.75 1.75h9c.967 0 1.75-.784 1.75-1.75zm-1.5-2.5v2.5c0 .138-.112.25-.25.25h-9c-.138 0-.25-.112-.25-.25v-2.5c0-.138.112-.25.25-.25h9c.138 0 .25.112.25.25z"/><path d="m7.75 17v-1c0-.995-.395-1.948-1.098-2.652-.704-.703-1.657-1.098-2.652-1.098h-1c-.414 0-.75.336-.75.75s.336.75.75.75h1c.597 0 1.169.237 1.591.659s.659.994.659 1.591v1c0 .414.336.75.75.75s.75-.336.75-.75z"/></g></svg>