<svg clip-rule="evenodd" fill-rule="evenodd" stroke-linejoin="round" stroke-miterlimit="1.414" viewBox="0 0 32 32" xmlns="http://www.w3.org/2000/svg" xmlns:serif="http://www.serif.com/"><path id="recipe-task-bill-tax" d="m0 0h32v32h-32z" fill="none"/><path d="m23.997 28.994h-.001c-5.342 0-10.685.017-16.028 0-2.563-.024-4.959-2.223-4.968-4.998v-15.998c.004-.085.002-.106.018-.189.152-.787 1.447-1.091 1.87-.269.073.14.104.297.112.458 0 5.345-.05 10.69 0 16.034.024 1.555 1.374 2.957 3.001 2.962h11.996c-.019-.024-.037-.049-.055-.074-.602-.84-.942-1.876-.945-2.924v-18.998h-14.997s-.328-.022-.541-.158c-.502-.323-.6-1.136-.149-1.565.138-.132.313-.222.501-.258.083-.016.104-.014.189-.018h15.997c.535.024.975.46 1 .999 0 6.678-.062 13.357 0 20.034.024 1.53 1.34 2.922 2.939 2.962.084-.01.066.004.215-.004 1.511-.081 2.84-1.407 2.845-2.997v-8.996h-3s-.484-.053-.733-.32c-.477-.515-.198-1.551.584-1.669.066-.01.083-.009.149-.011h4c.024.001.049.002.074.003.454.051.847.399.914.848.01.065.009.082.011.149 0 3.343.011 6.687 0 10.03-.024 2.587-2.265 4.958-4.997 4.967zm-9.999-3.999h-3.999c-.762-.015-1.309-1.044-.741-1.671.186-.206.465-.323.741-.329h3.999c.013 0 .027.001.04.001.853.051 1.343 1.409.419 1.887-.106.055-.221.09-.34.105-.039.004-.079.006-.119.007zm2-4h-7.999c-.76-.021-1.316-1.027-.745-1.666.162-.181.392-.3.633-.327.05-.005.062-.005.112-.006h7.999c.018 0 .037.001.056.001.229.02.302.054.427.124.576.318.682 1.274.095 1.69-.168.119-.373.179-.578.184zm0-3.999h-7.999c-.759-.021-1.303-1.041-.745-1.666.162-.181.392-.3.633-.327.05-.006.062-.005.112-.006h7.999c.018 0 .037.001.056.001.229.019.302.054.427.123.58.321.674 1.28.095 1.691-.168.119-.373.178-.578.184zm-4.999-7.998v-1c.01-.543.43-1 1.019-1 .014.001.027.001.04.002.515.041.929.437.94.998v1h1 .04c.754.045 1.25 1.064.701 1.67-.187.207-.465.324-.741.329h-1v1c-.015.769-1.052 1.301-1.671.741-.206-.187-.323-.465-.328-.741v-1h-1c-.64-.012-1.16-.717-.943-1.331.136-.387.529-.66.943-.668z" fill-rule="nonzero"/></svg>