<svg clip-rule="evenodd" fill-rule="evenodd" height="512" stroke-linejoin="round" stroke-miterlimit="2" viewBox="0 0 24 24" width="512" xmlns="http://www.w3.org/2000/svg"><g id="Icon"><path d="m2 11.75c1.474 0 2.209.451 2.946.893.929.558 1.86 1.107 3.718 1.107 1.859 0 2.79-.549 3.72-1.107.737-.442 1.473-.893 2.948-.893s2.211.451 2.948.893c.93.558 1.861 1.107 3.72 1.107.414 0 .75-.336.75-.75s-.336-.75-.75-.75c-1.475 0-2.211-.451-2.948-.893-.93-.558-1.861-1.107-3.72-1.107s-2.79.549-3.72 1.107c-.737.442-1.473.893-2.948.893-1.474 0-2.209-.451-2.946-.893-.929-.558-1.86-1.107-3.718-1.107-.414 0-.75.336-.75.75s.336.75.75.75z"/><path d="m2 5.75c1.474 0 2.209.451 2.946.893.929.558 1.86 1.107 3.718 1.107 1.859 0 2.79-.549 3.72-1.107.737-.442 1.473-.893 2.948-.893s2.211.451 2.948.893c.93.558 1.861 1.107 3.72 1.107.414 0 .75-.336.75-.75s-.336-.75-.75-.75c-1.475 0-2.211-.451-2.948-.893-.93-.558-1.861-1.107-3.72-1.107s-2.79.549-3.72 1.107c-.737.442-1.473.893-2.948.893-1.474 0-2.209-.451-2.946-.893-.929-.558-1.86-1.107-3.718-1.107-.414 0-.75.336-.75.75s.336.75.75.75z"/><path d="m2 17.75c1.474 0 2.209.451 2.946.893.929.558 1.86 1.107 3.718 1.107 1.859 0 2.79-.549 3.72-1.107.737-.442 1.473-.893 2.948-.893s2.211.451 2.948.893c.93.558 1.861 1.107 3.72 1.107.414 0 .75-.336.75-.75s-.336-.75-.75-.75c-1.475 0-2.211-.451-2.948-.893-.93-.558-1.861-1.107-3.72-1.107s-2.79.549-3.72 1.107c-.737.442-1.473.893-2.948.893-1.474 0-2.209-.451-2.946-.893-.929-.558-1.86-1.107-3.718-1.107-.414 0-.75.336-.75.75s.336.75.75.75z"/></g></svg>