<svg clip-rule="evenodd" fill-rule="evenodd" height="512" stroke-linejoin="round" stroke-miterlimit="2" viewBox="0 0 24 24" width="512" xmlns="http://www.w3.org/2000/svg"><g id="Icon"><path d="m14.933 16.786c-.434 1.458-1.25 2.445-1.99 2.996-.386.288-.724.468-.943.468s-.557-.18-.943-.468c-.74-.551-1.556-1.538-1.99-2.996-.119-.397-.537-.623-.933-.505-.397.118-.623.537-.505.933.643 2.158 1.974 3.482 3.009 4.089.545.319 1.035.447 1.362.447s.817-.128 1.362-.447c1.035-.607 2.366-1.931 3.009-4.089.118-.396-.108-.815-.505-.933-.396-.118-.814.108-.933.505z"/><path d="m11.25 21v1c0 .414.336.75.75.75s.75-.336.75-.75v-1c0-.414-.336-.75-.75-.75s-.75.336-.75.75z"/><path d="m10.125 7.743c-.237-.356-.375-.784-.375-1.243 0-1.242 1.008-2.25 2.25-2.25s2.25 1.008 2.25 2.25c0 .459-.138.887-.375 1.243-.229.344-.135.81.21 1.04.344.229.81.135 1.04-.21.395-.594.625-1.307.625-2.073 0-2.07-1.68-3.75-3.75-3.75s-3.75 1.68-3.75 3.75c0 .766.23 1.479.625 2.073.23.345.696.439 1.04.21.345-.23.439-.696.21-1.04z"/><path d="m12.068 7.253c-.222-.02-.441.059-.598.217-.158.157-.237.376-.217.598 0 0 .534 5.762 4.203 9.431 1.667 1.668 4.375 1.668 6.043 0s1.668-4.376 0-6.043c-3.669-3.669-9.431-4.203-9.431-4.203zm.819 1.634c1.657.302 5.117 1.195 7.551 3.629 1.083 1.083 1.083 2.84 0 3.922-1.082 1.083-2.839 1.083-3.922 0-2.434-2.434-3.327-5.895-3.629-7.551z"/><path d="m15.676 11.767c1.129.54 2.281 1.268 3.262 2.249.293.293.768.293 1.061 0 .293-.292.293-.768 0-1.06-1.107-1.107-2.402-1.933-3.675-2.542-.373-.179-.822-.021-1 .352-.179.374-.021.822.352 1.001z"/><path d="m7.645 10.414c-1.273.609-2.568 1.435-3.675 2.542-.293.292-.293.768 0 1.06.292.293.768.293 1.06 0 .982-.981 2.134-1.709 3.263-2.249.373-.179.531-.627.352-1.001-.179-.373-.627-.531-1-.352z"/><path d="m12.747 8.068c.02-.222-.059-.441-.217-.598-.157-.158-.376-.237-.598-.217 0 0-5.762.534-9.431 4.203-1.668 1.667-1.668 4.375 0 6.043s4.376 1.668 6.043 0c3.669-3.669 4.203-9.431 4.203-9.431zm-1.634.819c-.302 1.657-1.195 5.117-3.629 7.551-1.083 1.083-2.84 1.083-3.922 0-1.083-1.082-1.083-2.839 0-3.922 2.434-2.434 5.895-3.327 7.551-3.629z"/><path d="m14.124 3.916 1-1.5c.23-.344.136-.81-.208-1.04s-.81-.136-1.04.208l-1 1.5c-.23.344-.136.81.208 1.04s.81.136 1.04-.208z"/><path d="m11.124 3.084-1-1.5c-.23-.344-.696-.438-1.04-.208s-.438.696-.208 1.04l1 1.5c.23.344.696.438 1.04.208s.438-.696.208-1.04z"/><path d="m15 17.25h-6c-.414 0-.75.336-.75.75s.336.75.75.75h6c.414 0 .75-.336.75-.75s-.336-.75-.75-.75z"/><path d="m14 14.25h-4c-.414 0-.75.336-.75.75s.336.75.75.75h4c.414 0 .75-.336.75-.75s-.336-.75-.75-.75z"/></g></svg>