<svg clip-rule="evenodd" fill-rule="evenodd" height="512" stroke-linejoin="round" stroke-miterlimit="2" viewBox="0 0 24 24" width="512" xmlns="http://www.w3.org/2000/svg"><g id="Icon"><path d="m18 1.25c-.966 0-1.75.784-1.75 1.75v3c0 .966.784 1.75 1.75 1.75h3c.966 0 1.75-.784 1.75-1.75 0-2.623-2.127-4.75-4.75-4.75zm0 1.5c1.795 0 3.25 1.455 3.25 3.25 0 .138-.112.25-.25.25h-3c-.138 0-.25-.112-.25-.25v-3c0-.138.112-.25.25-.25z"/><path d="m17 19.75h3c.966 0 1.75-.784 1.75-1.75v-2c0-.966-.784-1.75-1.75-1.75h-3c-.966 0-1.75.784-1.75 1.75v2c0 .966.784 1.75 1.75 1.75zm0-1.5c-.138 0-.25-.112-.25-.25v-2c0-.138.112-.25.25-.25h3c.138 0 .25.112.25.25v2c0 .138-.112.25-.25.25z"/><path d="m20.75 12v-5c0-.414-.336-.75-.75-.75h-2c-.138 0-.25-.112-.25-.25v-3c0-.414-.336-.75-.75-.75h-1.254c-.787 0-1.469.547-1.641 1.314-.22.986-1.095 1.686-2.105 1.686s-1.885-.7-2.105-1.686c-.172-.767-.854-1.314-1.641-1.314h-1.254c-.414 0-.75.336-.75.75v3c0 .138-.112.25-.25.25h-2c-.414 0-.75.336-.75.75v8c0 .414.336.75.75.75s.75-.336.75-.75v-7.25h1.25c.966 0 1.75-.784 1.75-1.75v-2.25h.504c.085 0 .159.059.177.142.374 1.67 1.857 2.858 3.569 2.858s3.195-1.188 3.569-2.858c.018-.083.092-.142.177-.142h.504v2.25c0 .966.784 1.75 1.75 1.75h1.25v4.25c0 .414.336.75.75.75s.75-.336.75-.75z"/><path d="m3.288 19.237.772 2.316c.238.715.908 1.197 1.661 1.197h12.558c.754 0 1.423-.482 1.661-1.197 0 0 .772-2.316.772-2.316.13-.393-.082-.818-.475-.949-.393-.13-.818.082-.949.475l-.772 2.316c-.034.103-.129.171-.237.171h-12.558c-.107 0-.203-.068-.237-.171l-.772-2.316c-.131-.393-.556-.605-.949-.475-.393.131-.605.556-.475.949z"/><path d="m6 1.25c-2.623 0-4.75 2.127-4.75 4.75 0 .966.784 1.75 1.75 1.75h3c.966 0 1.75-.784 1.75-1.75v-3c0-.966-.784-1.75-1.75-1.75zm0 1.5c.138 0 .25.112.25.25v3c0 .138-.112.25-.25.25h-3c-.138 0-.25-.112-.25-.25 0-1.795 1.455-3.25 3.25-3.25z"/><path d="m7 19.75c.966 0 1.75-.784 1.75-1.75v-2c0-.966-.784-1.75-1.75-1.75h-3c-.966 0-1.75.784-1.75 1.75v2c0 .966.784 1.75 1.75 1.75zm0-1.5h-3c-.138 0-.25-.112-.25-.25v-2c0-.138.112-.25.25-.25h3c.138 0 .25.112.25.25v2c0 .138-.112.25-.25.25z"/><path d="m11.25 6v6c0 .414.336.75.75.75s.75-.336.75-.75v-6c0-.414-.336-.75-.75-.75s-.75.336-.75.75z"/></g></svg>