<svg clip-rule="evenodd" fill-rule="evenodd" height="512" stroke-linejoin="round" stroke-miterlimit="2" viewBox="0 0 24 24" width="512" xmlns="http://www.w3.org/2000/svg"><g id="Icon"><path d="m12 19.75c.291 0 .556-.168.679-.432.124-.263.083-.575-.103-.798l-5-6c-.142-.171-.353-.27-.576-.27s-.434.099-.576.27l-5 6c-.186.223-.227.535-.103.798.123.264.388.432.679.432h1.25v2.25c0 .414.336.75.75.75h6c.414 0 .75-.336.75-.75v-2.25zm-1.601-1.5h-.399c-.414 0-.75.336-.75.75v2.25h-4.5v-2.25c0-.414-.336-.75-.75-.75h-.399s3.399-4.078 3.399-4.078z"/><path d="m22 16.75c.291 0 .556-.168.679-.432.124-.263.083-.575-.103-.798l-5-6c-.142-.171-.353-.27-.576-.27s-.434.099-.576.27l-5 6c-.186.223-.227.535-.103.798.123.264.388.432.679.432h1.25v5.25c0 .414.336.75.75.75h6c.414 0 .75-.336.75-.75v-5.25zm-1.601-1.5h-.399c-.414 0-.75.336-.75.75v5.25h-4.5v-5.25c0-.414-.336-.75-.75-.75h-.399s3.399-4.078 3.399-4.078z"/><path d="m9 22.75h6c.414 0 .75-.336.75-.75s-.336-.75-.75-.75h-6c-.414 0-.75.336-.75.75s.336.75.75.75z"/><path d="m15.75 12v-3.25h1.25c.291 0 .556-.168.679-.432.124-.263.083-.575-.103-.798l-5-6c-.142-.171-.353-.27-.576-.27s-.434.099-.576.27l-5 6c-.186.223-.227.535-.103.798.123.264.388.432.679.432h1.25v6.25c0 .414.336.75.75.75s.75-.336.75-.75v-7c0-.414-.336-.75-.75-.75h-.399s3.399-4.078 3.399-4.078 3.399 4.078 3.399 4.078h-.399c-.414 0-.75.336-.75.75v4c0 .414.336.75.75.75s.75-.336.75-.75z"/></g></svg>