<svg clip-rule="evenodd" fill-rule="evenodd" height="512" stroke-linejoin="round" stroke-miterlimit="2" viewBox="0 0 24 24" width="512" xmlns="http://www.w3.org/2000/svg"><g id="Icon"><path d="m9.523 15-1.24 4.029c-.07.228-.028.475.114.667.141.191.365.304.603.304h2.5c.246 0 .477-.121.617-.323l3.238-4.677h5.168c.581 0 1.124-.288 1.449-.769.326-.481.391-1.092.176-1.631-.139-.347-.292-.73-.446-1.114-.721-1.803-2.468-2.986-4.41-2.986h-10.812s-1.398-1.718-1.398-1.718c-.143-.175-.356-.277-.582-.277h-2.5c-.244 0-.473.119-.613.318-.141.2-.175.455-.093.685 0 0 1.301 3.639 2.026 5.668.391 1.094 1.427 1.824 2.589 1.824zm1.732-.529c.07-.228.028-.475-.113-.667-.142-.191-.366-.304-.604-.304h-4.629c-.528 0-.999-.332-1.177-.829l-1.667-4.666h1.078s1.399 1.718 1.399 1.718c.143.175.356.277.582.277h11.168c1.329 0 2.524.809 3.017 2.043.154.384.307.767.446 1.114.031.077.021.164-.025.233-.047.069-.124.11-.207.11h-5.561c-.247 0-.477.121-.617.323l-3.238 4.677h-1.092s1.24-4.029 1.24-4.029z"/><path d="m10.033 9.52c.112.289.39.48.7.48h4.467c.29 0 .554-.167.678-.43.124-.262.086-.572-.099-.796l-3.7-4.5c-.142-.174-.355-.274-.579-.274h-2.5c-.247 0-.478.122-.618.326-.14.203-.171.463-.082.694zm1.215-1.02-1.155-3h1.053s2.466 3 2.466 3z"/></g></svg>