<svg clip-rule="evenodd" fill-rule="evenodd" height="512" stroke-linejoin="round" stroke-miterlimit="2" viewBox="0 0 24 24" width="512" xmlns="http://www.w3.org/2000/svg"><g id="Icon"><path d="m14.25 4.25h-4.5c-.414 0-.75.336-.75.75s.336.75.75.75h4.5c.414 0 .75-.336.75-.75s-.336-.75-.75-.75z"/><path d="m18.75 3c0-.464-.184-.909-.513-1.237-.328-.329-.773-.513-1.237-.513-2.26 0-7.74 0-10 0-.464 0-.909.184-1.237.513-.329.328-.513.773-.513 1.237v17c0 .464.184.909.513 1.237.328.329.773.513 1.237.513h10c.464 0 .909-.184 1.237-.513.329-.328.513-.773.513-1.237 0-3.284 0-13.716 0-17zm-1.5 0v17c0 .066-.026.13-.073.177s-.111.073-.177.073h-10c-.066 0-.13-.026-.177-.073s-.073-.111-.073-.177c0-3.284 0-13.716 0-17 0-.066.026-.13.073-.177s.111-.073.177-.073h10c.066 0 .13.026.177.073s.073.111.073.177z"/><path d="m18.75 6c0-.27-.145-.52-.38-.653-.236-.133-.524-.129-.756.01l-2.014 1.209c-.527.316-.85.885-.85 1.5v3.368c0 .615.323 1.184.85 1.5l2.014 1.209c.232.139.52.143.756.01.235-.133.38-.383.38-.653zm-1.5 1.325v4.85s-.879-.527-.879-.527c-.075-.045-.121-.126-.121-.214v-3.368c0-.088.046-.169.121-.214z"/><path d="m6.386 5.357c-.232-.139-.52-.143-.756-.01-.235.133-.38.383-.38.653v7.5c0 .27.145.52.38.653.236.133.524.129.756-.01l2.014-1.209c.527-.316.85-.885.85-1.5 0-.865 0-2.503 0-3.368 0-.615-.323-1.184-.85-1.5zm.364 1.968.879.527c.075.045.121.126.121.214v3.368c0 .088-.046.169-.121.214 0 0-.879.527-.879.527z"/><path d="m16.25 21v1c0 .414.336.75.75.75s.75-.336.75-.75v-1c0-.414-.336-.75-.75-.75s-.75.336-.75.75z"/><path d="m6.25 21v1c0 .414.336.75.75.75s.75-.336.75-.75v-1c0-.414-.336-.75-.75-.75s-.75.336-.75.75z"/><circle cx="9" cy="14.75" r=".75"/><circle cx="9" cy="17.75" r=".75"/><circle cx="12" cy="14.75" r=".75"/><circle cx="12" cy="17.75" r=".75"/><circle cx="15" cy="14.75" r=".75"/><circle cx="15" cy="17.75" r=".75"/><path d="m20.5 7.75h1.5c.414 0 .75-.336.75-.75s-.336-.75-.75-.75h-1.5c-.414 0-.75.336-.75.75s.336.75.75.75z"/><path d="m2 7.75h1.5c.414 0 .75-.336.75-.75s-.336-.75-.75-.75h-1.5c-.414 0-.75.336-.75.75s.336.75.75.75z"/><path d="m20.5 10.75h1.5c.414 0 .75-.336.75-.75s-.336-.75-.75-.75h-1.5c-.414 0-.75.336-.75.75s.336.75.75.75z"/><path d="m2 10.75h1.5c.414 0 .75-.336.75-.75s-.336-.75-.75-.75h-1.5c-.414 0-.75.336-.75.75s.336.75.75.75z"/><path d="m20.5 13.75h1.5c.414 0 .75-.336.75-.75s-.336-.75-.75-.75h-1.5c-.414 0-.75.336-.75.75s.336.75.75.75z"/><path d="m2 13.75h1.5c.414 0 .75-.336.75-.75s-.336-.75-.75-.75h-1.5c-.414 0-.75.336-.75.75s.336.75.75.75z"/></g></svg>