<svg clip-rule="evenodd" fill-rule="evenodd" stroke-linejoin="round" stroke-miterlimit="2" viewBox="0 0 32 32" xmlns="http://www.w3.org/2000/svg" xmlns:serif="http://www.serif.com/"><path id="echo-signal-medium-wifi" d="m0 0h32v32h-32z" fill="none"/><path d="m16.046 22.738c1.328.024 2.842 1.101 2.234 2.104-.33.545-1.112.543-1.649.111-.392-.307-.976-.258-1.356.105 0 0-.673.424-1.18.131-.606-.351-.633-1.258.05-1.801.543-.431 1.152-.655 1.901-.65zm.012-5.001c2.065.019 4.096.858 5.573 2.307 0 0 .269.288.317.584.087.537-.336 1.101-.89 1.155-.586.057-1.021-.534-1.5-.886-2.27-1.668-5.712-1.468-7.793.6 0 0-.557.408-1.046.231-.688-.25-.839-1.209-.181-1.827 1.441-1.352 3.4-2.134 5.377-2.163.048-.001.095-.001.143-.001zm.03-5c3.342.03 6.65 1.373 9.056 3.749.586.578.256 1.745-.624 1.766-.705.016-1.162-.746-1.84-1.264-4.038-3.088-10.261-2.92-14.142.676-.163.151-.368.352-.368.352-.793.617-2.41-.442-1.233-1.589.079-.078.16-.155.242-.23 2.333-2.163 5.463-3.411 8.676-3.459.078-.001.155-.001.233-.001z"/></svg>