<svg clip-rule="evenodd" fill-rule="evenodd" height="512" stroke-linejoin="round" stroke-miterlimit="2" viewBox="0 0 24 24" width="512" xmlns="http://www.w3.org/2000/svg"><g id="Icon"><path d="m22.75 17c0-.464-.184-.909-.513-1.237-.328-.329-.773-.513-1.237-.513h-3.382c-.663 0-1.269.375-1.565.967l-.447.895c-.043.085-.129.138-.224.138h-6.764c-.095 0-.181-.053-.224-.138l-.447-.895c-.296-.592-.902-.967-1.565-.967h-3.382c-.464 0-.909.184-1.237.513-.329.328-.513.773-.513 1.237v4c0 .464.184.909.513 1.237.328.329.773.513 1.237.513h18c.464 0 .909-.184 1.237-.513.329-.328.513-.773.513-1.237zm-1.5 0v4c0 .066-.026.13-.073.177s-.111.073-.177.073h-18c-.066 0-.13-.026-.177-.073s-.073-.111-.073-.177v-4c0-.066.026-.13.073-.177s.111-.073.177-.073h3.382c.095 0 .181.053.224.138l.447.895c.296.592.902.967 1.565.967h6.764c.663 0 1.269-.375 1.565-.967l.447-.895c.043-.085.129-.138.224-.138h3.382c.066 0 .13.026.177.073s.073.111.073.177z"/><path d="m20.25 16v-12.5c0-.597-.237-1.169-.659-1.591s-.994-.659-1.591-.659c-2.874 0-9.126 0-12 0-.597 0-1.169.237-1.591.659s-.659.994-.659 1.591v12.5c0 .414.336.75.75.75s.75-.336.75-.75v-12.5c0-.199.079-.39.22-.53.14-.141.331-.22.53-.22h12c.199 0 .39.079.53.22.141.14.22.331.22.53v12.5c0 .414.336.75.75.75s.75-.336.75-.75z"/><path d="m10 5.75h4c.414 0 .75-.336.75-.75s-.336-.75-.75-.75h-4c-.414 0-.75.336-.75.75s.336.75.75.75z"/><path d="m8 9.75h8c.414 0 .75-.336.75-.75s-.336-.75-.75-.75h-8c-.414 0-.75.336-.75.75s.336.75.75.75z"/><path d="m8 13.25h8c.414 0 .75-.336.75-.75s-.336-.75-.75-.75h-8c-.414 0-.75.336-.75.75s.336.75.75.75z"/></g></svg>