<svg clip-rule="evenodd" fill-rule="evenodd" height="512" stroke-linejoin="round" stroke-miterlimit="2" viewBox="0 0 24 24" width="512" xmlns="http://www.w3.org/2000/svg"><g id="Icon"><path d="m19.75 6.5v-1.5c0-.967-.783-1.75-1.75-1.75h-12c-.967 0-1.75.783-1.75 1.75v1.5c0 2.071 1.679 3.75 3.75 3.75h8c2.071 0 3.75-1.679 3.75-3.75zm-1.5-1.5v1.5c0 1.243-1.007 2.25-2.25 2.25h-8c-1.243 0-2.25-1.007-2.25-2.25v-1.5c0-.138.112-.25.25-.25h12c.138 0 .25.112.25.25z"/><path d="m4.716 8.447s-.449 6.293-.735 10.286c-.074 1.038.287 2.061.996 2.822.71.762 1.704 1.195 2.745 1.195h8.556c1.041 0 2.035-.433 2.745-1.195.709-.761 1.07-1.784.996-2.822-.286-3.993-.735-10.286-.735-10.286-.03-.413-.389-.725-.802-.695-.413.029-.724.389-.694.801 0 0 .449 6.294.734 10.287.045.623-.172 1.236-.597 1.693-.426.457-1.022.717-1.647.717h-8.556c-.625 0-1.221-.26-1.647-.717-.425-.457-.642-1.07-.597-1.693l.734-10.287c.03-.412-.281-.772-.694-.801-.413-.03-.772.282-.802.695z"/><path d="m8.961 4.749.039.001.032-.004c.144-.022.718-.147.718-.761 0-.085 0-.535 0-.985 0-.066.026-.13.073-.177s.111-.073.177-.073h4c.066 0 .13.026.177.073s.073.111.073.177v.985.007.008c0 .055.006.109.018.161l.001.005.005.021.002.01c.017.064.041.12.07.17.128.228.373.383.654.383 0 0 .75-.063.75-.765v-.985c0-.464-.184-.909-.513-1.237-.328-.329-.773-.513-1.237-.513-1.11 0-2.89 0-4 0-.464 0-.909.184-1.237.513-.329.328-.513.773-.513 1.237v.985.007.008c0 .055.006.109.018.161l.001.005.005.021.002.01c.017.064.041.12.07.17.122.218.351.369.615.382z"/><path d="m19.826 20.25c.769 0 1.503-.322 2.024-.888s.781-1.324.717-2.09l-.243-2.917c-.076-.907-.834-1.605-1.744-1.605h-1.58c-.414 0-.75.336-.75.75s.336.75.75.75h1.58c.13 0 .238.1.249.229l.243 2.917c.029.349-.089.693-.326.95-.236.258-.57.404-.92.404-.414 0-.75.336-.75.75s.336.75.75.75z"/><path d="m4.174 18.75c-.35 0-.684-.146-.92-.404-.237-.257-.355-.601-.326-.95l.243-2.917c.011-.129.119-.229.249-.229h1.58c.414 0 .75-.336.75-.75s-.336-.75-.75-.75h-1.58c-.91 0-1.668.698-1.744 1.605-.064.774-.159 1.913-.243 2.917-.064.766.196 1.524.717 2.09s1.255.888 2.024.888c.414 0 .75-.336.75-.75s-.336-.75-.75-.75z"/><path d="m14.25 8v3c0 .414.336.75.75.75s.75-.336.75-.75v-3c0-.414-.336-.75-.75-.75s-.75.336-.75.75z"/><path d="m8.25 8v3c0 .414.336.75.75.75s.75-.336.75-.75v-3c0-.414-.336-.75-.75-.75s-.75.336-.75.75z"/><path d="m16.75 17v-1.5c0-.967-.784-1.75-1.75-1.75h-6c-.966 0-1.75.783-1.75 1.75v1.5c0 1.519 1.231 2.75 2.75 2.75h4c1.519 0 2.75-1.231 2.75-2.75zm-1.5-1.5v1.5c0 .69-.56 1.25-1.25 1.25h-4c-.69 0-1.25-.56-1.25-1.25v-1.5c0-.138.112-.25.25-.25h6c.138 0 .25.112.25.25z"/></g></svg>