<?xml version="1.0"?>
<svg xmlns="http://www.w3.org/2000/svg" viewBox="0 0 32 32" width="512" height="512"><g id="ambulance_truck_transport_emergency" data-name="ambulance, truck, transport, emergency"><path d="M26,7H12a1,1,0,0,0-1,1v3H8a1,1,0,0,0-.707.293l-4,4A1,1,0,0,0,3,16v6a1,1,0,0,0,1,1H5.1843a2.982,2.982,0,0,0,5.6314,0H16a1,1,0,0,0,0-2H10.8157a2.982,2.982,0,0,0-5.6314,0H5V16.4141L8.4141,13H11v5a1,1,0,0,0,2,0V9H26a1.0013,1.0013,0,0,1,1,1V21H24.8157a3,3,0,1,0,0,2H28a1,1,0,0,0,1-1V10A3.0033,3.0033,0,0,0,26,7ZM8,21a1,1,0,1,1-1,1A1.0013,1.0013,0,0,1,8,21Zm14,2a1,1,0,1,1,1-1A1.0013,1.0013,0,0,1,22,23Z"/><path d="M19,16a1,1,0,0,0,2,0V15h1a1,1,0,0,0,0-2H21V12a1,1,0,0,0-2,0v1H18a1,1,0,0,0,0,2h1Z"/></g></svg>
