<svg clip-rule="evenodd" fill-rule="evenodd" height="512" stroke-linejoin="round" stroke-miterlimit="2" viewBox="0 0 24 24" width="512" xmlns="http://www.w3.org/2000/svg"><g id="Icon"><path d="m15 22.75c.199 0 .39-.079.53-.22l7-7c.141-.14.22-.331.22-.53v-6.125c0-.897-.728-1.625-1.625-1.625h-12.25c-.897 0-1.625.728-1.625 1.625v12.25c0 .897.728 1.625 1.625 1.625zm-.311-1.5h-5.814c-.069 0-.125-.056-.125-.125v-12.25c0-.069.056-.125.125-.125h12.25c.069 0 .125.056.125.125v5.814z"/><path d="m4.25 2v6c0 .414.336.75.75.75s.75-.336.75-.75v-6c0-.414-.336-.75-.75-.75s-.75.336-.75.75z"/><path d="m2 5.75h6c.414 0 .75-.336.75-.75s-.336-.75-.75-.75h-6c-.414 0-.75.336-.75.75s.336.75.75.75z"/><path d="m22.53 15.53c.215-.214.279-.537.163-.817s-.39-.463-.693-.463h-7c-.414 0-.75.336-.75.75v7c0 .303.183.577.463.693s.603.052.817-.163zm-2.341.22-4.439 4.439v-4.439z"/></g></svg>