<svg clip-rule="evenodd" fill-rule="evenodd" height="512" stroke-linejoin="round" stroke-miterlimit="2" viewBox="0 0 24 24" width="512" xmlns="http://www.w3.org/2000/svg"><g id="Icon"><path d="m20.25 20v-12.558c0-.493-.208-.963-.573-1.295-.991-.901-3.952-3.592-4.886-4.442-.323-.293-.742-.455-1.178-.455-1.182 0-4.807 0-7.113 0-.729 0-1.429.29-1.945.805-.515.516-.805 1.216-.805 1.945v16c0 .729.29 1.429.805 1.945.516.515 1.216.805 1.945.805h11c.729 0 1.429-.29 1.945-.805.515-.516.805-1.216.805-1.945zm-1.5 0c0 .332-.132.649-.366.884-.235.234-.552.366-.884.366h-11c-.332 0-.649-.132-.884-.366-.234-.235-.366-.552-.366-.884v-16c0-.332.132-.649.366-.884.235-.234.552-.366.884-.366h7.113c.063 0 .123.023.169.065l4.886 4.442c.052.048.082.115.082.185z"/><path d="m9.167 13.176 1.617 2c.14.174.351.276.575.278.223.003.436-.095.581-.265l2.883-3.409c.267-.316.227-.79-.089-1.057s-.789-.228-1.057.088l-2.297 2.717s-1.047-1.295-1.047-1.295c-.26-.322-.733-.372-1.055-.112-.321.26-.371.733-.111 1.055z"/><path d="m14.75 6.25v-4.25c0-.414-.336-.75-.75-.75s-.75.336-.75.75v4.5c0 .331.132.649.366.884.235.234.552.366.884.366h5c.414 0 .75-.336.75-.75s-.336-.75-.75-.75z"/></g></svg>