<svg clip-rule="evenodd" fill-rule="evenodd" height="512" stroke-linejoin="round" stroke-miterlimit="2" viewBox="0 0 24 24" width="512" xmlns="http://www.w3.org/2000/svg"><g id="Icon"><path d="m14.75 7.501v12.969c0 .095-.054.182-.14.224-.085.042-.187.032-.262-.026l-4.281-3.292c-.629-.484-1.505-.484-2.134 0l-4.281 3.292c-.075.058-.177.068-.262.026-.086-.042-.14-.129-.14-.224v-14.969c0-1.243 1.007-2.25 2.25-2.25h13c.414 0 .75-.336.75-.75s-.336-.75-.75-.75c0 0-8.367 0-13 0-2.071 0-3.75 1.679-3.75 3.75v14.969c0 .667.379 1.276.977 1.57.598.295 1.312.224 1.84-.183l4.281-3.293c.089-.069.215-.069.304 0l4.281 3.293c.528.407 1.242.478 1.84.183.598-.294.977-.903.977-1.57 0-4.098 0-12.969 0-12.969 0-.414-.336-.75-.75-.75s-.75.336-.75.75z"/><path d="m18.501 1.75c-.995 0-1.949.395-2.652 1.098-.704.703-1.099 1.657-1.099 2.652v8.001c0 .414.336.75.75.75h5c.464 0 .909-.184 1.237-.513.329-.328.513-.773.513-1.237v-7.001c0-2.071-1.678-3.749-3.749-3.75zm0 1.5c1.242 0 2.249 1.008 2.249 2.25v7.001c0 .066-.026.13-.073.177s-.111.073-.177.073h-4.25v-7.251c0-.597.237-1.169.659-1.591s.995-.659 1.592-.659z"/></g></svg>