<?xml version="1.0"?>
<svg xmlns="http://www.w3.org/2000/svg" viewBox="0 0 32 32" width="512" height="512"><g id="cctv_camera_surveillance" data-name="cctv, camera, surveillance"><path d="M28.832,18.4453a1,1,0,0,0-1.3867-.2773l-3.6565,2.438a2.8673,2.8673,0,0,0-2.6772-.4565L18,16h4a1,1,0,0,0,1-1V7a1,1,0,0,0-1-1H10A1,1,0,0,0,9,7v.613L4.3164,6.0518A.9994.9994,0,0,0,3,7v8a1,1,0,0,0,1,1,.98.98,0,0,0,.3164-.0518l2-.6669a1,1,0,1,0-.6328-1.8965L5,13.6123V8.3877L9,9.7205V15a1,1,0,0,0,1,1h5.5005l4.0043,5.339a3.0116,3.0116,0,1,0,5.3947.93l3.6552-2.4372A1,1,0,0,0,28.832,18.4453ZM11,8H21v6H11ZM22,24a1,1,0,1,1,1-1A1.0009,1.0009,0,0,1,22,24Z"/></g></svg>
