<svg height="512" viewBox="0 0 32 32" width="512" xmlns="http://www.w3.org/2000/svg"><g id="atom_galaxy_neutron" data-name="atom, galaxy, neutron"><path d="m28.1968 12.5669c1.128-3.3836.8149-6.1815-.8812-7.8789l-.0016-.0025c-1.4478-1.4458-3.7686-1.893-6.5376-1.2617a1 1 0 1 0 .4453 1.95c2.0732-.4746 3.7353-.2163 4.6782.7266h.0009c1.1164 1.1175 1.262 3.2434.3985 5.833a23.2731 23.2731 0 0 1 -5.7031 8.6621 26.908 26.908 0 0 1 -4.6033 3.7067 27.1806 27.1806 0 0 1 -4.5891-3.7072c-.4849-.4853-.9541-.9878-1.394-1.4946a1 1 0 0 0 -1.5098 1.3122c.47.5415.9717 1.0791 1.49 1.5972a28.789 28.789 0 0 0 5.44 4.2932.9911.9911 0 0 0 .1278.0788 20.1412 20.1412 0 0 0 3.8749 1.815 11.8175 11.8175 0 0 0 3.7.6655 5.7142 5.7142 0 0 0 4.1813-1.5483c2.2741-2.2741 2.002-6.58-.6746-11.3109a19.69 19.69 0 0 0 1.5574-3.4362zm-2.2968 13.3331c-1.1177 1.1177-3.2427 1.2632-5.834.3994a16.6665 16.6665 0 0 1 -2.1147-.8816 29.53 29.53 0 0 0 4.0587-3.4078 29.749 29.749 0 0 0 3.4-4.0632c1.7248 3.4649 1.943 6.4996.49 7.9532z"/><path d="m10.7783 26.626c-2.0737.4746-3.7353.2163-4.6782-.7266h-.0009c-1.1164-1.1175-1.262-3.2434-.3985-5.833a23.27 23.27 0 0 1 5.7041-8.6621 26.8919 26.8919 0 0 1 4.6024-3.7067 27.179 27.179 0 0 1 4.589 3.7072c.4849.4853.9541.9878 1.394 1.4946a1 1 0 0 0 1.51-1.3115c-.47-.5415-.9717-1.0791-1.49-1.5972a28.8285 28.8285 0 0 0 -5.4024-4.27c-.0215-.0165-.0447-.0269-.0673-.0414a20.2518 20.2518 0 0 0 -3.9737-1.8759c-3.3832-1.1271-6.1825-.8146-7.8808.8826-2.2741 2.2742-2.002 6.58.6748 11.3113a19.685 19.685 0 0 0 -1.5576 3.4358c-1.128 3.3836-.8149 6.1815.8812 7.8789l.0016.0025a5.7761 5.7761 0 0 0 4.2076 1.5415 10.5091 10.5091 0 0 0 2.33-.28 1 1 0 1 0 -.4453-1.95zm-4.6783-20.526c1.1182-1.1167 3.2441-1.2622 5.834-.3994a16.66 16.66 0 0 1 2.1147.8816 30.1845 30.1845 0 0 0 -7.4582 7.4713c-1.7253-3.4651-1.9435-6.4999-.4905-7.9535z"/><path d="m13.5244 13.5254a3.5058 3.5058 0 0 0 0 4.9492l.001.001a3.5 3.5 0 1 0 -.001-4.95zm3.5371 3.5351a1.5 1.5 0 1 1 -.001-2.122 1.5038 1.5038 0 0 1 .001 2.122z"/></g></svg>