<svg clip-rule="evenodd" fill-rule="evenodd" height="512" stroke-linejoin="round" stroke-miterlimit="2" viewBox="0 0 24 24" width="512" xmlns="http://www.w3.org/2000/svg"><g id="Icon"><path d="m20 12.25h-9.5c-.729 0-1.429-.29-1.945-.805-.515-.516-.805-1.216-.805-1.945v-5.5c0-.729.29-1.429.805-1.945.516-.515 1.216-.805 1.945-.805h9.5c.729 0 1.429.29 1.945.805.515.516.805 1.216.805 1.945v5.5c0 .729-.29 1.429-.805 1.945-.516.515-1.216.805-1.945.805zm0-1.5c.332 0 .649-.132.884-.366.234-.235.366-.552.366-.884v-5.5c0-.332-.132-.649-.366-.884-.235-.234-.552-.366-.884-.366h-9.5c-.332 0-.649.132-.884.366-.234.235-.366.552-.366.884v5.5c0 .332.132.649.366.884.235.234.552.366.884.366z"/><path d="m11.75 9c0 .414-.336.75-.75.75s-.75-.336-.75-.75v-3.002c0-.596.237-1.168.658-1.59.422-.421.994-.658 1.59-.658h.004c.596 0 1.168.237 1.59.658.421.422.658.994.658 1.59v3.002c0 .414-.336.75-.75.75s-.75-.336-.75-.75v-3.002c0-.198-.079-.389-.219-.529s-.331-.219-.529-.219h-.004c-.198 0-.389.079-.529.219s-.219.331-.219.529z"/><path d="m15.75 9v-4.5c0-.414.336-.75.75-.75h1.5c1.243 0 2.25 1.007 2.25 2.25v1.5c0 1.243-1.007 2.25-2.25 2.25h-1.5c-.414 0-.75-.336-.75-.75zm1.5-.75h.75c.414 0 .75-.336.75-.75v-1.5c0-.414-.336-.75-.75-.75h-.75z"/><path d="m14 6.25c.414 0 .75.336.75.75s-.336.75-.75.75h-3c-.414 0-.75-.336-.75-.75s.336-.75.75-.75z"/><path d="m21.249 18.759c-.012-.314-.142-.612-.365-.835-.235-.234-.552-.366-.884-.366h-.545c-.229 0-.456.033-.675.099l-3.248.974c-.991.298-2.044.322-3.047.071l-2.667-.667c-.401-.1-.646-.507-.546-.909.101-.402.508-.646.91-.546l2.667.667c.741.185 1.519.167 2.252-.052l3.248-.975c.359-.107.731-.162 1.106-.162h.545c.729 0 1.429.29 1.945.805.515.516.805 1.216.805 1.945v.494c0 .543-.448.698-.652.741l.128-.02-7.643 2.414c-1.358.428-2.817.417-4.167-.033l-5.153-1.718c-.393-.131-.605-.556-.475-.949.131-.392.556-.605.949-.474l5.153 1.718c1.05.35 2.185.359 3.241.025z"/><path d="m15.5 18.558c-.414 0-.75-.336-.75-.75 0-.004 0-.009 0-.013v-.945c0-.568-.383-1.065-.932-1.209l-7.009-1.845c-.4-.105-.64-.516-.534-.916.105-.4.516-.64.916-.534l7.009 1.844c1.208.318 2.05 1.41 2.05 2.66v.945c0 .703-.75.763-.75.763z"/><path d="m5.993 19.796c-.229 1.029-1.142 1.762-2.196 1.762h-1.297c-.332 0-.649-.132-.884-.366-.234-.235-.366-.553-.366-.884v-8.89c0-.375.168-.729.458-.967.289-.237.67-.332 1.037-.259l2.9.58c.593.119 1.113.471 1.444.978.33.507.442 1.126.311 1.716zm-3.243-8.073v8.335h1.047c.351 0 .656-.244.732-.587l1.406-6.33c.044-.197.007-.403-.103-.572s-.284-.287-.482-.326z"/></g></svg>