<svg clip-rule="evenodd" fill-rule="evenodd" height="512" stroke-linejoin="round" stroke-miterlimit="2" viewBox="0 0 24 24" width="512" xmlns="http://www.w3.org/2000/svg"><g id="Icon"><circle cx="12" cy="5.884" r="1"/><path d="m22.75 7.923v-1.323c0-.716-.436-1.359-1.1-1.625l-9-3.6c-.417-.167-.883-.167-1.3 0l-9 3.6c-.664.266-1.1.909-1.1 1.625v1.323c0 .966.784 1.75 1.75 1.75h18c.966 0 1.75-.784 1.75-1.75zm-1.5-1.323v1.323c0 .138-.112.25-.25.25h-18c-.138 0-.25-.112-.25-.25v-1.323c0-.102.062-.194.157-.232 0 0 9-3.6 9-3.6.06-.024.126-.024.186 0 0 0 9 3.6 9 3.6.095.038.157.13.157.232z"/><path d="m2.994 21.173.52-1.819c.031-.107.129-.181.24-.181h7.746c.414 0 .75-.336.75-.75s-.336-.75-.75-.75h-7.746c-.781 0-1.468.518-1.682 1.269l-.611 2.138c-.108.377-.032.783.204 1.096s.606.497.998.497h8.837c.414 0 .75-.336.75-.75s-.336-.75-.75-.75z"/><path d="m20.75 10v-1.077c0-.414-.336-.75-.75-.75s-.75.336-.75.75v1.077c0 .414.336.75.75.75s.75-.336.75-.75z"/><path d="m16.25 10v-1.077c0-.414-.336-.75-.75-.75s-.75.336-.75.75v1.077c0 .414.336.75.75.75s.75-.336.75-.75z"/><path d="m9.25 18.423v-9.5c0-.414-.336-.75-.75-.75s-.75.336-.75.75v9.5c0 .414.336.75.75.75s.75-.336.75-.75z"/><path d="m4.75 18.423v-9.5c0-.414-.336-.75-.75-.75s-.75.336-.75.75v9.5c0 .414.336.75.75.75s.75-.336.75-.75z"/><path d="m18.04 15.65c-2.6 0-4.711 2.111-4.711 4.711 0 .691.428 1.3 1.229 1.715.845.437 2.162.674 3.482.674s2.636-.237 3.481-.674c.802-.415 1.229-1.024 1.229-1.715 0-2.6-2.111-4.711-4.71-4.711zm0 1.5c1.772 0 3.21 1.439 3.21 3.211 0 .064-.044.111-.093.16-.085.084-.197.156-.325.223-.676.35-1.736.506-2.792.506-1.057 0-2.116-.156-2.792-.506-.129-.067-.241-.139-.325-.223-.049-.049-.094-.096-.094-.16 0-1.772 1.439-3.211 3.211-3.211z"/><path d="m18.04 11.25c-1.629 0-2.951 1.322-2.951 2.95s1.322 2.95 2.951 2.95c1.628 0 2.95-1.322 2.95-2.95s-1.322-2.95-2.95-2.95zm0 1.5c.8 0 1.45.65 1.45 1.45 0 .801-.65 1.45-1.45 1.45-.801 0-1.451-.649-1.451-1.45 0-.8.65-1.45 1.451-1.45z"/></g></svg>