<svg clip-rule="evenodd" fill-rule="evenodd" height="512" stroke-linejoin="round" stroke-miterlimit="2" viewBox="0 0 24 24" width="512" xmlns="http://www.w3.org/2000/svg"><g id="Icon"><path d="m3.448 17.319 12.67-1.109c.982-.086 1.731-.984 1.639-2.03 0 0-.178-2.042-.178-2.042-.346-3.952-3.654-6.867-7.36-6.543 0 0-2.804.246-2.804.246-3.706.324-6.458 3.769-6.112 7.721 0 0 .178 2.042.178 2.042.092 1.046.986 1.801 1.967 1.715zm-.13-1.495c-.185.017-.325-.154-.342-.351 0 0-.179-2.041-.179-2.041-.271-3.102 1.84-5.843 4.748-6.097 0 0 2.805-.245 2.805-.245 2.908-.255 5.463 2.078 5.735 5.179 0 0 .178 2.041.178 2.041.017.197-.091.39-.275.406 0 0-12.67 1.108-12.67 1.108z"/><path d="m9.622 6.317-.085-.972c-.036-.413-.4-.718-.812-.682-.413.036-.718.4-.682.813l.085.972c.036.412.4.718.812.682.413-.036.718-.4.682-.813z"/><path d="m20.578 17.83c-2.361.082-5.99-.187-8.609-2.346-.319-.263-.792-.218-1.055.102-.264.319-.218.792.101 1.055 3.323 2.74 8.088 2.825 10.59 2.633.005 0 .009 0 .014-.001.552-.053 1.003-.462 1.108-1.006.106-.544-.16-1.092-.651-1.348-1.805-.94-4.715-2.456-4.715-2.456-.367-.191-.82-.048-1.011.319s-.049.82.318 1.012z"/></g></svg>