<svg clip-rule="evenodd" fill-rule="evenodd" height="512" stroke-linejoin="round" stroke-miterlimit="2" viewBox="0 0 24 24" width="512" xmlns="http://www.w3.org/2000/svg"><g id="Icon"><path d="m21.902 4.848c-.001-.001-.003-.001-.004-.002-6.263-2.137-12.526-2.12-18.792-.006-.002 0-.003.001-.005.002-1.108.383-1.852 1.427-1.851 2.6 0 2.299 0 6.866.007 9.186 0 1.186.765 2.239 1.894 2.606.002.001.003.001.005.002 6.241 1.989 12.482 2.095 18.727.021.002 0 .004-.001.006-.002 1.113-.38 1.861-1.426 1.861-2.603 0-2.312 0-6.91-.008-9.218 0-1.163-.738-2.202-1.84-2.586zm-.492 1.417c.498.174.832.644.832 1.172v.003c.008 2.306.008 6.901.008 9.213 0 .534-.339 1.009-.844 1.182-5.933 1.97-11.862 1.862-17.792-.027-.511-.167-.857-.644-.857-1.182 0-.001 0-.002 0-.002-.007-2.319-.007-6.884-.007-9.183 0-.533.337-1.007.84-1.181 5.942-2.004 11.881-2.021 17.82.005z"/><path d="m22.859 14.26c-1.644.314-3.287.549-4.931.708-.412.04-.714.406-.675.818.04.412.407.715.819.675 1.69-.164 3.379-.405 5.069-.728.406-.077.673-.471.596-.877-.078-.407-.471-.674-.878-.596z"/><path d="m14.969 15.172c-1.974.083-3.948.059-5.921-.067-.413-.026-.77.288-.796.701-.027.413.287.77.7.796 2.027.129 4.053.154 6.079.069.414-.017.736-.367.718-.781-.017-.413-.367-.735-.78-.718z"/><path d="m6.085 14.841c-1.317-.151-2.635-.345-3.952-.583-.408-.073-.798.198-.871.606-.073.407.198.797.605.871 1.349.243 2.699.442 4.048.596.411.047.783-.248.83-.659.047-.412-.248-.784-.66-.831z"/><path d="m2.141 9.798c1.316-.252 2.632-.457 3.948-.614.411-.049.705-.423.656-.834s-.423-.705-.834-.656c-1.351.161-2.702.372-4.052.631-.407.078-.674.472-.596.878.079.407.472.673.878.595z"/><path d="m9.048 8.911c1.973-.127 3.945-.146 5.918-.056.413.018.764-.302.783-.715.019-.414-.301-.765-.715-.784-2.027-.092-4.055-.072-6.082.059-.413.026-.727.383-.7.796.026.413.383.727.796.7z"/><path d="m17.925 9.071c1.644.166 3.288.409 4.932.727.407.079.801-.187.879-.593.079-.407-.187-.801-.593-.879-1.689-.328-3.379-.576-5.068-.747-.411-.042-.78.259-.821.671-.042.412.259.78.671.821z"/><path d="m23 11.25h-5c-.414 0-.75.336-.75.75s.336.75.75.75h5c.414 0 .75-.336.75-.75s-.336-.75-.75-.75z"/><path d="m15 11.25h-6c-.414 0-.75.336-.75.75s.336.75.75.75h6c.414 0 .75-.336.75-.75s-.336-.75-.75-.75z"/><path d="m6 11.25h-4c-.414 0-.75.336-.75.75s.336.75.75.75h4c.414 0 .75-.336.75-.75s-.336-.75-.75-.75z"/><path d="m17.25 5.049v14c0 .414.336.75.75.75s.75-.336.75-.75v-14c0-.414-.336-.75-.75-.75s-.75.336-.75.75z"/><path d="m8.25 5.049v14c0 .414.336.75.75.75s.75-.336.75-.75v-14c0-.414-.336-.75-.75-.75s-.75.336-.75.75z"/><path d="m14.25 5.049v14c0 .414.336.75.75.75s.75-.336.75-.75v-14c0-.414-.336-.75-.75-.75s-.75.336-.75.75z"/><path d="m5.25 5.049v14c0 .414.336.75.75.75s.75-.336.75-.75v-14c0-.414-.336-.75-.75-.75s-.75.336-.75.75z"/></g></svg>