<svg viewBox="0 0 32 32" xmlns="http://www.w3.org/2000/svg"><g id="Layer_49" data-name="Layer 49"><path d="m13 7h2v2h-2z"/><path d="m13 11h2v2h-2z"/><path d="m13 15h2v2h-2z"/><path d="m13 19h2v2h-2z"/><path d="m17 7h2v2h-2z"/><path d="m17 11h2v2h-2z"/><path d="m17 15h2v2h-2z"/><path d="m17 19h2v2h-2z"/><path d="m28 27h-5v-18h2v15a1 1 0 0 0 2 0v-16a1 1 0 0 0 -1-1h-3v-3a1 1 0 0 0 -1-1h-12a1 1 0 0 0 -1 1v3h-3a1 1 0 0 0 -1 1v19h-1a1 1 0 0 0 0 2h24a1 1 0 0 0 0-2zm-21-18h2v15a1 1 0 0 0 2 0v-19h10v22h-2v-3a1 1 0 0 0 -1-1h-4a1 1 0 0 0 -1 1v3h-6zm10 18h-2v-2h2z"/></g></svg>