<svg height="512" viewBox="0 0 32 32" width="512" xmlns="http://www.w3.org/2000/svg"><g id="Layer_51" data-name="Layer 51"><path d="m11 7h2v2h-2z"/><path d="m11 11h2v2h-2z"/><path d="m11 15h2v2h-2z"/><path d="m11 19h2v2h-2z"/><path d="m15 7h2v2h-2z"/><path d="m15 11h2v2h-2z"/><path d="m15 15h2v2h-2z"/><path d="m15 19h2v2h-2z"/><path d="m19 7h2v2h-2z"/><path d="m19 11h2v2h-2z"/><path d="m19 15h2v2h-2z"/><path d="m19 19h2v2h-2z"/><path d="m28 27h-3v-23a1 1 0 0 0 -1-1h-16a1 1 0 0 0 -1 1v20a1 1 0 0 0 2 0v-19h14v22h-4v-3a1 1 0 0 0 -1-1h-4a1 1 0 0 0 -1 1v3h-9a1 1 0 0 0 0 2h24a1 1 0 0 0 0-2zm-13-2h2v2h-2z"/></g></svg>