<svg clip-rule="evenodd" fill-rule="evenodd" height="512" stroke-linejoin="round" stroke-miterlimit="2" viewBox="0 0 24 24" width="512" xmlns="http://www.w3.org/2000/svg"><g id="Icon"><circle cx="5.25" cy="5" r=".75"/><circle cx="7.75" cy="5" r=".75"/><circle cx="10.25" cy="5" r=".75"/><path d="m22.75 13v-8.5c0-1.795-1.455-3.25-3.25-3.25-3.842 0-11.158 0-15 0-1.795 0-3.25 1.455-3.25 3.25v15c0 1.795 1.455 3.25 3.25 3.25h7.5c.414 0 .75-.336.75-.75s-.336-.75-.75-.75h-7.5c-.967 0-1.75-.783-1.75-1.75v-15c0-.967.783-1.75 1.75-1.75h15c.967 0 1.75.783 1.75 1.75v8.5c0 .414.336.75.75.75s.75-.336.75-.75z"/><path d="m22 7.25h-20c-.414 0-.75.336-.75.75s.336.75.75.75h20c.414 0 .75-.336.75-.75s-.336-.75-.75-.75z"/><path d="m21.457 21.57-2.101-3c-.237-.339-.705-.422-1.044-.184-.339.237-.422.705-.184 1.044l2.1 3c.238.339.706.422 1.045.184.339-.237.422-.705.184-1.044z"/><path d="m22.067 16.084c-1.708-.986-4.801-2.77-6.47-3.733-.46-.265-1.031-.24-1.466.064-.434.304-.653.833-.561 1.355.334 1.898.953 5.415 1.295 7.357.093.533.494.961 1.02 1.089.526.129 1.078-.065 1.408-.495 0 0 1.754-2.286 1.754-2.286s2.748-.866 2.748-.866c.517-.163.888-.616.947-1.154s-.206-1.061-.675-1.331zm-1.015 1.146-2.682.846c-.147.046-.276.136-.369.258l-1.712 2.232-1.192-6.772z"/></g></svg>