<svg clip-rule="evenodd" fill-rule="evenodd" height="512" stroke-linejoin="round" stroke-miterlimit="2" viewBox="0 0 24 24" width="512" xmlns="http://www.w3.org/2000/svg"><g id="Icon"><path d="m22.75 8.5c0-1.519-1.231-2.75-2.75-2.75h-1.965c-.083 0-.161-.042-.208-.111l-1.109-1.664c-.51-.765-1.369-1.225-2.288-1.225-1.318 0-3.542 0-4.86 0-.919 0-1.778.46-2.288 1.225l-1.109 1.664c-.047.069-.125.111-.208.111h-1.965c-1.519 0-2.75 1.231-2.75 2.75v10c0 .729.29 1.429.805 1.945.516.515 1.216.805 1.945.805h16c.729 0 1.429-.29 1.945-.805.515-.516.805-1.216.805-1.945zm-1.5 0v10c0 .332-.132.649-.366.884-.235.234-.552.366-.884.366h-16c-.332 0-.649-.132-.884-.366-.234-.235-.366-.552-.366-.884v-10c0-.69.56-1.25 1.25-1.25h1.965c.585 0 1.131-.292 1.456-.779l1.109-1.664c.232-.348.622-.557 1.04-.557h4.86c.418 0 .808.209 1.04.557l1.109 1.664c.325.487.871.779 1.456.779h1.965c.69 0 1.25.56 1.25 1.25z"/><path d="m12 7.75c-2.898 0-5.25 2.352-5.25 5.25s2.352 5.25 5.25 5.25 5.25-2.352 5.25-5.25-2.352-5.25-5.25-5.25zm0 1.5c2.07 0 3.75 1.68 3.75 3.75s-1.68 3.75-3.75 3.75-3.75-1.68-3.75-3.75 1.68-3.75 3.75-3.75z"/></g></svg>