<svg clip-rule="evenodd" fill-rule="evenodd" stroke-linejoin="round" stroke-miterlimit="1.414" viewBox="0 0 32 32" xmlns="http://www.w3.org/2000/svg" xmlns:serif="http://www.serif.com/"><path id="mic-microphone-on" d="m0 0h32v32h-32z" fill="none"/><path d="m15.971 23.001c.253-.027.529-.015.806-.051 2.755-.36 5.103-2.833 5.21-5.717.003-.075.004-.15.005-.225v-3.008c.006-.193.021-.225.049-.309.116-.358.449-.636.825-.683.121-.015.15-.007.188-.006.193.018.224.036.306.068.331.131.579.448.624.805.007.055.006.069.008.125v3.012c-.008 2.584-1.347 5.133-3.476 6.591-1.045.715-2.265 1.17-3.516 1.331v2.066h3c.019.001.037.001.056.002.229.019.302.053.428.123.582.322.677 1.277.095 1.691-.168.119-.374.178-.579.184h-8c-.23-.006-.305-.037-.434-.099-.614-.296-.743-1.292-.145-1.717.168-.119.374-.178.579-.184h3v-3c.003-.163.018-.216.05-.313.038-.114.096-.218.171-.31.054-.07.117-.133.19-.186.082-.06.171-.102.264-.131.094-.034.193-.054.296-.059zm-6.874-9.997c.181.021.21.038.287.069.329.134.575.454.617.809.007.052.006.065.007.118 0 1.016-.003 2.031 0 3.047.019 2.018 1.101 3.977 2.838 5.057 0 0 .583.49.446 1.077-.147.626-.957.964-1.549.592-2.252-1.417-3.726-4.024-3.735-6.761v-3.012c.006-.194.025-.246.063-.348.13-.351.472-.614.849-.648.114-.01.141-.002.177 0zm6.93-10.004c2.073.019 3.953 1.817 3.973 3.973.01 3.351.01 6.703 0 10.054-.016 1.745-1.29 3.394-2.976 3.84-1.304.345-2.777-.024-3.764-.952-.786-.738-1.25-1.797-1.26-2.888-.01-3.351-.01-6.703 0-10.054.019-2.028 1.737-3.925 3.924-3.972.034-.001.068-.001.103-.001zm-.027 2c-1.038.003-1.99.891-2 1.986-.01 3.347-.031 6.694 0 10.041.015.948.774 1.824 1.727 1.955 1.111.151 2.262-.764 2.273-1.968.01-3.347.031-6.694 0-10.041-.016-1.015-.873-1.942-1.948-1.972-.018-.001-.035-.001-.052-.001z" fill-rule="nonzero"/></svg>