<svg clip-rule="evenodd" fill-rule="evenodd" stroke-linejoin="round" stroke-miterlimit="2" viewBox="0 0 32 32" xmlns="http://www.w3.org/2000/svg" xmlns:serif="http://www.serif.com/"><path id="archive-box-research" d="m0 0h32v32h-32z" fill="none"/><path d="m5 11h-1c-.536-.025-.975-.46-1-1v-4c.025-.537.451-.975 1-1h24c.031.001.062.003.092.004.5.07.884.483.908.996v4c-.025.536-.46.975-1 1h-21v14h18v-11c.039-.882.48-.958.913-.996.491-.043.985.33 1.072.822.013.077.012.097.015.174v12c-.023.537-.462.977-1 1h-20c-.537-.023-.977-.462-1-1zm15 4h-8c-.862-.024-1.434-1.419-.434-1.901.129-.062.204-.093.434-.099h8c.019.001.037.001.056.002.229.019.302.053.428.123.739.408.554 1.846-.484 1.875zm-15-8v2h22v-2z"/></svg>