<svg clip-rule="evenodd" fill-rule="evenodd" height="512" stroke-linejoin="round" stroke-miterlimit="2" viewBox="0 0 24 24" width="512" xmlns="http://www.w3.org/2000/svg"><g id="Icon"><path d="m21 20.75c.966 0 1.75-.784 1.75-1.75v-14c0-.966-.784-1.75-1.75-1.75h-18c-.966 0-1.75.784-1.75 1.75v14c0 .966.784 1.75 1.75 1.75zm0-1.5h-18c-.138 0-.25-.112-.25-.25v-14c0-.138.112-.25.25-.25h18c.138 0 .25.112.25.25v14c0 .138-.112.25-.25.25z"/><path d="m19.75 12c0-3.174-2.576-5.75-5.75-5.75s-5.75 2.576-5.75 5.75 2.576 5.75 5.75 5.75 5.75-2.576 5.75-5.75zm-1.5 0c0 2.346-1.904 4.25-4.25 4.25s-4.25-1.904-4.25-4.25 1.904-4.25 4.25-4.25 4.25 1.904 4.25 4.25z"/><path d="m6 20.75c.414 0 .75-.336.75-.75v-16c0-.414-.336-.75-.75-.75h-3c-.966 0-1.75.784-1.75 1.75v14c0 .966.784 1.75 1.75 1.75zm-.75-1.5h-2.25c-.138 0-.25-.112-.25-.25v-14c0-.138.112-.25.25-.25h2.25z"/></g></svg>