<?xml version="1.0"?>
<svg xmlns="http://www.w3.org/2000/svg" viewBox="0 0 32 32" width="512" height="512"><g id="blood_bag_donate_donation" data-name="blood, bag, donate, donation"><path d="M15.0249,27H10a3.0016,3.0016,0,0,1-3-3V8A1,1,0,0,1,8,7h2a1,1,0,0,0,.707-.293L12.4141,5h3.1718L17.293,6.707A1,1,0,0,0,18,7h2a1.0009,1.0009,0,0,1,1,1v.6641a10.1407,10.1407,0,0,0-5.6128.2627,8.0781,8.0781,0,0,1-5.1064.1132,1,1,0,0,0-.5616,1.92,10.07,10.07,0,0,0,6.1934-.1036A8.14,8.14,0,0,1,21,10.73V12a1,1,0,0,0,2,0V10.0234q.0007-.0234,0-.0468V8a3.0033,3.0033,0,0,0-3-3H18.4141L16.707,3.293A1,1,0,0,0,16,3H12a1,1,0,0,0-.707.293L9.5859,5H8a3.02,3.02,0,0,0-2.1211.8789A2.9794,2.9794,0,0,0,5,8V24a5,5,0,0,0,5,5h5.0249a1,1,0,0,0,0-2Z"/><path d="M24.9092,18.6738a1,1,0,1,0-1.7266,1.01C24.8228,22.4863,25,23.6357,25,24a3,3,0,0,1-6,0c0-1.5127,2.3394-5.3535,3.814-7.4189a1,1,0,0,0-1.6275-1.1622C20.7578,16.0186,17,21.3555,17,24a5,5,0,0,0,10,0C27,22.82,26.3159,21.0781,24.9092,18.6738Z"/><circle cx="14" cy="7" r="1"/><path d="M16,17H15V16a1,1,0,0,0-2,0v1H12a1,1,0,0,0,0,2h1v1a1,1,0,0,0,2,0V19h1a1,1,0,0,0,0-2Z"/></g></svg>
