<svg clip-rule="evenodd" fill-rule="evenodd" stroke-linejoin="round" stroke-miterlimit="1.414" viewBox="0 0 32 32" xmlns="http://www.w3.org/2000/svg" xmlns:serif="http://www.serif.com/"><path id="ribbon-aid-pray-health" d="m0 0h32v32h-32z" fill="none"/><path d="m9.689 20.12c.671.055 1.139.861.833 1.456-.064.124-.154.234-.263.322-.295.237-.679.399-1.034.592l1.319 3.956c.699-.477 1.384-.974 2.053-1.492 0 0 .426-.28.842-.182.698.166 1.037 1.202.422 1.732-.938.806-2.109 1.56-3.202 2.267-.066.042-.397.244-.703.228-.365-.019-.709-.254-.859-.585-.019-.043-.022-.054-.038-.097l-2-6c-.048-.158-.05-.206-.051-.299-.006-.337.17-.671.454-.856.15-.098.204-.11.297-.159.463-.242.923-.493 1.377-.753 0 0 .193-.106.396-.127.101-.01.125-.004.157-.003zm6.338-17.119c.019-.001.038-.001.057-.001 3.227.024 6.22 2.25 7.046 5.797.584 2.51.121 5.175-.854 7.533-.386.932-.852 1.824-1.385 2.682 1.142.777 2.346 1.467 3.575 2.099 0 0 .689.501.491 1.206l-2 6c-.246.634-1.044.815-1.687.397-4.38-2.845-8.489-6.525-10.852-11.105-1.763-3.417-2.609-7.506-.75-10.934 1.223-2.256 3.702-3.664 6.336-3.675l.023.001zm-.035 1.998c-.242.023-.501.017-.753.048-1.699.213-3.237 1.3-3.98 2.916-1.076 2.338-.649 5.085.39 7.562 1.899 4.523 5.688 8.076 9.79 10.898l.033.022 1.319-3.955c-2.603-1.402-5.127-3.09-7.094-5.316-1.811-2.049-3.279-4.722-2.557-7.489.348-1.334 1.288-2.651 2.826-2.684.025-.001.045-.001.081-.001 1.672.047 2.815 1.983 2.969 3.467.204 1.972-.615 3.91-1.738 5.5.612.666 1.299 1.286 1.999 1.851 1.35-2.203 2.271-4.697 2.088-7.331-.117-1.673-.768-3.388-2.12-4.445-.907-.709-2.068-1.045-3.235-1.042 0 0-.006 0-.018-.001zm.019 4.001c-.648.042-1.044 1.087-1.042 2.073.003 1.133.395 2.213 1.019 3.22.749-1.217 1.241-2.614.997-3.9-.119-.629-.472-1.371-.974-1.393z" fill-rule="nonzero"/></svg>