<svg clip-rule="evenodd" fill-rule="evenodd" height="512" stroke-linejoin="round" stroke-miterlimit="2" viewBox="0 0 24 24" width="512" xmlns="http://www.w3.org/2000/svg"><g id="Icon"><path d="m9 10.75c.966 0 1.75-.784 1.75-1.75v-6c0-.966-.784-1.75-1.75-1.75h-6c-.966 0-1.75.784-1.75 1.75v6c0 .966.784 1.75 1.75 1.75zm0-1.5h-6c-.138 0-.25-.112-.25-.25v-6c0-.138.112-.25.25-.25h6c.138 0 .25.112.25.25v6c0 .138-.112.25-.25.25z"/><path d="m21 10.75c.966 0 1.75-.784 1.75-1.75v-6c0-.966-.784-1.75-1.75-1.75h-6c-.966 0-1.75.784-1.75 1.75v6c0 .966.784 1.75 1.75 1.75zm0-1.5h-6c-.138 0-.25-.112-.25-.25v-6c0-.138.112-.25.25-.25h6c.138 0 .25.112.25.25v6c0 .138-.112.25-.25.25z"/><path d="m9 22.75c.966 0 1.75-.784 1.75-1.75v-6c0-.966-.784-1.75-1.75-1.75h-6c-.966 0-1.75.784-1.75 1.75v6c0 .966.784 1.75 1.75 1.75zm0-1.5h-6c-.138 0-.25-.112-.25-.25v-6c0-.138.112-.25.25-.25h6c.138 0 .25.112.25.25v6c0 .138-.112.25-.25.25z"/><path d="m18 22.75c2.623 0 4.75-2.127 4.75-4.75s-2.127-4.75-4.75-4.75-4.75 2.127-4.75 4.75 2.127 4.75 4.75 4.75zm0-1.5c-1.795 0-3.25-1.455-3.25-3.25s1.455-3.25 3.25-3.25 3.25 1.455 3.25 3.25-1.455 3.25-3.25 3.25z"/></g></svg>