<svg height="512" viewBox="0 0 32 32" width="512" xmlns="http://www.w3.org/2000/svg"><g fill-rule="evenodd"><path d="m16 17a1 1 0 0 0 1-1v-6a1 1 0 0 0 -2 0v6a1 1 0 0 0 1 1z"/><path d="m28 3h-24a1 1 0 0 0 -1 1v20a1 1 0 0 0 1 1h7.5859l3.7071 3.707a.9995.9995 0 0 0 1.414 0l4-4a1 1 0 0 0 -1.414-1.414l-3.293 3.2929-3.293-3.2929a.9993.9993 0 0 0 -.707-.293h-7v-18h22v18h-3a1 1 0 0 0 0 2h4a1 1 0 0 0 1-1v-20a1 1 0 0 0 -1-1z"/><path d="m16 20.007a1.0035 1.0035 0 1 0 -1.007-1.003 1.0048 1.0048 0 0 0 1.007 1.003z"/></g></svg>