<svg height="512" viewBox="0 0 32 32" width="512" xmlns="http://www.w3.org/2000/svg"><g id="Layer_50" data-name="Layer 50"><path d="m13 7h2v2h-2z"/><path d="m13 11h2v2h-2z"/><path d="m13 15h2v2h-2z"/><path d="m13 19h2v2h-2z"/><path d="m17 7h2v2h-2z"/><path d="m17 11h2v2h-2z"/><path d="m17 15h2v2h-2z"/><path d="m17 19h2v2h-2z"/><path d="m28 27h-5v-23a1 1 0 0 0 -1-1h-12a1 1 0 0 0 -1 1v20a1 1 0 0 0 2 0v-19h10v22h-2v-3a1 1 0 0 0 -1-1h-4a1 1 0 0 0 -1 1v3h-9a1 1 0 0 0 0 2h24a1 1 0 0 0 0-2zm-13-2h2v2h-2z"/></g></svg>