<svg clip-rule="evenodd" fill-rule="evenodd" height="512" stroke-linejoin="round" stroke-miterlimit="2" viewBox="0 0 24 24" width="512" xmlns="http://www.w3.org/2000/svg"><g id="Icon"><path d="m9.5 6.25c-1.794 0-3.25 1.456-3.25 3.25s1.456 3.25 3.25 3.25 3.25-1.456 3.25-3.25-1.456-3.25-3.25-3.25zm0 1.5c.966 0 1.75.784 1.75 1.75s-.784 1.75-1.75 1.75-1.75-.784-1.75-1.75.784-1.75 1.75-1.75z"/><path d="m12 1.25c-5.933 0-10.75 4.817-10.75 10.75s4.817 10.75 10.75 10.75 10.75-4.817 10.75-10.75-4.817-10.75-10.75-10.75zm0 1.5c5.105 0 9.25 4.145 9.25 9.25s-4.145 9.25-9.25 9.25-9.25-4.145-9.25-9.25 4.145-9.25 9.25-9.25z"/><path d="m7.641 20.325c-.256-1.067-.391-2.18-.391-3.325 0-1.934.386-3.778 1.085-5.46.159-.382-.023-.821-.405-.98s-.821.022-.98.405c-.773 1.859-1.2 3.897-1.2 6.035 0 1.265.15 2.496.432 3.675.096.402.501.651.904.554.402-.096.651-.501.555-.904z"/><path d="m10.882 7.5c1.493-1.667 3.372-2.981 5.496-3.8.386-.149.578-.584.429-.97s-.583-.579-.969-.43c-2.347.906-4.424 2.358-6.073 4.2-.276.308-.25.783.058 1.059s.783.25 1.059-.059z"/><path d="m2.525 13.327c1.35-1.323 2.962-2.381 4.75-3.087.385-.152.575-.588.423-.973s-.588-.575-.973-.423c-1.977.781-3.758 1.949-5.25 3.413-.296.289-.3.765-.01 1.06.289.296.765.3 1.06.01z"/><path d="m12.025 9.258c.157-.005.316-.008.475-.008 3.423 0 6.566 1.21 9.025 3.225.32.262.793.216 1.055-.105.262-.32.216-.793-.105-1.055-2.717-2.228-6.191-3.565-9.975-3.565-.176 0-.35.003-.525.009-.413.013-.738.36-.725.774.014.414.361.738.775.725z"/><path d="m16.625 20.375c-2.953-1.963-5.134-4.999-5.984-8.55-.097-.402-.502-.651-.904-.554-.403.096-.652.501-.555.904.939 3.924 3.349 7.279 6.613 9.45.345.229.81.135 1.04-.21.229-.344.135-.81-.21-1.04z"/><path d="m8.26 7.074c-.63-.913-1.155-1.902-1.56-2.952-.149-.386-.584-.578-.97-.429s-.579.583-.43.969c.448 1.161 1.029 2.255 1.725 3.264.235.341.702.426 1.043.191s.427-.702.192-1.043z"/></g></svg>