<svg clip-rule="evenodd" fill-rule="evenodd" height="512" stroke-linejoin="round" stroke-miterlimit="2" viewBox="0 0 134 134" width="512" xmlns="http://www.w3.org/2000/svg"><path d="m91.676 110.255c9.972-4.338 14.625-14.426 16.174-25.42 1.459-10.357.292-21.584-2.091-30.24-1.764 2.889-4.098 5.17-6.678 7.085-1.221.905-2.839 1.074-4.22.441-1.382-.634-2.309-1.971-2.419-3.487-.9-12.43-4.707-24.238-12.54-35.183-7.186 10.003-11.164 21.871-12.491 35.292-.152 1.536-1.14 2.862-2.569 3.447-1.428.584-3.063.331-4.248-.658-3.223-2.691-5.803-5.342-7.509-8.731-1.037 1.14-2.67 1.659-4.249 1.2-2.208-.643-3.479-2.957-2.837-5.165 1.044-3.585 4.046-6.714 5.205-9.033.865-1.728 2.804-2.636 4.685-2.192 1.88.444 3.209 2.123 3.209 4.056 0 2.868.49 5.109 1.371 7 2.59-13.224 7.894-24.871 16.294-34.706.799-.936 1.97-1.47 3.201-1.461 1.23.01 2.393.562 3.177 1.51 8.883 10.734 14.041 22.266 16.36 34.407.797-1.88 1.264-4.096 1.264-6.75 0-1.858 1.229-3.491 3.014-4.005 1.786-.513 3.695.217 4.682 1.791 5.563 8.87 10.141 28.805 7.641 46.545-2.635 18.699-12.797 34.835-36.171 34.835-4.765 0-6.292-4.858-2.383-7.584 3.908-2.726 6.422-5.613 7.658-8.784 1.402-3.601 1.099-7.489-.269-11.653-1.586-4.831-4.574-9.961-8.413-15.413-1.324-1.88-.872-4.482 1.008-5.806 1.881-1.324 4.482-.872 5.806 1.008 7.782 11.052 12.135 21.183 10.897 30.035-.367 2.621-1.191 5.167-2.559 7.619zm-45.078-47.755c-16.098 0-29.167 13.069-29.167 29.167 0 16.097 13.069 29.166 29.167 29.166 16.097 0 29.167-13.069 29.167-29.166 0-16.098-13.07-29.167-29.167-29.167zm0 8.333c11.498 0 20.833 9.335 20.833 20.834 0 11.498-9.335 20.833-20.833 20.833s-20.833-9.335-20.833-20.833c0-11.499 9.335-20.834 20.833-20.834zm0 29.167c2.3 0 4.167 1.867 4.167 4.167 0 2.299-1.867 4.166-4.167 4.166s-4.167-1.867-4.167-4.166c0-2.3 1.867-4.167 4.167-4.167zm-4.167-20.757v12.424c0 2.299 1.867 4.166 4.167 4.166s4.167-1.867 4.167-4.166v-12.424c0-2.3-1.867-4.167-4.167-4.167s-4.167 1.867-4.167 4.167z"/></svg>