<svg clip-rule="evenodd" fill-rule="evenodd" height="512" stroke-linejoin="round" stroke-miterlimit="2" viewBox="0 0 24 24" width="512" xmlns="http://www.w3.org/2000/svg"><g id="Icon"><path d="m17.75 17c0-3.174-2.576-5.75-5.75-5.75s-5.75 2.576-5.75 5.75 2.576 5.75 5.75 5.75 5.75-2.576 5.75-5.75zm-1.5 0c0 2.346-1.904 4.25-4.25 4.25s-4.25-1.904-4.25-4.25 1.904-4.25 4.25-4.25 4.25 1.904 4.25 4.25z"/><path d="m16.75 7v-5c0-.414-.336-.75-.75-.75h-8c-.414 0-.75.336-.75.75v5c0 .414.336.75.75.75s.75-.336.75-.75v-4.25h6.5v4.25c0 .414.336.75.75.75s.75-.336.75-.75z"/><path d="m19.295 9.689c.276-.118.455-.389.455-.689v-6c0-.966-.784-1.75-1.75-1.75h-12c-.966 0-1.75.784-1.75 1.75v6c0 .3.179.571.455.689l7 3c.188.081.402.081.59 0zm-1.045-1.184-6.25 2.679s-6.25-2.679-6.25-2.679v-5.505c0-.138.112-.25.25-.25h12c.138 0 .25.112.25.25z"/></g></svg>