<svg clip-rule="evenodd" fill-rule="evenodd" height="512" stroke-linejoin="round" stroke-miterlimit="2" viewBox="0 0 24 24" width="512" xmlns="http://www.w3.org/2000/svg"><g id="Icon"><path d="m21.75 8c0-.414-.336-.75-.75-.75h-18c-.414 0-.75.336-.75.75v11c0 .729.29 1.429.805 1.945.516.515 1.216.805 1.945.805h14c.729 0 1.429-.29 1.945-.805.515-.516.805-1.216.805-1.945 0-3.646 0-11 0-11zm-1.5.75v10.25c0 .332-.132.649-.366.884-.235.234-.552.366-.884.366h-14c-.332 0-.649-.132-.884-.366-.234-.235-.366-.552-.366-.884v-10.25z"/><path d="m22.75 4c0-.464-.184-.909-.513-1.237-.328-.329-.773-.513-1.237-.513-3.414 0-14.586 0-18 0-.464 0-.909.184-1.237.513-.329.328-.513.773-.513 1.237v3c0 .464.184.909.513 1.237.328.329.773.513 1.237.513h18c.464 0 .909-.184 1.237-.513.329-.328.513-.773.513-1.237zm-1.5 0v3c0 .066-.026.13-.073.177s-.111.073-.177.073h-18c-.066 0-.13-.026-.177-.073s-.073-.111-.073-.177v-3c0-.066.026-.13.073-.177s.111-.073.177-.073h18c.066 0 .13.026.177.073s.073.111.073.177z"/><path d="m9.5 12.75h5c.414 0 .75-.336.75-.75s-.336-.75-.75-.75h-5c-.414 0-.75.336-.75.75s.336.75.75.75z"/></g></svg>