<svg clip-rule="evenodd" fill-rule="evenodd" stroke-linejoin="round" stroke-miterlimit="1.414" viewBox="0 0 32 32" xmlns="http://www.w3.org/2000/svg" xmlns:serif="http://www.serif.com/"><path id="mute-off-speaker-volume" d="m0 0h32v32h-32z" fill="none"/><path d="m26.11 6.014c.489.076.868.492.89.994v20c-.029.675-.757 1.16-1.394.919l-8.669-3.715c-.07-.034-.089-.04-.154-.083-.661-.432-.488-1.72.429-1.829.159-.019.246-.027.513.073l7.275 3.118v-16.967l-2.606 1.117c-.073.028-.09.037-.166.055-.776.182-1.573-.845-1.029-1.573.096-.128.151-.196.407-.32l4-1.714c.123-.047.168-.098.504-.075zm-8.871 3.661 1.821-5.009c.169-.404.545-.667 1.012-.656.624.074 1.063.714.868 1.34l-8 22c-.032.075-.037.096-.079.167-.298.504-1.076.631-1.519.244-.301-.264-.403-.708-.282-1.095l1.565-4.302-.83-.356h-5.795s-.476-.047-.727-.314c-.147-.155-.241-.358-.266-.57-.006-.051-.005-.064-.007-.116v-8c.006-.189.024-.242.06-.342.126-.346.455-.608.824-.651.051-.006.064-.006.116-.007h5.795zm-3.93 10.806 2.993-8.229-3.302 1.415v3.341c-.007.238-.04.316-.106.449-.308.613-1.316.729-1.729.1-.075-.113-.126-.242-.15-.375-.01-.058-.013-.116-.015-.174v-3h-4v6h5c.002 0 .234.018.394.081z" fill-rule="nonzero"/></svg>