<svg clip-rule="evenodd" fill-rule="evenodd" height="512" stroke-linejoin="round" stroke-miterlimit="2" viewBox="0 0 24 24" width="512" xmlns="http://www.w3.org/2000/svg"><g id="Icon"><path d="m17.25 7.5c0 .414-.336.75-.75.75s-.75-.336-.75-.75v-3.5c0-.69-.56-1.25-1.25-1.25h-10.5c-.332 0-.649.132-.884.366-.234.235-.366.552-.366.884v7c0 .332.132.649.366.884.235.234.552.366.884.366h8.5c.414 0 .75.336.75.75s-.336.75-.75.75h-8.5c-.729 0-1.429-.29-1.945-.805-.515-.516-.805-1.216-.805-1.945v-7c0-.729.29-1.429.805-1.945.516-.515 1.216-.805 1.945-.805h10.5c1.519 0 2.75 1.231 2.75 2.75z"/><path d="m5.75 10c0 .414-.336.75-.75.75s-.75-.336-.75-.75v-3.502c0-1.242 1.006-2.248 2.248-2.248h.004c1.242 0 2.248 1.006 2.248 2.248v3.502c0 .414-.336.75-.75.75s-.75-.336-.75-.75v-3.502c0-.413-.335-.748-.748-.748h-.004c-.413 0-.748.335-.748.748z"/><path d="m9.75 10v-5c0-.414.336-.75.75-.75h1.5c.597 0 1.169.237 1.591.659s.659.994.659 1.591v2c0 .597-.237 1.169-.659 1.591s-.994.659-1.591.659h-1.5c-.414 0-.75-.336-.75-.75zm1.5-.75h.75c.199 0 .39-.079.53-.22.141-.14.22-.331.22-.53v-2c0-.199-.079-.39-.22-.53-.14-.141-.331-.22-.53-.22h-.75z"/><path d="m8 7.25c.414 0 .75.336.75.75s-.336.75-.75.75h-3c-.414 0-.75-.336-.75-.75s.336-.75.75-.75z"/><path d="m19.18 14.254c.929.045 1.811.433 2.472 1.094.702.703 1.097 1.657 1.096 2.651l-.001 1.271c0 .597-.14 1.185-.406 1.719l-.674 1.346c-.185.371-.636.521-1.006.336s-.52-.636-.335-1.006l.673-1.347c.163-.326.248-.685.248-1.049l.001-1.271c0-.596-.236-1.168-.657-1.59-.422-.421-.993-.658-1.589-.658h-.002c-.451 0-.747-.163-.956-.39-.235-.255-.366-.657-.366-1.166v-2.694c0-.199-.079-.39-.219-.53-.141-.141-.332-.22-.531-.22s-.389.079-.53.22c-.141.14-.22.331-.22.53v7c0 .311-.192.59-.483.701s-.621.03-.827-.203c0 0-.599-.674-1.349-1.491-.163-.177-.391-.28-.631-.285s-.472.088-.642.258l-.002.002c-.334.333-.337.872-.007 1.209l2.727 2.784c.29.296.285.771-.011 1.061-.295.289-.771.285-1.06-.011l-2.729-2.785c-.904-.925-.895-2.404.019-3.319l.002-.002c.459-.459 1.086-.711 1.735-.697s1.265.292 1.704.771c.018.02.036.039.054.059v-5.052c0-.597.237-1.169.659-1.591s.995-.659 1.591-.659c.597 0 1.169.237 1.591.659s.659.994.659 1.591v2.694c0 .019.001.039.002.06z"/></g></svg>