<svg clip-rule="evenodd" fill-rule="evenodd" height="512" stroke-linejoin="round" stroke-miterlimit="2" viewBox="0 0 24 24" width="512" xmlns="http://www.w3.org/2000/svg"><g id="Icon"><path d="m13.95 9c0 .464-.184.909-.513 1.237-.328.329-.773.513-1.237.513h-1.4c-.414 0-.75-.336-.75-.75s.336-.75.75-.75h1.4c.066 0 .13-.026.177-.073s.073-.111.073-.177-.026-.13-.073-.177-.111-.073-.177-.073h-.4c-.464 0-.909-.184-1.237-.513-.329-.328-.513-.773-.513-1.237s.184-.909.513-1.237c.328-.329.773-.513 1.237-.513h1.4c.414 0 .75.336.75.75s-.336.75-.75.75h-1.4c-.066 0-.13.026-.177.073s-.073.111-.073.177.026.13.073.177.111.073.177.073h.4c.464 0 .909.184 1.237.513.329.328.513.773.513 1.237z"/><path d="m12.75 6c0 .414-.336.75-.75.75s-.75-.336-.75-.75v-1c0-.414.336-.75.75-.75s.75.336.75.75z"/><path d="m12.75 11c0 .414-.336.75-.75.75s-.75-.336-.75-.75v-1c0-.414.336-.75.75-.75s.75.336.75.75z"/><path d="m12 1.25c3.725 0 6.75 3.025 6.75 6.75s-3.025 6.75-6.75 6.75-6.75-3.025-6.75-6.75 3.025-6.75 6.75-6.75zm0 1.5c-2.898 0-5.25 2.352-5.25 5.25s2.352 5.25 5.25 5.25 5.25-2.352 5.25-5.25-2.352-5.25-5.25-5.25z"/><path d="m9.25 17.75v-1.75c0-.414.336-.75.75-.75h4c.414 0 .75.336.75.75v1.75h.75c.303 0 .577.183.693.463s.052.603-.163.817l-3.5 3.5c-.293.293-.767.293-1.06 0l-3.5-3.5c-.215-.214-.279-.537-.163-.817s.39-.463.693-.463zm1.013 1.453c.816.816 1.737 1.736 1.737 1.736l1.737-1.736c-.285-.107-.487-.381-.487-.703v-1.75h-2.5v1.75c0 .322-.202.596-.487.703z"/></g></svg>