<svg clip-rule="evenodd" fill-rule="evenodd" height="512" stroke-linejoin="round" stroke-miterlimit="2" viewBox="0 0 24 24" width="512" xmlns="http://www.w3.org/2000/svg"><g id="Icon"><path d="m12 6.625c-4.036 0-7.25 2.804-7.25 6.167 0 1.365.599 2.474 1.54 3.545.822.934 1.916 1.847 3.013 2.943 1.017 1.017 2.026 3.055 2.026 3.055.127.254.387.415.671.415s.544-.161.671-.415c0 0 1.009-2.038 2.026-3.055 1.097-1.096 2.191-2.009 3.013-2.943.941-1.071 1.54-2.18 1.54-3.545 0-3.363-3.214-6.167-7.25-6.167zm0 1.5c3.14 0 5.75 2.05 5.75 4.667 0 .991-.483 1.777-1.167 2.554-.803.914-1.875 1.802-2.947 2.874-.598.598-1.198 1.505-1.636 2.239-.438-.734-1.038-1.641-1.636-2.239-1.072-1.072-2.144-1.96-2.947-2.874-.684-.777-1.167-1.563-1.167-2.554 0-2.617 2.61-4.667 5.75-4.667z"/><path d="m10.334 7.6c-.055-.35-.084-.719-.084-1.1 0-1.302.33-2.463.872-3.178.253-.334.54-.572.878-.572s.625.238.878.572c.542.715.872 1.876.872 3.178 0 .399-.032.786-.092 1.15-.066.409.211.795.62.862.408.067.794-.211.861-.619.072-.442.111-.909.111-1.393 0-1.679-.477-3.161-1.176-4.084-.575-.759-1.307-1.166-2.074-1.166s-1.499.407-2.074 1.166c-.699.923-1.176 2.405-1.176 4.084 0 .461.035.908.101 1.331.064.409.448.689.857.626.409-.064.689-.448.626-.857z"/><path d="m14.814 5.261c.882-.794 1.854-1.291 2.671-1.372.377-.038.714.007.934.227.239.239.274.61.217 1.025-.122.89-.71 1.944-1.631 2.864-.158.159-.321.307-.486.445-.317.265-.36.738-.095 1.056s.739.36 1.057.095c.198-.166.394-.344.585-.535 1.187-1.187 1.898-2.573 2.056-3.72.13-.943-.1-1.748-.642-2.291-.515-.514-1.265-.747-2.145-.659-1.07.107-2.368.71-3.525 1.75-.307.277-.332.752-.055 1.06.276.307.751.332 1.059.055z"/><path d="m9.984 3.967c-1.133-.957-2.379-1.499-3.405-1.579-.843-.065-1.561.169-2.059.667-.542.543-.772 1.348-.642 2.291.158 1.147.869 2.533 2.056 3.72.191.191.387.369.585.535.318.265.792.223 1.057-.095s.222-.791-.095-1.056c-.165-.138-.328-.286-.486-.445-.921-.92-1.509-1.974-1.631-2.864-.057-.415-.022-.786.217-1.025.21-.21.527-.26.883-.232.774.06 1.696.506 2.552 1.229.316.267.79.227 1.057-.089s.227-.79-.089-1.057z"/><path d="m17.5 14.25h-2.5c-.414 0-.75.336-.75.75s.336.75.75.75h2.5c.414 0 .75-.336.75-.75s-.336-.75-.75-.75z"/><path d="m6 11.75h2.5c.414 0 .75-.336.75-.75s-.336-.75-.75-.75h-2.5c-.414 0-.75.336-.75.75s.336.75.75.75z"/><path d="m12.5 14.25h-1.5c-.414 0-.75.336-.75.75s.336.75.75.75h1.5c.414 0 .75-.336.75-.75s-.336-.75-.75-.75z"/><path d="m11 11.75h1.5c.414 0 .75-.336.75-.75s-.336-.75-.75-.75h-1.5c-.414 0-.75.336-.75.75s.336.75.75.75z"/></g></svg>