<svg clip-rule="evenodd" fill-rule="evenodd" height="512" stroke-linejoin="round" stroke-miterlimit="2" viewBox="0 0 24 24" width="512" xmlns="http://www.w3.org/2000/svg"><g id="Icon"><path d="m18 5.25h3c.138 0 .25.112.25.25v3c0 .414.336.75.75.75s.75-.336.75-.75v-3c0-.967-.783-1.75-1.75-1.75h-3c-.414 0-.75.336-.75.75s.336.75.75.75z"/><path d="m6 3.75h-3c-.967 0-1.75.783-1.75 1.75v3c0 .414.336.75.75.75s.75-.336.75-.75v-3c0-.138.112-.25.25-.25h3c.414 0 .75-.336.75-.75s-.336-.75-.75-.75z"/><path d="m18 20.25h3c.967 0 1.75-.783 1.75-1.75v-3c0-.414-.336-.75-.75-.75s-.75.336-.75.75v3c0 .138-.112.25-.25.25h-3c-.414 0-.75.336-.75.75s.336.75.75.75z"/><path d="m6 18.75h-3c-.138 0-.25-.112-.25-.25v-3c0-.414-.336-.75-.75-.75s-.75.336-.75.75v3c0 .967.783 1.75 1.75 1.75h3c.414 0 .75-.336.75-.75s-.336-.75-.75-.75z"/><path d="m18.75 7.5v9c0 .414.336.75.75.75s.75-.336.75-.75v-9c0-.414-.336-.75-.75-.75s-.75.336-.75.75z"/><path d="m6.75 7.5v9c0 .414.336.75.75.75s.75-.336.75-.75v-9c0-.414-.336-.75-.75-.75s-.75.336-.75.75z"/><path d="m15.75 7.5v7c0 .414.336.75.75.75s.75-.336.75-.75v-7c0-.414-.336-.75-.75-.75s-.75.336-.75.75z"/><path d="m3.75 7.5v7c0 .414.336.75.75.75s.75-.336.75-.75v-7c0-.414-.336-.75-.75-.75s-.75.336-.75.75z"/><path d="m12.748 7.501.004 5.5c0 .413.336.749.75.749s.75-.337.75-.751l-.004-5.5c-.001-.413-.337-.749-.751-.749s-.75.337-.749.751z"/><path d="m9.746 7.501.004 5.5c0 .413.337.749.751.749.413 0 .749-.337.749-.751l-.004-5.5c0-.413-.337-.749-.751-.749s-.749.337-.749.751z"/><path d="m12.75 15.5v1c0 .414.336.75.75.75s.75-.336.75-.75v-1c0-.414-.336-.75-.75-.75s-.75.336-.75.75z"/><path d="m9.748 15.5v1c0 .414.336.75.75.75s.75-.336.75-.75v-1c0-.414-.336-.75-.75-.75s-.75.336-.75.75z"/></g></svg>