<svg clip-rule="evenodd" fill-rule="evenodd" height="512" stroke-linejoin="round" stroke-miterlimit="2" viewBox="0 0 24 24" width="512" xmlns="http://www.w3.org/2000/svg"><g id="Icon"><path d="m21.75 12c0-2.071-1.679-3.75-3.75-3.75h-12c-2.071 0-3.75 1.679-3.75 3.75v7c0 2.071 1.679 3.75 3.75 3.75h12c2.071 0 3.75-1.679 3.75-3.75zm-1.5 0v7c0 1.243-1.007 2.25-2.25 2.25h-12c-1.243 0-2.25-1.007-2.25-2.25v-7c0-1.243 1.007-2.25 2.25-2.25h12c1.243 0 2.25 1.007 2.25 2.25z"/><path d="m3 12.75h18c.414 0 .75-.336.75-.75s-.336-.75-.75-.75h-18c-.414 0-.75.336-.75.75s.336.75.75.75z"/><path d="m3 17.75h18c.414 0 .75-.336.75-.75s-.336-.75-.75-.75h-18c-.414 0-.75.336-.75.75s.336.75.75.75z"/><path d="m14.25 12v5c0 .414.336.75.75.75s.75-.336.75-.75v-5c0-.414-.336-.75-.75-.75s-.75.336-.75.75z"/><path d="m8.25 12v5c0 .414.336.75.75.75s.75-.336.75-.75v-5c0-.414-.336-.75-.75-.75s-.75.336-.75.75z"/><path d="m11 20.25h2c.414 0 .75-.336.75-.75s-.336-.75-.75-.75h-2c-.414 0-.75.336-.75.75s.336.75.75.75z"/><path d="m12 2.169c-1.242 0-2.25 1.008-2.25 2.25s1.008 2.25 2.25 2.25 2.25-1.008 2.25-2.25-1.008-2.25-2.25-2.25zm0 1.5c.414 0 .75.336.75.75s-.336.75-.75.75-.75-.336-.75-.75.336-.75.75-.75z"/><path d="m13.637 4.784 8.247-2.056c.402-.1.647-.508.547-.909-.1-.402-.508-.647-.909-.547l-8.248 2.057c-.402.1-.646.507-.546.909.1.401.507.646.909.546z"/><path d="m2.478 7.566 8.248-2.056c.402-.1.646-.508.546-.909-.1-.402-.507-.647-.909-.547l-8.247 2.057c-.402.1-.647.507-.547.909s.508.646.909.546z"/><path d="m11.25 6v3c0 .414.336.75.75.75s.75-.336.75-.75v-3c0-.414-.336-.75-.75-.75s-.75.336-.75.75z"/></g></svg>