<svg height="512" viewBox="0 0 32 32" width="512" xmlns="http://www.w3.org/2000/svg"><g id="custom_keyboard_button_wired" data-name="custom, keyboard, button, wired"><path d="m28 11h-5a1 1 0 0 0 0 2h5a1.0009 1.0009 0 0 1 1 1v12a1.0009 1.0009 0 0 1 -1 1h-24a1.0009 1.0009 0 0 1 -1-1v-12a1.0009 1.0009 0 0 1 1-1h14.333a1 1 0 0 0 0-2h-1.333v-1a3.0033 3.0033 0 0 0 -3-3 1.0009 1.0009 0 0 1 -1-1v-2a1 1 0 0 0 -2 0v2a3.0033 3.0033 0 0 0 3 3 1.0009 1.0009 0 0 1 1 1v1h-11a3.0033 3.0033 0 0 0 -3 3v12a3.0033 3.0033 0 0 0 3 3h24a3.0033 3.0033 0 0 0 3-3v-12a3.0033 3.0033 0 0 0 -3-3z"/><path d="m10 25h12a1 1 0 0 0 0-2h-12a1 1 0 0 0 0 2z"/><path d="m6 17h2a1 1 0 0 0 0-2h-2a1 1 0 0 0 0 2z"/><path d="m6 21h2a1 1 0 0 0 0-2h-2a1 1 0 0 0 0 2z"/><path d="m12 17h2a1 1 0 0 0 0-2h-2a1 1 0 0 0 0 2z"/><path d="m12 21h2a1 1 0 0 0 0-2h-2a1 1 0 0 0 0 2z"/><path d="m17 16a1 1 0 0 0 1 1h2a1 1 0 0 0 0-2h-2a1 1 0 0 0 -1 1z"/><path d="m20 21a1 1 0 0 0 0-2h-2a1 1 0 0 0 0 2z"/><path d="m24 17h2a1 1 0 0 0 0-2h-2a1 1 0 0 0 0 2z"/><path d="m24 21h2a1 1 0 0 0 0-2h-2a1 1 0 0 0 0 2z"/></g></svg>