<svg clip-rule="evenodd" fill-rule="evenodd" height="512" stroke-linejoin="round" stroke-miterlimit="2" viewBox="0 0 24 24" width="512" xmlns="http://www.w3.org/2000/svg"><g id="Icon"><path d="m20.5 14.5v-10c0-.414-.336-.75-.75-.75h-3.5c-.414 0-.75.336-.75.75v11.5c0 .414.336.75.75.75s.75-.336.75-.75v-10.75h2v9.25c0 .414.336.75.75.75s.75-.336.75-.75z"/><path d="m14.5 16v-7c0-.414-.336-.75-.75-.75h-3.5c-.414 0-.75.336-.75.75v6c0 .414.336.75.75.75s.75-.336.75-.75v-5.25h2v6.25c0 .414.336.75.75.75s.75-.336.75-.75z"/><path d="m8.5 15v-8c0-.414-.336-.75-.75-.75h-3.5c-.414 0-.75.336-.75.75v9.5c0 .414.336.75.75.75s.75-.336.75-.75v-8.75h2v7.25c0 .414.336.75.75.75s.75-.336.75-.75z"/><path d="m2.295 20.189 6.738-2.887s5.73 1.91 5.73 1.91c.174.058.364.05.532-.023l7-3c.381-.163.557-.604.394-.984-.163-.381-.604-.557-.984-.394l-6.738 2.887s-5.73-1.91-5.73-1.91c-.174-.058-.364-.05-.532.023l-7 3c-.381.163-.557.604-.394.984.163.381.604.557.984.394z"/></g></svg>