<svg clip-rule="evenodd" fill-rule="evenodd" height="512" stroke-linejoin="round" stroke-miterlimit="2" viewBox="0 0 24 24" width="512" xmlns="http://www.w3.org/2000/svg"><g id="Icon"><path d="m6.5 3.75c-2.347 0-4.25 1.903-4.25 4.25v11.5c0 .414.336.75.75.75h7c.414 0 .75-.336.75-.75v-11.5c0-2.347-1.903-4.25-4.25-4.25zm0 1.5c1.519 0 2.75 1.231 2.75 2.75v10.75h-5.5v-10.75c0-1.519 1.231-2.75 2.75-2.75z"/><path d="m22.75 9.5c0-1.519-1.231-2.75-2.75-2.75h-10c-.414 0-.75.336-.75.75v4c0 .414.336.75.75.75h10c1.519 0 2.75-1.231 2.75-2.75zm-1.5 0c0 .69-.56 1.25-1.25 1.25h-9.25v-2.5h9.25c.69 0 1.25.56 1.25 1.25z"/><path d="m11 18.75h-9c-.414 0-.75.336-.75.75s.336.75.75.75h9c.414 0 .75-.336.75-.75s-.336-.75-.75-.75z"/><circle cx="6.5" cy="8.25" r=".75"/><path d="m5.75 11v3c0 .414.336.75.75.75s.75-.336.75-.75v-3c0-.414-.336-.75-.75-.75s-.75.336-.75.75z"/><path d="m18.329 7.165-2 4c-.185.37-.035.821.336 1.006.37.185.821.035 1.006-.336l2-4c.185-.37.035-.821-.336-1.006-.37-.185-.821-.035-1.006.336z"/><path d="m14.329 7.165-2 4c-.185.37-.035.821.336 1.006.37.185.821.035 1.006-.336l2-4c.185-.37.035-.821-.336-1.006-.37-.185-.821-.035-1.006.336z"/></g></svg>