<svg height="512" viewBox="0 0 32 32" width="512" xmlns="http://www.w3.org/2000/svg"><g id="card_payment_transfer" fill-rule="evenodd" data-name="card, payment, transfer"><path d="m28.1211 7.8789a2.9794 2.9794 0 0 0 -2.1211-.8789h-20a2.9794 2.9794 0 0 0 -2.1211.8789 3.02 3.02 0 0 0 -.8789 2.1211v2a1 1 0 0 0 1 1h20a1 1 0 0 0 0-2h-19v-1a1 1 0 0 1 1-1h20a1 1 0 0 1 1 1v12a1 1 0 0 1 -1 1h-20a1 1 0 0 1 -1-1v-6a1 1 0 0 0 -2 0v6a3.0008 3.0008 0 0 0 3 3h20a3.0008 3.0008 0 0 0 3-3v-12a3.02 3.02 0 0 0 -.8789-2.1211z"/><path d="m21.48 20.323a2 2 0 1 0 0-2.6681 2 2 0 1 0 0 2.6681z"/></g></svg>