<svg clip-rule="evenodd" fill-rule="evenodd" stroke-linejoin="round" stroke-miterlimit="1.414" viewBox="0 0 32 32" xmlns="http://www.w3.org/2000/svg" xmlns:serif="http://www.serif.com/"><path id="ring-dunk-basketball-basket" d="m0 0h32v32h-32z" fill="none"/><path d="m5.188 10.899c-1.243-.388-2.22-1.608-2.187-2.947.038-1.523 1.364-2.897 2.963-2.927 6.695-.042 13.39-.042 20.085 0 1.837.034 3.386 2.02 2.84 3.858-.287.963-1.096 1.736-2.066 2.023l-3.843 15.372c-.248.849-1.715.983-1.946-.019-.032-.14-.048-.216.005-.467l1.69-6.76h-2.838l-.252 2.018c.135.022.197.054.293.106.74.407.565 1.845-.482 1.878h-.059l-.391 3.125c-.143.864-1.57 1.222-1.933.216-.049-.135-.074-.209-.052-.464l.359-2.877h-2.735l.359 2.877c.023.252-.002.33-.054.471-.233.632-1.192.86-1.678.327-.134-.147-.205-.247-.253-.55l-.391-3.125h-2.338l.69 2.758c.181.866-1.051 1.675-1.725.9-.095-.109-.144-.168-.216-.414zm12.687 8.133h-3.737l.25 2.001h3.236zm-5.753 0h-2.838l.5 2.001h2.588zm-4.839-8.004 1.501 6.003h3.088l-.251-2.001h-.617c-.594-.022-1.094-.587-.984-1.183.075-.408.426-.747.838-.808.065-.009.081-.008.146-.01h1.456c.038-.003.063-.002.084 0h6.081l.381-3.048c-.008-.415.077-.489.01-.078l-.01.078c0 .029.001.061.003.094.006.129.018.271.062.405-.044-.134-.056-.276-.062-.405-.026-.539.443-1.022.999-1.048 2.01 0 4.02.037 6.03-.001.85-.027 1.368-1.462.39-1.91-.127-.058-.265-.088-.404-.09-6.682-.042-13.366-.124-20.047 0-.852.026-1.373 1.467-.387 1.913.13.058.272.087.415.088h9.974c.775.037 1.293 1.036.756 1.655-.182.21-.33.325-.756.346zm16.447 4.002h-3.339l-.25 2.001h3.088zm-5.355 0h-4.737l.25 2.001h4.237zm7.668-4.003-.028.001.025-.001zm-20.071 0h.003-.007zm20.1 0h-.019.013zm-20.126 0h.004-.005zm20.154-.001h-.017.009zm-20.18 0h.002-.005zm20.209-.002-.017.001h.006zm-20.234.001h.003-.007zm20.265-.002-.02.001h.004zm-20.291.001h.002-.003zm20.327-.003-.027.001c.009 0 .018-.001.027-.001zm-20.353.001h.002-.006zm-.026-.002.004.001-.006-.001zm20.407-.002-.018.002.015-.001zm-6.444-.013c.037.005.075.01.115.014-.04-.004-.078-.009-.115-.014zm-13.989.013h.001-.003zm20.462-.002-.017.001h.011zm-20.487 0h.003-.007zm20.515-.003-.016.002.007-.001zm-20.541 0 .003.001-.004-.001zm20.57-.003-.017.002h.005zm-20.596.001h.002l-.005-.001zm20.629-.005-.022.003h.002zm-20.654.002h.004l-.007-.001zm20.687-.006-.02.003.018-.003zm-20.713.003v-.001zm-.025-.004h.003-.007zm20.766-.003-.016.003.011-.002zm-20.792-.001.004.001-.005-.001zm14.092-.007c.011.003.021.005.032.007-.016-.003-.033-.007-.049-.01zm6.728.004-.015.002.008-.001zm-20.845-.001.001.001-.004-.001zm20.873-.003-.015.002.005-.001zm-20.898-.001.003.001-.006-.001zm20.927-.004-.016.003.002-.001zm-20.953 0h.001zm20.99-.007-.026.005c.009-.002.018-.003.026-.005zm-21.015.002.002.001-.005-.001zm-.025-.005.003.001-.004-.001zm21.068-.002-.016.003.013-.003zm-21.093-.003h-.001zm21.12-.003-.014.003.009-.002zm-21.145-.002h.002l-.005-.001zm21.173-.004-.014.003.006-.001zm-21.198-.002v.001zm21.225-.004-.014.003h.004zm-21.25-.001h.001l-.003-.001zm14.136-.016c.015.005.03.01.045.016-.015-.006-.03-.011-.045-.016zm7.144.01-.017.004h.002zm-21.305 0h.002l-.003-.001zm21.341-.008-.016.003.014-.003zm.027-.007-.014.003.01-.002zm-21.418.002h.002-.003zm21.445-.01-.014.004.007-.002zm.027-.007-.014.004.005-.002zm-21.546-.004.001.001zm21.573-.004-.014.004h.002zm-7.412-.03.006.003-.006-.003-.002-.001zm-.044-.027c.007.005.015.009.022.014l-.011-.007zm-.08-.06c.007.006.014.012.022.018-.008-.006-.015-.012-.022-.018zm-.172-.233c.03.066.071.13.125.188-.054-.058-.095-.122-.125-.188zm-.025-.063c.004.011.008.021.012.032-.004-.011-.008-.021-.012-.032zm1.815.531-.25 2.001h3.588l.5-2.001zm-.884 0c-.032-.002-.063-.004-.093-.007.03.003.061.005.093.007zm-.357-.05c.007.002.013.003.02.005l-.016-.004zm-.156-.051c-.021-.009-.041-.018-.06-.028.023.012.048.023.074.033zm-.161-.087c-.009-.007-.018-.013-.026-.019.012.008.024.017.036.026z" fill-rule="nonzero"/></svg>