<svg clip-rule="evenodd" fill-rule="evenodd" height="512" stroke-linejoin="round" stroke-miterlimit="2" viewBox="0 0 24 24" width="512" xmlns="http://www.w3.org/2000/svg"><g id="Icon"><path d="m22.049 11.059c0-.464-.184-.909-.512-1.237-.329-.329-.774-.513-1.238-.513-3.782 0-17 0-17 0-.414 0-.75.336-.75.75v10c0 1.519 1.231 2.75 2.75 2.75h14c1.519 0 2.75-1.231 2.75-2.75zm-1.5 0v9c0 .69-.56 1.25-1.25 1.25h-14c-.69 0-1.25-.56-1.25-1.25v-9.25h16.25c.066 0 .13.026.177.073s.073.111.073.177z"/><path d="m20.966 2.613c-.087-.456-.352-.859-.736-1.12-.384-.26-.855-.358-1.311-.271-2.817.538-10.959 2.093-14.734 2.814-.716.137-1.349.553-1.759 1.156s-.563 1.345-.426 2.061c.261 1.367.562 2.947.562 2.947.078.407.471.673.878.596 0 0 14.334-2.738 17.189-3.283.326-.062.613-.251.8-.526.186-.274.256-.611.193-.936zm-.864 3.473-16.207 3.096s-.422-2.21-.422-2.21c-.062-.326.008-.663.194-.937.186-.275.474-.464.799-.526l14.734-2.814c.065-.012.133.002.187.039.055.037.093.095.106.16z"/><path d="m6.95 3.909-1.714 5.417c-.125.395.094.817.489.942.395.124.816-.095.941-.489l1.714-5.418c.125-.395-.094-.816-.488-.941-.395-.125-.817.094-.942.489z"/><path d="m11.812 2.98-1.714 5.418c-.125.394.094.816.489.941s.817-.094.941-.489l1.715-5.418c.124-.394-.095-.816-.489-.941-.395-.125-.817.094-.942.489z"/><path d="m16.675 2.051-1.715 5.418c-.124.395.095.817.489.941.395.125.817-.094.942-.488l1.714-5.418c.125-.395-.095-.817-.489-.941-.395-.125-.817.094-.941.488z"/><path d="m10.557 12.809-.036.001h-.01l-.026.002-.012.001-.026.003c-.072.01-.14.03-.204.059l-.019.008-.015.008-.017.009-.015.008-.017.01-.014.008-.016.011-.014.01-.016.012c-.057.042-.107.092-.151.15l-.015.021-.007.01-.014.022-.005.008-.018.032-.017.032-.015.033-.013.034-.012.035-.01.036-.008.034-.007.036-.005.037-.003.036-.001.036v.008 5c0 .266.141.512.37.646.229.135.512.139.744.01l4.5-2.5c.238-.133.386-.384.386-.656s-.148-.523-.386-.656l-4.5-2.5-.006-.003-.033-.017-.033-.015-.034-.013-.035-.012-.036-.01-.034-.008-.036-.007-.036-.005-.037-.003zm.742 2.025v2.45s2.206-1.225 2.206-1.225z"/></g></svg>