<svg clip-rule="evenodd" fill-rule="evenodd" height="512" stroke-linejoin="round" stroke-miterlimit="2" viewBox="0 0 24 24" width="512" xmlns="http://www.w3.org/2000/svg"><g id="Icon"><path d="m20.25 13.5c0-.966-.783-1.75-1.75-1.75h-15.5c-.967 0-1.75.784-1.75 1.75v7c0 .966.783 1.75 1.75 1.75h15.5c.967 0 1.75-.784 1.75-1.75zm-1.5 0v7c0 .138-.112.25-.25.25h-15.5c-.138 0-.25-.112-.25-.25v-7c0-.138.112-.25.25-.25h15.5c.138 0 .25.112.25.25z"/><path d="m22.75 18v-2c0-.967-.784-1.75-1.75-1.75-.696 0-1.5 0-1.5 0-.414 0-.75.336-.75.75v4c0 .414.336.75.75.75h1.5c.966 0 1.75-.783 1.75-1.75zm-1.5-2v2c0 .138-.112.25-.25.25h-.75v-2.5h.75c.138 0 .25.112.25.25z"/><path d="m4.25 15.5v3c0 .414.336.75.75.75s.75-.336.75-.75v-3c0-.414-.336-.75-.75-.75s-.75.336-.75.75z"/><path d="m7.25 15.5v3c0 .414.336.75.75.75s.75-.336.75-.75v-3c0-.414-.336-.75-.75-.75s-.75.336-.75.75z"/><path d="m10.25 15.5v3c0 .414.336.75.75.75s.75-.336.75-.75v-3c0-.414-.336-.75-.75-.75s-.75.336-.75.75z"/><path d="m13.25 15.5v3c0 .414.336.75.75.75s.75-.336.75-.75v-3c0-.414-.336-.75-.75-.75s-.75.336-.75.75z"/><path d="m11.116 8.468c.488-.488 1.28-.488 1.768 0s.488 1.28 0 1.768-1.28.488-1.768 0-.488-1.28 0-1.768z"/><path d="m9.267 7.472c1.508-1.508 3.958-1.508 5.466 0 .293.293.768.293 1.061 0 .293-.292.293-.768 0-1.06-2.094-2.094-5.494-2.094-7.588 0-.293.292-.293.768 0 1.06.293.293.768.293 1.061 0z"/><path d="m6.873 5.372c2.83-2.829 7.424-2.829 10.254 0 .292.293.767.293 1.06 0s.293-.768 0-1.061c-3.415-3.415-8.959-3.415-12.374 0-.293.293-.293.768 0 1.061s.768.293 1.06 0z"/></g></svg>