<svg clip-rule="evenodd" fill-rule="evenodd" height="512" stroke-linejoin="round" stroke-miterlimit="2" viewBox="0 0 24 24" width="512" xmlns="http://www.w3.org/2000/svg"><g id="Icon"><path d="m12.75 5v-1c0-.69.56-1.25 1.25-1.25.414 0 .75-.336.75-.75s-.336-.75-.75-.75c-1.518 0-2.75 1.232-2.75 2.75v1c0 .414.336.75.75.75s.75-.336.75-.75z"/><path d="m15.5 4.25c-1.271 0-2.462.33-3.5.905-1.037-.575-2.229-.905-3.5-.905-4.004 0-7.25 3.246-7.25 7.25 0 2.27 1.094 5.804 2.794 8.264 1.235 1.787 2.807 2.986 4.456 2.986 1.271 0 2.462-.33 3.5-.905 1.037.575 2.229.905 3.5.905 1.649 0 3.221-1.199 4.456-2.986 1.7-2.46 2.794-5.994 2.794-8.264 0-4.004-3.246-7.25-7.25-7.25zm0 1.5c3.176 0 5.75 2.574 5.75 5.75 0 2.038-1.002 5.203-2.528 7.412-.917 1.326-1.998 2.338-3.222 2.338-1.141 0-2.201-.336-3.095-.909-.247-.159-.563-.159-.81 0-.894.573-1.954.909-3.095.909-1.224 0-2.305-1.012-3.222-2.338-1.526-2.209-2.528-5.374-2.528-7.412 0-3.176 2.574-5.75 5.75-5.75 1.141 0 2.201.336 3.095.909.247.159.563.159.81 0 .894-.573 1.954-.909 3.095-.909z"/></g></svg>