<svg clip-rule="evenodd" fill-rule="evenodd" stroke-linejoin="round" stroke-miterlimit="1.414" viewBox="0 0 32 32" xmlns="http://www.w3.org/2000/svg" xmlns:serif="http://www.serif.com/"><path id="cart-shop-buy-retail" d="m0 0h32v32h-32z" fill="none"/><g id="cart-shop-buy-retail1"><path d="m24.042 23.015c1.383.026 2.671 1.097 2.917 2.472.239 1.338-.557 2.793-1.821 3.31-1.396.571-3.178-.105-3.84-1.478-.685-1.421-.019-3.343 1.436-4.023.385-.18.808-.273 1.231-.281zm-13.492-4.003-5.254-14.011h-1.308s-.679-.078-.91-.585c-.25-.546.124-1.283.721-1.398.083-.016.105-.014.189-.018h2.002c.031.001.062.003.093.004.082.012.103.012.183.035.299.086.536.319.661.61l5.761 15.363h12.469l1.668-10.008h-14.831l-.095-.004c-.084-.012-.105-.012-.187-.036-.743-.218-.961-1.445-.176-1.85.14-.072.297-.103.458-.111h16.012c.587.028 1.059.551.987 1.165l-2.001 12.009c-.101.469-.507.814-.987.836 0 0-15.354-.004-16.025 0-.756.015-1.292 1.066-.721 1.682.187.201.457.318.737.32h8.003c.773.024 1.309 1.068.729 1.686-.158.168-.375.279-.604.307-.055.007-.069.007-.125.008h-3.178c.056.152.1.309.129.471.239 1.338-.556 2.793-1.821 3.31-1.395.571-3.178-.105-3.84-1.478-.361-.749-.347-1.637-.04-2.41-1.207-.343-2.191-1.468-2.255-2.746-.079-1.602 1.298-3.14 2.996-3.151zm1.431 6.004c-.766.015-1.312 1.105-.685 1.717.515.503 1.579.215 1.689-.575.08-.567-.376-1.146-1.004-1.142zm12.009 0c-.766.015-1.312 1.105-.686 1.717.515.502 1.58.215 1.69-.575.08-.567-.376-1.146-1.004-1.142z" fill-rule="nonzero"/></g></svg>