<svg clip-rule="evenodd" fill-rule="evenodd" height="512" stroke-linejoin="round" stroke-miterlimit="2" viewBox="0 0 24 24" width="512" xmlns="http://www.w3.org/2000/svg"><g id="Icon"><path d="m3.03 17.53s9.401-9.4 13.069-13.068c.652-.653 1.637-.841 2.484-.474l.022.009c.794.343 1.32 1.111 1.355 1.974.051 1.924-.234 5-2.362 7.297-1.425 1.538-3.673 2.706-7.158 2.984-.412.033-.721.395-.688.808.033.412.395.721.808.688 3.974-.318 6.514-1.706 8.139-3.46 2.443-2.639 2.82-6.155 2.761-8.361 0-.003 0-.006-.001-.009-.055-1.443-.934-2.725-2.258-3.297-.007-.004-.015-.007-.022-.01-1.412-.611-3.053-.298-4.141.79-3.668 3.668-13.068 13.069-13.068 13.069-.293.292-.293.768 0 1.06.292.293.768.293 1.06 0z"/><path d="m2.231 17.7s2.284.879 4.919.826c1.827-.038 3.808-.524 5.363-1.978 3.931-3.681 2.292-8.708 1.036-10.059-.281-.303-.756-.32-1.06-.038-.303.281-.32.756-.038 1.06.993 1.068 2.147 5.03-.964 7.941-1.262 1.182-2.884 1.544-4.367 1.574-2.331.048-4.351-.726-4.351-.726-.387-.149-.821.045-.969.431-.149.387.045.821.431.969z"/><path d="m10.283 8.721s.615 1.989-.548 3.673c-.825 1.194-2.519 2.176-5.777 2.357-.413.023-.73.377-.707.791.023.413.377.73.791.707 3.942-.219 5.928-1.557 6.927-3.003 1.573-2.276.748-4.967.748-4.967-.122-.395-.542-.618-.938-.496-.395.122-.618.542-.496.938z"/><path d="m1.669 20.673-.001-.001.273.137c1.313.656 2.887.487 4.03-.433 1.135-.915 2.499-2.014 2.499-2.014.323-.26.374-.732.114-1.054-.26-.323-.732-.374-1.054-.114 0 0-1.365 1.099-2.5 2.013-.475.383-1.075.549-1.661.484l1.383-1.383c.293-.292.293-.768 0-1.06-.292-.293-.768-.293-1.06 0l-2.222 2.222c-.215.214-.279.537-.163.817.071.172.202.307.362.386z"/><path d="m20.63 7.255c-.374.042-.665.36-.665.745 0 .414.337.75.75.75h1.285c.274 0 .527-.15.658-.39.132-.241.121-.535-.027-.765l-1.284-2c-.224-.349-.689-.45-1.037-.226s-.449.688-.226 1.036z"/><circle cx="17.75" cy="6" r=".75"/><path d="m10.25 17v4c0 .414.336.75.75.75s.75-.336.75-.75v-4c0-.414-.336-.75-.75-.75s-.75.336-.75.75z"/><path d="m13.25 16.5v4.5c0 .414.336.75.75.75s.75-.336.75-.75v-4.5c0-.414-.336-.75-.75-.75s-.75.336-.75.75z"/><path d="m16 20.25h-7c-.414 0-.75.336-.75.75s.336.75.75.75h7c.414 0 .75-.336.75-.75s-.336-.75-.75-.75z"/></g></svg>