<svg clip-rule="evenodd" fill-rule="evenodd" height="512" stroke-linejoin="round" stroke-miterlimit="2" viewBox="0 0 24 24" width="512" xmlns="http://www.w3.org/2000/svg"><g id="Icon"><path d="m20 21.75c.729 0 1.429-.29 1.945-.805.515-.516.805-1.216.805-1.945 0-3.463 0-10.537 0-14 0-.729-.29-1.429-.805-1.945-.516-.515-1.216-.805-1.945-.805-3.832 0-12.168 0-16 0-.729 0-1.429.29-1.945.805-.515.516-.805 1.216-.805 1.945v14c0 .729.29 1.429.805 1.945.516.515 1.216.805 1.945.805zm0-1.5h-16c-.332 0-.649-.132-.884-.366-.234-.235-.366-.552-.366-.884v-14c0-.332.132-.649.366-.884.235-.234.552-.366.884-.366h16c.332 0 .649.132.884.366.234.235.366.552.366.884v14c0 .332-.132.649-.366.884-.235.234-.552.366-.884.366z"/><path d="m2 8.75h20c.414 0 .75-.336.75-.75s-.336-.75-.75-.75h-20c-.414 0-.75.336-.75.75s.336.75.75.75z"/><path d="m8.5 6.25h1c.414 0 .75-.336.75-.75s-.336-.75-.75-.75h-1c-.414 0-.75.336-.75.75s.336.75.75.75z"/><path d="m5 6.25h1c.414 0 .75-.336.75-.75s-.336-.75-.75-.75h-1c-.414 0-.75.336-.75.75s.336.75.75.75z"/><path d="m13.5 11c0-.227-.103-.443-.281-.585-.177-.142-.41-.196-.632-.147l-4.5 1c-.343.076-.587.38-.587.732v4c0 .352.244.656.587.732l4.5 1c.222.049.455-.005.632-.147.178-.142.281-.358.281-.585zm-1.5.935v4.13s-3-.667-3-.667v-2.796z"/><path d="m9 12c0-.414-.336-.75-.75-.75h-2c-.967 0-1.75.784-1.75 1.75v2c0 .966.783 1.75 1.75 1.75h2c.414 0 .75-.336.75-.75zm-1.5.75v2.5h-1.25c-.138 0-.25-.112-.25-.25v-2c0-.138.112-.25.25-.25z"/><path d="m12 10.5v7c0 .414.336.75.75.75s.75-.336.75-.75v-7c0-.414-.336-.75-.75-.75s-.75.336-.75.75z"/><path d="m7.5 16v2.5c0 .414.336.75.75.75s.75-.336.75-.75v-2.5c0-.414-.336-.75-.75-.75s-.75.336-.75.75z"/><path d="m16.861 11.577c.696.578 1.139 1.449 1.139 2.423s-.443 1.845-1.139 2.423c-.318.265-.361.738-.097 1.056.265.319.738.362 1.056.098 1.027-.853 1.68-2.14 1.68-3.577s-.653-2.724-1.68-3.577c-.318-.264-.791-.221-1.056.098-.264.318-.221.791.097 1.056z"/><path d="m14.888 13.077c.265.22.434.552.434.923s-.169.703-.434.923c-.318.265-.362.738-.097 1.056.264.319.738.362 1.056.098.596-.496.975-1.242.975-2.077s-.379-1.581-.975-2.077c-.318-.264-.792-.221-1.056.098-.265.318-.221.791.097 1.056z"/></g></svg>