<svg clip-rule="evenodd" fill-rule="evenodd" height="512" stroke-linejoin="round" stroke-miterlimit="2" viewBox="0 0 24 24" width="512" xmlns="http://www.w3.org/2000/svg"><g id="Icon"><path d="m22.75 10v-4c0-.862-.342-1.689-.952-2.298-.609-.61-1.436-.952-2.298-.952h-15c-.862 0-1.689.342-2.298.952-.61.609-.952 1.436-.952 2.298v13.5c0 1.795 1.455 3.25 3.25 3.25h5.5c.414 0 .75-.336.75-.75s-.336-.75-.75-.75h-5.5c-.967 0-1.75-.784-1.75-1.75 0-3.537 0-9.963 0-13.5 0-.464.184-.909.513-1.237.328-.329.773-.513 1.237-.513h15c.464 0 .909.184 1.237.513.329.328.513.773.513 1.237v4c0 .414.336.75.75.75s.75-.336.75-.75z"/><path d="m16.25 2v2.5c0 .414.336.75.75.75s.75-.336.75-.75v-2.5c0-.414-.336-.75-.75-.75s-.75.336-.75.75z"/><path d="m6.25 2v2.5c0 .414.336.75.75.75s.75-.336.75-.75v-2.5c0-.414-.336-.75-.75-.75s-.75.336-.75.75z"/><path d="m2 9.25h20c.414 0 .75-.336.75-.75s-.336-.75-.75-.75h-20c-.414 0-.75.336-.75.75s.336.75.75.75z"/><path d="m17 11.25c-3.174 0-5.75 2.576-5.75 5.75s2.576 5.75 5.75 5.75 5.75-2.576 5.75-5.75-2.576-5.75-5.75-5.75zm0 1.5c2.346 0 4.25 1.904 4.25 4.25s-1.904 4.25-4.25 4.25-4.25-1.904-4.25-4.25 1.904-4.25 4.25-4.25z"/><path d="m17 11.25c-.534 0-1.069.275-1.513.85-.709.921-1.237 2.765-1.237 4.9s.528 3.979 1.237 4.9c.444.575.979.85 1.513.85s1.069-.275 1.513-.85c.709-.921 1.237-2.765 1.237-4.9s-.528-3.979-1.237-4.9c-.444-.575-.979-.85-1.513-.85zm0 1.5c.082 0 .144.068.216.14.111.113.211.26.306.434.452.829.728 2.169.728 3.676s-.276 2.847-.728 3.676c-.095.174-.195.321-.306.434-.072.072-.134.14-.216.14s-.144-.068-.216-.14c-.111-.113-.211-.26-.306-.434-.452-.829-.728-2.169-.728-3.676s.276-2.847.728-3.676c.095-.174.195-.321.306-.434.072-.072.134-.14.216-.14z"/><path d="m22.001 16.255-10-.01c-.414 0-.751.335-.751.749s.335.751.749.751l10 .01c.414 0 .751-.335.751-.749s-.335-.751-.749-.751z"/></g></svg>