<svg clip-rule="evenodd" fill-rule="evenodd" height="512" stroke-linejoin="round" stroke-miterlimit="2" viewBox="0 0 24 24" width="512" xmlns="http://www.w3.org/2000/svg"><g id="Icon"><path d="m12 1.25c-1.436 0-2.48.452-3.227 1.178-1.064 1.035-1.523 2.689-1.523 4.572s.459 3.537 1.523 4.572c.747.726 1.791 1.178 3.227 1.178s2.48-.452 3.227-1.178c1.064-1.035 1.523-2.689 1.523-4.572s-.459-3.537-1.523-4.572c-.747-.726-1.791-1.178-3.227-1.178zm0 1.5c.964 0 1.68.265 2.181.753.808.785 1.069 2.068 1.069 3.497s-.261 2.712-1.069 3.497c-.501.488-1.217.753-2.181.753s-1.68-.265-2.181-.753c-.808-.785-1.069-2.068-1.069-3.497s.261-2.712 1.069-3.497c.501-.488 1.217-.753 2.181-.753z"/><path d="m15.195 13.908s1.753.779 2.938 1.305c.411.183.692.571.736 1.018l.243 2.428c.055.547-.254 1.066-.761 1.278-4.236 1.703-8.465 1.707-12.695-.015-.5-.209-.805-.72-.751-1.26 0-.006.001-.011.001-.017.06-.764.153-1.695.225-2.414.044-.447.325-.835.736-1.018 1.185-.526 2.938-1.305 2.938-1.305.378-.169.548-.612.38-.99-.168-.379-.611-.549-.99-.381 0 0-1.752.779-2.937 1.306-.903.401-1.522 1.256-1.62 2.239-.073.727-.167 1.667-.227 2.441-.115 1.194.562 2.324 1.671 2.785.001.001.003.001.005.002 4.607 1.876 9.215 1.874 13.829.017.002-.001.005-.002.008-.003 1.119-.466 1.802-1.608 1.681-2.814-.077-.768-.171-1.705-.243-2.428-.098-.983-.717-1.838-1.62-2.239-1.185-.527-2.937-1.306-2.937-1.306-.379-.168-.822.002-.99.381-.168.378.002.821.38.99z"/></g></svg>