<svg clip-rule="evenodd" fill-rule="evenodd" height="512" stroke-linejoin="round" stroke-miterlimit="2" viewBox="0 0 24 24" width="512" xmlns="http://www.w3.org/2000/svg"><g id="Icon"><path d="m16.689 2.75 4.561 4.561v12.689c0 .332-.132.649-.366.884-.235.234-.552.366-.884.366h-12.5c-.414 0-.75-.336-.75-.75s-.336-.75-.75-.75-.75.336-.75.75c0 1.243 1.007 2.25 2.25 2.25h12.5c.729 0 1.429-.29 1.945-.805.515-.516.805-1.216.805-1.945 0-3.716 0-11.432 0-12.793 0-.331-.132-.649-.366-.884-.731-.731-3.976-3.976-4.707-4.707-.235-.234-.553-.366-.884-.366h-8.793c-.729 0-1.429.29-1.945.805-.515.516-.805 1.216-.805 1.945v4c0 .414.336.75.75.75s.75-.336.75-.75v-4c0-.332.132-.649.366-.884.235-.234.552-.366.884-.366z"/><path d="m16.25 2v5c0 .414.336.75.75.75h5c.414 0 .75-.336.75-.75s-.336-.75-.75-.75h-4.25v-4.25c0-.414-.336-.75-.75-.75s-.75.336-.75.75z"/><path d="m8.875 10.136c-2.27-1.311-5.178-.532-6.489 1.738-1.31 2.271-.531 5.178 1.739 6.489s5.178.532 6.489-1.739c1.31-2.27.531-5.178-1.739-6.488zm-.75 1.299c1.553.897 2.086 2.886 1.19 4.439-.897 1.554-2.887 2.087-4.44 1.19s-2.087-2.886-1.19-4.44c.897-1.553 2.887-2.086 4.44-1.189z"/><path d="m3.85 17.338-2.474 4.287c-.207.358-.084.818.274 1.025.359.206.818.083 1.025-.275l2.474-4.287c.207-.358.084-.817-.274-1.024-.359-.207-.818-.084-1.025.274z"/><path d="m9 6.75h5c.414 0 .75-.336.75-.75s-.336-.75-.75-.75h-5c-.414 0-.75.336-.75.75s.336.75.75.75z"/><path d="m12 10.75h7c.414 0 .75-.336.75-.75s-.336-.75-.75-.75h-7c-.414 0-.75.336-.75.75s.336.75.75.75z"/><path d="m13 14.75h6c.414 0 .75-.336.75-.75s-.336-.75-.75-.75h-6c-.414 0-.75.336-.75.75s.336.75.75.75z"/><path d="m12 18.75h7c.414 0 .75-.336.75-.75s-.336-.75-.75-.75h-7c-.414 0-.75.336-.75.75s.336.75.75.75z"/></g></svg>