<svg viewBox="0 0 32 32" xmlns="http://www.w3.org/2000/svg"><g id="ask_fm_owl_media_social" data-name="ask, fm, owl, media, social"><path d="m26.367 15.0883-1.0311-8.3022a2.2394 2.2394 0 0 0 -4.04-1.0068l-.3809.53a1 1 0 0 0 1.625 1.166l.3819-.5313a.24.24 0 0 1 .4306.0977l.47 3.7868a13.1861 13.1861 0 0 0 -6.695-2.8054 14.1484 14.1484 0 0 0 -1.9157-.06l-1.1981-2.9953a2.5475 2.5475 0 0 0 -2.3937-1.5948 2.52 2.52 0 0 0 -2.3436 1.6651l-2.2479 6.1484c-.0677.1643-.2279.6389-.231.6483a34.2441 34.2441 0 0 0 -.8775 3.9191 7.6587 7.6587 0 0 0 -.3564 4.64 3.576 3.576 0 0 0 1.2041 3.1015 3.5642 3.5642 0 0 0 3.1338 2.8936 3.5117 3.5117 0 0 0 3.5127 1.583 2.671 2.671 0 0 0 1.7041.6445 2.9991 2.9991 0 0 0 1.4961-.4336 3.3556 3.3556 0 0 0 3.8232-1.0039 3.0893 3.0893 0 0 0 2.1738-1.1318 2.6763 2.6763 0 0 0 1.8155-1.418 2.8817 2.8817 0 0 0 .9873-2.0918 20.2453 20.2453 0 0 0 1.0146-6.5244c.0031-.2469-.0565-.8871-.0618-.9247zm-2.8748 6.8756a.9871.9871 0 0 0 -.0791.4531.9294.9294 0 0 1 -.4395.8271 1.0044 1.0044 0 0 0 -.2939.3995c-.0908.2265-.25.4443-.791.5048a1.0019 1.0019 0 0 0 -.7842.5489c-.1152.2324-.3154.4824-1.2315.5175a.9984.9984 0 0 0 -.7968.4483c-.3789.5752-.9112 1.0273-2.208.4853a1 1 0 0 0 -.99.127c-.6914.5234-1.0136.3945-1.4316-.08a1.0015 1.0015 0 0 0 -1.1084-.2715c-.3506.1348-1.0859.419-2.0772-1.0683a1.0106 1.0106 0 0 0 -.8505-.4444c-.751.0264-1.4258-.1894-1.794-1.748a1.0031 1.0031 0 0 0 -.45-.6231c-.1875-.1142-.6846-.42-.5967-1.7041a.9933.9933 0 0 0 -.05-.3857 5.7782 5.7782 0 0 1 .3174-3.6221 1.0039 1.0039 0 0 0 .043-.167 33.05 33.05 0 0 1 .8239-3.73l2.4515-6.7062a.5172.5172 0 0 1 .4944-.352.5091.5091 0 0 1 .5059.337l.9768 2.4414a15.457 15.457 0 0 0 -1.6145.34 1 1 0 1 0 .5273 1.93 13.3365 13.3365 0 0 1 4.8613-.4092c2.8657.3182 6.9984 2.21 7.4756 5.3238l.0041.0334a3.9457 3.9457 0 0 1 .0418.6184 17.631 17.631 0 0 1 -.9361 5.9761z"/><path d="m19.5859 12.2773c-1.6386.1036-2.8154 1.8809-2.6787 4.0469.1338 2.1 1.6676 3.6768 3.166 3.6768a2.6744 2.6744 0 0 0 2.1094-1.418 4.6727 4.6727 0 0 0 .57-2.6279c-.1354-2.1651-1.5133-3.7803-3.1667-3.6778zm.8692 5.2969a.7577.7577 0 0 1 -.5078.4307c-.37.0117-.9727-.6865-1.044-1.8067-.07-1.122.4405-1.9013.8086-1.9248l.0176-.0009c.37 0 .958.705 1.0273 1.8076a2.7011 2.7011 0 0 1 -.3017 1.4941z"/><path d="m15.3926 16.5107c.832-2.0029.2969-4.0664-1.22-4.6972a2.7311 2.7311 0 0 0 -2.5176.3418 4.674 4.674 0 0 0 -1.6719 2.1064c-.832 2.0039-.2969 4.0674 1.2187 4.6983a2.3572 2.3572 0 0 0 .9053.18 3.8684 3.8684 0 0 0 3.2842-2.6289zm-1.8467-.7675c-.4326 1.0381-1.2324 1.5058-1.5762 1.37-.3408-.1426-.57-1.0459-.14-2.084a2.7083 2.7083 0 0 1 .93-1.207.7492.7492 0 0 1 .6455-.1631c.3409.1427.5714 1.046.1407 2.0841z"/><path d="m16.06 17.4131a.9925.9925 0 0 0 -1.11.876l-.19 1.62a1.1152 1.1152 0 0 0 .9941 1.1172 1 1 0 0 0 .9922-.8828l.19-1.62a1 1 0 0 0 -.8763-1.1104z"/></g></svg>