<svg clip-rule="evenodd" fill-rule="evenodd" height="512" stroke-linejoin="round" stroke-miterlimit="2" viewBox="0 0 24 24" width="512" xmlns="http://www.w3.org/2000/svg"><g id="Icon"><path d="m20.5 15.75c1.243 0 2.25-1.006 2.25-2.25s-1.007-2.25-2.25-2.25h-17c-1.244 0-2.25 1.006-2.25 2.25s1.006 2.25 2.25 2.25zm0-1.5h-17c-.415 0-.75-.335-.75-.75s.335-.75.75-.75h17c.414 0 .75.335.75.75s-.336.75-.75.75z"/><path d="m21.671 15.335c.116-.232.104-.508-.033-.729s-.378-.356-.638-.356h-18c-.26 0-.501.135-.638.356s-.149.497-.033.729l.632 1.264c.19.38.289.799.289 1.224v1.444c0 1.923 1.56 3.483 3.483 3.483h10.534c1.923 0 3.483-1.56 3.483-3.483v-1.444c0-.425.099-.844.289-1.224 0 0 .632-1.264.632-1.264zm-1.885.415-.089.179c-.294.588-.447 1.237-.447 1.894v1.444c0 1.095-.888 1.983-1.983 1.983h-10.534c-1.095 0-1.983-.888-1.983-1.983v-1.444c0-.657-.153-1.306-.447-1.894 0 0-.09-.179-.09-.179z"/><path d="m12 1.25c-5.385 0-9.75 4.365-9.75 9.75v1c0 .414.336.75.75.75h18c.414 0 .75-.336.75-.75v-1c0-5.385-4.365-9.75-9.75-9.75zm0 1.5c4.557 0 8.25 3.693 8.25 8.25v.25h-16.5v-.25c0-4.557 3.693-8.25 8.25-8.25z"/><path d="m4 19.25h2c.414 0 .75-.336.75-.75s-.336-.75-.75-.75h-2c-.414 0-.75.336-.75.75s.336.75.75.75z"/><path d="m9 19.25h2c.414 0 .75-.336.75-.75s-.336-.75-.75-.75h-2c-.414 0-.75.336-.75.75s.336.75.75.75z"/><path d="m14 19.25h2c.414 0 .75-.336.75-.75s-.336-.75-.75-.75h-2c-.414 0-.75.336-.75.75s.336.75.75.75z"/><path d="m19 19.25h1c.414 0 .75-.336.75-.75s-.336-.75-.75-.75h-1c-.414 0-.75.336-.75.75s.336.75.75.75z"/><path d="m12.5 8.25c-2.071 0-3.75 1.679-3.75 3.75 0 .414.336.75.75.75h6c.414 0 .75-.336.75-.75 0-2.071-1.679-3.75-3.75-3.75zm0 1.5c.98 0 1.814.626 2.122 1.5h-4.244c.309-.874 1.142-1.5 2.122-1.5z"/><path d="m11.4 10.052c.179-.101.308-.271.358-.47.049-.2.015-.41-.095-.584-.665-1.048-1.829-1.748-3.163-1.748-2.071 0-3.75 1.679-3.75 3.75 0 .442.087.859.228 1.252.106.299.389.498.706.498h3.816c.414 0 .75-.336.75-.75 0-.84.469-1.561 1.15-1.948zm-1.461-.775c-.556.518-.955 1.201-1.113 1.973h-2.559c-.011-.082-.017-.165-.017-.25 0-1.243 1.007-2.25 2.25-2.25.549 0 1.05.199 1.439.527z"/><path d="m18.397 12.501c.526-.585.853-1.351.853-2.201 0-1.822-1.477-3.299-3.299-3.299-1.206 0-2.254.65-2.827 1.617-.211.356-.093.816.263 1.027s.817.093 1.028-.263c.311-.526.88-.881 1.536-.881.994 0 1.799.806 1.799 1.799 0 .463-.182.88-.469 1.199-.276.308-.251.782.057 1.059s.782.251 1.059-.057z"/></g></svg>