<svg clip-rule="evenodd" fill-rule="evenodd" height="512" stroke-linejoin="round" stroke-miterlimit="2" viewBox="0 0 24 24" width="512" xmlns="http://www.w3.org/2000/svg"><g id="Icon"><path d="m22.53 9.298c.293-.293.293-.768 0-1.061l-.846-.846c-.813-.813-1.917-1.271-3.068-1.271s-2.254.458-3.068 1.271c0 0-.846.846-.846.846-.293.293-.293.768 0 1.061l.846.846c.814.814 1.917 1.271 3.068 1.271s2.255-.457 3.068-1.271c0 0 .846-.846.846-.846zm-1.591-.53-.315.315c-.533.533-1.255.832-2.008.832s-1.475-.299-2.007-.832l-.316-.315.316-.316c.532-.533 1.254-.832 2.007-.832s1.475.299 2.008.832z"/><path d="m15.763 1.47c-.293-.293-.768-.293-1.061 0l-.846.846c-.814.813-1.271 1.917-1.271 3.068s.457 2.254 1.271 3.068c0 0 .846.846.846.846.293.293.768.293 1.061 0l.846-.846c.813-.814 1.271-1.917 1.271-3.068s-.458-2.255-1.271-3.068c0 0-.846-.846-.846-.846zm-.531 1.591.316.315c.533.533.832 1.255.832 2.008s-.299 1.475-.832 2.007l-.316.316-.315-.316c-.533-.532-.832-1.254-.832-2.007s.299-1.475.832-2.008z"/><path d="m15.763 8.237c-1.787-1.787-4.688-1.787-6.475 0-1.937 1.937-5.9 6.593-7.397 9.92-.432.962-.661 1.83-.64 2.518.02.611.22 1.109.593 1.481.372.373.87.573 1.481.593.688.021 1.556-.208 2.518-.64 3.327-1.497 7.983-5.46 9.92-7.397 1.787-1.787 1.787-4.688 0-6.475zm-1.061 1.061c1.201 1.201 1.201 3.152 0 4.353-1.852 1.853-6.293 5.659-9.474 7.09-.609.274-1.163.459-1.634.501-.285.025-.529.014-.69-.146-.16-.161-.171-.405-.146-.69.042-.471.227-1.025.501-1.634 1.431-3.181 5.237-7.622 7.09-9.474 1.201-1.201 3.152-1.201 4.353 0z"/><path d="m14.748 13.99-2.031-2.031c-.292-.292-.768-.292-1.06 0-.293.293-.293.768 0 1.061l2.03 2.03c.293.293.768.293 1.061 0 .292-.292.292-.768 0-1.06z"/><path d="m9.334 13.99-2.031-2.031c-.292-.292-.768-.292-1.06 0-.293.293-.293.768 0 1.061l2.03 2.03c.293.293.768.293 1.061 0 .292-.292.292-.768 0-1.06z"/><path d="m8.995 19.065-2.03-2.03c-.293-.293-.768-.293-1.061 0-.292.293-.292.768 0 1.061l2.031 2.03c.292.293.768.293 1.06 0 .293-.293.293-.768 0-1.061z"/></g></svg>