<svg clip-rule="evenodd" fill-rule="evenodd" height="512" stroke-linejoin="round" stroke-miterlimit="2" viewBox="0 0 24 24" width="512" xmlns="http://www.w3.org/2000/svg"><g id="Icon"><path d="m12 6.25c-3.286 0-6.13.74-7.546 1.764-.807.584-1.204 1.284-1.204 1.986s.397 1.402 1.204 1.986c1.416 1.024 4.26 1.764 7.546 1.764s6.13-.74 7.546-1.764c.807-.584 1.204-1.284 1.204-1.986s-.397-1.402-1.204-1.986c-1.416-1.024-4.26-1.764-7.546-1.764zm0 1.5c2.508 0 4.736.441 6.114 1.146.39.2.705.415.917.654.128.145.219.29.219.45s-.091.305-.219.45c-.212.239-.527.454-.917.654-1.378.705-3.606 1.146-6.114 1.146s-4.736-.441-6.114-1.146c-.39-.2-.705-.415-.917-.654-.128-.145-.219-.29-.219-.45s.091-.305.219-.45c.212-.239.527-.454.917-.654 1.378-.705 3.606-1.146 6.114-1.146z"/><path d="m12 18.25c-4.004 0-7.25-3.246-7.25-7.25v-1c0-.414-.336-.75-.75-.75s-.75.336-.75.75v1c0 4.832 3.918 8.75 8.75 8.75 4.832 0 8.75-3.918 8.75-8.75v-1c0-.414-.336-.75-.75-.75s-.75.336-.75.75v1c0 4.004-3.246 7.25-7.25 7.25z"/><path d="m11.25 19v3c0 .414.336.75.75.75s.75-.336.75-.75v-3c0-.414-.336-.75-.75-.75s-.75.336-.75.75z"/><path d="m11.25 7v6c0 .414.336.75.75.75s.75-.336.75-.75v-6c0-.414-.336-.75-.75-.75s-.75.336-.75.75z"/><path d="m15.25 7.75v4.5c0 .414.336.75.75.75s.75-.336.75-.75v-4.5c0-.414-.336-.75-.75-.75s-.75.336-.75.75z"/><path d="m7.25 7.75v4.5c0 .414.336.75.75.75s.75-.336.75-.75v-4.5c0-.414-.336-.75-.75-.75s-.75.336-.75.75z"/><path d="m14.85 15.875 3.75 6.5c.207.358.666.481 1.025.275.358-.207.481-.666.275-1.025l-3.75-6.5c-.207-.358-.666-.481-1.025-.275-.358.207-.481.666-.275 1.025z"/><path d="m7.85 15.125-3.75 6.5c-.206.359-.083.818.275 1.025.359.206.818.083 1.025-.275l3.75-6.5c.206-.359.083-.818-.275-1.025-.359-.206-.818-.083-1.025.275z"/><path d="m11.25 2v2c0 .414.336.75.75.75s.75-.336.75-.75v-2c0-.414-.336-.75-.75-.75s-.75.336-.75.75z"/><path d="m15.25 2v3c0 .414.336.75.75.75s.75-.336.75-.75v-3c0-.414-.336-.75-.75-.75s-.75.336-.75.75z"/><path d="m7.25 2v3c0 .414.336.75.75.75s.75-.336.75-.75v-3c0-.414-.336-.75-.75-.75s-.75.336-.75.75z"/></g></svg>