<?xml version="1.0"?>
<svg xmlns="http://www.w3.org/2000/svg" viewBox="0 0 32 32" width="512" height="512"><g id="atom_science_molecule" data-name="atom, science, molecule"><path d="M11,7a4,4,0,1,0-4,4A4.0042,4.0042,0,0,0,11,7ZM5,7A2,2,0,1,1,7,9,2.0023,2.0023,0,0,1,5,7Z"/><path d="M25,19a3.9729,3.9729,0,0,0-2.2664.71l-1.426-1.2158a4.8753,4.8753,0,0,0-.088-5.15l.887-.8423A3.9482,3.9482,0,0,0,24,13a4.0261,4.0261,0,1,0-3.3662-1.8575l-.7922.7522a4.9231,4.9231,0,0,0-5.9308.2045l-1.7077-1.6124a1,1,0,1,0-1.373,1.4541l1.7928,1.6928a4.8935,4.8935,0,0,0,.7555,5.7938l-1.6816,1.964A3.9562,3.9562,0,0,0,10,21a4.029,4.029,0,1,0,3.2365,1.6688l1.7827-2.0822A4.923,4.923,0,0,0,19.981,19.99l1.4516,1.2376A3.95,3.95,0,0,0,21,23a4,4,0,1,0,4-4ZM24,7a2,2,0,1,1-2,2A2.0023,2.0023,0,0,1,24,7ZM10,27a2,2,0,1,1,2-2A2.0023,2.0023,0,0,1,10,27Zm4-11a3,3,0,1,1,3,3A3.0033,3.0033,0,0,1,14,16Zm11,9a2,2,0,1,1,2-2A2.0023,2.0023,0,0,1,25,25Z"/></g></svg>
