<svg clip-rule="evenodd" fill-rule="evenodd" height="512" stroke-linejoin="round" stroke-miterlimit="2" viewBox="0 0 24 24" width="512" xmlns="http://www.w3.org/2000/svg"><g id="Icon"><path d="m19.25 8.12v11.7c0 .115-.126.18-.25.18h-14c-.124 0-.25-.065-.25-.18v-11.7c0-.414-.336-.75-.75-.75s-.75.336-.75.75v11.7c0 .906.773 1.68 1.75 1.68h14c.977 0 1.75-.774 1.75-1.68v-11.7c0-.414-.336-.75-.75-.75s-.75.336-.75.75z"/><path d="m2.597 11.204 1.952-2.57s3.526-3.025 3.526-3.025 3.925-1.552 3.925-1.552 3.963 1.571 3.963 1.571 3.488 3.005 3.488 3.005 1.952 2.571 1.952 2.571c.25.329.721.394 1.051.143.329-.25.394-.721.143-1.051l-2-2.633c-.032-.042-.068-.08-.107-.114l-3.643-3.14c-.064-.055-.136-.099-.214-.129l-4.357-1.727c-.177-.071-.374-.071-.552 0l-4.318 1.707c-.077.031-.149.074-.212.129l-3.682 3.159c-.041.034-.077.073-.109.115l-2 2.633c-.251.33-.186.801.143 1.051.33.251.801.186 1.051-.143z"/><path d="m16.5 21.5c.414 0 .75-.336.75-.75v-8c0-.464-.184-.909-.513-1.238-.328-.328-.773-.512-1.237-.512-1.732 0-5.268 0-7 0-.464 0-.909.184-1.237.512-.329.329-.513.774-.513 1.238v8c0 .414.336.75.75.75zm-.75-1.5h-7.5v-7.25c0-.066.026-.13.073-.177s.111-.073.177-.073h7c.066 0 .13.026.177.073s.073.111.073.177z"/><path d="m15.47 11.72-8.5 8.5c-.293.292-.293.768 0 1.06.292.293.768.293 1.06 0l8.5-8.5c.293-.292.293-.768 0-1.06-.292-.293-.768-.293-1.06 0z"/><path d="m7.47 12.78 8.5 8.5c.292.293.768.293 1.06 0 .293-.292.293-.768 0-1.06l-8.5-8.5c-.292-.293-.768-.293-1.06 0-.293.292-.293.768 0 1.06z"/></g></svg>