<svg clip-rule="evenodd" fill-rule="evenodd" height="512" stroke-linejoin="round" stroke-miterlimit="2" viewBox="0 0 24 24" width="512" xmlns="http://www.w3.org/2000/svg"><g id="Icon"><path d="m8.654 15.25c-.331 0-.649-.132-.884-.366 0 0-2.717-2.717-2.717-2.717-.683-.683-1.792-.683-2.475 0 0 0-.604.604-.604.604-.684.684-.684 1.791 0 2.475 0 0 4.284 4.284 4.284 4.284.141.141.332.22.531.22h14c.966 0 1.75-.784 1.75-1.75v-1c0-.966-.784-1.75-1.75-1.75zm0 1.5h12.135c.138 0 .25.112.25.25v1c0 .138-.112.25-.25.25h-13.69s-4.064-4.064-4.064-4.064c-.098-.098-.098-.257 0-.355 0 0 .604-.604.604-.604.097-.097.256-.097.353 0l2.718 2.718c.515.515 1.215.805 1.944.805z"/><path d="m6.164 18.584-2 3c-.229.344-.136.81.208 1.04.345.23.811.136 1.041-.208l2-3c.229-.344.136-.81-.208-1.04-.345-.23-.811-.136-1.041.208z"/><path d="m19.164 19.416 2 3c.23.344.696.438 1.041.208.344-.23.437-.696.208-1.04l-2-3c-.23-.344-.696-.438-1.041-.208-.344.23-.437.696-.208 1.04z"/><path d="m6.327 9.307h11.347c.949 0 1.695-.846 1.56-1.788-.503-3.544-3.55-6.269-7.234-6.269-3.683 0-6.73 2.725-7.234 6.27-.001 0-.001 0-.001 0-.133.941.613 1.787 1.562 1.787zm0-1.5c-.043 0-.082-.033-.076-.076.4-2.816 2.822-4.981 5.749-4.981s5.349 2.165 5.749 4.981v.001c.006.042-.033.075-.075.075z"/><path d="m11.249 8.558.005 7.33c0 .413.337.749.751.749.413 0 .749-.337.749-.751l-.005-7.329c0-.414-.337-.75-.75-.75-.414.001-.75.337-.75.751z"/></g></svg>