<svg clip-rule="evenodd" fill-rule="evenodd" height="512" stroke-linejoin="round" stroke-miterlimit="2" viewBox="0 0 24 24" width="512" xmlns="http://www.w3.org/2000/svg"><g id="Icon"><path d="m21.39 10.344c0-.515-.285-1.005-.72-1.446-.213-.217-.46-.427-.674-.639-.12-.12-.239-.228-.282-.357-.001-.001-.001-.001-.001-.002-.045-.134-.018-.295.006-.465.041-.294.113-.603.154-.896.085-.608.021-1.161-.283-1.567-.301-.4-.817-.626-1.426-.733-.302-.053-.628-.082-.929-.134-.182-.032-.354-.058-.477-.144-.117-.083-.192-.23-.275-.382-.144-.262-.273-.555-.419-.817-.295-.533-.675-.942-1.167-1.097-.001 0-.001 0-.001 0-.473-.149-1.018-.037-1.572.224-.273.128-.553.289-.83.418-.171.079-.335.156-.494.156s-.323-.077-.494-.156c-.276-.129-.557-.29-.829-.418-.555-.261-1.099-.373-1.573-.224-.493.155-.874.565-1.169 1.097-.145.263-.274.555-.418.817-.083.152-.158.299-.275.382-.123.086-.295.112-.477.144-.301.052-.627.081-.929.134-.609.107-1.125.333-1.425.733-.305.406-.369.959-.284 1.567.041.292.113.601.154.896.024.169.051.331.006.466-.043.129-.163.238-.284.358-.213.212-.46.422-.674.639-.434.441-.719.931-.719 1.446s.285 1.005.719 1.446c.214.217.461.426.674.639.121.12.241.229.284.358v.001c.045.134.018.295-.006.465-.041.294-.113.603-.154.896-.085.608-.021 1.161.283 1.566.301.4.816.627 1.426.734.301.053.627.082.929.134.181.032.354.058.477.144.117.083.192.23.275.382.144.262.273.554.418.817.295.532.676.942 1.169 1.097.474.149 1.018.037 1.573-.224.272-.128.553-.289.829-.418.171-.079.335-.156.494-.156s.323.077.494.156c.276.129.557.29.829.418.555.261 1.099.373 1.572.224.494-.155.874-.564 1.169-1.097.146-.262.275-.555.419-.817.083-.152.158-.299.275-.382.123-.086.295-.113.477-.144.301-.052.627-.081.929-.134.609-.107 1.125-.333 1.426-.733.304-.406.368-.959.283-1.567-.041-.293-.113-.601-.154-.896-.024-.169-.051-.331-.006-.466 0 0 0 0 .001-.001.043-.129.162-.237.282-.357.214-.213.461-.422.674-.639.435-.441.72-.931.72-1.446zm-1.5 0c0 .086-.073.15-.135.226-.101.123-.225.241-.351.358-.476.444-.954.907-1.113 1.383-.165.494-.062 1.148.052 1.78.031.167.059.331.067.487.004.088.028.174-.019.236 0 0-.001 0-.001.001-.053.071-.155.081-.256.108-.158.041-.331.067-.507.091-.647.087-1.311.189-1.733.487-.423.298-.728.882-1.016 1.457-.076.152-.154.302-.242.433-.058.085-.104.174-.191.202-.085.026-.172-.023-.269-.06-.152-.056-.307-.135-.465-.216-.574-.297-1.175-.592-1.711-.592s-1.137.295-1.711.592c-.158.081-.313.16-.465.216-.097.037-.185.086-.27.06-.087-.028-.133-.117-.19-.202-.089-.13-.166-.28-.242-.433-.288-.575-.593-1.159-1.016-1.457-.423-.298-1.087-.4-1.733-.487-.176-.024-.35-.05-.507-.091-.101-.027-.202-.036-.256-.108 0 0 0-.001-.001-.001-.046-.062-.023-.148-.019-.237.008-.155.037-.32.067-.487.115-.632.218-1.286.052-1.779-.159-.476-.637-.939-1.113-1.383-.126-.117-.25-.235-.35-.358-.063-.076-.136-.14-.136-.226s.073-.15.136-.226c.1-.123.224-.241.35-.358.476-.444.954-.907 1.113-1.383.166-.494.063-1.148-.052-1.78-.03-.167-.059-.331-.067-.487-.004-.088-.027-.174.019-.236.001 0 .001-.001.001-.001.054-.071.155-.081.256-.108.158-.042.331-.067.507-.091.647-.087 1.31-.189 1.733-.487.423-.298.728-.882 1.016-1.457.076-.153.153-.303.242-.433.057-.085.103-.174.19-.202.085-.026.173.023.27.06.152.056.307.135.465.216.574.297 1.175.592 1.711.592s1.137-.295 1.711-.592c.158-.081.313-.16.465-.216.097-.037.185-.086.27-.06.087.028.133.117.19.202.088.13.166.28.242.433.288.575.593 1.159 1.016 1.457.422.297 1.086.4 1.733.487.176.024.349.049.507.091.101.027.203.037.256.108 0 0 .001.001.001.001.047.062.023.148.019.237-.008.155-.036.32-.067.487-.114.631-.217 1.286-.052 1.779.159.476.637.939 1.113 1.383.126.117.25.235.351.358.062.076.135.14.135.226z"/><path d="m17.75 10.344c0-3.174-2.576-5.75-5.75-5.75s-5.75 2.576-5.75 5.75c0 3.173 2.576 5.75 5.75 5.75s5.75-2.577 5.75-5.75zm-1.5 0c0 2.346-1.904 4.25-4.25 4.25s-4.25-1.904-4.25-4.25 1.904-4.25 4.25-4.25 4.25 1.904 4.25 4.25z"/><path d="m5.206 21.078-.535-1.07c-.079-.158-.212-.283-.375-.353l-1.02-.438 1.272-1.361c.283-.302.267-.777-.036-1.06-.302-.283-.777-.267-1.06.036l-1.514 1.62c-.59.633-.376 1.659.418 2.002l1.096.471s.567 1.134.567 1.134c.379.763 1.397.93 2.002.324 0 0 1.509-1.509 1.509-1.509.293-.292.293-.768 0-1.06-.292-.293-.768-.293-1.06 0z"/><path d="m20.724 19.217-1.02.438c-.163.07-.296.195-.375.353l-.535 1.07-1.264-1.264c-.292-.293-.768-.293-1.06 0-.293.292-.293.768 0 1.06l1.509 1.509c.605.606 1.623.439 2.003-.326-.001.002.566-1.132.566-1.132l1.096-.471c.794-.343 1.008-1.369.418-2.002l-1.514-1.62c-.283-.303-.758-.319-1.06-.036-.303.283-.319.758-.036 1.06z"/></g></svg>