<svg clip-rule="evenodd" fill-rule="evenodd" height="512" stroke-linejoin="round" stroke-miterlimit="2" viewBox="0 0 24 24" width="512" xmlns="http://www.w3.org/2000/svg"><g id="Icon"><path d="m13.521 8.2.952-.952c.097-.097.256-.097.353.001 0 0 1.938 1.943 1.938 1.943.097.098.098.256 0 .354 0 0-.954.954-.954.954-.293.292-.293.768 0 1.06.293.293.768.293 1.061 0l.954-.954c.682-.682.683-1.788.002-2.472l-1.939-1.945c-.682-.684-1.792-.686-2.476-.001 0 0-.952.952-.952.952-.293.292-.293.768 0 1.06.293.293.768.293 1.061 0z"/><path d="m17.03 8.03 2.5-2.5c.293-.292.293-.768 0-1.06-.292-.293-.768-.293-1.06 0l-2.5 2.5c-.293.292-.293.768 0 1.06.292.293.768.293 1.06 0z"/><path d="m21.47 1.47-1 1c-.293.292-.293.768 0 1.06.292.293.768.293 1.06 0l1-1c.293-.292.293-.768 0-1.06-.292-.293-.768-.293-1.06 0z"/><path d="m22.448 7.399-1.341-1c-.331-.248-.802-.179-1.049.153-.248.331-.179.802.153 1.049l1.341 1c.332.248.802.179 1.049-.153.248-.331.179-.802-.153-1.049z"/><path d="m15.417 2.471 1.158 1.434c.26.322.732.373 1.054.113.322-.261.373-.733.113-1.055l-1.158-1.434c-.26-.322-.733-.373-1.055-.113-.322.261-.372.733-.112 1.055z"/><path d="m15.689 11.355c.46.92.721 1.965.721 3.065 0 3.775-3.064 6.83-6.83 6.83-3.775 0-6.83-3.055-6.83-6.83 0-3.766 3.055-6.83 6.83-6.83 1.106 0 2.157.259 3.074.736.368.19.821.047 1.012-.32.19-.368.047-.821-.32-1.012-1.123-.583-2.412-.904-3.766-.904-4.605 0-8.33 3.736-8.33 8.33 0 4.605 3.725 8.33 8.33 8.33 4.594 0 8.33-3.725 8.33-8.33 0-1.34-.319-2.615-.879-3.735-.185-.371-.636-.521-1.006-.336-.371.185-.521.636-.336 1.006z"/><path d="m5.91 14.42c0-2.024 1.642-3.67 3.67-3.67.593 0 1.157.138 1.649.393.367.191.82.048 1.011-.319.191-.368.047-.821-.32-1.012-.698-.362-1.498-.562-2.34-.562-2.857 0-5.17 2.318-5.17 5.17 0 .414.336.75.75.75s.75-.336.75-.75z"/></g></svg>