<svg clip-rule="evenodd" fill-rule="evenodd" height="512" stroke-linejoin="round" stroke-miterlimit="2" viewBox="0 0 24 24" width="512" xmlns="http://www.w3.org/2000/svg"><g id="Icon"><path d="m19.25 3v18c0 .966-.783 1.75-1.75 1.75h-13c-.729 0-1.429-.29-1.945-.805-.515-.516-.805-1.216-.805-1.945v-16c0-.729.29-1.429.805-1.945.516-.515 1.216-.805 1.945-.805h13c.967 0 1.75.784 1.75 1.75zm-1.5 0c0-.138-.112-.25-.25-.25h-13c-.332 0-.649.132-.884.366-.234.235-.366.552-.366.884v16c0 .332.132.649.366.884.235.234.552.366.884.366h13c.138 0 .25-.112.25-.25z"/><path d="m12.642 5.671 1.615 3.462c.155.333.156.717.002 1.051s-.446.583-.8.681l-4.884 1.358c-.589.164-1.21-.122-1.468-.676l-.91-1.951c-.258-.554-.078-1.213.426-1.559l4.179-2.868c.303-.208.682-.272 1.037-.175.354.096.648.344.803.677zm-4.996 3.483.731 1.567 4.396-1.222-1.365-2.926z"/><path d="m8.954 11.906c-.261-.322-.211-.795.11-1.055.322-.261.795-.212 1.055.11l1.299 1.601c.26.322.211.794-.111 1.055-.321.261-.794.212-1.054-.11z"/><path d="m10.822 5.317c-.175-.375-.012-.822.363-.997s.822-.012.997.363l2.535 5.438c.175.375.013.822-.362.997s-.822.012-.997-.363z"/><path d="m8.5 16.75c-.414 0-.75-.336-.75-.75s.336-.75.75-.75h4c.414 0 .75.336.75.75s-.336.75-.75.75z"/><path d="m6.5 19.75c-.414 0-.75-.336-.75-.75s.336-.75.75-.75h8c.414 0 .75.336.75.75s-.336.75-.75.75z"/><path d="m22.25 4v12c0 .414-.336.75-.75.75h-3c-.414 0-.75-.336-.75-.75v-12c0-.414.336-.75.75-.75h3c.414 0 .75.336.75.75zm-1.5.75h-1.5v10.5h1.5z"/><path d="m21.5 6.25c.414 0 .75.336.75.75s-.336.75-.75.75h-3c-.414 0-.75-.336-.75-.75s.336-.75.75-.75z"/><path d="m21.5 9.25c.414 0 .75.336.75.75s-.336.75-.75.75h-3c-.414 0-.75-.336-.75-.75s.336-.75.75-.75z"/><path d="m21.5 12.25c.414 0 .75.336.75.75s-.336.75-.75.75h-3c-.414 0-.75-.336-.75-.75s.336-.75.75-.75z"/></g></svg>