<svg clip-rule="evenodd" fill-rule="evenodd" stroke-linejoin="round" stroke-miterlimit="1.414" viewBox="0 0 32 32" xmlns="http://www.w3.org/2000/svg" xmlns:serif="http://www.serif.com/"><path id="calender-date-schedule" d="m0 0h32v32h-32z" fill="none"/><path d="m16.999 7.002v.999c-.013.639-.716 1.158-1.33.942-.387-.136-.659-.528-.668-.942v-.999h-2.996c-.778-.037-1.287-1.038-.755-1.653.146-.168.347-.284.566-.326.083-.016.105-.014.189-.018h2.996v-.999c.004-.163.019-.216.05-.312.133-.402.542-.687.969-.687.529.021.967.42.979.999v.999h5.992v-.999c.004-.163.019-.216.05-.312.133-.402.542-.687.969-.687.529.021.967.42.979.999v.999h1.002c.035 0 .035 0 .071.001 1.53.047 2.892 1.364 2.922 2.958.036 6.006 0 12.012 0 18.017-.01 1.549-1.325 2.963-2.959 2.993-6.672.041-13.344.001-20.015.001-1.558-.01-2.963-1.349-2.993-2.959-.038-6.006-.001-12.012-.001-18.018.01-1.562 1.362-2.983 2.994-2.993h1.001v-.999c.004-.163.019-.216.05-.312.133-.402.542-.687.969-.687.162.007.216.023.311.057.387.136.66.528.668.942v3.995c-.013.639-.716 1.158-1.33.942-.387-.136-.659-.528-.668-.942v-1c-.337-.001-.674-.001-1.011.001-.516.01-.976.465-.986.987-.037 6-.037 12.001 0 18.002.01.517.464.976.986.986 6.667.041 13.334.041 20 0 .517-.01.976-.464.986-.986.037-6.001.037-12.002 0-18.003-.009-.518-.457-.982-1.002-.986h-.995v.999c-.015.735-.981 1.275-1.608.791-.242-.186-.384-.483-.39-.791v-.999zm-8.989 15.98c.551 0 .999.448.999.999s-.448.999-.999.999-.999-.448-.999-.999.448-.999.999-.999zm3.995 0c.551 0 .999.448.999.999s-.448.999-.999.999-.999-.448-.999-.999.448-.999.999-.999zm3.995 0c.551 0 .999.448.999.999s-.448.999-.999.999-.999-.448-.999-.999.448-.999.999-.999zm-7.99-3.995c.551 0 .999.448.999.999s-.448.999-.999.999-.999-.448-.999-.999.448-.999.999-.999zm3.995 0c.551 0 .999.448.999.999s-.448.999-.999.999-.999-.448-.999-.999.448-.999.999-.999zm3.995 0c.551 0 .999.448.999.999s-.448.999-.999.999-.999-.448-.999-.999.448-.999.999-.999zm3.995 0c.551 0 .999.448.999.999s-.448.999-.999.999-.999-.448-.999-.999.448-.999.999-.999zm3.995 0c.551 0 .999.448.999.999s-.448.999-.999.999-.999-.448-.999-.999.448-.999.999-.999zm-11.985-3.995c.551 0 .999.448.999.999s-.448.999-.999.999-.999-.448-.999-.999.448-.999.999-.999zm3.995 0c.551 0 .999.448.999.999s-.448.999-.999.999-.999-.448-.999-.999.448-.999.999-.999zm3.995 0c.551 0 .999.448.999.999s-.448.999-.999.999-.999-.448-.999-.999.448-.999.999-.999zm3.995 0c.551 0 .999.448.999.999s-.448.999-.999.999-.999-.448-.999-.999.448-.999.999-.999z"/></svg>