<svg height="512" viewBox="0 0 32 32" width="512" xmlns="http://www.w3.org/2000/svg"><g id="Layer_41" data-name="Layer 41"><path d="m9 15h2v2h-2z"/><path d="m17 7h2v2h-2z"/><path d="m9 19h2v2h-2z"/><path d="m13 15h2v2h-2z"/><path d="m21 7h2v2h-2z"/><path d="m13 19h2v2h-2z"/><path d="m17 15h2v2h-2z"/><path d="m17 19h2v2h-2z"/><path d="m28 27h-1v-23a1 1 0 0 0 -1-1h-12a1 1 0 0 0 -1 1v4a1 1 0 0 0 2 0v-3h10v22h-8v-3a1 1 0 0 0 -1-1h-4a1 1 0 0 0 -1 1v3h-4v-14h14v11a1 1 0 0 0 2 0v-12a1 1 0 0 0 -1-1h-16a1 1 0 0 0 -1 1v15h-1a1 1 0 0 0 0 2h24a1 1 0 0 0 0-2zm-15-2h2v2h-2z"/></g></svg>