<svg clip-rule="evenodd" fill-rule="evenodd" height="512" stroke-linejoin="round" stroke-miterlimit="2" viewBox="0 0 24 24" width="512" xmlns="http://www.w3.org/2000/svg"><g id="Icon"><path d="m19.75 4.5c0-1.519-1.231-2.75-2.75-2.75-3.271 0-9.729 0-13 0-1.519 0-2.75 1.231-2.75 2.75v8c0 .729.29 1.429.805 1.945.516.515 1.216.805 1.945.805h.633s2.108 2.71 2.108 2.71c.142.183.361.29.592.29.232 0 .45-.107.592-.29l2.108-2.71h6.967c.729 0 1.429-.29 1.945-.805.515-.516.805-1.216.805-1.945zm-1.5 0v8c0 .332-.132.649-.366.884-.235.234-.552.366-.884.366h-7.333c-.232 0-.45.107-.592.29l-1.742 2.238s-1.741-2.238-1.741-2.238c-.142-.183-.361-.29-.592-.29h-1c-.332 0-.649-.132-.884-.366-.234-.235-.366-.552-.366-.884v-8c0-.69.56-1.25 1.25-1.25h13c.69 0 1.25.56 1.25 1.25z"/><path d="m20.827 7.562c.259.229.423.565.423.938v8c0 .332-.132.649-.366.884-.235.234-.552.366-.884.366h-1c-.231 0-.45.107-.592.29l-1.741 2.238s-1.742-2.238-1.742-2.238c-.142-.183-.36-.29-.592-.29 0 0-1.3 0-3.833 0-.414 0-.75.336-.75.75s.336.75.75.75h3.467s2.108 2.71 2.108 2.71c.142.183.36.29.592.29.231 0 .45-.107.592-.29l2.108-2.71h.633c.729 0 1.429-.29 1.945-.805.515-.516.805-1.216.805-1.945v-8c0-.821-.36-1.558-.931-2.062-.31-.274-.784-.245-1.058.066-.274.31-.245.784.066 1.058z"/><path d="m5.5 11.25h10c.414 0 .75-.336.75-.75s-.336-.75-.75-.75h-10c-.414 0-.75.336-.75.75s.336.75.75.75z"/><path d="m5.5 7.25h5c.414 0 .75-.336.75-.75s-.336-.75-.75-.75h-5c-.414 0-.75.336-.75.75s.336.75.75.75z"/></g></svg>