<svg clip-rule="evenodd" fill-rule="evenodd" height="512" stroke-linejoin="round" stroke-miterlimit="2" viewBox="0 0 24 24" width="512" xmlns="http://www.w3.org/2000/svg"><g id="Icon"><path d="m22.75 11v-7c0-.729-.29-1.429-.805-1.945-.516-.515-1.216-.805-1.945-.805-3.832 0-12.168 0-16 0-.729 0-1.429.29-1.945.805-.515.516-.805 1.216-.805 1.945v16c0 .729.29 1.429.805 1.945.516.515 1.216.805 1.945.805h7c.414 0 .75-.336.75-.75s-.336-.75-.75-.75c0 0-4.348 0-7 0-.332 0-.649-.132-.884-.366-.234-.235-.366-.552-.366-.884v-16c0-.332.132-.649.366-.884.235-.234.552-.366.884-.366h16c.332 0 .649.132.884.366.234.235.366.552.366.884v7c0 .414.336.75.75.75s.75-.336.75-.75z"/><path d="m2 7.75h20c.414 0 .75-.336.75-.75s-.336-.75-.75-.75h-20c-.414 0-.75.336-.75.75s.336.75.75.75z"/><path d="m4.5 5.25h1c.414 0 .75-.336.75-.75s-.336-.75-.75-.75h-1c-.414 0-.75.336-.75.75s.336.75.75.75z"/><path d="m8 5.25h1c.414 0 .75-.336.75-.75s-.336-.75-.75-.75h-1c-.414 0-.75.336-.75.75s.336.75.75.75z"/><path d="m11.5 5.25h1c.414 0 .75-.336.75-.75s-.336-.75-.75-.75h-1c-.414 0-.75.336-.75.75s.336.75.75.75z"/><path d="m17 13.25c-2.07 0-3.75 1.68-3.75 3.75s1.68 3.75 3.75 3.75 3.75-1.68 3.75-3.75-1.68-3.75-3.75-3.75zm0 1.5c1.242 0 2.25 1.008 2.25 2.25s-1.008 2.25-2.25 2.25-2.25-1.008-2.25-2.25 1.008-2.25 2.25-2.25z"/><path d="m20 17.75h2c.414 0 .75-.336.75-.75s-.336-.75-.75-.75h-2c-.414 0-.75.336-.75.75s.336.75.75.75z"/><path d="m19.652 15.409 1.414-1.414c.293-.293.293-.768 0-1.061s-.768-.293-1.061 0l-1.414 1.414c-.293.293-.293.768 0 1.061s.768.293 1.061 0z"/><path d="m17.75 14v-2c0-.414-.336-.75-.75-.75s-.75.336-.75.75v2c0 .414.336.75.75.75s.75-.336.75-.75z"/><path d="m15.409 14.348-1.414-1.414c-.293-.293-.768-.293-1.061 0s-.293.768 0 1.061l1.414 1.414c.293.293.768.293 1.061 0s.293-.768 0-1.061z"/><path d="m14 16.25h-2c-.414 0-.75.336-.75.75s.336.75.75.75h2c.414 0 .75-.336.75-.75s-.336-.75-.75-.75z"/><path d="m14.348 18.591-1.414 1.414c-.293.293-.293.768 0 1.061s.768.293 1.061 0l1.414-1.414c.293-.293.293-.768 0-1.061s-.768-.293-1.061 0z"/><path d="m16.25 20v2c0 .414.336.75.75.75s.75-.336.75-.75v-2c0-.414-.336-.75-.75-.75s-.75.336-.75.75z"/><path d="m18.591 19.652 1.414 1.414c.293.293.768.293 1.061 0s.293-.768 0-1.061l-1.414-1.414c-.293-.293-.768-.293-1.061 0s-.293.768 0 1.061z"/></g></svg>