<svg clip-rule="evenodd" fill-rule="evenodd" height="512" stroke-linejoin="round" stroke-miterlimit="2" viewBox="0 0 24 24" width="512" xmlns="http://www.w3.org/2000/svg"><g id="Icon"><path d="m22.75 17.5v-1.5c0-.69-.56-1.25-1.25-1.25-2.772 0-16.228 0-19 0-.69 0-1.25.56-1.25 1.25v1.5c0 .69.56 1.25 1.25 1.25h19c.69 0 1.25-.56 1.25-1.25zm-20-1.25v1h18.5v-1z"/><path d="m19.25 7.5c0-.332-.132-.649-.366-.884-.235-.234-.553-.366-.884-.366-.958 0-3.042 0-4 0-.331 0-.649.132-.884.366-.234.235-.366.552-.366.884v7.5c0 .332.132.649.366.884.235.234.553.366.884.366h4c.331 0 .649-.132.884-.366.234-.235.366-.552.366-.884zm-5 7.25h3.5v-7h-3.5z"/><path d="m9.75 6.5c0-.69-.56-1.25-1.25-1.25h-2.5c-.69 0-1.25.56-1.25 1.25v8.5c0 .69.56 1.25 1.25 1.25h2.5c.69 0 1.25-.56 1.25-1.25 0-1.642 0-6.858 0-8.5zm-3.5 8.25h2v-8h-2z"/><path d="m14.25 4c0-.69-.56-1.25-1.25-1.25h-3.5c-.69 0-1.25.56-1.25 1.25v11c0 .69.56 1.25 1.25 1.25h3.5c.69 0 1.25-.56 1.25-1.25 0-1.952 0-9.048 0-11zm-4.5 10.75h3v-10.5h-3z"/><path d="m20.75 18c0-.414-.336-.75-.75-.75h-2.5c-.414 0-.75.336-.75.75v1.5c0 .464.184.909.513 1.237.328.329.773.513 1.237.513h.5c.464 0 .909-.184 1.237-.513.329-.328.513-.773.513-1.237 0-.696 0-1.5 0-1.5zm-1.5.75v.75c0 .066-.026.13-.073.177s-.111.073-.177.073h-.5c-.066 0-.13-.026-.177-.073s-.073-.111-.073-.177v-.75z"/><path d="m7.25 18c0-.414-.336-.75-.75-.75h-2.5c-.414 0-.75.336-.75.75v1.5c0 .464.184.909.513 1.237.328.329.773.513 1.237.513h.5c.464 0 .909-.184 1.237-.513.329-.328.513-.773.513-1.237 0-.696 0-1.5 0-1.5zm-1.5.75v.75c0 .066-.026.13-.073.177s-.111.073-.177.073h-.5c-.066 0-.13-.026-.177-.073s-.073-.111-.073-.177v-.75z"/><path d="m18.5 8.75h-1.5c-.414 0-.75.336-.75.75s.336.75.75.75h1.5c.414 0 .75-.336.75-.75s-.336-.75-.75-.75z"/><path d="m18.5 11.75h-1.5c-.414 0-.75.336-.75.75s.336.75.75.75h1.5c.414 0 .75-.336.75-.75s-.336-.75-.75-.75z"/></g></svg>