<svg clip-rule="evenodd" fill-rule="evenodd" stroke-linejoin="round" stroke-miterlimit="1.414" viewBox="0 0 32 32" xmlns="http://www.w3.org/2000/svg" xmlns:serif="http://www.serif.com/"><path id="jersey-sport-basketball-tshirt" d="m0 0h32v32h-32z" fill="none"/><path d="m10.999 8.051.001-.012v-.036zm11.946 3.854.002.002-.004-.004zm-13.859-.009-.003.001h.001zm13.777-.058.002.001-.007-.005zm-13.694-.012-.004.004.002-.002zm13.64-.034.005.005-.008-.007zm-13.558-.037-.005.005.003-.003zm13.478-.032.004.003-.011-.01zm-13.397-.041-.008.007.005-.004zm13.345-.007.008.008-.012-.011zm-.026-.024.001.001-.014-.013zm-13.241-.043-.008.009.005-.005zm13.189-.005.006.006-.014-.014zm-13.161-.021-.006.005h.001zm13.11-.028.012.012-.015-.016zm-13.061-.021-.01.01.007-.007zm13.036-.004.003.003-.021-.021zm-13.006-.026-.01.009.002-.001zm12.956-.024.008.008-.016-.017zm-12.911-.023-.011.011.008-.008zm12.862-.027.017.017-.021-.021zm-12.831-.005-.012.012.003-.003zm12.807-.021.004.004-.023-.024zm-12.764-.025-.012.013.009-.01zm12.716-.027.009.011-.018-.02zm-12.685-.007-.013.014.003-.003zm12.634-.049c.009.01.018.02.027.03zm-12.593.003-.014.015.011-.012zm.03-.035-.014.016.005-.005zm12.543.009.005.006-.023-.026zm-12.503-.055-.016.018.013-.015zm12.456.002.012.014-.02-.024zm-12.426-.038-.015.018.005-.006zm12.377-.02c.009.011.018.022.027.033zm-12.339-.027-.018.023.016-.02zm12.32.004.006.008-.023-.028zm-12.29-.04-.015.019.006-.008zm12.245-.015.014.017-.022-.027zm-12.208-.032-.024.03.022-.028zm12.161-.027c.009.011.018.023.027.034zm-12.132-.011-.016.021.007-.009zm12.113-.013.008.009-.023-.029zm-12.077-.034-.024.031c.008-.01.016-.021.024-.031zm12.034-.023.017.022-.024-.032zm-12.006-.015-.016.021.008-.01zm11.962-.045c.009.012.018.024.027.036zm-11.927-.004-.023.033c.008-.011.015-.022.023-.033zm11.908-.022.009.013-.022-.032zm-11.88-.016-.017.023.009-.012zm11.839-.041.02.027-.026-.037zm-11.805-.008-.024.034c.008-.012.016-.023.024-.034zm.026-.039-.016.024.009-.013zm11.737-.014c.009.012.018.025.027.038zm-11.704-.036-.023.035c.008-.012.016-.023.023-.035zm11.686.009.01.015-.022-.034zm-11.66-.048-.017.026.01-.016zm11.616-.02c.008.013.017.026.025.039zm-11.584-.031-.023.036c.008-.012.016-.024.023-.036zm11.55-.022c.008.013.017.026.025.04zm-11.525-.017-.017.028.011-.018zm11.507-.011.011.017-.022-.035zm-11.476-.04-.022.036.004-.006zm11.434-.029c.008.013.017.027.025.041zm-11.41-.011-.018.029.012-.02zm11.378-.043c.008.014.017.028.025.041zm-11.35-.006-.02.034.005-.007zm11.333-.024.012.021-.021-.037zm-11.308-.02-.018.033.013-.024zm11.269-.049c.008.014.016.028.024.042zm-11.243.002-.018.033.005-.008zm.025-.046-.019.036.015-.028zm11.188-.011c.008.014.016.029.023.043zm-11.163-.036-.017.033.005-.01zm11.146.005.013.024-.021-.04zm-11.121-.053-.021.04c.007-.013.014-.026.021-.04zm11.085-.017c.007.014.015.029.022.043zm-11.062-.029-.017.033.006-.011zm11.049.004.007.014-.022-.044zm-11.025-.053-.02.04c.007-.013.014-.027.02-.04zm10.994-.011.014.029-.021-.044zm-10.972-.035-.016.033.006-.012zm10.938-.035c.007.015.014.03.022.045zm-10.915-.015-.018.04c.006-.013.012-.027.018-.04zm10.903-.012.008.017-.02-.044zm-10.882-.034-.015.033.006-.014zm10.847-.044c.007.015.014.031.021.047zm-10.824-.007-.018.041c.006-.014.012-.028.018-.041zm10.799-.05c.007.015.013.031.02.046zm-10.78.004-.014.034.007-.016zm.022-.052-.017.041c.006-.014.011-.027.017-.041zm10.747.02.007.019-.018-.044zm-.032-.078c.006.016.012.031.019.047zm-10.697.012-.013.035.007-.018zm.021-.053-.016.042c.005-.014.011-.028.016-.042zm10.653-.017c.006.015.012.031.018.047zm-10.635-.029-.014.036.008-.02zm10.624-.001.008.021-.017-.044zm-10.604-.053-.016.043c.005-.014.01-.029.016-.043zm10.575-.025c.006.016.011.032.017.048zm-10.559-.02-.013.036.008-.022zm10.538-.039c.006.016.011.032.017.048zm-10.519-.016-.015.043c.005-.014.01-.029.015-.043zm10.509-.015.008.024-.015-.045zm-10.494-.031-.013.038.008-.024zm10.468-.047c.005.016.01.032.016.048zm-10.45-.009-.014.044c.005-.014.009-.029.014-.044zm10.431-.052c.005.017.011.033.016.05zm-10.417.007-.012.04.008-.027zm10.408-.039.008.028-.014-.048zm-10.391-.017-.014.044c.005-.015.009-.03.014-.044zm.013-.046-.012.042.008-.03zm10.355-.015c.005.016.01.033.014.049zm-10.34-.041-.012.044.003-.011zm10.324-.02c.004.017.009.034.013.051zm-10.312-.026-.012.045c.004-.015.008-.03.012-.045zm10.303-.008.008.032-.013-.05zm-10.289-.046-.011.042.003-.013zm10.27-.032c.004.017.008.033.012.05zm-10.258-.018-.011.046c.004-.015.007-.03.011-.046zm10.251-.009.004.017-.011-.051zm-10.239-.043-.01.04.004-.013zm10.22-.044c.004.017.007.035.011.052zm-10.209-.007-.01.045c.003-.015.007-.03.01-.045zm10.196-.054c.004.017.007.034.011.051zm-10.186.002-.008.04.003-.015zm.011-.053-.009.046c.003-.015.006-.031.009-.046zm10.17.022.004.02-.01-.05zm-10.161-.072-.007.039.003-.016zm10.145-.014c.003.017.006.035.009.052zm-10.135-.041-.008.046c.002-.015.005-.03.008-.046zm10.124-.021c.003.017.006.034.009.051zm-10.116-.028-.007.038.003-.018zm10.112-.003.003.023-.007-.049zm-10.104-.053-.007.046c.002-.015.005-.031.007-.046zm10.091-.032c.003.018.005.035.008.052zm-10.084-.017-.006.039.003-.02zm10.076-.046c.002.018.004.035.007.052zm-10.069-.011-.006.046c.002-.015.004-.031.006-.046zm10.065-.021.003.025-.005-.049zm-10.059-.028-.005.039.003-.021zm10.05-.056c.002.017.004.035.006.052zm-10.044-.001-.005.046c.001-.015.003-.031.005-.046zm.004-.049-.004.04.003-.023zm10.034-.014c.002.017.004.035.005.053zm-10.029-.044-.004.047c.001-.016.003-.031.004-.047zm10.027.01.002.028-.004-.05zm-10.024-.058-.003.041.002-.026zm10.018-.026c.001.018.002.035.003.053zm-10.014-.033-.003.047c.001-.016.002-.031.003-.047zm10.011-.031c.001.018.001.036.002.054zm-10.009-.017-.002.043.001-.029zm10.007-.019.002.032-.002-.052zm-10.005-.04-.002.047c.001-.016.002-.031.002-.047zm10.003-.042c0 .017.001.035.001.052zm-10.002-.006-.001.045.001-.032zm-1.999 3.901c-.579.45-1.256.779-1.993.934l-.007 14.102h2zm12.001-3.906-.001-.055c0 .018 0 .037.001.055zm-10.001-3.058v3 19h1c.779.037 1.289 1.04.756 1.655-.182.21-.33.325-.756.345h-6c-.536-.025-.975-.46-1-1v-16c.025-.537.451-.975 1-1 0 0 .601-.011 1.1-.208 1.112-.438 1.892-1.58 1.9-2.795v-3.997l.001-.01c.009-.463.373-.903.843-.978.069-.011.086-.009.156-.012h4c.539.021.974.349 1 1 0 .852-.147 1.837.074 2.378.329.806 1.919.779 1.926-.381v-1.997c.009-.241.034-.281.076-.383.15-.362.528-.601.924-.617h4s.072.002.156.012c.473.094.825.504.844.988 0 1.346-.008 2.693 0 4.039.03 1.56 1.383 2.951 3.003 2.961 0 0 .766.131.948.691.218.672-.384 1.355-1.271 1.299-.973-.062-1.898-.438-2.664-1.029l-.016-.013v15.052h2v-11s.226-1.026 1.068-.998c.209.022.242.043.33.081.355.154.589.525.602.917v12c-.007.21-.026.244-.058.335-.138.389-.424.647-.942.665h-10c-.253-.009-.327-.043-.46-.112-.753-.39-.684-1.849.46-1.888h5v-19-3h-2c0 .787.04 1.582-.281 2.268-.847 1.815-3.75 2.318-5.101.556-.396-.517-.614-1.164-.618-1.821v-1.003z" fill-rule="nonzero"/></svg>