<svg clip-rule="evenodd" fill-rule="evenodd" height="512" stroke-linejoin="round" stroke-miterlimit="2" viewBox="0 0 24 24" width="512" xmlns="http://www.w3.org/2000/svg"><g id="Icon"><path d="m8 16.75c.414 0 .75.336.75.75s-.336.75-.75.75h-4.5c-1.243 0-2.25-1.007-2.25-2.25v-8c0-.597.237-1.169.659-1.591s.994-.659 1.591-.659h5.5c.414 0 .75.336.75.75s-.336.75-.75.75h-5.5c-.199 0-.39.079-.53.22-.141.14-.22.331-.22.53v8c0 .414.336.75.75.75z"/><path d="m21.25 13.75v-3.5h-1.25c-.414 0-.75-.336-.75-.75v-1.5c0-.199-.079-.39-.22-.53-.14-.141-.331-.22-.53-.22h-2.5c-.414 0-.75-.336-.75-.75s.336-.75.75-.75h2.5c.597 0 1.169.237 1.591.659s.659.994.659 1.591v.75h.75c.331 0 .649.132.884.366.234.235.366.553.366.884v4c0 .331-.132.649-.366.884-.235.234-.553.366-.884.366h-.75v.75c0 .597-.237 1.169-.659 1.591s-.994.659-1.591.659h-3.5c-.414 0-.75-.336-.75-.75s.336-.75.75-.75h3.5c.199 0 .39-.079.53-.22.141-.14.22-.331.22-.53v-1.5c0-.414.336-.75.75-.75z"/><path d="m14.293 4.989-.562 4.498h2.062c.394 0 .759.211.956.554.196.342.195.763-.004 1.104l-4.992 8.558c-.264.452-.809.657-1.305.489-.497-.168-.806-.662-.741-1.181l.562-4.498h-2.062c-.394 0-.759-.211-.956-.554-.196-.342-.195-.763.004-1.104l4.992-8.558c.264-.452.809-.657 1.305-.489.497.168.806.662.741 1.181zm-5.394 8.024h2.22c.215 0 .42.092.562.253.142.162.209.376.182.59l-.427 3.413 3.665-6.282h-2.22c-.215 0-.42-.092-.562-.253-.142-.162-.209-.376-.182-.59l.427-3.413z"/></g></svg>