<svg clip-rule="evenodd" fill-rule="evenodd" height="512" stroke-linejoin="round" stroke-miterlimit="2" viewBox="0 0 24 24" width="512" xmlns="http://www.w3.org/2000/svg"><g id="Icon"><path d="m6 11.5c-2.622 0-4.75 2.128-4.75 4.75s2.128 4.75 4.75 4.75 4.75-2.128 4.75-4.75-2.128-4.75-4.75-4.75zm0 1.5c1.794 0 3.25 1.456 3.25 3.25s-1.456 3.25-3.25 3.25-3.25-1.456-3.25-3.25 1.456-3.25 3.25-3.25z"/><path d="m18 11.5c-2.622 0-4.75 2.128-4.75 4.75s2.128 4.75 4.75 4.75 4.75-2.128 4.75-4.75-2.128-4.75-4.75-4.75zm0 1.5c1.794 0 3.25 1.456 3.25 3.25s-1.456 3.25-3.25 3.25-3.25-1.456-3.25-3.25 1.456-3.25 3.25-3.25z"/><path d="m14.75 16.25v-7.104c0-.569.226-1.115.629-1.517.402-.403.948-.629 1.517-.629h.003c.922 0 1.737.599 2.012 1.479 0 0 1.873 5.995 1.873 5.995.124.395.545.615.94.492.395-.124.615-.545.492-.94 0 0-1.133-3.624-1.873-5.994-.471-1.506-1.866-2.532-3.444-2.532h-.003c-.967 0-1.894.384-2.578 1.068s-1.068 1.611-1.068 2.578v7.104c0 .414.336.75.75.75s.75-.336.75-.75z"/><path d="m10.75 16.25v-7.104c0-.967-.384-1.894-1.068-2.578s-1.611-1.068-2.578-1.068h-.003c-1.578 0-2.973 1.026-3.444 2.532l-1.873 5.994c-.123.395.097.816.492.94.395.123.816-.097.94-.492l1.873-5.995c.275-.88 1.09-1.479 2.012-1.479h.003c.569 0 1.115.226 1.517.629.403.402.629.948.629 1.517v7.104c0 .414.336.75.75.75s.75-.336.75-.75z"/><path d="m14.75 9.25v-4c0-.199.079-.39.22-.53.14-.141.331-.22.53-.22h.46c.313 0 .593.194.703.487.263.702.572 1.526.572 1.526.146.388.578.585.966.439.387-.145.584-.578.439-.965 0 0-.309-.825-.573-1.527-.329-.878-1.169-1.46-2.107-1.46-.149 0-.304 0-.46 0-.597 0-1.169.237-1.591.659s-.659.994-.659 1.591v4c0 .414.336.75.75.75s.75-.336.75-.75z"/><path d="m10.75 9.25v-4c0-.597-.237-1.169-.659-1.591s-.994-.659-1.591-.659h-.46c-.938 0-1.778.582-2.107 1.46-.264.702-.573 1.527-.573 1.527-.145.387.052.82.439.965.388.146.82-.051.966-.439 0 0 .309-.824.572-1.526.11-.293.39-.487.703-.487h.46c.199 0 .39.079.53.22.141.14.22.331.22.53v4c0 .414.336.75.75.75s.75-.336.75-.75z"/><path d="m10 17h4c.414 0 .75-.336.75-.75s-.336-.75-.75-.75h-4c-.414 0-.75.336-.75.75s.336.75.75.75z"/><path d="m10 10h4c.414 0 .75-.336.75-.75s-.336-.75-.75-.75h-4c-.414 0-.75.336-.75.75s.336.75.75.75z"/></g></svg>