<svg clip-rule="evenodd" fill-rule="evenodd" height="512" stroke-linejoin="round" stroke-miterlimit="2" viewBox="0 0 24 24" width="512" xmlns="http://www.w3.org/2000/svg"><g id="Icon"><path d="m12.238 9.544c.106-1.796-.526-3.629-1.898-5-1.51-1.51-3.578-2.125-5.543-1.843-.006.001-.012.002-.018.003-.729.123-1.3.694-1.423 1.423-.001.006-.002.012-.003.018-.264 1.849.265 3.79 1.588 5.271.275.309.75.335 1.059.06.308-.276.335-.75.059-1.059-1.014-1.137-1.422-2.625-1.223-4.045.018-.093.088-.165.178-.186 1.518-.215 3.106.259 4.265 1.419 1.057 1.056 1.544 2.467 1.462 3.851-.025.413.291.768.704.793.413.024.769-.292.793-.705z"/><path d="m12.759 9.456c-.082-1.384.405-2.795 1.462-3.851 1.158-1.159 2.744-1.632 4.252-1.422.096.019.168.091.188.183.158 1.113-.056 2.262-.639 3.254-.21.357-.09.817.267 1.026.356.21.816.091 1.026-.266.76-1.291 1.038-2.789.83-4.231 0-.005-.001-.01-.002-.015-.12-.732-.692-1.308-1.425-1.431-.006-.001-.012-.002-.018-.003-1.964-.28-4.031.335-5.54 1.844-1.372 1.371-2.004 3.204-1.898 5 .024.413.38.729.793.705.413-.025.729-.38.704-.793z"/><path d="m14.75 14.616c0-3.726-3.024-6.75-6.75-6.75-3.725 0-6.75 3.024-6.75 6.75 0 3.725 3.025 6.75 6.75 6.75 3.726 0 6.75-3.025 6.75-6.75zm-1.5 0c0 2.897-2.352 5.25-5.25 5.25-2.897 0-5.25-2.353-5.25-5.25 0-2.898 2.353-5.25 5.25-5.25 2.898 0 5.25 2.352 5.25 5.25z"/><path d="m8.768 17c0-.552-.448-1-1-1-.551 0-1 .448-1 1s.449 1 1 1c.552 0 1-.448 1-1z"/><path d="m18.5 15c0-.552-.448-1-1-1s-1 .448-1 1 .448 1 1 1 1-.448 1-1z"/><path d="m12.547 10.487c.328-.5.75-.93 1.24-1.275.769-.526 1.702-.846 2.713-.846 2.625 0 4.75 2.124 4.75 4.75 0 2.625-2.125 4.75-4.75 4.75-1.052 0-2.026-.345-2.811-.931-.332-.248-.802-.18-1.05.152-.248.331-.18.802.152 1.049 1.035.774 2.321 1.23 3.709 1.23 3.455 0 6.25-2.796 6.25-6.25 0-3.455-2.795-6.25-6.25-6.25-1.328 0-2.554.419-3.564 1.111-.002.001-.005.003-.007.005-.648.454-1.204 1.023-1.636 1.683-.227.346-.13.811.216 1.038s.811.13 1.038-.216z"/></g></svg>