<svg clip-rule="evenodd" fill-rule="evenodd" height="512" stroke-linejoin="round" stroke-miterlimit="2" viewBox="0 0 24 24" width="512" xmlns="http://www.w3.org/2000/svg"><g id="Icon"><path d="m19.75 13c0 .464-.184.909-.513 1.237-.328.329-.773.513-1.237.513h-1.4c-.414 0-.75-.336-.75-.75s.336-.75.75-.75h1.4c.066 0 .13-.026.177-.073s.073-.111.073-.177-.026-.13-.073-.177-.111-.073-.177-.073h-.4c-.464 0-.909-.184-1.237-.513-.329-.328-.513-.773-.513-1.237s.184-.909.513-1.237c.328-.329.773-.513 1.237-.513h1.4c.414 0 .75.336.75.75s-.336.75-.75.75h-1.4c-.066 0-.13.026-.177.073s-.073.111-.073.177.026.13.073.177.111.073.177.073h.4c.464 0 .909.184 1.237.513.329.328.513.773.513 1.237z"/><path d="m18.55 10c0 .414-.336.75-.75.75s-.75-.336-.75-.75v-1c0-.414.336-.75.75-.75s.75.336.75.75z"/><path d="m18.55 15c0 .414-.336.75-.75.75s-.75-.336-.75-.75v-1c0-.414.336-.75.75-.75s.75.336.75.75z"/><path d="m21 19.25h-18c-.464 0-.909-.184-1.237-.513-.329-.328-.513-.773-.513-1.237v-11c0-.464.184-.909.513-1.237.328-.329.773-.513 1.237-.513h18c.464 0 .909.184 1.237.513.329.328.513.773.513 1.237v11c0 .464-.184.909-.513 1.237-.328.329-.773.513-1.237.513zm0-1.5c.066 0 .13-.026.177-.073s.073-.111.073-.177v-11c0-.066-.026-.13-.073-.177s-.111-.073-.177-.073h-18c-.066 0-.13.026-.177.073s-.073.111-.073.177v11c0 .066.026.13.073.177s.111.073.177.073z"/><path d="m5 9.75c-.414 0-.75-.336-.75-.75s.336-.75.75-.75h4c.414 0 .75.336.75.75s-.336.75-.75.75z"/><path d="m5 13.25c-.414 0-.75-.336-.75-.75s.336-.75.75-.75h7.5c.414 0 .75.336.75.75s-.336.75-.75.75z"/><path d="m5 15.75c-.414 0-.75-.336-.75-.75s.336-.75.75-.75h7.5c.414 0 .75.336.75.75s-.336.75-.75.75z"/></g></svg>