<svg clip-rule="evenodd" fill-rule="evenodd" height="512" stroke-linejoin="round" stroke-miterlimit="2" viewBox="0 0 24 24" width="512" xmlns="http://www.w3.org/2000/svg"><g id="Icon"><path d="m18.75 19.75v-12c0-.69-.56-1.25-1.25-1.25-1.952 0-9.048 0-11 0-.69 0-1.25.56-1.25 1.25v12c0 1.243 1.007 2.25 2.25 2.25h9c1.243 0 2.25-1.007 2.25-2.25zm-1.5-11.75v11.75c0 .414-.336.75-.75.75h-9c-.414 0-.75-.336-.75-.75v-11.75z"/><path d="m15.75 13.75v-2c0-.464-.184-.909-.513-1.237-.328-.329-.773-.513-1.237-.513-1.11 0-2.89 0-4 0-.464 0-.909.184-1.237.513-.329.328-.513.773-.513 1.237v2c0 .464.184.909.513 1.237.328.329.773.513 1.237.513h4c.464 0 .909-.184 1.237-.513.329-.328.513-.773.513-1.237zm-1.5-2v2c0 .066-.026.13-.073.177s-.111.073-.177.073h-4c-.066 0-.13-.026-.177-.073s-.073-.111-.073-.177v-2c0-.066.026-.13.073-.177s.111-.073.177-.073h4c.066 0 .13.026.177.073s.073.111.073.177z"/><path d="m15 17h-6c-.414 0-.75.336-.75.75s.336.75.75.75h6c.414 0 .75-.336.75-.75s-.336-.75-.75-.75z"/><path d="m18 12h2c1.519 0 2.75-1.231 2.75-2.75v-4.5c0-1.519-1.231-2.75-2.75-2.75-3.832 0-12.168 0-16 0-1.519 0-2.75 1.231-2.75 2.75v4.5c0 1.519 1.231 2.75 2.75 2.75h2c.414 0 .75-.336.75-.75s-.336-.75-.75-.75c0 0-1 0-2 0-.69 0-1.25-.56-1.25-1.25v-4.5c0-.69.56-1.25 1.25-1.25h16c.69 0 1.25.56 1.25 1.25v4.5c0 .69-.56 1.25-1.25 1.25h-2c-.414 0-.75.336-.75.75s.336.75.75.75z"/></g></svg>