<svg clip-rule="evenodd" fill-rule="evenodd" height="512" stroke-linejoin="round" stroke-miterlimit="2" viewBox="0 0 24 24" width="512" xmlns="http://www.w3.org/2000/svg"><g id="Icon"><circle cx="4.75" cy="13" r=".75"/><circle cx="7.25" cy="13" r=".75"/><circle cx="9.75" cy="13" r=".75"/><path d="m12 22.75c1.519 0 2.75-1.231 2.75-2.75v-7.5c0-1.519-1.231-2.75-2.75-2.75h-8c-1.519 0-2.75 1.231-2.75 2.75v7.5c0 1.519 1.231 2.75 2.75 2.75zm0-1.5h-8c-.69 0-1.25-.56-1.25-1.25v-7.5c0-.69.56-1.25 1.25-1.25h8c.69 0 1.25.56 1.25 1.25v7.5c0 .69-.56 1.25-1.25 1.25z"/><path d="m17.5 14.25h2.5c1.519 0 2.75-1.231 2.75-2.75v-7.5c0-1.519-1.231-2.75-2.75-2.75h-8c-1.519 0-2.75 1.231-2.75 2.75v3c0 .414.336.75.75.75s.75-.336.75-.75c0 0 0-1.608 0-3 0-.69.56-1.25 1.25-1.25h8c.69 0 1.25.56 1.25 1.25v7.5c0 .69-.56 1.25-1.25 1.25h-2.5c-.414 0-.75.336-.75.75s.336.75.75.75z"/><path d="m14 14.75h-12c-.414 0-.75.336-.75.75s.336.75.75.75h12c.414 0 .75-.336.75-.75s-.336-.75-.75-.75z"/><path d="m2.75 6.5v-2.5c0-.332.132-.649.366-.884.235-.234.552-.366.884-.366h2.5c.414 0 .75-.336.75-.75s-.336-.75-.75-.75h-2.5c-.729 0-1.429.29-1.945.805-.515.516-.805 1.216-.805 1.945v2.5c0 .414.336.75.75.75s.75-.336.75-.75z"/><path d="m21.25 17.5v2.5c0 .332-.132.649-.366.884-.235.234-.552.366-.884.366h-2.5c-.414 0-.75.336-.75.75s.336.75.75.75h2.5c.729 0 1.429-.29 1.945-.805.515-.516.805-1.216.805-1.945v-2.5c0-.414-.336-.75-.75-.75s-.75.336-.75.75z"/></g></svg>