<svg clip-rule="evenodd" fill-rule="evenodd" height="512" stroke-linejoin="round" stroke-miterlimit="2" viewBox="0 0 24 24" width="512" xmlns="http://www.w3.org/2000/svg"><g id="Icon"><path d="m1.25 9.5v4.5c0 2.623 2.127 4.75 4.75 4.75h13.5c.223 0 .434-.099.576-.27l2.5-3c.232-.278.232-.682 0-.96l-2.5-3c-.142-.171-.353-.27-.576-.27h-11.5c-.414 0-.75.336-.75.75s.336.75.75.75h11.149s1.875 2.25 1.875 2.25-1.875 2.25-1.875 2.25h-13.149c-1.795 0-3.25-1.455-3.25-3.25v-4.5c0-.414-.336-.75-.75-.75s-.75.336-.75.75z"/><path d="m1.25 9c0 .995.395 1.948 1.098 2.652.704.703 1.657 1.098 2.652 1.098h4c.414 0 .75-.336.75-.75v-6c0-.414-.336-.75-.75-.75h-4c-.995 0-1.948.395-2.652 1.098-.703.704-1.098 1.657-1.098 2.652zm1.5 0c0-.597.237-1.169.659-1.591s.994-.659 1.591-.659h3.25v4.5h-3.25c-.597 0-1.169-.237-1.591-.659s-.659-.994-.659-1.591z"/><circle cx="7" cy="15" r="1"/><path d="m11 15.75h6c.414 0 .75-.336.75-.75s-.336-.75-.75-.75h-6c-.414 0-.75.336-.75.75s.336.75.75.75z"/></g></svg>