<svg clip-rule="evenodd" fill-rule="evenodd" height="512" stroke-linejoin="round" stroke-miterlimit="2" viewBox="0 0 24 24" width="512" xmlns="http://www.w3.org/2000/svg"><g id="Icon"><path d="m7 22.699h10c.414 0 .75-.336.75-.75s-.336-.75-.75-.75h-10c-.414 0-.75.336-.75.75s.336.75.75.75z"/><path d="m15.614 22.379 7-10c.238-.339.155-.807-.184-1.044-.339-.238-.807-.155-1.044.184l-7 10c-.238.339-.155.807.184 1.045.339.237.807.155 1.044-.185z"/><path d="m9.614 21.519-7-10c-.237-.339-.705-.422-1.044-.184-.339.237-.422.705-.184 1.044l7 10c.237.34.705.422 1.044.185.339-.238.422-.706.184-1.045z"/><path d="m11.396 1.39-4.376 2.138c-.47.231-.77.711-.77 1.236v5.473c0 .52.294.996.758 1.229l4.379 2.19c.387.192.843.191 1.227-.001 0 0 4.375-2.188 4.375-2.188.468-.234.761-.71.761-1.23v-5.473c0-.525-.299-1.006-.772-1.237 0 0-4.375-2.137-4.375-2.137-.378-.186-.824-.187-1.207 0zm-3.646 3.451v5.319l4.25 2.125 4.25-2.125v-5.319l-4.25-2.077z"/><path d="m12.688 13.049v-5.676s4.601-1.917 4.601-1.917c.382-.16.563-.599.403-.981-.159-.382-.598-.563-.98-.404l-5.063 2.11c-.279.116-.461.39-.461.692v6.176c0 .414.336.751.75.75.414 0 .75-.336.75-.75z"/><path d="m12.252 6.192-4.741-2.188c-.376-.174-.822-.01-.996.366-.173.376-.009.822.367.996l4.741 2.188c.376.174.822.01.996-.366.173-.376.009-.822-.367-.996z"/></g></svg>