<svg clip-rule="evenodd" fill-rule="evenodd" height="512" stroke-linejoin="round" stroke-miterlimit="2" viewBox="0 0 24 24" width="512" xmlns="http://www.w3.org/2000/svg"><g id="Icon"><path d="m22.75 8.75c0-.729-.29-1.429-.805-1.945-.516-.515-1.216-.805-1.945-.805-3.832 0-12.168 0-16 0-.729 0-1.429.29-1.945.805-.515.516-.805 1.216-.805 1.945v10c0 .729.29 1.429.805 1.945.516.515 1.216.805 1.945.805h16c.729 0 1.429-.29 1.945-.805.515-.516.805-1.216.805-1.945zm-1.5 0v10c0 .332-.132.649-.366.884-.235.234-.552.366-.884.366h-16c-.332 0-.649-.132-.884-.366-.234-.235-.366-.552-.366-.884v-10c0-.332.132-.649.366-.884.235-.234.552-.366.884-.366h16c.332 0 .649.132.884.366.234.235.366.552.366.884z"/><path d="m17.75 4.75c0-.597-.237-1.169-.659-1.591s-.994-.659-1.591-.659c-1.888 0-5.112 0-7 0-.597 0-1.169.237-1.591.659s-.659.994-.659 1.591v2c0 .414.336.75.75.75h10c.414 0 .75-.336.75-.75zm-1.5 0v1.25h-8.5v-1.25c0-.199.079-.39.22-.53.14-.141.331-.22.53-.22h7c.199 0 .39.079.53.22.141.14.22.331.22.53z"/><path d="m17.25 6.75v14c0 .414.336.75.75.75s.75-.336.75-.75v-14c0-.414-.336-.75-.75-.75s-.75.336-.75.75z"/><path d="m5.25 6.75v14c0 .414.336.75.75.75s.75-.336.75-.75v-14c0-.414-.336-.75-.75-.75s-.75.336-.75.75z"/></g></svg>