<svg clip-rule="evenodd" fill-rule="evenodd" stroke-linejoin="round" stroke-miterlimit="1.414" viewBox="0 0 32 32" xmlns="http://www.w3.org/2000/svg" xmlns:serif="http://www.serif.com/"><path id="pin-bookmark-mark" d="m0 0h32v32h-32z" fill="none"/><path d="m6.047 13.686h5.296l7.661-5.379v-2.31c.025-.565.507-1.021 1.088-.996.375.049.389.077.62.289l6.001 6.002c.335.365.293.501.293.707 0 .521-.462.977-1 1h-2.829c-.285-.012-.362-.054-.5-.134-.523-.302-.657-1.124-.207-1.573.18-.18.316-.276.707-.293h.414l-2.586-2.587v.415c-.021.481-.141.599-.426.818l-8.345 5.859c-.28.179-.37.173-.575.182h-3.243l2.533 2.533.008.008.005.005 5.355 5.355v-3.243s.021-.315.168-.555l3.395-5.092c.453-.626 1.589-.508 1.8.302.058.223.037.465-.06.674-.029.062-.04.075-.075.133l-3.227 4.841v5.355s-.392 1.265-1.324.947c-.132-.045-.202-.071-.384-.24l-3.691-3.691-6.403 3.842c-.597.337-1.482-.068-1.514-.815-.006-.141.018-.284.071-.415.02-.049.044-.096.071-.142l3.841-6.404-3.569-3.569c-.043-.037-.079-.079-.122-.122-.024-.024-.047-.05-.068-.076-.283-.332-.235-.483-.223-.689.007-.131.044-.259.103-.376.046-.101.108-.194.188-.274.153-.152.274-.244.545-.279.009-.002.019-.003.029-.004.095-.013.144-.012.179-.009zm2.87 9.4 2.544-1.526-1.018-1.017z" fill-rule="nonzero"/></svg>