<?xml version="1.0"?>
<svg xmlns="http://www.w3.org/2000/svg" viewBox="0 0 32 32" width="512" height="512"><g id="bag_school_student" data-name="bag, school, student"><path d="M24,19a1,1,0,0,0-1,1v6a1.0006,1.0006,0,0,1-1,1H10a1.0006,1.0006,0,0,1-1-1V17.4663l2.4365.5425A21.05,21.05,0,0,0,16,18.5068a21.0658,21.0658,0,0,0,4.5645-.498l3.0693-.6846a2.983,2.983,0,0,0,2.3476-2.9287V8a.9994.9994,0,0,0-1-1H21V6a3.0033,3.0033,0,0,0-3-3H14a3.0033,3.0033,0,0,0-3,3V7H7.0186a.9994.9994,0,0,0-1,1v6.3955A2.9856,2.9856,0,0,0,7,16.619v2.482a5.0059,5.0059,0,0,0-4,4.897V26a3.0033,3.0033,0,0,0,3,3H26a3.0033,3.0033,0,0,0,3-3V23.998A5.0049,5.0049,0,0,0,24,19ZM8.0186,9H12a1,1,0,0,0,1-1V6a1.0006,1.0006,0,0,1,1-1h4a1.0006,1.0006,0,0,1,1,1V7H16a1,1,0,0,0,0,2h7.9814v5.3955a.9945.9945,0,0,1-.7832.9766l-3.0683.6836a19.1249,19.1249,0,0,1-8.2588,0L8.8018,15.373a.9962.9962,0,0,1-.7832-.9775ZM5,26V23.998a2.9932,2.9932,0,0,1,2-2.8139V26a2.966,2.966,0,0,0,.1843,1H6A1.0006,1.0006,0,0,1,5,26Zm22,0a1.0006,1.0006,0,0,1-1,1H24.8157A2.9635,2.9635,0,0,0,25,26V21.1837a2.993,2.993,0,0,1,2,2.8143Z"/><path d="M12,21a1,1,0,0,0,0,2h8a1,1,0,0,0,0-2Z"/></g></svg>
