<svg clip-rule="evenodd" fill-rule="evenodd" stroke-linejoin="round" stroke-miterlimit="1.414" viewBox="0 0 32 32" xmlns="http://www.w3.org/2000/svg" xmlns:serif="http://www.serif.com/"><path id="skull-rontgen-xray" d="m0 0h32v32h-32z" fill="none"/><path d="m28 29h-24c-.536-.025-.975-.46-1-1v-24c.025-.537.451-.975 1-1h24c.031.001.062.003.092.004.5.07.885.492.908.996v20c-.037.782-1.029 1.298-1.655.756-.168-.146-.285-.348-.327-.567-.016-.083-.014-.105-.018-.189v-19h-22v22h23c.002 0 .964.222.999.952.026.539-.443 1.021-.999 1.048zm-3.971-8c.654.035 1.153.74.878 1.435-.543 1.371-2.397 1.92-4.083 2.264-.961.196-1.957.386-2.916.297-.817-.076-1.239-1.422-.376-1.88.099-.052.208-.088.319-.105.099-.015.2-.011.301-.012 1.564-.032 3.199-.256 4.511-1.013.199-.114.395-.322.395-.322.054-.139.071-.159.108-.216.18-.272.417-.43.815-.448zm-15.961.002c.156.015.199.03.282.061.284.107.491.296.601.628.394.538 1.317.74 2.189.951.937.227 1.9.354 2.864.358 0 0 .571.069.821.435.429.626-.067 1.58-1.012 1.563-1.823-.032-3.699-.355-5.255-1.159-.746-.385-1.513-.971-1.557-1.786-.028-.527.415-1.037.97-1.053.032-.001.065.001.097.002zm9.932-.002h-4c-.376-.013-.714-.221-.894-.553l-.75-1.499c-.029-.004-.058-.01-.088-.015-1.797-.338-3.25-2.009-3.268-3.907-.006-2.037-.237-4.163.823-5.774.898-1.365 2.493-2.237 4.146-2.252 1.354-.004 2.708-.004 4.062 0 2.594.024 4.944 2.273 4.969 4.969.003 1.027.009 2.055 0 3.082-.03 1.857-1.461 3.577-3.342 3.895l-.764 1.501s-.37.535-.894.553zm-3.998-12c-1.557.005-2.987 1.338-3.002 2.981-.003 1.02-.016 2.039 0 3.058.023 1.027.913 1.958 2.002 1.961 0 0 .648.103.892.553l.724 1.447h2.764l.724-1.447c.179-.33.516-.54.894-.553.198-.007.276-.015.392-.038.888-.176 1.599-1.01 1.608-1.949.003-1.017.009-2.034 0-3.05-.024-1.549-1.364-2.948-2.981-2.963-1.339-.004-2.678 0-4.017 0zm-.002 3c.552 0 1 .448 1 1s-.448 1-1 1-1-.448-1-1 .448-1 1-1zm4 0c.552 0 1 .448 1 1s-.448 1-1 1-1-.448-1-1 .448-1 1-1z"/></svg>