<?xml version="1.0"?>
<svg xmlns="http://www.w3.org/2000/svg" viewBox="0 0 32 32" width="512" height="512"><g id="bloods_blood_donation_caring" data-name="bloods, blood, donation, caring"><path d="M22.9263,6.5581a1,1,0,0,0-1.6807,1.084C24.9023,13.3135,27,17.8179,27,20a7,7,0,0,1-14,0c0-3.6724,5.6406-12.3755,7.814-15.4189a1,1,0,1,0-1.628-1.1622,87.1093,87.1093,0,0,0-5.1873,8.2634,58.5222,58.5222,0,0,0-3.8522-6.2638A1,1,0,1,0,8.52,6.5815a51.7862,51.7862,0,0,1,4.3384,7.3417A15.9841,15.9841,0,0,0,11,20c0,.212.0173.42.0319.6282a4.31,4.31,0,0,1-.508.2058A4.3357,4.3357,0,0,1,5,16.667c0-1.2315,1.123-3.7632,3.0815-6.9463A1,1,0,1,0,6.3784,8.6729C4.1367,12.3164,3,15.0059,3,16.667a6.3357,6.3357,0,0,0,8.0742,6.09c.11-.0315.2159-.0743.3239-.1116A9,9,0,0,0,29,20C29,16.6753,25.6973,10.8555,22.9263,6.5581Z"/></g></svg>
