<svg clip-rule="evenodd" fill-rule="evenodd" height="512" stroke-linejoin="round" stroke-miterlimit="2" viewBox="0 0 24 24" width="512" xmlns="http://www.w3.org/2000/svg"><g id="Icon"><path d="m21.797 6.73-8.857-5.231c-.563-.332-1.267-.332-1.831 0l-8.918 5.267c-.871.515-1.189 1.605-.735 2.499v.001c.492.965 1.699 1.336 2.656.812-.001.001 7.91-4.325 7.91-4.325s7.82 4.328 7.82 4.328c.944.523 2.136.185 2.661-.746 0-.001 0-.001 0-.001.514-.915.205-2.066-.706-2.604zm-9.619-3.938 8.856 5.229c.202.12.276.374.162.578-.124.218-.405.292-.627.169l-8.182-4.527c-.224-.124-.497-.125-.722-.002l-8.274 4.524c-.215.117-.487.039-.598-.177-.096-.19-.024-.42.161-.529 0 0 8.917-5.265 8.917-5.265.095-.056.213-.056.307 0z"/><path d="m19.268 9.837-1.749 7.869c-.074.334-.423.544-.802.544h-9.434c-.379 0-.727-.21-.802-.544l-1.749-7.869c-.089-.404-.49-.659-.894-.569-.405.09-.66.491-.57.895l1.749 7.868c.218.981 1.153 1.719 2.266 1.719h9.434c1.113 0 2.049-.738 2.266-1.72 0 .001 1.749-7.867 1.749-7.867.09-.404-.165-.805-.569-.895s-.805.165-.895.569z"/><path d="m10.5 18.25c-.414 0-.75.336-.75.75v2c.001.967.784 1.75 1.751 1.75h.999c.966 0 1.75-.783 1.75-1.75v-2c0-.414-.336-.75-.75-.75zm.75 1.5h1.5v1.25c0 .138-.112.25-.25.25h-1c-.138 0-.249-.112-.25-.25z"/><path d="m15.75 13c0-2.07-1.68-3.75-3.75-3.75-2.069 0-3.75 1.68-3.75 3.75s1.681 3.75 3.75 3.75c2.07 0 3.75-1.68 3.75-3.75zm-1.5 0c0 1.242-1.008 2.25-2.25 2.25s-2.25-1.008-2.25-2.25 1.008-2.25 2.25-2.25 2.25 1.008 2.25 2.25z"/></g></svg>