<svg clip-rule="evenodd" fill-rule="evenodd" height="512" stroke-linejoin="round" stroke-miterlimit="2" viewBox="0 0 24 24" width="512" xmlns="http://www.w3.org/2000/svg"><g id="Icon"><path d="m2.641 19.27s4.717-7.808 11.978-11.359c-2.812 2.738-7.093 7.488-10.284 13.623-.191.368-.048.821.319 1.012s.82.048 1.011-.319c5.014-9.641 12.798-15.757 12.798-15.757.278-.217.366-.599.212-.917-.154-.317-.509-.484-.852-.401-9.77 2.368-16.464 13.339-16.464 13.339-.215.354-.102.816.252 1.031.354.214.815.102 1.03-.252z"/><path d="m16.776 1.374c-.235-.027-.468.058-.631.229 0 0-1.337 1.441-.734 3.106.602 1.665 2.552 1.917 2.552 1.917.235.027.468-.058.631-.229 0 0 1.337-1.441.734-3.106-.602-1.665-2.552-1.917-2.552-1.917zm.216 1.583c.319.11.746.346.926.844s.004.953-.171 1.242c-.319-.11-.746-.346-.926-.844s-.004-.953.171-1.242z"/><path d="m10.881 2.264c-.209-.109-.457-.114-.67-.012 0 0-1.764.869-1.796 2.639s1.7 2.702 1.7 2.702c.209.109.457.113.67.012 0 0 1.764-.869 1.796-2.639.032-1.771-1.7-2.702-1.7-2.702zm-.363 1.555c.259.217.573.59.563 1.12-.009.529-.337.891-.603 1.099-.259-.217-.573-.591-.563-1.12.009-.53.336-.892.603-1.099z"/><path d="m3.235 6.543c-.236-.001-.459.109-.602.297 0 0-1.169 1.581-.386 3.168.783 1.588 2.749 1.623 2.749 1.623.236.001.459-.109.602-.297 0 0 1.169-1.581.386-3.169-.784-1.588-2.749-1.622-2.749-1.622zm.389 1.549c.33.074.78.262 1.014.737.235.475.11.946-.032 1.253-.329-.074-.78-.262-1.014-.737s-.109-.947.032-1.253z"/><path d="m22.464 15.47c.185-.146.291-.371.286-.607 0 0-.069-1.965-1.67-2.72s-3.161.442-3.161.442c-.186.145-.292.37-.287.606 0 0 .069 1.965 1.67 2.721 1.602.755 3.162-.442 3.162-.442zm-1.269-.969c-.304.147-.774.28-1.253.054s-.674-.673-.755-1.001c.305-.147.774-.28 1.253-.054s.675.673.755 1.001z"/><path d="m15.376 16.955c.232.042.471-.029.643-.19 0 0 1.422-1.358.92-3.056-.501-1.698-2.433-2.067-2.433-2.067-.232-.041-.47.029-.643.19 0 0-1.421 1.359-.92 3.057.502 1.698 2.433 2.066 2.433 2.066zm-.121-1.592c-.312-.129-.723-.391-.873-.899s.053-.952.245-1.229c.312.129.724.391.874.898.15.508-.054.952-.245 1.23z"/><path d="m22.682 6.28c.085-.22.062-.467-.063-.668 0 0-1.059-1.656-2.821-1.492-1.763.165-2.497 1.989-2.497 1.989-.086.22-.062.468.062.668 0 0 1.059 1.657 2.822 1.492s2.497-1.989 2.497-1.989zm-1.586-.189c-.187.282-.523.635-1.05.684-.528.05-.924-.235-1.159-.477.186-.281.523-.635 1.05-.684s.923.236 1.159.477z"/><path d="m11.977 19.155c.15-.182.206-.424.15-.654 0 0-.485-1.905-2.211-2.302-1.725-.397-2.995 1.105-2.995 1.105-.15.182-.205.424-.15.654 0 0 .486 1.905 2.211 2.302 1.726.397 2.995-1.105 2.995-1.105zm-1.446-.677c-.266.209-.696.439-1.213.32-.516-.119-.802-.514-.95-.817.265-.208.696-.439 1.212-.32s.802.514.951.817z"/><path d="m11.545 8.665c-.175-.351-.301-.845-.305-1.527-.003-.414-.341-.748-.755-.745s-.748.341-.745.755c.006.979.211 1.683.463 2.187.185.37.635.521 1.006.336.37-.185.521-.635.336-1.006z"/><path d="m5.565 15.263s1.382-1.902.182-4.491c-.174-.376-.62-.54-.995-.366-.376.174-.54.621-.366.996.801 1.728-.048 2.999-.048 2.999-.238.339-.156.807.182 1.045.339.238.807.156 1.045-.183z"/><path d="m11.576 13.127s1.685-.173 3.447 0c1.081.106 2.203.324 2.909.854.331.248.802.181 1.05-.15.249-.332.181-.802-.15-1.05-.894-.671-2.294-1.013-3.663-1.147-1.915-.187-3.745 0-3.745 0-.412.043-.712.411-.67.823s.411.712.822.67z"/></g></svg>