<svg clip-rule="evenodd" fill-rule="evenodd" height="512" stroke-linejoin="round" stroke-miterlimit="2" viewBox="0 0 24 24" width="512" xmlns="http://www.w3.org/2000/svg"><g id="Icon"><path d="m11.867 10.348-1.901 3c-.147.231-.156.524-.024.764.132.239.384.388.657.388h1.438s-1.171 1.848-1.171 1.848c-.222.35-.118.814.232 1.035.349.222.813.118 1.035-.231l1.901-3c.147-.231.156-.524.024-.764-.132-.239-.384-.388-.657-.388h-1.438s1.171-1.848 1.171-1.848c.222-.35.118-.814-.232-1.035-.349-.222-.813-.118-1.035.231z"/><path d="m22.75 7.25c0-.464-.184-.909-.513-1.237-.328-.329-.773-.513-1.237-.513-3.414 0-14.586 0-18 0-.464 0-.909.184-1.237.513-.329.328-.513.773-.513 1.237v11.5c0 .464.184.909.513 1.237.328.329.773.513 1.237.513h18c.464 0 .909-.184 1.237-.513.329-.328.513-.773.513-1.237 0-2.5 0-9 0-11.5zm-1.5 0v11.5c0 .066-.026.13-.073.177s-.111.073-.177.073h-18c-.066 0-.13-.026-.177-.073s-.073-.111-.073-.177c0-2.5 0-9 0-11.5 0-.066.026-.13.073-.177s.111-.073.177-.073h18c.066 0 .13.026.177.073s.073.111.073.177z"/><path d="m9.25 4.25c0-.414-.336-.75-.75-.75h-4c-.414 0-.75.336-.75.75v2c0 .414.336.75.75.75h4c.414 0 .75-.336.75-.75zm-1.5.75v.5h-2.5v-.5z"/><path d="m20.25 4.25c0-.414-.336-.75-.75-.75h-4c-.414 0-.75.336-.75.75v2c0 .414.336.75.75.75h4c.414 0 .75-.336.75-.75zm-1.5.75v.5h-2.5v-.5z"/><path d="m16 11.5h3c.414 0 .75-.336.75-.75s-.336-.75-.75-.75h-3c-.414 0-.75.336-.75.75s.336.75.75.75z"/><path d="m5 11.5h3c.414 0 .75-.336.75-.75s-.336-.75-.75-.75h-3c-.414 0-.75.336-.75.75s.336.75.75.75z"/><path d="m7.25 12.25v-3c0-.414-.336-.75-.75-.75s-.75.336-.75.75v3c0 .414.336.75.75.75s.75-.336.75-.75z"/></g></svg>