<svg clip-rule="evenodd" fill-rule="evenodd" height="512" stroke-linejoin="round" stroke-miterlimit="2" viewBox="0 0 24 24" width="512" xmlns="http://www.w3.org/2000/svg"><g id="Icon"><path d="m12.65 16.9c0 2.346 1.904 4.25 4.25 4.25s4.25-1.904 4.25-4.25-1.904-4.25-4.25-4.25-4.25 1.904-4.25 4.25zm1.5 0c0-1.518 1.232-2.75 2.75-2.75s2.75 1.232 2.75 2.75-1.232 2.75-2.75 2.75-2.75-1.232-2.75-2.75z"/><path d="m16 5.25c.414 0 .75-.336.75-.75 0 0 0-.804 0-1.5 0-.966-.783-1.75-1.75-1.75h-6c-.967 0-1.75.784-1.75 1.75v1.5c0 .414.336.75.75.75zm-.75-1.5h-6.5v-.75c0-.138.112-.25.25-.25h6c.138 0 .25.112.25.25z"/><path d="m22.75 14.5v-9c0-.966-.784-1.75-1.75-1.75h-18c-.966 0-1.75.784-1.75 1.75v12c0 .966.784 1.75 1.75 1.75h8.5c.414 0 .75-.336.75-.75s-.336-.75-.75-.75h-8.5c-.138 0-.25-.112-.25-.25v-12c0-.138.112-.25.25-.25h18c.138 0 .25.112.25.25v9c0 .414.336.75.75.75s.75-.336.75-.75z"/><path d="m18.97 20.03 2.5 2.5c.292.293.768.293 1.06 0 .293-.292.293-.768 0-1.06l-2.5-2.5c-.292-.293-.768-.293-1.06 0-.293.292-.293.768 0 1.06z"/><path d="m6.494 13.564 3.568-3.121s2.522 1.681 2.522 1.681c.282.188.655.164.91-.06l4-3.5c.311-.272.343-.746.07-1.058-.272-.311-.746-.343-1.058-.07l-3.568 3.121s-2.522-1.681-2.522-1.681c-.282-.188-.655-.164-.91.06l-4 3.5c-.311.272-.343.746-.07 1.058.272.311.746.343 1.058.07z"/><path d="m6.349 18.128-2 3.5c-.206.359-.081.818.279 1.023.359.206.818.081 1.023-.279l2-3.5c.206-.359.081-.818-.279-1.023-.359-.206-.818-.081-1.023.279z"/></g></svg>