<svg clip-rule="evenodd" fill-rule="evenodd" stroke-linejoin="round" stroke-miterlimit="2" viewBox="0 0 32 32" xmlns="http://www.w3.org/2000/svg" xmlns:serif="http://www.serif.com/"><path id="atom-galaxy-neutron" d="m0 0h32v32h-32z" fill="none"/><path d="m4.735 4.68c.006-.007.012-.013.018-.019.058-.057.118-.112.179-.165 1.075-.947 2.557-1.336 3.998-1.335 2.676.023 5.227 1.048 7.548 2.464.047.022.085.046.117.073.786.486 1.546 1.016 2.274 1.567 1.668 1.262 3.197 2.702 4.572 4.275 0 0 .436.616.192 1.131-.255.54-1.052.744-1.537.344-.202-.167-.229-.242-.326-.352-1.659-1.865-3.565-3.665-5.658-5.035-3.723 2.343-6.88 5.586-9.02 9.389-1.11 1.971-2.053 4.137-1.919 6.447.051.878.32 1.769.935 2.396 0 0 .005.007.014.019.207.158.405.344.63.469 1.23.689 2.737.544 4.039.249 0 0 .753-.04 1.058.431.335.519.068 1.328-.572 1.504-1.966.543-4.668.466-6.379-1.069-.054-.049-.102-.102-.145-.158-.06-.045-.117-.095-.17-.153-1.546-1.668-1.61-4.352-1.118-6.455.39-1.664 1.042-3.254 1.882-4.756-1.521-2.689-2.675-5.815-1.999-8.713.223-.955.654-1.889 1.387-2.548zm21.146 1.433c-.023-.019-.045-.04-.068-.061-1.216-1.127-3.139-.993-4.604-.661 0 0-.753.04-1.058-.431-.336-.519-.068-1.328.572-1.504.782-.216 1.619-.299 2.458-.294 1.48.017 3.08.418 4.061 1.485.521.367.882 1.088 1.137 1.714.717 1.768.499 3.779-.009 5.564-.409 1.434-.996 2.806-1.724 4.111 1.538 2.727 2.693 5.869 1.996 8.766-.232.965-.637 1.982-1.439 2.561-.028.031-.058.06-.09.089-1.416 1.279-3.59 1.54-5.443 1.263-3.344-.5-6.427-2.294-9.131-4.452-1.439-1.148-2.769-2.43-3.98-3.815 0 0-.33-.385-.282-.815.049-.44.419-.818.855-.879.157-.021.196-.006.247-.003.378.058.392.072.643.337 1.728 1.986 3.704 3.854 5.882 5.261 3.716-2.342 6.867-5.581 9.004-9.378 1.11-1.971 2.053-4.137 1.919-6.447-.052-.878-.32-1.769-.936-2.396 0 0-.003-.005-.01-.015zm-.459 11.876c-1.407 2.019-3.136 3.855-5.016 5.487-.813.706-1.661 1.368-2.548 1.977 1.379.668 2.825 1.132 4.329 1.318.178.022.356.039.535.049.136.007.272.011.407.011 1.002-.003 2.031-.253 2.737-.946 0 0 .007-.005.019-.014.16-.209.349-.412.476-.642.811-1.464.494-3.259.049-4.756-.253-.854-.591-1.682-.988-2.484zm-9.38-5.487c1.686.03 3.225 1.402 3.425 3.075.233 1.943-1.463 3.909-3.467 3.909-1.951 0-3.707-1.909-3.467-3.909.198-1.658 1.699-3.044 3.425-3.075zm-.06 1.996c-1.171.021-1.969 1.718-.984 2.608.729.659 2.118.346 2.431-.667.267-.862-.384-1.887-1.357-1.94-.03-.001-.06-.001-.09-.001zm-1.813-7.982c-1.554-.761-3.191-1.253-4.892-1.348-.135-.007-.271-.011-.407-.011-1.001.003-2.031.253-2.736.946 0 0-.015.012-.041.032-.024.03-.049.06-.076.09-1.049 1.178-.95 2.991-.664 4.36.247 1.182.68 2.319 1.22 3.408 1.469-2.101 3.279-3.993 5.191-5.628.77-.658 1.568-1.276 2.405-1.849z"/></svg>