<svg clip-rule="evenodd" fill-rule="evenodd" height="512" stroke-linejoin="round" stroke-miterlimit="2" viewBox="0 0 24 24" width="512" xmlns="http://www.w3.org/2000/svg"><g id="Icon"><path d="m22 20.5h-20c-.414 0-.75.336-.75.75s.336.75.75.75h20c.414 0 .75-.336.75-.75s-.336-.75-.75-.75z"/><path d="m7.75 18.25v-6c0-.332-.132-.649-.366-.884-.235-.234-.553-.366-.884-.366-.958 0-3.042 0-4 0-.331 0-.649.132-.884.366-.234.235-.366.552-.366.884v6c0 .332.132.649.366.884.235.234.553.366.884.366h4c.331 0 .649-.132.884-.366.234-.235.366-.552.366-.884zm-5-.25h3.5v-5.5h-3.5z"/><path d="m15.25 3.25c0-.331-.132-.649-.366-.884-.235-.234-.553-.366-.884-.366-.958 0-3.042 0-4 0-.331 0-.649.132-.884.366-.234.235-.366.553-.366.884v15c0 .331.132.649.366.884.235.234.553.366.884.366h4c.331 0 .649-.132.884-.366.234-.235.366-.552.366-.884zm-5 14.75h3.5v-14.5h-3.5z"/><path d="m22.75 7.25c0-.332-.132-.649-.366-.884-.235-.234-.553-.366-.884-.366-.958 0-3.042 0-4 0-.331 0-.649.132-.884.366-.234.235-.366.552-.366.884v11c0 .332.132.649.366.884.235.234.553.366.884.366h4c.331 0 .649-.132.884-.366.234-.235.366-.552.366-.884 0-1.952 0-9.048 0-11zm-5 10.75h3.5v-10.5h-3.5z"/></g></svg>