<svg clip-rule="evenodd" fill-rule="evenodd" height="512" stroke-linejoin="round" stroke-miterlimit="2" viewBox="0 0 24 24" width="512" xmlns="http://www.w3.org/2000/svg"><g id="Icon"><path d="m6.5 13.75h5c.464 0 .909-.184 1.237-.513.329-.328.513-.773.513-1.237 0-1.331 0-3.669 0-5 0-.464-.184-.909-.513-1.237-.328-.329-.773-.513-1.237-.513-1.331 0-3.669 0-5 0-.464 0-.909.184-1.237.513-.329.328-.513.773-.513 1.237v5c0 .464.184.909.513 1.237.328.329.773.513 1.237.513zm5-1.5h-5c-.066 0-.13-.026-.177-.073s-.073-.111-.073-.177v-5c0-.066.026-.13.073-.177s.111-.073.177-.073h5c.066 0 .13.026.177.073s.073.111.073.177v5c0 .066-.026.13-.073.177s-.111.073-.177.073z"/><path d="m8.25 6v2c0 .414.336.75.75.75s.75-.336.75-.75v-2c0-.414-.336-.75-.75-.75s-.75.336-.75.75z"/><path d="m14.75 7.531v13.361s-1.471-.588-1.471-.588c-.199-.08-.423-.071-.614.025l-1.665.832s-1.665-.832-1.665-.832c-.211-.105-.459-.105-.67 0l-1.665.832s-1.665-.832-1.665-.832c-.191-.096-.415-.105-.614-.025l-1.471.588v-15.361c0-1.243 1.007-2.25 2.25-2.25h13c.414 0 .75-.336.75-.75s-.336-.75-.75-.75c0 0-8.367 0-13 0-2.071 0-3.75 1.679-3.75 3.75v16.469c0 .249.123.482.33.621.206.14.467.168.699.075l2.187-.875s1.699.85 1.699.85c.211.105.459.105.67 0l1.665-.832s1.665.832 1.665.832c.211.105.459.105.67 0l1.699-.85s2.187.875 2.187.875c.232.093.493.065.699-.075.207-.139.33-.372.33-.621v-14.469c0-.414-.336-.75-.75-.75s-.75.336-.75.75z"/><path d="m18.501 1.78c-.995 0-1.949.394-2.652 1.098-.704.703-1.099 1.657-1.099 2.652v5.501c0 .414.336.75.75.75h5c.464 0 .909-.185 1.237-.513.329-.328.513-.773.513-1.237v-4.501c0-2.071-1.678-3.749-3.749-3.75zm0 1.5c1.242 0 2.249 1.008 2.249 2.25v4.501c0 .066-.026.13-.073.177s-.111.073-.177.073h-4.25v-4.751c0-.597.237-1.169.659-1.591s.995-.659 1.592-.659z"/><path d="m9 16.25h3.5c.414 0 .75-.336.75-.75s-.336-.75-.75-.75h-3.5c-.414 0-.75.336-.75.75s.336.75.75.75z"/><path d="m5.5 16.25h1c.414 0 .75-.336.75-.75s-.336-.75-.75-.75h-1c-.414 0-.75.336-.75.75s.336.75.75.75z"/><path d="m9 18.75h3.5c.414 0 .75-.336.75-.75s-.336-.75-.75-.75h-3.5c-.414 0-.75.336-.75.75s.336.75.75.75z"/><path d="m5.5 18.75h1c.414 0 .75-.336.75-.75s-.336-.75-.75-.75h-1c-.414 0-.75.336-.75.75s.336.75.75.75z"/></g></svg>