<svg clip-rule="evenodd" fill-rule="evenodd" height="512" stroke-linejoin="round" stroke-miterlimit="2" viewBox="0 0 24 24" width="512" xmlns="http://www.w3.org/2000/svg"><g id="Icon"><path d="m22.75 14.691v-8.912c0-1.713-1.389-3.103-3.103-3.103-3.849 0-11.445 0-15.294 0-1.714 0-3.103 1.39-3.103 3.103v8.912c0 .823.327 1.612.909 2.194s1.371.909 2.194.909h1.31s2.519 3.24 2.519 3.24c.143.183.361.29.593.29.231 0 .449-.107.592-.29l2.519-3.24h7.761c.823 0 1.612-.327 2.194-.909s.909-1.371.909-2.194zm-1.5-8.912v8.912c0 .425-.169.833-.469 1.134-.301.3-.709.469-1.134.469h-8.127c-.232 0-.45.107-.592.29l-2.153 2.768s-2.154-2.768-2.154-2.768c-.142-.183-.36-.29-.592-.29h-1.676c-.425 0-.833-.169-1.134-.469-.3-.301-.469-.709-.469-1.134v-8.912c0-.885.718-1.603 1.603-1.603h15.294c.885 0 1.603.718 1.603 1.603z"/><path d="m15.75 9.329c0-.414-.336-.75-.75-.75h-.807c-.84 0-1.646.334-2.241.928-.594.595-.928 1.401-.928 2.241v.807c0 .414.336.75.75.75h.806c.841 0 1.647-.334 2.242-.928.594-.595.928-1.401.928-2.242zm-1.5.75v.056c0 .443-.176.868-.489 1.181s-.738.489-1.181.489h-.056v-.057c0-.442.176-.867.489-1.18s.738-.489 1.18-.489z"/><path d="m8.547 8.579c-.414 0-.75.336-.75.75v.806c0 .841.334 1.647.929 2.242.594.594 1.401.928 2.241.928h.807c.414 0 .75-.336.75-.75v-.807c0-.84-.334-1.646-.929-2.241-.594-.594-1.4-.928-2.241-.928zm.75 1.5h.057c.443 0 .868.176 1.181.489s.489.738.489 1.18v.057h-.057c-.443 0-.867-.176-1.18-.489-.314-.313-.49-.738-.49-1.181z"/><path d="m12.304 5.47c-.293-.293-.768-.293-1.061 0l-.57.57c-.594.594-.928 1.401-.928 2.241 0 .841.334 1.647.928 2.242 0 0 .57.57.57.57.293.293.768.293 1.061 0l.57-.57c.595-.595.929-1.401.929-2.242 0-.84-.334-1.647-.929-2.241 0 0-.57-.57-.57-.57zm-.53 1.591.04.04c.313.313.489.737.489 1.18s-.176.868-.489 1.181l-.04.04-.04-.04c-.313-.313-.489-.738-.489-1.181s.176-.867.489-1.18z"/><path d="m11.024 11.774v2.226c0 .414.336.75.75.75s.75-.336.75-.75v-2.226c0-.414-.336-.75-.75-.75s-.75.336-.75.75z"/></g></svg>