<svg clip-rule="evenodd" fill-rule="evenodd" height="512" stroke-linejoin="round" stroke-miterlimit="2" viewBox="0 0 24 24" width="512" xmlns="http://www.w3.org/2000/svg"><g id="Icon"><path d="m9 16h6.5c.414 0 .75-.336.75-.75s-.336-.75-.75-.75h-6.5c-.414 0-.75.336-.75.75s.336.75.75.75z"/><path d="m19.5 16h1c.597 0 1.169-.237 1.591-.659s.659-.994.659-1.591v-1.329c0-1.032-.703-1.932-1.704-2.183 0 0-2.63-.657-2.63-.657-.038-.01-.074-.028-.104-.054l-3.535-3.094c-.319-.279-.729-.433-1.153-.433-1.172 0-4.765 0-6.109 0-.566 0-1.096.273-1.424.733l-1.902 2.662c-.047.066-.123.105-.204.105h-.485c-1.243 0-2.25 1.007-2.25 2.25v2c0 .597.237 1.169.659 1.591s.994.659 1.591.659h1.5c.414 0 .75-.336.75-.75s-.336-.75-.75-.75h-1.5c-.199 0-.39-.079-.53-.22-.141-.14-.22-.331-.22-.53 0-.633 0-1.367 0-2 0-.414.336-.75.75-.75h.485c.566 0 1.096-.273 1.424-.733l1.902-2.662c.047-.066.123-.105.204-.105h6.109c.061 0 .119.022.165.062l3.535 3.093c.209.183.459.314.728.381l2.63.658c.334.083.568.383.568.727v1.329c0 .199-.079.39-.22.53-.14.141-.331.22-.53.22h-1c-.414 0-.75.336-.75.75s.336.75.75.75z"/><path d="m8.75 9.5h-5.25c-.414 0-.75.336-.75.75s.336.75.75.75h5.5c.69 0 1.25-.56 1.25-1.25v-3c0-.414-.336-.75-.75-.75s-.75.336-.75.75z"/><path d="m12.25 9.5v-2.75c0-.414-.336-.75-.75-.75s-.75.336-.75.75v3c0 .69.56 1.25 1.25 1.25h6c.414 0 .75-.336.75-.75s-.336-.75-.75-.75z"/><path d="m7 12.5c-1.518 0-2.75 1.232-2.75 2.75s1.232 2.75 2.75 2.75 2.75-1.232 2.75-2.75-1.232-2.75-2.75-2.75zm0 1.5c.69 0 1.25.56 1.25 1.25s-.56 1.25-1.25 1.25-1.25-.56-1.25-1.25.56-1.25 1.25-1.25z"/><path d="m17.5 12.5c-1.518 0-2.75 1.232-2.75 2.75s1.232 2.75 2.75 2.75 2.75-1.232 2.75-2.75-1.232-2.75-2.75-2.75zm0 1.5c.69 0 1.25.56 1.25 1.25s-.56 1.25-1.25 1.25-1.25-.56-1.25-1.25.56-1.25 1.25-1.25z"/></g></svg>