<svg clip-rule="evenodd" fill-rule="evenodd" height="512" stroke-linejoin="round" stroke-miterlimit="2" viewBox="0 0 24 24" width="512" xmlns="http://www.w3.org/2000/svg"><g id="Icon"><path d="m10.47 10.443c-.153.137-.242.332-.248.537-.005.206.074.405.22.55l2 2c.145.146.344.225.55.22.205-.006.4-.095.537-.248l9-10c.124-.138.193-.317.193-.502 0-.966-.784-1.75-1.75-1.75-.185 0-.364.069-.502.193zm10.412-7.353-7.939 8.821-.882-.882z"/><path d="m12.972 22.75h9c.414 0 .75-.336.75-.75s-.336-.75-.75-.75h-9c-.414 0-.75.336-.75.75s.336.75.75.75z"/><path d="m11.502 10.47c-.14-.141-.331-.22-.53-.22-3.242 0-5.991 2.383-6.449 5.594-.147 1.023-.806 1.899-1.748 2.324 0 0-1.055.476-1.055.476-.241.109-.407.336-.437.598s.079.521.289.681l2.106 1.615c1.025.786 2.28 1.212 3.572 1.212 1.749 0 3.407-.78 4.522-2.125 0 0 .001 0 .001-.001 1.26-1.521 1.949-3.434 1.949-5.41v-2.214c0-.199-.079-.39-.22-.53zm-8.023 9.025c1.364-.65 2.314-1.939 2.528-3.439.339-2.371 2.3-4.156 4.663-4.297l1.552 1.552v1.903c0 1.626-.567 3.201-1.605 4.453-.83 1.003-2.064 1.583-3.367 1.583-.962 0-1.897-.318-2.66-.902z"/></g></svg>