<svg clip-rule="evenodd" fill-rule="evenodd" height="512" stroke-linejoin="round" stroke-miterlimit="2" viewBox="0 0 24 24" width="512" xmlns="http://www.w3.org/2000/svg"><g id="Icon"><circle cx="6" cy="12" r="1"/><path d="m10 12.75h6c.414 0 .75-.336.75-.75s-.336-.75-.75-.75h-6c-.414 0-.75.336-.75.75s.336.75.75.75z"/><path d="m14.75 18.5c0 .303.183.577.463.693s.603.052.817-.163l6.5-6.5c.293-.293.293-.767 0-1.06l-6.5-6.5c-.214-.215-.537-.279-.817-.163s-.463.39-.463.693v2.25h-12.75c-.414 0-.75.336-.75.75v7c0 .414.336.75.75.75h12.75zm1.5-1.811v-1.189c0-.414-.336-.75-.75-.75h-12.75v-5.5h12.75c.414 0 .75-.336.75-.75v-1.189s4.689 4.689 4.689 4.689z"/></g></svg>