<svg clip-rule="evenodd" fill-rule="evenodd" height="512" stroke-linejoin="round" stroke-miterlimit="2" viewBox="0 0 24 24" width="512" xmlns="http://www.w3.org/2000/svg"><g id="Icon"><path d="m6.377 6.543c-.205-.028-.414-.043-.627-.043-2.484 0-4.5 2.016-4.5 4.5s2.016 4.5 4.5 4.5h11.75c2.898 0 5.25-2.352 5.25-5.25s-2.352-5.25-5.25-5.25c-.148 0-.295.006-.441.018-.972-1.796-2.874-3.018-5.059-3.018-2.76 0-5.068 1.948-5.623 4.543zm.379 1.63c.223.079.47.049.667-.082.197-.13.321-.346.334-.582.125-2.234 1.978-4.009 4.243-4.009 1.77 0 3.288 1.084 3.927 2.624.137.33.488.517.839.448.238-.047.483-.072.734-.072 2.07 0 3.75 1.68 3.75 3.75s-1.68 3.75-3.75 3.75h-11.75c-1.656 0-3-1.344-3-3s1.344-3 3-3c.353 0 .692.061 1.006.173z"/><path d="m12 17c-1.38 0-2.5 1.12-2.5 2.5s1.12 2.5 2.5 2.5 2.5-1.12 2.5-2.5-1.12-2.5-2.5-2.5zm0 1.5c.552 0 1 .448 1 1s-.448 1-1 1-1-.448-1-1 .448-1 1-1z"/><path d="m11.25 14.75v3c0 .414.336.75.75.75s.75-.336.75-.75v-3c0-.414-.336-.75-.75-.75s-.75.336-.75.75z"/><path d="m13.75 20.25h6c.414 0 .75-.336.75-.75s-.336-.75-.75-.75h-6c-.414 0-.75.336-.75.75s.336.75.75.75z"/><path d="m4.25 20.25h6c.414 0 .75-.336.75-.75s-.336-.75-.75-.75h-6c-.414 0-.75.336-.75.75s.336.75.75.75z"/></g></svg>