<svg clip-rule="evenodd" fill-rule="evenodd" height="512" stroke-linejoin="round" stroke-miterlimit="2" viewBox="0 0 24 24" width="512" xmlns="http://www.w3.org/2000/svg"><g id="Icon"><path d="m8.67 10.67c-.293.293-.293.767 0 1.06l2.4 2.4c.142.143.337.222.539.22s.394-.086.533-.232c1.349-1.413 2.839-1.001 2.839-1.001.264.081.551.01.747-.184 5.035-4.99 6.976-10.273 6.976-10.273.099-.271.035-.575-.165-.782-.201-.207-.503-.281-.776-.19l-6 2c-.111.037-.211.099-.293.182zm1.591.53 6.144-6.144s4.215-1.405 4.215-1.405c-.882 1.783-2.678 4.894-5.67 7.937-.681-.086-2.008-.072-3.326.975z"/><path d="m9.2 17.061.316.316c.235.234.552.366.884.366s.649-.132.884-.366l1.057-1.057c.296-.296.424-.72.342-1.129l-.348-1.738c-.029-.145-.1-.279-.205-.383l-2.446-2.447c-.488-.488-1.28-.488-1.768 0-.916.916-3.364 3.365-4.387 4.388-.361.361-.662.778-.89 1.234l-.75 1.5c-.486.972-.207 2.154.662 2.806l.672.504c.552.414 1.264.552 1.931.374.667-.179 1.215-.653 1.487-1.288l.297-.692c.062-.146.152-.279.265-.391zm-.4-5.2 2.109 2.109.277 1.383-.786.786-.316-.316c-.235-.234-.552-.366-.884-.366-.331 0-.649.132-.884.366l-2.174 2.174c-.247.248-.445.54-.583.862 0 0-.297.691-.297.691-.09.212-.273.37-.495.429-.223.06-.46.014-.644-.124l-.671-.504c-.29-.217-.383-.611-.221-.935l.75-1.5c.156-.312.361-.598.608-.845z"/></g></svg>