<?xml version="1.0"?>
<svg xmlns="http://www.w3.org/2000/svg" viewBox="0 0 32 32" width="512" height="512"><path d="M26,9H24a1,1,0,0,0,0,2h2a1.0013,1.0013,0,0,1,1,1V24a1,1,0,0,1-1,1H6a1,1,0,0,1-1-1V12a1.0013,1.0013,0,0,1,1-1H8A1,1,0,0,0,8,9H6a3.0033,3.0033,0,0,0-3,3V24a2.9794,2.9794,0,0,0,.8789,2.1211A3.02,3.02,0,0,0,6,27H26a3.02,3.02,0,0,0,2.1211-.8789A2.9794,2.9794,0,0,0,29,24V12A3.0033,3.0033,0,0,0,26,9Z"/><path d="M13.28,14.623A1,1,0,0,0,14.72,13.2354l-.8286-.8594A3.2358,3.2358,0,0,1,13,10.1421a3.0032,3.0032,0,1,1,6,0,3.2358,3.2358,0,0,1-.8911,2.2339l-2.8281,2.9292a1,1,0,1,0,1.4384,1.39l2.8282-2.9292A5.1831,5.1831,0,0,0,21,10.1421a5.002,5.002,0,1,0-10,0,5.1838,5.1838,0,0,0,1.4536,3.6245Z"/><path d="M14,21a1,1,0,0,0,0,2h4a1,1,0,0,0,0-2Z"/></svg>
