<svg clip-rule="evenodd" fill-rule="evenodd" height="512" stroke-linejoin="round" stroke-miterlimit="2" viewBox="0 0 24 24" width="512" xmlns="http://www.w3.org/2000/svg"><g id="Icon"><path d="m10.8 22.25c.517 0 1.013-.205 1.379-.571s.571-.862.571-1.379v-7.1c0-.517-.205-1.013-.571-1.379s-.862-.571-1.379-.571c-2.299 0-5.301 0-7.6 0-.517 0-1.013.205-1.379.571s-.571.862-.571 1.379v7.1c0 .517.205 1.013.571 1.379s.862.571 1.379.571zm0-1.5h-7.6c-.119 0-.234-.047-.318-.132-.085-.084-.132-.199-.132-.318v-7.1c0-.119.047-.234.132-.318.084-.085.199-.132.318-.132h7.6c.119 0 .234.047.318.132.085.084.132.199.132.318v7.1c0 .119-.047.234-.132.318-.084.085-.199.132-.318.132z"/><path d="m20.8 22.25c.517 0 1.013-.205 1.379-.571s.571-.862.571-1.379v-7.1c0-.517-.205-1.013-.571-1.379s-.862-.571-1.379-.571c-2.299 0-5.301 0-7.6 0-.517 0-1.013.205-1.379.571s-.571.862-.571 1.379v7.1c0 .517.205 1.013.571 1.379s.862.571 1.379.571zm0-1.5h-7.6c-.119 0-.234-.047-.318-.132-.085-.084-.132-.199-.132-.318v-7.1c0-.119.047-.234.132-.318.084-.085.199-.132.318-.132h7.6c.119 0 .234.047.318.132.085.084.132.199.132.318v7.1c0 .119-.047.234-.132.318-.084.085-.199.132-.318.132z"/><path d="m15.8 12.75c.517 0 1.013-.205 1.379-.571s.571-.862.571-1.379v-7.1c0-.517-.205-1.013-.571-1.379s-.862-.571-1.379-.571c-2.299 0-5.301 0-7.6 0-.517 0-1.013.205-1.379.571s-.571.862-.571 1.379v7.1c0 .517.205 1.013.571 1.379s.862.571 1.379.571zm0-1.5h-7.6c-.119 0-.234-.047-.318-.132-.085-.084-.132-.199-.132-.318v-7.1c0-.119.047-.234.132-.318.084-.085.199-.132.318-.132h7.6c.119 0 .234.047.318.132.085.084.132.199.132.318v7.1c0 .119-.047.234-.132.318-.084.085-.199.132-.318.132z"/><path d="m9.75 12c0-.414-.336-.75-.75-.75h-4c-.414 0-.75.336-.75.75v2.9c0 .372.163.735.477.999.262.22.616.351.987.351h2.572c.371 0 .725-.131.987-.351.314-.264.477-.627.477-.999 0-.875 0-2.9 0-2.9zm-1.5 2.75h-2.5v-2h2.5z"/><path d="m19.75 12c0-.414-.336-.75-.75-.75h-4c-.414 0-.75.336-.75.75v2.9c0 .372.163.735.477.999.262.22.616.351.987.351h2.572c.371 0 .725-.131.987-.351.314-.264.477-.627.477-.999 0-.875 0-2.9 0-2.9zm-1.5 2.75h-2.5v-2h2.5z"/><path d="m14.75 2.5c0-.414-.336-.75-.75-.75h-4c-.414 0-.75.336-.75.75v2.9c0 .372.163.735.477.999.262.22.616.351.987.351h2.572c.371 0 .725-.131.987-.351.314-.264.477-.627.477-.999 0-.875 0-2.9 0-2.9zm-1.5 2.75h-2.5v-2h2.5z"/></g></svg>