<svg clip-rule="evenodd" fill-rule="evenodd" height="512" stroke-linejoin="round" stroke-miterlimit="2" viewBox="0 0 24 24" width="512" xmlns="http://www.w3.org/2000/svg"><g id="Icon"><path d="m22.75 11.1v-.2c0-.911-.739-1.65-1.65-1.65-3.323 0-14.877 0-18.2 0-.911 0-1.65.739-1.65 1.65v.2c0 .911.739 1.65 1.65 1.65h18.2c.911 0 1.65-.739 1.65-1.65zm-1.5 0c0 .083-.067.15-.15.15h-18.2c-.083 0-.15-.067-.15-.15v-.2c0-.083.067-.15.15-.15h18.2c.083 0 .15.067.15.15z"/><path d="m20.08 19.597c.573-2.579 1.652-7.434 1.652-7.434.049-.222-.005-.455-.147-.632-.142-.178-.358-.281-.585-.281h-18c-.227 0-.443.103-.585.281-.142.177-.196.41-.147.632 0 0 1.079 4.855 1.652 7.434.279 1.258 1.395 2.153 2.684 2.153h10.792c1.289 0 2.405-.895 2.684-2.153zm-1.464-.326c-.127.572-.634.979-1.22.979h-10.792c-.586 0-1.093-.407-1.22-.979l-1.449-6.521h16.13s-1.449 6.521-1.449 6.521z"/><path d="m5.09 10.463 5.5-7c.255-.325.199-.797-.127-1.053-.325-.255-.797-.199-1.053.127l-5.5 7c-.255.325-.199.797.127 1.053.325.255.797.199 1.053-.127z"/><path d="m20.09 9.537-5.5-7c-.256-.326-.728-.382-1.053-.127-.326.256-.382.728-.127 1.053l5.5 7c.256.326.728.382 1.053.127.326-.256.382-.728.127-1.053z"/></g></svg>