<svg height="512" viewBox="0 0 32 32" width="512" xmlns="http://www.w3.org/2000/svg"><g id="blog_blogger_blogspot_post_web" data-name="blog, blogger, blogspot, post, web"><path d="m26 12h-2v-4a5 5 0 0 0 -5-5h-11a5 5 0 0 0 -5 5v12a1 1 0 0 0 2 0v-12a3 3 0 0 1 3-3h11a3 3 0 0 1 3 3v5a1 1 0 0 0 1 1h3a1 1 0 0 1 1 1v9a3 3 0 0 1 -3 3h-16a3 3 0 0 1 -3-3 1 1 0 0 0 -2 0 5 5 0 0 0 5 5h16a5 5 0 0 0 5-5v-9a3 3 0 0 0 -3-3z"/><path d="m11.5 14h4a2.5 2.5 0 0 0 0-5h-4a2.5 2.5 0 0 0 0 5zm0-3h4a.5.5 0 0 1 0 1h-4a.5.5 0 0 1 0-1z"/><path d="m11.5 23h9a2.5 2.5 0 0 0 0-5h-9a2.5 2.5 0 0 0 0 5zm0-3h9a.5.5 0 0 1 0 1h-9a.5.5 0 0 1 0-1z"/></g></svg>