<svg clip-rule="evenodd" fill-rule="evenodd" stroke-linejoin="round" stroke-miterlimit="1.414" viewBox="0 0 32 32" xmlns="http://www.w3.org/2000/svg" xmlns:serif="http://www.serif.com/"><path id="stethoscope-doctor-hospital" d="m0 0h32v32h-32z" fill="none"/><path d="m24.997 23.17c.007-5.404.085-10.809-.001-16.212-.02-.9-.701-1.736-1.595-1.919-1.14-.233-2.39.689-2.402 1.945-.018 5.677.018 11.354 0 17.031-.024 2.581-2.271 4.94-4.965 4.965-1.266.004-2.526.125-3.685-.282-1.927-.677-3.334-2.608-3.341-4.712v-2c.029-.612.6-1.094 1.235-.971.434.127.742.512.764.971 0 1.029-.148 2.106.175 3.009.41 1.145 1.553 1.975 2.804 1.987 1.318.004 2.713.167 3.726-.535.786-.546 1.28-1.48 1.289-2.444.017-5.686-.054-11.372 0-17.057.028-1.786 1.366-3.468 3.143-3.855 2.304-.501 4.843 1.369 4.851 3.904v16.185c1.244.489 2.164 1.826 1.969 3.221-.198 1.414-1.533 2.579-2.969 2.579-1.727 0-3.27-1.743-2.951-3.527.186-1.036.966-1.915 1.953-2.283zm.985 1.813c-.764.015-1.31 1.103-.684 1.714.626.612 2.176-.088 1.577-1.189-.173-.319-.521-.527-.893-.525zm-17.898-21.98c.551.062.626.25.751.433.423.621-.116 1.541-.925 1.564-1.521.053-2.883 1.375-2.899 2.975-.004 1.35-.004 2.699 0 4.049.02 2.143 1.554 4.172 3.602 4.767 1.657.481 3.555.028 4.816-1.157.982-.923 1.562-2.246 1.575-3.61.004-1.356.012-2.713-.001-4.069-.024-1.544-1.364-2.951-2.997-2.957 0 0-.606-.05-.865-.499-.374-.647.172-1.535 1.091-1.494 2.494.111 4.728 2.275 4.77 4.925.013 1.355 0 2.71 0 4.065-.009 2.981-2.115 5.826-4.96 6.691-2.341.711-5.04.082-6.825-1.596-1.376-1.293-2.186-3.144-2.204-5.053-.004-1.359-.004-2.717 0-4.075.025-2.59 2.268-4.953 4.992-4.962.027 0 .053.002.079.003z" fill-rule="nonzero"/></svg>