<?xml version="1.0"?>
<svg xmlns="http://www.w3.org/2000/svg" viewBox="0 0 32 32" width="512" height="512"><g id="earphone_earbud" data-name="earphone, earbud"><path d="M14,11h1.0049A3.9994,3.9994,0,0,0,19,7.0049v-2.01A3.9994,3.9994,0,0,0,15.0049,1H14a3.0033,3.0033,0,0,0-3,3V7A2.0006,2.0006,0,0,0,9,9v3a1,1,0,0,1-2,0V7.998A2.9947,2.9947,0,0,1,8.499,5.4014a1,1,0,1,0-.998-1.7325A4.9955,4.9955,0,0,0,5,7.998V12a3.02,3.02,0,0,0,.8789,2.1211A2.9734,2.9734,0,0,0,7,14.8181V30a1,1,0,0,0,2,0V14.8157A2.995,2.995,0,0,0,11,12V9h.1843A2.995,2.995,0,0,0,14,11ZM13,4a1.0009,1.0009,0,0,1,1-1h1.0049A1.997,1.997,0,0,1,17,4.9951v2.01A1.997,1.997,0,0,1,15.0049,9H14a1.0009,1.0009,0,0,1-1-1Z"/><path d="M25.5371,16.4653a4.9288,4.9288,0,0,0-1.0381-.7964,1,1,0,1,0-.998,1.7325A2.9972,2.9972,0,0,1,25,19.998V24a1,1,0,0,1-2,0V21a2.0006,2.0006,0,0,0-2-2V16a3.0033,3.0033,0,0,0-3-3H16.9951A3.9994,3.9994,0,0,0,13,16.9951v2.01A3.9994,3.9994,0,0,0,16.9951,23H18a2.995,2.995,0,0,0,2.8157-2H21v3a2.995,2.995,0,0,0,2,2.8157V30a1,1,0,0,0,2,0V26.8181a2.9734,2.9734,0,0,0,1.1211-.697A3.02,3.02,0,0,0,27,24V19.998A4.961,4.961,0,0,0,25.5371,16.4653ZM18,21H16.9951A1.997,1.997,0,0,1,15,19.0049v-2.01A1.997,1.997,0,0,1,16.9951,15H18a1.0009,1.0009,0,0,1,1,1v4A1.0009,1.0009,0,0,1,18,21Z"/></g></svg>
