<?xml version="1.0"?>
<svg xmlns="http://www.w3.org/2000/svg" viewBox="0 0 32 32" width="512" height="512"><g id="bone_die_skull_osteology" data-name="bone, die, skull, osteology"><path d="M14,15a1,1,0,1,0,1,1A1,1,0,0,0,14,15Z"/><path d="M18,15a1,1,0,1,0,1,1A1,1,0,0,0,18,15Z"/><path d="M23,15a5,5,0,0,0-5-5H14a5,5,0,0,0-5,5v3a4.0063,4.0063,0,0,0,3.3564,3.9482l.7491,1.4991A1,1,0,0,0,14,24h4a1,1,0,0,0,.8945-.5527l.7491-1.4991A4.0063,4.0063,0,0,0,23,18Zm-2,3a2.0023,2.0023,0,0,1-2,2,1,1,0,0,0-.8945.5527L17.3818,22H14.6182l-.7237-1.4473A1,1,0,0,0,13,20a2.0023,2.0023,0,0,1-2-2V15a3.0016,3.0016,0,0,1,3-3h4a3.0016,3.0016,0,0,1,3,3Z"/><path d="M23.4063,9.5938a.9969.9969,0,0,0,.707-.293L26.4141,7H28a1,1,0,0,0,0-2H27V4a1,1,0,0,0-2,0V5.5859L22.6992,7.8867a1,1,0,0,0,.7071,1.7071Z"/><path d="M4,7H5.5859L7.8867,9.3008A1,1,0,0,0,9.3008,7.8867L7,5.5859V4A1,1,0,0,0,5,4V5H4A1,1,0,0,0,4,7Z"/><path d="M28,25H26.4141l-2.3008-2.3008a1,1,0,0,0-1.4141,1.4141L25,26.4141V28a1,1,0,0,0,2,0V27h1a1,1,0,0,0,0-2Z"/><path d="M7.8867,22.6992,5.5859,25H4a1,1,0,0,0,0,2H5v1a1,1,0,0,0,2,0V26.4141l2.3008-2.3008a1,1,0,0,0-1.4141-1.4141Z"/></g></svg>
