<svg clip-rule="evenodd" fill-rule="evenodd" height="512" stroke-linejoin="round" stroke-miterlimit="2" viewBox="0 0 24 24" width="512" xmlns="http://www.w3.org/2000/svg"><g id="Icon"><path d="m22.75 11v-7c0-.729-.29-1.429-.805-1.945-.516-.515-1.216-.805-1.945-.805-3.832 0-12.168 0-16 0-.729 0-1.429.29-1.945.805-.515.516-.805 1.216-.805 1.945v14c0 .729.29 1.429.805 1.945.516.515 1.216.805 1.945.805h7c.414 0 .75-.336.75-.75s-.336-.75-.75-.75c0 0-4.348 0-7 0-.332 0-.649-.132-.884-.366-.234-.235-.366-.552-.366-.884v-14c0-.332.132-.649.366-.884.235-.234.552-.366.884-.366h16c.332 0 .649.132.884.366.234.235.366.552.366.884v7c0 .414.336.75.75.75s.75-.336.75-.75z"/><path d="m2 7.75h20c.414 0 .75-.336.75-.75s-.336-.75-.75-.75h-20c-.414 0-.75.336-.75.75s.336.75.75.75z"/><path d="m8.5 5.25h1c.414 0 .75-.336.75-.75s-.336-.75-.75-.75h-1c-.414 0-.75.336-.75.75s.336.75.75.75z"/><path d="m5 5.25h1c.414 0 .75-.336.75-.75s-.336-.75-.75-.75h-1c-.414 0-.75.336-.75.75s.336.75.75.75z"/><path d="m13.082 21.503c.234.7.866 1.19 1.601 1.242.736.053 1.431-.343 1.761-1.003l1.766-3.532 3.532-1.766c.66-.33 1.056-1.025 1.003-1.761-.052-.735-.542-1.367-1.242-1.601-2.621-.873-6.405-1.923-8.852-2.738-.656-.219-1.378-.048-1.867.44-.488.489-.659 1.211-.44 1.867.815 2.447 1.865 6.231 2.738 8.852zm1.423-.474c-.873-2.621-1.923-6.406-2.738-8.853-.039-.116-.009-.244.078-.331s.215-.117.331-.078c2.447.815 6.232 1.865 8.853 2.738.124.042.211.154.22.285.009.13-.061.254-.178.312 0 0-3.756 1.878-3.756 1.878-.145.073-.262.19-.335.335l-1.878 3.756c-.058.117-.182.187-.312.178-.131-.009-.243-.096-.285-.22z"/></g></svg>