<svg clip-rule="evenodd" fill-rule="evenodd" height="512" stroke-linejoin="round" stroke-miterlimit="2" viewBox="0 0 24 24" width="512" xmlns="http://www.w3.org/2000/svg"><g id="Icon"><path d="m22.75 7.5c0-.729-.29-1.429-.805-1.945-.516-.515-1.216-.805-1.945-.805-3.271 0-9.729 0-13 0-.729 0-1.429.29-1.945.805-.515.516-.805 1.216-.805 1.945v9c0 .729.29 1.429.805 1.945.516.515 1.216.805 1.945.805h.25v2.25c0 .284.161.544.415.671s.558.099.785-.071l3.8-2.85h7.75c.729 0 1.429-.29 1.945-.805.515-.516.805-1.216.805-1.945 0-2.444 0-6.556 0-9zm-1.5 0v9c0 .332-.132.649-.366.884-.235.234-.552.366-.884.366h-8c-.162 0-.32.053-.45.15l-2.8 2.1v-1.5c0-.414-.336-.75-.75-.75h-1c-.332 0-.649-.132-.884-.366-.234-.235-.366-.552-.366-.884 0-2.444 0-6.556 0-9 0-.332.132-.649.366-.884.235-.234.552-.366.884-.366h13c.332 0 .649.132.884.366.234.235.366.552.366.884z"/><path d="m19.75 5.5v-1c0-.729-.29-1.429-.805-1.945-.516-.515-1.216-.805-1.945-.805-3.271 0-9.729 0-13 0-.729 0-1.429.29-1.945.805-.515.516-.805 1.216-.805 1.945v9c0 .729.29 1.429.805 1.945.516.515 1.216.805 1.945.805h1c.414 0 .75-.336.75-.75s-.336-.75-.75-.75h-1c-.332 0-.649-.132-.884-.366-.234-.235-.366-.552-.366-.884 0-2.444 0-6.556 0-9 0-.332.132-.649.366-.884.235-.234.552-.366.884-.366h13c.332 0 .649.132.884.366.234.235.366.552.366.884v1c0 .414.336.75.75.75s.75-.336.75-.75z"/><path d="m9 10.25h4c.414 0 .75-.336.75-.75s-.336-.75-.75-.75h-4c-.414 0-.75.336-.75.75s.336.75.75.75z"/><path d="m9 13.25h1c.414 0 .75-.336.75-.75s-.336-.75-.75-.75h-1c-.414 0-.75.336-.75.75s.336.75.75.75z"/><path d="m12.5 13.25h5.5c.414 0 .75-.336.75-.75s-.336-.75-.75-.75h-5.5c-.414 0-.75.336-.75.75s.336.75.75.75z"/><path d="m9 15.75h9c.414 0 .75-.336.75-.75s-.336-.75-.75-.75h-9c-.414 0-.75.336-.75.75s.336.75.75.75z"/></g></svg>