<svg clip-rule="evenodd" fill-rule="evenodd" height="512" stroke-linejoin="round" stroke-miterlimit="2" viewBox="0 0 24 24" width="512" xmlns="http://www.w3.org/2000/svg"><g id="Icon"><path d="m22.75 6c0-1.26-.5-2.468-1.391-3.359s-2.099-1.391-3.359-1.391h-12c-1.26 0-2.468.5-3.359 1.391s-1.391 2.099-1.391 3.359v12c0 1.26.5 2.468 1.391 3.359s2.099 1.391 3.359 1.391h12c1.26 0 2.468-.5 3.359-1.391s1.391-2.099 1.391-3.359zm-1.5 0v12c0 .862-.342 1.689-.952 2.298-.609.61-1.436.952-2.298.952h-12c-.862 0-1.689-.342-2.298-.952-.61-.609-.952-1.436-.952-2.298v-12c0-.862.342-1.689.952-2.298.609-.61 1.436-.952 2.298-.952h12c.862 0 1.689.342 2.298.952.61.609.952 1.436.952 2.298z"/><path d="m8.75 16v-4c0-.414-.336-.75-.75-.75s-.75.336-.75.75v4c0 .414.336.75.75.75s.75-.336.75-.75z"/><path d="m12.75 16v-8c0-.414-.336-.75-.75-.75s-.75.336-.75.75v8c0 .414.336.75.75.75s.75-.336.75-.75z"/><path d="m16.75 16v-6c0-.414-.336-.75-.75-.75s-.75.336-.75.75v6c0 .414.336.75.75.75s.75-.336.75-.75z"/></g></svg>