<svg clip-rule="evenodd" fill-rule="evenodd" stroke-linejoin="round" stroke-miterlimit="2" viewBox="0 0 32 32" xmlns="http://www.w3.org/2000/svg" xmlns:serif="http://www.serif.com/"><path id="atoms-electron-physic" d="m0 0h32v32h-32z" fill="none"/><path d="m19.677 9.681c.82-1.499 2.349-2.632 4.201-2.685.054-.001.108-.002.161-.002 2.254.022 4.388 1.719 4.863 3.966.479 2.266-.843 4.786-3.004 5.67-1.745.714-3.844.249-5.26-1.001-.017.014-.034.028-.052.042l-6.004 4.288c-.006.005-.013.009-.02.013.146.316.258.649.331.994.081.383.111.774.093 1.162l4.481 1.034c.674-1.242 2.012-2.131 3.488-2.159h.103c2.257.043 4.237 2.243 3.912 4.561-.264 1.887-2.047 3.444-3.964 3.444-2.042 0-3.891-1.824-3.992-3.897l-4.509-1.04c-.526 1.134-1.449 2.088-2.616 2.565-2.547 1.042-5.858-.421-6.687-3.204-.863-2.901 1.384-6.336 4.668-6.43.053-.001.107-.001.16-.001 1.237.011 2.437.528 3.347 1.362.014-.011.028-.022.042-.032l6.004-4.289c.005-.003.011-.007.016-.011-.081-.175-.151-.358-.21-.546-.193-.62-.241-1.265-.167-1.899l-5.344-1.572c-.901-.289-.913-1.984.327-1.959.068.004.093.001.238.039zm3.303 13.324c-1.326.025-2.392 1.594-1.778 2.867.705 1.462 3.482 1.401 3.782-.561.175-1.141-.762-2.314-2.004-2.306zm-13.001-4.003c-1.359.013-2.643 1.038-2.922 2.396-.351 1.717 1.115 3.596 2.922 3.608 1.3.008 2.547-.915 2.907-2.181.493-1.732-.857-3.766-2.81-3.822-.032-.001-.065-.001-.097-.001zm14.008-10.006c-1.366.013-2.644 1.046-2.921 2.396-.351 1.715 1.111 3.584 2.902 3.607 1.307.017 2.565-.907 2.927-2.18.493-1.732-.857-3.767-2.81-3.822-.033-.001-.065-.001-.098-.001zm-16.939-6.004c2.257.043 4.237 2.242 3.912 4.561-.264 1.887-2.047 3.444-3.964 3.444-2.306 0-4.366-2.327-3.94-4.71.323-1.802 1.993-3.259 3.889-3.295zm-.078 2.001c-1.326.025-2.392 1.594-1.778 2.868.705 1.461 3.482 1.401 3.782-.561.175-1.142-.762-2.315-2.004-2.307z"/></svg>