<svg clip-rule="evenodd" fill-rule="evenodd" height="512" stroke-linejoin="round" stroke-miterlimit="2" viewBox="0 0 24 24" width="512" xmlns="http://www.w3.org/2000/svg"><g id="Icon"><path d="m5.75 6.75v-.75h1v.5c0 .414.336.75.75.75s.75-.336.75-.75v-1.25c0-.414-.336-.75-.75-.75h-2.5c-.414 0-.75.336-.75.75v1.5c0 .414.336.75.75.75s.75-.336.75-.75z"/><path d="m14.5 7.5c-2.898 0-5.25 2.352-5.25 5.25s2.352 5.25 5.25 5.25 5.25-2.352 5.25-5.25-2.352-5.25-5.25-5.25zm0 1.5c2.07 0 3.75 1.68 3.75 3.75s-1.68 3.75-3.75 3.75-3.75-1.68-3.75-3.75 1.68-3.75 3.75-3.75z"/><path d="m5 10.5h2c.414 0 .75-.336.75-.75s-.336-.75-.75-.75h-2c-.414 0-.75.336-.75.75s.336.75.75.75z"/><path d="m18.752 6c-.099 0-.188-.059-.228-.149l-.575-1.306c-.279-.635-.908-1.045-1.602-1.045-1.245 0-3.949 0-5.194 0-.694 0-1.323.41-1.602 1.045l-.575 1.306c-.04.09-.129.149-.229.149h-4.747c-.729 0-1.429.29-1.945.805-.515.516-.805 1.216-.805 1.945v9c0 .729.29 1.429.805 1.945.516.515 1.216.805 1.945.805h16c.729 0 1.429-.29 1.945-.805.515-.516.805-1.216.805-1.945 0-2.444 0-6.556 0-9 0-.729-.29-1.429-.805-1.945-.516-.515-1.216-.805-1.945-.805zm0 1.5h1.248c.332 0 .649.132.884.366.234.235.366.552.366.884v9c0 .332-.132.649-.366.884-.235.234-.552.366-.884.366h-16c-.332 0-.649-.132-.884-.366-.234-.235-.366-.552-.366-.884 0-2.444 0-6.556 0-9 0-.332.132-.649.366-.884.235-.234.552-.366.884-.366h4.747c.694 0 1.323-.41 1.602-1.045l.575-1.306c.04-.09.129-.149.229-.149h5.194c.1 0 .189.059.229.149l.575 1.306c.279.635.908 1.045 1.601 1.045z"/></g></svg>