<svg clip-rule="evenodd" fill-rule="evenodd" stroke-linejoin="round" stroke-miterlimit="1.414" viewBox="0 0 32 32" xmlns="http://www.w3.org/2000/svg" xmlns:serif="http://www.serif.com/"><path id="chat-comment-review-text" d="m0 0h32v32h-32z" fill="none"/><path d="m16.74 21.033c2.071.005 4.211-.042 6.068.896.679.343 1.292.808 1.841 1.337 0 0 .414.451.341.919-.069.439-.461.805-.905.842-.601.05-1.057-.596-1.629-.988-1.666-1.141-3.872-1.005-5.898-1.007-3.516-.002-7.033-.001-10.55-.001-1.553-.009-2.964-1.343-2.995-2.96-.029-4.678 0-9.356 0-14.034.01-1.558 1.349-2.965 2.961-2.995 6.677-.042 13.354-.001 20.031-.001 1.56.01 2.985 1.363 2.995 2.996v21.992c-.004.084-.002.106-.018.189-.151.784-1.442 1.099-1.87.269-.072-.141-.103-.297-.111-.458 0-7.334.046-14.668 0-22.001-.01-.517-.465-.978-.987-.987-6.672-.042-13.343-.042-20.015 0-.517.009-.977.464-.987.987-.029 4.672-.029 9.345 0 14.018.01.515.45.976.986.986 3.581.023 7.161-.004 10.742.001zm-4.732-7.997c.552 0 1 .448 1 1s-.448.999-1 .999c-.551 0-.999-.447-.999-.999s.448-1 .999-1zm3.998 0c.552 0 1 .448 1 1s-.448.999-1 .999c-.551 0-.999-.447-.999-.999s.448-1 .999-1zm3.998 0c.552 0 1 .448 1 1s-.448.999-1 .999c-.551 0-.999-.447-.999-.999s.448-1 .999-1z" fill-rule="nonzero"/></svg>