<svg height="512" viewBox="0 0 32 32" width="512" xmlns="http://www.w3.org/2000/svg"><g id="biology_plants_seed" data-name="biology, plants, seed"><path d="m28.1855 3.4951c-3.4312-.6506-10.2034-.198-12.1605 5.8249a5.1515 5.1515 0 0 1 -4.901 1.17c-1.3672-.34-1.9726-1.241-2.7392-2.3811a10.5673 10.5673 0 0 0 -2.1-2.4883c2.0781-.65 5.4169-1.21 7.3613.9985a1 1 0 1 0 1.5019-1.3212c-3.981-4.5215-11.2896-.9079-11.598-.7525a1 1 0 0 0 .0811 1.8223 6.47 6.47 0 0 1 3.0945 2.8569 6.4518 6.4518 0 0 0 3.916 3.2061 7.9594 7.9594 0 0 0 1.9326.2461 6.8254 6.8254 0 0 0 2.89-.6372c-.2284 1.8478-.3462 4.1192-.4049 6.0307a17.5994 17.5994 0 0 0 -9.6247 4.5278 3.1032 3.1032 0 0 0 1.4179 5.231 39.2274 39.2274 0 0 0 9.26 1.126 37.5322 37.5322 0 0 0 9.1611-1.1358 3.097 3.097 0 0 0 1.4844-5.1 16.7531 16.7531 0 0 0 -6.4658-4.1318 1 1 0 0 0 -.584 1.9131 14.939 14.939 0 0 1 5.5811 3.5761 1.0987 1.0987 0 0 1 -.5137 1.8057 36.0993 36.0993 0 0 1 -17.4434.0049 1.1038 1.1038 0 0 1 -.4961-1.8628 15.6931 15.6931 0 0 1 8.1783-3.9483c-.0161 1.0673-.0144 1.805-.0144 1.9038a1 1 0 0 0 1 .9961h.0039a1 1 0 0 0 .9961-1.0044c0-.083-.0234-8.3208.752-11.4834 1.0615-4.3408 5.0117-5.16 7.6386-5.2027a14.3642 14.3642 0 0 0 -1.4218 2.3262c-1.05 1.9946-1.628 2.9409-3.4375 2.6485a1 1 0 1 0 -.3184 1.9746c3.3135.5337 4.5361-1.81 5.5254-3.6919.7041-1.3389 1.37-2.6031 2.65-3.1441a1 1 0 0 0 -.2032-1.9038z"/></g></svg>