<svg clip-rule="evenodd" fill-rule="evenodd" height="512" stroke-linejoin="round" stroke-miterlimit="2" viewBox="0 0 24 24" width="512" xmlns="http://www.w3.org/2000/svg"><g id="Icon"><circle cx="14.5" cy="13" r=".75"/><circle cx="17.5" cy="10.5" r=".75"/><circle cx="13.75" cy="8.75" r=".75"/><circle cx="17.75" cy="15.75" r=".75"/><path d="m9.7 11.677v5.323c0 .729.29 1.429.805 1.945.516.515 1.216.805 1.945.805h6.267c.729 0 1.428-.29 1.944-.805.516-.516.806-1.216.806-1.945 0-1.801 0-4.317.011-5.315 0-.003 0-.006 0-.009 0-.064.026-.126.073-.171.001-.001.002-.002.002-.003.772-.751 1.197-1.649 1.197-2.6 0-1.071-.542-2.078-1.51-2.881-1.278-1.06-3.332-1.771-5.657-1.771-2.324 0-4.379.711-5.656 1.771-.969.803-1.51 1.81-1.51 2.881 0 .954.427 1.855 1.21 2.599.045.044.073.109.073.176zm1.5 5.323v-5.324c-.001-.475-.194-.929-.536-1.259-.001-.001-.002-.002-.004-.003-.46-.438-.743-.951-.743-1.512 0-.651.378-1.238.967-1.726 1.059-.878 2.774-1.426 4.699-1.426 1.926 0 3.641.548 4.699 1.426.59.488.968 1.075.968 1.726 0 .564-.286 1.08-.743 1.526-.337.325-.529.777-.529 1.248-.011.993-.011 3.517-.011 5.324 0 .332-.132.649-.366.884-.235.234-.553.366-.884.366h-6.267c-.332 0-.649-.132-.884-.366-.234-.235-.366-.552-.366-.884z"/><path d="m12 18.25h-6.717c-.331 0-.649-.132-.884-.366-.234-.235-.366-.552-.366-.884v-5.324c0-.475-.194-.929-.535-1.259-.002-.001-.003-.002-.004-.003-.461-.438-.744-.951-.744-1.512 0-.651.378-1.238.968-1.726 1.058-.878 2.773-1.426 4.699-1.426h7.166c.414 0 .75-.336.75-.75s-.336-.75-.75-.75h-7.166c-2.325 0-4.379.711-5.657 1.771-.968.803-1.51 1.81-1.51 2.881 0 .954.427 1.855 1.211 2.599.045.044.072.109.072.176v5.323c0 .729.29 1.429.806 1.945.516.515 1.215.805 1.944.805h6.717c.414 0 .75-.336.75-.75s-.336-.75-.75-.75z"/></g></svg>