<svg clip-rule="evenodd" fill-rule="evenodd" height="512" stroke-linejoin="round" stroke-miterlimit="2" viewBox="0 0 24 24" width="512" xmlns="http://www.w3.org/2000/svg"><g id="Icon"><path d="m5.25 5v14c0 .967.784 1.75 1.75 1.75h10c.966 0 1.75-.783 1.75-1.75v-14c0-.967-.784-1.75-1.75-1.75-2.26 0-7.74 0-10 0-.966 0-1.75.783-1.75 1.75zm1.5 0c0-.138.112-.25.25-.25h10c.138 0 .25.112.25.25v14c0 .138-.112.25-.25.25h-10c-.138 0-.25-.112-.25-.25z"/><path d="m16.5 2v2c0 .414.336.75.75.75s.75-.336.75-.75v-2c0-.414-.336-.75-.75-.75s-.75.336-.75.75z"/><path d="m16.5 20v2c0 .414.336.75.75.75s.75-.336.75-.75v-2c0-.414-.336-.75-.75-.75s-.75.336-.75.75z"/><path d="m13 2v2c0 .414.336.75.75.75s.75-.336.75-.75v-2c0-.414-.336-.75-.75-.75s-.75.336-.75.75z"/><path d="m13 20v2c0 .414.336.75.75.75s.75-.336.75-.75v-2c0-.414-.336-.75-.75-.75s-.75.336-.75.75z"/><path d="m9.5 2v2c0 .414.336.75.75.75s.75-.336.75-.75v-2c0-.414-.336-.75-.75-.75s-.75.336-.75.75z"/><path d="m9.5 20v2c0 .414.336.75.75.75s.75-.336.75-.75v-2c0-.414-.336-.75-.75-.75s-.75.336-.75.75z"/><path d="m6 2v2c0 .414.336.75.75.75s.75-.336.75-.75v-2c0-.414-.336-.75-.75-.75s-.75.336-.75.75z"/><path d="m6 20v2c0 .414.336.75.75.75s.75-.336.75-.75v-2c0-.414-.336-.75-.75-.75s-.75.336-.75.75z"/><path d="m6 8.25c.7 0 .968.312 1.333.537.408.251.879.463 1.664.463s1.256-.212 1.664-.463c.365-.225.633-.537 1.334-.537.702 0 .971.312 1.336.537.409.251.88.463 1.666.463s1.258-.212 1.666-.463c.366-.225.635-.537 1.337-.537.414 0 .75-.336.75-.75s-.336-.75-.75-.75c-.786 0-1.257.212-1.666.463-.365.225-.634.537-1.337.537-.702 0-.971-.312-1.336-.537-.409-.251-.88-.463-1.666-.463-.785 0-1.256.212-1.664.463-.365.225-.633.537-1.334.537s-.969-.312-1.333-.537c-.409-.251-.879-.463-1.664-.463-.414 0-.75.336-.75.75s.336.75.75.75z"/><path d="m6 11.25c.7 0 .968.312 1.333.537.408.251.879.463 1.664.463s1.256-.212 1.664-.463c.365-.225.633-.537 1.334-.537.702 0 .971.312 1.336.537.409.251.88.463 1.666.463s1.258-.212 1.666-.463c.366-.225.635-.537 1.337-.537.414 0 .75-.336.75-.75s-.336-.75-.75-.75c-.786 0-1.257.212-1.666.463-.365.225-.634.537-1.337.537-.702 0-.971-.312-1.336-.537-.409-.251-.88-.463-1.666-.463-.785 0-1.256.212-1.664.463-.365.225-.633.537-1.334.537s-.969-.312-1.333-.537c-.409-.251-.879-.463-1.664-.463-.414 0-.75.336-.75.75s.336.75.75.75z"/></g></svg>