<svg clip-rule="evenodd" fill-rule="evenodd" height="512" stroke-linejoin="round" stroke-miterlimit="2" viewBox="0 0 24 24" width="512" xmlns="http://www.w3.org/2000/svg"><g id="Icon"><path d="m12 1.25c-3.036 0-5.5 2.464-5.5 5.5s2.464 5.5 5.5 5.5 5.5-2.464 5.5-5.5-2.464-5.5-5.5-5.5zm0 1.5c2.208 0 4 1.792 4 4s-1.792 4-4 4-4-1.792-4-4 1.792-4 4-4z"/><path d="m21.75 19c0-3.511-2.335-6.476-5.536-7.429-.337-.1-.699.047-.87.355l-3.344 6.028s-3.344-6.028-3.344-6.028c-.171-.308-.533-.455-.87-.355-3.201.953-5.536 3.918-5.536 7.429v2c0 .464.184.909.513 1.237.328.329.773.513 1.237.513h16c.464 0 .909-.184 1.237-.513.329-.328.513-.773.513-1.237zm-1.5 0v2c0 .066-.026.13-.073.177s-.111.073-.177.073h-16c-.066 0-.13-.026-.177-.073s-.073-.111-.073-.177v-2c0-2.621 1.613-4.865 3.901-5.794 0 0 3.693 6.658 3.693 6.658.132.238.383.386.656.386s.524-.148.656-.386l3.693-6.658c2.288.929 3.901 3.173 3.901 5.794z"/><path d="m12.75 18.5v-4.5c0-.414-.336-.75-.75-.75s-.75.336-.75.75v4.5c0 .414.336.75.75.75s.75-.336.75-.75z"/><path d="m16 18.75h2c.414 0 .75-.336.75-.75s-.336-.75-.75-.75h-2c-.414 0-.75.336-.75.75s.336.75.75.75z"/></g></svg>