<svg clip-rule="evenodd" fill-rule="evenodd" height="512" stroke-linejoin="round" stroke-miterlimit="2" viewBox="0 0 24 24" width="512" xmlns="http://www.w3.org/2000/svg"><g id="Icon"><path d="m7.5 3.25h-2c-.967 0-1.75.784-1.75 1.75v16c0 .464.184.909.513 1.237.328.329.773.513 1.237.513h13c.464 0 .909-.184 1.237-.513.329-.328.513-.773.513-1.237 0-3.151 0-12.849 0-16 0-.464-.184-.909-.513-1.237-.328-.329-.773-.513-1.237-.513h-2c-.414 0-.75.336-.75.75s.336.75.75.75h2c.066 0 .13.026.177.073s.073.111.073.177v16c0 .066-.026.13-.073.177s-.111.073-.177.073h-13c-.066 0-.13-.026-.177-.073s-.073-.111-.073-.177v-16c0-.138.112-.25.25-.25h2c.414 0 .75-.336.75-.75s-.336-.75-.75-.75z"/><path d="m16.917 4.576-.5-2c-.195-.779-.895-1.326-1.698-1.326h-5.438c-.803 0-1.503.547-1.698 1.326l-.5 2c-.131.522-.013 1.076.318 1.501.332.425.841.673 1.38.673h6.438c.539 0 1.048-.248 1.38-.673.331-.425.449-.979.318-1.501zm-1.955-1.637.5 2c.018.075.002.154-.046.215-.047.061-.12.096-.197.096h-6.438c-.077 0-.15-.035-.197-.096-.048-.061-.064-.14-.046-.215l.5-2c.028-.111.128-.189.243-.189h5.438c.115 0 .215.078.243.189z"/><path d="m9 19.25h6c.414 0 .75-.336.75-.75s-.336-.75-.75-.75h-6c-.414 0-.75.336-.75.75s.336.75.75.75z"/><path d="m15.976 11.329c0-.414-.336-.75-.75-.75h-.806c-.841 0-1.647.334-2.242.928-.594.595-.928 1.401-.928 2.241v.807c0 .414.336.75.75.75h.807c.84 0 1.646-.334 2.241-.928.594-.595.928-1.401.928-2.242zm-1.5.75v.056c0 .443-.176.868-.489 1.181s-.738.489-1.18.489h-.057v-.057c0-.442.176-.867.489-1.18s.738-.489 1.181-.489z"/><path d="m8.774 10.579c-.414 0-.75.336-.75.75v.806c0 .841.334 1.647.928 2.242.595.594 1.401.928 2.241.928h.807c.414 0 .75-.336.75-.75v-.807c0-.84-.334-1.646-.928-2.241-.595-.594-1.401-.928-2.242-.928zm.75 1.5h.056c.443 0 .868.176 1.181.489s.489.738.489 1.18v.057h-.057c-.442 0-.867-.176-1.18-.489s-.489-.738-.489-1.181z"/><path d="m12.53 7.47c-.293-.293-.767-.293-1.06 0l-.571.57c-.594.594-.928 1.401-.928 2.241 0 .841.334 1.647.928 2.242 0 0 .571.57.571.57.293.293.767.293 1.06 0l.571-.57c.594-.595.928-1.401.928-2.242 0-.84-.334-1.647-.928-2.241 0 0-.571-.57-.571-.57zm-.53 1.591.04.04c.313.313.489.737.489 1.18s-.176.868-.489 1.181l-.04.04-.04-.04c-.313-.313-.489-.738-.489-1.181s.176-.867.489-1.18z"/><path d="m11.25 13.774v2.226c0 .414.336.75.75.75s.75-.336.75-.75v-2.226c0-.414-.336-.75-.75-.75s-.75.336-.75.75z"/></g></svg>