<svg clip-rule="evenodd" fill-rule="evenodd" height="512" stroke-linejoin="round" stroke-miterlimit="2" viewBox="0 0 24 24" width="512" xmlns="http://www.w3.org/2000/svg"><g id="Icon"><path d="m8.867 11.598-1.901 3c-.147.231-.156.524-.024.764.132.239.384.388.657.388h1.438s-1.171 1.848-1.171 1.848c-.222.35-.118.814.232 1.035.349.222.813.118 1.035-.231l1.901-3c.147-.231.156-.524.024-.764-.132-.239-.384-.388-.657-.388h-1.438s1.171-1.848 1.171-1.848c.222-.35.118-.814-.232-1.035-.349-.222-.813-.118-1.035.231z"/><path d="m15.75 3c0-.464-.184-.909-.513-1.237-.328-.329-.773-.513-1.237-.513-2.26 0-7.74 0-10 0-.464 0-.909.184-1.237.513-.329.328-.513.773-.513 1.237v19c0 .414.336.75.75.75h12c.414 0 .75-.336.75-.75zm-1.5 0v18.25h-10.5v-18.25c0-.066.026-.13.073-.177s.111-.073.177-.073h10c.066 0 .13.026.177.073s.073.111.073.177z"/><path d="m13.25 4.5c0-.414-.336-.75-.75-.75h-7c-.414 0-.75.336-.75.75v4c0 .414.336.75.75.75h7c.414 0 .75-.336.75-.75zm-1.5.75v2.5h-5.5v-2.5z"/><path d="m22.75 7c0-.414-.336-.75-.75-.75h-4c-.414 0-.75.336-.75.75v2.5c0 .597.237 1.169.659 1.591s.994.659 1.591.659h1c.597 0 1.169-.237 1.591-.659s.659-.994.659-1.591c0-1.135 0-2.5 0-2.5zm-1.5.75v1.75c0 .199-.079.39-.22.53-.14.141-.331.22-.53.22h-1c-.199 0-.39-.079-.53-.22-.141-.14-.22-.331-.22-.53v-1.75z"/><path d="m2 22.75h14.5c.414 0 .75-.336.75-.75s-.336-.75-.75-.75h-14.5c-.414 0-.75.336-.75.75s.336.75.75.75z"/><path d="m19.25 7v-2c0-.414-.336-.75-.75-.75s-.75.336-.75.75v2c0 .414.336.75.75.75s.75-.336.75-.75z"/><path d="m22.25 7v-2c0-.414-.336-.75-.75-.75s-.75.336-.75.75v2c0 .414.336.75.75.75s.75-.336.75-.75z"/><path d="m19.25 11v4.5c0 .332-.132.649-.366.884-.235.234-.552.366-.884.366h-3c-.414 0-.75.336-.75.75s.336.75.75.75h3c.729 0 1.429-.29 1.945-.805.515-.516.805-1.216.805-1.945 0-1.91 0-4.5 0-4.5 0-.414-.336-.75-.75-.75s-.75.336-.75.75z"/></g></svg>