<svg clip-rule="evenodd" fill-rule="evenodd" height="512" stroke-linejoin="round" stroke-miterlimit="2" viewBox="0 0 24 24" width="512" xmlns="http://www.w3.org/2000/svg"><g id="Icon"><path d="m6.3 18.639-.684.685c-.233.23-.366.551-.366.883v1.293c0 .692.56 1.25 1.25 1.25h11c.693 0 1.25-.558 1.25-1.25v-1.293c0-.332-.132-.653-.369-.886l-.681-.682-1.96-11.763c-.06-.361-.373-.626-.74-.626h-6c-.367 0-.68.265-.74.627zm10.95 1.671v.94h-10.5v-.939l.668-.668c.182-.18.306-.419.349-.679 0 .001 1.868-11.214 1.868-11.214h4.73s1.869 11.215 1.869 11.215v-.001c.043.26.167.499.353.683z"/><path d="m7.5 7.75h9c.69 0 1.25-.56 1.25-1.25v-4c0-.69-.56-1.25-1.25-1.25h-1c-.69 0-1.25.56-1.25 1.25v.75h-.5v-.75c0-.69-.56-1.25-1.25-1.25h-1c-.69 0-1.25.56-1.25 1.25v.75h-.5v-.75c0-.69-.56-1.25-1.25-1.25h-1c-.69 0-1.25.56-1.25 1.25v4c0 .69.56 1.25 1.25 1.25zm.75-5v1.25c0 .414.336.75.75.75h2c.415 0 .75-.336.75-.75v-1.25h.5v1.25c0 .414.336.75.75.75h2c.415 0 .75-.336.75-.75v-1.25h.5v3.5h-8.5v-3.5z"/></g></svg>