<svg clip-rule="evenodd" fill-rule="evenodd" height="512" stroke-linejoin="round" stroke-miterlimit="2" viewBox="0 0 24 24" width="512" xmlns="http://www.w3.org/2000/svg"><g id="Icon"><path d="m12 1.25c5.933 0 10.75 4.817 10.75 10.75s-4.817 10.75-10.75 10.75-10.75-4.817-10.75-10.75 4.817-10.75 10.75-10.75zm0 1.5c-5.105 0-9.25 4.145-9.25 9.25s4.145 9.25 9.25 9.25 9.25-4.145 9.25-9.25-4.145-9.25-9.25-9.25z"/><path d="m7.197 12.28c-.293-.292-.293-.768 0-1.06.293-.293.768-.293 1.061 0l2.627 2.627 4.834-5.285c.28-.305.755-.327 1.06-.047.305.279.327.754.047 1.059l-5.364 5.864c-.138.151-.332.239-.536.244-.205.004-.402-.075-.547-.22l-3.182-3.182z"/></g></svg>