<?xml version="1.0"?>
<svg xmlns="http://www.w3.org/2000/svg" viewBox="0 0 32 32" width="512" height="512"><g id="coupon_discount_ticket" data-name="coupon, discount, ticket"><path d="M26,9H14a1,1,0,0,0-1,1,1,1,0,0,1-2,0,1,1,0,0,0-1-1H4a1,1,0,0,0,0,2H9.1714A3.0113,3.0113,0,0,0,11,12.8237V14a1,1,0,0,0,2,0V12.8237A3.0113,3.0113,0,0,0,14.8286,11H26a1.0009,1.0009,0,0,1,1,1v8a1.0009,1.0009,0,0,1-1,1H14.8286A3.0113,3.0113,0,0,0,13,19.1763V18a1,1,0,0,0-2,0v1.1763A3.0113,3.0113,0,0,0,9.1714,21H5V14a1,1,0,0,0-2,0v8a1,1,0,0,0,1,1h6a1,1,0,0,0,1-1,1,1,0,0,1,2,0,1,1,0,0,0,1,1H26a3.0033,3.0033,0,0,0,3-3V12A3.0033,3.0033,0,0,0,26,9Z"/></g></svg>
