<svg clip-rule="evenodd" fill-rule="evenodd" stroke-linejoin="round" stroke-miterlimit="1.414" viewBox="0 0 32 32" xmlns="http://www.w3.org/2000/svg" xmlns:serif="http://www.serif.com/"><path id="energy-drink-sport-water" d="m0 0h32v32h-32z" fill="none"/><path d="m12.402 8.997c-.381.377-.764.753-1.136 1.139-.653.694.17 2.362-.906 2.789-.593.235-1.355-.23-1.369-.929 0-1.183.02-2.401.853-3.265.405-.411.769-.885 1.147-1.234v-3.497c.005-.183.022-.234.056-.331.137-.391.445-.655.943-.669h7.996c.019.001.038.001.056.002.182.015.232.035.327.074.365.151.603.445.617.924v3.578c.937.908 1.897 1.769 1.991 3.024.004.062.006.124.008.185.031 5.08.032 10.161 0 15.241-.03 1.545-1.348 2.929-2.96 2.959-2.691.017-5.382.017-8.073 0-1.555-.029-2.95-1.366-2.961-2.995v-9.998c.022-.495.148-.562.293-.707.51-.51 1.563-.192 1.691.533.014.077.012.096.016.174 0 3.34-.064 6.681 0 10.021.016.514.468.964.986.973 2.678.017 5.357.051 8.036 0 .513-.016.963-.468.973-.986.032-5.067.094-10.136-.001-15.202-.007-.255-.114-.502-.294-.684l-1.412-1.412c-.011-.012-.022-.025-.033-.038l-.002-.002c-.15-.146-.249-.364-.257-.666v-2.999h-5.997v1.999h2.998c.009.003 1.178.332.975 1.222-.101.439-.519.764-.975.777zm5.585 7.996c.009.003 1.385.392.894 1.447l-1.999 3.998c-.251.469-.409.457-.631.517-.706.192-1.503-.614-1.181-1.36.008-.017.016-.034.024-.051l1.276-2.552h-2.381s-1.386-.388-.894-1.446l1.999-3.998c.082-.152.105-.172.159-.23.202-.22.5-.333.806-.32.443.044.478.143.606.261.32.295.434.717.217 1.183l-1.276 2.551zm-6.202-8.015c-.009-.002-.017-.004-.026-.006l.017.004zm-.09-.025c.007.002.014.005.02.007l-.004-.002zm8.199-.055h-.016.005zm-.029 0h.006-.014zm.055-.001-.021.001c.007 0 .014 0 .021-.001zm-.073.001h.003l-.019-.001zm-.035-.002.017.001-.02-.001zm.129 0-.016.001h.012zm.022-.001-.015.001.007-.001zm-.169 0 .008.001-.014-.001zm.195-.002-.019.001h.003zm-.213.001h.005l-.015-.001zm.235-.004-.021.003c.007-.001.014-.002.021-.003zm-.271 0c.007.001.014.002.02.002zm.292-.002-.014.002.008-.001zm-.308 0 .011.001-.015-.002zm.331-.003-.015.002.004-.001zm-.349 0 .007.001-.014-.002zm.375-.005-.02.004c.007-.001.013-.002.02-.004zm-.392.002.003.001-.016-.003zm.413-.005-.016.003.012-.003zm-.449-.002c.006.002.013.003.019.004zm.471-.003-.015.003.007-.001zm-.486 0 .008.002-.013-.003zm.511-.005-.019.004.004-.001zm-.528.001.004.001-.013-.003zm.551-.007-.021.005c.007-.001.014-.003.021-.005zm-.585-.002c.006.002.012.003.019.005zm.606-.003-.015.004.009-.002zm-.622-.002.011.003-.014-.004zm.643-.004-.014.004.005-.001zm-.66-.001.006.002-.012-.004zm.686-.006-.02.006c.007-.002.014-.004.02-.006zm-.702 0 .003.001-.014-.005zm.723-.007-.017.005.013-.004zm-.757-.005c.006.002.012.004.018.007zm.778-.002-.015.005.007-.002zm-.792-.004.008.003-.012-.005zm.815-.004-.017.006.004-.001zm-.831-.003.004.002-.011-.005zm.854-.006-.02.008c.007-.003.013-.005.02-.008zm-.885-.009c.005.003.011.006.017.009zm.905.002-.015.005.01-.003zm.021-.009-.015.006.006-.002zm-.941 0 .01.005-.013-.007zm.966-.011-.02.009c.007-.003.013-.006.02-.009zm-9.062-.025.042.033c-.014-.011-.028-.022-.042-.033zm8.08.028.006.003-.011-.006zm1.001-.012-.017.008.014-.006zm-1.015.003v.001l-.001-.001zm1.034-.012-.013.006.007-.003zm.022-.011-.015.008.003-.002zm-1.086.006h.001zm1.108-.018-.019.01c.007-.003.013-.006.019-.01zm-1.122.008v.001l-.001-.001zm1.141-.018-.014.008.009-.006zm-9.243-.049c.016.018.033.034.051.05-.018-.016-.035-.032-.051-.05zm8.074.048-.001-.001zm1.188-.01-.013.008.005-.003zm.023-.014-.018.011c.006-.004.012-.007.018-.011zm-1.239.003h.001l-.001-.001zm1.257-.014-.017.01.014-.009zm.018-.012-.013.008.007-.004zm-1.301.004-.001-.001zm1.32-.017-.014.009.004-.002zm.02-.015-.017.012c.006-.004.012-.008.017-.012zm.017-.012-.013.009.009-.007zm.017-.014-.012.009.006-.003zm.021-.016-.016.012.002-.001zm.016-.014-.016.013c.005-.004.011-.008.016-.013zm.015-.014-.011.01.007-.006zm.017-.015-.012.011.004-.004zm.018-.018-.015.014c.005-.004.01-.009.015-.014zm.014-.014-.011.011.009-.008zm.015-.016-.01.011.005-.005zm.017-.018-.013.014.003-.003zm.014-.017-.013.015c.004-.005.009-.01.013-.015zm.013-.016-.009.012.005-.007zm.013-.017-.009.012.003-.004zm.016-.02-.012.016c.004-.006.008-.011.012-.016zm-9.762-.028c.003.006.005.012.008.018l.008.018c-.008-.018-.016-.035-.023-.054zm9.773.011-.009.014.007-.011zm.012-.017-.008.012.004-.006zm.012-.02-.009.014.002-.003zm.012-.02-.01.017c.003-.005.007-.011.01-.017zm.01-.018-.007.013.004-.008zm.01-.019-.007.013.002-.004zm.004-.008-.001.003v-.002zm.007-.014-.001.001zm.008-.017-.002.003.001-.002zm.013-.032-.002.003.001-.002zm.006-.016-.001.002v-.001zm.005-.016-.001.003.001-.002zm.006-.018-.001.003v-.001zm.005-.015-.001.002.001-.001zm.005-.018-.001.003v-.001zm.004-.015-.001.001zm.004-.019-.001.004v-.002zm.003-.017v.002zm.003-.017v.003-.002zm.003-.018v.002zm.002-.017v.003-.002zm.003-.019-.001.003v-.001zm.001-.017v.003-.002zm.001-.019v.004-.002zm-8.995.983c-.023-.001-.043-.001-.063-.002l-.027-.002c.026.002.056.003.09.004zm-.179-.014c.019.003.04.006.064.008l-.023-.002c-.014-.002-.028-.004-.041-.006zm-.187-.055c-.018-.007-.036-.015-.053-.022l-.018-.008c.029.013.058.025.089.036z" fill-rule="nonzero"/></svg>