<svg clip-rule="evenodd" fill-rule="evenodd" height="512" stroke-linejoin="round" stroke-miterlimit="2" viewBox="0 0 24 24" width="512" xmlns="http://www.w3.org/2000/svg"><g id="Icon"><path d="m7.468 6.246.032.004h9c.003 0 .75-.061.75-.763 0-.078 0-.491 0-.987 0-.729-.29-1.429-.805-1.945-.516-.515-1.216-.805-1.945-.805-1.488 0-3.512 0-5 0-.729 0-1.429.29-1.945.805-.515.516-.805 1.216-.805 1.945v.987c0 .616.574.738.718.759zm8.282-1.496h-7.5v-.25c0-.332.132-.649.366-.884.235-.234.552-.366.884-.366h5c.332 0 .649.132.884.366.234.235.366.552.366.884z"/><path d="m13 15.25c1.009 0 1.75-.744 1.75-1.55v-2.4c0-.806-.741-1.55-1.75-1.55h-2c-1.009 0-1.75.744-1.75 1.55v2.4c0 .806.741 1.55 1.75 1.55zm.25-3.915v2.33c-.034.019-.158.085-.25.085h-2c-.092 0-.216-.066-.25-.085v-2.33c.034-.019.158-.085.25-.085h2c.092 0 .216.066.25.085z"/><path d="m22.75 7.5c0-.729-.29-1.429-.805-1.945-.516-.515-1.216-.805-1.945-.805-3.832 0-12.168 0-16 0-.729 0-1.429.29-1.945.805-.515.516-.805 1.216-.805 1.945v12c0 .729.29 1.429.805 1.945.516.515 1.216.805 1.945.805h16c.729 0 1.429-.29 1.945-.805.515-.516.805-1.216.805-1.945zm-1.5 0v12c0 .332-.132.649-.366.884-.235.234-.552.366-.884.366h-16c-.332 0-.649-.132-.884-.366-.234-.235-.366-.552-.366-.884v-12c0-.332.132-.649.366-.884.235-.234.552-.366.884-.366h16c.332 0 .649.132.884.366.234.235.366.552.366.884z"/><path d="m14.138 13.237 8-1.5c.407-.076.675-.468.599-.875s-.468-.675-.875-.599l-8 1.5c-.407.076-.675.468-.599.875s.468.675.875.599z"/><path d="m10.138 11.763-8-1.5c-.407-.076-.799.192-.875.599s.192.799.599.875l8 1.5c.407.076.799-.192.875-.599s-.192-.799-.599-.875z"/></g></svg>