<svg clip-rule="evenodd" fill-rule="evenodd" height="512" stroke-linejoin="round" stroke-miterlimit="2" viewBox="0 0 24 24" width="512" xmlns="http://www.w3.org/2000/svg"><g id="Icon"><path d="m10.737 21.108 3.614 1.445c.325.13.672.197 1.022.197h4.614c.464 0 .91-.184 1.238-.513.328-.328.512-.773.512-1.237v-4c0-2.071-1.679-3.75-3.75-3.75h-2.372c-.613 0-1.199-.25-1.624-.692-.424-.443-.65-1.039-.624-1.652l.326-7.833c.02-.477-.155-.94-.485-1.284s-.786-.539-1.263-.539c-1.926 0-6.019 0-7.932 0-.472 0-.924.19-1.253.528-.33.338-.509.794-.497 1.266.086 3.451.366 14.624.45 18 .024.949.8 1.706 1.75 1.706h5.024c.332 0 .65-.132.884-.366.235-.235.366-.553.366-.884zm-1.5.142h-4.774c-.136 0-.247-.108-.25-.244 0 0-.45-18-.45-18-.002-.067.024-.132.071-.181.047-.048.111-.075.179-.075h7.932c.068 0 .133.028.18.077s.072.115.07.183c0 0-.327 7.834-.327 7.834-.042 1.021.333 2.015 1.041 2.752.707.737 1.684 1.154 2.706 1.154h2.372c1.243 0 2.25 1.007 2.25 2.25v4c0 .066-.026.13-.073.177s-.11.073-.177.073h-4.614c-.16 0-.317-.03-.465-.089 0 0-3.956-1.583-3.956-1.583-.386-.154-.822-.107-1.165.125-.344.233-.55.621-.55 1.036z"/><path d="m3.487 18.75h17.5c.414 0 .75-.336.75-.75s-.336-.75-.75-.75h-17.5c-.414 0-.75.336-.75.75s.336.75.75.75z"/><path d="m12.487 7.25h-2c-1.795 0-3.25 1.455-3.25 3.25 0 .966-.783 1.75-1.75 1.75h-2c-.414 0-.75.336-.75.75s.336.75.75.75h2c1.795 0 3.25-1.455 3.25-3.25 0-.966.784-1.75 1.75-1.75h2c.414 0 .75-.336.75-.75s-.336-.75-.75-.75z"/></g></svg>