<svg clip-rule="evenodd" fill-rule="evenodd" stroke-linejoin="round" stroke-miterlimit="1.414" viewBox="0 0 32 32" xmlns="http://www.w3.org/2000/svg" xmlns:serif="http://www.serif.com/"><path id="power-turn-on-off" d="m0 0h32v32h-32z" fill="none"/><path d="m11.882 7.936c.283.037.356.085.487.177.579.407.505 1.421-.192 1.747-.025.011-.05.023-.074.035-2.492 1.2-4.376 3.597-4.934 6.312-.833 4.051 1.456 8.541 5.423 10.163 3.259 1.332 7.297.565 9.853-2.052 2.602-2.665 3.295-7 1.597-10.36-.909-1.797-2.446-3.271-4.264-4.117 0 0-.579-.357-.579-.907-.001-.685.788-1.21 1.513-.867 3.252 1.54 5.642 4.743 6.179 8.319.534 3.557-.787 7.335-3.488 9.79-3.185 2.894-8.128 3.67-12.06 1.833-4.38-2.047-7.106-7.148-6.165-12.06.646-3.372 2.972-6.382 6.059-7.861.169-.08.399-.163.645-.152zm4.178-4.933c.193.018.224.036.306.069.331.131.58.448.625.805.007.056.006.07.008.126v10.014c-.008.232-.037.301-.096.427-.291.619-1.288.751-1.716.162-.123-.17-.185-.377-.191-.589v-10.014c.006-.194.021-.226.049-.31.116-.359.45-.636.827-.684.12-.015.149-.007.188-.006z" fill-rule="nonzero"/></svg>