<svg clip-rule="evenodd" fill-rule="evenodd" height="512" stroke-linejoin="round" stroke-miterlimit="2" viewBox="0 0 24 24" width="512" xmlns="http://www.w3.org/2000/svg"><g id="Icon"><circle cx="12" cy="5.961" r="1"/><path d="m22.75 8v-1.323c0-.716-.436-1.359-1.1-1.625l-9-3.6c-.417-.167-.883-.167-1.3 0l-9 3.6c-.664.266-1.1.909-1.1 1.625v1.323c0 .967.784 1.75 1.75 1.75h18c.966 0 1.75-.783 1.75-1.75zm-1.5-1.323v1.323c0 .138-.112.25-.25.25h-18c-.138 0-.25-.112-.25-.25v-1.323c0-.102.062-.194.157-.232 0 0 9-3.6 9-3.6.06-.024.126-.024.186 0 0 0 9 3.6 9 3.6.095.038.157.13.157.232z"/><path d="m22.539 21.157-.611-2.138c-.214-.751-.901-1.269-1.682-1.269h-16.492c-.781 0-1.468.518-1.682 1.269l-.611 2.138c-.108.377-.032.783.204 1.096s.606.497.998.497h18.674c.392 0 .762-.184.998-.497s.312-.719.204-1.096zm-1.533.093h-18.012l.52-1.819c.031-.107.129-.181.24-.181h16.492c.111 0 .209.074.24.181z"/><path d="m20.75 18.5v-9.5c0-.414-.336-.75-.75-.75s-.75.336-.75.75v9.5c0 .414.336.75.75.75s.75-.336.75-.75z"/><path d="m16.25 18.5v-9.5c0-.414-.336-.75-.75-.75s-.75.336-.75.75v9.5c0 .414.336.75.75.75s.75-.336.75-.75z"/><path d="m9.25 18.5v-9.5c0-.414-.336-.75-.75-.75s-.75.336-.75.75v9.5c0 .414.336.75.75.75s.75-.336.75-.75z"/><path d="m4.75 18.5v-9.5c0-.414-.336-.75-.75-.75s-.75.336-.75.75v9.5c0 .414.336.75.75.75s.75-.336.75-.75z"/></g></svg>