<svg clip-rule="evenodd" fill-rule="evenodd" height="512" stroke-linejoin="round" stroke-miterlimit="2" viewBox="0 0 24 24" width="512" xmlns="http://www.w3.org/2000/svg"><g id="Icon"><path d="m1.25 8v8c0 1.518 1.232 2.75 2.75 2.75h13c.729 0 1.429-.29 1.945-.805.515-.516.805-1.216.805-1.945 0-.138.112-.25.25-.25h1c.966 0 1.75-.784 1.75-1.75v-4c0-.966-.784-1.75-1.75-1.75h-1c-.138 0-.25-.112-.25-.25 0-.729-.29-1.429-.805-1.945-.516-.515-1.216-.805-1.945-.805-4.084 0-13 0-13 0-1.518 0-2.75 1.232-2.75 2.75zm1.5 0v8c0 .69.56 1.25 1.25 1.25h13c.332 0 .649-.132.884-.366.234-.235.366-.552.366-.884 0-.967.784-1.75 1.75-1.75h1c.138 0 .25-.112.25-.25v-4c0-.138-.112-.25-.25-.25h-1c-.966 0-1.75-.784-1.75-1.75 0-.332-.132-.649-.366-.884-.235-.234-.552-.366-.884-.366-4.084 0-13 0-13 0-.69 0-1.25.56-1.25 1.25z"/></g></svg>