<svg clip-rule="evenodd" fill-rule="evenodd" height="512" stroke-linejoin="round" stroke-miterlimit="2" viewBox="0 0 134 134" width="512" xmlns="http://www.w3.org/2000/svg"><path d="m37.5 70.833v45.834c0 2.301-1.865 4.166-4.167 4.166h-16.666c-2.302 0-4.167-1.865-4.167-4.166v-83.334c0-1.726 1.064-3.273 2.676-3.89 0 0 36.248-13.892 47.017-18.019 2.88-1.104 6.067-1.104 8.947 0 10.769 4.127 47.018 18.019 47.018 18.019 2.147.823 3.222 3.234 2.399 5.381-.823 2.148-3.234 3.223-5.381 2.4 0 0-36.249-13.892-47.018-18.019-.96-.368-2.022-.368-2.982 0l-44.343 16.994v76.301h8.334v-62.5c0-2.301 1.865-4.167 4.166-4.167h66.667c2.301 0 4.167 1.866 4.167 4.167v62.5h8.333v-62.5c0-2.3 1.867-4.167 4.167-4.167 2.299 0 4.166 1.867 4.166 4.167v66.667c0 2.301-1.865 4.166-4.166 4.166h-16.667c-2.301 0-4.167-1.865-4.167-4.166v-45.834zm58.333-8.333v-8.333h-58.333v8.333z"/></svg>