<svg clip-rule="evenodd" fill-rule="evenodd" height="512" stroke-linejoin="round" stroke-miterlimit="2" viewBox="0 0 24 24" width="512" xmlns="http://www.w3.org/2000/svg"><g id="Icon"><path d="m22.75 3c0-.966-.783-1.75-1.75-1.75h-8c-.967 0-1.75.784-1.75 1.75v1.333c0 .967.783 1.75 1.75 1.75h8c.967 0 1.75-.783 1.75-1.75 0-.421 0-.911 0-1.333zm-1.5 0v1.333c0 .138-.112.25-.25.25h-8c-.138 0-.25-.112-.25-.25 0-.421 0-.911 0-1.333 0-.138.112-.25.25-.25h8c.138 0 .25.112.25.25z"/><path d="m22.194 5.333c0-.414-.335-.75-.75-.75h-8.888c-.415 0-.75.336-.75.75v.635c0 2.869 2.325 5.195 5.194 5.195 2.869 0 5.194-2.326 5.194-5.195zm-1.502.75c-.06 1.988-1.69 3.58-3.692 3.58-2.002 0-3.632-1.592-3.692-3.58z"/><circle cx="3.25" cy="20.75" r="1.25"/><path d="m3 17.135c2.133 0 3.865 1.732 3.865 3.865 0 .414.336.75.75.75s.75-.336.75-.75c0-2.961-2.404-5.365-5.365-5.365-.414 0-.75.336-.75.75s.336.75.75.75z"/><path d="m3.5 13.25c4.001 0 7.25 3.249 7.25 7.25 0 .414.336.75.75.75s.75-.336.75-.75c0-4.829-3.921-8.75-8.75-8.75-.414 0-.75.336-.75.75s.336.75.75.75z"/><path d="m21.25 12v8c0 .332-.132.649-.366.884-.235.234-.552.366-.884.366h-6c-.414 0-.75.336-.75.75s.336.75.75.75h6c.729 0 1.429-.29 1.945-.805.515-.516.805-1.216.805-1.945 0-2.918 0-8 0-8 0-.414-.336-.75-.75-.75s-.75.336-.75.75z"/><path d="m2.75 10v-6c0-.69.56-1.25 1.25-1.25h5.5c.414 0 .75-.336.75-.75s-.336-.75-.75-.75c0 0-3.278 0-5.5 0-1.519 0-2.75 1.231-2.75 2.75v6c0 .414.336.75.75.75s.75-.336.75-.75z"/></g></svg>