<svg clip-rule="evenodd" fill-rule="evenodd" height="512" stroke-linejoin="round" stroke-miterlimit="2" viewBox="0 0 24 24" width="512" xmlns="http://www.w3.org/2000/svg"><g id="Icon"><path d="m11.75 8.25c-.464 0-.909.184-1.237.513-.329.328-.513.773-.513 1.237v1.5c0 .464.184.909.513 1.237.328.329.773.513 1.237.513h.5c.464 0 .909-.184 1.237-.513.329-.328.513-.773.513-1.237v-1.5c0-.464-.184-.909-.513-1.237-.328-.329-.773-.513-1.237-.513zm0 1.5h.5c.066 0 .13.026.177.073s.073.111.073.177v1.5c0 .066-.026.13-.073.177s-.111.073-.177.073h-.5c-.066 0-.13-.026-.177-.073s-.073-.111-.073-.177v-1.5c0-.066.026-.13.073-.177s.111-.073.177-.073z"/><path d="m7.5 14.75c-.464 0-.909.184-1.237.513-.329.328-.513.773-.513 1.237v1.5c0 .464.184.909.513 1.237.328.329.773.513 1.237.513h.5c.464 0 .909-.184 1.237-.513.329-.328.513-.773.513-1.237v-1.5c0-.464-.184-.909-.513-1.237-.328-.329-.773-.513-1.237-.513zm0 1.5h.5c.066 0 .13.026.177.073s.073.111.073.177v1.5c0 .066-.026.13-.073.177s-.111.073-.177.073h-.5c-.066 0-.13-.026-.177-.073s-.073-.111-.073-.177v-1.5c0-.066.026-.13.073-.177s.111-.073.177-.073z"/><path d="m16.25 14.75c-.464 0-.909.184-1.237.513-.329.328-.513.773-.513 1.237v1.5c0 .464.184.909.513 1.237.328.329.773.513 1.237.513h.5c.464 0 .909-.184 1.237-.513.329-.328.513-.773.513-1.237v-1.5c0-.464-.184-.909-.513-1.237-.328-.329-.773-.513-1.237-.513zm0 1.5h.5c.066 0 .13.026.177.073s.073.111.073.177v1.5c0 .066-.026.13-.073.177s-.111.073-.177.073h-.5c-.066 0-.13-.026-.177-.073s-.073-.111-.073-.177v-1.5c0-.066.026-.13.073-.177s.111-.073.177-.073z"/><path d="m7.25 9.75h.25v2.75c0 .414.336.75.75.75s.75-.336.75-.75v-3.5c0-.414-.336-.75-.75-.75h-1c-.414 0-.75.336-.75.75s.336.75.75.75z"/><path d="m16 9.75h.25v2.75c0 .414.336.75.75.75s.75-.336.75-.75v-3.5c0-.414-.336-.75-.75-.75h-1c-.414 0-.75.336-.75.75s.336.75.75.75z"/><path d="m11.5 16.25h.25v2.75c0 .414.336.75.75.75s.75-.336.75-.75v-3.5c0-.414-.336-.75-.75-.75h-1c-.414 0-.75.336-.75.75s.336.75.75.75z"/><path d="m3.25 4v16.5c0 1.243 1.007 2.25 2.25 2.25h12.5c.729 0 1.429-.29 1.945-.805.515-.516.805-1.216.805-1.945 0-3.247 0-10.744 0-12.586 0-.464-.184-.909-.513-1.237l-4.414-4.414c-.328-.329-.773-.513-1.237-.513-1.431 0-6.208 0-8.586 0-.729 0-1.429.29-1.945.805-.515.516-.805 1.216-.805 1.945zm1.5 16.5v-16.5c0-.332.132-.649.366-.884.235-.234.552-.366.884-.366h8.586c.066 0 .13.026.177.073 0 0 4.414 4.414 4.414 4.414.047.047.073.111.073.177v12.586c0 .332-.132.649-.366.884-.235.234-.552.366-.884.366h-12.5c-.414 0-.75-.336-.75-.75z"/><path d="m14.25 2.5v3.5c0 .967.783 1.75 1.75 1.75h3.5c.414 0 .75-.336.75-.75s-.336-.75-.75-.75h-3.5c-.138 0-.25-.112-.25-.25v-3.5c0-.414-.336-.75-.75-.75s-.75.336-.75.75z"/></g></svg>