<svg clip-rule="evenodd" fill-rule="evenodd" height="512" stroke-linejoin="round" stroke-miterlimit="2" viewBox="0 0 24 24" width="512" xmlns="http://www.w3.org/2000/svg"><g id="Icon"><path d="m11 8.996c0 .69-.56 1.25-1.25 1.25s-1.25-.56-1.25-1.25c0-1.794 1.456-3.25 3.25-3.25s3.25 1.456 3.25 3.25c0 .918-.382 1.748-.995 2.339-1.717 1.648-2.764 3.863-2.959 6.218-.034.413.273.775.686.81.412.034.775-.273.809-.686.165-1.992 1.051-3.866 2.504-5.261 0 0 .001-.001.001-.001.896-.864 1.454-2.077 1.454-3.419 0-2.622-2.128-4.75-4.75-4.75s-4.75 2.128-4.75 4.75c0 1.518 1.232 2.75 2.75 2.75s2.75-1.232 2.75-2.75c0-.414-.336-.75-.75-.75s-.75.336-.75.75z"/><path d="m4.5 21.615c0-1.242 1.008-2.25 2.25-2.25.832 0 1.56.453 1.949 1.126.207.358.667.481 1.025.273.358-.207.481-.666.273-1.025-.648-1.12-1.86-1.874-3.247-1.874-2.07 0-3.75 1.68-3.75 3.75 0 .414.336.75.75.75s.75-.336.75-.75z"/><path d="m9.213 19.584c.596-.742 1.511-1.219 2.537-1.219 1.479 0 2.729.991 3.122 2.344.079.273.306.478.585.529.28.051.564-.06.735-.288.331-.44.965-.835 1.558-.835.966 0 1.75.784 1.75 1.75 0 .414.336.75.75.75s.75-.336.75-.75c0-1.794-1.456-3.25-3.25-3.25-.644 0-1.323.252-1.885.628-.822-1.421-2.357-2.378-4.115-2.378-1.499 0-2.836.695-3.707 1.781-.259.323-.207.795.116 1.054s.795.207 1.054-.116z"/><path d="m5.939 1.494c-.507.192-.898.62-1.102 1.228-.232.69-.213 1.649.15 2.608.364.959.985 1.689 1.616 2.053.556.32 1.133.381 1.64.189s.898-.62 1.102-1.228c.232-.691.213-1.65-.15-2.609-.364-.959-.985-1.689-1.616-2.053-.556-.32-1.133-.38-1.64-.188zm.532 1.402c.167-.063.342.056.521.197.323.255.61.67.8 1.174.191.503.252 1.004.179 1.41-.04.224-.093.429-.26.492s-.342-.055-.521-.197c-.323-.255-.61-.67-.8-1.174-.191-.503-.252-1.004-.179-1.409.04-.225.093-.429.26-.493z"/><path d="m20.197 4.66c-.373-.393-.919-.59-1.559-.543-.726.053-1.604.44-2.348 1.145-.745.705-1.178 1.561-1.27 2.283-.081.637.086 1.192.458 1.586.373.393.919.589 1.559.543.726-.053 1.604-.44 2.348-1.146.745-.705 1.178-1.56 1.27-2.283.081-.636-.086-1.192-.458-1.585zm-1.089 1.032c.123.129.081.336.019.556-.11.397-.383.821-.774 1.192-.39.37-.829.619-1.231.708-.223.05-.432.081-.555-.049s-.081-.337-.019-.556c.11-.397.383-.822.774-1.192.39-.37.829-.62 1.231-.709.223-.049.432-.08.555.05z"/></g></svg>