<svg clip-rule="evenodd" fill-rule="evenodd" stroke-linejoin="round" stroke-miterlimit="2" viewBox="0 0 32 32" xmlns="http://www.w3.org/2000/svg" xmlns:serif="http://www.serif.com/"><path id="low-signal-phone-rural" d="m0 0h32v32h-32z" fill="none"/><path d="m13.07 14.009c.209.021.242.042.33.08.354.154.588.525.602.916v9.991c-.019.53-.202.64-.369.775-.579.471-1.599.129-1.63-.775v-9.991c.007-.209.026-.244.058-.334.137-.388.424-.647.941-.665.023.001.046.002.068.003zm-6.039 3.993c.178.009.231.027.33.065.38.144.634.457.645.934v5.995c-.024 1.005-1.963 1.47-1.998 0v-5.995c.004-.178.021-.232.056-.332.135-.383.443-.644.919-.667z"/></svg>