<svg clip-rule="evenodd" fill-rule="evenodd" height="512" stroke-linejoin="round" stroke-miterlimit="2" viewBox="0 0 24 24" width="512" xmlns="http://www.w3.org/2000/svg"><g id="Icon"><path d="m20.25 2v6c0 .414-.336.75-.75.75h-6c-1.519 0-2.75-1.231-2.75-2.75v-2c0-1.519 1.231-2.75 2.75-2.75h6c.414 0 .75.336.75.75zm-1.5.75h-5.25c-.69 0-1.25.56-1.25 1.25v2c0 .69.56 1.25 1.25 1.25h5.25z"/><path d="m4.5 15.25h6c1.519 0 2.75 1.231 2.75 2.75v2c0 1.519-1.231 2.75-2.75 2.75h-6c-.414 0-.75-.336-.75-.75v-6c0-.414.336-.75.75-.75zm.75 1.5v4.5h5.25c.69 0 1.25-.56 1.25-1.25v-2c0-.69-.56-1.25-1.25-1.25z"/><path d="m22.75 3.5v3c0 .414-.336.75-.75.75h-2.5c-.414 0-.75-.336-.75-.75v-3c0-.414.336-.75.75-.75h2.5c.414 0 .75.336.75.75zm-1.5.75h-1v1.5h1z"/><path d="m2 16.75h2.5c.414 0 .75.336.75.75v3c0 .414-.336.75-.75.75h-2.5c-.414 0-.75-.336-.75-.75v-3c0-.414.336-.75.75-.75zm.75 1.5v1.5h1v-1.5z"/><path d="m22.75 15.502c0 1.127-.448 2.207-1.244 3.004-.797.796-1.877 1.244-3.004 1.244h-6.002c-.414 0-.75-.336-.75-.75s.336-.75.75-.75h6.002c.729 0 1.428-.29 1.943-.805.512-.511.801-1.204.805-1.934 0-.004 0-.009 0-.013 0-1.518-1.23-2.748-2.748-2.748h-12.752c-1.193 0-2.338-.474-3.182-1.318s-1.318-1.989-1.318-3.182.474-2.338 1.318-3.182 1.989-1.318 3.182-1.318h5.75c.414 0 .75.336.75.75s-.336.75-.75.75h-5.75c-.796 0-1.559.316-2.121.879-.563.562-.879 1.325-.879 2.121s.316 1.559.879 2.121c.562.563 1.325.879 2.121.879h12.752c2.346 0 4.248 1.902 4.248 4.248z"/></g></svg>