<svg clip-rule="evenodd" fill-rule="evenodd" height="512" stroke-linejoin="round" stroke-miterlimit="2" viewBox="0 0 24 24" width="512" xmlns="http://www.w3.org/2000/svg"><g id="Icon"><path d="m12.75 12v-10c0-.414-.336-.75-.75-.75s-.75.336-.75.75v10c0 .414.336.75.75.75s.75-.336.75-.75z"/><path d="m13.414 3.525-1.247 1.247c-.097.097-.252.098-.35.003l-1.35-1.313c-.297-.289-.772-.282-1.06.015-.289.297-.282.772.014 1.06l1.349 1.312c.686.669 1.78.661 2.458-.016 0 0 1.247-1.247 1.247-1.247.292-.293.292-.768 0-1.061-.293-.292-.768-.292-1.061 0z"/><path d="m12.375 11.35-8.66-5c-.358-.206-.818-.083-1.025.275-.206.358-.083.818.275 1.025l8.66 5c.358.206.818.083 1.025-.275.206-.358.083-.818-.275-1.025z"/><path d="m5.368 6.538.456 1.704c.035.132-.042.268-.174.305l-1.81.512c-.398.113-.63.528-.517.926.112.398.527.63.925.517l1.81-.512c.923-.26 1.463-1.213 1.215-2.137 0 .001-.456-1.703-.456-1.703-.107-.4-.519-.638-.919-.531-.399.107-.637.519-.53.919z"/><path d="m11.625 11.35-8.66 5c-.358.207-.481.667-.275 1.025.207.358.667.481 1.025.275l8.66-5c.358-.207.481-.667.275-1.025-.207-.358-.667-.481-1.025-.275z"/><path d="m3.954 15.012 1.703.458c.132.035.211.17.178.302 0 0-.462 1.824-.462 1.824-.102.401.141.81.543.911.401.102.809-.141.911-.543l.462-1.824c.235-.928-.32-1.873-1.245-2.12.001.001-1.702-.456-1.702-.456-.4-.108-.811.13-.918.53-.108.4.13.811.53.918z"/><path d="m11.25 12v10c0 .414.336.75.75.75s.75-.336.75-.75v-10c0-.414-.336-.75-.75-.75s-.75.336-.75.75z"/><path d="m10.586 20.475 1.247-1.247c.097-.097.252-.098.35-.003l1.35 1.313c.297.289.772.282 1.06-.015.289-.297.282-.772-.014-1.06l-1.349-1.312c-.686-.669-1.78-.661-2.458.016 0 0-1.247 1.247-1.247 1.247-.292.293-.292.768 0 1.061.293.292.768.292 1.061 0z"/><path d="m11.625 12.65 8.66 5c.358.206.818.083 1.025-.275.206-.358.083-.818-.275-1.025l-8.66-5c-.358-.206-.818-.083-1.025.275-.206.358-.083.818.275 1.025z"/><path d="m18.632 17.462-.456-1.704c-.035-.132.042-.268.174-.305l1.81-.512c.398-.113.63-.528.517-.926-.112-.398-.527-.63-.925-.517l-1.81.512c-.923.26-1.463 1.213-1.215 2.137 0-.001.456 1.703.456 1.703.107.4.519.638.919.531.399-.107.637-.519.53-.919z"/><path d="m12.375 12.65 8.66-5c.358-.207.481-.667.275-1.025-.207-.358-.667-.481-1.025-.275l-8.66 5c-.358.207-.481.667-.275 1.025.207.358.667.481 1.025.275z"/><path d="m20.046 8.988-1.703-.458c-.132-.035-.211-.17-.178-.302 0 0 .462-1.824.462-1.824.102-.401-.141-.81-.543-.911-.401-.102-.809.141-.911.543l-.462 1.824c-.235.928.32 1.873 1.245 2.12-.001-.001 1.702.456 1.702.456.4.108.811-.13.918-.53.108-.4-.13-.811-.53-.918z"/></g></svg>