<svg clip-rule="evenodd" fill-rule="evenodd" height="512" stroke-linejoin="round" stroke-miterlimit="2" viewBox="0 0 24 24" width="512" xmlns="http://www.w3.org/2000/svg"><g id="Icon"><path d="m22.75 21v-4.494c0-.336-.135-.658-.376-.894-.24-.235-.565-.364-.902-.356-.002 0-.004 0-.006 0-4.984.154-9.847 2.429-13.042 6.263-.186.224-.227.535-.103.799.123.263.388.432.679.432h12c.966 0 1.75-.784 1.75-1.75zm-1.5-4.234v4.234c0 .138-.112.25-.25.25h-10.277c2.811-2.7 6.62-4.3 10.527-4.484z"/><path d="m12.441 19.819c.194-.141.309-.366.309-.606s-.115-.465-.308-.606c-2.809-2.046-6.361-3.239-9.907-3.349-.002 0-.004 0-.006 0-.336-.008-.661.12-.902.355-.24.235-.376.557-.376.894-.001 1.27-.001 4.493-.001 4.493 0 .966.784 1.75 1.75 1.75h6c.223 0 .434-.099.576-.27.847-1.016 1.817-1.898 2.865-2.661zm-9.69-3.052c2.813.133 5.622 1.006 7.971 2.485-.739.604-1.433 1.269-2.069 1.999.001-.001-5.653-.001-5.653-.001-.138 0-.25-.112-.25-.25z"/><path d="m22.75 5c0-2.07-1.68-3.75-3.75-3.75s-3.75 1.68-3.75 3.75 1.68 3.75 3.75 3.75 3.75-1.68 3.75-3.75zm-1.5 0c0 1.242-1.008 2.25-2.25 2.25s-2.25-1.008-2.25-2.25 1.008-2.25 2.25-2.25 2.25 1.008 2.25 2.25z"/><path d="m4.131 10.591 7.052 3.186c1.057.477 2.265-.189 2.456-1.335 0 0 0 0 0-.001.417-2.509-.878-5.084-3.306-6.181s-5.216-.368-6.824 1.604v.001c-.734.901-.437 2.247.622 2.726zm.618-1.367c-.159-.072-.187-.277-.077-.412 1.188-1.458 3.249-1.996 5.043-1.185s2.753 2.713 2.444 4.568c-.028.172-.201.286-.36.215 0 0-7.05-3.186-7.05-3.186z"/><path d="m7.282 11.191-2.937 6.5c-.171.377-.003.822.374.992.377.171.822.003.993-.374l2.937-6.5c.17-.377.003-.822-.375-.992-.377-.171-.822-.003-.992.374z"/></g></svg>