<svg clip-rule="evenodd" fill-rule="evenodd" height="512" stroke-linejoin="round" stroke-miterlimit="2" viewBox="0 0 24 24" width="512" xmlns="http://www.w3.org/2000/svg"><g id="Icon"><path d="m14.75 15c0-1.518-1.232-2.75-2.75-2.75s-2.75 1.232-2.75 2.75 1.232 2.75 2.75 2.75 2.75-1.232 2.75-2.75zm-1.5 0c0 .69-.56 1.25-1.25 1.25s-1.25-.56-1.25-1.25.56-1.25 1.25-1.25 1.25.56 1.25 1.25z"/><path d="m7.75 15c0-1.518-1.232-2.75-2.75-2.75s-2.75 1.232-2.75 2.75 1.232 2.75 2.75 2.75 2.75-1.232 2.75-2.75zm-1.5 0c0 .69-.56 1.25-1.25 1.25s-1.25-.56-1.25-1.25.56-1.25 1.25-1.25 1.25.56 1.25 1.25z"/><path d="m21.75 15c0-1.518-1.232-2.75-2.75-2.75s-2.75 1.232-2.75 2.75 1.232 2.75 2.75 2.75 2.75-1.232 2.75-2.75zm-1.5 0c0 .69-.56 1.25-1.25 1.25s-1.25-.56-1.25-1.25.56-1.25 1.25-1.25 1.25.56 1.25 1.25z"/><path d="m19 16.25c-2.071 0-3.75 1.679-3.75 3.75v1c0 .464.184.909.513 1.237.328.329.773.513 1.237.513h4c.464 0 .909-.184 1.237-.513.329-.328.513-.773.513-1.237v-1c0-2.071-1.679-3.75-3.75-3.75zm0 1.5c1.243 0 2.25 1.007 2.25 2.25v1c0 .066-.026.13-.073.177s-.111.073-.177.073h-4c-.066 0-.13-.026-.177-.073s-.073-.111-.073-.177v-1c0-1.243 1.007-2.25 2.25-2.25z"/><path d="m12 16.25c-2.071 0-3.75 1.679-3.75 3.75v1c0 .464.184.909.513 1.237.328.329.773.513 1.237.513h4c.464 0 .909-.184 1.237-.513.329-.328.513-.773.513-1.237v-1c0-2.071-1.679-3.75-3.75-3.75zm0 1.5c1.243 0 2.25 1.007 2.25 2.25v1c0 .066-.026.13-.073.177s-.111.073-.177.073h-4c-.066 0-.13-.026-.177-.073s-.073-.111-.073-.177v-1c0-1.243 1.007-2.25 2.25-2.25z"/><path d="m5 16.25c-2.071 0-3.75 1.679-3.75 3.75v1c0 .464.184.909.513 1.237.328.329.773.513 1.237.513h4c.464 0 .909-.184 1.237-.513.329-.328.513-.773.513-1.237v-1c0-2.071-1.679-3.75-3.75-3.75zm0 1.5c1.243 0 2.25 1.007 2.25 2.25v1c0 .066-.026.13-.073.177s-.111.073-.177.073h-4c-.066 0-.13-.026-.177-.073s-.073-.111-.073-.177v-1c0-1.243 1.007-2.25 2.25-2.25z"/><path d="m15.75 5c0-2.299-2.069-4.119-4.448-3.687-1.479.27-2.693 1.469-2.979 2.944-.245 1.258.464 2.618 1.325 3.482.005.005.01.01.016.015.047.045.074.108.074.173 0 .01 0 .021.001.031.011.279.011.664.011 1.038 0 .965.781 1.748 1.747 1.75.321.001.678.001.999.002.465.001.911-.183 1.24-.511.329-.329.514-.774.514-1.239v-1.073c0-.067.028-.132.076-.179.002-.002.004-.003.005-.005.719-.705 1.419-1.792 1.419-2.741zm-1.5 0c0 .594-.52 1.229-.969 1.67-.337.325-.531.78-.531 1.254v1.074c0 .066-.026.13-.073.177s-.111.073-.178.073l-.999-.002c-.138 0-.25-.112-.25-.25 0-.391 0-.791-.012-1.086-.005-.468-.198-.915-.537-1.239-.531-.535-1.058-1.345-.906-2.128.171-.879.894-1.593 1.775-1.754 1.431-.26 2.68.828 2.68 2.211z"/><path d="m16.127 8.219 1.997 1.144c.078.044.126.127.126.217v3.42c0 .414.336.75.75.75s.75-.336.75-.75c0 0 0-2.312 0-3.42 0-.628-.336-1.207-.88-1.519l-1.997-1.144c-.359-.205-.818-.081-1.024.278-.206.36-.081.818.278 1.024z"/><path d="m7.127 6.917-1.997 1.144c-.544.312-.88.891-.88 1.519v3.42c0 .414.336.75.75.75s.75-.336.75-.75v-3.42c0-.09.048-.173.126-.217 0 0 1.997-1.144 1.997-1.144.359-.206.484-.664.278-1.024-.206-.359-.664-.483-1.024-.278z"/></g></svg>