<svg clip-rule="evenodd" fill-rule="evenodd" height="512" stroke-linejoin="round" stroke-miterlimit="2" viewBox="0 0 24 24" width="512" xmlns="http://www.w3.org/2000/svg"><g id="Icon"><path d="m19.75 4.042c0-.739-.288-1.447-.8-1.969-.517-.528-1.219-.823-1.95-.823h-10c-.731 0-1.433.295-1.95.823-.512.522-.8 1.23-.8 1.969v16.937c0 .692.398 1.318 1.013 1.606.625.294 1.36.19 1.882-.266l4.698-4.112c.09-.079.224-.079.314 0l4.698 4.112c.522.456 1.257.56 1.882.266.615-.288 1.013-.914 1.013-1.606zm-1.5 0v16.937c0 .106-.057.204-.151.249-.085.04-.185.024-.256-.038l-4.698-4.111c-.659-.577-1.631-.577-2.29 0l-4.698 4.111c-.071.062-.171.078-.256.038-.094-.045-.151-.143-.151-.249v-16.937c0-.345.133-.676.372-.919.233-.238.548-.373.878-.373h10c.33 0 .645.135.878.373.239.243.372.574.372.919z"/></g></svg>