<svg clip-rule="evenodd" fill-rule="evenodd" height="512" stroke-linejoin="round" stroke-miterlimit="2" viewBox="0 0 24 24" width="512" xmlns="http://www.w3.org/2000/svg"><g id="Icon"><path d="m17 22.75c.968 0 1.75-.784 1.75-1.75v-18c0-.966-.782-1.75-1.75-1.75h-10c-.968 0-1.75.784-1.75 1.75v18c0 .966.782 1.75 1.75 1.75zm0-1.5h-10c-.138 0-.25-.112-.25-.25v-18c0-.138.112-.25.25-.25h10c.138 0 .25.112.25.25v18c0 .138-.112.25-.25.25z"/><path d="m10 5.75h4c.414 0 .75-.336.75-.75s-.336-.75-.75-.75h-4c-.414 0-.75.336-.75.75s.336.75.75.75z"/><path d="m10 7.75h4c.414 0 .75-.336.75-.75s-.336-.75-.75-.75h-4c-.414 0-.75.336-.75.75s.336.75.75.75z"/><path d="m12.75 18v-1c0-.414-.336-.75-.75-.75s-.75.336-.75.75v1c0 .414.336.75.75.75s.75-.336.75-.75z"/></g></svg>