<svg clip-rule="evenodd" fill-rule="evenodd" height="512" stroke-linejoin="round" stroke-miterlimit="2" viewBox="0 0 24 24" width="512" xmlns="http://www.w3.org/2000/svg"><g id="Icon"><path d="m18.75 5c0-2.07-1.68-3.75-3.75-3.75s-3.75 1.68-3.75 3.75v14c0 2.07 1.68 3.75 3.75 3.75s3.75-1.68 3.75-3.75c0-1.631-1.044-3.021-2.5-3.536-.39-.138-.819.067-.957.457s.067.819.457.957c.873.309 1.5 1.143 1.5 2.122 0 1.242-1.008 2.25-2.25 2.25s-2.25-1.008-2.25-2.25v-14c0-1.242 1.008-2.25 2.25-2.25s2.25 1.008 2.25 2.25c0 .414.336.75.75.75s.75-.336.75-.75z"/><path d="m6.75 5c0-1.242 1.008-2.25 2.25-2.25s2.25 1.008 2.25 2.25v14c0 1.242-1.008 2.25-2.25 2.25s-2.25-1.008-2.25-2.25c0-.979.627-1.813 1.5-2.122.39-.138.595-.567.457-.957s-.567-.595-.957-.457c-1.456.515-2.5 1.905-2.5 3.536 0 2.07 1.68 3.75 3.75 3.75s3.75-1.68 3.75-3.75v-14c0-2.07-1.68-3.75-3.75-3.75s-3.75 1.68-3.75 3.75c0 .414.336.75.75.75s.75-.336.75-.75z"/><path d="m18 12.75c1.794 0 3.25 1.456 3.25 3.25s-1.456 3.25-3.25 3.25c-.414 0-.75.336-.75.75s.336.75.75.75c2.622 0 4.75-2.128 4.75-4.75s-2.128-4.75-4.75-4.75c-.414 0-.75.336-.75.75s.336.75.75.75z"/><path d="m6 11.25c-2.622 0-4.75 2.128-4.75 4.75s2.128 4.75 4.75 4.75c.414 0 .75-.336.75-.75s-.336-.75-.75-.75c-1.794 0-3.25-1.456-3.25-3.25s1.456-3.25 3.25-3.25c.414 0 .75-.336.75-.75s-.336-.75-.75-.75z"/><path d="m19.5 8.75c.966 0 1.75.784 1.75 1.75 0 .717-.433 1.334-1.051 1.605-.379.165-.552.608-.386.987s.608.553.988.387c1.147-.502 1.949-1.648 1.949-2.979 0-1.794-1.456-3.25-3.25-3.25-.414 0-.75.336-.75.75s.336.75.75.75z"/><path d="m4.5 7.25c-1.794 0-3.25 1.456-3.25 3.25 0 1.331.802 2.477 1.949 2.979.38.166.822-.008.988-.387s-.007-.822-.386-.987c-.618-.271-1.051-.888-1.051-1.605 0-.966.784-1.75 1.75-1.75.414 0 .75-.336.75-.75s-.336-.75-.75-.75z"/><path d="m18 5.458c.966 0 1.75.784 1.75 1.75 0 .194-.031.38-.09.554-.131.393.082.818.474.949.393.132.818-.081.949-.473.108-.324.167-.67.167-1.03 0-1.793-1.456-3.25-3.25-3.25-.414 0-.75.336-.75.75s.336.75.75.75z"/><path d="m6 3.958c-1.794 0-3.25 1.457-3.25 3.25 0 .36.059.706.167 1.03.131.392.556.605.949.473.392-.131.605-.556.474-.949-.059-.174-.09-.36-.09-.554 0-.966.784-1.75 1.75-1.75.414 0 .75-.336.75-.75s-.336-.75-.75-.75z"/><path d="m14.866 7.568c.731.631.812 1.737.181 2.468-.127.146-.272.267-.43.361-.356.211-.473.672-.262 1.028.212.356.672.473 1.028.261.293-.174.564-.398.799-.67 1.172-1.357 1.022-3.411-.336-4.584-.313-.27-.787-.235-1.058.078-.27.313-.235.787.078 1.058z"/><path d="m8.154 6.432c-1.358 1.173-1.508 3.227-.336 4.584.235.272.506.496.799.67.356.212.816.095 1.028-.261.211-.356.094-.817-.262-1.028-.158-.094-.303-.215-.43-.361-.631-.731-.55-1.837.181-2.468.313-.271.348-.745.078-1.058-.271-.313-.745-.348-1.058-.078z"/></g></svg>