<svg clip-rule="evenodd" fill-rule="evenodd" stroke-linejoin="round" stroke-miterlimit="1.414" viewBox="0 0 32 32" xmlns="http://www.w3.org/2000/svg" xmlns:serif="http://www.serif.com/"><path id="stomach-maag-heal" d="m0 0h32v32h-32z" fill="none"/><path d="m14.141 3.005c.478.092.835.495.859.991 0 3.635.027 7.271 0 10.906-.027 2.178-1.486 4.268-3.559 5.017-1.387.501-2.444 1.759-2.448 3.262v4.843c-.037.776-1.041 1.29-1.657.757-.169-.146-.285-.348-.327-.567-.016-.084-.014-.105-.018-.19 0-1.633-.012-3.266 0-4.898.027-2.186 1.486-4.268 3.559-5.017 1.387-.502 2.444-1.764 2.448-3.263v-10.85c.027-.579.523-1.05 1.143-.991zm4.005 0c.477.092.835.495.859.991 0 .868-.013 1.736 0 2.604.01.395.279.766.653.897.807.273 1.608.58 2.308 1.062 1.846 1.273 3.017 3.452 3.045 5.73.012 1.591.02 3.19-.491 4.667-1.202 3.481-4.723 6.029-8.455 6.065-.704.002-1.407-.005-2.111 0-.505.009-.953.449-.956.972v2.031c-.004.085-.002.106-.018.19-.153.789-1.448 1.094-1.873.269-.073-.141-.104-.298-.112-.459v-2.037c.01-1.541 1.332-2.938 2.933-2.968 1.49-.01 3.016.093 4.406-.396 2.683-.945 4.647-3.647 4.675-6.562.004-1.086.088-2.169-.219-3.175-.466-1.524-1.692-2.786-3.205-3.303-.776-.261-1.537-.605-2.005-1.242-.372-.506-.574-1.131-.578-1.758v-2.587c.028-.582.536-1.049 1.144-.991z" fill-rule="nonzero"/></svg>