<svg clip-rule="evenodd" fill-rule="evenodd" height="512" stroke-linejoin="round" stroke-miterlimit="2" viewBox="0 0 24 24" width="512" xmlns="http://www.w3.org/2000/svg"><g id="Icon"><path d="m16.75 22c0 .414-.336.75-.75.75s-.75-.336-.75-.75v-14c0-.138-.112-.25-.25-.25h-6c-.138 0-.25.112-.25.25v14c0 .414-.336.75-.75.75s-.75-.336-.75-.75v-14c0-.966.783-1.75 1.75-1.75h6c.967 0 1.75.784 1.75 1.75z"/><path d="m13.75 7c0 .414-.336.75-.75.75s-.75-.336-.75-.75v-1.852c0-1.891 1.408-3.486 3.285-3.721l1.372-.171c.411-.052.786.24.837.651.052.411-.24.786-.651.837l-1.372.172c-1.126.14-1.971 1.098-1.971 2.232z"/><path d="m11.75 7c0 .414-.336.75-.75.75s-.75-.336-.75-.75v-1.852c0-1.134-.845-2.092-1.971-2.232l-1.372-.172c-.411-.051-.703-.426-.651-.837.051-.411.426-.703.837-.651l1.372.171c1.877.235 3.285 1.83 3.285 3.721z"/></g></svg>