<svg clip-rule="evenodd" fill-rule="evenodd" height="512" stroke-linejoin="round" stroke-miterlimit="2" viewBox="0 0 24 24" width="512" xmlns="http://www.w3.org/2000/svg"><g id="Icon"><path d="m7.5 4.75h-2c-.967 0-1.75.784-1.75 1.75v14.5c0 .967.784 1.75 1.75 1.75h13c.966 0 1.75-.783 1.75-1.75v-14.5c0-.966-.783-1.75-1.75-1.75h-2c-.414 0-.75.336-.75.75s.336.75.75.75h2c.138 0 .25.112.25.25v14.5c0 .138-.112.25-.25.25h-13c-.138 0-.25-.112-.25-.25v-14.5c0-.138.112-.25.25-.25h2c.414 0 .75-.336.75-.75s-.336-.75-.75-.75z"/><path d="m8.261 3.75h-.761c-.414 0-.75.336-.75.75v2.5c0 .414.336.75.75.75h9c.414 0 .75-.336.75-.75v-2.5c0-.414-.336-.75-.75-.75h-.761c-.127-1.402-1.305-2.5-2.739-2.5h-2c-1.434 0-2.612 1.098-2.739 2.5zm.739 1.5c.414 0 .75-.336.75-.75v-.5c0-.69.56-1.25 1.25-1.25h2c.69 0 1.25.56 1.25 1.25v.5c0 .414.336.75.75.75h.75v1h-7.5v-1z"/><path d="m8 15.25h8c.414 0 .75-.336.75-.75s-.336-.75-.75-.75h-8c-.414 0-.75.336-.75.75s.336.75.75.75z"/><path d="m9.5 11.75h5c.414 0 .75-.336.75-.75s-.336-.75-.75-.75h-5c-.414 0-.75.336-.75.75s.336.75.75.75z"/><path d="m8 18.75h8c.414 0 .75-.336.75-.75s-.336-.75-.75-.75h-8c-.414 0-.75.336-.75.75s.336.75.75.75z"/></g></svg>