<?xml version="1.0"?>
<svg xmlns="http://www.w3.org/2000/svg" viewBox="0 0 32 32" width="512" height="512"><g id="Layer_42" data-name="Layer 42"><path d="M28,24H27V16h1a1,1,0,0,0,.707-1.707l-6-6A.9993.9993,0,0,0,22,8H14.4141L12.707,6.293a.9994.9994,0,0,0-1.414,0l-8,8a1,1,0,0,0,1.414,1.414L5,15.4141V24H4a1,1,0,0,0,0,2H28a1,1,0,0,0,0-2ZM21.5859,10l4,4H20.4141l-1.7062-1.7062-.0015-.0015L16.4141,10ZM7,13.4141l5-5,1.2921,1.2921.0015.0015L17,13.4141V21a1,1,0,0,0,2,0V15.4141S19.51,16,20,16h5v8H15V19a1,1,0,0,0-1-1H10a1,1,0,0,0-1,1v5H7ZM13,24H11V20h2Z"/></g></svg>
