<svg clip-rule="evenodd" fill-rule="evenodd" height="512" stroke-linejoin="round" stroke-miterlimit="2" viewBox="0 0 24 24" width="512" xmlns="http://www.w3.org/2000/svg"><g id="Icon"><path d="m5.72 8.084c-.293-.292-.293-.767 0-1.06.292-.293.768-.293 1.06 0 0 0 2.618 2.618 2.618 2.618l3.517-1.759c.274-.137.604-.093.833.111l4.5 4c.31.275.338.749.063 1.058-.275.31-.75.338-1.059.063l-4.121-3.663-3.546 1.773c-.288.144-.637.088-.865-.141l-3-3z"/><path d="m16.943 10.072c-.009-.414.319-.758.733-.767.414-.01.757.319.767.733l.057 2.499c.009.414-.319.757-.733.767l-2.499.057c-.414.009-.758-.319-.767-.733-.01-.414.319-.757.732-.767l1.75-.04z"/><path d="m21.75 3v14c0 .414-.336.75-.75.75h-18c-.414 0-.75-.336-.75-.75v-14c0-.414.336-.75.75-.75h18c.414 0 .75.336.75.75zm-1.5.75h-16.5v12.5h16.5z"/><path d="m12.75 3c0 .414-.336.75-.75.75s-.75-.336-.75-.75v-1c0-.414.336-.75.75-.75s.75.336.75.75z"/><path d="m12.75 21c0 .414-.336.75-.75.75s-.75-.336-.75-.75v-4c0-.414.336-.75.75-.75s.75.336.75.75z"/><path d="m2 3.75c-.414 0-.75-.336-.75-.75s.336-.75.75-.75h20c.414 0 .75.336.75.75s-.336.75-.75.75z"/><path d="m2 17.75c-.414 0-.75-.336-.75-.75s.336-.75.75-.75h20c.414 0 .75.336.75.75s-.336.75-.75.75z"/><path d="m8.45 22.6c-.331.248-.802.181-1.05-.15s-.181-.802.15-1.05l4-3c.267-.2.633-.2.9 0l4 3c.331.248.398.719.15 1.05s-.719.398-1.05.15l-3.55-2.663z"/></g></svg>