<svg clip-rule="evenodd" fill-rule="evenodd" height="512" stroke-linejoin="round" stroke-miterlimit="2" viewBox="0 0 24 24" width="512" xmlns="http://www.w3.org/2000/svg"><g id="Icon"><path d="m3.995 20.424h14.455c1.14 0 2.234-.453 3.041-1.26.806-.806 1.259-1.9 1.259-3.04 0-.001 0-.002 0-.004 0-.872-.347-1.709-.964-2.326s-1.453-.964-2.326-.964h-1.629c-.445 0-.879-.131-1.248-.377l-4.002-2.668c-.626-.417-1.002-1.12-1.002-1.872v-2.593c0-.562-.27-1.09-.727-1.419-.456-.329-1.043-.419-1.576-.241l-2.946.982c-.128.043-.261.064-.395.064h-2.23c-.967 0-1.75.784-1.75 1.75v5.896c0 .106-.008.213-.023.318l-.659 4.615c-.113.789.122 1.588.645 2.191.522.602 1.28.948 2.077.948zm0-1.5c-.362 0-.707-.158-.944-.431-.237-.274-.344-.637-.293-.996 0 0 .659-4.615.659-4.615.025-.176.038-.353.038-.53v-5.896c0-.138.112-.25.25-.25h2.23c.295 0 .589-.047.869-.141 0 0 2.946-.982 2.946-.982.076-.025.16-.013.225.034s.104.123.104.203v2.593c0 1.254.627 2.424 1.67 3.12 1.227.818 3.003 2.002 4.001 2.668.617.41 1.34.629 2.081.629h1.629c.475 0 .93.189 1.266.525.335.335.524.791.524 1.265v.004c0 .742-.295 1.454-.82 1.98-.525.525-1.237.82-1.98.82z"/><path d="m5.509 5.456v2.218c0 .332-.132.65-.366.884l-.352.352c-.234.234-.552.366-.884.366h-1.202c-.414 0-.75.336-.75.75s.336.75.75.75h1.202c.73 0 1.429-.29 1.945-.805.115-.116.236-.237.352-.352.515-.516.805-1.215.805-1.945v-2.218c0-.414-.336-.75-.75-.75s-.75.336-.75.75z"/><path d="m2.319 16.255 1.585.951c.789.473 1.726.639 2.63.467 1.344-.224 3.794-.408 6.68.196 4.812 1.008 7.585-.497 9.05-1.048.387-.145.584-.578.438-.966-.146-.387-.578-.583-.966-.438-1.33.5-3.844 1.899-8.214.984-3.13-.656-5.787-.449-7.241-.206-.007.001-.013.002-.02.003-.545.106-1.11.007-1.586-.279 0 0-1.584-.951-1.584-.951-.355-.213-.816-.097-1.029.258s-.098.816.257 1.029z"/><path d="m15.422 15.126 2.031-2.031c.292-.292.292-.768 0-1.06-.293-.293-.768-.293-1.061 0l-2.031 2.031c-.293.292-.293.768 0 1.06.293.293.768.293 1.061 0z"/><path d="m13.39 13.603 2.032-2.031c.292-.293.292-.768 0-1.061-.293-.292-.768-.292-1.061 0l-2.031 2.031c-.293.293-.293.768 0 1.061s.768.293 1.06 0z"/><path d="m11.359 12.08 2.031-2.031c.293-.293.293-.768 0-1.061-.292-.293-.767-.293-1.06 0l-2.031 2.031c-.293.293-.293.768 0 1.061.292.292.768.292 1.06 0z"/></g></svg>