<svg clip-rule="evenodd" fill-rule="evenodd" stroke-linejoin="round" stroke-miterlimit="1.414" viewBox="0 0 32 32" xmlns="http://www.w3.org/2000/svg" xmlns:serif="http://www.serif.com/"><path id="print-printer-office-work" d="m0 0h32v32h-32z" fill="none"/><path d="m6.997 25h-2.997c-.537-.025-.975-.451-1-1v-10c.025-.536.46-.975 1-1h1v-3s.191-.963 1-1h3.956v-5s.212-.964 1-1h8c.029.001.059.003.088.004.374.049.388.077.62.289l2 2c.272.298.276.322.292.707v3h4.044c.003 0 .481.043.739.326.166.182.25.426.261.674v3h1c.004.001.963.192 1 1v10c-.025.536-.46.975-1 1h-6.044v3s-.19.963-1 1h-10c-.535-.025-.975-.46-1-1v-6c.025-.537.451-.975 1-1h6c.778.037 1.286 1.043.756 1.655-.146.168-.347.285-.566.327-.084.016-.105.014-.19.018h-5v4h8v-3s.191-.963 1-1h6.044v-8h-1c-.537-.025-.975-.451-1-1v-3h-4.044-5.966c-.777-.019-1.291-1.08-.732-1.681.187-.201.459-.312.732-.319h4.966v-2.586l-1.414-1.414h-6.586v5s-.211.964-1 1h-3.956v2h15l.078.003c.255.03.322.069.444.144.508.311.629 1.117.185 1.56-.185.185-.443.283-.707.293h-16-1v8h1.997c.774.037 1.308 1.018.756 1.655-.146.168-.348.285-.567.327-.083.016-.105.014-.189.018zm17.003-8c.552 0 1 .448 1 1s-.448 1-1 1-1-.448-1-1 .448-1 1-1z"/></svg>