<svg clip-rule="evenodd" fill-rule="evenodd" height="512" stroke-linejoin="round" stroke-miterlimit="2" viewBox="0 0 24 24" width="512" xmlns="http://www.w3.org/2000/svg"><g id="Icon"><path d="m22.75 5c0-2.071-1.679-3.75-3.75-3.75h-14c-2.071 0-3.75 1.679-3.75 3.75v14c0 2.071 1.679 3.75 3.75 3.75h14c2.071 0 3.75-1.679 3.75-3.75zm-1.5 0v14c0 1.243-1.007 2.25-2.25 2.25h-14c-1.243 0-2.25-1.007-2.25-2.25v-14c0-1.243 1.007-2.25 2.25-2.25h14c1.243 0 2.25 1.007 2.25 2.25z"/><path d="m22 6.25h-20c-.414 0-.75.336-.75.75s.336.75.75.75h20c.414 0 .75-.336.75-.75s-.336-.75-.75-.75z"/><circle cx="12.75" cy="4.5" r=".75"/><circle cx="15.5" cy="4.5" r=".75"/><circle cx="18.25" cy="4.5" r=".75"/><path d="m12.488 10.663-2.4 7.2c-.13.393.082.818.475.949.393.13.818-.082.949-.475l2.4-7.2c.13-.393-.082-.818-.475-.949-.393-.13-.818.082-.949.475z"/><path d="m14.57 12.63 1.869 1.87s-1.869 1.87-1.869 1.87c-.293.292-.293.768 0 1.06.292.293.768.293 1.06 0l2.4-2.4c.293-.293.293-.767 0-1.06l-2.4-2.4c-.292-.293-.768-.293-1.06 0-.293.292-.293.768 0 1.06z"/><path d="m8.37 11.57-2.4 2.4c-.293.293-.293.767 0 1.06l2.4 2.4c.292.293.768.293 1.06 0 .293-.292.293-.768 0-1.06l-1.869-1.87s1.869-1.87 1.869-1.87c.293-.292.293-.768 0-1.06-.292-.293-.768-.293-1.06 0z"/></g></svg>