<svg clip-rule="evenodd" fill-rule="evenodd" stroke-linejoin="round" stroke-miterlimit="2" viewBox="0 0 32 32" xmlns="http://www.w3.org/2000/svg" xmlns:serif="http://www.serif.com/"><path id="biology-plants-seed" d="m0 0h32v32h-32z" fill="none"/><path d="m15.461 12.018c-2.634 1.164-5.905.874-7.892-1.597-1.193-1.483-2.061-3.29-3.949-4.047 0 0-.422-.191-.567-.583-.318-.864.843-1.455 2.011-1.869 1.481-.526 3.031-.868 4.601-.877h.119c1.983.023 3.957.705 5.314 2.205 0 0 .564.893-.013 1.441-.447.425-1.133.241-1.612-.249-1.556-1.574-4.198-1.556-6.158-1.1-.337.078-.67.17-1 .272l-.04.013c.04.033.08.066.12.1.965.824 1.641 1.919 2.373 2.958.645.915 1.534 1.665 2.701 1.892 1.607.313 3.26-.162 4.584-1.27l.003-.002c.645-1.84 1.795-3.475 3.456-4.484 1.84-1.118 4.078-1.521 6.217-1.519.813.004 1.627.054 2.426.192 0 0 1.285.647.686 1.545-.077.115-.177.213-.293.287-.246.158-.514.249-.731.399-2.168 1.498-2.126 4.821-4.84 6.179-.89.445-2.001.608-2.917.304-.685-.228-.925-1.325-.24-1.782.619-.413 1.544.099 2.348-.358 1.119-.636 1.551-1.986 2.116-3.032.328-.602.678-1.193 1.104-1.73-2.682.06-5.586 1.011-6.922 3.358-1.117 1.962-1.146 4.378-1.284 6.705-.126 2.134-.177 4.272-.181 6.415l-.003.29c-.098.801-.481.847-.831.906-.515.087-1.064-.295-1.153-.82-.048-.285-.014-.371-.014-.538.002-.51.004-1.021.009-1.532-3.006.353-5.962 1.814-8.094 3.872-.593.572-.451 1.717.403 1.944 5.198 1.334 11.574 1.463 17.455-.001.781-.212 1.047-1.261.403-1.935-1.51-1.584-3.467-2.836-5.468-3.453 0 0-.86-.49-.674-1.208.161-.619.876-.854 1.626-.584 2.302.828 4.431 2.203 6.104 4.013 0 0 .452.526.643 1.058.575 1.601-.407 3.577-2.13 4.046-6.066 1.51-12.418 1.455-18.436.008-.201-.052-.269-.077-.4-.13-1.394-.559-2.243-2.225-1.839-3.701.295-1.079 1.248-1.865 2.197-2.579 2.415-1.815 5.346-3.123 8.24-3.374.048-2.03.157-4.054.422-6.048z"/></svg>