<svg clip-rule="evenodd" fill-rule="evenodd" height="512" stroke-linejoin="round" stroke-miterlimit="2" viewBox="0 0 24 24" width="512" xmlns="http://www.w3.org/2000/svg"><g id="Icon"><path d="m19.799 19.997c.178-2.708.949-14.448.949-14.448.014-.207-.059-.41-.201-.562-.141-.151-.34-.237-.547-.237h-15.999c-.208 0-.407.086-.549.238-.142.153-.214.357-.2.564 0 0 .831 11.892 1.05 14.504.032.433.193.847.462 1.188.044.056.095.105.153.146.648.463 2.45 1.358 7.082 1.364 4.521.005 6.363-.843 7.087-1.282.07-.043.132-.096.185-.159.311-.372.496-.833.528-1.317zm-1.497-.099v.001c-.008.128-.048.251-.115.359-.72.398-2.402 1-6.186.996-3.832-.005-5.467-.609-6.112-1.017-.053-.09-.084-.19-.091-.293 0-.004 0-.007-.001-.011-.184-2.192-.802-10.971-.992-13.683h14.394s-.897 13.648-.897 13.648z"/><path d="m21.75 4.5v-1.5c0-.464-.184-.909-.513-1.237-.328-.329-.773-.513-1.237-.513-3.151 0-12.849 0-16 0-.464 0-.909.184-1.237.513-.329.328-.513.773-.513 1.237v1.5c0 .464.184.909.513 1.237.328.329.773.513 1.237.513h16c.464 0 .909-.184 1.237-.513.329-.328.513-.773.513-1.237zm-1.5 0c0 .066-.026.13-.073.177s-.111.073-.177.073h-16c-.066 0-.13-.026-.177-.073s-.073-.111-.073-.177v-1.5c0-.066.026-.13.073-.177s.111-.073.177-.073h16c.066 0 .13.026.177.073s.073.111.073.177z"/><path d="m15.75 11.831v-1c0-.967-.784-1.75-1.75-1.75-1.11 0-2.89 0-4 0-.966 0-1.75.783-1.75 1.75v1c0 .966.784 1.75 1.75 1.75h4c.966 0 1.75-.784 1.75-1.75zm-1.5 0c0 .138-.112.25-.25.25h-4c-.138 0-.25-.112-.25-.25v-1c0-.138.112-.25.25-.25h4c.138 0 .25.112.25.25z"/><path d="m19.318 8.375c-1.341.892-2.854 1.545-4.478 1.9-.405.089-.661.489-.573.893.089.405.489.661.893.573 1.809-.396 3.494-1.124 4.988-2.116.345-.229.439-.695.21-1.04s-.695-.439-1.04-.21z"/><path d="m9.16 10.275c-1.535-.335-2.972-.938-4.257-1.756-.35-.222-.814-.119-1.036.23s-.119.813.23 1.036c1.433.911 3.032 1.582 4.743 1.956.404.088.804-.168.893-.573.088-.404-.168-.804-.573-.893z"/></g></svg>