<svg clip-rule="evenodd" fill-rule="evenodd" stroke-linejoin="round" stroke-miterlimit="2" viewBox="0 0 32 32" xmlns="http://www.w3.org/2000/svg" xmlns:serif="http://www.serif.com/"><path id="no-signal-error-inland-rural" d="m0 0h32v32h-32z" fill="none"/><path d="m13.07 14.009c.209.021.242.042.33.08.354.154.588.525.602.916v9.991c-.019.53-.202.64-.369.775-.579.471-1.599.129-1.63-.775v-9.991c.007-.209.026-.244.058-.334.137-.388.424-.647.941-.665.023.001.046.002.068.003zm7.512 7.955-2.291-2.291c-.552-.58-.163-1.696.719-1.706.016 0 .032.001.048.002.245.02.47.122.646.29l2.291 2.292 2.292-2.292c.202-.192.465-.295.742-.292.783.048 1.268 1.078.671 1.706l-2.291 2.291 2.291 2.291c.693.727-.349 2.427-1.413 1.413l-2.292-2.291-2.291 2.291c-.712.679-2.459-.315-1.413-1.413zm-13.551-3.962c.178.009.231.027.33.065.38.144.634.457.645.934v5.995c-.024 1.005-1.963 1.47-1.998 0v-5.995c.004-.178.021-.232.056-.332.135-.383.443-.644.919-.667zm12.023-7.99c.181.016.231.036.326.075.366.151.604.444.617.923v3.93c-.015.532-.162.592-.333.745-.546.488-1.618.123-1.664-.689-.001-.018-.001-.037-.002-.056v-3.93c.006-.182.023-.233.057-.33.136-.391.445-.655.943-.669.018 0 .037.001.056.001zm6.014-3.994c.228.026.264.051.359.096.336.162.551.524.565.901v7.925c-.038 1.018-1.945 1.411-1.998 0v-7.925c.008-.23.031-.268.069-.365.154-.392.56-.648 1.005-.632z"/></svg>