<svg clip-rule="evenodd" fill-rule="evenodd" stroke-linejoin="round" stroke-miterlimit="1.414" viewBox="0 0 32 32" xmlns="http://www.w3.org/2000/svg" xmlns:serif="http://www.serif.com/"><path id="field-basketball-sport-court" d="m0 0h32v32h-32z" fill="none"/><path d="m27 13.18c-.795.291-1.469.914-1.786 1.702-.584 1.455.193 3.312 1.668 3.904.039.015.078.03.118.044zm-16.998 11.82h-5.002v2h13c.012.003 1.035.279.999 1.048-.021.443-.372.85-.81.934-.083.016-.105.014-.189.018h-14c-.537-.025-.975-.451-1-1v-24c.028-.583.523-1.049 1.142-.99.477.092.834.495.858.99v3c1.686-.002 3.372-.005 5.058 0 3.552.034 6.974 2.352 8.297 5.649 1.445 3.599.236 8.076-2.841 10.464-1.546 1.2-3.496 1.868-5.456 1.887zm-5.002-2c1.682.002 3.364.005 5.045 0 2.979-.028 5.812-2.131 6.665-5 .701-2.355.049-5.055-1.643-6.829-1.303-1.367-3.179-2.165-5.069-2.171h-4.998v9.004c2.008.002 4.015.011 6.023-.001 1.285-.024 2.346-1.496 1.829-2.76-.298-.731-1.05-1.241-1.857-1.246h-2.995c-.863-.027-1.451-1.422-.426-1.905.125-.058.195-.088.426-.095 1.016 0 2.033-.006 3.049 0 2.144.041 4.054 2.017 3.946 4.202-.1 2.011-1.891 3.791-3.994 3.804h-6.001zm22-2.107c-1.779-.386-3.327-1.78-3.819-3.553-.726-2.619 1.052-5.629 3.819-6.232v-6.108h-19c-.773-.037-1.308-1.018-.756-1.655.182-.21.33-.325.756-.345h20c.031.001.062.003.092.004.5.07.884.483.908.996v24c-.025.535-.46.975-1 1h-6c-.769-.037-1.285-1.043-.756-1.655.182-.21.33-.325.756-.345h5z" fill-rule="nonzero"/></svg>