<svg clip-rule="evenodd" fill-rule="evenodd" height="512" stroke-linejoin="round" stroke-miterlimit="2" viewBox="0 0 24 24" width="512" xmlns="http://www.w3.org/2000/svg"><g id="Icon"><path d="m22.75 5.5v11c0 .464-.184.909-.513 1.237-.328.329-.773.513-1.237.513h-18c-.464 0-.909-.184-1.237-.513-.329-.328-.513-.773-.513-1.237v-11c0-.464.184-.909.513-1.237.328-.329.773-.513 1.237-.513h18c.464 0 .909.184 1.237.513.329.328.513.773.513 1.237zm-1.5 0c0-.066-.026-.13-.073-.177s-.111-.073-.177-.073h-18c-.066 0-.13.026-.177.073s-.073.111-.073.177v11c0 .066.026.13.073.177s.111.073.177.073h18c.066 0 .13-.026.177-.073s.073-.111.073-.177z"/><path d="m14.75 17.5v4.5c0 .414-.336.75-.75.75h-4c-.414 0-.75-.336-.75-.75v-4.5c0-.414.336-.75.75-.75h4c.414 0 .75.336.75.75zm-1.5.75h-2.5v3h2.5z"/><path d="m19.75 4.5c0 .414-.336.75-.75.75s-.75-.336-.75-.75v-2.5c0-.414.336-.75.75-.75s.75.336.75.75z"/><path d="m12.75 4.5c0 .414-.336.75-.75.75s-.75-.336-.75-.75v-2.5c0-.414.336-.75.75-.75s.75.336.75.75z"/><path d="m5.75 4.5c0 .414-.336.75-.75.75s-.75-.336-.75-.75v-2.5c0-.414.336-.75.75-.75s.75.336.75.75z"/><path d="m20.5 1.25c.414 0 .75.336.75.75s-.336.75-.75.75h-3c-.414 0-.75-.336-.75-.75s.336-.75.75-.75z"/><path d="m13.5 1.25c.414 0 .75.336.75.75s-.336.75-.75.75h-3c-.414 0-.75-.336-.75-.75s.336-.75.75-.75z"/><path d="m6.5 1.25c.414 0 .75.336.75.75s-.336.75-.75.75h-3c-.414 0-.75-.336-.75-.75s.336-.75.75-.75z"/><path d="m11 7.75c.414 0 .75.336.75.75s-.336.75-.75.75h-5c-.414 0-.75-.336-.75-.75s.336-.75.75-.75z"/><path d="m15 10.75c.414 0 .75.336.75.75s-.336.75-.75.75h-9c-.414 0-.75-.336-.75-.75s.336-.75.75-.75z"/><path d="m16 21.25c.414 0 .75.336.75.75s-.336.75-.75.75h-8c-.414 0-.75-.336-.75-.75s.336-.75.75-.75z"/></g></svg>