<svg clip-rule="evenodd" fill-rule="evenodd" height="512" stroke-linejoin="round" stroke-miterlimit="2" viewBox="0 0 24 24" width="512" xmlns="http://www.w3.org/2000/svg"><g id="Icon"><circle cx="6" cy="16.993" r=".75"/><path d="m22.75 17v-8c0-.967-.784-1.75-1.75-1.75h-11c-.966 0-1.75.783-1.75 1.75v8c0 .967.784 1.75 1.75 1.75h11c.966 0 1.75-.783 1.75-1.75zm-1.5-8v8c0 .138-.112.25-.25.25h-11c-.138 0-.25-.112-.25-.25v-8c0-.138.112-.25.25-.25h11c.138 0 .25.112.25.25z"/><path d="m10.25 5.492v.008c0 .055.006.109.018.161l.001.005.002.011.003.01.002.01c.017.064.041.12.07.17.128.228.373.383.654.383 0 0 .75-.063.75-.764v-.986c0-.464-.184-.909-.513-1.237-.328-.329-.773-.513-1.237-.513-1.732 0-5.268 0-7 0-.966 0-1.75.783-1.75 1.75v15c0 .966.783 1.75 1.75 1.75h4.5c.414 0 .75-.336.75-.75s-.336-.75-.75-.75h-4.5c-.138 0-.25-.112-.25-.25v-15c0-.138.112-.25.25-.25h7c.066 0 .13.026.177.073s.073.111.073.177v.985z"/><path d="m14.75 18v2.5c0 .414.336.75.75.75s.75-.336.75-.75v-2.5c0-.414-.336-.75-.75-.75s-.75.336-.75.75z"/><path d="m18 19.75h-5c-.414 0-.75.336-.75.75s.336.75.75.75h5c.414 0 .75-.336.75-.75s-.336-.75-.75-.75z"/></g></svg>