<svg clip-rule="evenodd" fill-rule="evenodd" height="512" stroke-linejoin="round" stroke-miterlimit="2" viewBox="0 0 24 24" width="512" xmlns="http://www.w3.org/2000/svg"><g id="Icon"><path d="m21.601 9.939c.169-.175.244-.42.2-.659-.044-.238-.201-.441-.421-.544 0 0-8.497-3.962-11.329-5.283-.42-.196-.902-.217-1.338-.058s-.791.484-.987.905c-.517 1.108-1.386 2.971-1.902 4.078-.409.876-.03 1.917.846 2.326 2.495 1.163 9.28 4.327 9.28 4.327.289.135.632.072.855-.157zm-1.811-.289-3.689 3.796s-8.797-4.102-8.797-4.102c-.125-.058-.179-.207-.121-.332.517-1.107 1.386-2.971 1.902-4.078.028-.06.079-.107.141-.129.062-.023.131-.02.191.008z"/><path d="m20.324 11.002.679.317s-1.268 2.719-1.268 2.719-2.039-.951-2.039-.951c-.375-.175-.821-.012-.996.363s-.013.821.362.996l2.719 1.268c.376.175.822.013.997-.363l1.902-4.078c.175-.375.012-.822-.363-.997l-1.359-.634c-.376-.174-.822-.012-.997.363s-.013.822.363.997z"/><path d="m14.464 13.511c.175-.376.013-.822-.362-.997l-5.438-2.536c-.376-.175-.822-.012-.997.363 0 0-.34.729-.634 1.36-.196.42-.217.902-.058 1.338.158.436.484.791.905.987 1.005.469 2.619 1.222 3.625 1.691.42.196.902.217 1.338.058s.791-.484.987-.905c.295-.631.634-1.359.634-1.359zm-1.676.046-.317.679c-.028.06-.079.107-.141.13-.062.022-.131.019-.191-.009l-3.626-1.69c-.06-.028-.106-.079-.129-.141-.022-.063-.019-.131.009-.191l.317-.68z"/><path d="m2.123 12.721c-.217-.037-.44.025-.608.167-.168.143-.265.352-.265.573v6.5c0 .22.097.429.265.572.168.142.391.204.608.167 0 0 1.758-.293 2.582-.43.603-.1 1.045-.622 1.045-1.233 0-1.025 0-3.628 0-4.653 0-.611-.442-1.132-1.045-1.233-.824-.137-2.582-.43-2.582-.43zm2.127 1.875v4.229l-1.5.25v-4.729z"/><path d="m9.414 13.742-1.699 2.125c-.048.059-.12.094-.196.094h-2.519c-.414 0-.75.336-.75.75 0 .413.336.75.75.75h2.519c.532 0 1.035-.242 1.367-.657.558-.698 1.7-2.125 1.7-2.125.258-.323.206-.796-.117-1.054-.324-.259-.796-.206-1.055.117z"/></g></svg>