<svg clip-rule="evenodd" fill-rule="evenodd" height="512" stroke-linejoin="round" stroke-miterlimit="2" viewBox="0 0 24 24" width="512" xmlns="http://www.w3.org/2000/svg"><g id="Icon"><path d="m19.75 19.5v-15c0-1.795-1.455-3.25-3.25-3.25-2.542 0-6.458 0-9 0-1.795 0-3.25 1.455-3.25 3.25v15c0 1.795 1.455 3.25 3.25 3.25h9c1.795 0 3.25-1.455 3.25-3.25zm-1.5 0c0 .967-.784 1.75-1.75 1.75-2.542 0-6.458 0-9 0-.966 0-1.75-.783-1.75-1.75v-15c0-.967.784-1.75 1.75-1.75h9c.966 0 1.75.783 1.75 1.75z"/><path d="m6.25 4.5v4c0 .331.132.649.366.884.235.234.552.366.884.366h9c.332 0 .649-.132.884-.366.234-.235.366-.553.366-.884 0-.958 0-3.042 0-4 0-.331-.132-.649-.366-.884-.235-.234-.552-.366-.884-.366-1.707 0-7.293 0-9 0-.332 0-.649.132-.884.366-.234.235-.366.553-.366.884zm1.5 3.75h8.5v-3.5h-8.5z"/><g fill-rule="nonzero"><path d="m7.667 18h.666c.368 0 .667.299.667.667v.666c0 .368-.299.667-.667.667h-.666c-.368 0-.667-.299-.667-.667v-.666c0-.368.299-.667.667-.667"/><path d="m7.667 14.5h.666c.368 0 .667.299.667.667v.666c0 .368-.299.667-.667.667h-.666c-.368 0-.667-.299-.667-.667v-.666c0-.368.299-.667.667-.667"/><path d="m7.667 11h.666c.368 0 .667.299.667.667v.666c0 .368-.299.667-.667.667h-.666c-.368 0-.667-.299-.667-.667v-.666c0-.368.299-.667.667-.667"/><path d="m11.667 18h.666c.368 0 .667.299.667.667v.666c0 .368-.299.667-.667.667h-.666c-.368 0-.667-.299-.667-.667v-.666c0-.368.299-.667.667-.667"/><path d="m11.667 14.5h.666c.368 0 .667.299.667.667v.666c0 .368-.299.667-.667.667h-.666c-.368 0-.667-.299-.667-.667v-.666c0-.368.299-.667.667-.667"/><path d="m11.667 11h.666c.368 0 .667.299.667.667v.666c0 .368-.299.667-.667.667h-.666c-.368 0-.667-.299-.667-.667v-.666c0-.368.299-.667.667-.667"/><path d="m15.667 14.5h.666c.368 0 .667.299.667.667v4.166c0 .368-.299.667-.667.667h-.666c-.368 0-.667-.299-.667-.667v-4.166c0-.368.299-.667.667-.667"/><path d="m15.667 11h.666c.368 0 .667.299.667.667v.666c0 .368-.299.667-.667.667h-.666c-.368 0-.667-.299-.667-.667v-.666c0-.368.299-.667.667-.667"/></g></g></svg>