<svg clip-rule="evenodd" fill-rule="evenodd" height="512" stroke-linejoin="round" stroke-miterlimit="2" viewBox="0 0 24 24" width="512" xmlns="http://www.w3.org/2000/svg"><g id="Icon"><path d="m18.884 18.884.707-.19c.725-.194 1.343-.669 1.719-1.319.375-.65.477-1.423.283-2.148 0 0-.16-.597-.16-.597-.019-.068.001-.141.051-.191 0 0 .437-.437.437-.437.531-.531.829-1.251.829-2.002s-.298-1.471-.829-2.002c0 0-.437-.437-.437-.437-.05-.05-.07-.123-.051-.191 0 0 .16-.597.16-.597.194-.725.092-1.498-.283-2.148-.376-.65-.994-1.125-1.719-1.319l-.707-.19-.19-.707c-.194-.725-.669-1.343-1.319-1.719-.65-.375-1.423-.477-2.148-.283 0 0-.707.19-.707.19s-.518-.518-.518-.518c-.531-.531-1.251-.829-2.002-.829s-1.471.298-2.002.829l-.518.518s-.707-.19-.707-.19c-.725-.194-1.498-.092-2.148.283-.65.376-1.125.994-1.319 1.719 0 0-.19.707-.19.707s-.707.19-.707.19c-.725.194-1.343.669-1.719 1.319-.375.65-.477 1.423-.283 2.148 0 0 .19.707.19.707s-.518.518-.518.518c-.531.531-.829 1.251-.829 2.002s.298 1.471.829 2.002c0 0 .518.518.518.518s-.19.707-.19.707c-.194.725-.092 1.498.283 2.148.376.65.994 1.125 1.719 1.319 0 0 .707.19.707.19s.19.707.19.707c.194.725.669 1.343 1.319 1.719.65.375 1.423.477 2.148.283 0 0 .707-.19.707-.19s.518.518.518.518c.531.531 1.251.829 2.002.829s1.471-.298 2.002-.829c0 0 .518-.518.518-.518s.707.19.707.19c.725.194 1.498.092 2.148-.283.65-.376 1.125-.994 1.319-1.719zm-8.649-14.92.824-.824c.249-.25.588-.39.941-.39s.692.14.941.39l.824.824c.19.189.466.263.725.194l1.125-.302c.341-.091.704-.043 1.01.133.306.177.529.468.62.809l.286 1.064c.079.297.31.528.607.608l1.064.285c.341.091.632.314.809.62.176.306.224.669.133 1.01l-.16.597c-.157.586.01 1.211.439 1.64l.437.437c.25.249.39.588.39.941s-.14.692-.39.941l-.437.437c-.429.429-.596 1.054-.439 1.64l.16.597c.091.341.043.704-.133 1.01-.177.306-.468.529-.809.62l-.846.227c-.431.116-.768.453-.884.884l-.227.846c-.091.341-.314.632-.62.809-.306.176-.669.224-1.01.133l-1.125-.302c-.259-.069-.535.005-.725.194l-.824.824c-.249.25-.588.39-.941.39s-.692-.14-.941-.39l-.824-.824c-.19-.189-.466-.263-.725-.194l-1.125.302c-.341.091-.704.043-1.01-.133-.306-.177-.529-.468-.62-.809l-.302-1.125c-.069-.259-.271-.461-.53-.53l-1.125-.302c-.341-.091-.632-.314-.809-.62-.176-.306-.224-.669-.133-1.01l.302-1.125c.069-.259-.005-.535-.194-.725l-.824-.824c-.25-.249-.39-.588-.39-.941s.14-.692.39-.941l.824-.824c.189-.19.263-.466.194-.725l-.302-1.125c-.091-.341-.043-.704.133-1.01.177-.306.468-.529.809-.62l1.125-.302c.259-.069.461-.271.53-.53l.302-1.125c.091-.341.314-.632.62-.809.306-.176.669-.224 1.01-.133l1.125.302c.259.069.535-.005.725-.194z"/><path d="m14.092 17.357c-.406.159-.834.273-1.279.336-.41.058-.696.438-.637.848.058.41.437.695.847.637.562-.079 1.103-.223 1.616-.424.385-.151.576-.586.425-.972-.151-.385-.586-.576-.972-.425zm-3.9.103c-.424-.141-.826-.329-1.199-.559-.353-.217-.815-.107-1.032.245-.217.353-.107.815.246 1.032.471.291.978.528 1.513.706.393.13.818-.083.948-.476s-.083-.818-.476-.948zm6.838-2.674c-.216.389-.475.75-.772 1.077-.278.306-.255.781.051 1.059s.781.255 1.059-.051c.374-.412.701-.867.973-1.356.201-.362.071-.819-.291-1.02s-.819-.071-1.02.291zm-9.906.261c-.233-.372-.425-.772-.569-1.195-.133-.392-.56-.602-.952-.468-.391.133-.601.56-.468.952.182.533.424 1.038.718 1.508.22.35.683.457 1.034.237.35-.22.457-.683.237-1.034zm10.527-4.112c.065.345.099.701.099 1.065 0 .086-.002.171-.006.256-.018.414.303.764.717.783.413.018.764-.303.782-.717.005-.107.007-.214.007-.322 0-.458-.043-.907-.124-1.342-.077-.407-.469-.675-.876-.599s-.675.469-.599.876zm-11.35.298c.059-.445.17-.875.325-1.282.148-.386-.046-.82-.433-.968s-.82.046-.968.433c-.197.514-.336 1.057-.411 1.619-.055.41.234.788.644.843.41.054.788-.234.843-.645zm9.368-3.659c.341.283.648.604.916.958.25.33.721.394 1.051.144s.395-.721.144-1.051c-.337-.444-.724-.849-1.153-1.205-.318-.264-.791-.22-1.056.098-.264.318-.22.792.098 1.056zm-7.566.2c.324-.3.683-.562 1.07-.781.36-.204.487-.662.283-1.022-.204-.361-.662-.487-1.022-.283-.487.276-.94.606-1.348.983-.304.281-.324.756-.043 1.06s.756.323 1.06.043zm3.745-1.522.152-.002c.453 0 .893.052 1.316.151.403.095.807-.156.901-.559.095-.403-.156-.807-.559-.901-.499-.117-1.018-.183-1.551-.19l-.107-.001c-.128 0-.255.003-.381.01-.413.021-.732.374-.71.788.021.413.374.731.788.71.05-.003.1-.005.151-.006z"/><path d="m9.702 10.763.707.707c.293.292.768.292 1.061 0 .292-.293.292-.768 0-1.061l-.707-.707c-.293-.293-.768-.293-1.061 0s-.293.768 0 1.061z"/><path d="m10.763 14.298.707-.707c.292-.293.292-.768 0-1.061-.293-.292-.768-.292-1.061 0l-.707.707c-.293.293-.293.768 0 1.061s.768.293 1.061 0z"/><path d="m12.53 13.591.707.707c.293.293.768.293 1.061 0s.293-.768 0-1.061l-.707-.707c-.293-.292-.768-.292-1.061 0-.292.293-.292.768 0 1.061z"/><path d="m13.591 11.47.707-.707c.293-.293.293-.768 0-1.061s-.768-.293-1.061 0l-.707.707c-.292.293-.292.768 0 1.061.293.292.768.292 1.061 0z"/></g></svg>