<svg viewBox="0 0 32 32" xmlns="http://www.w3.org/2000/svg"><g id="twitch_tv_gaming_stream_gamer" data-name="twitch tv gaming stream gamer"><path d="m26 3h-20a1 1 0 0 0 -1 1v15a1 1 0 0 0 2 0v-14h18v12.59l-4.41 4.41h-5.59a1 1 0 0 0 -.71.29l-2.79 2.8v-2.09a1 1 0 0 0 -1-1h-4.5a1 1 0 0 0 0 2h3.5v3.5a1 1 0 0 0 .62.92.84.84 0 0 0 .38.08 1 1 0 0 0 .71-.29l4.2-4.21h5.59a1 1 0 0 0 .71-.29l5-5a1 1 0 0 0 .29-.71v-14a1 1 0 0 0 -1-1z"/><path d="m15 16v-5a1 1 0 0 0 -2 0v5a1 1 0 0 0 2 0z"/><path d="m21 16v-5a1 1 0 0 0 -2 0v5a1 1 0 0 0 2 0z"/></g></svg>