<svg clip-rule="evenodd" fill-rule="evenodd" height="512" stroke-linejoin="round" stroke-miterlimit="2" viewBox="0 0 134 134" width="512" xmlns="http://www.w3.org/2000/svg"><path d="m50 62.5c-16.098 0-29.167 13.069-29.167 29.167 0 16.097 13.069 29.166 29.167 29.166s29.167-13.069 29.167-29.166c0-16.098-13.069-29.167-29.167-29.167zm-20.833-4.167v-3.602c0-1.195.513-2.332 1.408-3.123 6.823-6.026 24.336-21.495 33.333-29.441 1.576-1.392 3.941-1.392 5.517 0 8.997 7.946 26.51 23.415 33.333 29.441.896.791 1.409 1.928 1.409 3.123v53.602c0 2.302-1.866 4.167-4.167 4.167-7.271 0-16.667 0-16.667 0-2.299 0-4.166 1.867-4.166 4.167 0 2.299 1.867 4.166 4.166 4.166h16.667c6.904 0 12.5-5.596 12.5-12.5 0-14.377 0-43.292 0-53.602 0-3.584-1.539-6.996-4.225-9.369-6.823-6.026-24.336-21.494-33.333-29.441-4.727-4.175-11.823-4.175-16.55 0-8.997 7.946-26.51 23.415-33.334 29.441-2.686 2.373-4.225 5.785-4.225 9.369v3.602c0 6.248 8.334 6.248 8.334 0zm20.833 12.5c11.498 0 20.833 9.335 20.833 20.834 0 11.498-9.335 20.833-20.833 20.833s-20.833-9.335-20.833-20.833c0-11.499 9.335-20.834 20.833-20.834zm0 29.167c2.3 0 4.167 1.867 4.167 4.167 0 2.299-1.867 4.166-4.167 4.166s-4.167-1.867-4.167-4.166c0-2.3 1.867-4.167 4.167-4.167zm-4.167-20.757v12.424c0 2.299 1.867 4.166 4.167 4.166s4.167-1.867 4.167-4.166v-12.424c0-2.3-1.867-4.167-4.167-4.167s-4.167 1.867-4.167 4.167z"/></svg>