<svg height="512" viewBox="0 0 32 32" width="512" xmlns="http://www.w3.org/2000/svg"><g id="gopro_action_cam" data-name="gopro, action, cam"><path d="m25 6.4922h-8a3.0033 3.0033 0 0 0 -3 3v6a3.0033 3.0033 0 0 0 3 3h8v4.0156a.9985.9985 0 0 1 -1 1h-17a1.0006 1.0006 0 0 1 -1-1v-12.0156a1.0006 1.0006 0 0 1 1-1h4a1 1 0 0 0 0-2h-4a3.0033 3.0033 0 0 0 -3 3v12.0156a3.0033 3.0033 0 0 0 3 3h17a2.9848 2.9848 0 0 0 2.1221-.8789 3.0209 3.0209 0 0 0 .8779-2.1211v-4.4062a.9835.9835 0 0 0 -.0673-.3341 2.9812 2.9812 0 0 0 1.0673-2.2753v-6a3.0033 3.0033 0 0 0 -3-3zm-8 10a1.0007 1.0007 0 0 1 -1-1v-6a1.0006 1.0006 0 0 1 1-1h8a1.0006 1.0006 0 0 1 1 1v6a1.0007 1.0007 0 0 1 -1 1z"/><path d="m21.0068 9.4854a3.0073 3.0073 0 1 0 3.0069 3.0068 3.01 3.01 0 0 0 -3.0069-3.0068zm0 4.0146a1.0073 1.0073 0 1 1 1.0069-1.0078 1.0087 1.0087 0 0 1 -1.0069 1.0078z"/></g></svg>