<svg clip-rule="evenodd" fill-rule="evenodd" height="512" stroke-linejoin="round" stroke-miterlimit="2" viewBox="0 0 24 24" width="512" xmlns="http://www.w3.org/2000/svg"><g id="Icon"><path d="m3.201 22.723 18-5c.399-.111.632-.525.522-.924-.111-.399-.525-.632-.924-.522l-18 5c-.399.111-.632.525-.522.924.111.399.525.632.924.522z"/><path d="m21.201 21.277-18-5c-.399-.11-.813.123-.924.522-.11.399.123.813.522.924l18 5c.399.11.813-.123.924-.522.11-.399-.123-.813-.522-.924z"/><path d="m18.104 18.445s2.801-3.724 1.122-10.135c-.083-.313-.356-.539-.68-.559-.323-.02-.623.17-.743.471 0 0-.309.747-1.136 1.45-.256-2.072-1.278-6.022-5.294-8.323-.251-.144-.562-.13-.8.035-.238.164-.36.451-.313.736 0 0 .422 2.614-1.051 4.977-.464-.213-1.154-.643-1.535-1.425-.115-.238-.348-.397-.612-.419s-.52.096-.673.312c0 0-4.363 6.162-1.049 12.292.197.364.653.5 1.017.303s.5-.653.303-1.017c-2.163-4-.553-8.014.392-9.778.989 1.037 2.264 1.362 2.264 1.362.294.074.604-.036.785-.279 1.296-1.738 1.639-3.68 1.699-4.999 3.626 2.913 3.451 7.522 3.451 7.522-.011.264.119.514.341.658s.503.161.74.044c.766-.378 1.35-.853 1.784-1.309.662 4.572-1.22 7.191-1.22 7.191-.245.334-.174.803.159 1.049.334.245.803.174 1.049-.159z"/><path d="m15.316 18.945s1.515-1.977.622-5.385c-.082-.313-.356-.539-.679-.559-.324-.02-.623.17-.743.471 0 0-.001.002-.003.005-.287-1.142-.986-2.659-2.678-3.628-.251-.144-.562-.13-.8.035-.237.164-.359.451-.313.736 0 0 .152.948-.298 1.908-.108-.088-.213-.204-.287-.356-.116-.238-.349-.397-.612-.419-.264-.022-.52.096-.674.312 0 0-2.312 3.28-.548 6.542.197.364.652.5 1.016.303s.5-.653.303-1.017c-.858-1.587-.429-3.179-.011-4.116.47.335.917.45.917.45.294.074.604-.036.786-.279.477-.64.716-1.331.83-1.933 1.132 1.307 1.069 2.956 1.069 2.956-.01.264.12.514.341.658.222.144.503.161.74.044.152-.075.29-.156.417-.242.058 1.678-.602 2.624-.602 2.624-.246.334-.175.803.159 1.049.333.245.803.174 1.048-.159z"/></g></svg>