<svg clip-rule="evenodd" fill-rule="evenodd" height="512" stroke-linejoin="round" stroke-miterlimit="2" viewBox="0 0 24 24" width="512" xmlns="http://www.w3.org/2000/svg"><g id="Icon"><path d="m14.75 18c0-1.518-1.232-2.75-2.75-2.75s-2.75 1.232-2.75 2.75 1.232 2.75 2.75 2.75 2.75-1.232 2.75-2.75zm-1.5 0c0 .69-.56 1.25-1.25 1.25s-1.25-.56-1.25-1.25.56-1.25 1.25-1.25 1.25.56 1.25 1.25z"/><path d="m8.51 14.2c.97-.9 2.175-1.45 3.49-1.45s2.52.55 3.49 1.45c.304.281.779.263 1.06-.04.281-.304.263-.779-.04-1.06-1.252-1.16-2.813-1.85-4.51-1.85s-3.258.69-4.51 1.85c-.303.281-.321.756-.04 1.06.281.303.756.321 1.06.04z"/><path d="m5.466 11.068c1.835-1.457 4.09-2.318 6.534-2.318s4.699.861 6.534 2.318c.324.257.796.202 1.054-.122.257-.324.202-.796-.122-1.054-2.097-1.663-4.674-2.642-7.466-2.642s-5.369.979-7.466 2.642c-.324.258-.379.73-.122 1.054.258.324.73.379 1.054.122z"/><path d="m2.418 7.663c2.74-1.84 6.037-2.913 9.582-2.913s6.842 1.073 9.582 2.913c.344.23.81.139 1.041-.205.23-.344.139-.81-.205-1.041-2.98-2-6.563-3.167-10.418-3.167s-7.438 1.167-10.418 3.167c-.344.231-.435.697-.205 1.041.231.344.697.435 1.041.205z"/></g></svg>