<svg height="512" viewBox="0 0 32 32" width="512" xmlns="http://www.w3.org/2000/svg"><g id="discount_promotion_sale_percent" data-name="discount, promotion, sale percent"><path d="m25.9551 16 2.2671-3.12a1 1 0 0 0 -.5-1.5391l-3.669-1.1924v-3.8565a1 1 0 0 0 -1.3091-.9512l-3.6684 1.1919-2.2666-3.1206a1.0373 1.0373 0 0 0 -1.6182 0l-2.2666 3.1206-3.6684-1.1919a1 1 0 0 0 -1.3091.9512v3.8564l-3.669 1.1924a1 1 0 0 0 -.5 1.5391l2.2671 3.1201-2.2671 3.12a1 1 0 0 0 .5 1.5391l3.669 1.1924v3.8565a1.0006 1.0006 0 0 0 1.3091.9512l3.6684-1.1914 2.2666 3.12a1 1 0 0 0 1.6182-1.1758l-2.6939-3.708a.9985.9985 0 0 0 -1.1181-.3633l-3.05.9912v-3.2069a1 1 0 0 0 -.6909-.9512l-3.0508-.9912 1.8846-2.5947a1.0011 1.0011 0 0 0 0-1.1758l-1.8849-2.5947 3.0508-.9912a1.0005 1.0005 0 0 0 .6909-.9512v-3.2065l3.05.9907a.9951.9951 0 0 0 1.1181-.3633l1.8851-2.5947 1.8848 2.5947a1.0021 1.0021 0 0 0 1.1181.3633l3.05-.9907v3.2065a1.0005 1.0005 0 0 0 .6909.9512l3.0508.9912-1.8846 2.5947a1.0011 1.0011 0 0 0 0 1.1758l1.8852 2.5947-3.0508.9912a1 1 0 0 0 -.6909.9512v3.207l-3.05-.9912a1 1 0 0 0 -.6181 1.9024l4.3593 1.416a1.0006 1.0006 0 0 0 1.3091-.9512v-3.8564l3.669-1.1924a1 1 0 0 0 .5-1.5391z" fill-rule="evenodd"/><path d="m12.293 19.707a.9995.9995 0 0 0 1.414 0l6-6a1 1 0 0 0 -1.414-1.414l-6 6a.9994.9994 0 0 0 0 1.414z" fill-rule="evenodd"/><circle cx="13" cy="13" r="1"/><circle cx="19" cy="19" r="1"/></g></svg>