<svg clip-rule="evenodd" fill-rule="evenodd" height="512" stroke-linejoin="round" stroke-miterlimit="2" viewBox="0 0 24 24" width="512" xmlns="http://www.w3.org/2000/svg"><g id="Icon"><path d="m18.023 5.977c-.391-.39-1.024-.39-1.415 0-.39.391-.39 1.024 0 1.415.391.39 1.024.39 1.415 0 .39-.391.39-1.024 0-1.415z"/><path d="m20.562 6.196c-.095-.673-.401-1.322-.919-1.839-.517-.517-1.165-.823-1.838-.919-.41-.058-.79.228-.848.637-.058.41.227.79.637.848.362.052.711.217.989.495s.443.627.494.989c.059.41.439.695.848.637.41-.058.696-.438.637-.848z"/><path d="m22.743 5.43c-.145-1.018-.609-2-1.391-2.782s-1.764-1.246-2.782-1.391c-.41-.058-.79.228-.848.638-.058.409.227.789.637.848.707.1 1.389.422 1.932.966.544.543.866 1.225.966 1.932.059.41.439.695.848.637.41-.058.696-.438.638-.848z"/><circle cx="12" cy="13.528" r="1"/><circle cx="12" cy="16.528" r="1"/><path d="m22.75 12.528c0-2.071-1.679-3.75-3.75-3.75-3.776 0-10.224 0-14 0-2.071 0-3.75 1.679-3.75 3.75v5c0 2.071 1.679 3.75 3.75 3.75h14c2.071 0 3.75-1.679 3.75-3.75 0-1.554 0-3.446 0-5zm-1.5 0v5c0 1.243-1.007 2.25-2.25 2.25-3.776 0-10.224 0-14 0-1.243 0-2.25-1.007-2.25-2.25 0-1.554 0-3.446 0-5 0-1.242 1.007-2.25 2.25-2.25h14c1.243 0 2.25 1.008 2.25 2.25z"/><path d="m7.75 13.528c0-.966-.783-1.75-1.75-1.75h-1c-.967 0-1.75.784-1.75 1.75v3c0 .967.783 1.75 1.75 1.75h1c.967 0 1.75-.783 1.75-1.75zm-1.5 0v3c0 .138-.112.25-.25.25h-1c-.138 0-.25-.112-.25-.25v-3c0-.138.112-.25.25-.25h1c.138 0 .25.112.25.25z"/><path d="m16.25 13.528v3c0 .967.783 1.75 1.75 1.75h1c.967 0 1.75-.783 1.75-1.75 0-.871 0-2.128 0-3 0-.966-.783-1.75-1.75-1.75h-1c-.967 0-1.75.784-1.75 1.75zm1.5 3v-3c0-.138.112-.25.25-.25h1c.138 0 .25.112.25.25v3c0 .138-.112.25-.25.25h-1c-.138 0-.25-.112-.25-.25z"/><path d="m8.25 12.528v5c0 .414.336.75.75.75s.75-.336.75-.75v-5c0-.414-.336-.75-.75-.75s-.75.336-.75.75z"/><path d="m14.25 12.528v5c0 .414.336.75.75.75s.75-.336.75-.75v-5c0-.414-.336-.75-.75-.75s-.75.336-.75.75z"/><path d="m18.25 20.528v1.472c0 .414.336.75.75.75s.75-.336.75-.75v-1.472c0-.414-.336-.75-.75-.75s-.75.336-.75.75z"/><path d="m4.25 20.528v1.472c0 .414.336.75.75.75s.75-.336.75-.75v-1.472c0-.414-.336-.75-.75-.75s-.75.336-.75.75z"/></g></svg>