<svg clip-rule="evenodd" fill-rule="evenodd" height="512" stroke-linejoin="round" stroke-miterlimit="2" viewBox="0 0 24 24" width="512" xmlns="http://www.w3.org/2000/svg"><g id="Icon"><path d="m17.25 10.949v4.479s-3.093 1.585-3.093 1.585c-.368.189-.514.641-.325 1.01.189.368.641.514 1.01.325l3.5-1.794c.25-.129.408-.386.408-.668v-4.937c0-.414-.336-.75-.75-.75s-.75.336-.75.75z"/><path d="m6.75 12.949v-4.478s3.092-1.585 3.092-1.585c.368-.189.514-.642.325-1.01s-.641-.514-1.01-.325l-3.499 1.794c-.251.128-.408.386-.408.667v4.937c0 .414.336.75.75.75s.75-.336.75-.75z"/><path d="m17.451 1.428-3.5 1.71c-.43.21-.701.646-.701 1.124v4.379c0 .472.267.904.689 1.117l3.503 1.751c.352.175.767.174 1.116-.001l3.502-1.75c.422-.213.69-.646.69-1.117v-4.379c0-.477-.272-.915-.702-1.124 0 0-3.5-1.71-3.5-1.71-.343-.17-.749-.171-1.098 0h.001zm-2.701 2.989v4.069l3.249 1.625 3.251-1.625v-4.069l-3.25-1.588z"/><path d="m18.7 10.89v-4.441s3.588-1.496 3.588-1.496c.383-.159.563-.598.404-.98s-.599-.563-.981-.404l-4.05 1.688c-.279.116-.461.389-.461.692v4.941c0 .414.336.75.75.75s.75-.336.75-.75z"/><path d="m18.264 5.268-3.793-1.751c-.376-.173-.822-.009-.995.367-.174.376-.009.822.367.995l3.793 1.751c.375.174.821.009.995-.366.173-.376.009-.822-.367-.996z"/><path d="m5.451 12.428-3.5 1.71c-.43.21-.701.646-.701 1.124v4.379c0 .472.267.904.689 1.117l3.503 1.751c.352.175.767.174 1.116-.001l3.502-1.75c.422-.213.69-.646.69-1.117v-4.379c0-.477-.272-.915-.702-1.124 0 0-3.5-1.71-3.5-1.71-.343-.17-.749-.171-1.098 0zm-2.701 2.989v4.069l3.249 1.625 3.251-1.625v-4.069l-3.25-1.588z"/><path d="m6.7 21.89v-4.441s3.588-1.496 3.588-1.496c.383-.159.563-.598.404-.98s-.599-.563-.981-.404l-4.05 1.688c-.279.116-.461.389-.461.692v4.941c0 .414.336.75.75.75s.75-.336.75-.75z"/><path d="m6.264 16.268-3.793-1.751c-.376-.173-.822-.009-.995.367-.174.376-.009.822.367.995l3.793 1.751c.375.174.821.009.995-.366.173-.376.009-.822-.367-.996z"/></g></svg>