<svg clip-rule="evenodd" fill-rule="evenodd" height="512" stroke-linejoin="round" stroke-miterlimit="2" viewBox="0 0 24 24" width="512" xmlns="http://www.w3.org/2000/svg"><g id="Icon"><path d="m19.25 12.265v-7.912c0-1.714-1.389-3.103-3.103-3.103-3.849 0-7.945 0-11.794 0-1.714 0-3.103 1.389-3.103 3.103v7.912c0 .823.327 1.612.909 2.194s1.371.909 2.194.909h1.31s2.519 3.24 2.519 3.24c.143.182.361.289.593.289.231 0 .449-.107.592-.289l2.519-3.24h4.261c.823 0 1.612-.327 2.194-.909s.909-1.371.909-2.194zm-1.5-7.912v7.912c0 .425-.169.833-.469 1.133-.301.301-.709.47-1.134.47h-4.627c-.232 0-.45.107-.592.289l-2.153 2.768s-2.154-2.768-2.154-2.768c-.142-.182-.36-.289-.592-.289h-1.676c-.425 0-.833-.169-1.134-.47-.3-.3-.469-.708-.469-1.133v-7.912c0-.885.718-1.603 1.603-1.603h11.794c.885 0 1.603.718 1.603 1.603z"/><path d="m20.568 6.894c.412.29.682.769.682 1.312v7.912c0 .425-.169.833-.469 1.133-.301.301-.709.47-1.134.47h-1.676c-.232 0-.45.106-.592.289l-2.154 2.768s-2.153-2.768-2.153-2.768c-.254-.327-.725-.386-1.052-.131-.327.254-.386.725-.132 1.052l2.745 3.529c.143.183.361.29.592.29.232 0 .45-.107.593-.29l2.519-3.239h1.31c.823 0 1.612-.327 2.194-.909s.909-1.371.909-2.194v-7.912c0-1.049-.521-1.977-1.318-2.539-.339-.238-.807-.157-1.045.182-.239.338-.157.807.181 1.045z"/><path d="m15.25 5.75c0-.414-.336-.75-.75-.75h-1c-.995 0-1.948.395-2.652 1.098-.703.704-1.098 1.657-1.098 2.652v1c0 .414.336.75.75.75h1c.995 0 1.948-.395 2.652-1.098.703-.704 1.098-1.657 1.098-2.652zm-1.5.75v.25c0 .597-.237 1.169-.659 1.591s-.994.659-1.591.659h-.25v-.25c0-.597.237-1.169.659-1.591s.994-.659 1.591-.659z"/><path d="m5.5 4c-.414 0-.75.336-.75.75v1.25c0 1.193.474 2.338 1.318 3.182s1.989 1.318 3.182 1.318h1.25c.414 0 .75-.336.75-.75v-1.25c0-1.193-.474-2.338-1.318-3.182s-1.989-1.318-3.182-1.318zm.75 1.5h.5c.796 0 1.559.316 2.121.879.563.562.879 1.325.879 2.121v.5h-.5c-.796 0-1.559-.316-2.121-.879-.563-.562-.879-1.325-.879-2.121z"/><path d="m9.75 9.75v2c0 .414.336.75.75.75s.75-.336.75-.75v-2c0-.414-.336-.75-.75-.75s-.75.336-.75.75z"/></g></svg>