<svg clip-rule="evenodd" fill-rule="evenodd" stroke-linejoin="round" stroke-miterlimit="1.414" viewBox="0 0 32 32" xmlns="http://www.w3.org/2000/svg" xmlns:serif="http://www.serif.com/"><path id="chat-conversation-baloon-texting" d="m0 0h32v32h-32z" fill="none"/><path d="m16.079 3.005c4.492.032 9.196 1.903 11.552 5.51 1.136 1.741 1.654 3.926 1.212 5.947-.515 2.35-1.978 4.369-3.906 5.99-1.706 1.433-3.579 2.671-5.129 4.264-1.131 1.163-2.111 2.471-2.961 3.844 0 0-.036.087-.183.219-.69.618-2.212-.165-1.431-1.415 1.507-2.409 3.444-4.544 5.717-6.338 1.992-1.572 4.24-2.977 5.342-5.289.639-1.341.917-2.865.481-4.366-.745-2.565-3.107-4.445-5.609-5.421-4.33-1.689-9.639-1.197-13.243 1.638-2.078 1.634-3.428 4.335-2.741 6.932.645 2.44 2.767 4.298 5.119 5.342 1.786.792 3.745 1.159 5.7 1.163 0 0 .093-.014.282.042.688.203.963 1.254.332 1.748-.399.312-1.014.218-1.598.185-5.01-.287-10.23-2.808-11.7-7.717-.705-2.357-.196-5.012 1.231-7.04 2.48-3.523 7.197-5.248 11.533-5.238zm-4.087 10.011c.552 0 1.001.449 1.001 1.001 0 .553-.449 1.002-1.001 1.002-.553 0-1.001-.449-1.001-1.002 0-.552.448-1.001 1.001-1.001zm4.004 0c.553 0 1.001.449 1.001 1.001 0 .553-.448 1.002-1.001 1.002-.552 0-1.001-.449-1.001-1.002 0-.552.449-1.001 1.001-1.001zm4.005 0c.552 0 1.001.449 1.001 1.001 0 .553-.449 1.002-1.001 1.002-.553 0-1.001-.449-1.001-1.002 0-.552.448-1.001 1.001-1.001z" fill-rule="nonzero"/></svg>