<svg clip-rule="evenodd" fill-rule="evenodd" height="512" stroke-linejoin="round" stroke-miterlimit="2" viewBox="0 0 24 24" width="512" xmlns="http://www.w3.org/2000/svg"><g id="Icon"><path d="m11 22.75h2c.414 0 .75-.336.75-.75s-.336-.75-.75-.75h-2c-.414 0-.75.336-.75.75s.336.75.75.75z"/><path d="m9.341 3.296c-1.016.142-1.966.611-2.7 1.345-.891.891-1.391 2.099-1.391 3.359v5.833c0 .271-.088.534-.25.75l-.7.934c-.357.476-.55 1.055-.55 1.65v.333c0 .729.29 1.429.805 1.945.516.515 1.216.805 1.945.805h11c.729 0 1.429-.29 1.945-.805.515-.516.805-1.216.805-1.945v-.333c0-.595-.193-1.174-.55-1.65l-.7-.934c-.162-.216-.25-.479-.25-.75v-5.833c0-1.26-.5-2.468-1.391-3.359-.734-.734-1.684-1.203-2.7-1.345-.311-1.177-1.384-2.046-2.659-2.046s-2.348.869-2.659 2.046zm4.62 1.453.039.001c.862 0 1.689.342 2.298.952.61.609.952 1.436.952 2.298v5.833c0 .595.193 1.174.55 1.65l.7.934c.162.216.25.479.25.75v.333c0 .332-.132.649-.366.884-.235.234-.552.366-.884.366h-11c-.332 0-.649-.132-.884-.366-.234-.235-.366-.552-.366-.884v-.333c0-.271.088-.534.25-.75l.7-.934c.357-.476.55-1.055.55-1.65v-5.833c0-.862.342-1.689.952-2.298.609-.61 1.436-.952 2.298-.952.414 0 .75-.336.75-.75 0-.69.56-1.25 1.25-1.25s1.25.56 1.25 1.25c0 .401.315.729.711.749z"/></g></svg>