<?xml version="1.0"?>
<svg xmlns="http://www.w3.org/2000/svg" viewBox="0 0 32 32" width="512" height="512"><g id="devianart_art_design_network" data-name="devianart, art, design, network"><path d="M24,9V4a1,1,0,0,0-1-1H19a1,1,0,0,0-.87.5L15.53,8H9A1,1,0,0,0,8,9v6a1,1,0,0,0,1,1h1.9L7.13,22.5A1.06,1.06,0,0,0,7,23v5a1,1,0,0,0,1,1h5a1,1,0,0,0,.88-.53l2.64-5a1,1,0,0,0-1.77-.94L12.4,27H9V23.27l4.5-7.77a1,1,0,0,0,0-1,1,1,0,0,0-.87-.5H10V10h6.11A1,1,0,0,0,17,9.5L19.58,5H22V8.75l-4.1,7.78a1,1,0,0,0,0,1,1,1,0,0,0,.86.48H22v4H20a1,1,0,1,0,0,2h3a1,1,0,0,0,1-1V17a1,1,0,0,0-1-1H20.45l3.43-6.53A1,1,0,0,0,24,9Z"/></g></svg>
