<svg clip-rule="evenodd" fill-rule="evenodd" height="512" stroke-linejoin="round" stroke-miterlimit="2" viewBox="0 0 24 24" width="512" xmlns="http://www.w3.org/2000/svg"><g id="Icon"><path d="m21.688 12.136c.041-.206.062-.418.062-.636 0-1.794-1.456-3.25-3.25-3.25-.221 0-.438.022-.647.065-1.172-1.7-3.133-2.815-5.353-2.815-2.527 0-4.718 1.445-5.794 3.553-.23-.035-.466-.053-.706-.053-2.622 0-4.75 2.128-4.75 4.75s2.128 4.75 4.75 4.75h13c2.07 0 3.75-1.68 3.75-3.75 0-1.016-.405-1.939-1.062-2.614zm-1.55-.02c-.116.308-.018.655.241.857.53.412.871 1.055.871 1.777 0 1.242-1.008 2.25-2.25 2.25h-13c-1.794 0-3.25-1.456-3.25-3.25s1.456-3.25 3.25-3.25c.322 0 .633.047.927.134.374.111.77-.083.912-.446.727-1.865 2.541-3.188 4.661-3.188 1.876 0 3.512 1.035 4.367 2.565.187.334.596.474.949.324.21-.09.441-.139.684-.139.966 0 1.75.784 1.75 1.75 0 .217-.039.425-.112.616z"/></g></svg>