<svg clip-rule="evenodd" fill-rule="evenodd" height="512" stroke-linejoin="round" stroke-miterlimit="2" viewBox="0 0 24 24" width="512" xmlns="http://www.w3.org/2000/svg"><g id="Icon"><path d="m18.75 21.25v-13.5c0-.69-.56-1.25-1.25-1.25-1.952 0-9.048 0-11 0-.69 0-1.25.56-1.25 1.25v13.5c0 .26.135.501.356.638s.497.149.729.033l1.665-.832s1.665.832 1.665.832c.211.105.459.105.67 0l1.665-.832s1.665.832 1.665.832c.211.105.459.105.67 0l1.665-.832s1.665.832 1.665.832c.232.116.508.104.729-.033s.356-.378.356-.638zm-1.5-13.25v12.036s-.915-.457-.915-.457c-.211-.105-.459-.105-.67 0l-1.665.832s-1.665-.832-1.665-.832c-.211-.105-.459-.105-.67 0l-1.665.832s-1.665-.832-1.665-.832c-.211-.105-.459-.105-.67 0l-.915.457v-12.036z"/><path d="m18 12h2.5c.597 0 1.169-.237 1.591-.659s.659-.994.659-1.591c0-1.549 0-3.951 0-5.5 0-1.243-1.007-2.25-2.25-2.25h-17c-1.243 0-2.25 1.007-2.25 2.25v5.5c0 .597.237 1.169.659 1.591s.994.659 1.591.659h2.5c.414 0 .75-.336.75-.75s-.336-.75-.75-.75h-2.5c-.199 0-.39-.079-.53-.22-.141-.14-.22-.331-.22-.53 0-1.549 0-3.951 0-5.5 0-.414.336-.75.75-.75h17c.414 0 .75.336.75.75v5.5c0 .199-.079.39-.22.53-.14.141-.331.22-.53.22h-2.5c-.414 0-.75.336-.75.75s.336.75.75.75z"/><path d="m9.22 14.78 1.5 1.5c.293.293.767.293 1.06 0l3-3c.293-.292.293-.768 0-1.06-.292-.293-.768-.293-1.06 0l-2.47 2.469s-.97-.969-.97-.969c-.292-.293-.768-.293-1.06 0-.293.292-.293.768 0 1.06z"/></g></svg>