<svg clip-rule="evenodd" fill-rule="evenodd" height="512" stroke-linejoin="round" stroke-miterlimit="2" viewBox="0 0 24 24" width="512" xmlns="http://www.w3.org/2000/svg"><g id="Icon"><path d="m21.981 7.641c0-3.53-2.862-6.391-6.391-6.391h-12.821c-.414 0-.75.336-.75.75v4.103c0 .414.336.75.75.75h12.821c.435 0 .788.353.788.788 0 .435-.353.788-.788.788h-7.18c-3.529 0-6.391 2.862-6.391 6.392 0 3.529 2.862 6.391 6.391 6.391h7.968v.788c0 .294.172.561.44.683s.583.075.804-.119l4.103-3.589c.162-.143.256-.348.256-.565 0-.216-.094-.422-.256-.564l-4.103-3.59c-.221-.194-.536-.24-.804-.118-.268.121-.44.388-.44.683v.788h-7.968c-.435 0-.788-.353-.788-.788 0-.436.353-.789.788-.789h7.18c3.529 0 6.391-2.861 6.391-6.391zm-1.5 0c0 2.701-2.19 4.891-4.891 4.891h-7.18c-1.264 0-2.288 1.025-2.288 2.289 0 1.263 1.024 2.288 2.288 2.288h8.718c.378 0 .69-.279.742-.642l2.222 1.943-2.222 1.944c-.052-.363-.364-.642-.742-.642h-8.718c-2.701 0-4.891-2.19-4.891-4.891 0-2.702 2.19-4.891 4.891-4.892h7.18c1.264 0 2.288-1.024 2.288-2.288s-1.024-2.288-2.288-2.288h-12.071v-2.603h12.071c2.701 0 4.891 2.19 4.891 4.891z"/><path d="m9.93 2.529 1.513 1.522s-1.513 1.523-1.513 1.523c-.292.294-.291.769.003 1.061.293.291.769.29 1.061-.004l2.038-2.051c.291-.293.291-.765 0-1.057l-2.038-2.052c-.292-.293-.768-.295-1.061-.003-.294.292-.295.767-.003 1.061z"/><path d="m9.93 16.888 1.513 1.522s-1.513 1.523-1.513 1.523c-.292.293-.291.769.003 1.061.293.291.769.29 1.061-.004l2.038-2.051c.291-.293.291-.765 0-1.057l-2.038-2.052c-.292-.293-.768-.295-1.061-.003-.294.292-.295.767-.003 1.061z"/><path d="m12.532 12.753-1.513-1.522s1.513-1.523 1.513-1.523c.292-.293.29-.769-.003-1.061-.294-.291-.769-.29-1.061.004l-2.038 2.051c-.291.293-.291.765 0 1.057l2.038 2.052c.292.293.767.295 1.061.003.293-.292.295-.767.003-1.061z"/></g></svg>