<?xml version="1.0"?>
<svg xmlns="http://www.w3.org/2000/svg" viewBox="0 0 32 32" width="512" height="512"><g id="book_open_novel" data-name="book, open, novel"><path d="M28.1362,6.127a21.1883,21.1883,0,0,0-8.3955.5439,1,1,0,0,0,.5186,1.9316A19.1809,19.1809,0,0,1,27,8.01V21.9575a19.3821,19.3821,0,0,0-11.0142,2.0449A19.4523,19.4523,0,0,0,5,21.9248V7.99A18.86,18.86,0,0,1,15,9.7515V21.1177a1,1,0,0,0,2,0v-12a1,1,0,0,0-.562-.8989A20.7964,20.7964,0,0,0,3.84,6.13,1,1,0,0,0,3,7.1177v16a1,1,0,0,0,1.2153.9765c3.4322-.7544,7.1421-.1269,11.3467,1.9224a1,1,0,0,0,.9014-.0127,17.3932,17.3932,0,0,1,11.3579-1.9023A1,1,0,0,0,29,23.1177v-16A1,1,0,0,0,28.1362,6.127Z"/><path d="M20,12.7832a.9952.9952,0,0,0,.26-.0347,19.59,19.59,0,0,1,3.8052-.6328,1,1,0,0,0-.129-1.9961,21.6046,21.6046,0,0,0-4.1948.6973A1,1,0,0,0,20,12.7832Z"/><path d="M12.2593,10.8169A21.6046,21.6046,0,0,0,8.0645,10.12a1,1,0,0,0-.129,1.9961,19.59,19.59,0,0,1,3.8052.6328,1,1,0,1,0,.5186-1.9316Z"/><path d="M20,16.7832a.9952.9952,0,0,0,.26-.0347,19.59,19.59,0,0,1,3.8052-.6328,1,1,0,0,0-.129-1.9961,21.6046,21.6046,0,0,0-4.1948.6973A1,1,0,0,0,20,16.7832Z"/><path d="M12.2593,14.8169A21.6046,21.6046,0,0,0,8.0645,14.12a1,1,0,0,0-.129,1.9961,19.59,19.59,0,0,1,3.8052.6328,1,1,0,1,0,.5186-1.9316Z"/><path d="M12.2593,18.8169A21.6046,21.6046,0,0,0,8.0645,18.12a1,1,0,0,0-.129,1.9961,19.59,19.59,0,0,1,3.8052.6328,1,1,0,1,0,.5186-1.9316Z"/></g></svg>
