<svg id="svg7" height="512" viewBox="0 0 32 32" width="512" xmlns="http://www.w3.org/2000/svg" xmlns:svg="http://www.w3.org/2000/svg"><g id="bowl_pharmacy_drug" data-name="bowl, pharmacy, drug"><path id="path4" d="m24.1211 16.1523c-.563796-.560723-1.325946-.876528-2.1211-.8789h-.6744l2.356-8.2461c.556753-1.9477073-2.024771-3.1930069-3.2026-1.5449l-4.9155 6.8828c-.723815 1.094704.939882 2.093929 1.6265 1.1621l4.2564-5.9589-2.201 7.705h-9.2454c-.7951541.002372-1.5573042.318177-2.1211.8789-.5645117.561264-.8809972 1.325056-.8789 2.1211v2c.00446 3.864143 3.135857 6.995536 7 7h4c3.864143-.0045 6.995536-3.135857 7-7v-2c.0021-.796044-.314388-1.559836-.8789-2.1211zm-1.1211 4.1211c-.0033 2.760076-2.239924 4.996749-5 5h-4c-2.760076-.0033-4.9967489-2.239924-5-5v-2c0-.552285.4477153-1 1-1h12c.552285 0 1 .447715 1 1z"/></g></svg>