<svg height="512" viewBox="0 0 32 32" width="512" xmlns="http://www.w3.org/2000/svg"><path d="m12.9165 21.6465a1 1 0 1 0 1.415-1.4141c-1.5073-1.5088-3.1915-3.1933-3.2815-3.2824a7 7 0 1 1 9.9 0l-5.657 5.6574a1 1 0 1 0 1.414 1.4141l5.6573-5.6572a9 9 0 1 0 -12.7232.0057c.0952.0929 1.773 1.7716 3.2754 3.2765z"/><path d="m23.3154 19.7979a1 1 0 1 0 -.4746 1.9433c3.0298.7402 4.1592 1.7788 4.1592 2.2588 0 1.0186-3.8828 3-11 3s-11-1.9814-11-3c0-.48 1.1294-1.5186 4.1592-2.2588a1 1 0 1 0 -.4746-1.9433c-3.6656.8955-5.6846 2.3876-5.6846 4.2021 0 3.2822 6.54 5 13 5s13-1.7178 13-5c0-1.8145-2.019-3.3066-5.6846-4.2021z"/></svg>