<svg clip-rule="evenodd" fill-rule="evenodd" height="512" stroke-linejoin="round" stroke-miterlimit="2" viewBox="0 0 24 24" width="512" xmlns="http://www.w3.org/2000/svg"><g id="Icon"><circle cx="17.551" cy="8.268" r=".724"/><path d="m11.73 9.062c.206 1.073.849 2.896 2.568 3.727.874.423 2.033.606 3.574.263 2.085-.463 3.097-1.378 3.477-2.36.249-.643.244-1.344.032-2.051-.274-.918-.908-1.853-1.694-2.64-2.295-2.295-5.21-1.611-6.246-1.263-1.072-.603-3.795-1.88-5.485-1.904-.703-.011-1.264.187-1.622.554-.271.279-.453.662-.47 1.189-.032.989.57 1.876 1.517 2.578 1.352 1.002 3.406 1.647 4.349 1.907zm1.42-.66c-.026-.327-.262-.6-.582-.673 0 0-2.003-.45-3.588-1.33-.48-.267-.922-.571-1.236-.923-.229-.256-.391-.533-.381-.851.002-.08.004-.147.046-.19.053-.055.136-.068.227-.083.28-.046.623-.009.996.064 1.668.329 3.831 1.448 4.318 1.774.217.144.492.167.729.058 0 0 2.829-1.304 4.947.813.509.509.946 1.091 1.199 1.684.206.482.295.967.125 1.406-.253.655-1.014 1.128-2.404 1.437-1.117.248-1.961.157-2.595-.149-1.452-.702-1.755-2.445-1.801-3.037z"/><path d="m8.8 3.709s.093-.627.617-.869c.442-.204 1.1-.106 2.131.483.012.007.024.013.036.02l1.93.964c.37.186.821.035 1.006-.335.186-.37.035-.821-.335-1.006l-1.912-.956c-1.662-.945-2.771-.862-3.485-.532-1.212.561-1.467 1.98-1.467 1.98-.069.408.206.795.614.865.408.069.796-.206.865-.614z"/><path d="m17.705 14.386c.188 1.017.089 2.378-1.05 3.721-.134.157-.196.362-.174.566.022.205.128.392.292.516 0 0 .774.582 1.2 1.242.066.103.124.207.162.312.027.076.067.154.007.215-.067.067-.18.033-.305.021-.317-.029-.688-.152-1.081-.33-1.308-.591-2.833-1.791-3.474-2.912-.206-.36-.665-.484-1.024-.279-.359.206-.484.665-.278 1.024.905 1.581 3.241 3.321 4.947 3.834.998.3 1.822.159 2.279-.301.539-.543.58-1.212.296-1.894-.252-.604-.82-1.219-1.255-1.631 1.09-1.594 1.156-3.168.933-4.376-.075-.407-.466-.677-.873-.602s-.677.467-.602.874z"/><path d="m12.163 14.506c.072.254.134.527.173.811.056.41.435.697.845.641.41-.057.697-.435.641-.845-.049-.356-.126-.698-.216-1.015-.112-.399-.527-.63-.926-.518-.398.113-.63.528-.517.926z"/><path d="m12.233 16.909c-.274.825-.995 1.531-2.439 1.924-.4.108-.636.521-.528.92.109.4.521.636.921.527 2.103-.571 3.072-1.698 3.47-2.9.13-.393-.084-.817-.477-.948-.393-.13-.817.084-.947.477z"/><path d="m11.936 21.088c-.015.01-.04.026-.057.034-.083.039-.178.063-.275.082-.49.093-1.035.021-1.035.021-.032-.004-.064-.006-.096-.006 0 0-1.899.004-3.416-.755-.872-.435-1.623-1.144-1.623-2.355 0-6.352 7.137-7.952 7.137-7.952.403-.093.655-.496.562-.9-.093-.403-.495-.655-.899-.562 0 0-8.3 1.952-8.3 9.414 0 1.878 1.1 3.021 2.452 3.697 1.688.844 3.767.908 4.053.912.21.021 1.144.093 1.839-.143.509-.172.9-.496 1.069-.96.183-.502.124-1.333-.844-2.53-.26-.322-.733-.372-1.055-.112-.322.261-.372.733-.111 1.055.285.353.466.639.555.879.024.065.039.149.044.181z"/><path d="m3.977 20.726c-.005-.047-.016-.185-.004-.28.033-.266.128-.563.247-.861.404-1.013 1.085-2.021 1.085-2.021.232-.343.141-.809-.202-1.041s-.809-.141-1.041.202c0 0-.775 1.15-1.236 2.305-.225.565-.369 1.134-.364 1.599.006.464.15.85.419 1.134.246.261.61.457 1.154.486.525.029 1.296-.113 2.377-.55.384-.155.569-.593.414-.976-.155-.384-.593-.57-.976-.414-.723.292-1.253.435-1.638.444-.084.002-.193-.018-.235-.027z"/></g></svg>