<svg clip-rule="evenodd" fill-rule="evenodd" height="512" stroke-linejoin="round" stroke-miterlimit="2" viewBox="0 0 24 24" width="512" xmlns="http://www.w3.org/2000/svg"><g id="Icon"><path d="m16.423 20.25c1.014 0 1.827-.813 1.827-1.806v-15.388c0-.993-.813-1.806-1.827-1.806h-11.846c-1.014 0-1.827.813-1.827 1.806v15.388c0 .993.813 1.806 1.827 1.806zm0-1.5h-11.846c-.177 0-.327-.133-.327-.306v-15.388c0-.173.15-.306.327-.306h11.846c.177 0 .327.133.327.306v15.388c0 .173-.15.306-.327.306z"/><path d="m17.5 5.25h1.923c.177 0 .327.133.327.306v15.388c0 .173-.15.306-.327.306h-11.846c-.177 0-.327-.133-.327-.306v-1.444c0-.414-.336-.75-.75-.75s-.75.336-.75.75v1.444c0 .993.813 1.806 1.827 1.806h11.846c1.014 0 1.827-.813 1.827-1.806v-15.388c0-.993-.813-1.806-1.827-1.806h-1.923c-.414 0-.75.336-.75.75s.336.75.75.75z"/><path d="m6.5 17.25h8c.414 0 .75-.336.75-.75s-.336-.75-.75-.75h-8c-.414 0-.75.336-.75.75s.336.75.75.75z"/><path d="m8.25 14.5v-3.5c0-.414-.336-.75-.75-.75s-.75.336-.75.75v3.5c0 .414.336.75.75.75s.75-.336.75-.75z"/><path d="m11.25 14.5v-2.5c0-.414-.336-.75-.75-.75s-.75.336-.75.75v2.5c0 .414.336.75.75.75s.75-.336.75-.75z"/><path d="m14.25 14.5v-4.5c0-.414-.336-.75-.75-.75s-.75.336-.75.75v4.5c0 .414.336.75.75.75s.75-.336.75-.75z"/><path d="m6.5 5.75h6c.414 0 .75-.336.75-.75s-.336-.75-.75-.75h-6c-.414 0-.75.336-.75.75s.336.75.75.75z"/><path d="m6.5 8.75h3c.414 0 .75-.336.75-.75s-.336-.75-.75-.75h-3c-.414 0-.75.336-.75.75s.336.75.75.75z"/></g></svg>