<svg clip-rule="evenodd" fill-rule="evenodd" height="512" stroke-linejoin="round" stroke-miterlimit="2" viewBox="0 0 24 24" width="512" xmlns="http://www.w3.org/2000/svg"><g id="Icon"><path d="m22.75 13c0 .414-.336.75-.75.75s-.75-.336-.75-.75v-9c0-.332-.132-.649-.366-.884-.235-.234-.552-.366-.884-.366h-16c-.332 0-.649.132-.884.366-.234.235-.366.552-.366.884v10c0 .332.132.649.366.884.235.234.552.366.884.366h9c.414 0 .75.336.75.75s-.336.75-.75.75h-9c-.729 0-1.429-.29-1.945-.805-.515-.516-.805-1.216-.805-1.945v-10c0-.729.29-1.429.805-1.945.516-.515 1.216-.805 1.945-.805h16c.729 0 1.429.29 1.945.805.515.516.805 1.216.805 1.945z"/><path d="m9.75 6.5c0-.414.336-.75.75-.75s.75.336.75.75v3.5c0 .199.079.39.22.53.14.141.331.22.53.22h.002c.413 0 .748-.335.748-.748v-3.502c0-.414.336-.75.75-.75s.75.336.75.75v3.502c0 1.242-1.006 2.248-2.248 2.248h-.002c-.597 0-1.169-.237-1.591-.659s-.659-.994-.659-1.591z"/><path d="m15.329 6.835c-.185-.37-.035-.821.336-1.006.37-.185.821-.035 1.006.336l.829 1.658.829-1.658c.185-.371.636-.521 1.006-.336.371.185.521.636.336 1.006l-1.5 3c-.127.254-.387.415-.671.415s-.544-.161-.671-.415z"/><path d="m4.25 9v-2.5c0-.414.336-.75.75-.75h2c.967 0 1.75.784 1.75 1.75v.5c0 .966-.783 1.75-1.75 1.75h-2c-.414 0-.75-.336-.75-.75zm1.5-.75h1.25c.138 0 .25-.112.25-.25v-.5c0-.138-.112-.25-.25-.25h-1.25z"/><path d="m4.25 11.5v-2.5c0-.414.336-.75.75-.75h2c.967 0 1.75.784 1.75 1.75v.5c0 .966-.783 1.75-1.75 1.75h-2c-.414 0-.75-.336-.75-.75zm1.5-.75h1.25c.138 0 .25-.112.25-.25v-.5c0-.138-.112-.25-.25-.25h-1.25z"/><path d="m21.722 21.57c.238.339.155.807-.184 1.044-.339.238-.807.155-1.044-.184l-1.619-2.312c-.238-.339-.155-.807.184-1.045.339-.237.807-.155 1.044.185z"/><path d="m22.137 17.291c.421.243.659.711.606 1.194-.053.482-.386.888-.849 1.034l-2.067.652-1.319 1.719c-.295.385-.791.559-1.262.444-.472-.116-.831-.499-.915-.977l-.998-5.67c-.083-.469.114-.943.503-1.216.39-.272.903-.295 1.315-.057zm-5.224-1.283.787 4.472 1.081-1.41c.094-.122.223-.212.37-.259l1.694-.534z"/><path d="m16.75 9c0-.414.336-.75.75-.75s.75.336.75.75v2.5c0 .414-.336.75-.75.75s-.75-.336-.75-.75z"/></g></svg>