<svg clip-rule="evenodd" fill-rule="evenodd" height="512" stroke-linejoin="round" stroke-miterlimit="2" viewBox="0 0 24 24" width="512" xmlns="http://www.w3.org/2000/svg"><g id="Icon"><path d="m12 1.716c-3.46 0-6.527.693-8.429 1.73-1.515.827-2.321 1.918-2.321 3.02 0 1.103.806 2.194 2.321 3.02 1.902 1.038 4.969 1.73 8.429 1.73s6.527-.692 8.429-1.73c1.515-.826 2.321-1.917 2.321-3.02 0-1.102-.806-2.193-2.321-3.02-1.902-1.037-4.969-1.73-8.429-1.73zm0 1.5c3.163 0 5.972.599 7.71 1.547.512.279.924.584 1.204.92.207.248.336.507.336.783 0 .277-.129.535-.336.784-.28.335-.692.64-1.204.92-1.738.948-4.547 1.546-7.71 1.546s-5.972-.598-7.71-1.546c-.512-.28-.924-.585-1.204-.92-.207-.249-.336-.507-.336-.784 0-.276.129-.535.336-.783.28-.336.692-.641 1.204-.92 1.738-.948 4.547-1.547 7.71-1.547z"/><path d="m21.25 6.466v3c0 2.188-.869 4.287-2.416 5.834-1.548 1.547-3.646 2.416-5.834 2.416-.665 0-1.335 0-2 0-2.188 0-4.286-.869-5.834-2.416-1.547-1.547-2.416-3.646-2.416-5.834 0-1.722 0-3 0-3 0-.414-.336-.75-.75-.75s-.75.336-.75.75v3c0 2.586 1.027 5.066 2.856 6.895 1.828 1.828 4.308 2.855 6.894 2.855h2c2.586 0 5.066-1.027 6.894-2.855 1.829-1.829 2.856-4.309 2.856-6.895v-3c0-.414-.336-.75-.75-.75s-.75.336-.75.75z"/><path d="m5.857 17.08-.304.506c-.427.712-.51 1.579-.225 2.359.284.779.906 1.389 1.692 1.658.015.005.03.01.045.014 3.109.851 6.77.848 9.865-.043.012-.004.023-.007.035-.011.774-.265 1.386-.865 1.667-1.634.277-.759.201-1.603-.208-2.3.001.003-.255-.502-.255-.502-.188-.369-.64-.517-1.009-.329-.369.187-.516.639-.329 1.008l.293.572c.188.313.224.694.099 1.037-.122.333-.384.596-.716.719-2.837.814-6.174.815-9.013.045-.356-.128-.63-.401-.757-.749-.129-.354-.092-.748.103-1.072l.303-.506c.213-.355.098-.816-.257-1.029s-.816-.097-1.029.257z"/></g></svg>