<svg clip-rule="evenodd" fill-rule="evenodd" height="512" stroke-linejoin="round" stroke-miterlimit="2" viewBox="0 0 24 24" width="512" xmlns="http://www.w3.org/2000/svg"><g id="Icon"><path d="m10.554 21.997c.709 1.008 2.182 1.008 2.891 0 0 0 8.978-12.759 8.978-12.759.424-.6.437-1.405.031-2.022l-3.392-5.168c-.33-.499-.884-.798-1.477-.798h-11.17c-.593 0-1.148.299-1.477.798l-3.394 5.17c-.403.616-.391 1.42.033 2.021zm1.227-.863-8.978-12.76c-.071-.099-.071-.233-.004-.335 0 0 3.391-5.165 3.391-5.165.05-.076.134-.124.225-.124h11.17c.09 0 .174.048.225.124l3.391 5.166c.067.102.066.235-.004.334l-8.979 12.76c-.107.152-.33.152-.437 0z"/><path d="m12.721 21.794-3.936-13.777s1.926-5.78 1.926-5.78c.131-.393-.081-.818-.474-.949-.393-.13-.818.082-.949.475l-2 6c-.048.143-.051.298-.009.443l4 14c.113.398.529.629.927.515s.629-.529.515-.927z"/><path d="m12.721 22.206 4-14c.041-.145.038-.3-.01-.443l-2-6c-.131-.393-.556-.605-.948-.475-.393.131-.606.556-.475.949l1.927 5.78s-3.936 13.777-3.936 13.777c-.114.398.117.813.515.927s.813-.117.927-.515z"/><path d="m2 8.75h20c.414 0 .75-.336.75-.75s-.336-.75-.75-.75h-20c-.414 0-.75.336-.75.75s.336.75.75.75z"/></g></svg>