<svg height="512" viewBox="0 0 32 32" width="512" xmlns="http://www.w3.org/2000/svg"><g id="joypad_pc_game" data-name="joypad, pc, game"><path d="m22 21h-7v-6.0986a5.5906 5.5906 0 0 0 2 .0165v4.045a1 1 0 1 0 2 0v-4.742a6.0029 6.0029 0 1 0 -6-.0653v6.8444h-3a3.0033 3.0033 0 0 0 -3 3v2a3.0033 3.0033 0 0 0 3 3h12a3.0033 3.0033 0 0 0 3-3v-2a3.0033 3.0033 0 0 0 -3-3zm-5.9463-16a4 4 0 1 1 -4 4 4.0039 4.0039 0 0 1 4-4zm6.9463 21a1.0006 1.0006 0 0 1 -1 1h-12a1.0006 1.0006 0 0 1 -1-1v-2a1.0006 1.0006 0 0 1 1-1h12a1.0006 1.0006 0 0 1 1 1z"/></g></svg>