<svg clip-rule="evenodd" fill-rule="evenodd" height="512" stroke-linejoin="round" stroke-miterlimit="2" viewBox="0 0 24 24" width="512" xmlns="http://www.w3.org/2000/svg"><g id="Icon"><path d="m16.25 18.95v.55c0 .966-.784 1.75-1.75 1.75s-1.75-.784-1.75-1.75v-15c0-.966.784-1.75 1.75-1.75s1.75.784 1.75 1.75v.55c0 .414.336.75.75.75s.75-.336.75-.75v-.55c0-1.794-1.456-3.25-3.25-3.25s-3.25 1.456-3.25 3.25v15c0 1.794 1.456 3.25 3.25 3.25s3.25-1.456 3.25-3.25v-.55c0-.414-.336-.75-.75-.75s-.75.336-.75.75z"/><path d="m19.475 9.111c1.055.527 1.775 1.623 1.775 2.889 0 1.265-.72 2.361-1.775 2.889-.37.185-.521.636-.336 1.006s.636.521 1.006.336c1.547-.773 2.605-2.377 2.605-4.231 0-1.855-1.058-3.459-2.605-4.231-.37-.185-.821-.035-1.006.336-.185.37-.034.821.336 1.006z"/><path d="m15.75 7.5c0-.967.784-1.75 1.75-1.75.967 0 1.75.783 1.75 1.75s-.783 1.75-1.75 1.75c-.414 0-.75.336-.75.75s.336.75.75.75c1.796 0 3.25-1.455 3.25-3.25s-1.454-3.25-3.25-3.25c-1.795 0-3.25 1.455-3.25 3.25 0 .414.336.75.75.75s.75-.336.75-.75z"/><path d="m17.5 14.75c.967 0 1.75.783 1.75 1.75s-.783 1.75-1.75 1.75c-.966 0-1.75-.783-1.75-1.75 0-.414-.336-.75-.75-.75s-.75.336-.75.75c0 1.795 1.455 3.25 3.25 3.25 1.796 0 3.25-1.455 3.25-3.25s-1.454-3.25-3.25-3.25c-.414 0-.75.336-.75.75s.336.75.75.75z"/><path d="m8.75 5c0-1.518-1.232-2.75-2.75-2.75-1.517 0-2.75 1.232-2.75 2.75s1.233 2.75 2.75 2.75c1.518 0 2.75-1.232 2.75-2.75zm-1.5 0c0 .69-.56 1.25-1.25 1.25-.689 0-1.25-.56-1.25-1.25s.561-1.25 1.25-1.25c.69 0 1.25.56 1.25 1.25z"/><path d="m9.75 12c0-1.518-1.232-2.75-2.75-2.75-1.517 0-2.75 1.232-2.75 2.75s1.233 2.75 2.75 2.75c1.518 0 2.75-1.232 2.75-2.75zm-1.5 0c0 .69-.56 1.25-1.25 1.25-.689 0-1.25-.56-1.25-1.25s.561-1.25 1.25-1.25c.69 0 1.25.56 1.25 1.25z"/><path d="m6.75 18c0-1.518-1.232-2.75-2.75-2.75-1.517 0-2.75 1.232-2.75 2.75s1.233 2.75 2.75 2.75c1.518 0 2.75-1.232 2.75-2.75zm-1.5 0c0 .69-.56 1.25-1.25 1.25-.689 0-1.25-.56-1.25-1.25s.561-1.25 1.25-1.25c.69 0 1.25.56 1.25 1.25z"/><path d="m8 5.75h4c.414 0 .75-.336.75-.75s-.336-.75-.75-.75h-4c-.414 0-.75.336-.75.75s.336.75.75.75z"/><path d="m6 18.75h6c.414 0 .75-.336.75-.75s-.336-.75-.75-.75h-6c-.414 0-.75.336-.75.75s.336.75.75.75z"/><path d="m9 12.75h3c.414 0 .75-.336.75-.75s-.336-.75-.75-.75h-3c-.414 0-.75.336-.75.75s.336.75.75.75z"/></g></svg>