<svg clip-rule="evenodd" fill-rule="evenodd" height="512" stroke-linejoin="round" stroke-miterlimit="2" viewBox="0 0 24 24" width="512" xmlns="http://www.w3.org/2000/svg"><g id="Icon"><path d="m8.721 19.327-1.225-1.236c-.292-.294-.767-.297-1.061-.005-.294.291-.296.766-.005 1.06l1.225 1.237c.292.294.767.296 1.061.005s.296-.767.005-1.061z"/><path d="m13.836 15.419-1.394-1.409c-.291-.294-.766-.297-1.061-.006-.294.291-.297.766-.005 1.061l1.393 1.409c.291.294.766.297 1.061.006.294-.291.297-.767.006-1.061z"/><path d="m2.019 16.876c-1.124 1.443-1.003 3.496.282 4.797.001.001.001.001.002.002 1.311 1.327 3.412 1.451 4.871.287 0 0 8.738-6.974 8.738-6.974s1.684-1.33 1.684-1.33c2.262-1.784 2.517-5.113.57-7.084l-.866-.876c-1.953-1.977-5.255-1.721-7.025.576.003-.003-5.486 7.045-8.256 10.602zm1.183.922 8.261-10.608c1.203-1.562 3.443-1.781 4.77-.437l.866.875c1.334 1.351 1.118 3.63-.432 4.853l-1.689 1.334s-5.616 4.482-8.74 6.975c-.859.685-2.096.612-2.868-.169-.001-.001-.001-.002-.002-.002-.756-.765-.827-1.973-.166-2.821z"/><path d="m10.447 7.087 2.033 2.139c.285.3.76.312 1.06.027s.312-.76.027-1.06l-2.033-2.14c-.285-.3-.76-.312-1.061-.027-.3.285-.312.761-.026 1.061z"/><path d="m5.66 13.89 1.051 1.105c.285.301.76.313 1.06.027.3-.285.312-.76.027-1.06l-1.051-1.106c-.285-.3-.76-.312-1.06-.027-.3.286-.312.761-.027 1.061z"/><path d="m19.95 2.999-3.154 3.192c-.209.211-.273.525-.165.802.108.276.369.462.665.475l4.671.203c.414.018.764-.303.782-.717s-.303-.764-.716-.782l-2.982-.129s1.966-1.99 1.966-1.99c.291-.294.288-.769-.006-1.06-.295-.291-.77-.288-1.061.006z"/><path d="m18.078 6.687-.2-4.728c-.018-.413-.368-.735-.781-.717-.414.017-.736.367-.718.781l.201 4.728c.017.413.367.735.781.717.413-.018.735-.368.717-.781z"/></g></svg>