<svg clip-rule="evenodd" fill-rule="evenodd" stroke-linejoin="round" stroke-miterlimit="1.414" viewBox="0 0 32 32" xmlns="http://www.w3.org/2000/svg" xmlns:serif="http://www.serif.com/"><path id="check-choice-square" d="m0 0h32v32h-32z" fill="none"/><path d="m26.082 5.007c.076.01.096.01.171.03.608.163.941.995.56 1.539-.15.214-.387.365-.645.41-.076.014-.096.012-.173.016-6.001 0-12.003-.093-18.004 0-.511.011-.972.465-.98.986-.05 5.339-.083 10.679 0 16.018.011.512.464.972.986.98 5.339.051 10.679.083 16.018 0 .515-.011.979-.462.981-1v-13.987c.003-.077.001-.097.015-.173.136-.774 1.38-1.139 1.849-.326.058.1.098.211.119.326.013.076.011.096.015.173 0 4.669.014 9.338 0 14.007-.015 1.547-1.344 2.963-2.979 2.979-5.341.016-10.683.016-16.024 0-1.546-.015-2.964-1.363-2.979-2.979-.016-5.341-.016-10.683 0-16.024.015-1.558 1.362-2.974 2.996-2.979h17.987c.029.002.058.003.087.004zm-5.005 5.994c.23.026.297.06.416.128.452.257.638.899.374 1.363-.028.049-.037.059-.069.105l-5.995 7.993c-.124.156-.173.188-.268.247-.345.216-.822.194-1.146-.059-.043-.033-.052-.044-.092-.081l-3.996-3.996c-.159-.169-.187-.239-.234-.369-.229-.637.363-1.441 1.097-1.325.206.033.396.136.55.281l3.182 3.182 5.304-7.072s.432-.417.877-.397z" fill-rule="nonzero"/></svg>