<svg clip-rule="evenodd" fill-rule="evenodd" height="512" stroke-linejoin="round" stroke-miterlimit="2" viewBox="0 0 24 24" width="512" xmlns="http://www.w3.org/2000/svg"><g id="Icon"><circle cx="16" cy="6" r="1"/><circle cx="8" cy="21" r="1"/><circle cx="16" cy="3" r="1"/><circle cx="8" cy="18" r="1"/><path d="m18.5 6.75h2.5c.414 0 .75-.336.75-.75s-.336-.75-.75-.75h-2.5c-.414 0-.75.336-.75.75s.336.75.75.75z"/><path d="m5.5 20.25h-2.5c-.414 0-.75.336-.75.75s.336.75.75.75h2.5c.414 0 .75-.336.75-.75s-.336-.75-.75-.75z"/><path d="m18.5 3.75h2.5c.414 0 .75-.336.75-.75s-.336-.75-.75-.75h-2.5c-.414 0-.75.336-.75.75s.336.75.75.75z"/><path d="m5.5 17.25h-2.5c-.414 0-.75.336-.75.75s.336.75.75.75h2.5c.414 0 .75-.336.75-.75s-.336-.75-.75-.75z"/><path d="m13.25 15.25v.5h-1.25c-.297 0-.566.175-.686.447-.12.271-.069.588.131.808l5 5.5c.142.156.344.245.555.245s.413-.089.555-.245l5-5.5c.2-.22.251-.537.131-.808-.12-.272-.389-.447-.686-.447h-1.25v-3.25c0-.995-.395-1.948-1.098-2.652-.704-.703-1.657-1.098-2.652-1.098h-6.25v-.5h1.25c.297 0 .566-.175.686-.447.12-.271.069-.588-.131-.808l-5-5.5c-.142-.156-.344-.245-.555-.245s-.413.089-.555.245l-5 5.5c-.2.22-.251.537-.131.808.12.272.389.447.686.447h1.25v3.25c0 .995.395 1.948 1.098 2.652.704.703 1.657 1.098 2.652 1.098zm.75-1.5.039.001.038.003.037.005.037.006c.342.07.599.373.599.735v2c0 .414-.336.75-.75.75h-.305s3.305 3.635 3.305 3.635 3.305-3.635 3.305-3.635h-.305c-.414 0-.75-.336-.75-.75v-4c0-.597-.237-1.169-.659-1.591s-.994-.659-1.591-.659c-2.946 0-7 0-7 0-.414 0-.75-.336-.75-.75v-2c0-.414.336-.75.75-.75h.305s-3.305-3.635-3.305-3.635-3.305 3.635-3.305 3.635h.305c.414 0 .75.336.75.75v4c0 .597.237 1.169.659 1.591s.994.659 1.591.659z"/></g></svg>