<svg clip-rule="evenodd" fill-rule="evenodd" height="512" stroke-linejoin="round" stroke-miterlimit="2" viewBox="0 0 24 24" width="512" xmlns="http://www.w3.org/2000/svg"><g id="Icon"><path d="m17.297 5.193c-1.088 1.708-2.736 2.963-4.659 3.525l-.85.251c-.294.087-.505.344-.534.65-.028.305.131.597.404.737l3.181 1.634c.488.251 1.009.365 1.521.365.888 0 1.753-.347 2.404-1.016.864-.885 1.191-2.184.858-3.379 0 0-.793-2.855-.793-2.855l-.922-3.306c-.111-.399-.525-.633-.924-.521-.398.111-.632.525-.52.923zm.511 1.839c-1.039 1.246-2.361 2.215-3.855 2.816l1.571.808c.268.137.554.199.836.199.491 0 .969-.192 1.33-.562 0-.001 0-.001 0-.001.494-.505.677-1.247.487-1.93z"/><path d="m17.138 15.768c-.074.228-.035.479.106.673s.367.309.607.309c0 0 1.756-.016 2.811-.557.502-.258.863-.629 1.011-1.087.145-.446.117-1.016-.336-1.713-.48-.739-1.014-.956-1.474-.956s-.93.242-1.332.684c-.805.885-1.393 2.647-1.393 2.647zm2.719-1.813c.048.045.153.149.222.256.121.185.206.314.168.432-.028.087-.12.131-.21.183-.131.075-.283.134-.442.182-.192.06-.394.104-.589.138.107-.222.231-.451.367-.661.135-.208.405-.458.484-.53z"/><path d="m17.509 16.668s.568.356.568 1.332c0 .414.336.75.75.75s.75-.336.75-.75c0-2.026-1.384-2.668-1.384-2.668-.368-.188-.821-.042-1.01.326-.188.368-.042.821.326 1.01z"/><path d="m6.704 5.193.834-2.992c.111-.398-.122-.812-.521-.923-.398-.112-.812.122-.924.521l-.922 3.306-.792 2.855c-.333 1.195-.006 2.494.858 3.379.651.669 1.515 1.016 2.404 1.016.512 0 1.033-.114 1.521-.365l3.181-1.634c.272-.14.432-.432.404-.737-.029-.306-.241-.563-.535-.65l-.849-.251c-1.923-.562-3.571-1.817-4.659-3.525zm-.511 1.839-.369 1.33c-.19.683-.007 1.425.486 1.93.001 0 .001 0 .001.001.36.37.838.562 1.33.562.281 0 .568-.062.836-.199l1.571-.808c-1.495-.602-2.817-1.571-3.855-2.816z"/><path d="m18.256 16.631c.28-.179.408-.522.315-.842-.094-.319-.387-.539-.72-.539h-11.701c-.333 0-.626.22-.72.539-.093.32.035.663.315.842 0 0 3.735 2.387 5.6 5.734.132.238.383.385.655.385s.523-.147.655-.385c.931-1.67 2.331-3.097 3.494-4.109.001 0 .001-.001.001-.001 1.171-1.023 2.106-1.624 2.106-1.624zm-2.653.12c-.142.118-.289.242-.439.374-1.024.89-2.208 2.079-3.164 3.461-1.097-1.585-2.499-2.915-3.606-3.835 0-.001 3.119-.001 3.119-.001h4.091z"/><path d="m6.15 16.75c.24 0 .465-.115.607-.309.141-.194.18-.445.106-.673 0 0-.588-1.762-1.393-2.647-.402-.442-.872-.684-1.332-.684-.461 0-.994.217-1.474.956-.453.697-.481 1.267-.337 1.713.149.458.51.829 1.011 1.087 1.056.541 2.812.557 2.812.557zm-2.007-2.795c.08.072.35.322.485.53.136.21.259.439.366.66l-.12-.022c-.308-.059-.628-.144-.881-.281-.106-.058-.219-.101-.24-.205-.025-.119.053-.249.168-.426h.001c.069-.107.174-.211.221-.256z"/><path d="m5.808 15.332s-1.384.642-1.384 2.668c0 .414.336.75.75.75s.75-.336.75-.75c0-.976.568-1.332.568-1.332.368-.189.514-.642.325-1.01-.188-.368-.641-.514-1.009-.326z"/></g></svg>