<?xml version="1.0"?>
<svg xmlns="http://www.w3.org/2000/svg" viewBox="0 0 32 32" width="512" height="512"><g id="Layer_39" data-name="Layer 39"><path d="M18,17a1,1,0,0,0-1,1v4a1,1,0,0,0,1,1h4a1,1,0,0,0,1-1V18a1,1,0,0,0-1-1Zm3,4H19V19h2Z"/><path d="M28,25H27V18a1,1,0,0,0-2,0v7H15V18a1,1,0,0,0-1-1H10a1,1,0,0,0-1,1v7H7V15H8a1,1,0,0,0,0-2H5.2808l1.5-6H25.2192l1.5,6H12a1,1,0,0,0,0,2H28a1,1,0,0,0,.97-1.2427l-2-8A1,1,0,0,0,26,5H6a1,1,0,0,0-.97.7573l-2,8A1,1,0,0,0,4,15H5V25H4a1,1,0,0,0,0,2H28a1,1,0,0,0,0-2ZM11,19h2v6H11Z"/></g></svg>
