<svg height="512" viewBox="0 0 32 32" width="512" xmlns="http://www.w3.org/2000/svg"><g id="broken_break_bone_accident" data-name="broken, break, bone, accident"><path d="m6 12.2676a1.0009 1.0009 0 0 1 1 1 1 1 0 0 0 1 1h6a1 1 0 0 0 0-2h-5.1714a2.9991 2.9991 0 1 0 -5.061 2.998 2.9994 2.9994 0 1 0 5.061 3.002h5.1714a1 1 0 0 0 0-2h-6a1 1 0 0 0 -1 1 1 1 0 1 1 -1-1h.0127a1 1 0 0 0 -.0127-2h-.0083a1 1 0 0 1 .0083-2z"/><path d="m28.8975 18.4912a3 3 0 0 0 -4.8475-1.5039l-4.4785-2.5859a1 1 0 0 0 -1 1.7324l5.1963 3a1.0194 1.0194 0 0 0 .7588.1 1 1 0 0 0 .6074-.4658 1 1 0 1 1 1.7314 1 1.0056 1.0056 0 0 1 -1.3867.3545 1 1 0 0 0 -.979 1.7441 1.0008 1.0008 0 0 1 .3662 1.3662 1.0027 1.0027 0 0 1 -1.3662.3653.9993.9993 0 0 1 -.3662-1.3643 1.0009 1.0009 0 0 0 -.3657-1.3672l-5.1963-3a1 1 0 0 0 -1 1.7324l4.4775 2.585a3 3 0 1 0 5.8862-.0684 2.9953 2.9953 0 0 0 1.962-3.624z"/><path d="m20 12.2676a.9967.9967 0 0 0 .707-.293l2-2a1 1 0 0 0 -1.414-1.4141l-2 2a1 1 0 0 0 .707 1.7071z"/><path d="m17 9.2676v-2a1 1 0 0 0 -2 0v2a1 1 0 1 0 2 0z"/></g></svg>