<svg clip-rule="evenodd" fill-rule="evenodd" height="512" stroke-linejoin="round" stroke-miterlimit="2" viewBox="0 0 24 24" width="512" xmlns="http://www.w3.org/2000/svg"><g id="Icon"><path d="m22.75 5v14c0 2.071-1.679 3.75-3.75 3.75h-14c-2.071 0-3.75-1.679-3.75-3.75v-14c0-2.071 1.679-3.75 3.75-3.75h14c2.071 0 3.75 1.679 3.75 3.75zm-1.5 0c0-1.243-1.007-2.25-2.25-2.25h-14c-1.243 0-2.25 1.007-2.25 2.25v14c0 1.243 1.007 2.25 2.25 2.25h14c1.243 0 2.25-1.007 2.25-2.25z"/><path d="m7.75 9c0 .414-.336.75-.75.75s-.75-.336-.75-.75v-4c0-.414.336-.75.75-.75s.75.336.75.75z"/><path d="m8.945 17.884c.292.293.292.768 0 1.061-.293.292-.768.292-1.061 0l-2.829-2.829c-.292-.293-.292-.768 0-1.061.293-.292.768-.292 1.061 0z"/><path d="m9 6.25c.414 0 .75.336.75.75s-.336.75-.75.75h-4c-.414 0-.75-.336-.75-.75s.336-.75.75-.75z"/><path d="m7.884 15.055c.293-.292.768-.292 1.061 0 .292.293.292.768 0 1.061l-2.829 2.829c-.293.292-.768.292-1.061 0-.292-.293-.292-.768 0-1.061z"/><path d="m19 6.25c.414 0 .75.336.75.75s-.336.75-.75.75h-4c-.414 0-.75-.336-.75-.75s.336-.75.75-.75z"/><path d="m19 17.75c.414 0 .75.336.75.75s-.336.75-.75.75h-4c-.414 0-.75-.336-.75-.75s.336-.75.75-.75z"/><path d="m19 14.75c.414 0 .75.336.75.75s-.336.75-.75.75h-4c-.414 0-.75-.336-.75-.75s.336-.75.75-.75z"/><path d="m22 11.25c.414 0 .75.336.75.75s-.336.75-.75.75h-20c-.414 0-.75-.336-.75-.75s.336-.75.75-.75z"/><path d="m11.25 2c0-.414.336-.75.75-.75s.75.336.75.75v20c0 .414-.336.75-.75.75s-.75-.336-.75-.75z"/></g></svg>