<svg clip-rule="evenodd" fill-rule="evenodd" stroke-linejoin="round" stroke-miterlimit="1.414" viewBox="0 0 32 32" xmlns="http://www.w3.org/2000/svg" xmlns:serif="http://www.serif.com/"><path id="refresh-reload-loading-arrow" d="m0 0h32v32h-32z" fill="none"/><path d="m10.999 16.439c.224 3.24 2.898 6.221 6.32 6.546 2.244.214 4.568-.731 6.027-2.455 2.028-2.399 2.194-6.195.212-8.781-1.304-1.7-3.41-2.745-5.567-2.748 0 0-.171-.004-.31-.05-.727-.237-.928-1.445-.142-1.844.129-.065.198-.099.455-.108h.027c4.274.02 8.337 3.36 8.909 7.864.319 2.504-.467 5.127-2.126 7.042-2.288 2.642-6.166 3.766-9.544 2.693-3.46-1.1-6.085-4.456-6.268-8.184l-2.306 2.305s-.409.359-.876.279c-.675-.114-1.07-1.04-.615-1.611.032-.039.041-.047.075-.083l4.005-4.005c.206-.195.472-.3.764-.292.244.021.473.123.652.292l4.004 4.005c.523.553.205 1.659-.651 1.707-.244.014-.491-.065-.681-.217-.039-.031-.047-.04-.083-.075z" fill-rule="nonzero"/></svg>