<svg clip-rule="evenodd" fill-rule="evenodd" height="512" stroke-linejoin="round" stroke-miterlimit="2" viewBox="0 0 24 24" width="512" xmlns="http://www.w3.org/2000/svg"><g id="Icon"><path d="m5.093 12.577c.292-.293.767-.293 1.06 0s.293.768 0 1.061l-3.322 3.322s.893 3.573.893 3.573l4.333-4.333c.292-.293.768-.293 1.06 0 .293.293.293.768 0 1.061l-5.269 5.269c-.191.191-.47.265-.731.193-.26-.072-.462-.279-.527-.541l-1.318-5.27c-.064-.255.011-.526.198-.712z"/><path d="m14.314 2.697c1.929-1.929 5.061-1.929 6.989 0 1.929 1.928 1.929 5.06 0 6.989-.991.991-3.879 2.184-5.805 2.88-1.056.38-2.017.99-2.811 1.784-1.359 1.359-2.911 2.911-2.911 2.911-.201.201-.498.271-.767.181l-2.965-.988c-.255-.085-.445-.301-.498-.565l-.659-3.293c-.049-.246.028-.5.206-.678zm1.061 1.06s-8.938 8.938-8.938 8.938l.495 2.473 2.111.704c.528-.527 1.605-1.605 2.583-2.583.951-.95 2.099-1.679 3.363-2.134 1.733-.626 4.362-1.638 5.254-2.53 1.343-1.343 1.343-3.524 0-4.868-1.344-1.343-3.525-1.343-4.868 0z"/><path d="m15.961 4.343c1.02-1.019 2.676-1.019 3.696 0 1.019 1.02 1.019 2.676 0 3.696-1.02 1.02-2.676 1.02-3.696 0s-1.02-2.676 0-3.696zm1.061 1.061c-.435.434-.435 1.14 0 1.574.434.435 1.14.435 1.574 0 .434-.434.434-1.14 0-1.574s-1.14-.434-1.574 0z"/><path d="m9.776 13.308c-.293.293-.768.293-1.061 0-.292-.292-.292-.767 0-1.06l4.282-4.282c.293-.292.768-.292 1.061 0 .292.293.292.768 0 1.061z"/></g></svg>