<svg clip-rule="evenodd" fill-rule="evenodd" height="512" stroke-linejoin="round" stroke-miterlimit="2" viewBox="0 0 24 24" width="512" xmlns="http://www.w3.org/2000/svg"><g id="Icon"><path d="m17.75 17.836c2.76 0 5-2.241 5-5 0-2.46-1.78-4.507-4.12-4.923-.542-2.611-2.858-4.577-5.63-4.577-2.207 0-4.125 1.246-5.089 3.072-.296-.048-.601-.072-.911-.072-3.174 0-5.75 2.576-5.75 5.75 0 3.173 2.576 5.75 5.75 5.75.414 0 .75-.336.75-.75s-.336-.75-.75-.75c-2.346 0-4.25-1.905-4.25-4.25 0-2.346 1.904-4.25 4.25-4.25.395 0 .777.054 1.14.155.371.103.76-.091.9-.45.618-1.583 2.159-2.705 3.96-2.705 2.204 0 4.018 1.68 4.229 3.829.037.369.337.656.708.676 1.845.096 3.313 1.626 3.313 3.495 0 1.931-1.568 3.5-3.5 3.5-.414 0-.75.336-.75.75s.336.75.75.75z"/><path d="m12.543 11.836c-2.046 0-3.707 1.661-3.707 3.707s1.661 3.707 3.707 3.707 3.707-1.661 3.707-3.707-1.661-3.707-3.707-3.707zm0 1.5c1.218 0 2.207.989 2.207 2.207s-.989 2.207-2.207 2.207-2.207-.989-2.207-2.207.989-2.207 2.207-2.207z"/><path d="m8.702 20.445 2.281-2.281c.292-.293.292-.768 0-1.061-.293-.293-.768-.293-1.061 0l-2.281 2.281c-.292.293-.292.768 0 1.061.293.292.768.292 1.061 0z"/></g></svg>