<svg clip-rule="evenodd" fill-rule="evenodd" height="512" stroke-linejoin="round" stroke-miterlimit="2" viewBox="0 0 24 24" width="512" xmlns="http://www.w3.org/2000/svg"><g id="Icon"><path d="m21 18.754c.968 0 1.75-.784 1.75-1.75v-10c0-.966-.782-1.75-1.75-1.75h-18c-.968 0-1.75.784-1.75 1.75v10c0 .966.782 1.75 1.75 1.75zm0-1.5h-18c-.138 0-.25-.112-.25-.25v-10c0-.138.112-.25.25-.25h18c.138 0 .25.112.25.25v10c0 .138-.112.25-.25.25z"/><path d="m18.75 12.004c0-2.622-2.128-4.75-4.75-4.75s-4.75 2.128-4.75 4.75 2.128 4.75 4.75 4.75 4.75-2.128 4.75-4.75zm-1.5 0c0 1.794-1.456 3.25-3.25 3.25s-3.25-1.456-3.25-3.25 1.456-3.25 3.25-3.25 3.25 1.456 3.25 3.25z"/><path d="m5 10.754c.968 0 1.75-.784 1.75-1.75s-.782-1.75-1.75-1.75h-3c-.414 0-.75.336-.75.75v2c0 .414.336.75.75.75zm0-1.5h-2.25v-.5h2.25c.138 0 .25.112.25.25s-.112.25-.25.25z"/></g></svg>