<svg clip-rule="evenodd" fill-rule="evenodd" height="512" stroke-linejoin="round" stroke-miterlimit="2" viewBox="0 0 24 24" width="512" xmlns="http://www.w3.org/2000/svg"><g id="Icon"><path d="m12.27 8.817-1.963 5.891c-.131.393.081.818.474.949s.818-.082.949-.474l1.963-5.891c.131-.393-.081-.818-.474-.949s-.818.082-.949.474z"/><path d="m14.506 10.567 1.433 1.433s-1.433 1.433-1.433 1.433c-.293.293-.293.768 0 1.061s.768.293 1.061 0l1.963-1.964c.293-.293.293-.767 0-1.06l-1.963-1.964c-.293-.293-.768-.293-1.061 0s-.293.768 0 1.061z"/><path d="m8.433 9.506-1.963 1.964c-.293.293-.293.767 0 1.06l1.963 1.964c.293.293.768.293 1.061 0s.293-.768 0-1.061l-1.433-1.433s1.433-1.433 1.433-1.433c.293-.293.293-.768 0-1.061s-.768-.293-1.061 0z"/><path d="m18.75 5c0-2.07-1.68-3.75-3.75-3.75-1.631 0-3.021 1.044-3.536 2.5-.138.39.067.819.457.957s.819-.067.957-.457c.309-.873 1.143-1.5 2.122-1.5 1.242 0 2.25 1.008 2.25 2.25 0 .414.336.75.75.75s.75-.336.75-.75z"/><path d="m11.25 19c0 2.07 1.68 3.75 3.75 3.75s3.75-1.68 3.75-3.75c0-.414-.336-.75-.75-.75s-.75.336-.75.75c0 1.242-1.008 2.25-2.25 2.25s-2.25-1.008-2.25-2.25c0-.414-.336-.75-.75-.75s-.75.336-.75.75z"/><path d="m6.75 5c0-1.242 1.008-2.25 2.25-2.25.979 0 1.813.627 2.122 1.5.138.39.567.595.957.457s.595-.567.457-.957c-.515-1.456-1.905-2.5-3.536-2.5-2.07 0-3.75 1.68-3.75 3.75 0 .414.336.75.75.75s.75-.336.75-.75z"/><path d="m11.25 19c0 1.242-1.008 2.25-2.25 2.25s-2.25-1.008-2.25-2.25c0-.414-.336-.75-.75-.75s-.75.336-.75.75c0 2.07 1.68 3.75 3.75 3.75s3.75-1.68 3.75-3.75c0-.414-.336-.75-.75-.75s-.75.336-.75.75z"/><path d="m19.218 12.986c1.191.483 2.032 1.651 2.032 3.014 0 1.794-1.456 3.25-3.25 3.25-.414 0-.75.336-.75.75s.336.75.75.75c2.622 0 4.75-2.128 4.75-4.75 0-1.992-1.228-3.699-2.968-4.404-.384-.155-.822.03-.977.413-.156.384.03.822.413.977z"/><path d="m4.218 11.596c-1.74.705-2.968 2.412-2.968 4.404 0 2.622 2.128 4.75 4.75 4.75.414 0 .75-.336.75-.75s-.336-.75-.75-.75c-1.794 0-3.25-1.456-3.25-3.25 0-1.363.841-2.531 2.032-3.014.383-.155.569-.593.413-.977-.155-.383-.593-.568-.977-.413z"/><path d="m19.5 8.75c.966 0 1.75.784 1.75 1.75 0 .717-.433 1.334-1.051 1.605-.379.165-.552.608-.386.987s.608.553.988.387c1.147-.502 1.949-1.648 1.949-2.979 0-1.794-1.456-3.25-3.25-3.25-.414 0-.75.336-.75.75s.336.75.75.75z"/><path d="m4.5 7.25c-1.794 0-3.25 1.456-3.25 3.25 0 1.331.802 2.477 1.949 2.979.38.166.822-.008.988-.387s-.007-.822-.386-.987c-.618-.271-1.051-.888-1.051-1.605 0-.966.784-1.75 1.75-1.75.414 0 .75-.336.75-.75s-.336-.75-.75-.75z"/><path d="m18 5.458c.966 0 1.75.784 1.75 1.75 0 .194-.031.38-.09.554-.131.393.082.818.474.949.393.132.818-.081.949-.473.108-.324.167-.67.167-1.03 0-1.793-1.456-3.25-3.25-3.25-.414 0-.75.336-.75.75s.336.75.75.75z"/><path d="m6 3.958c-1.794 0-3.25 1.457-3.25 3.25 0 .36.059.706.167 1.03.131.392.556.605.949.473.392-.131.605-.556.474-.949-.059-.174-.09-.36-.09-.554 0-.966.784-1.75 1.75-1.75.414 0 .75-.336.75-.75s-.336-.75-.75-.75z"/></g></svg>