<svg clip-rule="evenodd" fill-rule="evenodd" stroke-linejoin="round" stroke-miterlimit="2" viewBox="0 0 32 32" xmlns="http://www.w3.org/2000/svg" xmlns:serif="http://www.serif.com/"><path id="books-library-literature" d="m0 0h32v32h-32z" fill="none"/><path d="m12.003 28.188c-.524.484-1.212.794-1.961.808-1.347.009-2.694 0-4.041 0-1.558-.009-2.965-1.349-2.995-2.962-.042-6.678-.001-13.356-.001-20.034.01-1.558 1.35-2.966 2.962-2.996 1.347-.009 2.693 0 4.04 0 1.565.009 2.985 1.348 2.996 2.996v2.002c-.037.775-1.036 1.292-1.655.756-.21-.182-.325-.33-.345-.756 0-.675.013-1.35 0-2.026-.016-.512-.469-.963-.986-.973-1.346-.008-2.692-.025-4.037 0-.508.016-.959.46-.975.975-.006.34-.012.681-.018 1.021 1.019-.006 2.038-.016 3.057.004.877.053 1.322 1.466.384 1.905-.132.061-.276.091-.424.094h-3.047c-.06 4.665-.06 9.331 0 13.996h6.036c-.004-3 .01-6 .01-9.001.01-1.551 1.344-2.965 2.961-2.995 1.358-.009 2.717-.009 4.076 0 .331.006.656.072.961.187v-1.191c.01-1.551 1.344-2.965 2.961-2.995 1.358-.009 2.716-.009 4.074 0 1.541.028 2.932 1.34 2.962 2.961.033 5.346 0 10.691 0 16.036-.009 1.558-1.35 2.966-2.962 2.996-1.346.009-2.693 0-4.039 0-.743-.004-1.453-.312-1.996-.809-.525.485-1.215.795-1.962.809-1.347.009-2.693 0-4.04 0-.743-.004-1.453-.312-1.996-.808zm-1.005-3.19h-6.011c.006.341.012.683.018 1.024.016.508.46.959.975.975 1.349.025 2.7.025 4.05 0 .515-.017.969-.463.973-1.001-.002-.333-.004-.666-.005-.998zm16.046-2c.05-4.34.035-8.682-.046-13.021-.015-.507-.46-.959-.974-.975-1.35-.025-2.7-.025-4.05 0-.517.017-.97.464-.974 1.003v.993c1.013-.006 2.027-.016 3.039.004.734.044 1.229.991.753 1.609-.186.241-.483.384-.792.39h-3v1c-.028.645-.31.781-.577.906-.02.009-.041.018-.061.025-.017.007-.035.014-.052.019-.356.116-.756-.011-1.018-.27-.14-.135-.241-.308-.276-.507-.003-.017-.005-.031-.007-.044-.023-.157-.001-.121-.015-.245-.057-.48-.493-.875-.98-.884-1.346-.009-2.692-.025-4.038 0-.512.016-.963.469-.973.986-.019 3.003-.052 6.005-.036 9.008 1.025-.006 2.05-.017 3.075.004.866.052 1.337 1.459.383 1.904-.131.062-.275.092-.423.095h-2.999v1.002.003.021c.016.506.459.956.973.973 1.35.025 2.7.025 4.05 0 .515-.016.972-.465.975-1.003v-7.995c.004-.111.013-.187.027-.248.022-.103.057-.165.107-.251.172-.299.513-.469.856-.478.258-.008.517.074.711.265l.006.006c.176.176.272.311.291.686.001.007.001.014.001.02v4.999zm-.028 2h-6.016v1.002.003l.001.019c.016.508.46.959.974.975 1.35.025 2.7.025 4.049 0 .508-.016.958-.461.974-.975.007-.341.013-.683.018-1.024z"/></svg>