<svg clip-rule="evenodd" fill-rule="evenodd" height="512" stroke-linejoin="round" stroke-miterlimit="2" viewBox="0 0 24 24" width="512" xmlns="http://www.w3.org/2000/svg"><g id="Icon"><path d="m12 21.57c.955 0 1.73-.774 1.73-1.73v-10.78c0-.956-.775-1.73-1.73-1.73s-1.73.774-1.73 1.73v10.78c0 .956.775 1.73 1.73 1.73zm0-1.5c-.127 0-.23-.102-.23-.23v-10.78c0-.127.103-.23.23-.23s.23.103.23.23v10.78c0 .128-.103.23-.23.23z"/><path d="m13.239 8.116s.127-2.665 2.179-4.358c.319-.264.364-.737.101-1.056-.264-.319-.737-.364-1.056-.101-2.562 2.116-2.722 5.443-2.722 5.443-.02.413.3.765.713.785.414.02.765-.3.785-.713z"/><path d="m12.259 8.044s-.16-3.327-2.722-5.443c-.319-.263-.792-.218-1.056.101-.263.319-.218.792.101 1.056 2.052 1.693 2.179 4.358 2.179 4.358.02.413.371.733.785.713.413-.02.733-.372.713-.785z"/><path d="m13.556 9.54s2.413-2.908 4.73-4.303c.484-.291.959-.516 1.404-.61.32-.068.619-.071.87.075.213.123.38.343.519.657.054.294.248 1.486.138 2.872-.108 1.359-.495 2.93-1.699 3.94-.799.67-1.951 1.073-3.582 1.039-.379-.008-.705.269-.758.644-.054.375.181.732.547.83 0 0 1.828.479 2.858 1.434.254.235.463.496.515.807.051.298-.064.622-.345.992-.941 1.239-1.935 1.899-2.891 2.004-.873.097-1.678-.301-2.307-1.052-.266-.317-.739-.359-1.056-.094-.318.266-.36.74-.094 1.057.981 1.171 2.262 1.731 3.622 1.58 1.277-.141 2.664-.933 3.921-2.588.598-.789.737-1.512.629-2.149-.105-.624-.465-1.185-.975-1.658-.276-.256-.599-.486-.935-.688.722-.245 1.319-.593 1.814-1.008 1.529-1.283 2.094-3.246 2.231-4.971.146-1.83-.177-3.364-.177-3.364-.01-.045-.024-.09-.041-.133-.379-.915-.943-1.41-1.582-1.632-.612-.213-1.322-.171-2.076.092-2.819.981-6.432 5.267-6.432 5.267-.265.318-.222.791.096 1.056s.791.222 1.056-.096z"/><path d="m11.596 8.58s-2.61-3.124-5.108-4.628c-1.17-.704-2.336-1.035-3.262-.775-.699.197-1.314.696-1.72 1.676-.017.043-.031.088-.041.133 0 0-.323 1.534-.177 3.364.137 1.725.702 3.688 2.231 4.971.495.415 1.092.763 1.814 1.008-.336.202-.659.432-.935.688-.51.473-.87 1.034-.975 1.658-.108.637.031 1.36.629 2.149 1.257 1.655 2.644 2.447 3.921 2.588 1.36.151 2.641-.409 3.622-1.58.266-.317.224-.791-.094-1.057-.317-.265-.79-.223-1.056.094-.629.751-1.434 1.149-2.307 1.052-.956-.105-1.95-.765-2.891-2.004-.281-.37-.396-.694-.345-.992.052-.311.261-.572.515-.807 1.03-.955 2.858-1.434 2.858-1.434.366-.098.601-.455.547-.83-.053-.375-.379-.652-.758-.644-1.631.034-2.783-.369-3.582-1.039-1.204-1.01-1.591-2.581-1.699-3.94-.11-1.384.084-2.574.137-2.868.141-.318.307-.538.52-.661.251-.146.55-.143.87-.075.445.094.92.319 1.404.61 2.317 1.395 4.73 4.303 4.73 4.303.265.318.738.361 1.056.096s.361-.738.096-1.056z"/></g></svg>