<svg clip-rule="evenodd" fill-rule="evenodd" height="512" stroke-linejoin="round" stroke-miterlimit="2" viewBox="0 0 24 24" width="512" xmlns="http://www.w3.org/2000/svg"><g id="Icon"><path d="m22.75 12c0-5.933-4.817-10.75-10.75-10.75s-10.75 4.817-10.75 10.75 4.817 10.75 10.75 10.75 10.75-4.817 10.75-10.75zm-1.5 0c0 5.105-4.145 9.25-9.25 9.25s-9.25-4.145-9.25-9.25 4.145-9.25 9.25-9.25 9.25 4.145 9.25 9.25z"/><path d="m15.75 12c0-2.07-1.68-3.75-3.75-3.75s-3.75 1.68-3.75 3.75 1.68 3.75 3.75 3.75 3.75-1.68 3.75-3.75zm-1.5 0c0 1.242-1.008 2.25-2.25 2.25s-2.25-1.008-2.25-2.25 1.008-2.25 2.25-2.25 2.25 1.008 2.25 2.25z"/><path d="m12 5.75c3.452 0 6.25 2.798 6.25 6.25 0 .414.336.75.75.75s.75-.336.75-.75c0-4.28-3.47-7.75-7.75-7.75-.414 0-.75.336-.75.75s.336.75.75.75z"/></g></svg>