<svg clip-rule="evenodd" fill-rule="evenodd" height="512" stroke-linejoin="round" stroke-miterlimit="2" viewBox="0 0 24 24" width="512" xmlns="http://www.w3.org/2000/svg"><g id="Icon"><path d="m8 9.25c-3.725 0-6.75 3.025-6.75 6.75s3.025 6.75 6.75 6.75 6.75-3.025 6.75-6.75c0-.414-.336-.75-.75-.75s-.75.336-.75.75c0 2.898-2.352 5.25-5.25 5.25s-5.25-2.352-5.25-5.25 2.352-5.25 5.25-5.25c.414 0 .75-.336.75-.75s-.336-.75-.75-.75z"/><path d="m22.75 8c0-3.725-3.025-6.75-6.75-6.75s-6.75 3.025-6.75 6.75 3.025 6.75 6.75 6.75 6.75-3.025 6.75-6.75zm-1.5 0c0 2.898-2.352 5.25-5.25 5.25s-5.25-2.352-5.25-5.25 2.352-5.25 5.25-5.25 5.25 2.352 5.25 5.25z"/><path d="m17.5 5.25h-2c-.968 0-1.75.784-1.75 1.75s.782 1.75 1.75 1.75h1c.138 0 .25.112.25.25s-.112.25-.25.25h-2c-.414 0-.75.336-.75.75s.336.75.75.75h2c.968 0 1.75-.784 1.75-1.75s-.782-1.75-1.75-1.75h-1c-.138 0-.25-.112-.25-.25s.112-.25.25-.25h2c.414 0 .75-.336.75-.75s-.336-.75-.75-.75z"/><path d="m15.25 5v1c0 .414.336.75.75.75s.75-.336.75-.75v-1c0-.414-.336-.75-.75-.75s-.75.336-.75.75z"/><path d="m15.25 10v1c0 .414.336.75.75.75s.75-.336.75-.75v-1c0-.414-.336-.75-.75-.75s-.75.336-.75.75z"/><path d="m9.06 17.558c-.165.119-.355.192-.56.192-.741 0-1.25-.823-1.25-1.75s.509-1.75 1.25-1.75c.205 0 .395.073.56.192.336.243.805.168 1.048-.167.242-.336.167-.805-.168-1.048-.423-.306-.916-.477-1.44-.477-1.468 0-2.75 1.415-2.75 3.25s1.282 3.25 2.75 3.25c.524 0 1.017-.171 1.44-.477.335-.243.41-.712.168-1.048-.243-.335-.712-.41-1.048-.167z"/><path d="m5.5 16.75h3c.414 0 .75-.336.75-.75s-.336-.75-.75-.75h-3c-.414 0-.75.336-.75.75s.336.75.75.75z"/><path d="m16 22.75h3c2.071 0 3.75-1.679 3.75-3.75v-3c0-.414-.336-.75-.75-.75s-.75.336-.75.75v3c0 1.243-1.007 2.25-2.25 2.25h-3c-.414 0-.75.336-.75.75s.336.75.75.75z"/><path d="m8 1.25h-3c-2.071 0-3.75 1.679-3.75 3.75v3c0 .414.336.75.75.75s.75-.336.75-.75v-3c0-1.243 1.007-2.25 2.25-2.25h3c.414 0 .75-.336.75-.75s-.336-.75-.75-.75z"/></g></svg>