<svg clip-rule="evenodd" fill-rule="evenodd" height="512" stroke-linejoin="round" stroke-miterlimit="2" viewBox="0 0 24 24" width="512" xmlns="http://www.w3.org/2000/svg"><g id="Icon"><circle cx="12.725" cy="4.5" r=".75"/><circle cx="15.225" cy="4.5" r=".75"/><circle cx="17.725" cy="4.5" r=".75"/><path d="m16 14.25h3.975c1.519 0 2.75-1.231 2.75-2.75v-7.5c0-1.519-1.231-2.75-2.75-2.75h-8c-1.519 0-2.75 1.231-2.75 2.75v4c0 .414.336.75.75.75s.75-.336.75-.75v-4c0-.69.559-1.25 1.25-1.25h8c.69 0 1.25.56 1.25 1.25v7.5c0 .69-.56 1.25-1.25 1.25h-3.975c-.414 0-.75.336-.75.75s.336.75.75.75z"/><path d="m21.975 6.25h-12c-.414 0-.75.336-.75.75s.336.75.75.75h12c.414 0 .75-.336.75-.75s-.336-.75-.75-.75z"/><path d="m7.75 9.75c-3.587 0-6.5 2.913-6.5 6.5s2.913 6.5 6.5 6.5 6.5-2.913 6.5-6.5-2.913-6.5-6.5-6.5zm0 1.5c2.76 0 5 2.24 5 5s-2.24 5-5 5-5-2.24-5-5 2.24-5 5-5z"/><path d="m7.75 9.75c-.584 0-1.165.305-1.65.934-.807 1.045-1.4 3.141-1.4 5.566s.593 4.521 1.4 5.566c.485.629 1.066.934 1.65.934s1.165-.305 1.65-.934c.807-1.045 1.4-3.141 1.4-5.566s-.593-4.521-1.4-5.566c-.485-.629-1.066-.934-1.65-.934zm0 1.5c.089 0 .167.053.247.12.166.138.314.345.453.599.526.965.85 2.526.85 4.281s-.324 3.316-.85 4.281c-.139.254-.287.461-.453.599-.08.067-.158.12-.247.12s-.167-.053-.247-.12c-.166-.138-.314-.345-.453-.599-.526-.965-.85-2.526-.85-4.281s.324-3.316.85-4.281c.139-.254.287-.461.453-.599.08-.067.158-.12.247-.12z"/><path d="m13.046 13.595-10.59-.012c-.414 0-.751.336-.751.75 0 .413.335.75.749.75l10.59.012c.414 0 .751-.336.751-.75s-.335-.75-.749-.75z"/><path d="m13.046 17.428-10.59-.011c-.414-.001-.751.335-.751.749s.335.75.749.751l10.59.011c.414 0 .751-.335.751-.749s-.335-.751-.749-.751z"/><path d="m2.725 6.5v-2.5c0-.332.131-.649.366-.884.234-.234.552-.366.884-.366h2.5c.414 0 .75-.336.75-.75s-.336-.75-.75-.75h-2.5c-.73 0-1.429.29-1.945.805-.515.516-.805 1.216-.805 1.945v2.5c0 .414.336.75.75.75s.75-.336.75-.75z"/><path d="m21.225 17.5v2.5c0 .332-.132.649-.366.884-.235.234-.553.366-.884.366h-2.5c-.414 0-.75.336-.75.75s.336.75.75.75h2.5c.729 0 1.429-.29 1.944-.805.516-.516.806-1.216.806-1.945v-2.5c0-.414-.336-.75-.75-.75s-.75.336-.75.75z"/></g></svg>