<svg clip-rule="evenodd" fill-rule="evenodd" height="512" stroke-linejoin="round" stroke-miterlimit="2" viewBox="0 0 24 24" width="512" xmlns="http://www.w3.org/2000/svg"><g id="Icon"><path d="m14.75 16c0-3.725-3.025-6.75-6.75-6.75s-6.75 3.025-6.75 6.75 3.025 6.75 6.75 6.75 6.75-3.025 6.75-6.75zm-1.5 0c0 2.898-2.352 5.25-5.25 5.25s-5.25-2.352-5.25-5.25 2.352-5.25 5.25-5.25 5.25 2.352 5.25 5.25z"/><path d="m12.547 11.871c.327-.499.75-.93 1.24-1.275.769-.526 1.702-.846 2.713-.846 2.625 0 4.75 2.125 4.75 4.75s-2.125 4.75-4.75 4.75c-1.052 0-2.027-.344-2.811-.931-.332-.248-.802-.18-1.05.152s-.18.802.152 1.05c1.035.773 2.321 1.229 3.709 1.229 3.454 0 6.25-2.795 6.25-6.25s-2.796-6.25-6.25-6.25c-1.328 0-2.554.419-3.564 1.111-.002.002-.005.003-.007.005-.648.455-1.204 1.024-1.636 1.683-.227.346-.13.811.216 1.038s.811.13 1.038-.216z"/><path d="m8.288 10.155c.334-1.832 1.154-3.957 2.907-6.14.067 1.578.389 3.864 1.483 6.275.171.377.616.544.993.373s.544-.616.373-.993c-1.803-3.973-1.302-7.564-1.302-7.564.046-.32-.118-.633-.407-.777s-.637-.088-.866.141c-2.967 2.967-4.205 5.94-4.657 8.415-.074.407.196.798.603.873.407.074.798-.196.873-.603z"/><path d="m12.383 1.25c-.973 0-1.572 1.061-1.072 1.893 0 0 .709 1.181.709 1.181 1.275 2.126 3.572 3.426 6.05 3.426h2.547c.972 0 1.572-1.061 1.072-1.893 0 0-.709-1.181-.709-1.181-1.276-2.126-3.572-3.426-6.05-3.426zm.441 1.5h2.106c1.951 0 3.759 1.024 4.764 2.698l.481.802h-2.105c-1.951 0-3.76-1.024-4.764-2.698z"/></g></svg>