<svg clip-rule="evenodd" fill-rule="evenodd" height="512" stroke-linejoin="round" stroke-miterlimit="2" viewBox="0 0 24 24" width="512" xmlns="http://www.w3.org/2000/svg"><g id="Icon"><path d="m15 21.25h-6c-.414 0-.75.336-.75.75s.336.75.75.75h6c.414 0 .75-.336.75-.75s-.336-.75-.75-.75z"/><path d="m4.5 16.25h5c.414 0 .75-.336.75-.75s-.336-.75-.75-.75h-5c-.414 0-.75.336-.75.75s.336.75.75.75z"/><path d="m14.5 16.25h5c.414 0 .75-.336.75-.75s-.336-.75-.75-.75h-5c-.414 0-.75.336-.75.75s.336.75.75.75z"/><path d="m12.75 22v-3c0-.414-.336-.75-.75-.75s-.75.336-.75.75v3c0 .414.336.75.75.75s.75-.336.75-.75z"/><path d="m16.25 15.5v1.5c0 .332-.132.649-.366.884-.235.234-.552.366-.884.366h-6c-.332 0-.649-.132-.884-.366-.234-.235-.366-.552-.366-.884v-1.5c0-.414-.336-.75-.75-.75s-.75.336-.75.75v1.5c0 .729.29 1.429.805 1.945.516.515 1.216.805 1.945.805h6c.729 0 1.429-.29 1.945-.805.515-.516.805-1.216.805-1.945v-1.5c0-.414-.336-.75-.75-.75s-.75.336-.75.75z"/><path d="m9.75 8.1c0-.746-.604-1.35-1.35-1.35h-2.8c-.746 0-1.35.604-1.35 1.35v7.4c0 .414.336.75.75.75h4c.414 0 .75-.336.75-.75zm-4 .15h2.5v6.5h-2.5z"/><path d="m19.75 8.1c0-.746-.604-1.35-1.35-1.35h-2.8c-.746 0-1.35.604-1.35 1.35v7.4c0 .414.336.75.75.75h4c.414 0 .75-.336.75-.75zm-4 .15h2.5v6.5h-2.5z"/><path d="m7.75 7.5v-1.5c0-.414-.336-.75-.75-.75s-.75.336-.75.75v1.5c0 .414.336.75.75.75s.75-.336.75-.75z"/><path d="m7.382 1.355c-.235-.14-.529-.14-.764 0 0 0-1.868 1.102-1.868 3.312 0 1.124.985 2.083 2.25 2.083s2.25-.959 2.25-2.083c0-2.21-1.868-3.312-1.868-3.312zm-.382 1.598c.329.321.75.892.75 1.714 0 .348-.358.583-.75.583s-.75-.235-.75-.583c0-.822.421-1.393.75-1.714z"/><path d="m17.382 1.355c-.235-.14-.529-.14-.764 0 0 0-1.868 1.102-1.868 3.312 0 1.124.985 2.083 2.25 2.083s2.25-.959 2.25-2.083c0-2.21-1.868-3.312-1.868-3.312zm-.382 1.598c.329.321.75.892.75 1.714 0 .348-.358.583-.75.583s-.75-.235-.75-.583c0-.822.421-1.393.75-1.714z"/></g></svg>