<svg clip-rule="evenodd" fill-rule="evenodd" stroke-linejoin="round" stroke-miterlimit="1.414" viewBox="0 0 32 32" xmlns="http://www.w3.org/2000/svg" xmlns:serif="http://www.serif.com/"><path id="injury-foul-tratment-rest" d="m0 0h32v32h-32z" fill="none"/><path d="m8.562 15.997c-1.297-1.293-2.598-2.583-3.885-3.886-1.068-1.11-1.121-3.021 0-4.186 1.112-1.126 2.155-2.314 3.365-3.353.554-.475 1.206-.727 1.988-.722.773.014 1.527.328 2.082.876l3.86 3.86c1.306-1.297 2.613-2.592 3.923-3.885.574-.552 1.274-.856 2.128-.851.761.014 1.503.318 2.057.851 1.082 1.068 2.157 2.143 3.225 3.224 1.068 1.11 1.121 3.021 0 4.186-5.041 5.105-10.114 10.177-15.218 15.218-1.111 1.069-3.021 1.121-4.186 0-1.081-1.068-2.156-2.143-3.224-3.225-1.073-1.115-1.104-3.039 0-4.185 1.293-1.31 2.588-2.617 3.885-3.922zm16.522 2.061c.245.02.472.122.651.291.779.779 1.718 1.484 2.143 2.4.506 1.091.277 2.471-.573 3.355-1.068 1.082-2.143 2.157-3.225 3.225-1.119 1.077-3.052 1.119-4.21-.025l-1.544-1.544c-.366-.387-.304-.533-.291-.762.041-.722 1.044-1.243 1.664-.69.014.013.027.026.041.039.52.52 1.03 1.049 1.56 1.559.371.349 1.003.35 1.375 0 1.09-1.048 2.159-2.118 3.207-3.207.356-.378.348-1.024-.02-1.396l-1.54-1.541c-.539-.57-.251-1.679.706-1.706.019.001.038.001.056.002zm-14.655-1.16c-1.454 1.465-2.899 2.939-4.33 4.426-.348.371-.35 1.003 0 1.375 1.049 1.09 2.118 2.159 3.207 3.207.371.349 1.001.352 1.376 0 5.162-4.969 10.231-10.038 15.2-15.2.349-.371.352-1.001 0-1.376-1.048-1.089-2.118-2.158-3.207-3.207-.188-.176-.443-.276-.7-.274-.254.004-.502.107-.685.283-1.531 1.512-3.065 3.021-4.597 4.533-.056.073-.121.138-.195.191-1.921 1.897-3.838 3.797-5.741 5.712-.084.135-.195.25-.328.33zm1.592.117c.245.01.478.106.659.272.709.69 1.478 1.331 2.093 2.102.581.729-.454 2.282-1.468 1.35-.709-.69-1.479-1.331-2.093-2.102-.462-.579-.095-1.635.809-1.622zm5.997-5.997c.245.01.478.107.658.273.683.663 1.346 1.345 2.019 2.018.673.692-.29 2.447-1.393 1.433-.682-.663-1.346-1.345-2.019-2.018-.553-.569-.203-1.719.735-1.706zm-3.461-1.024c-1.285-1.297-2.56-2.604-3.875-3.871-.371-.348-1.001-.352-1.376 0-1.089 1.049-2.158 2.118-3.207 3.207-.355.379-.347 1.024.021 1.397l3.852 3.853c1.526-1.532 3.054-3.06 4.585-4.586z" fill-rule="nonzero"/></svg>