<svg id="svg7" height="512" viewBox="0 0 32 32" width="512" xmlns="http://www.w3.org/2000/svg" xmlns:dc="http://purl.org/dc/elements/1.1/" xmlns:cc="http://creativecommons.org/ns#" xmlns:rdf="http://www.w3.org/1999/02/22-rdf-syntax-ns#" xmlns:svg="http://www.w3.org/2000/svg" xmlns:sodipodi="http://sodipodi.sourceforge.net/DTD/sodipodi-0.dtd" xmlns:inkscape="http://www.inkscape.org/namespaces/inkscape" sodipodi:docname="brush, art, creativity.svg" inkscape:version="0.92.4 (5da689c313, 2019-01-14)"><g id="brush_art_creativity" data-name="brush, art, creativity"><path id="path4" d="m27.98 3.999c-.963224-.9120447-2.471376-.9120447-3.4346 0l-14.8054 14.8062c-1.3316216.474598-2.3806121 1.520763-2.8588 2.8511-.5314403 1.401945-1.6122429 2.526129-2.9922 3.1123-.7010467.28271-.8470382 1.211065-.2666 1.6953 1.5926205 1.388486 3.6166307 2.183109 5.7285 2.249.620085.0031 1.237177-.08612 1.831-.2647 1.968852-.641407 3.468122-2.252249 3.9668-4.262l3.0137-3.8757c.264152-.343439.27372-.818912.0236-1.1727-.498758-1.36732-1.49484-2.496241-2.7894-3.1614l10.5614-10.5623c.170415-.1620827.437985-.1620827.6084 0 .207752.2083589.228638.5385216.0488.7714l-7.5634 9.7256c-.759357 1.006941.761384 2.169942 1.5782 1.2289l7.5644-9.7265c.797396-1.0301242.70559-2.4922122-.2144-3.4145zm-17.3823 22.5371c-1.5194917.354422-3.1175905.08807-4.44-.74 1.0903555-.848121 1.9505964-1.956154 2.502-3.2227.6015-1.1679.93-1.7373 1.7832-1.8935h.001c.877802-.23198 1.813066.0096 2.4687.6377.491245.582475.639428 1.380611.39 2.1006-.284836 1.445478-1.314097 2.631892-2.7049 3.1179zm5.6015-6.9592-1.1333 1.4575c-.16391-.387208-.39025-.744894-.67-1.0588-.498085-.545789-1.136128-.944752-1.8449-1.1536l1.306-1.3061c1.059815.283409 1.926278 1.045846 2.3422 2.061z" inkscape:connector-curvature="0" sodipodi:nodetypes="ccccccccccccccccccccccccccccccccc"/></g></svg>