<svg height="512" viewBox="0 0 32 32" width="512" xmlns="http://www.w3.org/2000/svg"><g id="digg_media_social_news" data-name="digg, media, social, news"><path d="m8 8a1 1 0 0 0 -1 1v3h-3a1 1 0 0 0 -1 1v7a1 1 0 0 0 1 1h4a1 1 0 0 0 0-2h-3v-5h2v2a1 1 0 0 0 2 0v-7a1 1 0 0 0 -1-1z"/><path d="m20 12h-4a1 1 0 0 0 -1 1v7a1 1 0 0 0 1 1h3v1h-3a1 1 0 0 0 0 2h4a1 1 0 0 0 1-1v-10a1 1 0 0 0 -1-1zm-1 7h-2v-5h2z"/><path d="m28 12h-4a1 1 0 0 0 -1 1v7a1 1 0 0 0 1 1h3v1h-3a1 1 0 0 0 0 2h4a1 1 0 0 0 1-1v-10a1 1 0 0 0 -1-1zm-1 7h-2v-5h2z"/><path d="m12 12a1 1 0 0 0 -1 1v7a1 1 0 0 0 2 0v-7a1 1 0 0 0 -1-1z"/><circle cx="12" cy="10" r="1"/></g></svg>