<svg clip-rule="evenodd" fill-rule="evenodd" height="512" stroke-linejoin="round" stroke-miterlimit="2" viewBox="0 0 24 24" width="512" xmlns="http://www.w3.org/2000/svg"><g id="Icon"><path d="m21.177 16.339 1.555-7c.049-.222-.005-.455-.147-.632s-.358-.281-.585-.281h-5c-.148 0-.293.044-.416.126l-2.811 1.874h-11.773c-.414 0-.75.336-.75.75v5c0 .414.336.75.75.75s.75-.336.75-.75v-4.25h11.25c.148 0 .293-.044.416-.126l2.811-1.874h3.838s-1.353 6.088-1.353 6.088c-.089.404.166.805.57.894.404.09.805-.165.895-.569z"/><path d="m14.75 11.176v-4.75h5v2.75c0 .414.336.75.75.75s.75-.336.75-.75v-3.5c0-.414-.336-.75-.75-.75h-6.5c-.414 0-.75.336-.75.75v5.5c0 .414.336.75.75.75s.75-.336.75-.75z"/><path d="m20.25 2.176c0-.414-.336-.75-.75-.75h-4.5c-.414 0-.75.336-.75.75v3.5c0 .414.336.75.75.75h4.5c.414 0 .75-.336.75-.75zm-1.5.75v2h-3v-2z"/><path d="m7.75 7.176c0-.414-.336-.75-.75-.75h-4c-.414 0-.75.336-.75.75v4c0 .414.336.75.75.75h4c.414 0 .75-.336.75-.75zm-1.5.75v2.5h-2.5v-2.5z"/><path d="m7.75 3.176c0-.414-.336-.75-.75-.75h-4c-.414 0-.75.336-.75.75v4c0 .414.336.75.75.75h4c.414 0 .75-.336.75-.75zm-1.5.75v2.5h-2.5v-2.5z"/><path d="m11.75 7.176c0-.414-.336-.75-.75-.75h-4c-.414 0-.75.336-.75.75v4c0 .414.336.75.75.75h4c.414 0 .75-.336.75-.75zm-1.5.75v2.5h-2.5v-2.5z"/><path d="m11.75 3.176c0-.414-.336-.75-.75-.75h-4c-.414 0-.75.336-.75.75v4c0 .414.336.75.75.75h4c.414 0 .75-.336.75-.75zm-1.5.75v2.5h-2.5v-2.5z"/><path d="m3.237 19.671s.75-.25 1.501-.5c.819-.273 1.705-.273 2.524 0 .001 0 .001 0 .001.001 1.128.375 2.346.375 3.474 0 0-.001 0-.001.001-.001.819-.273 1.705-.273 2.524 0 .001 0 .001 0 .001.001 1.128.375 2.346.375 3.474 0 0-.001 0-.001.001-.001.819-.273 1.705-.273 2.524 0 .751.25 1.501.5 1.501.5.393.131.818-.081.949-.474.13-.393-.082-.818-.475-.949 0 0-.75-.25-1.5-.5-1.128-.376-2.346-.376-3.474 0 0 0 0 0-.001.001-.819.273-1.705.273-2.524 0-.001-.001-.001-.001-.001-.001-1.128-.376-2.346-.376-3.474 0 0 0 0 0-.001.001-.819.273-1.705.273-2.524 0-.001-.001-.001-.001-.001-.001-1.128-.376-2.346-.376-3.474 0-.75.25-1.5.5-1.5.5-.393.131-.605.556-.475.949.131.393.556.605.949.474z"/><path d="m5.877 22.2s.945.157 1.775.296c.925.154 1.874.079 2.763-.217.08-.027.16-.054.241-.081.872-.29 1.816-.29 2.688 0 .081.027.161.054.241.081.889.296 1.838.371 2.763.217.83-.139 1.775-.296 1.775-.296.409-.068.685-.455.617-.863-.068-.409-.455-.685-.863-.617 0 0-.946.158-1.775.296-.684.114-1.385.059-2.043-.16-.079-.027-.16-.054-.241-.081-1.18-.393-2.456-.393-3.636 0l-.241.081c-.658.219-1.359.274-2.043.16-.829-.138-1.775-.296-1.775-.296-.408-.068-.795.208-.863.617-.068.408.208.795.617.863z"/></g></svg>