<svg clip-rule="evenodd" fill-rule="evenodd" height="512" stroke-linejoin="round" stroke-miterlimit="2" viewBox="0 0 24 24" width="512" xmlns="http://www.w3.org/2000/svg"><g id="Icon"><path d="m4.376 15.315c-.972-.562-1.626-1.613-1.626-2.815 0-1.794 1.456-3.25 3.25-3.25.322 0 .633.047.927.134.374.111.77-.083.912-.446.727-1.865 2.541-3.188 4.661-3.188 1.876 0 3.512 1.035 4.367 2.565.187.334.596.474.949.324.21-.09.441-.139.684-.139.966 0 1.75.784 1.75 1.75 0 .217-.039.425-.112.616-.116.308-.018.655.241.857.53.412.871 1.055.871 1.777 0 .666-.29 1.264-.75 1.677-.309.276-.335.75-.059 1.059.276.308.751.334 1.059.058.767-.687 1.25-1.684 1.25-2.794 0-1.016-.405-1.939-1.063-2.615.041-.204.063-.417.063-.635 0-1.794-1.456-3.25-3.25-3.25-.221 0-.438.022-.647.065-1.172-1.7-3.133-2.815-5.353-2.815-2.527 0-4.718 1.445-5.794 3.553-.23-.035-.466-.053-.706-.053-2.622 0-4.75 2.128-4.75 4.75 0 1.756.955 3.292 2.374 4.113.358.208.818.085 1.025-.273s.085-.817-.273-1.025z"/><path d="m9 13.75h-1c-.729 0-1.429.29-1.945.805-.515.516-.805 1.216-.805 1.945v.5c0 .729.29 1.429.805 1.945.516.515 1.216.805 1.945.805h1c.414 0 .75-.336.75-.75s-.336-.75-.75-.75h-1c-.332 0-.649-.132-.884-.366-.234-.235-.366-.552-.366-.884 0-.166 0-.334 0-.5 0-.332.132-.649.366-.884.235-.234.552-.366.884-.366h1c.414 0 .75-.336.75-.75s-.336-.75-.75-.75z"/><path d="m14.75 17.502v-1.502c0-1.243-1.007-2.25-2.25-2.25-.001 0-.001 0-.002 0-.596 0-1.168.237-1.59.658-.421.422-.658.994-.658 1.59v1.502c0 1.243 1.007 2.25 2.25 2.25h.002c.596 0 1.168-.237 1.59-.658.421-.422.658-.994.658-1.59zm-1.5-1.502v1.502c0 .198-.079.389-.219.529s-.331.219-.529.219c-.001 0-.001 0-.002 0-.414 0-.75-.336-.75-.75v-1.502c0-.198.079-.389.219-.529s.331-.219.529-.219h.002c.414 0 .75.336.75.75z"/><path d="m15.968 19.746.032.004h2c.414 0 .75-.336.75-.75s-.336-.75-.75-.75h-.823l.606-.303c.593-.296.967-.902.967-1.565 0-.033 0-.067 0-.101 0-.539-.248-1.048-.673-1.38-.425-.331-.979-.449-1.501-.318l-.758.189c-.401.101-.646.508-.546.91.101.401.508.646.91.546l.757-.19c.075-.018.154-.002.215.046.061.047.096.12.096.197v.101c0 .095-.053.181-.138.224l-.895.447c-.593.296-.967.902-.967 1.565v.377c0 .612.574.731.718.751z"/></g></svg>