<svg clip-rule="evenodd" fill-rule="evenodd" stroke-linejoin="round" stroke-miterlimit="1.414" viewBox="0 0 32 32" xmlns="http://www.w3.org/2000/svg" xmlns:serif="http://www.serif.com/"><path id="syrup-drug-health-medicine" d="m0 0h32v32h-32z" fill="none"/><path d="m12.997 9h-1c-.183-.005-.233-.022-.33-.056-.353-.123-.622-.457-.664-.832-.005-.05-.005-.062-.006-.112v-4c.005-.182.022-.233.056-.33.123-.353.456-.621.832-.664.049-.005.062-.005.112-.006h8c.019.001.037.001.056.002.182.015.231.035.327.074.327.136.57.456.611.812.005.05.004.062.006.112v4c-.005.182-.022.233-.056.33-.124.353-.457.621-.832.664-.05.005-.062.005-.112.006h-1.018c-.01.776.03 1.527.409 2.14.268.434.671.766 1.129 1.003l.072.038c1.432.789 2.386 2.36 2.408 4.014.014 3.269 0 6.539 0 9.808-.01 1.569-1.349 2.987-2.997 2.997h-6.003c-.078-.003-.097-.002-.174-.015-.778-.137-1.126-1.389-.326-1.851.138-.08.215-.122.5-.134 2.004 0 4.009.013 6.013 0 .516-.01.977-.45.987-.987.02-3.267.014-6.533 0-9.8-.013-.99-.623-1.892-1.52-2.356-.036-.019-.036-.019-.072-.038-1.449-.798-2.401-2.388-2.408-4.053v-.766h-2v.766c-.008 1.713-1.029 3.341-2.594 4.15-.846.446-1.402 1.349-1.406 2.322v11.762c-.013.284-.054.362-.134.5-.302.523-1.123.657-1.573.207-.145-.144-.242-.332-.278-.533-.013-.077-.012-.097-.015-.174v-11.766c.007-1.713 1.028-3.341 2.594-4.15.845-.446 1.402-1.349 1.406-2.322zm2 10v-1c.003-.163.018-.216.05-.313.136-.413.553-.703 1.009-.685.515.041.93.437.941.998v1h1c.013 0 .026.001.04.001.85.051 1.325 1.419.419 1.887-.106.055-.222.091-.34.105-.04.005-.079.006-.119.007h-1v1c-.013.655-.752 1.174-1.369.929-.369-.146-.623-.527-.631-.929v-1h-1c-.655-.013-1.174-.752-.93-1.369.147-.369.528-.623.93-.631zm-2-14v2h6v-2c-2 0-4 0-6 0z" fill-rule="nonzero"/></svg>