<svg clip-rule="evenodd" fill-rule="evenodd" height="512" stroke-linejoin="round" stroke-miterlimit="2" viewBox="0 0 24 24" width="512" xmlns="http://www.w3.org/2000/svg"><g id="Icon"><path d="m9 16.75h11c.729 0 1.429-.29 1.945-.805.515-.516.805-1.216.805-1.945 0-1.986 0-5.014 0-7 0-.729-.29-1.429-.805-1.945-.516-.515-1.216-.805-1.945-.805-2.871 0-8.129 0-11 0-.729 0-1.429.29-1.945.805-.515.516-.805 1.216-.805 1.945v7c0 .729.29 1.429.805 1.945.516.515 1.216.805 1.945.805zm0-1.5c-.332 0-.649-.132-.884-.366-.234-.235-.366-.552-.366-.884v-7c0-.332.132-.649.366-.884.235-.234.552-.366.884-.366h11c.332 0 .649.132.884.366.234.235.366.552.366.884v7c0 .332-.132.649-.366.884-.235.234-.552.366-.884.366z"/><path d="m11.987 19.75h5.026c.414 0 .75-.336.75-.75s-.336-.75-.75-.75h-5.026c-.414 0-.75.336-.75.75s.336.75.75.75z"/><path d="m15.25 19.003.013-3c.002-.414-.332-.751-.746-.753s-.752.333-.754.747l-.013 3c-.002.414.333.751.747.753s.751-.333.753-.747z"/><path d="m8.25 16v2c0 .138-.112.25-.25.25h-5c-.066 0-.13-.026-.177-.073s-.073-.111-.073-.177v-10c0-.066.026-.13.073-.177s.111-.073.177-.073h4c.414 0 .75-.336.75-.75s-.336-.75-.75-.75c0 0-2.541 0-4 0-.464 0-.909.184-1.237.513-.329.328-.513.773-.513 1.237v10c0 .464.184.909.513 1.237.328.329.773.513 1.237.513h5c.966 0 1.75-.783 1.75-1.75v-2c0-.414-.336-.75-.75-.75s-.75.336-.75.75z"/></g></svg>