<svg clip-rule="evenodd" fill-rule="evenodd" height="512" stroke-linejoin="round" stroke-miterlimit="2" viewBox="0 0 24 24" width="512" xmlns="http://www.w3.org/2000/svg"><g id="Icon"><path d="m4 5.25c-.729 0-1.429.29-1.945.805-.515.516-.805 1.216-.805 1.945v11c0 .729.29 1.429.805 1.945.516.515 1.216.805 1.945.805h16c.729 0 1.429-.29 1.945-.805.515-.516.805-1.216.805-1.945 0-2.871 0-8.129 0-11 0-.729-.29-1.429-.805-1.945-.516-.515-1.216-.805-1.945-.805zm0 1.5h16c.332 0 .649.132.884.366.234.235.366.552.366.884v11c0 .332-.132.649-.366.884-.235.234-.552.366-.884.366h-16c-.332 0-.649-.132-.884-.366-.234-.235-.366-.552-.366-.884v-11c0-.332.132-.649.366-.884.235-.234.552-.366.884-.366z"/><path d="m7.25 6s0-.75 0-1.5c0-.199.079-.39.22-.53.14-.141.331-.22.53-.22h8c.199 0 .39.079.53.22.141.14.22.331.22.53v1.5c0 .414.336.75.75.75s.75-.336.75-.75c0 0 0-.75 0-1.5 0-.597-.237-1.169-.659-1.591s-.994-.659-1.591-.659c-2.101 0-5.899 0-8 0-.597 0-1.169.237-1.591.659s-.659.994-.659 1.591v1.5c0 .414.336.75.75.75s.75-.336.75-.75z"/><path d="m2.001 7.232s.808 2.488 1.337 4.117c.368 1.134 1.424 1.901 2.615 1.901h12.094c1.191 0 2.247-.767 2.615-1.901.529-1.629 1.337-4.117 1.337-4.117.128-.394-.088-.818-.482-.945-.393-.128-.817.088-.945.481 0 0-.808 2.489-1.337 4.118-.167.515-.647.864-1.188.864h-12.094c-.541 0-1.021-.349-1.188-.864-.529-1.629-1.337-4.118-1.337-4.118-.128-.393-.552-.609-.945-.481-.394.127-.61.551-.482.945z"/><path d="m15.25 11.5v2c0 .414.336.75.75.75s.75-.336.75-.75v-2c0-.414-.336-.75-.75-.75s-.75.336-.75.75z"/><path d="m7.25 11.5v2c0 .414.336.75.75.75s.75-.336.75-.75v-2c0-.414-.336-.75-.75-.75s-.75.336-.75.75z"/></g></svg>