<svg height="512" viewBox="0 0 32 32" width="512" xmlns="http://www.w3.org/2000/svg"><path d="m12.2969 21.0254.62.6206a1 1 0 1 0 1.4141-1.4141l-.62-.6206c-1.3165-1.3174-2.586-2.5874-2.661-2.6613a7 7 0 1 1 9.9 0l-5.657 5.6569a1 1 0 1 0 1.414 1.4141l5.6573-5.6567a9 9 0 1 0 -12.7217.0073c.083.0805 1.3447 1.3432 2.6543 2.6538z"/><path d="m28.97 27.7573-2-8a1 1 0 0 0 -.97-.7573h-2a1 1 0 0 0 0 2h1.2188l1.5 6h-21.4375l1.5-6h1.2187a1 1 0 0 0 0-2h-2a1 1 0 0 0 -.97.7573l-2 8a1 1 0 0 0 .97 1.2427h24a1 1 0 0 0 .97-1.2427z"/></svg>