<svg clip-rule="evenodd" fill-rule="evenodd" height="512" stroke-linejoin="round" stroke-miterlimit="2" viewBox="0 0 24 24" width="512" xmlns="http://www.w3.org/2000/svg"><g id="Icon"><path d="m16.25 18.75c-1.105 0-2 .895-2 2v.002c0 .53.211 1.038.585 1.413.375.375.883.585 1.413.585h4.502c1.105 0 2-.895 2-2v-.002c0-.53-.211-1.038-.585-1.413-.375-.375-.883-.585-1.413-.585zm0 1.5h4.502c.132 0 .259.052.352.146.093.093.146.22.146.352v.002c0 .276-.224.5-.5.5h-4.502c-.132 0-.259-.052-.352-.146-.094-.093-.146-.22-.146-.352v-.002c0-.276.224-.5.5-.5z"/><path d="m16.25 16.25c-1.105 0-2 .895-2 2v.002c0 .53.211 1.038.585 1.413.375.375.883.585 1.413.585h4.502c1.105 0 2-.895 2-2v-.002c0-.53-.211-1.038-.585-1.413-.375-.375-.883-.585-1.413-.585zm0 1.5h4.502c.132 0 .259.052.352.146.093.093.146.22.146.352v.002c0 .276-.224.5-.5.5h-4.502c-.132 0-.259-.052-.352-.146-.094-.093-.146-.22-.146-.352v-.002c0-.276.224-.5.5-.5z"/><path d="m16.25 13.75c-1.105 0-2 .895-2 2v.002c0 .53.211 1.038.585 1.413.375.375.883.585 1.413.585h4.502c1.105 0 2-.895 2-2v-.002c0-.53-.211-1.038-.585-1.413-.375-.375-.883-.585-1.413-.585zm0 1.5h4.502c.132 0 .259.052.352.146.093.093.146.22.146.352v.002c0 .276-.224.5-.5.5h-4.502c-.132 0-.259-.052-.352-.146-.094-.093-.146-.22-.146-.352v-.002c0-.276.224-.5.5-.5z"/><path d="m16.25 11.25c-1.105 0-2 .895-2 2v.002c0 .53.211 1.038.585 1.413.375.375.883.585 1.413.585h4.502c1.105 0 2-.895 2-2v-.002c0-.53-.211-1.038-.585-1.413-.375-.375-.883-.585-1.413-.585zm0 1.5h4.502c.132 0 .259.052.352.146.093.093.146.22.146.352v.002c0 .276-.224.5-.5.5h-4.502c-.132 0-.259-.052-.352-.146-.094-.093-.146-.22-.146-.352v-.002c0-.276.224-.5.5-.5z"/><path d="m12.5 6.75h-6c-.967 0-1.75.784-1.75 1.75v.5c0 .966.783 1.75 1.75 1.75h6c.966 0 1.75-.784 1.75-1.75 0-.165 0-.335 0-.5 0-.966-.784-1.75-1.75-1.75zm-6 1.5h6c.138 0 .25.112.25.25v.5c0 .138-.112.25-.25.25h-6c-.138 0-.25-.112-.25-.25v-.5c0-.138.112-.25.25-.25z"/><path d="m10.064 17.071c0 .086-.034.167-.094.228-.06.06-.142.094-.227.094h-.692s-.453-.244-.453-.244c-.364-.196-.819-.06-1.016.305-.196.364-.059.82.305 1.016l.619.333c.109.059.232.09.356.09h.881c.483 0 .946-.192 1.288-.534.341-.341.533-.804.533-1.288 0-.483-.192-.946-.533-1.288-.342-.341-.805-.533-1.288-.533h-.429c-.085 0-.167-.034-.227-.094-.061-.06-.094-.142-.094-.227 0-.086.033-.167.094-.228.06-.06.142-.094.227-.094h.692s.452.244.452.244c.365.196.82.06 1.016-.305.197-.364.06-.82-.304-1.016l-.619-.333c-.11-.059-.232-.09-.356-.09h-.881c-.483 0-.946.192-1.288.534-.341.341-.533.804-.533 1.288 0 .483.192.946.533 1.288.342.341.805.533 1.288.533h.429c.085 0 .167.034.227.094s.094.142.094.227z"/><path d="m10.278 13.857v-.857c0-.414-.336-.75-.75-.75s-.75.336-.75.75v.857c0 .414.336.75.75.75s.75-.336.75-.75z"/><path d="m10.278 19v-.857c0-.414-.336-.75-.75-.75s-.75.336-.75.75v.857c0 .414.336.75.75.75s.75-.336.75-.75z"/><path d="m14.656 20.405c-1.284.663-3.121.845-5.156.845-1.945 0-3.71-.168-4.986-.762-1.088-.506-1.764-1.356-1.764-2.738 0-2.483 1.103-5.762 4.069-6.999.002-.001 5.36-.001 5.36-.001.949.396 1.706 1.003 2.297 1.725.262.32.735.368 1.056.105.32-.262.367-.735.105-1.055-.773-.945-1.776-1.731-3.04-2.224-.087-.034-.18-.051-.273-.051h-5.648c-.093 0-.186.017-.273.051-3.694 1.44-5.153 5.411-5.153 8.449 0 2.067 1.004 3.342 2.631 4.099 1.44.669 3.425.901 5.619.901 2.31 0 4.387-.259 5.844-1.012.368-.19.512-.643.322-1.011-.19-.367-.643-.512-1.01-.322z"/><path d="m6.519 2.464c-.682-.137-1.384.125-1.835.707-.375.486-.36 1.146-.36 1.74 0 .778.369 1.484.841 2.04.628.739 1.414 1.197 1.414 1.197.114.067.245.102.378.102h5.086c.133 0 .264-.035.378-.102 0 0 .786-.458 1.414-1.197.472-.556.841-1.262.841-2.04 0-.594.015-1.254-.36-1.74-.451-.582-1.153-.844-1.835-.707-.068.004-.708.045-.782.061-.124.027-.248-.025-.337-.123l-.483-.531c-.762-.838-1.996-.838-2.758 0l-.483.531c-.089.098-.213.15-.337.123-.074-.016-.714-.057-.782-.061zm5.463 1.534c.078-.005.704-.044.785-.062.136-.03.272.036.362.153.065.084.052.195.054.302.004.174-.007.352-.007.52 0 .413-.234.773-.485 1.069-.307.362-.665.632-.867.77h-.001-4.646c-.203-.139-.561-.408-.868-.77-.251-.296-.485-.656-.485-1.069 0-.168-.011-.346-.007-.52.002-.107-.011-.218.054-.302.09-.117.226-.183.362-.153.081.018.707.057.785.062.629.124 1.277-.089 1.73-.587l.483-.531c.149-.164.389-.164.538 0l.483.531c.453.498 1.101.711 1.73.587z"/></g></svg>