<svg clip-rule="evenodd" fill-rule="evenodd" height="512" stroke-linejoin="round" stroke-miterlimit="2" viewBox="0 0 134 134" width="512" xmlns="http://www.w3.org/2000/svg"><path d="m29.167 58.333v-3.602c0-1.195.513-2.332 1.408-3.123 6.823-6.026 24.336-21.495 33.333-29.441 1.576-1.392 3.941-1.392 5.517 0 8.997 7.946 26.51 23.415 33.333 29.441.896.791 1.409 1.928 1.409 3.123v53.602c0 2.302-1.866 4.167-4.167 4.167-7.271 0-16.667 0-16.667 0-2.299 0-4.166 1.867-4.166 4.167 0 2.299 1.867 4.166 4.166 4.166h16.667c6.904 0 12.5-5.596 12.5-12.5 0-14.377 0-43.292 0-53.602 0-3.584-1.539-6.996-4.225-9.369-6.823-6.026-24.336-21.494-33.333-29.441-4.727-4.175-11.823-4.175-16.55 0-8.997 7.946-26.51 23.415-33.334 29.441-2.686 2.373-4.225 5.785-4.225 9.369v3.602c0 6.248 8.334 6.248 8.334 0zm10.774 37.5-17.887-17.887c-1.626-1.626-1.626-4.266 0-5.892s4.266-1.626 5.892 0l17.887 17.887 17.887-17.887c1.626-1.626 4.267-1.626 5.893 0s1.626 4.266 0 5.892l-17.887 17.887 17.887 17.887c1.626 1.626 1.626 4.267 0 5.893s-4.267 1.626-5.893 0l-17.887-17.887-17.887 17.887c-1.626 1.626-4.266 1.626-5.892 0s-1.626-4.267 0-5.893z"/></svg>