<svg clip-rule="evenodd" fill-rule="evenodd" height="512" stroke-linejoin="round" stroke-miterlimit="2" viewBox="0 0 24 24" width="512" xmlns="http://www.w3.org/2000/svg"><g id="Icon"><path d="m20.306 16.217c-.749 1.836-.732 4.223-.003 6.06.153.384.589.573.974.42.384-.153.573-.589.42-.974-.594-1.497-.613-3.443-.003-4.94.157-.383-.028-.821-.411-.977-.383-.157-.821.028-.977.411z"/><path d="m2.312 11.298c.644 1.488.624 3.423-.003 4.911-.161.381.018.821.4.982.381.161.821-.018.982-.4.778-1.845.797-4.244-.003-6.089-.164-.38-.606-.555-.986-.39-.38.164-.555.606-.39.986z"/><path d="m22 21.25h-14.75c-.53 0-1.039-.211-1.414-.586s-.586-.884-.586-1.414c0-.001 0-.001 0-.002 0-1.103.895-1.998 1.998-1.998h14.752c.414 0 .75-.336.75-.75s-.336-.75-.75-.75c0 0-9.826 0-14.752 0-1.932 0-3.498 1.566-3.498 3.498v.002c0 .928.369 1.819 1.025 2.475.657.656 1.547 1.025 2.475 1.025h14.75c.414 0 .75-.336.75-.75s-.336-.75-.75-.75z"/><path d="m2 17.25h14.752c1.932 0 3.498-1.566 3.498-3.498 0-.001 0-.003 0-.004 0-1.932-1.566-3.498-3.498-3.498h-14.752c-.414 0-.75.336-.75.75s.336.75.75.75h14.752c1.103 0 1.998.895 1.998 1.998v.004c0 1.103-.895 1.998-1.998 1.998h-14.752c-.414 0-.75.336-.75.75s.336.75.75.75z"/><path d="m11.578 3.171c-.292-.139-.599-.227-.911-.227-1.886 0-3.417 1.531-3.417 3.417 0 1.157.655 3.247 1.616 4.396.53.634 1.163.993 1.801.993.313 0 .621-.088.915-.228.266-.099.562-.1.832-.002.3.142.607.23.919.23.638 0 1.271-.359 1.801-.993.961-1.149 1.616-3.239 1.616-4.396 0-1.886-1.531-3.417-3.417-3.417-.313 0-.621.089-.915.229-.266.098-.562.1-.831.001zm-.629 1.362c.018.009.036.017.055.024.64.254 1.352.253 1.992 0 .018-.007.036-.015.053-.023.093-.046.185-.09.284-.09 1.058 0 1.917.859 1.917 1.917 0 .781-.392 2.099-.977 3.031-.173.275-.362.516-.569.684-.119.097-.238.174-.371.174-.098 0-.19-.044-.282-.089-.018-.009-.036-.017-.055-.024-.64-.253-1.352-.253-1.992.001-.018.007-.036.014-.053.023-.093.045-.185.089-.284.089-.133 0-.252-.077-.371-.174-.207-.168-.396-.409-.569-.684-.585-.932-.977-2.25-.977-3.031 0-1.058.859-1.917 1.917-1.917.098 0 .19.044.282.089z"/><path d="m12.75 3.801c0-1.012-.372-1.605-.776-1.969-.654-.589-1.474-.582-1.474-.582-.414 0-.75.336-.75.75s.336.75.75.75c0 0 .26.007.47.196.172.155.28.425.28.855 0 .414.336.75.75.75s.75-.336.75-.75z"/></g></svg>