<svg clip-rule="evenodd" fill-rule="evenodd" height="512" stroke-linejoin="round" stroke-miterlimit="2" viewBox="0 0 24 24" width="512" xmlns="http://www.w3.org/2000/svg"><g id="Icon"><path d="m22.75 19.5v-13.437c0-1.559-1.238-2.813-2.75-2.813h-16c-1.512 0-2.75 1.254-2.75 2.813 0-.001 0 13.375 0 13.375 0 1.558 1.238 2.812 2.75 2.812h16c.729 0 1.429-.29 1.945-.805.515-.516.805-1.216.805-1.945zm-1.5 0c0 .332-.132.649-.366.884-.235.234-.552.366-.884.366h-16c-.696 0-1.25-.594-1.25-1.312v-13.375c0-.719.554-1.313 1.25-1.313h16c.696 0 1.25.594 1.25 1.313z"/><path d="m4.75 2.5v3c0 .414.336.75.75.75s.75-.336.75-.75v-3c0-.414-.336-.75-.75-.75s-.75.336-.75.75z"/><path d="m17.75 2.5v3c0 .414.336.75.75.75s.75-.336.75-.75v-3c0-.414-.336-.75-.75-.75s-.75.336-.75.75z"/><path d="m11.25 2.5v3c0 .414.336.75.75.75s.75-.336.75-.75v-3c0-.414-.336-.75-.75-.75s-.75.336-.75.75z"/><path d="m2 10.25h20c.414 0 .75-.336.75-.75s-.336-.75-.75-.75h-20c-.414 0-.75.336-.75.75s.336.75.75.75z"/><g fill-rule="nonzero"><path d="m6.667 12.5h.666c.368 0 .667.299.667.667v.666c0 .368-.299.667-.667.667h-.666c-.368 0-.667-.299-.667-.667v-.666c0-.368.299-.667.667-.667"/><path d="m6.667 16.5h.666c.368 0 .667.299.667.667v.666c0 .368-.299.667-.667.667h-.666c-.368 0-.667-.299-.667-.667v-.666c0-.368.299-.667.667-.667"/><path d="m11.667 12.5h.666c.368 0 .667.299.667.667v.666c0 .368-.299.667-.667.667h-.666c-.368 0-.667-.299-.667-.667v-.666c0-.368.299-.667.667-.667"/><path d="m11.667 16.5h.666c.368 0 .667.299.667.667v.666c0 .368-.299.667-.667.667h-.666c-.368 0-.667-.299-.667-.667v-.666c0-.368.299-.667.667-.667"/><path d="m16.667 12.5h.666c.368 0 .667.299.667.667v.666c0 .368-.299.667-.667.667h-.666c-.368 0-.667-.299-.667-.667v-.666c0-.368.299-.667.667-.667"/><path d="m16.667 16.5h.666c.368 0 .667.299.667.667v.666c0 .368-.299.667-.667.667h-.666c-.368 0-.667-.299-.667-.667v-.666c0-.368.299-.667.667-.667"/></g></g></svg>