<svg clip-rule="evenodd" fill-rule="evenodd" height="512" stroke-linejoin="round" stroke-miterlimit="2" viewBox="0 0 24 24" width="512" xmlns="http://www.w3.org/2000/svg"><g id="Icon"><path d="m21.75 16.5c0-.966-.783-1.75-1.75-1.75h-6c-.967 0-1.75.784-1.75 1.75v5c0 .69.56 1.25 1.25 1.25h7c.69 0 1.25-.56 1.25-1.25zm-1.5 4.75h-6.5v-4.75c0-.138.112-.25.25-.25h6c.138 0 .25.112.25.25z"/><circle cx="17" cy="18.75" r=".75"/><path d="m13.75 2c0-.414-.336-.75-.75-.75h-5.5c-.597 0-1.169.237-1.591.659s-.659.994-.659 1.591v.986c0 .703.75.764.75.764h5.5c.597 0 1.169-.237 1.591-.659s.659-.994.659-1.591zm-7 1.75v-.25c0-.199.079-.39.22-.53.14-.141.331-.22.53-.22h4.75v.25c0 .199-.079.39-.22.53-.14.141-.331.22-.53.22z"/><path d="m5.25 6.5v1.5c0 .995.395 1.948 1.098 2.652.704.703 1.657 1.098 2.652 1.098h1c.995 0 1.948-.395 2.652-1.098.703-.704 1.098-1.657 1.098-2.652v-2c0-.414-.336-.75-.75-.75s-.75.336-.75.75v2c0 .597-.237 1.169-.659 1.591s-.994.659-1.591.659h-1c-.597 0-1.169-.237-1.591-.659s-.659-.994-.659-1.591v-1.5c0-.414-.336-.75-.75-.75s-.75.336-.75.75z"/><path d="m16.75 15c0-.995-.395-1.948-1.098-2.652-.704-.703-1.657-1.098-2.652-1.098-.245 0-.475.12-.615.321 0 0-.504.73-.794 1.02-.422.422-.994.659-1.591.659h-1c-.597 0-1.169-.237-1.591-.659-.29-.29-.794-1.02-.794-1.02-.14-.201-.37-.321-.615-.321-.995 0-1.948.395-2.652 1.098-.703.704-1.098 1.657-1.098 2.652v6c0 .967.784 1.75 1.75 1.75h11c.414 0 .75-.336.75-.75s-.336-.75-.75-.75h-11c-.138 0-.25-.112-.25-.25v-6c0-.597.237-1.169.659-1.591.336-.336.766-.554 1.229-.63.21.283.506.668.71.873.704.703 1.657 1.098 2.652 1.098h1c.995 0 1.948-.395 2.652-1.098.204-.205.5-.59.71-.873.462.076.893.294 1.229.63.422.422.659.994.659 1.591 0 .414.336.75.75.75s.75-.336.75-.75z"/></g></svg>