<svg height="512" viewBox="0 0 32 32" width="512" xmlns="http://www.w3.org/2000/svg"><g id="creativity_palette_colour" data-name="creativity, palette, colour"><path d="m21.5059 11.8242c-1.2032-.6689-2.4473-1.36-2.5293-1.9619a1.0005 1.0005 0 0 0 -1.9825.2715c.2188 1.5918 1.8321 2.4883 3.54 3.4385 3.1777 1.7656 6.4629 3.5918 4.5019 9.5224-.8818 2.6651-4.1484 3.7559-6.9121 3.8877-3.8506.1856-8.7451-1.3418-10.4111-5.126-3.3467-7.5976.166-13.01 4.5684-15.541 2.5966-1.4931 4.8964-1.5654 5.3349-.96a1.157 1.157 0 0 1 .3067.95 1 1 0 0 0 1.9687.35 3.1313 3.1313 0 0 0 -.6572-2.4746c-1.24-1.7071-4.584-1.5362-7.95.4-4.92 2.8292-9.2863 9.263-5.4015 18.0823 1.9424 4.4111 7.251 6.334 11.64 6.334.2343 0 .4677-.0059.6963-.0166 4.373-.209 7.7128-2.2237 8.7158-5.2588 2.4801-7.5017-2.2796-10.1475-5.429-11.8975z"/><path d="m19.9854 24.998a3 3 0 1 0 -3-3 3.0033 3.0033 0 0 0 3 3zm0-4a1 1 0 1 1 -1 1 1.0007 1.0007 0 0 1 1-1z"/><path d="m11.9854 16.998a3 3 0 1 0 3 3 3.0033 3.0033 0 0 0 -3-3zm0 4a1 1 0 1 1 1-1 1.0006 1.0006 0 0 1 -1 1z"/><path d="m11.9854 8.998a3 3 0 1 0 3 3 3.0033 3.0033 0 0 0 -3-3zm0 4a1 1 0 1 1 1-1 1.0006 1.0006 0 0 1 -1 1z"/></g></svg>