<svg clip-rule="evenodd" fill-rule="evenodd" height="512" stroke-linejoin="round" stroke-miterlimit="2" viewBox="0 0 24 24" width="512" xmlns="http://www.w3.org/2000/svg"><g id="Icon"><path d="m20.666 8.531c-.126-.245-.377-.4-.652-.405-.275-.006-.531.141-.667.38-.339.6-1.044.995-1.847.995s-1.508-.395-1.847-.995c-.168-.296-.514-.443-.844-.356-.329.087-.559.385-.559.725 0 1.242-1.008 2.25-2.25 2.25s-2.25-1.008-2.25-2.25c0-.34-.23-.638-.559-.725-.33-.087-.676.06-.844.356-.339.6-1.044.995-1.847.995s-1.508-.395-1.847-.995c-.136-.239-.392-.386-.667-.38-.275.005-.526.16-.652.405-.693 1.339-1.084 2.859-1.084 4.469 0 5.381 4.369 9.75 9.75 9.75s9.75-4.369 9.75-9.75c0-1.61-.391-3.13-1.084-4.469zm-.889 1.712c.306.862.473 1.79.473 2.757 0 4.553-3.697 8.25-8.25 8.25s-8.25-3.697-8.25-8.25c0-.967.167-1.895.473-2.757.614.471 1.407.758 2.277.758.775 0 1.489-.228 2.069-.61.583 1.316 1.9 2.234 3.431 2.234s2.848-.918 3.431-2.234c.58.382 1.294.61 2.069.61.87 0 1.663-.287 2.277-.758z"/><path d="m20.616 8.447s-1.144-1.645-1.702-2.446c-.327-.471-.864-.751-1.437-.751-1.976 0-8.978 0-10.954 0-.573 0-1.11.28-1.437.751-.558.801-1.702 2.446-1.702 2.446-.236.34-.152.808.188 1.044.34.237.807.153 1.044-.187l1.701-2.447c.047-.067.124-.107.206-.107h10.954c.082 0 .159.04.206.107l1.701 2.447c.237.34.704.424 1.044.187.34-.236.424-.704.188-1.044z"/><path d="m15.712 8.763-1-3c-.131-.393-.556-.605-.949-.475-.393.131-.605.556-.475.949l1 3c.131.393.556.605.949.475.393-.131.605-.556.475-.949z"/><path d="m9.708 9.122 1-2.876c.136-.391-.071-.818-.462-.954s-.818.071-.954.462l-1 2.875c-.136.391.071.819.462.955s.818-.071.954-.462z"/><path d="m14.202 6.263 1.318-3.513h1.48c.414 0 .75-.336.75-.75s-.336-.75-.75-.75h-2c-.313 0-.592.194-.702.487l-1.5 4c-.146.387.051.82.439.965.387.146.82-.051.965-.439z"/></g></svg>