<svg clip-rule="evenodd" fill-rule="evenodd" height="512" stroke-linejoin="round" stroke-miterlimit="2" viewBox="0 0 24 24" width="512" xmlns="http://www.w3.org/2000/svg"><g id="Icon"><path d="m22.75 5.625v14c0 .729-.29 1.429-.805 1.945-.516.515-1.216.805-1.945.805h-16c-.729 0-1.429-.29-1.945-.805-.515-.516-.805-1.216-.805-1.945v-14c0-.729.29-1.429.805-1.945.516-.515 1.216-.805 1.945-.805h16c.729 0 1.429.29 1.945.805.515.516.805 1.216.805 1.945zm-1.5 0c0-.332-.132-.649-.366-.884-.235-.234-.552-.366-.884-.366h-16c-.332 0-.649.132-.884.366-.234.235-.366.552-.366.884v14c0 .332.132.649.366.884.235.234.552.366.884.366h16c.332 0 .649-.132.884-.366.234-.235.366-.552.366-.884z"/><path d="m10.812 11.761 1.615 3.462c.155.333.156.718.002 1.051-.154.334-.447.583-.801.682l-4.883 1.358c-.589.163-1.21-.123-1.468-.676l-.91-1.952c-.258-.553-.078-1.213.426-1.559l4.179-2.868c.303-.208.682-.272 1.037-.175.354.097.648.344.803.677zm-4.996 3.483.731 1.568 4.395-1.222-1.364-2.927z"/><path d="m7.124 17.996c-.261-.321-.211-.794.11-1.055.322-.261.794-.211 1.055.11l1.298 1.602c.261.321.212.794-.11 1.055-.321.26-.794.211-1.055-.111z"/><path d="m8.992 11.407c-.175-.375-.012-.821.363-.996s.822-.013.997.362l2.535 5.438c.175.375.013.822-.363.997-.375.175-.821.012-.996-.363z"/><path d="m15 12.875c-.414 0-.75-.336-.75-.75s.336-.75.75-.75h2.5c.414 0 .75.336.75.75s-.336.75-.75.75z"/><path d="m17.75 4.875c0 .414-.336.75-.75.75s-.75-.336-.75-.75v-2.5c0-.414.336-.75.75-.75s.75.336.75.75z"/><path d="m7.75 4.875c0 .414-.336.75-.75.75s-.75-.336-.75-.75v-2.5c0-.414.336-.75.75-.75s.75.336.75.75z"/><path d="m2 8.875c-.414 0-.75-.336-.75-.75s.336-.75.75-.75h20c.414 0 .75.336.75.75s-.336.75-.75.75z"/><path d="m15 15.875c-.414 0-.75-.336-.75-.75s.336-.75.75-.75h4c.414 0 .75.336.75.75s-.336.75-.75.75z"/></g></svg>