<svg clip-rule="evenodd" fill-rule="evenodd" height="512" stroke-linejoin="round" stroke-miterlimit="2" viewBox="0 0 24 24" width="512" xmlns="http://www.w3.org/2000/svg"><g id="Icon"><path d="m18.25 11v6c0 .414-.336.75-.75.75h-11c-.414 0-.75-.336-.75-.75v-6c0-3.176 2.574-5.75 5.75-5.75h1c3.176 0 5.75 2.574 5.75 5.75zm-1.5 0c0-2.347-1.903-4.25-4.25-4.25h-1c-2.347 0-4.25 1.903-4.25 4.25v5.25h9.5z"/><path d="m19.25 18v.5c0 .966-.783 1.75-1.75 1.75h-11c-.967 0-1.75-.784-1.75-1.75v-.5c0-.966.783-1.75 1.75-1.75h11c.967 0 1.75.784 1.75 1.75zm-1.5 0c0-.138-.112-.25-.25-.25h-11c-.138 0-.25.112-.25.25v.5c0 .138.112.25.25.25h11c.138 0 .25-.112.25-.25z"/><path d="m14.25 17c0 .414-.336.75-.75.75s-.75-.336-.75-.75v-4.5c0-.414.336-.75.75-.75h1.5c.414 0 .75.336.75.75s-.336.75-.75.75h-.75z"/><path d="m11.25 17c0 .414-.336.75-.75.75s-.75-.336-.75-.75v-3.75h-.75c-.414 0-.75-.336-.75-.75s.336-.75.75-.75h1.5c.414 0 .75.336.75.75z"/><path d="m14.25 19.5c0-.414.336-.75.75-.75s.75.336.75.75v2.5c0 .414-.336.75-.75.75s-.75-.336-.75-.75z"/><path d="m8.25 19.5c0-.414.336-.75.75-.75s.75.336.75.75v2.5c0 .414-.336.75-.75.75s-.75-.336-.75-.75z"/><path d="m2.5 12.75c-.414 0-.75-.336-.75-.75s.336-.75.75-.75h1.5c.414 0 .75.336.75.75s-.336.75-.75.75z"/><path d="m21.5 11.25c.414 0 .75.336.75.75s-.336.75-.75.75h-1.5c-.414 0-.75-.336-.75-.75s.336-.75.75-.75z"/><path d="m18.541 4.399c.292-.293.768-.293 1.06 0 .293.292.293.768 0 1.06l-1.06 1.061c-.293.293-.768.293-1.061 0s-.293-.768 0-1.061z"/><path d="m11.25 2c0-.414.336-.75.75-.75s.75.336.75.75v1.5c0 .414-.336.75-.75.75s-.75-.336-.75-.75z"/><path d="m4.399 5.459c-.293-.292-.293-.768 0-1.06.292-.293.768-.293 1.06 0l1.061 1.06c.293.293.293.768 0 1.061s-.768.293-1.061 0z"/></g></svg>