<svg clip-rule="evenodd" fill-rule="evenodd" height="512" stroke-linejoin="round" stroke-miterlimit="2" viewBox="0 0 24 24" width="512" xmlns="http://www.w3.org/2000/svg"><g id="Icon"><path d="m11.001 12.52c-.199 0-.39.079-.531.219-.141.141-.22.332-.22.531 0 .966-.784 1.75-1.75 1.75s-1.75-.784-1.75-1.75c0-.414-.336-.75-.75-.75h-4c-.414 0-.75.336-.75.75v5.991c0 .966.783 1.75 1.749 1.75l18 .008c.464.001.91-.184 1.238-.512.329-.328.513-.773.513-1.238v-5.99c0-.414-.335-.75-.749-.75zm.662 1.5 9.587.008v5.241c0 .067-.026.13-.073.177s-.111.073-.177.073c0 0-18-.008-18-.008-.138 0-.25-.112-.25-.25v-5.241h2.587c.339 1.432 1.627 2.5 3.163 2.5 1.535 0 2.824-1.067 3.163-2.5z"/><path d="m19.536 20.519c.139-.39.214-.811.214-1.249 0-2.07-1.68-3.75-3.75-3.75s-3.75 1.68-3.75 3.75c0 .438.076.859.214 1.25.138.39.567.595.957.457s.595-.567.457-.957c-.083-.235-.128-.487-.128-.75 0-1.242 1.008-2.25 2.25-2.25s2.25 1.008 2.25 2.25c0 .263-.045.515-.128.749-.138.39.067.819.457.957s.819-.066.957-.457z"/><path d="m11 14.02h11c.26 0 .501-.135.638-.356s.149-.497.033-.73l-4.494-8.986c-.224-.449-.631-.78-1.116-.909s-1.002-.043-1.42.235c0 0-14.057 9.372-14.057 9.372-.275.183-.398.525-.302.841s.387.533.718.533h4c.414 0 .75-.336.75-.75s-.336-.75-.75-.75h-1.523l11.996-7.998c.06-.04.134-.052.203-.033.07.018.128.065.16.129 0 0 3.95 7.902 3.95 7.902h-9.786c-.414 0-.75.336-.75.75s.336.75.75.75z"/><path d="m15.25 7c-1.242 0-2.25 1.008-2.25 2.25s1.008 2.25 2.25 2.25 2.25-1.008 2.25-2.25-1.008-2.25-2.25-2.25zm0 1.5c.414 0 .75.336.75.75s-.336.75-.75.75-.75-.336-.75-.75.336-.75.75-.75z"/></g></svg>