<svg clip-rule="evenodd" fill-rule="evenodd" height="512" stroke-linejoin="round" stroke-miterlimit="2" viewBox="0 0 24 24" width="512" xmlns="http://www.w3.org/2000/svg"><g id="Icon"><path d="m17.417 13.5h-10.834c-.983 0-1.833.868-1.833 2v2.5c0 1.132.85 2 1.833 2h10.834c.982 0 1.833-.868 1.833-2v-2.5c0-1.132-.851-2-1.833-2zm0 1.5c.217 0 .333.249.333.5v2.5c0 .251-.116.5-.333.5h-10.834c-.218 0-.333-.249-.333-.5v-2.5c0-.251.115-.5.333-.5z"/><path d="m8 17.5h4.15c.414 0 .75-.336.75-.75s-.336-.75-.75-.75h-4.15c-.414 0-.75.336-.75.75s.336.75.75.75z"/><path d="m15 17.5h1c.414 0 .75-.336.75-.75s-.336-.75-.75-.75h-1c-.414 0-.75.336-.75.75s.336.75.75.75z"/><path d="m5.593 15.975c-1.603-.2-2.843-1.568-2.843-3.225 0-1.795 1.455-3.25 3.25-3.25h.707c.336 0 .63-.223.722-.546.564-1.992 2.398-3.454 4.571-3.454 2.172 0 4.006 1.462 4.571 3.454.091.323.386.546.721.546h.708c1.795 0 3.25 1.455 3.25 3.25 0 1.657-1.24 3.025-2.843 3.225-.411.051-.702.426-.651.837s.426.703.837.651c2.343-.292 4.157-2.291 4.157-4.713 0-2.623-2.127-4.75-4.75-4.75h-.168c-.904-2.339-3.176-4-5.832-4-2.657 0-4.928 1.661-5.832 4h-.168c-2.623 0-4.75 2.127-4.75 4.75 0 2.422 1.814 4.421 4.157 4.713.411.052.786-.24.837-.651s-.241-.786-.651-.837z"/></g></svg>