<svg clip-rule="evenodd" fill-rule="evenodd" height="512" stroke-linejoin="round" stroke-miterlimit="2" viewBox="0 0 24 24" width="512" xmlns="http://www.w3.org/2000/svg"><g id="Icon"><path d="m7.75 10.75v.5h-1.25c-.414 0-.75.336-.75.75s.336.75.75.75h1.5c.331 0 .649-.132.884-.366.234-.235.366-.553.366-.884 0-.305 0-.695 0-1 0-.331-.132-.649-.366-.884-.235-.234-.553-.366-.884-.366h-.75v-.5h1.25c.414 0 .75-.336.75-.75s-.336-.75-.75-.75h-1.5c-.331 0-.649.132-.884.366-.234.235-.366.553-.366.884v1c0 .331.132.649.366.884.235.234.553.366.884.366z"/><path d="m11.75 11.25v-2.5h1.25c.414 0 .75-.336.75-.75s-.336-.75-.75-.75h-1.5c-.331 0-.649.132-.884.366-.234.235-.366.552-.366.884v3c0 .332.132.649.366.884.235.234.553.366.884.366h1.5c.414 0 .75-.336.75-.75s-.336-.75-.75-.75z"/><path d="m11 10.75h1.5c.414 0 .75-.336.75-.75s-.336-.75-.75-.75h-1.5c-.414 0-.75.336-.75.75s.336.75.75.75z"/><path d="m18.25 8.5c0-.332-.132-.649-.366-.884-.235-.234-.553-.366-.884-.366-.305 0-.695 0-1 0-.331 0-.649.132-.884.366-.234.235-.366.552-.366.884v3c0 .332.132.649.366.884.235.234.553.366.884.366h1c.331 0 .649-.132.884-.366.234-.235.366-.552.366-.884zm-2 2.75h.5v-2.5h-.5z"/><path d="m22.75 4.5c0-.729-.29-1.429-.805-1.945-.516-.515-1.216-.805-1.945-.805-3.832 0-12.168 0-16 0-.729 0-1.429.29-1.945.805-.515.516-.805 1.216-.805 1.945v11c0 .729.29 1.429.805 1.945.516.515 1.216.805 1.945.805h16c.729 0 1.429-.29 1.945-.805.515-.516.805-1.216.805-1.945zm-1.5 0v11c0 .332-.132.649-.366.884-.235.234-.552.366-.884.366h-16c-.332 0-.649-.132-.884-.366-.234-.235-.366-.552-.366-.884v-11c0-.332.132-.649.366-.884.235-.234.552-.366.884-.366h16c.332 0 .649.132.884.366.234.235.366.552.366.884z"/><path d="m6.425 22.209 2.601-.896c1.92-.663 4.004-.674 5.932-.034 1.434.477 2.805.933 2.805.933.393.13.818-.083.949-.475.13-.393-.083-.818-.475-.949 0 0-1.372-.456-2.806-.932-2.24-.744-4.663-.731-6.894.038-1.344.464-2.601.897-2.601.897-.391.135-.599.562-.464.953.135.392.562.6.953.465z"/><path d="m15.75 20.057v-2.557c0-.414-.336-.75-.75-.75h-6c-.414 0-.75.336-.75.75v2.557c0 .414.336.75.75.75s.75-.336.75-.75v-1.807h4.5v1.807c0 .414.336.75.75.75s.75-.336.75-.75z"/></g></svg>