<svg clip-rule="evenodd" fill-rule="evenodd" height="512" stroke-linejoin="round" stroke-miterlimit="2" viewBox="0 0 24 24" width="512" xmlns="http://www.w3.org/2000/svg"><g id="Icon"><path d="m7.75 6v-2c0-.332.132-.649.366-.884.235-.234.552-.366.884-.366h7.113c.063 0 .123.023.169.065l4.886 4.442c.052.048.082.115.082.185v12.558c0 .332-.132.649-.366.884-.235.234-.552.366-.884.366h-11c-.69 0-1.25-.56-1.25-1.25v-4c0-.414-.336-.75-.75-.75s-.75.336-.75.75v4c0 1.519 1.231 2.75 2.75 2.75h11c.729 0 1.429-.29 1.945-.805.515-.516.805-1.216.805-1.945v-12.558c0-.493-.208-.963-.573-1.295-.991-.901-3.952-3.592-4.886-4.442-.323-.293-.742-.455-1.178-.455-1.182 0-4.807 0-7.113 0-.729 0-1.429.29-1.945.805-.515.516-.805 1.216-.805 1.945v2c0 .414.336.75.75.75s.75-.336.75-.75z"/><path d="m17.25 6.25v-4.25c0-.414-.336-.75-.75-.75s-.75.336-.75.75v4.5c0 .331.132.649.366.884.235.234.553.366.884.366h4.5c.414 0 .75-.336.75-.75s-.336-.75-.75-.75z"/><path d="m8 10.25c-.066 0-.13-.026-.177-.073s-.073-.111-.073-.177v-4c0-.414-.336-.75-.75-.75-3.176 0-5.75 2.575-5.75 5.75s2.574 5.75 5.75 5.75 5.75-2.575 5.75-5.75c0-.414-.336-.75-.75-.75zm0 1.5h3.184c-.354 1.989-2.092 3.5-4.184 3.5-2.348 0-4.25-1.903-4.25-4.25 0-2.091 1.51-3.83 3.5-4.184v3.184c0 .464.184.909.513 1.237.328.329.773.513 1.237.513z"/><path d="m7 5.25c-.414 0-.75.336-.75.75v4c0 .464.184.909.513 1.237.328.329.773.513 1.237.513h4c.414 0 .75-.336.75-.75 0-3.175-2.574-5.75-5.75-5.75zm.75 1.566c1.746.311 3.123 1.688 3.434 3.434h-3.184c-.066 0-.13-.026-.177-.073s-.073-.111-.073-.177z"/><path d="m20.25 13.5c0-.69-.56-1.25-1.25-1.25h-1.5c-.69 0-1.25.56-1.25 1.25v5c0 .69.56 1.25 1.25 1.25h1.5c.69 0 1.25-.56 1.25-1.25zm-2.5 4.75h1v-4.5h-1z"/><path d="m15.75 16.5c0-.69-.56-1.25-1.25-1.25h-1.5c-.69 0-1.25.56-1.25 1.25v2c0 .69.56 1.25 1.25 1.25h1.5c.69 0 1.25-.56 1.25-1.25zm-2.5 1.75h1v-1.5h-1z"/></g></svg>