<svg clip-rule="evenodd" fill-rule="evenodd" height="512" stroke-linejoin="round" stroke-miterlimit="2" viewBox="0 0 24 24" width="512" xmlns="http://www.w3.org/2000/svg"><g id="Icon"><path d="m14.942 1.616c-1.013 1.013-4.009 4.009-6.382 6.382-2.055 2.055-2.055 5.387 0 7.442 2.055 2.055 5.387 2.055 7.442 0 2.373-2.373 5.369-5.369 6.382-6.382.235-.235.367-.553.367-.884 0-.332-.132-.65-.367-.884l-5.674-5.674c-.234-.235-.552-.367-.884-.367-.331 0-.649.132-.884.367zm.884 1.237 5.321 5.321-6.206 6.205c-1.469 1.47-3.851 1.47-5.32 0-1.47-1.469-1.47-3.851 0-5.32z"/><path d="m8.56 14.379-4.963 4.964c-.293.292-.293.768 0 1.06.292.293.768.293 1.06 0l4.964-4.963c.292-.293.292-.768 0-1.061-.293-.292-.768-.292-1.061 0z"/><path d="m1.47 18.276 4.254 4.254c.293.293.768.293 1.061 0 .292-.292.292-.768 0-1.06l-4.255-4.255c-.292-.292-.768-.292-1.06 0-.293.293-.293.768 0 1.061z"/><path d="m19.902 10.48s-.596-.597-1.204-1.205c-.976-.975-2.374-1.398-3.727-1.128h-.002c-.861.173-1.751-.097-2.372-.718-.608-.608-1.204-1.204-1.204-1.204-.292-.292-.768-.292-1.06 0-.293.293-.293.768 0 1.061 0 0 .596.596 1.204 1.204.975.975 2.374 1.399 3.726 1.128h.002c.861-.172 1.751.097 2.372.718.608.608 1.204 1.204 1.204 1.204.293.293.768.293 1.061 0s.293-.768 0-1.06z"/></g></svg>