<svg clip-rule="evenodd" fill-rule="evenodd" height="512" stroke-linejoin="round" stroke-miterlimit="2" viewBox="0 0 24 24" width="512" xmlns="http://www.w3.org/2000/svg"><g id="Icon"><path d="m5 18.467c.138 0 .25.112.25.25v2.066c0 .461.254.884.66 1.102.407.217.9.194 1.283-.062l4.719-3.146c.206-.137.447-.21.693-.21h6.395c.995 0 1.948-.395 2.652-1.098.703-.703 1.098-1.657 1.098-2.652v-9c0-2.071-1.679-3.75-3.75-3.75-3.776 0-10.224 0-14 0-2.071 0-3.75 1.679-3.75 3.75v9c0 .995.395 1.949 1.098 2.652.704.703 1.657 1.098 2.652 1.098zm1.75 1.849v-1.599c0-.966-.783-1.75-1.75-1.75-.597 0-1.169-.237-1.591-.659s-.659-.994-.659-1.591c0-2.614 0-6.386 0-9 0-1.243 1.007-2.25 2.25-2.25h14c1.243 0 2.25 1.007 2.25 2.25v9c0 .597-.237 1.169-.659 1.591s-.994.659-1.591.659h-6.394c-.543 0-1.074.161-1.526.462z"/><path d="m6 7.467h7c.414 0 .75-.336.75-.75s-.336-.75-.75-.75h-7c-.414 0-.75.336-.75.75s.336.75.75.75z"/><path d="m6 10.967h6c.414 0 .75-.336.75-.75s-.336-.75-.75-.75h-6c-.414 0-.75.336-.75.75s.336.75.75.75z"/><path d="m15 10.967h3c.414 0 .75-.336.75-.75s-.336-.75-.75-.75h-3c-.414 0-.75.336-.75.75s.336.75.75.75z"/><path d="m6 14.467h2c.414 0 .75-.336.75-.75s-.336-.75-.75-.75h-2c-.414 0-.75.336-.75.75s.336.75.75.75z"/><path d="m11 14.467h7c.414 0 .75-.336.75-.75s-.336-.75-.75-.75h-7c-.414 0-.75.336-.75.75s.336.75.75.75z"/></g></svg>