<svg clip-rule="evenodd" fill-rule="evenodd" height="512" stroke-linejoin="round" stroke-miterlimit="2" viewBox="0 0 24 24" width="512" xmlns="http://www.w3.org/2000/svg"><g id="Icon"><path d="m8.886 20.469s2.65-3.314 4.735-5.92c.439-.549 1.11-.861 1.812-.843.703.017 1.357.362 1.769.932 0 0 4.19 5.801 4.19 5.801.242.336.712.411 1.047.169.336-.242.411-.712.169-1.047 0 0-2.322-3.215-4.19-5.802-.686-.949-1.776-1.524-2.948-1.553-1.171-.029-2.288.491-3.02 1.406-2.085 2.606-4.736 5.919-4.736 5.919-.258.324-.206.796.117 1.055.324.258.796.206 1.055-.117z"/><path d="m17.5 3.25c-1.794 0-3.25 1.456-3.25 3.25s1.456 3.25 3.25 3.25 3.25-1.456 3.25-3.25-1.456-3.25-3.25-3.25zm0 1.5c.966 0 1.75.784 1.75 1.75s-.784 1.75-1.75 1.75-1.75-.784-1.75-1.75.784-1.75 1.75-1.75z"/><path d="m2.712 20.237c.335-1.006 1.083-1.735 2.036-2.204 1.553-.766 3.632-.859 5.546-.312.398.114.813-.117.927-.515s-.117-.813-.515-.927c-2.286-.653-4.767-.506-6.622.408-1.319.651-2.331 1.682-2.796 3.076-.13.393.082.818.475.949.393.13.818-.082.949-.475z"/><path d="m6.75 16.625v-8.125c0-.414-.336-.75-.75-.75s-.75.336-.75.75v8.125c0 .414.336.75.75.75s.75-.336.75-.75z"/><path d="m5.5 13.25c-.332 0-.649-.132-.884-.366-.234-.235-.366-.552-.366-.884 0-.414-.336-.75-.75-.75s-.75.336-.75.75c0 .729.29 1.429.805 1.945.516.515 1.216.805 1.945.805.414 0 .75-.336.75-.75s-.336-.75-.75-.75z"/><path d="m6.5 12.75c.729 0 1.429-.29 1.945-.805.515-.516.805-1.216.805-1.945 0-.414-.336-.75-.75-.75s-.75.336-.75.75c0 .332-.132.649-.366.884-.235.234-.552.366-.884.366-.414 0-.75.336-.75.75s.336.75.75.75z"/></g></svg>