<svg clip-rule="evenodd" fill-rule="evenodd" height="512" stroke-linejoin="round" stroke-miterlimit="2" viewBox="0 0 24 24" width="512" xmlns="http://www.w3.org/2000/svg"><g id="Icon"><path d="m12.75 2c0-.414-.336-.75-.75-.75h-6.5c-2.347 0-4.25 1.903-4.25 4.25v6.5c0 .414.336.75.75.75h10c.414 0 .75-.336.75-.75zm-1.5.75v8.5h-8.5v-5.75c0-1.519 1.231-2.75 2.75-2.75z"/><path d="m12.75 12c0-.414-.336-.75-.75-.75h-10c-.414 0-.75.336-.75.75v6.5c0 2.347 1.903 4.25 4.25 4.25h6.5c.414 0 .75-.336.75-.75zm-1.5.75v8.5h-5.75c-1.519 0-2.75-1.231-2.75-2.75v-5.75z"/><path d="m22.75 5.5c0-2.347-1.903-4.25-4.25-4.25-2.883 0-6.5 0-6.5 0-.414 0-.75.336-.75.75v10c0 .414.336.75.75.75h10c.414 0 .75-.336.75-.75zm-1.5 0v5.75h-8.5v-8.5h5.75c1.519 0 2.75 1.231 2.75 2.75z"/><path d="m22.75 12c0-.414-.336-.75-.75-.75h-10c-.414 0-.75.336-.75.75v10c0 .414.336.75.75.75h6.5c2.347 0 4.25-1.903 4.25-4.25 0-2.883 0-6.5 0-6.5zm-1.5.75v5.75c0 1.519-1.231 2.75-2.75 2.75h-5.75v-8.5z"/><path d="m5 7.75h4c.414 0 .75-.336.75-.75s-.336-.75-.75-.75h-4c-.414 0-.75.336-.75.75s.336.75.75.75z"/><path d="m6.116 18.945 2.829-2.829c.292-.293.292-.768 0-1.061-.293-.292-.768-.292-1.061 0l-2.829 2.829c-.292.293-.292.768 0 1.061.293.292.768.292 1.061 0z"/><path d="m15 7.75h4c.414 0 .75-.336.75-.75s-.336-.75-.75-.75h-4c-.414 0-.75.336-.75.75s.336.75.75.75z"/><path d="m15 19.25h4c.414 0 .75-.336.75-.75s-.336-.75-.75-.75h-4c-.414 0-.75.336-.75.75s.336.75.75.75z"/><path d="m15 16.25h4c.414 0 .75-.336.75-.75s-.336-.75-.75-.75h-4c-.414 0-.75.336-.75.75s.336.75.75.75z"/><path d="m7.75 9v-4c0-.414-.336-.75-.75-.75s-.75.336-.75.75v4c0 .414.336.75.75.75s.75-.336.75-.75z"/><path d="m8.945 17.884-2.829-2.829c-.293-.292-.768-.292-1.061 0-.292.293-.292.768 0 1.061l2.829 2.829c.293.292.768.292 1.061 0 .292-.293.292-.768 0-1.061z"/></g></svg>