<svg clip-rule="evenodd" fill-rule="evenodd" height="512" stroke-linejoin="round" stroke-miterlimit="2" viewBox="0 0 24 24" width="512" xmlns="http://www.w3.org/2000/svg"><g id="Icon"><path d="m20 16.75c1.518 0 2.75-1.232 2.75-2.75v-4c0-1.518-1.232-2.75-2.75-2.75h-16c-1.518 0-2.75 1.232-2.75 2.75v4c0 1.518 1.232 2.75 2.75 2.75zm0-1.5h-16c-.69 0-1.25-.56-1.25-1.25v-4c0-.69.56-1.25 1.25-1.25h16c.69 0 1.25.56 1.25 1.25v4c0 .69-.56 1.25-1.25 1.25z"/><path d="m19 11.25h-1c-.414 0-.75.336-.75.75s.336.75.75.75h1c.414 0 .75-.336.75-.75s-.336-.75-.75-.75z"/><path d="m15 11.25h-10c-.414 0-.75.336-.75.75s.336.75.75.75h10c.414 0 .75-.336.75-.75s-.336-.75-.75-.75z"/></g></svg>