<svg clip-rule="evenodd" fill-rule="evenodd" height="512" stroke-linejoin="round" stroke-miterlimit="2" viewBox="0 0 24 24" width="512" xmlns="http://www.w3.org/2000/svg"><g id="Icon"><path d="m12 10.75c-2.622 0-4.75 2.128-4.75 4.75s2.128 4.75 4.75 4.75 4.75-2.128 4.75-4.75-2.128-4.75-4.75-4.75zm0 1.5c1.794 0 3.25 1.456 3.25 3.25s-1.456 3.25-3.25 3.25-3.25-1.456-3.25-3.25 1.456-3.25 3.25-3.25z"/><path d="m22.75 7c0-2.071-1.679-3.75-3.75-3.75-3.776 0-10.224 0-14 0-2.071 0-3.75 1.679-3.75 3.75v12c0 2.071 1.679 3.75 3.75 3.75h14c2.071 0 3.75-1.679 3.75-3.75zm-1.5 0v12c0 1.243-1.007 2.25-2.25 2.25-3.776 0-10.224 0-14 0-1.243 0-2.25-1.007-2.25-2.25v-12c0-1.243 1.007-2.25 2.25-2.25h14c1.243 0 2.25 1.007 2.25 2.25z"/><path d="m22 8.25h-20c-.414 0-.75.336-.75.75s.336.75.75.75h20c.414 0 .75-.336.75-.75s-.336-.75-.75-.75z"/><path d="m6.75 2v3.5c0 .414.336.75.75.75s.75-.336.75-.75v-3.5c0-.414-.336-.75-.75-.75s-.75.336-.75.75z"/><path d="m15.75 2v3.5c0 .414.336.75.75.75s.75-.336.75-.75v-3.5c0-.414-.336-.75-.75-.75s-.75.336-.75.75z"/><path d="m11.26 11.377s-.143.858-.276 1.656c-.186 1.115.329 2.229 1.298 2.811l.573.344c.302.181.514.481.583.827 0 0 .327 1.632.327 1.632.081.406.476.67.882.588.406-.081.67-.476.588-.882l-.326-1.633c-.152-.759-.617-1.42-1.282-1.818 0 0-.573-.345-.573-.345-.441-.264-.675-.77-.59-1.277l.276-1.657c.068-.408-.208-.795-.617-.863-.408-.068-.795.208-.863.617z"/><path d="m8.5 17.25h1.306c.611 0 1.132.442 1.233 1.044 0 .001.221 1.329.221 1.329.068.409.455.685.863.617.409-.068.685-.455.617-.863l-.222-1.329c-.221-1.326-1.368-2.298-2.712-2.298-.68 0-1.306 0-1.306 0-.414 0-.75.336-.75.75s.336.75.75.75z"/></g></svg>