<svg clip-rule="evenodd" fill-rule="evenodd" height="512" stroke-linejoin="round" stroke-miterlimit="2" viewBox="0 0 24 24" width="512" xmlns="http://www.w3.org/2000/svg"><g id="Icon"><path d="m9 20.25c-.414 0-.75-.336-.75-.75s.336-.75.75-.75h6.5c.414 0 .75.336.75.75s-.336.75-.75.75z"/><path d="m19.5 20.25c-.414 0-.75-.336-.75-.75s.336-.75.75-.75h1.5c.066 0 .13-.026.177-.073s.073-.111.073-.177v-2.42c0-.12-.086-.224-.204-.246l-3.184-.597c-.132-.025-.255-.084-.356-.173l-3.717-3.252c-.046-.04-.104-.062-.165-.062h-6.109c-.081 0-.157.039-.204.105l-1.902 2.662c-.328.46-.858.733-1.424.733h-.985c-.138 0-.25.112-.25.25v3c0 .138.112.25.25.25h2c.414 0 .75.336.75.75s-.336.75-.75.75h-2c-.967 0-1.75-.784-1.75-1.75v-3c0-.966.783-1.75 1.75-1.75h.985c.081 0 .157-.039.204-.105l1.902-2.662c.328-.46.858-.733 1.424-.733h6.109c.424 0 .834.154 1.153.433l3.563 3.118 2.982.559c.828.155 1.428.878 1.428 1.72v2.42c0 .464-.184.909-.513 1.237-.328.329-.773.513-1.237.513z"/><path d="m8.75 13.75v-2.75c0-.414.336-.75.75-.75s.75.336.75.75v3c0 .69-.56 1.25-1.25 1.25h-5.5c-.414 0-.75-.336-.75-.75s.336-.75.75-.75z"/><path d="m12.25 13.75h5.75c.414 0 .75.336.75.75s-.336.75-.75.75h-6c-.69 0-1.25-.56-1.25-1.25v-3c0-.414.336-.75.75-.75s.75.336.75.75z"/><path d="m7 16.75c1.518 0 2.75 1.232 2.75 2.75s-1.232 2.75-2.75 2.75-2.75-1.232-2.75-2.75 1.232-2.75 2.75-2.75zm0 1.5c-.69 0-1.25.56-1.25 1.25s.56 1.25 1.25 1.25 1.25-.56 1.25-1.25-.56-1.25-1.25-1.25z"/><path d="m17.5 16.75c1.518 0 2.75 1.232 2.75 2.75s-1.232 2.75-2.75 2.75-2.75-1.232-2.75-2.75 1.232-2.75 2.75-2.75zm0 1.5c-.69 0-1.25.56-1.25 1.25s.56 1.25 1.25 1.25 1.25-.56 1.25-1.25-.56-1.25-1.25-1.25z"/><path d="m3.031 3.086c-.323-.259-.375-.731-.117-1.055.259-.323.731-.375 1.055-.117l4.457 3.566c.081.065.195.073.284.019l3.81-2.286c.625-.375 1.418-.323 1.989.13l6.457 5.124c.324.257.379.729.122 1.053-.258.325-.73.379-1.054.122l-6.458-5.124c-.081-.065-.195-.072-.284-.019l-3.81 2.286c-.627.377-1.422.323-1.993-.134z"/><path d="m19.312 6.199c-.061-.409.221-.792.631-.853.409-.062.791.221.853.63l.446 2.967c.061.409-.221.791-.631.853l-2.966.446c-.41.061-.792-.221-.853-.631-.062-.409.221-.791.63-.853l2.225-.334z"/></g></svg>