<svg clip-rule="evenodd" fill-rule="evenodd" height="512" stroke-linejoin="round" stroke-miterlimit="2" viewBox="0 0 24 24" width="512" xmlns="http://www.w3.org/2000/svg"><g id="Icon"><path d="m3.25 6v12.789c0 .247.043.495.146.719 0 .001.001.003.002.004.357.763 1.174 1.486 2.357 2.038 1.565.731 3.795 1.2 6.245 1.2s4.681-.469 6.245-1.2c1.183-.552 2-1.275 2.357-2.038.001-.001.002-.003.002-.004.103-.224.146-.472.146-.719v-12.789c0-.414-.336-.75-.75-.75s-.75.336-.75.75v12.789c0 .03.004.061-.007.088-.242.514-.839.943-1.633 1.314-1.404.656-3.41 1.059-5.61 1.059-2.199 0-4.205-.403-5.61-1.059-.794-.371-1.391-.8-1.632-1.312-.013-.028-.008-.059-.008-.09v-12.789c0-.414-.336-.75-.75-.75s-.75.336-.75.75z"/><path d="m20.75 5.5c0-.994-.662-1.967-1.909-2.711-1.544-.921-4.031-1.539-6.841-1.539s-5.297.618-6.841 1.539c-1.247.744-1.909 1.717-1.909 2.711 0 .993.665 1.963 1.911 2.706.065.039.089.118.089.194v6.1c0 1.244 1.008 2.25 2.25 2.25s2.25-1.006 2.25-2.25v-.586c0-.166.183-.23.346-.2.129.024.266.036.404.036 1.242 0 2.25-1.006 2.25-2.25v-1.529c0-.126.099-.24.225-.246h.001c.34-.018.672-.045.998-.079h.002c.146-.016.274.097.274.244v6.61c0 1.244 1.008 2.25 2.25 2.25s2.25-1.006 2.25-2.25v-8.1c0-.076.024-.155.089-.194 1.246-.743 1.911-1.713 1.911-2.706zm-1.5 0c0 .553-.486 1.004-1.179 1.418-.515.307-.821.881-.821 1.482v8.1c0 .415-.336.75-.75.75s-.75-.335-.75-.75v-6.61c0-1.043-.9-1.848-1.936-1.736-.298.032-.604.057-.916.073-.903.046-1.648.84-1.648 1.744v1.529c0 .415-.336.75-.75.75-.046 0-.091-.004-.134-.012-.001 0-.001 0-.002 0-1.1-.2-2.114.556-2.114 1.676v.586c0 .415-.336.75-.75.75s-.75-.335-.75-.75v-6.1c0-.601-.306-1.175-.821-1.482-.693-.414-1.179-.865-1.179-1.418 0-.554.483-1.008 1.178-1.423 1.368-.817 3.581-1.327 6.072-1.327s4.704.51 6.072 1.327c.695.415 1.178.869 1.178 1.423z"/></g></svg>