<svg clip-rule="evenodd" fill-rule="evenodd" height="512" stroke-linejoin="round" stroke-miterlimit="2" viewBox="0 0 24 24" width="512" xmlns="http://www.w3.org/2000/svg"><g id="Icon"><path d="m19.643 16.706c.06-.363-.042-.734-.279-1.014-.238-.28-.587-.442-.954-.442-2.285 0-10.535 0-12.82 0-.367 0-.716.162-.954.442-.237.28-.339.651-.279 1.014.201 1.205.659 3.951.834 4.999.1.603.622 1.045 1.233 1.045h11.152c.611 0 1.133-.442 1.233-1.045zm-13.758.044.75 4.5h10.73l.75-4.5z"/><circle cx="12" cy="19" r=".75"/><path d="m16.25 2c0-.414-.336-.75-.75-.75h-5.5c-.597 0-1.169.237-1.591.659s-.659.994-.659 1.591v.986c0 .703.75.764.75.764h5.5c.597 0 1.169-.237 1.591-.659s.659-.994.659-1.591zm-7 1.75v-.25c0-.199.079-.39.22-.53.14-.141.331-.22.53-.22h4.75v.25c0 .199-.079.39-.22.53-.14.141-.331.22-.53.22z"/><path d="m7.75 6.5v1.5c0 .995.395 1.948 1.098 2.652.704.703 1.657 1.098 2.652 1.098h1c.995 0 1.948-.395 2.652-1.098.703-.704 1.098-1.657 1.098-2.652v-2c0-.414-.336-.75-.75-.75s-.75.336-.75.75v2c0 .597-.237 1.169-.659 1.591s-.994.659-1.591.659h-1c-.597 0-1.169-.237-1.591-.659s-.659-.994-.659-1.591v-1.5c0-.414-.336-.75-.75-.75s-.75.336-.75.75z"/><path d="m19.25 16v-1c0-.995-.395-1.948-1.098-2.652-.704-.703-1.657-1.098-2.652-1.098-.245 0-.475.12-.615.321 0 0-.504.73-.794 1.02-.422.422-.994.659-1.591.659h-1c-.597 0-1.169-.237-1.591-.659-.29-.29-.794-1.02-.794-1.02-.14-.201-.37-.321-.615-.321-.995 0-1.948.395-2.652 1.098-.703.704-1.098 1.657-1.098 2.652v1c0 .414.336.75.75.75s.75-.336.75-.75c0 0 0-.678 0-1 0-.597.237-1.169.659-1.591.336-.336.766-.554 1.229-.63.21.283.506.668.71.873.704.703 1.657 1.098 2.652 1.098h1c.995 0 1.948-.395 2.652-1.098.204-.205.5-.59.71-.873.462.076.893.294 1.229.63.422.422.659.994.659 1.591v1c0 .414.336.75.75.75s.75-.336.75-.75z"/></g></svg>