<svg clip-rule="evenodd" fill-rule="evenodd" height="512" stroke-linejoin="round" stroke-miterlimit="2" viewBox="0 0 24 24" width="512" xmlns="http://www.w3.org/2000/svg"><g id="Icon"><path d="m18.75 12c0-1.392-.553-2.728-1.538-3.712-.984-.985-2.32-1.538-3.712-1.538h-3c-1.392 0-2.728.553-3.712 1.538-.985.984-1.538 2.32-1.538 3.712v5.5c0 1.392.553 2.728 1.538 3.712.984.985 2.32 1.538 3.712 1.538h3c1.392 0 2.728-.553 3.712-1.538.985-.984 1.538-2.32 1.538-3.712 0-1.75 0-3.75 0-5.5zm-1.5 0v5.5c0 .995-.395 1.948-1.098 2.652-.704.703-1.657 1.098-2.652 1.098h-3c-.995 0-1.948-.395-2.652-1.098-.703-.704-1.098-1.657-1.098-2.652 0-1.75 0-3.75 0-5.5 0-.995.395-1.948 1.098-2.652.704-.703 1.657-1.098 2.652-1.098h3c.995 0 1.948.395 2.652 1.098.703.704 1.098 1.657 1.098 2.652z"/><path d="m16.75 7.5v-1.5c0-1.795-1.455-3.25-3.25-3.25h-3c-1.795 0-3.25 1.455-3.25 3.25v1.5c0 .414.336.75.75.75s.75-.336.75-.75v-1.5c0-.967.783-1.75 1.75-1.75h3c.967 0 1.75.783 1.75 1.75v1.5c0 .414.336.75.75.75s.75-.336.75-.75z"/><path d="m18 15.75h3c.414 0 .75-.336.75-.75s-.336-.75-.75-.75h-3c-.414 0-.75.336-.75.75s.336.75.75.75z"/><path d="m6 14.25h-3c-.414 0-.75.336-.75.75s.336.75.75.75h3c.414 0 .75-.336.75-.75s-.336-.75-.75-.75z"/><path d="m18.43 11.614 2.458-1.72c.339-.238.421-.706.184-1.045-.238-.339-.706-.422-1.045-.184l-2.457 1.721c-.339.237-.422.705-.184 1.044.237.339.705.422 1.044.184z"/><path d="m6.43 10.386-2.457-1.721c-.339-.238-.807-.155-1.045.184-.237.339-.155.807.184 1.045l2.458 1.72c.339.238.807.155 1.044-.184.238-.339.155-.807-.184-1.044z"/><path d="m17.57 19.614 2.457 1.721c.339.238.807.155 1.045-.184.237-.339.155-.807-.184-1.045l-2.458-1.72c-.339-.238-.807-.155-1.044.184-.238.339-.155.807.184 1.044z"/><path d="m5.57 18.386-2.458 1.72c-.339.238-.421.706-.184 1.045.238.339.706.422 1.045.184l2.457-1.721c.339-.237.422-.705.184-1.044-.237-.339-.705-.422-1.044-.184z"/><path d="m14.75 3.5v-1.5c0-.414-.336-.75-.75-.75s-.75.336-.75.75v1.5c0 .414.336.75.75.75s.75-.336.75-.75z"/><path d="m10.75 3.5v-1.5c0-.414-.336-.75-.75-.75s-.75.336-.75.75v1.5c0 .414.336.75.75.75s.75-.336.75-.75z"/><path d="m11.25 11.75v6c0 .414.336.75.75.75s.75-.336.75-.75v-6c0-.414-.336-.75-.75-.75s-.75.336-.75.75z"/></g></svg>