<svg clip-rule="evenodd" fill-rule="evenodd" height="512" stroke-linejoin="round" stroke-miterlimit="2" viewBox="0 0 24 24" width="512" xmlns="http://www.w3.org/2000/svg"><g id="Icon"><path d="m4.739 22.024s2.727.455 3.834.639c.415.07.84.043 1.242-.078l5.449-1.635c1.092-.327 1.718-1.472 1.405-2.568 0-.001 0-.002 0-.002-.309-1.079-1.42-1.717-2.506-1.438-1.205.308-2.849.729-2.849.729-.401.103-.643.512-.541.913.103.401.512.643.913.54l2.849-.729c.3-.077.606.099.691.397l.001.002c.088.307-.088.628-.394.719l-5.448 1.635c-.184.055-.377.067-.565.036l-3.835-.639c-.408-.068-.795.208-.863.616-.068.409.208.795.617.863z"/><path d="m19.261 1.976s-2.728-.455-3.834-.639c-.415-.07-.84-.043-1.243.078l-5.449 1.635c-1.092.327-1.718 1.472-1.404 2.568v.002c.308 1.079 1.419 1.717 2.506 1.438 1.187-.303 2.793-.715 2.793-.715.401-.102.643-.511.54-.912-.102-.401-.511-.643-.912-.541l-2.793.715c-.3.077-.607-.099-.692-.397v-.002c-.088-.307.087-.628.394-.719l5.448-1.635c.183-.055.376-.067.565-.036l3.834.639c.409.068.796-.208.864-.616.068-.409-.209-.795-.617-.863z"/><path d="m5.039 16.985s1.303-.317 2.15-.523c.287-.069.59-.035.854.097l2.625 1.312c.064.032.111.09.13.16.018.069.006.143-.034.203l-.313.469c-.07.105-.207.141-.319.085-.848-.424-2.073-1.036-2.073-1.036-.37-.185-.821-.035-1.006.335s-.035.821.335 1.006c0 0 1.226.613 2.073 1.036.789.395 1.749.14 2.239-.594.1-.151.208-.312.312-.47.279-.417.364-.934.235-1.419-.128-.485-.459-.892-.908-1.116l-2.625-1.313c-.581-.29-1.247-.366-1.879-.212-.847.206-2.15.522-2.15.522-.402.098-.65.504-.552.906s.504.649.906.552z"/><path d="m18.961 7.015s-1.303.317-2.151.523c-.287.069-.589.035-.854-.097l-2.624-1.312c-.064-.032-.112-.09-.13-.16-.018-.069-.006-.143.034-.203l.312-.469c.07-.105.207-.141.32-.085.847.424 2.072 1.036 2.072 1.036.371.185.822.035 1.007-.335s.034-.821-.336-1.006c0 0-1.225-.613-2.072-1.036-.789-.395-1.749-.14-2.239.594-.101.151-.208.312-.313.47-.278.417-.364.934-.235 1.419s.46.892.909 1.116l2.624 1.313c.582.29 1.248.366 1.88.212.847-.206 2.15-.522 2.15-.522.402-.098.649-.504.552-.906-.098-.402-.504-.649-.906-.552z"/><path d="m5.612 15.561c0-.415-.336-.75-.75-.75h-2.862c-.414 0-.75.335-.75.75v6.439c0 .414.336.75.75.75h2.862c.414 0 .75-.336.75-.75zm-1.5.75v4.939h-1.362v-4.939z"/><path d="m18.388 8.439c0 .415.336.75.75.75h2.862c.414 0 .75-.335.75-.75v-6.439c0-.414-.336-.75-.75-.75h-2.862c-.414 0-.75.336-.75.75zm1.5-.75v-4.939h1.362v4.939z"/><path d="m12 8.25c-2.07 0-3.75 1.68-3.75 3.75s1.68 3.75 3.75 3.75 3.75-1.68 3.75-3.75-1.68-3.75-3.75-3.75zm0 1.5c1.242 0 2.25 1.008 2.25 2.25s-1.008 2.25-2.25 2.25-2.25-1.008-2.25-2.25 1.008-2.25 2.25-2.25z"/><path d="m12.75 12.5v-1c0-.414-.336-.75-.75-.75s-.75.336-.75.75v1c0 .414.336.75.75.75s.75-.336.75-.75z"/></g></svg>