<svg viewBox="0 0 32 32" xmlns="http://www.w3.org/2000/svg"><g id="discord_group_forum_message" data-name="discord, group, forum, message"><path d="m9.8213 17.4082a3.1006 3.1006 0 0 0 2.8945 3.2656 3.1 3.1 0 0 0 2.8936-3.2656 3.1 3.1 0 0 0 -2.8936-3.2656 3.1006 3.1006 0 0 0 -2.8945 3.2656zm3.7881 0c0 .6865-.4092 1.2656-.8936 1.2656s-.8945-.5791-.8945-1.2656.4092-1.2656.8945-1.2656.8936.5791.8936 1.2656z"/><path d="m19.2842 14.1426a3.1 3.1 0 0 0 -2.8936 3.2656 3.1 3.1 0 0 0 2.8936 3.2656 3.1006 3.1006 0 0 0 2.8945-3.2656 3.1006 3.1006 0 0 0 -2.8945-3.2656zm0 4.5312c-.4844 0-.8936-.5791-.8936-1.2656s.4092-1.2656.8936-1.2656.8945.5791.8945 1.2656-.4087 1.2656-.8945 1.2656z"/><path d="m26.6289 10.53c-.6692-1.4606-4.0254-3.625-6.915-4.34a1 1 0 1 0 -.48 1.9414 10.1947 10.1947 0 0 1 5.6456 3.3847 24.9666 24.9666 0 0 1 2.0946 9.8165 10.1332 10.1332 0 0 1 -5.0273 2.5176s-.0136-.4818-.0158-.5089a13.2915 13.2915 0 0 0 3.4279-1.9511 1 1 0 0 0 -1.2441-1.5664 12.8587 12.8587 0 0 1 -8.1148 2.5962 12.8587 12.8587 0 0 1 -8.1143-2.5957 1 1 0 0 0 -1.2441 1.5664 13.2877 13.2877 0 0 0 3.4121 1.9452v.5148a10.1336 10.1336 0 0 1 -5.0273-2.5177 24.9666 24.9666 0 0 1 2.0946-9.8165 10.1947 10.1947 0 0 1 5.6456-3.3847 1 1 0 1 0 -.4805-1.9418c-2.89.7149-6.3988 3.1366-6.915 4.34-1.9365 4.0374-2.1572 7.6487-2.3691 11.1419a.9967.9967 0 0 0 .2871.7636 11.8925 11.8925 0 0 0 7.7392 3.5108h.0254a1 1 0 0 0 1-1v-.9757a17.5553 17.5553 0 0 0 7.8926 0v.9757a1 1 0 0 0 1 1h.0254a11.8925 11.8925 0 0 0 7.7392-3.5108.9967.9967 0 0 0 .2871-.7636c-.2119-3.4932-.4326-7.1045-2.3691-11.1419z"/><path d="m23.4873 11.7188a1 1 0 0 0 -.4248-1.3487 15.4371 15.4371 0 0 0 -7.0625-1.5049 15.4371 15.4371 0 0 0 -7.0625 1.5048 1 1 0 0 0 .9238 1.7735 13.4646 13.4646 0 0 1 6.1387-1.2783 13.4643 13.4643 0 0 1 6.1387 1.2784 1.0984 1.0984 0 0 0 1.3486-.4248z"/></g></svg>