<svg clip-rule="evenodd" fill-rule="evenodd" height="512" stroke-linejoin="round" stroke-miterlimit="2" viewBox="0 0 24 24" width="512" xmlns="http://www.w3.org/2000/svg"><g id="Icon"><circle cx="5.25" cy="5" r=".75"/><circle cx="7.75" cy="5" r=".75"/><circle cx="10.25" cy="5" r=".75"/><path d="m22.75 13v-8.5c0-1.795-1.455-3.25-3.25-3.25-3.842 0-11.158 0-15 0-1.795 0-3.25 1.455-3.25 3.25v15c0 .862.342 1.689.952 2.298.609.61 1.436.952 2.298.952h4c.414 0 .75-.336.75-.75s-.336-.75-.75-.75h-4c-.464 0-.909-.184-1.237-.513-.329-.328-.513-.773-.513-1.237v-15c0-.967.783-1.75 1.75-1.75h15c.967 0 1.75.783 1.75 1.75v8.5c0 .414.336.75.75.75s.75-.336.75-.75z"/><path d="m18 22.75h1c.995 0 1.948-.395 2.652-1.098.703-.704 1.098-1.657 1.098-2.652s-.395-1.948-1.098-2.652c-.704-.703-1.657-1.098-2.652-1.098h-1.025c-.414 0-.75.336-.75.75s.336.75.75.75h1.025c.597 0 1.169.237 1.591.659s.659.994.659 1.591-.237 1.169-.659 1.591-.994.659-1.591.659h-1c-.414 0-.75.336-.75.75s.336.75.75.75z"/><path d="m14.975 21.25h-1c-.597 0-1.169-.237-1.591-.659s-.659-.994-.659-1.591.237-1.169.659-1.591.994-.659 1.591-.659h1.025c.414 0 .75-.336.75-.75s-.336-.75-.75-.75h-1.025c-.995 0-1.949.395-2.652 1.098-.703.704-1.098 1.657-1.098 2.652s.395 1.948 1.098 2.652c.703.703 1.657 1.098 2.652 1.098h1c.414 0 .75-.336.75-.75s-.336-.75-.75-.75z"/><path d="m22 7.25h-20c-.414 0-.75.336-.75.75s.336.75.75.75h20c.414 0 .75-.336.75-.75s-.336-.75-.75-.75z"/><path d="m14.5 19.75h4c.414 0 .75-.336.75-.75s-.336-.75-.75-.75h-4c-.414 0-.75.336-.75.75s.336.75.75.75z"/></g></svg>