<svg clip-rule="evenodd" fill-rule="evenodd" height="512" stroke-linejoin="round" stroke-miterlimit="2" viewBox="0 0 24 24" width="512" xmlns="http://www.w3.org/2000/svg"><g id="Icon"><path d="m7.383 13.644c.099-.321-.027-.668-.309-.851-1.731-1.121-3.462-1.389-5.193-1.111-.363.058-.631.372-.631.741v8c0 .414.336.75.75.75h2.5c.329 0 .619-.215.716-.529zm-1.608.122-1.828 5.907h-1.197v-6.58c1.008-.06 2.017.133 3.025.673z"/><path d="m16.617 10.356c-.099.321.027.668.309.851 1.731 1.121 3.462 1.389 5.193 1.111.363-.058.631-.372.631-.741v-8c0-.414-.336-.75-.75-.75h-2.5c-.329 0-.619.215-.716.529zm1.608-.122 1.828-5.907h1.197v6.58c-1.008.06-2.017-.133-3.025-.673z"/><path d="m14.961 18.672.039.001.032-.004c.144-.02.718-.137.718-.752v-.418c0-1.271-.872-2.377-2.108-2.674-2.407-.577-6.8-1.632-6.8-1.632-.403-.096-.808.152-.905.555-.096.402.152.807.555.904 0 0 4.393 1.054 6.8 1.632.562.135.958.637.958 1.215v.418.001.005c0 .401.315.728.711.749z"/><path d="m17.508 9.348s-4.393-1.054-6.8-1.632c-.562-.135-.958-.637-.958-1.215 0-.414-.336-.75-.75-.75s-.75.336-.75.75c0 1.271.872 2.377 2.108 2.674 2.407.577 6.8 1.632 6.8 1.632.403.096.808-.152.905-.555.096-.402-.152-.807-.555-.904z"/><path d="m20.605 18.66-5.741 2.233c-1.204.468-2.537.476-3.746.023 0 0-5.855-2.196-5.855-2.196-.387-.145-.82.052-.965.439-.146.388.051.821.439.966 0 0 3.484 1.307 5.854 2.195 1.554.583 3.269.573 4.817-.029 2.661-1.035 6.864-2.669 6.864-2.669.236-.092.41-.297.462-.545s-.024-.506-.204-.685l-.494-.494c-1.043-1.043-2.602-1.377-3.981-.854-1.55.569-4.212 1.067-7.873.151-.402-.1-.809.144-.91.546-.1.401.144.809.546.909 4.073 1.019 7.032.435 8.755-.198.004-.001.007-.002.01-.003.678-.259 1.428-.173 2.022.211z"/><path d="m3.395 5.34 5.741-2.233c1.204-.468 2.537-.476 3.746-.023 0 0 5.855 2.196 5.855 2.196.387.145.82-.052.965-.439.146-.388-.051-.821-.439-.966 0 0-3.484-1.307-5.854-2.195-1.554-.583-3.269-.573-4.817.029-2.661 1.035-6.864 2.669-6.864 2.669-.236.092-.41.297-.462.545s.024.506.204.685l.494.494c1.043 1.043 2.602 1.377 3.981.854 1.55-.569 4.212-1.067 7.873-.151.402.1.809-.144.91-.546.1-.401-.144-.809-.546-.909-4.073-1.019-7.032-.435-8.755.198-.004.001-.007.002-.01.003-.678.259-1.428.173-2.022-.211z"/></g></svg>