<?xml version="1.0"?>
<svg xmlns="http://www.w3.org/2000/svg" viewBox="0 0 32 32" width="512" height="512"><path d="M12,7a1,1,0,0,0-1,1V23.3818l-6,3V8.6182l7-3.5,3.5527,1.7763a1,1,0,1,0,.8946-1.789l-4-2a1.0008,1.0008,0,0,0-.8946,0l-8,4A1,1,0,0,0,3,8V28a1,1,0,0,0,1.4473.8945l8-4A1,1,0,0,0,13,24V8A1,1,0,0,0,12,7Z"/><path d="M28,13.9731a1,1,0,0,0-1,1v8.4087l-7,3.5-3.5527-1.7763a1,1,0,0,0-.8946,1.789l4,2a1.001,1.001,0,0,0,.8946,0l8-4A1,1,0,0,0,29,24V14.9731A1,1,0,0,0,28,13.9731Z"/><path d="M21.28,12.623A1,1,0,1,0,22.72,11.2354l-.8286-.8594A3.2358,3.2358,0,0,1,21,8.1421a3.0032,3.0032,0,1,1,6,0,3.2358,3.2358,0,0,1-.8911,2.2339l-2.8281,2.9292a1,1,0,1,0,1.4384,1.39l2.8282-2.9292A5.2547,5.2547,0,0,0,29,8.1421a5.002,5.002,0,1,0-10,0,5.1838,5.1838,0,0,0,1.4536,3.6245Z"/><path d="M20,25a1,1,0,0,0,1-1V14.9731a1,1,0,0,0-2,0V24A1,1,0,0,0,20,25Z"/></svg>
