<svg clip-rule="evenodd" fill-rule="evenodd" stroke-linejoin="round" stroke-miterlimit="2" viewBox="0 0 32 32" xmlns="http://www.w3.org/2000/svg" xmlns:serif="http://www.serif.com/"><path id="airplane-mode-phone-" d="m0 0h32v32h-32z" fill="none"/><path d="m18.236 17.018c.438.128.742.512.764.972v6.381l1.447.724s.525.289.553.895v2c-.025.535-.46.975-1 1h-8c-.537-.025-.975-.451-1-1v-2c.025-.535.18-.687.553-.895l1.447-.724v-5.381h-9c-.536-.025-.975-.461-1-1v-2c.018-.403.253-.758.629-.929l9.371-3.749v-5.322s-.008-.379.293-.708l2-2c.396-.361 1.015-.363 1.414 0l2 2c.273.298.276.323.293.708v5.322l9.371 3.749s.603.364.629.929v2c-.025.535-.46.975-1 1h-6c-1.16-.056-1.077-.802-.972-1.236.105-.431.519-.743.972-.764h5v-.323l-9.371-3.749c-.367-.167-.61-.517-.629-.928v-5.586l-1-1-1 1v5.586s-.051.666-.629.928l-9.371 3.749v.323h9c.536.024.975.46 1 1v7c-.025.534-.18.686-.553.894l-1.447.724v.382h6v-.382l-1.447-.724c-.467-.261-.533-.468-.553-.894v-7c.029-.613.6-1.095 1.236-.972z"/></svg>