<svg clip-rule="evenodd" fill-rule="evenodd" height="512" stroke-linejoin="round" stroke-miterlimit="2" viewBox="0 0 24 24" width="512" xmlns="http://www.w3.org/2000/svg"><g id="Icon"><path d="m15.25 7.602v-5.102c0-.332-.132-.649-.366-.884-.235-.234-.553-.366-.884-.366-.958 0-3.042 0-4 0-.331 0-.649.132-.884.366-.234.235-.366.552-.366.884v5.102c0 .357-.153.697-.42.934-.757.674-1.997 1.776-2.86 2.542-.81.721-1.121 1.85-.795 2.884.638 2.02 1.884 5.965 2.389 7.565.23.728.905 1.223 1.669 1.223h6.534c.764 0 1.439-.495 1.669-1.223l2.389-7.565c.326-1.034.015-2.163-.795-2.884-.863-.766-2.103-1.868-2.86-2.542-.267-.237-.42-.577-.42-.934zm-5-4.852h3.5v4.852c0 .785.336 1.533.923 2.055l2.86 2.542c.368.328.51.841.362 1.311l-2.389 7.565c-.033.104-.13.175-.239.175-1.522 0-5.012 0-6.534 0-.109 0-.206-.071-.238-.175l-2.39-7.565c-.148-.47-.006-.983.362-1.311l2.86-2.542c.587-.522.923-1.27.923-2.055z"/><path d="m15.376 8.649c.282-.163.609-.256.957-.256 1.058 0 1.917.859 1.917 1.916 0 .417-.133.802-.359 1.117-.242.336-.165.805.171 1.047.336.241.805.164 1.047-.172.403-.561.641-1.249.641-1.992 0-1.885-1.531-3.416-3.417-3.416-.622 0-1.206.167-1.709.458-.358.207-.48.667-.273 1.025s.667.48 1.025.273z"/><path d="m16.024 13.813c.092-.51-.046-1.036-.379-1.434-.332-.399-.824-.629-1.343-.629h-4.604c-.519 0-1.011.23-1.343.629-.333.398-.471.924-.379 1.434.192 1.054.468 2.572.637 3.5.151.832.876 1.437 1.722 1.437h3.33c.846 0 1.571-.605 1.722-1.437zm-1.476-.268-.637 3.5c-.021.119-.125.205-.246.205h-3.33c-.121 0-.225-.086-.246-.205l-.637-3.5c-.013-.073.007-.148.054-.205.048-.057.118-.09.192-.09h4.604c.074 0 .144.033.192.09.047.057.067.132.054.205z"/><path d="m14.5 4.25h-5c-.414 0-.75.336-.75.75s.336.75.75.75h5c.414 0 .75-.336.75-.75s-.336-.75-.75-.75z"/></g></svg>