<svg clip-rule="evenodd" fill-rule="evenodd" stroke-linejoin="round" stroke-miterlimit="1.414" viewBox="0 0 32 32" xmlns="http://www.w3.org/2000/svg" xmlns:serif="http://www.serif.com/"><path id="locker-fitting-room-" d="m0 0h32v32h-32z" fill="none"/><path d="m5 5v19s-.655 1.622-1.655.756c-.216-.187-.331-.468-.345-.756v-20c.025-.537.451-.975 1-1h24c.031.001.062.003.092.004.5.07.884.483.908.996v24c-.025.536-.46.975-1 1h-7.2c-.902-.043-.978-.506-.999-.952-.025-.538.443-1.022.999-1.048h6.2v-22h-10v23c-.025.536-.46.975-1 1h-12c-.777-.037-1.293-1.034-.756-1.655.182-.21.33-.325.756-.345h11v-22zm7 8h-4c-.989-.02-1.477-1.971 0-2 1.347 0 2.693-.026 4.04.001.987.059 1.437 1.97-.04 1.999zm12 0h-4c-.975-.019-1.534-1.969 0-2 1.347 0 2.693-.026 4.04.001.984.059 1.437 1.97-.04 1.999zm0-4h-4c-.987-.02-1.477-1.971 0-2 1.347 0 2.693-.026 4.04.001.974.058 1.385 1.971-.04 1.999zm-12 0h-4c-.999-.02-1.477-1.971 0-2 1.347 0 2.693-.026 4.04.001.977.058 1.437 1.97-.04 1.999z" fill-rule="nonzero"/></svg>