<svg clip-rule="evenodd" fill-rule="evenodd" height="512" stroke-linejoin="round" stroke-miterlimit="2" viewBox="0 0 24 24" width="512" xmlns="http://www.w3.org/2000/svg"><g id="Icon"><path d="m14.75 7v-3c0-.729-.29-1.429-.805-1.945-.516-.515-1.216-.805-1.945-.805-1.986 0-5.014 0-7 0-.729 0-1.429.29-1.945.805-.515.516-.805 1.216-.805 1.945v16c0 .729.29 1.429.805 1.945.516.515 1.216.805 1.945.805h7c.729 0 1.429-.29 1.945-.805.515-.516.805-1.216.805-1.945 0-3.646 0-11 0-11 0-.414-.336-.75-.75-.75s-.75.336-.75.75v11c0 .332-.132.649-.366.884-.235.234-.552.366-.884.366h-7c-.332 0-.649-.132-.884-.366-.234-.235-.366-.552-.366-.884v-16c0-.332.132-.649.366-.884.235-.234.552-.366.884-.366h7c.332 0 .649.132.884.366.234.235.366.552.366.884v3c0 .414.336.75.75.75s.75-.336.75-.75z"/><path d="m7.25 8c0 .966.783 1.75 1.75 1.75h11c.967 0 1.75-.784 1.75-1.75s-.783-1.75-1.75-1.75h-11c-.967 0-1.75.784-1.75 1.75zm1.5 0c0-.138.112-.25.25-.25h11c.138 0 .25.112.25.25s-.112.25-.25.25h-11c-.138 0-.25-.112-.25-.25z"/><path d="m11.136 8.786c-.338 1.135-1.391 1.964-2.636 1.964-1.518 0-2.75-1.232-2.75-2.75s1.232-2.75 2.75-2.75c1.245 0 2.298.829 2.636 1.964.118.397.536.623.933.505s.623-.537.505-.933c-.523-1.755-2.15-3.036-4.074-3.036-2.346 0-4.25 1.904-4.25 4.25s1.904 4.25 4.25 4.25c1.924 0 3.551-1.281 4.074-3.036.118-.396-.108-.815-.505-.933s-.815.108-.933.505z"/><circle cx="8.5" cy="19" r="1"/><path d="m7.45 17.558c.293-.22.656-.35 1.049-.35.394 0 .757.13 1.049.35.331.249.802.182 1.051-.149.248-.331.181-.802-.15-1.05-.543-.408-1.218-.651-1.95-.651-.731 0-1.406.243-1.949.651-.331.248-.398.719-.15 1.05.249.331.72.398 1.05.149z"/><path d="m6.45 15.475c.572-.429 1.281-.683 2.05-.683s1.478.254 2.05.683c.33.248.801.182 1.05-.149.248-.331.181-.802-.15-1.05-.822-.618-1.843-.984-2.95-.984s-2.128.366-2.95.984c-.331.248-.398.719-.15 1.05.249.331.72.397 1.05.149z"/></g></svg>