<svg clip-rule="evenodd" fill-rule="evenodd" height="512" stroke-linejoin="round" stroke-miterlimit="2" viewBox="0 0 24 24" width="512" xmlns="http://www.w3.org/2000/svg"><g id="Icon"><path d="m4 1.25c-.414 0-.75.336-.75.75v5c0 .414.336.75.75.75h9.25v.5h-1.25c-.297 0-.566.175-.686.447-.12.271-.069.588.131.808l5 5.5c.142.156.344.245.555.245s.413-.089.555-.245l5-5.5c.2-.22.251-.537.131-.808-.12-.272-.389-.447-.686-.447h-1.25v-3.25c0-2.071-1.679-3.75-3.75-3.75zm.75 1.5h12.25c1.243 0 2.25 1.007 2.25 2.25v4c0 .414.336.75.75.75h.305s-3.305 3.635-3.305 3.635-3.305-3.635-3.305-3.635h.305c.414 0 .75-.336.75-.75v-2c0-.414-.336-.75-.75-.75h-9.25z"/><path d="m20 22.75c.414 0 .75-.336.75-.75v-5c0-.414-.336-.75-.75-.75h-9.25v-.5h1.25c.297 0 .566-.175.686-.447.12-.271.069-.588-.131-.808l-5-5.5c-.142-.156-.344-.245-.555-.245s-.413.089-.555.245l-5 5.5c-.2.22-.251.537-.131.808.12.272.389.447.686.447h1.25v3.25c0 2.071 1.679 3.75 3.75 3.75zm-.75-1.5h-12.25c-1.243 0-2.25-1.007-2.25-2.25 0-1.9 0-4 0-4 0-.414-.336-.75-.75-.75h-.305s3.305-3.635 3.305-3.635 3.305 3.635 3.305 3.635h-.305c-.414 0-.75.336-.75.75v2c0 .414.336.75.75.75h9.25z"/></g></svg>