<svg clip-rule="evenodd" fill-rule="evenodd" stroke-linejoin="round" stroke-miterlimit="1.414" viewBox="0 0 32 32" xmlns="http://www.w3.org/2000/svg" xmlns:serif="http://www.serif.com/"><path id="remove-friend-contact" d="m0 0h32v32h-32z" fill="none"/><path d="m17.131 18.975c.063.005.079.005.141.017.324.063.566.315.796.593 1.264 1.525 1.936 3.511 1.936 5.498 0 0-.059.758-.371 1.269-.654 1.069-1.87 1.643-3.024 2.011-2.79.891-5.934.854-8.623-.154-1.424-.534-2.88-1.479-2.947-3.031-.088-2.062.715-4.216 2.09-5.776.338-.385.941-.513 1.359-.235.509.34.531 1.098.091 1.608-.983 1.152-1.52 2.66-1.545 4.186-.009.535.54.853 1.017 1.1 1.245.644 2.691.854 4.12.89 1.74.044 3.563-.127 5.056-1.022.391-.234.784-.543.781-.932-.023-1.568-.568-3.117-1.616-4.301l-.095-.109c-.155-.213-.173-.298-.199-.452-.085-.511.291-1.06.82-1.148.136-.023.169-.013.213-.012zm-4.578-9.979c2.308.022 4.451 1.798 4.873 4.076.297 1.606-.254 3.342-1.421 4.482-1.378 1.345-3.558 1.791-5.37 1.05-1.597-.653-2.8-2.184-3.051-3.892-.308-2.105.896-4.347 2.828-5.25.668-.311 1.403-.469 2.141-.466zm-.052 1.995c-1.348.013-2.616 1.027-2.905 2.353-.41 1.881 1.345 3.978 3.473 3.584 1.544-.286 2.692-1.945 2.391-3.511-.254-1.324-1.478-2.394-2.881-2.425-.026-.001-.052-.001-.078-.001zm13.49-1.995h-7.983c-.229-.007-.304-.037-.433-.099-.606-.292-.753-1.281-.144-1.713.167-.119.372-.178.577-.184h7.983c.018.001.037.001.055.002.739.062 1.237 1.047.689 1.661-.162.181-.392.299-.633.326-.049.006-.062.005-.111.007z" fill-rule="nonzero"/></svg>