<svg clip-rule="evenodd" fill-rule="evenodd" stroke-linejoin="round" stroke-miterlimit="1.414" viewBox="0 0 32 32" xmlns="http://www.w3.org/2000/svg" xmlns:serif="http://www.serif.com/"><path id="teeth-tooth-dentist-" d="m0 0h32v32h-32z" fill="none"/><path d="m15.996 6.72c1.933-.908 3.849-1.959 6.012-1.672 2.483.329 4.629 2.714 4.14 5.311-.98 4.996-1.967 9.991-2.995 14.977-.23 1.048-1.315 1.778-2.458 1.649-.824-.092-1.599-.574-2.011-1.3l-1.465-2.663s-.243-.645.069-1.072c.224-.306.618-.449 1.001-.391.442.108.516.226.682.499.488.886.947 1.788 1.463 2.658.167.277.723.403.763.201.997-4.984 2.05-9.957 2.99-14.952.143-.791-.169-1.624-.781-2.181-1.07-.973-2.78-.962-4.166-.338l-2.827 1.285c-.206.083-.304.098-.414.093-.109.005-.207-.01-.413-.093-.953-.433-1.904-.869-2.858-1.299-1.662-.735-3.846-.586-4.699 1.084-.229.448-.307.969-.214 1.466.977 4.982 1.991 9.957 2.987 14.935.044.22.58.122.77-.212 0 0 3.551-6.457 3.551-6.457s.097-.164.218-.271c.154-.134.348-.219.551-.241.166-.018.207 0 .261.006.646.129 1.022.864.723 1.47-1.187 2.158-2.364 4.321-3.561 6.473-.711 1.251-2.59 1.755-3.743.822-.364-.295-.625-.711-.726-1.171-1.029-4.986-2.016-9.981-2.995-14.977-.322-1.709.508-3.537 1.987-4.513 1.657-1.093 3.898-1.054 5.746-.222l2.412 1.096z" fill-rule="nonzero"/></svg>