<svg clip-rule="evenodd" fill-rule="evenodd" height="512" stroke-linejoin="round" stroke-miterlimit="2" viewBox="0 0 24 24" width="512" xmlns="http://www.w3.org/2000/svg"><g id="Icon"><path d="m4.967 12.953-3.19 3.11c-.697.679-.704 1.811-.007 2.508 0 0 3.66 3.66 3.66 3.66.696.696 1.828.689 2.507-.007-.006.007 3.144-3.143 3.144-3.143.292-.293.292-.768 0-1.061-.293-.293-.768-.293-1.061 0l-3.157 3.157c-.101.103-.269.096-.372-.007 0 0-3.66-3.66-3.66-3.66-.104-.104-.111-.272-.007-.373 0 0 3.19-3.11 3.19-3.11.296-.289.302-.764.013-1.06-.289-.297-.764-.303-1.06-.014z"/><path d="m13.03 5.03 1.79-1.79c.318-.317.738-.49 1.18-.49s.862.173 1.18.49c0 0 2.876 2.876 2.876 2.876.764.765 1.194 1.802 1.194 2.884s-.43 2.119-1.194 2.884c0 0-2.176 2.176-2.176 2.176-.267.266-.626.384-.973.353-.012-.001-.023-.002-.034-.002-.278-.012-.541-.14-.753-.351 0 0-3.54-3.54-3.54-3.54-.292-.293-.768-.293-1.06 0-.293.292-.293.768 0 1.06l3.54 3.54c.486.487 1.1.759 1.738.789.76.063 1.553-.2 2.142-.789 0 0 2.176-2.176 2.176-2.176 1.046-1.045 1.634-2.464 1.634-3.944s-.588-2.899-1.634-3.944c0 0-2.876-2.876-2.876-2.876-.602-.603-1.402-.93-2.24-.93s-1.638.327-2.24.93c0 0-1.79 1.79-1.79 1.79-.293.292-.293.768 0 1.06.292.293.768.293 1.06 0z"/><path d="m13 9.919c.815.423 1.848.293 2.53-.388.429-.429.63-.98.63-1.531s-.201-1.101-.63-1.53c0 0-2.59-2.59-2.59-2.59-1.073-1.074-2.807-1.074-3.881 0 0 0-5.18 5.18-5.18 5.18-1.073 1.073-1.073 2.807 0 3.881 0 0 6.18 6.18 6.18 6.18 1.074 1.073 2.808 1.073 3.881 0 0 0 3.43-3.43 3.43-3.43.293-.293.293-.768 0-1.061s-.768-.293-1.061 0l-3.43 3.43c-.486.486-1.272.486-1.759 0 0 0-6.18-6.18-6.18-6.18-.486-.487-.486-1.273 0-1.759 0 0 5.18-5.18 5.18-5.18.487-.487 1.273-.487 1.759 0 0 0 2.59 2.59 2.59 2.59.132.131.191.3.191.469s-.059.339-.191.47c-.258.258-.681.258-.939 0 0 0-1-1-1-1-.245-.245-.627-.291-.923-.109-.295.182-.428.542-.32.872.282.863.291 1.768.044 2.604-.001.003-.002.006-.003.008-.196.69-.571 1.337-1.099 1.865 0 0-.76.76-.76.76-.292.293-.292.768 0 1.061.293.292.768.292 1.061 0l.76-.76c.712-.712 1.216-1.584 1.481-2.513.128-.436.205-.885.229-1.339z"/></g></svg>