<?xml version="1.0"?>
<svg xmlns="http://www.w3.org/2000/svg" viewBox="0 0 32 32" width="512" height="512"><g id="date_treatment_calendar_hospital" data-name="date, treatment, calendar, hospital"><path d="M28.1211,5.8789A2.9815,2.9815,0,0,0,26,5H25V4a1,1,0,0,0-2,0V5H17V4a1,1,0,0,0-2,0V5H12a1,1,0,0,0,0,2h3V8a1,1,0,0,0,2,0V7h6V8a1,1,0,0,0,2,0V7h1a1,1,0,0,1,1,1V26a1,1,0,0,1-1,1H6a1,1,0,0,1-1-1V8A1,1,0,0,1,6,7H7V8A1,1,0,0,0,9,8V4A1,1,0,0,0,7,4V5H6A3.0008,3.0008,0,0,0,3,8V26a3.0008,3.0008,0,0,0,3,3H26a3.0008,3.0008,0,0,0,3-3V8A2.9815,2.9815,0,0,0,28.1211,5.8789Z"/><path d="M16,13a1,1,0,0,0-1,1v3H12a1,1,0,0,0,0,2h3v3a1,1,0,0,0,2,0V19h3a1,1,0,0,0,0-2H17V14A1,1,0,0,0,16,13Z"/></g></svg>
