<svg height="512" viewBox="0 0 32 32" width="512" xmlns="http://www.w3.org/2000/svg"><g id="half_star_rating" data-name="half, star, rating"><path d="m16 18.1465a1 1 0 0 0 1-1v-12a.9985.9985 0 0 0 -.8437-.9873.9879.9879 0 0 0 -1.1075.6787l-2.47 7.6h-7.9919a1 1 0 0 0 -.5879 1.8086l6.4658 4.6982-2.4687 7.6002a1 1 0 0 0 1.5391 1.1172l7.0527-5.123a1 1 0 0 0 -1.1758-1.6172l-4.5635 3.3144 1.7432-5.3652a.9983.9983 0 0 0 -.3633-1.1172l-4.5644-3.3164h5.6416a1 1 0 0 0 .9511-.6914l.7432-2.2871v5.6875a1 1 0 0 0 1 1z"/></g></svg>