<svg clip-rule="evenodd" fill-rule="evenodd" height="512" stroke-linejoin="round" stroke-miterlimit="2" viewBox="0 0 24 24" width="512" xmlns="http://www.w3.org/2000/svg"><g id="Icon"><circle cx="9.25" cy="6.25" r=".75"/><circle cx="14.75" cy="6.25" r=".75"/><path d="m13.084 7.876-1.084.723s-1.084-.723-1.084-.723c-.344-.23-.81-.136-1.04.208s-.136.81.208 1.04l1.5 1c.252.168.58.168.832 0l1.5-1c.344-.23.438-.696.208-1.04s-.696-.438-1.04-.208z"/><path d="m2.305 11.315-.013-.006-.023-.009-.011-.004-.025-.009-.01-.003-.036-.01-.015-.004-.012-.003-.009-.002-.012-.002-.015-.003-.01-.001-.008-.001-.019-.003-.036-.003-.037-.002h-.014-.022l-.017.001-.008.001h-.012l-.008.001-.01.001-.018.002-.006.001-.013.002-.037.006-.015.004c-.059.013-.116.033-.169.06l-.022.012-.032.018-.009.005-.021.014-.009.006-.029.022-.02.015c-.046.038-.088.082-.124.13l-.009.013-.021.031-.007.011-.003.005-.01.016-.004.008-.004.008-.006.01-.004.008-.007.014-.009.02-.006.013-.009.023-.004.011-.009.025-.003.01-.01.036-.004.015-.003.012-.002.009-.002.012-.003.015-.001.01-.001.008-.003.019-.003.036-.002.037v.014c0 5.933 4.817 10.75 10.75 10.75s10.75-4.817 10.75-10.75c0-.254-.128-.491-.341-.629s-.482-.159-.714-.056l-4.192 1.863s-5.193-2.361-5.193-2.361c-.197-.089-.423-.089-.62 0l-5.193 2.361s-4.192-1.863-4.192-1.863zm.521 1.873c.583 4.545 4.471 8.062 9.174 8.062s8.591-3.517 9.174-8.062l-3.369 1.497c-.196.087-.42.086-.615-.002 0 0-5.19-2.359-5.19-2.359l-5.19 2.359c-.195.088-.419.089-.615.002z"/><path d="m6.744 13.403s-.241-1.849-.53-4.064c-.218-1.665.293-3.343 1.401-4.604 1.107-1.262 2.705-1.985 4.384-1.985h.002c1.679 0 3.277.723 4.384 1.985 1.108 1.261 1.619 2.939 1.401 4.604-.289 2.215-.53 4.064-.53 4.064-.053.41.237.787.647.841.41.053.787-.237.841-.647 0 0 .241-1.849.53-4.064.273-2.093-.369-4.202-1.761-5.788-1.393-1.586-3.401-2.495-5.512-2.495-.001 0-.001 0-.002 0-2.111 0-4.119.909-5.512 2.495-1.392 1.586-2.034 3.695-1.761 5.788.289 2.215.53 4.064.53 4.064.054.41.431.7.841.647.41-.054.7-.431.647-.841z"/><path d="m5.03 12.505-.627-.627c-.921-.921-1.509-1.975-1.631-2.864-.058-.415-.022-.787.217-1.025.184-.185.453-.244.757-.239.431.008.919.152 1.422.4.371.184.821.031 1.004-.34.184-.371.032-.821-.34-1.004-1.576-.78-3.082-.7-3.904.122-.542.542-.772 1.348-.642 2.291.158 1.147.869 2.532 2.056 3.719 0 0 .628.628.628.628.292.293.768.293 1.06 0 .293-.293.293-.768 0-1.061z"/><path d="m20.03 13.566.628-.628c1.187-1.187 1.898-2.572 2.056-3.719.13-.943-.1-1.749-.642-2.291-.83-.83-2.36-.902-3.954-.098-.37.187-.518.639-.332 1.008.187.37.638.518 1.008.332.51-.258 1.007-.409 1.446-.419.31-.008.584.05.771.238.239.238.275.61.217 1.025-.122.889-.71 1.943-1.631 2.864 0 0-.627.627-.627.627-.293.293-.293.768 0 1.061.292.293.768.293 1.06 0z"/></g></svg>