<svg clip-rule="evenodd" fill-rule="evenodd" height="512" stroke-linejoin="round" stroke-miterlimit="2" viewBox="0 0 24 24" width="512" xmlns="http://www.w3.org/2000/svg"><g id="Icon"><path d="m10.069 16.741c.203.032.409-.021.572-.146s.267-.311.289-.515c.17-1.576.8-2.739 1.262-3.403 1.205 1.655 1.243 3.335 1.243 3.335.003.213.097.414.258.554s.373.205.585.178c1.838-.23 3.017-.882 3.753-1.728 1.11-1.277 1.236-3.053.889-4.788-.526-2.63-2.101-5.128-2.101-5.128-.162-.256-.461-.39-.759-.34-.298.051-.537.275-.606.569-.101.436-.252.838-.424 1.198-.164-.813-.5-1.55-.915-2.199-1.193-1.867-3.046-2.972-3.046-2.972-.247-.148-.558-.141-.798.019-.241.159-.369.441-.329.727.241 1.754-.808 2.75-1.898 3.796-1.382 1.329-2.857 2.708-3.105 5.022-.266 2.484 1.046 3.957 2.435 4.805 1.315.804 2.695 1.016 2.695 1.016zm-.499-1.665c-.398-.124-.912-.324-1.414-.631-.975-.595-1.912-1.622-1.726-3.365.205-1.914 1.51-3.001 2.654-4.1 1.077-1.035 2.036-2.075 2.313-3.506.295.259.616.575.923.941.889 1.062 1.676 2.568 1.145 4.373-.095.325.038.672.325.85.288.178.658.141.905-.089 0 0 .921-.855 1.619-2.242.418.86.897 2.022 1.135 3.215.253 1.266.26 2.578-.55 3.51-.439.505-1.109.88-2.065 1.096-.181-.985-.688-2.654-2.106-4.145-.138-.145-.328-.229-.527-.233-.2-.004-.394.072-.538.211 0 0-1.551 1.479-2.093 4.115z"/><path d="m17.947 17.288-12 4c-.392.131-.605.556-.474.949s.556.605.949.475l12-4c.392-.131.605-.556.474-.949s-.556-.605-.949-.475z"/><path d="m18.422 21.288-3.185-1.061c-.393-.131-.818.082-.949.474-.13.393.082.818.475.949l3.184 1.062c.393.13.818-.082.949-.475s-.082-.818-.474-.949z"/><path d="m12.422 19.288-6-2c-.393-.13-.818.082-.949.475s.082.818.474.949l6 2c.393.13.818-.082.949-.475s-.082-.818-.474-.949z"/></g></svg>