<svg height="512" viewBox="0 0 32 32" width="512" xmlns="http://www.w3.org/2000/svg"><g id="joystick_pc_game" data-name="joystick, pc, game"><path d="m28.0078 11.5459c-1.2832-3.1-2.8877-3.75-4.0078-3.75a8.6394 8.6394 0 0 0 -3.9092 1.0024 10.34 10.34 0 0 1 -2.2949.8247 1 1 0 0 0 -.7959.9776.99.99 0 0 0 .0215.206 1.0015 1.0015 0 0 0 1.1826.7745 12.3315 12.3315 0 0 0 2.7158-.9624 6.793 6.793 0 0 1 3.0801-.8228c.7881 0 1.4736 1.1025 1.8125 1.7593a20.6376 20.6376 0 0 1 1.7646 8.436 4.8677 4.8677 0 0 1 -.2841 2.0977c-.5469.5459-2.9961-.8233-4.6182-1.73-2.251-1.26-4.5791-2.5625-6.6748-2.5625s-4.4238 1.3027-6.6748 2.5625c-1.62.9072-4.07 2.2744-4.5986 1.752a4.9222 4.9222 0 0 1 -.2979-2.1524 20.5174 20.5174 0 0 1 1.7588-8.4028c.3389-.6573 1.0244-1.7598 1.8125-1.7598a6.7942 6.7942 0 0 1 3.1348.8315 11.9891 11.9891 0 0 0 2.667.9532 1 1 0 0 0 .4121-1.9571 10.0594 10.0594 0 0 1 -2.2432-.813 8.6426 8.6426 0 0 0 -3.9707-1.0146c-1.12 0-2.7246.65-4.0078 3.75a24.57 24.57 0 0 0 -1.5722 8.3164c0 1.6514.2549 3.0225.8731 3.6406 1.6172 1.62 4.2353.1534 7.0088-1.3984 1.9336-1.082 4.125-2.3086 5.6982-2.3086s3.7646 1.2266 5.6982 2.3086c1.917 1.0723 3.76 2.1035 5.25 2.1035a2.3775 2.3775 0 0 0 1.7588-.7051c.6182-.6181.8731-1.9892.8731-3.6406a24.57 24.57 0 0 0 -1.5724-8.3164z"/><circle cx="22" cy="12.796" r="1"/><circle cx="22" cy="16.788" r="1"/><circle cx="24" cy="14.796" r="1"/><circle cx="20" cy="14.804" r="1"/><path d="m10 17.7959a1 1 0 0 0 1-1v-1h1a1 1 0 0 0 0-2h-1v-1a1 1 0 0 0 -2 0v1h-1a1 1 0 0 0 0 2h1v1a1 1 0 0 0 1 1z"/></g></svg>