<svg clip-rule="evenodd" fill-rule="evenodd" stroke-linejoin="round" stroke-miterlimit="1.414" viewBox="0 0 32 32" xmlns="http://www.w3.org/2000/svg" xmlns:serif="http://www.serif.com/"><path id="coupon-discount-ticket" d="m0 0h32v32h-32z" fill="none"/><path d="m10.998 12.827c-.137-.047-.27-.104-.399-.172-.659-.348-1.175-.947-1.43-1.654h-5.169c-.852-.04-1.411-1.281-.541-1.84.147-.095.231-.144.541-.159h5.998c.529.026.974.451 1 .993.003.078.019.266.088.417.353.781 1.904.739 1.911-.417 0 0 .06-.517.368-.768.176-.144.4-.214.632-.225h12c1.551.01 2.965 1.344 2.995 2.961.017 2.679.001 5.359.001 8.039-.01 1.558-1.349 2.986-2.996 2.996h-12c-.528-.026-.974-.442-1-.993-.003-.078-.019-.266-.088-.417-.353-.781-1.904-.739-1.911.417 0 0-.042.451-.295.702-.185.184-.44.278-.705.291h-5.998c-.537-.025-.975-.451-1-1v-7.997c.029-.61.6-1.094 1.235-.972.435.128.743.512.764.972v6.998h4.17s.203-.522.492-.881c.346-.429.817-.742 1.337-.922v-1.197c.005-.182.022-.233.056-.33.123-.352.456-.621.832-.663.107-.012.133-.006.167-.005.182.016.232.035.327.075.328.136.571.456.611.811.005.05.005.063.006.112v1.175c.137.046.27.103.399.171.659.348 1.175.947 1.429 1.654 3.728 0 7.455.023 11.182-.001.515-.009.976-.449.986-.986.017-2.675.017-5.349 0-8.024-.01-.52-.457-.983-1.003-.987h-11.165c0 .002-.215.555-.537.936-.341.403-.794.698-1.291.87v1.194c-.021.76-1.038 1.306-1.666.745-.181-.162-.3-.392-.327-.633-.006-.05-.005-.063-.006-.112z" fill-rule="nonzero"/></svg>