<svg clip-rule="evenodd" fill-rule="evenodd" stroke-linejoin="round" stroke-miterlimit="2" viewBox="0 0 32 32" xmlns="http://www.w3.org/2000/svg" xmlns:serif="http://www.serif.com/"><path id="erase-eraser" d="m0 0h32v32h-32z" fill="none"/><path d="m15.835 22.792 5.306-5.307c.578-.525 1.651-.183 1.709.638.02.278-.003.464-.291.78-2.684 2.684-5.359 5.376-8.051 8.052-1.881 1.845-4.89 2.423-7.312 1.388-2.645-1.13-4.358-4.12-3.998-6.977.183-1.453.861-2.833 1.9-3.879l14.038-14.038c.338-.308.352-.33.848-.284.346.065.409.138.57.284l8.021 8.021c.363.398.371 1.01 0 1.418l-2.966 2.965c-.089.081-.189.141-.296.182-.205.119-.459.156-.744.056-.136-.048-.211-.079-.378-.238l-7.316-7.316c-2.557 2.542-5.117 5.079-7.659 7.636zm-8.031-5.195c-.444.449-.887.899-1.329 1.35-1.741 1.797-1.67 5.02.218 6.726 1.742 1.573 4.68 1.569 6.428-.168l1.296-1.295zm17.096-3.87 1.548-1.548-6.603-6.603c-.516.516-1.032 1.031-1.549 1.546z"/></svg>