<svg height="512" viewBox="0 0 32 32" width="512" xmlns="http://www.w3.org/2000/svg"><g id="Layer_35" data-name="Layer 35"><path d="m13 15h2v2h-2z"/><path d="m9 15h2v2h-2z"/><path d="m13 19h2v2h-2z"/><path d="m9 19h2v2h-2z"/><path d="m17 15h2v2h-2z"/><path d="m21 15h2v2h-2z"/><path d="m17 19h2v2h-2z"/><path d="m21 19h2v2h-2z"/><path d="m28 27h-1v-19a1.0009 1.0009 0 0 0 -.6289-.9287l-10-4a1.005 1.005 0 0 0 -.7422 0l-10 4a1.0009 1.0009 0 0 0 -.6289.9287v16a1 1 0 0 0 2 0v-15.3228l9-3.6 9 3.6v18.3228h-6v-3a1 1 0 0 0 -1-1h-4a1 1 0 0 0 -1 1v3h-9a1 1 0 0 0 0 2h24a1 1 0 0 0 0-2zm-13-2h2v2h-2z"/><path d="m16 7a1 1 0 0 0 -1 1v1h-1a1 1 0 0 0 0 2h1v1a1 1 0 0 0 2 0v-1h1a1 1 0 0 0 0-2h-1v-1a1 1 0 0 0 -1-1z"/></g></svg>