<svg clip-rule="evenodd" fill-rule="evenodd" height="512" stroke-linejoin="round" stroke-miterlimit="2" viewBox="0 0 24 24" width="512" xmlns="http://www.w3.org/2000/svg"><g id="Icon"><path d="m11.735 13.843c.014-.119.015-.225.015-.343 0-.212-.012-.412-.037-.612-.301-2.608-2.519-4.638-5.213-4.638l-.549.024c-2.648.28-4.701 2.508-4.701 5.226 0 2.905 2.345 5.25 5.25 5.25 1.083 0 2.087-.327 2.926-.886.344-.23.438-.696.208-1.04-.23-.345-.696-.438-1.04-.208-.601.4-1.319.634-2.094.634-2.075 0-3.75-1.675-3.75-3.75 0-1.936 1.457-3.524 3.34-3.732.135-.01.273-.018.41-.018 1.924 0 3.508 1.449 3.724 3.316l.026.434c0 .061.001.116-.006.177-.045.411.252.783.663.828.411.046.783-.251.828-.662z"/><path d="m8.25 17.5c0 2.898 2.352 5.25 5.25 5.25 2.897 0 5.25-2.352 5.25-5.25s-2.353-5.25-5.25-5.25c-2.898 0-5.25 2.352-5.25 5.25zm1.5 0c0-2.07 1.68-3.75 3.75-3.75 2.069 0 3.75 1.68 3.75 3.75s-1.681 3.75-3.75 3.75c-2.07 0-3.75-1.68-3.75-3.75z"/><path d="m13.774 12.928c-.017-.14-.024-.28-.024-.428 0-.064-.001-.121.005-.185.001-.011.002-.022.003-.033.067-1.208.708-2.265 1.649-2.899.601-.4 1.318-.633 2.093-.633 2.075 0 3.75 1.675 3.75 3.75 0 1.942-1.467 3.534-3.36 3.734-.411.044-.71.413-.667.825.044.411.413.71.825.667 2.649-.28 4.702-2.508 4.702-5.226 0-2.905-2.345-5.25-5.25-5.25-1.084 0-2.087.326-2.926.886-.001.001-.002.001-.003.002-1.314.884-2.211 2.359-2.31 4.044-.01.109-.011.208-.011.318 0 .212.011.412.036.612.05.411.425.703.836.652.411-.05.703-.425.652-.836z"/><path d="m6.774 8.928c-.017-.14-.024-.28-.024-.428 0-2.075 1.674-3.75 3.75-3.75 2.075 0 3.75 1.675 3.75 3.75 0 .061.001.116-.005.177-.046.412.251.783.662.828.412.046.783-.251.828-.662.014-.119.015-.224.015-.343 0-2.905-2.345-5.25-5.25-5.25-2.906 0-5.25 2.345-5.25 5.25 0 .212.011.412.036.612.05.411.425.703.836.652.411-.05.703-.425.652-.836z"/><path d="m21.242 2.75c-.083 1.491-.909 2.874-2.249 3.552-1.179.596-2.613.838-4.034.838-.413 0-.75.336-.75.75s.337.75.75.75c1.66 0 3.332-.302 4.711-1 1.917-.97 3.08-2.991 3.08-5.14 0-.69-.558-1.25-1.25-1.25h-2.111c-2.634 0-5.079 1.329-6.507 3.509-.227.346-.13.812.217 1.038.346.227.811.13 1.038-.216 1.152-1.76 3.127-2.831 5.252-2.831z"/><path d="m3.108 2.75h1.562c1.406 0 2.713.759 3.382 1.98.199.363.655.497 1.018.298s.496-.655.297-1.019c-.93-1.698-2.743-2.759-4.697-2.759h-1.931c-.883 0-1.488.894-1.161 1.714l.556 1.385c.696 1.741 2.229 2.971 4.017 3.308.407.077.799-.192.876-.598.076-.407-.192-.8-.599-.876-1.292-.243-2.399-1.133-2.902-2.392z"/><g fill-rule="nonzero"><path d="m14.5 18.75c0 .414-.336.75-.75.75s-.75-.336-.75-.75.336-.75.75-.75.75.336.75.75"/><path d="m7.5 14.75c0 .414-.336.75-.75.75s-.75-.336-.75-.75.336-.75.75-.75.75.336.75.75"/></g></g></svg>