<svg clip-rule="evenodd" fill-rule="evenodd" height="512" stroke-linejoin="round" stroke-miterlimit="2" viewBox="0 0 24 24" width="512" xmlns="http://www.w3.org/2000/svg"><g id="Icon"><path d="m12.826 8.211c.011-.088-.042-.172-.126-.201-.085-.029-.178.006-.223.083-.745 1.278-2.178 3.734-2.662 4.564-.034.058-.034.13-.001.189.034.058.096.094.163.094h1.553s-.217 1.736-.356 2.849c-.011.088.042.172.126.201.085.029.178-.006.223-.083.745-1.278 2.178-3.734 2.662-4.564.034-.058.034-.13.001-.189-.034-.058-.096-.094-.163-.094-.539 0-1.553 0-1.553 0s.217-1.736.356-2.849z"/><path d="m5.25 8c0-.414.336-.75.75-.75s.75.336.75.75v2c0 .414-.336.75-.75.75s-.75-.336-.75-.75z"/><path d="m5.25 14c0-.414.336-.75.75-.75s.75.336.75.75v2c0 .414-.336.75-.75.75s-.75-.336-.75-.75z"/><path d="m20.75 3v18c0 .966-.783 1.75-1.75 1.75h-14c-.967 0-1.75-.784-1.75-1.75v-18c0-.966.783-1.75 1.75-1.75h14c.967 0 1.75.784 1.75 1.75zm-1.5 0c0-.138-.112-.25-.25-.25h-14c-.138 0-.25.112-.25.25v18c0 .138.112.25.25.25h14c.138 0 .25-.112.25-.25z"/><path d="m18.25 5.5v13c0 .966-.783 1.75-1.75 1.75h-9c-.967 0-1.75-.784-1.75-1.75v-13c0-.966.783-1.75 1.75-1.75h9c.967 0 1.75.784 1.75 1.75zm-1.5 0c0-.138-.112-.25-.25-.25h-9c-.138 0-.25.112-.25.25v13c0 .138.112.25.25.25h9c.138 0 .25-.112.25-.25z"/></g></svg>