<svg clip-rule="evenodd" fill-rule="evenodd" height="512" stroke-linejoin="round" stroke-miterlimit="2" viewBox="0 0 24 24" width="512" xmlns="http://www.w3.org/2000/svg"><g id="Icon"><path d="m15.457 13.375 1.091 1.143c.142.148.338.232.543.232s.401-.084.542-.232l1.91-2c.285-.3.274-.775-.025-1.061-.3-.285-.775-.274-1.061.025l-1.366 1.432s-.548-.575-.548-.575c-.286-.299-.761-.31-1.061-.024-.299.285-.31.761-.025 1.06z"/><path d="m17.5 7.75c-2.898 0-5.25 2.352-5.25 5.25s2.352 5.25 5.25 5.25 5.25-2.352 5.25-5.25-2.352-5.25-5.25-5.25zm0 1.5c2.07 0 3.75 1.68 3.75 3.75s-1.68 3.75-3.75 3.75-3.75-1.68-3.75-3.75 1.68-3.75 3.75-3.75z"/><path d="m17.75 6s0-1 0-2c0-1.519-1.231-2.75-2.75-2.75h-10.593c-.838 0-1.642.336-2.235.934-.59.596-.922 1.403-.922 2.246v15.748c0 1.422 1.146 2.572 2.556 2.572h10.787c.838 0 1.642-.336 2.235-.934.59-.596.922-1.403.922-2.246 0-.414-.336-.75-.75-.75s-.75.336-.75.75c0 .446-.175.875-.488 1.19-.31.314-.731.49-1.169.49h-10.787c-.585 0-1.056-.482-1.056-1.072v-15.748c0-.447.175-.875.488-1.19.31-.314.731-.49 1.169-.49h10.593c.69 0 1.25.56 1.25 1.25v2c0 .414.336.75.75.75s.75-.336.75-.75z"/><path d="m7 7.25h5c.414 0 .75-.336.75-.75s-.336-.75-.75-.75h-5c-.414 0-.75.336-.75.75s.336.75.75.75z"/><path d="m5.5 11.25h5c.414 0 .75-.336.75-.75s-.336-.75-.75-.75h-5c-.414 0-.75.336-.75.75s.336.75.75.75z"/><path d="m5.5 14.75h5c.414 0 .75-.336.75-.75s-.336-.75-.75-.75h-5c-.414 0-.75.336-.75.75s.336.75.75.75z"/><path d="m5.5 18.25h6.5c.414 0 .75-.336.75-.75s-.336-.75-.75-.75h-6.5c-.414 0-.75.336-.75.75s.336.75.75.75z"/></g></svg>