<svg clip-rule="evenodd" fill-rule="evenodd" height="512" stroke-linejoin="round" stroke-miterlimit="2" viewBox="0 0 24 24" width="512" xmlns="http://www.w3.org/2000/svg"><g id="Icon"><path d="m4.25 21v.5c0 .69.56 1.25 1.25 1.25h13c.69 0 1.25-.56 1.25-1.25 0-.147 0-.318 0-.5 0-.729-.29-1.429-.805-1.945-.516-.515-1.216-.805-1.945-.805h-10c-.729 0-1.429.29-1.945.805-.515.516-.805 1.216-.805 1.945zm14 .25h-12.5v-.25c0-.332.132-.649.366-.884.235-.234.552-.366.884-.366h10c.332 0 .649.132.884.366.234.235.366.552.366.884z"/><path d="m5.75 17.5v1.5c0 .414.336.75.75.75h11c.414 0 .75-.336.75-.75 0 0 0-.804 0-1.5 0-.966-.783-1.75-1.75-1.75h-9c-.967 0-1.75.784-1.75 1.75zm1.5 0c0-.138.112-.25.25-.25h9c.138 0 .25.112.25.25v.75h-9.5z"/><path d="m9 1.25c-1.519 0-2.75 1.231-2.75 2.75v5c0 .966.783 1.75 1.75 1.75h2.134c-.199.631-.647 1.168-1.259 1.474.001 0-2.625 1.31-2.625 4.276 0 .414.336.75.75.75h10c.414 0 .75-.336.75-.75v-9.059c0-3.419-2.772-6.191-6.19-6.191zm0 1.5h2.56c2.59 0 4.69 2.1 4.69 4.691v8.309h-8.414c.359-1.507 1.71-2.184 1.71-2.184h.001c1.351-.676 2.203-2.056 2.203-3.566 0-.414-.336-.75-.75-.75h-3c-.138 0-.25-.112-.25-.25v-5c0-.69.56-1.25 1.25-1.25z"/><path d="m11.75 10v-3c0-.414-.336-.75-.75-.75s-.75.336-.75.75v3c0 .414.336.75.75.75s.75-.336.75-.75z"/></g></svg>