<svg clip-rule="evenodd" fill-rule="evenodd" height="512" stroke-linejoin="round" stroke-miterlimit="2" viewBox="0 0 24 24" width="512" xmlns="http://www.w3.org/2000/svg"><g id="Icon"><path d="m22.75 6.5c0-.862-.342-1.689-.952-2.298-.609-.61-1.436-.952-2.298-.952h-15c-.862 0-1.689.342-2.298.952-.61.609-.952 1.436-.952 2.298v12c0 .862.342 1.689.952 2.298.609.61 1.436.952 2.298.952h15c.862 0 1.689-.342 2.298-.952.61-.609.952-1.436.952-2.298zm-1.5 0v12c0 .464-.184.909-.513 1.237-.328.329-.773.513-1.237.513h-15c-.464 0-.909-.184-1.237-.513-.329-.328-.513-.773-.513-1.237v-12c0-.464.184-.909.513-1.237.328-.329.773-.513 1.237-.513h15c.464 0 .909.184 1.237.513.329.328.513.773.513 1.237z"/><path d="m16.25 2v3.5c0 .414.336.75.75.75s.75-.336.75-.75v-3.5c0-.414-.336-.75-.75-.75s-.75.336-.75.75z"/><path d="m6.25 2v3.5c0 .414.336.75.75.75s.75-.336.75-.75v-3.5c0-.414-.336-.75-.75-.75s-.75.336-.75.75z"/><path d="m2 10.75h20c.414 0 .75-.336.75-.75s-.336-.75-.75-.75h-20c-.414 0-.75.336-.75.75s.336.75.75.75z"/></g></svg>