<svg clip-rule="evenodd" fill-rule="evenodd" height="512" stroke-linejoin="round" stroke-miterlimit="2" viewBox="0 0 24 24" width="512" xmlns="http://www.w3.org/2000/svg"><g id="Icon"><path d="m18.792 3.716c0-.855-.619-1.585-1.463-1.726l-3.562-.594c-1.17-.195-2.364-.195-3.534 0l-3.562.594c-.844.141-1.463.871-1.463 1.726v1.327c0 .855.619 1.585 1.463 1.726l3.562.594c1.17.195 2.364.195 3.534 0l3.562-.594c.844-.141 1.463-.871 1.463-1.726 0-.415 0-.912 0-1.327zm-1.5 0v1.327c0 .122-.089.226-.209.246 0 0-3.562.594-3.562.594-1.007.168-2.035.168-3.042 0 0 0-3.562-.594-3.562-.594-.12-.02-.209-.124-.209-.246 0-.415 0-.912 0-1.327 0-.122.089-.226.209-.246 0 0 3.562-.594 3.562-.594 1.007-.168 2.035-.168 3.042 0 0 0 3.562.594 3.562.594.12.02.209.124.209.246z"/><path d="m12.158 10.925-1.46.973c-.348.232-.557.623-.557 1.04 0 .418.209.809.557 1.041l1.46.973-1.46.974c-.348.232-.557.622-.557 1.04s.209.808.557 1.04l1.46.974-1.368.912c-.37.247-.581.673-.554 1.118.028.445.29.841.689 1.04l1.243.622c.37.185.821.035 1.006-.336.185-.37.035-.821-.335-1.006l-.858-.429 1.321-.881c.348-.232.557-.622.557-1.04s-.209-.808-.557-1.04l-1.46-.974 1.46-.974c.348-.231.557-.622.557-1.04s-.209-.808-.557-1.04l-1.46-.974 1.46-.973c.348-.232.557-.623.557-1.04 0-.418-.209-.809-.557-1.041 0 0-.441-.294-.441-.294-.069-.046-.111-.124-.111-.208v-2.485c0-.414-.336-.75-.75-.75s-.75.336-.75.75v2.485c0 .586.292 1.132.779 1.457z"/></g></svg>