<svg clip-rule="evenodd" fill-rule="evenodd" height="512" stroke-linejoin="round" stroke-miterlimit="2" viewBox="0 0 24 24" width="512" xmlns="http://www.w3.org/2000/svg"><g id="Icon"><path d="m6.316 3.664c-.116.233-.104.509.033.73s.378.356.638.356h10.013c.26 0 .501-.135.638-.356s.149-.497.033-.729l-.724-1.448c-.296-.593-.902-.967-1.565-.967-1.493 0-5.284 0-6.777 0-.662 0-1.268.374-1.565.967l-.724 1.447zm1.885-.414.181-.362c.042-.085.129-.138.223-.138h6.777c.095 0 .181.053.224.138 0 0 .18.362.18.362z"/><path d="m6.987 19.25c-.26 0-.501.135-.638.356s-.149.497-.033.73l.724 1.447c.297.593.903.967 1.565.967h6.777c.663 0 1.269-.374 1.565-.967l.724-1.448c.116-.232.104-.508-.033-.729s-.378-.356-.638-.356zm1.214 1.5h7.585s-.18.362-.18.362c-.043.085-.129.138-.224.138h-6.777c-.094 0-.181-.053-.223-.138z"/><path d="m7 3.25c-.414 0-.75.336-.75.75v16c0 .414.336.75.75.75h10c.414 0 .75-.336.75-.75v-16c0-.414-.336-.75-.75-.75zm.75 1.5h8.5v14.5h-8.5z"/><path d="m11.75 20c0-2.899 2.351-5.25 5.25-5.25.414 0 .75-.336.75-.75s-.336-.75-.75-.75c-3.727 0-6.75 3.023-6.75 6.75 0 .414.336.75.75.75s.75-.336.75-.75z"/><path d="m12.25 4c0 2.899-2.351 5.25-5.25 5.25-.414 0-.75.336-.75.75s.336.75.75.75c3.727 0 6.75-3.023 6.75-6.75 0-.414-.336-.75-.75-.75s-.75.336-.75.75z"/></g></svg>