<svg clip-rule="evenodd" fill-rule="evenodd" height="512" stroke-linejoin="round" stroke-miterlimit="2" viewBox="0 0 24 24" width="512" xmlns="http://www.w3.org/2000/svg"><g id="Icon"><path d="m22.75 7c0-.464-.184-.909-.513-1.237-.328-.329-.773-.513-1.237-.513-3.414 0-14.586 0-18 0-.464 0-.909.184-1.237.513-.329.328-.513.773-.513 1.237v10c0 .464.184.909.513 1.237.328.329.773.513 1.237.513h18c.464 0 .909-.184 1.237-.513.329-.328.513-.773.513-1.237zm-1.5 0v10c0 .066-.026.13-.073.177s-.111.073-.177.073h-18c-.066 0-.13-.026-.177-.073s-.073-.111-.073-.177v-10c0-.066.026-.13.073-.177s.111-.073.177-.073h18c.066 0 .13.026.177.073s.073.111.073.177z"/><path d="m3.202 18.352s1.028 1.934 1.654 3.11c.453.853 1.513 1.177 2.366.723 1.986-1.056 6.63-3.525 6.63-3.525.366-.194.505-.649.31-1.014-.194-.366-.649-.505-1.014-.31 0 0-4.644 2.469-6.63 3.525-.122.065-.273.018-.338-.104 0 0-1.653-3.109-1.653-3.109-.195-.366-.649-.505-1.015-.31-.365.194-.504.649-.31 1.014z"/><path d="m20.798 5.648s-1.028-1.934-1.654-3.11c-.453-.853-1.513-1.177-2.366-.723-1.986 1.056-6.63 3.525-6.63 3.525-.366.194-.505.649-.31 1.014.194.366.649.505 1.014.31 0 0 4.644-2.469 6.63-3.525.122-.065.273-.018.338.104 0 0 1.653 3.109 1.653 3.109.195.366.649.505 1.015.31.365-.194.504-.649.31-1.014z"/><path d="m12.25 13c0 .138-.112.25-.25.25h-1c-.414 0-.75.336-.75.75s.336.75.75.75h1c.966 0 1.75-.784 1.75-1.75s-.784-1.75-1.75-1.75c-.138 0-.25-.112-.25-.25s.112-.25.25-.25h1c.414 0 .75-.336.75-.75s-.336-.75-.75-.75h-1c-.966 0-1.75.784-1.75 1.75s.784 1.75 1.75 1.75c.138 0 .25.112.25.25z"/><path d="m12.75 10v-1c0-.414-.336-.75-.75-.75s-.75.336-.75.75v1c0 .414.336.75.75.75s.75-.336.75-.75z"/><path d="m12.75 15v-1c0-.414-.336-.75-.75-.75s-.75.336-.75.75v1c0 .414.336.75.75.75s.75-.336.75-.75z"/><path d="m16.5 12.75h2c.414 0 .75-.336.75-.75s-.336-.75-.75-.75h-2c-.414 0-.75.336-.75.75s.336.75.75.75z"/><path d="m5.5 12.75h2c.414 0 .75-.336.75-.75s-.336-.75-.75-.75h-2c-.414 0-.75.336-.75.75s.336.75.75.75z"/></g></svg>