<svg clip-rule="evenodd" fill-rule="evenodd" stroke-linejoin="round" stroke-miterlimit="1.414" viewBox="0 0 32 32" xmlns="http://www.w3.org/2000/svg" xmlns:serif="http://www.serif.com/"><path id="search-magnify-glass-zoom" d="m0 0h32v32h-32z" fill="none"/><path d="m17.643 18.899c-1.537 1.213-3.464 1.94-5.427 1.982-2.988.064-5.962-1.451-7.661-3.96-1.092-1.615-1.647-3.588-1.543-5.537.154-2.874 1.762-5.623 4.221-7.167.43-.27.979-.408 1.386-.098.539.409.466 1.328-.176 1.707-2.103 1.261-3.46 3.657-3.438 6.099.031 3.472 2.939 6.722 6.604 6.941 3.036.182 6.083-1.797 7.074-4.8.934-2.831-.17-6.219-2.626-7.947-.672-.472-1.425-.82-2.222-1.036 0 0-.808-.393-.734-1.075.048-.444.424-.83.869-.887.15-.019.187-.005.235-.002.293.043.582.15.868.252 2.392.857 4.381 2.782 5.327 5.148 1.072 2.68.761 5.868-.841 8.301-.152.232-.316.455-.49.671l1.448 1.447c.391-.185.822-.288 1.259-.295.036-.001.036-.001.072 0 .765.013 1.506.318 2.061.853 1.425 1.407 2.832 2.832 4.249 4.248 1.156 1.171 1.133 3.306-.138 4.428-1.08.955-2.866.965-3.958-.024-.027-.025-.054-.05-.081-.076-1.441-1.423-2.865-2.865-4.298-4.298-.865-.875-1.064-2.287-.57-3.405zm4.156 1.748c-.775.014-1.302 1.083-.705 1.703 1.42 1.438 2.849 2.867 4.287 4.287.472.454 1.401.256 1.614-.435.11-.356.014-.762-.248-1.033-1.403-1.422-2.816-2.834-4.238-4.238-.189-.182-.447-.285-.71-.284z" fill-rule="nonzero"/></svg>