<svg clip-rule="evenodd" fill-rule="evenodd" height="512" stroke-linejoin="round" stroke-miterlimit="2" viewBox="0 0 24 24" width="512" xmlns="http://www.w3.org/2000/svg"><g id="Icon"><path d="m20.75 20v-1.373c0-1.281-.813-2.421-2.02-2.839.003.001-4.573-2.022-4.573-2.022-.021-.009-.043-.018-.066-.025-.466-.156-.766-.612-.726-1.102.001-.012.002-.023.003-.035l.344-9.541c.017-.475-.159-.936-.489-1.278s-.785-.535-1.26-.535c-1.709 0-5.105 0-6.858 0-.494 0-.966.209-1.298.576-.331.366-.493.856-.443 1.348l.57 5.703c.209 2.091-.679 10.041-.679 10.041-.003.027-.005.054-.005.082v1c0 .729.29 1.429.805 1.945.516.515 1.216.805 1.945.805h12c.729 0 1.429-.29 1.945-.805.515-.516.805-1.216.805-1.945zm-1.5-1.373v1.373c0 .332-.132.649-.366.884-.235.234-.552.366-.884.366h-12c-.332 0-.649-.132-.884-.366-.234-.235-.366-.552-.366-.884v-.96c.069-.633.883-8.246.676-10.313 0 0-.57-5.702-.57-5.702-.007-.07.016-.14.064-.193.047-.052.114-.082.185-.082h6.858c.068 0 .133.028.18.076.047.049.073.115.07.183 0 0-.344 9.526-.344 9.526-.087 1.163.621 2.239 1.721 2.62-.01-.004 4.566 2.019 4.566 2.019.021.009.043.018.066.025.614.205 1.028.781 1.028 1.428z"/><path d="m4.5 19.75h15.5c.414 0 .75-.336.75-.75s-.336-.75-.75-.75h-15.5c-.414 0-.75.336-.75.75s.336.75.75.75z"/></g></svg>