<svg clip-rule="evenodd" fill-rule="evenodd" stroke-linejoin="round" stroke-miterlimit="1.414" viewBox="0 0 32 32" xmlns="http://www.w3.org/2000/svg" xmlns:serif="http://www.serif.com/"><path id="termometer-celcius-hot-sick" d="m0 0h32v32h-32z" fill="none"/><path d="m10.03 3c1.559.029 2.956 1.365 2.966 3v14.019c.359.268 1.058.957 1.448 1.714 1.031 1.999.494 4.679-1.244 6.131-1.611 1.346-4.093 1.521-5.88.39-1.902-1.204-2.807-3.783-2.039-5.922.406-1.132 1.201-2.182 2.289-2.686.721-.334 1.737.529 1.313 1.362-.058.114-.137.216-.233.299-.214.188-.486.316-.702.517-1.199 1.115-1.225 3.256 0 4.396.924.861 2.419 1.043 3.522.417 1.186-.673 1.796-2.213 1.39-3.512-.224-.713-.723-1.328-1.37-1.706 0 0-.473-.372-.496-.865 0-4.858.09-9.718 0-14.576-.024-.751-1.07-1.277-1.682-.709-.202.188-.319.459-.32.737v10.008c-.004.084-.002.106-.018.189-.152.789-1.448 1.094-1.873.269-.073-.14-.104-.297-.111-.458v-10.014c.009-1.547 1.316-2.949 2.928-2.999.038-.001.075-.001.112-.001zm16.033 2.003c.724.059 1.226.997.731 1.622-.42.531-1.244.315-1.952.615-1.432.606-2.214 2.434-1.614 3.901.449 1.098 1.583 1.866 2.785 1.87 0 0 .557.058.815.424.433.614-.046 1.599-.947 1.576-2.273-.058-4.395-1.863-4.798-4.119-.507-2.831 1.807-5.86 4.894-5.89.043 0 .043 0 .086.001zm-8.023-2.003c1.69.032 3.179 1.683 2.935 3.422-.198 1.417-1.535 2.584-2.974 2.584-1.731 0-3.276-1.746-2.956-3.533.242-1.355 1.505-2.446 2.918-2.473zm-.052 2.002c-.767.015-1.313 1.105-.686 1.717.629.614 2.174-.098 1.58-1.192-.173-.318-.522-.527-.894-.525z" fill-rule="nonzero"/></svg>