<svg clip-rule="evenodd" fill-rule="evenodd" stroke-linejoin="round" stroke-miterlimit="1.414" viewBox="0 0 32 32" xmlns="http://www.w3.org/2000/svg" xmlns:serif="http://www.serif.com/"><path id="match-league-versus-" d="m0 0h32v32h-32z" fill="none"/><path d="m8.988 22.016c-.011.543-.419.99-1.002 1.002h-4.007c-.771-.015-1.312-1.046-.743-1.674.187-.206.46-.324.743-.33h3.005v-2.003h-3.005c-.892-.018-1.387-1.459-.424-1.909.132-.062.276-.092.424-.095 1.349 0 2.698-.025 4.046.001.529.031.952.437.963 1.001v1.002h2.003v-6.011h-2.003v1.002c-.003.161-.018.214-.049.31-.129.397-.524.683-.953.692h-4.007c-.892-.018-1.387-1.459-.424-1.909.132-.062.276-.092.424-.095h3.005v-2.003h-3.005c-.895-.018-1.365-1.469-.424-1.909.132-.062.276-.092.424-.094 1.349 0 2.698-.026 4.046 0 .529.031.952.438.963 1.001v1.002h3.005c.019.001.037.001.056.002.182.015.232.035.327.074.367.152.605.446.619.926v3.005h6.01v-3.005c.005-.183.022-.234.056-.331.138-.392.447-.657.946-.671h3.005v-1.002c.003-.161.018-.214.049-.309.129-.398.524-.684.953-.692 1.349 0 2.698-.027 4.047 0 .868.052 1.339 1.462.384 1.909-.132.061-.276.091-.424.094h-3.005v2.003h3.005c.749.015 1.276.987.794 1.613-.187.242-.484.385-.794.391h-4.007c-.544-.011-.99-.419-1.002-1.002v-1.002h-2.003v6.011h2.003v-1.002c.003-.161.018-.214.049-.309.129-.398.524-.684.953-.693 1.349 0 2.698-.026 4.047.001.877.053 1.324 1.469.384 1.909-.132.061-.276.091-.424.094h-3.005v2.003h3.005c.892.018 1.387 1.459.424 1.91-.132.061-.276.091-.424.094h-4.007c-.161-.003-.214-.018-.31-.049-.398-.129-.683-.524-.692-.953v-1.002h-3.005c-.183-.005-.234-.022-.331-.056-.392-.137-.657-.446-.671-.945v-3.006h-6.01v3.006c-.005.182-.022.233-.056.33-.138.393-.447.657-.946.671h-3.005z" fill-rule="nonzero"/></svg>