<svg clip-rule="evenodd" fill-rule="evenodd" stroke-linejoin="round" stroke-miterlimit="2" viewBox="0 0 32 32" xmlns="http://www.w3.org/2000/svg" xmlns:serif="http://www.serif.com/"><path id="parabola-satelite-signal-" d="m0 0h32v32h-32z" fill="none"/><path d="m9.3 16.083c-.766-1.341-1.282-2.825-1.486-4.373-.365-2.76.094-5.638 1.281-8.126 0 0 .439-.631 1.036-.581.355.059.368.087.583.285l5.565 5.564 5.414-1.805c.124-.038.251-.054.38-.049.433.038.479.139.609.258.29.263.41.621.276 1.056l-.968 2.904c-.338.939-2.329.775-1.897-.632l.335-1.007-2.569.856 5.858 5.857c.675.734-.356 2.39-1.415 1.415l-11.92-11.92c-1.257 3.882-.731 8.371 2.237 11.408 1.424 1.459 3.263 2.507 5.269 2.905 2.581.513 5.363.109 7.664-.989 0 0 .949-.242 1.318.378.338.568-.001 1.248-.874 1.613-4.743 1.984-10.611 1.566-14.543-2.245-.261-.252-.51-.516-.748-.79l-3.268 8.935h3.606c.003 0 1.053.263.998 1.068-.035.506-.392.911-.998.932h-5.037c-.462-.016-.496-.114-.633-.226-.322-.264-.467-.627-.306-1.118zm4.762 6.417c.154.012.199.027.286.058.32.116.541.335.636.724l1.001 4.501c.17.853-1.08 1.681-1.755.845-.096-.119-.161-.26-.198-.411l-1-4.501c-.121-.602.351-1.211.988-1.217.014 0 .028.001.042.001z"/></svg>