<svg clip-rule="evenodd" fill-rule="evenodd" height="512" stroke-linejoin="round" stroke-miterlimit="2" viewBox="0 0 24 24" width="512" xmlns="http://www.w3.org/2000/svg"><g id="Icon"><path d="m1.25 2v20c0 .414.336.75.75.75h20c.414 0 .75-.336.75-.75s-.336-.75-.75-.75h-19.25v-19.25c0-.414-.336-.75-.75-.75s-.75.336-.75.75z"/><path d="m8 22.75c.414 0 .75-.336.75-.75v-16c0-.414-.336-.75-.75-.75h-3.5c-.414 0-.75.336-.75.75v16c0 .414.336.75.75.75zm-.75-1.5h-2v-14.5h2z"/><path d="m14 22.75c.414 0 .75-.336.75-.75v-10c0-.414-.336-.75-.75-.75h-3.5c-.414 0-.75.336-.75.75v10c0 .414.336.75.75.75zm-.75-1.5h-2v-8.5h2z"/><path d="m20 22.75c.414 0 .75-.336.75-.75v-14c0-.414-.336-.75-.75-.75h-3.5c-.414 0-.75.336-.75.75v14c0 .414.336.75.75.75zm-.75-1.5h-2v-12.5h2z"/><path d="m4.5 4.25h3.5c.414 0 .75-.336.75-.75s-.336-.75-.75-.75h-3.5c-.414 0-.75.336-.75.75s.336.75.75.75z"/><path d="m10.5 10.25h3.5c.414 0 .75-.336.75-.75s-.336-.75-.75-.75h-3.5c-.414 0-.75.336-.75.75s.336.75.75.75z"/><path d="m16.5 6.25h3.5c.414 0 .75-.336.75-.75s-.336-.75-.75-.75h-3.5c-.414 0-.75.336-.75.75s.336.75.75.75z"/></g></svg>