<svg clip-rule="evenodd" fill-rule="evenodd" stroke-linejoin="round" stroke-miterlimit="2" viewBox="0 0 32 32" xmlns="http://www.w3.org/2000/svg" xmlns:serif="http://www.serif.com/"><path id="magnet-pole-u" d="m0 0h32v32h-32z" fill="none"/><path d="m4.995 11.013c-.001 1.69-.001 3.38.005 5.07.044 4.683 3.376 9.169 7.921 10.49 5.008 1.456 10.912-1.099 13.13-6.106.621-1.401.939-2.936.943-4.457v-1.998c.037-.777 1.034-1.293 1.655-.756.21.182.324.33.345.756 0 1.291.049 2.577-.131 3.84-.641 4.479-3.786 8.526-8.039 10.227-3.845 1.538-8.42 1.098-11.899-1.161-3.615-2.349-5.911-6.516-5.925-10.905v-11.999c.025-.536.451-.974 1-.999h5.998c.031.001.062.002.093.004.5.07.883.483.907.995v5.999c-.043.913-.558.98-.952.999-.014 0-.028.001-.042.001h-.006-5.003zm18.005 0c.001 1.68 0 3.361-.005 5.042-.028 2.984-2.149 5.816-5.004 6.665-2.333.694-5.011.06-6.787-1.609-1.375-1.293-2.188-3.146-2.205-5.056v-2.043s.253-1.1 1.164-.986c.464.097.815.503.835.986 0 1.302-.117 2.606.324 3.771.937 2.471 4.049 3.881 6.56 2.858 1.822-.741 3.107-2.621 3.114-4.631v-11.996c.022-.533.46-.977.999-.999h5.999c.533.022.977.46 1 .999v5.999c-.016.379-.093.492-.199.607-.14.224-.397.383-.801.393zm3.994-2v-3.999h-3.999c0 1.333.002 2.666.003 3.999zm-21.997 0h4.002v-3.999h-3.999c0 1.333-.002 2.666-.003 3.999z"/></svg>