<svg clip-rule="evenodd" fill-rule="evenodd" height="512" stroke-linejoin="round" stroke-miterlimit="2" viewBox="0 0 24 24" width="512" xmlns="http://www.w3.org/2000/svg"><g id="Icon"><path d="m7.75 20.75c0-1.331 0-3.669 0-5 0-.464-.184-.909-.513-1.237-.328-.329-.773-.513-1.237-.513h-2c-.464 0-.909.184-1.237.513-.329.328-.513.773-.513 1.237v5c0 .464.184.909.513 1.237.328.329.773.513 1.237.513h2c.464 0 .909-.184 1.237-.513.329-.328.513-.773.513-1.237zm-1.5-5v5c0 .066-.026.13-.073.177s-.111.073-.177.073h-2c-.066 0-.13-.026-.177-.073s-.073-.111-.073-.177v-5c0-.066.026-.13.073-.177s.111-.073.177-.073h2c.066 0 .13.026.177.073s.073.111.073.177z"/><path d="m14.75 20.75v-8c0-.967-.784-1.75-1.75-1.75h-2c-.966 0-1.75.783-1.75 1.75v8c0 .967.784 1.75 1.75 1.75h2c.966 0 1.75-.783 1.75-1.75zm-1.5 0c0 .138-.112.25-.25.25h-2c-.138 0-.25-.112-.25-.25v-8c0-.138.112-.25.25-.25h2c.138 0 .25.112.25.25z"/><path d="m21.75 20.75v-11c0-.966-.783-1.75-1.75-1.75h-2c-.967 0-1.75.784-1.75 1.75v11c0 .966.783 1.75 1.75 1.75h2c.967 0 1.75-.784 1.75-1.75zm-1.5 0c0 .138-.112.25-.25.25h-2c-.138 0-.25-.112-.25-.25v-11c0-.138.112-.25.25-.25h2c.138 0 .25.112.25.25z"/><path d="m7.25 9.75c0-1.242-1.008-2.25-2.25-2.25s-2.25 1.008-2.25 2.25 1.008 2.25 2.25 2.25 2.25-1.008 2.25-2.25zm-1.5 0c0 .414-.336.75-.75.75s-.75-.336-.75-.75.336-.75.75-.75.75.336.75.75z"/><path d="m14.25 6.75c0-1.242-1.008-2.25-2.25-2.25s-2.25 1.008-2.25 2.25 1.008 2.25 2.25 2.25 2.25-1.008 2.25-2.25zm-1.5 0c0 .414-.336.75-.75.75s-.75-.336-.75-.75.336-.75.75-.75.75.336.75.75z"/><path d="m21.25 3.75c0-1.242-1.008-2.25-2.25-2.25s-2.25 1.008-2.25 2.25 1.008 2.25 2.25 2.25 2.25-1.008 2.25-2.25zm-1.5 0c0 .414-.336.75-.75.75s-.75-.336-.75-.75.336-.75.75-.75.75.336.75.75z"/><path d="m10.05 6.15-4 3c-.331.248-.398.719-.15 1.05s.719.398 1.05.15l4-3c.331-.248.398-.719.15-1.05s-.719-.398-1.05-.15z"/><path d="m17.05 3.15-4 3c-.331.248-.398.719-.15 1.05s.719.398 1.05.15l4-3c.331-.248.398-.719.15-1.05s-.719-.398-1.05-.15z"/><path d="m20.5 4.5h1.5c.414 0 .75-.336.75-.75s-.336-.75-.75-.75h-1.5c-.414 0-.75.336-.75.75s.336.75.75.75z"/><path d="m2 10.5h1.5c.414 0 .75-.336.75-.75s-.336-.75-.75-.75h-1.5c-.414 0-.75.336-.75.75s.336.75.75.75z"/></g></svg>