<?xml version="1.0"?>
<svg xmlns="http://www.w3.org/2000/svg" viewBox="0 0 32 32" width="512" height="512"><g id="mailbox_envelope_communication_mail" data-name="mailbox, envelope, communication, mail"><path d="M28.1211,14.8789A2.9794,2.9794,0,0,0,26,14H18a1,1,0,0,0,0,2h8a1,1,0,0,1,1,1v7H11V17a1,1,0,0,1,1-1h1v3a1,1,0,0,0,2,0V12h5a1,1,0,0,0,.8945-.5527l2-4A1,1,0,0,0,22,6H14a1,1,0,0,0-1,1v7H12a2.9794,2.9794,0,0,0-2.1211.8789A3.02,3.02,0,0,0,9,17v7H4a1,1,0,0,0,0,2H28a1,1,0,0,0,1-1V17A3.02,3.02,0,0,0,28.1211,14.8789ZM15,8h5.3818l-1,2H15Z"/></g></svg>
