<?xml version="1.0"?>
<svg xmlns="http://www.w3.org/2000/svg" viewBox="0 0 32 32" width="512" height="512"><g id="cube_geometry_3d" data-name="cube, geometry, 3d"><path d="M29,4a1,1,0,0,0-1-1H10a1.0071,1.0071,0,0,0-.7073.2933L3.2933,9.2927A1.014,1.014,0,0,0,3,10V28a1.004,1.004,0,0,0,1,1H22a1,1,0,0,0,1-1V10.4141L24.707,8.707a1,1,0,1,0-1.414-1.414L21.5859,9H6.4141L9.07,6.3445A.9951.9951,0,0,0,11,6V5H27V21H26a.9951.9951,0,0,0-.3445,1.93l-.3625.3626a1,1,0,1,0,1.414,1.414l2-2A1.0071,1.0071,0,0,0,29,22ZM21,27H6.4141l.2929-.293a1,1,0,0,0-1.414-1.414L5,25.5859V11H21Z"/><path d="M10,17a1,1,0,0,0,1-1V14a1,1,0,0,0-2,0v2A1,1,0,0,0,10,17Z"/><path d="M8.9971,24.0029a.9967.9967,0,0,0,.707-.2929l1.0029-1.003a1,1,0,0,0-1.414-1.414L8.29,22.2959a1,1,0,0,0,.7071,1.707Z"/><path d="M16,23h2a1,1,0,0,0,0-2H16a1,1,0,0,0,0,2Z"/></g></svg>
