<svg clip-rule="evenodd" fill-rule="evenodd" height="512" stroke-linejoin="round" stroke-miterlimit="2" viewBox="0 0 24 24" width="512" xmlns="http://www.w3.org/2000/svg"><g id="Icon"><path d="m12.01 19.246c.936 0 1.836-.553 2.538-1.582.872-1.279 1.46-3.337 1.46-5.664s-.588-4.385-1.46-5.664c-.702-1.029-1.602-1.582-2.538-1.582-.935 0-1.836.553-2.537 1.582-.872 1.279-1.461 3.337-1.461 5.664s.589 4.385 1.461 5.664c.701 1.029 1.602 1.582 2.537 1.582zm0-1.5c-.499 0-.924-.378-1.298-.927-.74-1.086-1.2-2.844-1.2-4.819s.46-3.733 1.2-4.819c.374-.549.799-.927 1.298-.927s.924.378 1.298.927c.741 1.086 1.2 2.844 1.2 4.819s-.459 3.733-1.2 4.819c-.374.549-.799.927-1.298.927z"/><path d="m5.514 12.75h12.984c.414 0 .75-.336.75-.75s-.336-.75-.75-.75h-12.984c-.414 0-.75.336-.75.75s.336.75.75.75z"/><path d="m12.002 4.754c-3.999 0-7.246 3.247-7.246 7.246s3.247 7.246 7.246 7.246 7.246-3.247 7.246-7.246-3.247-7.246-7.246-7.246zm0 1.5c3.171 0 5.746 2.575 5.746 5.746s-2.575 5.746-5.746 5.746-5.746-2.575-5.746-5.746 2.575-5.746 5.746-5.746z"/><path d="m16.141 6.98c-1.045 1.086-2.514 1.762-4.139 1.762s-3.093-.676-4.139-1.762c-.287-.298-.762-.307-1.06-.02s-.307.762-.02 1.06c1.318 1.37 3.17 2.222 5.219 2.222s3.901-.852 5.22-2.222c.287-.298.278-.773-.02-1.06-.299-.287-.774-.278-1.061.02z"/><path d="m17.222 15.972c-1.319-1.37-3.171-2.222-5.22-2.222s-3.901.852-5.219 2.222c-.287.298-.278.773.02 1.06s.773.278 1.06-.02c1.046-1.086 2.514-1.762 4.139-1.762s3.094.676 4.139 1.762c.287.298.762.307 1.061.02.298-.287.307-.762.02-1.06z"/><path d="m19.998 1.254c-1.518 0-2.75 1.233-2.75 2.75 0 1.518 1.232 2.75 2.75 2.75 1.517 0 2.75-1.232 2.75-2.75 0-1.517-1.233-2.75-2.75-2.75zm0 1.5c.689 0 1.25.56 1.25 1.25s-.561 1.25-1.25 1.25c-.69 0-1.25-.56-1.25-1.25s.56-1.25 1.25-1.25z"/><path d="m4 1.254c-1.518 0-2.75 1.233-2.75 2.75 0 1.518 1.232 2.75 2.75 2.75s2.75-1.232 2.75-2.75c0-1.517-1.232-2.75-2.75-2.75zm0 1.5c.69 0 1.25.56 1.25 1.25s-.56 1.25-1.25 1.25-1.25-.56-1.25-1.25.56-1.25 1.25-1.25z"/><path d="m19.998 22.75c1.517 0 2.75-1.232 2.75-2.75s-1.233-2.75-2.75-2.75c-1.518 0-2.75 1.232-2.75 2.75s1.232 2.75 2.75 2.75zm0-1.5c-.69 0-1.25-.56-1.25-1.25s.56-1.25 1.25-1.25c.689 0 1.25.56 1.25 1.25s-.561 1.25-1.25 1.25z"/><path d="m4 22.75c1.518 0 2.75-1.232 2.75-2.75s-1.232-2.75-2.75-2.75-2.75 1.232-2.75 2.75 1.232 2.75 2.75 2.75zm0-1.5c-.69 0-1.25-.56-1.25-1.25s.56-1.25 1.25-1.25 1.25.56 1.25 1.25-.56 1.25-1.25 1.25z"/><path d="m17.97 4.97-1.5 1.5c-.293.292-.293.768 0 1.06.292.293.768.293 1.06 0l1.5-1.5c.293-.292.293-.768 0-1.06-.292-.293-.768-.293-1.06 0z"/><path d="m4.967 6.03 1.5 1.5c.293.293.768.293 1.061 0 .293-.292.293-.768 0-1.06l-1.5-1.5c-.293-.293-.768-.293-1.061 0-.292.292-.292.768 0 1.06z"/><path d="m19.026 17.97-1.496-1.496c-.292-.293-.768-.293-1.06 0-.293.293-.293.768 0 1.061l1.495 1.495c.293.293.768.293 1.061 0 .293-.292.293-.768 0-1.06z"/><path d="m6.028 19.035 1.5-1.5c.293-.293.293-.768 0-1.061s-.768-.293-1.061 0l-1.5 1.5c-.292.293-.292.768 0 1.061.293.292.768.292 1.061 0z"/></g></svg>