<svg clip-rule="evenodd" fill-rule="evenodd" stroke-linejoin="round" stroke-miterlimit="1.414" viewBox="0 0 32 32" xmlns="http://www.w3.org/2000/svg" xmlns:serif="http://www.serif.com/"><path id="delete-remove-cross-square" d="m0 0h32v32h-32z" fill="none"/><path d="m26.088 5.004c.076.01.096.01.171.03.74.198.999 1.393.241 1.831-.138.08-.215.121-.499.134-6.001 0-12.001-.037-18.001 0-.514.009-.977.446-.987.987-.033 5.338-.033 10.676 0 16.014.01.513.447.977.987.987 5.338.033 10.676.033 16.014 0 .52-.01.984-.458.987-1.003v-13.987c.013-.285.054-.362.134-.5.303-.525 1.128-.652 1.572-.207.145.144.242.332.278.533.013.077.012.096.015.174v13.994c-.009 1.517-1.278 2.913-2.849 2.991-.038.002-.075.003-.112.003-5.343.033-10.686 0-16.03 0-1.511-.009-2.913-1.277-2.991-2.849-.002-.037-.003-.074-.003-.111-.033-5.344 0-10.687 0-16.03.009-1.563 1.362-2.985 2.994-2.995h17.992c.029.001.058.003.087.004zm-11.494 10.989-3.291-3.291c-.509-.539-.225-1.607.595-1.7.108-.012.133-.005.168-.004.244.02.472.122.651.291l3.29 3.29 3.291-3.29c.205-.195.471-.3.763-.291.228.019.302.053.427.123.519.287.677 1.076.262 1.54-.013.014-.026.027-.039.041l-3.29 3.291 3.29 3.29c.523.553.19 1.658-.65 1.705-.243.013-.49-.065-.679-.217-.039-.031-.048-.04-.084-.074l-3.291-3.291-3.29 3.291c-.553.522-1.658.19-1.705-.651-.013-.243.065-.489.217-.679.031-.039.04-.047.074-.084z" fill-rule="nonzero"/></svg>