<svg clip-rule="evenodd" fill-rule="evenodd" height="512" stroke-linejoin="round" stroke-miterlimit="2" viewBox="0 0 24 24" width="512" xmlns="http://www.w3.org/2000/svg"><g id="Icon"><path d="m9.343 2.678c-1.387-.568-2.76.162-3.268 1.208-.56 1.152-.08 2.853 1.406 4.181.945.883 2.709 1.483 4.122 1.778.284.059.577-.05.752-.282.871-1.152 1.805-2.763 1.936-4.05.246-1.978-.511-3.575-1.691-4.075-1.07-.453-2.584-.1-3.257 1.24zm-.066 1.713c.208.185.502.24.762.142.261-.098.446-.332.481-.608.122-.963.92-1.349 1.495-1.106.297.126.501.416.637.78.18.479.232 1.081.149 1.736-.001.007-.001.013-.002.02-.09.919-.723 2.022-1.357 2.917-1.067-.257-2.269-.672-2.94-1.305-.006-.004-.011-.009-.016-.014-.493-.439-.85-.926-1.029-1.405-.137-.364-.174-.717-.033-1.007.273-.561 1.128-.796 1.853-.15z"/><path d="m4.918 12.416c-.568 1.388.163 2.761 1.208 3.269 1.153.56 2.854.08 4.181-1.407.884-.944 1.484-2.708 1.778-4.122.06-.284-.05-.576-.281-.751-1.152-.871-2.764-1.805-4.051-1.936-1.978-.247-3.575.511-4.075 1.69-.453 1.07-.1 2.585 1.24 3.257zm1.713.066c.186-.208.24-.501.143-.762-.098-.261-.332-.446-.609-.481-.963-.121-1.349-.92-1.106-1.494.126-.297.416-.501.78-.638.479-.179 1.081-.231 1.736-.149.007.001.014.002.021.003.918.09 2.021.722 2.916 1.357-.257 1.066-.672 2.268-1.304 2.94-.005.005-.01.01-.014.016-.439.493-.927.849-1.406 1.029-.364.136-.716.173-1.007.032-.561-.272-.795-1.128-.15-1.853z"/><path d="m14.657 16.842c1.387.567 2.76-.163 3.268-1.208.56-1.153.08-2.854-1.406-4.182-.945-.883-2.709-1.483-4.122-1.778-.284-.059-.577.051-.752.282-.871 1.152-1.805 2.764-1.936 4.051-.246 1.977.511 3.574 1.691 4.074 1.07.454 2.584.101 3.257-1.239zm.066-1.714c-.208-.185-.502-.24-.763-.142-.26.098-.445.332-.48.608-.122.964-.92 1.35-1.495 1.106-.297-.126-.501-.416-.637-.78-.18-.478-.232-1.08-.149-1.735.001-.007.001-.014.002-.021.09-.919.723-2.022 1.357-2.916 1.067.257 2.269.671 2.94 1.304.005.005.011.009.016.014.493.439.85.927 1.029 1.405.137.364.174.717.033 1.007-.273.561-1.128.796-1.853.15z"/><path d="m19.082 7.103c.568-1.387-.163-2.761-1.208-3.268-1.153-.56-2.854-.08-4.181 1.406-.884.945-1.484 2.709-1.778 4.122-.06.284.05.577.281.752 1.152.87 2.764 1.805 4.051 1.935 1.978.247 3.575-.51 4.075-1.69.453-1.07.1-2.585-1.24-3.257zm-1.713-.066c-.186.208-.24.501-.143.762.098.261.332.446.609.481.963.122 1.349.92 1.106 1.494-.126.298-.416.502-.78.638-.479.18-1.081.232-1.736.149-.007-.001-.014-.002-.021-.002-.918-.09-2.021-.723-2.916-1.357.257-1.067.672-2.269 1.304-2.941.005-.005.01-.01.014-.015.439-.493.927-.85 1.406-1.029.364-.137.716-.174 1.007-.033.561.272.795 1.128.15 1.853z"/><path d="m9.57 13.457s-2.688 2.512-3.552 8.435c-.06.409.224.79.633.85.41.06.791-.224.851-.634.772-5.291 3.104-7.565 3.104-7.565.299-.286.31-.761.025-1.061-.286-.299-.761-.31-1.061-.025z"/></g></svg>