<svg clip-rule="evenodd" fill-rule="evenodd" height="512" stroke-linejoin="round" stroke-miterlimit="2" viewBox="0 0 24 24" width="512" xmlns="http://www.w3.org/2000/svg"><g id="Icon"><path d="m15.311 18.957-2.427 2.427c-.235.234-.552.366-.884.366s-.649-.132-.884-.366l-2.427-2.427h-4.689c-.729 0-1.429-.29-1.945-.805-.515-.516-.805-1.216-.805-1.945v-11c0-.729.29-1.429.805-1.944.516-.516 1.216-.806 1.945-.806h16c.729 0 1.429.29 1.945.806.515.515.805 1.215.805 1.944v11c0 .729-.29 1.429-.805 1.945-.516.515-1.216.805-1.945.805zm-3.311 1.189 2.323-2.323c.235-.234.553-.366.884-.366h4.793c.332 0 .649-.132.884-.366.234-.234.366-.552.366-.884v-11c0-.331-.132-.649-.366-.884-.235-.234-.552-.366-.884-.366h-16c-.332 0-.649.132-.884.366-.234.235-.366.553-.366.884v11c0 .332.132.65.366.884.235.234.552.366.884.366h4.793c.331 0 .649.132.884.366z"/><circle cx="8" cy="10.707" r="1"/><circle cx="12" cy="10.707" r="1"/><circle cx="16" cy="10.707" r="1"/></g></svg>