<svg clip-rule="evenodd" fill-rule="evenodd" height="512" stroke-linejoin="round" stroke-miterlimit="2" viewBox="0 0 24 24" width="512" xmlns="http://www.w3.org/2000/svg"><g id="Icon"><path d="m22.75 4c0-.729-.29-1.429-.805-1.945-.516-.515-1.216-.805-1.945-.805-3.832 0-12.168 0-16 0-.729 0-1.429.29-1.945.805-.515.516-.805 1.216-.805 1.945v16c0 .729.29 1.429.805 1.945.516.515 1.216.805 1.945.805h16c.729 0 1.429-.29 1.945-.805.515-.516.805-1.216.805-1.945zm-1.5 0v16c0 .332-.132.649-.366.884-.235.234-.552.366-.884.366h-16c-.332 0-.649-.132-.884-.366-.234-.235-.366-.552-.366-.884v-16c0-.332.132-.649.366-.884.235-.234.552-.366.884-.366h16c.332 0 .649.132.884.366.234.235.366.552.366.884z"/><path d="m2 7.75h20c.414 0 .75-.336.75-.75s-.336-.75-.75-.75h-20c-.414 0-.75.336-.75.75s.336.75.75.75z"/><path d="m4.5 5.25h1c.414 0 .75-.336.75-.75s-.336-.75-.75-.75h-1c-.414 0-.75.336-.75.75s.336.75.75.75z"/><path d="m8 5.25h1c.414 0 .75-.336.75-.75s-.336-.75-.75-.75h-1c-.414 0-.75.336-.75.75s.336.75.75.75z"/><path d="m11.5 5.25h1c.414 0 .75-.336.75-.75s-.336-.75-.75-.75h-1c-.414 0-.75.336-.75.75s.336.75.75.75z"/><path d="m15.339 10.855c0-.389-.182-.757-.491-.993-.31-.237-.712-.315-1.088-.213l-4.868 1.328c-.327.089-.553.385-.553.723v4c0 .339.226.635.553.724l4.868 1.328c.376.102.778.024 1.088-.213.309-.236.491-.604.491-.993zm-1.5.327v5.037l-4-1.091v-2.855z"/><path d="m9.839 11.7c0-.414-.336-.75-.75-.75h-2c-.966 0-1.75.784-1.75 1.75v2c0 .967.784 1.75 1.75 1.75h2c.414 0 .75-.335.75-.75zm-1.5.75v2.5h-1.25c-.138 0-.25-.111-.25-.25v-2c0-.138.112-.25.25-.25z"/><path d="m8.339 15.7v2.5c0 .414.336.75.75.75s.75-.336.75-.75v-2.5c0-.413-.336-.75-.75-.75s-.75.337-.75.75z"/><path d="m16.727 12.777c.265.22.434.552.434.923 0 .372-.169.703-.434.924-.318.264-.362.738-.097 1.056.264.318.738.362 1.056.097.596-.495.975-1.242.975-2.077 0-.834-.379-1.581-.975-2.076-.318-.265-.792-.221-1.056.097-.265.318-.221.792.097 1.056z"/></g></svg>