<svg clip-rule="evenodd" fill-rule="evenodd" height="512" stroke-linejoin="round" stroke-miterlimit="2" viewBox="0 0 24 24" width="512" xmlns="http://www.w3.org/2000/svg"><g id="Icon"><path d="m16.75 21.25h-10c-.414 0-.75.336-.75.75s.336.75.75.75h10c.414 0 .75-.336.75-.75s-.336-.75-.75-.75z"/><path d="m14.498 8c0-.414-.336-.75-.75-.75-2.622 0-4.748 2.126-4.748 4.748v10.002c0 .414.336.75.75.75h4c.199 0 .39-.079.53-.22.141-.14.22-.331.22-.53zm-1.5.837.002 12.413h-2.5v-9.252c0-1.536 1.066-2.823 2.498-3.161z"/><path d="m14.2 8.6 4-3c.122-.092.213-.218.262-.363l1-3c.13-.393-.082-.818-.475-.949-.393-.13-.818.082-.949.475l-.925 2.778s-3.813 2.859-3.813 2.859c-.331.248-.398.719-.15 1.05s.719.398 1.05.15z"/><path d="m18.219 4.414-2.5-2c-.324-.258-.796-.206-1.055.117-.258.324-.206.796.117 1.055l2.5 2c.324.258.796.206 1.055-.117.258-.324.206-.796-.117-1.055z"/><path d="m10.36 10.564-2.5-3.5c-.053-.074-.118-.138-.194-.188l-4.5-3c-.344-.23-.81-.136-1.04.208s-.136.81.208 1.04l4.386 2.924s2.42 3.388 2.42 3.388c.24.337.709.415 1.046.174.337-.24.415-.709.174-1.046z"/><path d="m7.836 7.969 2-2.5c.258-.324.206-.796-.117-1.055-.324-.258-.796-.206-1.055.117l-2 2.5c-.258.324-.206.796.117 1.055.324.258.796.206 1.055-.117z"/><path d="m4.962 5.237.5-1.5c.13-.393-.082-.818-.475-.949-.393-.13-.818.082-.949.475l-.5 1.5c-.13.393.082.818.475.949.393.13.818-.082.949-.475z"/><path d="m13.75 16.75h3c.464 0 .909-.184 1.237-.513.329-.328.513-.773.513-1.237 0-1.934 0-6 0-6 0-.414-.336-.75-.75-.75s-.75.336-.75.75v6c0 .066-.026.13-.073.177s-.111.073-.177.073h-3c-.414 0-.75.336-.75.75s.336.75.75.75z"/><path d="m18.122 13.651 3.5-2c.36-.205.485-.664.279-1.023-.205-.36-.664-.485-1.023-.279l-3.5 2c-.36.205-.485.664-.279 1.023.205.36.664.485 1.023.279z"/><path d="m21 11.5v-2c0-.414-.336-.75-.75-.75s-.75.336-.75.75v2c0 .414.336.75.75.75s.75-.336.75-.75z"/><path d="m10.06 14.817-5.5-2.5c-.376-.171-.821-.004-.993.373-.171.376-.004.821.373.993l5.5 2.5c.376.171.821.004.993-.373.171-.376.004-.821-.373-.993z"/><path d="m7 13.5v-2c0-.414-.336-.75-.75-.75s-.75.336-.75.75v2c0 .414.336.75.75.75s.75-.336.75-.75z"/></g></svg>