<svg clip-rule="evenodd" fill-rule="evenodd" height="512" stroke-linejoin="round" stroke-miterlimit="2" viewBox="0 0 24 24" width="512" xmlns="http://www.w3.org/2000/svg"><g id="Icon"><path d="m13.783 14.992c-.561.169-1.159.258-1.783.258-3.455 0-6.25-2.795-6.25-6.25s2.795-6.25 6.25-6.25 6.25 2.795 6.25 6.25c0 .414.336.75.75.75s.75-.336.75-.75c0-4.285-3.465-7.75-7.75-7.75s-7.75 3.465-7.75 7.75 3.465 7.75 7.75 7.75c.776 0 1.518-.111 2.217-.322.396-.119.621-.538.501-.935-.119-.396-.538-.621-.935-.501z"/><path d="m18.25 9v12c0 .138-.112.25-.25.25h-3c-.138 0-.25-.112-.25-.25v-6c0-2.071-1.679-3.75-3.75-3.75-.414 0-.75.336-.75.75s.336.75.75.75c1.243 0 2.25 1.007 2.25 2.25v6c0 .966.782 1.75 1.75 1.75h3c.968 0 1.75-.784 1.75-1.75v-12c0-.414-.336-.75-.75-.75s-.75.336-.75.75z"/></g></svg>