<svg id="Capa_1" enable-background="new 0 0 32 32" height="512" viewBox="0 0 32 32" width="512" xmlns="http://www.w3.org/2000/svg"><path d="m23 4c0-.552-.448-1-1-1s-1 .448-1 1c0 0-.09 2.276-.22 3h-6.78c-.552 0-1 .448-1 1s.448 1 1 1h6.254c-.249.693-.559 1.362-.927 2h-6.655c-1.071-1.863-1.672-7-1.672-7 0-.552-.448-1-1-1s-1 .448-1 1c0 4.616 1.339 9.33 6.445 12.832.907.617 1.734 1.345 2.46 2.168h-3.864c.258-.413.177-.953-.192-1.271-.421-.357-1.052-.306-1.41.115-2.301 2.832-3.439 5.283-3.439 10.156 0 .552.448 1 1 1s1-.448 1-1c0 0 .068-2.274.199-3h6.801c.552 0 1-.448 1-1s-.448-1-1-1h-6.263c.248-.693.557-1.362.924-2h6.666c1.229 2.12 1.81 4.553 1.673 7 0 .552.448 1 1 1s1-.448 1-1c0-6.125-2.455-9.634-5.35-12 3.598-2.916 5.586-7.375 5.35-12zm-7 10.746c-.694-.515-1.332-1.1-1.905-1.746h3.81c-.573.646-1.211 1.232-1.905 1.746z"/></svg>