<svg clip-rule="evenodd" fill-rule="evenodd" height="512" stroke-linejoin="round" stroke-miterlimit="2" viewBox="0 0 24 24" width="512" xmlns="http://www.w3.org/2000/svg"><g id="Icon"><path d="m13.75 15v-9c0-1.26-.5-2.468-1.391-3.359s-2.099-1.391-3.359-1.391c-.659 0-1.341 0-2 0-1.26 0-2.468.5-3.359 1.391s-1.391 2.099-1.391 3.359v12c0 1.26.5 2.468 1.391 3.359s2.099 1.391 3.359 1.391h2c1.26 0 2.468-.5 3.359-1.391s1.391-2.099 1.391-3.359v-1c0-.414-.336-.75-.75-.75s-.75.336-.75.75v1c0 .862-.342 1.689-.952 2.298-.609.61-1.436.952-2.298.952h-2c-.862 0-1.689-.342-2.298-.952-.61-.609-.952-1.436-.952-2.298 0-3.486 0-8.514 0-12 0-.862.342-1.689.952-2.298.609-.61 1.436-.952 2.298-.952h2c.862 0 1.689.342 2.298.952.61.609.952 1.436.952 2.298v9c0 .414.336.75.75.75s.75-.336.75-.75z"/><path d="m6.25 16c0 .966.783 1.75 1.75 1.75h11c.967 0 1.75-.784 1.75-1.75s-.783-1.75-1.75-1.75h-11c-.967 0-1.75.784-1.75 1.75zm1.5 0c0-.138.112-.25.25-.25h11c.138 0 .25.112.25.25s-.112.25-.25.25h-11c-.138 0-.25-.112-.25-.25z"/><circle cx="18.5" cy="10.958" r="1"/><circle cx="5.5" cy="6.75" r=".75"/><circle cx="5.5" cy="9.25" r=".75"/><circle cx="5.5" cy="11.75" r=".75"/><circle cx="8" cy="6.75" r=".75"/><circle cx="8" cy="9.25" r=".75"/><circle cx="8" cy="11.75" r=".75"/><circle cx="10.5" cy="6.75" r=".75"/><circle cx="10.5" cy="9.25" r=".75"/><circle cx="10.5" cy="11.75" r=".75"/><path d="m17.45 9.516c.293-.219.656-.349 1.049-.349.394 0 .757.13 1.049.349.331.249.802.182 1.051-.149.248-.331.181-.801-.15-1.05-.543-.408-1.218-.65-1.95-.65-.731 0-1.406.242-1.949.65-.331.249-.398.719-.15 1.05.249.331.72.398 1.05.149z"/><path d="m16.45 7.433c.572-.429 1.281-.683 2.05-.683s1.478.254 2.05.683c.33.249.801.182 1.05-.149.248-.331.181-.801-.15-1.05-.822-.618-1.843-.984-2.95-.984s-2.128.366-2.95.984c-.331.249-.398.719-.15 1.05.249.331.72.398 1.05.149z"/></g></svg>