<svg clip-rule="evenodd" fill-rule="evenodd" height="512" stroke-linejoin="round" stroke-miterlimit="2" viewBox="0 0 24 24" width="512" xmlns="http://www.w3.org/2000/svg"><g id="Icon"><path d="m12.27 6.817-1.963 5.891c-.131.393.081.818.474.949s.818-.082.949-.474l1.963-5.891c.131-.393-.081-.818-.474-.949s-.818.082-.949.474z"/><path d="m14.506 8.567 1.433 1.433s-1.433 1.433-1.433 1.433c-.293.293-.293.768 0 1.061s.768.293 1.061 0l1.963-1.964c.293-.293.293-.767 0-1.06l-1.963-1.964c-.293-.293-.768-.293-1.061 0s-.293.768 0 1.061z"/><path d="m8.433 7.506-1.963 1.964c-.293.293-.293.767 0 1.06l1.963 1.964c.293.293.768.293 1.061 0s.293-.768 0-1.061l-1.433-1.433s1.433-1.433 1.433-1.433c.293-.293.293-.768 0-1.061s-.768-.293-1.061 0z"/><path d="m22.75 4.833c0-.729-.29-1.428-.805-1.944-.516-.516-1.216-.806-1.945-.806-3.832 0-12.168 0-16 0-.729 0-1.429.29-1.945.806-.515.516-.805 1.215-.805 1.944v10.334c0 .729.29 1.428.805 1.944.516.516 1.216.806 1.945.806h1c.138 0 .25.112.25.25v2c0 .473.268.906.691 1.118.423.211.93.166 1.309-.118l4.267-3.2c.043-.033.096-.05.15-.05h8.333c1.519 0 2.75-1.232 2.75-2.75 0-2.732 0-7.602 0-10.334zm-16 14.834v-1.5c0-.967-.783-1.75-1.75-1.75h-1c-.332 0-.649-.132-.884-.366-.234-.235-.366-.553-.366-.884 0-2.732 0-7.602 0-10.334 0-.331.132-.649.366-.884.235-.234.552-.366.884-.366h16c.332 0 .649.132.884.366.234.235.366.553.366.884v10.334c0 .69-.56 1.25-1.25 1.25h-8.333c-.379 0-.747.122-1.05.35z"/></g></svg>