<svg clip-rule="evenodd" fill-rule="evenodd" height="512" stroke-linejoin="round" stroke-miterlimit="2" viewBox="0 0 24 24" width="512" xmlns="http://www.w3.org/2000/svg"><g id="Icon"><path d="m18.75 3c0-.22-.097-.43-.265-.572-.168-.143-.391-.204-.608-.168-3.917.652-7.835.662-11.752 0-.218-.036-.441.025-.609.167-.169.143-.266.352-.266.573v6c0 .359.255.668.608.736 4.095.79 8.189.79 12.284 0 .353-.068.608-.377.608-.736zm-1.5.875v4.5c-3.5.604-7 .604-10.5 0v-4.498c3.5.505 7 .498 10.5-.002z"/><path d="m17.25 2v10c0 .414.336.75.75.75s.75-.336.75-.75v-10c0-.414-.336-.75-.75-.75s-.75.336-.75.75z"/><path d="m5.25 2v10c0 .414.336.75.75.75s.75-.336.75-.75v-10c0-.414-.336-.75-.75-.75s-.75.336-.75.75z"/><path d="m17.985 11.328c-3.989 1.229-7.977 1.24-11.966.001-.922-.287-1.904.23-2.19 1.152-.287.922.229 1.904 1.152 2.19 4.678 1.454 9.356 1.443 14.034.002.923-.285 1.442-1.265 1.157-2.188-.284-.923-1.264-1.442-2.187-1.157zm.441 1.433c.132-.04.272.034.313.166.041.131-.034.271-.165.312-4.383 1.351-8.766 1.361-13.148 0-.132-.041-.206-.181-.165-.313s.181-.205.313-.165c4.284 1.331 8.568 1.321 12.852 0z"/><path d="m16.564 13.89-10.5 7.5c-.337.24-.415.709-.174 1.046.24.337.709.415 1.046.174l10.5-7.5c.337-.24.415-.709.174-1.046-.24-.337-.709-.415-1.046-.174z"/><path d="m6.564 15.11 10.5 7.5c.337.241.806.163 1.046-.174.241-.337.163-.806-.174-1.046l-10.5-7.5c-.337-.241-.806-.163-1.046.174-.241.337-.163.806.174 1.046z"/></g></svg>