<svg clip-rule="evenodd" fill-rule="evenodd" height="512" stroke-linejoin="round" stroke-miterlimit="2" viewBox="0 0 24 24" width="512" xmlns="http://www.w3.org/2000/svg"><g id="Icon"><path d="m12 1.25c-5.933 0-10.75 4.817-10.75 10.75s4.817 10.75 10.75 10.75 10.75-4.817 10.75-10.75-4.817-10.75-10.75-10.75zm0 1.5c5.105 0 9.25 4.145 9.25 9.25s-4.145 9.25-9.25 9.25-9.25-4.145-9.25-9.25 4.145-9.25 9.25-9.25z"/><path d="m20 5.25h-5c-1.519 0-2.75 1.231-2.75 2.75v1.172c0 .729.29 1.428.805 1.944l.829.829c.234.234.366.552.366.883v2.172c0 .967.784 1.75 1.75 1.75h.5c.966 0 1.75-.783 1.75-1.75v-2.172c0-.331.132-.649.366-.883 0 0 .829-.829.829-.829.234-.234.552-.366.883-.366h1.172c.414 0 .75-.336.75-.75s-.336-.75-.75-.75c0 0-.621 0-1.172 0-.729 0-1.428.29-1.944.805l-.829.829c-.515.516-.805 1.215-.805 1.944v2.172c0 .138-.112.25-.25.25h-.5c-.138 0-.25-.112-.25-.25v-2.172c0-.729-.29-1.428-.805-1.944l-.829-.829c-.234-.234-.366-.552-.366-.883v-1.172c0-.69.56-1.25 1.25-1.25h5c.414 0 .75-.336.75-.75s-.336-.75-.75-.75z"/><path d="m10.75 2.172c0 .331-.132.649-.366.883l-.829.829c-.515.516-.805 1.215-.805 1.944v2.172c0 .138-.112.25-.25.25h-.5c-.138 0-.25-.112-.25-.25v-2.172c0-.729-.29-1.428-.805-1.944 0 0-.415-.414-.415-.414-.292-.293-.768-.293-1.06 0-.293.292-.293.768 0 1.06l.414.415c.234.234.366.552.366.883v2.172c0 .967.784 1.75 1.75 1.75h.5c.966 0 1.75-.783 1.75-1.75v-2.172c0-.331.132-.649.366-.883l.829-.829c.515-.516.805-1.215.805-1.944 0-.414-.336-.75-.75-.75s-.75.336-.75.75z"/><path d="m2.5 13.75h2.672c.331 0 .649.132.883.366l.829.829c.516.515 1.215.805 1.944.805h2.172c.138 0 .25.112.25.25v.5c0 .138-.112.25-.25.25h-2.172c-.729 0-1.428.29-1.944.805l-1.414 1.415c-.293.292-.293.768 0 1.06.292.293.768.293 1.06 0l1.415-1.414c.234-.234.552-.366.883-.366h2.172c.967 0 1.75-.784 1.75-1.75 0-.165 0-.335 0-.5 0-.966-.783-1.75-1.75-1.75h-2.172c-.331 0-.649-.132-.883-.366l-.829-.829c-.516-.515-1.215-.805-1.944-.805-1.035 0-2.672 0-2.672 0-.414 0-.75.336-.75.75s.336.75.75.75z"/></g></svg>