<svg clip-rule="evenodd" fill-rule="evenodd" height="512" stroke-linejoin="round" stroke-miterlimit="2" viewBox="0 0 24 24" width="512" xmlns="http://www.w3.org/2000/svg"><g id="Icon"><path d="m7.5 11.75c-2.622 0-4.75 2.128-4.75 4.75 0 .258.066.644.123.931-.756.929-1.287 2.05-1.508 3.278-.001.005-.002.009-.002.013-.082.501.061 1.013.39 1.4s.811.61 1.319.61c3.473.018 14.409.018 17.868.018.506 0 .987-.218 1.32-.6.333-.381.484-.888.415-1.389-.002-.012-.004-.024-.006-.036-.568-3.031-2.998-5.417-6.054-5.89-.409-.063-.793.218-.856.627s.217.793.626.856c2.418.374 4.34 2.256 4.803 4.649.007.081-.014.147-.058.197-.048.055-.117.086-.189.086 0 0 0 0-.001 0-3.457 0-14.389 0-17.864-.018-.002 0-.003 0-.004 0-.068 0-.133-.03-.177-.082-.041-.049-.061-.113-.053-.177.196-1.082.692-2.054 1.398-2.833.168-.185.232-.442.172-.684 0 0-.162-.624-.162-.956 0-1.794 1.456-3.25 3.25-3.25.414 0 .75-.336.75-.75s-.336-.75-.75-.75z"/><path d="m17.25 18v-9c0-.414-.336-.75-.75-.75h-9c-.414 0-.75.336-.75.75v9c0 .414.336.75.75.75s.75-.336.75-.75v-8.25h7.5v8.25c0 .414.336.75.75.75s.75-.336.75-.75z"/><path d="m18.25 6c0-.414-.336-.75-.75-.75h-11c-.414 0-.75.336-.75.75v3c0 .414.336.75.75.75h11c.414 0 .75-.336.75-.75zm-1.5.75v1.5h-9.5v-1.5z"/><path d="m8.329 1.665-.276.552c-.247.493-.247 1.073 0 1.566 0 0 .276.552.276.552.185.371.636.521 1.006.336.371-.185.521-.636.336-1.006l-.277-.553c-.035-.071-.035-.153 0-.224l.277-.553c.185-.37.035-.821-.336-1.006-.37-.185-.821-.035-1.006.336z"/><path d="m11.52 1.665-.276.552c-.247.493-.247 1.073 0 1.566 0 0 .276.552.276.552.185.371.636.521 1.006.336.371-.185.521-.636.336-1.006l-.277-.553c-.035-.071-.035-.153 0-.224l.277-.553c.185-.37.035-.821-.336-1.006-.37-.185-.821-.035-1.006.336z"/><path d="m14.711 1.665-.276.552c-.247.493-.247 1.073 0 1.566 0 0 .276.552.276.552.185.371.636.521 1.006.336.371-.185.521-.636.336-1.006l-.277-.553c-.035-.071-.035-.153 0-.224l.277-.553c.185-.37.035-.821-.336-1.006-.37-.185-.821-.035-1.006.336z"/><path d="m16.5 11.75h-9c-.414 0-.75.336-.75.75s.336.75.75.75h9c.414 0 .75-.336.75-.75s-.336-.75-.75-.75z"/><path d="m16.5 15.25h-9c-.414 0-.75.336-.75.75s.336.75.75.75h9c.414 0 .75-.336.75-.75s-.336-.75-.75-.75z"/><path d="m10.25 9v3.5c0 .414.336.75.75.75s.75-.336.75-.75v-3.5c0-.414-.336-.75-.75-.75s-.75.336-.75.75z"/><path d="m12.75 12.5v3.5c0 .414.336.75.75.75s.75-.336.75-.75v-3.5c0-.414-.336-.75-.75-.75s-.75.336-.75.75z"/><path d="m6.22 20.25c.309-.873 1.143-1.5 2.122-1.5s1.813.627 2.122 1.5c.106.3.389.5.707.5h1.671c.318 0 .601-.2.707-.5.309-.873 1.143-1.5 2.122-1.5s1.813.627 2.122 1.5c.138.39.567.595.957.457s.595-.567.457-.957c-.515-1.456-1.905-2.5-3.536-2.5-1.438 0-2.688.811-3.317 2h-.695c-.629-1.189-1.879-2-3.317-2-1.631 0-3.021 1.044-3.536 2.5-.138.39.066.819.457.957.39.138.819-.067.957-.457z"/></g></svg>