<svg viewBox="0 0 32 32" xmlns="http://www.w3.org/2000/svg"><g id="vimeo_video_media" data-name="vimeo video media"><path d="m24 6a7 7 0 0 0 -7 5.83 1 1 0 0 0 .23.82 1 1 0 0 0 .77.35h2.31v.19.1a7.28 7.28 0 0 1 -2 3.85c-.78.84-1.13.81-1.13.81s-.3-.27-.48-1.09l-1.7-7.35a3.74 3.74 0 0 0 -2.38-2.84 3.67 3.67 0 0 0 -3.51.52l-5.77 4.5a1 1 0 0 0 -.17 1.4 1 1 0 0 0 1.41.18l5.76-4.5a1.66 1.66 0 0 1 1.66-.22 1.75 1.75 0 0 1 1.11 1.37l1.61 7.36c.32 1.46 1 2.34 1.91 2.6s2-.2 3.12-1.38a9.09 9.09 0 0 0 2.46-4.69v-.1a2.28 2.28 0 0 0 -.29-2 1.92 1.92 0 0 0 -1.56-.71h-1a4.79 4.79 0 0 1 4.64-3 3.13 3.13 0 0 1 3 3c0 4.7-7.42 11.53-10.25 13.75a2.6 2.6 0 0 1 -2.34.34 2.13 2.13 0 0 1 -1.41-1.09l-2.94-9.4a3.19 3.19 0 0 0 -1.84-2 1 1 0 1 0 -.7 1.87 1.18 1.18 0 0 1 .63.73l3 9.38a4.09 4.09 0 0 0 2.66 2.42 4.89 4.89 0 0 0 1.46.23 4.5 4.5 0 0 0 2.73-.89c.41-.34 11-8.71 11-15.34a5.08 5.08 0 0 0 -5-5z"/></g></svg>