<svg clip-rule="evenodd" fill-rule="evenodd" height="512" stroke-linejoin="round" stroke-miterlimit="2" viewBox="0 0 134 134" width="512" xmlns="http://www.w3.org/2000/svg"><path d="m29.167 58.333v-3.602c0-1.195.513-2.332 1.408-3.123 6.823-6.026 24.336-21.495 33.333-29.441 1.576-1.392 3.941-1.392 5.517 0 8.997 7.946 26.51 23.415 33.333 29.441.896.791 1.409 1.928 1.409 3.123v53.602c0 2.302-1.866 4.167-4.167 4.167-7.271 0-16.667 0-16.667 0-2.299 0-4.166 1.867-4.166 4.167 0 2.299 1.867 4.166 4.166 4.166h16.667c6.904 0 12.5-5.596 12.5-12.5 0-14.377 0-43.292 0-53.602 0-3.584-1.539-6.996-4.225-9.369-6.823-6.026-24.336-21.494-33.333-29.441-4.727-4.175-11.823-4.175-16.55 0-8.997 7.946-26.51 23.415-33.334 29.441-2.686 2.373-4.225 5.785-4.225 9.369v3.602c0 6.248 8.334 6.248 8.334 0zm10.488 12.524v-3.415c0-1.904 1.291-3.567 3.137-4.037 4.73-1.207 9.686-1.207 14.416 0 1.846.47 3.137 2.133 3.137 4.037v3.415c.864.429 1.701.911 2.504 1.446l2.957-1.708c1.65-.952 3.735-.665 5.065.698 3.41 3.493 5.888 7.786 7.209 12.485.515 1.834-.279 3.783-1.928 4.736l-2.958 1.707c.061.963.062 1.929 0 2.891l2.958 1.708c1.649.952 2.443 2.901 1.928 4.735-1.321 4.699-3.799 8.992-7.209 12.485-1.33 1.363-3.415 1.65-5.065.698l-2.957-1.707c-.803.534-1.639 1.017-2.504 1.445v3.415c0 1.905-1.291 3.567-3.137 4.038-4.73 1.206-9.686 1.206-14.416 0-1.846-.471-3.137-2.133-3.137-4.038v-3.415c-.864-.428-1.701-.911-2.504-1.445l-2.957 1.707c-1.65.952-3.735.665-5.065-.698-3.41-3.493-5.888-7.786-7.209-12.485-.515-1.834.279-3.783 1.928-4.735l2.958-1.708c-.061-.963-.062-1.928 0-2.891l-2.958-1.707c-1.649-.953-2.443-2.902-1.928-4.736 1.321-4.699 3.799-8.992 7.209-12.485 1.33-1.363 3.415-1.65 5.065-.698l2.957 1.708c.803-.535 1.639-1.018 2.504-1.446zm12.357.075c-1.338-.131-2.686-.131-4.024 0v2.689c0 1.781-1.132 3.365-2.817 3.942-1.827.625-3.515 1.6-4.971 2.87-1.342 1.171-3.28 1.359-4.822.468l-2.329-1.344c-.782 1.094-1.456 2.261-2.012 3.484l2.329 1.345c1.542.891 2.348 2.663 2.005 4.411-.372 1.895-.372 3.844 0 5.74.343 1.747-.463 3.52-2.005 4.41l-2.329 1.345c.556 1.224 1.23 2.391 2.012 3.484l2.329-1.344c1.542-.891 3.48-.702 4.822.469 1.456 1.269 3.144 2.244 4.971 2.87 1.685.577 2.817 2.161 2.817 3.942v2.689c1.338.13 2.686.13 4.024 0v-2.689c0-1.781 1.132-3.365 2.817-3.942 1.827-.626 3.515-1.601 4.971-2.87 1.342-1.171 3.28-1.36 4.822-.469l2.329 1.344c.782-1.093 1.456-2.26 2.012-3.484l-2.329-1.345c-1.542-.89-2.348-2.663-2.005-4.41.372-1.896.372-3.845 0-5.74-.343-1.748.463-3.52 2.005-4.411l2.329-1.345c-.556-1.224-1.23-2.391-2.012-3.484l-2.329 1.344c-1.542.891-3.48.703-4.822-.468-1.456-1.27-3.144-2.245-4.971-2.87-1.685-.577-2.817-2.161-2.817-3.942z"/></svg>