<svg clip-rule="evenodd" fill-rule="evenodd" height="512" stroke-linejoin="round" stroke-miterlimit="2" viewBox="0 0 24 24" width="512" xmlns="http://www.w3.org/2000/svg"><g id="Icon"><path d="m13.006 10.337.846-.394c1.167-.544 2.502-.602 3.713-.162 1.21.441 2.195 1.344 2.739 2.511l1.282 2.749c.663 1.42.506 3.088-.409 4.36-.242.336-.711.413-1.047.171s-.413-.711-.171-1.047c.598-.832.701-1.922.268-2.85l-1.282-2.749c-.376-.807-1.057-1.431-1.894-1.735-.836-.305-1.759-.264-2.565.112l-.916.427c-.104.048-.188.067-.233.072-.822.165-1.497-.067-1.857-.838l-1.385-2.971c-.089-.19-.249-.337-.446-.408-.197-.072-.414-.062-.604.026-.189.089-.336.249-.408.446-.072.196-.062.414.026.603l3.254 6.977c.13.28.076.612-.138.835-.214.224-.543.293-.829.175l-2.247-.929c-.233-.096-.495-.093-.726.009-.231.101-.41.293-.496.53l-.001.003c-.169.464.067.978.53 1.153l3.394 1.279c1.048.381 1.627.634 2.072 1.024.452.396.78.938 1.26 1.967.175.375.012.822-.363.997s-.821.012-.996-.363c-.354-.758-.556-1.181-.889-1.472-.34-.298-.8-.454-1.602-.745-.002-.001-.005-.002-.008-.003l-3.397-1.281c-1.232-.464-1.861-1.833-1.411-3.069l.001-.003c.226-.621.696-1.123 1.301-1.39.605-.266 1.293-.274 1.904-.022l.467.193-2.439-5.231c-.257-.55-.284-1.18-.076-1.75.207-.571.633-1.036 1.183-1.292.551-.257 1.18-.285 1.751-.077s1.035.634 1.292 1.184l1.386 2.971c.015.033.051.019.084.017.027-.002.054-.005.082-.01z"/><path d="m8.123 4.383c.175.375.012.821-.363.996s-.822.013-.997-.363l-.867-1.86c-.175-.375-.013-.822.363-.997.375-.175.821-.012.996.363z"/><path d="m11.518 4.185c-.142.389-.573.59-.962.449-.389-.142-.59-.573-.448-.962l.702-1.929c.142-.388.572-.589.961-.448.389.142.59.573.449.962z"/><path d="m4.943 6.081c.389.141.59.572.449.961-.142.389-.573.59-.962.448l-1.929-.702c-.389-.141-.59-.572-.448-.961s.572-.59.961-.448z"/><path d="m4.923 9.01c.376-.174.822-.012.997.363s.013.822-.363.997l-1.86.867c-.375.175-.822.013-.997-.362s-.012-.822.363-.997z"/><path d="m14.225 4.673c.376-.175.822-.012.997.363s.013.821-.363.996l-1.86.868c-.375.175-.822.012-.997-.363s-.012-.822.363-.997z"/></g></svg>