<svg viewBox="0 0 32 32" xmlns="http://www.w3.org/2000/svg"><g id="drive_gdrive_google_storage" data-name="drive, gdrive, google, storage"><path d="m28.8682 18.5039-8-14a1 1 0 0 0 -.8682-.5039h-8a1 1 0 0 0 -.8682 1.4961l3.7165 6.5039-6.8483 11.9844-2.8481-4.9844 5.3769-9.41a1 1 0 0 0 -1.7363-.9921l-5.6607 9.906a1 1 0 0 0 0 .9922l4 7a1.0709 1.0709 0 0 0 .8682.5039h16a1 1 0 0 0 .8682-.5039l4-7a.9357.9357 0 0 0 0-.9922zm-9.4482-12.5039 6.857 12h-5.697l-6.8569-12zm-1.143 12h-4.5539l2.2769-3.9846zm5.143 7h-13.6969l2.8569-5h13.6969z"/></g></svg>