<svg clip-rule="evenodd" fill-rule="evenodd" height="512" stroke-linejoin="round" stroke-miterlimit="2" viewBox="0 0 24 24" width="512" xmlns="http://www.w3.org/2000/svg"><g id="Icon"><path d="m20 22.5c1.529 0 2.75-1.196 2.75-2.645v-14.21c0-1.449-1.221-2.645-2.75-2.645h-16c-1.529 0-2.75 1.196-2.75 2.645v14.21c0 1.449 1.221 2.645 2.75 2.645zm0-1.5h-16c-.679 0-1.25-.501-1.25-1.145v-14.21c0-.644.571-1.145 1.25-1.145h16c.679 0 1.25.501 1.25 1.145v14.21c0 .644-.571 1.145-1.25 1.145z"/><path d="m17.25 2.25v3c0 .414.336.75.75.75s.75-.336.75-.75v-3c0-.414-.336-.75-.75-.75s-.75.336-.75.75z"/><path d="m11.25 2.25v3c0 .414.336.75.75.75s.75-.336.75-.75v-3c0-.414-.336-.75-.75-.75s-.75.336-.75.75z"/><path d="m5.25 2.25v3c0 .414.336.75.75.75s.75-.336.75-.75v-3c0-.414-.336-.75-.75-.75s-.75.336-.75.75z"/><path d="m7.26 15.626c-.036.218.025.44.168.609.142.168.352.265.572.265h3.364c3.042 0 5.638-2.199 6.138-5.2 0 0 .238-1.427.238-1.427.036-.217-.025-.44-.168-.608-.142-.168-.351-.265-.572-.265h-3.364c-3.041 0-5.637 2.199-6.138 5.2 0-.001-.238 1.426-.238 1.426zm1.626-.626.092-.554c.38-2.277 2.35-3.946 4.658-3.946h2.479l-.093.554c-.379 2.277-2.349 3.946-4.658 3.946z"/><path d="m11.918 11.868s-3.403 1.257-5.542 4.466c-.23.345-.137.811.208 1.04.344.23.81.137 1.04-.208 1.861-2.791 4.816-3.892 4.816-3.892.388-.144.586-.576.442-.964s-.576-.586-.964-.442z"/></g></svg>