<svg clip-rule="evenodd" fill-rule="evenodd" height="512" stroke-linejoin="round" stroke-miterlimit="2" viewBox="0 0 24 24" width="512" xmlns="http://www.w3.org/2000/svg"><g id="Icon"><path d="m5.25 14.92v-7c0-.69-.56-1.25-1.25-1.25h-1.5c-.69 0-1.25.56-1.25 1.25v7c0 .69.56 1.25 1.25 1.25h1.5c.69 0 1.25-.56 1.25-1.25zm-2.5-.25h1v-6.5h-1z"/><path d="m22.75 14.92v-7c0-.69-.56-1.25-1.25-1.25h-1.5c-.69 0-1.25.56-1.25 1.25v7c0 .69.56 1.25 1.25 1.25h1.5c.69 0 1.25-.56 1.25-1.25zm-2.5-.25h1v-6.5h-1z"/><path d="m4.737 9.131s1.716-.571 3.028-1.009c.693-.231 1.454-.111 2.043.32.333.245.803.173 1.048-.161s.172-.804-.161-1.048c-.981-.72-2.25-.919-3.404-.534-1.313.438-3.028 1.009-3.028 1.009-.393.131-.605.556-.475.949.131.393.556.605.949.474z"/><path d="m13.359 11.1c.164.21.425.566.612.935.09.176.171.352.179.509.032.603-.209 1.189-.656 1.595 0 .001-1.878 1.707-1.878 1.707-.414.377-1.028.432-1.503.135l-1.986-1.241c-.596-.373-1.285-.57-1.987-.57h-1.64c-.414 0-.75.336-.75.75s.336.75.75.75h1.64c.421 0 .834.118 1.192.342 0 0 1.986 1.241 1.986 1.241 1.045.653 2.396.532 3.307-.297l1.878-1.707c.78-.709 1.2-1.731 1.145-2.784-.039-.748-.731-1.806-1.106-2.287-.255-.327-.726-.385-1.053-.131-.326.255-.385.726-.13 1.053z"/><path d="m19.705 7.699s-2.638-.75-4.081-1.16c-.748-.212-1.542-.187-2.274.072l-3.345 1.182c-.647.228-1.165.724-1.422 1.361-.257.636-.228 1.352.079 1.966v.002c.516 1.032 1.722 1.516 2.808 1.127 1.407-.504 3.473-1.243 3.473-1.243.389-.139.593-.569.453-.959-.139-.389-.569-.593-.959-.453l-3.472 1.243c-.372.133-.784-.033-.961-.386 0 0-.001-.001-.001-.001-.114-.23-.125-.497-.029-.735s.289-.423.531-.508l3.344-1.182c.44-.155.917-.17 1.365-.043 1.444.41 4.081 1.159 4.081 1.159.398.114.813-.118.926-.516.114-.398-.118-.813-.516-.926z"/><path d="m18.97 13.39-1.252 1.251c-.578.578-1.424.797-2.209.573 0 0-1.803-.515-1.803-.515-.398-.114-.813.117-.927.515s.117.813.515.927c0 0 .91.26 1.803.515 1.309.374 2.719.009 3.682-.954l1.251-1.252c.293-.292.293-.768 0-1.06-.292-.293-.768-.293-1.06 0z"/></g></svg>