<svg clip-rule="evenodd" fill-rule="evenodd" height="512" stroke-linejoin="round" stroke-miterlimit="2" viewBox="0 0 24 24" width="512" xmlns="http://www.w3.org/2000/svg"><g id="Icon"><path d="m22.75 17c0-.414-.336-.75-.75-.75h-20c-.414 0-.75.336-.75.75v4c0 .464.184.909.513 1.237.328.329.773.513 1.237.513h18c.464 0 .909-.184 1.237-.513.329-.328.513-.773.513-1.237 0-1.459 0-4 0-4zm-1.5.75v3.25c0 .066-.026.13-.073.177s-.111.073-.177.073h-18c-.066 0-.13-.026-.177-.073s-.073-.111-.073-.177v-3.25z"/><path d="m21.75 3c0-.464-.184-.909-.513-1.237-.328-.329-.773-.513-1.237-.513-1.732 0-5.268 0-7 0-.464 0-.909.184-1.237.513-.329.328-.513.773-.513 1.237v3c0 .464.184.909.513 1.237.328.329.773.513 1.237.513h7c.464 0 .909-.184 1.237-.513.329-.328.513-.773.513-1.237zm-1.5 0v3c0 .066-.026.13-.073.177s-.111.073-.177.073h-7c-.066 0-.13-.026-.177-.073s-.073-.111-.073-.177v-3c0-.066.026-.13.073-.177s.111-.073.177-.073h7c.066 0 .13.026.177.073s.073.111.073.177z"/><path d="m21.859 10.269c-.116-.87-.857-1.519-1.735-1.519h-16.248c-.878 0-1.619.649-1.735 1.519-.263 1.974-.884 6.632-.884 6.632-.029.214.036.43.179.593.142.163.348.256.564.256h20c.216 0 .422-.093.564-.256.143-.163.208-.379.179-.593 0 0-.621-4.658-.884-6.632zm-1.487.198.771 5.783h-18.286s.771-5.783.771-5.783c.016-.124.122-.217.247-.217h16.249c.126 0 .232.093.248.217z"/><path d="m10 20.25h4c.414 0 .75-.336.75-.75s-.336-.75-.75-.75h-4c-.414 0-.75.336-.75.75s.336.75.75.75z"/><path d="m17 12.75h1c.414 0 .75-.336.75-.75s-.336-.75-.75-.75h-1c-.414 0-.75.336-.75.75s.336.75.75.75z"/><path d="m13.5 12.75h1c.414 0 .75-.336.75-.75s-.336-.75-.75-.75h-1c-.414 0-.75.336-.75.75s.336.75.75.75z"/><path d="m17 15.25h1c.414 0 .75-.336.75-.75s-.336-.75-.75-.75h-1c-.414 0-.75.336-.75.75s.336.75.75.75z"/><path d="m13.5 15.25h1c.414 0 .75-.336.75-.75s-.336-.75-.75-.75h-1c-.414 0-.75.336-.75.75s.336.75.75.75z"/><path d="m17.25 9.5v-2.5c0-.414-.336-.75-.75-.75s-.75.336-.75.75v2.5c0 .414.336.75.75.75s.75-.336.75-.75z"/><path d="m5.5 13.75h4c.414 0 .75-.336.75-.75s-.336-.75-.75-.75h-4c-.414 0-.75.336-.75.75s.336.75.75.75z"/></g></svg>