<svg clip-rule="evenodd" fill-rule="evenodd" height="512" stroke-linejoin="round" stroke-miterlimit="2" viewBox="0 0 24 24" width="512" xmlns="http://www.w3.org/2000/svg"><g id="Icon"><path d="m14.75 3v6c0 .464-.184.909-.513 1.237-.328.329-.773.513-1.237.513h-8c-2.071 0-3.75-1.679-3.75-3.75v-2c0-2.071 1.679-3.75 3.75-3.75h8c.464 0 .909.184 1.237.513.329.328.513.773.513 1.237zm-1.5 0c0-.066-.026-.13-.073-.177s-.111-.073-.177-.073h-8c-1.243 0-2.25 1.007-2.25 2.25v2c0 1.243 1.007 2.25 2.25 2.25h8c.066 0 .13-.026.177-.073s.073-.111.073-.177z"/><path d="m17.25 4.5v3c0 .464-.184.909-.513 1.237-.328.329-.773.513-1.237.513h-1.5c-.414 0-.75-.336-.75-.75v-5c0-.414.336-.75.75-.75h1.5c.464 0 .909.184 1.237.513.329.328.513.773.513 1.237zm-1.5 0c0-.066-.026-.13-.073-.177s-.111-.073-.177-.073h-.75v3.5h.75c.066 0 .13-.026.177-.073s.073-.111.073-.177z"/><path d="m13.25 20.5v.5c0 .966-.784 1.75-1.75 1.75h-7.5c-.966 0-1.75-.784-1.75-1.75v-2.5c0-.966.784-1.75 1.75-1.75h5.5c.995 0 1.948.395 2.652 1.098.703.704 1.098 1.657 1.098 2.652zm-1.5 0c0-.597-.237-1.169-.659-1.591s-.994-.659-1.591-.659h-5.5c-.138 0-.25.112-.25.25v2.5c0 .138.112.25.25.25h7.5c.138 0 .25-.112.25-.25z"/><path d="m10.225 10.193-2 7.5c-.088.329-.385.557-.725.557h-3.5c-.233 0-.453-.108-.595-.293s-.19-.425-.13-.65l2-7.5c.088-.329.385-.557.725-.557h3.5c.233 0 .453.108.595.293s.19.425.13.65zm-1.701.557h-1.948l-1.6 6h1.948z"/><path d="m22.45 6.6-2 1.5c-.13.097-.288.15-.45.15h-3.5c-.414 0-.75-.336-.75-.75v-3c0-.414.336-.75.75-.75h3.5c.162 0 .32.053.45.15l2 1.5c.189.142.3.364.3.6s-.111.458-.3.6zm-1.7-.6-1-.75h-2.5v1.5h2.5z"/><path d="m10.765 9.853c.081-.406.476-.67.882-.588.406.081.67.476.588.882l-.5 2.5c-.081.406-.476.67-.882.588-.406-.081-.67-.476-.588-.882z"/><path d="m5.5 5.5c-.414 0-.75-.336-.75-.75s.336-.75.75-.75h5c.414 0 .75.336.75.75s-.336.75-.75.75z"/><path d="m5.5 8c-.414 0-.75-.336-.75-.75s.336-.75.75-.75h5c.414 0 .75.336.75.75s-.336.75-.75.75z"/><path d="m9.75 22c0 .414-.336.75-.75.75s-.75-.336-.75-.75v-1.5c0-.414.336-.75.75-.75s.75.336.75.75z"/></g></svg>