<svg viewBox="0 0 32 32" xmlns="http://www.w3.org/2000/svg"><g id="vk_vkontakte_media_social" data-name="vk vkontakte media social"><path d="m28.89 22a30.07 30.07 0 0 0 -4.13-5.15.2.2 0 0 1 0-.25 40.66 40.66 0 0 0 3.55-5.81 1.9 1.9 0 0 0 -.08-1.86 1.81 1.81 0 0 0 -1.58-.93h-3a2 2 0 0 0 -1.79 1.19 35 35 0 0 1 -3.12 5.51v-4.9a1.79 1.79 0 0 0 -1.8-1.8h-4.38a1.4 1.4 0 0 0 -1.12 2.21l.4.56a1.84 1.84 0 0 1 .33 1.05v3.84a26.11 26.11 0 0 1 -3.12-6.31 2 2 0 0 0 -1.89-1.35h-2.45a1.73 1.73 0 0 0 -1.66 2.14c1.35 5.73 4.18 10.48 7.77 13a1 1 0 0 0 1.39-.23 1 1 0 0 0 -.23-1.4c-3.14-2.2-5.64-6.39-6.91-11.51h2.1a26.12 26.12 0 0 0 4.1 7.75 1.6 1.6 0 0 0 1.8.52 1.64 1.64 0 0 0 1.1-1.57v-4.88a3.78 3.78 0 0 0 -.46-1.82h3v5.43a1.77 1.77 0 0 0 1.29 1.72 1.74 1.74 0 0 0 2-.69 36.87 36.87 0 0 0 3.62-6.46h2.8a39.81 39.81 0 0 1 -3.29 5.37 2.17 2.17 0 0 0 .2 2.83 32.08 32.08 0 0 1 3.92 4.8h-3.35a14 14 0 0 0 -4.07-4.31 1.64 1.64 0 0 0 -1.73-.13 1.69 1.69 0 0 0 -.92 1.52v2.38a.53.53 0 0 1 -.5.55h-.86a1 1 0 0 0 0 2h.86a2.52 2.52 0 0 0 2.5-2.55v-1.77a11.78 11.78 0 0 1 3 3.32 2 2 0 0 0 1.69 1h3.38a1.92 1.92 0 0 0 1.69-1 2 2 0 0 0 -.05-2.01z"/></g></svg>