<svg clip-rule="evenodd" fill-rule="evenodd" height="512" stroke-linejoin="round" stroke-miterlimit="2" viewBox="0 0 24 24" width="512" xmlns="http://www.w3.org/2000/svg"><g id="Icon"><path d="m16.943 5.364c.343-.489.477-1.093.373-1.681s-.436-1.11-.925-1.453c-.268-.187-.552-.386-.819-.573-.489-.342-1.094-.476-1.682-.373-.587.104-1.11.437-1.452.925-2.139 3.056-7.528 10.752-7.528 10.752-.238.34-.156.807.184 1.045l3.276 2.294c.34.238.807.155 1.045-.184 0 0 5.389-7.696 7.528-10.752zm-1.228-.86-7.099 10.137s-2.048-1.434-2.048-1.434 7.099-10.137 7.099-10.137c.114-.163.288-.274.484-.309.196-.034.397.011.56.125l.819.573c.163.114.274.288.309.484.034.196-.01.398-.124.561z"/><path d="m9.64 15.358-4.096-2.868c-.339-.237-.807-.155-1.044.184s-.155.808.184 1.045l4.096 2.868c.339.237.807.155 1.044-.184.238-.339.155-.807-.184-1.045z"/><path d="m15.612 5.958-3.277-2.294c-.339-.238-.807-.155-1.044.184-.238.339-.155.807.184 1.044l3.277 2.295c.339.237.807.155 1.044-.185.238-.339.155-.807-.184-1.044z"/><path d="m1.25 21.911c0 .245.119.474.32.614.2.141.457.174.687.091 0 0 5.735-2.089 5.735-2.089.35-.127.553-.493.477-.858-.274-1.307.338-3.129.635-4.037.102-.314-.012-.658-.283-.847l-2.457-1.721c-.271-.19-.634-.18-.894.024-.751.59-2.254 1.788-3.576 1.977-.369.053-.643.37-.643.743l-.001 6.103zm1.5-1.071.001-4.437c1.167-.359 2.383-1.18 3.203-1.795 0 0 1.556 1.09 1.556 1.09-.297.981-.653 2.404-.591 3.624z"/><path d="m2.614 22.341 2.581-3.686c.238-.339.155-.807-.184-1.045-.339-.237-.807-.155-1.044.185l-2.581 3.686c-.238.339-.155.807.184 1.044.339.238.807.155 1.044-.184z"/><path d="m8.5 22.661h6.5c.663 0 1.269-.375 1.565-.967.297-.593.233-1.303-.165-1.833l-.6-.8c-.057-.076-.066-.177-.024-.262.043-.085.129-.138.224-.138h6c.414 0 .75-.336.75-.75s-.336-.75-.75-.75h-6c-.663 0-1.269.374-1.565.967-.297.593-.233 1.303.165 1.833l.6.8c.057.076.066.177.024.262-.043.084-.129.138-.224.138h-6.5c-.414 0-.75.336-.75.75s.336.75.75.75z"/></g></svg>