<svg clip-rule="evenodd" fill-rule="evenodd" height="512" stroke-linejoin="round" stroke-miterlimit="2" viewBox="0 0 24 24" width="512" xmlns="http://www.w3.org/2000/svg"><g id="Icon"><circle cx="18.5" cy="11.5" r=".5"/><path d="m10.305 12.315s-1.354-.606-2.609-1.831c-1.002-.978-1.95-2.363-2.029-4.171.875.468 2.257 1.052 4.191 1.424 1.563.3 3.482 1.247 4.62 2.563.508.587.859 1.247.895 1.964.035.713-.252 1.463-.936 2.24-.273.311-.243.785.067 1.059.311.273.785.243 1.059-.067 1.002-1.139 1.36-2.263 1.308-3.307-.052-1.04-.521-2.017-1.258-2.87-1.351-1.561-3.618-2.699-5.471-3.056-3.175-.61-4.657-1.835-4.657-1.835-.206-.175-.491-.225-.745-.132-.253.094-.437.317-.48.584-.484 2.985.883 5.208 2.389 6.678 1.463 1.428 3.046 2.127 3.046 2.127.379.168.822-.002.99-.38.168-.379-.002-.822-.38-.99z"/><path d="m10.743 6.901s-.158-1.447 1.01-3.314c.35.71.929 1.521 1.873 2.063.792.455 1.658.988 2.296 1.666.541.575.913 1.258.831 2.112-.039.412.263.779.675.819.412.039.779-.263.819-.675.126-1.32-.398-2.397-1.233-3.284-.737-.783-1.726-1.413-2.64-1.938-1.397-.802-1.632-2.458-1.632-2.458-.042-.29-.25-.529-.531-.612-.282-.082-.586.007-.778.229-2.573 2.972-2.176 5.59-2.176 5.59.054.41.431.699.842.644.41-.054.699-.431.644-.842z"/><path d="m5.752 10.442s-.556 7.193 6.634 8.299c.409.063.792-.218.855-.627s-.218-.792-.627-.855c-5.81-.894-5.366-6.701-5.366-6.701.032-.413-.278-.774-.69-.806-.413-.032-.774.278-.806.69z"/><path d="m10.488 16.75s-3.111.04-8.278-1.47c-.278-.081-.579.005-.771.223-.193.217-.243.526-.128.792 0 0 3.248 7.526 10.795 6.447 6.167-.881 7.701-5.422 8.097-6.479.211-.567.508-1.901 1.031-2.842.108-.195.225-.372.36-.507.097-.098.196-.182.326-.168.336.036.655-.157.778-.472.124-.314.022-.673-.249-.875 0 0-.79-.589-1.345-1.343-.272-.371-.883-.88-1.628-1.18-.791-.318-1.715-.396-2.535.045-.659.354-1.287 1.059-1.662 2.373-.114.398.117.813.515.927s.813-.117.927-.515c.225-.786.535-1.252.93-1.464.409-.22.87-.133 1.266.026.441.177.818.457.979.676.224.305.479.588.72.83-.12.11-.234.237-.342.377-.768.999-1.205 2.86-1.477 3.586-.336.901-1.647 4.77-6.903 5.521-4.423.631-7.108-2.212-8.359-4.064 4.39 1.103 6.977 1.056 6.977 1.056.414-.007.744-.348.738-.762-.007-.414-.348-.744-.762-.738z"/></g></svg>