<svg viewBox="0 0 32 32" xmlns="http://www.w3.org/2000/svg"><g id="mice_mouse_wired" data-name="mice, mouse, wired"><path d="m15.9941 9.1489a1 1 0 0 0 -1 1v4a1 1 0 1 0 2 0v-4a1 1 0 0 0 -1-1z"/><path d="m23.4453 9.0918a4.9591 4.9591 0 0 0 -2.4639-2.82c-.1923-.1011-.3837-.1929-.5771-.28a1 1 0 1 0 -.82 1.8242c.1562.07.3125.1445.4844.2349a2.98 2.98 0 0 1 1.4863 1.6924 24.7992 24.7992 0 0 1 .0137 16.622 2.9921 2.9921 0 0 1 -1.5791 1.7193 9.2418 9.2418 0 0 1 -8.0274.0048 2.9813 2.9813 0 0 1 -1.6142-1.7739 25.7223 25.7223 0 0 1 .062-16.5938 2.9446 2.9446 0 0 1 1.47-1.6831 9.0711 9.0711 0 0 1 4.0917-1.0386.9572.9572 0 0 0 1.0224-.9976v-.0012-.0012-4a1 1 0 0 0 -2 0v3.0616a11.3405 11.3405 0 0 0 -4.0127 1.1908 4.932 4.932 0 0 0 -2.4638 2.8228 27.6913 27.6913 0 0 0 -.0694 17.8677 4.9883 4.9883 0 0 0 2.7012 2.9741 11.8166 11.8166 0 0 0 4.8467 1.082 11.4841 11.4841 0 0 0 4.8232-1.0942 5 5 0 0 0 2.6348-2.874 26.7534 26.7534 0 0 0 -.0088-17.939z"/></g></svg>