<svg clip-rule="evenodd" fill-rule="evenodd" height="512" stroke-linejoin="round" stroke-miterlimit="2" viewBox="0 0 24 24" width="512" xmlns="http://www.w3.org/2000/svg"><g id="Icon"><path d="m22.75 7.5c0-1.519-1.231-2.75-2.75-2.75-1.348 0-2.882 0-2.882 0-.401 0-.768-.227-.947-.586-.435-.867-1.32-1.414-2.289-1.414h-3.764c-.969 0-1.854.547-2.289 1.414-.179.359-.546.586-.947.586 0 0-1.534 0-2.882 0-1.519 0-2.75 1.231-2.75 2.75s1.231 2.75 2.75 2.75h2.882c.401 0 .768.227.947.586.435.867 1.32 1.414 2.289 1.414h3.764c.969 0 1.854-.547 2.289-1.414.179-.359.546-.586.947-.586h2.882c1.519 0 2.75-1.231 2.75-2.75zm-1.5 0c0 .69-.56 1.25-1.25 1.25h-2.882c-.969 0-1.854.547-2.289 1.414-.179.359-.546.586-.947.586h-3.764c-.401 0-.768-.227-.947-.586-.435-.867-1.32-1.414-2.289-1.414h-2.882c-.69 0-1.25-.56-1.25-1.25 0-.69.56-1.25 1.25-1.25h2.882c.969 0 1.854-.547 2.289-1.414.179-.359.546-.586.947-.586h3.764c.401 0 .768.227.947.586.435.867 1.32 1.414 2.289 1.414h2.882c.69 0 1.25.56 1.25 1.25z"/><path d="m18 2.75h4c.414 0 .75-.336.75-.75s-.336-.75-.75-.75h-4c-.414 0-.75.336-.75.75s.336.75.75.75z"/><path d="m19.25 2v3.5c0 .414.336.75.75.75s.75-.336.75-.75v-3.5c0-.414-.336-.75-.75-.75s-.75.336-.75.75z"/><path d="m2 2.75h4c.414 0 .75-.336.75-.75s-.336-.75-.75-.75h-4c-.414 0-.75.336-.75.75s.336.75.75.75z"/><path d="m3.25 2v3.5c0 .414.336.75.75.75s.75-.336.75-.75v-3.5c0-.414-.336-.75-.75-.75s-.75.336-.75.75z"/><path d="m11.25 6.5v2c0 .414.336.75.75.75s.75-.336.75-.75v-2c0-.414-.336-.75-.75-.75s-.75.336-.75.75z"/><path d="m17 21.25h-8.5c-.414 0-.75.336-.75.75s.336.75.75.75h8.5c.414 0 .75-.336.75-.75s-.336-.75-.75-.75z"/><path d="m22 21.25h-2.5c-.414 0-.75.336-.75.75s.336.75.75.75h2.5c.414 0 .75-.336.75-.75s-.336-.75-.75-.75z"/><path d="m6 21.25h-4c-.414 0-.75.336-.75.75s.336.75.75.75h4c.414 0 .75-.336.75-.75s-.336-.75-.75-.75z"/><path d="m11.25 14v1.5c0 .414.336.75.75.75s.75-.336.75-.75v-1.5c0-.414-.336-.75-.75-.75s-.75.336-.75.75z"/><path d="m7.97 13.47-1.061 1.06c-.293.293-.293.768 0 1.061s.768.293 1.061 0l1.06-1.061c.293-.292.293-.768 0-1.06-.292-.293-.768-.293-1.06 0z"/><path d="m14.97 14.53 1.06 1.061c.293.293.768.293 1.061 0s.293-.768 0-1.061l-1.061-1.06c-.292-.293-.768-.293-1.06 0-.293.292-.293.768 0 1.06z"/><path d="m11.25 18v1.5c0 .414.336.75.75.75s.75-.336.75-.75v-1.5c0-.414-.336-.75-.75-.75s-.75.336-.75.75z"/><path d="m5.141 16.298-1.06 1.061c-.293.292-.293.768 0 1.06.292.293.768.293 1.06 0l1.061-1.06c.293-.293.293-.768 0-1.061s-.768-.293-1.061 0z"/><path d="m17.798 17.359 1.061 1.06c.292.293.768.293 1.06 0 .293-.292.293-.768 0-1.06l-1.06-1.061c-.293-.293-.768-.293-1.061 0s-.293.768 0 1.061z"/></g></svg>