<svg clip-rule="evenodd" fill-rule="evenodd" height="512" stroke-linejoin="round" stroke-miterlimit="2" viewBox="0 0 24 24" width="512" xmlns="http://www.w3.org/2000/svg"><g id="Icon"><path d="m12 3.75c-5.243 0-9.5 4.257-9.5 9.5s4.257 9.5 9.5 9.5 9.5-4.257 9.5-9.5-4.257-9.5-9.5-9.5zm0 1.5c4.415 0 8 3.585 8 8s-3.585 8-8 8-8-3.585-8-8 3.585-8 8-8z"/><path d="m12 11c-1.242 0-2.25 1.008-2.25 2.25s1.008 2.25 2.25 2.25 2.25-1.008 2.25-2.25-1.008-2.25-2.25-2.25zm0 1.5c.414 0 .75.336.75.75s-.336.75-.75.75-.75-.336-.75-.75.336-.75.75-.75z"/><path d="m10 2.75h4c.414 0 .75-.336.75-.75s-.336-.75-.75-.75h-4c-.414 0-.75.336-.75.75s.336.75.75.75z"/><path d="m17.677 4.202 2.121 2.121c.293.293.768.293 1.061 0 .292-.292.292-.768 0-1.06l-2.122-2.122c-.292-.292-.768-.292-1.06 0-.293.293-.293.768 0 1.061z"/><path d="m5.263 3.141-2.122 2.122c-.292.292-.292.768 0 1.06.293.293.768.293 1.061 0l2.121-2.121c.293-.293.293-.768 0-1.061-.292-.292-.768-.292-1.06 0z"/><path d="m18.03 7.03 1.768-1.767c.293-.293.293-.768 0-1.061s-.768-.293-1.061 0l-1.767 1.768c-.293.292-.293.768 0 1.06.292.293.768.293 1.06 0z"/><path d="m7.03 5.97-1.767-1.768c-.293-.293-.768-.293-1.061 0s-.293.768 0 1.061l1.768 1.767c.292.293.768.293 1.06 0 .293-.292.293-.768 0-1.06z"/><path d="m13.591 12.72 1.945-1.945c.292-.293.292-.768 0-1.061-.293-.292-.768-.292-1.061 0l-1.945 1.945c-.292.293-.292.768 0 1.061.293.292.768.292 1.061 0z"/></g></svg>