<svg clip-rule="evenodd" fill-rule="evenodd" stroke-linejoin="round" stroke-miterlimit="1.414" viewBox="0 0 32 32" xmlns="http://www.w3.org/2000/svg" xmlns:serif="http://www.serif.com/"><path id="medal-champion-win-gold" d="m0 0h32v32h-32z" fill="none"/><path d="m11 19.469c-2.063-1.407-3.54-3.681-3.903-6.158-.56-3.82 1.641-7.879 5.15-9.493 1.19-.547 2.492-.822 3.81-.818 4.116.039 7.996 3.211 8.779 7.296.558 2.909-.428 6.066-2.552 8.139-2.381 2.326-6.101 3.163-9.284 2.047v5.895l2.552-1.276s.514-.177.895 0l2.552 1.276v-3.177s.059-.546.403-.802c.564-.42 1.55-.03 1.595.744.001.019.001.039.001.058v4.795c-.013.458-.116.503-.233.642-.289.345-.731.476-1.214.252l-3.552-1.776-3.552 1.776s-.678.218-1.09-.129c-.224-.188-.346-.386-.357-.765zm1.899.977.001.001-.004-.002zm-.05-.018.006.002-.012-.004zm-.05-.019.007.003-.01-.004zm-.05-.019h.001l-.008-.003zm-.05-.02.006.003-.015-.006zm-.05-.02.009.004-.014-.005zm-.103-.041.006.002-.011-.004zm-.052-.023.001.001-.006-.002zm-.053-.022.007.003-.01-.005zm-.052-.023.003.002-.009-.004zm-.052-.023.006.003-.008-.004zm-.052-.023.005.002-.01-.005zm-.051-.024.003.001-.004-.002zm-.052-.024.006.002-.011-.005zm-.051-.025.001.001-.004-.002zm-.051-.025.006.003-.01-.005zm-.051-.025.002.001-.007-.003zm-.051-.025.006.003-.009-.005zm-.051-.026.004.002-.009-.005zm-.05-.026.004.002-.006-.003zm-.05-.027.004.003-.01-.006zm-.1-.054.005.003-.01-.006zm-.05-.027h.001l-.005-.003zm-.05-.028.006.003-.009-.005zm-.049-.028.003.001-.008-.004zm-.049-.029.005.003-.007-.004zm-.049-.029.004.003-.01-.006zm-.049-.029.003.002-.004-.002zm-.049-.029.005.003-.009-.006zm-.048-.03v.001l-.002-.002zm-.048-.03.005.003-.009-.005zm-.048-.03.002.001-.007-.004zm-.048-.031.005.003-.008-.005zm-.048-.031.003.002-.008-.005zm-.047-.031.003.002-.005-.003zm-.048-.032.004.003-.008-.006zm4.907-14.5c-3.192.03-6.17 2.457-6.811 5.588-.468 2.286.297 4.784 1.969 6.417 1.931 1.886 4.995 2.511 7.531 1.474 2.95-1.206 4.821-4.614 4.238-7.763-.58-3.126-3.51-5.643-6.746-5.715-.06-.001-.121-.002-.181-.001z" fill-rule="nonzero"/></svg>