<svg clip-rule="evenodd" fill-rule="evenodd" height="512" stroke-linejoin="round" stroke-miterlimit="2" viewBox="0 0 24 24" width="512" xmlns="http://www.w3.org/2000/svg"><g id="Icon"><path d="m12 1.298c-2.19 0-4.125.689-5.328 1.715-.911.777-1.422 1.749-1.422 2.785s.511 2.008 1.422 2.785c1.203 1.026 3.138 1.715 5.328 1.715s4.125-.689 5.328-1.715c.911-.777 1.422-1.749 1.422-2.785s-.511-2.008-1.422-2.785c-1.203-1.026-3.138-1.715-5.328-1.715zm0 1.5c1.784 0 3.374.521 4.355 1.357.545.464.895 1.023.895 1.643s-.35 1.179-.895 1.643c-.981.836-2.571 1.357-4.355 1.357s-3.374-.521-4.355-1.357c-.545-.464-.895-1.023-.895-1.643s.35-1.179.895-1.643c.981-.836 2.571-1.357 4.355-1.357z"/><path d="m12 3.798c-1.026 0-1.928.32-2.492.781-.496.406-.758.924-.758 1.469 0 .586.442 1.957 1.169 2.951.571.78 1.32 1.299 2.081 1.299s1.51-.519 2.081-1.299c.727-.994 1.169-2.365 1.169-2.951 0-.545-.262-1.063-.758-1.469-.564-.461-1.466-.781-2.492-.781zm0 1.5c.539 0 1.029.12 1.382.331.196.117.368.239.368.419 0 .414-.365 1.362-.879 2.065-.157.214-.329.406-.517.541-.113.08-.228.144-.354.144s-.241-.064-.354-.144c-.188-.135-.36-.327-.517-.541-.514-.703-.879-1.651-.879-2.065 0-.18.172-.302.368-.419.353-.211.843-.331 1.382-.331z"/><path d="m17.459 7.068s1.605 1.662 1.298 3.877c-.342 2.466.207 4.57 1.942 6.746.001 0-1.936.645-1.936.645-.393.131-.605.556-.475.949.131.393.556.605.949.475l3-1c.242-.081.427-.28.49-.527s-.004-.51-.179-.697c-1.955-2.096-2.63-4.038-2.305-6.385.405-2.925-1.702-5.123-1.702-5.123-.287-.298-.762-.308-1.061-.021-.298.287-.308.762-.021 1.061z"/><path d="m5.459 6.028s-2.107 2.198-1.702 5.123c.325 2.347-.35 4.289-2.305 6.385-.175.187-.242.45-.179.697s.248.446.49.527l3 1c.393.13.818-.082.949-.475.13-.393-.082-.818-.475-.949l-1.937-.645c1.736-2.176 2.285-4.28 1.943-6.746-.307-2.215 1.298-3.877 1.298-3.877.287-.299.277-.774-.021-1.061-.299-.287-.774-.277-1.061.021z"/><path d="m11.25 9.548v11c0 .215.092.42.254.563 0 0 4.044 3.587 8.467.021.16-.129.26-.318.276-.523.017-.204-.051-.407-.187-.56 0 0-2.932-3.278-2.81-7.479.012-.414-.315-.76-.728-.772-.414-.012-.76.315-.772.728-.104 3.595 1.75 6.599 2.678 7.87-2.599 1.646-4.925.316-5.677-.216-.001 0-.001-10.632-.001-10.632 0-.414-.336-.75-.75-.75s-.75.336-.75.75z"/><path d="m11.504 19.986s-2.762 2.417-5.932.41c.928-1.271 2.782-4.275 2.678-7.87-.012-.413-.358-.74-.772-.728-.413.012-.74.358-.728.772.122 4.201-2.81 7.479-2.81 7.479-.136.153-.204.356-.187.56.016.205.116.394.276.523 4.423 3.566 8.467-.021 8.467-.021.311-.274.34-.749.067-1.059-.274-.311-.749-.34-1.059-.066z"/></g></svg>