<svg clip-rule="evenodd" fill-rule="evenodd" height="512" stroke-linejoin="round" stroke-miterlimit="2" viewBox="0 0 24 24" width="512" xmlns="http://www.w3.org/2000/svg"><g id="Icon"><path d="m20.606 19.817-.733-11c-.097-1.445-1.296-2.567-2.744-2.567-2.679 0-7.579 0-10.258 0-1.448 0-2.647 1.122-2.744 2.567l-.733 11c-.051.76.216 1.506.736 2.062s1.247.871 2.008.871h11.724c.761 0 1.488-.315 2.008-.871s.787-1.302.736-2.062zm-2.23-10.9.733 11c.023.345-.098.684-.334.937s-.567.396-.913.396c-3.061 0-8.663 0-11.724 0-.346 0-.677-.143-.913-.396s-.357-.592-.334-.937c0 0 .733-11 .733-11 .044-.657.589-1.167 1.247-1.167h10.258c.658 0 1.203.51 1.247 1.167z"/><path d="m16.961 7.749.039.001.032-.004c.144-.02.718-.14.718-.758 0-.072 0-.459 0-.988 0-1.26-.5-2.468-1.391-3.359s-2.099-1.391-3.359-1.391c-.659 0-1.341 0-2 0-1.26 0-2.468.5-3.359 1.391s-1.391 2.099-1.391 3.359v.988.005.007c0 .038.003.075.008.111l.001.003.003.017c.02.129.07.231.133.312.137.186.357.307.605.307 0 0 .75-.056.75-.762v-.988c0-.862.342-1.689.952-2.298.609-.61 1.436-.952 2.298-.952h2c.862 0 1.689.342 2.298.952.61.609.952 1.436.952 2.298v.988.005.007c0 .038.003.075.008.111l.001.003.003.017c.02.129.07.231.133.312.13.177.334.294.566.306z"/><path d="m10.801 16.946h-1.233c-.113 0-.218-.06-.275-.158-.057-.099-.057-.219-.001-.318l.563-.985c.205-.359.08-.818-.279-1.023-.36-.205-.818-.08-1.024.279l-.562.985c-.322.563-.32 1.254.006 1.814.325.561.924.906 1.572.906h1.233c.414 0 .75-.336.75-.75s-.336-.75-.75-.75z"/><path d="m11.053 13.388.671-1.174c.056-.099.162-.16.276-.16s.22.061.276.16l.671 1.174c.205.359.664.484 1.023.279.36-.205.485-.664.279-1.023l-.67-1.174c-.324-.566-.927-.916-1.579-.916s-1.255.35-1.579.916c0 0-.67 1.174-.67 1.174-.206.359-.081.818.279 1.023.359.205.818.08 1.023-.279z"/><path d="m14.252 15.671.456.799c.056.099.056.219-.001.318-.057.098-.162.158-.275.158h-1.233c-.414 0-.75.336-.75.75s.336.75.75.75h1.233c.648 0 1.247-.345 1.572-.906.326-.56.328-1.251.006-1.814 0 0-.456-.799-.456-.799-.205-.359-.664-.485-1.023-.279-.36.205-.485.664-.279 1.023z"/></g></svg>