<svg clip-rule="evenodd" fill-rule="evenodd" height="512" stroke-linejoin="round" stroke-miterlimit="2" viewBox="0 0 24 24" width="512" xmlns="http://www.w3.org/2000/svg"><g id="Icon"><path d="m20.75 4c0-.729-.29-1.429-.805-1.945-.516-.515-1.216-.805-1.945-.805h-12c-.729 0-1.429.29-1.945.805-.515.516-.805 1.216-.805 1.945v16c0 .729.29 1.429.805 1.945.516.515 1.216.805 1.945.805h12c.729 0 1.429-.29 1.945-.805.515-.516.805-1.216.805-1.945zm-1.5 0v16c0 .332-.132.649-.366.884-.235.234-.552.366-.884.366h-12c-.332 0-.649-.132-.884-.366-.234-.235-.366-.552-.366-.884v-16c0-.332.132-.649.366-.884.235-.234.552-.366.884-.366h12c.332 0 .649.132.884.366.234.235.366.552.366.884z"/><path d="m15.75 5.75c0-.414-.336-.75-.75-.75h-6c-.414 0-.75.336-.75.75v3c0 .414.336.75.75.75h6c.414 0 .75-.336.75-.75zm-1.5.75v1.5h-4.5v-1.5z"/><path d="m10.75 15.25c0-.414-.336-.75-.75-.75h-3c-.414 0-.75.336-.75.75v3c0 .414.336.75.75.75h3c.414 0 .75-.336.75-.75zm-1.5.75v1.5h-1.5v-1.5z"/><path d="m17.75 15.25c0-.414-.336-.75-.75-.75h-3c-.414 0-.75.336-.75.75v3c0 .414.336.75.75.75h3c.414 0 .75-.336.75-.75zm-1.5.75v1.5h-1.5v-1.5z"/><path d="m11.25 8.75v3.5c0 .414.336.75.75.75s.75-.336.75-.75v-3.5c0-.414-.336-.75-.75-.75s-.75.336-.75.75z"/><path d="m9.25 15.25v-2.25h5.5v2.25c0 .414.336.75.75.75s.75-.336.75-.75v-3c0-.414-.336-.75-.75-.75h-7c-.414 0-.75.336-.75.75v3c0 .414.336.75.75.75s.75-.336.75-.75z"/></g></svg>