<?xml version="1.0"?>
<svg xmlns="http://www.w3.org/2000/svg" viewBox="0 0 32 32" width="512" height="512"><g id="elearning_phone_online" data-name="elearning, phone, online"><path d="M15.2734,14.6885a1,1,0,0,0,1.438.0166,4.7614,4.7614,0,0,1,3.2442-1.7031.3352.3352,0,0,1,.0449,0,1,1,0,0,0,.0112-2,6.3009,6.3009,0,0,0-3.9985,1.6259,5.7972,5.7972,0,0,0-4.0454-1.625A.9988.9988,0,0,0,11,12.002v6a1,1,0,0,0,1.0708.997,4.2553,4.2553,0,0,1,3.2007,1.6875,1,1,0,0,0,.708.3155H16a1,1,0,0,0,.7-.2862,4.97,4.97,0,0,1,3.3013-1.7138,1,1,0,0,0,.9985-1V16a1,1,0,0,0-2,0v1.1064a6.9432,6.9432,0,0,0-2.9736,1.5264A6.1763,6.1763,0,0,0,13,17.0566V13.13A5.3711,5.3711,0,0,1,15.2734,14.6885Z" style="fill-rule:evenodd"/><path d="M28.1211,7.8789A3.02,3.02,0,0,0,26,7H6a3.02,3.02,0,0,0-2.1211.8789A2.9794,2.9794,0,0,0,3,10V22a2.9794,2.9794,0,0,0,.8789,2.1211A3.02,3.02,0,0,0,6,25H26a3.02,3.02,0,0,0,2.1211-.8789A2.9794,2.9794,0,0,0,29,22V10A2.9794,2.9794,0,0,0,28.1211,7.8789ZM27,22a1,1,0,0,1-1,1H6a1,1,0,0,1-1-1V10A1,1,0,0,1,6,9H26a1,1,0,0,1,1,1v3a2.0007,2.0007,0,0,0-2,2v2a1.9994,1.9994,0,0,0,2,2Z" style="fill-rule:evenodd"/></g></svg>
