<svg height="512" viewBox="0 0 32 32" width="512" xmlns="http://www.w3.org/2000/svg"><g id="drug_treatment_medicine" data-name="drug, treatment, medicine"><path d="m10 17a3 3 0 1 0 3 3 3.0033 3.0033 0 0 0 -3-3zm0 4a1 1 0 1 1 1-1 1.0006 1.0006 0 0 1 -1 1z"/><path d="m18 17a3 3 0 1 0 3 3 3.0033 3.0033 0 0 0 -3-3zm0 4a1 1 0 1 1 1-1 1.0006 1.0006 0 0 1 -1 1z"/><path d="m26 17a3 3 0 1 0 3 3 3.0033 3.0033 0 0 0 -3-3zm0 4a1 1 0 1 1 1-1 1.0006 1.0006 0 0 1 -1 1z"/><path d="m10 9a3 3 0 1 0 3 3 3.0033 3.0033 0 0 0 -3-3zm0 4a1 1 0 1 1 1-1 1.0006 1.0006 0 0 1 -1 1z"/><path d="m18 9a3 3 0 1 0 3 3 3.0033 3.0033 0 0 0 -3-3zm0 4a1 1 0 1 1 1-1 1.0006 1.0006 0 0 1 -1 1z"/><path d="m26 9a3 3 0 1 0 3 3 3.0033 3.0033 0 0 0 -3-3zm0 4a1 1 0 1 1 1-1 1.0006 1.0006 0 0 1 -1 1z"/><path d="m28 25h-20a3.0025 3.0025 0 0 1 -3-3v-12a3.0025 3.0025 0 0 1 3-3h20a1 1 0 0 0 0-2h-20a5 5 0 0 0 -5 5v12a5 5 0 0 0 5 5h20a1 1 0 0 0 0-2z"/></g></svg>