<?xml version="1.0"?>
<svg xmlns="http://www.w3.org/2000/svg" viewBox="0 0 32 32"><title/><path d="M28,15H24.9331A9.0352,9.0352,0,0,0,20.501,8.2065a1,1,0,1,0-1.002,1.73A7.0368,7.0368,0,0,1,22.9227,15H22a1,1,0,0,0,0,2h.92A7.0046,7.0046,0,0,1,17,22.92V22a1,1,0,0,0-2,0v.92A7.0045,7.0045,0,0,1,9.08,17H10a1,1,0,0,0,0-2H9.08A7.0045,7.0045,0,0,1,15,9.08V10a1,1,0,0,0,2,0V4a1,1,0,0,0-2,0V7.059A9.0124,9.0124,0,0,0,7.059,15H4a1,1,0,0,0,0,2H7.059A9.0124,9.0124,0,0,0,15,24.941V28a1,1,0,0,0,2,0V24.941A9.0124,9.0124,0,0,0,24.941,17H28a1,1,0,0,0,0-2Z"/></svg>
