<svg clip-rule="evenodd" fill-rule="evenodd" height="512" stroke-linejoin="round" stroke-miterlimit="2" viewBox="0 0 24 24" width="512" xmlns="http://www.w3.org/2000/svg"><g id="Icon"><path d="m16 22.75h-13c-.464 0-.909-.184-1.237-.513-.329-.328-.513-.773-.513-1.237v-18c0-.966.783-1.75 1.75-1.75h4.5c.414 0 .75.336.75.75v1.689l1.78 1.781c.172.171.25.414.21.653l-.045.272.415-.498-.781-1.562c-.052-.104-.079-.219-.079-.335v-2c0-.414.336-.75.75-.75h5.5c.464 0 .909.184 1.237.513.329.328.513.773.513 1.237v18c0 .464-.184.909-.513 1.237-.328.329-.773.513-1.237.513zm0-1.5c.066 0 .13-.026.177-.073s.073-.111.073-.177v-18c0-.066-.026-.13-.073-.177s-.111-.073-.177-.073h-4.75v1.073l.921 1.842c.133.266.096.586-.095.815l-2.5 3c-.217.26-.581.343-.889.202-.307-.141-.482-.471-.427-.805 0 0 .437-2.62.437-2.62l-1.727-1.727c-.141-.14-.22-.331-.22-.53v-1.25h-3.75c-.138 0-.25.112-.25.25v18c0 .066.026.13.073.177s.111.073.177.073z"/><path d="m5 10.75c-.414 0-.75-.336-.75-.75s.336-.75.75-.75h1.5c.414 0 .75.336.75.75s-.336.75-.75.75z"/><path d="m11.5 10.75c-.414 0-.75-.336-.75-.75s.336-.75.75-.75h2.5c.414 0 .75.336.75.75s-.336.75-.75.75z"/><path d="m11.5 19.75c-.414 0-.75-.336-.75-.75s.336-.75.75-.75h2.5c.414 0 .75.336.75.75s-.336.75-.75.75z"/><path d="m5 13.75c-.414 0-.75-.336-.75-.75s.336-.75.75-.75h9c.414 0 .75.336.75.75s-.336.75-.75.75z"/><path d="m5 16.75c-.414 0-.75-.336-.75-.75s.336-.75.75-.75h9c.414 0 .75.336.75.75s-.336.75-.75.75z"/><path d="m22.75 6.5v9.5c0 .114-.026.227-.076.33l-1.225 2.5c-.125.255-.383.418-.667.42s-.545-.156-.674-.409l-1.276-2.5c-.054-.106-.082-.222-.082-.341v-9.5c0-.464.184-.909.513-1.237.328-.329.773-.513 1.237-.513h.5c.464 0 .909.184 1.237.513.329.328.513.773.513 1.237zm-1.5 0c0-.066-.026-.13-.073-.177s-.111-.073-.177-.073h-.5c-.066 0-.13.026-.177.073s-.073.111-.073.177v9.32s.512 1.003.512 1.003l.488-.997z"/><path d="m22 11c.414 0 .75.336.75.75s-.336.75-.75.75h-2.5c-.414 0-.75-.336-.75-.75s.336-.75.75-.75z"/></g></svg>