<svg clip-rule="evenodd" fill-rule="evenodd" height="512" stroke-linejoin="round" stroke-miterlimit="2" viewBox="0 0 134 134" width="512" xmlns="http://www.w3.org/2000/svg"><path d="m29.167 58.333v-3.602c0-1.195.513-2.332 1.408-3.123 6.823-6.026 24.336-21.495 33.333-29.441 1.576-1.392 3.941-1.392 5.517 0 8.997 7.946 26.51 23.415 33.333 29.441.896.791 1.409 1.928 1.409 3.123v53.602c0 2.302-1.866 4.167-4.167 4.167-7.271 0-16.667 0-16.667 0-2.299 0-4.166 1.867-4.166 4.167 0 2.299 1.867 4.166 4.166 4.166h16.667c6.904 0 12.5-5.596 12.5-12.5 0-14.377 0-43.292 0-53.602 0-3.584-1.539-6.996-4.225-9.369-6.823-6.026-24.336-21.494-33.333-29.441-4.727-4.175-11.823-4.175-16.55 0-8.997 7.946-26.51 23.415-33.334 29.441-2.686 2.373-4.225 5.785-4.225 9.369v3.602c0 6.248 8.334 6.248 8.334 0zm0 20.834v-4.167c0-6.904 5.596-12.5 12.5-12.5 6.903 0 12.5 5.596 12.5 12.5v4.167c4.602 0 8.333 3.731 8.333 8.333v25c0 4.602-3.731 8.333-8.333 8.333-6.404 0-18.596 0-25 0-4.603 0-8.334-3.731-8.334-8.333 0-6.404 0-18.596 0-25 0-4.602 3.731-8.333 8.334-8.333zm25 8.333h-25v25h25zm-8.334-8.333v-4.167c0-2.301-1.865-4.167-4.166-4.167-2.302 0-4.167 1.866-4.167 4.167v4.167z"/></svg>