<svg clip-rule="evenodd" fill-rule="evenodd" height="512" stroke-linejoin="round" stroke-miterlimit="2" viewBox="0 0 24 24" width="512" xmlns="http://www.w3.org/2000/svg"><g id="Icon"><path d="m19.75 9c0-4.277-3.473-7.75-7.75-7.75s-7.75 3.473-7.75 7.75 3.473 7.75 7.75 7.75 7.75-3.473 7.75-7.75zm-1.5 0c0 3.449-2.801 6.25-6.25 6.25s-6.25-2.801-6.25-6.25 2.801-6.25 6.25-6.25 6.25 2.801 6.25 6.25z"/><path d="m16.75 15c0-4.277-3.473-7.75-7.75-7.75s-7.75 3.473-7.75 7.75 3.473 7.75 7.75 7.75 7.75-3.473 7.75-7.75zm-1.5 0c0 3.449-2.801 6.25-6.25 6.25s-6.25-2.801-6.25-6.25 2.801-6.25 6.25-6.25 6.25 2.801 6.25 6.25z"/><path d="m22.75 15c0-4.277-3.473-7.75-7.75-7.75s-7.75 3.473-7.75 7.75 3.473 7.75 7.75 7.75 7.75-3.473 7.75-7.75zm-1.5 0c0 3.449-2.801 6.25-6.25 6.25s-6.25-2.801-6.25-6.25 2.801-6.25 6.25-6.25 6.25 2.801 6.25 6.25z"/></g></svg>