<svg clip-rule="evenodd" fill-rule="evenodd" height="512" stroke-linejoin="round" stroke-miterlimit="2" viewBox="0 0 24 24" width="512" xmlns="http://www.w3.org/2000/svg"><g id="Icon"><path d="m22.75 20v-16c0-.729-.29-1.429-.805-1.945-.516-.515-1.216-.805-1.945-.805-3.832 0-12.168 0-16 0-.729 0-1.429.29-1.945.805-.515.516-.805 1.216-.805 1.945v16c0 .729.29 1.429.805 1.945.516.515 1.216.805 1.945.805h16c.729 0 1.429-.29 1.945-.805.515-.516.805-1.216.805-1.945zm-1.5 0c0 .332-.132.649-.366.884-.235.234-.552.366-.884.366h-16c-.332 0-.649-.132-.884-.366-.234-.235-.366-.552-.366-.884v-16c0-.332.132-.649.366-.884.235-.234.552-.366.884-.366h16c.332 0 .649.132.884.366.234.235.366.552.366.884z"/><g fill-rule="nonzero"><path d="m19.75 5c0 .414-.336.75-.75.75s-.75-.336-.75-.75.336-.75.75-.75.75.336.75.75"/><path d="m5.75 5c0 .414-.336.75-.75.75s-.75-.336-.75-.75.336-.75.75-.75.75.336.75.75"/><path d="m19.75 19c0 .414-.336.75-.75.75s-.75-.336-.75-.75.336-.75.75-.75.75.336.75.75"/><path d="m5.75 19c0 .414-.336.75-.75.75s-.75-.336-.75-.75.336-.75.75-.75.75.336.75.75"/></g><path d="m13 11.25c-.414 0-.75.336-.75.75 0 .12-.097.206-.211.227-.215.039-.402.17-.513.358-.11.188-.133.416-.063.622.504 1.477 1.89 2.543 3.537 2.543 2.071 0 3.75-1.679 3.75-3.75 0-.414-.336-.75-.75-.75zm.579 1.5h3.543c-.309.874-1.142 1.5-2.122 1.5-.761 0-1.427-.382-1.831-.962.17-.15.31-.332.41-.538z"/><path d="m11.773 12.04c-.038-.215-.169-.403-.357-.513-.189-.111-.416-.135-.623-.064-1.477.504-2.543 1.89-2.543 3.537 0 2.071 1.679 3.75 3.75 3.75.414 0 .75-.336.75-.75v-5c0-.414-.336-.75-.75-.75-.119 0-.206-.096-.227-.21zm-1.061 1.129c.15.17.332.31.538.41v3.543c-.874-.309-1.5-1.142-1.5-2.122 0-.761.382-1.427.962-1.831z"/><path d="m11.96 11.773c.215-.038.403-.169.513-.357.111-.189.135-.416.064-.623-.504-1.477-1.89-2.543-3.537-2.543-2.071 0-3.75 1.679-3.75 3.75 0 .414.336.75.75.75h5c.414 0 .75-.336.75-.75 0-.119.096-.206.21-.227zm-1.129-1.061c-.17.15-.31.332-.41.538h-3.543c.309-.874 1.142-1.5 2.122-1.5.761 0 1.427.382 1.831.962z"/><path d="m12 5.25c-.414 0-.75.336-.75.75v5c0 .414.336.75.75.75.119 0 .206.096.227.21.039.215.169.402.358.513.188.111.415.134.622.064 1.477-.504 2.543-1.89 2.543-3.537 0-2.071-1.679-3.75-3.75-3.75zm.75 1.628c.874.309 1.5 1.142 1.5 2.122 0 .761-.382 1.427-.962 1.831-.15-.17-.332-.31-.538-.41z"/></g></svg>