<svg clip-rule="evenodd" fill-rule="evenodd" height="512" stroke-linejoin="round" stroke-miterlimit="2" viewBox="0 0 24 24" width="512" xmlns="http://www.w3.org/2000/svg"><g id="Icon"><path d="m18 1.25h-12c-.968 0-1.75.784-1.75 1.75v8.5c0 .966.782 1.75 1.75 1.75h1.5c.138 0 .25.112.25.25v1.5c0 .966.782 1.75 1.75 1.75h5c.968 0 1.75-.784 1.75-1.75v-1.5c0-.138.112-.25.25-.25h1.5c.968 0 1.75-.784 1.75-1.75v-8.5c0-.966-.782-1.75-1.75-1.75zm0 1.5c.138 0 .25.112.25.25v8.5c0 .138-.112.25-.25.25h-1.5c-.968 0-1.75.784-1.75 1.75v1.5c0 .138-.112.25-.25.25h-5c-.138 0-.25-.112-.25-.25v-1.5c0-.966-.782-1.75-1.75-1.75h-1.5c-.138 0-.25-.112-.25-.25v-8.5c0-.138.112-.25.25-.25z"/><path d="m11.25 16v6c0 .414.336.75.75.75s.75-.336.75-.75v-6c0-.414-.336-.75-.75-.75s-.75.336-.75.75z"/><path d="m12.75 4v-2c0-.414-.336-.75-.75-.75s-.75.336-.75.75v2c0 .414.336.75.75.75s.75-.336.75-.75z"/><path d="m15.75 4v-2c0-.414-.336-.75-.75-.75s-.75.336-.75.75v2c0 .414.336.75.75.75s.75-.336.75-.75z"/><path d="m9.75 4v-2c0-.414-.336-.75-.75-.75s-.75.336-.75.75v2c0 .414.336.75.75.75s.75-.336.75-.75z"/></g></svg>