<svg clip-rule="evenodd" fill-rule="evenodd" height="512" stroke-linejoin="round" stroke-miterlimit="2" viewBox="0 0 24 24" width="512" xmlns="http://www.w3.org/2000/svg"><g id="Icon"><path d="m18.75 21.5v-1c0-1.519-1.231-2.75-2.75-2.75h-8c-1.519 0-2.75 1.231-2.75 2.75v1c0 .69.56 1.25 1.25 1.25h11c.69 0 1.25-.56 1.25-1.25zm-1.5-.25h-10.5v-.75c0-.69.56-1.25 1.25-1.25h8c.69 0 1.25.56 1.25 1.25z"/><path d="m9 8.25c-.199 0-.39.079-.531.221-.141.141-.22.332-.219.531.011 3.369.363 5.78-1.413 9.148-.123.233-.115.512.021.737s.379.363.642.363h9c.266 0 .512-.141.647-.37.134-.229.138-.513.008-.745-1.874-3.361-1.432-5.768-1.405-9.129.002-.2-.077-.392-.218-.534-.14-.142-.332-.222-.532-.222zm.756 1.5h4.483c-.056 2.886-.233 5.162 1.043 8h-6.591c1.221-2.839 1.1-5.114 1.065-8z"/><path d="m8 9.75h8c.414 0 .75-.336.75-.75s-.336-.75-.75-.75h-8c-.414 0-.75.336-.75.75s.336.75.75.75z"/><path d="m12 1.25c-2.346 0-4.25 1.904-4.25 4.25s1.904 4.25 4.25 4.25 4.25-1.904 4.25-4.25-1.904-4.25-4.25-4.25zm0 1.5c1.518 0 2.75 1.232 2.75 2.75s-1.232 2.75-2.75 2.75-2.75-1.232-2.75-2.75 1.232-2.75 2.75-2.75z"/></g></svg>