<svg clip-rule="evenodd" fill-rule="evenodd" height="512" stroke-linejoin="round" stroke-miterlimit="2" viewBox="0 0 24 24" width="512" xmlns="http://www.w3.org/2000/svg"><g id="Icon"><path d="m12 1.25c-5.933 0-10.75 4.817-10.75 10.75s4.817 10.75 10.75 10.75 10.75-4.817 10.75-10.75-4.817-10.75-10.75-10.75zm0 1.5c5.105 0 9.25 4.145 9.25 9.25s-4.145 9.25-9.25 9.25-9.25-4.145-9.25-9.25 4.145-9.25 9.25-9.25z"/><path d="m14.235 5.647c.069-.345-.111-.691-.433-.833-.321-.142-.699-.041-.907.242l-5.5 7.5c-.167.228-.192.531-.064.783s.386.411.669.411h2.601s-.839 4.616-.839 4.616c-.063.348.125.693.452.827.327.135.704.023.904-.268l5.5-8c.158-.23.175-.528.046-.774-.13-.247-.385-.401-.664-.401h-2.585s.82-4.103.82-4.103zm-2.135 3.031-.335 1.675c-.045.22.013.449.155.622.142.174.355.275.58.275h2.074s-2.71 3.943-2.71 3.943.374-2.059.374-2.059c.04-.219-.02-.444-.162-.615-.143-.17-.354-.269-.576-.269h-2.02z"/></g></svg>