<svg clip-rule="evenodd" fill-rule="evenodd" stroke-linejoin="round" stroke-miterlimit="1.414" viewBox="0 0 32 32" xmlns="http://www.w3.org/2000/svg" xmlns:serif="http://www.serif.com/"><path id="setting-tunning-option" d="m0 0h32v32h-32z" fill="none"/><path d="m19.211 23.326c.159-.477.432-.915.819-1.256.533-.47 1.23-.736 1.95-.748.036-.001.036-.001.072 0 1.305.023 2.547.975 2.876 2.256.261 1.018-.042 2.181-.81 2.899-.029.028-.06.053-.092.077-.624.457-1.74-.112-1.578-.99.073-.396.468-.64.549-1.032.164-.795-.938-1.628-1.671-.931-.386.367-.41 1.039-.014 1.44 0 0 .416.569.219 1.071-.263.671-1.243.819-1.798.173-.241-.28-.418-.606-.532-.955h-13.222c-.245-.009-.311-.039-.435-.099-.575-.277-.752-1.169-.247-1.638.183-.17.43-.258.682-.267zm-6.391-6.014c-.15.436-.397.835-.73 1.147-.029.027-.06.053-.092.076-.624.458-1.739-.119-1.578-.99.073-.395.469-.64.549-1.031.148-.72-.733-1.491-1.469-1.081-.536.299-.679 1.121-.216 1.59 0 0 .295.319.289.72-.014.825-1.174 1.332-1.868.524-1.009-1.176-.899-3.162.297-4.215.533-.47 1.23-.736 1.95-.749h.072c1.218.022 2.382.852 2.798 2.004h13.203c.025.001.05.002.075.003.243.027.307.063.426.131.538.311.645 1.172.181 1.603-.183.17-.43.258-.682.268zm6.391-10.023c.159-.477.432-.915.819-1.256.533-.47 1.23-.736 1.95-.749h.072c1.305.024 2.547.976 2.876 2.257.261 1.018-.042 2.181-.81 2.899-.029.028-.06.053-.092.077-.62.454-1.742-.106-1.578-.99.073-.396.468-.64.549-1.032.164-.795-.938-1.628-1.671-.931-.386.367-.41 1.039-.014 1.44 0 0 .295.32.289.721-.014.825-1.175 1.331-1.868.523-.241-.28-.418-.606-.532-.955h-13.222c-.245-.009-.311-.039-.435-.099-.574-.277-.748-1.173-.247-1.638.183-.17.43-.258.682-.267z" fill-rule="nonzero"/></svg>