<svg clip-rule="evenodd" fill-rule="evenodd" height="512" stroke-linejoin="round" stroke-miterlimit="2" viewBox="0 0 24 24" width="512" xmlns="http://www.w3.org/2000/svg"><g id="Icon"><path d="m12.172 14.286-1.767 5.302c-.131.393.081.818.474.949s.818-.082.949-.474l1.767-5.302c.131-.393-.081-.818-.474-.949s-.818.082-.949.474z"/><path d="m14.202 15.938 1.237 1.237s-1.237 1.236-1.237 1.236c-.292.293-.292.768 0 1.061.293.293.768.293 1.061 0l1.767-1.767c.293-.293.293-.768 0-1.061l-1.767-1.767c-.293-.293-.768-.293-1.061 0-.292.293-.292.768 0 1.061z"/><path d="m8.737 14.877-1.767 1.767c-.293.293-.293.768 0 1.061l1.767 1.767c.293.293.768.293 1.061 0 .292-.293.292-.768 0-1.061l-1.237-1.236s1.237-1.237 1.237-1.237c.292-.293.292-.768 0-1.061-.293-.293-.768-.293-1.061 0z"/><path d="m4.809 16.115c-1.213-.55-2.059-1.772-2.059-3.19 0-1.686 1.193-3.095 2.781-3.426.674-.135 1.207-.662 1.353-1.339.444-1.858 2.121-3.235 4.116-3.235 1.569 0 2.941.852 3.677 2.119.347.636 1.032.988 1.735.903.185-.009.385-.022.588-.022 2.346 0 4.25 1.904 4.25 4.25 0 1.741-1.05 3.239-2.551 3.896-.379.166-.552.608-.386.987.166.38.608.553.988.387 2.029-.888 3.449-2.915 3.449-5.27 0-3.174-2.576-5.75-5.75-5.75-.238 0-.473.015-.706.027-.02.001-.04.003-.06.005-.095.013-.188-.034-.233-.119-.003-.007-.007-.014-.011-.021-.992-1.728-2.856-2.892-4.99-2.892-2.707 0-4.979 1.874-5.578 4.396-.001.007-.003.015-.004.022-.02.094-.093.167-.188.186-.002 0-.004.001-.006.001-2.268.474-3.974 2.487-3.974 4.895 0 2.025 1.207 3.771 2.941 4.556.377.171.821.004.992-.373s.004-.822-.374-.993z"/></g></svg>