<svg clip-rule="evenodd" fill-rule="evenodd" height="512" stroke-linejoin="round" stroke-miterlimit="2" viewBox="0 0 24 24" width="512" xmlns="http://www.w3.org/2000/svg"><g id="Icon"><path d="m21.75 13c0-5.381-4.369-9.75-9.75-9.75s-9.75 4.369-9.75 9.75 4.369 9.75 9.75 9.75 9.75-4.369 9.75-9.75zm-1.5 0c0 4.553-3.697 8.25-8.25 8.25s-8.25-3.697-8.25-8.25 3.697-8.25 8.25-8.25 8.25 3.697 8.25 8.25z"/><path d="m12 4.75c.31 0 .615.02.916.054.212.024.425-.044.584-.186s.25-.345.25-.559v-1.059c0-.966-.782-1.75-1.75-1.75s-1.75.784-1.75 1.75v1.059c0 .214.091.417.25.559s.372.21.584.186c.301-.034.606-.054.916-.054zm0-1.5c-.084 0-.167.001-.25.004v-.254c0-.138.112-.25.25-.25s.25.112.25.25v.254c-.083-.003-.166-.004-.25-.004z"/><path d="m8.935 17.707 4.797-2.057c.413-.177.742-.506.919-.919l2.055-4.797c.202-.47.097-1.015-.265-1.376-.361-.361-.906-.466-1.376-.265l-4.797 2.056c-.413.177-.742.506-.919.919-.394.919-1.433 3.344-2.056 4.798-.201.47-.096 1.015.265 1.376.362.362.907.466 1.377.265zm6.146-7.789-1.809 4.222c-.025.059-.072.106-.131.132l-4.223 1.81 1.81-4.223c.025-.059.072-.106.131-.132z"/><path d="m9.778 11.839 3.383 3.382c.292.293.768.293 1.06 0 .293-.292.293-.768 0-1.06l-3.382-3.383c-.293-.292-.768-.292-1.061 0-.292.293-.292.768 0 1.061z"/></g></svg>