<?xml version="1.0"?>
<svg xmlns="http://www.w3.org/2000/svg" viewBox="0 0 32 32" width="512" height="512"><g id="Layer_34" data-name="Layer 34"><path d="M28,27H26.92L24.9961,3.917A.999.999,0,0,0,24,3H22a.999.999,0,0,0-.9961.917l-.5,6a1,1,0,1,0,1.9922.166L22.92,5h.16l1.8335,22H23V14a1,1,0,0,0-1.124-.9922l-2.1.2625-.78-9.3533A.999.999,0,0,0,18,3H16a.999.999,0,0,0-.9961.917L14.166,13.9716l-8.29,1.0362A1,1,0,0,0,5,16v8a1,1,0,0,0,2,0V16.8828l14-1.75v3.2993H10a1,1,0,0,0,0,2H21V23H10a1,1,0,0,0,0,2H21v2H4a1,1,0,0,0,0,2H28a1,1,0,0,0,0-2ZM16.92,5h.16l.71,8.5185-1.5971.2Z"/></g></svg>
