<svg clip-rule="evenodd" fill-rule="evenodd" height="512" stroke-linejoin="round" stroke-miterlimit="2" viewBox="0 0 24 24" width="512" xmlns="http://www.w3.org/2000/svg"><g id="Icon"><path d="m4.3 19.663c.006.006.012.013.018.019 2.999 2.999 7.862 2.999 10.861 0 .938-.938 1.633-1.636 1.633-1.636.291-.293.291-.767-.002-1.06-2.998-2.998-7.859-2.998-10.857 0 0 0-1.324 1.325-1.589 1.59-.495.495-.064 1.087-.064 1.087zm1.641-.543 1.073-1.073c2.233-2.233 5.751-2.399 8.175-.498-.282.282-.652.653-1.071 1.072-2.234 2.234-5.752 2.4-8.177.499z"/><path d="m7.014 7.19c-.293-.293-.767-.293-1.06-.002 0 0-.698.695-1.636 1.633-2.999 2.999-2.999 7.862 0 10.861.271.271.53.22.53.22.199 0 .39-.079.531-.22 0 0 .696-.697 1.635-1.635 2.998-2.998 2.998-7.859 0-10.857zm-2.134 10.869c-1.901-2.425-1.735-5.943.499-8.177l1.072-1.071c1.901 2.424 1.735 5.942-.498 8.175z"/><path d="m2.685 16.988s-.485.485-.927.926c-.328.328-.512.774-.512 1.238s.184.909.512 1.237c.549.548 1.305 1.304 1.853 1.853.328.328.773.512 1.237.512s.91-.184 1.238-.512c.441-.442.926-.927.926-.927.293-.292.293-.768 0-1.06-.293-.293-.768-.293-1.061 0 0 0-.485.485-.926.926-.047.047-.11.073-.177.073-.066 0-.13-.026-.176-.073-.549-.548-1.305-1.304-1.853-1.853-.047-.046-.073-.11-.073-.176 0-.067.026-.13.073-.177.441-.441.926-.926.926-.926.293-.293.293-.768 0-1.061-.292-.293-.768-.293-1.06 0z"/><path d="m7.829 9.065c3.136-3.136 6.545-5.298 9.249-6.043 1.544-.425 2.827-.42 3.573.327.747.746.752 2.029.327 3.573-.745 2.704-2.907 6.113-6.043 9.249-.293.293-.293.768 0 1.061.292.293.768.293 1.06 0 3.354-3.354 5.633-7.02 6.429-9.912.602-2.187.345-3.975-.712-5.032s-2.845-1.314-5.032-.712c-2.892.796-6.558 3.075-9.912 6.429-.293.292-.293.768 0 1.06.293.293.768.293 1.061 0z"/><path d="m20.482 3.518c-.068.225-.174.535-.312.803-1.086 2.115-3.97 5.685-7.685 9.4-.411.411-.821.812-1.227 1.202-.299.286-.308.761-.022 1.06.287.299.762.309 1.061.022.413-.396.83-.804 1.248-1.223 3.857-3.857 6.831-7.58 7.96-9.776.343-.668.523-1.223.557-1.626.04-.494-.11-.852-.35-1.092s-.598-.39-1.092-.35c-.403.034-.958.214-1.626.557-2.196 1.129-5.919 4.103-9.776 7.96-.419.418-.827.835-1.223 1.248-.287.299-.277.774.022 1.061.299.286.774.277 1.06-.022.39-.406.791-.816 1.202-1.227 3.715-3.715 7.285-6.599 9.4-7.685.268-.138.578-.244.803-.312z"/><path d="m21.015 9.055-6.07-6.07c-.293-.293-.768-.293-1.061 0-.292.292-.292.768 0 1.06l6.071 6.071c.292.292.768.292 1.06 0 .293-.293.293-.768 0-1.061z"/><path d="m19.265 12.085-7.35-7.35c-.292-.293-.768-.293-1.06 0-.293.292-.293.768 0 1.06l7.35 7.35c.292.293.768.293 1.06 0 .293-.292.293-.768 0-1.06z"/><path d="m16.97 15.109-8.079-8.079c-.293-.293-.768-.293-1.061 0-.292.292-.292.768 0 1.06l8.08 8.08c.292.292.768.292 1.06 0 .293-.293.293-.768 0-1.061z"/></g></svg>