<svg clip-rule="evenodd" fill-rule="evenodd" height="512" stroke-linejoin="round" stroke-miterlimit="2" viewBox="0 0 24 24" width="512" xmlns="http://www.w3.org/2000/svg"><g id="Icon"><path d="m6.75 10.25c0-.414-.336-.75-.75-.75h-3c-.414 0-.75.336-.75.75v7c0 .414.336.75.75.75h3c.414 0 .75-.336.75-.75zm-1.5.75v5.5h-1.5v-5.5z"/><path d="m11.75 7.25c0-.414-.336-.75-.75-.75h-3c-.414 0-.75.336-.75.75v10c0 .414.336.75.75.75h3c.414 0 .75-.336.75-.75zm-1.5.75v8.5h-1.5v-8.5z"/><path d="m16.75 9.25c0-.414-.336-.75-.75-.75h-3c-.414 0-.75.336-.75.75v8c0 .414.336.75.75.75h3c.414 0 .75-.336.75-.75zm-1.5.75v6.5h-1.5v-6.5z"/><path d="m21.75 4.25c0-.414-.336-.75-.75-.75h-3c-.414 0-.75.336-.75.75v13c0 .414.336.75.75.75h3c.414 0 .75-.336.75-.75zm-1.5.75v11.5h-1.5v-11.5z"/><path d="m22 19h-20c-.414 0-.75.336-.75.75s.336.75.75.75h20c.414 0 .75-.336.75-.75s-.336-.75-.75-.75z"/></g></svg>