<svg clip-rule="evenodd" fill-rule="evenodd" height="512" stroke-linejoin="round" stroke-miterlimit="2" viewBox="0 0 24 24" width="512" xmlns="http://www.w3.org/2000/svg"><g id="Icon"><path d="m19.75 21v-1c0-.966-.783-1.75-1.75-1.75h-12c-.967 0-1.75.784-1.75 1.75v1c0 .966.783 1.75 1.75 1.75h12c.967 0 1.75-.784 1.75-1.75zm-1.5-1v1c0 .138-.112.25-.25.25h-12c-.138 0-.25-.112-.25-.25v-1c0-.138.112-.25.25-.25h12c.138 0 .25.112.25.25z"/><path d="m18.75 15.5c0-1.26-.5-2.468-1.391-3.359s-2.099-1.391-3.359-1.391c-1.287 0-2.713 0-4 0-1.26 0-2.468.5-3.359 1.391s-1.391 2.099-1.391 3.359v3.5c0 .414.336.75.75.75h12c.414 0 .75-.336.75-.75zm-1.5 0v2.75h-10.5v-2.75c0-.862.342-1.689.952-2.298.609-.61 1.436-.952 2.298-.952h4c.862 0 1.689.342 2.298.952.61.609.952 1.436.952 2.298z"/><path d="m15.75 9c0-.414-.336-.75-.75-.75h-6c-.414 0-.75.336-.75.75v2.5c0 .414.336.75.75.75h6c.414 0 .75-.336.75-.75zm-1.5.75v1h-4.5v-1z"/><path d="m18.25 4.25v.336c0 .066-.026.13-.073.177l-3.707 3.707c-.293.292-.293.768 0 1.06.292.293.768.293 1.06 0 0 0 2.785-2.784 3.707-3.707.329-.328.513-.773.513-1.237v-.586c0-.69-.56-1.25-1.25-1.25h-2c-.414 0-.75.336-.75.75s.336.75.75.75z"/><path d="m5.75 4.25h1.75c.414 0 .75-.336.75-.75s-.336-.75-.75-.75h-2c-.69 0-1.25.56-1.25 1.25v.586c0 .464.184.909.513 1.237.922.923 3.707 3.707 3.707 3.707.292.293.768.293 1.06 0 .293-.292.293-.768 0-1.06l-3.707-3.707c-.047-.047-.073-.111-.073-.177z"/><path d="m15 10.75h4c.414 0 .75-.336.75-.75s-.336-.75-.75-.75h-4c-.414 0-.75.336-.75.75s.336.75.75.75z"/><path d="m18.25 8.5v3c0 .414.336.75.75.75s.75-.336.75-.75v-3c0-.414-.336-.75-.75-.75s-.75.336-.75.75z"/><path d="m12.516 1.456c-.289-.275-.743-.275-1.032 0 0 0-1.054 1.002-1.687 2.01-.338.538-.547 1.09-.547 1.534 0 1.518 1.232 2.75 2.75 2.75s2.75-1.232 2.75-2.75c0-.444-.209-.996-.547-1.534-.633-1.008-1.687-2.01-1.687-2.01zm-.516 1.62c.214.234.465.526.691.835.279.379.559.769.559 1.089 0 .69-.56 1.25-1.25 1.25s-1.25-.56-1.25-1.25c0-.32.28-.71.559-1.089.226-.309.477-.601.691-.835z"/></g></svg>