<svg clip-rule="evenodd" fill-rule="evenodd" height="512" stroke-linejoin="round" stroke-miterlimit="2" viewBox="0 0 24 24" width="512" xmlns="http://www.w3.org/2000/svg"><g id="Icon"><path d="m20.75 3c0-.966-.783-1.75-1.75-1.75h-14c-.967 0-1.75.784-1.75 1.75v18c0 .966.783 1.75 1.75 1.75h14c.967 0 1.75-.784 1.75-1.75zm-1.5 0v18c0 .138-.112.25-.25.25h-14c-.138 0-.25-.112-.25-.25v-18c0-.138.112-.25.25-.25h14c.138 0 .25.112.25.25z"/><path d="m6.453 7.063 1.125 1.2c.151.162.367.248.588.236s.426-.122.559-.299l1.875-2.5c.248-.331.181-.802-.15-1.05s-.802-.181-1.05.15l-1.339 1.785s-.514-.548-.514-.548c-.283-.302-.758-.317-1.06-.034s-.317.758-.034 1.06z"/><path d="m6.453 12.563 1.125 1.2c.151.162.367.248.588.236s.426-.122.559-.299l1.875-2.5c.248-.331.181-.802-.15-1.05s-.802-.181-1.05.15l-1.339 1.785s-.514-.548-.514-.548c-.283-.302-.758-.317-1.06-.034s-.317.758-.034 1.06z"/><path d="m6.453 18.063 1.125 1.2c.151.162.367.248.588.236s.426-.122.559-.299l1.875-2.5c.248-.331.181-.802-.15-1.05s-.802-.181-1.05.15l-1.339 1.785s-.514-.548-.514-.548c-.283-.302-.758-.317-1.06-.034s-.317.758-.034 1.06z"/><path d="m13 7.25h4c.414 0 .75-.336.75-.75s-.336-.75-.75-.75h-4c-.414 0-.75.336-.75.75s.336.75.75.75z"/><path d="m13 12.75h4c.414 0 .75-.336.75-.75s-.336-.75-.75-.75h-4c-.414 0-.75.336-.75.75s.336.75.75.75z"/><path d="m13 18.25h4c.414 0 .75-.336.75-.75s-.336-.75-.75-.75h-4c-.414 0-.75.336-.75.75s.336.75.75.75z"/></g></svg>