<svg clip-rule="evenodd" fill-rule="evenodd" stroke-linejoin="round" stroke-miterlimit="1.414" viewBox="0 0 32 32" xmlns="http://www.w3.org/2000/svg" xmlns:serif="http://www.serif.com/"><path id="discount-promotion-sale-percent" d="m0 0h32v32h-32z" fill="none"/><path d="m16.094 3.007c.432.062.456.085.715.408l2.267 3.121 3.669-1.192s.678-.117 1.038.266c.172.183.259.432.271.685v3.857l3.669 1.192s.617.304.683.826c.032.249-.044.502-.183.713l-2.267 3.121 2.267 3.121s.448 1.181-.5 1.539l-3.669 1.192v3.857s-.098.681-.574.905c-.227.107-.491.113-.735.046l-4.36-1.416c-.079-.03-.1-.035-.174-.076-.704-.388-.599-1.712.322-1.862.156-.026.315-.007.471.036l3.05.991v-3.208s-.015-.094.042-.286c.092-.309.342-.548.649-.665l3.051-.991-1.886-2.595s-.119-.175-.162-.349c-.054-.219-.031-.455.064-.66.037-.078.051-.095.098-.167l1.886-2.595-3.051-.991s-.199-.072-.336-.187c-.173-.146-.293-.35-.336-.572-.017-.084-.015-.106-.019-.192v-3.208l-3.05.991s-.204.06-.382.047c-.226-.017-.443-.111-.609-.265-.063-.059-.074-.078-.128-.145l-1.885-2.595-1.885 2.595s-.13.168-.282.262c-.192.119-.423.17-.648.143-.085-.01-.106-.019-.189-.042l-3.05-.991v3.208s.015.094-.042.286c-.092.309-.342.548-.649.665l-3.051.991 1.886 2.595s.068.068.134.256c.107.304.046.645-.134.92l-1.886 2.595 3.051.991s.095.015.259.128c.265.183.416.495.432.823v3.208l3.05-.991s.086-.044.285-.049c.323-.008.628.156.834.412l2.694 3.708c.046.071.061.087.097.164.339.725-.505 1.746-1.356 1.318-.141-.072-.258-.18-.359-.306l-2.267-3.121-3.669 1.192s-1.262.061-1.309-.951v-3.857l-3.669-1.192s-.617-.304-.683-.826c-.032-.249.044-.502.183-.713l2.267-3.121-2.267-3.121s-.321-.608-.067-1.069c.121-.221.33-.38.567-.47l3.669-1.192v-3.857s.098-.681.574-.905c.227-.107.491-.113.735-.046l3.669 1.192 2.267-3.121s.292-.332.622-.395c.176-.033.222-.016.281-.013zm2.906 14.997c.552 0 1 .448 1 1s-.448 1-1 1-1-.448-1-1 .448-1 1-1zm.037-6c.756.046 1.274 1.044.704 1.672-.011.012-.022.023-.034.035l-6 6.001c-.56.533-1.676.165-1.707-.671-.01-.275.104-.546.293-.744l6-6c.201-.192.466-.296.744-.293zm-6.037 0c.552 0 1 .448 1 1s-.448 1-1 1-1-.448-1-1 .448-1 1-1z" fill-rule="nonzero"/></svg>