<svg clip-rule="evenodd" fill-rule="evenodd" height="512" stroke-linejoin="round" stroke-miterlimit="2" viewBox="0 0 24 24" width="512" xmlns="http://www.w3.org/2000/svg"><g id="Icon"><path d="m18.75 12c0-3.725-3.025-6.75-6.75-6.75s-6.75 3.025-6.75 6.75 3.025 6.75 6.75 6.75 6.75-3.025 6.75-6.75zm-1.5 0c0 2.898-2.352 5.25-5.25 5.25s-5.25-2.352-5.25-5.25 2.352-5.25 5.25-5.25 5.25 2.352 5.25 5.25z"/><path d="m5.459 5.459c3.612-3.612 9.469-3.612 13.082 0 .293.293.768.293 1.061 0s.293-.768 0-1.061c-4.199-4.198-11.006-4.197-15.204 0-.292.293-.292.768 0 1.061.293.293.768.293 1.061 0z"/><path d="m4.179 3.001.002 1.931c0 .414.336.749.75.749l2.069-.002c.414 0 .75-.337.75-.751-.001-.414-.337-.749-.751-.749l-1.319.001s-.001-1.181-.001-1.181c-.001-.414-.337-.749-.751-.749s-.75.337-.749.751z"/><path d="m18.541 18.541c-3.612 3.612-9.469 3.612-13.082 0-.293-.293-.768-.293-1.061 0s-.293.768 0 1.061c4.199 4.198 11.006 4.197 15.204 0 .292-.293.292-.768 0-1.061-.293-.293-.768-.293-1.061 0z"/><path d="m19.821 20.999-.002-1.931c0-.414-.336-.749-.75-.749l-2.069.002c-.414 0-.75.337-.75.751.001.414.337.749.751.749l1.319-.001s.001 1.181.001 1.181c.001.414.337.749.751.749s.75-.337.749-.751z"/><path d="m13.5 9.25h-2c-.968 0-1.75.784-1.75 1.75s.782 1.75 1.75 1.75h1c.138 0 .25.112.25.25s-.112.25-.25.25h-2c-.414 0-.75.336-.75.75s.336.75.75.75h2c.968 0 1.75-.784 1.75-1.75s-.782-1.75-1.75-1.75h-1c-.138 0-.25-.112-.25-.25s.112-.25.25-.25h2c.414 0 .75-.336.75-.75s-.336-.75-.75-.75z"/><path d="m11.25 9v1c0 .414.336.75.75.75s.75-.336.75-.75v-1c0-.414-.336-.75-.75-.75s-.75.336-.75.75z"/><path d="m11.25 14v1c0 .414.336.75.75.75s.75-.336.75-.75v-1c0-.414-.336-.75-.75-.75s-.75.336-.75.75z"/></g></svg>