<svg clip-rule="evenodd" fill-rule="evenodd" height="512" stroke-linejoin="round" stroke-miterlimit="2" viewBox="0 0 24 24" width="512" xmlns="http://www.w3.org/2000/svg"><g id="Icon"><g fill-rule="nonzero"><path d="m17.75 15c0 .414-.336.75-.75.75s-.75-.336-.75-.75.336-.75.75-.75.75.336.75.75"/><path d="m17.75 19c0 .414-.336.75-.75.75s-.75-.336-.75-.75.336-.75.75-.75.75.336.75.75"/><path d="m19 17.75c-.414 0-.75-.336-.75-.75s.336-.75.75-.75.75.336.75.75-.336.75-.75.75"/><path d="m15 17.75c-.414 0-.75-.336-.75-.75s.336-.75.75-.75.75.336.75.75-.336.75-.75.75"/></g><path d="m6.25 15v4c0 .414.336.75.75.75s.75-.336.75-.75v-4c0-.414-.336-.75-.75-.75s-.75.336-.75.75z"/><path d="m5 17.75h4c.414 0 .75-.336.75-.75s-.336-.75-.75-.75h-4c-.414 0-.75.336-.75.75s.336.75.75.75z"/><path d="m20 22.75c1.518 0 2.75-1.232 2.75-2.75v-6c0-1.518-1.232-2.75-2.75-2.75h-16c-1.518 0-2.75 1.232-2.75 2.75v6c0 1.518 1.232 2.75 2.75 2.75zm0-1.5h-16c-.69 0-1.25-.56-1.25-1.25v-6c0-.69.56-1.25 1.25-1.25h16c.69 0 1.25.56 1.25 1.25v6c0 .69-.56 1.25-1.25 1.25z"/><path d="m12.75 12v-2.875c0-.759.615-1.375 1.375-1.375 1.588 0 2.875-1.287 2.875-2.875v-2.875c0-.414-.336-.75-.75-.75s-.75.336-.75.75v2.875c0 .76-.615 1.375-1.375 1.375-1.588 0-2.875 1.288-2.875 2.875v2.875c0 .414.336.75.75.75s.75-.336.75-.75z"/></g></svg>