<svg clip-rule="evenodd" fill-rule="evenodd" stroke-linejoin="round" stroke-miterlimit="1.414" viewBox="0 0 32 32" xmlns="http://www.w3.org/2000/svg" xmlns:serif="http://www.serif.com/"><path id="termometer-fahrenheit-sick" d="m0 0h32v32h-32z" fill="none"/><path d="m8.026 2.99c1.555.029 2.957 1.366 2.968 3.002v14.028c.359.269 1.059.959 1.449 1.716 1.04 2.017.481 4.728-1.292 6.174-1.602 1.307-4.039 1.475-5.811.368-1.92-1.199-2.839-3.793-2.067-5.943.407-1.133 1.202-2.183 2.291-2.687.722-.335 1.738.529 1.314 1.363-.058.113-.137.215-.233.299-.214.188-.487.316-.703.517-1.199 1.116-1.225 3.258 0 4.4.939.874 2.466 1.044 3.572.389 1.706-1.009 1.983-3.837.161-5.076-.376-.256-.393-.265-.473-.367-.128-.164-.195-.266-.212-.616 0-4.863.09-9.725 0-14.587-.023-.746-1.066-1.281-1.683-.709-.202.187-.319.458-.32.737v10.015c-.004.084-.002.106-.018.189-.124.644-.989 1.037-1.565.627-.259-.185-.406-.496-.421-.816v-10.021c.01-1.542 1.317-2.951 2.931-3.001.037-.001.074-.001.112-.001zm16.992 8.014v3.005s-.163.836-.779.977c-.545.124-1.154-.295-1.218-.865-.005-.049-.005-.062-.006-.112v-8.014c.005-.183.022-.233.056-.331.137-.392.447-.657.946-.671h4.007c.018.001.037.002.056.002.229.019.302.054.428.123.577.319.683 1.277.095 1.694-.122.087-.264.146-.412.171-.055.009-.111.012-.167.014h-3.006v2c1.015-.006 2.031-.016 3.045.004.767.046 1.249 1.071.703 1.674-.186.206-.459.323-.742.329zm-6.973-8.014c1.695.032 3.181 1.685 2.937 3.424-.198 1.418-1.537 2.587-2.976 2.587-1.719 0-3.26-1.717-2.965-3.499.228-1.372 1.483-2.484 2.926-2.512zm-.052 2.004c-.768.014-1.314 1.105-.686 1.718.63.615 2.19-.103 1.575-1.204-.176-.313-.524-.517-.889-.514z" fill-rule="nonzero"/></svg>