<svg clip-rule="evenodd" fill-rule="evenodd" height="512" stroke-linejoin="round" stroke-miterlimit="2" viewBox="0 0 24 24" width="512" xmlns="http://www.w3.org/2000/svg"><g id="Icon"><path d="m9 2.25c-1.816 0-3.475 1.049-4.783 2.72-1.821 2.327-2.967 5.867-2.967 9.03 0 4.277 3.473 7.75 7.75 7.75s7.75-3.473 7.75-7.75c0-3.163-1.146-6.703-2.967-9.03-1.308-1.671-2.967-2.72-4.783-2.72zm0 1.5c1.384 0 2.605.871 3.601 2.144 1.635 2.089 2.649 5.269 2.649 8.106 0 3.449-2.801 6.25-6.25 6.25s-6.25-2.801-6.25-6.25c0-2.837 1.014-6.017 2.649-8.106.996-1.273 2.217-2.144 3.601-2.144z"/><path d="m12.479 4.767c.757-.629 1.605-1.017 2.521-1.017 1.384 0 2.605.871 3.601 2.144 1.635 2.089 2.649 5.269 2.649 8.106 0 3.449-2.801 6.25-6.25 6.25-.958 0-1.866-.216-2.678-.602-.374-.178-.822-.019-.999.355-.178.374-.019.822.355 1 1.007.479 2.133.747 3.322.747 4.277 0 7.75-3.473 7.75-7.75 0-3.163-1.146-6.703-2.967-9.03-1.308-1.671-2.967-2.72-4.783-2.72-1.259 0-2.438.498-3.479 1.362-.318.264-.363.738-.098 1.056.264.319.737.363 1.056.099z"/><path d="m9 10.25c-2.07 0-3.75 1.68-3.75 3.75s1.68 3.75 3.75 3.75 3.75-1.68 3.75-3.75-1.68-3.75-3.75-3.75zm0 1.5c1.242 0 2.25 1.008 2.25 2.25s-1.008 2.25-2.25 2.25-2.25-1.008-2.25-2.25 1.008-2.25 2.25-2.25z"/></g></svg>