<svg clip-rule="evenodd" fill-rule="evenodd" height="512" stroke-linejoin="round" stroke-miterlimit="2" viewBox="0 0 24 24" width="512" xmlns="http://www.w3.org/2000/svg"><g id="Icon"><path d="m1.25 2v20c0 .414.336.75.75.75h20c.414 0 .75-.336.75-.75s-.336-.75-.75-.75h-19.25v-19.25c0-.414-.336-.75-.75-.75s-.75.336-.75.75z"/><path d="m1.25 7.5c0 .414.336.75.75.75h16c.414 0 .75-.336.75-.75v-3.5c0-.414-.336-.75-.75-.75h-16c-.414 0-.75.336-.75.75zm1.5-.75v-2h14.5v2z"/><path d="m1.25 13.5c0 .414.336.75.75.75h10c.414 0 .75-.336.75-.75v-3.5c0-.414-.336-.75-.75-.75h-10c-.414 0-.75.336-.75.75zm1.5-.75v-2h8.5v2z"/><path d="m1.25 19.5c0 .414.336.75.75.75h14c.414 0 .75-.336.75-.75v-3.5c0-.414-.336-.75-.75-.75h-14c-.414 0-.75.336-.75.75zm1.5-.75v-2h12.5v2z"/><path d="m19.75 4v3.5c0 .414.336.75.75.75s.75-.336.75-.75v-3.5c0-.414-.336-.75-.75-.75s-.75.336-.75.75z"/><path d="m13.75 10v3.5c0 .414.336.75.75.75s.75-.336.75-.75v-3.5c0-.414-.336-.75-.75-.75s-.75.336-.75.75z"/><path d="m17.75 16v3.5c0 .414.336.75.75.75s.75-.336.75-.75v-3.5c0-.414-.336-.75-.75-.75s-.75.336-.75.75z"/></g></svg>