<svg clip-rule="evenodd" fill-rule="evenodd" stroke-linejoin="round" stroke-miterlimit="1.414" viewBox="0 0 32 32" xmlns="http://www.w3.org/2000/svg" xmlns:serif="http://www.serif.com/"><path id="exclamation-danger-caution" d="m0 0h32v32h-32z" fill="none"/><path d="m16.036 4.214c1.103.015 2.158.668 2.659 1.658l2.214 4.429c.257.579-.098 1.317-.709 1.432-.364.069-.76-.083-.984-.379-.05-.066-.057-.085-.097-.157-.741-1.481-1.462-2.972-2.222-4.443-.338-.641-1.423-.681-1.779.008-2.956 5.846-5.978 11.66-8.789 17.577-.277.596.186 1.413.89 1.427 5.863.072 11.727.118 17.589 0 .663-.019 1.196-.793.87-1.45l-4.557-9.115c-.321-.724.358-1.639 1.168-1.411.208.059.394.186.525.359.05.066.058.085.098.157 1.523 3.046 3.058 6.086 4.568 9.138.871 1.794-.457 4.297-2.672 4.324-5.866.024-11.731.024-17.597 0-1.987-.024-3.65-2.308-2.673-4.324 2.909-5.876 5.839-11.742 8.797-17.594.501-.969 1.545-1.621 2.648-1.636zm-.027 17.544c.556 0 1.008.45 1.008 1.005 0 .554-.452 1.005-1.008 1.005s-1.007-.451-1.007-1.005c0-.555.451-1.005 1.007-1.005zm.057-12.008c.182.015.231.035.327.074.327.136.571.457.611.813.006.05.005.062.007.112v8.009c-.018.638-.707 1.164-1.332.945-.354-.123-.622-.46-.664-.833-.006-.049-.005-.062-.007-.112v-8.009c.005-.183.022-.233.056-.33.124-.353.457-.622.833-.665.108-.012.134-.005.169-.004z" fill-rule="nonzero"/></svg>