<svg clip-rule="evenodd" fill-rule="evenodd" stroke-linejoin="round" stroke-miterlimit="1.414" viewBox="0 0 32 32" xmlns="http://www.w3.org/2000/svg" xmlns:serif="http://www.serif.com/"><path id="settings-gear-mechanic-setup" d="m0 0h32v32h-32z" fill="none"/><path d="m10.021 21.659c.418.09.785.509 1.161.789.733.548 1.56.967 2.433 1.24 0 0 .2.069.337.183.15.123.262.289.319.474.026.082.026.104.04.189l.259 2.374c.942.123 1.899.123 2.842.002l.277-2.376.015-.096c.08-.305.147-.377.272-.503.068-.068.147-.126.232-.172.235-.128.64-.224.993-.378.832-.36 1.6-.863 2.264-1.475 0 0 .16-.139.327-.201.182-.068.382-.082.57-.039.084.018.104.029.184.06l2.186.962c.577-.754 1.056-1.584 1.423-2.46l-1.92-1.428-.075-.061c-.211-.208-.222-.267-.27-.395-.045-.12-.067-.25-.063-.378.007-.268.126-.667.17-1.05.103-.9.051-1.817-.147-2.698l-.016-.095c-.007-.086-.011-.107-.005-.193.02-.289.179-.554.406-.738l1.926-1.412c-.364-.877-.843-1.706-1.419-2.462l-2.196.948s-.442.173-.831-.011c-.458-.217-.692-.818-.495-1.289.073-.176.197-.329.354-.438.07-.048.09-.055.166-.093l2.88-1.267c.449-.172.922-.018 1.26.377 1.063 1.243 1.887 2.691 2.418 4.234 0 0 .172.749-.342 1.166l-2.029 1.487c.157 1.009.161 2.047.011 3.059l-.011.069 2.029 1.487c.376.305.474.796.303 1.279-.062.176-.128.351-.198.524-.541 1.345-1.313 2.599-2.26 3.688 0 0-.562.523-1.181.286l-2.302-1.013c-.797.642-1.69 1.162-2.644 1.539l-.065.025-.274 2.5c-.076.479-.452.809-.956.903-.183.034-.367.064-.552.09-1.436.204-2.907.162-4.324-.113 0 0-.734-.225-.838-.88l-.274-2.5c-.954-.369-1.854-.884-2.655-1.52l-.054-.044-2.302 1.013c-.453.174-.926.013-1.26-.377-.121-.141-.239-.286-.354-.432-.893-1.14-1.591-2.428-2.064-3.802 0 0-.172-.748.342-1.166l2.029-1.487c-.157-1.01-.161-2.047-.011-3.059l.011-.069-2.029-1.487c-.376-.305-.474-.796-.303-1.279.062-.176.128-.351.198-.524.541-1.345 1.313-2.598 2.26-3.688 0 0 .562-.523 1.181-.286l2.302 1.013c.796-.642 1.692-1.163 2.644-1.539l.065-.025.274-2.5c.075-.476.445-.808.956-.903.183-.034.367-.064.552-.09 1.436-.204 2.907-.162 4.324.113 0 0 .734.225.838.88l.343 3.128c.047.775-.894 1.394-1.563.931-.184-.127-.321-.314-.387-.527-.025-.081-.025-.103-.039-.187l-.259-2.374c-.942-.123-1.899-.123-2.842-.002l-.277 2.376-.015.096c-.075.287-.121.326-.207.431-.082.1-.183.183-.297.244-.235.128-.64.224-.993.378-.832.36-1.6.863-2.264 1.475 0 0-.16.139-.327.201-.182.068-.382.082-.57.039-.084-.018-.104-.029-.184-.06l-2.186-.962c-.577.754-1.055 1.583-1.423 2.46l1.92 1.428.075.061c.225.221.254.316.3.487.025.093.036.19.033.286-.007.268-.125.667-.17 1.05-.103.9-.051 1.817.147 2.698l.016.095c.007.086.011.107.005.193-.02.29-.179.554-.406.738l-1.926 1.412c.364.877.843 1.706 1.419 2.462l2.196-.948.091-.035c.192-.053.248-.063.476-.036zm6.018-8.659c1.385.026 2.669 1.096 2.914 2.47.24 1.337-.555 2.791-1.819 3.308-1.395.57-3.176-.105-3.838-1.477-.682-1.416-.03-3.336 1.436-4.02.384-.18.807-.273 1.23-.281zm-.052 2c-.766.015-1.312 1.104-.685 1.715.514.503 1.578.215 1.688-.574.08-.567-.374-1.145-1.003-1.141z" fill-rule="nonzero"/></svg>