<svg clip-rule="evenodd" fill-rule="evenodd" height="512" stroke-linejoin="round" stroke-miterlimit="2" viewBox="0 0 24 24" width="512" xmlns="http://www.w3.org/2000/svg"><g id="Icon"><path d="m22.75 15v-10c0-.995-.395-1.948-1.098-2.652-.704-.703-1.657-1.098-2.652-1.098-3.776 0-10.224 0-14 0-2.071 0-3.75 1.679-3.75 3.75v14c0 .995.395 1.948 1.098 2.652.704.703 1.657 1.098 2.652 1.098h10c.414 0 .75-.336.75-.75s-.336-.75-.75-.75c0 0-6.161 0-10 0-.597 0-1.169-.237-1.591-.659s-.659-.994-.659-1.591v-14c0-1.243 1.007-2.25 2.25-2.25h14c.597 0 1.169.237 1.591.659s.659.994.659 1.591v10c0 .414.336.75.75.75s.75-.336.75-.75z"/><path d="m17.859 13.97c-.105-.105-.238-.176-.383-.205l-3.536-.708c-.246-.049-.5.028-.677.206-.178.177-.255.431-.206.677l.708 3.536c.029.145.1.278.205.383 0 0 2.232 2.232 3.611 3.611.422.422.994.659 1.591.659.596 0 1.169-.237 1.591-.659.231-.232.475-.476.707-.707.422-.422.659-.995.659-1.591 0-.597-.237-1.169-.659-1.591-1.379-1.379-3.611-3.611-3.611-3.611zm-.9 1.221 3.45 3.45c.141.141.22.332.22.531 0 .198-.079.389-.22.53l-.707.707c-.141.141-.332.22-.53.22-.199 0-.39-.079-.531-.22l-3.45-3.45s-.442-2.21-.442-2.21z"/><path d="m6 14.75h5c.414 0 .75-.336.75-.75s-.336-.75-.75-.75h-5c-.414 0-.75.336-.75.75s.336.75.75.75z"/><path d="m6 10.75h5.5c.414 0 .75-.336.75-.75s-.336-.75-.75-.75h-5.5c-.414 0-.75.336-.75.75s.336.75.75.75z"/><path d="m14.5 10.75h2.5c.414 0 .75-.336.75-.75s-.336-.75-.75-.75h-2.5c-.414 0-.75.336-.75.75s.336.75.75.75z"/><path d="m6 6.75h11c.414 0 .75-.336.75-.75s-.336-.75-.75-.75h-11c-.414 0-.75.336-.75.75s.336.75.75.75z"/></g></svg>