<svg clip-rule="evenodd" fill-rule="evenodd" height="512" stroke-linejoin="round" stroke-miterlimit="2" viewBox="0 0 24 24" width="512" xmlns="http://www.w3.org/2000/svg"><g id="Icon"><path d="m21 16.75c.966 0 1.75-.784 1.75-1.75v-10c0-.966-.784-1.75-1.75-1.75h-18c-.966 0-1.75.784-1.75 1.75v10c0 .966.784 1.75 1.75 1.75zm0-1.5h-18c-.138 0-.25-.112-.25-.25v-10c0-.138.112-.25.25-.25h18c.138 0 .25.112.25.25v10c0 .138-.112.25-.25.25z"/><path d="m14.468 20.75c.912 0 1.641-.399 1.992-.882.317-.437.393-.952.158-1.464.001.002-.842-2.633-.842-2.633-.1-.31-.389-.521-.715-.521h-6.122c-.326 0-.614.211-.714.521l-.844 2.635c-.235.508-.159 1.024.159 1.462.351.483 1.081.882 1.991.882zm.769-1.758c-.025.026-.071.072-.109.096-.169.105-.4.162-.66.162h-4.937c-.139 0-.27-.017-.388-.049-.084-.022-.16-.052-.228-.088-.054-.03-.12-.091-.151-.122.011-.026.021-.052.03-.078l.693-2.163h5.027s.692 2.163.692 2.163c.009.027.019.053.031.079z"/><path d="m2 13.75h20c.414 0 .75-.336.75-.75s-.336-.75-.75-.75h-20c-.414 0-.75.336-.75.75s.336.75.75.75z"/></g></svg>