<svg clip-rule="evenodd" fill-rule="evenodd" height="512" stroke-linejoin="round" stroke-miterlimit="2" viewBox="0 0 24 24" width="512" xmlns="http://www.w3.org/2000/svg"><g id="Icon"><path d="m7.25 13.25c0 .133-.053.26-.146.354-.094.093-.221.146-.354.146h-1.75c-.414 0-.75.336-.75.75s.336.75.75.75h1.75c.53 0 1.039-.211 1.414-.586s.586-.884.586-1.414-.211-1.039-.586-1.414-.884-.586-1.414-.586h-.5c-.133 0-.26-.053-.354-.146-.093-.094-.146-.221-.146-.354s.053-.26.146-.354c.094-.093.221-.146.354-.146h1.75c.414 0 .75-.336.75-.75s-.336-.75-.75-.75h-1.75c-.53 0-1.039.211-1.414.586s-.586.884-.586 1.414.211 1.039.586 1.414.884.586 1.414.586h.5c.133 0 .26.053.354.146.093.094.146.221.146.354z"/><path d="m7.25 9.5v-1c0-.414-.336-.75-.75-.75s-.75.336-.75.75v1c0 .414.336.75.75.75s.75-.336.75-.75z"/><path d="m7.25 15.5v-1c0-.414-.336-.75-.75-.75s-.75.336-.75.75v1c0 .414.336.75.75.75s.75-.336.75-.75z"/><path d="m22.75 7.5c0-1.243-1.007-2.25-2.25-2.25h-17c-1.243 0-2.25 1.007-2.25 2.25v9c0 1.243 1.007 2.25 2.25 2.25h17c1.243 0 2.25-1.007 2.25-2.25zm-1.5 0v9c0 .414-.336.75-.75.75h-17c-.414 0-.75-.336-.75-.75v-9c0-.414.336-.75.75-.75h17c.414 0 .75.336.75.75z"/><path d="m12 9.75h4c.414 0 .75-.336.75-.75s-.336-.75-.75-.75h-4c-.414 0-.75.336-.75.75s.336.75.75.75z"/><path d="m12 12.75h7c.414 0 .75-.336.75-.75s-.336-.75-.75-.75h-7c-.414 0-.75.336-.75.75s.336.75.75.75z"/><path d="m12 15.75h7c.414 0 .75-.336.75-.75s-.336-.75-.75-.75h-7c-.414 0-.75.336-.75.75s.336.75.75.75z"/></g></svg>