<svg clip-rule="evenodd" fill-rule="evenodd" height="512" stroke-linejoin="round" stroke-miterlimit="2" viewBox="0 0 24 24" width="512" xmlns="http://www.w3.org/2000/svg"><g id="Icon"><path d="m7 14.25c-1.518 0-2.75 1.232-2.75 2.75s1.232 2.75 2.75 2.75 2.75-1.232 2.75-2.75-1.232-2.75-2.75-2.75zm0 1.5c.69 0 1.25.56 1.25 1.25s-.56 1.25-1.25 1.25-1.25-.56-1.25-1.25.56-1.25 1.25-1.25z"/><path d="m7 1.25c-.995 0-1.948.395-2.652 1.098-.703.704-1.098 1.657-1.098 2.652v7.642c-1.224 1.054-2 2.616-2 4.358 0 3.174 2.576 5.75 5.75 5.75s5.75-2.576 5.75-5.75c0-1.741-.776-3.303-2-4.358v-7.642c0-.995-.395-1.948-1.098-2.652-.704-.703-1.657-1.098-2.652-1.098zm2.25 11.751c0 .236.111.458.299.599 1.032.776 1.701 2.01 1.701 3.4 0 2.346-1.904 4.25-4.25 4.25s-4.25-1.904-4.25-4.25c0-1.39.669-2.624 1.701-3.4.188-.141.299-.363.299-.599v-8.001c0-.597.237-1.169.659-1.591s.994-.659 1.591-.659 1.169.237 1.591.659.659.994.659 1.591z"/><path d="m7.75 15v-9c0-.414-.336-.75-.75-.75s-.75.336-.75.75v9c0 .414.336.75.75.75s.75-.336.75-.75z"/><path d="m17.25 2v8c0 .414.336.75.75.75s.75-.336.75-.75v-8c0-.414-.336-.75-.75-.75s-.75.336-.75.75z"/><path d="m14 6.75h8c.414 0 .75-.336.75-.75s-.336-.75-.75-.75h-8c-.414 0-.75.336-.75.75s.336.75.75.75z"/><path d="m15.47 2.53 2 2c.293.293.767.293 1.06 0l2-2c.293-.292.293-.768 0-1.06-.292-.293-.768-.293-1.06 0l-1.47 1.469s-1.47-1.469-1.47-1.469c-.292-.293-.768-.293-1.06 0-.293.292-.293.768 0 1.06z"/><path d="m14.53 8.53 2-2c.293-.293.293-.767 0-1.06l-2-2c-.292-.293-.768-.293-1.06 0-.293.292-.293.768 0 1.06l1.469 1.47s-1.469 1.47-1.469 1.47c-.293.292-.293.768 0 1.06.292.293.768.293 1.06 0z"/><path d="m16.53 10.53 1.47-1.469s1.47 1.469 1.47 1.469c.292.293.768.293 1.06 0 .293-.292.293-.768 0-1.06l-2-2c-.293-.293-.767-.293-1.06 0l-2 2c-.293.292-.293.768 0 1.06.292.293.768.293 1.06 0z"/><path d="m22.53 7.47-1.469-1.47s1.469-1.47 1.469-1.47c.293-.292.293-.768 0-1.06-.292-.293-.768-.293-1.06 0l-2 2c-.293.293-.293.767 0 1.06l2 2c.292.293.768.293 1.06 0 .293-.292.293-.768 0-1.06z"/></g></svg>