<svg clip-rule="evenodd" fill-rule="evenodd" height="512" stroke-linejoin="round" stroke-miterlimit="2" viewBox="0 0 24 24" width="512" xmlns="http://www.w3.org/2000/svg"><g id="Icon"><path d="m19 18.25h-14c-1.518 0-2.75 1.232-2.75 2.75 0 .966.784 1.75 1.75 1.75h16c.966 0 1.75-.784 1.75-1.75 0-1.518-1.232-2.75-2.75-2.75zm0 1.5c.69 0 1.25.56 1.25 1.25 0 .138-.112.25-.25.25h-16c-.138 0-.25-.112-.25-.25 0-.69.56-1.25 1.25-1.25z"/><path d="m19.683 12.023c.65.235 1.365-.102 1.6-.752l.319-.883c.234-.646-.102-1.365-.75-1.6l-3.621-1.304c-.649-.235-1.364.102-1.599.75l-.319.886c-.234.646.103 1.366.754 1.599-.001-.001 3.617 1.304 3.617 1.304zm-2.874-2.631 3.148 1.135.149-.413-3.148-1.134z"/><path d="m17.016 9.466c-.39-.14-.819.062-.96.451l-1.315 3.648c-.141.39.061.82.451.96l2.735.986c.39.141.82-.061.96-.451l1.315-3.648c.141-.39-.061-.819-.451-.96zm.197 1.666 1.324.477s-.807 2.237-.807 2.237-1.324-.478-1.324-.478z"/><path d="m18.435 14.095-.022-.008-.167-.056-2.542-.916-.921-.331c-.39-.14-.819.063-.959.452l-1.98 5.51c-.14.39.063.82.452.96.39.14.82-.063.96-.452l1.726-4.805 2.763.996.255.045s-.232-.037-.232-.037.412.097.412.097l-.256-.045.206.075s-.835 2.314-.835 2.314-.31.849-.31.849c-.142.389.059.82.448.962.389.141.82-.059.961-.448l.311-.852 1.09-3.02c.141-.39-.061-.819-.45-.96z"/><path d="m13.368 13.867 6.383 2.301c.39.141.82-.062.96-.451.141-.389-.062-.82-.451-.96l-6.383-2.301c-.389-.14-.82.062-.96.451-.14.39.062.82.451.96z"/><path d="m18.75 6v-1c0-.962-.787-1.75-1.75-1.75-.137 0-.25-.112-.25-.25 0-.962-.787-1.75-1.75-1.75h-6c-.962 0-1.75.788-1.75 1.75 0 .138-.112.25-.25.25-.962 0-1.75.788-1.75 1.75v14c0 .414.336.75.75.75s.75-.336.75-.75v-14c0-.137.113-.25.25-.25.963 0 1.75-.787 1.75-1.75 0-.137.113-.25.25-.25h6c.138 0 .25.113.25.25 0 .963.788 1.75 1.75 1.75.138 0 .25.113.25.25v1c0 .414.336.75.75.75s.75-.336.75-.75z"/></g></svg>