<svg clip-rule="evenodd" fill-rule="evenodd" stroke-linejoin="round" stroke-miterlimit="2" viewBox="0 0 32 32" xmlns="http://www.w3.org/2000/svg" xmlns:serif="http://www.serif.com/"><path id="wifi-signal-off-no-connection" d="m0 0h32v32h-32z" fill="none"/><path d="m16.029 22.715c1.333.024 2.842 1.102 2.234 2.105-.33.544-1.113.543-1.65.111-.392-.307-.976-.258-1.356.105 0 0-.49.349-.933.233-.762-.2-.98-1.282-.197-1.904.542-.431 1.151-.655 1.902-.65zm5.638-14.092 1.621-1.621c.326-.302.437-.304.786-.29.517.061.548.19.682.347.29.34.312.876.049 1.238-.041.057-.055.068-.102.119l-16.006 16.007c-.643.594-1.989 0-1.659-1.017.045-.137.07-.21.244-.398l8.279-8.279c-2.705.123-5.366 1.243-7.32 3.177 0 0-1.312.683-1.679-.341-.238-.666.463-1.299 1.048-1.793 2.298-1.941 5.298-3.031 8.298-3.061h.18c.459.005.966.006 1.389.102l2.578-2.579c-5.371-1.38-11.339.141-15.382 4.166 0 0-.626.444-1.147.188-.579-.284-.727-1.149-.206-1.664 3.375-3.345 7.977-5.189 12.612-5.215h.156c1.89.014 3.773.316 5.579.914zm-4.24 9.234c.714.027 2.929.928 4.171 2.146.63.619.161 2.013-.91 1.728-.443-.117-.745-.563-1.155-.864-.692-.506-1.494-.855-2.331-1.031 0 0-.761-.324-.794-.924-.03-.551.363-1.056 1.019-1.055zm3.732-4c.338.021.158-.017.571.184 1.303.645 2.59 1.475 3.506 2.53.61.702-.42 2.294-1.434 1.391-.921-.883-1.953-1.65-3.114-2.202 0 0-.927-.895-.312-1.575.198-.218.403-.337.783-.328zm3.833-3.597c.571.029.86.377 1.24.64.89.617 1.723 1.316 2.492 2.082 0 0 .431.587.216 1.098-.246.581-1.092.802-1.603.343-.896-.861-1.855-1.657-2.909-2.315 0 0-.226-.157-.337-.347-.352-.609.026-1.516.901-1.501z"/></svg>