<svg id="svg7" height="512" viewBox="0 0 32 32" width="512" xmlns="http://www.w3.org/2000/svg" xmlns:dc="http://purl.org/dc/elements/1.1/" xmlns:cc="http://creativecommons.org/ns#" xmlns:rdf="http://www.w3.org/1999/02/22-rdf-syntax-ns#" xmlns:svg="http://www.w3.org/2000/svg" xmlns:sodipodi="http://sodipodi.sourceforge.net/DTD/sodipodi-0.dtd" xmlns:inkscape="http://www.inkscape.org/namespaces/inkscape" sodipodi:docname="erase, eraser.svg" inkscape:version="0.92.4 (5da689c313, 2019-01-14)"><g id="erase_eraser" data-name="erase, eraser"><path id="path4" d="m28.5356 11.4648-8-8c-.3905-.3903819-1.0235-.3903819-1.414 0l-14.001 14.001c-2.5996612 2.599634-2.5996797 6.814488-.0000479 9.414148 2.5996319 2.599659 6.8144869 2.599686 9.4141479.000052l8.0009-8.001c.848796-.915739-.45153-2.31077-1.414-1.4141l-5.293 5.293-6.5859-6.586 7.6279-7.628 7.293 7.293c.390385.390658 1.023615.390658 1.414 0l2.958-2.958c.390449-.390511.390449-1.023589 0-1.4141zm-14.121 12.7071-1.294 1.2939c-4.3905292 4.385436-10.9764292-2.200364-6.5859-6.5858l1.2939-1.294zm10.456-10.4561-6.5859-6.5858 1.5439-1.544 6.586 6.586z" inkscape:connector-curvature="0" sodipodi:nodetypes="ccccscccccccccccccccccccc"/></g></svg>