<svg clip-rule="evenodd" fill-rule="evenodd" height="512" stroke-linejoin="round" stroke-miterlimit="2" viewBox="0 0 24 24" width="512" xmlns="http://www.w3.org/2000/svg"><g id="Icon"><path d="m22.75 12c0-5.933-4.817-10.75-10.75-10.75s-10.75 4.817-10.75 10.75 4.817 10.75 10.75 10.75 10.75-4.817 10.75-10.75zm-1.5 0c0 5.105-4.145 9.25-9.25 9.25s-9.25-4.145-9.25-9.25 4.145-9.25 9.25-9.25 9.25 4.145 9.25 9.25z"/><path d="m12 9.75c-1.242 0-2.25 1.008-2.25 2.25s1.008 2.25 2.25 2.25 2.25-1.008 2.25-2.25-1.008-2.25-2.25-2.25zm0 1.5c.414 0 .75.336.75.75s-.336.75-.75.75-.75-.336-.75-.75.336-.75.75-.75z"/><path d="m18.052 7.529c.15-.449.033-.944-.302-1.279s-.83-.452-1.279-.302c-1.813.604-5.709 1.903-7.062 2.354-.523.174-.933.584-1.107 1.107-.451 1.353-1.75 5.249-2.354 7.062-.15.449-.033.944.302 1.279s.83.452 1.279.302c1.813-.604 5.709-1.903 7.062-2.354.523-.174.933-.584 1.107-1.107zm-1.581 0-2.196 6.588c-.025.075-.083.133-.158.158l-6.588 2.196 2.196-6.588c.025-.075.083-.133.158-.158z"/><path d="m11.25 2v1.5c0 .414.336.75.75.75s.75-.336.75-.75v-1.5c0-.414-.336-.75-.75-.75s-.75.336-.75.75z"/><path d="m2 12.75h1.5c.414 0 .75-.336.75-.75s-.336-.75-.75-.75h-1.5c-.414 0-.75.336-.75.75s.336.75.75.75z"/><path d="m11.25 20.5v1.5c0 .414.336.75.75.75s.75-.336.75-.75v-1.5c0-.414-.336-.75-.75-.75s-.75.336-.75.75z"/><path d="m20.5 12.75h1.5c.414 0 .75-.336.75-.75s-.336-.75-.75-.75h-1.5c-.414 0-.75.336-.75.75s.336.75.75.75z"/></g></svg>