<svg height="512" viewBox="0 0 32 32" width="512" xmlns="http://www.w3.org/2000/svg"><g id="drop_box_dropbox_cloud_storage" data-name="drop, box, dropbox, cloud, storage"><path d="m28.53 17.4-4.64-2.9 4.64-2.9a1 1 0 0 0 0-1.7l-6-3.75a1 1 0 0 0 -1.06 0l-5.47 3.42-5.47-3.42a1 1 0 0 0 -1.06 0l-6 3.75a1 1 0 0 0 0 1.7l4.64 2.9-4.64 2.9a1 1 0 0 0 0 1.7l6 3.75a1 1 0 0 0 1.06 0l5.47-3.42 5.47 3.42a1 1 0 0 0 1.06 0l6-3.75a1 1 0 0 0 0-1.7zm-12.53-.33-4.11-2.57 4.11-2.57 4.11 2.57zm6-8.89 4.11 2.57-4.11 2.57-4.11-2.57zm-12 0 4.11 2.57-4.11 2.57-4.11-2.57zm0 12.64-4.11-2.57 4.11-2.57 4.11 2.57zm12 0-4.11-2.57 4.11-2.57 4.11 2.57z"/><path d="m19.49 23.74-3.49 2.09-3.49-2.09a1 1 0 0 0 -1 1.72l4 2.4a1 1 0 0 0 1 0l4-2.4a1 1 0 1 0 -1-1.72z"/></g></svg>