<svg clip-rule="evenodd" fill-rule="evenodd" height="512" stroke-linejoin="round" stroke-miterlimit="2" viewBox="0 0 24 24" width="512" xmlns="http://www.w3.org/2000/svg"><g id="Icon"><path d="m5.75 15.733c.414 0 .75.336.75.75s-.336.75-.75.75c-2.484 0-4.5-2.017-4.5-4.5 0-2.484 2.016-4.5 4.5-4.5.213 0 .422.015.627.043.555-2.595 2.863-4.543 5.623-4.543 2.185 0 4.087 1.221 5.059 3.018.146-.012.293-.018.441-.018 2.898 0 5.25 2.352 5.25 5.25 0 2.897-2.352 5.25-5.25 5.25-.414 0-.75-.336-.75-.75s.336-.75.75-.75c2.07 0 3.75-1.681 3.75-3.75 0-2.07-1.68-3.75-3.75-3.75-.251 0-.496.024-.734.071-.351.07-.702-.117-.839-.448-.639-1.539-2.157-2.623-3.927-2.623-2.265 0-4.118 1.775-4.243 4.008-.013.236-.137.452-.334.583s-.444.161-.667.082c-.314-.112-.653-.173-1.006-.173-1.656 0-3 1.344-3 3 0 1.655 1.344 3 3 3z"/><path d="m13.709 12.154 1.614 3.462c.155.333.156.717.002 1.051-.154.333-.446.583-.8.681l-4.884 1.358c-.589.164-1.21-.122-1.468-.676l-.91-1.951c-.258-.554-.078-1.213.426-1.559l4.179-2.869c.303-.207.682-.272 1.037-.175.354.097.648.345.804.678zm-4.997 3.483.731 1.567 4.396-1.222-1.365-2.927z"/><path d="m10.02 18.388c-.261-.321-.211-.794.11-1.055.322-.26.795-.211 1.055.111l1.299 1.601c.26.321.211.794-.11 1.055-.322.261-.795.211-1.055-.11z"/><path d="m11.888 11.8c-.175-.376-.012-.822.363-.997s.822-.012.997.363l2.535 5.438c.175.375.013.821-.362.996s-.822.013-.997-.363z"/></g></svg>