<svg clip-rule="evenodd" fill-rule="evenodd" height="512" stroke-linejoin="round" stroke-miterlimit="2" viewBox="0 0 24 24" width="512" xmlns="http://www.w3.org/2000/svg"><g id="Icon"><path d="m13.108 11.25 2.533-6.334c.388-.969-.155-2.077-1.164-2.343-1.03-.273-2.125-.383-3.261-.292-4.937.398-8.897 4.629-8.965 9.581-.076 5.448 4.318 9.888 9.749 9.888 5.385 0 9.75-4.365 9.75-9.75 0-.414-.336-.75-.75-.75zm-1.804.471c-.093.232-.065.493.075.699.139.207.372.33.621.33h8.216c-.378 4.205-3.912 7.5-8.216 7.5-4.595 0-8.313-3.758-8.249-8.368.058-4.19 3.408-7.769 7.585-8.105.96-.077 1.886.015 2.757.246h.001c.142.038.209.199.155.337 0 0-2.945 7.361-2.945 7.361z"/><path d="m11.25 2v1c0 .414.336.75.75.75s.75-.336.75-.75v-1c0-.414-.336-.75-.75-.75s-.75.336-.75.75z"/><path d="m6.35 3.715.5.866c.207.358.667.481 1.025.274s.481-.666.275-1.024l-.5-.866c-.207-.359-.667-.482-1.025-.275s-.481.666-.275 1.025z"/><path d="m2.965 7.65.866.5c.358.206.817.083 1.024-.275s.084-.818-.274-1.025l-.866-.5c-.359-.206-.818-.083-1.025.275s-.084.818.275 1.025z"/><path d="m2 12.75h1c.414 0 .75-.336.75-.75s-.336-.75-.75-.75h-1c-.414 0-.75.336-.75.75s.336.75.75.75z"/><path d="m3.715 17.65.866-.5c.358-.207.481-.667.274-1.025s-.666-.481-1.024-.275l-.866.5c-.359.207-.482.667-.275 1.025s.666.481 1.025.275z"/><path d="m7.65 21.035.5-.866c.206-.358.083-.817-.275-1.024s-.818-.084-1.025.274l-.5.866c-.206.359-.083.818.275 1.025s.818.084 1.025-.275z"/><path d="m12.75 22v-1c0-.414-.336-.75-.75-.75s-.75.336-.75.75v1c0 .414.336.75.75.75s.75-.336.75-.75z"/><path d="m17.65 20.285-.5-.866c-.207-.358-.667-.481-1.025-.274s-.481.666-.275 1.024l.5.866c.207.359.667.482 1.025.275s.481-.666.275-1.025z"/><path d="m21.035 16.35-.866-.5c-.358-.206-.817-.083-1.024.275s-.084.818.274 1.025l.866.5c.359.206.818.083 1.025-.275s.084-.818-.275-1.025z"/><path d="m22 11.25h-1c-.414 0-.75.336-.75.75s.336.75.75.75h1c.414 0 .75-.336.75-.75s-.336-.75-.75-.75z"/><g fill-rule="nonzero"><path d="m14.25 16.5c.415 0 .75.336.75.749 0 .415-.335.751-.75.751-.414 0-.749-.336-.749-.75s.335-.75.749-.75"/><path d="m17.25 14c.415 0 .75.336.75.749 0 .415-.335.751-.75.751-.414 0-.749-.336-.749-.75s.335-.75.749-.75"/><path d="m7.249 14.5c.415 0 .75.336.75.749 0 .415-.335.751-.75.751-.414 0-.749-.336-.749-.75s.335-.75.749-.75"/><path d="m6 9.75c.414 0 .749.336.75.749-.001.415-.336.751-.75.751-.415 0-.75-.336-.75-.75s.335-.75.75-.75"/><path d="m9.5 10.5c.414 0 .749.336.75.749-.001.415-.336.751-.75.751-.415 0-.75-.336-.75-.75s.335-.75.75-.75"/><path d="m10.249 5.25c.415 0 .75.336.75.749 0 .415-.335.751-.75.751-.414 0-.749-.336-.749-.75s.335-.75.749-.75"/><path d="m10.75 16c.415 0 .75.336.75.749 0 .415-.335.751-.75.751-.414 0-.749-.336-.749-.75s.335-.75.749-.75"/></g><path d="m14.322 6.197c2.303.919 3.928 3.169 3.928 5.803 0 .414.336.75.75.75s.75-.336.75-.75c0-3.266-2.015-6.056-4.872-7.197-.384-.153-.821.034-.974.419-.154.384.034.821.418.975z"/></g></svg>