<svg clip-rule="evenodd" fill-rule="evenodd" height="512" stroke-linejoin="round" stroke-miterlimit="2" viewBox="0 0 24 24" width="512" xmlns="http://www.w3.org/2000/svg"><g id="Icon"><path d="m22.75 7c0-1.795-1.455-3.25-3.25-3.25-3.842 0-11.158 0-15 0-1.795 0-3.25 1.455-3.25 3.25v10c0 1.795 1.455 3.25 3.25 3.25h15c1.795 0 3.25-1.455 3.25-3.25zm-1.5 0v10c0 .967-.783 1.75-1.75 1.75h-15c-.967 0-1.75-.783-1.75-1.75v-10c0-.967.783-1.75 1.75-1.75h15c.967 0 1.75.783 1.75 1.75z"/><path d="m22 8.75h-20c-.414 0-.75.336-.75.75s.336.75.75.75h20c.414 0 .75-.336.75-.75s-.336-.75-.75-.75z"/><path d="m16.5 14.75h2c.414 0 .75-.336.75-.75s-.336-.75-.75-.75h-2c-.414 0-.75.336-.75.75s.336.75.75.75z"/></g></svg>