<svg clip-rule="evenodd" fill-rule="evenodd" height="512" stroke-linejoin="round" stroke-miterlimit="2" viewBox="0 0 24 24" width="512" xmlns="http://www.w3.org/2000/svg"><g id="Icon"><path d="m22.75 9.405v-5c0-.73-.29-1.429-.805-1.945-.516-.516-1.216-.805-1.945-.805-3.832 0-12.168 0-16 0-.729 0-1.429.289-1.945.805-.515.516-.805 1.215-.805 1.944v10.001c0 1.518 1.231 2.75 2.75 2.75h8c.414 0 .75-.337.75-.75 0-.414-.336-.75-.75-.75 0 0-5.082 0-8 0-.69 0-1.25-.56-1.25-1.25 0-.001 0-10 0-10 0-.332.132-.65.366-.884.235-.235.552-.366.884-.366h16c.332 0 .649.131.884.366.234.234.366.552.366.883v5.001c0 .413.336.75.75.75s.75-.337.75-.75z"/><path d="m18 9.655c-2.622 0-4.75 2.128-4.75 4.75 0 2.621 2.128 4.75 4.75 4.75s4.75-2.129 4.75-4.75c0-2.622-2.128-4.75-4.75-4.75zm0 1.5c1.794 0 3.25 1.456 3.25 3.25 0 1.793-1.456 3.25-3.25 3.25s-3.25-1.457-3.25-3.25c0-1.794 1.456-3.25 3.25-3.25z"/><path d="m20.75 20.767-2.258-.967c-.314-.135-.67-.135-.984 0l-2.258.967v-4.362c0-.414-.336-.75-.75-.75s-.75.336-.75.75v4.741c0 .42.211.813.562 1.044s.794.271 1.18.105l2.508-1.075 2.508 1.075c.386.166.829.126 1.18-.105s.562-.624.562-1.044v-4.741c0-.414-.336-.75-.75-.75s-.75.336-.75.75z"/><path d="m6 7.155h11c.414 0 .75-.337.75-.75 0-.414-.336-.75-.75-.75h-11c-.414 0-.75.336-.75.75 0 .413.336.75.75.75z"/><path d="m6 10.655h7c.414 0 .75-.337.75-.75 0-.414-.336-.75-.75-.75h-7c-.414 0-.75.336-.75.75 0 .413.336.75.75.75z"/></g></svg>