<svg clip-rule="evenodd" fill-rule="evenodd" height="512" stroke-linejoin="round" stroke-miterlimit="2" viewBox="0 0 24 24" width="512" xmlns="http://www.w3.org/2000/svg"><g id="Icon"><path d="m14.75 15c0-1.518-1.232-2.75-2.75-2.75s-2.75 1.232-2.75 2.75 1.232 2.75 2.75 2.75 2.75-1.232 2.75-2.75zm-1.5 0c0 .69-.56 1.25-1.25 1.25s-1.25-.56-1.25-1.25.56-1.25 1.25-1.25 1.25.56 1.25 1.25z"/><path d="m7.75 15c0-1.518-1.232-2.75-2.75-2.75s-2.75 1.232-2.75 2.75 1.232 2.75 2.75 2.75 2.75-1.232 2.75-2.75zm-1.5 0c0 .69-.56 1.25-1.25 1.25s-1.25-.56-1.25-1.25.56-1.25 1.25-1.25 1.25.56 1.25 1.25z"/><path d="m21.75 15c0-1.518-1.232-2.75-2.75-2.75s-2.75 1.232-2.75 2.75 1.232 2.75 2.75 2.75 2.75-1.232 2.75-2.75zm-1.5 0c0 .69-.56 1.25-1.25 1.25s-1.25-.56-1.25-1.25.56-1.25 1.25-1.25 1.25.56 1.25 1.25z"/><path d="m19 16.25c-2.071 0-3.75 1.679-3.75 3.75v1c0 .464.184.909.513 1.237.328.329.773.513 1.237.513h4c.464 0 .909-.184 1.237-.513.329-.328.513-.773.513-1.237v-1c0-2.071-1.679-3.75-3.75-3.75zm0 1.5c1.243 0 2.25 1.007 2.25 2.25v1c0 .066-.026.13-.073.177s-.111.073-.177.073h-4c-.066 0-.13-.026-.177-.073s-.073-.111-.073-.177v-1c0-1.243 1.007-2.25 2.25-2.25z"/><path d="m12 16.25c-2.071 0-3.75 1.679-3.75 3.75v1c0 .464.184.909.513 1.237.328.329.773.513 1.237.513h4c.464 0 .909-.184 1.237-.513.329-.328.513-.773.513-1.237v-1c0-2.071-1.679-3.75-3.75-3.75zm0 1.5c1.243 0 2.25 1.007 2.25 2.25v1c0 .066-.026.13-.073.177s-.111.073-.177.073h-4c-.066 0-.13-.026-.177-.073s-.073-.111-.073-.177v-1c0-1.243 1.007-2.25 2.25-2.25z"/><path d="m5 16.25c-2.071 0-3.75 1.679-3.75 3.75v1c0 .464.184.909.513 1.237.328.329.773.513 1.237.513h4c.464 0 .909-.184 1.237-.513.329-.328.513-.773.513-1.237v-1c0-2.071-1.679-3.75-3.75-3.75zm0 1.5c1.243 0 2.25 1.007 2.25 2.25v1c0 .066-.026.13-.073.177s-.111.073-.177.073h-4c-.066 0-.13-.026-.177-.073s-.073-.111-.073-.177v-1c0-1.243 1.007-2.25 2.25-2.25z"/><path d="m10.773 2.141-.409 1.26h-1.324c-.559 0-1.054.359-1.227.891-.173.531.017 1.114.469 1.442l1.071.778-.409 1.26c-.173.531.016 1.113.468 1.442.453.328 1.065.328 1.517 0l1.071-.778 1.071.778c.452.328 1.064.328 1.517 0 .452-.329.641-.911.468-1.442l-.409-1.26 1.071-.778c.452-.328.642-.911.469-1.442-.173-.532-.668-.891-1.227-.891h-1.324l-.409-1.26c-.173-.531-.668-.891-1.227-.891s-1.054.36-1.227.891zm1.227 1.079.378 1.162c.1.309.388.519.713.519h1.223l-.989.718c-.263.191-.373.53-.273.839l.378 1.162-.989-.718c-.263-.191-.619-.191-.882 0l-.989.718.378-1.162c.1-.309-.01-.648-.273-.839l-.989-.718h1.223c.325 0 .613-.21.713-.519z"/><path d="m18.42 5.242-.244.751h-.79c-.492 0-.928.317-1.08.785s.014.98.412 1.27l.639.464-.244.751c-.152.468.015.981.413 1.27s.937.289 1.335 0l.639-.464.639.464c.398.289.937.289 1.335 0s.565-.802.413-1.27l-.244-.751.639-.464c.398-.29.564-.802.412-1.27s-.588-.785-1.08-.785h-.79l-.244-.751c-.152-.468-.588-.785-1.08-.785s-.928.317-1.08.785zm1.08 1.53.066.203c.1.309.388.518.713.518h.214l-.173.126c-.263.191-.373.529-.272.838l.066.204-.173-.126c-.263-.191-.619-.191-.882 0l-.173.126.066-.204c.101-.309-.009-.647-.272-.838l-.173-.126h.214c.325 0 .613-.209.713-.518z"/><path d="m3.42 5.242-.244.751h-.79c-.492 0-.928.317-1.08.785s.014.98.412 1.27l.639.464-.244.751c-.152.468.015.981.413 1.27s.937.289 1.335 0l.639-.464.639.464c.398.289.937.289 1.335 0s.565-.802.413-1.27l-.244-.751.639-.464c.398-.29.564-.802.412-1.27s-.588-.785-1.08-.785h-.79l-.244-.751c-.152-.468-.588-.785-1.08-.785s-.928.317-1.08.785zm1.08 1.53.066.203c.1.309.388.518.713.518h.214l-.173.126c-.263.191-.373.529-.272.838l.066.204-.173-.126c-.263-.191-.619-.191-.882 0l-.173.126.066-.204c.101-.309-.009-.647-.272-.838l-.173-.126h.214c.325 0 .613-.209.713-.518z"/></g></svg>