<svg clip-rule="evenodd" fill-rule="evenodd" stroke-linejoin="round" stroke-miterlimit="1.414" viewBox="0 0 32 32" xmlns="http://www.w3.org/2000/svg" xmlns:serif="http://www.serif.com/"><path id="podium-win-rank-ranking" d="m0 0h32v32h-32z" fill="none"/><path d="m21.056 7.004c.5.07.884.492.908.996v9h6.036s.964.211 1 1v6c-.025.537-.451.975-1 1h-24c-.769-.037-1.285-1.043-.756-1.655.182-.21.33-.325.756-.345h23v-4h-6.036c-.536-.025-.975-.46-1-1v-9h-8v5c-.025.536-.461.975-1 1h-5.964v5s-.154.889-.858.99c-.562.081-1.114-.403-1.142-.99v-6c.025-.537.451-.975 1-1h5.964v-5s.211-.964 1-1h10c.03.001.061.003.092.004z" fill-rule="nonzero"/></svg>