<svg clip-rule="evenodd" fill-rule="evenodd" height="512" stroke-linejoin="round" stroke-miterlimit="2" viewBox="0 0 134 134" width="512" xmlns="http://www.w3.org/2000/svg"><path d="m54.167 116.667c0-16.109-13.059-29.167-29.167-29.167-2.3 0-4.167 1.867-4.167 4.167 0 2.299 1.867 4.166 4.167 4.166 11.506 0 20.833 9.328 20.833 20.834 0 2.299 1.867 4.166 4.167 4.166s4.167-1.867 4.167-4.166zm16.666 0c0-25.313-20.52-45.834-45.833-45.834-2.3 0-4.167 1.867-4.167 4.167s1.867 4.167 4.167 4.167c20.711 0 37.5 16.789 37.5 37.5 0 2.299 1.867 4.166 4.167 4.166 2.299 0 4.166-1.867 4.166-4.166zm-41.666-58.334v-3.602c0-1.195.513-2.332 1.408-3.123 6.823-6.026 24.336-21.495 33.333-29.441 1.576-1.392 3.941-1.392 5.517 0 8.997 7.946 26.51 23.415 33.333 29.441.896.791 1.409 1.928 1.409 3.123v53.602c0 2.302-1.866 4.167-4.167 4.167-7.271 0-16.667 0-16.667 0-2.299 0-4.166 1.867-4.166 4.167 0 2.299 1.867 4.166 4.166 4.166h16.667c6.904 0 12.5-5.596 12.5-12.5 0-14.377 0-43.292 0-53.602 0-3.584-1.539-6.996-4.225-9.369-6.823-6.026-24.336-21.494-33.333-29.441-4.727-4.175-11.823-4.175-16.55 0-8.997 7.946-26.51 23.415-33.334 29.441-2.686 2.373-4.225 5.785-4.225 9.369v3.602c0 6.248 8.334 6.248 8.334 0zm8.333 58.334c0-6.904-5.596-12.5-12.5-12.5-2.3 0-4.167 1.867-4.167 4.166 0 2.3 1.867 4.167 4.167 4.167 2.301 0 4.167 1.865 4.167 4.167 0 2.299 1.867 4.166 4.166 4.166 2.3 0 4.167-1.867 4.167-4.166z"/></svg>