<svg id="svg13" height="512" viewBox="0 0 32 32" width="512" xmlns="http://www.w3.org/2000/svg" xmlns:dc="http://purl.org/dc/elements/1.1/" xmlns:cc="http://creativecommons.org/ns#" xmlns:rdf="http://www.w3.org/1999/02/22-rdf-syntax-ns#" xmlns:svg="http://www.w3.org/2000/svg" xmlns:sodipodi="http://sodipodi.sourceforge.net/DTD/sodipodi-0.dtd" xmlns:inkscape="http://www.inkscape.org/namespaces/inkscape" sodipodi:docname="micro, sd, card.svg" inkscape:version="0.92.4 (5da689c313, 2019-01-14)"><g id="micro_sd_card" data-name="micro, sd, card"><path id="path4" d="m24 11c-.552285 0-1 .447715-1 1v15h-14v-10h1c.552285 0 1-.447715 1-1v-4c0-.552285-.447715-1-1-1h-1v-2.5874l3.707-3.7051c.898398-.847501-.318905-2.2158568-1.416-1.4145l-3.998 3.998c-.1875494.1874927-.2929434.4418052-.293.707v4.002c0 .552285.4477153 1 1 1h1v2h-1c-.5522847 0-1 .447715-1 1v12c0 .552285.4477153 1 1 1h16c.552285 0 1-.447715 1-1v-16c0-.552285-.447715-1-1-1z" inkscape:connector-curvature="0" sodipodi:nodetypes="sscccssssccccccssccssssssss"/><path id="path6" d="m20 9a1 1 0 0 0 1-1v-4a1 1 0 0 0 -2 0v4a1 1 0 0 0 1 1z"/><path id="path8" d="m24 3a1 1 0 0 0 -1 1v4a1 1 0 0 0 2 0v-4a1 1 0 0 0 -1-1z"/><path id="path10" d="m16 9a1 1 0 0 0 1-1v-4a1 1 0 0 0 -2 0v4a1 1 0 0 0 1 1z"/></g></svg>