<svg clip-rule="evenodd" fill-rule="evenodd" stroke-linejoin="round" stroke-miterlimit="2" viewBox="0 0 32 32" xmlns="http://www.w3.org/2000/svg" xmlns:serif="http://www.serif.com/"><path id="task-homework-paper" d="m0 0h32v32h-32z" fill="none"/><path d="m24 29h-16c-.536-.025-.975-.46-1-1v-24c.025-.537.451-.975 1-1h10 .007.019c.259.012.463.082.681.293l2.998 2.998c.607.628-.032 2.003-1.037 1.651-.141-.049-.268-.132-.377-.237l-1.291-1.291v2.586h5s.088.003.189.018c.713.173 1.068 1.165.501 1.706-.176.168-.299.257-.69.276h-6c-.537-.025-.975-.451-1-1v-5h-8v22h14v-13c.037-.775 1.036-1.292 1.655-.756.21.182.325.33.345.756v14c-.025.536-.46.975-1 1zm-6-6h-6c-.858-.021-1.385-1.402-.465-1.885.1-.053.209-.088.321-.105.047-.006.096-.009.144-.01h6c.016 0 .032.001.048.001.973.071 1.416 1.964-.048 1.999zm2-4h-8c-.23-.006-.305-.037-.434-.099-.774-.373-.604-1.872.434-1.901h8c.019.001.037.001.056.002.509.042.944.484.944.998 0 .531-.393.983-1 1zm0-4h-8c-.862-.024-1.434-1.419-.434-1.901.129-.062.204-.093.434-.099h8c.019.001.037.001.056.002.229.019.302.053.428.123.75.415.5 1.847-.484 1.875zm-5.972-6c.969.041 1.419 1.94 0 2-.714.01-1.437.073-2.14-.006-.924-.104-1.293-1.936.084-1.994.685-.009 1.371-.009 2.056 0z"/></svg>