<svg clip-rule="evenodd" fill-rule="evenodd" height="512" stroke-linejoin="round" stroke-miterlimit="2" viewBox="0 0 24 24" width="512" xmlns="http://www.w3.org/2000/svg"><g id="Icon"><path d="m5.053 14.217-3 6c-.271.543-.242 1.187.076 1.703.319.516.883.83 1.489.83h9.382c.284 0 .544-.161.671-.415l4-8c.116-.232.104-.508-.033-.729s-.378-.356-.638-.356c0 0-8.061 0-10.382 0-.663 0-1.269.374-1.565.967zm1.341.671c.043-.085.129-.138.224-.138h9.168s-3.25 6.5-3.25 6.5h-8.918c-.087 0-.167-.045-.213-.119-.045-.073-.049-.165-.011-.243z"/><path d="m19.382 22.75c.606 0 1.17-.314 1.489-.83.318-.516.347-1.16.076-1.703-1.152-2.305-3.276-6.552-3.276-6.552-.127-.254-.387-.415-.671-.415s-.544.161-.671.415l-4 8c-.116.232-.104.508.033.729s.378.356.638.356zm0-1.5h-5.168s2.786-5.573 2.786-5.573l2.606 5.211c.038.078.034.17-.011.243-.046.074-.126.119-.213.119z"/><path d="m8.829 17.665-2 4c-.185.37-.035.821.336 1.006.37.185.821.035 1.006-.336l2-4c.185-.37.035-.821-.336-1.006-.37-.185-.821-.035-1.006.336z"/><path d="m20.75 20v-16c0-.414-.336-.75-.75-.75s-.75.336-.75.75v16c0 .414.336.75.75.75s.75-.336.75-.75z"/><path d="m12.75 14v-12c0-.414-.336-.75-.75-.75s-.75.336-.75.75v12c0 .414.336.75.75.75s.75-.336.75-.75z"/><path d="m4.75 18v-14c0-.414-.336-.75-.75-.75s-.75.336-.75.75v14c0 .414.336.75.75.75s.75-.336.75-.75z"/><path d="m18.45 6.1 1.55-1.162s1.55 1.162 1.55 1.162c.331.248.802.181 1.05-.15s.181-.802-.15-1.05l-2-1.5c-.267-.2-.633-.2-.9 0l-2 1.5c-.331.248-.398.719-.15 1.05s.719.398 1.05.15z"/><path d="m10.45 4.1 1.55-1.162s1.55 1.162 1.55 1.162c.331.248.802.181 1.05-.15s.181-.802-.15-1.05l-2-1.5c-.267-.2-.633-.2-.9 0l-2 1.5c-.331.248-.398.719-.15 1.05s.719.398 1.05.15z"/><path d="m2.45 6.1 1.55-1.162s1.55 1.162 1.55 1.162c.331.248.802.181 1.05-.15s.181-.802-.15-1.05l-2-1.5c-.267-.2-.633-.2-.9 0l-2 1.5c-.331.248-.398.719-.15 1.05s.719.398 1.05.15z"/><path d="m18.45 9.1 1.55-1.162s1.55 1.162 1.55 1.162c.331.248.802.181 1.05-.15s.181-.802-.15-1.05l-2-1.5c-.267-.2-.633-.2-.9 0l-2 1.5c-.331.248-.398.719-.15 1.05s.719.398 1.05.15z"/><path d="m10.45 7.1 1.55-1.162s1.55 1.162 1.55 1.162c.331.248.802.181 1.05-.15s.181-.802-.15-1.05l-2-1.5c-.267-.2-.633-.2-.9 0l-2 1.5c-.331.248-.398.719-.15 1.05s.719.398 1.05.15z"/><path d="m2.45 9.1 1.55-1.162s1.55 1.162 1.55 1.162c.331.248.802.181 1.05-.15s.181-.802-.15-1.05l-2-1.5c-.267-.2-.633-.2-.9 0l-2 1.5c-.331.248-.398.719-.15 1.05s.719.398 1.05.15z"/><path d="m18.45 12.1 1.55-1.162s1.55 1.162 1.55 1.162c.331.248.802.181 1.05-.15s.181-.802-.15-1.05l-2-1.5c-.267-.2-.633-.2-.9 0l-2 1.5c-.331.248-.398.719-.15 1.05s.719.398 1.05.15z"/><path d="m10.45 10.1 1.55-1.162s1.55 1.162 1.55 1.162c.331.248.802.181 1.05-.15s.181-.802-.15-1.05l-2-1.5c-.267-.2-.633-.2-.9 0l-2 1.5c-.331.248-.398.719-.15 1.05s.719.398 1.05.15z"/><path d="m2.45 12.1 1.55-1.162s1.55 1.162 1.55 1.162c.331.248.802.181 1.05-.15s.181-.802-.15-1.05l-2-1.5c-.267-.2-.633-.2-.9 0l-2 1.5c-.331.248-.398.719-.15 1.05s.719.398 1.05.15z"/></g></svg>