<svg clip-rule="evenodd" fill-rule="evenodd" height="512" stroke-linejoin="round" stroke-miterlimit="2" viewBox="0 0 24 24" width="512" xmlns="http://www.w3.org/2000/svg"><g id="Icon"><path d="m20 22.5c1.529 0 2.75-1.196 2.75-2.645v-14.21c0-1.449-1.221-2.645-2.75-2.645h-16c-1.529 0-2.75 1.196-2.75 2.645v14.21c0 1.449 1.221 2.645 2.75 2.645zm0-1.5h-16c-.679 0-1.25-.501-1.25-1.145v-14.21c0-.644.571-1.145 1.25-1.145h16c.679 0 1.25.501 1.25 1.145v14.21c0 .644-.571 1.145-1.25 1.145z"/><path d="m17.25 2.25v3c0 .414.336.75.75.75s.75-.336.75-.75v-3c0-.414-.336-.75-.75-.75s-.75.336-.75.75z"/><path d="m11.25 2.25v3c0 .414.336.75.75.75s.75-.336.75-.75v-3c0-.414-.336-.75-.75-.75s-.75.336-.75.75z"/><path d="m5.25 2.25v3c0 .414.336.75.75.75s.75-.336.75-.75v-3c0-.414-.336-.75-.75-.75s-.75.336-.75.75z"/><path d="m14.75 13.75c0-1.518-1.232-2.75-2.75-2.75s-2.75 1.232-2.75 2.75 1.232 2.75 2.75 2.75 2.75-1.232 2.75-2.75zm-1.5 0c0 .69-.56 1.25-1.25 1.25s-1.25-.56-1.25-1.25.56-1.25 1.25-1.25 1.25.56 1.25 1.25z"/><path d="m12 8.484c-.05-.025-.139-.071-.194-.107-.228-.148-.461-.322-.68-.436-.374-.194-.738-.24-1.057-.136-.001 0-.001 0-.001 0-.386.125-.696.483-.894.977-.064.161-.121.336-.183.501-.022.061-.064.149-.09.203-.06.009-.158.022-.223.025-.176.008-.359.008-.531.019-.532.036-.967.22-1.204.546-.198.274-.268.635-.2 1.049.04.246.133.523.204.786.016.058.031.144.04.2-.108.089-.413.337-.585.481-.407.341-.652.747-.652 1.158 0 .412.245.817.652 1.158.172.144.477.392.585.48-.009.057-.024.143-.04.201-.071.263-.164.54-.204.786-.068.414.002.775.2 1.049 0 0 .001 0 .001.001.237.325.671.509 1.203.544.171.012.355.012.53.02.066.003.164.016.224.024.026.055.068.143.09.204.062.165.119.34.183.501.198.494.508.852.894.977h.001c.319.104.683.058 1.057-.136.219-.114.452-.288.68-.436.055-.036.144-.082.194-.107.05.025.139.071.194.107.228.148.461.322.68.436.374.194.738.24 1.057.136h.001c.386-.125.696-.483.894-.977.064-.161.121-.336.183-.501.022-.061.064-.149.09-.203.06-.009.158-.022.223-.025.176-.008.359-.008.531-.019.532-.036.967-.22 1.204-.546.198-.274.268-.635.2-1.049-.04-.246-.133-.523-.204-.786-.016-.058-.031-.144-.04-.2.108-.089.413-.337.585-.481.407-.341.652-.747.652-1.158 0-.412-.245-.817-.652-1.158-.172-.144-.477-.392-.585-.48.009-.057.024-.143.04-.201.071-.263.164-.54.204-.786.068-.414-.002-.775-.2-1.049 0 0-.001 0-.001-.001-.237-.325-.671-.509-1.203-.544-.171-.012-.355-.012-.53-.02-.066-.003-.164-.016-.224-.024-.026-.055-.068-.143-.09-.204-.062-.165-.119-.34-.183-.501-.198-.494-.508-.852-.894-.977 0 0 0 0-.001 0-.319-.104-.683-.058-1.057.136-.219.114-.452.288-.68.436-.055.036-.144.082-.194.107zm1.431.88c.048.115.103.253.139.353.154.429.366.803.633.998.001 0 .001.001.001.001.269.195.691.282 1.146.297.107.004.258.014.382.024-.029.121-.066.266-.095.369-.126.436-.173.865-.069 1.185.101.311.39.627.752.906.088.068.21.171.306.253-.096.083-.218.185-.306.253-.362.279-.651.595-.752.906-.104.32-.057.749.069 1.185.029.103.066.249.095.369-.124.01-.274.021-.381.024-.456.015-.877.102-1.147.297 0 0 0 .001-.001.001-.267.195-.479.569-.633.998-.036.1-.091.238-.139.353-.105-.065-.231-.145-.32-.204-.376-.254-.77-.432-1.111-.432s-.735.178-1.111.432c-.089.059-.215.139-.32.204-.048-.115-.103-.253-.139-.353-.154-.429-.366-.803-.633-.998-.001 0-.001-.001-.001-.001-.269-.195-.691-.282-1.146-.297-.107-.004-.258-.014-.382-.024.029-.121.066-.266.095-.369.126-.436.173-.865.069-1.185-.101-.311-.39-.627-.752-.906-.088-.068-.21-.171-.306-.253.096-.083.218-.185.306-.253.362-.279.651-.595.752-.906.104-.32.057-.749-.069-1.185-.029-.103-.066-.249-.095-.369.124-.01.274-.021.381-.024.456-.015.877-.102 1.147-.297 0 0 0-.001.001-.001.267-.195.479-.569.633-.998.036-.1.091-.238.139-.353.105.065.231.145.32.204.376.254.77.432 1.111.432s.735-.178 1.111-.432c.089-.059.215-.139.32-.204z"/></g></svg>