<svg clip-rule="evenodd" fill-rule="evenodd" height="512" stroke-linejoin="round" stroke-miterlimit="2" viewBox="0 0 24 24" width="512" xmlns="http://www.w3.org/2000/svg"><g id="Icon"><path d="m9 2.25c-1.813 0-3.456.883-4.761 2.406-1.825 2.129-2.989 5.543-2.989 9.344 0 4.277 3.473 7.75 7.75 7.75s7.75-3.473 7.75-7.75c0-3.801-1.164-7.215-2.989-9.344-1.305-1.523-2.948-2.406-4.761-2.406zm0 1.5c1.387 0 2.624.717 3.623 1.882 1.631 1.903 2.627 4.969 2.627 8.368 0 3.449-2.801 6.25-6.25 6.25s-6.25-2.801-6.25-6.25c0-3.399.996-6.465 2.627-8.368.999-1.165 2.236-1.882 3.623-1.882z"/><path d="m12.69 4.599c.703-.529 1.479-.849 2.31-.849 1.387 0 2.624.717 3.623 1.882 1.631 1.903 2.627 4.969 2.627 8.368 0 3.449-2.801 6.25-6.25 6.25-.958 0-1.866-.216-2.678-.602-.374-.178-.822-.019-.999.355-.178.374-.019.822.355 1 1.007.479 2.133.747 3.322.747 4.277 0 7.75-3.473 7.75-7.75 0-3.801-1.164-7.215-2.989-9.344-1.305-1.523-2.948-2.406-4.761-2.406-1.152 0-2.237.418-3.212 1.151-.33.249-.397.719-.148 1.05s.72.397 1.05.148z"/><path d="m9 10.25c-2.07 0-3.75 1.68-3.75 3.75s1.68 3.75 3.75 3.75 3.75-1.68 3.75-3.75-1.68-3.75-3.75-3.75zm0 1.5c1.242 0 2.25 1.008 2.25 2.25s-1.008 2.25-2.25 2.25-2.25-1.008-2.25-2.25 1.008-2.25 2.25-2.25z"/></g></svg>