<svg clip-rule="evenodd" fill-rule="evenodd" height="512" stroke-linejoin="round" stroke-miterlimit="2" viewBox="0 0 24 24" width="512" xmlns="http://www.w3.org/2000/svg"><g id="Icon"><path d="m14.75 4c0-1.518-1.232-2.75-2.75-2.75s-2.75 1.232-2.75 2.75c0 .838.472 3.162 1.168 4.479.221.419.473.747.725.949.275.221.567.322.857.322s.582-.101.857-.322c.252-.202.504-.53.725-.949.696-1.317 1.168-3.641 1.168-4.479zm-2.75 4.164c-.042-.047-.088-.104-.12-.153-.132-.202-.253-.455-.366-.734-.457-1.132-.764-2.666-.764-3.277 0-.69.56-1.25 1.25-1.25s1.25.56 1.25 1.25c0 .611-.307 2.145-.764 3.277-.113.279-.234.532-.366.734-.032.049-.078.106-.12.153z"/><path d="m6.447 5.619c-1.316-.759-2.998-.309-3.757 1.006s-.309 2.998 1.007 3.757c.727.419 2.974 1.172 4.463 1.228.473.018.883-.037 1.184-.154.328-.127.562-.329.707-.581.146-.251.204-.555.15-.903-.049-.32-.207-.701-.459-1.102-.793-1.263-2.569-2.832-3.295-3.251zm2.231 4.463c-.062.013-.134.025-.193.028-.241.013-.52-.009-.818-.051-1.209-.169-2.691-.671-3.22-.976-.599-.345-.803-1.11-.458-1.708.345-.598 1.11-.802 1.708-.457.529.305 1.704 1.338 2.456 2.3.184.237.343.468.452.683.027.052.053.121.073.181z"/><path d="m3.697 13.619c-1.316.759-1.766 2.44-1.007 3.756.759 1.315 2.441 1.766 3.757 1.007.726-.419 2.502-1.989 3.295-3.251.252-.402.41-.783.459-1.103.054-.348-.005-.651-.15-.903-.145-.251-.379-.453-.707-.581-.301-.117-.711-.171-1.184-.154-1.489.056-3.736.81-4.463 1.229zm4.981.299c-.02.06-.046.129-.073.181-.109.215-.268.447-.452.683-.752.963-1.927 1.995-2.456 2.301-.598.345-1.363.14-1.708-.458-.344-.598-.141-1.362.458-1.707.529-.305 2.011-.807 3.22-.977.298-.042.577-.063.818-.051.059.003.131.015.193.028z"/><path d="m9.25 20c0 1.518 1.232 2.75 2.75 2.75s2.75-1.232 2.75-2.75c0-.838-.472-3.161-1.168-4.479-.221-.419-.473-.746-.725-.949-.275-.22-.567-.322-.857-.322s-.582.102-.857.322c-.252.203-.504.53-.725.949-.696 1.318-1.168 3.641-1.168 4.479zm2.75-4.164c.042.047.088.104.12.154.132.202.253.455.366.733.457 1.132.764 2.667.764 3.277 0 .69-.56 1.25-1.25 1.25s-1.25-.56-1.25-1.25c0-.61.307-2.145.764-3.277.113-.278.234-.531.366-.733.032-.05.078-.107.12-.154z"/><path d="m17.553 18.382c1.316.759 2.998.309 3.757-1.007.759-1.315.309-2.998-1.007-3.757-.727-.419-2.974-1.172-4.463-1.227-.473-.018-.883.036-1.184.153-.328.127-.562.33-.707.581-.146.252-.204.555-.15.903.049.32.207.702.459 1.103.793 1.262 2.569 2.832 3.295 3.251zm-2.231-4.464c.062-.012.134-.024.193-.028.241-.012.52.009.818.051 1.209.17 2.691.672 3.22.977.599.345.803 1.11.458 1.707-.345.598-1.11.802-1.708.457-.529-.305-1.704-1.337-2.456-2.299-.184-.237-.343-.469-.452-.683-.027-.053-.053-.122-.073-.182z"/><path d="m20.303 10.382c1.316-.759 1.766-2.441 1.007-3.757-.759-1.314-2.441-1.766-3.757-1.007-.726.42-2.502 1.99-3.295 3.252-.252.401-.41.783-.459 1.102-.054.348.005.652.15.903.145.252.379.454.707.581.301.118.711.172 1.184.154 1.489-.056 3.736-.809 4.463-1.228zm-4.981-.299c.02-.061.046-.129.073-.182.109-.215.268-.446.452-.683.752-.962 1.927-1.995 2.456-2.3.598-.345 1.363-.14 1.708.457.344.598.141 1.362-.457 1.707h-.001c-.529.306-2.011.808-3.22.977-.298.042-.577.064-.818.051-.059-.003-.131-.015-.193-.027z"/></g></svg>