<svg clip-rule="evenodd" fill-rule="evenodd" height="512" stroke-linejoin="round" stroke-miterlimit="2" viewBox="0 0 24 24" width="512" xmlns="http://www.w3.org/2000/svg"><g id="Icon"><path d="m20.467 2.848-1.902 3c-.146.231-.155.524-.024.764.132.239.384.388.658.388h1.438s-1.172 1.848-1.172 1.848c-.222.35-.118.814.232 1.035.35.222.813.118 1.035-.231l1.901-3c.147-.231.156-.524.024-.764-.132-.239-.384-.388-.657-.388h-1.438s1.171-1.848 1.171-1.848c.222-.35.118-.814-.231-1.035-.35-.222-.814-.118-1.035.231z"/><path d="m9 19h6c.414 0 .75-.336.75-.75s-.336-.75-.75-.75h-6c-.414 0-.75.336-.75.75s.336.75.75.75z"/><path d="m20 19c1.519 0 2.75-1.231 2.75-2.75v-1.896c0-1.289-.895-2.405-2.153-2.684l-2.436-.541c-.204-.046-.394-.142-.552-.28l-2.767-2.421c-.683-.598-1.561-.928-2.469-.928-2.517 0-8.373 0-8.373 0-.251 0-.485.125-.624.334l-1.664 2.496c-.301.452-.462.983-.462 1.526v4.158c0 1.042.589 1.994 1.52 2.46l.895.447c.37.185.821.035 1.006-.336.185-.37.035-.821-.336-1.006l-.894-.447c-.424-.212-.691-.645-.691-1.118v-4.158c0-.247.073-.488.21-.694 0 0 1.441-2.162 1.441-2.162h7.972c.545 0 1.071.198 1.481.557l2.768 2.421c.347.304.764.515 1.214.615 0 0 2.435.541 2.435.541.572.127.979.634.979 1.22v1.896c0 .69-.56 1.25-1.25 1.25-.414 0-.75.336-.75.75s.336.75.75.75z"/><path d="m17.5 11h-7.75v-2.75c0-.414-.336-.75-.75-.75s-.75.336-.75.75v3.5c0 .414.336.75.75.75h8.5c.414 0 .75-.336.75-.75s-.336-.75-.75-.75z"/><path d="m2 12.5h8c.414 0 .75-.336.75-.75s-.336-.75-.75-.75h-8c-.414 0-.75.336-.75.75s.336.75.75.75z"/><path d="m6.5 15c-1.794 0-3.25 1.456-3.25 3.25s1.456 3.25 3.25 3.25 3.25-1.456 3.25-3.25-1.456-3.25-3.25-3.25zm0 1.5c.966 0 1.75.784 1.75 1.75s-.784 1.75-1.75 1.75-1.75-.784-1.75-1.75.784-1.75 1.75-1.75z"/><path d="m17.5 15c-1.794 0-3.25 1.456-3.25 3.25s1.456 3.25 3.25 3.25 3.25-1.456 3.25-3.25-1.456-3.25-3.25-3.25zm0 1.5c.966 0 1.75.784 1.75 1.75s-.784 1.75-1.75 1.75-1.75-.784-1.75-1.75.784-1.75 1.75-1.75z"/><path d="m4 7.5h-2c-.414 0-.75.336-.75.75s.336.75.75.75h2c.414 0 .75-.336.75-.75s-.336-.75-.75-.75z"/><path d="m11 15h1.5c.414 0 .75-.336.75-.75s-.336-.75-.75-.75h-1.5c-.414 0-.75.336-.75.75s.336.75.75.75z"/></g></svg>