<svg clip-rule="evenodd" fill-rule="evenodd" height="512" stroke-linejoin="round" stroke-miterlimit="2" viewBox="0 0 24 24" width="512" xmlns="http://www.w3.org/2000/svg"><g id="Icon"><circle cx="12" cy="7.5" r="1"/><path d="m22 19.75h-20c-.414 0-.75.336-.75.75s.336.75.75.75h20c.414 0 .75-.336.75-.75s-.336-.75-.75-.75z"/><path d="m18.25 11c0-.414-.336-.75-.75-.75h-11c-.414 0-.75.336-.75.75v9.5c0 .414.336.75.75.75h11c.414 0 .75-.336.75-.75zm-1.5.75v8h-9.5v-8z"/><path d="m2.75 8.5v12c0 .414.336.75.75.75h17c.414 0 .75-.336.75-.75v-12c0-.414-.336-.75-.75-.75s-.75.336-.75.75v11.25h-15.5v-11.25c0-.414-.336-.75-.75-.75s-.75.336-.75.75z"/><path d="m2.635 10.899 2.785-4.429s6.58-2.18 6.58-2.18 6.58 2.18 6.58 2.18 2.785 4.429 2.785 4.429c.221.351.684.456 1.034.236.351-.221.456-.684.236-1.034l-2.929-4.657c-.093-.148-.234-.258-.399-.313l-7.071-2.343c-.153-.051-.319-.051-.472 0l-7.071 2.343c-.165.055-.306.165-.399.313l-2.929 4.657c-.22.35-.115.813.236 1.034.35.22.813.115 1.034-.236z"/><path d="m17.01 10.432-11 9.5c-.313.271-.348.745-.078 1.058.271.313.745.348 1.058.078l11-9.5c.313-.271.348-.745.078-1.058-.271-.313-.745-.348-1.058-.078z"/><path d="m6.01 11.568 11 9.5c.313.27.787.235 1.058-.078.27-.313.235-.787-.078-1.058l-11-9.5c-.313-.27-.787-.235-1.058.078-.27.313-.235.787.078 1.058z"/></g></svg>