<svg clip-rule="evenodd" fill-rule="evenodd" height="512" stroke-linejoin="round" stroke-miterlimit="2" viewBox="0 0 24 24" width="512" xmlns="http://www.w3.org/2000/svg"><g id="Icon"><path d="m20.75 4v9c0 1.519-1.231 2.75-2.75 2.75h-12c-1.519 0-2.75-1.231-2.75-2.75v-9c0-1.519 1.231-2.75 2.75-2.75h12c1.519 0 2.75 1.231 2.75 2.75zm-1.5 0c0-.69-.56-1.25-1.25-1.25h-12c-.69 0-1.25.56-1.25 1.25v9c0 .69.56 1.25 1.25 1.25h12c.69 0 1.25-.56 1.25-1.25z"/><path d="m18.25 5v2.5c0 .69-.56 1.25-1.25 1.25h-10c-.69 0-1.25-.56-1.25-1.25v-2.5c0-.69.56-1.25 1.25-1.25h10c.69 0 1.25.56 1.25 1.25zm-11 2.25h9.5v-2h-9.5z"/><path d="m19.25 15v5c0 1.519-1.231 2.75-2.75 2.75h-9c-1.519 0-2.75-1.231-2.75-2.75v-5c0-.414.336-.75.75-.75h13c.414 0 .75.336.75.75zm-1.5.75h-11.5v4.25c0 .69.56 1.25 1.25 1.25h9c.69 0 1.25-.56 1.25-1.25z"/><path d="m12.75 22c0 .414-.336.75-.75.75s-.75-.336-.75-.75v-4.5c0-.414.336-.75.75-.75s.75.336.75.75z"/><path d="m15.75 22c0 .414-.336.75-.75.75s-.75-.336-.75-.75v-3.5c0-.414.336-.75.75-.75s.75.336.75.75z"/><path d="m9.25 22c0 .414-.336.75-.75.75s-.75-.336-.75-.75v-3.5c0-.414.336-.75.75-.75s.75.336.75.75z"/><path d="m7 11.75c-.414 0-.75-.336-.75-.75s.336-.75.75-.75h5c.414 0 .75.336.75.75s-.336.75-.75.75z"/><path d="m15.5 11.75c-.414 0-.75-.336-.75-.75s.336-.75.75-.75h1.5c.414 0 .75.336.75.75s-.336.75-.75.75z"/></g></svg>