<svg clip-rule="evenodd" fill-rule="evenodd" height="512" stroke-linejoin="round" stroke-miterlimit="2" viewBox="0 0 24 24" width="512" xmlns="http://www.w3.org/2000/svg"><g id="Icon"><path d="m17.912 9.669c-2.62 0-4.838 2.586-4.838 5.863 0 3.276 2.218 5.862 4.838 5.862s4.838-2.586 4.838-5.862c0-3.277-2.218-5.863-4.838-5.863zm0 1.5c1.893 0 3.338 1.995 3.338 4.363 0 2.367-1.445 4.362-3.338 4.362-1.894 0-3.338-1.995-3.338-4.362 0-2.368 1.444-4.363 3.338-4.363z"/><path d="m10.011 18.873c-.512-1.144-.799-2.433-.799-3.796 0-2.075.665-3.978 1.775-5.457.249-.331.182-.802-.149-1.05-.331-.249-.802-.182-1.05.149-1.294 1.724-2.076 3.94-2.076 6.358 0 1.583.335 3.08.93 4.409.169.378.613.547.991.378s.547-.613.378-.991z"/><path d="m4.812 14.085c.111-2.497 1.083-4.745 2.599-6.376.281-.303.264-.778-.04-1.06-.303-.282-.778-.264-1.059.039-1.744 1.876-2.871 4.458-2.999 7.33-.018.414.303.764.716.783.414.018.765-.303.783-.716z"/><path d="m2.751 4.418c6.387 7.699 15.239 6.747 15.239 6.747.412-.043.711-.412.668-.824-.044-.412-.413-.711-.825-.667 0 0-8.484.872-14.354-6.747-.316-.414-.862-.587-1.362-.427-.5.159-.845.615-.863 1.14-.001.004-.001.008-.001.012-.057 3.364.495 11.552 6.161 15.563 2.448 1.733 5.85 2.715 10.583 2.174.411-.047.707-.419.66-.83-.047-.412-.419-.707-.83-.66-4.265.487-7.34-.347-9.546-1.908-4.817-3.41-5.499-10.152-5.53-13.573z"/></g></svg>