<svg clip-rule="evenodd" fill-rule="evenodd" height="512" stroke-linejoin="round" stroke-miterlimit="2" viewBox="0 0 24 24" width="512" xmlns="http://www.w3.org/2000/svg"><g id="Icon"><path d="m22.75 10.5v-6.5c0-1.519-1.231-2.75-2.75-2.75-3.832 0-12.168 0-16 0-.729 0-1.429.29-1.945.805-.515.516-.805 1.216-.805 1.945v14c0 .729.29 1.429.805 1.945.516.515 1.216.805 1.945.805h5c.414 0 .75-.336.75-.75s-.336-.75-.75-.75h-5c-.332 0-.649-.132-.884-.366-.234-.235-.366-.552-.366-.884v-14c0-.332.132-.649.366-.884.235-.234.552-.366.884-.366h16c.69 0 1.25.56 1.25 1.25v6.5c0 .414.336.75.75.75s.75-.336.75-.75z"/><path d="m2 7.75h20c.414 0 .75-.336.75-.75s-.336-.75-.75-.75h-20c-.414 0-.75.336-.75.75s.336.75.75.75z"/><path d="m8.5 5.25h1c.414 0 .75-.336.75-.75s-.336-.75-.75-.75h-1c-.414 0-.75.336-.75.75s.336.75.75.75z"/><path d="m5 5.25h1c.414 0 .75-.336.75-.75s-.336-.75-.75-.75h-1c-.414 0-.75.336-.75.75s.336.75.75.75z"/><path d="m16.5 10.25c-3.449 0-6.25 2.801-6.25 6.25s2.801 6.25 6.25 6.25 6.25-2.801 6.25-6.25-2.801-6.25-6.25-6.25zm0 1.5c2.622 0 4.75 2.128 4.75 4.75s-2.128 4.75-4.75 4.75-4.75-2.128-4.75-4.75 2.128-4.75 4.75-4.75z"/><path d="m15.086 18.975 3.889-3.889c.293-.293.293-.768 0-1.061s-.768-.293-1.061 0l-3.889 3.889c-.293.293-.293.768 0 1.061s.768.293 1.061 0z"/><path d="m18.975 17.914-3.889-3.889c-.293-.293-.768-.293-1.061 0s-.293.768 0 1.061l3.889 3.889c.293.293.768.293 1.061 0s.293-.768 0-1.061z"/></g></svg>