<svg clip-rule="evenodd" fill-rule="evenodd" height="512" stroke-linejoin="round" stroke-miterlimit="2" viewBox="0 0 24 24" width="512" xmlns="http://www.w3.org/2000/svg"><g id="Icon"><path d="m14.25 4v-1c0-.967-.783-1.75-1.75-1.75h-1c-.967 0-1.75.783-1.75 1.75v1c0 .967.783 1.75 1.75 1.75h1c.967 0 1.75-.783 1.75-1.75zm-1.5-1v1c0 .138-.112.25-.25.25h-1c-.138 0-.25-.112-.25-.25v-1c0-.138.112-.25.25-.25h1c.138 0 .25.112.25.25z"/><path d="m14.633 10.936s2.992-.54 4.556-.823c.726-.131 1.411-.429 2.001-.871l.696-.52c.671-.502.969-1.362.752-2.172l-.083-.309c-.293-1.094-1.417-1.743-2.511-1.45l-5.738 1.538c-.4.107-.638.519-.53.919.107.399.518.637.918.53l5.738-1.538c.294-.078.595.096.674.389l.083.309c.058.217-.022.448-.202.583 0 0-.695.52-.695.52-.404.302-.873.506-1.369.596 0 0-4.556.823-4.556.823-.408.073-.679.464-.605.871.073.407.464.678.871.605z"/><path d="m9.633 9.46-4.556-.823c-.496-.09-.965-.294-1.369-.596 0 0-.695-.52-.695-.52-.18-.135-.26-.366-.202-.583l.083-.309c.079-.293.38-.467.673-.389.001 0 5.739 1.538 5.739 1.538.4.107.811-.131.918-.53.108-.4-.13-.812-.53-.919l-5.738-1.538c-1.094-.293-2.218.356-2.511 1.45l-.083.309c-.217.81.081 1.67.752 2.172l.696.52c.59.442 1.275.74 2.001.871l4.556.823c.407.073.798-.198.871-.605.074-.407-.197-.798-.605-.871z"/><path d="m13.659 12.904s1.288.657 2.365 1.207c1.099.561 2.372.673 3.551.311.114-.034.225-.068.331-.101.741-.227 1.314-.82 1.514-1.569l.044-.163c.322-1.201-.391-2.434-1.591-2.756-1.189-.319-2.679-.718-2.679-.718-.4-.107-.811.131-.918.531-.108.399.13.811.53.918 0 0 1.489.399 2.679.718.4.107.637.518.53.919l-.043.163c-.067.249-.258.447-.505.523l-.331.101c-.807.247-1.678.171-2.43-.213-1.077-.55-2.365-1.207-2.365-1.207-.369-.188-.821-.042-1.009.327s-.042.821.327 1.009z"/><path d="m9.659 11.568s-1.288.657-2.365 1.207c-.752.384-1.623.46-2.43.213l-.331-.101c-.247-.076-.438-.274-.505-.523l-.043-.163c-.107-.401.13-.812.53-.919 1.19-.319 2.679-.718 2.679-.718.4-.107.638-.519.53-.918-.107-.4-.518-.638-.918-.531 0 0-1.49.399-2.679.718-1.2.322-1.913 1.555-1.591 2.756.015.055.029.11.044.163.2.749.773 1.342 1.514 1.569.106.033.217.067.331.101 1.179.362 2.452.25 3.551-.311 1.077-.55 2.365-1.207 2.365-1.207.369-.188.515-.64.327-1.009s-.64-.515-1.009-.327z"/><path d="m12 21.25c-.138 0-.25-.112-.25-.25v-7c0-.414-.336-.75-.75-.75s-.75.336-.75.75v7c0 .967.784 1.75 1.75 1.75s1.75-.783 1.75-1.75v-7c0-.414-.336-.75-.75-.75s-.75.336-.75.75v7c0 .138-.112.25-.25.25z"/><path d="m12 4.25c-.767 0-1.499.407-2.074 1.166-.699.923-1.176 2.405-1.176 4.084s.477 3.161 1.176 4.084c.575.759 1.307 1.166 2.074 1.166s1.499-.407 2.074-1.166c.699-.923 1.176-2.405 1.176-4.084s-.477-3.161-1.176-4.084c-.575-.759-1.307-1.166-2.074-1.166zm0 1.5c.338 0 .625.238.878.572.542.715.872 1.876.872 3.178s-.33 2.463-.872 3.178c-.253.334-.54.572-.878.572s-.625-.238-.878-.572c-.542-.715-.872-1.876-.872-3.178s.33-2.463.872-3.178c.253-.334.54-.572.878-.572z"/></g></svg>