<svg clip-rule="evenodd" fill-rule="evenodd" height="512" stroke-linejoin="round" stroke-miterlimit="2" viewBox="0 0 24 24" width="512" xmlns="http://www.w3.org/2000/svg"><g id="Icon"><path d="m8 1.25h-4c-1.519 0-2.75 1.231-2.75 2.75v4c0 .414.336.75.75.75s.75-.336.75-.75v-4c0-.69.56-1.25 1.25-1.25h4c.414 0 .75-.336.75-.75s-.336-.75-.75-.75z"/><path d="m8 21.25h-4c-.69 0-1.25-.56-1.25-1.25v-4c0-.414-.336-.75-.75-.75s-.75.336-.75.75v4c0 1.519 1.231 2.75 2.75 2.75h4c.414 0 .75-.336.75-.75s-.336-.75-.75-.75z"/><path d="m22.75 8v-4c0-1.519-1.231-2.75-2.75-2.75h-4c-.414 0-.75.336-.75.75s.336.75.75.75h4c.69 0 1.25.56 1.25 1.25v4c0 .414.336.75.75.75s.75-.336.75-.75z"/><path d="m21.25 16v4c0 .69-.56 1.25-1.25 1.25h-4c-.414 0-.75.336-.75.75s.336.75.75.75h4c1.519 0 2.75-1.231 2.75-2.75v-4c0-.414-.336-.75-.75-.75s-.75.336-.75.75z"/><path d="m15.25 7.327v2c0 .414.336.75.75.75s.75-.336.75-.75v-2c0-.414-.336-.75-.75-.75s-.75.336-.75.75z"/><path d="m7.25 7.327v2c0 .414.336.75.75.75s.75-.336.75-.75v-2c0-.414-.336-.75-.75-.75s-.75.336-.75.75z"/><path d="m11.272 8.162.806 3.222c.028.114-.026.232-.131.284l-1.282.642c-.371.185-.521.636-.336 1.006s.636.52 1.006.335c0 0 .709-.354 1.283-.641.734-.367 1.114-1.194.915-1.99-.291-1.163-.805-3.221-.805-3.221-.101-.402-.508-.646-.91-.546-.401.1-.646.508-.546.909z"/><path d="m8.128 16.132.523.299c2.075 1.186 4.623 1.186 6.698 0 0 0 .523-.299.523-.299.36-.206.485-.664.279-1.024-.205-.359-.664-.484-1.023-.279l-.523.299c-1.614.923-3.596.923-5.21 0 0 0-.523-.299-.523-.299-.359-.205-.818-.08-1.023.279-.206.36-.081.818.279 1.024z"/></g></svg>