<svg clip-rule="evenodd" fill-rule="evenodd" height="512" stroke-linejoin="round" stroke-miterlimit="2" viewBox="0 0 24 24" width="512" xmlns="http://www.w3.org/2000/svg"><g id="Icon"><path d="m11.25 2v2c0 .414.336.75.75.75s.75.336.75.75-.336.75-.75.75c-.192 0-.367-.072-.5-.191-.308-.276-.783-.25-1.059.058-.276.309-.25.783.059 1.059.398.357.924.574 1.5.574 1.242 0 2.25-1.008 2.25-2.25 0-.979-.627-1.813-1.5-2.122v-1.378c0-.414-.336-.75-.75-.75s-.75.336-.75.75z"/><path d="m22.75 11c0-.414-.336-.75-.75-.75h-20c-.414 0-.75.336-.75.75v11c0 .414.336.75.75.75h20c.414 0 .75-.336.75-.75zm-1.5.75v9.5h-18.5v-9.5z"/><path d="m5.25 14v5c0 .414.336.75.75.75s.75-.336.75-.75v-5c0-.414-.336-.75-.75-.75s-.75.336-.75.75z"/><path d="m9.25 14v5c0 .414.336.75.75.75s.75-.336.75-.75v-5c0-.414-.336-.75-.75-.75s-.75.336-.75.75z"/><path d="m13.25 14v5c0 .414.336.75.75.75s.75-.336.75-.75v-5c0-.414-.336-.75-.75-.75s-.75.336-.75.75z"/><path d="m17.25 14v5c0 .414.336.75.75.75s.75-.336.75-.75v-5c0-.414-.336-.75-.75-.75s-.75.336-.75.75z"/><path d="m20.397 10.364-7-4.375c-.351-.219-.814-.113-1.033.239-.219.351-.113.814.239 1.033l7 4.375c.351.219.814.113 1.033-.239.219-.351.113-.814-.239-1.033z"/><path d="m10.603 5.989-7 4.375c-.352.219-.458.682-.239 1.033.219.352.682.458 1.033.239l7-4.375c.352-.219.458-.682.239-1.033-.219-.352-.682-.458-1.033-.239z"/><path d="m10.5 2.75h3c.414 0 .75-.336.75-.75s-.336-.75-.75-.75h-3c-.414 0-.75.336-.75.75s.336.75.75.75z"/></g></svg>