<svg clip-rule="evenodd" fill-rule="evenodd" height="512" stroke-linejoin="round" stroke-miterlimit="2" viewBox="0 0 24 24" width="512" xmlns="http://www.w3.org/2000/svg"><g id="Icon"><path d="m12.583 13.333c0 .322-.261.584-.583.584h-1.333c-.414 0-.75.336-.75.75s.336.75.75.75h1.333c1.151 0 2.083-.933 2.083-2.084 0-1.15-.932-2.083-2.083-2.083-.322 0-.583-.261-.583-.583s.261-.584.583-.584h1.333c.414 0 .75-.336.75-.75s-.336-.75-.75-.75h-1.333c-1.151 0-2.083.933-2.083 2.084 0 1.15.932 2.083 2.083 2.083.322 0 .583.261.583.583z"/><path d="m12.75 9.333v-1.333c0-.414-.336-.75-.75-.75s-.75.336-.75.75v1.333c0 .414.336.75.75.75s.75-.336.75-.75z"/><path d="m12.75 16v-1.333c0-.414-.336-.75-.75-.75s-.75.336-.75.75v1.333c0 .414.336.75.75.75s.75-.336.75-.75z"/><path d="m12 1.25c-5.933 0-10.75 4.817-10.75 10.75s4.817 10.75 10.75 10.75 10.75-4.817 10.75-10.75-4.817-10.75-10.75-10.75zm0 1.5c5.105 0 9.25 4.145 9.25 9.25s-4.145 9.25-9.25 9.25-9.25-4.145-9.25-9.25 4.145-9.25 9.25-9.25z"/><path d="m12 4.25c-4.277 0-7.75 3.473-7.75 7.75s3.473 7.75 7.75 7.75 7.75-3.473 7.75-7.75-3.473-7.75-7.75-7.75zm0 1.5c3.449 0 6.25 2.801 6.25 6.25s-2.801 6.25-6.25 6.25-6.25-2.801-6.25-6.25 2.801-6.25 6.25-6.25z"/><path d="m45.995 18.005c.411-.137.722-.477.822-.899.099-.421-.027-.865-.333-1.171-1.839-1.839-7.59-7.59-9.429-9.429-.306-.306-.75-.432-1.171-.333-.422.1-.762.41-.899.821l-4.714 14.144c-.15.449-.033.945.301 1.279.335.335.83.452 1.28.302zm-14.143 3.133 13.285-4.428-8.857-8.857z"/></g></svg>