<svg clip-rule="evenodd" fill-rule="evenodd" stroke-linejoin="round" stroke-miterlimit="1.414" viewBox="0 0 32 32" xmlns="http://www.w3.org/2000/svg" xmlns:serif="http://www.serif.com/"><path id="termometer-kelvin-sick-hot" d="m0 0h32v32h-32z" fill="none"/><path d="m8.041 2.993c1.555.029 2.955 1.364 2.966 2.999v14.018c.023.017.046.035.069.053 1.892 1.486 2.457 4.377 1.269 6.442-1.082 1.879-3.468 2.902-5.591 2.356-1.965-.506-3.524-2.313-3.729-4.337-.193-1.888.755-3.821 2.44-4.824 0 0 .665-.288 1.113.027.582.41.459 1.332-.219 1.774-1.216.806-1.694 2.544-1.047 3.846.791 1.59 3.143 2.172 4.587.995.918-.749 1.323-2.068.979-3.202-.215-.705-.699-1.32-1.332-1.703 0 0-.446-.299-.523-.703-.016-.083-.014-.104-.018-.188 0-4.859.089-9.718-.001-14.575-.023-.748-1.065-1.281-1.681-.709-.202.187-.319.459-.32.737v10.006c-.044.914-.559.982-.954 1-.536.026-1.022-.443-1.048-1v-10.013c.009-1.541 1.316-2.949 2.928-2.999.037 0 .075-.001.112 0zm16.98 9.423v1.587c-.007.23-.037.306-.1.435-.295.613-1.284.755-1.718.145-.086-.123-.145-.264-.17-.412-.01-.055-.013-.111-.014-.168v-8.008c.005-.182.022-.233.056-.33.137-.392.446-.657.945-.671.018.001.037.002.056.002.182.015.232.035.327.075.366.151.604.445.618.924v1.588l2.295-2.295c.194-.187.39-.29.718-.293.013 0 .026 0 .039.001.768.053 1.26 1.081.658 1.707l-3.296 3.296 3.296 3.297c.534.555.189 1.665-.658 1.707-.277.014-.553-.095-.757-.292zm-6.969-9.423c1.691.032 3.179 1.683 2.936 3.421-.199 1.417-1.536 2.584-2.974 2.584-1.987 0-3.669-2.37-2.69-4.338.487-.98 1.532-1.646 2.651-1.667.039-.001.039-.001.077 0zm-.052 2.002c-.863.016-1.412 1.484-.375 1.923.73.309 1.733-.57 1.264-1.409-.178-.317-.501-.517-.889-.514z" fill-rule="nonzero"/></svg>