<svg clip-rule="evenodd" fill-rule="evenodd" height="512" stroke-linejoin="round" stroke-miterlimit="2" viewBox="0 0 24 24" width="512" xmlns="http://www.w3.org/2000/svg"><g id="Icon"><path d="m18 11.25c-1.518 0-2.75 1.232-2.75 2.75s1.232 2.75 2.75 2.75h3c.966 0 1.75-.784 1.75-1.75v-2c0-.966-.784-1.75-1.75-1.75zm0 1.5h3c.138 0 .25.112.25.25v2c0 .138-.112.25-.25.25h-3c-.69 0-1.25-.56-1.25-1.25s.56-1.25 1.25-1.25z"/><path d="m6 5.25h-2c-.69 0-1.25-.56-1.25-1.25s.56-1.25 1.25-1.25h16.112c.629 0 1.138.509 1.138 1.138v4.112c0 .414.336.75.75.75s.75-.336.75-.75v-4.112c0-1.457-1.181-2.638-2.638-2.638h-16.112c-1.518 0-2.75 1.232-2.75 2.75s1.232 2.75 2.75 2.75h2c.414 0 .75-.336.75-.75s-.336-.75-.75-.75z"/><path d="m22.75 12.5v-4.441c0-1.551-1.258-2.809-2.809-2.809h-14.941c-.414 0-.75.336-.75.75s.336.75.75.75h14.941c.723 0 1.309.586 1.309 1.309v4.441c0 .414.336.75.75.75s.75-.336.75-.75z"/><path d="m1.25 4v16c0 1.518 1.232 2.75 2.75 2.75h16c1.518 0 2.75-1.232 2.75-2.75v-4.5c0-.414-.336-.75-.75-.75s-.75.336-.75.75v4.5c0 .69-.56 1.25-1.25 1.25h-16c-.69 0-1.25-.56-1.25-1.25v-16c0-.414-.336-.75-.75-.75s-.75.336-.75.75z"/><path d="m12.75 11.5c0-1.242-1.008-2.25-2.25-2.25s-2.25 1.008-2.25 2.25 1.008 2.25 2.25 2.25 2.25-1.008 2.25-2.25zm-1.5 0c0 .414-.336.75-.75.75s-.75-.336-.75-.75.336-.75.75-.75.75.336.75.75z"/><path d="m9.75 17.5c0-1.242-1.008-2.25-2.25-2.25s-2.25 1.008-2.25 2.25 1.008 2.25 2.25 2.25 2.25-1.008 2.25-2.25zm-1.5 0c0 .414-.336.75-.75.75s-.75-.336-.75-.75.336-.75.75-.75.75.336.75.75z"/><path d="m9 10.75h-7c-.414 0-.75.336-.75.75s.336.75.75.75h7c.414 0 .75-.336.75-.75s-.336-.75-.75-.75z"/><path d="m6 16.75h-4c-.414 0-.75.336-.75.75s.336.75.75.75h4c.414 0 .75-.336.75-.75s-.336-.75-.75-.75z"/></g></svg>