<svg xmlns="http://www.w3.org/2000/svg" viewBox="0 0 32 32"><title>gypsum, plaster, cast, treatment</title><g id="gypsum_plaster_cast_treatment" data-name="gypsum, plaster, cast, treatment"><path d="M27,12.0192V8a5,5,0,0,0-5-5H19.998A4.9981,4.9981,0,0,0,15,8a1,1,0,0,0,2-.002A2.9973,2.9973,0,0,1,19.998,5H22a3.0016,3.0016,0,0,1,3,3v.613L20.3164,7.0518a1,1,0,1,0-.6328,1.8964L25,10.72v.6023l-4.9108,1.9647-3.5746-2.1448A.9664.9664,0,0,0,15,12v4a1.0009,1.0009,0,0,1-1,1H10a5,5,0,0,0-5,5v2a5,5,0,0,0,4.9964,5l.0026,0H20a6.9976,6.9976,0,0,0,7-7V12.0192Zm-2,1.4582v2.7564L22.2438,14.58ZM15.463,24.35l.0007.0018L16.5228,27H11.7662L14.62,22.2432Zm-.1189-5.6829A2.9925,2.9925,0,0,0,17,16V13.7662L22.3561,16.98,16.7816,22.261ZM7,24V22a2.9688,2.9688,0,0,1,.4036-1.4786l1.8391,2.1319a1,1,0,0,0,1.5146-1.3066L8.9125,19.2081A2.9941,2.9941,0,0,1,10,19h3.3229l.3642.9108-4.222,7.037A2.9924,2.9924,0,0,1,7,24Zm16.5361,1.5361A4.9689,4.9689,0,0,1,20,27H18.6771l-1.0965-2.7413,6.5558-6.2107L25,18.5662V22A4.9708,4.9708,0,0,1,23.5361,25.5361Z"/></g></svg>