<svg clip-rule="evenodd" fill-rule="evenodd" height="512" stroke-linejoin="round" stroke-miterlimit="2" viewBox="0 0 24 24" width="512" xmlns="http://www.w3.org/2000/svg"><g id="Icon"><path d="m12.488 6.413-2.4 7.2c-.13.393.082.818.475.949.393.13.818-.082.949-.475l2.4-7.2c.13-.393-.082-.818-.475-.949-.393-.13-.818.082-.949.475z"/><path d="m14.57 8.38 1.869 1.87s-1.869 1.87-1.869 1.87c-.293.292-.293.768 0 1.06.292.293.768.293 1.06 0l2.4-2.4c.293-.293.293-.767 0-1.06l-2.4-2.4c-.292-.293-.768-.293-1.06 0-.293.292-.293.768 0 1.06z"/><path d="m8.37 7.32-2.4 2.4c-.293.293-.293.767 0 1.06l2.4 2.4c.292.293.768.293 1.06 0 .293-.292.293-.768 0-1.06l-1.869-1.87s1.869-1.87 1.869-1.87c.293-.292.293-.768 0-1.06-.292-.293-.768-.293-1.06 0z"/><path d="m22.75 4.25c0-.597-.237-1.169-.659-1.591s-.994-.659-1.591-.659h-17c-.597 0-1.169.237-1.591.659s-.659.994-.659 1.591v12c0 .597.237 1.169.659 1.591s.994.659 1.591.659h17c.597 0 1.169-.237 1.591-.659s.659-.994.659-1.591zm-1.5 0v12c0 .199-.079.39-.22.53-.14.141-.331.22-.53.22h-17c-.199 0-.39-.079-.53-.22-.141-.14-.22-.331-.22-.53v-12c0-.199.079-.39.22-.53.14-.141.331-.22.53-.22h17c.199 0 .39.079.53.22.141.14.22.331.22.53z"/><path d="m11.25 17.75v3.5c0 .414.336.75.75.75s.75-.336.75-.75v-3.5c0-.414-.336-.75-.75-.75s-.75.336-.75.75z"/><path d="m7.5 22h9c.414 0 .75-.336.75-.75s-.336-.75-.75-.75h-9c-.414 0-.75.336-.75.75s.336.75.75.75z"/></g></svg>