<svg clip-rule="evenodd" fill-rule="evenodd" height="512" stroke-linejoin="round" stroke-miterlimit="2" viewBox="0 0 24 24" width="512" xmlns="http://www.w3.org/2000/svg"><g id="Icon"><path d="m12 9.362c-2.898 0-5.25 2.352-5.25 5.25 0 1.612 1.294 4.875 2.824 6.681.782.924 1.656 1.457 2.426 1.457s1.644-.533 2.426-1.457c1.53-1.806 2.824-5.069 2.824-6.681 0-2.898-2.352-5.25-5.25-5.25zm0 1.5c2.07 0 3.75 1.68 3.75 3.75 0 1.187-.86 3.398-1.925 4.986-.341.509-.704.953-1.074 1.267-.259.219-.503.385-.751.385s-.492-.166-.751-.385c-.37-.314-.733-.758-1.074-1.267-1.065-1.588-1.925-3.799-1.925-4.986 0-2.07 1.68-3.75 3.75-3.75z"/><path d="m15.572 11.597s1.421-1.649 3.612-.991c-.07.302-.214.706-.512 1.09-.412.531-1.116 1.003-2.281 1.174-.409.06-.693.441-.633.85.06.41.441.694.851.634 1.673-.245 2.657-.976 3.248-1.739.925-1.193.893-2.515.893-2.515-.005-.292-.178-.554-.444-.673-3.539-1.582-5.878 1.199-5.878 1.199-.268.316-.229.789.086 1.057.316.268.79.23 1.058-.086z"/><path d="m9.572 10.626s-2.339-2.781-5.878-1.199c-.266.119-.439.381-.444.673 0 0-.032 1.322.893 2.515.591.763 1.575 1.494 3.248 1.739.41.06.791-.224.851-.634.06-.409-.224-.79-.633-.85-1.165-.171-1.869-.643-2.281-1.174-.298-.384-.442-.788-.512-1.09 2.191-.658 3.612.991 3.612.991.268.316.742.354 1.058.086.315-.268.354-.741.086-1.057z"/><path d="m13.701 10.378s.53-1.396 1.35-2.616c.469-.698 1.01-1.371 1.639-1.537 2.293-.601 3.998-2.462 4.06-4.199.014-.413-.31-.761-.724-.776-.413-.014-.761.31-.776.724-.015.441-.219.882-.535 1.284-.54.688-1.407 1.255-2.405 1.517-.717.188-1.412.745-2.004 1.472-1.194 1.466-2.007 3.598-2.007 3.598-.147.387.048.821.435.968s.82-.048.967-.435z"/><path d="m11.701 9.845s-.813-2.132-2.007-3.598c-.592-.727-1.287-1.284-2.004-1.472-.998-.262-1.865-.829-2.405-1.517-.316-.402-.52-.843-.535-1.284-.015-.414-.363-.738-.776-.724-.414.015-.738.363-.724.776.062 1.737 1.767 3.598 4.06 4.199.629.166 1.17.839 1.639 1.537.82 1.22 1.35 2.616 1.35 2.616.147.387.58.582.967.435s.582-.581.435-.968z"/><path d="m16.122 6.475s1.384-2.08.581-4.237c-.145-.388-.577-.585-.965-.441-.388.145-.585.577-.441.965.546 1.465-.419 2.875-.419 2.875-.231.343-.14.81.203 1.041s.81.14 1.041-.203z"/><path d="m9.122 5.637s-.965-1.41-.419-2.875c.144-.388-.053-.82-.441-.965-.388-.144-.82.053-.965.441-.803 2.157.581 4.237.581 4.237.231.343.698.434 1.041.203s.434-.698.203-1.041z"/><path d="m14.381 8.241s1.684.271 3.526-.022c1.299-.207 2.662-.699 3.631-1.696.288-.297.281-.773-.015-1.061-.297-.288-.773-.281-1.061.015-.74.763-1.799 1.103-2.791 1.261-1.595.254-3.052.021-3.052.021-.409-.065-.794.213-.86.622-.065.409.213.794.622.86z"/><path d="m9.381 6.759s-1.457.233-3.052-.021c-.992-.158-2.051-.498-2.791-1.261-.288-.296-.764-.303-1.061-.015-.296.288-.303.764-.015 1.061.969.997 2.332 1.489 3.631 1.696 1.842.293 3.526.022 3.526.022.409-.066.687-.451.622-.86-.066-.409-.451-.687-.86-.622z"/></g></svg>