<svg clip-rule="evenodd" fill-rule="evenodd" height="512" stroke-linejoin="round" stroke-miterlimit="2" viewBox="0 0 24 24" width="512" xmlns="http://www.w3.org/2000/svg"><g id="Icon"><path d="m10.75 3c0-.414-.336-.75-.75-.75h-.75c-.796 0-1.559.316-2.121.879-.563.562-.879 1.325-.879 2.121v.75c0 .414.336.75.75.75h.75c.796 0 1.559-.316 2.121-.879.563-.562.879-1.325.879-2.121zm-1.5.75c0 .398-.158.779-.439 1.061-.282.281-.663.439-1.061.439 0-.398.158-.779.439-1.061.282-.281.663-.439 1.061-.439z"/><path d="m3 1.25c-.414 0-.75.336-.75.75v1c0 .995.395 1.948 1.098 2.652.704.703 1.657 1.098 2.652 1.098h1c.414 0 .75-.336.75-.75v-1c0-.995-.395-1.948-1.098-2.652-.704-.703-1.657-1.098-2.652-1.098zm.75 1.5h.25c.597 0 1.169.237 1.591.659s.659.994.659 1.591v.25h-.25c-.597 0-1.169-.237-1.591-.659s-.659-.994-.659-1.591z"/><path d="m6.25 6v2c0 .414.336.75.75.75s.75-.336.75-.75v-2c0-.414-.336-.75-.75-.75s-.75.336-.75.75z"/><path d="m15.25 15c0-.414-.336-.75-.75-.75h-12.5c-.414 0-.75.336-.75.75v7c0 .414.336.75.75.75h12.5c.414 0 .75-.336.75-.75zm-1.5.75v5.5h-11v-5.5z"/><path d="m10.25 17.5c0-.414-.336-.75-.75-.75h-4c-.414 0-.75.336-.75.75v4.5c0 .414.336.75.75.75h4c.414 0 .75-.336.75-.75zm-1.5.75v3h-2.5v-3z"/><path d="m10.742 7.894c-.052-.37-.369-.644-.742-.644h-6c-.373 0-.69.274-.742.644l-1 7c-.031.215.033.433.175.597.143.165.35.259.567.259h8c.217 0 .424-.094.567-.259.142-.164.206-.382.175-.597zm-1.392.856.785 5.5h-6.27s.785-5.5.785-5.5z"/><path d="m22.25 8c0-.252-.127-.487-.337-.626-.211-.139-.477-.163-.708-.063l-7 3c-.276.118-.455.389-.455.689v11c0 .414.336.75.75.75h7c.414 0 .75-.336.75-.75zm-1.5 1.137v12.113h-5.5v-9.755z"/><path d="m21.705 7.096-8.5 3.643c-.381.163-.557.605-.394.985s.604.557.984.394l8.5-3.643c.381-.163.557-.604.394-.985-.163-.38-.604-.557-.984-.394z"/><path d="m17.5 14.75h1c.414 0 .75-.336.75-.75s-.336-.75-.75-.75h-1c-.414 0-.75.336-.75.75s.336.75.75.75z"/><path d="m17.5 18.25h1c.414 0 .75-.336.75-.75s-.336-.75-.75-.75h-1c-.414 0-.75.336-.75.75s.336.75.75.75z"/></g></svg>