<svg clip-rule="evenodd" fill-rule="evenodd" height="512" stroke-linejoin="round" stroke-miterlimit="2" viewBox="0 0 24 24" width="512" xmlns="http://www.w3.org/2000/svg"><g id="Icon"><circle cx="19" cy="17" r="1"/><circle cx="5" cy="17" r="1"/><path d="m16 16.25h-8c-.414 0-.75.336-.75.75s.336.75.75.75h8c.414 0 .75-.336.75-.75s-.336-.75-.75-.75z"/><path d="m19.97 8.03.969.97s-.969.97-.969.97c-.293.292-.293.768 0 1.06.292.293.768.293 1.06 0l1.5-1.5c.293-.293.293-.767 0-1.06l-1.5-1.5c-.292-.293-.768-.293-1.06 0-.293.292-.293.768 0 1.06z"/><path d="m2.97 6.97-1.5 1.5c-.293.293-.293.767 0 1.06l1.5 1.5c.292.293.768.293 1.06 0 .293-.292.293-.768 0-1.06l-.969-.97s.969-.97.969-.97c.293-.292.293-.768 0-1.06-.292-.293-.768-.293-1.06 0z"/><path d="m1.25 17c0 2.071 1.679 3.75 3.75 3.75h14c2.071 0 3.75-1.679 3.75-3.75s-1.679-3.75-3.75-3.75c-3.776 0-10.224 0-14 0-2.071 0-3.75 1.679-3.75 3.75zm1.5 0c0-1.243 1.007-2.25 2.25-2.25h14c1.243 0 2.25 1.007 2.25 2.25s-1.007 2.25-2.25 2.25c-3.776 0-10.224 0-14 0-1.243 0-2.25-1.007-2.25-2.25z"/><path d="m16.3 14.75c.517 0 1.013-.205 1.379-.571s.571-.862.571-1.379v-7.6c0-.517-.205-1.013-.571-1.379s-.862-.571-1.379-.571c-2.299 0-6.301 0-8.6 0-.517 0-1.013.205-1.379.571s-.571.862-.571 1.379v7.6c0 .517.205 1.013.571 1.379s.862.571 1.379.571zm0-1.5h-8.6c-.119 0-.234-.047-.318-.132-.085-.084-.132-.199-.132-.318v-7.6c0-.119.047-.234.132-.318.084-.085.199-.132.318-.132h8.6c.119 0 .234.047.318.132.085.084.132.199.132.318v7.6c0 .119-.047.234-.132.318-.084.085-.199.132-.318.132z"/><path d="m15.25 4c0-.414-.336-.75-.75-.75h-5c-.414 0-.75.336-.75.75v2.9c0 .372.163.735.477.999.262.22.616.351.987.351h3.572c.371 0 .725-.131.987-.351.314-.264.477-.627.477-.999 0-.875 0-2.9 0-2.9zm-5 2.75v-2h3.5v2z"/></g></svg>