<svg clip-rule="evenodd" fill-rule="evenodd" height="512" stroke-linejoin="round" stroke-miterlimit="2" viewBox="0 0 134 134" width="512" xmlns="http://www.w3.org/2000/svg"><path d="m46.322 99.408c-15.101-7.501-25.489-23.084-25.489-41.075 0-25.296 20.538-45.833 45.834-45.833s45.833 20.537 45.833 45.833c0 17.991-10.388 33.576-25.488 41.075l-3.569 18.066c-.385 1.952-2.098 3.359-4.087 3.359h-25.378c-1.99 0-3.702-1.407-4.088-3.359zm32.924-3.688c.208-1.056 1-2.39 2.417-3.01 13.241-5.791 22.504-19.011 22.504-34.377 0-20.696-16.804-37.5-37.5-37.5-20.697 0-37.5 16.804-37.5 37.5 0 20.697 16.803 37.5 37.5 37.5 2.299 0 4.166 1.867 4.166 4.167s-1.867 4.167-4.166 4.167c-3.858 0-7.605-.478-11.183-1.377l1.918 9.71h18.529s0 0 3.315-16.78zm-32.227-44.33c2.095-5.917 6.787-10.61 12.704-12.704 2.168-.767 3.306-3.15 2.538-5.318-.767-2.168-3.15-3.305-5.318-2.538-8.281 2.931-14.849 9.499-17.779 17.78-.768 2.168.369 4.551 2.537 5.318s4.551-.37 5.318-2.538z"/></svg>