<svg clip-rule="evenodd" fill-rule="evenodd" height="512" stroke-linejoin="round" stroke-miterlimit="2" viewBox="0 0 24 24" width="512" xmlns="http://www.w3.org/2000/svg"><g id="Icon"><path d="m17.255 13.083s.609 5.483.876 7.889c.008.071-.015.142-.062.195s-.115.083-.186.083h-5.119s-.013-8.815-.013-8.815l5.44-3.109c1.025-.585 1.212-1.984.378-2.817 0 0-.604-.605-.604-.605s1.032-1.548 1.032-1.548c.594-.889.126-2.099-.913-2.358-.015-.003-.029-.007-.044-.009l-3.903-.726c-.407-.076-.799.193-.874.6-.076.407.193.799.6.874l3.867.72c.025.012.035.043.019.066l-1.373 2.061c-.198.298-.159.694.094.946l1.039 1.039c.134.135.103.36-.062.455 0 0-5.819 3.325-5.819 3.325-.234.134-.378.383-.378.652l.015 10c.001.414.336.749.75.749h5.868c.498 0 .972-.212 1.304-.583s.49-.866.435-1.36c-.267-2.407-.877-7.89-.877-7.89-.045-.411-.416-.708-.828-.662-.411.045-.708.416-.662.828z"/><path d="m18.721 18.588 2.633-.655c.834-.207 1.394-.99 1.321-1.846l-.757-8.918c-.122-1.641-1.108-3.103-2.583-3.84-.37-.185-.821-.035-1.006.335-.185.371-.035.822.336 1.007 1.003.502 1.676 1.496 1.757 2.613l.759 8.93c.01.122-.07.234-.189.264 0 0-2.633.654-2.633.654-.402.1-.647.507-.547.909s.507.647.909.547z"/><path d="m13.819 1.25h-3.638c-1.576 0-2.653 1.591-2.068 3.054 0 0 3.19 7.975 3.19 7.975.114.284.39.471.697.471.306 0 .582-.187.696-.471l3.19-7.975c.585-1.463-.491-3.054-2.067-3.054zm0 1.5c.514 0 .865.519.674.996 0 0-2.493 6.235-2.493 6.235s-2.494-6.235-2.494-6.235c-.191-.477.161-.996.675-.996z"/><path d="m21.609 13.852-3.25.81c-.402.1-.647.508-.547.909.1.402.508.647.909.547l3.25-.81c.402-.1.647-.508.547-.909-.1-.402-.508-.647-.909-.547z"/><path d="m5.255 12.917s-.61 5.483-.877 7.89c-.055.494.103.989.435 1.36s.806.583 1.304.583h5.868c.414 0 .749-.335.75-.749l.015-10c0-.269-.144-.518-.378-.652l-5.819-3.325c-.165-.095-.196-.32-.062-.455 0 0 1.039-1.039 1.039-1.039.253-.252.292-.648.094-.946l-1.373-2.061c-.016-.023-.007-.052.016-.065.003-.001 3.87-.721 3.87-.721.407-.075.676-.467.6-.874-.075-.407-.467-.676-.874-.6l-3.903.726c-.015.002-.029.006-.044.009-1.039.259-1.507 1.469-.913 2.359 0-.001 1.032 1.547 1.032 1.547s-.604.605-.604.605c-.834.833-.647 2.232.378 2.817l5.44 3.109s-.013 8.815-.013 8.815h-5.119c-.071 0-.139-.03-.186-.083s-.07-.124-.062-.195l.876-7.889c.046-.412-.251-.783-.662-.828-.412-.046-.783.251-.828.662z"/><path d="m4.665 3.329c-1.475.737-2.461 2.2-2.583 3.84l-.757 8.918c-.073.857.487 1.639 1.321 1.846l2.633.655c.402.1.809-.145.909-.547s-.145-.809-.547-.909l-2.633-.654c-.119-.03-.199-.142-.189-.264l.759-8.93c.081-1.117.754-2.111 1.757-2.613.371-.185.521-.636.336-1.006-.185-.371-.636-.521-1.006-.336z"/><path d="m5.641 14.662-3.25-.81c-.401-.1-.809.145-.909.547-.1.401.145.809.547.909l3.25.81c.401.1.809-.145.909-.547.1-.401-.145-.809-.547-.909z"/></g></svg>