<svg clip-rule="evenodd" fill-rule="evenodd" height="512" stroke-linejoin="round" stroke-miterlimit="2" viewBox="0 0 24 24" width="512" xmlns="http://www.w3.org/2000/svg"><g id="Icon"><path d="m11 19.25c-.966 0-1.75.784-1.75 1.75s.784 1.75 1.75 1.75h2c.966 0 1.75-.784 1.75-1.75s-.784-1.75-1.75-1.75zm0 1.5h2c.138 0 .25.112.25.25s-.112.25-.25.25h-2c-.138 0-.25-.112-.25-.25s.112-.25.25-.25z"/><path d="m18.75 8c0-3.996-3.472-7.182-7.563-6.703 0 0 0 0-.001 0-2.95.347-5.396 2.691-5.852 5.627-.385 2.471.578 4.736 2.264 6.186.442.382.652.965.652 1.55v.653c0 1.898 1.539 3.437 3.437 3.437h.626c1.898 0 3.437-1.539 3.437-3.437v-.756c0-.599.305-1.134.75-1.533 1.38-1.234 2.25-3.027 2.25-5.024zm-1.5 0c0 1.553-.676 2.946-1.75 3.906-.765.685-1.25 1.624-1.25 2.651v.756c0 1.07-.867 1.937-1.937 1.937h-.626c-1.07 0-1.937-.867-1.937-1.937v-.653c0-1.019-.402-2.021-1.173-2.686-.001 0-.001 0-.001 0-1.312-1.13-2.059-2.895-1.76-4.82.354-2.28 2.254-4.098 4.545-4.367 3.185-.373 5.889 2.103 5.889 5.213z"/><path d="m8.792 7.461c.217-1.393 1.396-2.522 2.802-2.687l.405-.024c.414 0 .75-.336.75-.75s-.336-.75-.75-.75c-.191 0-.384.011-.58.034-2.063.242-3.791 1.903-4.109 3.947-.063.409.217.793.626.856.409.064.793-.217.856-.626z"/></g></svg>