<svg clip-rule="evenodd" fill-rule="evenodd" height="512" stroke-linejoin="round" stroke-miterlimit="2" viewBox="0 0 24 24" width="512" xmlns="http://www.w3.org/2000/svg"><g id="Icon"><path d="m18.541 20.099-3.536-3.535c-.293-.293-.293-.768 0-1.061 1.66-1.659 1.66-4.35 0-6.01-1.658-1.659-4.352-1.659-6.01 0-1.66 1.66-1.66 4.351 0 6.01.293.293.293.768 0 1.061l-3.536 3.535c-.293.293-.768.293-1.06 0-4.199-4.198-4.199-11.004 0-15.202 4.195-4.196 11.007-4.196 15.202 0 4.199 4.198 4.199 11.004 0 15.202-.292.293-.767.293-1.06 0zm.509-1.612c3.094-3.634 2.925-9.096-.509-12.53-3.61-3.61-9.472-3.61-13.082 0-3.434 3.434-3.603 8.896-.509 12.53 0 0 2.488-2.488 2.488-2.488-1.735-2.254-1.57-5.501.496-7.567 2.244-2.244 5.888-2.244 8.132 0 2.066 2.066 2.231 5.313.496 7.567z"/><path d="m18.541 4.897c.292-.293.768-.293 1.06 0 .293.292.293.768 0 1.06l-3.535 3.536c-.293.293-.768.293-1.061 0-.292-.293-.292-.768 0-1.061z"/><path d="m4.399 5.957c-.293-.292-.293-.768 0-1.06.292-.293.768-.293 1.06 0l3.536 3.535c.292.293.292.768 0 1.061-.293.293-.768.293-1.061 0z"/><path d="m15.75 19.998v.5c0 .464-.184.909-.513 1.237-.328.329-.773.513-1.237.513h-4c-.464 0-.909-.184-1.237-.513-.329-.328-.513-.773-.513-1.237v-.5c0-.464.184-.909.513-1.237.328-.329.773-.513 1.237-.513h4c.464 0 .909.184 1.237.513.329.328.513.773.513 1.237zm-1.5 0c0-.066-.026-.13-.073-.177s-.111-.073-.177-.073h-4c-.066 0-.13.026-.177.073s-.073.111-.073.177v.5c0 .066.026.13.073.177s.111.073.177.073h4c.066 0 .13-.026.177-.073s.073-.111.073-.177z"/><path d="m12 10.248c1.242 0 2.25 1.008 2.25 2.25s-1.008 2.25-2.25 2.25-2.25-1.008-2.25-2.25 1.008-2.25 2.25-2.25zm0 1.5c-.414 0-.75.336-.75.75s.336.75.75.75.75-.336.75-.75-.336-.75-.75-.75z"/><path d="m12.75 11.035c0 .413-.336.75-.75.75s-.75-.337-.75-.75v-5.537c0-.414.336-.75.75-.75s.75.336.75.75z"/></g></svg>