<svg height="512" viewBox="0 0 32 32" width="512" xmlns="http://www.w3.org/2000/svg"><g id="note_tax_transaction" data-name="note, tax, transaction"><path d="m28 13h-4a1 1 0 0 0 0 2h3v9a3.0033 3.0033 0 0 1 -3 3 3.0025 3.0025 0 0 1 -3-3v-20a1 1 0 0 0 -1-1h-16a1 1 0 0 0 0 2h15v19a4.9581 4.9581 0 0 0 .999 3h-11.999a3.0025 3.0025 0 0 1 -3-3v-16a1 1 0 0 0 -2 0v16a5 5 0 0 0 5 5h16a5.0059 5.0059 0 0 0 5-5v-10a1 1 0 0 0 -1-1z"/><path d="m8 11h8a1 1 0 0 0 0-2h-8a1 1 0 0 0 0 2z"/><path d="m8 15h8a1 1 0 0 0 0-2h-8a1 1 0 0 0 0 2z"/><path d="m8 19h8a1 1 0 0 0 0-2h-8a1 1 0 0 0 0 2z"/><path d="m10 21a1 1 0 0 0 0 2h4a1 1 0 0 0 0-2z"/></g></svg>