<svg clip-rule="evenodd" fill-rule="evenodd" stroke-linejoin="round" stroke-miterlimit="2" viewBox="0 0 32 32" xmlns="http://www.w3.org/2000/svg" xmlns:serif="http://www.serif.com/"><g id="evernote_note_todo_social_media" fill-rule="nonzero"><path d="m27.281 15.898-.581-5.704c-.248-2.58-2.806-4.695-4.854-4.96-.876-.113-1.985-.34-2.578-.73-.702-.461-1.301-1.513-3.123-1.513h-1.858c-1.376 0-2.508 1.132-2.508 2.508 0 .065.007 3.626.007 3.626 0 .548-.452 1-1 1 0 0-3.87 0-3.872 0-1.362 0-2.482 1.121-2.482 2.482 0 5.049 1.925 10.018 8.622 10.018 1.568.042 2.981-.978 3.435-2.479.976.74 2.134 1.203 3.35 1.341 1.3.182 1.792 2.428 1.796 2.448.092.467.506.807.982.807.548 0 1.131-.431.981-1.194-.029-.149-.751-3.659-3.481-4.041-2.535-.356-3.159-1.807-3.178-1.851-.145-.393-.52-.655-.939-.655-.496 0-.921.37-.99.861-.338 2.428-1.14 2.763-1.956 2.763-2.555 0-6.015-.807-6.606-7.761.023-.726.234-.732.499-.739h3.84c1.645-.002 2.998-1.355 3-3v-3.433c0-.366.248-.694.615-.694h1.335c1.202 0 1.824.81 2.4 1.201.906.614 2.361.79 3.469 1.02 1.719.357 2.947 1.526 3.104 3.178l.578 5.664c.305 4.973-.255 8.141-1.708 9.687-.933.904-2.6 1.252-3.509 1.252-1.251 0-1.898-.729-1.926-1.651 0-1.241.64-1.385 1.123-1.385.548 0 1-.451 1-1 0-.548-.429-1.001-1.086-1.001-1.676 0-3.055 1.38-3.055 3.056 0 2.269 2.01 3.981 3.944 3.981 1.852 0 3.659-.569 4.965-1.882 1.879-1.996 2.593-5.549 2.245-11.22z"/><path d="m19.692 14.369c-1.009.969.222 2.297 1.169 1.488.381-.325.93-.519 1.61.143.97.942 2.175-.265 1.321-1.326-.855-1.062-2.653-1.695-4.1-.305z"/><path d="m8.27 9.207 2.705-2.705c1.038-1.038-.377-2.452-1.414-1.415l-2.705 2.706c-.919.918.496 2.332 1.414 1.414z"/></g></svg>