<svg clip-rule="evenodd" fill-rule="evenodd" height="512" stroke-linejoin="round" stroke-miterlimit="2" viewBox="0 0 24 24" width="512" xmlns="http://www.w3.org/2000/svg"><g id="Icon"><path d="m20 21.75c.729 0 1.429-.29 1.945-.805.515-.516.805-1.216.805-1.945 0-3.463 0-10.537 0-14 0-.729-.29-1.429-.805-1.945-.516-.515-1.216-.805-1.945-.805-3.832 0-12.168 0-16 0-.729 0-1.429.29-1.945.805-.515.516-.805 1.216-.805 1.945v14c0 .729.29 1.429.805 1.945.516.515 1.216.805 1.945.805zm0-1.5h-16c-.332 0-.649-.132-.884-.366-.234-.235-.366-.552-.366-.884v-14c0-.332.132-.649.366-.884.235-.234.552-.366.884-.366h16c.332 0 .649.132.884.366.234.235.366.552.366.884v14c0 .332-.132.649-.366.884-.235.234-.552.366-.884.366z"/><path d="m2 8.75h20c.414 0 .75-.336.75-.75s-.336-.75-.75-.75h-20c-.414 0-.75.336-.75.75s.336.75.75.75z"/><path d="m8.5 6.25h1c.414 0 .75-.336.75-.75s-.336-.75-.75-.75h-1c-.414 0-.75.336-.75.75s.336.75.75.75z"/><path d="m5 6.25h1c.414 0 .75-.336.75-.75s-.336-.75-.75-.75h-1c-.414 0-.75.336-.75.75s.336.75.75.75z"/><path d="m3.288 13.237 1 3c.1.299.375.503.69.513.315.009.601-.179.718-.471l.304-.76s.304.76.304.76c.117.292.403.48.718.471.315-.01.59-.214.69-.513l1-3c.13-.393-.082-.818-.475-.949-.393-.13-.818.082-.949.475l-.352 1.057s-.24-.599-.24-.599c-.114-.284-.389-.471-.696-.471s-.582.187-.696.471l-.24.599s-.352-1.057-.352-1.057c-.131-.393-.556-.605-.949-.475-.393.131-.605.556-.475.949z"/><path d="m9.288 13.237 1 3c.1.299.375.503.69.513.315.009.601-.179.718-.471l.304-.76s.304.76.304.76c.117.292.403.48.718.471.315-.01.59-.214.69-.513l1-3c.13-.393-.082-.818-.475-.949-.393-.13-.818.082-.949.475l-.352 1.057s-.24-.599-.24-.599c-.114-.284-.389-.471-.696-.471s-.582.187-.696.471l-.24.599s-.352-1.057-.352-1.057c-.131-.393-.556-.605-.949-.475-.393.131-.605.556-.475.949z"/><path d="m15.288 13.237 1 3c.1.299.375.503.69.513.315.009.601-.179.718-.471l.304-.76s.304.76.304.76c.117.292.403.48.718.471.315-.01.59-.214.69-.513l1-3c.13-.393-.082-.818-.475-.949-.393-.13-.818.082-.949.475l-.352 1.057s-.24-.599-.24-.599c-.114-.284-.389-.471-.696-.471s-.582.187-.696.471l-.24.599s-.352-1.057-.352-1.057c-.131-.393-.556-.605-.949-.475-.393.131-.605.556-.475.949z"/></g></svg>