<svg clip-rule="evenodd" fill-rule="evenodd" height="512" stroke-linejoin="round" stroke-miterlimit="2" viewBox="0 0 24 24" width="512" xmlns="http://www.w3.org/2000/svg"><g id="Icon"><path d="m8 1.25h-4c-1.519 0-2.75 1.231-2.75 2.75v4c0 .414.336.75.75.75s.75-.336.75-.75v-4c0-.69.56-1.25 1.25-1.25h4c.414 0 .75-.336.75-.75s-.336-.75-.75-.75z"/><path d="m8 21.25h-4c-.69 0-1.25-.56-1.25-1.25v-4c0-.414-.336-.75-.75-.75s-.75.336-.75.75v4c0 1.519 1.231 2.75 2.75 2.75h4c.414 0 .75-.336.75-.75s-.336-.75-.75-.75z"/><path d="m22.75 8v-4c0-1.519-1.231-2.75-2.75-2.75h-4c-.414 0-.75.336-.75.75s.336.75.75.75h4c.69 0 1.25.56 1.25 1.25v4c0 .414.336.75.75.75s.75-.336.75-.75z"/><path d="m21.25 16v4c0 .69-.56 1.25-1.25 1.25h-4c-.414 0-.75.336-.75.75s.336.75.75.75h4c1.519 0 2.75-1.231 2.75-2.75v-4c0-.414-.336-.75-.75-.75s-.75.336-.75.75z"/><path d="m17.75 16.994-.058-6.999c-.001-1.523-.607-2.984-1.684-4.061-1.078-1.078-2.541-1.684-4.066-1.684s-2.987.606-4.066 1.684c-1.078 1.078-1.684 2.541-1.684 4.066v7c0 .414.336.75.75.75s.75-.336.75-.75v-7c0-1.127.448-2.208 1.245-3.005s1.878-1.245 3.005-1.245c1.128 0 2.209.448 3.006 1.245s1.244 1.878 1.244 3.005l.058 7.006c.003.414.342.747.756.744s.747-.342.744-.756z"/><path d="m11.193 16.489-.001.011.001.019c.01.406.341.731.749.731.862 0 1.689-.342 2.298-.952.61-.609.952-1.436.952-2.298v-4c0-.414-.336-.75-.75-.75s-.75.336-.75.75v4c0 .464-.184.909-.512 1.237-.328.329-.774.513-1.238.513-.41 0-.744.33-.749.739z"/><path d="m11.942 6.75c-.862 0-1.688.342-2.298.952-.609.609-.952 1.436-.952 2.298v4c0 .414.336.75.75.75s.75-.336.75-.75v-4c0-.464.185-.909.513-1.237.328-.329.773-.513 1.237-.513.414 0 .75-.336.75-.75s-.336-.75-.75-.75z"/><path d="m11.192 10v4c0 .414.336.75.75.75s.75-.336.75-.75v-4c0-.414-.336-.75-.75-.75s-.75.336-.75.75z"/></g></svg>