<svg clip-rule="evenodd" fill-rule="evenodd" height="512" stroke-linejoin="round" stroke-miterlimit="2" viewBox="0 0 24 24" width="512" xmlns="http://www.w3.org/2000/svg"><g id="Icon"><path d="m6.5 12.5v-6c0-.69-.56-1.25-1.25-1.25-.555 0-1.445 0-2 0-.69 0-1.25.56-1.25 1.25v6c0 .69.56 1.25 1.25 1.25h2c.69 0 1.25-.56 1.25-1.25zm-3-5.75v5.5h1.5v-5.5z"/><path d="m15.5 6.75v-1.25c0-.414-.336-.75-.75-.75h-3.5c-.414 0-.75.336-.75.75v1.25h-4.75c-.414 0-.75.336-.75.75v4c0 .414.336.75.75.75h11c.066 0 .13.026.177.073s.073.111.073.177v1c0 .414.336.75.75.75h3c.414 0 .75-.336.75-.75v-3c0-.995-.395-1.948-1.098-2.652-.704-.703-1.657-1.098-2.652-1.098zm-1.5.75c0 .414.336.75.75.75h3c.597 0 1.169.237 1.591.659s.659.994.659 1.591v2.25h-1.5v-.25c0-.464-.184-.909-.513-1.237-.328-.329-.773-.513-1.237-.513h-10.25v-2.5h4.75c.414 0 .75-.336.75-.75v-1.25h2z"/><path d="m13.75 5.5v-3.5c0-.414-.336-.75-.75-.75s-.75.336-.75.75v3.5c0 .414.336.75.75.75s.75-.336.75-.75z"/><path d="m16 2.25h-6c-.414 0-.75.336-.75.75s.336.75.75.75h6c.414 0 .75-.336.75-.75s-.336-.75-.75-.75z"/><path d="m19.896 15.119c-.135-.228-.38-.369-.646-.369s-.511.141-.646.369c0 0-1.007 1.712-1.612 3.128-.301.706-.492 1.357-.492 1.753 0 1.518 1.232 2.75 2.75 2.75s2.75-1.232 2.75-2.75c0-.396-.191-1.047-.492-1.753-.605-1.416-1.612-3.128-1.612-3.128zm-.646 1.92c.289.541.622 1.197.878 1.797.203.474.372.898.372 1.164 0 .69-.56 1.25-1.25 1.25s-1.25-.56-1.25-1.25c0-.266.169-.69.372-1.164.256-.6.589-1.256.878-1.797z"/></g></svg>