<svg clip-rule="evenodd" fill-rule="evenodd" height="512" stroke-linejoin="round" stroke-miterlimit="2" viewBox="0 0 24 24" width="512" xmlns="http://www.w3.org/2000/svg"><g id="Icon"><path d="m12 1.25c-5.933 0-10.75 4.817-10.75 10.75s4.817 10.75 10.75 10.75 10.75-4.817 10.75-10.75-4.817-10.75-10.75-10.75zm0 1.5c5.105 0 9.25 4.145 9.25 9.25s-4.145 9.25-9.25 9.25-9.25-4.145-9.25-9.25 4.145-9.25 9.25-9.25z"/><path d="m11.25 5.875v8.75c0 .414.336.75.75.75s.75-.336.75-.75v-8.75c0-.414-.336-.75-.75-.75s-.75.336-.75.75z"/><path d="m14.97 10.595-2.97 2.969s-2.97-2.969-2.97-2.969c-.292-.293-.768-.293-1.06 0-.293.292-.293.768 0 1.06l3.5 3.5c.293.293.767.293 1.06 0l3.5-3.5c.293-.292.293-.768 0-1.06-.292-.293-.768-.293-1.06 0z"/><path d="m16 16.375h-8c-.414 0-.75.336-.75.75s.336.75.75.75h8c.414 0 .75-.336.75-.75s-.336-.75-.75-.75z"/></g></svg>