<svg clip-rule="evenodd" fill-rule="evenodd" stroke-linejoin="round" stroke-miterlimit="1.414" viewBox="0 0 32 32" xmlns="http://www.w3.org/2000/svg" xmlns:serif="http://www.serif.com/"><path id="scoreboard-board-score-seven-segment" d="m0 0h32v32h-32z" fill="none"/><path d="m28 27h-24c-.537-.025-.975-.451-1-1v-20c.025-.537.451-.975 1-1h24c.031.001.062.003.092.004.499.07.885.492.908.996v14c-.037.775-1.04 1.289-1.655.756-.21-.182-.325-.33-.345-.756v-13h-22v18h22v-1c.041-.865.487-.936.858-.99.562-.081 1.114.403 1.142.99v2c-.025.536-.46.975-1 1zm-15.972-6c.959.041 1.44 1.939 0 2-1.246.017-2.641.199-2.962-.643-.224-.588.225-1.328.906-1.357.685-.009 1.371-.009 2.056 0zm10 0c.848.036 1.365 1.439.406 1.901-.126.061-.265.093-.406.099-1.344.018-2.927.236-3.024-.916-.046-.535.397-1.06.968-1.084.685-.009 1.371-.009 2.056 0zm-14-4c.51.022.95.452.972.972.019 1.37.241 3.099-1.056 3.026-.492-.027-.922-.457-.944-.97-.018-1.28-.252-3.046 1.028-3.028zm6 0c.509.022.95.452.972.972.017 1.246.199 2.641-.643 2.962-.588.224-1.328-.225-1.357-.906-.018-1.285-.252-3.046 1.028-3.028zm10 0c.509.022.95.452.972.972.017 1.246.199 2.641-.643 2.962-.588.224-1.328-.225-1.357-.906-.018-1.285-.252-3.046 1.028-3.028zm-6 0c.509.022.95.452.972.972.017 1.238.206 2.611-.617 2.952-.589.244-1.353-.203-1.383-.896-.018-1.285-.252-3.046 1.028-3.028zm4-2c.965.041 1.419 1.94 0 2-1.246.017-2.641.199-2.962-.643-.224-.588.225-1.328.906-1.357.685-.009 1.371-.009 2.056 0zm-10 0c.967.041 1.463 1.938 0 2-1.37.019-3.099.241-3.026-1.056.027-.492.457-.922.97-.944.685-.009 1.371-.009 2.056 0zm-4-4c.513.022.95.452.972.972.018 1.344.236 2.927-.916 3.024-.535.046-1.06-.397-1.084-.968-.018-1.279-.307-3.046 1.028-3.028zm6 0c.513.022.95.452.972.972.018 1.344.236 2.927-.916 3.024-.534.046-1.06-.397-1.084-.968-.018-1.279-.307-3.046 1.028-3.028zm10 0c.513.022.95.452.972.972.017 1.246.199 2.641-.643 2.962-.588.224-1.328-.225-1.357-.906-.018-1.285-.252-3.046 1.028-3.028zm-6 0c.513.022.95.452.972.972.017 1.224.234 2.599-.617 2.952-.585.242-1.353-.197-1.383-.896-.018-1.284-.307-3.046 1.028-3.028zm4-2c.967.041 1.463 1.938 0 2-1.344.018-2.927.236-3.024-.916-.046-.535.397-1.06.968-1.084.685-.009 1.371-.009 2.056 0zm-10 0c.967.041 1.463 1.938 0 2-1.37.019-3.099.241-3.026-1.056.027-.492.457-.922.97-.944.685-.009 1.371-.009 2.056 0z" fill-rule="nonzero"/></svg>