<svg clip-rule="evenodd" fill-rule="evenodd" stroke-linejoin="round" stroke-miterlimit="2" viewBox="0 0 32 32" xmlns="http://www.w3.org/2000/svg" xmlns:serif="http://www.serif.com/"><path id="student-table-studying" d="m0 0h32v32h-32z" fill="none"/><path d="m7.938 17.016c.035-.002.057-.001.075 0h15.944c.034-.002.056-.001.075 0h1.972c.029.002.058.003.087.004.671.088.79.404.88.738.143.533-.239 1.148-.793 1.245-.077.014-.097.012-.174.016h-1.001v9.01c-.008.232-.037.302-.096.427-.289.614-1.278.763-1.715.162-.087-.119-.146-.257-.174-.401-.012-.062-.016-.125-.018-.188v-9.01h-14.016v2.002h11.013c.023.001.045.002.068.002.744.077.797.378.896.729.153.547-.252 1.183-.828 1.262-.06.008-.076.007-.136.009h-11.013v5.006c-.028.876-1.449 1.4-1.907.427-.059-.125-.088-.195-.095-.427v-9.01h-1.002c-.284-.013-.362-.054-.5-.134-.525-.304-.659-1.124-.208-1.575.181-.181.317-.277.708-.294h1.958zm5.465-7.005c-.724-.623-1.242-1.487-1.377-2.448-.311-2.223 1.559-4.518 3.915-4.563h.103c2.258.043 4.239 2.244 3.914 4.563-.134.953-.654 1.822-1.383 2.449.851.739 1.414 1.817 1.422 2.997v1.004c-.021.88-1.46 1.389-1.909.422-.041-.088-.069-.182-.083-.278-.114-.779.091-1.703-.433-2.376-.982-1.26-3.57-.721-3.582 1.234v.998c-.024.992-1.967 1.466-2.003 0v-1.004c.008-1.154.558-2.247 1.416-2.998zm2.563-5.009c-1.313.025-2.389 1.564-1.79 2.848.528 1.129 2.232 1.503 3.179.62.638-.593.819-1.622.41-2.397-.343-.649-1.054-1.075-1.799-1.071z"/></svg>