<svg clip-rule="evenodd" fill-rule="evenodd" height="512" stroke-linejoin="round" stroke-miterlimit="2" viewBox="0 0 24 24" width="512" xmlns="http://www.w3.org/2000/svg"><g id="Icon"><circle cx="8.25" cy="12" r=".75"/><circle cx="12" cy="12" r=".75"/><circle cx="15.75" cy="12" r=".75"/><path d="m12 1.25c-1.95 0-3.782 1.207-5.243 3.08-2.053 2.632-3.386 6.567-3.386 9.791 0 4.763 3.867 8.629 8.629 8.629s8.629-3.866 8.629-8.629c0-3.224-1.333-7.159-3.386-9.791-1.461-1.873-3.293-3.08-5.243-3.08zm0 1.5c1.529 0 2.914 1.033 4.06 2.503 1.86 2.384 3.069 5.947 3.069 8.868 0 3.935-3.195 7.129-7.129 7.129s-7.129-3.194-7.129-7.129c0-2.921 1.209-6.484 3.069-8.868 1.146-1.47 2.531-2.503 4.06-2.503z"/><path d="m5.53 17.53.47-.469s1.47 1.469 1.47 1.469c.293.293.767.293 1.06 0l1.47-1.469s1.47 1.469 1.47 1.469c.293.293.767.293 1.06 0l1.47-1.469s1.47 1.469 1.47 1.469c.293.293.767.293 1.06 0l1.47-1.469s.47.469.47.469c.292.293.768.293 1.06 0 .293-.292.293-.768 0-1.06l-1-1c-.293-.293-.767-.293-1.06 0l-1.47 1.469s-1.47-1.469-1.47-1.469c-.293-.293-.767-.293-1.06 0l-1.47 1.469s-1.47-1.469-1.47-1.469c-.293-.293-.767-.293-1.06 0l-1.47 1.469s-1.47-1.469-1.47-1.469c-.293-.293-.767-.293-1.06 0l-1 1c-.293.292-.293.768 0 1.06.292.293.768.293 1.06 0z"/><path d="m5.97 7.03 1.5 1.5c.293.293.767.293 1.06 0l1.47-1.469s1.47 1.469 1.47 1.469c.293.293.767.293 1.06 0l1.47-1.469s1.47 1.469 1.47 1.469c.293.293.767.293 1.06 0l1.5-1.5c.293-.292.293-.768 0-1.06-.292-.293-.768-.293-1.06 0l-.97.969s-1.47-1.469-1.47-1.469c-.293-.293-.767-.293-1.06 0l-1.47 1.469s-1.47-1.469-1.47-1.469c-.293-.293-.767-.293-1.06 0l-1.47 1.469s-.97-.969-.97-.969c-.292-.293-.768-.293-1.06 0-.293.292-.293.768 0 1.06z"/></g></svg>