<svg height="512" viewBox="0 0 32 32" width="512" xmlns="http://www.w3.org/2000/svg"><g id="globe_world_geography" data-name="globe, world, geography"><path d="m24.6147 10.9648a11.1756 11.1756 0 0 0 -5.24-6.831 1 1 0 1 0 -1 1.7324 9.2486 9.2486 0 0 1 -9.248 16.02 1 1 0 1 0 -1 1.7325 11.156 11.156 0 0 0 4.8733 1.4613v2.796a1 1 0 1 0 2 0v-2.8316a11.3071 11.3071 0 0 0 1.6621-.3051 11.2415 11.2415 0 0 0 7.9526-13.7745z"/><path d="m14 20.876a7 7 0 1 0 -7-7 7.0081 7.0081 0 0 0 7 7zm0-12a5 5 0 1 1 -5 5 5.0059 5.0059 0 0 1 5-5z"/></g></svg>