<svg height="512" viewBox="0 0 32 32" width="512" xmlns="http://www.w3.org/2000/svg"><g id="hearth_health_healed_heal" data-name="hearth, health, healed, heal"><path d="m25.1235 6.5791a5.4911 5.4911 0 0 0 -6.979-.5942 1 1 0 0 0 1.1133 1.6621 3.4663 3.4663 0 0 1 4.4605.3554c1.788 1.7662 1.7119 5.4756-.2017 9.2554-1.4687 3.1065-5.4048 6.0952-7.5166 7.5381-2.1118-1.4434-6.0493-4.4336-7.5288-7.5625-1.9012-3.7554-1.9775-7.4648-.1895-9.231a3.3182 3.3182 0 0 1 2.4571-.98 4.0442 4.0442 0 0 1 2.87 1.3706 7.19 7.19 0 0 1 1.4683 2.2724 1 1 0 1 0 1.8466-.7675 9.12 9.12 0 0 0 -1.8662-2.8838 6.0774 6.0774 0 0 0 -4.2875-1.9921 5.5076 5.5076 0 0 0 -3.8935 1.558c-2.4465 2.4161-2.521 6.9522-.2017 11.5323 1.76 3.7217 6.2534 7.0625 8.7754 8.7231a1.0005 1.0005 0 0 0 1.1 0c2.522-1.6606 7.0156-5.0014 8.7632-8.6987 2.3311-4.6045 2.2566-9.1406-.1899-11.5576z"/><path d="m16 19a1 1 0 0 0 1-1v-1h1a1 1 0 0 0 0-2h-1v-1a1 1 0 0 0 -2 0v1h-1a1 1 0 0 0 0 2h1v1a1 1 0 0 0 1 1z"/></g></svg>