<svg clip-rule="evenodd" fill-rule="evenodd" height="512" stroke-linejoin="round" stroke-miterlimit="2" viewBox="0 0 24 24" width="512" xmlns="http://www.w3.org/2000/svg"><g id="Icon"><path d="m14.5 18.25c.966 0 1.75-.784 1.75-1.75v-9c0-.966-.784-1.75-1.75-1.75h-5c-.966 0-1.75.784-1.75 1.75v9c0 .966.784 1.75 1.75 1.75zm0-1.5h-5c-.138 0-.25-.112-.25-.25v-9c0-.138.112-.25.25-.25h5c.138 0 .25.112.25.25v9c0 .138-.112.25-.25.25z"/><path d="m16.03 9.03 3.5-3.5c.293-.292.293-.768 0-1.06-.292-.293-.768-.293-1.06 0l-3.5 3.5c-.293.292-.293.768 0 1.06.292.293.768.293 1.06 0z"/><path d="m19.5 7.75c1.795 0 3.25-1.455 3.25-3.25s-1.455-3.25-3.25-3.25-3.25 1.455-3.25 3.25c0 .414.336.75.75.75s.75-.336.75-.75c0-.967.783-1.75 1.75-1.75s1.75.783 1.75 1.75-.783 1.75-1.75 1.75c-.414 0-.75.336-.75.75s.336.75.75.75z"/><path d="m9.03 7.97-3.5-3.5c-.292-.293-.768-.293-1.06 0-.293.292-.293.768 0 1.06l3.5 3.5c.292.293.768.293 1.06 0 .293-.292.293-.768 0-1.06z"/><path d="m7.75 4.5c0-1.795-1.455-3.25-3.25-3.25s-3.25 1.455-3.25 3.25 1.455 3.25 3.25 3.25c.414 0 .75-.336.75-.75s-.336-.75-.75-.75c-.967 0-1.75-.783-1.75-1.75s.783-1.75 1.75-1.75 1.75.783 1.75 1.75c0 .414.336.75.75.75s.75-.336.75-.75z"/><path d="m7.97 14.97-3.5 3.5c-.293.292-.293.768 0 1.06.292.293.768.293 1.06 0l3.5-3.5c.293-.292.293-.768 0-1.06-.292-.293-.768-.293-1.06 0z"/><path d="m4.5 16.25c-1.795 0-3.25 1.455-3.25 3.25s1.455 3.25 3.25 3.25 3.25-1.455 3.25-3.25c0-.414-.336-.75-.75-.75s-.75.336-.75.75c0 .967-.783 1.75-1.75 1.75s-1.75-.783-1.75-1.75.783-1.75 1.75-1.75c.414 0 .75-.336.75-.75s-.336-.75-.75-.75z"/><path d="m14.97 16.03 3.5 3.5c.292.293.768.293 1.06 0 .293-.292.293-.768 0-1.06l-3.5-3.5c-.292-.293-.768-.293-1.06 0-.293.292-.293.768 0 1.06z"/><path d="m16.25 19.5c0 1.795 1.455 3.25 3.25 3.25s3.25-1.455 3.25-3.25-1.455-3.25-3.25-3.25c-.414 0-.75.336-.75.75s.336.75.75.75c.967 0 1.75.783 1.75 1.75s-.783 1.75-1.75 1.75-1.75-.783-1.75-1.75c0-.414-.336-.75-.75-.75s-.75.336-.75.75z"/><path d="m12.75 10c0 .414-.336.75-.75.75s-.75-.336-.75-.75.336-.75.75-.75.75.336.75.75" fill-rule="nonzero"/></g></svg>