<svg clip-rule="evenodd" fill-rule="evenodd" height="512" stroke-linejoin="round" stroke-miterlimit="2" viewBox="0 0 24 24" width="512" xmlns="http://www.w3.org/2000/svg"><g id="Icon"><path d="m20 22.75c1.518 0 2.75-1.232 2.75-2.75v-11.276c0-.643-.226-1.266-.637-1.76l-3.937-4.724c-.522-.627-1.296-.99-2.113-.99h-12.063c-1.518 0-2.75 1.232-2.75 2.75v16c0 1.518 1.232 2.75 2.75 2.75zm0-1.5h-16c-.69 0-1.25-.56-1.25-1.25v-16c0-.69.56-1.25 1.25-1.25h12.063c.371 0 .723.165.961.45l3.937 4.724c.187.225.289.508.289.8v11.276c0 .69-.56 1.25-1.25 1.25z"/><path d="m14 7.75c.966 0 1.75-.784 1.75-1.75v-4c0-.414-.336-.75-.75-.75h-10c-.414 0-.75.336-.75.75v4c0 .966.784 1.75 1.75 1.75zm0-1.5h-8c-.138 0-.25-.112-.25-.25v-3.25h8.5v3.25c0 .138-.112.25-.25.25z"/><path d="m19 22.75c.414 0 .75-.336.75-.75v-6c0-.966-.784-1.75-1.75-1.75h-12c-.966 0-1.75.784-1.75 1.75v6c0 .414.336.75.75.75zm-.75-1.5h-12.5v-5.25c0-.138.112-.25.25-.25h12c.138 0 .25.112.25.25z"/></g></svg>