<svg clip-rule="evenodd" fill-rule="evenodd" height="512" stroke-linejoin="round" stroke-miterlimit="2" viewBox="0 0 24 24" width="512" xmlns="http://www.w3.org/2000/svg"><g id="Icon"><path d="m2.472 4.828c-.634.635-.878 1.602-.749 2.682.165 1.391.947 2.976 2.006 4.036 1.507 1.507 3.954 1.507 5.461 0s1.507-3.954 0-5.461c-1.06-1.059-2.645-1.841-4.036-2.006-1.08-.129-2.047.115-2.682.749zm1.061 1.061c.337-.337.87-.389 1.444-.321 1.088.129 2.323.749 3.152 1.578.922.921.922 2.418 0 3.339-.921.921-2.417.921-3.339 0-.829-.829-1.449-2.064-1.578-3.152-.068-.574-.016-1.107.321-1.444z"/><path d="m17.754 18.892-8.486-8.486c-.292-.292-.768-.292-1.06 0-.293.293-.293.768 0 1.061l8.485 8.485c.293.293.768.293 1.061 0 .292-.292.292-.768 0-1.06z"/><path d="m6.706 20.223 8.485-8.485c.293-.293.293-.768 0-1.061-.293-.292-.768-.292-1.061 0l-8.485 8.486c-.293.292-.293.768 0 1.06.293.293.768.293 1.061 0z"/><path d="m21.031 8.019-2.658 2.658c-.422.422-.994.659-1.591.659s-1.169-.237-1.591-.659-.659-.994-.659-1.591c0-.596.237-1.169.659-1.591l2.658-2.658c.293-.292.293-.768 0-1.06-.293-.293-.768-.293-1.061 0 0 0-1.307 1.307-2.658 2.658-.703.703-1.098 1.657-1.098 2.651 0 .995.395 1.949 1.098 2.652s1.657 1.098 2.652 1.098c.994 0 1.948-.395 2.652-1.098 1.35-1.351 2.658-2.658 2.658-2.658.292-.293.292-.768 0-1.061-.293-.292-.768-.292-1.061 0z"/><path d="m17.624 9.305 2.501-2.501c.293-.293.293-.768 0-1.061-.293-.292-.768-.292-1.061 0l-2.501 2.502c-.293.292-.293.768 0 1.06.293.293.768.293 1.061 0z"/></g></svg>