<svg clip-rule="evenodd" fill-rule="evenodd" stroke-linejoin="round" stroke-miterlimit="2" viewBox="0 0 32 32" xmlns="http://www.w3.org/2000/svg" xmlns:serif="http://www.serif.com/"><path id="zero-battery-phone-power" d="m0 0h32v32h-32z" fill="none"/><path d="m20.034 7.008c1.546.029 2.93 1.365 2.959 2.96.034 5.353.034 10.706 0 16.06-.028 1.54-1.339 2.929-2.959 2.959-2.689.017-5.379.017-8.068 0-1.547-.028-2.93-1.365-2.959-2.959-.034-5.354-.034-10.707 0-16.06.028-1.54 1.339-2.93 2.959-2.96 2.689-.017 5.379-.017 8.068 0zm-8.027 1.998c-.522.003-.993.456-1.002.987-.033 5.34-.1 10.682 0 16.022.016.511.466.965.986.974 2.677.017 5.354.05 8.03 0 .512-.016.965-.469.974-.986.033-5.341.099-10.683 0-16.023-.016-.511-.467-.964-.986-.974-2.668-.017-5.335 0-8.002 0zm5.991-3.997h-3.996c-.881-.017-1.374-1.413-.459-1.886.141-.073.297-.108.459-.112 1.345 0 2.691-.026 4.036.001.977.058 1.436 1.968-.04 1.997z"/></svg>