<svg clip-rule="evenodd" fill-rule="evenodd" height="512" stroke-linejoin="round" stroke-miterlimit="2" viewBox="0 0 24 24" width="512" xmlns="http://www.w3.org/2000/svg"><g id="Icon"><path d="m20.372 15.004c.225.225.225.589 0 .813-.224.225-.588.225-.813 0-.224-.224-.224-.588 0-.813.225-.224.589-.224.813 0z"/><path d="m20.779 8.091c.225.224.225.589 0 .813-.224.225-.589.225-.813 0-.225-.224-.225-.589 0-.813.224-.225.589-.225.813 0z"/><path d="m15.899 3.211c.225.224.225.589 0 .813-.224.225-.589.225-.813 0-.225-.224-.225-.589 0-.813.224-.225.589-.225.813 0z"/><path d="m8.986 3.617c.224.225.224.589 0 .814-.225.224-.589.224-.814 0-.224-.225-.224-.589 0-.814.225-.224.589-.224.814 0z"/><path d="m16.995 18.005c.411-.137.722-.477.822-.899.099-.421-.027-.865-.333-1.171-1.839-1.839-7.59-7.59-9.429-9.429-.306-.306-.75-.432-1.171-.333-.422.1-.762.41-.899.821l-4.714 14.144c-.15.449-.033.945.301 1.279.335.335.83.452 1.28.302zm-14.143 3.133 13.285-4.428-8.857-8.857z"/><path d="m12.026 18.575c-1.608-1.963-1.495-4.868.337-6.701.293-.292.293-.768 0-1.06-.293-.293-.768-.293-1.061 0-2.382 2.382-2.527 6.159-.436 8.712.262.32.735.367 1.055.105s.367-.735.105-1.056z"/><path d="m18.021 13.571c1.111-.91 2.524-1.268 3.874-1.077.409.058.789-.227.848-.637.058-.41-.228-.79-.638-.848-1.753-.249-3.59.219-5.034 1.402-.321.262-.368.735-.105 1.055.262.32.735.367 1.055.105z"/><path d="m11.599 6.939c1.183-1.444 1.651-3.28 1.402-5.034-.058-.41-.438-.696-.848-.637-.41.058-.695.438-.637.848.192 1.349-.167 2.762-1.077 3.873-.262.32-.215.793.105 1.055.32.263.793.216 1.055-.105z"/><path d="m7.92 19.636c-1.806-3.411-1.274-7.739 1.596-10.608.293-.293.293-.768 0-1.061s-.768-.293-1.061 0c-3.346 3.347-3.966 8.393-1.861 12.37.194.366.648.506 1.014.312.366-.193.505-.648.312-1.013z"/><path d="m14.803 10.248.567-.567c.056-.056.127-.094.204-.11l.768-.153c.888-.178 1.527-.958 1.527-1.863v-.405c0-.091.036-.178.101-.242.064-.064.151-.101.242-.101h.002c.555 0 1.081-.248 1.433-.678.352-.429.493-.994.384-1.538l-.143-.714c-.081-.406-.477-.669-.883-.588-.405.081-.669.476-.588.882l.143.714c.021.104-.006.211-.073.293s-.168.129-.273.129h-.002c-.489 0-.958.195-1.303.54-.346.346-.54.814-.54 1.303v.404c0 .191-.135.356-.322.393 0 0-.767.153-.767.153-.368.074-.705.255-.971.52 0 0-.567.567-.567.567-.293.293-.293.768 0 1.061.293.292.768.292 1.061 0z"/></g></svg>