<svg clip-rule="evenodd" fill-rule="evenodd" height="512" stroke-linejoin="round" stroke-miterlimit="2" viewBox="0 0 24 24" width="512" xmlns="http://www.w3.org/2000/svg"><g id="Icon"><path d="m19.029 17.172c.133-.065.243-.169.317-.297 0 0 1.945-3.369 3.054-5.288.298-.517.379-1.131.224-1.708-.154-.576-.531-1.068-1.048-1.366-.283-.164-.583-.337-.866-.5-.517-.298-1.131-.379-1.707-.225-.577.155-1.068.532-1.367 1.049-1.108 1.919-3.053 5.288-3.053 5.288-.074.128-.108.276-.099.423l.232 3.598c.016.251.156.476.374.602.217.125.482.134.707.022zm-.868-1.244-2.02.999s-.145-2.249-.145-2.249 2.939-5.091 2.939-5.091c.1-.173.264-.298.456-.35.192-.051.397-.024.569.075l.866.5c.172.099.298.263.349.455.052.193.025.397-.075.57z"/><path d="m10 6.75h4.5c.414 0 .75-.336.75-.75s-.336-.75-.75-.75h-4.5c-.414 0-.75.336-.75.75s.336.75.75.75z"/><path d="m17 6.75h1c.414 0 .75-.336.75-.75s-.336-.75-.75-.75h-1c-.414 0-.75.336-.75.75s.336.75.75.75z"/><path d="m10 10.75h5c.414 0 .75-.336.75-.75s-.336-.75-.75-.75h-5c-.414 0-.75.336-.75.75s.336.75.75.75z"/><path d="m10 14.75h2.5c.414 0 .75-.336.75-.75s-.336-.75-.75-.75h-2.5c-.414 0-.75.336-.75.75s.336.75.75.75z"/><path d="m10 18.75h3c.414 0 .75-.336.75-.75s-.336-.75-.75-.75h-3c-.414 0-.75.336-.75.75s.336.75.75.75z"/><path d="m4.5 1.25c-1.795 0-3.25 1.455-3.25 3.25v4.5c0 .414.336.75.75.75h5c.414 0 .75-.336.75-.75v-4.5c0-.862-.342-1.689-.952-2.298-.609-.61-1.436-.952-2.298-.952zm0 1.5c-.966 0-1.75.784-1.75 1.75v3.75h3.5v-3.75c0-.464-.184-.909-.513-1.237-.328-.329-.773-.513-1.237-.513z"/><path d="m6.25 7v13c0 1.519 1.231 2.75 2.75 2.75h10c1.519 0 2.75-1.231 2.75-2.75 0-1.392 0-3 0-3 0-.414-.336-.75-.75-.75s-.75.336-.75.75v3c0 .69-.56 1.25-1.25 1.25h-10c-.69 0-1.25-.56-1.25-1.25v-13c0-.414-.336-.75-.75-.75s-.75.336-.75.75z"/><path d="m21.75 6.5v-1.5c0-.995-.395-1.948-1.098-2.652-.704-.703-1.657-1.098-2.652-1.098-4.758 0-13.5 0-13.5 0-.414 0-.75.336-.75.75s.336.75.75.75h13.5c.597 0 1.169.237 1.591.659s.659.994.659 1.591v1.5c0 .414.336.75.75.75s.75-.336.75-.75z"/></g></svg>