<svg clip-rule="evenodd" fill-rule="evenodd" height="512" stroke-linejoin="round" stroke-miterlimit="2" viewBox="0 0 24 24" width="512" xmlns="http://www.w3.org/2000/svg"><g id="Icon"><path d="m18 18.75c1.518 0 2.75-1.232 2.75-2.75v-6c0-.966-.784-1.75-1.75-1.75h-14c-.966 0-1.75.784-1.75 1.75v6c0 1.518 1.232 2.75 2.75 2.75zm0-1.5h-12c-.69 0-1.25-.56-1.25-1.25v-6c0-.138.112-.25.25-.25h14c.138 0 .25.112.25.25v6c0 .69-.56 1.25-1.25 1.25z"/><path d="m21 16.75c.966 0 1.75-.784 1.75-1.75v-3c0-.966-.784-1.75-1.75-1.75h-1c-.414 0-.75.336-.75.75v5c0 .415.336.75.75.75zm0-1.5h-.25v-3.5h.25c.138 0 .25.112.25.25v3c0 .138-.112.25-.25.25z"/><path d="m4 16.75c.414 0 .75-.335.75-.75v-5c0-.414-.336-.75-.75-.75h-1c-.966 0-1.75.784-1.75 1.75v3c0 .966.784 1.75 1.75 1.75zm-.75-1.5h-.25c-.138 0-.25-.112-.25-.25v-3c0-.138.112-.25.25-.25h.25z"/><path d="m19 8.25h-13.205c.37-3.098 3.007-5.5 6.205-5.5 2.416 0 4.512 1.371 5.552 3.378.191.367.644.511 1.011.32.368-.19.511-.643.321-1.011-1.29-2.487-3.888-4.187-6.884-4.187-4.28 0-7.75 3.47-7.75 7.75 0 .415.336.75.75.75h14c.414 0 .75-.336.75-.75s-.336-.75-.75-.75z"/><path d="m12 22.75c2.122 0 4.064-1.199 5.013-3.097l.658-1.317c.116-.233.104-.509-.033-.73s-.378-.356-.638-.356h-10c-.26 0-.501.135-.638.356s-.149.497-.033.73l.658 1.317c.949 1.898 2.891 3.097 5.013 3.097zm0-1.5c-1.554 0-2.976-.878-3.671-2.268 0 0-.116-.232-.116-.232h7.574s-.116.232-.116.232c-.695 1.39-2.117 2.268-3.671 2.268z"/><path d="m7 11.25c-.414 0-.75.336-.75.75v3c0 .415.336.75.75.75h10c.414 0 .75-.335.75-.75v-3c0-.414-.336-.75-.75-.75zm.75 1.5h8.5v1.5h-8.5z"/></g></svg>