<svg clip-rule="evenodd" fill-rule="evenodd" stroke-linejoin="round" stroke-miterlimit="1.414" viewBox="0 0 32 32" xmlns="http://www.w3.org/2000/svg" xmlns:serif="http://www.serif.com/"><path id="filter-funnel-sort" d="m0 0h32v32h-32z" fill="none"/><path d="m20.254 19.037c.435.127.743.513.765.972v6.007c-.021.45-.32.839-.758.971l-8.009 2.002c-.607.121-1.213-.334-1.244-.971v-11.71l-7.84-11.76s-.162-.282-.168-.531c-.013-.531.452-1 1.001-1.026h24.025c.746.035 1.227.902.833 1.557l-8.008 12.012c-.05.068-.061.088-.12.148-.561.569-1.812.114-1.708-.815.018-.157.079-.305.162-.443l6.971-10.457h-20.284l6.97 10.457c.197.323.159.319.169.555v10.731l6.006-1.502v-5.225c.029-.616.601-1.095 1.237-.972z" fill-rule="nonzero"/></svg>