<svg clip-rule="evenodd" fill-rule="evenodd" stroke-linejoin="round" stroke-miterlimit="1.414" viewBox="0 0 32 32" xmlns="http://www.w3.org/2000/svg" xmlns:serif="http://www.serif.com/"><path id="share-sharing-network-social" d="m0 0h32v32h-32z" fill="none"/><path d="m16.912 11.568c-.245-.906-.174-1.904.225-2.759.628-1.344 2.038-2.275 3.549-2.308.034-.001.068-.001.102-.001 1.583.015 3.099 1.046 3.688 2.511.645 1.607.096 3.608-1.282 4.664-.684.525-1.537.817-2.406.825 0 0-.645-.06-.898-.511-.325-.58.09-1.45.821-1.488 1.036-.053 1.933-.797 2.04-1.783.11-1.016-.683-2.055-1.708-2.199-1.419-.198-2.841 1.478-2.028 2.953 0 0 .02.056.04.147.124.272.137.592-.018.869-.054.098-.126.186-.209.261-.032.029-.066.056-.104.082-.032.021-.064.04-.097.057l-3.538 2.042c.185.692.169 1.434-.022 2.127l2.85 1.645c.723-.723 1.722-1.178 2.769-1.201.034-.001.068-.001.102-.001 1.705.016 3.335 1.229 3.816 2.882.387 1.33.02 2.852-.93 3.86-.739.784-1.797 1.248-2.886 1.258 0 0-.288-.009-.487-.113-.612-.319-.708-1.356-.048-1.747.097-.058.204-.099.314-.121.199-.039.408-.019.611-.062 1.037-.219 1.786-1.375 1.528-2.433-.286-1.172-1.788-1.894-2.906-1.277-.914.504-1.313 1.767-.785 2.725 0 0 .3.706-.077 1.165-.423.513-1.325.442-1.687-.221-.489-.898-.609-1.994-.341-2.985l-2.822-1.63c-.108.112-.223.217-.344.315-.697.561-1.583.875-2.482.884 0 0-.439-.007-.722-.282-.551-.535-.203-1.706.722-1.718.018 0 .035-.001.052-.001 1.182-.049 2.153-1.296 1.865-2.475-.286-1.172-1.787-1.894-2.905-1.277-.915.504-1.314 1.767-.785 2.725 0 0 .297.709-.078 1.165-.422.513-1.324.442-1.686-.221-.595-1.09-.644-2.474-.114-3.606.628-1.345 2.038-2.276 3.548-2.309.034-.001.069-.001.103-.001 1.052.01 2.074.469 2.815 1.205z" fill-rule="nonzero"/></svg>