<svg clip-rule="evenodd" fill-rule="evenodd" height="512" stroke-linejoin="round" stroke-miterlimit="2" viewBox="0 0 24 24" width="512" xmlns="http://www.w3.org/2000/svg"><g id="Icon"><path d="m21.75 7v2c0 .332-.132.649-.366.884-.235.234-.552.366-.884.366h-17c-.332 0-.649-.132-.884-.366-.234-.235-.366-.552-.366-.884v-2c0-.332.132-.649.366-.884.235-.234.552-.366.884-.366h17c.332 0 .649.132.884.366.234.235.366.552.366.884zm-18 1.75h16.5v-1.5h-16.5z"/><path d="m14.75 2.5v4c0 .414-.336.75-.75.75h-4c-.414 0-.75-.336-.75-.75v-4c0-.332.132-.649.366-.884.235-.234.553-.366.884-.366h3c.331 0 .649.132.884.366.234.235.366.552.366.884zm-4 .25v3h2.5v-3z"/><path d="m21.75 5.498v1.002c0 .414-.336.75-.75.75h-3c-.414 0-.75-.336-.75-.75v-1.002c0-.596.237-1.168.658-1.59.422-.421.994-.658 1.59-.658h.004c.596 0 1.168.237 1.59.658.421.422.658.994.658 1.59zm-1.5 0c0-.198-.079-.389-.219-.529s-.331-.219-.529-.219h-.004c-.198 0-.389.079-.529.219s-.219.331-.219.529v.252h1.5z"/><path d="m6 7.25h-3c-.414 0-.75-.336-.75-.75v-1.002c0-.596.237-1.168.658-1.59.422-.421.994-.658 1.59-.658h.004c.596 0 1.168.237 1.59.658.421.422.658.994.658 1.59v.988c0 .703-.75.764-.75.764zm-.75-1.5v-.252c0-.198-.079-.389-.219-.529s-.331-.219-.529-.219h-.004c-.198 0-.389.079-.529.219s-.219.331-.219.529v.252z"/><path d="m14.75 9.5v12c0 .332-.132.649-.366.884-.235.234-.552.366-.884.366h-3c-.332 0-.649-.132-.884-.366-.234-.235-.366-.552-.366-.884v-12c0-.414.336-.75.75-.75h4c.414 0 .75.336.75.75zm-4 11.75h2.5v-11h-2.5z"/><path d="m19.449 8.991c.281-.304.756-.323 1.06-.042s.323.756.042 1.06l-6 6.5c-.281.304-.756.323-1.06.042s-.323-.756-.042-1.06z"/><path d="m3.449 10.009c-.281-.304-.262-.779.042-1.06s.779-.262 1.06.042l6 6.5c.281.304.262.779-.042 1.06s-.779.262-1.06-.042z"/></g></svg>