<?xml version="1.0"?>
<svg xmlns="http://www.w3.org/2000/svg" viewBox="0 0 32 32" width="512" height="512"><g id="Layer_27" data-name="Layer 27"><path d="M28,27H27V10a1,1,0,0,0-.4854-.8574l-10-6a.9982.9982,0,0,0-1.0292,0l-6,3.6A1,1,0,0,0,9,7.6v3.7817L5.5527,13.1055A1,1,0,0,0,5,14V27H4a1,1,0,0,0,0,2H28a1,1,0,0,0,0-2ZM17,27H15V23h2Zm8,0H23V16a1,1,0,0,0-1-1H10a1,1,0,0,0-1,1v8a1,1,0,0,0,2,0V17H21V27H19V22a1,1,0,0,0-1-1H14a1,1,0,0,0-1,1v5H7V14.6182l3.4277-1.7139c.0127-.0064.0249-.0122.0371-.019L15,10.6182V12a1,1,0,0,0,2,0V9a1,1,0,0,0-1.4473-.8945L11,10.3818V8.1665l5-3,9,5.4Z"/></g></svg>
