<svg clip-rule="evenodd" fill-rule="evenodd" height="512" stroke-linejoin="round" stroke-miterlimit="2" viewBox="0 0 24 24" width="512" xmlns="http://www.w3.org/2000/svg"><g id="Icon"><path d="m12 10.53c3.037 0 5.502 2.466 5.502 5.503 0 .779-.49 1.458-1.393 1.925-.997.516-2.551.792-4.109.792s-3.112-.276-4.109-.792c-.903-.467-1.393-1.146-1.393-1.925 0-3.037 2.465-5.503 5.502-5.503zm0 1.5c-2.209 0-4.002 1.794-4.002 4.003 0 .272.267.429.583.593.828.428 2.125.624 3.419.624s2.591-.196 3.419-.624c.316-.164.583-.321.583-.593 0-2.209-1.793-4.003-4.002-4.003z"/><path d="m16.253 13.249c-.262.321-.734.369-1.055.108-.321-.262-.369-.734-.108-1.055.791-.971 1.997-1.592 3.346-1.592 2.381 0 4.314 1.933 4.314 4.315 0 .627-.368 1.182-1.071 1.57-1.096.603-3.164.802-4.801.533-.408-.067-.685-.453-.618-.862.067-.408.453-.685.862-.618 1.138.187 2.536.124 3.472-.209.199-.071.374-.152.511-.253.069-.051.145-.088.145-.161 0-1.554-1.261-2.815-2.814-2.815-.881 0-1.667.406-2.183 1.039z"/><path d="m8.864 12.246c.267.317.226.79-.09 1.057-.317.267-.79.226-1.057-.09-.516-.613-1.289-1.003-2.153-1.003-1.553 0-2.814 1.261-2.814 2.815 0 .073.076.11.145.161.137.101.312.182.511.253.936.333 2.334.396 3.472.209.409-.067.795.21.862.618.067.409-.21.795-.618.862-1.637.269-3.705.07-4.801-.533-.703-.388-1.071-.943-1.071-1.57 0-2.382 1.933-4.315 4.314-4.315 1.323 0 2.508.597 3.3 1.536z"/><path d="m12 5.25c1.871 0 3.39 1.519 3.39 3.39s-1.519 3.39-3.39 3.39-3.39-1.519-3.39-3.39 1.519-3.39 3.39-3.39zm0 1.5c-1.043 0-1.89.847-1.89 1.89s.847 1.89 1.89 1.89 1.89-.847 1.89-1.89-.847-1.89-1.89-1.89z"/><path d="m18.436 6.75c1.507 0 2.73 1.223 2.73 2.73s-1.223 2.73-2.73 2.73-2.73-1.223-2.73-2.73 1.223-2.73 2.73-2.73zm0 1.5c-.679 0-1.23.551-1.23 1.23s.551 1.23 1.23 1.23 1.23-.551 1.23-1.23-.551-1.23-1.23-1.23z"/><path d="m5.564 6.75c1.507 0 2.73 1.223 2.73 2.73s-1.223 2.73-2.73 2.73-2.73-1.223-2.73-2.73 1.223-2.73 2.73-2.73zm0 1.5c-.679 0-1.23.551-1.23 1.23s.551 1.23 1.23 1.23 1.23-.551 1.23-1.23-.551-1.23-1.23-1.23z"/></g></svg>