<svg clip-rule="evenodd" fill-rule="evenodd" height="512" stroke-linejoin="round" stroke-miterlimit="2" viewBox="0 0 24 24" width="512" xmlns="http://www.w3.org/2000/svg"><g id="Icon"><path d="m19 8.5v-4.5c0-.729-.29-1.429-.805-1.945-.516-.515-1.216-.805-1.945-.805-2.871 0-8.129 0-11 0-.729 0-1.429.29-1.945.805-.515.516-.805 1.216-.805 1.945v16c0 .729.29 1.429.805 1.945.516.515 1.216.805 1.945.805h4.5c.414 0 .75-.336.75-.75s-.336-.75-.75-.75c0 0-2.59 0-4.5 0-.332 0-.649-.132-.884-.366-.234-.235-.366-.552-.366-.884v-16c0-.332.132-.649.366-.884.235-.234.552-.366.884-.366h11c.332 0 .649.132.884.366.234.235.366.552.366.884v4.5c0 .414.336.75.75.75s.75-.336.75-.75z"/><path d="m21.183 14.163c.555-.791.362-1.883-.429-2.437l-1.639-1.147c-.791-.554-1.883-.362-2.437.43-1.345 1.92-4.589 6.553-4.589 6.553-.066.095-.11.205-.127.32l-.509 3.435c-.07.468.131.935.519 1.207s.896.301 1.312.075l3.054-1.653c.102-.056.19-.134.257-.229zm-8.173 6.879.41-2.765s4.487-6.408 4.487-6.408c.079-.113.235-.141.348-.061 0 0 1.638 1.147 1.638 1.147.113.079.141.235.062.348l-4.487 6.408z"/><path d="m19.852 14.757-3.277-2.294c-.339-.238-.807-.155-1.044.184s-.155.807.184 1.045l3.277 2.294c.339.237.807.155 1.044-.184.238-.339.155-.807-.184-1.045z"/><path d="m6.25 6.75h9c.414 0 .75-.336.75-.75s-.336-.75-.75-.75h-9c-.414 0-.75.336-.75.75s.336.75.75.75z"/><path d="m6.25 10.25h3c.414 0 .75-.336.75-.75s-.336-.75-.75-.75h-3c-.414 0-.75.336-.75.75s.336.75.75.75z"/><path d="m11.75 10.25h2.5c.414 0 .75-.336.75-.75s-.336-.75-.75-.75h-2.5c-.414 0-.75.336-.75.75s.336.75.75.75z"/><path d="m6.25 13.75h5c.414 0 .75-.336.75-.75s-.336-.75-.75-.75h-5c-.414 0-.75.336-.75.75s.336.75.75.75z"/></g></svg>