<svg clip-rule="evenodd" fill-rule="evenodd" height="512" stroke-linejoin="round" stroke-miterlimit="2" viewBox="0 0 24 24" width="512" xmlns="http://www.w3.org/2000/svg"><g id="Icon"><path d="m3.315 18.427-1.272.979c-.255.195-.356.531-.253.836.103.304.389.508.71.508h6.5c4.292 0 7.75-3.264 7.75-7.25s-3.458-7.25-7.75-7.25-7.75 3.264-7.75 7.25c0 1.899.781 3.631 2.065 4.927zm1.632.637c.184-.141.292-.36.293-.591.001-.232-.105-.451-.288-.594-1.342-1.052-2.202-2.622-2.202-4.379 0-3.189 2.815-5.75 6.25-5.75s6.25 2.561 6.25 5.75-2.815 5.75-6.25 5.75h-4.295s.242-.186.242-.186z"/><path d="m18 17.75h3.5c.321 0 .607-.204.71-.508.103-.305.002-.641-.253-.836l-1.272-.979c1.284-1.296 2.065-3.028 2.065-4.927 0-3.986-3.458-7.25-7.75-7.25-1.404 0-2.721.35-3.855.96-.365.196-.502.651-.306 1.016.196.364.652.501 1.016.305.925-.497 2-.781 3.145-.781 3.435 0 6.25 2.561 6.25 5.75 0 1.757-.86 3.327-2.202 4.379-.183.143-.289.362-.288.594.001.231.109.45.293.591l.242.186h-1.295c-.414 0-.75.336-.75.75s.336.75.75.75z"/><circle cx="6" cy="13.5" r=".75"/><circle cx="9" cy="13.5" r=".75"/><circle cx="12" cy="13.5" r=".75"/></g></svg>