<svg clip-rule="evenodd" fill-rule="evenodd" height="512" stroke-linejoin="round" stroke-miterlimit="2" viewBox="0 0 24 24" width="512" xmlns="http://www.w3.org/2000/svg"><g id="Icon"><path d="m12 1.25c-1.992 0-3.802 1.045-5.236 2.783-2.016 2.441-3.292 6.27-3.292 10.189 0 4.707 3.821 8.528 8.528 8.528s8.528-3.821 8.528-8.528c0-3.919-1.276-7.748-3.292-10.189-1.434-1.738-3.244-2.783-5.236-2.783zm0 1.5c1.563 0 2.954.875 4.079 2.238 1.825 2.209 2.949 5.686 2.949 9.234 0 3.879-3.149 7.028-7.028 7.028s-7.028-3.149-7.028-7.028c0-3.548 1.124-7.025 2.949-9.234 1.125-1.363 2.516-2.238 4.079-2.238z"/><path d="m7.78 12.094c.3-2.38 1.349-4.548 2.861-5.45.356-.212.472-.673.26-1.028-.212-.356-.673-.472-1.028-.26-1.834 1.093-3.217 3.664-3.581 6.55-.052.411.239.786.65.838.41.052.786-.239.838-.65z"/></g></svg>