<svg clip-rule="evenodd" fill-rule="evenodd" height="512" stroke-linejoin="round" stroke-miterlimit="2" viewBox="0 0 24 24" width="512" xmlns="http://www.w3.org/2000/svg"><g id="Icon"><path d="m9.479 13.688.61-.915c.047-.069.125-.111.208-.111.084 0 .162.042.208.111l.61.915c.51.766 1.369 1.225 2.288 1.225h2.195c1.066 0 2.083-.454 2.794-1.249s1.05-1.855.933-2.915l-.352-3.161c-.211-1.899-1.816-3.336-3.727-3.336-2.784 0-7.113 0-9.898 0-1.911 0-3.516 1.437-3.727 3.336-.11.988-.236 2.121-.351 3.161-.118 1.06.221 2.12.933 2.915.711.795 1.727 1.249 2.794 1.249h2.194c.92 0 1.778-.459 2.288-1.225zm-.638-1.747-.61.915c-.232.348-.622.557-1.04.557h-2.194c-.64 0-1.25-.273-1.677-.749-.427-.477-.63-1.113-.559-1.749 0 0 .351-3.162.351-3.162.127-1.139 1.09-2.001 2.236-2.001h9.898c1.147 0 2.11.862 2.237 2.001 0 0 .351 3.162.351 3.162.071.636-.133 1.272-.56 1.749-.427.476-1.036.749-1.676.749h-2.195c-.418 0-.808-.209-1.04-.557 0 0-.61-.915-.61-.915-.324-.486-.871-.779-1.456-.779s-1.131.293-1.456.779z"/><path d="m21.253 3.475v11.269c0 1.795-1.455 3.25-3.25 3.25h-4.143c-.414 0-.75.336-.75.75s.336.75.75.75h4.143c2.624 0 4.75-2.127 4.75-4.75 0-4.524 0-11.269 0-11.269 0-.414-.336-.75-.75-.75s-.75.336-.75.75z"/><path d="m14.61 17.962c0-.464-.184-.909-.513-1.237-.328-.328-.773-.513-1.237-.513-1.248 0-3.369 0-4.616 0-.465 0-.91.185-1.238.513s-.512.773-.512 1.237v1.563c0 .464.184.909.512 1.237.328.329.773.513 1.238.513h4.616c.464 0 .909-.184 1.237-.513.329-.328.513-.773.513-1.237zm-1.5 0v1.563c0 .066-.026.13-.073.177s-.111.073-.177.073h-4.616c-.067 0-.13-.026-.177-.073s-.073-.111-.073-.177v-1.563c0-.066.026-.13.073-.176.047-.047.11-.074.177-.074h4.616c.066 0 .13.027.177.074.047.046.073.11.073.176z"/></g></svg>