<svg clip-rule="evenodd" fill-rule="evenodd" height="512" stroke-linejoin="round" stroke-miterlimit="2" viewBox="0 0 24 24" width="512" xmlns="http://www.w3.org/2000/svg"><g id="Icon"><path d="m1.25 2v20c0 .414.336.75.75.75h20c.414 0 .75-.336.75-.75s-.336-.75-.75-.75h-19.25v-19.25c0-.414-.336-.75-.75-.75s-.75.336-.75.75z"/><path d="m13 22.75h8c.225 0 .438-.101.58-.275.142-.173.2-.402.155-.622l-4-20c-.07-.351-.377-.603-.735-.603s-.665.252-.735.603l-2.6 13c-.082.406.182.801.588.882.406.082.801-.182.882-.588l1.865-9.323s3.085 15.426 3.085 15.426h-7.085c-.414 0-.75.336-.75.75s.336.75.75.75z"/><path d="m8 22.75h8c.231 0 .449-.106.591-.288s.193-.42.137-.644l-4-16c-.084-.334-.384-.568-.728-.568s-.644.234-.728.568l-2.625 10.5c-.1.402.145.809.546.91.402.1.809-.145.91-.546l1.897-7.59s3.039 12.158 3.039 12.158h-7.039c-.414 0-.75.336-.75.75s.336.75.75.75z"/><path d="m11 22.75c.241 0 .467-.116.608-.311.141-.196.18-.447.104-.676l-4-12c-.103-.306-.389-.513-.712-.513s-.609.207-.712.513l-4 12c-.076.229-.037.48.104.676.141.195.367.311.608.311zm-1.041-1.5h-5.918s2.959-8.878 2.959-8.878z"/><path d="m14.5 1.25h-1c-.414 0-.75.336-.75.75s.336.75.75.75h1c.414 0 .75-.336.75-.75s-.336-.75-.75-.75z"/><path d="m11.5 1.25h-1c-.414 0-.75.336-.75.75s.336.75.75.75h1c.414 0 .75-.336.75-.75s-.336-.75-.75-.75z"/><path d="m11.5 5.25h-1c-.414 0-.75.336-.75.75s.336.75.75.75h1c.414 0 .75-.336.75-.75s-.336-.75-.75-.75z"/><path d="m8.5 1.25h-1c-.414 0-.75.336-.75.75s.336.75.75.75h1c.414 0 .75-.336.75-.75s-.336-.75-.75-.75z"/><path d="m8.5 5.25h-1c-.414 0-.75.336-.75.75s.336.75.75.75h1c.414 0 .75-.336.75-.75s-.336-.75-.75-.75z"/><path d="m5.5 1.25h-1c-.414 0-.75.336-.75.75s.336.75.75.75h1c.414 0 .75-.336.75-.75s-.336-.75-.75-.75z"/><path d="m5.5 5.25h-1c-.414 0-.75.336-.75.75s.336.75.75.75h1c.414 0 .75-.336.75-.75s-.336-.75-.75-.75z"/><path d="m5.5 9.25h-1c-.414 0-.75.336-.75.75s.336.75.75.75h1c.414 0 .75-.336.75-.75s-.336-.75-.75-.75z"/></g></svg>