<svg clip-rule="evenodd" fill-rule="evenodd" height="512" stroke-linejoin="round" stroke-miterlimit="2" viewBox="0 0 24 24" width="512" xmlns="http://www.w3.org/2000/svg"><g id="Icon"><path d="m12 2.25c-3.474 0-6.552.782-8.462 1.954-1.482.91-2.288 2.082-2.288 3.296s.806 2.386 2.288 3.296c1.91 1.172 4.988 1.954 8.462 1.954s6.552-.782 8.462-1.954c1.482-.91 2.288-2.082 2.288-3.296s-.806-2.386-2.288-3.296c-1.91-1.172-4.988-1.954-8.462-1.954zm0 1.5c3.149 0 5.946.67 7.677 1.732.946.58 1.573 1.244 1.573 2.018s-.627 1.438-1.573 2.018c-1.731 1.062-4.528 1.732-7.677 1.732s-5.946-.67-7.677-1.732c-.946-.58-1.573-1.244-1.573-2.018s.627-1.438 1.573-2.018c1.731-1.062 4.528-1.732 7.677-1.732z"/><path d="m12 4.75c-2.68 0-5.002.501-6.157 1.186-.756.449-1.093 1.024-1.093 1.564s.337 1.115 1.093 1.564c1.155.685 3.477 1.186 6.157 1.186s5.002-.501 6.157-1.186c.756-.449 1.093-1.024 1.093-1.564s-.337-1.115-1.093-1.564c-1.155-.685-3.477-1.186-6.157-1.186zm5.727 2.75c-.035.041-.098.11-.153.152-.16.122-.37.233-.619.337-1.117.469-2.922.761-4.955.761s-3.838-.292-4.955-.761c-.249-.104-.459-.215-.619-.337-.055-.042-.118-.111-.153-.152.035-.041.098-.11.153-.152.16-.122.37-.233.619-.337 1.117-.469 2.922-.761 4.955-.761s3.838.292 4.955.761c.249.104.459.215.619.337.055.042.118.111.153.152z"/><path d="m21.25 7.5v9c0 .774-.627 1.438-1.573 2.018-1.731 1.062-4.528 1.732-7.677 1.732s-5.946-.67-7.677-1.732c-.946-.58-1.573-1.244-1.573-2.018v-9c0-.414-.336-.75-.75-.75s-.75.336-.75.75v9c0 1.214.806 2.386 2.288 3.296 1.91 1.172 4.988 1.954 8.462 1.954s6.552-.782 8.462-1.954c1.482-.91 2.288-2.082 2.288-3.296v-9c0-.414-.336-.75-.75-.75s-.75.336-.75.75z"/><path d="m11.5 14c-1.043 0-1.962.377-2.535.924-.461.44-.715.99-.715 1.576s.254 1.136.715 1.576c.573.547 1.492.924 2.535.924s1.962-.377 2.535-.924c.461-.44.715-.99.715-1.576s-.254-1.136-.715-1.576c-.573-.547-1.492-.924-2.535-.924zm0 1.5c.521 0 .996.138 1.337.377.235.165.413.372.413.623s-.178.458-.413.623c-.341.239-.816.377-1.337.377s-.996-.138-1.337-.377c-.235-.165-.413-.372-.413-.623s.178-.458.413-.623c.341-.239.816-.377 1.337-.377z"/><path d="m15.347 17.139c-.326-.17-.597-.363-.597-.639s.271-.469.597-.639c.367-.192.509-.645.318-1.012-.192-.367-.645-.509-1.012-.318-.903.472-1.403 1.207-1.403 1.969s.5 1.497 1.403 1.969c.367.191.82.049 1.012-.318.191-.367.049-.82-.318-1.012z"/></g></svg>