<svg clip-rule="evenodd" fill-rule="evenodd" stroke-linejoin="round" stroke-miterlimit="1.414" viewBox="0 0 32 32" xmlns="http://www.w3.org/2000/svg" xmlns:serif="http://www.serif.com/"><path id="test-tube-glass-pharmacy" d="m0 0h32v32h-32z" fill="none"/><path d="m18.225 7.031c.434.128.742.513.764.972v18.001c-.01 1.616-1.497 3.075-3.148 2.993-1.506-.075-2.841-1.405-2.851-2.993v-17.172c-.072-.026-.1-.038-.1-.038-1.498-.601-2.319-2.511-1.635-4.026.467-1.031 1.534-1.742 2.696-1.764 1.347-.009 2.694 0 4.041 0 1.568.01 2.986 1.366 2.997 2.996 0 0-.329 1.195-1.236.975-.431-.105-.742-.519-.764-.972-.003-.054-.001-.054-.003-.078-.04-.491-.469-.912-.984-.922-1.342-.008-2.684-.008-4.026 0-.758.015-1.296 1.076-.71 1.69.186.196.451.308.727.31 0 0 .18.017.18.017.46.108.795.51.817.983 0 6.003-.038 12.007 0 18.01.014.756 1.064 1.292 1.68.721.201-.187.318-.458.319-.736v-17.995c.029-.612.6-1.094 1.236-.972z" fill-rule="nonzero"/></svg>