<svg clip-rule="evenodd" fill-rule="evenodd" height="512" stroke-linejoin="round" stroke-miterlimit="2" viewBox="0 0 24 24" width="512" xmlns="http://www.w3.org/2000/svg"><g id="Icon"><path d="m11.362 6.835c.339.238.807.156 1.044-.184.281-.401.71-.674 1.192-.759s.978.025 1.378.306l1.701 1.191c.627.439 1.053 1.108 1.186 1.861s-.039 1.528-.478 2.155c0 0-.639.913-.639.913-.589.842-1.334 1.563-2.193 2.125l-5.331 3.488c-.617.404-1.54.402-2.021.004-.687-.567-1.06-1.054-1.144-1.542-.074-.432.109-.83.395-1.238.238-.339.155-.807-.184-1.044l-2.551-1.787c-.34-.237-.807-.155-1.045.184-2.043 2.918-1.509 6.942 1.849 9.18 1.802 1.202 5.022 1.548 7.228.105 1.66-1.087 3.846-2.517 5.33-3.488 1.351-.884 2.521-2.018 3.447-3.34.2-.286.416-.594.639-.913 1.141-1.629 1.588-3.645 1.242-5.603-.345-1.958-1.454-3.699-3.083-4.84-.57-.399-1.148-.804-1.701-1.191-1.403-.982-3.139-1.367-4.827-1.07-1.687.298-3.187 1.253-4.169 2.657-.238.339-.156.807.184 1.044zm.316-1.61-1.346-.942c.725-.759 1.678-1.273 2.725-1.458 1.295-.228 2.628.068 3.706.822.552.387 1.131.792 1.701 1.191 1.303.912 2.19 2.305 2.466 3.871.276 1.567-.081 3.179-.994 4.482-.223.319-.439.628-.639.914-.817 1.166-1.848 2.165-3.039 2.944-1.485.972-3.67 2.402-5.331 3.488-1.701 1.114-4.184.83-5.574-.097-2.349-1.565-2.927-4.26-1.838-6.426 0 0 1.327.929 1.327.929-.263.556-.363 1.121-.263 1.703.128.752.608 1.572 1.667 2.446.905.747 2.638.853 3.798.095 0 0 5.33-3.488 5.33-3.488 1.019-.667 1.902-1.523 2.6-2.52l.64-.914c.667-.952.928-2.13.726-3.275s-.85-2.163-1.802-2.83c0 0-1.701-1.191-1.701-1.191-.727-.509-1.626-.708-2.5-.554-.623.11-1.197.393-1.659.81z"/><path d="m12.545 7.359c.19-.272.265-.608.207-.934-.058-.327-.243-.617-.514-.807l-2.582-1.809c-.272-.19-.608-.264-.935-.207-.326.058-.616.243-.806.514-1.007 1.438-4.374 6.247-5.381 7.685-.19.272-.265.608-.207.934.057.327.242.617.514.807l2.582 1.808c.272.19.608.265.934.207.327-.057.617-.242.807-.514zm-8.639 5.098 2.173 1.521 5.094-7.275-2.173-1.521z"/></g></svg>