<svg clip-rule="evenodd" fill-rule="evenodd" height="512" stroke-linejoin="round" stroke-miterlimit="2" viewBox="0 0 24 24" width="512" xmlns="http://www.w3.org/2000/svg"><g id="Icon"><path d="m5.985 21.74s3.112.519 4.854.809c.867.144 1.755.088 2.597-.164 1.729-.519 5.074-1.523 7.131-2.14 1.367-.41 2.15-1.842 1.758-3.214v-.001c-.388-1.357-1.785-2.159-3.152-1.809l-4.11 1.052c-.401.103-.643.512-.541.913.103.401.512.643.913.541l4.11-1.053c.58-.148 1.173.192 1.338.768v.001c.167.583-.166 1.191-.747 1.366 0 0-7.131 2.139-7.131 2.139-.622.186-1.279.228-1.92.121-1.741-.29-4.854-.809-4.854-.809-.408-.068-.795.208-.863.617-.068.408.208.795.617.863z"/><path d="m6.285 14.701s1.427-.347 2.577-.626c.746-.182 1.533-.093 2.221.251 0 0 2.853 1.427 2.853 1.427.273.136.474.383.552.677.078.295.026.608-.143.862 0 0-.001.002-.001.002-.282.422-.834.569-1.287.342l-2.614-1.307c-.37-.185-.821-.035-1.006.336-.185.37-.035.821.336 1.006 0 0 1.457.729 2.613 1.306 1.13.566 2.505.201 3.206-.851l.001-.002c.408-.612.533-1.369.344-2.079-.188-.71-.673-1.305-1.33-1.634l-2.854-1.427c-1.004-.502-2.154-.632-3.245-.367-1.15.279-2.577.626-2.577.626-.402.098-.65.504-.552.906s.504.649.906.552z"/><path d="m6.858 14c0-.966-.784-1.75-1.75-1.75h-2c-.967 0-1.75.784-1.75 1.75v7c0 .966.783 1.75 1.75 1.75h2c.966 0 1.75-.784 1.75-1.75zm-1.5 0v7c0 .138-.112.25-.25.25h-2c-.138 0-.25-.112-.25-.25v-7c0-.138.112-.25.25-.25h2c.138 0 .25.112.25.25z"/><path d="m16.892 1.25c-3.173 0-5.75 2.576-5.75 5.75s2.577 5.75 5.75 5.75c3.174 0 5.75-2.576 5.75-5.75s-2.576-5.75-5.75-5.75zm0 1.5c2.346 0 4.25 1.904 4.25 4.25s-1.904 4.25-4.25 4.25-4.25-1.904-4.25-4.25 1.904-4.25 4.25-4.25z"/><path d="m17.142 7.833c0 .022-.009.044-.024.059-.016.016-.037.025-.059.025h-1.167c-.414 0-.75.336-.75.75s.336.75.75.75h1.167c.42 0 .822-.167 1.119-.464s.464-.7.464-1.12-.167-.822-.464-1.119-.699-.464-1.119-.464h-.334c-.022 0-.043-.009-.059-.024-.015-.016-.024-.037-.024-.059v-.002c0-.045.037-.082.082-.082h1.168c.414 0 .75-.336.75-.75s-.336-.75-.75-.75h-1.168c-.874 0-1.582.709-1.582 1.582v.002c0 .42.167.822.464 1.119s.699.464 1.119.464h.334c.022 0 .043.009.059.024.015.016.024.037.024.059z"/><path d="m17.642 5.333v-1c0-.414-.336-.75-.75-.75s-.75.336-.75.75v1c0 .414.336.75.75.75s.75-.336.75-.75z"/><path d="m17.642 9.667v-1c0-.414-.336-.75-.75-.75s-.75.336-.75.75v1c0 .414.336.75.75.75s.75-.336.75-.75z"/></g></svg>