<svg clip-rule="evenodd" fill-rule="evenodd" height="512" stroke-linejoin="round" stroke-miterlimit="2" viewBox="0 0 24 24" width="512" xmlns="http://www.w3.org/2000/svg"><g id="Icon"><path d="m7.75 5.5c0-.199-.079-.39-.22-.53l-2-2c-.293-.293-.767-.293-1.06 0l-2 2c-.141.14-.22.331-.22.53v15c0 .414.336.75.75.75h4c.414 0 .75-.336.75-.75zm-1.5.311v13.939h-2.5v-13.939s1.25-1.25 1.25-1.25z"/><path d="m14.75 5.5c0-.199-.079-.39-.22-.53l-2-2c-.293-.293-.767-.293-1.06 0l-2 2c-.141.14-.22.331-.22.53v15c0 .414.336.75.75.75h4c.414 0 .75-.336.75-.75zm-1.5.311v13.939h-2.5v-13.939s1.25-1.25 1.25-1.25z"/><path d="m21.75 5.5c0-.199-.079-.39-.22-.53l-2-2c-.293-.293-.767-.293-1.06 0l-2 2c-.141.14-.22.331-.22.53v15c0 .414.336.75.75.75h4c.414 0 .75-.336.75-.75zm-1.5.311v13.939h-2.5v-13.939s1.25-1.25 1.25-1.25z"/><path d="m22 8.25h-1c-.414 0-.75.336-.75.75s.336.75.75.75h1c.414 0 .75-.336.75-.75s-.336-.75-.75-.75z"/><path d="m17 8.25h-3c-.414 0-.75.336-.75.75s.336.75.75.75h3c.414 0 .75-.336.75-.75s-.336-.75-.75-.75z"/><path d="m10 8.25h-3c-.414 0-.75.336-.75.75s.336.75.75.75h3c.414 0 .75-.336.75-.75s-.336-.75-.75-.75z"/><path d="m3 8.25h-1c-.414 0-.75.336-.75.75s.336.75.75.75h1c.414 0 .75-.336.75-.75s-.336-.75-.75-.75z"/><path d="m22 15.25h-1c-.414 0-.75.336-.75.75s.336.75.75.75h1c.414 0 .75-.336.75-.75s-.336-.75-.75-.75z"/><path d="m17 15.25h-3c-.414 0-.75.336-.75.75s.336.75.75.75h3c.414 0 .75-.336.75-.75s-.336-.75-.75-.75z"/><path d="m10 15.25h-3c-.414 0-.75.336-.75.75s.336.75.75.75h3c.414 0 .75-.336.75-.75s-.336-.75-.75-.75z"/><path d="m3 15.25h-1c-.414 0-.75.336-.75.75s.336.75.75.75h1c.414 0 .75-.336.75-.75s-.336-.75-.75-.75z"/></g></svg>