<svg clip-rule="evenodd" fill-rule="evenodd" height="512" stroke-linejoin="round" stroke-miterlimit="2" viewBox="0 0 24 24" width="512" xmlns="http://www.w3.org/2000/svg"><g id="Icon"><path d="m23.25 5c0-2.071-1.679-3.75-3.75-3.75h-14c-2.071 0-3.75 1.679-3.75 3.75v14c0 2.071 1.679 3.75 3.75 3.75h14c2.071 0 3.75-1.679 3.75-3.75zm-1.5 0v14c0 1.243-1.007 2.25-2.25 2.25h-14c-1.243 0-2.25-1.007-2.25-2.25v-14c0-1.243 1.007-2.25 2.25-2.25h14c1.243 0 2.25 1.007 2.25 2.25z"/><path d="m17.25 13.998c0-1.392-.553-2.727-1.537-3.711s-2.319-1.537-3.711-1.537c-.001 0-.003 0-.004 0-1.392 0-2.727.553-3.711 1.537s-1.537 2.319-1.537 3.711v4.282c0 .525.235 1.021.641 1.354.405.332.938.465 1.452.362 0 0 .863-.172.863-.172.182-.037.369-.032.548.013.319.079.75.187 1.079.269.438.11.896.11 1.334 0 .329-.082.76-.19 1.079-.269.179-.045.366-.05.548-.013 0 0 .863.172.863.172.514.103 1.047-.03 1.452-.362.406-.333.641-.829.641-1.354zm-1.5 0v4.282c0 .075-.034.146-.092.194-.057.047-.134.066-.207.051l-.863-.172c-.399-.08-.811-.07-1.206.028l-1.079.27c-.199.05-.407.05-.606 0l-1.079-.27c-.395-.098-.807-.108-1.206-.028l-.863.172c-.073.015-.15-.004-.207-.051-.058-.048-.092-.119-.092-.194v-4.282c0-.994.395-1.947 1.098-2.65s1.656-1.098 2.65-1.098h.004c.994 0 1.947.395 2.65 1.098s1.098 1.656 1.098 2.65z"/><path d="m22.5 6.25h-20c-.414 0-.75.336-.75.75s.336.75.75.75h20c.414 0 .75-.336.75-.75s-.336-.75-.75-.75z"/><circle cx="13.25" cy="4.5" r=".75"/><circle cx="16" cy="4.5" r=".75"/><circle cx="11.125" cy="13.75" r=".75"/><circle cx="18.75" cy="4.5" r=".75"/><circle cx="13.875" cy="13.75" r=".75"/></g></svg>