<svg clip-rule="evenodd" fill-rule="evenodd" height="512" stroke-linejoin="round" stroke-miterlimit="2" viewBox="0 0 24 24" width="512" xmlns="http://www.w3.org/2000/svg"><g id="Icon"><path d="m17.538 7.436s0 0 0-.001c.141-.393.212-.8.212-1.21 0-.986-.409-1.94-1.165-2.682l-.622-.608c-.077-.075-.142-.159-.195-.249-.505-.866-1.527-1.436-2.657-1.436h-2.222c-1.13 0-2.152.57-2.658 1.437-.052.09-.119.174-.196.25l-.62.606c-.756.742-1.165 1.696-1.165 2.682 0 .41.071.817.212 1.21l.79 2.198c.058.164.07.337.034.505l-.297 1.391c-.197.91.14 1.85.925 2.487l.699.567c.133.108.3.167.472.167h5.83c.172 0 .339-.059.472-.167l.699-.567c.785-.637 1.122-1.576.926-2.488l-.299-1.387c-.035-.169-.023-.342.036-.506zm-1.412-.505-.789 2.197c-.155.429-.185.884-.091 1.325l.3 1.391c.08.373-.085.747-.406 1.008 0 0-.491.398-.491.398h-5.298s-.491-.398-.491-.398c-.321-.261-.486-.635-.405-1.007l.297-1.391c.096-.44.066-.895-.088-1.325l-.79-2.198c-.081-.229-.124-.467-.124-.706 0-.594.259-1.164.715-1.61l.622-.608c.173-.17.32-.36.439-.563.001-.001.001-.001.001-.001.256-.439.79-.693 1.362-.693h2.222c.572 0 1.106.254 1.362.693 0 0 0 0 .001.001.119.204.266.394.441.565 0-.001.62.606.62.606.456.446.715 1.016.715 1.61 0 .239-.043.477-.124.706z"/><path d="m14.75 6c0-.164 0-.335 0-.5 0-.966-.783-1.75-1.75-1.75h-2c-.967 0-1.75.784-1.75 1.75v.5c0 .967.783 1.75 1.75 1.75h2c.967 0 1.75-.783 1.75-1.75zm-1.5-.5v.5c0 .138-.112.25-.25.25h-2c-.138 0-.25-.112-.25-.25v-.5c0-.138.112-.25.25-.25h2c.138 0 .25.112.25.25z"/><path d="m18.237 17.751.831-1.685c.651-1.32.473-2.897-.455-4.039-.261-.321-.733-.37-1.055-.109-.321.261-.37.734-.108 1.055.558.687.664 1.636.273 2.43 0 0-.831 1.685-.831 1.685-.183.371-.03.821.341 1.004s.821.03 1.004-.341z"/><path d="m7.108 17.088-.831-1.685c-.391-.794-.285-1.743.273-2.43.262-.321.213-.794-.108-1.055-.322-.261-.794-.212-1.055.109-.928 1.142-1.106 2.719-.455 4.039l.831 1.685c.183.371.633.524 1.004.341s.524-.633.341-1.004z"/><path d="m8 17.75h8c.968 0 1.75-.784 1.75-1.75v-1c0-.966-.782-1.75-1.75-1.75h-8c-.968 0-1.75.784-1.75 1.75v1c0 .966.782 1.75 1.75 1.75zm0-1.5c-.138 0-.25-.112-.25-.25v-1c0-.138.112-.25.25-.25h8c.138 0 .25.112.25.25v1c0 .138-.112.25-.25.25z"/><path d="m11.25 17v5c0 .414.336.75.75.75s.75-.336.75-.75v-5c0-.414-.336-.75-.75-.75s-.75.336-.75.75z"/><path d="m8.75 22v-.414s3.25-.813 3.25-.813 3.25.813 3.25.813v.414c0 .414.336.75.75.75s.75-.336.75-.75v-1c0-.344-.234-.644-.568-.727l-4-1c-.12-.03-.244-.03-.364 0l-4 1c-.334.083-.568.383-.568.727v1c0 .414.336.75.75.75s.75-.336.75-.75z"/></g></svg>