<svg clip-rule="evenodd" fill-rule="evenodd" height="512" stroke-linejoin="round" stroke-miterlimit="2" viewBox="0 0 24 24" width="512" xmlns="http://www.w3.org/2000/svg"><g id="Icon"><path d="m19.053 2.17c-.325-.487-.871-.779-1.456-.779h-11.194c-.585 0-1.131.292-1.456.779-.727 1.091-2.598 3.898-3.408 5.112-.403.605-.39 1.396.032 1.988 1.519 2.126 6.934 9.707 9.005 12.607.328.459.859.732 1.424.732s1.096-.273 1.424-.732c2.071-2.9 7.486-10.481 9.005-12.607.422-.592.435-1.383.032-1.988-.81-1.214-2.681-4.021-3.408-5.112zm-1.248.832 3.408 5.112c.057.087.056.2-.005.284l-9.005 12.607c-.046.065-.122.104-.203.104s-.157-.039-.203-.104c-2.072-2.9-7.486-10.481-9.005-12.607-.061-.084-.062-.197-.005-.284l3.408-5.112c.047-.07.125-.111.208-.111h11.194c.083 0 .161.041.208.111z"/><path d="m8.612 2.403c-.292 1.094-1.032 3.872-1.356 5.089-.126.475-.121 1.096.011 1.56.61 2.137 2.756 9.657 3.587 12.569.113.398.529.629.927.516.398-.114.629-.529.515-.927-.831-2.913-2.977-10.433-3.587-12.569-.064-.227-.065-.531-.004-.763l1.356-5.089c.107-.4-.132-.812-.532-.918-.4-.107-.811.132-.917.532z"/><path d="m13.146 21.621c.831-2.912 2.977-10.432 3.587-12.569.132-.464.137-1.085.011-1.56-.324-1.217-1.064-3.995-1.356-5.089-.106-.4-.517-.639-.917-.532-.4.106-.639.518-.532.918l1.356 5.089c.061.232.06.536-.004.763-.61 2.136-2.756 9.656-3.587 12.569-.114.398.117.813.515.927.398.113.814-.118.927-.516z"/><path d="m2.291 9.022h19.418c.414 0 .75-.336.75-.75s-.336-.75-.75-.75h-19.418c-.414 0-.75.336-.75.75s.336.75.75.75z"/></g></svg>