<?xml version="1.0"?>
<svg xmlns="http://www.w3.org/2000/svg" viewBox="0 0 32 32" width="512" height="512"><g id="music_mic_headset" data-name="music, mic, headset"><path d="M27,15.1843V12a9.01,9.01,0,0,0-9-9H14a9.01,9.01,0,0,0-9,9,1,1,0,0,0,2,0,7.0081,7.0081,0,0,1,7-7h4a7.0081,7.0081,0,0,1,7,7v3H24a3.0033,3.0033,0,0,0-3,3v6a3.0033,3.0033,0,0,0,3,3h2a3.0033,3.0033,0,0,0,3-3V18A2.995,2.995,0,0,0,27,15.1843ZM27,24a1.0009,1.0009,0,0,1-1,1H24a1.0009,1.0009,0,0,1-1-1V18a1.0009,1.0009,0,0,1,1-1h2a1.0009,1.0009,0,0,1,1,1Z"/><path d="M16,27H9.998a.991.991,0,0,1-.705-.291l-.0068-.01A2.9957,2.9957,0,0,0,11,24V18a3.0033,3.0033,0,0,0-3-3H6a3.0033,3.0033,0,0,0-3,3v6a3.0033,3.0033,0,0,0,3,3H7.1815A2.9612,2.9612,0,0,0,9.998,29H16a1,1,0,0,0,0-2ZM5,24V18a1.0009,1.0009,0,0,1,1-1H8a1.0009,1.0009,0,0,1,1,1v6a1.0009,1.0009,0,0,1-1,1H6A1.0009,1.0009,0,0,1,5,24Z"/></g></svg>
