<svg clip-rule="evenodd" fill-rule="evenodd" stroke-linejoin="round" stroke-miterlimit="1.414" viewBox="0 0 32 32" xmlns="http://www.w3.org/2000/svg" xmlns:serif="http://www.serif.com/"><path id="half-star-rating-" d="m0 0h32v32h-32z" fill="none"/><path d="m16.072 3.002c.513.082.904.51.928 1.038v12.534c-.038.825-1.122 1.342-1.748.772-.167-.152-.282-.359-.323-.58-.016-.085-.014-.107-.018-.192v-5.939l-.776 2.388s-.329.692-.993.722h-5.892l4.766 3.463s.56.513.38 1.168l-1.821 5.603 4.767-3.463.08-.053c.076-.04.094-.053.174-.083.66-.241 1.48.359 1.398 1.097-.032.287-.196.547-.425.729l-7.367 5.353c-.265.174-.363.184-.541.197-.671.046-1.256-.671-1.066-1.365l2.58-7.939-6.753-4.906s-.258-.215-.355-.454c-.228-.565.15-1.3.775-1.418.085-.016.107-.014.193-.018h8.348l2.579-7.938s.356-.765 1.11-.716z" fill-rule="nonzero"/></svg>