<svg clip-rule="evenodd" fill-rule="evenodd" stroke-linejoin="round" stroke-miterlimit="2" viewBox="0 0 32 32" xmlns="http://www.w3.org/2000/svg" xmlns:serif="http://www.serif.com/"><path id="stamp-ink-stationery" d="m0 0h32v32h-32z" fill="none"/><path d="m24.014 29h-16c-.52-.02-.561-.147-.707-.293-.547-.547-.165-1.673.707-1.707h16c.026.001.052.002.078.003.974.115 1.344 1.941-.078 1.997zm2-4h-20c-.537-.023-.977-.462-1-1 0-1.531-.227-3.157.617-4.261.402-.526.982-.908 1.624-1.08l5.641-1.41c-.438-3.07-.907-6.135-1.315-9.209-.307-2.445 1.657-4.958 4.31-5.038.052-.002.103-.002.155-.002 2.508.026 4.751 2.398 4.397 5.07l-.868 6.071s-.27.836-.957.858c-.521.017-1.015-.435-1.032-.966-.003-.078.002-.097.009-.174.29-2.031.614-4.057.87-6.092.219-1.848-2.13-3.582-3.902-2.297-.722.524-1.119 1.449-.993 2.349l1.434 10.04c.049.494-.264.968-.748 1.111-2.172.543-4.359 1.029-6.516 1.63-.412.119-.719.52-.726.951v1.449h18c0-1.012.131-2.171-.747-2.406l-6.496-1.624s-1.213-.763-.534-1.6c.237-.292.517-.443 1.019-.34 2.173.543 4.347 1.074 6.517 1.629 1.261.337 2.22 1.541 2.241 2.87v2.471s-.193.965-1 1z"/></svg>