<svg clip-rule="evenodd" fill-rule="evenodd" stroke-linejoin="round" stroke-miterlimit="1.414" viewBox="0 0 32 32" xmlns="http://www.w3.org/2000/svg" xmlns:serif="http://www.serif.com/"><path id="speaker-volume-on" d="m0 0h32v32h-32z" fill="none"/><path d="m11.795 11.009 13.811-5.919c.123-.047.168-.098.504-.075.489.075.868.492.89.994v20c-.029.675-.757 1.16-1.394.919l-13.811-5.919h-5.795c-.182-.005-.233-.022-.33-.056-.353-.124-.621-.457-.664-.832-.005-.05-.005-.062-.006-.112v-8c.005-.183.022-.233.056-.331.123-.352.457-.621.832-.663.05-.006.062-.005.112-.006zm1.205 1.659v3.341c-.006.229-.037.304-.099.434-.293.607-1.284.755-1.717.144-.119-.168-.178-.373-.184-.578v-3h-4v6h5 .002c.076 0 .152.009.226.026.076.018.093.027.166.055l12.606 5.402v-16.967z" fill-rule="nonzero"/></svg>