<svg clip-rule="evenodd" fill-rule="evenodd" height="512" stroke-linejoin="round" stroke-miterlimit="2" viewBox="0 0 24 24" width="512" xmlns="http://www.w3.org/2000/svg"><g id="Icon"><path d="m16.75 4c0-.729-.29-1.429-.805-1.945-.516-.515-1.216-.805-1.945-.805-2.444 0-6.556 0-9 0-.729 0-1.429.29-1.945.805-.515.516-.805 1.216-.805 1.945v14c0 .729.29 1.429.805 1.945.516.515 1.216.805 1.945.805h9c.729 0 1.429-.29 1.945-.805.515-.516.805-1.216.805-1.945zm-1.5 0v14c0 .332-.132.649-.366.884-.235.234-.552.366-.884.366-2.444 0-6.556 0-9 0-.332 0-.649-.132-.884-.366-.234-.235-.366-.552-.366-.884v-14c0-.332.132-.649.366-.884.235-.234.552-.366.884-.366h9c.332 0 .649.132.884.366.234.235.366.552.366.884z"/><path d="m11.75 20v2c0 .414.336.75.75.75s.75-.336.75-.75v-2c0-.414-.336-.75-.75-.75s-.75.336-.75.75z"/><path d="m5.75 20v2c0 .414.336.75.75.75s.75-.336.75-.75v-2c0-.414-.336-.75-.75-.75s-.75.336-.75.75z"/><path d="m9.5 10.25c-2.07 0-3.75 1.68-3.75 3.75s1.68 3.75 3.75 3.75 3.75-1.68 3.75-3.75-1.68-3.75-3.75-3.75zm0 1.5c1.242 0 2.25 1.008 2.25 2.25s-1.008 2.25-2.25 2.25-2.25-1.008-2.25-2.25 1.008-2.25 2.25-2.25z"/><path d="m8.75 11v2c0 .414.336.75.75.75s.75-.336.75-.75v-2c0-.414-.336-.75-.75-.75s-.75.336-.75.75z"/><path d="m11 7.25h1c.414 0 .75-.336.75-.75s-.336-.75-.75-.75h-1c-.414 0-.75.336-.75.75s.336.75.75.75z"/><path d="m7 7.25h1c.414 0 .75-.336.75-.75s-.336-.75-.75-.75h-1c-.414 0-.75.336-.75.75s.336.75.75.75z"/><path d="m17.984 10.95c.219.293.349.656.349 1.049 0 .394-.13.757-.349 1.049-.249.331-.182.802.149 1.051.331.248.801.181 1.05-.15.408-.543.65-1.218.65-1.95 0-.731-.242-1.406-.65-1.949-.249-.331-.719-.398-1.05-.15-.331.249-.398.72-.149 1.05z"/><path d="m20.567 9.95c.429.572.683 1.281.683 2.05s-.254 1.478-.683 2.05c-.249.33-.182.801.149 1.05.331.248.801.181 1.05-.15.618-.822.984-1.843.984-2.95s-.366-2.128-.984-2.95c-.249-.331-.719-.398-1.05-.15-.331.249-.398.72-.149 1.05z"/></g></svg>