<svg clip-rule="evenodd" fill-rule="evenodd" height="512" stroke-linejoin="round" stroke-miterlimit="2" viewBox="0 0 24 24" width="512" xmlns="http://www.w3.org/2000/svg"><g id="Icon"><path d="m20 22.75c1.518 0 2.75-1.232 2.75-2.75v-14c0-1.518-1.232-2.75-2.75-2.75h-7.395c-.246 0-.488-.073-.693-.21l-1.992-1.328c-.453-.301-.983-.462-1.525-.462h-4.395c-1.518 0-2.75 1.232-2.75 2.75v16c0 1.518 1.232 2.75 2.75 2.75zm0-1.5h-16c-.69 0-1.25-.56-1.25-1.25v-16c0-.69.56-1.25 1.25-1.25h4.395c.246 0 .488.074.693.211l1.992 1.328c.453.301.983.461 1.525.461h7.395c.69 0 1.25.56 1.25 1.25v14c0 .69-.56 1.25-1.25 1.25z"/><path d="m20 22.75c1.518 0 2.75-1.232 2.75-2.75v-10c0-1.518-1.232-2.75-2.75-2.75h-16c-1.518 0-2.75 1.232-2.75 2.75v10c0 1.518 1.232 2.75 2.75 2.75zm0-1.5h-16c-.69 0-1.25-.56-1.25-1.25v-10c0-.69.56-1.25 1.25-1.25h16c.69 0 1.25.56 1.25 1.25v10c0 .69-.56 1.25-1.25 1.25z"/></g></svg>