<svg clip-rule="evenodd" fill-rule="evenodd" height="512" stroke-linejoin="round" stroke-miterlimit="2" viewBox="0 0 24 24" width="512" xmlns="http://www.w3.org/2000/svg"><g id="Icon"><path d="m19.248 8.053c.015-.207-.057-.412-.199-.564s-.341-.239-.549-.239h-13c-.208 0-.407.087-.549.239s-.214.357-.199.564c0 0 .595 8.335.867 12.143.103 1.439 1.3 2.554 2.743 2.554h7.276c1.443 0 2.64-1.115 2.743-2.554.272-3.808.867-12.143.867-12.143zm-1.553.697-.81 11.339c-.047.654-.591 1.161-1.247 1.161h-7.276c-.656 0-1.2-.507-1.247-1.161 0 0-.81-11.339-.81-11.339z"/><path d="m20.25 7.5v-1.5c0-.69-.56-1.25-1.25-1.25h-14c-.69 0-1.25.56-1.25 1.25v1.5c0 .69.56 1.25 1.25 1.25h14c.69 0 1.25-.56 1.25-1.25zm-15-1.25v1h13.5v-1z"/><path d="m19.221 5.294-.793-2.775c-.214-.751-.901-1.269-1.682-1.269-2.011 0-7.481 0-9.492 0-.781 0-1.468.518-1.682 1.269l-.793 2.775c-.065.226-.019.47.122.658.142.188.364.298.599.298h13c.235 0 .457-.11.599-.298.141-.188.187-.432.122-.658zm-2.235-2.363.52 1.819h-11.012s.52-1.819.52-1.819c.031-.107.129-.181.24-.181h9.492c.111 0 .209.074.24.181z"/><path d="m12 10.25c-2.004 0-3.75 2.078-3.75 4.75s1.746 4.75 3.75 4.75 3.75-2.078 3.75-4.75-1.746-4.75-3.75-4.75zm0 1.5c.468 0 .896.215 1.247.558.619.606 1.003 1.59 1.003 2.692s-.384 2.086-1.003 2.692c-.351.343-.779.558-1.247.558s-.896-.215-1.247-.558c-.619-.606-1.003-1.59-1.003-2.692s.384-2.086 1.003-2.692c.351-.343.779-.558 1.247-.558z"/><path d="m11.298 10.735s-.437 1.16-.525 2.341c-.071.953.118 1.898.707 2.465.389.373.483.902.447 1.419-.043.602-.268 1.202-.55 1.623-.23.344-.138.81.206 1.04s.81.138 1.04-.206c.493-.735.866-1.846.804-2.891-.047-.771-.322-1.505-.907-2.067-.299-.286-.287-.79-.251-1.272.072-.969.433-1.922.433-1.922.146-.387-.05-.82-.437-.967-.387-.146-.82.05-.967.437z"/></g></svg>