<svg clip-rule="evenodd" fill-rule="evenodd" height="512" stroke-linejoin="round" stroke-miterlimit="2" viewBox="0 0 24 24" width="512" xmlns="http://www.w3.org/2000/svg"><g id="Icon"><path d="m22.75 18.25c0-.464-.184-.909-.513-1.237-.328-.329-.773-.513-1.237-.513-3.414 0-14.586 0-18 0-.464 0-.909.184-1.237.513-.329.328-.513.773-.513 1.237v.5c0 .464.184.909.513 1.237.328.329.773.513 1.237.513h18c.464 0 .909-.184 1.237-.513.329-.328.513-.773.513-1.237zm-1.5 0v.5c0 .066-.026.13-.073.177s-.111.073-.177.073h-18c-.066 0-.13-.026-.177-.073s-.073-.111-.073-.177v-.5c0-.066.026-.13.073-.177s.111-.073.177-.073h18c.066 0 .13.026.177.073s.073.111.073.177z"/><path d="m11.518 12.798c-.221-1.326-1.368-2.298-2.712-2.298h-3.112c-1.344 0-2.491.972-2.712 2.298-.296 1.775-.722 4.329-.722 4.329-.036.217.025.44.168.608.142.168.352.265.572.265h8.5c.22 0 .43-.097.572-.265.143-.168.204-.391.168-.608zm-1.479.247.576 3.455h-6.73s.576-3.455.576-3.455c.101-.603.622-1.045 1.233-1.045h3.112c.611 0 1.132.442 1.233 1.045z"/><path d="m21.75 16.25v-5c0-.414-.336-.75-.75-.75h-7c-.414 0-.75.336-.75.75v5c0 .464.184.909.513 1.237.328.329.773.513 1.237.513h5c.464 0 .909-.184 1.237-.513.329-.328.513-.773.513-1.237zm-1.5 0c0 .066-.026.13-.073.177s-.111.073-.177.073h-5c-.066 0-.13-.026-.177-.073s-.073-.111-.073-.177v-4.25h5.5z"/><path d="m7 3.5c-1.794 0-3.25 1.456-3.25 3.25s1.456 3.25 3.25 3.25 3.25-1.456 3.25-3.25-1.456-3.25-3.25-3.25zm0 1.5c.966 0 1.75.784 1.75 1.75s-.784 1.75-1.75 1.75-1.75-.784-1.75-1.75.784-1.75 1.75-1.75z"/></g></svg>