<svg clip-rule="evenodd" fill-rule="evenodd" height="512" stroke-linejoin="round" stroke-miterlimit="2" viewBox="0 0 24 24" width="512" xmlns="http://www.w3.org/2000/svg"><g id="Icon"><path d="m12.001 18.413-1.198.3c-.373.093-.769.009-1.072-.228-.304-.237-.481-.6-.481-.985v-.583c0-.317.086-.628.249-.9l1.212-2.02c.226-.376.633-.607 1.072-.607h.434c.439 0 .846.231 1.072.607l1.212 2.02c.163.272.249.583.249.9v.583c0 .385-.177.748-.481.985-.303.237-.699.321-1.072.227zm-1.251-1.233.948-.237c.199-.05.408-.05.607 0l.945.237v-.263c0-.045-.012-.089-.036-.128l-1.139-1.899h-.15l-1.139 1.899c-.024.039-.036.083-.036.128z"/><path d="m8.409 7.937 1.124.231c.952.196 1.636 1.035 1.636 2.008v.115c0 .583-.232 1.143-.644 1.556-.413.412-.972.644-1.556.644h-.999c-1.12 0-2.069-.823-2.227-1.932l-.015-.101c-.103-.725.153-1.455.686-1.957.534-.501 1.278-.712 1.995-.564zm-.302 1.469c-.239-.05-.487.021-.665.188s-.263.411-.229.652l.015.101c.053.37.369.644.742.644h.999c.186 0 .364-.074.495-.205s.205-.309.205-.495v-.115c0-.261-.183-.486-.439-.539z"/><path d="m15.591 7.937c.717-.148 1.461.063 1.995.564.533.502.789 1.232.686 1.957l-.015.101c-.158 1.109-1.107 1.932-2.227 1.932h-.999c-.584 0-1.143-.232-1.556-.644-.412-.413-.644-.973-.644-1.556v-.115c0-.973.684-1.812 1.636-2.008zm.302 1.469-1.123.231c-.256.053-.439.278-.439.539v.115c0 .186.074.364.205.495s.309.205.495.205h.999c.373 0 .689-.274.742-.644l.015-.101c.034-.241-.051-.485-.229-.652s-.426-.238-.665-.188z"/><path d="m12 1.25c3.28 0 5.451 1.021 6.818 2.604 1.36 1.576 1.932 3.744 1.932 6.146 0 .734-.358 2.214-.033 3.281.211.692.465 1.156.602 1.589.189.6.222 1.157-.137 1.942-.399.874-.869 1.126-1.455 1.309-.353.11-.785.164-1.321.509-.514.332-1.007 1.239-1.338 1.878-.005.009-.011.019-.016.029-.437.759-1.128 1.339-1.952 1.636-1.875.713-3.762.769-5.648.212-1.086-.313-1.972-1.099-2.41-2.138-.206-.486-.63-1.088-1.449-1.617-.533-.344-.964-.397-1.318-.507-.588-.184-1.059-.436-1.458-1.313-.354-.78-.322-1.336-.133-1.936.135-.434.388-.899.598-1.592.325-1.069-.032-2.551-.032-3.282 0-2.402.572-4.57 1.932-6.146 1.367-1.583 3.538-2.604 6.818-2.604zm0 1.5c-2.72 0-4.549.771-5.682 2.084-1.14 1.321-1.568 3.153-1.568 5.166 0 .828.335 2.506-.032 3.718-.176.578-.378 1.006-.525 1.385-.138.356-.211.645-.01 1.087.197.433.45.479.766.565.411.113.888.247 1.458.615 1.151.744 1.727 1.608 2.016 2.291l.001.002c.263.623.794 1.095 1.445 1.281l.006.002c1.569.464 3.138.417 4.697-.177.004-.001.009-.003.013-.005.488-.174.899-.516 1.155-.955.442-.851 1.17-1.999 1.854-2.439.572-.369 1.049-.503 1.458-.616.316-.086.568-.133.766-.566.202-.443.13-.731-.008-1.086-.148-.379-.351-.806-.527-1.383-.369-1.209-.033-2.887-.033-3.719 0-2.013-.428-3.845-1.568-5.166-1.133-1.313-2.962-2.084-5.682-2.084z"/></g></svg>