<svg clip-rule="evenodd" fill-rule="evenodd" height="512" stroke-linejoin="round" stroke-miterlimit="2" viewBox="0 0 24 24" width="512" xmlns="http://www.w3.org/2000/svg"><g id="Icon"><path d="m11.713 15.288c1.826 1.826 3.047 3.914 3.542 5.833.058.226.219.413.435.504s.462.075.665-.042c2.625-1.511 4.395-4.338 4.395-7.583 0-1.252-.267-2.441-.742-3.519-.129-.293-.429-.471-.748-.445-2.426.201-5.305 1.575-7.78 3.952-.147.141-.23.336-.23.54s.083.399.23.541c.077.074.156.142.233.219zm1.374-.739c1.864-1.626 3.918-2.655 5.751-2.951.266.752.412 1.56.412 2.402 0 2.348-1.119 4.431-2.85 5.755-.629-1.742-1.75-3.561-3.313-5.206z"/><path d="m13.602 8.219c1.008-.975 2.08-1.722 3.141-2.172.434.665.77 1.415.969 2.231v.001c.208.849.263 1.689.164 2.511-.05.411.243.785.654.835s.785-.244.835-.655c.121-.997.056-2.017-.196-3.047-.295-1.214-.842-2.308-1.553-3.238-.194-.255-.529-.357-.833-.256-1.413.471-2.875 1.406-4.224 2.713-.298.288-.305.763-.017 1.06s.763.305 1.06.017z"/><path d="m6.125 10.79c-.1-.822-.044-1.662.164-2.512 0 0 0 0 0-.001.198-.815.534-1.565.968-2.23 1.061.449 2.134 1.196 3.141 2.172.298.288.773.28 1.061-.017.288-.298.28-.773-.017-1.061-1.35-1.306-2.811-2.241-4.225-2.712-.303-.102-.638.001-.833.256-.711.929-1.257 2.023-1.552 3.237-.253 1.031-.317 2.051-.196 3.048.049.411.423.704.834.655.411-.05.704-.424.655-.835z"/><path d="m7.646 21.583c.203.117.449.132.665.042.216-.091.377-.278.435-.505.494-1.918 1.716-4.006 3.542-5.832.076-.076.155-.145.232-.218.147-.142.23-.337.23-.541s-.083-.399-.23-.54c-2.474-2.378-5.354-3.752-7.779-3.953-.319-.027-.62.152-.749.445-.474 1.077-.742 2.266-.742 3.519 0 3.246 1.771 6.073 4.396 7.583zm3.267-7.033c-1.563 1.644-2.683 3.463-3.312 5.205-1.732-1.324-2.851-3.406-2.851-5.755 0-.843.146-1.65.412-2.402 1.833.297 3.888 1.325 5.751 2.952z"/><path d="m12.521 13.989c-.291-.28-.75-.28-1.041 0-.084.081-.17.155-.253.239-2.037 2.036-3.382 4.378-3.933 6.518-.084.327.06.669.352.837 1.283.738 2.767 1.167 4.354 1.167 1.588 0 3.071-.429 4.354-1.167.293-.168.437-.51.353-.837-.551-2.14-1.897-4.482-3.933-6.518-.084-.084-.169-.158-.253-.239zm-.521 1.594c1.495 1.572 2.55 3.318 3.089 4.971-.937.444-1.982.696-3.089.696-1.106 0-2.151-.252-3.088-.696.538-1.653 1.594-3.399 3.088-4.971z"/><path d="m12 7.588c1.377 1.449 2.379 3.038 2.947 4.572.144.389.575.587.964.444.388-.144.586-.576.443-.964-.673-1.82-1.89-3.717-3.583-5.41-.08-.08-.16-.15-.24-.23-.293-.293-.768-.293-1.061 0-.08.08-.16.15-.24.23-1.694 1.693-2.91 3.59-3.583 5.41-.144.388.055.82.443.964.388.143.82-.055.964-.444.567-1.534 1.57-3.123 2.946-4.572z"/><path d="m12 3.02c1.083 1.064 1.937 2.216 2.524 3.354.189.368.642.512 1.01.323.368-.19.513-.643.323-1.011-.706-1.368-1.756-2.76-3.104-4.023l-.259-.227c-.283-.248-.705-.248-.988 0l-.259.227c-1.347 1.263-2.398 2.655-3.103 4.023-.19.368-.045.821.323 1.011.368.189.82.045 1.01-.323.586-1.138 1.441-2.29 2.523-3.354z"/></g></svg>