<svg clip-rule="evenodd" fill-rule="evenodd" height="512" stroke-linejoin="round" stroke-miterlimit="2" viewBox="0 0 24 24" width="512" xmlns="http://www.w3.org/2000/svg"><g id="Icon"><path d="m12.75 8v-3.122c.873.309 1.5 1.143 1.5 2.122 0 .666-.29 1.264-.75 1.677-.309.276-.335.75-.059 1.059.276.308.751.334 1.059.058.767-.687 1.25-1.684 1.25-2.794 0-2.07-1.68-3.75-3.75-3.75-.414 0-.75.336-.75.75v4c0 .414.336.75.75.75s.75-.336.75-.75z"/><path d="m14 10.75h3.122c-.309.873-1.143 1.5-2.122 1.5-.666 0-1.264-.29-1.677-.75-.276-.309-.75-.335-1.059-.059-.308.276-.334.751-.058 1.059.687.767 1.684 1.25 2.794 1.25 2.07 0 3.75-1.68 3.75-3.75 0-.414-.336-.75-.75-.75h-4c-.414 0-.75.336-.75.75s.336.75.75.75z"/><path d="m11.25 12v3.122c-.873-.309-1.5-1.143-1.5-2.122 0-.666.29-1.264.75-1.677.309-.276.335-.75.059-1.059-.276-.308-.751-.334-1.059-.058-.767.687-1.25 1.684-1.25 2.794 0 2.07 1.68 3.75 3.75 3.75.414 0 .75-.336.75-.75v-4c0-.414-.336-.75-.75-.75s-.75.336-.75.75z"/><path d="m10 9.25h-3.122c.309-.873 1.143-1.5 2.122-1.5.576 0 1.102.217 1.5.573.308.277.783.25 1.059-.058s.25-.783-.059-1.059c-.663-.594-1.54-.956-2.5-.956-2.07 0-3.75 1.68-3.75 3.75 0 .414.336.75.75.75h4c.414 0 .75-.336.75-.75s-.336-.75-.75-.75z"/><path d="m12 1.25c-4.829 0-8.75 3.921-8.75 8.75s3.921 8.75 8.75 8.75 8.75-3.921 8.75-8.75-3.921-8.75-8.75-8.75zm0 1.5c4.001 0 7.25 3.249 7.25 7.25s-3.249 7.25-7.25 7.25-7.25-3.249-7.25-7.25 3.249-7.25 7.25-7.25z"/><path d="m12 7.25c-1.518 0-2.75 1.232-2.75 2.75s1.232 2.75 2.75 2.75 2.75-1.232 2.75-2.75-1.232-2.75-2.75-2.75zm0 1.5c.69 0 1.25.56 1.25 1.25s-.56 1.25-1.25 1.25-1.25-.56-1.25-1.25.56-1.25 1.25-1.25z"/><path d="m7.768 17.337-1 4.5c-.049.222.005.455.147.632.142.178.358.281.585.281h9c.227 0 .443-.103.585-.281.142-.177.196-.41.147-.632l-1-4.5c-.09-.404-.491-.659-.895-.569s-.659.491-.569.895l.797 3.587h-7.13s.797-3.587.797-3.587c.09-.404-.165-.805-.569-.895s-.805.165-.895.569z"/><path d="m18 21.25h-12c-.414 0-.75.336-.75.75s.336.75.75.75h12c.414 0 .75-.336.75-.75s-.336-.75-.75-.75z"/></g></svg>