<svg clip-rule="evenodd" fill-rule="evenodd" height="512" stroke-linejoin="round" stroke-miterlimit="2" viewBox="0 0 24 24" width="512" xmlns="http://www.w3.org/2000/svg"><g id="Icon"><path d="m11.75 15c0-.729-.29-1.429-.805-1.945-.516-.515-1.216-.805-1.945-.805h-5c-.729 0-1.429.29-1.945.805-.515.516-.805 1.216-.805 1.945v5c0 .729.29 1.429.805 1.945.516.515 1.216.805 1.945.805h5c.729 0 1.429-.29 1.945-.805.515-.516.805-1.216.805-1.945zm-1.5 0v5c0 .332-.132.649-.366.884-.235.234-.552.366-.884.366h-5c-.332 0-.649-.132-.884-.366-.234-.235-.366-.552-.366-.884v-5c0-.332.132-.649.366-.884.235-.234.552-.366.884-.366h5c.332 0 .649.132.884.366.234.235.366.552.366.884z"/><path d="m11.75 4c0-.729-.29-1.429-.805-1.945-.516-.515-1.216-.805-1.945-.805h-5c-.729 0-1.429.29-1.945.805-.515.516-.805 1.216-.805 1.945v5c0 .729.29 1.429.805 1.945.516.515 1.216.805 1.945.805h5c.729 0 1.429-.29 1.945-.805.515-.516.805-1.216.805-1.945zm-1.5 0v5c0 .332-.132.649-.366.884-.235.234-.552.366-.884.366h-5c-.332 0-.649-.132-.884-.366-.234-.235-.366-.552-.366-.884v-5c0-.332.132-.649.366-.884.235-.234.552-.366.884-.366h5c.332 0 .649.132.884.366.234.235.366.552.366.884z"/><path d="m22.75 15c0-.729-.29-1.429-.805-1.945-.516-.515-1.216-.805-1.945-.805h-5c-.729 0-1.429.29-1.945.805-.515.516-.805 1.216-.805 1.945v5c0 .729.29 1.429.805 1.945.516.515 1.216.805 1.945.805h5c.729 0 1.429-.29 1.945-.805.515-.516.805-1.216.805-1.945zm-1.5 0v5c0 .332-.132.649-.366.884-.235.234-.552.366-.884.366h-5c-.332 0-.649-.132-.884-.366-.234-.235-.366-.552-.366-.884v-5c0-.332.132-.649.366-.884.235-.234.552-.366.884-.366h5c.332 0 .649.132.884.366.234.235.366.552.366.884z"/><path d="m19.872 18.151c.234-.133.378-.382.378-.651s-.144-.518-.378-.651l-3.5-2c-.232-.133-.517-.132-.748.002-.232.135-.374.382-.374.649v4c0 .267.142.514.374.649.231.134.516.135.748.002zm-1.884-.651-1.238.708v-1.416z"/><path d="m22.75 4c0-.729-.29-1.429-.805-1.945-.516-.515-1.216-.805-1.945-.805h-5c-.729 0-1.429.29-1.945.805-.515.516-.805 1.216-.805 1.945v5c0 .729.29 1.429.805 1.945.516.515 1.216.805 1.945.805h5c.729 0 1.429-.29 1.945-.805.515-.516.805-1.216.805-1.945zm-1.5 0v5c0 .332-.132.649-.366.884-.235.234-.552.366-.884.366h-5c-.332 0-.649-.132-.884-.366-.234-.235-.366-.552-.366-.884v-5c0-.332.132-.649.366-.884.235-.234.552-.366.884-.366h5c.332 0 .649.132.884.366.234.235.366.552.366.884z"/><circle cx="8" cy="15.75" r=".75"/><circle cx="6.125" cy="7.75" r="1.5"/><path d="m7.625 7.5v-2h.25c.414 0 .75-.336.75-.75s-.336-.75-.75-.75h-1c-.414 0-.75.336-.75.75v2.75c0 .414.336.75.75.75s.75-.336.75-.75z"/><path d="m7.884 18.944 2.586 2.586c.292.293.768.293 1.06 0 .293-.292.293-.768 0-1.06l-2.724-2.724c-.405-.406-1.035-.483-1.527-.188l-1.595.957-3.092-3.975c-.254-.327-.726-.386-1.052-.132-.327.254-.386.726-.132 1.052 0 0 2.405 3.093 3.228 4.151.388.499 1.088.629 1.63.304z"/><path d="m15.5 5.75h2.5c.414 0 .75-.336.75-.75s-.336-.75-.75-.75h-2.5c-.414 0-.75.336-.75.75s.336.75.75.75z"/><path d="m15.5 8.75h4c.414 0 .75-.336.75-.75s-.336-.75-.75-.75h-4c-.414 0-.75.336-.75.75s.336.75.75.75z"/></g></svg>