<svg clip-rule="evenodd" fill-rule="evenodd" stroke-linejoin="round" stroke-miterlimit="1.414" viewBox="0 0 32 32" xmlns="http://www.w3.org/2000/svg" xmlns:serif="http://www.serif.com/"><path id="type-blood-caring-a" d="m0 0h32v32h-32z" fill="none"/><path d="m12.093 3.007c.724.104 1.141.983.698 1.607-.038.053-.075.106-.113.16-2.442 3.488-4.772 7.131-6.479 11.026-.67 1.527-1.327 3.104-1.174 4.833.265 2.974 2.646 5.652 5.605 6.239 3.898.773 8.199-2.257 8.364-6.596.06-1.582-.592-3.119-1.25-4.598-1.248-2.807-2.838-5.45-4.501-8.034 0 0-.3-.707.055-1.159.389-.495 1.236-.473 1.628.077 2.038 3.168 4.047 6.466 5.315 9.95.531 1.459.886 2.983.693 4.581-.462 3.821-3.638 7.158-7.455 7.791-2.831.47-5.865-.512-7.882-2.554-1.932-1.955-2.964-4.837-2.483-7.536.477-2.683 1.815-5.174 3.171-7.612 1.481-2.662 3.115-5.241 4.875-7.726 0 0 .306-.369.648-.435.179-.035.225-.017.285-.014zm11.35 23.999-.507 1.351s-.722.988-1.487.484c-.373-.247-.534-.755-.386-1.186l3-8.001c.066-.161.088-.183.135-.247.193-.258.423-.402.83-.402.019.001.038.002.056.003.344.039.653.24.807.542.023.045.026.057.045.104l3.001 8.001c.074.217.072.298.059.441-.061.678-.949 1.149-1.556.738-.124-.084-.229-.196-.304-.325-.028-.049-.051-.1-.072-.152l-.507-1.351zm.75-2.001h1.614l-.807-2.152z" fill-rule="nonzero"/></svg>