<svg clip-rule="evenodd" fill-rule="evenodd" height="512" stroke-linejoin="round" stroke-miterlimit="2" viewBox="0 0 24 24" width="512" xmlns="http://www.w3.org/2000/svg"><g id="Icon"><path d="m18 18.75c.414 0 .75-.336.75-.75v-11c0-.966-.784-1.75-1.75-1.75h-11c-.414 0-.75.336-.75.75v11c0 .966.784 1.75 1.75 1.75zm-.75-1.5h-10.25c-.138 0-.25-.112-.25-.25v-10.25h10.25c.138 0 .25.112.25.25z"/><path d="m2 6.75h4c.414 0 .75-.336.75-.75s-.336-.75-.75-.75h-4c-.414 0-.75.336-.75.75s.336.75.75.75z"/><path d="m5.25 2v2c0 .414.336.75.75.75s.75-.336.75-.75v-2c0-.414-.336-.75-.75-.75s-.75.336-.75.75z"/><path d="m22 17.25h-4c-.414 0-.75.336-.75.75s.336.75.75.75h4c.414 0 .75-.336.75-.75s-.336-.75-.75-.75z"/><path d="m18.75 22v-2c0-.414-.336-.75-.75-.75s-.75.336-.75.75v2c0 .414.336.75.75.75s.75-.336.75-.75z"/></g></svg>