<svg clip-rule="evenodd" fill-rule="evenodd" height="512" stroke-linejoin="round" stroke-miterlimit="2" viewBox="0 0 24 24" width="512" xmlns="http://www.w3.org/2000/svg"><g id="Icon"><path d="m13.136 7.791c.015-.122-.057-.238-.174-.277-.116-.04-.244.008-.306.114-1.025 1.758-2.994 5.134-3.661 6.276-.046.08-.047.179-.001.259.047.08.132.13.225.13h2.135s-.299 2.386-.49 3.916c-.015.122.057.238.174.277.116.04.244-.008.306-.114 1.025-1.758 2.994-5.134 3.661-6.276.046-.08.047-.179.001-.259-.047-.08-.132-.13-.225-.13-.74 0-2.135 0-2.135 0s.299-2.386.49-3.916z"/><path d="m9.326 3.926c.558-.947 1.575-1.529 2.674-1.529s2.116.582 2.674 1.529l7.648 13.002c.564.959.571 2.147.019 3.113-.553.966-1.58 1.562-2.693 1.562h-15.296c-1.113 0-2.14-.596-2.693-1.562-.552-.966-.545-2.154.019-3.113zm1.293.761-7.648 13.002c-.291.495-.295 1.108-.01 1.607.286.499.816.807 1.391.807h15.296c.575 0 1.105-.308 1.391-.807.285-.499.281-1.112-.01-1.608l-7.648-13.001c-.288-.489-.813-.79-1.381-.79s-1.093.301-1.381.79z"/></g></svg>