<svg clip-rule="evenodd" fill-rule="evenodd" height="512" stroke-linejoin="round" stroke-miterlimit="2" viewBox="0 0 24 24" width="512" xmlns="http://www.w3.org/2000/svg"><g id="Icon"><path d="m12 7.75c-2.346 0-4.25 1.904-4.25 4.25s1.904 4.25 4.25 4.25 4.25-1.904 4.25-4.25-1.904-4.25-4.25-4.25zm0 1.5c1.518 0 2.75 1.232 2.75 2.75s-1.232 2.75-2.75 2.75-2.75-1.232-2.75-2.75 1.232-2.75 2.75-2.75z"/><path d="m12 1.25c-1.242 0-2.25 1.008-2.25 2.25s1.008 2.25 2.25 2.25 2.25-1.008 2.25-2.25-1.008-2.25-2.25-2.25zm0 1.5c.414 0 .75.336.75.75s-.336.75-.75.75-.75-.336-.75-.75.336-.75.75-.75z"/><path d="m2.69 6.625c-.621 1.075-.252 2.453.824 3.074 1.075.62 2.452.251 3.073-.824s.252-2.453-.823-3.074c-1.076-.62-2.453-.251-3.074.824zm1.299.75c.207-.358.666-.481 1.025-.275.358.207.481.667.274 1.025s-.666.481-1.024.275c-.359-.207-.482-.666-.275-1.025z"/><path d="m2.69 17.375c.621 1.075 1.998 1.444 3.074.824 1.075-.621 1.444-1.999.823-3.074s-1.998-1.444-3.073-.824c-1.076.621-1.445 1.999-.824 3.074zm1.299-.75c-.207-.358-.084-.818.275-1.025.358-.206.817-.083 1.024.275s.084.818-.274 1.025c-.359.206-.818.083-1.025-.275z"/><path d="m12 22.75c1.242 0 2.25-1.008 2.25-2.25s-1.008-2.25-2.25-2.25-2.25 1.008-2.25 2.25 1.008 2.25 2.25 2.25zm0-1.5c-.414 0-.75-.336-.75-.75s.336-.75.75-.75.75.336.75.75-.336.75-.75.75z"/><path d="m21.31 17.375c.621-1.075.252-2.453-.824-3.074-1.075-.62-2.452-.251-3.073.824s-.252 2.453.823 3.074c1.076.62 2.453.251 3.074-.824zm-1.299-.75c-.207.358-.666.481-1.025.275-.358-.207-.481-.667-.274-1.025s.666-.481 1.024-.275c.359.207.482.667.275 1.025z"/><path d="m21.31 6.625c-.621-1.075-1.998-1.444-3.074-.824-1.075.621-1.444 1.999-.823 3.074s1.998 1.444 3.073.824c1.076-.621 1.445-1.999.824-3.074zm-1.299.75c.207.358.084.818-.275 1.025-.358.206-.817.083-1.024-.275s-.084-.818.274-1.025c.359-.206.818-.083 1.025.275z"/><path d="m12.75 8.5v-3.5c0-.414-.336-.75-.75-.75s-.75.336-.75.75v3.5c0 .414.336.75.75.75s.75-.336.75-.75z"/><path d="m15.839 10.65 2.598-1.5c.359-.207.482-.667.275-1.025s-.666-.481-1.025-.275l-2.598 1.5c-.358.207-.481.667-.274 1.025s.666.481 1.024.275z"/><path d="m15.089 14.65 2.598 1.5c.359.206.818.083 1.025-.275s.084-.818-.275-1.025l-2.598-1.5c-.358-.206-.817-.083-1.024.275s-.084.818.274 1.025z"/><path d="m11.25 15.5v3.5c0 .414.336.75.75.75s.75-.336.75-.75v-3.5c0-.414-.336-.75-.75-.75s-.75.336-.75.75z"/><path d="m8.625 13.083-3.062 1.767c-.359.207-.482.667-.275 1.025s.666.481 1.025.275l3.062-1.768c.358-.207.481-.666.275-1.025-.207-.358-.667-.481-1.025-.274z"/><path d="m8.911 9.35-2.598-1.5c-.359-.206-.818-.083-1.025.275s-.084.818.275 1.025l2.598 1.5c.358.206.817.083 1.024-.275s.084-.818-.274-1.025z"/><path d="m13.114 4.143 5 3c.355.213.816.098 1.029-.257s.098-.816-.257-1.029l-5-3c-.355-.213-.816-.098-1.029.257s-.098.816.257 1.029z"/><path d="m10.114 2.857-5 3c-.355.213-.47.674-.257 1.029s.674.47 1.029.257l5-3c.355-.213.47-.674.257-1.029s-.674-.47-1.029-.257z"/><path d="m13.886 21.143 5-3c.355-.213.47-.674.257-1.029s-.674-.47-1.029-.257l-5 3c-.355.213-.47.674-.257 1.029s.674.47 1.029.257z"/><path d="m10.886 19.857-5-3c-.355-.213-.816-.098-1.029.257s-.098.816.257 1.029l5 3c.355.213.816.098 1.029-.257s.098-.816-.257-1.029z"/><path d="m18.75 9.25v5.5c0 .414.336.75.75.75s.75-.336.75-.75v-5.5c0-.414-.336-.75-.75-.75s-.75.336-.75.75z"/><path d="m3.75 9.25v5.5c0 .414.336.75.75.75s.75-.336.75-.75v-5.5c0-.414-.336-.75-.75-.75s-.75.336-.75.75z"/></g></svg>