<svg clip-rule="evenodd" fill-rule="evenodd" height="512" stroke-linejoin="round" stroke-miterlimit="2" viewBox="0 0 24 24" width="512" xmlns="http://www.w3.org/2000/svg"><g id="Icon"><path d="m17 22.75c.414 0 .75-.336.75-.75v-19c0-.966-.784-1.75-1.75-1.75h-8c-.966 0-1.75.784-1.75 1.75v19c0 .414.336.75.75.75zm-.75-1.5h-8.5v-18.25c0-.138.112-.25.25-.25h8c.138 0 .25.112.25.25z"/><path d="m21 22.75c.414 0 .75-.336.75-.75v-15c0-.966-.784-1.75-1.75-1.75h-3c-.414 0-.75.336-.75.75v16c0 .414.336.75.75.75zm-.75-1.5h-2.5v-14.5h2.25c.138 0 .25.112.25.25z"/><path d="m7 22.75c.414 0 .75-.336.75-.75v-16c0-.414-.336-.75-.75-.75h-3c-.966 0-1.75.784-1.75 1.75v15c0 .414.336.75.75.75zm-.75-1.5h-2.5v-14.25c0-.138.112-.25.25-.25h2.25z"/><path d="m2.129 22.75h19.871c.414 0 .75-.336.75-.75s-.336-.75-.75-.75h-19.871c-.414 0-.75.336-.75.75s.336.75.75.75z"/><path d="m9.25 15.5v6.5c0 .414.336.75.75.75h4c.414 0 .75-.336.75-.75v-6.5c0-.332-.132-.649-.366-.884-.235-.234-.553-.366-.884-.366-.769 0-2.231 0-3 0-.331 0-.649.132-.884.366-.234.235-.366.552-.366.884zm4 .25v5.5h-2.5v-5.5z"/><g fill-rule="nonzero"><path d="m10.25 12.5h-.5c-.276 0-.5-.224-.5-.5v-.5c0-.276.224-.5.5-.5h.5c.276 0 .5.224.5.5v.5c0 .276-.224.5-.5.5"/><path d="m14.25 12.5h-.5c-.276 0-.5-.224-.5-.5v-.5c0-.276.224-.5.5-.5h.5c.276 0 .5.224.5.5v.5c0 .276-.224.5-.5.5"/><path d="m10.25 9.5h-.5c-.276 0-.5-.224-.5-.5v-.5c0-.276.224-.5.5-.5h.5c.276 0 .5.224.5.5v.5c0 .276-.224.5-.5.5"/><path d="m14.25 9.5h-.5c-.276 0-.5-.224-.5-.5v-.5c0-.276.224-.5.5-.5h.5c.276 0 .5.224.5.5v.5c0 .276-.224.5-.5.5"/><path d="m10.25 6.5h-.5c-.276 0-.5-.224-.5-.5v-.5c0-.276.224-.5.5-.5h.5c.276 0 .5.224.5.5v.5c0 .276-.224.5-.5.5"/><path d="m14.25 6.5h-.5c-.276 0-.5-.224-.5-.5v-.5c0-.276.224-.5.5-.5h.5c.276 0 .5.224.5.5v.5c0 .276-.224.5-.5.5"/></g></g></svg>