<svg clip-rule="evenodd" fill-rule="evenodd" stroke-linejoin="round" stroke-miterlimit="1.414" viewBox="0 0 32 32" xmlns="http://www.w3.org/2000/svg" xmlns:serif="http://www.serif.com/"><path id="socks-basketball-player-" d="m0 0h32v32h-32z" fill="none"/><path d="m24.979 21.105c-2.192.482-3.991 2.51-3.999 4.889v.883l-.028.006c2.205-.488 4.02-2.521 4.027-4.92zm-5.594 5.894-.394.003h.012zm.63-.005-.511.004c.171-.001.341-.002.511-.004.01 0 .02 0 .03-.001zm.061-.001h-.02zm.03-.001h-.018zm.031-.002-.018.001zm.03-.001-.017.001zm.031-.002-.017.001.016-.001zm.03-.001-.016.001zm.031-.002-.017.001.016-.001zm.03-.003-.017.002.016-.002zm.03-.002-.016.001zm.031-.003-.017.002.016-.002zm.03-.002-.017.001.016-.001zm.03-.003-.017.001.016-.001zm.031-.004-.018.002.016-.001zm.03-.003-.018.002.016-.002zm.03-.004-.018.003.016-.002zm.03-.003-.018.002.016-.002zm.03-.004-.019.002.017-.002zm.03-.004-.019.002.017-.002zm.03-.005-.019.003.017-.003zm.031-.004-.021.003.018-.003zm.03-.005-.021.003.018-.003zm.03-.005-.022.003.019-.003zm.029-.005-.022.004.02-.004zm.03-.006-.022.004.019-.003zm.03-.005-.023.004.02-.003zm.03-.006-.024.005.021-.004zm.03-.006-.025.005.021-.004zm.03-.006-.026.005.022-.004zm.03-.006-.027.006.022-.005zm.029-.007-.027.006.023-.005zm5.653-18.088c-.007.006-.014.011-.021.017.007-.006.014-.011.021-.017zm.102-.094c-.012.014-.025.027-.038.039.013-.012.026-.025.038-.039zm.029-.033c.006-.007.011-.013.016-.02l-.011.014zm.113-.168c-.017.032-.036.063-.056.092.017-.024.032-.05.047-.076zm.055-.116c-.007.017-.015.034-.022.05.01-.022.02-.044.029-.067zm-.923.615c.239-.008.429-.068.578-.17-.149.102-.339.162-.578.17zm-5.999 0c-.87-.028-1.397-1.447-.425-1.905.125-.059.194-.088.425-.095h4.999v-1.999h-7.998v2.999s-.144.812-.751.968c-.593.152-1.226-.253-1.248-.968v-3.999c.006-.193.021-.225.049-.309.13-.402.434-.675.95-.691h9.998c.021.001.042.001.063.002.192.018.223.036.305.068.372.148.616.432.632.93v3.999c0 4.67.014 9.341 0 14.011-.035 3.64-3.195 6.948-6.984 6.984-2.685.008-5.371.008-8.056 0-2.775-.026-5.429-1.836-6.454-4.399-1.107-2.768-.204-6.211 2.143-8.079 1.213-.965 2.748-1.504 4.309-1.519h3.045v-2.999c.028-.646.31-.782.577-.906.547-.255 1.297.109 1.407.732.013.077.012.097.015.174v3.999c-.023.537-.462.976-1 1-1.354 0-2.709-.013-4.064 0-2.644.042-5.015 2.461-4.931 5.154.078 2.524 2.276 4.802 4.934 4.843 2.356.022 4.711.025 7.067.008.029-1.674.187-3.326 1.051-4.71 1.074-1.719 2.925-2.913 4.941-3.219v-10.074zm6.791-.379-.01.014z" fill-rule="nonzero"/></svg>