<svg height="512" viewBox="0 0 32 32" width="512" xmlns="http://www.w3.org/2000/svg"><g id="hospital_health_sick_pharmacy" data-name="hospital, health, sick, pharmacy"><path d="m16 17a1 1 0 0 0 1-1v-1h1a1 1 0 0 0 0-2h-1v-1a1 1 0 0 0 -2 0v1h-1a1 1 0 0 0 0 2h1v1a1 1 0 0 0 1 1z"/><path d="m28 13h-5v-1a1 1 0 0 0 -2 0v15h-2v-5a1 1 0 0 0 -1-1h-4a1 1 0 0 0 -1 1v5h-2v-18h13a1 1 0 0 0 1-1v-4a1 1 0 0 0 -1-1h-16a1 1 0 0 0 -1 1v4a1 1 0 0 0 1 1h1v4h-5a1 1 0 0 0 -1 1v10a1 1 0 0 0 2 0v-9h4v12h-5a1 1 0 0 0 0 2h10a1 1 0 0 0 1-1v-5h2v5a1 1 0 0 0 1 1h10a1 1 0 0 0 1-1v-14a1 1 0 0 0 -1-1zm-19-8h14v2h-14zm18 22h-4v-12h4z"/></g></svg>