<svg clip-rule="evenodd" fill-rule="evenodd" height="512" stroke-linejoin="round" stroke-miterlimit="2" viewBox="0 0 24 24" width="512" xmlns="http://www.w3.org/2000/svg"><g id="Icon"><path d="m13.859 5.263-1.859-2.124-1.859 2.124c.347.066.609.371.609.737v4.72c0 .414-.336.75-.75.75s-.75-.336-.75-.75v-3.97h-.75c-.294 0-.561-.172-.683-.44s-.075-.582.119-.804l3.5-4c.142-.163.348-.256.564-.256s.422.093.564.256l3.5 4c.194.222.241.536.119.804s-.389.44-.683.44h-.75v9.75c0 .414-.336.75-.75.75s-.75-.336-.75-.75v-10.5c0-.366.262-.671.609-.737z"/><path d="m18.737 14.359 2.124-1.859-2.124-1.859c-.066.347-.371.609-.737.609h-2c-.602 0-1.193.103-1.75.3-.39.138-.819-.067-.957-.457s.067-.819.457-.957c.716-.253 1.476-.386 2.25-.386h1.25v-.75c0-.294.172-.561.44-.683s.582-.075.804.119l4 3.5c.163.142.256.348.256.564s-.093.422-.256.564l-4 3.5c-.222.194-.536.241-.804.119s-.44-.389-.44-.683v-.75h-1.25c-.332 0-.649.132-.884.366-.234.235-.366.552-.366.884 0 .414-.336.75-.75.75s-.75-.336-.75-.75c0-.729.29-1.429.805-1.945.516-.515 1.216-.805 1.945-.805h2c.366 0 .671.262.737.609z"/><path d="m6.75 9.75h1.25c1.79 0 3.507.711 4.773 1.977s1.977 2.983 1.977 4.773v5.5c0 .414-.336.75-.75.75h-4c-.414 0-.75-.336-.75-.75v-5.5c0-.332-.132-.649-.366-.884-.235-.234-.552-.366-.884-.366h-1.25v.75c0 .294-.172.561-.44.683s-.582.075-.804-.119l-4-3.5c-.163-.142-.256-.348-.256-.564s.093-.422.256-.564l4-3.5c.222-.194.536-.241.804-.119s.44.389.44.683zm-1.487 4.609c.066-.347.371-.609.737-.609h2c.729 0 1.429.29 1.945.805.515.516.805 1.216.805 1.945v4.75h2.5v-4.75c0-1.392-.553-2.728-1.538-3.712-.984-.985-2.32-1.538-3.712-1.538h-2c-.366 0-.671-.262-.737-.609l-2.124 1.859z"/></g></svg>