<svg clip-rule="evenodd" fill-rule="evenodd" height="512" stroke-linejoin="round" stroke-miterlimit="2" viewBox="0 0 134 134" width="512" xmlns="http://www.w3.org/2000/svg"><path d="m45.832 41.809.001-.142c0-6.904 5.597-12.5 12.5-12.5h16.667c6.904 0 12.5 5.596 12.5 12.5v.974c.001 5.405 2.101 10.597 5.805 14.427 6.739 6.714 10.862 16.012 10.862 26.265 0 20.697-16.804 37.5-37.5 37.5-20.697 0-37.5-16.803-37.5-37.5 0-10.238 4.111-19.524 10.747-26.268 3.742-3.869 5.833-9.041 5.833-14.423 0-.28.028-.559.085-.833zm8.244 1.242c-.102 7.397-3.023 14.483-8.197 19.833-5.18 5.265-8.379 12.487-8.379 20.449 0 16.098 13.069 29.167 29.167 29.167 16.097 0 29.166-13.069 29.166-29.167 0-7.947-3.187-15.157-8.464-20.416-5.26-5.439-8.201-12.708-8.202-20.275v-.975c0-2.302-1.866-4.167-4.167-4.167-5.09 0-11.577 0-16.667 0-2.301 0-4.166 1.865-4.166 4.167 0 .46-.02.92-.091 1.384zm-8.004 50.006c1.792 5.063 5.808 9.079 10.871 10.871 2.168.767 4.551-.37 5.318-2.538.768-2.168-.37-4.551-2.538-5.318-2.699-.955-4.84-3.096-5.795-5.795-.767-2.168-3.15-3.306-5.318-2.538-2.168.767-3.305 3.15-2.538 5.318zm12.261-72.224h16.667c2.3 0 4.167-1.867 4.167-4.166 0-2.3-1.867-4.167-4.167-4.167h-16.667c-2.299 0-4.166 1.867-4.166 4.167 0 2.299 1.867 4.166 4.166 4.166z"/></svg>