<svg clip-rule="evenodd" fill-rule="evenodd" height="512" stroke-linejoin="round" stroke-miterlimit="2" viewBox="0 0 24 24" width="512" xmlns="http://www.w3.org/2000/svg"><g id="Icon"><path d="m4 8.25c-1.518 0-2.75 1.232-2.75 2.75v4c0 1.518 1.232 2.75 2.75 2.75h1c.966 0 1.75-.783 1.75-1.75v-6c0-.967-.784-1.75-1.75-1.75h-.985zm1.25 7.75c0 .138-.112.25-.25.25h-1.001c-.69-.001-1.249-.56-1.249-1.25v-4c0-.69.56-1.25 1.25-1.25h1c.138 0 .25.112.25.25z"/><path d="m19 17.75h1c1.518 0 2.75-1.232 2.75-2.75v-4c0-1.518-1.232-2.75-2.75-2.75h-.014c-.086 0-.536 0-.986 0-.966 0-1.75.783-1.75 1.75v6c0 .967.784 1.75 1.75 1.75zm1-1.5h-.014-.986c-.138 0-.25-.112-.25-.25v-6c0-.138.112-.25.25-.25h1c.69 0 1.25.56 1.25 1.25v4c0 .69-.56 1.25-1.25 1.25z"/><path d="m13 22.75c.966 0 1.75-.784 1.75-1.75s-.784-1.75-1.75-1.75h-1c-.966 0-1.75.784-1.75 1.75s.784 1.75 1.75 1.75zm0-1.5h-1c-.138 0-.25-.112-.25-.25s.112-.25.25-.25h1c.138 0 .25.112.25.25s-.112.25-.25.25z"/><path d="m14 21.75h1c2.623 0 4.75-2.127 4.75-4.75 0-.414-.336-.75-.75-.75s-.75.336-.75.75c0 1.795-1.455 3.25-3.25 3.25h-1c-.414 0-.75.336-.75.75s.336.75.75.75z"/><path d="m19.961 9.749.039.001.032-.003c.144-.019.718-.132.718-.749 0-4.279-3.469-7.748-7.748-7.748-.665 0-1.339 0-2.004 0-4.279 0-7.748 3.469-7.748 7.748 0-.041.003-.075.008-.102-.005.033-.008.068-.008.104 0 .414.336.75.75.75 0 0 .75-.046.75-.752 0-3.451 2.797-6.248 6.248-6.248h2.004c3.451 0 6.248 2.797 6.248 6.248v.002c0 .016.001.032.002.048.011.225.103.379.218.483.128.127.3.208.491.218z"/></g></svg>