<svg clip-rule="evenodd" fill-rule="evenodd" height="512" stroke-linejoin="round" stroke-miterlimit="2" viewBox="0 0 24 24" width="512" xmlns="http://www.w3.org/2000/svg"><g id="Icon"><path d="m22.75 17.5c0-1.105-.895-2-2-2h-17.5c-1.105 0-2 .895-2 2s.895 2 2 2h17.5c1.105 0 2-.895 2-2zm-1.5 0c0 .276-.224.5-.5.5h-17.5c-.276 0-.5-.224-.5-.5 0-.276.224-.5.5-.5h17.5c.276 0 .5.224.5.5z"/><path d="m3.75 16.25c0-4.553 3.697-8.25 8.25-8.25s8.25 3.697 8.25 8.25c0 .414.336.75.75.75s.75-.336.75-.75c0-5.381-4.369-9.75-9.75-9.75s-9.75 4.369-9.75 9.75c0 .414.336.75.75.75s.75-.336.75-.75z"/><path d="m12.75 7.25v-2c0-.414-.336-.75-.75-.75s-.75.336-.75.75v2c0 .414.336.75.75.75s.75-.336.75-.75z"/><path d="m10.5 6h3c.414 0 .75-.336.75-.75s-.336-.75-.75-.75h-3c-.414 0-.75.336-.75.75s.336.75.75.75z"/></g></svg>