<svg clip-rule="evenodd" fill-rule="evenodd" height="512" stroke-linejoin="round" stroke-miterlimit="2" viewBox="0 0 24 24" width="512" xmlns="http://www.w3.org/2000/svg"><g id="Icon"><circle cx="6" cy="18" r="1"/><circle cx="6" cy="12" r="1"/><circle cx="6" cy="6" r="1"/><path d="m9 18.75h9c.414 0 .75-.336.75-.75s-.336-.75-.75-.75h-9c-.414 0-.75.336-.75.75s.336.75.75.75z"/><path d="m9 12.75h5c.414 0 .75-.336.75-.75s-.336-.75-.75-.75h-5c-.414 0-.75.336-.75.75s.336.75.75.75z"/><path d="m9 6.75h1c.414 0 .75-.336.75-.75s-.336-.75-.75-.75h-1c-.414 0-.75.336-.75.75s.336.75.75.75z"/><path d="m22.75 15c0-.414-.336-.75-.75-.75h-20c-.414 0-.75.336-.75.75v6c0 .414.336.75.75.75h20c.414 0 .75-.336.75-.75zm-1.5.75v4.5h-18.5v-4.5z"/><path d="m18.75 9c0-.414-.336-.75-.75-.75h-16c-.414 0-.75.336-.75.75v6c0 .414.336.75.75.75h16c.414 0 .75-.336.75-.75zm-1.5.75v4.5h-14.5v-4.5z"/><path d="m14.75 3c0-.414-.336-.75-.75-.75h-12c-.414 0-.75.336-.75.75v6c0 .414.336.75.75.75h12c.414 0 .75-.336.75-.75zm-1.5.75v4.5h-10.5v-4.5z"/></g></svg>