<svg id="Capa_1" enable-background="new 0 0 512 512" height="512" viewBox="0 0 512 512" width="512" xmlns="http://www.w3.org/2000/svg"><g id="Icon" clip-rule="evenodd" fill-rule="evenodd"><path d="m444.693 199.381c0-8.363-2.816-16.491-7.979-23.061-18.154-23.104-85.247-108.501-106.367-135.381-7.083-9.003-17.899-14.272-29.355-14.272h-202.965c-20.629 0-37.333 16.725-37.333 37.333v362.667c0 15.552 6.165 30.485 17.173 41.493 11.008 10.987 25.92 17.173 41.493 17.173h266.667c32.405 0 58.667-26.261 58.667-58.667zm-32 0v227.285c0 14.72-11.947 26.667-26.667 26.667h-266.666c-7.083 0-13.867-2.816-18.859-7.808-5.013-5.013-7.808-11.776-7.808-18.859v-362.666c0-2.944 2.389-5.333 5.333-5.333h202.965c1.621 0 3.179.747 4.181 2.048 21.12 26.859 88.235 112.277 106.368 135.36.748.938 1.153 2.112 1.153 3.306z"/><path d="m151.36 133.333h106.667c8.832 0 16-7.168 16-16s-7.168-16-16-16h-106.667c-8.832 0-16 7.168-16 16s7.168 16 16 16z"/><path d="m445.504 97.579-49.067-61.675c-9.173-11.52-25.941-13.44-37.461-4.267l-34.923 27.776c-6.912 5.504-8.064 15.573-2.56 22.485l62.357 78.357c5.504 6.912 15.573 8.064 22.485 2.56l34.923-27.776c11.521-9.172 13.419-25.94 4.246-37.46zm-70.784-37.59 42.432 53.333-18.219 14.485c0 .021-42.432-53.312-42.432-53.312s18.219-14.506 18.219-14.506z"/><path d="m359.36 256c0-8.832-7.168-16-16-16h-21.333c-21.227 0-41.579 8.427-56.576 23.424-14.997 15.019-23.424 35.349-23.424 56.576v21.333c0 8.832 7.168 16 16 16h21.333c21.205 0 41.557-8.427 56.555-23.424 15.019-15.019 23.445-35.349 23.445-56.576zm-32 16v5.333c0 12.736-5.056 24.939-14.059 33.941-9.003 9.003-21.205 14.059-33.941 14.059h-5.333v-5.333c0-12.736 5.056-24.939 14.059-33.941 9.003-9.003 21.205-14.059 33.941-14.059z"/><path d="m151.36 218.667c-8.832 0-16 7.168-16 16v26.667c0 25.451 10.112 49.877 28.117 67.883 18.005 18.005 42.411 28.117 67.883 28.117h26.667c8.832 0 16-7.168 16-16v-26.667c0-25.451-10.112-49.877-28.117-67.883s-42.432-28.117-67.883-28.117zm16 32h10.667c16.96 0 33.237 6.741 45.248 18.752 12.011 11.989 18.752 28.267 18.752 45.248v10.667h-10.667c-16.981 0-33.259-6.741-45.269-18.752-11.989-11.989-18.731-28.267-18.731-45.248z"/><path d="m242.027 341.333v42.667c0 8.832 7.168 16 16 16s16-7.168 16-16v-42.667c0-8.832-7.168-16-16-16s-16 7.168-16 16z"/></g></svg>