<svg height="512" viewBox="0 0 32 32" width="512" xmlns="http://www.w3.org/2000/svg"><g id="graduation_hat_educate" data-name="graduation, hat, educate"><path d="m28.4473 13.0938-12-6a1.0008 1.0008 0 0 0 -.8946 0l-12 6a1 1 0 0 0 0 1.789l12 6a1.001 1.001 0 0 0 .8946 0l4.5527-2.2764v2.8389a8.762 8.762 0 0 1 -10-.001v-.5043a1 1 0 0 0 -2 0v1.0488a.9988.9988 0 0 0 .4414.8291 11.6878 11.6878 0 0 0 6.564 2.2021 11.6352 11.6352 0 0 0 6.5546-2.2036.9993.9993 0 0 0 .44-.8281v-4.3819l1.333-.6665v3.0484a1 1 0 0 0 2 0v-4.0483l2.1143-1.0571a1 1 0 0 0 0-1.789zm-12.4473 5.7762-9.7642-4.8817 9.7642-4.8819 9.7642 4.8819-.6078.3038-9.0143-1.2941a1 1 0 0 0 -.2842 1.9805l6.1586.8835z"/></g></svg>