<svg height="512" viewBox="0 0 32 32" width="512" xmlns="http://www.w3.org/2000/svg"><g id="Layer_48" data-name="Layer 48"><path d="m13 11h2v2h-2z"/><path d="m13 15h2v2h-2z"/><path d="m13 19h2v2h-2z"/><path d="m17 11h2v2h-2z"/><path d="m17 15h2v2h-2z"/><path d="m17 19h2v2h-2z"/><path d="m28 27h-5v-12h2v9a1 1 0 0 0 2 0v-10a1 1 0 0 0 -1-1h-3v-3a1 1 0 0 0 -.5527-.8945l-12-6a1 1 0 0 0 -1.4473.8945v3h-3a1 1 0 0 0 -1 1v19h-1a1 1 0 0 0 0 2h24a1 1 0 0 0 0-2zm-21-18h2v15a1 1 0 0 0 2 0v-18.3818l10 5v16.3818h-2v-3a1 1 0 0 0 -1-1h-4a1 1 0 0 0 -1 1v3h-6zm10 18h-2v-2h2z"/></g></svg>