<svg clip-rule="evenodd" fill-rule="evenodd" height="512" stroke-linejoin="round" stroke-miterlimit="2" viewBox="0 0 24 24" width="512" xmlns="http://www.w3.org/2000/svg"><g id="Icon"><circle cx="7.75" cy="9.75" r=".75"/><circle cx="7.75" cy="13.5" r=".75"/><circle cx="7.75" cy="17.25" r=".75"/><path d="m16.75 4v-1c0-.967-.784-1.75-1.75-1.75h-6c-.966 0-1.75.783-1.75 1.75v1c0 .967.784 1.75 1.75 1.75h6c.966 0 1.75-.783 1.75-1.75zm-1.5-1v1c0 .138-.112.25-.25.25h-6c-.138 0-.25-.112-.25-.25v-1c0-.138.112-.25.25-.25h6c.138 0 .25.112.25.25z"/><path d="m8 2.75h-2c-1.519 0-2.75 1.231-2.75 2.75v14.5c0 1.519 1.231 2.75 2.75 2.75h12c1.519 0 2.75-1.231 2.75-2.75v-14.5c0-1.519-1.231-2.75-2.75-2.75-1 0-2 0-2 0-.414 0-.75.336-.75.75s.336.75.75.75h2c.69 0 1.25.56 1.25 1.25v14.5c0 .69-.56 1.25-1.25 1.25h-12c-.69 0-1.25-.56-1.25-1.25v-14.5c0-.69.56-1.25 1.25-1.25h2c.414 0 .75-.336.75-.75s-.336-.75-.75-.75z"/><path d="m10.5 10.5h6.5c.414 0 .75-.336.75-.75s-.336-.75-.75-.75h-6.5c-.414 0-.75.336-.75.75s.336.75.75.75z"/><path d="m10.5 14.25h6.5c.414 0 .75-.336.75-.75s-.336-.75-.75-.75h-6.5c-.414 0-.75.336-.75.75s.336.75.75.75z"/><path d="m10.5 18h6.5c.414 0 .75-.336.75-.75s-.336-.75-.75-.75h-6.5c-.414 0-.75.336-.75.75s.336.75.75.75z"/></g></svg>