<svg clip-rule="evenodd" fill-rule="evenodd" stroke-linejoin="round" stroke-miterlimit="2" viewBox="0 0 32 32" xmlns="http://www.w3.org/2000/svg" xmlns:serif="http://www.serif.com/"><path id="video-call-new-vc-conference" d="m0 0h32v32h-32z" fill="none"/><path d="m19.042 12.855c-.006-.957-.017-1.914-.035-2.871-.016-.509-.459-.957-.973-.973-4.014-.076-8.03-.076-12.044 0-.509.016-.956.462-.972.973-.077 4.013-.075 8.029 0 12.042.015.512.466.965.986.975h8.007s.709.1.923.617c.248.599-.217 1.354-.923 1.381-2.677 0-5.355.017-8.032 0-1.547-.029-2.93-1.366-2.96-2.96-.025-4.023-.026-8.045 0-12.067.029-1.547 1.368-2.929 2.959-2.959 4.023-.026 8.046-.026 12.068 0 1.54.029 2.929 1.343 2.96 2.959.003.53.006 1.06.008 1.591l6.636-2.489c.1-.033.139-.067.405-.062.211.019.245.04.334.077.359.152.597.526.611.921v11.991c-.016.465-.115.499-.228.636-.265.322-.631.465-1.122.3l-3.997-1.499c-.234-.096-.291-.155-.391-.266-.578-.64.029-1.963 1.092-1.605l2.647.993v-9.108l-5.979 2.242c.007 2.782.001 5.564-.016 8.346-.03 1.552-1.367 2.949-2.995 2.959 0 0-.537-.034-.812-.412-.399-.55-.026-1.466.653-1.574.19-.03.128-.001.284-.02.474-.063.862-.496.871-.978.019-2.986.052-5.973.036-8.959-.007-.067-.008-.134-.001-.201zm-8.029 2.152v-2.998c.005-.183.022-.233.056-.33.137-.392.445-.656.943-.67.019.001.038.001.056.002.182.015.232.035.327.074.366.152.603.445.617.924v2.998h2.997c.019 0 .038.001.056.001.531.045.582.195.726.375.442.555.069 1.576-.726 1.621-.018.001-.037.001-.056.001h-2.997v2.998c-.025.869-1.427 1.416-1.9.434-.062-.13-.093-.205-.099-.434v-2.998h-2.998c-.867-.024-1.408-1.43-.433-1.9.129-.062.204-.092.433-.098z"/></svg>