<svg clip-rule="evenodd" fill-rule="evenodd" height="512" stroke-linejoin="round" stroke-miterlimit="2" viewBox="0 0 24 24" width="512" xmlns="http://www.w3.org/2000/svg"><g id="Icon"><path d="m6.25 4.065v13.386c0 1.268 1.034 2.299 2.315 2.299h9.349c.751 0 1.471-.296 2.003-.822.534-.529.833-1.246.833-1.993 0 0 0-8.865 0-12.935 0-.729-.29-1.429-.805-1.945-.516-.515-1.216-.805-1.945-.805-3.15 0-8.914 0-8.914 0-.751 0-1.471.296-2.003.822-.534.529-.833 1.246-.833 1.993zm1.5 13.386v-13.386c0-.348.14-.681.389-.927.251-.249.592-.388.947-.388h8.914c.332 0 .649.132.884.366.234.235.366.552.366.884v12.935c0 .348-.14.681-.389.927-.251.249-.592.388-.947.388h-9.349c-.448 0-.815-.356-.815-.799z"/><path d="m7 4.25h-.914c-.751 0-1.471.296-2.003.822-.534.529-.833 1.246-.833 1.993v13.386c0 1.268 1.034 2.299 2.315 2.299h9.349c.751 0 1.471-.296 2.003-.822.534-.529.833-1.246.833-1.993v-.935c0-.414-.336-.75-.75-.75s-.75.336-.75.75v.935c0 .348-.14.681-.389.927-.251.249-.592.388-.947.388h-9.349c-.448 0-.815-.356-.815-.799v-13.386c0-.348.14-.681.389-.927.251-.249.592-.388.947-.388h.914c.414 0 .75-.336.75-.75s-.336-.75-.75-.75z"/><path d="m11.75 7.5h3.5c.414 0 .75-.336.75-.75s-.336-.75-.75-.75h-3.5c-.414 0-.75.336-.75.75s.336.75.75.75z"/><path d="m10.75 11.5h5.5c.414 0 .75-.336.75-.75s-.336-.75-.75-.75h-5.5c-.414 0-.75.336-.75.75s.336.75.75.75z"/><path d="m10.75 15h5.5c.414 0 .75-.336.75-.75s-.336-.75-.75-.75h-5.5c-.414 0-.75.336-.75.75s.336.75.75.75z"/></g></svg>