<svg clip-rule="evenodd" fill-rule="evenodd" height="512" stroke-linejoin="round" stroke-miterlimit="2" viewBox="0 0 24 24" width="512" xmlns="http://www.w3.org/2000/svg"><g id="Icon"><path d="m19.75 6.999c0-.198-.079-.389-.22-.53s-.332-.22-.53-.22l-14 .001c-.199 0-.39.079-.531.22-.14.14-.219.331-.219.53 0 .841.402 1.817 1.032 2.462.478.489 1.079.787 1.718.787h10c.729 0 1.428-.289 1.944-.805.216-.216.413-.569.549-.975.169-.504.257-1.09.257-1.47zm-1.608.75c-.021.083-.045.164-.071.243-.053.158-.104.307-.188.391-.234.235-.552.366-.883.366h-10c-.246 0-.461-.147-.645-.336-.181-.185-.333-.417-.439-.664.001.001 12.226.001 12.226.001z"/><path d="m17 7.749c.414.001.75-.335.75-.75 0-3.175-2.575-5.75-5.75-5.75-3.176 0-5.75 2.575-5.75 5.75 0 .415.335.75.75.75zm-.816-1.5h-8.368c.354-1.989 2.093-3.5 4.184-3.5s3.829 1.511 4.184 3.501z"/><path d="m12 16.749c3.175 0 5.75-2.574 5.75-5.75v-1.5c0-.414-.336-.75-.75-.75h-10c-.415 0-.75.336-.75.751v1.499c0 3.176 2.574 5.75 5.75 5.75zm0-1.5c-2.347 0-4.25-1.903-4.25-4.25v-.749c0-.001 8.5-.001 8.5-.001v.75c0 2.347-1.904 4.25-4.25 4.25z"/><path d="m8.74 14.282s-2.072.627-3.536 1.07c-1.161.351-1.954 1.42-1.954 2.632v3.016c0 .966.783 1.75 1.75 1.75h14c.967 0 1.75-.784 1.75-1.75v-3.016c0-1.212-.793-2.281-1.954-2.632l-3.536-1.07c-.396-.12-.815.105-.935.501s.104.815.5.935l3.537 1.07c.527.16.888.645.888 1.196v3.016c0 .138-.112.25-.25.25h-14c-.138 0-.25-.112-.25-.25v-3.016c0-.551.361-1.036.888-1.196 0 0 3.536-1.07 3.536-1.07.396-.12.621-.539.501-.935s-.539-.621-.935-.501z"/><path d="m15.75 15.5v6.5c0 .414.336.75.75.75s.75-.336.75-.75v-6.5c0-.414-.336-.75-.75-.75s-.75.336-.75.75z"/><path d="m6.75 15.5v6.5c0 .414.336.75.75.75s.75-.336.75-.75v-6.5c0-.414-.336-.75-.75-.75s-.75.336-.75.75z"/></g></svg>