<svg clip-rule="evenodd" fill-rule="evenodd" height="512" stroke-linejoin="round" stroke-miterlimit="2" viewBox="0 0 24 24" width="512" xmlns="http://www.w3.org/2000/svg"><g id="Icon"><path d="m11.25 2v1.5c0 .414.336.75.75.75s.75-.336.75-.75v-1.5c0-.414-.336-.75-.75-.75s-.75.336-.75.75z"/><path d="m11.25 7.5v2.5c0 .414.336.75.75.75s.75-.336.75-.75v-2.5c0-.414-.336-.75-.75-.75s-.75.336-.75.75z"/><path d="m11.25 14v5.5c0 .414.336.75.75.75s.75-.336.75-.75v-5.5c0-.414-.336-.75-.75-.75s-.75.336-.75.75z"/><path d="m17.53 2.97c-.14-.141-.331-.22-.53-.22h-10c-.414 0-.75.336-.75.75v4c0 .414.336.75.75.75h10c.199 0 .39-.079.53-.22l2-2c.293-.293.293-.767 0-1.06zm-.841 1.28 1.25 1.25s-1.25 1.25-1.25 1.25h-8.939v-2.5z"/><path d="m7 9.25c-.199 0-.39.079-.53.22l-2 2c-.293.293-.293.767 0 1.06l2 2c.14.141.331.22.53.22h10c.414 0 .75-.336.75-.75v-4c0-.414-.336-.75-.75-.75zm.311 1.5h8.939v2.5h-8.939s-1.25-1.25-1.25-1.25z"/><path d="m19 21.25h-14c-.414 0-.75.336-.75.75s.336.75.75.75h14c.414 0 .75-.336.75-.75s-.336-.75-.75-.75z"/><path d="m8.319 22.376c.735-1.27 2.109-2.126 3.681-2.126s2.946.856 3.681 2.126c.208.358.667.48 1.025.273s.481-.667.273-1.025c-.994-1.718-2.853-2.874-4.979-2.874s-3.985 1.156-4.979 2.874c-.208.358-.085.818.273 1.025s.817.085 1.025-.273z"/></g></svg>