<svg clip-rule="evenodd" fill-rule="evenodd" height="512" stroke-linejoin="round" stroke-miterlimit="2" viewBox="0 0 24 24" width="512" xmlns="http://www.w3.org/2000/svg"><g id="Icon"><path d="m23.25 17.5c0-2.898-2.352-5.25-5.25-5.25s-5.25 2.352-5.25 5.25 2.352 5.25 5.25 5.25 5.25-2.352 5.25-5.25zm-1.5 0c0 2.07-1.68 3.75-3.75 3.75s-3.75-1.68-3.75-3.75 1.68-3.75 3.75-3.75 3.75 1.68 3.75 3.75z"/><path d="m14.25 9c0-2.622-2.128-4.75-4.75-4.75s-4.75 2.128-4.75 4.75 2.128 4.75 4.75 4.75 4.75-2.128 4.75-4.75zm-1.5 0c0 1.794-1.456 3.25-3.25 3.25s-3.25-1.456-3.25-3.25 1.456-3.25 3.25-3.25 3.25 1.456 3.25 3.25z"/><path d="m11.75 9c0-1.741-.411-3.243-.953-3.993-.378-.522-.843-.757-1.297-.757s-.919.235-1.297.757c-.542.75-.953 2.252-.953 3.993s.411 3.243.953 3.993c.378.522.843.757 1.297.757s.919-.235 1.297-.757c.542-.75.953-2.252.953-3.993zm-2.25-3.195c.063.074.161.197.218.309.333.65.532 1.703.532 2.886s-.199 2.236-.532 2.886c-.057.112-.155.235-.218.309-.063-.074-.161-.197-.218-.309-.333-.65-.532-1.703-.532-2.886s.199-2.236.532-2.886c.057-.112.155-.235.218-.309z"/><path d="m17.75 10s0-3.63 0-6c0-1.519-1.231-2.75-2.75-2.75h-10.593c-.838 0-1.642.336-2.235.934-.59.596-.922 1.403-.922 2.246v15.748c0 1.422 1.146 2.572 2.556 2.572h7.944c.414 0 .75-.336.75-.75s-.336-.75-.75-.75h-7.944c-.585 0-1.056-.482-1.056-1.072v-15.748c0-.447.175-.875.488-1.19.31-.314.731-.49 1.169-.49h10.593c.69 0 1.25.56 1.25 1.25v6c0 .414.336.75.75.75s.75-.336.75-.75z"/><circle cx="18" cy="19.937" r=".75"/><path d="m18.75 17.812v-2.5c0-.413-.336-.749-.75-.75-.414 0-.75.337-.75.75v2.5c0 .414.336.751.75.75.414 0 .75-.336.75-.75z"/><path d="m13.5 8.25h-8c-.414 0-.75.336-.75.75s.336.75.75.75h8c.414 0 .75-.336.75-.75s-.336-.75-.75-.75z"/><path d="m6 18.25h4.5c.414 0 .75-.336.75-.75s-.336-.75-.75-.75h-4.5c-.414 0-.75.336-.75.75s.336.75.75.75z"/></g></svg>