<svg clip-rule="evenodd" fill-rule="evenodd" height="512" stroke-linejoin="round" stroke-miterlimit="2" viewBox="0 0 24 24" width="512" xmlns="http://www.w3.org/2000/svg"><g id="Icon"><path d="m16 19.75h-11.5c-1.243 0-2.25-1.007-2.25-2.25v-14c0-1.243 1.007-2.25 2.25-2.25h11.5c1.243 0 2.25 1.007 2.25 2.25v14c0 1.243-1.007 2.25-2.25 2.25zm0-1.5c.414 0 .75-.336.75-.75v-14c0-.414-.336-.75-.75-.75h-11.5c-.414 0-.75.336-.75.75v14c0 .414.336.75.75.75z"/><path d="m19.5 22.75h-11.5c-1.243 0-2.25-1.007-2.25-2.25v-1.5c0-.414.336-.75.75-.75h10c.138 0 .25-.112.25-.25v-13c0-.414.336-.75.75-.75h2c.597 0 1.169.237 1.591.659s.659.994.659 1.591v14c0 1.243-1.007 2.25-2.25 2.25zm0-1.5c.414 0 .75-.336.75-.75v-14c0-.199-.079-.39-.22-.53-.14-.141-.331-.22-.53-.22h-1.25v12.25c0 .967-.784 1.75-1.75 1.75h-9.25v.75c0 .414.336.75.75.75z"/><path d="m6.75 9c0 .414-.336.75-.75.75s-.75-.336-.75-.75v-2.5c0-.597.237-1.169.659-1.591s.994-.659 1.591-.659h.002c.596 0 1.168.237 1.59.658.421.422.658.994.658 1.59v2.502c0 .414-.336.75-.75.75s-.75-.336-.75-.75v-2.502c0-.198-.079-.389-.219-.529s-.331-.219-.529-.219h-.002c-.199 0-.39.079-.53.22-.141.14-.22.331-.22.53z"/><path d="m10.75 9v-4c0-.414.336-.75.75-.75h1.5c.597 0 1.169.237 1.591.659s.659.994.659 1.591v1c0 .597-.237 1.169-.659 1.591s-.994.659-1.591.659h-1.5c-.414 0-.75-.336-.75-.75zm1.5-.75h.75c.199 0 .39-.079.53-.22.141-.14.22-.331.22-.53v-1c0-.199-.079-.39-.22-.53-.14-.141-.331-.22-.53-.22h-.75z"/><path d="m9 6.75c.414 0 .75.336.75.75s-.336.75-.75.75h-3c-.414 0-.75-.336-.75-.75s.336-.75.75-.75z"/><path d="m6 13.25c-.414 0-.75-.336-.75-.75s.336-.75.75-.75h4c.414 0 .75.336.75.75s-.336.75-.75.75z"/><path d="m6 15.75c-.414 0-.75-.336-.75-.75s.336-.75.75-.75h7c.414 0 .75.336.75.75s-.336.75-.75.75z"/></g></svg>