<svg clip-rule="evenodd" fill-rule="evenodd" height="512" stroke-linejoin="round" stroke-miterlimit="2" viewBox="0 0 24 24" width="512" xmlns="http://www.w3.org/2000/svg"><g id="Icon"><path d="m4.833 8.86v11.4c0 .549.218 1.076.607 1.464.388.388.914.606 1.463.606h10.241c.549 0 1.075-.218 1.463-.606.389-.388.607-.915.607-1.464v-11.4c0-.414-.336-.75-.75-.75s-.75.336-.75.75v11.4c0 .151-.06.296-.167.403s-.252.167-.403.167h-10.241c-.151 0-.296-.06-.403-.167s-.167-.252-.167-.403v-11.4c0-.414-.336-.75-.75-.75s-.75.336-.75.75z"/><path d="m5.924 11.089-2.926-2.007c-.13-.089-.217-.228-.241-.383s.017-.314.113-.438c.018-.022.033-.045.048-.068l3.012-4.904c.045-.074.126-.119.213-.119h1.253c.516 1.587 2.351 2.83 4.604 2.83s4.087-1.243 4.604-2.83h1.253c.087 0 .168.045.213.119l3.012 4.904c.015.023.03.046.048.068.096.124.137.283.113.438s-.111.294-.241.383c0 0-2.926 2.007-2.926 2.007-.342.234-.429.701-.195 1.042.235.342.702.429 1.043.195l2.927-2.007c.471-.323.787-.826.875-1.39.085-.551-.056-1.113-.39-1.559.005.006-2.987-4.866-2.987-4.866-.319-.518-.883-.834-1.492-.834h-1.863c-.393 0-.719.303-.748.694-.034.45-.265.858-.614 1.192-.61.584-1.566.944-2.632.944s-2.022-.36-2.632-.944c-.349-.334-.58-.742-.614-1.192-.029-.391-.355-.694-.748-.694h-1.863c-.609 0-1.173.316-1.492.834 0 0-2.992 4.872-2.992 4.872-.33.443-.47 1.003-.385 1.553.088.564.404 1.067.875 1.39l2.927 2.007c.341.234.808.147 1.043-.195.234-.341.147-.808-.195-1.042z"/></g></svg>