<?xml version="1.0"?>
<svg xmlns="http://www.w3.org/2000/svg" viewBox="0 0 32 32" width="512" height="512"><g id="infuse_heal_water_vitamin" data-name="infuse, heal, water, vitamin"><path d="M22,11a1,1,0,0,0-1,1v7.4648l-5,3.3335-5-3.3335V13h7a1,1,0,0,0,0-2H11V9H22a1,1,0,0,0,0-2H19V6.0361A3.04,3.04,0,0,0,15.9619,3,2.9642,2.9642,0,0,0,13,5.9619V7H10A1,1,0,0,0,9,8V20a1,1,0,0,0,.4453.832L15,24.5352V28a1,1,0,0,0,2,0V24.5352l5.5547-3.7032A1,1,0,0,0,23,20V12A1,1,0,0,0,22,11ZM15,5.9619A.9635.9635,0,0,1,15.9639,5,1.0373,1.0373,0,0,1,17,6.0361V7H15Z"/><path d="M16,21a1,1,0,0,0,1-1V19h1a1,1,0,0,0,0-2H17V16a1,1,0,0,0-2,0v1H14a1,1,0,0,0,0,2h1v1A1,1,0,0,0,16,21Z"/></g></svg>
