<svg clip-rule="evenodd" fill-rule="evenodd" height="512" stroke-linejoin="round" stroke-miterlimit="2" viewBox="0 0 24 24" width="512" xmlns="http://www.w3.org/2000/svg"><g id="Icon"><path d="m12 5.75c.337 0 .633-.225.723-.55s-.048-.67-.337-.843l-5-3c-.238-.143-.534-.143-.772 0l-5 3c-.289.173-.427.518-.337.843s.386.55.723.55h.25v4.75c0 .69.56 1.25 1.25 1.25h7c.69 0 1.25-.56 1.25-1.25v-4.75zm-8.268-.914 3.268-1.961 3.268 1.961c-.012.052-.018.108-.018.164v5.25h-6.5v-5.25c0-.056-.006-.112-.018-.164z"/><path d="m22.75 21v-8c0-.967-.784-1.75-1.75-1.75-1.331 0-3.669 0-5 0-.966 0-1.75.783-1.75 1.75v8c0 .967.784 1.75 1.75 1.75h5c.966 0 1.75-.783 1.75-1.75zm-1.5 0c0 .138-.112.25-.25.25h-5c-.138 0-.25-.112-.25-.25v-8c0-.138.112-.25.25-.25h5c.138 0 .25.112.25.25z"/><path d="m18 20.25h1c.414 0 .75-.336.75-.75s-.336-.75-.75-.75h-1c-.414 0-.75.336-.75.75s.336.75.75.75z"/><path d="m22.75 9s0-2.1 0-4c0-.995-.395-1.948-1.098-2.652-.704-.703-1.657-1.098-2.652-1.098-1.9 0-4 0-4 0-.414 0-.75.336-.75.75s.336.75.75.75h4c.597 0 1.169.237 1.591.659s.659.994.659 1.591v4c0 .414.336.75.75.75s.75-.336.75-.75z"/><path d="m1.25 15v4c0 .995.395 1.948 1.098 2.652.704.703 1.657 1.098 2.652 1.098h4c.414 0 .75-.336.75-.75s-.336-.75-.75-.75h-4c-.597 0-1.169-.237-1.591-.659s-.659-.994-.659-1.591v-4c0-.414-.336-.75-.75-.75s-.75.336-.75.75z"/></g></svg>