<svg clip-rule="evenodd" fill-rule="evenodd" height="512" stroke-linejoin="round" stroke-miterlimit="2" viewBox="0 0 24 24" width="512" xmlns="http://www.w3.org/2000/svg"><g id="Icon"><path d="m13 22.75c.966 0 1.75-.784 1.75-1.75v-16c0-.131-.034-.259-.099-.372l-1.566-2.74c-.222-.39-.637-.63-1.085-.63-.449 0-.863.24-1.085.63l-1.566 2.74c-.065.113-.099.241-.099.372v16c0 .966.784 1.75 1.75 1.75zm-1-19.738 1.25 2.187v15.801c0 .138-.112.25-.25.25h-2c-.138 0-.25-.112-.25-.25v-15.801z"/><path d="m21 22.75c.966 0 1.75-.784 1.75-1.75v-16c0-.131-.034-.259-.099-.372l-1.566-2.74c-.222-.39-.637-.63-1.085-.63-.449 0-.863.24-1.085.63l-1.566 2.74c-.065.113-.099.241-.099.372v16c0 .966.784 1.75 1.75 1.75zm-1-19.738 1.25 2.187v15.801c0 .138-.112.25-.25.25h-2c-.138 0-.25-.112-.25-.25v-15.801z"/><path d="m5 22.75c.966 0 1.75-.784 1.75-1.75v-16c0-.131-.034-.259-.099-.372l-1.566-2.74c-.222-.39-.637-.63-1.085-.63-.449 0-.863.24-1.085.63l-1.566 2.74c-.065.113-.099.241-.099.372v16c0 .966.784 1.75 1.75 1.75zm-1-19.738 1.25 2.187v15.801c0 .138-.112.25-.25.25h-2c-.138 0-.25-.112-.25-.25v-15.801z"/><path d="m18 7.25h-4c-.414 0-.75.336-.75.75s.336.75.75.75h4c.414 0 .75-.336.75-.75s-.336-.75-.75-.75z"/><path d="m18 12.25h-4c-.414 0-.75.336-.75.75s.336.75.75.75h4c.414 0 .75-.336.75-.75s-.336-.75-.75-.75z"/><path d="m18 17.25h-4c-.414 0-.75.336-.75.75s.336.75.75.75h4c.414 0 .75-.336.75-.75s-.336-.75-.75-.75z"/><path d="m10 7.25h-4c-.414 0-.75.336-.75.75s.336.75.75.75h4c.414 0 .75-.336.75-.75s-.336-.75-.75-.75z"/><path d="m10 12.25h-4c-.414 0-.75.336-.75.75s.336.75.75.75h4c.414 0 .75-.336.75-.75s-.336-.75-.75-.75z"/><path d="m10 17.25h-4c-.414 0-.75.336-.75.75s.336.75.75.75h4c.414 0 .75-.336.75-.75s-.336-.75-.75-.75z"/></g></svg>