<svg clip-rule="evenodd" fill-rule="evenodd" stroke-linejoin="round" stroke-miterlimit="1.414" viewBox="0 0 32 32" xmlns="http://www.w3.org/2000/svg" xmlns:serif="http://www.serif.com/"><path id="type-blood-donation-b" d="m0 0h32v32h-32z" fill="none"/><path d="m23.985 29c-.511-.012-.97-.459-.986-1v-7.999c.006-.183.023-.233.057-.33.123-.353.456-.621.831-.664.05-.005.062-.005.112-.006.692 0 1.383-.004 2.075 0 1.477.028 2.827 1.29 2.919 2.778.051.814-.268 1.614-.816 2.213.48.513.793 1.18.82 1.893.06 1.595-1.323 3.104-2.995 3.115h-2.003c-.005 0-.01 0-.014 0zm-11.89-25.993c.732.105 1.134.992.698 1.606-.038.054-.075.107-.113.16-2.412 3.445-4.741 7.092-6.443 10.945-.687 1.556-1.363 3.162-1.208 4.911.264 2.973 2.645 5.651 5.604 6.238 3.893.772 8.196-2.23 8.362-6.595.059-1.566-.583-3.086-1.227-4.545-1.247-2.825-2.847-5.482-4.522-8.083 0 0-.361-1.183.512-1.486.42-.146.906.034 1.169.403 2.05 3.183 4.047 6.465 5.314 9.948.531 1.459.886 2.983.693 4.58-.351 2.906-2.223 5.586-4.837 6.925-2.444 1.253-5.465 1.3-7.948.121-3.053-1.449-5.145-4.704-5.148-8.134-.001-2.101.926-4.128 1.874-6.104 1.763-3.675 3.955-7.147 6.287-10.441 0 0 .307-.369.649-.435.178-.035.224-.017.284-.014zm13.871 21.993h-.967v2.002c.338 0 .676 0 1.013-.002.756-.014 1.297-1.075.711-1.689-.186-.196-.451-.309-.727-.311zm.087-1.999c.111-.015.216-.04.313-.081.786-.333.859-1.883-.305-1.919-.354-.006-.708 0-1.062 0v1.998c.346 0 .692 0 1.039.002z" fill-rule="nonzero"/></svg>