<svg height="512" viewBox="0 0 32 32" width="512" xmlns="http://www.w3.org/2000/svg"><path d="m15 16.92v7.08a1 1 0 0 0 2 0v-7.08a7 7 0 1 0 -2 0zm1-11.92a5 5 0 1 1 -5 5 5.0059 5.0059 0 0 1 5-5z"/><path d="m20.1729 19.3481a1 1 0 1 0 -.3458 1.97c3.3604.5882 5.1729 1.8206 5.1729 2.6819 0 1.2231-3.5059 3-9 3s-9-1.7769-9-3c0-.8613 1.8125-2.0937 5.1729-2.6821a1 1 0 1 0 -.3458-1.97c-4.2744.7483-6.8271 2.4875-6.8271 4.6521 0 3.2476 5.667 5 11 5s11-1.7524 11-5c0-2.1646-2.5527-3.9038-6.8271-4.6519z"/></svg>