<svg clip-rule="evenodd" fill-rule="evenodd" height="512" stroke-linejoin="round" stroke-miterlimit="2" viewBox="0 0 24 24" width="512" xmlns="http://www.w3.org/2000/svg"><g id="Icon"><circle cx="5.297" cy="13" r="1"/><path d="m9.345 15.41c0-2.26 0-7.74 0-10 0-.464-.185-.91-.513-1.238s-.773-.512-1.237-.512h-4.595c-.464 0-.909.184-1.237.512-.329.328-.513.774-.513 1.238v10c0 .464.184.909.513 1.237.328.328.773.513 1.237.513h4.595c.464 0 .909-.185 1.237-.513s.513-.773.513-1.237zm-1.5-10v10c0 .066-.027.13-.074.177-.046.046-.11.073-.176.073h-4.595c-.066 0-.13-.027-.177-.073-.047-.047-.073-.111-.073-.177v-10c0-.067.026-.13.073-.177s.111-.073.177-.073h4.595c.066 0 .13.026.176.073.047.047.074.11.074.177z"/><path d="m7.963 14.814s2.043 3.187 3.372 5.26c.402.628 1.041 1.065 1.772 1.212.73.147 1.489-.008 2.102-.431l.229-.157c.826-.569 1.277-1.542 1.177-2.539 0 0-.272-2.724-.272-2.724-.007-.071.016-.141.063-.193.048-.052.115-.082.186-.082h2.408c1.112 0 2.167-.494 2.879-1.347.713-.854 1.009-1.98.81-3.074-.296-1.631-.641-3.527-.909-5-.324-1.783-1.877-3.079-3.689-3.079-1.582 0-3.558 0-4.82 0-.933 0-1.857.193-2.712.569-.992.435-2.266.994-2.266.994-.379.166-.552.609-.385.988.166.379.609.552.988.386 0 0 1.273-.559 2.266-.995.665-.292 1.383-.442 2.109-.442h4.82c1.087 0 2.019.777 2.214 1.847l.909 5c.119.657-.059 1.332-.487 1.844-.427.513-1.06.809-1.727.809h-2.408c-.495 0-.966.209-1.298.575-.332.367-.493.857-.444 1.349l.273 2.724c.045.454-.16.896-.535 1.154 0 0-.229.158-.229.158-.279.192-.624.263-.956.196s-.623-.266-.805-.551c-1.329-2.073-3.372-5.26-3.372-5.26-.223-.349-.688-.45-1.036-.227-.349.224-.45.688-.227 1.036z"/></g></svg>