<svg clip-rule="evenodd" fill-rule="evenodd" height="512" stroke-linejoin="round" stroke-miterlimit="2" viewBox="0 0 24 24" width="512" xmlns="http://www.w3.org/2000/svg"><g id="Icon"><path d="m17 11.25c-3.175 0-5.75 2.575-5.75 5.75v5c0 .414.336.75.75.75h1c3.175 0 5.75-2.575 5.75-5.75v-4c0-.966-.784-1.75-1.75-1.75zm0 1.5c.138 0 .25.112.25.25v4c0 2.347-1.903 4.25-4.25 4.25h-.25v-4.25c0-2.347 1.903-4.25 4.25-4.25z"/><path d="m11 22.75h1c.414 0 .75-.336.75-.75v-2c0-3.175-2.575-5.75-5.75-5.75-.966 0-1.75.784-1.75 1.75v1c0 3.175 2.575 5.75 5.75 5.75zm0-1.5c-2.347 0-4.25-1.903-4.25-4.25v-1c0-.138.112-.25.25-.25 2.347 0 4.25 1.903 4.25 4.25v1.25z"/><path d="m11.815 1.25c-2.036 0-3.844 1.358-4.474 3.294-.005.016-.01.033-.014.049-.623 2.473-1.077 5.651-1.077 7.637v2.77c0 .414.336.75.75.75s.75-.336.75-.75v-2.77c0-1.881.433-4.883 1.022-7.232.44-1.322 1.661-2.248 3.043-2.248h.373c1.397 0 2.637.893 3.081 2.215.52 2.295.922 5.171.961 7.051.009.413.352.742.766.734.414-.009.743-.352.734-.766-.041-1.969-.46-4.987-1.003-7.377-.005-.022-.011-.043-.018-.064-.632-1.963-2.459-3.293-4.522-3.293-.013 0-.027 0-.04.001-.013-.001-.026-.001-.04-.001h-.287z"/><path d="m11.5 5.25h1c.414 0 .75-.336.75-.75s-.336-.75-.75-.75h-1c-.414 0-.75.336-.75.75s.336.75.75.75z"/><path d="m13 7.75h1c.414 0 .75-.336.75-.75s-.336-.75-.75-.75h-1c-.414 0-.75.336-.75.75s.336.75.75.75z"/><path d="m10 9.25h1c.414 0 .75-.336.75-.75s-.336-.75-.75-.75h-1c-.414 0-.75.336-.75.75s.336.75.75.75z"/><path d="m13 11.25h1c.414 0 .75-.336.75-.75s-.336-.75-.75-.75h-1c-.414 0-.75.336-.75.75s.336.75.75.75z"/><path d="m10 13.25h1c.414 0 .75-.336.75-.75s-.336-.75-.75-.75h-1c-.414 0-.75.336-.75.75s.336.75.75.75z"/></g></svg>