<svg clip-rule="evenodd" fill-rule="evenodd" height="512" stroke-linejoin="round" stroke-miterlimit="2" viewBox="0 0 24 24" width="512" xmlns="http://www.w3.org/2000/svg"><g id="Icon"><g fill-rule="nonzero"><path d="m6 4.5c0 .414-.336.75-.75.75s-.75-.336-.75-.75.336-.75.75-.75.75.336.75.75"/><path d="m8.5 4.5c0 .414-.336.75-.75.75s-.75-.336-.75-.75.336-.75.75-.75.75.336.75.75"/><path d="m11 4.5c0 .414-.336.75-.75.75s-.75-.336-.75-.75.336-.75.75-.75.75.336.75.75"/></g><path d="m6.531 11.586s3.035 2.427 4.376 3.5c.639.511 1.547.511 2.186 0 1.341-1.073 4.376-3.5 4.376-3.5.323-.259.375-.731.117-1.055-.259-.323-.731-.375-1.055-.117 0 0-3.034 2.428-4.375 3.501-.091.073-.221.073-.312 0l-4.375-3.501c-.324-.258-.796-.206-1.055.117-.258.324-.206.796.117 1.055z"/><path d="m18.25 17.5v-6c0-.464-.184-.909-.513-1.237-.328-.329-.773-.513-1.237-.513-2.092 0-6.908 0-9 0-.464 0-.909.184-1.237.513-.328.328-.513.773-.513 1.237v6c0 .464.185.909.513 1.237.328.329.773.513 1.237.513h9c.464 0 .909-.184 1.237-.513.329-.328.513-.773.513-1.237zm-1.5 0c0 .066-.026.13-.073.177s-.111.073-.177.073h-9c-.066 0-.13-.026-.177-.073-.046-.047-.073-.111-.073-.177v-6c0-.066.027-.13.073-.177.047-.047.111-.073.177-.073h9c.066 0 .13.026.177.073s.073.111.073.177z"/><path d="m22.75 5c0-.995-.395-1.948-1.098-2.652-.704-.703-1.657-1.098-2.652-1.098h-14c-.994 0-1.948.395-2.651 1.098-.704.704-1.099 1.657-1.099 2.652v14c0 .995.395 1.948 1.099 2.652.703.703 1.657 1.098 2.651 1.098h14c.995 0 1.948-.395 2.652-1.098.703-.704 1.098-1.657 1.098-2.652zm-1.5 0v14c0 .597-.237 1.169-.659 1.591s-.994.659-1.591.659h-14c-.597 0-1.169-.237-1.591-.659s-.659-.994-.659-1.591c0-3.776 0-10.224 0-14 0-.597.237-1.169.659-1.591s.994-.659 1.591-.659h14c.597 0 1.169.237 1.591.659s.659.994.659 1.591z"/><path d="m2 7.75h20c.414 0 .75-.336.75-.75s-.336-.75-.75-.75h-20c-.414 0-.75.336-.75.75s.336.75.75.75z"/></g></svg>