<svg clip-rule="evenodd" fill-rule="evenodd" height="512" stroke-linejoin="round" stroke-miterlimit="2" viewBox="0 0 24 24" width="512" xmlns="http://www.w3.org/2000/svg"><g id="Icon"><path d="m3 11h5c.464 0 .909-.184 1.237-.513.329-.328.513-.773.513-1.237 0-1.331 0-3.669 0-5 0-.464-.184-.909-.513-1.237-.328-.329-.773-.513-1.237-.513-1.331 0-3.669 0-5 0-.464 0-.909.184-1.237.513-.329.328-.513.773-.513 1.237v5c0 .464.184.909.513 1.237.328.329.773.513 1.237.513zm5-1.5h-5c-.066 0-.13-.026-.177-.073s-.073-.111-.073-.177v-5c0-.066.026-.13.073-.177s.111-.073.177-.073h5c.066 0 .13.026.177.073s.073.111.073.177v5c0 .066-.026.13-.073.177s-.111.073-.177.073z"/><path d="m4.75 3.25v2c0 .414.336.75.75.75s.75-.336.75-.75v-2c0-.414-.336-.75-.75-.75s-.75.336-.75.75z"/><path d="m5.5 15c-1.794 0-3.25 1.456-3.25 3.25s1.456 3.25 3.25 3.25 3.25-1.456 3.25-3.25-1.456-3.25-3.25-3.25zm0 1.5c.966 0 1.75.784 1.75 1.75s-.784 1.75-1.75 1.75-1.75-.784-1.75-1.75.784-1.75 1.75-1.75z"/><path d="m19.5 15c-1.794 0-3.25 1.456-3.25 3.25s1.456 3.25 3.25 3.25 3.25-1.456 3.25-3.25-1.456-3.25-3.25-3.25zm0 1.5c.966 0 1.75.784 1.75 1.75s-.784 1.75-1.75 1.75-1.75-.784-1.75-1.75.784-1.75 1.75-1.75z"/><path d="m17 17.5h-9c-.414 0-.75.336-.75.75s.336.75.75.75h9c.414 0 .75-.336.75-.75s-.336-.75-.75-.75z"/><path d="m3 17.5h-.25v-1.25c0-.862.342-1.689.952-2.298.609-.61 1.436-.952 2.298-.952h3c.332 0 .649.132.884.366.234.235.366.552.366.884 0 .967.784 1.75 1.75 1.75h2c.966 0 1.75-.783 1.75-1.75v-6.25h1.11c.544 0 .619.472.726 1.005l.664 3.319v3.426c0 .414.336.75.75.75s.75-.336.75-.75v-3.5c0-.049-.005-.099-.015-.147 0 0-.386-1.93-.678-3.392-.268-1.341-.829-2.211-2.197-2.211h-1.86c-.414 0-.75.336-.75.75v7c0 .138-.112.25-.25.25h-2c-.138 0-.25-.112-.25-.25 0-.729-.29-1.429-.805-1.945-.516-.515-1.216-.805-1.945-.805-.886 0-1.961 0-3 0-1.26 0-2.468.5-3.359 1.391s-1.391 2.099-1.391 3.359v2c0 .414.336.75.75.75h1c.414 0 .75-.336.75-.75s-.336-.75-.75-.75z"/><path d="m19.002 12.75c.596 0 1.168.237 1.59.658.421.422.658.994.658 1.59v3.002c0 .414.336.75.75.75s.75-.336.75-.75c0 0 0-1.501 0-3.002 0-.994-.395-1.947-1.098-2.65s-1.656-1.098-2.65-1.098c-.414 0-.75.336-.75.75s.336.75.75.75z"/><path d="m12.25 11.25c0-.966-.783-1.75-1.75-1.75h-7.5c-.967 0-1.75.784-1.75 1.75s.783 1.75 1.75 1.75h7.5c.967 0 1.75-.784 1.75-1.75zm-1.5 0c0 .138-.112.25-.25.25h-7.5c-.138 0-.25-.112-.25-.25 0-.138.112-.25.25-.25h7.5c.138 0 .25.112.25.25z"/><path d="m19.25 4.25c0-.414-.336-.75-.75-.75h-3.002c-.596 0-1.168.237-1.59.658-.421.422-.658.994-.658 1.59v.004c0 .596.237 1.168.658 1.59.422.421.994.658 1.59.658h3.002c.414 0 .75-.336.75-.75zm-1.5.75v1.5h-2.252c-.198 0-.389-.079-.529-.219s-.219-.331-.219-.529c0-.001 0-.003 0-.004 0-.198.079-.389.219-.529s.331-.219.529-.219z"/><path d="m14 5h-2c-.414 0-.75.336-.75.75s.336.75.75.75h2c.414 0 .75-.336.75-.75s-.336-.75-.75-.75z"/></g></svg>