<svg clip-rule="evenodd" fill-rule="evenodd" height="512" stroke-linejoin="round" stroke-miterlimit="2" viewBox="0 0 24 24" width="512" xmlns="http://www.w3.org/2000/svg"><g id="Icon"><path d="m12 15.75c-2.623 0-4.75-2.127-4.75-4.75v-1.5c0-.414.336-.75.75-.75h8c.414 0 .75.336.75.75v1.5c0 2.623-2.127 4.75-4.75 4.75zm0-1.5c1.795 0 3.25-1.455 3.25-3.25v-.75h-6.5v.75c0 1.795 1.455 3.25 3.25 3.25z"/><path d="m17.75 7v2.5c0 .414-.336.75-.75.75h-10c-.414 0-.75-.336-.75-.75v-2.5c0-.414.336-.75.75-.75h10c.414 0 .75.336.75.75zm-1.5.75h-8.5v1h8.5z"/><path d="m14.25 2v5c0 .414-.336.75-.75.75h-3c-.414 0-.75-.336-.75-.75v-5c0-.414.336-.75.75-.75h3c.414 0 .75.336.75.75zm-1.5.75h-1.5v3.5h1.5z"/><path d="m13.25 3.463c-.39-.138-.595-.567-.457-.957s.567-.595.957-.457c2.038.722 3.5 2.667 3.5 4.951 0 .414-.336.75-.75.75h-9c-.414 0-.75-.336-.75-.75 0-2.284 1.462-4.229 3.5-4.951.39-.138.819.067.957.457s-.067.819-.457.957c-1.227.435-2.161 1.49-2.425 2.787h7.35c-.264-1.297-1.198-2.352-2.425-2.787z"/><path d="m14.665 14.671c-.371-.185-.521-.636-.336-1.006.185-.371.636-.521 1.006-.336l3.789 1.895c1.609.804 2.626 2.449 2.626 4.248v1.528c0 .464-.184.909-.513 1.237-.328.329-.773.513-1.237.513h-16c-.464 0-.909-.184-1.237-.513-.329-.328-.513-.773-.513-1.237v-1.528c0-1.799 1.017-3.444 2.626-4.248l3.789-1.895c.37-.185.821-.035 1.006.336.185.37.035.821-.336 1.006l-3.788 1.894c-1.101.551-1.797 1.676-1.797 2.907v1.528c0 .066.026.13.073.177s.111.073.177.073h16c.066 0 .13-.026.177-.073s.073-.111.073-.177v-1.528c0-1.231-.696-2.356-1.797-2.907z"/><path d="m8.25 14.5c0-.414.336-.75.75-.75s.75.336.75.75v2.75h4.5v-2.75c0-.414.336-.75.75-.75s.75.336.75.75v3.5c0 .414-.336.75-.75.75h-6c-.414 0-.75-.336-.75-.75z"/><path d="m16.25 15.5c0-.414.336-.75.75-.75s.75.336.75.75v6.5c0 .414-.336.75-.75.75s-.75-.336-.75-.75z"/><path d="m6.25 15.5c0-.414.336-.75.75-.75s.75.336.75.75v6.5c0 .414-.336.75-.75.75s-.75-.336-.75-.75z"/></g></svg>