<svg clip-rule="evenodd" fill-rule="evenodd" stroke-linejoin="round" stroke-miterlimit="1.414" viewBox="0 0 32 32" xmlns="http://www.w3.org/2000/svg" xmlns:serif="http://www.serif.com/"><path id="star-rating-review-full" d="m0 0h32v32h-32z" fill="none"/><path d="m16.059 4.144c.408.038.758.303.904.69l2.471 7.602h7.993l.093.005c.301.042.378.097.514.2.486.371.497 1.192-.019 1.605l-7.055 5.126c-.546.358-1.352.114-1.545-.519-.101-.334-.012-.719.227-.974.058-.062.076-.073.142-.126l4.565-3.316h-5.642s-.196-.006-.352-.064c-.28-.105-.492-.341-.599-.627l-1.744-5.366-1.743 5.366s-.066.185-.17.314c-.186.234-.477.363-.782.377h-5.642l4.565 3.316s.155.12.247.258c.164.25.197.566.116.86l-1.743 5.366 4.564-3.316s.162-.111.322-.155c.288-.079.599-.013.854.155l4.565 3.316-.632-1.944-.025-.091c-.015-.084-.021-.104-.024-.189-.015-.538.474-1.039 1.019-1.029.413.008.785.301.932.691l1.583 4.872c.178.647-.338 1.355-1.021 1.307-.17-.012-.264-.022-.518-.189l-6.467-4.698-6.467 4.698s-.272.172-.518.189c-.583.04-1.14-.522-1.062-1.126.011-.082.019-.101.041-.181l2.47-7.603-6.467-4.698s-.491-.45-.397-.983c.07-.398.402-.734.8-.809.081-.016.102-.014.185-.018h7.994l2.47-7.602.033-.087c.133-.273.209-.33.349-.427.077-.053.161-.095.249-.125.117-.039.242-.051.367-.051z" fill-rule="nonzero"/></svg>