<svg clip-rule="evenodd" fill-rule="evenodd" height="512" stroke-linejoin="round" stroke-miterlimit="2" viewBox="0 0 24 24" width="512" xmlns="http://www.w3.org/2000/svg"><g id="Icon"><path d="m3.754 5.565c-.805 4.13-.805 8.706 0 12.835 0 0-.9.901-.9.901-.376.375-.586.884-.586 1.414 0 .531.21 1.039.586 1.415.375.375.883.585 1.414.585.53 0 1.039-.21 1.414-.586 0 0 .561-.561.561-.561 4.117.937 7.385.94 11.502.003-.001 0 .574.576.574.576.375.374.883.585 1.413.585s1.038-.211 1.413-.585l.001-.002c.376-.375.586-.884.586-1.414s-.21-1.039-.586-1.414c0 0-.954-.955-.954-.955.703-4.094.713-8.642.008-12.736 0 .001.948-.947.948-.947.375-.374.585-.883.585-1.412 0-.53-.21-1.039-.585-1.413l-.003-.003c-.375-.375-.883-.585-1.413-.585s-1.038.21-1.413.585c0 0-.559.559-.559.559-4.12-.908-7.389-.916-11.509-.004 0 0-.57-.571-.57-.571-.375-.374-.883-.585-1.413-.585s-1.038.211-1.413.585l-.001.002c-.376.375-.586.883-.586 1.414 0 .53.21 1.039.586 1.414l.9.9zm1.549-.092c.052-.247-.025-.504-.204-.683l-1.185-1.186c-.094-.093-.146-.221-.146-.353 0-.133.052-.26.146-.354 0 0 .002-.001.002-.001.093-.094.22-.146.352-.146s.259.052.352.146l.863.863c.183.183.448.259.7.2 4.206-.978 7.44-.97 11.646.005.252.058.516-.018.699-.201l.852-.851c.093-.094.22-.146.352-.146s.259.052.352.146c0 0 .003.002.003.002.094.094.146.22.146.353 0 .132-.052.258-.146.352l-1.224 1.224c-.174.174-.252.423-.207.666.765 4.149.754 8.821-.009 12.972-.044.242.033.491.208.665l1.231 1.231c.094.094.146.221.146.354s-.052.26-.146.354c0 0-.002.001-.002.001-.093.093-.22.146-.352.146s-.259-.053-.352-.146l-.87-.87c-.184-.184-.451-.26-.705-.199-4.197 1.004-7.425 1.001-11.623-.004-.253-.06-.52.015-.704.2l-.857.856c-.093.094-.221.146-.353.146-.133 0-.26-.052-.354-.146s-.146-.221-.146-.354c0-.132.052-.259.146-.353l1.185-1.186c.179-.178.256-.436.204-.683-.871-4.169-.871-8.851 0-13.02z"/><path d="m15.976 11.312c0-.414-.336-.75-.75-.75h-.806c-.841 0-1.647.334-2.242.928-.594.595-.928 1.401-.928 2.242v.806c0 .414.336.75.75.75h.807c.84 0 1.646-.334 2.241-.928.594-.595.928-1.401.928-2.242zm-1.5.75v.056c0 .443-.176.868-.489 1.181s-.738.489-1.18.489h-.057v-.056c0-.443.176-.868.489-1.181s.738-.489 1.181-.489z"/><path d="m8.774 10.562c-.414 0-.75.336-.75.75v.806c0 .841.334 1.647.928 2.242.595.594 1.401.928 2.241.928h.807c.414 0 .75-.336.75-.75v-.806c0-.841-.334-1.647-.928-2.242-.595-.594-1.401-.928-2.242-.928zm.75 1.5h.056c.443 0 .868.176 1.181.489s.489.738.489 1.181v.056h-.057c-.442 0-.867-.176-1.18-.489s-.489-.738-.489-1.181z"/><path d="m12.53 7.453c-.293-.293-.767-.293-1.06 0l-.571.57c-.594.594-.928 1.401-.928 2.241 0 .841.334 1.647.928 2.242 0 0 .571.57.571.57.293.293.767.293 1.06 0l.571-.57c.594-.595.928-1.401.928-2.242 0-.84-.334-1.647-.928-2.241 0 0-.571-.57-.571-.57zm-.53 1.591.04.04c.313.313.489.738.489 1.18 0 .443-.176.868-.489 1.181l-.04.04-.04-.04c-.313-.313-.489-.738-.489-1.181 0-.442.176-.867.489-1.18z"/><path d="m11.25 13.757v2.226c0 .414.336.75.75.75s.75-.336.75-.75v-2.226c0-.414-.336-.75-.75-.75s-.75.336-.75.75z"/></g></svg>