<svg clip-rule="evenodd" fill-rule="evenodd" height="512" stroke-linejoin="round" stroke-miterlimit="2" viewBox="0 0 24 24" width="512" xmlns="http://www.w3.org/2000/svg"><g id="Icon"><path d="m2.43 10.614 8.853-6.197c.431-.301 1.003-.301 1.434 0 0 0 8.853 6.197 8.853 6.197.339.238.807.155 1.044-.184.238-.339.155-.807-.184-1.044 0 0-6.226-4.359-8.853-6.198-.947-.662-2.207-.662-3.154 0l-8.853 6.198c-.339.237-.422.705-.184 1.044.237.339.705.422 1.044.184z"/><path d="m19.25 9v10c0 .69-.56 1.25-1.25 1.25h-12c-.69 0-1.25-.56-1.25-1.25v-10c0-.414-.336-.75-.75-.75s-.75.336-.75.75v10c0 1.519 1.231 2.75 2.75 2.75h12c1.519 0 2.75-1.231 2.75-2.75v-10c0-.414-.336-.75-.75-.75s-.75.336-.75.75z"/><path d="m17.25 3.75h2v4.75c0 .414.336.75.75.75s.75-.336.75-.75v-5c0-.69-.56-1.25-1.25-1.25h-2.5c-.69 0-1.25.56-1.25 1.25v2.5c0 .414.336.75.75.75s.75-.336.75-.75z"/><path d="m17.25 11c0-.414-.336-.75-.75-.75h-1.125c-1.094 0-2.143.435-2.917 1.208-.773.774-1.208 1.823-1.208 2.917v1.125c0 .414.336.75.75.75h1.125c1.094 0 2.143-.435 2.917-1.208.773-.774 1.208-1.823 1.208-2.917zm-1.5.75v.375c0 .696-.277 1.364-.769 1.856s-1.16.769-1.856.769h-.375v-.375c0-.696.277-1.364.769-1.856s1.16-.769 1.856-.769z"/><path d="m7.5 10.25c-.414 0-.75.336-.75.75v1.125c0 1.094.435 2.143 1.208 2.917.774.773 1.823 1.208 2.917 1.208h1.125c.414 0 .75-.336.75-.75v-1.125c0-1.094-.435-2.143-1.208-2.917-.774-.773-1.823-1.208-2.917-1.208zm.75 1.5h.375c.696 0 1.364.277 1.856.769s.769 1.16.769 1.856v.375h-.375c-.696 0-1.364-.277-1.856-.769s-.769-1.16-.769-1.856z"/><path d="m11.25 15.5v5.5c0 .414.336.75.75.75s.75-.336.75-.75v-5.5c0-.414-.336-.75-.75-.75s-.75.336-.75.75z"/></g></svg>