<svg clip-rule="evenodd" fill-rule="evenodd" stroke-linejoin="round" stroke-miterlimit="1.414" viewBox="0 0 32 32" xmlns="http://www.w3.org/2000/svg" xmlns:serif="http://www.serif.com/"><path id="information-service-about-info" d="m0 0h32v32h-32z" fill="none"/><path d="m16.277 3.046c.227.104.306.11.475.304.421.485.218 1.412-.472 1.616-.164.048-.337.04-.497.043-4.599.095-8.982 3.312-10.335 7.858-.812 2.73-.516 5.775.826 8.298 1.859 3.494 5.674 5.849 9.723 5.849 3.962 0 7.838-2.306 9.722-5.849 1.868-3.513 1.636-8.047-.646-11.376-1.286-1.876-3.165-3.331-5.303-4.115l-.251-.135c-.407-.403-.541-1.078-.116-1.508.203-.205.495-.313.777-.294.167.011.323.074.486.137 4.639 1.784 8.058 6.392 8.318 11.468.204 3.984-1.542 8.018-4.597 10.601-3.36 2.842-8.206 3.803-12.408 2.438-4.479-1.456-8.009-5.489-8.804-10.191-.693-4.1.702-8.503 3.709-11.457 2.402-2.359 5.736-3.721 9.111-3.727.094.014.188.027.282.04zm-.224 9.965c.182.015.231.035.327.075.328.136.571.456.611.812.005.049.005.062.006.112v8.002c-.006.23-.037.305-.099.434-.295.613-1.284.756-1.717.145-.119-.168-.179-.373-.185-.579v-8.002c.006-.183.023-.233.057-.331.123-.352.456-.621.832-.663.108-.012.133-.006.168-.005zm-.056-1.999c.555 0 1.006-.449 1.006-1.003 0-.555-.451-1.004-1.006-1.004-.556 0-1.007.449-1.007 1.004 0 .554.451 1.003 1.007 1.003z" fill-rule="nonzero"/></svg>