<svg clip-rule="evenodd" fill-rule="evenodd" height="512" stroke-linejoin="round" stroke-miterlimit="2" viewBox="0 0 24 24" width="512" xmlns="http://www.w3.org/2000/svg"><g id="Icon"><path d="m20 21.25c1.518 0 2.75-1.232 2.75-2.75v-11c0-1.518-1.232-2.75-2.75-2.75h-5.298c-.284 0-.56-.097-.781-.274l-1.405-1.123c-.487-.39-1.093-.603-1.718-.603-1.864 0-6.798 0-6.798 0-1.518 0-2.75 1.232-2.75 2.75v13c0 1.518 1.232 2.75 2.75 2.75zm0-1.5h-16c-.69 0-1.25-.56-1.25-1.25v-13c0-.69.56-1.25 1.25-1.25h6.798c.284 0 .56.097.781.274l1.405 1.123c.487.39 1.093.603 1.718.603h5.298c.69 0 1.25.56 1.25 1.25v11c0 .69-.56 1.25-1.25 1.25z"/><path d="m4 21.25h16c1.518 0 2.75-1.232 2.75-2.75v-6.5c0-.414-.336-.75-.75-.75h-8.946c-.498 0-.987.135-1.415.392l-1.55.93c-.194.116-.416.178-.643.178h-7.446c-.414 0-.75.336-.75.75v5c0 1.518 1.232 2.75 2.75 2.75zm0-1.5c-.69 0-1.25-.56-1.25-1.25v-4.25h6.696c.498 0 .987-.135 1.415-.392l1.55-.93c.194-.116.416-.178.643-.178h8.196v5.75c0 .69-.56 1.25-1.25 1.25z"/><path d="m19.75 11.5v-2c0-.966-.783-1.75-1.75-1.75h-12c-.967 0-1.75.784-1.75 1.75v4c0 .414.336.75.75.75s.75-.336.75-.75c0 0 0-2.541 0-4 0-.138.112-.25.25-.25h12c.138 0 .25.112.25.25v2c0 .414.336.75.75.75s.75-.336.75-.75z"/></g></svg>