<svg clip-rule="evenodd" fill-rule="evenodd" stroke-linejoin="round" stroke-miterlimit="2" viewBox="0 0 32 32" xmlns="http://www.w3.org/2000/svg" xmlns:serif="http://www.serif.com/"><path id="sports-basketball-ball" d="m0 0h32v32h-32z" fill="none"/><path d="m16.091 2.994c4.764.045 9.39 2.903 11.539 7.16 1.788 3.541 1.828 7.919.105 11.493-2.453 5.087-8.441 8.242-14.19 7.14-5.286-1.014-9.677-5.623-10.425-10.962-.572-4.081.927-8.392 3.91-11.236 2.367-2.257 5.569-3.563 8.893-3.595zm10.86 11.926c-.21.267-.44.52-.687.755-.011.01-.021.02-.032.03.167.35.365.727.365.727.197.463.02 1.04-.416 1.288-.518.293-1.123.087-1.475-.587-.036-.07-.071-.139-.106-.209-.414.244-.846.46-1.292.652.17 1.398.229 2.811.173 4.22-.027.703-.154.783-.322.943-.559.53-1.696.109-1.689-.772.057-1.245.024-2.489-.102-3.72-.777.214-1.576.378-2.379.51 0 .803-.127 1.605-.398 2.375-.81 2.303-2.444 4.402-4.504 5.674 2.046.367 4.196.182 6.141-.628 3.534-1.47 6.184-4.899 6.692-8.7.114-.848.121-1.708.031-2.558zm-19.325-5.947c-1.183 1.372-2.039 3.02-2.406 4.815-.742 3.62.484 7.576 3.144 10.142.769.742 1.651 1.358 2.602 1.838.163-.024.333-.009.492.053 1.902-.64 3.534-2.253 4.599-4.005.516-.849.869-1.812.956-2.792-2.882.313-5.804.31-8.696.206-1.183-.042-1.219-.458-1.294-.792-.134-.589.353-1.218 1.014-1.222 2.937.113 5.907.265 8.8-.058-.621-2.272-2.571-4.145-4.505-5.625-1.4-1.072-2.877-2.154-4.579-2.595zm16.419-.485c-.173-.187-.353-.367-.539-.541-1.994-1.856-4.691-2.925-7.428-2.951-.048 0-.095 0-.143 0-2.388.023-4.701.899-6.578 2.342 3.472 1.265 6.556 4.259 8.181 6.716.564.852.985 1.811 1.224 2.81.782-.154 1.556-.351 2.32-.604-.556-2.981-1.673-5.852-3.373-8.446 0 0-.306-.695.038-1.151.193-.257.388-.412.87-.396.542.059.65.269.904.661 1.669 2.601 2.829 5.529 3.45 8.578.299-.146.593-.31.874-.492-.445-1.644-.452-3.448-.189-5.078.077-.477.182-1.008.389-1.448zm1.509 2.072c-.014.29-.011.599-.016.903-.009.624 0 1.258.064 1.88.273-.4.492-.842.64-1.329-.195-.5-.425-.986-.688-1.454zm-17.28-2.07c.015-.024.067-.127 0 0z"/></svg>