<svg clip-rule="evenodd" fill-rule="evenodd" height="512" stroke-linejoin="round" stroke-miterlimit="2" viewBox="0 0 24 24" width="512" xmlns="http://www.w3.org/2000/svg"><g id="Icon"><path d="m17.564 11.404c1.176.336 2.151.768 2.829 1.28.514.389.857.798.857 1.269 0 .277-.129.536-.336.785-.28.335-.692.64-1.203.919-1.739.949-4.548 1.546-7.711 1.546s-5.972-.597-7.711-1.546c-.511-.279-.923-.584-1.203-.919-.207-.249-.336-.508-.336-.785 0-.471.343-.88.857-1.269.678-.512 1.653-.944 2.829-1.28.398-.113.629-.528.515-.927-.113-.398-.529-.629-.927-.515-1.68.479-2.999 1.158-3.794 1.929-.651.631-.98 1.337-.98 2.062 0 1.104.806 2.195 2.321 3.021 1.902 1.038 4.968 1.729 8.429 1.729s6.527-.691 8.429-1.729c1.515-.826 2.321-1.917 2.321-3.021 0-.725-.329-1.431-.98-2.062-.795-.771-2.114-1.45-3.794-1.929-.398-.114-.814.117-.927.515-.114.399.117.814.515.927z"/><path d="m17.25 11.953c0 .022-.027.033-.044.054-.033.039-.073.077-.119.114-.144.119-.333.227-.556.328-1.022.465-2.673.754-4.531.754s-3.509-.289-4.531-.754c-.223-.101-.412-.209-.556-.328-.046-.037-.086-.075-.119-.114-.017-.021-.044-.032-.044-.054 0-.414-.336-.75-.75-.75s-.75.336-.75.75c0 .538.317 1.1 1.015 1.548 1.077.692 3.239 1.202 5.735 1.202s4.658-.51 5.735-1.202c.698-.448 1.015-1.01 1.015-1.548 0-.414-.336-.75-.75-.75s-.75.336-.75.75z"/><path d="m6.73 12.124 1.023-4.362c.08-.343.301-.635.608-.807.308-.171.673-.205 1.006-.093l1.759.589c.567.19 1.181.19 1.747.001 0 0 1.763-.59 1.763-.59.333-.112.699-.078 1.006.093.307.172.528.465.608.807 0 0 1.02 4.362 1.02 4.362.094.403.498.654.901.559.403-.094.654-.498.559-.901 0 0-.577-2.467-1.02-4.361-.176-.754-.662-1.398-1.337-1.776-.676-.377-1.48-.452-2.214-.206l-1.762.59c-.257.086-.536.086-.794 0 0 0-1.759-.589-1.759-.589-.734-.246-1.537-.172-2.213.205s-1.162 1.021-1.338 1.774c-.445 1.895-1.023 4.363-1.023 4.363-.095.403.156.807.559.901.403.095.807-.156.901-.559z"/></g></svg>