<svg clip-rule="evenodd" fill-rule="evenodd" height="512" stroke-linejoin="round" stroke-miterlimit="2" viewBox="0 0 24 24" width="512" xmlns="http://www.w3.org/2000/svg"><g id="Icon"><path d="m10.141 5.263 1.859-2.124 1.859 2.124c-.347.066-.609.371-.609.737v10.5c0 .414.336.75.75.75s.75-.336.75-.75v-9.75h.75c.294 0 .561-.172.683-.44s.075-.582-.119-.804l-3.5-4c-.142-.163-.348-.256-.564-.256s-.422.093-.564.256l-3.5 4c-.194.222-.241.536-.119.804s.389.44.683.44h.75v3.97c0 .414.336.75.75.75s.75-.336.75-.75v-4.72c0-.366-.262-.671-.609-.737z"/><path d="m18.737 10.641 2.124 1.859-2.124 1.859c-.066-.347-.371-.609-.737-.609h-2c-.729 0-1.429.29-1.945.805-.515.516-.805 1.216-.805 1.945 0 .414.336.75.75.75s.75-.336.75-.75c0-.332.132-.649.366-.884.235-.234.552-.366.884-.366h1.25v.75c0 .294.172.561.44.683s.582.075.804-.119l4-3.5c.163-.142.256-.348.256-.564s-.093-.422-.256-.564l-4-3.5c-.222-.194-.536-.241-.804-.119s-.44.389-.44.683v.75h-1.25c-.774 0-1.534.133-2.25.386-.39.138-.595.567-.457.957s.567.595.957.457c.557-.197 1.148-.3 1.75-.3h2c.366 0 .671-.262.737-.609z"/><path d="m6.75 9.75v-.75c0-.294-.172-.561-.44-.683s-.582-.075-.804.119l-4 3.5c-.163.142-.256.348-.256.564s.093.422.256.564l4 3.5c.222.194.536.241.804.119s.44-.389.44-.683v-.75h1.25c.332 0 .649.132.884.366.234.235.366.552.366.884v5.5c0 .414.336.75.75.75h4c.414 0 .75-.336.75-.75 0 0 0-2.711 0-5.5 0-1.79-.711-3.507-1.977-4.773s-2.983-1.977-4.773-1.977zm-3.611 2.75 2.124-1.859c.066.347.371.609.737.609h2c1.392 0 2.728.553 3.712 1.538.985.984 1.538 2.32 1.538 3.712v4.75h-2.5v-4.75c0-.729-.29-1.429-.805-1.945-.516-.515-1.216-.805-1.945-.805h-2c-.366 0-.671.262-.737.609z"/></g></svg>