<svg clip-rule="evenodd" fill-rule="evenodd" height="512" stroke-linejoin="round" stroke-miterlimit="2" viewBox="0 0 24 24" width="512" xmlns="http://www.w3.org/2000/svg"><g id="Icon"><path d="m11.25 2.5c0-.332-.132-.649-.366-.884-.235-.234-.552-.366-.884-.366-1.507 0-5.993 0-7.5 0-.332 0-.649.132-.884.366-.234.235-.366.552-.366.884v7.5c0 .332.132.649.366.884.235.234.552.366.884.366h7.5c.332 0 .649-.132.884-.366.234-.235.366-.552.366-.884zm-8.5 7.25h7v-7h-7z"/><path d="m11.25 14c0-.332-.132-.649-.366-.884-.235-.234-.552-.366-.884-.366-1.507 0-5.993 0-7.5 0-.332 0-.649.132-.884.366-.234.235-.366.552-.366.884v7.5c0 .332.132.649.366.884.235.234.552.366.884.366h7.5c.332 0 .649-.132.884-.366.234-.235.366-.552.366-.884zm-8.5 7.25h7v-7h-7z"/><path d="m22.75 2.5c0-.332-.132-.649-.366-.884-.235-.234-.552-.366-.884-.366-1.507 0-5.993 0-7.5 0-.332 0-.649.132-.884.366-.234.235-.366.552-.366.884v7.5c0 .332.132.649.366.884.235.234.552.366.884.366h7.5c.332 0 .649-.132.884-.366.234-.235.366-.552.366-.884zm-8.5 7.25h7v-7h-7z"/><path d="m22.75 14c0-.332-.132-.649-.366-.884-.235-.234-.552-.366-.884-.366-1.507 0-5.993 0-7.5 0-.332 0-.649.132-.884.366-.234.235-.366.552-.366.884v7.5c0 .332.132.649.366.884.235.234.552.366.884.366h7.5c.332 0 .649-.132.884-.366.234-.235.366-.552.366-.884zm-8.5 7.25h7v-7h-7z"/><path d="m4.5 5.75h1.5c.414 0 .75-.336.75-.75s-.336-.75-.75-.75h-1.5c-.414 0-.75.336-.75.75s.336.75.75.75z"/><path d="m4.5 17.25h1.5c.414 0 .75-.336.75-.75s-.336-.75-.75-.75h-1.5c-.414 0-.75.336-.75.75s.336.75.75.75z"/><path d="m16 5.75h1.5c.414 0 .75-.336.75-.75s-.336-.75-.75-.75h-1.5c-.414 0-.75.336-.75.75s.336.75.75.75z"/><path d="m16 17.25h1.5c.414 0 .75-.336.75-.75s-.336-.75-.75-.75h-1.5c-.414 0-.75.336-.75.75s.336.75.75.75z"/><path d="m4.5 8.25h3.5c.414 0 .75-.336.75-.75s-.336-.75-.75-.75h-3.5c-.414 0-.75.336-.75.75s.336.75.75.75z"/><path d="m4.5 19.75h3.5c.414 0 .75-.336.75-.75s-.336-.75-.75-.75h-3.5c-.414 0-.75.336-.75.75s.336.75.75.75z"/><path d="m16 8.25h3.5c.414 0 .75-.336.75-.75s-.336-.75-.75-.75h-3.5c-.414 0-.75.336-.75.75s.336.75.75.75z"/><path d="m16 19.75h3.5c.414 0 .75-.336.75-.75s-.336-.75-.75-.75h-3.5c-.414 0-.75.336-.75.75s.336.75.75.75z"/></g></svg>