<?xml version="1.0"?>
<svg xmlns="http://www.w3.org/2000/svg" viewBox="0 0 32 32" width="512" height="512"><g id="shop_sell_market_purchase" data-name="shop, sell, market, purchase"><path d="M28,3H4A1,1,0,0,0,3,4V8a4.979,4.979,0,0,0,2.0044,3.9781C5.0042,11.9858,5,11.9922,5,12V26a3.0008,3.0008,0,0,0,3,3H24a3.0008,3.0008,0,0,0,3-3V16a1,1,0,0,0-2,0V26a1,1,0,0,1-1,1H13V17h6v7a1,1,0,0,0,2,0V16a1,1,0,0,0-1-1H12a1,1,0,0,0-1,1V27H8a1,1,0,0,1-1-1V12.8989a4.9615,4.9615,0,0,0,5-1.93,4.9546,4.9546,0,0,0,8,0A4.9847,4.9847,0,0,0,29,8V4A1,1,0,0,0,28,3ZM8,11A3.0033,3.0033,0,0,1,5,8V5h6V8A3.0033,3.0033,0,0,1,8,11Zm8,0a3.0033,3.0033,0,0,1-3-3V5h6V8A3.0033,3.0033,0,0,1,16,11ZM27,8a3,3,0,0,1-6,0V5h6Z"/></g></svg>
