<svg clip-rule="evenodd" fill-rule="evenodd" height="512" stroke-linejoin="round" stroke-miterlimit="2" viewBox="0 0 24 24" width="512" xmlns="http://www.w3.org/2000/svg"><g id="Icon"><path d="m9.75 13c0-.966-.783-1.75-1.75-1.75h-1c-.967 0-1.75.784-1.75 1.75v7c0 .966.783 1.75 1.75 1.75h1c.967 0 1.75-.784 1.75-1.75zm-1.5 0v7c0 .138-.112.25-.25.25h-1c-.138 0-.25-.112-.25-.25v-7c0-.138.112-.25.25-.25h1c.138 0 .25.112.25.25z"/><path d="m14.25 13v7c0 .966.783 1.75 1.75 1.75h1c.967 0 1.75-.784 1.75-1.75 0-1.732 0-5.268 0-7 0-.966-.783-1.75-1.75-1.75h-1c-.967 0-1.75.784-1.75 1.75zm1.5 7v-7c0-.138.112-.25.25-.25h1c.138 0 .25.112.25.25v7c0 .138-.112.25-.25.25h-1c-.138 0-.25-.112-.25-.25z"/><path d="m6.75 13c0-.414-.336-.75-.75-.75h-1c-.995 0-1.948.395-2.652 1.098-.703.704-1.098 1.657-1.098 2.652v1c0 .995.395 1.948 1.098 2.652.704.703 1.657 1.098 2.652 1.098h1c.414 0 .75-.336.75-.75zm-1.5.75v5.5h-.25c-.597 0-1.169-.237-1.591-.659s-.659-.994-.659-1.591v-1c0-.597.237-1.169.659-1.591s.994-.659 1.591-.659z"/><path d="m18 12.25c-.414 0-.75.336-.75.75v7c0 .414.336.75.75.75h1c.995 0 1.948-.395 2.652-1.098.703-.704 1.098-1.657 1.098-2.652 0-.331 0-.669 0-1 0-.995-.395-1.948-1.098-2.652-.704-.703-1.657-1.098-2.652-1.098zm.75 1.5h.25c.597 0 1.169.237 1.591.659s.659.994.659 1.591v1c0 .597-.237 1.169-.659 1.591s-.994.659-1.591.659h-.25z"/><path d="m21.25 13v-2c0-4.832-3.917-8.75-8.75-8.75h-1c-4.833 0-8.75 3.918-8.75 8.75v2c0 .414.336.75.75.75s.75-.336.75-.75c0 0 0-.825 0-2 0-4.004 3.246-7.25 7.25-7.25h1c4.004 0 7.25 3.246 7.25 7.25v2c0 .414.336.75.75.75s.75-.336.75-.75z"/></g></svg>