<svg clip-rule="evenodd" fill-rule="evenodd" height="512" stroke-linejoin="round" stroke-miterlimit="2" viewBox="0 0 24 24" width="512" xmlns="http://www.w3.org/2000/svg"><g id="Icon"><path d="m13.95 14.5c0 .464-.184.909-.513 1.237-.328.329-.773.513-1.237.513h-1.4c-.414 0-.75-.336-.75-.75s.336-.75.75-.75h1.4c.066 0 .13-.026.177-.073s.073-.111.073-.177-.026-.13-.073-.177-.111-.073-.177-.073h-.4c-.464 0-.909-.184-1.237-.513-.329-.328-.513-.773-.513-1.237s.184-.909.513-1.237c.328-.329.773-.513 1.237-.513h1.4c.414 0 .75.336.75.75s-.336.75-.75.75h-1.4c-.066 0-.13.026-.177.073s-.073.111-.073.177.026.13.073.177.111.073.177.073h.4c.464 0 .909.184 1.237.513.329.328.513.773.513 1.237z"/><path d="m12.75 11.5c0 .414-.336.75-.75.75s-.75-.336-.75-.75v-1c0-.414.336-.75.75-.75s.75.336.75.75z"/><path d="m12.75 16.5c0 .414-.336.75-.75.75s-.75-.336-.75-.75v-1c0-.414.336-.75.75-.75s.75.336.75.75z"/><path d="m19.908 8.612 2.076 9.131c.192.847.149 1.731-.126 2.555l-.419 1.255c-.238.715-.907 1.197-1.66 1.197h-15.558c-.753 0-1.422-.482-1.66-1.197l-.419-1.255c-.275-.824-.318-1.708-.126-2.555l2.076-9.131c.181-.797.889-1.362 1.706-1.362h12.404c.817 0 1.525.565 1.706 1.362zm-1.462.333c-.026-.114-.127-.195-.244-.195h-12.404c-.117 0-.218.081-.244.195l-2.075 9.131c-.132.579-.102 1.184.086 1.748l.419 1.255c.034.102.129.171.237.171h15.558c.108 0 .203-.069.237-.171l.419-1.255c.188-.564.218-1.169.086-1.748z"/><path d="m21 18.25c.414 0 .75.336.75.75s-.336.75-.75.75h-18c-.414 0-.75-.336-.75-.75s.336-.75.75-.75z"/><path d="m12 1.25c1.392 0 2.728.553 3.712 1.538.985.984 1.538 2.32 1.538 3.712v1.5c0 .414-.336.75-.75.75h-9c-.414 0-.75-.336-.75-.75v-1.5c0-1.392.553-2.728 1.538-3.712.984-.985 2.32-1.538 3.712-1.538zm0 1.5c-.995 0-1.948.395-2.652 1.098-.703.704-1.098 1.657-1.098 2.652v.75h7.5v-.75c0-.995-.395-1.948-1.098-2.652-.704-.703-1.657-1.098-2.652-1.098z"/></g></svg>