<svg clip-rule="evenodd" fill-rule="evenodd" stroke-linejoin="round" stroke-miterlimit="1.414" viewBox="0 0 32 32" xmlns="http://www.w3.org/2000/svg" xmlns:serif="http://www.serif.com/"><path id="stopwatch-time-deadline-watch" d="m0 0h32v32h-32z" fill="none"/><path d="m12.081 7.897c.281.045.353.096.481.191.601.448.421 1.44-.39 1.807-3.561 1.633-5.768 5.718-5.085 9.682.839 4.866 6.165 8.572 11.298 7.147 5.013-1.391 8.212-7.619 5.648-12.725-.129-.257-.321-.591-.321-.591-.425-1.02.221-1.278.646-1.393.875-.237 1.5 1.003 1.931 2.15 1.868 4.972-.412 11.176-5.303 13.683-4.025 2.063-9.327 1.299-12.616-1.837-4.049-3.861-4.504-10.932-.686-15.24 1.086-1.225 2.424-2.319 3.965-2.83.028-.009.056-.017.084-.024.113-.026.23-.028.348-.02zm9.9 11.141h-6.01c-1-.024-1.474-1.968 0-2.003h6.01c.016 0 .032 0 .048.001.988.071 1.382 1.967-.048 2.002zm-6.97-11.304c-.019.062-.033.121-.042.179v-2.898h-1.001c-.884-.018-1.378-1.417-.46-1.892.141-.073.298-.108.46-.112 1.349 0 2.698-.026 4.046.001.969.058 1.44 1.973-.04 2.003h-1.001v2.052c1.723.164 3.406.735 4.882 1.658.472-.473.949-.941 1.421-1.414.199-.194.402-.297.736-.293.762.032 1.288 1.05.7 1.69-.691.711-1.334 1.482-2.106 2.098-.025.02-.051.038-.078.054-.376.234-.884.15-1.324-.164-1.525-1.076-3.377-1.67-5.236-1.675 0 0-1.247-.404-.949-1.313zm7.538 3.112-.003.002h.001zm.021-.014-.006.004.002-.001zm.02-.015-.007.006.001-.001zm.02-.015-.009.007.002-.001zm.02-.016-.011.008h.002zm.019-.017-.011.01zm.006-.006h.001l.017-.016zm.211-.282c-.012.026-.026.053-.041.079.012-.021.023-.042.034-.063zm.048-.555c.014.065.022.131.024.198-.002-.067-.01-.133-.024-.198zm-.107-.311c-.008-.018-.016-.035-.025-.051l.013.026zm-.251-.403c.017.02.044.055.075.1-.024-.034-.045-.062-.061-.083zm-.105-.086.029.02-.026-.019zm-.043-.031.026.018-.022-.016zm-.044-.031.025.017-.019-.013zm-.043-.031.024.017-.018-.012zm-.044-.03.024.016-.016-.011zm-.044-.03.024.016-.014-.01zm-.044-.03.024.016-.013-.009zm-.044-.03.023.016-.011-.008zm-.044-.029.023.015-.01-.006zm-.044-.029.022.014-.008-.005zm-.043-.029.021.014-.007-.004zm-.044-.028.02.013-.005-.003zm-.043-.027.018.011-.003-.002zm-.04-.026.013.008-.002-.001zm-4.974-1.684h.002-.001zm-.058-.005h.001zm-.245-.018.011.001h-.002zm-.063-.003.018.001-.005-.001zm-.06-.004.021.002-.007-.001zm-.058-.002.022.001-.009-.001zm-.058-.003.024.001h-.012zm-.057-.002.024.001h-.014zm-.058-.002.025.001h-.016zm-.057-.001h.024-.017zm-.056-.001h.022-.018zm-.057-.001h.018-.016zm-.13-.001-.018.001.018-.001h.011zm6.747 3.699c.005-.005.01-.01.015-.015l.013-.016c-.013.016-.027.031-.042.046zm.078-.093c-.007.011-.015.021-.024.032l.013-.016c.008-.01.015-.021.023-.031zm.099-.176c.029-.07.046-.142.053-.213-.008.077-.027.154-.059.23zm.027-.553c-.005-.019-.01-.037-.015-.055.007.023.013.047.018.07zm-.413-.738.043.031-.042-.03z" fill-rule="nonzero"/></svg>