<svg clip-rule="evenodd" fill-rule="evenodd" height="512" stroke-linejoin="round" stroke-miterlimit="2" viewBox="0 0 134 134" width="512" xmlns="http://www.w3.org/2000/svg"><g id="lamp-table-light-interior-desk-bulb-illuminate1"><path d="m50.537 79.167h-17.204c-1.307 0-2.539-.614-3.326-1.658s-1.039-2.397-.68-3.654l16.667-58.333c.511-1.789 2.146-3.022 4.006-3.022h33.333c1.861 0 3.496 1.233 4.007 3.022l16.666 58.333c.36 1.257.108 2.61-.68 3.654-.787 1.044-2.019 1.658-3.326 1.658h-39.712c-1.955 2.652-6.121 9.617-6.121 20.833 0 10.322 4.057 12.357 4.374 12.5h16.251c.316-.142 4.375-2.176 4.375-12.5 0-2.782-.254-5.31-.671-7.581-.415-2.262 1.085-4.436 3.346-4.851 2.262-.415 4.436 1.085 4.851 3.347.499 2.722.807 5.751.807 9.085 0 10.076-2.868 15.011-5.387 17.53-3.09 3.09-6.246 3.265-6.834 3.295-.153.009-17.071.009-17.225 0-.587-.03-3.744-.205-6.834-3.295-2.519-2.519-5.387-7.454-5.387-17.53 0-9.244 2.34-16.183 4.704-20.833zm2.606-58.334-14.286 50h55.619l-14.286-50z"/></g></svg>