<svg clip-rule="evenodd" fill-rule="evenodd" height="512" stroke-linejoin="round" stroke-miterlimit="2" viewBox="0 0 24 24" width="512" xmlns="http://www.w3.org/2000/svg"><g id="Icon"><path d="m9.034 13.339s3.101 7.534 11.585 9.394c.404.088.805-.168.893-.572.089-.405-.167-.805-.572-.894-7.693-1.686-10.52-8.501-10.52-8.501-.158-.382-.597-.565-.979-.407-.383.158-.565.597-.407.98z"/><path d="m15.097 19.273s-3.152 2.099-6.488-.497c-3.284-2.554-6.158-8.616-3.744-14.76.351.83.871 1.781 1.605 2.514 1.628 1.628 4.668 2.663 7.003 4.263 1.028.705 1.912 1.526 2.389 2.619.474 1.083.531 2.425-.009 4.154-.123.395.098.816.493.939.395.124.816-.097.939-.492.676-2.166.545-3.845-.048-5.202-.589-1.347-1.649-2.387-2.916-3.255-2.257-1.547-5.217-2.513-6.791-4.086-1.355-1.356-1.805-3.62-1.805-3.62-.063-.308-.31-.544-.621-.591-.31-.048-.617.103-.77.377-4.14 7.462-.643 15.215 3.354 18.324 4.238 3.298 8.248.556 8.248.556.343-.232.434-.698.202-1.041s-.698-.433-1.041-.202z"/><path d="m13.25 10.5v3c0 .414.336.75.75.75s.75-.336.75-.75v-3c0-.414-.336-.75-.75-.75s-.75.336-.75.75z"/><path d="m3.165 9.671 3 1.5c.37.185.821.035 1.006-.336.185-.37.035-.821-.336-1.006l-3-1.5c-.37-.185-.821-.035-1.006.336-.185.37-.035.821.336 1.006z"/></g></svg>