<svg clip-rule="evenodd" fill-rule="evenodd" height="512" stroke-linejoin="round" stroke-miterlimit="2" viewBox="0 0 24 24" width="512" xmlns="http://www.w3.org/2000/svg"><g id="Icon"><path d="m19.027 10.704c.97 0 1.754-.786 1.754-1.754v-2.007c0-.968-.784-1.754-1.754-1.754h-14.054c-.97 0-1.754.786-1.754 1.754v2.007c0 .968.784 1.754 1.754 1.754zm0-1.5h-14.054c-.14 0-.254-.114-.254-.254v-2.007c0-.14.114-.254.254-.254h14.054c.14 0 .254.114.254.254v2.007c0 .14-.114.254-.254.254z"/><path d="m18.023 22.75c.97 0 1.754-.786 1.754-1.754v-11.042c0-.414-.336-.75-.75-.75h-14.054c-.414 0-.75.336-.75.75v11.042c0 .968.784 1.754 1.754 1.754zm0-1.5h-12.046c-.14 0-.254-.114-.254-.254v-10.292h12.554v10.292c0 .14-.114.254-.254.254z"/><path d="m16.981 4.41v-.002c.527-1.586-.686-3.211-2.355-3.157-.994.032-1.863.673-2.19 1.609.003-.008-1.131 2.798-1.131 2.798-.105.258-.057.553.122.765.18.213.463.308.735.248l3.281-.727c.034-.007.068-.017.101-.03.674-.253 1.209-.82 1.437-1.504zm-1.424-.473.001-.001c.198-.595-.257-1.206-.884-1.185-.374.012-.702.254-.823.608l-.621 1.539s1.828-.405 1.831-.406c.234-.104.415-.311.496-.555z"/><path d="m7.012 4.388.002.008.012.035.001.003c.232.673.762 1.23 1.429 1.48.033.013.067.023.101.03l3.281.727c.272.06.555-.035.735-.248.179-.212.227-.507.122-.765l-1.134-2.806c-.329-.931-1.196-1.569-2.187-1.601-1.662-.053-2.872 1.558-2.362 3.137zm1.43-.452.001.001c.081.244.262.452.499.556 0 0 1.828.405 1.828.405l-.621-1.539c-.121-.354-.449-.596-.823-.608-.627-.021-1.082.59-.884 1.185z"/><path d="m11.25 9.954v12.046c0 .414.336.75.75.75s.75-.336.75-.75v-12.046c0-.414-.336-.75-.75-.75s-.75.336-.75.75z"/></g></svg>