<svg clip-rule="evenodd" fill-rule="evenodd" height="512" stroke-linejoin="round" stroke-miterlimit="2" viewBox="0 0 24 24" width="512" xmlns="http://www.w3.org/2000/svg"><g id="Icon"><path d="m4.25 21c0 .966.784 1.75 1.75 1.75h12c.966 0 1.75-.784 1.75-1.75v-18c0-.966-.784-1.75-1.75-1.75h-12c-.966 0-1.75.784-1.75 1.75zm1.5 0v-18c0-.138.112-.25.25-.25h12c.138 0 .25.112.25.25v18c0 .138-.112.25-.25.25h-12c-.138 0-.25-.112-.25-.25z"/><g fill-rule="nonzero"><path d="m7 4.75c-.414 0-.75-.336-.75-.75s.336-.75.75-.75.75.336.75.75-.336.75-.75.75"/><path d="m17 4.75c-.414 0-.75-.336-.75-.75s.336-.75.75-.75.75.336.75.75-.336.75-.75.75"/><path d="m7 20.75c-.414 0-.75-.336-.75-.75s.336-.75.75-.75.75.336.75.75-.336.75-.75.75"/><path d="m17 20.75c-.414 0-.75-.336-.75-.75s.336-.75.75-.75.75.336.75.75-.336.75-.75.75"/></g><path d="m11.615 14.228c-1.614-.19-2.865-1.563-2.865-3.228 0-1.794 1.455-3.25 3.25-3.25s3.25 1.456 3.25 3.25c0 .695-.218 1.339-.589 1.867-.238.339-.156.807.182 1.045.339.238.807.156 1.045-.182.543-.772.862-1.714.862-2.73 0-2.623-2.127-4.75-4.75-4.75s-4.75 2.127-4.75 4.75c0 2.434 1.831 4.441 4.19 4.717.412.049.784-.246.833-.657.048-.411-.247-.784-.658-.832z"/><path d="m12.392 12.561-2.944 4.08c-.242.336-.167.805.169 1.047.336.243.805.167 1.047-.169l2.944-4.08c.242-.336.167-.805-.169-1.047s-.805-.166-1.047.169z"/></g></svg>