<svg clip-rule="evenodd" fill-rule="evenodd" stroke-linejoin="round" stroke-miterlimit="2" viewBox="0 0 32 32" xmlns="http://www.w3.org/2000/svg" xmlns:serif="http://www.serif.com/"><path id="vibrate-shakes-phone-" d="m0 0h32v32h-32z" fill="none"/><path d="m20.037 5c1.543.029 2.933 1.341 2.963 2.963.033 5.358.033 10.716 0 16.074-.029 1.542-1.341 2.933-2.963 2.963-2.691.017-5.383.017-8.074 0-1.549-.029-2.933-1.367-2.963-2.963-.033-5.358-.033-10.716 0-16.074.029-1.548 1.367-2.933 2.963-2.963 2.691-.017 5.383-.017 8.074 0zm-8.034 2c-.522.003-.993.457-1.003.988-.033 5.345-.099 10.692 0 16.037.016.511.467.965.988.975 2.679.017 5.358.049 8.037 0 .512-.016.965-.467.975-.988.033-5.345.099-10.692 0-16.037-.016-.512-.468-.965-.988-.975-2.669-.016-5.339 0-8.009 0zm-5.935 2.002c.209.022.242.043.33.081.355.154.589.525.602.917v12c-.025.746-.322.82-.665.942-.604.215-1.309-.184-1.335-.942v-12c.007-.21.026-.244.058-.335.138-.389.424-.647.942-.665.023.001.045.002.068.002zm20 0c.209.022.242.043.33.081.354.154.589.525.602.917v12c-.009.253-.043.327-.112.46-.39.753-1.849.684-1.888-.46v-12c.007-.21.026-.244.058-.335.138-.388.424-.647.942-.665.023.001.045.002.068.002zm3.992 4c.477.038.497.143.64.284.189.185.295.446.3.714v4c-.019.975-1.969 1.534-2 0v-4c.011-.567.361-1.026 1.06-.998zm-28 0c.519.041.929.437.94.998v4c-.02.993-1.971 1.477-2 0v-4c.01-.504.124-.529.272-.686.203-.215.406-.327.788-.312z"/></svg>