<svg height="512" viewBox="0 0 32 32" width="512" xmlns="http://www.w3.org/2000/svg"><g id="nintendo_switch_games" data-name="nintendo, switch, games"><path d="m23 7.035a1 1 0 1 0 1 1 1 1 0 0 0 -1-1z"/><circle cx="23" cy="12.027" r="1"/><circle cx="25" cy="10.035" r="1"/><circle cx="21" cy="10.043" r="1"/><circle cx="9" cy="17.965" r="1"/><circle cx="9" cy="13.973" r="1"/><circle cx="7" cy="15.965" r="1"/><circle cx="11" cy="15.957" r="1"/><path d="m27.5361 4.4648a4.9685 4.9685 0 0 0 -3.5361-1.4648h-6a1 1 0 0 0 0 2h6a3.0025 3.0025 0 0 1 3 3v16a3.0025 3.0025 0 0 1 -3 3h-5v-19a1 1 0 0 0 -2 0v20a1 1 0 0 0 1 1h6a5 5 0 0 0 5-5v-16a4.9677 4.9677 0 0 0 -1.4639-3.5352z"/><path d="m14 3h-6a5 5 0 0 0 -5 5v16a5 5 0 0 0 5 5h6a1 1 0 0 0 0-2h-6a3.0025 3.0025 0 0 1 -3-3v-16a3.0025 3.0025 0 0 1 3-3h5v19a1 1 0 0 0 2 0v-20a1 1 0 0 0 -1-1z"/><path d="m21 17a2 2 0 1 0 2-2 2.0027 2.0027 0 0 0 -2 2z"/><path d="m11 9a2 2 0 1 0 -2 2 2.0027 2.0027 0 0 0 2-2z"/></g></svg>