<svg clip-rule="evenodd" fill-rule="evenodd" height="512" stroke-linejoin="round" stroke-miterlimit="2" viewBox="0 0 24 24" width="512" xmlns="http://www.w3.org/2000/svg"><g id="Icon"><circle cx="16.5" cy="4.75" r=".75"/><circle cx="7.5" cy="4.75" r=".75"/><path d="m13.458 3.356c-.472-.07-.959-.106-1.458-.106s-.986.036-1.458.106c-.463-1.23-1.651-2.106-3.042-2.106-1.794 0-3.25 1.456-3.25 3.25 0 .807.294 1.545.782 2.114-.504.799-.782 1.694-.782 2.636 0 3.246 3.422 6 7.75 6s7.75-2.754 7.75-6c0-.942-.278-1.837-.782-2.637.488-.568.782-1.306.782-2.113 0-1.794-1.456-3.25-3.25-3.25-1.391 0-2.579.876-3.042 2.106zm.392 1.597c.209.047.427.003.601-.121.173-.124.286-.316.31-.528.097-.874.839-1.554 1.739-1.554.966 0 1.75.784 1.75 1.75 0 .58-.283 1.094-.717 1.412-.166.122-.274.306-.3.51s.032.41.162.569c.538.659.855 1.431.855 2.259 0 .965-.43 1.852-1.138 2.575-1.151 1.178-3.017 1.925-5.112 1.925s-3.961-.747-5.112-1.925c-.708-.723-1.138-1.61-1.138-2.575 0-.828.317-1.6.855-2.259.13-.159.188-.365.162-.569s-.134-.388-.3-.51c-.434-.318-.717-.832-.717-1.412 0-.966.784-1.75 1.75-1.75.9 0 1.642.68 1.739 1.554.024.212.137.404.31.528.174.124.392.168.601.121.586-.132 1.207-.203 1.85-.203s1.264.071 1.85.203z"/><path d="m20.777 18.75c1.494-1.806 1.645-3.338 1.296-4.529-.653-2.227-3.272-3.408-3.272-3.408-.379-.166-.822.007-.988.386s.007.822.386.988c0 0 1.957.826 2.435 2.456.324 1.104-.122 2.507-2.133 4.297-.232.207-.313.536-.202.827s.39.483.701.483h1.75c.133 0 .26.053.354.146.093.094.146.221.146.354v.002c0 .275-.223.498-.498.498h-5.752c-.414 0-.75.336-.75.75s.336.75.75.75h5.752c1.103 0 1.998-.895 1.998-1.998v-.002c0-.53-.211-1.039-.586-1.414-.369-.369-.866-.579-1.387-.586z"/><path d="m3.223 18.75c-.521.007-1.018.217-1.387.586-.375.375-.586.884-.586 1.414v.002c0 1.103.895 1.998 1.998 1.998h5.752c.414 0 .75-.336.75-.75s-.336-.75-.75-.75h-5.752c-.275 0-.498-.223-.498-.498v-.002c0-.133.053-.26.146-.354.094-.093.221-.146.354-.146h1.75c.311 0 .59-.192.701-.483s.03-.62-.202-.827c-2.011-1.79-2.457-3.193-2.133-4.297.478-1.63 2.435-2.456 2.435-2.456.379-.166.552-.609.386-.988s-.609-.552-.988-.386c0 0-2.619 1.181-3.272 3.408-.349 1.191-.198 2.723 1.296 4.529z"/><path d="m7.934 21.068c.002-.024.007-.077.015-.108.017-.064.043-.128.072-.19.187-.404.521-.752.521-.752.201-.21.262-.516.158-.787-.806-2.097-.392-4.142-.141-5.026.113-.399-.119-.814-.517-.927-.398-.112-.813.119-.926.517-.282.993-.721 3.214.036 5.556-.219.29-.499.716-.63 1.144-.146.48-.121.961.131 1.364.276.441.924.892 2.348.891-.001 0 .999 0 .999 0 .729 0 1.429-.29 1.945-.805.515-.516.805-1.216.805-1.945 0-1 0-2 0-2 0-.414-.336-.75-.75-.75s-.75.336-.75.75v2c0 .332-.132.649-.366.884-.235.234-.552.366-.884.366h-1.001c-.331 0-.596-.025-.803-.076-.112-.028-.229-.088-.262-.106z"/><path d="m16.066 21.068c-.033.018-.15.078-.262.106-.207.051-.472.076-.803.076h-1.001c-.332 0-.649-.132-.884-.366-.234-.235-.366-.552-.366-.884 0-1 0-2 0-2 0-.414-.336-.75-.75-.75s-.75.336-.75.75v2c0 .729.29 1.429.805 1.945.516.515 1.216.805 1.945.805h1c1.423.001 2.071-.45 2.347-.891.252-.403.277-.884.131-1.364-.131-.428-.411-.854-.63-1.144.757-2.341.318-4.563.036-5.556-.113-.398-.528-.629-.926-.517-.398.113-.63.528-.517.927.251.884.665 2.929-.141 5.026-.104.271-.043.577.158.787 0 0 .334.348.521.752.029.062.055.126.072.19.008.031.013.084.015.108z"/><path d="m17.317 17.56 1.682-1.5c.309-.276.336-.75.061-1.059-.276-.309-.75-.336-1.059-.061l-1.682 1.5c-.309.276-.336.75-.06 1.059.275.309.75.336 1.058.061z"/><path d="m7.84 16.44-1.682-1.5c-.309-.275-.783-.248-1.059.061-.275.309-.248.783.061 1.059l1.682 1.5c.309.275.783.248 1.059-.061.275-.309.248-.783-.061-1.059z"/><path d="m7.763 10.707.587.196c.737.245 1.543.168 2.219-.214.005-.002.009-.005.014-.008.945-.559 1.897-.564 2.849-.014.002.002.005.003.007.004.669.378 1.466.457 2.196.218 0 0 .581-.175.581-.175.397-.12.622-.538.502-.935-.119-.396-.538-.621-.934-.501l-.61.184c-.331.11-.693.075-.996-.096-1.456-.84-2.913-.831-4.359.025-.297.165-.662.2-.995.089 0 0-.587-.196-.587-.196-.393-.131-.818.082-.949.475-.13.392.082.817.475.948z"/></g></svg>