<svg clip-rule="evenodd" fill-rule="evenodd" height="512" stroke-linejoin="round" stroke-miterlimit="2" viewBox="0 0 24 24" width="512" xmlns="http://www.w3.org/2000/svg"><g id="Icon"><path d="m22.75 17c0-3.174-2.576-5.75-5.75-5.75s-5.75 2.576-5.75 5.75 2.576 5.75 5.75 5.75 5.75-2.576 5.75-5.75zm-1.5 0c0 2.346-1.904 4.25-4.25 4.25s-4.25-1.904-4.25-4.25 1.904-4.25 4.25-4.25 4.25 1.904 4.25 4.25z"/><path d="m22.75 11.5v-5c0-2.071-1.679-3.75-3.75-3.75-3.776 0-10.224 0-14 0-2.071 0-3.75 1.679-3.75 3.75v12.5c0 2.071 1.679 3.75 3.75 3.75h6.5c.414 0 .75-.336.75-.75s-.336-.75-.75-.75c0 0-3.716 0-6.5 0-1.243 0-2.25-1.007-2.25-2.25v-12.5c0-1.243 1.007-2.25 2.25-2.25h14c1.243 0 2.25 1.007 2.25 2.25v5c0 .414.336.75.75.75s.75-.336.75-.75z"/><path d="m15.75 2v3.5c0 .414.336.75.75.75s.75-.336.75-.75v-3.5c0-.414-.336-.75-.75-.75s-.75.336-.75.75z"/><path d="m6.75 2v3.5c0 .414.336.75.75.75s.75-.336.75-.75v-3.5c0-.414-.336-.75-.75-.75s-.75.336-.75.75z"/><path d="m22 7.25h-20c-.414 0-.75.336-.75.75s.336.75.75.75h20c.414 0 .75-.336.75-.75s-.336-.75-.75-.75z"/><path d="m16.25 14.75v2.5c0 .284.161.544.415.671l1.5.75c.37.185.821.035 1.006-.336.185-.37.035-.821-.336-1.006l-1.085-.543v-2.036c0-.414-.336-.75-.75-.75s-.75.336-.75.75z"/></g></svg>