<svg clip-rule="evenodd" fill-rule="evenodd" height="512" stroke-linejoin="round" stroke-miterlimit="2" viewBox="0 0 24 24" width="512" xmlns="http://www.w3.org/2000/svg"><g id="Icon"><path d="m2.75 7v-3c0-.69.56-1.25 1.25-1.25h3c.414 0 .75-.336.75-.75s-.336-.75-.75-.75h-3c-1.518 0-2.75 1.232-2.75 2.75v3c0 .414.336.75.75.75s.75-.336.75-.75z"/><path d="m7 21.25h-3c-.69 0-1.25-.56-1.25-1.25v-3c0-.414-.336-.75-.75-.75s-.75.336-.75.75v3c0 1.518 1.232 2.75 2.75 2.75h3c.414 0 .75-.336.75-.75s-.336-.75-.75-.75z"/><path d="m21.25 17v3c0 .69-.56 1.25-1.25 1.25h-3c-.414 0-.75.336-.75.75s.336.75.75.75h3c1.518 0 2.75-1.232 2.75-2.75v-3c0-.414-.336-.75-.75-.75s-.75.336-.75.75z"/><path d="m17 2.75h3c.69 0 1.25.56 1.25 1.25v3c0 .414.336.75.75.75s.75-.336.75-.75v-3c0-1.518-1.232-2.75-2.75-2.75h-3c-.414 0-.75.336-.75.75s.336.75.75.75z"/><path d="m17.25 12c0-2.898-2.352-5.25-5.25-5.25s-5.25 2.352-5.25 5.25 2.352 5.25 5.25 5.25 5.25-2.352 5.25-5.25zm-1.5 0c0 2.07-1.68 3.75-3.75 3.75s-3.75-1.68-3.75-3.75 1.68-3.75 3.75-3.75 3.75 1.68 3.75 3.75z"/><path d="m22.624 12.416c.168-.252.168-.58 0-.832 0 0-3.173-4.834-10.624-4.834s-10.624 4.834-10.624 4.834c-.168.252-.168.58 0 .832 0 0 3.173 4.834 10.624 4.834s10.624-4.834 10.624-4.834zm-1.579-.416c-.918 1.055-3.777 3.75-9.045 3.75s-8.127-2.695-9.045-3.75c.918-1.055 3.777-3.75 9.045-3.75s8.127 2.695 9.045 3.75z"/></g></svg>