<svg clip-rule="evenodd" fill-rule="evenodd" height="512" stroke-linejoin="round" stroke-miterlimit="2" viewBox="0 0 24 24" width="512" xmlns="http://www.w3.org/2000/svg"><g id="Icon"><path d="m16.716 4.165s-1.869-1.309-3.139-2.197c-.947-.663-2.207-.663-3.154 0l-3.139 2.197c-.339.237-.422.705-.184 1.044.237.34.705.422 1.044.185l3.139-2.197c.431-.302 1.003-.302 1.434 0 0 0 3.139 2.197 3.139 2.197.339.237.807.155 1.044-.185.238-.339.155-.807-.184-1.044z"/><path d="m4.461 6.158-2.719 2.809c-.315.326-.492.763-.492 1.217v9.595c0 .73.29 1.429.805 1.945.516.516 1.216.805 1.945.805h16c.729 0 1.429-.289 1.945-.805.515-.516.805-1.215.805-1.945v-9.595c0-.454-.177-.891-.492-1.217l-2.719-2.809c-.288-.298-.763-.305-1.061-.018-.297.288-.305.763-.017 1.061l2.719 2.809c.045.047.07.109.07.174v9.595c0 .332-.132.65-.366.884-.235.235-.552.366-.884.366h-16c-.332 0-.649-.131-.884-.366-.234-.234-.366-.552-.366-.884v-9.595c0-.065.025-.127.07-.174 0 0 2.719-2.809 2.719-2.809.288-.298.28-.773-.017-1.061-.298-.287-.773-.28-1.061.018z"/><path d="m1.645 11.073s6.541 3.51 9.043 4.853c.821.441 1.809.436 2.626-.013 2.498-1.374 9.047-4.976 9.047-4.976.363-.2.496-.656.296-1.019-.199-.363-.656-.495-1.018-.296l-9.048 4.976c-.371.205-.821.207-1.194.007-2.502-1.343-9.042-4.854-9.042-4.854-.365-.196-.82-.059-1.016.306s-.058.82.306 1.016z"/><path d="m5.75 11.779v-6c0-.138.112-.25.25-.25h12c.138 0 .25.112.25.25v6c0 .414.336.75.75.75s.75-.336.75-.75c0 0 0-4.065 0-6 0-.966-.783-1.75-1.75-1.75h-12c-.967 0-1.75.784-1.75 1.75v6c0 .414.336.75.75.75s.75-.336.75-.75z"/></g></svg>