<svg clip-rule="evenodd" fill-rule="evenodd" height="512" stroke-linejoin="round" stroke-miterlimit="2" viewBox="0 0 24 24" width="512" xmlns="http://www.w3.org/2000/svg"><g id="Icon"><path d="m11.5 18.25h8c.414 0 .75-.336.75-.75v-14.5c0-.464-.184-.909-.513-1.237-.328-.329-.773-.513-1.237-.513-2.443 0-8.751 0-12 0-.729 0-1.429.29-1.945.805-.515.516-.805 1.216-.805 1.945v15.5c0 .414.336.75.75.75s.75-.336.75-.75c0 0 0-10.908 0-15.5 0-.332.132-.649.366-.884.235-.234.552-.366.884-.366h12c.066 0 .13.026.177.073s.073.111.073.177v13.75h-7.25c-.414 0-.75.336-.75.75s.336.75.75.75z"/><path d="m11.5 16.75h-4.75c-1.657 0-3 1.343-3 3 0 .796.316 1.559.879 2.121.562.563 1.325.879 2.121.879h11.75c.464 0 .909-.184 1.237-.513.329-.328.513-.773.513-1.237 0-.696 0-1.5 0-1.5 0-.414-.336-.75-.75-.75s-.75.336-.75.75v1.5c0 .066-.026.13-.073.177s-.111.073-.177.073h-11.75c-.398 0-.779-.158-1.061-.439-.281-.282-.439-.663-.439-1.061 0-.828.672-1.5 1.5-1.5h4.75c.414 0 .75-.336.75-.75s-.336-.75-.75-.75z"/><path d="m10.329 2.335.758 1.517s-2.617 2.618-2.617 2.618c-.191.191-.265.47-.193.73.072.261.279.462.541.528l3.272.818s-.818 3.272-.818 3.272c-.071.284.03.584.259.767.228.183.542.217.804.086l3.227-1.613s.726 2.179.726 2.179c.078.233.264.413.5.482.235.07.489.02.681-.133l2.5-2c.323-.259.375-.731.117-1.055-.259-.323-.731-.375-1.055-.117l-1.66 1.328s-.659-1.979-.659-1.979c-.069-.206-.224-.373-.425-.456s-.428-.075-.622.022l-2.542 1.271s.605-2.418.605-2.418c.1-.402-.144-.809-.546-.91l-2.715-.678s2.063-2.064 2.063-2.064c.229-.228.285-.577.141-.865l-1-2c-.185-.371-.636-.521-1.006-.336-.371.185-.521.636-.336 1.006z"/></g></svg>