<svg clip-rule="evenodd" fill-rule="evenodd" height="512" stroke-linejoin="round" stroke-miterlimit="2" viewBox="0 0 24 24" width="512" xmlns="http://www.w3.org/2000/svg"><g id="Icon"><path d="m5.803 3.858c0-1.257-1.02-2.277-2.276-2.277-1.257 0-2.277 1.02-2.277 2.277 0 1.256 1.02 2.276 2.277 2.276 1.256 0 2.276-1.02 2.276-2.276zm-1.5 0c0 .428-.348.776-.776.776-.429 0-.777-.348-.777-.776 0-.429.348-.777.777-.777.428 0 .776.348.776.777z"/><path d="m2.777 5.384v16.285c0 .414.336.75.75.75s.75-.336.75-.75v-16.285c0-.414-.336-.75-.75-.75s-.75.336-.75.75z"/><path d="m15.981 14.053v-7.16c0-.966-.783-1.75-1.75-1.75h-10.704c-.415 0-.75.336-.75.75v9.16c0 .415.335.75.75.75h10.704c.967 0 1.75-.783 1.75-1.75zm-1.5 0c0 .138-.112.25-.25.25h-9.954v-7.66h9.954c.138 0 .25.112.25.25z"/><path d="m21.081 9.697-1.925 3.465c-.126.227-.126.502 0 .729l1.925 3.466h-9.43c-.138 0-.25-.112-.25-.25 0-.891 0-2.054 0-2.054 0-.414-.336-.75-.75-.75s-.75.336-.75.75v2.054c0 .966.784 1.75 1.75 1.75h9.855c.443 0 .853-.235 1.078-.616.224-.382.23-.854.015-1.241 0 0-1.93-3.473-1.93-3.473s1.93-3.473 1.93-3.473c.215-.387.209-.86-.015-1.241-.225-.382-.635-.616-1.078-.616-1.889 0-6.275 0-6.275 0-.414 0-.75.336-.75.75s.336.75.75.75z"/></g></svg>