<svg clip-rule="evenodd" fill-rule="evenodd" height="512" stroke-linejoin="round" stroke-miterlimit="2" viewBox="0 0 24 24" width="512" xmlns="http://www.w3.org/2000/svg"><g id="Icon"><path d="m15.391 19.945s1.515-1.977.622-5.385c-.082-.313-.356-.539-.679-.559s-.623.17-.743.471c0 0-.001.002-.002.005-.288-1.142-.987-2.659-2.679-3.628-.251-.144-.562-.13-.8.035-.237.164-.359.451-.313.736 0 0 .152.948-.298 1.908-.108-.088-.213-.204-.287-.356-.116-.238-.348-.397-.612-.419s-.52.096-.674.312c0 0-2.312 3.28-.548 6.542.197.364.652.5 1.016.303s.5-.653.303-1.017c-.858-1.587-.429-3.179-.011-4.116.47.335.918.45.918.45.294.074.604-.036.785-.279.477-.64.716-1.331.831-1.933 1.131 1.307 1.068 2.956 1.068 2.956-.01.264.12.514.341.658.222.144.503.161.74.044.152-.075.29-.156.417-.242.058 1.678-.602 2.624-.602 2.624-.246.334-.174.803.159 1.049.333.245.803.174 1.048-.159z"/><path d="m22.75 19.5c0-.414-.336-.75-.75-.75h-20c-.414 0-.75.336-.75.75v2.5c0 .414.336.75.75.75h20c.414 0 .75-.336.75-.75zm-1.5.75v1h-18.5v-1z"/><path d="m22.75 2c0-.414-.336-.75-.75-.75h-20c-.414 0-.75.336-.75.75v2.5c0 .414.336.75.75.75h20c.414 0 .75-.336.75-.75zm-1.5.75v1h-18.5v-1z"/><path d="m21.75 4.5c0-.414-.336-.75-.75-.75h-18c-.414 0-.75.336-.75.75v15c0 .414.336.75.75.75h18c.414 0 .75-.336.75-.75zm-1.5.75v13.5h-16.5v-13.5z"/><path d="m19.25 13.998c0-1.922-.764-3.766-2.123-5.125s-3.203-2.123-5.125-2.123c-.001 0-.003 0-.004 0-1.922 0-3.766.764-5.125 2.123s-2.123 3.203-2.123 5.125v5.502c0 .414.336.75.75.75h13c.414 0 .75-.336.75-.75zm-1.5 0v4.752h-11.5v-4.752c0-1.524.606-2.986 1.684-4.064s2.54-1.684 4.064-1.684h.004c1.524 0 2.986.606 4.064 1.684s1.684 2.54 1.684 4.064z"/></g></svg>