<svg clip-rule="evenodd" fill-rule="evenodd" height="512" stroke-linejoin="round" stroke-miterlimit="2" viewBox="0 0 24 24" width="512" xmlns="http://www.w3.org/2000/svg"><g id="Icon"><path d="m6 22.75h13.5c.967 0 1.75-.784 1.75-1.75 0-3.414 0-14.586 0-18 0-.966-.783-1.75-1.75-1.75h-13.5c-1.243 0-2.25 1.007-2.25 2.25v17c0 1.243 1.007 2.25 2.25 2.25zm13.5-1.5h-13.5c-.414 0-.75-.336-.75-.75v-17c0-.414.336-.75.75-.75h13.5c.138 0 .25.112.25.25v18c0 .138-.112.25-.25.25z"/><path d="m3.5 6.75h2c.414 0 .75-.336.75-.75s-.336-.75-.75-.75h-2c-.414 0-.75.336-.75.75s.336.75.75.75z"/><path d="m12.5 6.75h4.5c.414 0 .75-.336.75-.75s-.336-.75-.75-.75h-4.5c-.414 0-.75.336-.75.75s.336.75.75.75z"/><path d="m12.5 9.774h4.5c.414 0 .75-.336.75-.75s-.336-.75-.75-.75h-4.5c-.414 0-.75.336-.75.75s.336.75.75.75z"/><path d="m12.5 12.75h2c.414 0 .75-.336.75-.75s-.336-.75-.75-.75h-2c-.414 0-.75.336-.75.75s.336.75.75.75z"/><path d="m3.5 12.75h2c.414 0 .75-.336.75-.75s-.336-.75-.75-.75h-2c-.414 0-.75.336-.75.75s.336.75.75.75z"/><path d="m3.5 18.75h2c.414 0 .75-.336.75-.75s-.336-.75-.75-.75h-2c-.414 0-.75.336-.75.75s.336.75.75.75z"/><path d="m8.25 2v20c0 .414.336.75.75.75s.75-.336.75-.75v-20c0-.414-.336-.75-.75-.75s-.75.336-.75.75z"/></g></svg>