<svg clip-rule="evenodd" fill-rule="evenodd" height="512" stroke-linejoin="round" stroke-miterlimit="2" viewBox="0 0 24 24" width="512" xmlns="http://www.w3.org/2000/svg"><g id="Icon"><path d="m7 22.75h9.985c.414 0 .75-.336.75-.75s-.336-.75-.75-.75h-9.985c-.414 0-.75.336-.75.75s.336.75.75.75z"/><path d="m9.251 21.96c-.011.206.063.407.205.556.141.149.338.234.544.234h4c.206 0 .403-.085.545-.235s.215-.351.204-.557c0 0-.807-14.345-.928-16.485-.023-.415-.251-.791-.608-1.003l-1.16-.691c-.376-.224-.842-.235-1.228-.029-.387.206-.637.599-.66 1.037zm2.39-16.681.69.411.876 15.56h-2.416z"/><path d="m13.678 7.637 2.875-3.13c.127-.138.197-.319.197-.507v-1.25h.659c.414 0 .75-.336.75-.75s-.336-.75-.75-.75h-1.409c-.414 0-.75.336-.75.75v1.708s-2.677 2.915-2.677 2.915c-.28.304-.26.779.045 1.059s.78.26 1.06-.045z"/><path d="m15.69 4.683 2.75 1.25c.376.171.821.004.993-.373.171-.376.004-.821-.373-.993l-2.75-1.25c-.377-.171-.822-.004-.993.373-.171.376-.004.821.373.993z"/><path d="m13.855 14.16 6.5-3.5c.109-.058.201-.142.269-.244l2-3c.23-.344.136-.81-.208-1.04s-.811-.136-1.04.208l-1.896 2.844s-6.336 3.412-6.336 3.412c-.364.196-.501.651-.304 1.016.196.364.651.501 1.015.304z"/><path d="m17.735 11.623v-2.715c0-.413-.336-.749-.75-.75-.414 0-.75.337-.75.75v2.715c0 .414.336.751.75.75.414 0 .75-.336.75-.75z"/><path d="m18.628 11.211 2.02 1.075c.365.194.82.056 1.014-.31.195-.365.056-.82-.309-1.014l-2.02-1.075c-.366-.195-.82-.056-1.015.309-.194.366-.055.82.31 1.015z"/><path d="m10.911 9.562-3.489-1.284s-2.578-3.278-2.578-3.278.817-1.837.817-1.837c.168-.378-.003-.822-.381-.99s-.822.003-.99.381l-1 2.25c-.113.254-.076.55.096.768l2.988 3.8c.086.109.2.192.33.24l3.689 1.357c.388.143.82-.056.963-.444.143-.389-.057-.82-.445-.963z"/><path d="m5.299 6.314-2.517.672c-.4.107-.638.519-.531.918.107.4.518.638.918.531l2.517-.672c.4-.107.638-.519.531-.918-.107-.4-.518-.638-.918-.531z"/><path d="m10.276 15.885-3.782-1.496s-1.87-2.805-1.87-2.805c-.23-.344-.696-.438-1.04-.208-.345.23-.438.696-.208 1.04l2 3c.085.127.206.225.348.281l4 1.582c.385.153.821-.036.973-.421.153-.385-.036-.821-.421-.973z"/><path d="m5.205 13.34-2.379.57c-.403.096-.652.502-.555.904.096.403.502.651.904.555l2.379-.57c.403-.097.651-.502.555-.904-.097-.403-.502-.652-.904-.555z"/></g></svg>