<svg clip-rule="evenodd" fill-rule="evenodd" stroke-linejoin="round" stroke-miterlimit="2" viewBox="0 0 32 32" xmlns="http://www.w3.org/2000/svg" xmlns:serif="http://www.serif.com/"><path id="ruler-cm-mm" d="m0 0h32v32h-32z" fill="none"/><path d="m7.985 19.429-2.588 2.588 4.593 4.593 16.613-16.613-5.302-5.301s-.321-.349-.29-.78c.038-.538.552-.963 1.118-.923.357.06.423.136.589.286l6.01 6.01c.361.397.364 1.017 0 1.416l-18.029 18.03c-.398.362-1.01.371-1.417 0l-6.01-6.01c-.361-.397-.364-1.017 0-1.417l14.023-14.022c.642-.584 1.008-.319 1.308-.094.456.341.504 1.075.108 1.51l-1.273 1.274c.475.444.945.894 1.348 1.4.581.728-.455 2.286-1.471 1.352-.444-.432-.881-.872-1.317-1.312l-2.584 2.584c.431.432.859.867 1.291 1.299.674.693-.291 2.452-1.396 1.436-.445-.432-.881-.872-1.318-1.313l-2.566 2.567c.476.444.945.894 1.348 1.4.581.728-.455 2.286-1.471 1.352-.444-.432-.881-.872-1.317-1.312z"/></svg>