<svg clip-rule="evenodd" fill-rule="evenodd" height="512" stroke-linejoin="round" stroke-miterlimit="2" viewBox="0 0 24 24" width="512" xmlns="http://www.w3.org/2000/svg"><g id="Icon"><path d="m12 5.75s-.75.31-.75-.753v-2.997c0-.414.336-.75.75-.75 5.933 0 10.75 4.817 10.75 10.75s-4.817 10.75-10.75 10.75-10.75-4.817-10.75-10.75c0-1.123.173-2.207.493-3.225.112-.357.47-.576.839-.515l3.002.5c.222.037.415.172.527.367.112.196.13.431.05.641-.266.693-.411 1.446-.411 2.232 0 3.449 2.801 6.25 6.25 6.25s6.25-2.801 6.25-6.25c0-3.315-2.586-6.031-5.849-6.237-.149.055-.303.019-.369-.002zm.75-1.464v-1.506c4.755.382 8.5 4.367 8.5 9.22 0 5.105-4.145 9.25-9.25 9.25s-9.25-4.145-9.25-9.25c0-.74.087-1.459.251-2.149l1.485.247c-.154.609-.236 1.246-.236 1.902 0 4.277 3.473 7.75 7.75 7.75s7.75-3.473 7.75-7.75c0-4.025-3.074-7.337-7-7.714z"/><path d="m12 8.75s-.75.31-.75-.753v-2.997c0-.414.336-.75.75-.75 4.277 0 7.75 3.473 7.75 7.75s-3.473 7.75-7.75 7.75c-3.089 0-5.758-1.811-7.003-4.428-.091-.192-.097-.414-.015-.611.082-.196.244-.349.445-.419l2.861-1c.34-.119.717.021.897.332.562.972 1.613 1.626 2.815 1.626 1.794 0 3.25-1.456 3.25-3.25 0-1.667-1.257-3.042-2.874-3.228-.141.042-.282.008-.344-.011zm.75-1.441v-1.514c3.096.371 5.5 3.009 5.5 6.205 0 3.449-2.801 6.25-6.25 6.25-2.19 0-4.119-1.129-5.235-2.837l1.473-.514c.868 1.125 2.231 1.851 3.762 1.851 2.622 0 4.75-2.128 4.75-4.75 0-2.367-1.734-4.331-4-4.691z"/></g></svg>