<svg clip-rule="evenodd" fill-rule="evenodd" height="512" stroke-linejoin="round" stroke-miterlimit="2" viewBox="0 0 24 24" width="512" xmlns="http://www.w3.org/2000/svg"><g id="Icon"><path d="m9.75 12.75-3 2.25c-.379.284-.886.33-1.309.118s-.691-.645-.691-1.118v-1.25h-1.25c-.597 0-1.169-.237-1.591-.659s-.659-.994-.659-1.591v-5.5c0-1.243 1.007-2.25 2.25-2.25h9c1.243 0 2.25 1.007 2.25 2.25v5.5c0 1.243-1.007 2.25-2.25 2.25zm-3.5.75 2.667-2c.216-.162.479-.25.75-.25h2.833c.414 0 .75-.336.75-.75v-5.5c0-.414-.336-.75-.75-.75h-9c-.414 0-.75.336-.75.75v5.5c0 .199.079.39.22.53.14.141.331.22.53.22h1.5c.69 0 1.25.56 1.25 1.25z"/><path d="m17.75 19.5v-1c0-.69.56-1.25 1.25-1.25h1.5c.199 0 .39-.079.53-.22.141-.14.22-.331.22-.53v-5.5c0-.414-.336-.75-.75-.75h-4c-.414 0-.75-.336-.75-.75s.336-.75.75-.75h4c1.243 0 2.25 1.007 2.25 2.25v5.5c0 .597-.237 1.169-.659 1.591s-.994.659-1.591.659h-1.25v1.25c0 .473-.268.906-.691 1.118s-.93.166-1.309-.118l-3-2.25h-2.75c-1.243 0-2.25-1.007-2.25-2.25v-1.75c0-.414.336-.75.75-.75s.75.336.75.75v1.75c0 .414.336.75.75.75h2.833c.271 0 .534.088.75.25z"/></g></svg>