<?xml version="1.0"?>
<svg xmlns="http://www.w3.org/2000/svg" viewBox="0 0 32 32" width="512" height="512"><g id="paper_shredder_destroy" data-name="paper, shredder, destroy"><path d="M28.1211,13.8789A2.9815,2.9815,0,0,0,26,13H25V10a1,1,0,0,0-1-1H19V6.4141l1.291,1.291A1,1,0,0,0,21.7051,6.291L18.7083,3.2943A1.0131,1.0131,0,0,0,18,3H8A1,1,0,0,0,7,4v9H6a3.0008,3.0008,0,0,0-3,3v8a3.0033,3.0033,0,0,0,3,3,1,1,0,0,0,0-2,1.0006,1.0006,0,0,1-1-1V16a1,1,0,0,1,1-1H26a1,1,0,0,1,1,1v8a1.0006,1.0006,0,0,1-1,1,1,1,0,0,0,0,2,3.0033,3.0033,0,0,0,3-3V16A2.9815,2.9815,0,0,0,28.1211,13.8789ZM9,5h8v5a1,1,0,0,0,1,1h5v2H9Z"/><path d="M24,21H8a1,1,0,0,0,0,2H9v5a1,1,0,0,0,2,0V23h2v5a1,1,0,0,0,2,0V23h2v5a1,1,0,0,0,2,0V23h2v5a1,1,0,0,0,2,0V23h1a1,1,0,0,0,0-2Z"/></g></svg>
