<svg clip-rule="evenodd" fill-rule="evenodd" height="512" stroke-linejoin="round" stroke-miterlimit="2" viewBox="0 0 24 24" width="512" xmlns="http://www.w3.org/2000/svg"><g id="Icon"><path d="m20.75 8.5v-.5c0-.464-.184-.909-.513-1.237-.328-.329-.773-.513-1.237-.513-2.873 0-11.127 0-14 0-.464 0-.909.184-1.237.513-.329.328-.513.773-.513 1.237v.5c0 .966.783 1.75 1.75 1.75h14c.967 0 1.75-.784 1.75-1.75zm-1.5-.5v.5c0 .138-.112.25-.25.25h-14c-.138 0-.25-.112-.25-.25v-.5c0-.066.026-.13.073-.177s.111-.073.177-.073h14c.066 0 .13.026.177.073s.073.111.073.177z"/><path d="m3.816 19.212c-.348.319-.566.778-.566 1.288v.5c0 .966.783 1.75 1.75 1.75h14c.967 0 1.75-.784 1.75-1.75v-.5c0-.518-.225-.983-.582-1.303.771-3.315.21-6.632-.961-9.947-.106-.3-.389-.5-.707-.5h-13c-.312 0-.591.193-.701.484-1.26 3.326-1.799 6.652-.983 9.978zm1.105 1.051c.382-.128.595-.534.482-.921-.881-3.032-.459-6.061.62-9.092h11.942c1.011 3.033 1.46 6.064.618 9.097-.108.388.11.792.494.915.1.032.173.127.173.238v.5c0 .138-.112.25-.25.25h-14c-.138 0-.25-.112-.25-.25v-.5c0-.11.071-.204.171-.237z"/><path d="m7.048 3.269c-1.364.162-2.423 1.324-2.423 2.731 0 .501.134.971.369 1.376.207.358.666.48 1.025.273.358-.207.48-.667.273-1.025-.106-.183-.167-.397-.167-.624 0-.69.56-1.25 1.25-1.25.036 0 .071.001.106.004.34.029.657-.176.77-.499.308-.876 1.143-1.505 2.124-1.505.907 0 1.688.537 2.045 1.31.085.186.243.329.436.395.193.067.405.052.587-.041.205-.105.436-.164.682-.164.57 0 1.065.319 1.32.787.192.354.629.493.99.315.133-.066.282-.102.44-.102.552 0 1 .448 1 1 0 .153-.034.298-.096.428-.178.374-.019.822.355.999.374.178.822.019 1-.355.154-.325.241-.688.241-1.072 0-1.38-1.12-2.5-2.5-2.5-.163 0-.321.016-.475.045-.55-.64-1.366-1.045-2.275-1.045-.238 0-.47.028-.692.08-.679-.956-1.796-1.58-3.058-1.58-1.446 0-2.701.82-3.327 2.019z"/><path d="m15.976 15.329c0-.414-.336-.75-.75-.75h-.806c-.841 0-1.647.334-2.242.928-.594.595-.928 1.401-.928 2.241v.807c0 .414.336.75.75.75h.807c.84 0 1.646-.334 2.241-.928.594-.595.928-1.401.928-2.242zm-1.5.75v.056c0 .443-.176.868-.489 1.181s-.738.489-1.18.489h-.057v-.057c0-.442.176-.867.489-1.18s.738-.489 1.181-.489z"/><path d="m8.774 14.579c-.414 0-.75.336-.75.75v.806c0 .841.334 1.647.928 2.242.595.594 1.401.928 2.241.928h.807c.414 0 .75-.336.75-.75v-.807c0-.84-.334-1.646-.928-2.241-.595-.594-1.401-.928-2.242-.928zm.75 1.5h.056c.443 0 .868.176 1.181.489s.489.738.489 1.18v.057h-.057c-.442 0-.867-.176-1.18-.489s-.489-.738-.489-1.181z"/><path d="m12.53 11.47c-.293-.293-.767-.293-1.06 0l-.571.57c-.594.594-.928 1.401-.928 2.241 0 .841.334 1.647.928 2.242 0 0 .571.57.571.57.293.293.767.293 1.06 0l.571-.57c.594-.595.928-1.401.928-2.242 0-.84-.334-1.647-.928-2.241 0 0-.571-.57-.571-.57zm-.53 1.591.04.04c.313.313.489.737.489 1.18s-.176.868-.489 1.181l-.04.04-.04-.04c-.313-.313-.489-.738-.489-1.181s.176-.867.489-1.18z"/><path d="m11.25 17.774v2.226c0 .414.336.75.75.75s.75-.336.75-.75v-2.226c0-.414-.336-.75-.75-.75s-.75.336-.75.75z"/></g></svg>