<svg viewBox="0 0 32 32" xmlns="http://www.w3.org/2000/svg"><g id="speaker_announcement_voice_colume" data-name="speaker, announcement, voice, colume"><path d="m26.55 4.165a1 1 0 0 0 -.9443-.0839l-13.8106 5.9189h-5.7951a1 1 0 0 0 -1 1v8a1 1 0 0 0 1 1h5v6h-2v-3a1 1 0 0 0 -2 0v4a1 1 0 0 0 1 1h4a1 1 0 0 0 1-1v-6.4836l12.606 5.4025a.9991.9991 0 0 0 .9443-.0839 1.0011 1.0011 0 0 0 .4497-.835v-20a1 1 0 0 0 -.45-.835zm-1.55 19.3184-12.0522-5.165a3.5756 3.5756 0 0 0 -.9515-.3184h-4.9963v-6h4v3a1 1 0 0 0 2 0v-3.3408l12-5.1426z"/></g></svg>