<svg clip-rule="evenodd" fill-rule="evenodd" height="512" stroke-linejoin="round" stroke-miterlimit="2" viewBox="0 0 24 24" width="512" xmlns="http://www.w3.org/2000/svg"><g id="Icon"><circle cx="12" cy="19.25" r=".75"/><path d="m17 16.25h-10c-.414 0-.75.336-.75.75s.336.75.75.75h10c.414 0 .75-.336.75-.75s-.336-.75-.75-.75z"/><path d="m13.5 10.75h-3c-.414 0-.75.336-.75.75s.336.75.75.75h3c.414 0 .75-.336.75-.75s-.336-.75-.75-.75z"/><path d="m17.75 12c0-.995-.395-1.948-1.098-2.652-.704-.703-1.657-1.098-2.652-1.098-1.265 0-2.735 0-4 0-.995 0-1.948.395-2.652 1.098-.703.704-1.098 1.657-1.098 2.652v9.5c0 .332.132.649.366.884.235.234.552.366.884.366h9c.332 0 .649-.132.884-.366.234-.235.366-.552.366-.884zm-1.5 9.25h-8.5v-9.25c0-.597.237-1.169.659-1.591s.994-.659 1.591-.659h4c.597 0 1.169.237 1.591.659s.659.994.659 1.591z"/><path d="m12.318 6.249.039.001.032-.004c.143-.021.718-.145.718-.755v-.577c0-.464-.185-.909-.513-1.237l-.127-.128c-.085-.084-.098-.216-.032-.315 0 0 .546-.818.546-.818.229-.344.136-.81-.208-1.04-.345-.23-.811-.136-1.04.208l-.546.818c-.462.694-.371 1.618.219 2.208 0 0 .127.127.127.127.047.047.074.111.074.177v.577.009c0 .401.315.729.711.749z"/><path d="m8.318 7.749.039.001.032-.004c.143-.021.718-.145.718-.755v-.577c0-.464-.185-.909-.513-1.237l-.127-.128c-.085-.084-.098-.216-.032-.315 0 0 .546-.818.546-.818.229-.344.136-.81-.208-1.04-.345-.23-.811-.136-1.04.208l-.546.818c-.462.694-.371 1.618.219 2.208 0 0 .127.127.127.127.047.047.074.111.074.177v.577.009c0 .401.315.729.711.749z"/><path d="m16.318 7.749.039.001.032-.004c.143-.021.718-.145.718-.755v-.577c0-.464-.185-.909-.513-1.237l-.127-.128c-.085-.084-.098-.216-.032-.315 0 0 .546-.818.546-.818.229-.344.136-.81-.208-1.04-.345-.23-.811-.136-1.04.208l-.546.818c-.462.694-.371 1.618.219 2.208 0 0 .127.127.127.127.047.047.074.111.074.177v.577.009c0 .401.315.729.711.749z"/></g></svg>