<svg clip-rule="evenodd" fill-rule="evenodd" height="512" stroke-linejoin="round" stroke-miterlimit="2" viewBox="0 0 24 24" width="512" xmlns="http://www.w3.org/2000/svg"><g id="Icon"><path d="m2.75 7.47v-3c0-.69.56-1.25 1.25-1.25h3c.414 0 .75-.336.75-.75s-.336-.75-.75-.75h-3c-1.518 0-2.75 1.232-2.75 2.75v3c0 .414.336.75.75.75s.75-.336.75-.75z"/><path d="m7 21.72h-3c-.69 0-1.25-.56-1.25-1.25v-3c0-.414-.336-.75-.75-.75s-.75.336-.75.75v3c0 1.518 1.232 2.75 2.75 2.75h3c.414 0 .75-.336.75-.75s-.336-.75-.75-.75z"/><path d="m21.25 17.47v3c0 .69-.56 1.25-1.25 1.25h-3c-.414 0-.75.336-.75.75s.336.75.75.75h3c1.518 0 2.75-1.232 2.75-2.75v-3c0-.414-.336-.75-.75-.75s-.75.336-.75.75z"/><path d="m17 3.22h3c.69 0 1.25.56 1.25 1.25v3c0 .414.336.75.75.75s.75-.336.75-.75v-3c0-1.518-1.232-2.75-2.75-2.75h-3c-.414 0-.75.336-.75.75s.336.75.75.75z"/><path d="m11.288 9.708.87 2.609s-.74.913-.74.913c-.261.321-.212.794.109 1.055.322.261.794.211 1.055-.11l1-1.232c.162-.199.211-.467.13-.71l-1-3c-.131-.393-.556-.605-.949-.474s-.605.556-.475.949z"/><path d="m7.729 17.173c2.689 1.345 5.855 1.332 8.53-.035.369-.188.515-.64.327-1.009-.188-.368-.641-.515-1.009-.327-2.251 1.15-4.915 1.161-7.176.03-.371-.186-.822-.035-1.007.335s-.035.821.335 1.006z"/><path d="m16.75 8.47v-1c0-.414-.336-.75-.75-.75s-.75.336-.75.75v1c0 .414.336.75.75.75s.75-.336.75-.75z"/><path d="m8.75 8.47v-1c0-.414-.336-.75-.75-.75s-.75.336-.75.75v1c0 .414.336.75.75.75s.75-.336.75-.75z"/></g></svg>