<svg clip-rule="evenodd" fill-rule="evenodd" height="512" stroke-linejoin="round" stroke-miterlimit="2" viewBox="0 0 24 24" width="512" xmlns="http://www.w3.org/2000/svg"><g id="Icon"><path d="m10.1 11.8c.248.33.182.801-.149 1.05-.331.248-.802.182-1.051-.149-.205-.274-.532-.451-.9-.451s-.695.177-.9.451c-.249.331-.72.397-1.051.149-.331-.249-.397-.72-.149-1.05.48-.638 1.242-1.05 2.1-1.05s1.62.412 2.1 1.05z"/><path d="m18.1 11.8c.248.33.182.801-.149 1.05-.331.248-.802.182-1.051-.149-.205-.274-.532-.451-.9-.451s-.695.177-.9.451c-.249.331-.72.397-1.051.149-.331-.249-.397-.72-.149-1.05.48-.638 1.242-1.05 2.1-1.05s1.62.412 2.1 1.05z"/><path d="m12 4.25c5.105 0 9.25 4.145 9.25 9.25s-4.145 9.25-9.25 9.25-9.25-4.145-9.25-9.25 4.145-9.25 9.25-9.25zm0 1.5c-4.277 0-7.75 3.473-7.75 7.75s3.473 7.75 7.75 7.75 7.75-3.473 7.75-7.75-3.473-7.75-7.75-7.75z"/><path d="m16.545 17.712c.285.301.271.776-.03 1.06s-.776.27-1.06-.031c-.867-.918-2.094-1.491-3.455-1.491s-2.588.573-3.455 1.491c-.284.301-.759.315-1.06.031s-.315-.759-.03-1.06c1.139-1.208 2.755-1.962 4.545-1.962s3.406.754 4.545 1.962z"/><path d="m21.25 5c0-.414.336-.75.75-.75s.75.336.75.75v3c0 .414-.336.75-.75.75s-.75-.336-.75-.75z"/><path d="m1.25 5c0-.414.336-.75.75-.75s.75.336.75.75v3c0 .414-.336.75-.75.75s-.75-.336-.75-.75z"/><path d="m18.25 2c0-.414.336-.75.75-.75s.75.336.75.75v3c0 .414-.336.75-.75.75s-.75-.336-.75-.75z"/><path d="m4.25 2c0-.414.336-.75.75-.75s.75.336.75.75v3c0 .414-.336.75-.75.75s-.75-.336-.75-.75z"/></g></svg>