<?xml version="1.0"?>
<svg xmlns="http://www.w3.org/2000/svg" viewBox="0 0 32 32" width="512" height="512"><g id="injection_blood_donation_health" data-name="injection, blood, donation, health"><path d="M28.707,7.293l-4-4a1,1,0,0,0-1.414,1.414L24.5859,6,22,8.5859,20.707,7.293a1,1,0,1,0-1.414,1.414L22.5859,12l-11,11H9V20.4141l7.707-7.7071a1,1,0,0,0-1.414-1.414l-8,8A1,1,0,0,0,7,20v3.5859L3.293,27.293a1,1,0,1,0,1.414,1.414L8.4141,25H12a1,1,0,0,0,.707-.293l12-12a.9994.9994,0,0,0,0-1.414L23.4141,10,26,7.4141,27.293,8.707a1,1,0,0,0,1.414-1.414Z"/></g></svg>
