<svg clip-rule="evenodd" fill-rule="evenodd" height="512" stroke-linejoin="round" stroke-miterlimit="2" viewBox="0 0 24 24" width="512" xmlns="http://www.w3.org/2000/svg"><g id="Icon"><path d="m11.611 12.015s.044-2.021-.754-4.054c-.557-1.416-1.518-2.827-3.129-3.633-.37-.185-.821-.034-1.006.336s-.035.821.335 1.006c1.25.625 1.971 1.741 2.403 2.84.685 1.742.651 3.474.651 3.474-.008.414.321.757.735.765.414.009.757-.32.765-.734z"/><path d="m11.609 10.419s.927-2.892 4.385-3.453c.409-.067.687-.452.62-.861-.066-.408-.452-.686-.86-.62-4.436.72-5.578 4.488-5.578 4.488-.123.396.099.816.494.939s.816-.098.939-.493z"/><path d="m10.323 8.13c.141-.073.256-.19.327-.333 0 0 1.064-2.188-.135-4.067-.731-1.147-2.354-2.262-5.857-2.479-.405-.025-.756.275-.794.679 0 0-.196 2.144.33 3.994.406 1.427 1.243 2.649 2.712 2.937.859.169 1.98.015 3.417-.731zm-.928-1.212c-.916.442-1.632.583-2.201.472-.895-.176-1.309-1.006-1.557-1.876-.273-.962-.319-2.016-.311-2.702 2.254.247 3.403.907 3.925 1.725.583.913.309 1.942.145 2.379z"/><path d="m11.931 7.925c.025.158.099.303.212.416 1.15 1.14 2.173 1.621 3.044 1.716 1.488.163 2.651-.754 3.464-1.996 1.054-1.608 1.506-3.713 1.506-3.713.084-.397-.161-.789-.555-.885-3.409-.837-5.29-.257-6.331.62-1.704 1.436-1.34 3.842-1.34 3.842zm1.459-.467c-.026-.466.019-1.53.848-2.228.742-.625 2.035-.913 4.261-.476-.198.657-.555 1.649-1.103 2.486-.496.757-1.139 1.425-2.046 1.326-.576-.063-1.217-.411-1.96-1.106z"/><path d="m17.136 14.598c.028-.214-.037-.43-.179-.593-.143-.162-.348-.256-.565-.256h-11c-.216 0-.421.094-.564.256-.142.163-.208.379-.179.593 0 0 .621 4.658.884 6.633.116.869.858 1.518 1.735 1.518h7.249c.877 0 1.619-.649 1.735-1.518.263-1.975.884-6.633.884-6.633zm-1.6.651-.771 5.783c-.017.124-.123.217-.248.217h-7.249c-.125 0-.231-.093-.248-.217 0 0-.771-5.783-.771-5.783z"/><path d="m17.642 13.999v-1.5c0-.69-.559-1.25-1.25-1.25-1.952 0-9.048 0-11 0-.69 0-1.25.56-1.25 1.25v1.5c0 .691.56 1.25 1.25 1.25h11c.691 0 1.25-.559 1.25-1.25zm-12-1.25v1h10.5v-1z"/></g></svg>