<svg height="512" viewBox="0 0 32 32" width="512" xmlns="http://www.w3.org/2000/svg"><g id="Layer_36" data-name="Layer 36"><path d="m28 27h-1v-15a1 1 0 0 0 -1-1h-11v-7a1 1 0 0 0 -1-1h-8a1 1 0 0 0 -1 1v19.2a1 1 0 0 0 2 0v-18.2h6v22h-9a1 1 0 0 0 0 2h24a1 1 0 0 0 0-2zm-13-14h10v14h-10z"/><path d="m9 11h2v2h-2z"/><path d="m9 7h2v2h-2z"/><path d="m17 15h2v2h-2z"/><path d="m17 19h2v2h-2z"/><path d="m17 23h2v2h-2z"/><path d="m21 15h2v2h-2z"/><path d="m21 19h2v2h-2z"/><path d="m21 23h2v2h-2z"/><path d="m9 15h2v2h-2z"/><path d="m9 19h2v2h-2z"/><path d="m9 23h2v2h-2z"/></g></svg>