<svg clip-rule="evenodd" fill-rule="evenodd" height="512" stroke-linejoin="round" stroke-miterlimit="2" viewBox="0 0 24 24" width="512" xmlns="http://www.w3.org/2000/svg"><g id="Icon"><path d="m15.999 20.673c.856 0 1.586-.618 1.726-1.462 0 0 .821-4.923.821-4.923.178-1.067-.646-2.038-1.727-2.038h-9.638c-1.083 0-1.905.971-1.727 2.039 0-.001.821 4.922.821 4.922.14.844.87 1.462 1.726 1.462zm0-1.5h-7.998c-.122 0-.226-.088-.246-.208l-.821-4.924c-.026-.152.092-.291.247-.291h9.638c.155 0 .273.139.247.291l-.821 4.924c-.02.12-.124.208-.246.208z"/><path d="m7.154 22.75h9.692c.414 0 .75-.336.75-.75s-.336-.75-.75-.75h-9.692c-.414 0-.75.336-.75.75s.336.75.75.75z"/><path d="m12 11.75c2.623 0 4.75-2.127 4.75-4.75v-1c0-2.623-2.127-4.75-4.75-4.75s-4.75 2.127-4.75 4.75v1c0 2.623 2.127 4.75 4.75 4.75zm0-1.5c-1.795 0-3.25-1.455-3.25-3.25v-1c0-1.795 1.455-3.25 3.25-3.25s3.25 1.455 3.25 3.25v1c0 1.795-1.455 3.25-3.25 3.25z"/><path d="m18.994 20.75h1.122c1.454 0 2.634-1.18 2.634-2.634 0-.612-.212-1.202-.599-1.672.001.001-1.489-2.797-1.489-2.797-.194-.365-.649-.504-1.014-.309-.366.195-.504.649-.31 1.015l1.528 2.869c.028.051.061.1.1.144.183.207.284.473.284.75 0 .626-.508 1.134-1.134 1.134h-1.122c-.414 0-.75.336-.75.75s.336.75.75.75z"/><path d="m5.006 19.25h-1.122c-.626 0-1.134-.508-1.134-1.134 0-.277.101-.543.284-.75.039-.044.072-.093.1-.144l1.528-2.869c.195-.366.056-.82-.309-1.015-.366-.195-.82-.056-1.015.309l-1.49 2.798c-.385.469-.598 1.059-.598 1.671 0 1.454 1.18 2.634 2.634 2.634h1.122c.414 0 .75-.336.75-.75s-.336-.75-.75-.75z"/></g></svg>