<svg clip-rule="evenodd" fill-rule="evenodd" stroke-linejoin="round" stroke-miterlimit="2" viewBox="0 0 32 32" xmlns="http://www.w3.org/2000/svg" xmlns:serif="http://www.serif.com/"><path id="tower-bts-signal-transceiver" d="m0 0h32v32h-32z" fill="none"/><path d="m9.083 21.569 5.963-17.888c.165-.425.56-.703 1.045-.68.325.048.618.227.775.504.042.075.047.096.077.176l8.002 24.003c.175.623-.062.857-.267 1.048-.483.451-1.376.242-1.631-.415l-3.006-9.017-7.364 2.762 7.712 3.305s.635.401.605.971c-.032.619-.722 1.107-1.333.891-.02-.007-.04-.016-.06-.024l-9.002-3.858-1.657 4.97s-.415.732-1.032.68c-.538-.045-.979-.59-.908-1.127.011-.084.02-.104.043-.186l1.962-5.888c.016-.078.041-.154.076-.227zm8.946-8.306-2.761.921 1.883.943c.729.433.537 1.852-.47 1.872-.113.002-.226-.015-.333-.05-.046-.016-.09-.035-.134-.056l-2.969-1.484-1.64 4.918 7.803-2.926zm-3.787-.846 3.155-1.051-1.402-4.206z"/></svg>