<svg clip-rule="evenodd" fill-rule="evenodd" height="512" stroke-linejoin="round" stroke-miterlimit="2" viewBox="0 0 24 24" width="512" xmlns="http://www.w3.org/2000/svg"><g id="Icon"><path d="m1.25 5c0 .597.237 1.169.659 1.591s.994.659 1.591.659h14.002c1.242 0 2.248-1.006 2.248-2.248 0-.001 0-.003 0-.004 0-1.242-1.006-2.248-2.248-2.248h-14.002c-.597 0-1.169.237-1.591.659s-.659.994-.659 1.591zm1.5 0c0-.199.079-.39.22-.53.14-.141.331-.22.53-.22h14.002c.413 0 .748.335.748.748v.004c0 .413-.335.748-.748.748h-14.002c-.199 0-.39-.079-.53-.22-.141-.14-.22-.331-.22-.53z"/><path d="m18.75 6.5c0-.414-.336-.75-.75-.75h-15c-.414 0-.75.336-.75.75v10c0 2.623 2.127 4.75 4.75 4.75h7c2.623 0 4.75-2.127 4.75-4.75 0-4.138 0-10 0-10zm-1.5.75v9.25c0 1.795-1.455 3.25-3.25 3.25-2.166 0-4.834 0-7 0-1.795 0-3.25-1.455-3.25-3.25v-9.25z"/><path d="m18 9.25h2c.69 0 1.25.56 1.25 1.25v2c0 .708-.333 1.375-.9 1.8-1.178.884-2.8 2.1-2.8 2.1-.331.248-.398.719-.15 1.05s.719.398 1.05.15c0 0 1.622-1.216 2.8-2.1.944-.708 1.5-1.82 1.5-3v-2c0-1.519-1.231-2.75-2.75-2.75h-2c-.414 0-.75.336-.75.75s.336.75.75.75z"/><path d="m11.25 17.129v-7.258c0-.414-.336-.75-.75-.75s-.75.336-.75.75v7.258c0 .414.336.75.75.75s.75-.336.75-.75z"/><path d="m8.95 11.971 1.55-1.163s1.55 1.163 1.55 1.163c.331.248.802.181 1.05-.15.248-.332.181-.802-.15-1.05l-2-1.5c-.267-.2-.633-.2-.9 0l-2 1.5c-.331.248-.398.718-.15 1.05.248.331.719.398 1.05.15z"/><path d="m8.95 14.971 1.55-1.163s1.55 1.163 1.55 1.163c.331.248.802.181 1.05-.15.248-.332.181-.802-.15-1.05l-2-1.5c-.267-.2-.633-.2-.9 0l-2 1.5c-.331.248-.398.718-.15 1.05.248.331.719.398 1.05.15z"/></g></svg>