<svg clip-rule="evenodd" fill-rule="evenodd" height="512" stroke-linejoin="round" stroke-miterlimit="2" viewBox="0 0 24 24" width="512" xmlns="http://www.w3.org/2000/svg"><g id="Icon"><path d="m13.446 5.37c.019-.155-.073-.303-.221-.353s-.311.011-.39.146c-1.305 2.237-3.811 6.533-4.659 7.987-.059.102-.06.228-.001.33.058.102.167.165.285.165h2.717s-.379 3.038-.623 4.985c-.019.155.073.303.221.353s.311-.011.39-.146c1.305-2.237 3.811-6.533 4.659-7.987.059-.102.06-.228.001-.33-.058-.102-.167-.165-.285-.165-.943 0-2.717 0-2.717 0s.379-3.038.623-4.985z"/><path d="m12 1.25c5.933 0 10.75 4.817 10.75 10.75s-4.817 10.75-10.75 10.75-10.75-4.817-10.75-10.75 4.817-10.75 10.75-10.75zm0 1.5c-5.105 0-9.25 4.145-9.25 9.25s4.145 9.25 9.25 9.25 9.25-4.145 9.25-9.25-4.145-9.25-9.25-9.25z"/></g></svg>