<svg clip-rule="evenodd" fill-rule="evenodd" height="512" stroke-linejoin="round" stroke-miterlimit="2" viewBox="0 0 24 24" width="512" xmlns="http://www.w3.org/2000/svg"><g id="Icon"><path d="m7.379 17.854v.501c0 .77.625 1.395 1.395 1.395h6.452c.77 0 1.395-.625 1.395-1.395 0-.073-.002-.341.006-.423.003-.026.004-.052.004-.078 0-1.342.474-2.641 1.339-3.667 1.17-1.371 1.877-3.149 1.877-5.09 0-4.331-3.516-7.847-7.847-7.847s-7.847 3.516-7.847 7.847c0 1.942.707 3.72 1.885 5.085.866 1.028 1.341 2.329 1.341 3.672zm7.752-.02-.005.115c-.001.053-.002.105-.003.157l-.001.144h-6.243v-.396c0-1.698-.601-3.342-1.696-4.641-.002-.002-.004-.004-.006-.007-.953-1.102-1.524-2.539-1.524-4.109 0-3.503 2.844-6.347 6.347-6.347s6.347 2.844 6.347 6.347c0 1.571-.573 3.01-1.52 4.119-.001.001-.002.002-.003.004-1.089 1.291-1.688 2.925-1.693 4.614z"/><path d="m15.976 19c0-.414-.336-.75-.75-.75h-6.452c-.414 0-.75.336-.75.75v1.71c0 .541.215 1.06.598 1.442.382.383.901.598 1.443.598h3.87c.542 0 1.061-.215 1.443-.598.383-.382.598-.901.598-1.442 0-.645 0-1.71 0-1.71zm-1.5.75v.96c0 .143-.057.28-.158.382-.102.101-.239.158-.383.158h-3.87c-.144 0-.281-.057-.383-.158-.101-.102-.158-.239-.158-.382v-.96z"/><path d="m17.25 7.75c0-.414-.336-.75-.75-.75h-1.125c-1.094 0-2.143.435-2.917 1.208-.773.774-1.208 1.823-1.208 2.917v1.125c0 .414.336.75.75.75h1.125c1.094 0 2.143-.435 2.917-1.208.773-.774 1.208-1.823 1.208-2.917zm-1.5.75v.375c0 .696-.277 1.364-.769 1.856s-1.16.769-1.856.769h-.375v-.375c0-.696.277-1.364.769-1.856s1.16-.769 1.856-.769z"/><path d="m7.5 7c-.414 0-.75.336-.75.75v1.125c0 1.094.435 2.143 1.208 2.917.774.773 1.823 1.208 2.917 1.208h1.125c.414 0 .75-.336.75-.75v-1.125c0-1.094-.435-2.143-1.208-2.917-.774-.773-1.823-1.208-2.917-1.208zm.75 1.5h.375c.696 0 1.364.277 1.856.769s.769 1.16.769 1.856v.375h-.375c-.696 0-1.364-.277-1.856-.769s-.769-1.16-.769-1.856z"/><path d="m11.25 12v6.5c0 .414.336.75.75.75s.75-.336.75-.75v-6.5c0-.414-.336-.75-.75-.75s-.75.336-.75.75z"/></g></svg>