<svg clip-rule="evenodd" fill-rule="evenodd" stroke-linejoin="round" stroke-miterlimit="1.414" viewBox="0 0 32 32" xmlns="http://www.w3.org/2000/svg" xmlns:serif="http://www.serif.com/"><path id="strategy-map-organize-analysis" d="m0 0h32v32h-32z" fill="none"/><path d="m18.596 25.979-1.292-1.292c-.56-.582-.259-1.715.736-1.705.255.013.493.116.677.292l1.291 1.292 1.292-1.292c.206-.197.384-.302.756-.291.774.054 1.258 1.08.657 1.704l-1.292 1.292 1.292 1.292c.684.711-.348 2.436-1.413 1.413l-1.292-1.292-1.291 1.292c-.713.685-2.436-.349-1.413-1.413zm3.453-14.985c.241.019.279.045.379.092.966.449.607 2.168.289 3.341-.793 2.927-3.598 4.928-6.737 5.392-2.409.37-4.887 1.485-5.967 3.675-.676 1.369-.799 2.941-.986 4.484-.111.878-1.374 1.415-1.885.477-.075-.138-.117-.293-.121-.45-.035-1.264.314-3.814 1.379-5.739 1.488-2.689 4.679-3.977 7.771-4.496 1.517-.265 2.986-.952 3.862-2.213.709-1.021 1.019-2.288.975-3.53 0 0 .17-1.037 1.041-1.033zm-11.446.998-1.292-1.292c-.558-.581-.257-1.715.736-1.705.255.013.494.116.677.292l1.292 1.292 1.291-1.292c.206-.197.385-.302.757-.291.767.053 1.257 1.079.656 1.704l-1.291 1.292 1.291 1.292c.692.719-.348 2.435-1.413 1.412l-1.291-1.291-1.292 1.291c-.717.689-2.436-.348-1.413-1.412zm11.447-8.992c1.971.038 3.593 2.367 2.662 4.297-.811 1.682-3.368 2.205-4.769.87-1.647-1.571-.763-5.114 2.03-5.167zm-.052 1.998c-.86.017-1.41 1.482-.375 1.92.733.31 1.733-.586 1.255-1.417-.178-.31-.505-.505-.88-.503z" fill-rule="nonzero"/></svg>