<?xml version="1.0"?>
<svg xmlns="http://www.w3.org/2000/svg" viewBox="0 0 32 32" width="512" height="512"><g id="library_book_school" data-name="library, book, school"><path d="M11,10.001a1,1,0,0,0,1.0713.9975,4.2558,4.2558,0,0,1,3.2,1.6875,1.0029,1.0029,0,0,0,.708.315H16a1,1,0,0,0,.7-.2862A4.9644,4.9644,0,0,1,20.002,11.001a1,1,0,0,0,.998-1v-6a1,1,0,0,0-.9883-1,6.2672,6.2672,0,0,0-3.998,1.6255,5.9024,5.9024,0,0,0-4.0459-1.625,1,1,0,0,0-.9678,1V7.1735L3.8125,8.5444a1,1,0,0,0,.1865,1.9825,1.0442,1.0442,0,0,0,.1885-.0176L11,9.21Zm2-4.8716a5.36,5.36,0,0,1,2.2734,1.5581.9982.9982,0,0,0,.7159.3135H16a.997.997,0,0,0,.7109-.2974A5.9013,5.9013,0,0,1,19,5.1577V9.105a6.9263,6.9263,0,0,0-2.9736,1.5273A6.1785,6.1785,0,0,0,13,9.0557Z"/><path d="M28.1875,8.5444l-4-.7627a1,1,0,0,0-.375,1.9649L25,9.973V27.001H21v-5a1,1,0,0,0-1-1H12a1,1,0,0,0-1,1v5H7V12.9629a1,1,0,1,0-2,0V28.001a1,1,0,0,0,1,1H16a1,1,0,0,0,0-2H13v-4h6v5a1,1,0,0,0,1,1h6a1,1,0,0,0,1-1V10.3544l.8125.1549a1.0442,1.0442,0,0,0,.1885.0176,1,1,0,0,0,.1865-1.9825Z"/><path d="M9,16.001v1a1,1,0,0,0,2,0v-1a1,1,0,1,0-2,0Z"/><path d="M13,16.001v1a1,1,0,0,0,2,0v-1a1,1,0,1,0-2,0Z"/><path d="M17,16.001v1a1,1,0,1,0,2,0v-1a1,1,0,1,0-2,0Z"/><path d="M21,17.001a1,1,0,1,0,2,0v-1a1,1,0,1,0-2,0Z"/></g></svg>
