<svg clip-rule="evenodd" fill-rule="evenodd" height="512" stroke-linejoin="round" stroke-miterlimit="2" viewBox="0 0 24 24" width="512" xmlns="http://www.w3.org/2000/svg"><g id="Icon"><path d="m12 6.007c-1.749 0-3.17 1.42-3.17 3.17 0 1.376 2.464 8.32 2.464 8.32.107.297.39.496.706.496s.599-.199.706-.496c0 0 2.464-6.944 2.464-8.32 0-1.75-1.421-3.17-3.17-3.17zm0 1.5c.922 0 1.67.748 1.67 1.67 0 .365-.215 1.169-.493 2.121-.344 1.179-.8 2.561-1.177 3.667-.377-1.106-.833-2.488-1.177-3.667-.278-.952-.493-1.756-.493-2.121 0-.922.748-1.67 1.67-1.67z"/><path d="m18.445 8.039c-1.433-1.003-3.412-.655-4.415.778-.789 1.128-2.754 8.229-2.754 8.229-.083.305.035.63.294.811.259.182.604.181.863-.001 0 0 6.001-4.275 6.79-5.402 1.004-1.433.655-3.412-.778-4.415zm-.861 1.229c.755.528.939 1.57.41 2.325-.209.3-.846.835-1.62 1.455-.958.769-2.124 1.639-3.068 2.329.326-1.123.745-2.516 1.14-3.679.318-.939.603-1.721.813-2.02.528-.755 1.57-.939 2.325-.41z"/><path d="m22.558 13.4c-.598-1.644-2.418-2.493-4.062-1.894-1.294.47-6.976 5.161-6.976 5.161-.243.202-.333.535-.225.833.108.297.392.494.708.493 0 0 7.368-.059 8.661-.53 1.644-.598 2.493-2.419 1.894-4.063zm-1.409.513c.315.866-.132 1.825-.998 2.14-.343.125-1.172.198-2.162.263-1.225.08-2.68.124-3.849.148.911-.733 2.054-1.634 3.044-2.361.799-.586 1.481-1.063 1.825-1.188.866-.315 1.825.132 2.14.998z"/><path d="m5.555 8.039c-1.433 1.003-1.782 2.982-.778 4.415.789 1.127 6.79 5.402 6.79 5.402.259.182.604.183.863.001.259-.181.377-.506.294-.811 0 0-1.965-7.101-2.754-8.229-1.003-1.433-2.982-1.781-4.415-.778zm.861 1.229c.755-.529 1.797-.345 2.325.41.21.299.495 1.081.813 2.02.395 1.163.814 2.556 1.14 3.679-.944-.69-2.11-1.56-3.068-2.329-.774-.62-1.411-1.155-1.62-1.455-.529-.755-.345-1.797.41-2.325z"/><path d="m1.442 13.4c-.599 1.644.25 3.465 1.894 4.063 1.293.471 8.661.53 8.661.53.316.001.6-.196.708-.493.108-.298.018-.631-.225-.833 0 0-5.682-4.691-6.976-5.161-1.644-.599-3.464.25-4.062 1.894zm1.409.513c.315-.866 1.274-1.313 2.14-.998.344.125 1.026.602 1.825 1.188.99.727 2.133 1.628 3.044 2.361-1.169-.024-2.624-.068-3.849-.148-.99-.065-1.819-.138-2.162-.263-.866-.315-1.313-1.274-.998-2.14z"/></g></svg>