<svg clip-rule="evenodd" fill-rule="evenodd" height="512" stroke-linejoin="round" stroke-miterlimit="2" viewBox="0 0 24 24" width="512" xmlns="http://www.w3.org/2000/svg"><g id="Icon"><path d="m11.815 15.798c.152-.667-.009-1.367-.436-1.902s-1.074-.847-1.758-.847h-5.742c-.684 0-1.331.312-1.758.847s-.588 1.235-.436 1.902l.568 2.5c.233 1.025 1.144 1.751 2.194 1.751h4.606c1.05 0 1.961-.726 2.194-1.751zm-1.463-.332-.568 2.5c-.078.341-.381.583-.731.583h-4.606c-.35 0-.653-.242-.731-.583 0 0-.568-2.5-.568-2.5-.051-.223.003-.456.145-.634.142-.179.358-.283.586-.283h5.742c.228 0 .444.104.586.283.142.178.196.411.145.634z"/><path d="m22.315 15.798c.152-.667-.009-1.367-.436-1.902s-1.074-.847-1.758-.847h-5.742c-.684 0-1.331.312-1.758.847s-.588 1.235-.436 1.902l.568 2.5c.233 1.025 1.144 1.751 2.194 1.751h4.606c1.05 0 1.961-.726 2.194-1.751zm-1.463-.332-.568 2.5c-.078.341-.381.583-.731.583h-4.606c-.35 0-.653-.242-.731-.583 0 0-.568-2.5-.568-2.5-.051-.223.003-.456.145-.634.142-.179.358-.283.586-.283h5.742c.228 0 .444.104.586.283.142.178.196.411.145.634z"/><path d="m11.5 16.049h1c.414 0 .75-.336.75-.75 0-.413-.336-.75-.75-.75h-1c-.414 0-.75.337-.75.75 0 .414.336.75.75.75z"/><path d="m22.242 14.693s-.921-6.451-1.32-9.24c-.076-.531-.391-.999-.856-1.267-.465-.269-1.027-.31-1.526-.11-.647.258-1.319.527-1.319.527-.384.154-.571.591-.417.975.153.384.59.572.975.418l1.318-.528c.071-.028.152-.022.218.016.067.038.112.105.122.181l1.321 9.241c.058.409.438.694.848.636.41-.059.695-.439.636-.849z"/><path d="m3.242 14.906 1.321-9.241c.01-.076.055-.143.122-.181.066-.038.147-.044.218-.016l1.318.528c.385.154.822-.034.975-.418.154-.384-.033-.821-.417-.975 0 0-.672-.269-1.319-.527-.499-.2-1.061-.159-1.526.11-.465.268-.78.736-.856 1.267-.399 2.789-1.32 9.24-1.32 9.24-.059.41.226.79.636.849.41.058.79-.227.848-.636z"/></g></svg>