<svg clip-rule="evenodd" fill-rule="evenodd" height="512" stroke-linejoin="round" stroke-miterlimit="2" viewBox="0 0 24 24" width="512" xmlns="http://www.w3.org/2000/svg"><g id="Icon"><path d="m18.965 9.5v-1.672c0-.729-.29-1.428-.806-1.944-.962-.962-2.866-2.866-3.828-3.829-.516-.515-1.215-.805-1.945-.805h-8.386c-.729 0-1.429.29-1.945.805-.515.516-.805 1.216-.805 1.945v16c0 .729.29 1.429.805 1.945.516.515 1.216.805 1.945.805h5c.414 0 .75-.336.75-.75s-.336-.75-.75-.75h-5c-.332 0-.649-.132-.884-.366-.234-.235-.366-.552-.366-.884v-16c0-.332.132-.649.366-.884.235-.234.552-.366.884-.366h8.386c.332 0 .65.132.884.366l3.829 3.829c.234.234.366.552.366.883v1.672c0 .414.336.75.75.75s.75-.336.75-.75z"/><path d="m12.465 2.5v3.5c0 .967.783 1.75 1.75 1.75h3.5c.414 0 .75-.336.75-.75s-.336-.75-.75-.75h-3.5c-.138 0-.25-.112-.25-.25v-3.5c0-.414-.336-.75-.75-.75s-.75.336-.75.75z"/><path d="m5.5 7.75h3c.414 0 .75-.336.75-.75s-.336-.75-.75-.75h-3c-.414 0-.75.336-.75.75s.336.75.75.75z"/><path d="m5.5 13.75h3c.414 0 .75-.336.75-.75s-.336-.75-.75-.75h-3c-.414 0-.75.336-.75.75s.336.75.75.75z"/><path d="m5.5 10.75h6c.414 0 .75-.336.75-.75s-.336-.75-.75-.75h-6c-.414 0-.75.336-.75.75s.336.75.75.75z"/><path d="m22.75 18c0-.464-.184-.909-.513-1.237-.328-.329-.773-.513-1.237-.513h-2.5c-.414 0-.75.336-.75.75v5c0 .414.336.75.75.75h2.5c.464 0 .909-.184 1.237-.513.329-.328.513-.773.513-1.237zm-1.5 0v3c0 .066-.026.13-.073.177s-.111.073-.177.073h-1.75v-3.5h1.75c.066 0 .13.026.177.073s.073.111.073.177z"/><path d="m19.25 22v-9c0-.967-.784-1.75-1.75-1.75h-1.5c-.966 0-1.75.783-1.75 1.75v9c0 .414.336.75.75.75h3.5c.414 0 .75-.336.75-.75zm-1.5-9v8.25h-2v-8.25c0-.138.112-.25.25-.25h1.5c.138 0 .25.112.25.25z"/><path d="m15.75 15c0-.414-.336-.75-.75-.75h-2.5c-.464 0-.909.184-1.237.513-.329.328-.513.773-.513 1.237v5c0 .464.184.909.513 1.237.328.329.773.513 1.237.513h2.5c.414 0 .75-.336.75-.75zm-1.5.75v5.5h-1.75c-.066 0-.13-.026-.177-.073s-.073-.111-.073-.177v-5c0-.066.026-.13.073-.177s.111-.073.177-.073z"/></g></svg>