<svg clip-rule="evenodd" fill-rule="evenodd" height="512" stroke-linejoin="round" stroke-miterlimit="2" viewBox="0 0 24 24" width="512" xmlns="http://www.w3.org/2000/svg"><g id="Icon"><path d="m18 22.75c1.518 0 2.75-1.232 2.75-2.75v-7c0-1.518-1.232-2.75-2.75-2.75s-2.75 1.232-2.75 2.75v7c0 1.518 1.232 2.75 2.75 2.75zm0-1.5c-.69 0-1.25-.56-1.25-1.25v-7c0-.69.56-1.25 1.25-1.25s1.25.56 1.25 1.25v7c0 .69-.56 1.25-1.25 1.25z"/><path d="m21.838 20.534c.542-.331.913-.993.913-1.733v-4.601c0-.741-.371-1.403-.913-1.734.001.001-1.446-.883-1.446-.883-.232-.142-.522-.147-.758-.015-.237.133-.383.383-.383.655v8.555c0 .271.146.521.383.654.236.132.526.127.758-.014zm-.781-1.281-.306.188v-5.881l.306.187c.136.083.194.266.194.453v4.601c0 .186-.058.369-.194.452z"/><path d="m6 22.75c1.518 0 2.75-1.232 2.75-2.75v-7c0-1.518-1.232-2.75-2.75-2.75s-2.75 1.232-2.75 2.75v7c0 1.518 1.232 2.75 2.75 2.75zm0-1.5c-.69 0-1.25-.56-1.25-1.25v-7c0-.69.56-1.25 1.25-1.25s1.25.56 1.25 1.25v7c0 .69-.56 1.25-1.25 1.25z"/><path d="m2.162 20.534 1.447.884c.231.141.521.146.758.014.237-.133.383-.383.383-.654v-8.555c0-.272-.146-.522-.383-.655-.237-.132-.527-.127-.758.015l-1.447.884c-.542.33-.912.992-.912 1.733v4.601c0 .74.37 1.402.912 1.733zm.782-1.28s0 0 0-.001c-.136-.083-.194-.266-.194-.452v-4.601c0-.187.058-.37.194-.453l.306-.187v5.881s-.306-.187-.306-.187z"/><path d="m4.75 13v-3c0-4.004 3.246-7.25 7.25-7.25s7.25 3.246 7.25 7.25v3c0 .414.336.75.75.75s.75-.336.75-.75v-3c0-4.832-3.918-8.75-8.75-8.75s-8.75 3.918-8.75 8.75v3c0 .414.336.75.75.75s.75-.336.75-.75z"/></g></svg>