<svg clip-rule="evenodd" fill-rule="evenodd" height="512" stroke-linejoin="round" stroke-miterlimit="2" viewBox="0 0 24 24" width="512" xmlns="http://www.w3.org/2000/svg"><g id="Icon"><path d="m22.75 4.25c0-.597-.237-1.169-.659-1.591s-.994-.659-1.591-.659h-17c-.597 0-1.169.237-1.591.659s-.659.994-.659 1.591v12c0 .597.237 1.169.659 1.591s.994.659 1.591.659h17c.597 0 1.169-.237 1.591-.659s.659-.994.659-1.591zm-1.5 0v12c0 .199-.079.39-.22.53-.14.141-.331.22-.53.22h-17c-.199 0-.39-.079-.53-.22-.141-.14-.22-.331-.22-.53v-12c0-.199.079-.39.22-.53.14-.141.331-.22.53-.22h17c.199 0 .39.079.53.22.141.14.22.331.22.53z"/><path d="m9.811 17.455-1.5 3.5c-.163.38.013.821.394.984.38.163.821-.013.984-.394l1.5-3.5c.163-.38-.013-.821-.394-.984-.38-.163-.821.013-.984.394z"/><path d="m12.811 18.045 1.5 3.5c.163.381.604.557.984.394.381-.163.557-.604.394-.984l-1.5-3.5c-.163-.381-.604-.557-.984-.394-.381.163-.557.604-.394.984z"/><path d="m7 22h10c.414 0 .75-.336.75-.75s-.336-.75-.75-.75h-10c-.414 0-.75.336-.75.75s.336.75.75.75z"/></g></svg>