<svg clip-rule="evenodd" fill-rule="evenodd" height="512" stroke-linejoin="round" stroke-miterlimit="2" viewBox="0 0 24 24" width="512" xmlns="http://www.w3.org/2000/svg"><g id="Icon"><path d="m21.782 13.948c.593-.296.968-.903.968-1.566v-2.381c0-.968-.784-1.75-1.75-1.75h-18c-.968 0-1.75.782-1.75 1.75v2.381c0 .663.375 1.27.967 1.565l3.237 1.618c.241.121.511.186.782.186h11.527c.272 0 .539-.064.781-.185zm-.67-1.343-3.235 1.618c-.035.018-.074.028-.114.028h-11.527c-.039 0-.077-.01-.112-.027l-3.237-1.618c-.084-.043-.137-.13-.137-.224v-2.381c0-.139.112-.25.25-.25h18c.138 0 .25.111.25.25v2.381c0 .094-.053.181-.138.223z"/><path d="m7 12.75h10c.414 0 .75-.336.75-.75s-.336-.75-.75-.75h-10c-.414 0-.75.336-.75.75s.336.75.75.75z"/></g></svg>