<svg clip-rule="evenodd" fill-rule="evenodd" height="512" stroke-linejoin="round" stroke-miterlimit="2" viewBox="0 0 24 24" width="512" xmlns="http://www.w3.org/2000/svg"><g id="Icon"><path d="m12 1.25c-5.933 0-10.75 4.817-10.75 10.75s4.817 10.75 10.75 10.75 10.75-4.817 10.75-10.75-4.817-10.75-10.75-10.75zm0 1.5c5.105 0 9.25 4.145 9.25 9.25s-4.145 9.25-9.25 9.25-9.25-4.145-9.25-9.25 4.145-9.25 9.25-9.25z"/><path d="m15.4 15.549c-.776 1.033-2.011 1.701-3.4 1.701s-2.624-.668-3.4-1.701c-.248-.331-.719-.397-1.05-.149-.331.249-.397.72-.149 1.051 1.05 1.396 2.72 2.299 4.599 2.299s3.549-.903 4.599-2.299c.248-.331.182-.802-.149-1.051-.331-.248-.802-.182-1.05.149z"/><circle cx="16" cy="10" r="1.5"/><circle cx="8" cy="10" r="1.5"/></g></svg>