<svg clip-rule="evenodd" fill-rule="evenodd" height="512" stroke-linejoin="round" stroke-miterlimit="2" viewBox="0 0 24 24" width="512" xmlns="http://www.w3.org/2000/svg"><g id="Icon"><circle cx="5.25" cy="5" r=".75"/><circle cx="7.75" cy="5" r=".75"/><circle cx="10.25" cy="5" r=".75"/><path d="m22.75 10.5v-6c0-1.795-1.455-3.25-3.25-3.25-3.842 0-11.158 0-15 0-1.795 0-3.25 1.455-3.25 3.25v15c0 1.795 1.455 3.25 3.25 3.25h6.5c.414 0 .75-.336.75-.75s-.336-.75-.75-.75c0 0-3.837 0-6.5 0-.966 0-1.75-.783-1.75-1.75v-15c0-.967.783-1.75 1.75-1.75h15c.967 0 1.75.784 1.75 1.75v6c0 .414.336.75.75.75s.75-.336.75-.75z"/><path d="m22 7.25h-20c-.414 0-.75.336-.75.75s.336.75.75.75h20c.414 0 .75-.336.75-.75s-.336-.75-.75-.75z"/><path d="m22.577 13.979c.186-.223.226-.534.102-.798-.124-.263-.388-.431-.679-.431h-8c-.414 0-.75.336-.75.75v5.5c0 .414.336.75.75.75h8c.291 0 .555-.168.679-.431.124-.264.084-.575-.102-.798l-1.887-2.271s1.887-2.271 1.887-2.271zm-2.176.271-1.263 1.521c-.231.277-.231.681 0 .958l1.263 1.521h-5.651v-4z"/><path d="m13.25 18v4c0 .414.336.75.75.75s.75-.336.75-.75v-4c0-.414-.336-.75-.75-.75s-.75.336-.75.75z"/></g></svg>