<svg clip-rule="evenodd" fill-rule="evenodd" height="512" stroke-linejoin="round" stroke-miterlimit="2" viewBox="0 0 24 24" width="512" xmlns="http://www.w3.org/2000/svg"><g id="Icon"><path d="m8.417 4.404-2.324 13.182c-.22 1.249.619 2.444 1.88 2.666 2.974.525 5.868 1.035 9.207 1.624.74.13 1.501-.036 2.115-.462.618-.428 1.037-1.082 1.167-1.818 0 0 1.539-8.73 2.246-12.738.127-.719-.037-1.458-.455-2.055-.419-.598-1.057-1.004-1.775-1.131-3.103-.547-8.779-1.548-8.779-1.548-.74-.13-1.5.036-2.115.462-.618.428-1.037 1.082-1.167 1.818zm-.847 13.443 2.324-13.182c.061-.343.257-.647.544-.846.291-.202.651-.279 1.001-.218l8.778 1.548c.327.058.617.243.807.514.19.272.265.608.207.934l-2.246 12.738c-.06.343-.256.647-.544.846-.291.202-.651.279-1.001.218 0 0-9.206-1.624-9.206-1.624-.441-.078-.741-.491-.664-.928z"/><path d="m11.37 19.518-4.81.849c-.35.061-.71-.017-1.001-.218-.288-.199-.484-.503-.544-.846l-2.246-12.738c-.058-.326.017-.662.207-.934.19-.271.48-.456.807-.514l5.942-1.048c.408-.072.681-.461.609-.869-.072-.407-.461-.68-.869-.608l-5.943 1.048c-.718.127-1.356.533-1.775 1.131-.418.597-.582 1.336-.455 2.055.707 4.008 2.246 12.738 2.246 12.738.13.736.549 1.39 1.167 1.818.614.426 1.375.592 2.115.462l4.81-.848c.408-.072.68-.462.609-.869-.072-.408-.462-.68-.869-.609z"/><path d="m13.237 8.742 3.447.607c.408.072.797-.2.869-.608s-.201-.797-.609-.869l-3.446-.608c-.408-.071-.797.201-.869.609-.072.407.201.797.608.869z"/><path d="m11.558 12.507 5.416.955c.408.072.797-.2.869-.608s-.201-.797-.608-.869l-5.417-.955c-.407-.072-.797.201-.869.608-.071.408.201.797.609.869z"/><path d="m10.95 15.954 5.416.955c.408.072.797-.201.869-.608.072-.408-.2-.797-.608-.869l-5.417-.955c-.407-.072-.796.201-.868.608-.072.408.2.797.608.869z"/></g></svg>