<svg clip-rule="evenodd" fill-rule="evenodd" stroke-linejoin="round" stroke-miterlimit="1.414" viewBox="0 0 32 32" xmlns="http://www.w3.org/2000/svg" xmlns:serif="http://www.serif.com/"><path id="trash-can-delete-remove" d="m0 0h32v32h-32z" fill="none"/><path d="m24.074 11c.503.059.901.484.921.996v13.997c-.01 1.554-1.344 2.965-2.96 2.996-4.012.025-8.025 0-12.037 0-1.568-.01-2.985-1.349-2.995-2.996v-13.997c.01-.256.043-.326.109-.454.28-.55 1.131-.718 1.597-.253.185.185.282.443.293.707 0 4.669-.03 9.338 0 14.007.01.516.464.977.986.987 4.007.025 8.014.025 12.021 0 .521-.01.983-.457.987-1.003v-13.991c.019-.481.373-.913.843-.987.149-.024.186-.011.235-.009zm-6.04 1.997c.182.016.231.035.327.075.327.136.57.456.61.811.006.05.005.062.007.112v7.997c-.022.763-1.037 1.307-1.666.745-.182-.162-.3-.392-.327-.633-.006-.05-.005-.062-.007-.112v-7.997c.006-.182.023-.233.057-.33.123-.352.456-.621.831-.663.108-.012.133-.006.168-.005zm-3.958 0c.181.016.231.035.326.075.328.136.571.456.611.811.005.05.005.062.006.112v7.997c-.021.755-1.044 1.301-1.666.745-.181-.162-.3-.392-.327-.633-.005-.05-.005-.062-.006-.112v-7.997c.005-.182.022-.233.056-.33.123-.352.456-.621.832-.663.108-.012.133-.006.168-.005zm-3.075-5.999v-2.998c.005-.183.022-.233.056-.331.123-.352.456-.62.832-.663.049-.005.062-.005.111-.006h7.997c.019.001.037.001.056.002.182.015.232.035.327.074.328.136.57.456.61.812.006.049.005.062.007.112v2.998h4.997l.088.004c.282.037.355.085.486.177.47.329.56 1.099.133 1.526-.144.144-.332.242-.533.277-.076.014-.096.012-.174.015h-19.991c-.284-.012-.361-.054-.5-.133-.522-.302-.656-1.123-.207-1.573.145-.144.332-.242.533-.278.077-.013.097-.011.174-.015zm7.996 0v-1.999h-5.997v1.999z" fill-rule="nonzero"/></svg>