<svg height="512" viewBox="0 0 32 32" width="512" xmlns="http://www.w3.org/2000/svg"><g fill-rule="evenodd"><path d="m28 3h-24a1 1 0 0 0 -1 1v20a1 1 0 0 0 1 1h7.5859l3.7071 3.707a.9995.9995 0 0 0 1.414 0l4-4a1 1 0 0 0 -1.414-1.414l-3.293 3.2929-3.293-3.2929a.9993.9993 0 0 0 -.707-.293h-7v-18h22v18h-3a1 1 0 0 0 0 2h4a1 1 0 0 0 1-1v-20a1 1 0 0 0 -1-1z"/><path d="m19 12a3 3 0 0 0 -6-.001 1 1 0 1 0 2 0 1 1 0 1 1 2 .0137c-.0029.144-.07.6313-.8721.8833a1.75 1.75 0 0 0 -1.1279 1.6299v1.4741a1 1 0 0 0 2 0v-1.29a2.93 2.93 0 0 0 2-2.71z"/><path d="m16 18a1.0035 1.0035 0 1 0 1.0059 1.004 1.0059 1.0059 0 0 0 -1.0059-1.004z"/></g></svg>