<svg clip-rule="evenodd" fill-rule="evenodd" stroke-linejoin="round" stroke-miterlimit="1.414" viewBox="0 0 32 32" xmlns="http://www.w3.org/2000/svg" xmlns:serif="http://www.serif.com/"><path id="home-house-desktop-dashboard" d="m0 0h32v32h-32z" fill="none"/><path d="m25.038 12.623c-2.776-2.477-5.541-4.968-8.373-7.382-.367-.306-.939-.307-1.31.017l-10.695 9.447c-.066.053-.081.069-.155.112-.693.409-1.777-.367-1.442-1.227.057-.147.154-.275.27-.387l10.7-9.45c.554-.485 1.281-.755 2.021-.751.712.011 1.415.28 1.954.751l10.7 9.45c.56.544.278 1.635-.531 1.744-.221.03-.45-.017-.642-.13-.073-.043-.088-.059-.154-.112-.113-.1-.226-.2-.339-.3v11.576c-.009 1.56-1.353 2.973-2.968 3.003-5.358.033-10.715 0-16.073 0-1.567-.01-2.993-1.366-3.003-3.003v-8.619c.004-.078.002-.098.015-.174.138-.78 1.392-1.129 1.855-.327.08.138.122.216.134.501 0 2.876-.017 5.752 0 8.628.01.518.466.98.99.99 3.678.023 7.356.03 11.034.021v-10.041h-6.012v7.014c-.018.531-.202.641-.369.777-.543.441-1.524.098-1.625-.641-.009-.06-.008-.075-.01-.136v-8.016c.007-.21.026-.245.058-.336.122-.344.443-.607.808-.657.06-.008.076-.007.136-.009h8.016c.023.001.046.001.069.002.463.048.861.405.924.863.008.061.007.076.009.137v11.037c1.006-.004 2.013-.009 3.019-.015.521-.01.986-.459.989-1.005z" fill-rule="nonzero"/></svg>