<svg clip-rule="evenodd" fill-rule="evenodd" height="512" stroke-linejoin="round" stroke-miterlimit="2" viewBox="0 0 24 24" width="512" xmlns="http://www.w3.org/2000/svg"><g id="Icon"><path d="m18.964 16.75c1.344 0 2.491-.972 2.712-2.298.347-2.082.942-5.651 1.333-8 .133-.797-.091-1.613-.614-2.23-.522-.616-1.29-.972-2.098-.972-3.045 0-8.266 0-10.945 0-1.344 0-2.492.972-2.713 2.298-.347 2.082-.941 5.651-1.333 8-.133.797.092 1.613.614 2.23.523.616 1.29.972 2.099.972zm0-1.5h-10.945c-.368 0-.717-.162-.954-.442-.238-.28-.34-.651-.279-1.013 0-.001 1.333-8 1.333-8 .101-.603.622-1.045 1.233-1.045h10.945c.367 0 .716.162.954.442.237.28.339.651.279 1.013 0 .001-1.333 8-1.333 8-.101.603-.622 1.045-1.233 1.045z"/><path d="m18.89 4.163c.049-.222-.005-.455-.147-.632-.142-.178-.358-.281-.585-.281h-6c-.352 0-.656.244-.732.587 0 0-.434 1.951-.73 3.283-.115.519.011 1.061.343 1.475.333.414.835.655 1.365.655h3.952c.82 0 1.53-.57 1.708-1.37.286-1.289.826-3.717.826-3.717zm-1.667.587-.623 2.804c-.026.115-.127.196-.244.196h-3.952c-.075 0-.147-.034-.195-.094-.047-.059-.065-.136-.049-.21l.599-2.696z"/><path d="m18.884 19.25h-17c-.414 0-.75.336-.75.75s.336.75.75.75h17c.413 0 .75-.336.75-.75s-.337-.75-.75-.75z"/><path d="m5.384 4.25h-3.5c-.414 0-.75.336-.75.75s.336.75.75.75h3.5c.413 0 .75-.336.75-.75s-.337-.75-.75-.75z"/><path d="m4.384 7.75h-2.5c-.414 0-.75.336-.75.75s.336.75.75.75h2.5c.413 0 .75-.336.75-.75s-.337-.75-.75-.75z"/><path d="m3.384 11.25h-1.5c-.414 0-.75.336-.75.75s.336.75.75.75h1.5c.413 0 .75-.336.75-.75s-.337-.75-.75-.75z"/><path d="m16 14.25h2c.414 0 .75-.336.75-.75s-.336-.75-.75-.75h-2c-.414 0-.75.336-.75.75s.336.75.75.75z"/></g></svg>