<svg clip-rule="evenodd" fill-rule="evenodd" height="512" stroke-linejoin="round" stroke-miterlimit="2" viewBox="0 0 24 24" width="512" xmlns="http://www.w3.org/2000/svg"><g id="Icon"><path d="m12.576 3.421c.047-.296-.087-.591-.34-.751-.254-.16-.578-.154-.825.016-1.226.841-2.843.841-4.069 0-.256-.175-.593-.175-.849 0-1.226.841-2.843.841-4.069 0-.247-.17-.571-.176-.824-.016-.254.16-.388.455-.341.751 0 0 1.671 10.594 2.405 15.245.253 1.601 1.632 2.78 3.253 2.78h.002c1.62 0 2.999-1.179 3.252-2.78.734-4.651 2.405-15.245 2.405-15.245zm-1.703 1.171-2.184 13.84c-.137.872-.888 1.514-1.77 1.514h-.002c-.883 0-1.634-.642-1.771-1.514 0 0-2.184-13.84-2.184-13.84 1.306.401 2.736.265 3.956-.408 1.22.673 2.65.809 3.955.408z"/><path d="m21.576 21.314c.247.17.571.176.824.016.254-.16.388-.455.341-.751 0 0-1.671-10.594-2.405-15.245-.253-1.601-1.632-2.78-3.253-2.78h-.002c-1.62 0-2.999 1.179-3.252 2.78-.734 4.651-2.405 15.245-2.405 15.245-.047.296.087.591.34.751.254.16.578.154.825-.016 1.226-.841 2.843-.841 4.069 0 .256.175.593.175.849 0 1.226-.841 2.843-.841 4.069 0zm-.539-1.906c-1.305-.401-2.735-.265-3.955.408-1.219-.673-2.649-.809-3.955-.408 0 0 2.184-13.84 2.184-13.84.137-.872.888-1.514 1.77-1.514h.002c.883 0 1.634.642 1.771 1.514 0 0 2.184 13.84 2.184 13.84z"/><path d="m6.168 3.739v3.913c0 .414.336.75.75.75s.75-.336.75-.75v-3.913c0-.414-.336-.75-.75-.75s-.75.336-.75.75z"/><path d="m17.832 20.261v-3.913c0-.414-.336-.75-.75-.75s-.75.336-.75.75v3.913c0 .414.336.75.75.75s.75-.336.75-.75z"/><path d="m10.31 14.379c-2.102-1.201-4.683-1.201-6.784 0-.36.205-.485.664-.28 1.023.206.36.664.485 1.024.279 1.641-.937 3.655-.937 5.296 0 .359.206.817.081 1.023-.279.205-.359.08-.818-.279-1.023z"/><path d="m19.73 8.319c-1.641.937-3.655.937-5.296 0-.359-.206-.817-.081-1.023.279-.205.359-.08.818.279 1.023 2.102 1.201 4.683 1.201 6.784 0 .36-.205.485-.664.28-1.023-.206-.36-.664-.485-1.024-.279z"/></g></svg>