<svg clip-rule="evenodd" fill-rule="evenodd" height="512" stroke-linejoin="round" stroke-miterlimit="2" viewBox="0 0 24 24" width="512" xmlns="http://www.w3.org/2000/svg"><g id="Icon"><circle cx="5.5" cy="4.5" r=".75"/><circle cx="8" cy="4.5" r=".75"/><circle cx="10.5" cy="4.5" r=".75"/><path d="m22.75 5c0-2.071-1.679-3.75-3.75-3.75h-14c-2.071 0-3.75 1.679-3.75 3.75v14c0 2.071 1.679 3.75 3.75 3.75h14c2.071 0 3.75-1.679 3.75-3.75zm-1.5 0v14c0 1.243-1.007 2.25-2.25 2.25h-14c-1.243 0-2.25-1.007-2.25-2.25v-14c0-1.243 1.007-2.25 2.25-2.25h14c1.243 0 2.25 1.007 2.25 2.25z"/><path d="m22 6.25h-20c-.414 0-.75.336-.75.75s.336.75.75.75h20c.414 0 .75-.336.75-.75s-.336-.75-.75-.75z"/><path d="m16.732 13.663c.049-.222-.005-.455-.147-.632-.142-.178-.358-.281-.585-.281h-8c-.227 0-.443.103-.585.281-.142.177-.196.41-.147.632 0 0 .539 2.428.826 3.717.178.8.888 1.37 1.708 1.37h4.396c.82 0 1.53-.57 1.708-1.37.287-1.289.826-3.717.826-3.717zm-1.667.587-.623 2.804c-.026.115-.127.196-.244.196h-4.396c-.117 0-.218-.081-.244-.196l-.623-2.804z"/><path d="m16.5 12.75h-9c-.414 0-.75.336-.75.75s.336.75.75.75h9c.414 0 .75-.336.75-.75s-.336-.75-.75-.75z"/><path d="m15.643 13.114-1.5-2.5c-.213-.355-.674-.47-1.029-.257s-.47.674-.257 1.029l1.5 2.5c.213.355.674.47 1.029.257s.47-.674.257-1.029z"/><path d="m9.643 13.886 1.5-2.5c.213-.355.098-.816-.257-1.029s-.816-.098-1.029.257l-1.5 2.5c-.213.355-.098.816.257 1.029s.816.098 1.029-.257z"/></g></svg>