<svg clip-rule="evenodd" fill-rule="evenodd" stroke-linejoin="round" stroke-miterlimit="1.414" viewBox="0 0 32 32" xmlns="http://www.w3.org/2000/svg" xmlns:serif="http://www.serif.com/"><path id="type-blood-donation-o" d="m0 0h32v32h-32z" fill="none"/><path d="m26.036 18.999c1.541.029 2.931 1.344 2.962 2.962.008 1.347 0 2.695 0 4.042-.01 1.609-1.473 3.058-3.116 2.995-1.51-.057-2.855-1.39-2.885-2.96-.008-1.347 0-2.695 0-4.042.01-1.539 1.31-2.945 2.924-2.996.038-.001.077-.001.115-.001zm-13.946-15.998c.732.105 1.134.992.698 1.607-.037.053-.075.106-.113.16-2.442 3.488-4.772 7.131-6.479 11.026-.67 1.527-1.327 3.104-1.174 4.833.265 2.974 2.646 5.652 5.605 6.239 3.894.773 8.198-2.23 8.364-6.596.061-1.584-.593-3.119-1.25-4.598-1.245-2.808-2.838-5.45-4.5-8.034 0 0-.301-.707.054-1.159.387-.493 1.236-.473 1.628.077 2.025 3.148 4.019 6.419 5.295 9.896.541 1.474.91 3.008.714 4.635-.459 3.791-3.581 7.1-7.345 7.773-2.84.508-5.908-.45-7.955-2.497-2.004-2.004-3.049-4.981-2.479-7.796.515-2.545 1.759-4.909 3.036-7.223 1.494-2.706 3.155-5.324 4.939-7.853 0 0 .425-.515.962-.49zm13.894 17.998c-.516.01-.976.464-.986.987-.009 1.347-.026 2.694 0 4.04.023.732 1.014 1.259 1.635.746.22-.181.355-.459.364-.746.026-1.351.026-2.702 0-4.053-.016-.52-.485-.977-1.013-.974z" fill-rule="nonzero"/></svg>