<svg clip-rule="evenodd" fill-rule="evenodd" height="512" stroke-linejoin="round" stroke-miterlimit="2" viewBox="0 0 24 24" width="512" xmlns="http://www.w3.org/2000/svg"><g id="Icon"><path d="m14 22.75c.414 0 .75-.336.75-.75v-4c0-.414-.336-.75-.75-.75h-4c-.414 0-.75.336-.75.75v4c0 .414.336.75.75.75zm-.75-1.5h-2.5v-2.5h2.5z"/><path d="m10 8.25c-.414 0-.75.336-.75.75v2c0 .414.336.75.75.75h4c.414 0 .75-.336.75-.75v-2c0-.414-.336-.75-.75-.75zm.75 1.5h2.5v.5h-2.5z"/><path d="m18.586 9.75c.477 0 .941-.21 1.278-.605-.002.001 1.998-2.332 1.998-2.332.623-.726.623-1.9 0-2.626 0 0-2-2.333-2-2.333-.335-.394-.799-.604-1.276-.604h-13.586c-.932 0-1.75.829-1.75 1.917v4.666c0 1.088.818 1.917 1.75 1.917zm0-1.5h-13.586c-.175 0-.25-.213-.25-.417v-4.666c0-.204.075-.417.25-.417h13.586c.053 0 .099.035.136.078l2.001 2.335c.16.186.16.488 0 .674l-2.001 2.335c-.037.043-.083.078-.136.078z"/><path d="m5.414 18.75h13.586c.932 0 1.75-.829 1.75-1.917v-4.666c0-1.088-.818-1.917-1.75-1.917h-13.586c-.477 0-.941.21-1.278.605.002-.001-1.998 2.332-1.998 2.332-.623.726-.623 1.9 0 2.626 0 0 2 2.333 2 2.333.335.394.799.604 1.276.604zm0-1.5c-.053 0-.099-.035-.136-.078l-2.002-2.335c-.159-.186-.159-.488 0-.674l2.002-2.335c.037-.043.083-.078.136-.078h13.586c.175 0 .25.213.25.417v4.666c0 .204-.075.417-.25.417z"/><path d="m9.941 5.885 1 1.116c.138.153.333.243.538.249.206.005.406-.074.551-.22l2-2c.293-.292.293-.768 0-1.06-.292-.293-.768-.293-1.06 0l-1.44 1.439s-.471-.526-.471-.526c-.277-.308-.751-.334-1.06-.058-.308.277-.334.751-.058 1.06z"/><path d="m10.448 14.102 2.094 1.906c.306.278.781.256 1.06-.05.278-.306.256-.781-.05-1.059l-2.094-1.906c-.306-.279-.781-.257-1.06.049-.278.306-.256.781.05 1.06z"/><path d="m12.398 12.948-1.906 2.094c-.278.306-.256.781.05 1.06.306.278.781.256 1.06-.05l1.906-2.094c.278-.306.256-.781-.05-1.06-.306-.278-.781-.256-1.06.05z"/><path d="m16.5 21.25h-9c-.414 0-.75.336-.75.75s.336.75.75.75h9c.414 0 .75-.336.75-.75s-.336-.75-.75-.75z"/></g></svg>