<svg clip-rule="evenodd" fill-rule="evenodd" height="512" stroke-linejoin="round" stroke-miterlimit="2" viewBox="0 0 24 24" width="512" xmlns="http://www.w3.org/2000/svg"><g id="Icon"><path d="m11.5 20.263c.414-.001.75.336.75.749 0 .414-.336.75-.75.751h-8.55c-.451 0-.883-.18-1.202-.498-.319-.319-.498-.752-.498-1.202v-1.451c0-1.267.768-2.474 2.161-3.424 1.826-1.245 4.767-2.076 8.089-2.076.414 0 .75.337.75.75 0 .414-.336.75-.75.75-2.97 0-5.611.702-7.243 1.816-.914.622-1.507 1.354-1.507 2.185v1.45c0 .053.021.103.059.141.037.037.088.059.141.059z"/><path d="m11.5 1.25c3.036 0 5.5 2.464 5.5 5.5s-2.464 5.5-5.5 5.5-5.5-2.464-5.5-5.5 2.464-5.5 5.5-5.5zm0 1.5c-2.208 0-4 1.792-4 4s1.792 4 4 4 4-1.792 4-4-1.792-4-4-4z"/><path d="m15.47 16.53c-.293-.292-.293-.768 0-1.06.292-.293.768-.293 1.06 0l3 3c.293.292.293.768 0 1.06-.292.293-.768.293-1.06 0z"/><path d="m16.53 19.53c-.292.293-.768.293-1.06 0-.293-.292-.293-.768 0-1.06l3-3c.292-.293.768-.293 1.06 0 .293.292.293.768 0 1.06z"/><path d="m17.5 12.25c2.898 0 5.25 2.352 5.25 5.25s-2.352 5.25-5.25 5.25-5.25-2.352-5.25-5.25 2.352-5.25 5.25-5.25zm0 1.5c-2.07 0-3.75 1.68-3.75 3.75s1.68 3.75 3.75 3.75 3.75-1.68 3.75-3.75-1.68-3.75-3.75-3.75z"/></g></svg>