<svg clip-rule="evenodd" fill-rule="evenodd" height="512" stroke-linejoin="round" stroke-miterlimit="2" viewBox="0 0 24 24" width="512" xmlns="http://www.w3.org/2000/svg"><g id="Icon"><circle cx="18" cy="10.5" r="1.5"/><circle cx="18" cy="16" r="1.5"/><path d="m22.75 8.5c0-.729-.29-1.429-.805-1.945-.516-.515-1.216-.805-1.945-.805-3.832 0-12.168 0-16 0-.729 0-1.429.29-1.945.805-.515.516-.805 1.216-.805 1.945v9.5c0 .729.29 1.429.805 1.945.516.515 1.216.805 1.945.805h16c.729 0 1.429-.29 1.945-.805.515-.516.805-1.216.805-1.945zm-1.5 0v9.5c0 .332-.132.649-.366.884-.235.234-.552.366-.884.366h-16c-.332 0-.649-.132-.884-.366-.234-.235-.366-.552-.366-.884v-9.5c0-.332.132-.649.366-.884.235-.234.552-.366.884-.366h16c.332 0 .649.132.884.366.234.235.366.552.366.884z"/><path d="m9.75 20c0-.414-.336-.75-.75-.75h-4c-.414 0-.75.336-.75.75v2c0 .414.336.75.75.75h4c.414 0 .75-.336.75-.75zm-1.5.75v.5h-2.5v-.5z"/><path d="m19.75 20c0-.414-.336-.75-.75-.75h-4c-.414 0-.75.336-.75.75v2c0 .414.336.75.75.75h4c.414 0 .75-.336.75-.75zm-1.5.75v.5h-2.5v-.5z"/><path d="m5.697 1.665-.276.552c-.247.493-.247 1.073 0 1.566 0 0 .276.552.276.552.185.371.636.521 1.006.336.371-.185.521-.636.336-1.006l-.277-.553c-.035-.071-.035-.153 0-.224l.277-.553c.185-.37.035-.821-.336-1.006-.37-.185-.821-.035-1.006.336z"/><path d="m9.579 1.665-.276.552c-.247.493-.247 1.073 0 1.566 0 0 .276.552.276.552.185.371.636.521 1.006.336.371-.185.521-.636.336-1.006l-.277-.553c-.035-.071-.035-.153 0-.224l.277-.553c.185-.37.035-.821-.336-1.006-.37-.185-.821-.035-1.006.336z"/><path d="m13.461 1.665-.276.552c-.247.493-.247 1.073 0 1.566 0 0 .276.552.276.552.185.371.636.521 1.006.336.371-.185.521-.636.336-1.006l-.277-.553c-.035-.071-.035-.153 0-.224l.277-.553c.185-.37.035-.821-.336-1.006-.37-.185-.821-.035-1.006.336z"/><path d="m17.343 1.665-.276.552c-.247.493-.247 1.073 0 1.566 0 0 .276.552.276.552.185.371.636.521 1.006.336.371-.185.521-.636.336-1.006l-.277-.553c-.035-.071-.035-.153 0-.224l.277-.553c.185-.37.035-.821-.336-1.006-.37-.185-.821-.035-1.006.336z"/><path d="m4.75 9.5v7.5c0 .414.336.75.75.75s.75-.336.75-.75v-7.5c0-.414-.336-.75-.75-.75s-.75.336-.75.75z"/><path d="m8.75 9.5v7.5c0 .414.336.75.75.75s.75-.336.75-.75v-7.5c0-.414-.336-.75-.75-.75s-.75.336-.75.75z"/><path d="m12.75 9.5v7.5c0 .414.336.75.75.75s.75-.336.75-.75v-7.5c0-.414-.336-.75-.75-.75s-.75.336-.75.75z"/></g></svg>