<svg xmlns="http://www.w3.org/2000/svg" viewBox="0 0 32 32"><title>ig, instagram, insta, photo</title><g id="ig_instagram_insta_photo" data-name="ig, instagram, insta, photo"><circle cx="23" cy="9" r="1"/><path d="M20.3027,13.26a1,1,0,0,0-.5717,1.2934,4.0006,4.0006,0,1,1-2.3072-2.293,1,1,0,1,0,.711-1.8691,5.9995,5.9995,0,1,0,3.4614,3.44A1,1,0,0,0,20.3027,13.26Z"/><path d="M28,9a4.9809,4.9809,0,0,0-4.9009-4.9956h-.0078C18.3709,3.7879,13.6287,3.7854,9,4A5.0734,5.0734,0,0,0,4.0029,8.9238,92.417,92.417,0,0,0,4,23a4.9789,4.9789,0,0,0,4.8955,4.9951h.0078c2.3735.1739,11.79.189,14.1475.0044a5.1166,5.1166,0,0,0,4.9458-4.918A86.6346,86.6346,0,0,0,28,9ZM26,23c-.2109,1.57-.6484,2.7335-3.0967,3.0049A88.2352,88.2352,0,0,1,9,26a3.0769,3.0769,0,0,1-3.0029-3.0762A91.6555,91.6555,0,0,1,6,9,3.1539,3.1539,0,0,1,9.0913,5.9956,134.8281,134.8281,0,0,1,23,6a3.1417,3.1417,0,0,1,3.0034,3.0815A85.9669,85.9669,0,0,1,26,23Z"/></g></svg>