<svg clip-rule="evenodd" fill-rule="evenodd" stroke-linejoin="round" stroke-miterlimit="1.414" viewBox="0 0 32 32" xmlns="http://www.w3.org/2000/svg" xmlns:serif="http://www.serif.com/"><path id="volumetric-flask-pharmacy-glass" d="m0 0h32v32h-32z" fill="none"/><path d="m9.068 19.016c-.3 2.16.458 4.449 2.011 5.983 1.982 1.959 5.177 2.574 7.765 1.422 2.281-1.015 3.933-3.325 4.139-5.82.267-3.236-1.948-6.513-5.232-7.369 0 0-.198-.058-.338-.16-.253-.185-.396-.489-.411-.809v-4.255c.03-.617.601-1.096 1.237-.973.435.128.743.513.765.973v3.516c.032.011.065.023.097.034 2.971 1.099 5.223 3.805 5.769 6.875.707 3.981-1.57 8.333-5.465 9.925-3.265 1.335-7.276.552-9.809-2.011-2.061-2.086-3.003-5.218-2.427-8.1.605-3.032 2.878-5.666 5.821-6.72l.009-2.69c-.214-.077-.271-.107-.399-.174-1.33-.702-1.973-2.485-1.337-3.893.467-1.033 1.535-1.744 2.698-1.766 1.349-.009 2.697 0 4.045 0 1.568.01 2.989 1.35 3 2.999 0 0-.069.519-.346.759-.559.485-1.614.101-1.656-.756-.003-.055-.001-.055-.003-.078-.041-.492-.469-.913-.985-.923-1.343-.008-2.686-.008-4.029 0-.761.015-1.294 1.081-.712 1.691.187.196.452.309.728.311l.181.017c.46.108.795.51.817.984v4.255c-.025.524-.379.859-.962 1.027-1.886.556-3.497 1.959-4.358 3.725h10.324c.023.001.045.001.068.002.252.026.324.066.452.143.557.339.63 1.269.057 1.673-.163.115-.271.173-.577.183z" fill-rule="nonzero"/></svg>