<svg clip-rule="evenodd" fill-rule="evenodd" height="512" stroke-linejoin="round" stroke-miterlimit="2" viewBox="0 0 24 24" width="512" xmlns="http://www.w3.org/2000/svg"><g id="Icon"><path d="m2.75 2v20c0 .414.336.75.75.75s.75-.336.75-.75v-20c0-.414-.336-.75-.75-.75s-.75.336-.75.75z"/><path d="m3.091 2.871c-.213.139-.341.375-.341.629v10.818c0 .275.151.528.392.659.242.131.536.12.767-.03 0 0 3.681-2.379 7.708.016 1.922 1.143 3.334 1.586 4.508 1.637 1.763.078 3.023-.731 4.722-1.617.248-.129.403-.386.403-.665v-10.818c0-.262-.137-.505-.361-.641s-.503-.145-.736-.024c-1.436.749-2.472 1.514-3.962 1.449-.995-.044-2.178-.459-3.808-1.429-4.854-2.886-9.292.016-9.292.016zm1.159 1.067c1.001-.513 4.068-1.755 7.367.207 1.922 1.143 3.334 1.586 4.508 1.637 1.364.06 2.427-.41 3.625-1.036 0-.001 0 9.122 0 9.122-1.236.673-2.212 1.293-3.559 1.234-.995-.044-2.178-.459-3.808-1.429-3.349-1.992-6.501-1.227-8.133-.561z"/></g></svg>