<svg clip-rule="evenodd" fill-rule="evenodd" height="512" stroke-linejoin="round" stroke-miterlimit="2" viewBox="0 0 24 24" width="512" xmlns="http://www.w3.org/2000/svg"><g id="Icon"><path d="m13.237 20.966 7.579-7.578c2.579-2.579 2.579-6.767 0-9.346-2.409-2.409-6.222-2.568-8.816-.477-2.594-2.091-6.407-1.932-8.816.477-2.569 2.569-2.579 6.734-.03 9.315l7.609 7.609c.328.328.773.512 1.237.512s.909-.184 1.237-.512zm-1.06-1.061c-.047.047-.111.073-.177.073s-.13-.026-.177-.073c0 0-7.602-7.603-7.602-7.603-1.97-1.995-1.961-5.214.024-7.2 1.994-1.993 5.231-1.993 7.225 0 .293.293.767.293 1.06 0 1.994-1.993 5.231-1.993 7.225 0 1.994 1.994 1.994 5.231 0 7.225z"/></g></svg>