<svg clip-rule="evenodd" fill-rule="evenodd" height="512" stroke-linejoin="round" stroke-miterlimit="2" viewBox="0 0 24 24" width="512" xmlns="http://www.w3.org/2000/svg"><g id="Icon"><circle cx="16.25" cy="15.75" r="1"/><path d="m22.75 12.5v-1.5c0-.69-.56-1.25-1.25-1.25-2.772 0-16.228 0-19 0-.69 0-1.25.56-1.25 1.25v1.5c0 .69.56 1.25 1.25 1.25h19c.69 0 1.25-.56 1.25-1.25zm-20-1.25v1h18.5v-1z"/><path d="m21.75 13c0-.414-.336-.75-.75-.75h-9.5c-.414 0-.75.336-.75.75v4.5c0 .967.784 1.75 1.75 1.75h8.5c.414 0 .75-.336.75-.75zm-1.5.75v4h-7.75c-.138 0-.25-.112-.25-.25v-3.75z"/><path d="m17.75 3c0-.966-.783-1.75-1.75-1.75h-8c-.967 0-1.75.784-1.75 1.75v4.5c0 .966.783 1.75 1.75 1.75h8c.967 0 1.75-.784 1.75-1.75 0-1.222 0-3.278 0-4.5zm-1.5 0v4.5c0 .138-.112.25-.25.25h-8c-.138 0-.25-.112-.25-.25 0-1.222 0-3.278 0-4.5 0-.138.112-.25.25-.25h8c.138 0 .25.112.25.25z"/><path d="m2.25 13v9c0 .414.336.75.75.75s.75-.336.75-.75v-9c0-.414-.336-.75-.75-.75s-.75.336-.75.75z"/><path d="m20.25 13v9c0 .414.336.75.75.75s.75-.336.75-.75v-9c0-.414-.336-.75-.75-.75s-.75.336-.75.75z"/><path d="m12.75 10.5v-2c0-.414-.336-.75-.75-.75s-.75.336-.75.75v2c0 .414.336.75.75.75s.75-.336.75-.75z"/></g></svg>