<svg clip-rule="evenodd" fill-rule="evenodd" height="512" stroke-linejoin="round" stroke-miterlimit="2" viewBox="0 0 24 24" width="512" xmlns="http://www.w3.org/2000/svg"><g id="Icon"><path d="m2 11.25c-.414 0-.75.336-.75.75 0 5.933 4.817 10.75 10.75 10.75s10.75-4.817 10.75-10.75c0-.414-.336-.75-.75-.75zm.78 1.5h18.44c-.382 4.755-4.367 8.5-9.22 8.5s-8.838-3.745-9.22-8.5z"/><path d="m12.47 12.53 1.414 1.415c.234.234.366.552.366.883v2.172c0 .967.784 1.75 1.75 1.75h.5c.966 0 1.75-.783 1.75-1.75v-2.172c0-.331.132-.649.366-.883 0 0 .829-.829.829-.829.234-.234.552-.366.883-.366h1.172c.414 0 .75-.336.75-.75s-.336-.75-.75-.75c0 0-.621 0-1.172 0-.729 0-1.428.29-1.944.805l-.829.829c-.515.516-.805 1.215-.805 1.944v2.172c0 .138-.112.25-.25.25h-.5c-.138 0-.25-.112-.25-.25v-2.172c0-.729-.29-1.428-.805-1.944l-1.415-1.414c-.292-.293-.768-.293-1.06 0-.293.292-.293.768 0 1.06z"/><path d="m11.25 17.5c0 .199-.079.39-.22.53-.14.141-.331.22-.53.22h-5.5c-.414 0-.75.336-.75.75s.336.75.75.75h5.5c.597 0 1.169-.237 1.591-.659s.659-.994.659-1.591-.237-1.169-.659-1.591-.994-.659-1.591-.659c-.083 0-.166 0-.25 0-.188 0-.346-.128-.487-.277-.307-.327-.513-.814-.513-1.223 0-1.381-1.119-2.5-2.5-2.5h-4.25c-.414 0-.75.336-.75.75s.336.75.75.75h4.25c.552 0 1 .448 1 1 0 .75.358 1.651.92 2.25.439.467.994.75 1.58.75h.25c.199 0 .39.079.53.22.141.14.22.331.22.53z"/><path d="m6.625 4.181c-.826.523-1.375 1.445-1.375 2.494 0 1.628 1.322 2.95 2.95 2.95.497 0 .965-.123 1.375-.34.41.217.878.34 1.375.34 1.628 0 2.95-1.322 2.95-2.95 0-1.049-.549-1.971-1.375-2.494-.01-1.619-1.328-2.931-2.95-2.931s-2.94 1.312-2.95 2.931zm1.058 1.139c.34-.13.537-.486.468-.843-.017-.09-.026-.182-.026-.277 0-.8.65-1.45 1.45-1.45s1.45.65 1.45 1.45c0 .095-.009.187-.026.277-.069.357.128.713.468.843.545.208.933.737.933 1.355 0 .8-.65 1.45-1.45 1.45-.343 0-.658-.119-.906-.318-.274-.22-.664-.22-.938 0-.248.199-.563.318-.906.318-.8 0-1.45-.65-1.45-1.45 0-.618.388-1.147.933-1.355z"/><path d="m14.148 3.73c.256-.1.535-.155.827-.155 1.256 0 2.275 1.019 2.275 2.275s-1.019 2.275-2.275 2.275c-.141 0-.28-.013-.414-.038-.407-.074-.799.195-.874.602s.195.799.602.874c.223.041.452.062.686.062 2.083 0 3.775-1.692 3.775-3.775s-1.692-3.775-3.775-3.775c-.484 0-.947.092-1.373.258-.386.151-.576.586-.425.972.15.385.586.576.971.425z"/><path d="m8.825 5.5v6.5c0 .414.336.75.75.75s.75-.336.75-.75v-6.5c0-.414-.336-.75-.75-.75s-.75.336-.75.75z"/><path d="m14.25 6.5v5.5c0 .414.336.75.75.75s.75-.336.75-.75v-5.5c0-.414-.336-.75-.75-.75s-.75.336-.75.75z"/><path d="m20.75 12v-3.5c0-.414-.336-.75-.75-.75s-.75.336-.75.75v3.5c0 .414.336.75.75.75s.75-.336.75-.75z"/><path d="m4.75 12v-2c0-.414-.336-.75-.75-.75s-.75.336-.75.75v2c0 .414.336.75.75.75s.75-.336.75-.75z"/></g></svg>