<svg clip-rule="evenodd" fill-rule="evenodd" height="512" stroke-linejoin="round" stroke-miterlimit="2" viewBox="0 0 24 24" width="512" xmlns="http://www.w3.org/2000/svg"><g id="Icon"><path d="m2.53 17.433 5.216-5.215c.204-.204.535-.204.74 0l3.297 3.296c.204.205.204.536 0 .74 0 0-5.216 5.216-5.216 5.216-.293.292-.293.768 0 1.06.292.293.767.293 1.06 0l5.216-5.216c.79-.789.79-2.07 0-2.86l-3.297-3.296c-.79-.79-2.071-.79-2.86 0 0 0-5.216 5.215-5.216 5.215-.293.292-.293.768-.001 1.06.293.293.768.293 1.061 0z"/><path d="m4.569 20.492 11.212-11.212c.293-.293.293-.768 0-1.061-.292-.293-.768-.293-1.06 0l-11.212 11.212c-.293.293-.293.768 0 1.061.292.292.768.292 1.06 0z"/><path d="m13.413 12.332c.655.655 1.718.655 2.373 0 0 0 6.111-6.111 6.111-6.111 1.138-1.138 1.137-2.982-.001-4.118-1.136-1.137-2.98-1.137-4.118-.001l-6.112 6.112c-.654.657-.654 1.718.001 2.372zm1.061-1.06-1.746-1.746c-.07-.07-.069-.183 0-.252 0 0 6.11-6.11 6.11-6.11.552-.552 1.447-.552 1.998-.001v.001c.552.551.552 1.445 0 1.997 0 0-6.111 6.111-6.111 6.111-.069.069-.182.069-.251 0z"/></g></svg>