<svg clip-rule="evenodd" fill-rule="evenodd" height="512" stroke-linejoin="round" stroke-miterlimit="2" viewBox="0 0 24 24" width="512" xmlns="http://www.w3.org/2000/svg"><g id="Icon"><path d="m5.75 13v-4c0-3.452 2.798-6.25 6.25-6.25s6.25 2.798 6.25 6.25v4c0 .414.336.75.75.75s.75-.336.75-.75v-4c0-4.28-3.47-7.75-7.75-7.75s-7.75 3.47-7.75 7.75v4c0 .414.336.75.75.75s.75-.336.75-.75z"/><path d="m18 12.25c-.968 0-1.75.784-1.75 1.75v7c0 .966.782 1.75 1.75 1.75 2.623 0 4.75-2.127 4.75-4.75v-1c0-2.623-2.127-4.75-4.75-4.75zm0 1.5c1.795 0 3.25 1.455 3.25 3.25v1c0 1.795-1.455 3.25-3.25 3.25-.138 0-.25-.112-.25-.25v-7c0-.138.112-.25.25-.25z"/><path d="m6 12.25c-2.623 0-4.75 2.127-4.75 4.75v1c0 2.623 2.127 4.75 4.75 4.75.968 0 1.75-.784 1.75-1.75v-7c0-.966-.782-1.75-1.75-1.75zm0 1.5c.138 0 .25.112.25.25v7c0 .138-.112.25-.25.25-1.795 0-3.25-1.455-3.25-3.25v-1c0-1.795 1.455-3.25 3.25-3.25z"/></g></svg>