<svg clip-rule="evenodd" fill-rule="evenodd" height="512" stroke-linejoin="round" stroke-miterlimit="2" viewBox="0 0 24 24" width="512" xmlns="http://www.w3.org/2000/svg"><g id="Icon"><path d="m18.25 7.5c0-3.449-2.801-6.25-6.25-6.25s-6.25 2.801-6.25 6.25 2.801 6.25 6.25 6.25 6.25-2.801 6.25-6.25zm-1.5 0c0 2.622-2.128 4.75-4.75 4.75s-4.75-2.128-4.75-4.75 2.128-4.75 4.75-4.75 4.75 2.128 4.75 4.75z"/><path d="m13.5 4.75h-2c-.968 0-1.75.784-1.75 1.75s.782 1.75 1.75 1.75h1c.138 0 .25.112.25.25s-.112.25-.25.25h-2c-.414 0-.75.336-.75.75s.336.75.75.75h2c.968 0 1.75-.784 1.75-1.75s-.782-1.75-1.75-1.75h-1c-.138 0-.25-.112-.25-.25s.112-.25.25-.25h2c.414 0 .75-.336.75-.75s-.336-.75-.75-.75z"/><path d="m11.25 4.5v1c0 .414.336.75.75.75s.75-.336.75-.75v-1c0-.414-.336-.75-.75-.75s-.75.336-.75.75z"/><path d="m11.25 9.5v1c0 .414.336.75.75.75s.75-.336.75-.75v-1c0-.414-.336-.75-.75-.75s-.75.336-.75.75z"/><path d="m9.75 19.25h4.5c.414 0 .75-.336.75-.75s-.336-.75-.75-.75h-4.5c-.414 0-.75.336-.75.75s.336.75.75.75z"/><path d="m19.75 15c0-.414-.336-.75-.75-.75h-14c-.414 0-.75.336-.75.75v5.5c0 1.243 1.007 2.25 2.25 2.25h11c1.243 0 2.25-1.007 2.25-2.25 0-2.057 0-5.5 0-5.5zm-1.5.75v4.75c0 .414-.336.75-.75.75h-11c-.414 0-.75-.336-.75-.75v-4.75z"/><path d="m6 11.75h-1c-.464 0-.909.184-1.237.513-.329.328-.513.773-.513 1.237v.5c0 .966.783 1.75 1.75 1.75h14c.967 0 1.75-.784 1.75-1.75 0-.165 0-.335 0-.5 0-.464-.184-.909-.513-1.237-.328-.329-.773-.513-1.237-.513h-1c-.414 0-.75.336-.75.75s.336.75.75.75h1c.066 0 .13.026.177.073s.073.111.073.177v.5c0 .138-.112.25-.25.25h-14c-.138 0-.25-.112-.25-.25v-.5c0-.066.026-.13.073-.177s.111-.073.177-.073h1c.414 0 .75-.336.75-.75s-.336-.75-.75-.75z"/></g></svg>