<svg clip-rule="evenodd" fill-rule="evenodd" stroke-linejoin="round" stroke-miterlimit="1.414" viewBox="0 0 32 32" xmlns="http://www.w3.org/2000/svg" xmlns:serif="http://www.serif.com/"><path id="list-detail-view" d="m0 0h32v32h-32z" fill="none"/><path d="m26 27h-20c-.537-.023-.977-.462-1-1v-4c.023-.537.462-.977 1-1h20c.029.001.058.003.087.004.503.066.891.486.913.996v4c-.023.537-.462.976-1 1zm-1-4h-18v2h18zm1-4h-20c-.537-.023-.977-.462-1-1v-4c.023-.537.462-.977 1-1h20c.029.001.058.003.087.004.503.066.891.486.913.996v4c-.023.537-.462.976-1 1zm-1-4h-18v2h18zm1-4h-20c-.537-.023-.977-.462-1-1v-4c.023-.537.462-.977 1-1h16c.029.001.058.003.087.004.077.01.097.01.172.03.637.171.971 1.056.507 1.609-.15.178-.363.301-.592.342-.077.013-.097.012-.174.015h-15v2h18v-3l.004-.087c.037-.282.085-.356.177-.487.329-.47 1.1-.56 1.526-.133.144.144.242.332.278.533.013.077.012.097.015.174v4c-.023.537-.462.976-1 1z" fill-rule="nonzero"/></svg>