<svg clip-rule="evenodd" fill-rule="evenodd" height="512" stroke-linejoin="round" stroke-miterlimit="2" viewBox="0 0 24 24" width="512" xmlns="http://www.w3.org/2000/svg"><g id="Icon"><path d="m17.75 15c0-3.174-2.576-5.75-5.75-5.75s-5.75 2.576-5.75 5.75 2.576 5.75 5.75 5.75 5.75-2.576 5.75-5.75zm-1.5 0c0 2.346-1.904 4.25-4.25 4.25s-4.25-1.904-4.25-4.25 1.904-4.25 4.25-4.25 4.25 1.904 4.25 4.25z"/><path d="m21.47 6.47-5.61 5.61c-.293.292-.293.768 0 1.06.292.293.768.293 1.06 0l5.61-5.61c.293-.292.293-.768 0-1.06-.292-.293-.768-.293-1.06 0z"/><path d="m16.53 18.53 5.707-5.707c.329-.329.513-.773.513-1.237v-6.586c0-.966-.782-1.75-1.75-1.75h-1c-.199 0-.39.079-.53.22l-6.3 6.3c-.293.292-.293.768 0 1.06.292.293.768.293 1.06 0l6.081-6.08h.689c.138 0 .25.112.25.25v6.586c0 .066-.026.13-.073.177 0 0-5.707 5.707-5.707 5.707-.293.292-.293.768 0 1.06.292.293.768.293 1.06 0z"/><path d="m8.141 12.08-5.61-5.61c-.293-.293-.768-.293-1.061 0-.293.292-.293.768 0 1.06l5.61 5.61c.293.293.768.293 1.061 0 .292-.292.292-.768 0-1.06z"/><path d="m10.83 9.769-6.3-6.3c-.141-.14-.331-.219-.53-.219h-1c-.968 0-1.75.784-1.75 1.75v6.586c0 .464.185.91.512 1.237 0 0 5.707 5.707 5.707 5.707.293.293.768.293 1.061 0s.293-.768 0-1.061l-5.707-5.707c-.047-.046-.073-.11-.073-.176v-6.586c0-.138.112-.25.25-.25h.689s6.08 6.08 6.08 6.08c.293.293.768.293 1.061 0s.293-.768 0-1.061z"/></g></svg>