<svg clip-rule="evenodd" fill-rule="evenodd" height="512" stroke-linejoin="round" stroke-miterlimit="2" viewBox="0 0 24 24" width="512" xmlns="http://www.w3.org/2000/svg"><g id="Icon"><path d="m20.75 16c0 .597-.237 1.169-.659 1.591s-.994.659-1.591.659h-15c-.597 0-1.169-.237-1.591-.659s-.659-.994-.659-1.591v-8c0-.597.237-1.169.659-1.591s.994-.659 1.591-.659h15c.597 0 1.169.237 1.591.659s.659.994.659 1.591v.75h.75c.331 0 .649.132.884.366.234.235.366.553.366.884v4c0 .331-.132.649-.366.884-.235.234-.553.366-.884.366h-.75zm.5-2.25v-3.5h-1.25c-.414 0-.75-.336-.75-.75v-1.5c0-.199-.079-.39-.22-.53-.14-.141-.331-.22-.53-.22h-15c-.199 0-.39.079-.53.22-.141.14-.22.331-.22.53v8c0 .199.079.39.22.53.14.141.331.22.53.22h15c.199 0 .39-.079.53-.22.141-.14.22-.331.22-.53v-1.5c0-.414.336-.75.75-.75z"/></g></svg>