<svg clip-rule="evenodd" fill-rule="evenodd" height="512" stroke-linejoin="round" stroke-miterlimit="2" viewBox="0 0 24 24" width="512" xmlns="http://www.w3.org/2000/svg"><g id="Icon"><path d="m18.25 10v-7c0-.967-.784-1.75-1.75-1.75h-12c-.729 0-1.429.29-1.945.805-.515.516-.805 1.216-.805 1.945v15.5c0 .414.336.75.75.75s.75-.336.75-.75c0 0 0-10.908 0-15.5 0-.332.132-.649.366-.884.235-.234.552-.366.884-.366h12c.138 0 .25.112.25.25v7c0 .414.336.75.75.75s.75-.336.75-.75z"/><path d="m9.5 16.75h-4.75c-1.657 0-3 1.343-3 3 0 .796.316 1.559.879 2.121.562.563 1.325.879 2.121.879h6.25c.414 0 .75-.336.75-.75s-.336-.75-.75-.75h-6.25c-.398 0-.779-.158-1.061-.439-.281-.282-.439-.663-.439-1.061 0-.828.672-1.5 1.5-1.5h4.75c.414 0 .75-.336.75-.75s-.336-.75-.75-.75z"/><path d="m6.5 6.75h7c.414 0 .75-.336.75-.75s-.336-.75-.75-.75h-7c-.414 0-.75.336-.75.75s.336.75.75.75z"/><path d="m16.5 11.25c-3.174 0-5.75 2.576-5.75 5.75s2.576 5.75 5.75 5.75 5.75-2.576 5.75-5.75-2.576-5.75-5.75-5.75zm0 1.5c2.346 0 4.25 1.904 4.25 4.25s-1.904 4.25-4.25 4.25-4.25-1.904-4.25-4.25 1.904-4.25 4.25-4.25z"/><path d="m15.75 15v3.5c0 .414.336.75.75.75s.75-.336.75-.75v-3.5c0-.414-.336-.75-.75-.75s-.75.336-.75.75z"/><path d="m14.05 18.1 2 1.5c.267.2.633.2.9 0l2-1.5c.331-.248.398-.719.15-1.05s-.719-.398-1.05-.15l-1.55 1.162s-1.55-1.162-1.55-1.162c-.331-.248-.802-.181-1.05.15s-.181.802.15 1.05z"/></g></svg>