<svg clip-rule="evenodd" fill-rule="evenodd" stroke-linejoin="round" stroke-miterlimit="2" viewBox="0 0 32 32" xmlns="http://www.w3.org/2000/svg" xmlns:serif="http://www.serif.com/"><path id="research-microbes-magnifier" d="m0 0h32v32h-32z" fill="none"/><path d="m17.654 18.911c-.029.023-.058.046-.088.069-3.023 2.349-7.582 2.48-10.731.264-2.472-1.739-3.968-4.781-3.826-7.804.137-2.896 1.751-5.671 4.225-7.225.691-.434 1.803-.268 1.782.722-.015.694-.857 1.021-1.435 1.493-2.166 1.773-3.102 4.922-2.233 7.593 1.006 3.093 4.353 5.291 7.723 4.778 2.559-.388 4.83-2.304 5.629-4.776 1.154-3.571-.984-7.891-4.863-8.943 0 0-.808-.393-.734-1.076.048-.445.424-.829.869-.886.15-.019.187-.006.235-.002 3.247.481 6.615 4.191 6.829 8.272.114 2.18-.618 4.38-1.967 6.092.492.485.977.976 1.463 1.467.352-.181.757-.29 1.211-.304.036 0 .072-.001.108 0 .764.013 1.51.321 2.062.853 1.442 1.424 2.876 2.857 4.3 4.299 1.271 1.321.975 3.799-.69 4.727-1.116.623-2.612.442-3.563-.473-1.442-1.424-2.875-2.857-4.299-4.299-.827-.859-.945-2.21-.481-3.307-.512-.508-1.017-1.023-1.526-1.534zm4.149 1.738c-.766.014-1.283 1.089-.715 1.694 1.4 1.454 2.827 2.881 4.281 4.281.693.65 2.43-.365 1.408-1.427-1.415-1.433-2.822-2.876-4.273-4.273-.188-.176-.441-.276-.701-.275z"/></svg>