<svg clip-rule="evenodd" fill-rule="evenodd" height="512" stroke-linejoin="round" stroke-miterlimit="2" viewBox="0 0 24 24" width="512" xmlns="http://www.w3.org/2000/svg"><g id="Icon"><path d="m14.375 22.75h4.125c.995 0 1.948-.395 2.652-1.098.703-.704 1.098-1.657 1.098-2.652 0-2.383 0-5.831 0-9 0-4.832-3.918-8.75-8.75-8.75-.993 0-2.007 0-3 0-4.832 0-8.75 3.918-8.75 8.75v8c0 .414.336.75.75.75s.75-.336.75-.75v-8c0-4.004 3.246-7.25 7.25-7.25h3c4.004 0 7.25 3.246 7.25 7.25v9c0 .597-.237 1.169-.659 1.591s-.994.659-1.591.659h-4.125c-.414 0-.75.336-.75.75s.336.75.75.75z"/><path d="m9.75 12c0-.729-.29-1.429-.805-1.945-.516-.515-1.216-.805-1.945-.805-.166 0-.334 0-.5 0-.729 0-1.429.29-1.945.805-.515.516-.805 1.216-.805 1.945v5c0 .729.29 1.429.805 1.945.516.515 1.216.805 1.945.805h.5c.729 0 1.429-.29 1.945-.805.515-.516.805-1.216.805-1.945zm-1.5 0v5c0 .332-.132.649-.366.884-.235.234-.552.366-.884.366-.166 0-.334 0-.5 0-.332 0-.649-.132-.884-.366-.234-.235-.366-.552-.366-.884v-5c0-.332.132-.649.366-.884.235-.234.552-.366.884-.366h.5c.332 0 .649.132.884.366.234.235.366.552.366.884z"/><path d="m20.25 12c0-.729-.29-1.429-.805-1.945-.516-.515-1.216-.805-1.945-.805-.166 0-.334 0-.5 0-.729 0-1.429.29-1.945.805-.515.516-.805 1.216-.805 1.945v5c0 .729.29 1.429.805 1.945.516.515 1.216.805 1.945.805h.5c.729 0 1.429-.29 1.945-.805.515-.516.805-1.216.805-1.945zm-1.5 0v5c0 .332-.132.649-.366.884-.235.234-.552.366-.884.366-.166 0-.334 0-.5 0-.332 0-.649-.132-.884-.366-.234-.235-.366-.552-.366-.884v-5c0-.332.132-.649.366-.884.235-.234.552-.366.884-.366h.5c.332 0 .649.132.884.366.234.235.366.552.366.884z"/></g></svg>