<svg clip-rule="evenodd" fill-rule="evenodd" height="512" stroke-linejoin="round" stroke-miterlimit="2" viewBox="0 0 24 24" width="512" xmlns="http://www.w3.org/2000/svg"><g id="Icon"><path d="m2.75 6.949v-3c0-.69.56-1.25 1.25-1.25h3c.414 0 .75-.336.75-.75s-.336-.75-.75-.75h-3c-1.518 0-2.75 1.232-2.75 2.75v3c0 .414.336.75.75.75s.75-.336.75-.75z"/><path d="m7 21.199h-3c-.69 0-1.25-.56-1.25-1.25v-3c0-.414-.336-.75-.75-.75s-.75.336-.75.75v3c0 1.518 1.232 2.75 2.75 2.75h3c.414 0 .75-.336.75-.75s-.336-.75-.75-.75z"/><path d="m21.25 16.949v3c0 .69-.56 1.25-1.25 1.25h-3c-.414 0-.75.336-.75.75s.336.75.75.75h3c1.518 0 2.75-1.232 2.75-2.75v-3c0-.414-.336-.75-.75-.75s-.75.336-.75.75z"/><path d="m17 2.699h3c.69 0 1.25.56 1.25 1.25v3c0 .414.336.75.75.75s.75-.336.75-.75v-3c0-1.518-1.232-2.75-2.75-2.75h-3c-.414 0-.75.336-.75.75s.336.75.75.75z"/><path d="m8.659 15.949v-5.182c0-1.845 1.496-3.341 3.341-3.341 1.846 0 3.341 1.496 3.341 3.341v5.182c0 .414.336.75.75.75s.75-.336.75-.75v-5.182c0-2.673-2.166-4.841-4.841-4.841-2.674 0-4.841 2.168-4.841 4.841v5.182c0 .414.336.75.75.75s.75-.336.75-.75z"/><path d="m11.387 17.949v-7.182c0-.338.274-.613.613-.613s.614.274.614.613v7.182c0 .414.336.75.75.75s.75-.336.75-.75v-7.182c0-1.167-.947-2.113-2.114-2.113-1.168 0-2.113.946-2.113 2.113v7.182c0 .414.336.75.75.75s.75-.336.75-.75z"/></g></svg>