<svg clip-rule="evenodd" fill-rule="evenodd" stroke-linejoin="round" stroke-miterlimit="1.414" viewBox="0 0 32 32" xmlns="http://www.w3.org/2000/svg" xmlns:serif="http://www.serif.com/"><path id="streaming-live-video-online" d="m0 0h32v32h-32z" fill="none"/><path d="m28.23 15.029c.437.129.741.512.763.971 0 2.676.016 5.352 0 8.027-.029 1.542-1.339 2.929-2.959 2.959-6.683.042-13.367.042-20.05 0-1.54-.028-2.929-1.339-2.959-2.959-.033-5.351-.033-10.703 0-16.054.029-1.547 1.365-2.93 2.959-2.959 6.683-.042 13.367-.042 20.05 0 1.554.028 2.949 1.361 2.959 2.993v3.998c-.033.692-.361.836-.672.944-.594.205-1.294-.271-1.326-.944 0-1.34.025-2.68 0-4.02-.016-.512-.469-.964-.986-.974-6.671-.041-13.343-.124-20.013 0-.512.016-.964.469-.974.986-.033 5.339-.099 10.68.001 16.018.015.512.469.964.986.974 6.67.041 13.343.124 20.012 0 .511-.016.965-.467.974-.986v-8.003s.017-.367.214-.617c.235-.299.632-.429 1.021-.354zm-18.186 5.965c.967.041 1.417 1.937 0 1.997-1.342.019-2.924.236-3.021-.914-.045-.534.397-1.059.968-1.083.684-.009 1.369-.009 2.053 0zm13.955 1.997h-9.988c-.877-.027-1.396-1.445-.425-1.902.125-.059.194-.088.425-.095h9.988c.021 0 .042.001.063.002.23.022.297.055.418.121.739.407.564 1.841-.481 1.874zm-10.773-14.256c.312.008.619.081.901.214 2.084 1.021 4.151 2.075 6.226 3.112 1.38.706 1.603 3.028.03 3.867-2.067 1.056-4.152 2.076-6.228 3.114-1.29.632-3.101-.308-3.14-1.909-.017-2.077 0-4.153 0-6.23.009-1.157.944-2.18 2.211-2.168zm-.041 1.998c-.093.002-.17.08-.173.171-.016 2.063 0 4.126 0 6.19 0 .121.134.212.245.163 2.105-.948 4.13-2.064 6.195-3.096.117-.059.127-.249.006-.313-2.054-1.05-4.126-2.064-6.189-3.095-.022-.011-.046-.018-.07-.02-.005 0-.01-.001-.014 0z" fill-rule="nonzero"/></svg>