<svg clip-rule="evenodd" fill-rule="evenodd" height="512" stroke-linejoin="round" stroke-miterlimit="2" viewBox="0 0 24 24" width="512" xmlns="http://www.w3.org/2000/svg"><g id="Icon"><path d="m21 21.75c.968 0 1.75-.784 1.75-1.75v-5c0-.966-.782-1.75-1.75-1.75h-7.5c-.968 0-1.75.784-1.75 1.75v5c0 .966.782 1.75 1.75 1.75zm0-1.5h-7.5c-.138 0-.25-.112-.25-.25v-5c0-.138.112-.25.25-.25h7.5c.138 0 .25.112.25.25v5c0 .138-.112.25-.25.25z"/><path d="m10 20.262-7.05.001c-.053 0-.104-.022-.141-.059-.038-.038-.059-.088-.059-.141 0-.001 0-1.45 0-1.45 0-.738.475-1.4 1.22-1.978 1.344-1.041 3.541-1.763 6.089-1.966.413-.033.721-.394.689-.807-.033-.413-.395-.721-.807-.688-2.89.229-5.366 1.095-6.89 2.276-1.167.905-1.801 2.007-1.801 3.162v1.451c0 .45.179.883.498 1.202.319.318.751.498 1.202.497 0 .001 7.05 0 7.05 0 .414 0 .75-.336.75-.75 0-.413-.336-.75-.75-.75z"/><path d="m11.5 1.25c-3.036 0-5.5 2.464-5.5 5.5s2.464 5.5 5.5 5.5 5.5-2.464 5.5-5.5-2.464-5.5-5.5-5.5zm0 1.5c2.208 0 4 1.792 4 4s-1.792 4-4 4-4-1.792-4-4 1.792-4 4-4z"/><path d="m21.25 15c0 .69-.56 1.25-1.25 1.25h-5.5c-.69 0-1.25-.56-1.25-1.25 0-.414-.336-.75-.75-.75s-.75.336-.75.75c0 1.518 1.232 2.75 2.75 2.75h5.5c1.518 0 2.75-1.232 2.75-2.75 0-.414-.336-.75-.75-.75s-.75.336-.75.75z"/><path d="m19.25 14.75c.414 0 .75-.336.75-.75v-1c0-.966-.782-1.75-1.75-1.75h-2c-.968 0-1.75.784-1.75 1.75v1c0 .414.336.75.75.75zm-.75-1.5h-2.5v-.25c0-.138.112-.25.25-.25h2c.138 0 .25.112.25.25z"/></g></svg>