<svg clip-rule="evenodd" fill-rule="evenodd" height="512" stroke-linejoin="round" stroke-miterlimit="2" viewBox="0 0 24 24" width="512" xmlns="http://www.w3.org/2000/svg"><g id="Icon"><path d="m20.072 16.803c.094-.373.01-.769-.227-1.072-.237-.304-.6-.481-.985-.481-2.457 0-11.263 0-13.72 0-.385 0-.748.177-.985.481-.237.303-.321.699-.227 1.072l1.25 5c.139.557.639.947 1.212.947h11.22c.573 0 1.073-.39 1.212-.947zm-13.486 4.447h10.828l1.125-4.5h-13.078z"/><circle cx="12" cy="19" r=".75"/><path d="m16.25 2c0-.414-.336-.75-.75-.75h-5.5c-.597 0-1.169.237-1.591.659s-.659.994-.659 1.591v.986c0 .703.75.764.75.764h5.5c.597 0 1.169-.237 1.591-.659s.659-.994.659-1.591zm-7 1.75v-.25c0-.199.079-.39.22-.53.14-.141.331-.22.53-.22h4.75v.25c0 .199-.079.39-.22.53-.14.141-.331.22-.53.22z"/><path d="m7.75 4v4c0 .995.395 1.948 1.098 2.652.704.703 1.657 1.098 2.652 1.098h1c.995 0 1.948-.395 2.652-1.098.703-.704 1.098-1.657 1.098-2.652v-4.5c0-.414-.336-.75-.75-.75s-.75.336-.75.75v4.5c0 .597-.237 1.169-.659 1.591s-.994.659-1.591.659h-1c-.597 0-1.169-.237-1.591-.659s-.659-.994-.659-1.591v-4c0-.414-.336-.75-.75-.75s-.75.336-.75.75z"/><path d="m19.25 16s0-1.181 0-2.259c0-1.346-.721-2.588-1.889-3.256-.947-.541-1.989-1.136-1.989-1.136-.359-.206-.818-.081-1.023.279-.206.359-.081.818.279 1.023 0 0 1.042.595 1.988 1.136.701.401 1.134 1.147 1.134 1.954v2.259c0 .414.336.75.75.75s.75-.336.75-.75z"/><path d="m8.628 9.349s-1.042.595-1.989 1.136c-1.168.668-1.889 1.91-1.889 3.256v2.259c0 .414.336.75.75.75s.75-.336.75-.75c0 0 0-1.181 0-2.259 0-.807.433-1.553 1.134-1.954.946-.541 1.988-1.136 1.988-1.136.36-.205.485-.664.279-1.023-.205-.36-.664-.485-1.023-.279z"/></g></svg>