<svg clip-rule="evenodd" fill-rule="evenodd" height="512" stroke-linejoin="round" stroke-miterlimit="2" viewBox="0 0 24 24" width="512" xmlns="http://www.w3.org/2000/svg"><g id="Icon"><path d="m11.158 8.014c.624-1.138 1.901-1.838 3.266-1.662.272.035.511.2.741.372.014.01.028.02.042.029.69.446 1.545.555 2.325.298.015-.005.031-.01.046-.017.266-.107.54-.207.813-.171 1.779.229 3.037 1.859 2.808 3.638-.183 1.422-1.333 3.897-2.701 5.132-.308.277-.332.751-.055 1.059.277.307.752.332 1.059.054 1.614-1.455 2.969-4.376 3.185-6.054.335-2.6-1.504-4.982-4.105-5.317-.512-.066-1.039.059-1.541.259-.332.103-.696.058-.994-.125-.443-.326-.92-.579-1.432-.645-1.994-.257-3.86.765-4.773 2.428-.199.363-.066.819.297 1.019.363.199.819.066 1.019-.297z"/><path d="m22.093 3.069c.012-.268-.122-.522-.349-.665-1.061-.671-2.442-.772-3.633-.148s-1.892 1.818-1.945 3.072c-.011.268.122.522.349.665 1.062.671 2.442.773 3.633.148 1.191-.624 1.893-1.817 1.945-3.072zm-1.568.398c-.149.559-.522 1.056-1.073 1.346-.552.289-1.173.313-1.717.117.148-.559.521-1.056 1.073-1.346.552-.289 1.173-.312 1.716-.117z"/><path d="m15.708 6.167c-.005.035-.008.071-.008.108 0 .414.336.75.75.75 0 0 .661-.013.746-.666.009-.073.059-.46.122-.952.237-1.839-.89-3.579-2.665-4.115-.396-.12-.815.105-.935.501-.119.397.105.815.501.935 1.073.324 1.754 1.376 1.611 2.487-.063.492-.122.952-.122.952z"/><path d="m3.615 5.272c-.002.002-.004.004-.006.007-3.388 4.219-3.126 10.41.788 14.324 3.913 3.914 10.104 4.176 14.329.796.003-.002.005-.004.008-.007.381-.313.613-.774.636-1.267.024-.493-.162-.974-.511-1.323-2.441-2.441-10.221-10.221-12.669-12.657-.346-.346-.824-.531-1.315-.507s-.948.254-1.26.634zm1.16.95c.043-.051.106-.082.173-.085.068-.004.135.022.183.07 0 .001.001.001.001.001 2.447 2.436 10.226 10.214 12.667 12.655v.001c.05.05.077.118.073.189-.003.068-.034.131-.085.176-3.639 2.908-8.963 2.68-12.33-.686-3.366-3.366-3.594-8.69-.682-12.321z"/><path d="m16.417 16.421c-2.439 2.44-6.399 2.44-8.838 0-2.44-2.439-2.44-6.399 0-8.838.292-.293.292-.768 0-1.061-.293-.293-.768-.293-1.061 0-3.025 3.024-3.025 7.936 0 10.96 3.024 3.025 7.936 3.025 10.96 0 .293-.293.293-.768 0-1.061-.293-.292-.768-.292-1.061 0z"/></g></svg>