<svg clip-rule="evenodd" fill-rule="evenodd" height="512" stroke-linejoin="round" stroke-miterlimit="2" viewBox="0 0 24 24" width="512" xmlns="http://www.w3.org/2000/svg"><g id="Icon"><path d="m19.25 7v7c0 1.26-.5 2.468-1.391 3.359s-2.099 1.391-3.359 1.391h-7c-.414 0-.75-.336-.75-.75v-13c0-2.071 1.679-3.75 3.75-3.75h3c3.176 0 5.75 2.574 5.75 5.75zm-1.5 0c0-2.347-1.903-4.25-4.25-4.25h-3c-1.243 0-2.25 1.007-2.25 2.25v12.25h6.25c.862 0 1.689-.342 2.298-.952.61-.609.952-1.436.952-2.298z"/><path d="m13.5 5.25c.414 0 .75.336.75.75s-.336.75-.75.75h-3c-.414 0-.75-.336-.75-.75s.336-.75.75-.75z"/><path d="m15.5 8.25c.414 0 .75.336.75.75s-.336.75-.75.75h-5c-.414 0-.75-.336-.75-.75s.336-.75.75-.75z"/><path d="m8.25 22c0 .414-.336.75-.75.75s-.75-.336-.75-.75v-15c0-.414.336-.75.75-.75s.75.336.75.75z"/><path d="m5.5 22.75c-.414 0-.75-.336-.75-.75s.336-.75.75-.75h4c.414 0 .75.336.75.75s-.336.75-.75.75z"/><path d="m18.5 12.25c.414 0 .75.336.75.75s-.336.75-.75.75h-1.986c-.839 0-1.659.248-2.358.714l-.48.32c-.945.63-2.055.966-3.19.966h-2.986c-.414 0-.75-.336-.75-.75s.336-.75.75-.75h2.986c.839 0 1.659-.248 2.358-.714l.48-.32c.945-.63 2.055-.966 3.19-.966z"/></g></svg>