<svg clip-rule="evenodd" fill-rule="evenodd" height="512" stroke-linejoin="round" stroke-miterlimit="2" viewBox="0 0 24 24" width="512" xmlns="http://www.w3.org/2000/svg"><g id="Icon"><path d="m1.25 2v20c0 .414.336.75.75.75h20c.414 0 .75-.336.75-.75s-.336-.75-.75-.75h-19.25v-19.25c0-.414-.336-.75-.75-.75s-.75.336-.75.75z"/><path d="m5 12.75h1.992s1.812 4.529 1.812 4.529c.111.278.378.464.679.471.3.007.575-.166.7-.44l4.349-9.568s2.297 4.593 2.297 4.593c.127.254.387.415.671.415h2.5c.414 0 .75-.336.75-.75s-.336-.75-.75-.75h-2.036s-2.793-5.585-2.793-5.585c-.129-.259-.396-.42-.685-.415s-.549.176-.669.44l-4.273 9.401s-1.348-3.37-1.348-3.37c-.114-.284-.389-.471-.696-.471h-2.5c-.414 0-.75.336-.75.75s.336.75.75.75z"/></g></svg>