<svg clip-rule="evenodd" fill-rule="evenodd" height="512" stroke-linejoin="round" stroke-miterlimit="2" viewBox="0 0 24 24" width="512" xmlns="http://www.w3.org/2000/svg"><g id="Icon"><path d="m9.5 22.75h5c.464 0 .909-.184 1.237-.513.329-.328.513-.773.513-1.237 0-1.331 0-3.669 0-5 0-.464-.184-.909-.513-1.237-.328-.329-.773-.513-1.237-.513-1.331 0-3.669 0-5 0-.464 0-.909.184-1.237.513-.329.328-.513.773-.513 1.237v5c0 .464.184.909.513 1.237.328.329.773.513 1.237.513zm5-1.5h-5c-.066 0-.13-.026-.177-.073s-.073-.111-.073-.177v-5c0-.066.026-.13.073-.177s.111-.073.177-.073h5c.066 0 .13.026.177.073s.073.111.073.177v5c0 .066-.026.13-.073.177s-.111.073-.177.073z"/><path d="m11.5 11.25h1c.995 0 1.948-.395 2.652-1.098.703-.704 1.098-1.657 1.098-2.652 0-1.574 0-3.398 0-4.5 0-.464-.184-.909-.513-1.237-.328-.329-.773-.513-1.237-.513-1.331 0-3.669 0-5 0-.464 0-.909.184-1.237.513-.329.328-.513.773-.513 1.237v4.5c0 .995.395 1.948 1.098 2.652.704.703 1.657 1.098 2.652 1.098zm1-1.5h-1c-.597 0-1.169-.237-1.591-.659s-.659-.994-.659-1.591c0-1.574 0-3.398 0-4.5 0-.066.026-.13.073-.177s.111-.073.177-.073h5c.066 0 .13.026.177.073s.073.111.073.177v4.5c0 .597-.237 1.169-.659 1.591s-.994.659-1.591.659z"/><path d="m8.5 18.25h-2c-.138 0-.25-.112-.25-.25v-3c0-.597.237-1.169.659-1.591s.994-.659 1.591-.659h7c.597 0 1.169.237 1.591.659s.659.994.659 1.591v3c0 .138-.112.25-.25.25h-2c-.414 0-.75.336-.75.75s.336.75.75.75h2c.967 0 1.75-.784 1.75-1.75 0-.787 0-1.925 0-3 0-.995-.395-1.948-1.098-2.652-.704-.703-1.657-1.098-2.652-1.098-2.102 0-4.898 0-7 0-.995 0-1.948.395-2.652 1.098-.703.704-1.098 1.657-1.098 2.652v3c0 .966.783 1.75 1.75 1.75h2c.414 0 .75-.336.75-.75s-.336-.75-.75-.75z"/><path d="m11.25 15v2c0 .414.336.75.75.75s.75-.336.75-.75v-2c0-.414-.336-.75-.75-.75s-.75.336-.75.75z"/><path d="m8.706 6.221 2.951-.843c.224-.064.462-.064.686 0 0 0 2.951.843 2.951.843.398.114.813-.117.927-.515s-.117-.813-.515-.927l-2.951-.843c-.493-.141-1.017-.141-1.51 0l-2.951.843c-.398.114-.629.529-.515.927s.529.629.927.515z"/></g></svg>