<svg clip-rule="evenodd" fill-rule="evenodd" height="512" stroke-linejoin="round" stroke-miterlimit="2" viewBox="0 0 24 24" width="512" xmlns="http://www.w3.org/2000/svg"><g id="Icon"><path d="m1.938 12c-.916 1.213-.897 2.786 0 3.683 0 .001 0 .001.001.001.789.788 2.097.898 3.225.291 1.304 2.536 3.819 4.384 6.738 4.732 4.338.517 8.131-2.142 9.391-5.953.404-.015.779-.192 1.06-.523.254-.3.379-.715.351-1.175-.023-.377-.152-.787-.358-1.146.105-.282.229-.666.271-1.007.058-.471-.05-.881-.264-1.133 0 0 0 0-.001-.001-.286-.338-.671-.516-1.084-.525-1.245-3.467-4.789-6.015-8.578-6.015h-3.854c-.897 0-1.622.728-1.622 1.623 0 .317-.11.631-.338.852-.692.67-1.272 1.454-1.713 2.32-1.128-.605-2.436-.495-3.225.292v.001c-.897.898-.916 2.47 0 3.683zm19.177-1.214c-.004.034-.01.068-.016.096-.088.397-.278.8-.278.8-.124.265-.083.578.106.802.133.158.23.365.267.564.011.058.008.146.005.195-.026-.006-.061-.016-.084-.029-.205-.108-.448-.116-.659-.021-.212.096-.367.283-.421.509-.834 3.467-4.141 5.97-7.955 5.515-2.694-.321-4.969-2.187-5.909-4.662-.09-.237-.294-.413-.543-.467-.248-.053-.507.023-.687.202-.602.6-1.461.812-1.942.333-.481-.482-.268-1.343.334-1.945l-.025.01c.135-.113.244-.285.244-.547v-.28c0-.012 0-.023-.001-.034-.006-.186-.081-.367-.218-.505-.602-.601-.815-1.463-.334-1.945.481-.48 1.341-.267 1.942.333.18.18.44.257.688.203.249-.054.454-.23.544-.468.383-1.015.981-1.923 1.746-2.663.519-.503.795-1.207.795-1.93 0-.068.054-.123.122-.123h3.854c3.368 0 6.51 2.404 7.342 5.587.059.223.216.407.428.498.211.092.453.081.655-.028z"/><path d="m17.488 9.744c0 .415-.337.752-.752.752s-.752-.337-.752-.752.337-.752.752-.752.752.337.752.752" fill-rule="nonzero"/></g></svg>