<svg clip-rule="evenodd" fill-rule="evenodd" height="512" stroke-linejoin="round" stroke-miterlimit="2" viewBox="0 0 24 24" width="512" xmlns="http://www.w3.org/2000/svg"><g id="Icon"><path d="m18 22.75c.968 0 1.75-.784 1.75-1.75v-13c0-.199-.079-.39-.22-.53l-6-6c-.14-.141-.331-.22-.53-.22h-7c-.968 0-1.75.784-1.75 1.75v18c0 .966.782 1.75 1.75 1.75zm0-1.5h-12c-.138 0-.25-.112-.25-.25v-18c0-.138.112-.25.25-.25h6.689s5.561 5.561 5.561 5.561v12.689c0 .138-.112.25-.25.25z"/><path d="m14.2 8.75h4.8c.304 0 .577-.183.693-.463s.052-.603-.162-.817l-6-6c-.215-.215-.538-.279-.818-.163s-.463.39-.463.693v4.8c0 1.077.873 1.95 1.95 1.95zm0-1.5c-.248 0-.45-.201-.45-.45v-2.989s3.44 3.439 3.44 3.439z"/><path d="m8 5.75h2c.414 0 .75-.336.75-.75s-.336-.75-.75-.75h-2c-.414 0-.75.336-.75.75s.336.75.75.75z"/><path d="m8 9.75h2c.414 0 .75-.336.75-.75s-.336-.75-.75-.75h-2c-.414 0-.75.336-.75.75s.336.75.75.75z"/><path d="m8 13.75h8c.414 0 .75-.336.75-.75s-.336-.75-.75-.75h-8c-.414 0-.75.336-.75.75s.336.75.75.75z"/><path d="m8 17.75h8c.414 0 .75-.336.75-.75s-.336-.75-.75-.75h-8c-.414 0-.75.336-.75.75s.336.75.75.75z"/></g></svg>