<svg height="512" viewBox="0 0 32 32" width="512" xmlns="http://www.w3.org/2000/svg"><g id="location_hospital_health_heal" data-name="location, hospital, health, heal"><path d="m23.7778 6.15a11 11 0 0 0 -15.5571 15.5551l4.1016 4.1035a1 1 0 0 0 1.415-1.4141l-4.1011-4.1025a8.998 8.998 0 1 1 12.7276 0l-7.0708 7.0713a1 1 0 1 0 1.414 1.414l7.0708-7.0712a11.0031 11.0031 0 0 0 0-15.5557z"/><path d="m16 9a1 1 0 0 0 -1 1v3h-3a1 1 0 0 0 0 2h3v3a1 1 0 0 0 2 0v-3h3a1 1 0 0 0 0-2h-3v-3a1 1 0 0 0 -1-1z"/></g></svg>