<svg clip-rule="evenodd" fill-rule="evenodd" height="512" stroke-linejoin="round" stroke-miterlimit="2" viewBox="0 0 24 24" width="512" xmlns="http://www.w3.org/2000/svg"><g id="Icon"><path d="m13 6.75c.968 0 1.75-.784 1.75-1.75v-2c0-.966-.782-1.75-1.75-1.75h-2c-.968 0-1.75.784-1.75 1.75v2c0 .966.782 1.75 1.75 1.75zm0-1.5h-2c-.138 0-.25-.112-.25-.25v-2c0-.138.112-.25.25-.25h2c.138 0 .25.112.25.25v2c0 .138-.112.25-.25.25z"/><path d="m13 22.75c.968 0 1.75-.784 1.75-1.75v-2c0-.966-.782-1.75-1.75-1.75h-2c-.968 0-1.75.784-1.75 1.75v2c0 .966.782 1.75 1.75 1.75zm0-1.5h-2c-.138 0-.25-.112-.25-.25v-2c0-.138.112-.25.25-.25h2c.138 0 .25.112.25.25v2c0 .138-.112.25-.25.25z"/><path d="m21 14.75c.968 0 1.75-.784 1.75-1.75v-2c0-.966-.782-1.75-1.75-1.75h-2c-.968 0-1.75.784-1.75 1.75v2c0 .966.782 1.75 1.75 1.75zm0-1.5h-2c-.138 0-.25-.112-.25-.25v-2c0-.138.112-.25.25-.25h2c.138 0 .25.112.25.25v2c0 .138-.112.25-.25.25z"/><path d="m11.116 8.288-2.828 2.827c-.234.234-.366.552-.366.884 0 .331.132.649.366.884.677.677 2.151 2.151 2.828 2.829.234.234.552.366.884.366.331 0 .649-.132.884-.366l2.828-2.827c.234-.234.366-.552.366-.884 0-.331-.132-.649-.366-.884-.677-.677-2.151-2.151-2.828-2.828-.234-.235-.552-.367-.884-.367-.331 0-.649.132-.884.366zm-1.59 3.711 2.474 2.475 2.474-2.473-2.474-2.475z"/><path d="m6.75 12c0-1.518-1.232-2.75-2.75-2.75s-2.75 1.232-2.75 2.75 1.232 2.75 2.75 2.75 2.75-1.232 2.75-2.75zm-1.5 0c0 .69-.56 1.25-1.25 1.25s-1.25-.56-1.25-1.25.56-1.25 1.25-1.25 1.25.56 1.25 1.25z"/><path d="m12.75 8.67v-2.67c0-.414-.336-.75-.75-.75s-.75.336-.75.75v2.67c0 .414.336.75.75.75s.75-.336.75-.75z"/><path d="m12.75 18v-2.67c0-.414-.336-.75-.75-.75s-.75.336-.75.75v2.67c0 .414.336.75.75.75s.75-.336.75-.75z"/><path d="m19.25 14v4c0 .69-.56 1.25-1.25 1.25h-4c-.414 0-.75.336-.75.75s.336.75.75.75h4c1.519 0 2.75-1.231 2.75-2.75v-4c0-.414-.336-.75-.75-.75s-.75.336-.75.75z"/><path d="m3.25 14v4c0 1.519 1.231 2.75 2.75 2.75h4c.414 0 .75-.336.75-.75s-.336-.75-.75-.75h-4c-.69 0-1.25-.56-1.25-1.25v-4c0-.414-.336-.75-.75-.75s-.75.336-.75.75z"/><path d="m14 4.75h4c.69 0 1.25.56 1.25 1.25v4c0 .414.336.75.75.75s.75-.336.75-.75v-4c0-1.519-1.231-2.75-2.75-2.75h-4c-.414 0-.75.336-.75.75s.336.75.75.75z"/><path d="m18 11.25h-2.672c-.414 0-.75.336-.75.75s.336.75.75.75h2.672c.414 0 .75-.336.75-.75s-.336-.75-.75-.75z"/></g></svg>