<svg clip-rule="evenodd" fill-rule="evenodd" height="512" stroke-linejoin="round" stroke-miterlimit="2" viewBox="0 0 24 24" width="512" xmlns="http://www.w3.org/2000/svg"><g id="Icon"><path d="m15.5 19.25c0-1.932-1.568-3.5-3.5-3.5s-3.5 1.568-3.5 3.5 1.568 3.5 3.5 3.5 3.5-1.568 3.5-3.5zm-1.5 0c0 1.104-.896 2-2 2s-2-.896-2-2 .896-2 2-2 2 .896 2 2z"/><path d="m12.75 13.75c0-1.932-1.568-3.5-3.5-3.5s-3.5 1.568-3.5 3.5 1.568 3.5 3.5 3.5 3.5-1.568 3.5-3.5zm-1.5 0c0 1.104-.896 2-2 2s-2-.896-2-2 .896-2 2-2 2 .896 2 2z"/><path d="m10 8.25c0-1.932-1.568-3.5-3.5-3.5s-3.5 1.568-3.5 3.5 1.568 3.5 3.5 3.5 3.5-1.568 3.5-3.5zm-1.5 0c0 1.104-.896 2-2 2s-2-.896-2-2 .896-2 2-2 2 .896 2 2z"/><path d="m18.25 13.75c0-1.932-1.568-3.5-3.5-3.5s-3.5 1.568-3.5 3.5 1.568 3.5 3.5 3.5 3.5-1.568 3.5-3.5zm-1.5 0c0 1.104-.896 2-2 2s-2-.896-2-2 .896-2 2-2 2 .896 2 2z"/><path d="m15.5 8.25c0-1.932-1.568-3.5-3.5-3.5s-3.5 1.568-3.5 3.5 1.568 3.5 3.5 3.5 3.5-1.568 3.5-3.5zm-1.5 0c0 1.104-.896 2-2 2s-2-.896-2-2 .896-2 2-2 2 .896 2 2z"/><path d="m21 8.25c0-1.932-1.568-3.5-3.5-3.5s-3.5 1.568-3.5 3.5 1.568 3.5 3.5 3.5 3.5-1.568 3.5-3.5zm-1.5 0c0 1.104-.896 2-2 2s-2-.896-2-2 .896-2 2-2 2 .896 2 2z"/><path d="m12.708 5.253s-.157-.459-.157-1.007c.001-.311.046-.658.248-.942.218-.307.618-.504 1.262-.556.413-.034.72-.397.687-.809-.034-.413-.397-.72-.809-.687-1.234.101-1.945.595-2.362 1.182-.391.549-.525 1.21-.526 1.81 0 .818.241 1.503.241 1.503.136.391.564.597.955.461s.597-.564.461-.955z"/></g></svg>