<svg clip-rule="evenodd" fill-rule="evenodd" height="512" stroke-linejoin="round" stroke-miterlimit="2" viewBox="0 0 134 134" width="512" xmlns="http://www.w3.org/2000/svg"><path d="m50 62.5c-16.098 0-29.167 13.069-29.167 29.167 0 16.097 13.069 29.166 29.167 29.166s29.167-13.069 29.167-29.166c0-16.098-13.069-29.167-29.167-29.167zm-20.832-26.346c.006 7.109.063 14.539.574 21.891.159 2.294-1.574 4.286-3.868 4.445s-4.286-1.574-4.445-3.868c-.592-8.526-.596-17.152-.596-25.289 0-1.703 1.038-3.236 2.62-3.868l41.666-16.667c.994-.397 2.102-.397 3.095 0l41.667 16.667c1.582.632 2.619 2.165 2.619 3.868 0 14.354-.036 30.218-3.227 44.407-3.38 15.033-10.277 28.199-23.799 36.296-1.973 1.181-4.534.539-5.715-1.434-1.182-1.973-.539-4.534 1.434-5.716 11.478-6.873 17.081-18.214 19.95-30.974 2.852-12.681 3.014-26.762 3.021-39.759l-37.497-14.999zm20.832 34.679c11.498 0 20.833 9.335 20.833 20.834 0 11.498-9.335 20.833-20.833 20.833s-20.833-9.335-20.833-20.833c0-11.499 9.335-20.834 20.833-20.834zm0 29.167c2.3 0 4.167 1.867 4.167 4.167 0 2.299-1.867 4.166-4.167 4.166s-4.167-1.867-4.167-4.166c0-2.3 1.867-4.167 4.167-4.167zm-4.167-20.757v12.424c0 2.299 1.867 4.166 4.167 4.166s4.167-1.867 4.167-4.166v-12.424c0-2.3-1.867-4.167-4.167-4.167s-4.167 1.867-4.167 4.167z"/></svg>