<svg height="512" viewBox="0 0 32 32" width="512" xmlns="http://www.w3.org/2000/svg"><g id="pen_tablet_device" data-name="pen, tablet, device"><path d="m30 7a1 1 0 0 0 -1 1v16a1 1 0 0 0 2 0v-16a1 1 0 0 0 -1-1z" fill-rule="evenodd"/><path d="m24 7h-20a2.9794 2.9794 0 0 0 -2.1211.8789 3.02 3.02 0 0 0 -.8789 2.1211v12a3.0008 3.0008 0 0 0 3 3h20a3.0008 3.0008 0 0 0 3-3v-12a3.02 3.02 0 0 0 -.8789-2.1211 2.9794 2.9794 0 0 0 -2.1211-.8789zm1 15a1 1 0 0 1 -1 1h-20a1 1 0 0 1 -1-1v-12a1 1 0 0 1 1-1h5v11a1 1 0 0 0 2 0v-11h13a1 1 0 0 1 1 1z" fill-rule="evenodd"/><circle cx="6" cy="20" r="1"/><circle cx="6" cy="16" r="1"/><circle cx="6" cy="12" r="1"/></g></svg>