<svg clip-rule="evenodd" fill-rule="evenodd" height="512" stroke-linejoin="round" stroke-miterlimit="2" viewBox="0 0 24 24" width="512" xmlns="http://www.w3.org/2000/svg"><g id="Icon"><path d="m12 8.618c-2.07 0-3.75 1.681-3.75 3.75 0 2.07 1.68 3.75 3.75 3.75s3.75-1.68 3.75-3.75c0-2.069-1.68-3.75-3.75-3.75zm0 1.5c1.242 0 2.25 1.009 2.25 2.25 0 1.242-1.008 2.25-2.25 2.25s-2.25-1.008-2.25-2.25c0-1.241 1.008-2.25 2.25-2.25z"/><path d="m6.879 5.708c-2.462-.18-4.787 1.406-5.449 3.878-.602 2.247.351 4.546 2.198 5.754-.855 2.349.072 5.046 2.31 6.338 1.988 1.148 4.418.846 6.062-.577 1.644 1.423 4.074 1.725 6.062.577 2.238-1.292 3.165-3.989 2.31-6.338 1.847-1.208 2.8-3.507 2.198-5.754-.662-2.472-2.987-4.058-5.449-3.878-.529-2.34-2.622-4.09-5.121-4.09s-4.592 1.75-5.121 4.09zm12.349 8.565c-.224.053-.412.206-.508.416-.099.214-.091.461.021.669.955 1.777.329 4.006-1.429 5.021-1.546.892-3.465.559-4.627-.699l-.085-.108c-.139-.179-.351-.287-.578-.291-.227-.005-.444.093-.59.267-1.148 1.365-3.146 1.754-4.744.831-1.654-.955-2.306-2.984-1.582-4.7.015-.028.074-.138.147-.258.112-.182.14-.404.078-.609-.063-.205-.21-.373-.404-.463-1.627-.75-2.528-2.586-2.048-4.375.506-1.888 2.37-3.053 4.26-2.725.006.001.079.017.2.046.214.05.44.003.617-.128s.288-.333.302-.553c.131-1.951 1.758-3.496 3.742-3.496 1.929 0 3.52 1.459 3.727 3.333.002.016.018.1.043.238.037.202.154.379.324.492.171.113.38.151.58.106 1.952-.442 3.925.736 4.447 2.687.464 1.731-.364 3.507-1.893 4.299z"/></g></svg>