<svg clip-rule="evenodd" fill-rule="evenodd" height="512" stroke-linejoin="round" stroke-miterlimit="2" viewBox="0 0 24 24" width="512" xmlns="http://www.w3.org/2000/svg"><g id="Icon"><path d="m12 1.25c-5.933 0-10.75 4.817-10.75 10.75s4.817 10.75 10.75 10.75 10.75-4.817 10.75-10.75-4.817-10.75-10.75-10.75zm0 1.5c5.105 0 9.25 4.145 9.25 9.25s-4.145 9.25-9.25 9.25-9.25-4.145-9.25-9.25 4.145-9.25 9.25-9.25z"/><path d="m12 3.75c-4.553 0-8.25 3.697-8.25 8.25s3.697 8.25 8.25 8.25 8.25-3.697 8.25-8.25-3.697-8.25-8.25-8.25zm0 1.5c3.725 0 6.75 3.025 6.75 6.75s-3.025 6.75-6.75 6.75-6.75-3.025-6.75-6.75 3.025-6.75 6.75-6.75z"/><path d="m20.25 1.25c-1.38 0-2.5 1.12-2.5 2.5s1.12 2.5 2.5 2.5 2.5-1.12 2.5-2.5-1.12-2.5-2.5-2.5zm0 1.5c.552 0 1 .448 1 1s-.448 1-1 1-1-.448-1-1 .448-1 1-1z"/><path d="m19.5 11.25h-1.5c-.414 0-.75.336-.75.75s.336.75.75.75h1.5c.414 0 .75-.336.75-.75s-.336-.75-.75-.75z"/><path d="m11.25 4.5v1.5c0 .414.336.75.75.75s.75-.336.75-.75v-1.5c0-.414-.336-.75-.75-.75s-.75.336-.75.75z"/><path d="m6 11.25h-1.5c-.414 0-.75.336-.75.75s.336.75.75.75h1.5c.414 0 .75-.336.75-.75s-.336-.75-.75-.75z"/><path d="m11.25 18v1.5c0 .414.336.75.75.75s.75-.336.75-.75v-1.5c0-.414-.336-.75-.75-.75s-.75.336-.75.75z"/><path d="m16.35 9.202c.129-.439.008-.913-.315-1.237-.324-.323-.798-.444-1.237-.315l-4.608 1.355c-.57.168-1.017.615-1.185 1.185l-1.355 4.608c-.129.439-.008.913.315 1.237.324.323.798.444 1.237.315l4.608-1.355c.57-.168 1.017-.615 1.185-1.185zm-1.568.016-1.226 4.168c-.024.082-.088.146-.17.17l-4.168 1.226 1.226-4.168c.024-.082.088-.146.17-.17z"/></g></svg>