<svg height="512" viewBox="0 0 32 32" width="512" xmlns="http://www.w3.org/2000/svg"><g id="Layer_45" data-name="Layer 45"><path d="m13 15h2v2h-2z"/><path d="m13 11h2v2h-2z"/><path d="m13 19h2v2h-2z"/><path d="m13 23h2v2h-2z"/><path d="m17 15h2v2h-2z"/><path d="m17 11h2v2h-2z"/><path d="m17 19h2v2h-2z"/><path d="m17 23h2v2h-2z"/><path d="m28 27h-1v-11a1 1 0 0 0 -.5527-.8945l-3.4473-1.7237v-1.3818c0-4.3008-3.5166-5.2583-6.6182-6.1035-2.0752-.565-4.2207-1.1494-5.6748-2.6035a1 1 0 0 0 -1.707.707v9.3818l-3.4473 1.7237a1 1 0 0 0 -.5527.8945v11h-1a1 1 0 0 0 0 2h24a1 1 0 0 0 0-2zm-12.1436-19.1738c3.3799.9209 5.1436 1.5244 5.1436 4.1738v12.0986a1 1 0 1 0 2 0v-8.48l2 1v10.3814h-14v-20.9834a19.4689 19.4689 0 0 0 4.8564 1.8096zm-8.8564 8.792 2-1v11.3818h-2z"/></g></svg>