<svg id="svg9" height="512" viewBox="0 0 32 32" width="512" xmlns="http://www.w3.org/2000/svg" xmlns:svg="http://www.w3.org/2000/svg"><g id="tag_sale_discount_promo" data-name="tag, sale, discount, promo"><path id="path4" d="m28.707 16.3838-12.5049-12.5049c-.563728-.5607627-1.325865-.876577-2.121-.8789h-6.8082c-2.3491505.0061841-4.2551975 1.902908-4.2729 4.252v6.8291c-.00214.796022.3143563 1.559799.8789 2.121l9.4141 9.4141c.877572.795395 2.242354-.483169 1.414-1.4141l-9.414-9.414c-.186756-.188022-.2920082-.441992-.293-.707v-6.8233c.0110119-1.2482463 1.024608-2.2551086 2.2729-2.2578h6.8082c.265071.0006785.519155.1059781.707.293l11.7978 11.7978-10.2021 10.2022c-.971672.942623.471546 2.385739 1.4141 1.414l10.9091-10.9091c.390449-.390511.390449-1.023589 0-1.4141z"/><path id="path6" d="m7 10a3 3 0 1 0 3-3 3.0033 3.0033 0 0 0 -3 3zm4 0a1 1 0 1 1 -1-1 1.0009 1.0009 0 0 1 1 1z"/></g></svg>