<svg clip-rule="evenodd" fill-rule="evenodd" stroke-linejoin="round" stroke-miterlimit="1.414" viewBox="0 0 32 32" xmlns="http://www.w3.org/2000/svg" xmlns:serif="http://www.serif.com/"><path id="location-mark-destination" d="m0 0h32v32h-32z" fill="none"/><path d="m16.05 3c3.888.035 7.695 2.273 9.57 5.738 2.204 4.073 1.533 9.525-1.889 12.959l-7.042 7.042c-.064.058-.079.075-.151.124-.659.44-1.772-.243-1.506-1.118.047-.155.138-.292.249-.415 2.36-2.36 4.732-4.71 7.082-7.082 2.796-2.84 3.411-7.594 1.198-11.087-1.713-2.704-4.96-4.361-8.168-4.15-3.693.242-7.108 2.981-8.072 6.648-.789 2.998.086 6.369 2.306 8.609l.021.022 4.084 4.083s.33.366.287.802c-.048.486-.495.898-.991.898-.196 0-.391-.059-.554-.168-.072-.048-.086-.065-.151-.123-1.378-1.379-2.762-2.75-4.134-4.135-3.69-3.749-4.185-10.143-.852-14.421 2.014-2.584 5.232-4.176 8.516-4.225.066-.001.132-.001.197-.001zm-.033 6.045c2.304.021 4.443 1.802 4.863 4.068.522 2.816-1.762 5.87-4.863 5.889-2.369.015-4.61-1.876-4.959-4.253-.393-2.681 1.725-5.493 4.576-5.692.128-.009.255-.013.383-.012zm-.013 1.991h-.039c-1.356.013-2.633 1.047-2.907 2.385-.275 1.344.507 2.832 1.782 3.362 1.662.692 3.841-.472 4.103-2.341.233-1.661-1.135-3.389-2.939-3.406z" fill-rule="nonzero"/></svg>