<svg clip-rule="evenodd" fill-rule="evenodd" height="512" stroke-linejoin="round" stroke-miterlimit="2" viewBox="0 0 24 24" width="512" xmlns="http://www.w3.org/2000/svg"><g id="Icon"><path d="m2 21.75h20c.414 0 .75-.336.75-.75s-.336-.75-.75-.75h-20c-.414 0-.75.336-.75.75s.336.75.75.75z"/><path d="m19 21.75c.208 0 .406-.086.548-.238s.214-.355.2-.563c0 0-.243-3.628-1.859-7.263-1.104-2.485-2.849-4.96-5.545-6.352-.31-.16-.689-.086-.915.18-.226.265-.239.651-.032.932 0 0 3.986 5.405 3.356 12.488-.019.209.052.417.194.572.142.156.343.244.553.244zm-.836-1.5h-1.863c.167-3.752-.826-7.016-1.825-9.295.862 1.017 1.527 2.181 2.043 3.341 1.057 2.379 1.485 4.755 1.645 5.954z"/><path d="m7.84 6.008c-1.022-1.175-2.2-2.121-3.545-2.697-.289-.124-.625-.055-.841.174s-.266.569-.125.85c0 0 .925 1.85 1.973 4.508.152.385.588.575.973.423s.575-.588.423-.973c-.334-.847-.656-1.614-.942-2.269.332.295.65.62.952.968.271.312.746.346 1.058.074.312-.271.346-.746.074-1.058z"/><path d="m6.842 13.219c.79 2.585 1.408 5.366 1.408 7.781 0 .414.336.75.75.75h4c.217 0 .424-.094.567-.259.142-.164.206-.382.175-.597 0 0-1.013-7.063-4.095-12.331-.209-.357-.668-.478-1.026-.269-.357.209-.477.669-.268 1.027 2.31 3.948 3.399 8.955 3.761 10.929-.001 0-2.382 0-2.382 0-.107-2.367-.702-5.003-1.455-7.469-.121-.396-.541-.619-.937-.498s-.619.54-.498.936z"/><path d="m2.251 20.96c-.011.206.063.407.205.556.141.149.338.234.544.234h4c.21 0 .41-.088.552-.243.142-.154.213-.361.195-.571-.732-8.593 3.92-17.592 3.92-17.592.15-.292.093-.649-.141-.879-.235-.23-.592-.281-.882-.125-3.054 1.645-5.045 4.984-6.296 8.427-1.821 5.009-2.097 10.193-2.097 10.193zm1.561-.71c.15-1.588.621-5.328 1.945-8.971.782-2.149 1.855-4.276 3.357-5.869-1.319 3.299-3.194 9.096-2.916 14.84z"/><path d="m17.801 13.836c.63-1.257 1.387-2.435 2.305-3.413-.74 1.846-1.651 4.47-2.259 7.426-.084.405.177.802.583.886.405.083.802-.178.886-.584 1.133-5.502 3.351-9.807 3.351-9.807.15-.292.093-.649-.141-.879-.235-.23-.592-.281-.882-.125-2.272 1.224-3.958 3.377-5.184 5.824-.186.37-.036.821.334 1.006.37.186.821.036 1.007-.334z"/></g></svg>