<svg clip-rule="evenodd" fill-rule="evenodd" height="512" stroke-linejoin="round" stroke-miterlimit="2" viewBox="0 0 24 24" width="512" xmlns="http://www.w3.org/2000/svg"><g id="Icon"><path d="m7.75 18.5c0 2.346 1.904 4.25 4.25 4.25s4.25-1.904 4.25-4.25c0-.414-.336-.75-.75-.75s-.75.336-.75.75c0 1.518-1.232 2.75-2.75 2.75s-2.75-1.232-2.75-2.75c0-.414-.336-.75-.75-.75s-.75.336-.75.75z"/><path d="m5.426 13.286c-.114.385-.176.792-.176 1.214 0 2.346 1.904 4.25 4.25 4.25s4.25-1.904 4.25-4.25c0-.422-.062-.829-.176-1.214-.119-.397-.537-.623-.933-.505-.397.118-.623.537-.505.933.074.249.114.513.114.786 0 1.518-1.232 2.75-2.75 2.75s-2.75-1.232-2.75-2.75c0-.273.04-.537.114-.786.118-.396-.108-.815-.505-.933-.396-.118-.814.108-.933.505z"/><path d="m11.75 5.75c-2.346 0-4.25 1.904-4.25 4.25s1.904 4.25 4.25 4.25 4.25-1.904 4.25-4.25-1.904-4.25-4.25-4.25zm0 1.5c1.518 0 2.75 1.232 2.75 2.75s-1.232 2.75-2.75 2.75-2.75-1.232-2.75-2.75 1.232-2.75 2.75-2.75z"/><path d="m9.483 6.746c-.74-.622-1.693-.996-2.733-.996-2.346 0-4.25 1.904-4.25 4.25s1.904 4.25 4.25 4.25c1.157 0 2.207-.463 2.973-1.214.296-.29.301-.765.011-1.061-.289-.296-.765-.3-1.06-.011-.496.486-1.175.786-1.924.786-1.518 0-2.75-1.232-2.75-2.75s1.232-2.75 2.75-2.75c.673 0 1.289.242 1.767.644.317.266.791.225 1.057-.092.266-.316.225-.79-.091-1.056z"/><path d="m11.464 17.473c.772.788 1.847 1.277 3.036 1.277 2.346 0 4.25-1.904 4.25-4.25 0-.422-.062-.829-.176-1.214-.119-.397-.537-.623-.933-.505-.397.118-.623.537-.505.933.074.249.114.513.114.786 0 1.518-1.232 2.75-2.75 2.75-.769 0-1.465-.317-1.964-.826-.29-.296-.765-.301-1.061-.011-.296.289-.3.765-.011 1.06z"/><path d="m13.911 12.629c.778.987 1.985 1.621 3.339 1.621 2.346 0 4.25-1.904 4.25-4.25s-1.904-4.25-4.25-4.25c-1.354 0-2.561.634-3.339 1.621-.256.326-.2.797.125 1.054.325.256.797.2 1.053-.125.504-.639 1.285-1.05 2.161-1.05 1.518 0 2.75 1.232 2.75 2.75s-1.232 2.75-2.75 2.75c-.876 0-1.657-.411-2.161-1.05-.256-.325-.728-.381-1.053-.125-.325.257-.381.728-.125 1.054z"/><path d="m6.055 1.445c-.337.099-.56.418-.538.768 0 0 .176 2.603 2.182 4.007 2.006 1.405 4.512.68 4.512.68.337-.099.56-.418.537-.768 0 0-.175-2.603-2.181-4.007-2.006-1.405-4.512-.68-4.512-.68zm1.071 1.322c.653-.067 1.687-.04 2.581.586s1.273 1.588 1.433 2.224c-.653.068-1.687.041-2.581-.585s-1.273-1.588-1.433-2.225z"/><path d="m12.75 6c0-1.795 1.455-3.25 3.25-3.25.414 0 .75-.336.75-.75s-.336-.75-.75-.75c-2.623 0-4.75 2.127-4.75 4.75 0 .414.336.75.75.75s.75-.336.75-.75z"/></g></svg>