<svg clip-rule="evenodd" fill-rule="evenodd" height="512" stroke-linejoin="round" stroke-miterlimit="2" viewBox="0 0 24 24" width="512" xmlns="http://www.w3.org/2000/svg"><g id="Icon"><path d="m3.493 2.553c-.305-.28-.326-.755-.046-1.06s.755-.326 1.06-.046l5.408 4.958c.087.079.216.088.312.02l3.678-2.574c.678-.475 1.596-.41 2.2.156l6.408 6c.302.283.317.758.034 1.06-.282.302-.757.318-1.06.035l-6.407-6c-.087-.081-.218-.09-.315-.022l-3.677 2.574c-.673.471-1.582.411-2.186-.143z"/><path d="m21.24 7.547c-.001-.414.334-.751.747-.753.414-.001.752.334.753.748l.01 3c.001.414-.333.751-.747.752l-3 .01c-.414.002-.752-.333-.753-.747s.334-.751.748-.753l2.249-.007z"/><path d="m6.5 9.25c1.679 0 3.161.477 4.084 1.176.759.575 1.166 1.307 1.166 2.074s-.407 1.499-1.166 2.074c-.923.699-2.405 1.176-4.084 1.176s-3.161-.477-4.084-1.176c-.759-.575-1.166-1.307-1.166-2.074s.407-1.499 1.166-2.074c.923-.699 2.405-1.176 4.084-1.176zm0 1.5c-1.302 0-2.463.33-3.178.872-.334.253-.572.54-.572.878s.238.625.572.878c.715.542 1.876.872 3.178.872s2.463-.33 3.178-.872c.334-.253.572-.54.572-.878s-.238-.625-.572-.878c-.715-.542-1.876-.872-3.178-.872z"/><path d="m17.5 13.25c1.679 0 3.161.477 4.084 1.176.759.575 1.166 1.307 1.166 2.074s-.407 1.499-1.166 2.074c-.923.699-2.405 1.176-4.084 1.176s-3.161-.477-4.084-1.176c-.759-.575-1.166-1.307-1.166-2.074s.407-1.499 1.166-2.074c.923-.699 2.405-1.176 4.084-1.176zm0 1.5c-1.302 0-2.463.33-3.178.872-.334.253-.572.54-.572.878s.238.625.572.878c.715.542 1.876.872 3.178.872s2.463-.33 3.178-.872c.334-.253.572-.54.572-.878s-.238-.625-.572-.878c-.715-.542-1.876-.872-3.178-.872z"/><path d="m10.25 12.5c0-.414.336-.75.75-.75s.75.336.75.75v7c0 .767-.407 1.499-1.166 2.074-.923.699-2.405 1.176-4.084 1.176s-3.161-.477-4.084-1.176c-.759-.575-1.166-1.307-1.166-2.074v-7c0-.414.336-.75.75-.75s.75.336.75.75v7c0 .338.238.625.572.878.715.542 1.876.872 3.178.872s2.463-.33 3.178-.872c.334-.253.572-.54.572-.878z"/><path d="m10.25 15.75c0-.414.336-.75.75-.75s.75.336.75.75c0 .767-.407 1.499-1.166 2.074-.923.699-2.405 1.176-4.084 1.176s-3.161-.477-4.084-1.176c-.759-.575-1.166-1.307-1.166-2.074 0-.414.336-.75.75-.75s.75.336.75.75c0 .338.238.625.572.878.715.542 1.876.872 3.178.872s2.463-.33 3.178-.872c.334-.253.572-.54.572-.878z"/><path d="m21.25 16.5c0-.414.336-.75.75-.75s.75.336.75.75v3c0 .767-.407 1.499-1.166 2.074-.923.699-2.405 1.176-4.084 1.176s-3.161-.477-4.084-1.176c-.759-.575-1.166-1.307-1.166-2.074v-3c0-.414.336-.75.75-.75s.75.336.75.75v3c0 .338.238.625.572.878.715.542 1.876.872 3.178.872s2.463-.33 3.178-.872c.334-.253.572-.54.572-.878z"/></g></svg>