<svg clip-rule="evenodd" fill-rule="evenodd" height="512" stroke-linejoin="round" stroke-miterlimit="2" viewBox="0 0 24 24" width="512" xmlns="http://www.w3.org/2000/svg"><g id="Icon"><path d="m12 2.75c5.105 0 9.25 4.145 9.25 9.25s-4.145 9.25-9.25 9.25-9.25-4.145-9.25-9.25 4.145-9.25 9.25-9.25zm0 1.5c-4.277 0-7.75 3.473-7.75 7.75s3.473 7.75 7.75 7.75 7.75-3.473 7.75-7.75-3.473-7.75-7.75-7.75z"/><path d="m22 11.25c.414 0 .75.336.75.75s-.336.75-.75.75h-3c-.414 0-.75-.336-.75-.75s.336-.75.75-.75z"/><path d="m11.25 2c0-.414.336-.75.75-.75s.75.336.75.75v3c0 .414-.336.75-.75.75s-.75-.336-.75-.75z"/><path d="m5 11.25c.414 0 .75.336.75.75s-.336.75-.75.75h-3c-.414 0-.75-.336-.75-.75s.336-.75.75-.75z"/><path d="m11.25 19c0-.414.336-.75.75-.75s.75.336.75.75v3c0 .414-.336.75-.75.75s-.75-.336-.75-.75z"/><path d="m12 10.77c2.163 0 3.918 1.756 3.918 3.919 0 .489-.23.924-.682 1.266-.66.5-1.942.795-3.236.795s-2.576-.295-3.236-.795c-.452-.342-.682-.777-.682-1.266 0-2.163 1.755-3.919 3.918-3.919zm-2.418 3.903c.013.015.056.062.088.087.109.082.25.149.411.208.523.193 1.221.282 1.919.282s1.396-.089 1.919-.282c.161-.059.302-.126.411-.208.032-.025.075-.072.088-.087-.008-1.327-1.088-2.403-2.418-2.403s-2.41 1.076-2.418 2.403z"/><path d="m12 7.25c1.385 0 2.51 1.125 2.51 2.51 0 1.386-1.125 2.51-2.51 2.51s-2.51-1.124-2.51-2.51c0-1.385 1.125-2.51 2.51-2.51zm0 1.5c-.558 0-1.01.453-1.01 1.01 0 .558.452 1.01 1.01 1.01s1.01-.452 1.01-1.01c0-.557-.452-1.01-1.01-1.01z"/></g></svg>