<svg height="512" viewBox="0 0 32 32" width="512" xmlns="http://www.w3.org/2000/svg"><g id="Layer_43" data-name="Layer 43"><path d="m9 7h2v2h-2z"/><path d="m9 11h2v2h-2z"/><path d="m9 15h2v2h-2z"/><path d="m9 19h2v2h-2z"/><path d="m13 7h2v2h-2z"/><path d="m21 15h2v2h-2z"/><path d="m21 11h2v2h-2z"/><path d="m13 11h2v2h-2z"/><path d="m21 19h2v2h-2z"/><path d="m13 15h2v2h-2z"/><path d="m21 23h2v2h-2z"/><path d="m13 19h2v2h-2z"/><path d="m28 27h-1v-19a1 1 0 0 0 -1-1h-7v-3a1 1 0 0 0 -1-1h-12a1 1 0 0 0 -1 1v23h-1a1 1 0 0 0 0 2h24a1 1 0 0 0 0-2zm-21-22h10v19a1 1 0 0 0 2 0v-15h6v18h-10v-3a1 1 0 0 0 -1-1h-4a1 1 0 0 0 -1 1v3h-2zm6 22h-2v-2h2z"/></g></svg>