<svg clip-rule="evenodd" fill-rule="evenodd" height="512" stroke-linejoin="round" stroke-miterlimit="2" viewBox="0 0 24 24" width="512" xmlns="http://www.w3.org/2000/svg"><g id="Icon"><path d="m19.047 4.9c-1.964 1.476-4.404 2.35-7.047 2.35-2.644 0-5.085-.875-7.049-2.351-.331-.249-.802-.182-1.051.148-.248.331-.182.802.149 1.051 2.216 1.665 4.969 2.652 7.951 2.652 2.981 0 5.733-.986 7.948-2.65.331-.249.398-.72.149-1.05-.249-.331-.719-.398-1.05-.15z"/><path d="m19.948 17.898c-2.215-1.663-4.967-2.65-7.948-2.65-2.982 0-5.735.987-7.951 2.652-.331.249-.397.72-.149 1.051.249.331.72.397 1.051.149 1.964-1.477 4.405-2.352 7.049-2.352 2.643 0 5.083.874 7.047 2.35.331.248.801.181 1.05-.149.249-.331.182-.802-.149-1.051z"/><path d="m12 22.75c1.322 0 2.58-.804 3.572-2.258 1.307-1.917 2.178-5.005 2.178-8.492s-.871-6.575-2.178-8.492c-.992-1.454-2.25-2.258-3.572-2.258s-2.58.804-3.572 2.258c-1.307 1.917-2.178 5.005-2.178 8.492s.871 6.575 2.178 8.492c.992 1.454 2.25 2.258 3.572 2.258zm0-1.5c-.886 0-1.668-.629-2.332-1.603-1.176-1.724-1.918-4.511-1.918-7.647s.742-5.923 1.918-7.647c.664-.974 1.446-1.603 2.332-1.603s1.668.629 2.332 1.603c1.176 1.724 1.918 4.511 1.918 7.647s-.742 5.923-1.918 7.647c-.664.974-1.446 1.603-2.332 1.603z"/><path d="m2 12.75h20c.414 0 .75-.336.75-.75s-.336-.75-.75-.75h-20c-.414 0-.75.336-.75.75s.336.75.75.75z"/><path d="m11.988 1.25c-5.933 0-10.75 4.817-10.75 10.75s4.817 10.75 10.75 10.75 10.75-4.817 10.75-10.75-4.817-10.75-10.75-10.75zm0 1.5c5.105 0 9.25 4.145 9.25 9.25s-4.145 9.25-9.25 9.25c-5.106 0-9.25-4.145-9.25-9.25s4.144-9.25 9.25-9.25z"/></g></svg>