<svg clip-rule="evenodd" fill-rule="evenodd" height="512" stroke-linejoin="round" stroke-miterlimit="2" viewBox="0 0 24 24" width="512" xmlns="http://www.w3.org/2000/svg"><g id="Icon"><path d="m18.003 11.5v-8.5c0-.967-.783-1.75-1.75-1.75-2.443 0-8.75 0-12 0-.729 0-1.429.29-1.944.805-.516.516-.806 1.216-.806 1.945v15.5c0 .414.336.75.75.75s.75-.336.75-.75c0 0 0-10.908 0-15.5 0-.332.132-.649.366-.884.235-.234.553-.366.884-.366h12c.138 0 .25.112.25.25v8.5c0 .414.336.75.75.75s.75-.336.75-.75z"/><path d="m12.753 16.75h-8.25c-1.657 0-3 1.343-3 3 0 .796.316 1.559.879 2.121.563.563 1.326.879 2.121.879h9.25c.414 0 .75-.336.75-.75s-.336-.75-.75-.75h-9.25c-.398 0-.779-.158-1.06-.439-.282-.282-.44-.663-.44-1.061 0-.828.672-1.5 1.5-1.5h8.25c.414 0 .75-.336.75-.75s-.336-.75-.75-.75z"/><path d="m6.253 6.75h7c.414 0 .75-.336.75-.75s-.336-.75-.75-.75h-7c-.414 0-.75.336-.75.75s.336.75.75.75z"/><path d="m21.435 21.57-2.801-4c-.238-.339-.706-.422-1.045-.184-.339.237-.421.705-.184 1.044l2.801 4c.237.339.705.422 1.044.184.339-.237.422-.705.185-1.044z"/><path d="m21.9 17.955c.305-.063.538-.308.587-.615s-.096-.613-.365-.768l-7.169-4.137c-.253-.145-.567-.131-.805.036-.239.167-.359.457-.309.744l1.435 8.151c.054.307.291.548.597.607.305.059.615-.077.779-.342l1.837-2.963s3.413-.713 3.413-.713zm-2.23-1.066-1.804.377c-.201.042-.376.164-.484.339l-.971 1.566s-.816-4.633-.816-4.633z"/></g></svg>