<svg clip-rule="evenodd" fill-rule="evenodd" height="512" stroke-linejoin="round" stroke-miterlimit="2" viewBox="0 0 24 24" width="512" xmlns="http://www.w3.org/2000/svg"><g id="Icon"><path d="m7.25 8c0-.414-.336-.75-.75-.75h-4.5c-.414 0-.75.336-.75.75v6c0 .414.336.75.75.75h4.5c.414 0 .75-.336.75-.75zm-1.5.75v4.5h-3v-4.5z"/><path d="m15 11c0-.414-.336-.75-.75-.75h-4.5c-.414 0-.75.336-.75.75v6c0 .414.336.75.75.75h4.5c.414 0 .75-.336.75-.75zm-1.5.75v4.5h-3v-4.5z"/><path d="m22.75 9c0-.414-.336-.75-.75-.75h-4.5c-.414 0-.75.336-.75.75v6c0 .414.336.75.75.75h4.5c.414 0 .75-.336.75-.75zm-1.5.75v4.5h-3v-4.5z"/><path d="m5 8v-5c0-.414-.336-.75-.75-.75s-.75.336-.75.75v5c0 .414.336.75.75.75s.75-.336.75-.75z"/><path d="m20.5 9v-7c0-.414-.336-.75-.75-.75s-.75.336-.75.75v7c0 .414.336.75.75.75s.75-.336.75-.75z"/><path d="m11.25 17v5c0 .414.336.75.75.75s.75-.336.75-.75v-5c0-.414-.336-.75-.75-.75s-.75.336-.75.75z"/><path d="m5 16v-2c0-.414-.336-.75-.75-.75s-.75.336-.75.75v2c0 .414.336.75.75.75s.75-.336.75-.75z"/><path d="m20.5 17v-2c0-.414-.336-.75-.75-.75s-.75.336-.75.75v2c0 .414.336.75.75.75s.75-.336.75-.75z"/><path d="m11.25 9v2c0 .414.336.75.75.75s.75-.336.75-.75v-2c0-.414-.336-.75-.75-.75s-.75.336-.75.75z"/></g></svg>