<svg clip-rule="evenodd" fill-rule="evenodd" height="512" stroke-linejoin="round" stroke-miterlimit="2" viewBox="0 0 24 24" width="512" xmlns="http://www.w3.org/2000/svg"><g id="Icon"><path d="m16.75 15c0-4.277-3.473-7.75-7.75-7.75s-7.75 3.473-7.75 7.75 3.473 7.75 7.75 7.75 7.75-3.473 7.75-7.75zm-1.5 0c0 3.45-2.801 6.25-6.25 6.25s-6.25-2.8-6.25-6.25c0-3.449 2.801-6.25 6.25-6.25s6.25 2.801 6.25 6.25z"/><path d="m10.277 4.911c1.143-1.322 2.83-2.161 4.723-2.161 3.455 0 6.25 2.795 6.25 6.25 0 1.732-.705 3.304-1.848 4.438-.294.291-.296.766-.004 1.06.291.294.766.296 1.06.004 1.417-1.406 2.292-3.354 2.292-5.502 0-4.285-3.465-7.75-7.75-7.75-2.347 0-4.44 1.041-5.857 2.679-.271.313-.237.787.076 1.058s.787.237 1.058-.076z"/><path d="m7.108 8.08c1.143-1.322 2.83-2.161 4.723-2.161 3.455 0 6.25 2.795 6.25 6.25 0 1.732-.705 3.304-1.848 4.438-.294.291-.296.766-.004 1.06.291.294.766.296 1.06.004 1.417-1.406 2.292-3.354 2.292-5.502 0-4.285-3.465-7.75-7.75-7.75-2.347 0-4.44 1.041-5.857 2.679-.271.313-.237.787.076 1.058s.787.237 1.058-.076z"/><path d="m15.25 15c0 3.452-2.798 6.25-6.25 6.25-2.641 0-4.781-2.141-4.781-4.781 0-2 1.621-3.621 3.621-3.621 1.493 0 2.703 1.21 2.703 2.704 0 1.093-.886 1.979-1.979 1.979-.777 0-1.407-.63-1.407-1.407 0-.414-.336-.75-.75-.75s-.75.336-.75.75c0 1.605 1.302 2.907 2.907 2.907 1.921 0 3.479-1.558 3.479-3.479 0-2.322-1.882-4.204-4.203-4.204-2.828 0-5.121 2.293-5.121 5.121 0 3.468 2.812 6.281 6.281 6.281 4.28 0 7.75-3.47 7.75-7.75 0-.414-.336-.75-.75-.75s-.75.336-.75.75z"/><path d="m4.528 10.63 6.144-6.097c.294-.292.296-.767.004-1.061-.291-.294-.766-.296-1.06-.004l-6.144 6.097c-.294.292-.296.767-.004 1.061.291.293.766.295 1.06.004z"/><path d="m14.535 20.526 5.933-6.033c.29-.295.286-.77-.009-1.061-.295-.29-.771-.286-1.061.009l-5.933 6.033c-.29.295-.286.771.009 1.061s.771.286 1.061-.009z"/></g></svg>