<svg clip-rule="evenodd" fill-rule="evenodd" height="512" stroke-linejoin="round" stroke-miterlimit="2" viewBox="0 0 24 24" width="512" xmlns="http://www.w3.org/2000/svg"><g id="Icon"><path d="m3.35 7.983v.157c0 .503.302.958.767 1.153.465.194 1.001.091 1.36-.263l1.064-1.047h2.459c.464 0 .909-.184 1.237-.512.329-.328.513-.774.513-1.238v-3.233c0-.966-.783-1.75-1.75-1.75h-6c-.464 0-.909.184-1.237.513-.329.328-.513.773-.513 1.237v3.233c0 .464.184.91.513 1.238.328.328.773.512 1.237.512zm1.487-.428c-.038-.265-.161-.514-.353-.706-.235-.234-.552-.366-.884-.366h-.6c-.066 0-.13-.026-.177-.073s-.073-.11-.073-.177v-3.233c0-.066.026-.13.073-.177s.111-.073.177-.073h6c.138 0 .25.112.25.25v3.233c0 .067-.026.13-.073.177s-.111.073-.177.073h-2.562c-.328 0-.643.129-.877.36z"/><path d="m17.459 7.983 1.064 1.047c.359.354.895.457 1.36.263.465-.195.767-.65.767-1.153v-.157h.35c.464 0 .909-.184 1.237-.512.329-.328.513-.774.513-1.238 0-.928 0-2.304 0-3.233 0-.464-.184-.909-.513-1.237-.328-.329-.773-.513-1.237-.513h-6c-.967 0-1.75.784-1.75 1.75v3.233c0 .464.184.91.513 1.238.328.328.773.512 1.237.512zm1.704-.428-.724-.712c-.234-.231-.549-.36-.877-.36h-2.562c-.066 0-.13-.026-.177-.073s-.073-.11-.073-.177v-3.233c0-.138.112-.25.25-.25h6c.066 0 .13.026.177.073s.073.111.073.177v3.233c0 .067-.026.13-.073.177s-.111.073-.177.073h-.6c-.332 0-.649.132-.884.366-.192.192-.315.441-.353.706z"/><path d="m6.5 14.887c-2.898 0-5.25 2.353-5.25 5.25 0 .751.47 1.408 1.341 1.859.949.49 2.427.754 3.909.754s2.96-.264 3.909-.754c.871-.451 1.341-1.108 1.341-1.859 0-2.897-2.352-5.25-5.25-5.25zm0 1.5c2.07 0 3.75 1.681 3.75 3.75 0 .245-.247.379-.531.526-.779.404-2.001.587-3.219.587s-2.44-.183-3.219-.587c-.284-.147-.531-.281-.531-.526 0-2.069 1.68-3.75 3.75-3.75z"/><path d="m17.5 14.887c-2.898 0-5.25 2.353-5.25 5.25 0 .751.47 1.408 1.341 1.859.949.49 2.427.754 3.909.754s2.96-.264 3.909-.754c.871-.451 1.341-1.108 1.341-1.859 0-2.897-2.352-5.25-5.25-5.25zm0 1.5c2.07 0 3.75 1.681 3.75 3.75 0 .245-.247.379-.531.526-.779.404-2.001.587-3.219.587s-2.44-.183-3.219-.587c-.284-.147-.531-.281-.531-.526 0-2.069 1.68-3.75 3.75-3.75z"/><path d="m6.5 9.887c-1.794 0-3.25 1.457-3.25 3.25 0 1.794 1.456 3.25 3.25 3.25s3.25-1.456 3.25-3.25c0-1.793-1.456-3.25-3.25-3.25zm0 1.5c.966 0 1.75.784 1.75 1.75s-.784 1.75-1.75 1.75-1.75-.784-1.75-1.75.784-1.75 1.75-1.75z"/><path d="m17.5 9.887c-1.794 0-3.25 1.457-3.25 3.25 0 1.794 1.456 3.25 3.25 3.25s3.25-1.456 3.25-3.25c0-1.793-1.456-3.25-3.25-3.25zm0 1.5c.966 0 1.75.784 1.75 1.75s-.784 1.75-1.75 1.75-1.75-.784-1.75-1.75.784-1.75 1.75-1.75z"/></g></svg>