<svg clip-rule="evenodd" fill-rule="evenodd" height="512" stroke-linejoin="round" stroke-miterlimit="2" viewBox="0 0 24 24" width="512" xmlns="http://www.w3.org/2000/svg"><g id="Icon"><path d="m21.25 22v-10.5c0-.69-.56-1.25-1.25-1.25h-16c-.69 0-1.25.56-1.25 1.25v10.5c0 .414.336.75.75.75h17c.414 0 .75-.336.75-.75zm-17-10.25h15.5v9.5h-15.5z"/><path d="m11.25 14.5c0-.414-.336-.75-.75-.75h-4c-.414 0-.75.336-.75.75v7.5c0 .414.336.75.75.75h4c.414 0 .75-.336.75-.75zm-1.5.75v6h-2.5v-6z"/><path d="m18.25 14.5c0-.414-.336-.75-.75-.75h-4c-.414 0-.75.336-.75.75v7.5c0 .414.336.75.75.75h4c.414 0 .75-.336.75-.75zm-1.5.75v6h-2.5v-6z"/><path d="m18.75 7.5c0-.331-.132-.649-.366-.884-.235-.234-.552-.366-.884-.366-1.952 0-9.048 0-11 0-.332 0-.649.132-.884.366-.234.235-.366.553-.366.884v3.5c0 .414.336.75.75.75h12c.414 0 .75-.336.75-.75zm-1.5.25v2.5h-10.5v-2.5z"/><path d="m16.75 2c0-.414-.336-.75-.75-.75h-4c-.414 0-.75.336-.75.75v2.5c0 .414.336.75.75.75h4c.414 0 .75-.336.75-.75zm-1.5.75v1h-2.5v-1z"/><path d="m22 21.25h-20c-.414 0-.75.336-.75.75s.336.75.75.75h20c.414 0 .75-.336.75-.75s-.336-.75-.75-.75z"/><path d="m11.25 4v3c0 .414.336.75.75.75s.75-.336.75-.75v-3c0-.414-.336-.75-.75-.75s-.75.336-.75.75z"/></g></svg>