<svg clip-rule="evenodd" fill-rule="evenodd" height="512" stroke-linejoin="round" stroke-miterlimit="2" viewBox="0 0 24 24" width="512" xmlns="http://www.w3.org/2000/svg"><g id="Icon"><path d="m2.53 22.53 2-2c.293-.292.293-.768 0-1.06-.292-.293-.768-.293-1.06 0l-2 2c-.293.292-.293.768 0 1.06.292.293.768.293 1.06 0z"/><path d="m11.054 8.328-6.731 6.73c-.266.266-.439.611-.494.982.001-.001-.372 2.513-.372 2.513-.174 1.163.828 2.163 1.99 1.988l2.523-.381c.369-.056.712-.229.976-.493l6.725-6.721c.684-.684.684-1.792-.001-2.475l-2.14-2.142c-.682-.683-1.791-.683-2.475-.001zm-5.67 7.79 6.73-6.728c.098-.098.257-.099.355-.001l2.142 2.144c.097.097.097.255-.001.353l-6.725 6.721c-.038.037-.087.062-.14.07 0 0-2.521.38-2.521.38-.166.025-.308-.118-.284-.284l.374-2.516c.007-.052.032-.101.07-.139z"/><path d="m16.456 2.928c-.524-.429-1.308-.398-1.804.1.002-.001-1.308 1.308-1.308 1.308-.001 0-.001.001-.002.001-.527.529-.526 1.386.001 1.913 0 0 4.408 4.408 4.408 4.408.528.527 1.385.527 1.913 0 0 0 1.31-1.31 1.31-1.31.492-.493.525-1.272.099-1.803l.721-.723c1.274-1.274 1.274-3.341 0-4.616-1.273-1.275-3.342-1.275-4.617 0zm3.359 5.458-1.107 1.107-4.2-4.2 1.107-1.106c.532.426 1.311.393 1.803-.099l.82-.821c.689-.689 1.807-.69 2.495-.001.689.69.689 1.807 0 2.496l-.82.821c-.493.492-.527 1.271-.098 1.803z"/><path d="m13.56 13.25h-7.119c-.414 0-.75.336-.75.75s.336.75.75.75h7.119c.414 0 .75-.336.75-.75s-.336-.75-.75-.75z"/></g></svg>