<svg clip-rule="evenodd" fill-rule="evenodd" height="512" stroke-linejoin="round" stroke-miterlimit="2" viewBox="0 0 24 24" width="512" xmlns="http://www.w3.org/2000/svg"><g id="Icon"><path d="m6.5 5.853c1.46-1.308 3.388-2.103 5.5-2.103s4.04.795 5.5 2.103c.308.276.783.25 1.059-.059.276-.308.25-.783-.059-1.059-1.725-1.545-4.004-2.485-6.5-2.485s-4.775.94-6.5 2.485c-.309.276-.335.751-.059 1.059.276.309.751.335 1.059.059z"/><path d="m3.814 4.441-.58.011c-.508.01-.976.274-1.248.703-.272.428-.311.965-.104 1.428l.18.404-.13.479c-.126.462-.026.956.27 1.333.295.376.752.591 1.23.578l.72-.019.614.376c.408.251.911.293 1.355.115s.778-.556.9-1.019l.127-.48.358-.26c.411-.297.646-.782.624-1.289-.021-.507-.295-.97-.729-1.233l-.497-.299-.268-.613c-.185-.421-.551-.735-.995-.854s-.918-.03-1.289.242zm2.184 2.033.627.378c.004.003.006.007.007.012 0 .004-.002.009-.006.012 0 0-.575.416-.575.416-.14.102-.241.249-.285.416l-.195.739c-.001.005-.004.008-.008.01-.004.001-.009.001-.013-.001 0 0-.803-.493-.803-.493-.124-.076-.267-.114-.412-.11l-.942.025c-.005 0-.009-.002-.012-.006-.002-.003-.003-.008-.002-.012 0 0 .201-.738.201-.738.045-.167.031-.345-.039-.503l-.29-.648c-.002-.004-.001-.009.001-.013.003-.004.007-.006.012-.006.423-.009.802-.016.802-.016s.202.033.455-.154l.72-.529c.003-.003.008-.004.012-.003.004.002.007.004.009.008l.359.819c.097.221.243.336.377.397z"/><path d="m17.096 5.269-.497.299c-.434.263-.708.726-.729 1.233-.022.507.213.992.624 1.289l.358.26.127.48c.122.463.456.841.9 1.019s.947.136 1.355-.115l.614-.376.72.019c.478.013.935-.202 1.23-.578.296-.377.396-.871.27-1.333l-.13-.479.18-.404c.207-.463.168-1-.104-1.428-.272-.429-.74-.693-1.248-.703l-.58-.011-.538-.397c-.371-.272-.845-.361-1.289-.242s-.81.433-.995.854zm.906 1.205c.134-.061.28-.176.377-.397l.359-.819c.002-.004.005-.006.009-.008.004-.001.009 0 .012.003l.72.529c.253.187.455.154.455.154s.379.007.802.016c.005 0 .009.002.012.006.002.004.003.009.001.013 0 0-.29.648-.29.648-.07.158-.084.336-.039.503l.201.738c.001.004 0 .009-.002.012-.003.004-.007.006-.012.006 0 0-.942-.025-.942-.025-.145-.004-.288.034-.412.11l-.803.493c-.004.002-.009.002-.013.001-.004-.002-.007-.005-.008-.01 0 0-.195-.739-.195-.739-.044-.167-.145-.314-.285-.416l-.575-.416c-.004-.003-.006-.008-.006-.012.001-.005.003-.009.007-.012z"/><path d="m10.4 17.84-.557.161c-.488.141-.872.518-1.024 1.002-.152.485-.05 1.013.27 1.407l.278.343-.002.497c-.002.478.223.93.606 1.217s.879.376 1.338.24l.691-.205.691.205c.459.136.955.047 1.338-.24s.608-.739.606-1.217l-.002-.497.278-.343c.32-.394.422-.922.27-1.407-.152-.484-.536-.861-1.024-1.002l-.557-.161-.418-.522c-.287-.359-.722-.568-1.182-.568s-.895.209-1.182.568zm2.646 1.401.694.201c.004.002.008.005.009.009.002.005.001.01-.002.013 0 0-.448.551-.448.551-.109.135-.168.303-.167.476l.003.764c0 .005-.002.009-.006.012-.003.002-.008.003-.012.002 0 0-.904-.268-.904-.268-.139-.041-.287-.041-.426 0l-.904.268c-.004.001-.009 0-.012-.002-.004-.003-.006-.007-.006-.011 0-.001.003-.765.003-.765.001-.173-.058-.341-.167-.476l-.448-.551c-.003-.003-.004-.008-.002-.013.001-.004.005-.007.009-.009l.694-.201c.119-.016.308-.077.477-.288l.558-.698c.003-.003.007-.005.011-.005s.008.002.011.005l.558.698c.169.211.358.272.477.288z"/><path d="m2.644 9.805-.525.247c-.459.217-.78.649-.853 1.151-.074.503.11 1.008.488 1.347l.329.295.077.49c.073.473.366.884.79 1.107.423.223.927.233 1.359.026l.65-.311.714.093c.475.062.951-.104 1.284-.448s.483-.825.406-1.298l-.08-.49.221-.382c.254-.44.27-.978.044-1.432-.226-.455-.665-.765-1.169-.828l-.576-.071-.495-.45c-.34-.309-.802-.447-1.256-.374-.455.072-.851.347-1.078.747zm2.801.963.749.093c.005 0 .009.003.011.007.002.005.002.01 0 .014 0 0-.355.614-.355.614-.087.15-.119.325-.091.496l.124.755c0 .004-.001.009-.004.012s-.008.004-.012.004c0 0-.935-.122-.935-.122-.143-.019-.29.005-.42.067l-.85.407c-.005.002-.009.002-.013 0s-.007-.006-.007-.01c0 0-.118-.756-.118-.756-.027-.171-.112-.327-.241-.443l-.528-.473c-.004-.004-.006-.008-.005-.013.001-.004.004-.008.008-.01l.654-.308c.134-.043.3-.141.425-.36l.441-.777c.002-.004.006-.006.01-.007s.009 0 .012.003l.661.601c.212.193.41.208.484.206z"/><path d="m18.197 9.301-.576.071c-.504.063-.943.373-1.169.828-.226.454-.21.992.044 1.432l.221.382-.08.49c-.077.473.073.954.406 1.298s.809.51 1.284.448l.714-.093.65.311c.432.207.936.197 1.359-.026.424-.223.717-.634.79-1.107l.077-.49.329-.295c.378-.339.562-.844.488-1.347-.073-.502-.394-.934-.853-1.151l-.525-.247-.33-.581c-.227-.4-.623-.675-1.078-.747-.454-.073-.916.065-1.256.374zm2.391 1.801.654.308c.004.002.007.006.008.01.001.005-.001.009-.005.013 0 0-.528.473-.528.473-.129.116-.214.272-.241.443l-.118.756c0 .004-.003.008-.007.01s-.008.002-.012 0c-.001 0-.851-.407-.851-.407-.13-.062-.277-.086-.42-.067l-.935.122c-.004 0-.009-.001-.012-.004s-.004-.008-.004-.012c0 0 .124-.755.124-.755.028-.171-.004-.346-.091-.496l-.355-.614c-.002-.004-.002-.009 0-.014.002-.004.006-.007.011-.007l.749-.093c.074.002.272-.013.484-.206l.661-.601c.003-.003.008-.004.012-.003s.008.003.01.007l.441.777c.125.219.291.317.425.36z"/><path d="m6.165 17.939-.524.247c-.46.216-.78.648-.853 1.151-.074.502.109 1.008.488 1.347l.329.294.076.491c.074.473.367.883.79 1.106.424.224.928.233 1.36.027l.65-.311.714.093c.474.062.95-.104 1.283-.448s.484-.826.407-1.298l-.081-.49.221-.383c.254-.439.271-.977.045-1.432-.227-.454-.666-.765-1.17-.827l-.575-.072-.495-.449c-.34-.31-.803-.447-1.257-.375-.454.073-.85.348-1.077.747zm2.801.962.75.093c.005.001.009.004.011.008s.002.009-.001.013c0 0-.355.615-.355.615-.086.15-.118.325-.09.496l.123.754c.001.005 0 .009-.003.012s-.008.005-.012.004c0 0-.935-.122-.935-.122-.144-.018-.29.005-.421.068l-.85.407c-.004.002-.008.001-.012-.001s-.007-.005-.008-.01c0 0-.117-.755-.117-.755-.027-.171-.112-.328-.241-.443l-.529-.474c-.003-.003-.005-.008-.004-.012.001-.005.004-.009.008-.011l.654-.308c.134-.042.3-.14.425-.36l.441-.777c.002-.003.006-.006.01-.007.004 0 .008.001.011.004l.662.601c.212.192.41.208.483.205z"/><path d="m14.675 17.434-.575.072c-.504.062-.943.373-1.17.827-.226.455-.209.993.045 1.432l.221.383-.081.49c-.077.472.074.954.407 1.298s.809.51 1.283.448l.715-.093.649.311c.432.206.936.197 1.36-.027.423-.223.716-.633.79-1.106l.076-.491.329-.294c.379-.339.562-.845.488-1.347-.073-.503-.393-.935-.853-1.151l-.524-.247-.331-.582c-.227-.399-.623-.674-1.077-.747-.454-.072-.917.065-1.257.375zm2.391 1.801.654.308c.004.002.007.006.008.011.001.004-.001.009-.004.012 0 0-.529.474-.529.474-.129.115-.214.272-.241.443l-.117.755c-.001.005-.004.008-.008.01s-.008.003-.012.001c0 0-.85-.407-.85-.407-.131-.063-.277-.086-.421-.068l-.935.122c-.004.001-.009-.001-.012-.004s-.004-.007-.003-.012c0 0 .123-.754.123-.754.028-.171-.004-.346-.09-.496l-.355-.615c-.003-.004-.003-.009-.001-.013s.006-.007.011-.008l.75-.093c.073.003.271-.013.483-.205l.662-.601c.003-.003.007-.004.011-.004.004.001.008.004.01.007l.441.777c.125.22.291.318.425.36z"/><path d="m3.123 15.063-.402.418c-.351.366-.496.885-.385 1.38.11.495.462.902.936 1.084l.413.157.247.431c.238.416.658.695 1.133.752s.95-.114 1.279-.461l.496-.523.7-.168c.466-.112.851-.437 1.039-.877s.157-.944-.084-1.357l-.25-.429.07-.437c.08-.501-.096-1.009-.47-1.353s-.895-.477-1.388-.355l-.563.139-.623-.244c-.428-.167-.909-.131-1.307.099-.399.23-.671.629-.74 1.083zm1.226.89c.105-.096.192-.236.223-.441l.135-.884c0-.004.003-.008.007-.01.003-.002.008-.002.012-.001l.832.326c.177.069.285.056.285.056s.463-.092.974-.218c.004-.001.009 0 .012.003.004.003.005.008.005.013 0 0-.112.7-.112.7-.028.171.005.347.092.496l.385.661c.002.004.003.008.001.012s-.005.007-.01.008c0 .001-.916.22-.916.22-.141.034-.269.108-.369.214l-.649.683c-.003.003-.007.005-.012.004-.004 0-.008-.003-.01-.006 0 0-.38-.664-.38-.664-.086-.15-.221-.266-.383-.328l-.663-.253c-.004-.002-.008-.006-.009-.01-.001-.005.001-.01.004-.013z"/><path d="m18.106 13.464-.563-.139c-.493-.122-1.014.011-1.388.355s-.55.852-.47 1.353l.07.437-.25.429c-.241.413-.272.917-.084 1.357s.573.765 1.039.877l.7.168.496.523c.329.347.804.518 1.279.461s.895-.336 1.133-.752l.247-.431.413-.157c.474-.182.826-.589.936-1.084.111-.495-.034-1.014-.385-1.38l-.402-.418-.101-.661c-.069-.454-.341-.853-.74-1.083-.398-.23-.879-.266-1.307-.099zm1.545 2.489.546.568c.003.003.005.008.004.013-.001.004-.005.008-.009.01 0 0-.663.253-.663.253-.162.062-.297.178-.383.328l-.38.664c-.002.003-.006.006-.01.006-.005.001-.009-.001-.012-.004 0 0-.649-.683-.649-.683-.1-.106-.228-.18-.369-.214l-.916-.219c-.005-.002-.008-.005-.01-.009s-.001-.008.001-.012c0 0 .385-.661.385-.661.087-.149.12-.325.092-.496l-.112-.7c0-.005.001-.01.005-.013.003-.003.008-.004.012-.003.511.126.974.218.974.218s.108.013.285-.056l.832-.326c.004-.001.009-.001.012.001.004.002.007.006.007.01l.135.884c.031.205.118.345.223.441z"/></g></svg>