<svg clip-rule="evenodd" fill-rule="evenodd" height="512" stroke-linejoin="round" stroke-miterlimit="2" viewBox="0 0 24 24" width="512" xmlns="http://www.w3.org/2000/svg"><g id="Icon"><path d="m13 5.75h7c.69 0 1.25.56 1.25 1.25v3.5c0 .414.336.75.75.75s.75-.336.75-.75v-3.5c0-1.518-1.232-2.75-2.75-2.75h-7c-.414 0-.75.336-.75.75s.336.75.75.75z"/><path d="m20 21.25c1.518 0 2.75-1.232 2.75-2.75v-8.5c0-1.518-1.232-2.75-2.75-2.75 0 0-3.9 0-5.412 0-.09 0-.174-.049-.218-.129-.481-.866-1.448-2.605-1.929-3.471-.308-.555-.894-.9-1.529-.9h-6.912c-1.518 0-2.75 1.232-2.75 2.75v13c0 1.518 1.232 2.75 2.75 2.75zm0-1.5h-16c-.69 0-1.25-.56-1.25-1.25v-13c0-.69.56-1.25 1.25-1.25h6.912c.09 0 .174.049.218.129.481.866 1.448 2.605 1.929 3.471.308.555.894.9 1.529.9h5.412c.69 0 1.25.56 1.25 1.25v8.5c0 .69-.56 1.25-1.25 1.25z"/></g></svg>