<svg height="512" viewBox="0 0 32 32" width="512" xmlns="http://www.w3.org/2000/svg"><path d="m9.5732 11.1348a1.0007 1.0007 0 0 0 -1.3667.3637 9 9 0 0 0 0 9.0025 1 1 0 1 0 1.73-1.002 7.0007 7.0007 0 0 1 0-6.9975 1 1 0 0 0 -.3633-1.3667z"/><path d="m6.1079 9.1348a1 1 0 0 0 -1.3662.3642 13.0035 13.0035 0 0 0 0 13.002 1 1 0 0 0 1.7305-1.002 11.0061 11.0061 0 0 1 0-10.998.9994.9994 0 0 0 -.3643-1.3662z"/><path d="m22.4268 11.1348a1 1 0 0 0 -.3638 1.3667 7.0007 7.0007 0 0 1 0 6.9975 1 1 0 1 0 1.7305 1.002 9 9 0 0 0 0-9.0025 1 1 0 0 0 -1.3667-.3637z"/><path d="m27.2583 9.499a1 1 0 0 0 -1.73 1.002 11.0061 11.0061 0 0 1 0 10.998 1 1 0 1 0 1.73 1.002 13.0035 13.0035 0 0 0 0-13.002z"/><path d="m16 11a5.0783 5.0783 0 0 0 -5 5.1421 5.1933 5.1933 0 0 0 1.4629 3.6343l.8174.8466a1 1 0 1 0 1.4397-1.3886l-.311-.3223c-.2969-.3076-.5064-.5244-.5176-.5351a3.24 3.24 0 0 1 -.8914-2.2349 3.0032 3.0032 0 1 1 6 0 3.24 3.24 0 0 1 -.8911 2.2349l-2.8281 2.9287a1 1 0 1 0 1.4384 1.3886l2.8282-2.9287a5.184 5.184 0 0 0 1.4526-3.6235 5.0783 5.0783 0 0 0 -5-5.1421z"/></svg>