<svg clip-rule="evenodd" fill-rule="evenodd" height="512" stroke-linejoin="round" stroke-miterlimit="2" viewBox="0 0 24 24" width="512" xmlns="http://www.w3.org/2000/svg"><g id="Icon"><path d="m18.578 3.848c.008-.062-.029-.121-.088-.141s-.124.004-.156.058l-1.864 2.695c-.023.041-.024.091 0 .132.023.041.067.066.114.066h1.087s-.152.715-.249 1.494c-.008.062.029.121.088.141s.124-.004.156-.058l1.864-2.695c.023-.041.024-.091 0-.132-.023-.041-.067-.066-.114-.066-.377 0-1.087 0-1.087 0s.152-.715.249-1.494z"/><path d="m18 1.25c2.622 0 4.75 2.128 4.75 4.75s-2.128 4.75-4.75 4.75-4.75-2.128-4.75-4.75 2.128-4.75 4.75-4.75zm0 1.5c-1.794 0-3.25 1.456-3.25 3.25s1.456 3.25 3.25 3.25 3.25-1.456 3.25-3.25-1.456-3.25-3.25-3.25z"/><path d="m18.586 19.969-2 2.5c-.143.177-.358.281-.586.281h-14c-.414 0-.75-.336-.75-.75v-5c0-.414.336-.75.75-.75h14c.228 0 .443.104.586.281l2 2.5c.219.274.219.664 0 .938zm-1.546-.469-1.4-1.75h-12.89v3.5h12.89z"/><path d="m14.586 12.969-2 2.5c-.143.177-.358.281-.586.281h-10c-.414 0-.75-.336-.75-.75v-5c0-.414.336-.75.75-.75h10c.228 0 .443.104.586.281l2 2.5c.219.274.219.664 0 .938zm-1.546-.469-1.4-1.75h-8.89v3.5h8.89z"/><path d="m10.586 5.969-2 2.5c-.143.177-.358.281-.586.281h-6c-.414 0-.75-.336-.75-.75v-5c0-.414.336-.75.75-.75h6c.228 0 .443.104.586.281l2 2.5c.219.274.219.664 0 .938zm-1.546-.469-1.4-1.75h-4.89v3.5h4.89z"/></g></svg>