<svg clip-rule="evenodd" fill-rule="evenodd" height="512" stroke-linejoin="round" stroke-miterlimit="2" viewBox="0 0 24 24" width="512" xmlns="http://www.w3.org/2000/svg"><g id="Icon"><path d="m9.25 13.5v-2.25c0-.53-.211-1.039-.586-1.414s-.884-.586-1.414-.586c-1.105 0-2 .895-2 2v3.422c0 .729.29 1.428.805 1.944.401.4.929.928 1.329 1.329.234.234.366.552.366.883v2.172c0 .967.784 1.75 1.75 1.75h6.5c.464 0 .909-.184 1.237-.513.329-.328.513-.773.513-1.237v-.833c0-.271.088-.534.25-.75l.7-.934c.357-.476.55-1.055.55-1.65v-9.583c0-1.105-.895-2-2-2s-2 .895-2 2v4.75c0 .414.336.75.75.75s.75-.336.75-.75v-4.75c0-.276.224-.5.5-.5s.5.224.5.5v9.583c0 .271-.088.534-.25.75l-.7.934c-.357.476-.55 1.055-.55 1.65v.833c0 .066-.026.13-.073.177s-.111.073-.177.073h-6.5c-.138 0-.25-.112-.25-.25v-2.172c0-.729-.29-1.428-.805-1.944-.401-.4-.929-.928-1.329-1.329-.234-.234-.366-.552-.366-.883v-3.422c0-.276.224-.5.5-.5.133 0 .26.053.354.146.093.094.146.221.146.354v2.25c0 .414.336.75.75.75s.75-.336.75-.75z"/><path d="m6.75 15v-1.75c0-.53-.211-1.039-.586-1.414s-.884-.586-1.414-.586c-1.105 0-2 .895-2 2v2.922c0 .729.29 1.428.805 1.944.401.4.929.928 1.329 1.329.234.234.366.552.366.883v.672c0 .966.783 1.75 1.75 1.75h2c.414 0 .75-.336.75-.75s-.336-.75-.75-.75h-2c-.138 0-.25-.112-.25-.25v-.672c0-.729-.29-1.428-.805-1.944-.401-.4-.929-.928-1.329-1.329-.234-.234-.366-.552-.366-.883v-2.922c0-.276.224-.5.5-.5.133 0 .26.053.354.146.093.094.146.221.146.354v1.75c0 .414.336.75.75.75s.75-.336.75-.75z"/><path d="m16.75 12v-7.25c0-.53-.211-1.039-.586-1.414s-.884-.586-1.414-.586-1.039.211-1.414.586-.586.884-.586 1.414v7.25c0 .414.336.75.75.75s.75-.336.75-.75c0 0 0-4.887 0-7.25 0-.133.053-.26.146-.354.094-.093.221-.146.354-.146s.26.053.354.146c.093.094.146.221.146.354v7.25c0 .414.336.75.75.75s.75-.336.75-.75z"/><path d="m11.75 12v-7.25c0-.53-.211-1.039-.586-1.414s-.884-.586-1.414-.586-1.039.211-1.414.586-.586.884-.586 1.414v7.25c0 .414.336.75.75.75s.75-.336.75-.75c0 0 0-4.887 0-7.25 0-.133.053-.26.146-.354.094-.093.221-.146.354-.146s.26.053.354.146c.093.094.146.221.146.354v7.25c0 .414.336.75.75.75s.75-.336.75-.75z"/><path d="m14.25 12v-8.75c0-1.105-.895-2-2-2s-2 .895-2 2v8.75c0 .414.336.75.75.75s.75-.336.75-.75v-8.75c0-.276.224-.5.5-.5s.5.224.5.5v8.75c0 .414.336.75.75.75s.75-.336.75-.75z"/><path d="m9.25 12v-5.25c0-1.105-.895-2-2-2s-2 .895-2 2v5.25c0 .414.336.75.75.75s.75-.336.75-.75v-5.25c0-.276.224-.5.5-.5s.5.224.5.5v5.25c0 .414.336.75.75.75s.75-.336.75-.75z"/><path d="m18.75 2v1c0 .414.336.75.75.75s.75-.336.75-.75v-1c0-.414-.336-.75-.75-.75s-.75.336-.75.75z"/><path d="m3.75 2v1c0 .414.336.75.75.75s.75-.336.75-.75v-1c0-.414-.336-.75-.75-.75s-.75.336-.75.75z"/><path d="m22 3.75h-1c-.414 0-.75.336-.75.75s.336.75.75.75h1c.414 0 .75-.336.75-.75s-.336-.75-.75-.75z"/><path d="m2 5.25h1c.414 0 .75-.336.75-.75s-.336-.75-.75-.75h-1c-.414 0-.75.336-.75.75s.336.75.75.75z"/></g></svg>