<svg clip-rule="evenodd" fill-rule="evenodd" stroke-linejoin="round" stroke-miterlimit="2" viewBox="0 0 32 32" xmlns="http://www.w3.org/2000/svg" xmlns:serif="http://www.serif.com/"><path id="program-code-coding" d="m0 0h32v32h-32z" fill="none"/><path d="m18.049 9.014c.222.018.282.047.394.102.387.191.621.651.541 1.081-.011.06-.017.074-.034.132l-4.002 12.004c-.088.237-.144.296-.252.401-.484.471-1.447.257-1.654-.429-.058-.19-.078-.311.008-.605l4.002-12.003c.153-.413.542-.69.997-.683zm4.009 2.001c.244.02.472.122.651.291l4.001 4.001c.126.133.149.181.194.274.162.336.117.762-.119 1.057-.031.039-.041.048-.075.084l-4.001 4.001c-.167.158-.242.19-.377.237-.641.224-1.442-.374-1.316-1.112.025-.147.083-.289.17-.411.032-.046.07-.088.108-.128l3.294-3.294-3.294-3.294s-.442-.626-.194-1.141c.147-.304.455-.523.79-.56.108-.013.133-.006.168-.005zm-12.004 0c.459.039.52.159.652.291.368.369.378 1.015 0 1.415l-3.294 3.294 3.294 3.294s.43.575.216 1.09c-.242.586-1.101.8-1.59.363-.014-.013-.027-.026-.041-.039l-4.001-4.001c-.126-.133-.149-.181-.194-.273-.162-.337-.117-.762.119-1.058.031-.039.041-.047.075-.084l4.001-4.001c.206-.194.471-.299.763-.291z"/></svg>