<svg clip-rule="evenodd" fill-rule="evenodd" height="512" stroke-linejoin="round" stroke-miterlimit="2" viewBox="0 0 24 24" width="512" xmlns="http://www.w3.org/2000/svg"><g id="Icon"><path d="m5.979 1.961c-.379-.351-.877-.548-1.396-.548-.544 0-1.066.216-1.451.601l-.001.002c-.385.385-.602.907-.602 1.452s.217 1.067.602 1.452l.291.29c-.844 4.315-.844 9.097 0 13.411 0 0-.57.57-.57.57-.386.385-.602.907-.602 1.452s.216 1.067.602 1.453c.385.385.907.601 1.452.601s1.067-.216 1.452-.601c0 0 .217-.217.217-.217 4.303.982 7.714.984 12.018.003-.001.001.266.267.266.267.385.385.907.601 1.451.601s1.066-.216 1.451-.601l.001-.001c.385-.386.602-.908.602-1.453s-.217-1.067-.602-1.452c0 0-.661-.661-.661-.661.736-4.278.746-9.032.009-13.308 0 0 .374-.374.374-.374.385-.385.601-.907.601-1.451s-.216-1.066-.601-1.451l-.003-.003c-.384-.385-.906-.601-1.451-.601-.53 0-1.039.205-1.42.572-4.308-.953-7.721-.96-12.029-.005zm13.051 1.102.008-.007c.104-.104.244-.162.39-.162.147 0 .287.058.391.162 0 0 .003.003.003.003.103.103.161.243.161.39 0 .146-.058.287-.161.39l-.652.651c-.174.175-.252.424-.207.667.799 4.331.787 9.21-.009 13.543-.044.242.033.491.208.666l.937.937c.104.104.163.245.163.392s-.059.288-.163.392c0 0-.001.001-.001.001-.104.104-.244.162-.39.162-.147 0-.287-.058-.39-.162l-.562-.561c-.184-.184-.451-.26-.705-.199-4.384 1.048-7.755 1.045-12.139-.004-.254-.06-.521.015-.705.2l-.511.511c-.104.104-.245.162-.392.162s-.288-.058-.392-.162-.162-.245-.162-.392.058-.288.162-.392l.855-.854c.179-.179.255-.436.204-.684-.911-4.353-.911-9.242 0-13.594.051-.248-.025-.505-.204-.684l-.575-.575c-.104-.104-.163-.245-.163-.392s.059-.288.163-.392c0 0 .001-.001.001-.001.104-.104.244-.162.39-.162.147 0 .287.058.391.162l.096.04.002.004-.092-.037s.196.195.227.227l.012.012.025.023.013.011.014.012c.243.201.472.167.472.167.057 0 .114-.007.17-.02 4.393-1.021 7.77-1.013 12.163.005.055.013.112.019.169.019 0 0 .271.04.536-.225.035-.035.25-.25.25-.25h-.001z"/><path d="m12.519 6.406c-.293-.293-.768-.293-1.061 0l-.707.707c-.703.703-1.098 1.657-1.098 2.652 0 .994.395 1.948 1.098 2.651 0 0 .707.708.707.708.293.292.768.292 1.061 0l.707-.708c.703-.703 1.099-1.657 1.099-2.651 0-.995-.396-1.949-1.099-2.652 0 0-.707-.707-.707-.707zm-.53 1.591.177.177c.422.422.659.994.659 1.591s-.237 1.169-.659 1.591l-.177.177-.177-.177c-.422-.422-.659-.994-.659-1.591s.237-1.169.659-1.591z"/><path d="m16.757 10.936c0-.414-.336-.75-.75-.75h-1c-.995 0-1.949.395-2.652 1.099-.703.703-1.098 1.657-1.098 2.651v1c0 .415.335.75.75.75h1c.994 0 1.948-.395 2.651-1.098s1.099-1.657 1.099-2.652zm-1.5.75v.25c0 .597-.237 1.169-.659 1.591s-.995.659-1.591.659h-.25v-.25c0-.596.237-1.169.659-1.591s.994-.659 1.591-.659z"/><path d="m8.007 10.186c-.415 0-.75.336-.75.75v1c0 .995.395 1.949 1.098 2.652s1.657 1.098 2.652 1.098h1c.414 0 .75-.335.75-.75v-1c0-.994-.396-1.948-1.099-2.651-.703-.704-1.657-1.099-2.651-1.099zm.75 1.5h.25c.596 0 1.169.237 1.591.659s.659.995.659 1.591v.25h-.25c-.597 0-1.169-.237-1.591-.659s-.659-.994-.659-1.591z"/><path d="m11.239 14.936v2c0 .414.336.75.75.75s.75-.336.75-.75v-2c0-.414-.336-.75-.75-.75s-.75.336-.75.75z"/></g></svg>