<svg clip-rule="evenodd" fill-rule="evenodd" stroke-linejoin="round" stroke-miterlimit="1.414" viewBox="0 0 32 32" xmlns="http://www.w3.org/2000/svg" xmlns:serif="http://www.serif.com/"><path id="ticket-coupon-counter-lottery" d="m0 0h32v32h-32z" fill="none"/><path d="m13.027 11c.014 1.016-.08 1.924-.943 1.996-.534.046-1.06-.397-1.084-.968-.004-.324-.026-.679-.035-1.028h-5.965v2.171c.284.102.305.123.431.192 1.957 1.064 2.1 4.556-.431 5.466v2.171h3c.002 0 .757.131.945.673.205.592-.271 1.295-.945 1.327h-4c-.537-.025-.975-.451-1-1v-4c.027-.552.479-.976 1.052-1.001.84-.048 1.325-1.446.38-1.901-.267-.129-.536-.103-.536-.103-.495-.077-.871-.487-.896-.995v-4c.025-.537.451-.975 1-1h24c.031.001.062.003.092.004.501.07.884.483.908.996v4c-.027.55-.479.976-1.052 1.001-.84.048-1.325 1.446-.38 1.901.267.129.536.103.536.103.495.077.871.487.896.995v4c-.025.537-.451.975-1 1h-16c-.646-.031-.793-.33-.91-.585-.027-.06-.047-.123-.06-.187l-.001-.004c-.016-.063-.026-.129-.029-.196-.018-1.284-.307-3.046 1.028-3.028.509.022.95.452.972.972.004.332.021.685.025 1.028h13.975v-2.171c-.202-.073-.249-.098-.366-.158-1.402-.718-2.044-2.638-1.288-4.07.348-.659.947-1.176 1.654-1.43v-2.171zm-2.008 11.158v.001zm-.001-.006v-.001zm-.004-.054v.001zm-.001-.006v-.001zm0-.054v.001zm0-.006v-.001zm0-.007v.001-.002zm0-.007v.001zm0-.006v-.001zm.002-.034v.001zm.001-.006v.001-.002zm0-.007v.001-.002zm.001-.007v.001-.002zm.001-.006v-.001zm.004-.033v-.001zm.001-.007v.001zm.001-.007v.002zm.001-.006v.001-.002zm.001-.007v.001-.002zm.001-.006v-.002zm.001-.007v-.001zm.004-.02v.001zm.001-.006v.001-.002zm.002-.007-.001.002.001-.003zm.001-.006v.001-.002zm.002-.007-.001.001.001-.002zm.001-.007v.001-.002zm.002-.006v-.002zm.006-.026v.001zm.002-.007v.002zm.002-.006-.001.001.001-.002zm.002-.007-.001.002.001-.003zm.002-.006-.001.001.001-.003zm.002-.006h-.001l.001-.002zm.002-.007v-.002zm.006-.019-.001.001zm.002-.007-.001.002zm.002-.006v.002-.003zm.002-.006v.001l.001-.003zm.003-.007-.001.002.001-.003zm.002-.006v.001l.001-.003zm.002-.006.001-.002zm.003-.007v.001l.001-.003zm.007-.019-.001.003zm.003-.006-.001.002.001-.003zm.002-.006v.002l.001-.003zm.003-.006-.001.001.002-.003zm.003-.007-.001.002.001-.003zm.002-.006v.001l.001-.003zm.003-.006v.001l.001-.003zm.003-.006.001-.003zm.006-.013-.002.003zm.003-.006-.002.003zm.003-.006-.002.002.002-.003zm.003-.006-.001.002.001-.003zm.003-.006-.001.002.001-.004zm.003-.006-.001.001.002-.003zm.003-.006-.001.001.002-.003zm.003-.006.001-.003zm.003-.006.002-.004zm.006-.012-.001.003.002-.003zm.004-.006-.002.003.002-.004zm.003-.006-.001.002.002-.003zm.003-.006-.001.002.002-.003zm.004-.006-.001.002.002-.004zm.003-.006v.001l.002-.003zm.004-.006-.001.001.002-.003zm.003-.005.002-.004zm.007-.012c-.001.002-.002.004-.003.006zm.004-.006-.002.003zm.004-.006-.002.003zm.003-.005-.001.002.002-.004zm.004-.006-.001.002.002-.004zm.004-.006-.001.001.002-.003zm.004-.006-.001.001.002-.003zm.004-.005h-.001l.002-.003zm.003-.006.003-.004zm.008-.011-.003.004zm.004-.006-.002.003.003-.003zm.004-.005-.001.002.002-.003zm.004-.006-.001.002.002-.003zm.004-.005-.001.001.003-.003zm.004-.006v.002l.002-.004zm.005-.005-.001.001.002-.004zm.004-.006-.001.001.003-.004zm.008-.01c-.001.001-.003.003-.004.005zm.005-.006-.003.004zm.004-.005-.002.003.002-.004zm.004-.005-.002.002.003-.003zm.005-.006-.002.002.003-.003zm.004-.005-.001.002.002-.004zm.004-.005v.001l.002-.003zm.005-.005h-.001l.003-.003zm.004-.005.004-.004zm.01-.011c-.002.002-.004.004-.005.005zm.004-.005-.003.003.004-.003zm.005-.005-.002.003.003-.004zm.004-.005-.001.002.003-.003zm.005-.005-.001.002.003-.003zm.005-.005-.001.001.003-.003zm.005-.005-.001.001.003-.003zm.004-.005v.001l.003-.004zm.005-.005v.001l.005-.005zm.01-.009-.004.004.004-.005zm.005-.005-.003.003.004-.004zm.005-.005-.002.002.003-.003zm.005-.005-.002.002.003-.003zm.005-.004-.002.001.004-.003zm.005-.005-.001.001.003-.003zm.005-.005-.001.001.004-.003zm.005-.004.003-.003zm.011-.01c-.002.002-.004.004-.006.005zm.005-.004-.004.003zm.005-.004-.003.002.004-.003zm.005-.005-.002.002.003-.003zm.005-.004-.001.001.003-.003zm.006-.005-.002.001.004-.002zm.005-.004-.001.001.003-.003zm.005-.004.003-.003zm.006-.005-.001.001.005-.004zm.011-.008c-.002.001-.004.003-.006.004zm.005-.004-.003.002.004-.003zm.006-.005-.003.002.004-.002zm.005-.004-.002.002.004-.003zm.006-.004-.002.002.003-.003zm.005-.004-.001.001.004-.002zm.006-.004-.001.001.004-.003zm.006-.004-.001.001.004-.003zm.011-.008c-.002.002-.004.003-.006.004zm.006-.003-.005.003.005-.004zm.006-.004-.004.002.004-.003zm.005-.004-.002.002.003-.003zm.006-.004-.002.001.004-.002zm.006-.004-.002.001.004-.002zm.006-.003-.001.001.003-.003zm.006-.004-.001.001.004-.003zm.006-.004-.001.001.005-.003zm.012-.007c-.002.002-.005.003-.007.004zm.006-.003-.005.002zm.006-.004-.004.002zm.006-.003-.003.001.004-.002zm.006-.003-.002.001.003-.002zm.006-.004-.002.001.004-.002zm.006-.003-.001.001.004-.002zm.006-.003h-.001l.004-.002zm.006-.003.006-.003zm.013-.007c-.002.001-.004.002-.007.003zm.006-.003-.004.002.005-.002zm.006-.003-.003.002.004-.002zm.006-.003-.002.001.004-.002zm.007-.003-.002.001.004-.002zm.006-.003-.001.001.004-.002zm.006-.003-.001.001.004-.002zm.007-.002h-.001l.005-.002zm.013-.006c-.003.001-.005.002-.007.003zm.006-.003-.005.003.006-.003zm.007-.002-.004.001.004-.002zm.006-.003-.003.001.004-.001zm.007-.003-.003.001.004-.001zm.006-.002-.002.001.004-.002zm.007-.003-.002.001.004-.002zm.006-.002h-.001l.005-.001zm.007-.002h-.001l.006-.002zm.013-.005c-.002.001-.004.002-.007.002zm.007-.002-.005.001.006-.001zm.007-.002-.004.001.005-.002zm.006-.003-.002.001.004-.001zm.007-.002-.002.001.004-.001zm.007-.002-.002.001.004-.002zm.007-.002-.002.001.005-.002zm.006-.002.004-.001zm.007-.002.007-.001zm.014-.003c-.002 0-.005.001-.007.001zm.007-.002-.004.001.005-.001zm.007-.002-.004.001.005-.001zm.007-.002-.003.001.004-.001zm.007-.001h-.003l.005-.001zm.007-.002-.002.001.004-.001zm.007-.001h-.002l.005-.001zm.007-.002h-.001l.005-.001zm.014-.003c-.003.001-.005.001-.008.002zm.007-.001-.006.001zm.007-.001h-.004.005zm.007-.001h-.003l.004-.001zm.007-.002-.002.001.004-.001zm.007-.001-.002.001.005-.001zm.007-.001h-.001.004zm.007-.001h-.001.005zm.008-.001h-.001l.006-.001zm.014-.002c-.002.001-.005.001-.007.001zm.007 0h-.004l.005-.001zm.008-.001h-.004.005zm.007-.001h-.003.005zm.007-.001-.002.001.004-.001zm.008 0h-.002.004zm.007-.001h-.001.004zm.007 0h-.001.006zm.008-.001h-.001.008zm.035-7c.509.022.95.452.972.972.017 1.246.199 2.641-.643 2.962-.588.224-1.328-.225-1.357-.906-.018-1.284-.307-3.046 1.028-3.028z" fill-rule="nonzero"/></svg>