<svg height="512" viewBox="0 0 32 32" width="512" xmlns="http://www.w3.org/2000/svg"><g id="mathematic_calc_calculate" data-name="mathematic, calc, calculate"><path d="m14 9.5h-3v-3a1 1 0 0 0 -2 0v3h-3a1 1 0 0 0 0 2h3v3a1 1 0 0 0 2 0v-3h3a1 1 0 0 0 0-2z"/><path d="m18 11.5h8a1 1 0 0 0 0-2h-8a1 1 0 0 0 0 2z"/><path d="m26 19.5h-8a1 1 0 0 0 0 2h8a1 1 0 0 0 0-2z"/><path d="m26 23.5h-8a1 1 0 0 0 0 2h8a1 1 0 0 0 0-2z"/><path d="m13.707 18.793a.9994.9994 0 0 0 -1.414 0l-2.293 2.2929-2.293-2.2929a1 1 0 0 0 -1.414 1.414l2.2929 2.293-2.2929 2.293a1 1 0 1 0 1.414 1.414l2.293-2.2929 2.293 2.2929a1 1 0 0 0 1.414-1.414l-2.2929-2.293 2.2929-2.293a.9994.9994 0 0 0 0-1.414z"/></g></svg>