<svg clip-rule="evenodd" fill-rule="evenodd" height="512" stroke-linejoin="round" stroke-miterlimit="2" viewBox="0 0 24 24" width="512" xmlns="http://www.w3.org/2000/svg"><g id="Icon"><path d="m11.25 7c0 .414.336.75.75.75h5c.414 0 .75-.336.75-.75 0-.337.172-.753.424-1.035.097-.109.197-.215.326-.215.163 0 .305.101.427.195.249.193.419.429.451.474.265.379.622.331.622.331.414 0 .75-.336.75-.75 0-2.623-2.127-4.75-4.75-4.75-1.08 0-2.089.522-2.899 1.35-1.126 1.152-1.851 2.896-1.851 4.4zm7.5-2.732c-.082-.012-.166-.018-.25-.018-.534 0-1.045.268-1.445.716-.317.354-.559.821-.691 1.284h-3.54c.18-.941.673-1.91 1.35-2.602.515-.527 1.139-.898 1.826-.898 1.158 0 2.175.606 2.75 1.518z"/><path d="m18.135 14.486.447-5.276c.123-1.596-1.141-2.96-2.742-2.96h-7.679c-1.602 0-2.866 1.364-2.742 2.961l.428 5.256c.243 2.984 2.736 5.283 5.731 5.283h.828c2.987 0 5.477-2.288 5.729-5.264zm-1.494-.127c-.187 2.2-2.027 3.891-4.235 3.891h-.828c-2.214 0-4.057-1.699-4.236-3.905 0 0-.428-5.25-.428-5.25-.056-.726.519-1.345 1.247-1.345h7.679c.727 0 1.302.619 1.247 1.344 0 0-.446 5.265-.446 5.265z"/><path d="m18.005 8.271c-.223-.054-.459-.002-.639.14-.181.142-.286.359-.286.589 0 .051-.213 2.945-.213 2.945-.027.37.22.704.581.786l1.462.333c.932.213 1.91-.01 2.657-.606.748-.597 1.183-1.501 1.183-2.457 0-.003-.051-.603-.691-.757-.676-.163-4.054-.973-4.054-.973zm3.144 2.297c-.102.279-.279.527-.517.717-.391.311-.902.428-1.389.317 0 0-.833-.19-.833-.19l.105-1.476z"/><path d="m6.92 9c0-.23-.105-.447-.286-.589-.18-.142-.416-.194-.639-.14 0 0-3.378.81-4.054.973-.639.154-.691.754-.691.757 0 .956.435 1.86 1.183 2.457.747.596 1.725.819 2.658.606l1.461-.333c.361-.082.608-.416.581-.786 0 0-.213-2.894-.213-2.945zm-4.069 1.568 2.634-.632c.034.478.075 1.048.106 1.476 0 0-.834.19-.834.19-.487.111-.998-.006-1.389-.317-.237-.19-.415-.438-.517-.717z"/><path d="m12.001 7.75c.414 0 .75-.336.75-.75 0-1.504-.725-3.248-1.852-4.4-.809-.828-1.819-1.35-2.899-1.35-2.623 0-4.75 2.127-4.75 4.75 0 .414.336.75.75.75 0 0 .358.048.622-.331.032-.045.202-.281.451-.474.123-.094.264-.195.427-.195.129 0 .23.106.326.215.252.282.424.698.424 1.035 0 .414.336.75.75.75zm-6.751-3.482c.575-.912 1.592-1.518 2.75-1.518.687 0 1.311.371 1.826.898.677.692 1.171 1.661 1.351 2.602h-.001-3.54c-.132-.463-.374-.93-.691-1.284-.4-.448-.911-.716-1.445-.716-.084 0-.168.006-.25.018z"/><path d="m14.279 18.294s-.322 1.132-.969 2.038c-.337.471-.749.918-1.31.918s-.973-.447-1.31-.918c-.646-.906-.969-2.038-.969-2.038-.113-.398-.529-.629-.927-.515s-.629.529-.515.927c0 0 .398 1.388 1.191 2.498.624.873 1.49 1.546 2.53 1.546s1.906-.673 2.53-1.546c.794-1.11 1.191-2.498 1.191-2.498.114-.398-.117-.813-.515-.927s-.813.117-.927.515z"/><path d="m12.778 18.99-.028-2.045c-.005-.414-.346-.746-.76-.74s-.745.346-.74.76l.028 2.045c.006.414.347.746.761.74s.745-.346.739-.76z"/><path d="m9.665 16.626c1.47.734 3.2.734 4.67 0 .371-.185.521-.636.336-1.006s-.636-.521-1.006-.336c-1.048.524-2.282.524-3.33 0-.37-.185-.821-.034-1.006.336s-.034.821.336 1.006z"/></g></svg>