<svg clip-rule="evenodd" fill-rule="evenodd" stroke-linejoin="round" stroke-miterlimit="2" viewBox="0 0 32 32" xmlns="http://www.w3.org/2000/svg" xmlns:serif="http://www.serif.com/"><path id="silent-bell-off-" d="m0 0h32v32h-32z" fill="none"/><path d="m7.002 16.971c-.001-1.682-.005-3.365 0-5.048.044-4.58 3.982-8.814 8.832-8.921.079-.002.158-.002.237-.002 2.156.022 4.273.836 5.899 2.256l1.211-1.812c.302-.408.35-.451.897-.442.709.079 1.157.903.768 1.549l-16.01 23.951c-.515.696-.925.508-1.264.347-.513-.244-.704-.951-.402-1.454l1.632-2.44h-1.803c-2.158-.014-4.104-1.991-3.995-4.19.1-2.006 1.892-3.781 3.995-3.794h.003zm16.012-.005c.003-1.687.012-3.373-.001-5.06-.007-.479-.107-1.16-.107-1.16-.015-.176-.005-.226.016-.323.097-.446.44-.77.975-.786.018 0 .036.001.054.001.176.014.224.032.317.068.744.293.739 1.34.746 2.227v5.038h.05c2.451.046 4.517 2.687 3.787 5.132-.484 1.624-2.084 2.841-3.833 2.852h-6.001c0 1.1-.079 2.175-.748 2.945-1.526 1.757-5.211.895-5.262-1.873-.005-.785-.099-1.742.106-2.376.047-.255.194-.481.466-.601.114-.056.249-.088.409-.09.006-.001.013-.001.019-.001 1.282 0 2.565.003 3.847.005.067-.007.138-.008.215-.003.017.001.033.002.049.004 2.308.005 4.615.008 6.923-.006 1.496-.029 2.592-2.117 1.44-3.354-.373-.401-.913-.634-1.47-.638h-6.001c-.675-.025-1.215-.781-.901-1.431.163-.339.413-.547.901-.565 1.335 0 2.67-.005 4.004-.005zm-6.024 7.989h-1.95c-.018.353-.043.721-.032 1.071.026.588.674 1.056 1.261.882.422-.125.732-.537.74-.978.002-.311-.013-.646-.019-.975zm-4.185-5.989c-1.578-.002-3.156-.008-4.734-.004-.052.005-.104.005-.158.001-.312.001-.624.002-.936.004-1.517.028-2.595 2.147-1.424 3.373.373.389.902.615 1.452.619h2.999c.042.001.083.006.123.014zm8.043-12.032c-2.22-2.085-5.838-2.523-8.471-.928-2.05 1.242-3.366 3.572-3.373 5.977v4.988h5.003c.021.001.042.002.063.002.022.002.043.004.063.007z"/></svg>