<svg clip-rule="evenodd" fill-rule="evenodd" height="512" stroke-linejoin="round" stroke-miterlimit="2" viewBox="0 0 24 24" width="512" xmlns="http://www.w3.org/2000/svg"><g id="Icon"><path d="m12 8.75c-1.794 0-3.25 1.456-3.25 3.25s1.456 3.25 3.25 3.25 3.25-1.456 3.25-3.25-1.456-3.25-3.25-3.25zm0 1.5c.966 0 1.75.784 1.75 1.75s-.784 1.75-1.75 1.75-1.75-.784-1.75-1.75.784-1.75 1.75-1.75z"/><path d="m10.334 9.86c-1.235-.614-2.084-1.889-2.084-3.36 0-2.07 1.68-3.75 3.75-3.75 1.929 0 3.52 1.459 3.727 3.333.046.411.417.708.828.662.411-.045.708-.416.663-.828-.291-2.623-2.517-4.667-5.218-4.667-2.898 0-5.25 2.352-5.25 5.25 0 2.059 1.188 3.844 2.916 4.703.371.184.821.033 1.005-.337.185-.371.034-.822-.337-1.006z"/><path d="m9.207 13.173c-.917.953-2.311 1.392-3.677 1.026-1.999-.536-3.187-2.594-2.651-4.593.506-1.889 2.37-3.054 4.26-2.725.408.071.796-.203.867-.611.071-.407-.202-.796-.61-.867-2.647-.46-5.258 1.17-5.966 3.815-.75 2.799.913 5.68 3.712 6.43 1.912.512 3.862-.102 5.145-1.434.287-.299.278-.774-.02-1.061s-.773-.278-1.06.02z"/><path d="m19.833 15.28c2.195-1.087 3.395-3.606 2.737-6.062-.75-2.799-3.631-4.463-6.43-3.713-1.911.513-3.294 2.019-3.738 3.815-.1.401.146.808.547.908.402.1.809-.146.909-.548.317-1.283 1.305-2.36 2.671-2.726 1.999-.535 4.057.653 4.592 2.652.47 1.754-.386 3.553-1.954 4.33-.371.184-.523.634-.339 1.005s.634.523 1.005.339z"/><path d="m11.804 14.876c.652 1.124.703 2.557.007 3.762-1.035 1.793-3.33 2.408-5.123 1.373-1.659-.958-2.31-2.997-1.575-4.716.162-.381-.015-.822-.396-.985-.38-.162-.821.015-.984.395-1.028 2.408-.118 5.263 2.205 6.605 2.51 1.449 5.723.587 7.172-1.922.974-1.687.904-3.691-.008-5.264-.208-.358-.667-.48-1.025-.273-.358.208-.48.667-.273 1.025z"/><path d="m11.564 20.309c1.626 1.778 4.326 2.255 6.498 1.001 2.509-1.449 3.37-4.663 1.921-7.172-1.118-1.937-3.288-2.892-5.374-2.56-.409.065-.688.45-.623.859.065.408.45.687.858.622 1.491-.237 3.041.445 3.84 1.829 1.035 1.793.42 4.088-1.372 5.123-1.552.895-3.48.556-4.641-.714-.279-.306-.754-.327-1.06-.047-.305.279-.326.754-.047 1.059z"/></g></svg>