<svg clip-rule="evenodd" fill-rule="evenodd" height="512" stroke-linejoin="round" stroke-miterlimit="2" viewBox="0 0 24 24" width="512" xmlns="http://www.w3.org/2000/svg"><g id="Icon"><path d="m11.731 10.375c-1.069-.71-2.352-1.125-3.731-1.125-3.725 0-6.75 3.025-6.75 6.75s3.025 6.75 6.75 6.75 6.75-3.025 6.75-6.75c0-.383-.032-.759-.093-1.124-.069-.409-.456-.684-.864-.616-.409.069-.684.456-.616.864.048.285.073.578.073.876 0 2.898-2.352 5.25-5.25 5.25s-5.25-2.352-5.25-5.25 2.352-5.25 5.25-5.25c1.072 0 2.07.322 2.901.875.344.229.81.135 1.04-.21.229-.344.135-.81-.21-1.04z"/><path d="m12.628 1.349s-2.917 1.666-4.985 2.848c-1.48.846-2.393 2.42-2.393 4.124v1.679c0 .414.336.75.75.75s.75-.336.75-.75c0 0 0-.797 0-1.679 0-1.166.625-2.243 1.638-2.822 2.067-1.181 4.984-2.848 4.984-2.848.36-.205.485-.664.279-1.023-.205-.36-.664-.485-1.023-.279z"/><path d="m21.296 2.741s-1.644 4.462-2.678 7.27c-.462 1.253-1.384 2.284-2.579 2.881 0 0-5.717 2.858-5.717 2.858-.402.202-.889.123-1.207-.196l-.002-.002c-.236-.235-.355-.563-.326-.896.029-.332.204-.634.477-.825l1.46-1.022c1.27-.889 2.026-2.342 2.026-3.892 0-.751 0-1.417 0-1.417 0-.414-.336-.75-.75-.75s-.75.336-.75.75v1.417c0 1.061-.517 2.055-1.386 2.663-.471.329-.983.688-1.46 1.022-.637.445-1.043 1.15-1.111 1.924s.21 1.538.759 2.087c.001.001.002.001.002.002.775.775 1.959.967 2.939.477l5.717-2.859c1.536-.768 2.722-2.092 3.315-3.703 1.035-2.808 2.679-7.271 2.679-7.271.143-.388-.056-.82-.445-.963-.388-.143-.82.056-.963.445z"/></g></svg>