<svg clip-rule="evenodd" fill-rule="evenodd" height="512" stroke-linejoin="round" stroke-miterlimit="2" viewBox="0 0 24 24" width="512" xmlns="http://www.w3.org/2000/svg"><g id="Icon"><path d="m22.73 16.423c-.001-.012-.003-.024-.005-.035 0 0-.931-5.277-1.503-8.521-.316-1.792-1.873-3.099-3.693-3.099h-11.048c-1.818 0-3.375 1.304-3.693 3.094-.576 3.244-1.513 8.525-1.513 8.525-.002.012-.004.024-.006.036-.188 1.475 1.028 2.809 2.645 2.809.795 0 1.545-.335 2.046-.902-.008.009 2.877-2.811 2.877-2.811.015-.014.028-.028.041-.043.251-.288.634-.45 1.035-.45h4.174c.401 0 .783.162 1.033.449.014.016.028.03.042.044l2.886 2.82c.502.562 1.248.893 2.038.893 1.617 0 2.833-1.334 2.644-2.809zm-1.486.205c.068.609-.489 1.104-1.158 1.104-.36 0-.704-.143-.929-.403-.013-.015-.027-.029-.042-.043l-2.885-2.82c-.526-.59-1.311-.94-2.143-.94h-4.174c-.831 0-1.617.35-2.144.94.001-.001-2.885 2.82-2.885 2.82-.015.014-.029.029-.042.044-.225.259-.568.402-.928.402-.665 0-1.219-.49-1.16-1.093.001-.011 1.511-8.514 1.511-8.514.191-1.074 1.125-1.857 2.216-1.857h11.048c1.092 0 2.027.784 2.216 1.859z"/><path d="m8.722 11.67v-3c0-.414-.336-.75-.75-.75s-.75.336-.75.75v3c0 .414.336.75.75.75s.75-.336.75-.75z"/><path d="m6.472 10.92h3c.414 0 .75-.336.75-.75s-.336-.75-.75-.75h-3c-.414 0-.75.336-.75.75s.336.75.75.75z"/><g fill-rule="nonzero"><path d="m18.722 10.67c0 .414-.336.75-.75.75s-.75-.336-.75-.75.336-.75.75-.75.75.336.75.75"/><path d="m15.722 10.67c0 .414-.336.75-.75.75s-.75-.336-.75-.75.336-.75.75-.75.75.336.75.75"/><path d="m16.472 12.92c-.414 0-.75-.336-.75-.75s.336-.75.75-.75.75.336.75.75-.336.75-.75.75"/><path d="m16.472 9.92c-.414 0-.75-.336-.75-.75s.336-.75.75-.75.75.336.75.75-.336.75-.75.75"/></g></g></svg>