<svg clip-rule="evenodd" fill-rule="evenodd" stroke-linejoin="round" stroke-miterlimit="1.414" viewBox="0 0 32 32" xmlns="http://www.w3.org/2000/svg" xmlns:serif="http://www.serif.com/"><path id="ab-type-blood-sharing" d="m0 0h32v32h-32z" fill="none"/><path d="m12.1 3.001c.725.104 1.141.983.699 1.606-.038.054-.076.107-.113.16-2.757 3.938-5.444 7.994-7.057 12.464-.385 1.066-.689 2.168-.603 3.305.264 3.458 3.413 6.45 6.983 6.461 0 0 1.189.341.968 1.239-.27 1.099-2.174.825-3.699.34-4.024-1.281-7.018-5.545-6.114-10.011.529-2.611 1.822-5.038 3.13-7.39 1.472-2.649 3.1-5.211 4.844-7.684 0 0 .425-.515.962-.49zm11.893 25.996c-.511-.011-.971-.458-.987-1v-8c.006-.182.023-.233.057-.33.123-.353.456-.621.832-.664.049-.005.062-.005.111-.006.692 0 1.384-.004 2.075 0 1.775.033 3.279 1.881 2.839 3.686-.123.505-.388.965-.746 1.34.674.75 1.012 1.811.708 2.831-.363 1.221-1.566 2.135-2.872 2.143h-2.004c-.004 0-.008 0-.013 0zm-7.544-2-.506 1.351s-.611.885-1.34.565c-.427-.189-.681-.704-.567-1.16.013-.048.018-.06.034-.107l3-8c.138-.338.44-.589.796-.639.108-.015.134-.01.168-.01.173.01.202.023.277.048.287.092.517.32.632.601l3 8c.074.217.072.298.059.441-.061.679-.957 1.144-1.556.739-.124-.084-.229-.196-.304-.326-.028-.048-.051-.1-.072-.152l-.507-1.351zm9.541-2h-.016-.247c-.24.004-.481.014-.72.021v2.013c.394.014.786.016 1.165-.047.672-.112 1.078-1.037.614-1.613-.181-.225-.462-.364-.753-.373-.012-.001-.024-.001-.036-.001zm-8.791 0h1.614l-.807-2.152zm8.86-1.999c.116-.016.225-.043.326-.087.687-.3.827-1.476.06-1.827-.396-.181-.934-.087-1.438-.087v1.999c.346-.001.692-.001 1.038.001.005 0 .009.001.014.001zm-11.935-16.901c.466.029.783.416 1.045.825 1.808 2.837 3.538 5.723 4.798 8.851.31.771-.054 1.582-.829 1.591-.363.005-.719-.205-.892-.524-.091-.169-.095-.222-.134-.319-1.265-3.125-3.028-6.037-4.861-8.883 0 0-.251-.52-.082-.926.132-.316.436-.554.775-.604.115-.018.143-.011.18-.011z" fill-rule="nonzero"/></svg>