<svg clip-rule="evenodd" fill-rule="evenodd" height="512" stroke-linejoin="round" stroke-miterlimit="2" viewBox="0 0 24 24" width="512" xmlns="http://www.w3.org/2000/svg"><g id="Icon"><path d="m6 15.75c-1.242 0-2.25 1.008-2.25 2.25s1.008 2.25 2.25 2.25 2.25-1.008 2.25-2.25-1.008-2.25-2.25-2.25zm0 1.5c.414 0 .75.336.75.75s-.336.75-.75.75-.75-.336-.75-.75.336-.75.75-.75z"/><path d="m17 15.75c-1.242 0-2.25 1.008-2.25 2.25s1.008 2.25 2.25 2.25 2.25-1.008 2.25-2.25-1.008-2.25-2.25-2.25zm0 1.5c.414 0 .75.336.75.75s-.336.75-.75.75-.75-.336-.75-.75.336-.75.75-.75z"/><path d="m4.5 17.25h-1.5c-.138 0-.25-.112-.25-.25v-2.75h4.25c.414 0 .75-.336.75-.75s-.336-.75-.75-.75h-5c-.414 0-.75.336-.75.75v3.5c0 .967.784 1.75 1.75 1.75h1.5c.414 0 .75-.336.75-.75s-.336-.75-.75-.75z"/><path d="m7.5 18.75h8c.414 0 .75-.336.75-.75s-.336-.75-.75-.75h-8c-.414 0-.75.336-.75.75s.336.75.75.75z"/><path d="m18.5 18.75h2.5c.464 0 .909-.184 1.237-.513.329-.328.513-.773.513-1.237 0-1.722 0-5.16 0-6.197 0-.346-.102-.683-.294-.971-.488-.733-1.913-2.869-2.535-3.803-.325-.487-.871-.779-1.456-.779h-3.465c-.414 0-.75.336-.75.75s.336.75.75.75h3.465c.083 0 .161.042.208.111l2.535 3.803c.027.041.042.089.042.139v6.197c0 .066-.026.13-.073.177s-.111.073-.177.073h-2.5c-.414 0-.75.336-.75.75s.336.75.75.75z"/><path d="m1.25 12v1.5c0 .414.336.75.75.75h13c.414 0 .75-.336.75-.75v-9c0-.414-.336-.75-.75-.75h-4c-.414 0-.75.336-.75.75s.336.75.75.75h3.25v7.5h-11.5v-.75c0-.414-.336-.75-.75-.75s-.75.336-.75.75z"/><path d="m8.5 3.75h-6.5c-.414 0-.75.336-.75.75s.336.75.75.75h6.5c.414 0 .75-.336.75-.75s-.336-.75-.75-.75z"/><path d="m6.5 6.25h-4.5c-.414 0-.75.336-.75.75s.336.75.75.75h4.5c.414 0 .75-.336.75-.75s-.336-.75-.75-.75z"/><path d="m4.5 8.75h-2.5c-.414 0-.75.336-.75.75s.336.75.75.75h2.5c.414 0 .75-.336.75-.75s-.336-.75-.75-.75z"/><path d="m20.5 7.75h-2.5c-.414 0-.75.336-.75.75v4c0 .414.336.75.75.75h4c.414 0 .75-.336.75-.75s-.336-.75-.75-.75h-3.25v-2.5h1.75c.414 0 .75-.336.75-.75s-.336-.75-.75-.75z"/></g></svg>