<svg clip-rule="evenodd" fill-rule="evenodd" height="512" stroke-linejoin="round" stroke-miterlimit="2" viewBox="0 0 24 24" width="512" xmlns="http://www.w3.org/2000/svg"><g id="Icon"><path d="m13.809 6.164c.045-.341-.148-.67-.468-.796-.32-.127-.686-.019-.886.261l-4.565 6.392c-.164.228-.185.529-.057.779.129.25.386.407.667.407h2.51s-.516 4.645-.516 4.645c-.039.352.173.684.51.795.336.111.704-.028.883-.334l4.261-7.305c.135-.232.136-.518.002-.751-.133-.233-.381-.377-.65-.377h-2.187s.496-3.716.496-3.716zm-1.886 2.79-.21 1.577c-.028.215.037.431.179.593.143.163.348.256.565.256h1.737s-1.818 3.118-1.818 3.118.217-1.959.217-1.959c.024-.212-.044-.424-.186-.583-.143-.159-.346-.249-.559-.249h-1.891z"/><path d="m12 1.25c-5.933 0-10.75 4.817-10.75 10.75s4.817 10.75 10.75 10.75 10.75-4.817 10.75-10.75-4.817-10.75-10.75-10.75zm0 1.5c5.105 0 9.25 4.145 9.25 9.25s-4.145 9.25-9.25 9.25-9.25-4.145-9.25-9.25 4.145-9.25 9.25-9.25z"/></g></svg>