<svg clip-rule="evenodd" fill-rule="evenodd" height="512" stroke-linejoin="round" stroke-miterlimit="2" viewBox="0 0 24 24" width="512" xmlns="http://www.w3.org/2000/svg"><g id="Icon"><path d="m2 12.75h2c.414 0 .75-.336.75-.75s-.336-.75-.75-.75h-2c-.414 0-.75.336-.75.75s.336.75.75.75z"/><path d="m22 11.25h-2c-.414 0-.75.336-.75.75s.336.75.75.75h2c.414 0 .75-.336.75-.75s-.336-.75-.75-.75z"/><path d="m18.541 4.399-1.414 1.414c-.293.293-.293.768 0 1.06.292.293.767.293 1.06 0l1.414-1.414c.293-.292.293-.768 0-1.06-.292-.293-.768-.293-1.06 0z"/><path d="m11.25 2v2c0 .414.336.75.75.75s.75-.336.75-.75v-2c0-.414-.336-.75-.75-.75s-.75.336-.75.75z"/><path d="m4.399 5.459 1.414 1.414c.293.293.768.293 1.06 0 .293-.292.293-.767 0-1.06l-1.414-1.414c-.292-.293-.768-.293-1.06 0-.293.292-.293.768 0 1.06z"/><path d="m8.25 18.787v.213c0 .69.56 1.25 1.25 1.25h5c.69 0 1.25-.56 1.25-1.25 0-.042-.001-.088.004-.135.002-.026.004-.052.004-.078 0-1 .353-1.969.998-2.734.931-1.091 1.494-2.507 1.494-4.053 0-3.449-2.801-6.25-6.25-6.25s-6.25 2.801-6.25 6.25c0 1.547.563 2.963 1.501 4.05.645.766.999 1.736.999 2.737zm6.008-.037h-4.508c-.009-1.343-.488-2.641-1.354-3.668-.002-.003-.004-.005-.006-.007-.713-.825-1.14-1.901-1.14-3.075 0-2.622 2.128-4.75 4.75-4.75s4.75 2.128 4.75 4.75c0 1.176-.428 2.253-1.137 3.083-.001.001-.003.002-.004.003-.864 1.026-1.342 2.323-1.351 3.664z"/><path d="m15.25 19.5c0-.414-.336-.75-.75-.75h-5c-.414 0-.75.336-.75.75v1.5c0 .464.184.909.513 1.237.328.329.773.513 1.237.513h3c.464 0 .909-.184 1.237-.513.329-.328.513-.773.513-1.237 0-.5 0-1.5 0-1.5zm-1.5.75v.75c0 .066-.026.13-.073.177s-.111.073-.177.073h-3c-.066 0-.13-.026-.177-.073s-.073-.111-.073-.177v-.75z"/><path d="m12 9.75c1.242 0 2.25 1.008 2.25 2.25 0 .414.336.75.75.75s.75-.336.75-.75c0-2.07-1.68-3.75-3.75-3.75-.414 0-.75.336-.75.75s.336.75.75.75z"/></g></svg>