<svg clip-rule="evenodd" fill-rule="evenodd" height="512" stroke-linejoin="round" stroke-miterlimit="2" viewBox="0 0 24 24" width="512" xmlns="http://www.w3.org/2000/svg"><g id="Icon"><path d="m12.247 22.002v-3.042c0-.414-.336-.75-.75-.75s-.75.336-.75.75v3.042c0 .414.336.75.75.75s.75-.336.75-.75z"/><path d="m15.288 22.002v-2.028c0-.414-.336-.75-.75-.75-.413 0-.75.336-.75.75v2.028c0 .414.337.75.75.75.414 0 .75-.336.75-.75z"/><path d="m9.205 22.002v-2.028c0-.414-.336-.75-.75-.75s-.75.336-.75.75v2.028c0 .414.336.75.75.75s.75-.336.75-.75z"/><path d="m18.33 22.002v-1.352c0-.414-.336-.75-.75-.75s-.75.336-.75.75v1.352c0 .414.336.75.75.75s.75-.336.75-.75z"/><path d="m6.163 22.002v-1.352c0-.414-.336-.75-.75-.75s-.75.336-.75.75v1.352c0 .414.336.75.75.75s.75-.336.75-.75z"/><path d="m14.744 12.732c.12-.68-.334-1.328-1.014-1.448l-9.5-1.675c-.68-.12-1.328.334-1.448 1.014l-.097.547c-.359 2.04 1.003 3.985 3.042 4.345l4.576.806c2.04.36 3.985-1.002 4.344-3.041zm-10.528-1.602 9.007 1.588-.053.301c-.216 1.224-1.383 2.041-2.606 1.825 0 0-4.576-.807-4.576-.807-1.224-.216-2.041-1.382-1.826-2.606z"/><path d="m12.963 12.672 7.529 1.328c.408.071.797-.201.869-.609.072-.407-.201-.797-.609-.869l-7.528-1.327c-.408-.072-.797.201-.869.608-.072.408.201.797.608.869z"/><circle cx="8.986" cy="6.357" r="1.014"/><circle cx="12.014" cy="4.329" r="1.014"/><path d="m10.777 8.472c-.034-.128-.016-.264.05-.379s.176-.199.304-.233c.302-.081.69-.185.993-.266.128-.035.264-.017.379.05.115.066.199.175.233.303.081.303.185.691.266.993.034.128.016.265-.05.38-.066.114-.175.198-.304.233-.302.081-.69.185-.992.266-.128.034-.265.016-.38-.05-.115-.067-.198-.176-.233-.304-.081-.302-.185-.69-.266-.993z"/><path d="m9.176 2.895c.034-.128.016-.264-.05-.379-.067-.115-.176-.199-.304-.233-.302-.081-.69-.185-.993-.266-.128-.034-.264-.016-.379.05s-.199.176-.233.304c-.081.302-.185.69-.266.992-.034.129-.017.265.05.38.066.115.175.199.303.233.303.081.691.185.993.266.128.034.265.016.38-.05s.198-.176.233-.304c.081-.302.185-.69.266-.993z"/><path d="m5.983 7.137c.034-.129.016-.265-.05-.38s-.176-.199-.304-.233c-.302-.081-.69-.185-.992-.266-.129-.034-.265-.016-.38.05s-.199.176-.233.304c-.081.302-.185.69-.266.993-.034.128-.016.264.05.379s.176.199.304.233c.302.081.69.185.993.266.128.034.264.016.379-.05s.199-.176.233-.304c.081-.302.185-.69.266-.992z"/></g></svg>