<?xml version="1.0"?>
<svg xmlns="http://www.w3.org/2000/svg" viewBox="0 0 32 32" width="512" height="512"><g id="mattress_hospital_patient_injury" data-name="mattress, hospital, patient, injury"><path d="M26,9H12.4141l-.5352-.5352A4.9685,4.9685,0,0,0,8.3428,7H7a4,4,0,0,0,0,8h4.6719l2.6364,1.9336-.9.66a1,1,0,0,0,1.1836,1.6132L16,18.1743l1.4082,1.0327a1,1,0,0,0,1.1836-1.6132l-.9-.66L20.3281,15H26a3,3,0,0,0,0-6ZM16,15.6929,15.0552,15h1.89ZM26.707,12.707A1.0064,1.0064,0,0,1,26,13H7A2,2,0,0,1,7,9H8.3428a2.982,2.982,0,0,1,2.122.8789l.8282.8281A.9993.9993,0,0,0,12,11H26a1,1,0,0,1,.707,1.707Z"/><path d="M10,19a3,3,0,1,0,3,3A3.0033,3.0033,0,0,0,10,19Zm0,4a1,1,0,1,1,1-1A1.0006,1.0006,0,0,1,10,23Z"/><path d="M22,19a3,3,0,1,0,3,3A3.0033,3.0033,0,0,0,22,19Zm0,4a1,1,0,1,1,1-1A1.0006,1.0006,0,0,1,22,23Z"/></g></svg>
