<svg clip-rule="evenodd" fill-rule="evenodd" height="512" stroke-linejoin="round" stroke-miterlimit="2" viewBox="0 0 24 24" width="512" xmlns="http://www.w3.org/2000/svg"><g id="Icon"><path d="m7.973 7.251c.009.016.027.055.027.083 0 .027-.018.066-.027.083h-1.723c-.414 0-.75.336-.75.75s.336.75.75.75h1.75c.805 0 1.5-.688 1.5-1.583s-.695-1.583-1.5-1.583h-.973c-.008-.017-.027-.056-.027-.084s.018-.067.027-.083h1.723c.414 0 .75-.336.75-.75s-.336-.75-.75-.75h-1.75c-.805 0-1.5.688-1.5 1.583 0 .894.695 1.584 1.5 1.584z"/><path d="m6.75 4v.833c0 .414.336.75.75.75s.75-.336.75-.75v-.833c0-.414-.336-.75-.75-.75s-.75.336-.75.75z"/><path d="m6.75 8.167v.833c0 .414.336.75.75.75s.75-.336.75-.75v-.833c0-.414-.336-.75-.75-.75s-.75.336-.75.75z"/><path d="m13 22.75c.968 0 1.75-.784 1.75-1.75v-7c0-.966-.782-1.75-1.75-1.75h-2c-.968 0-1.75.784-1.75 1.75v7c0 .966.782 1.75 1.75 1.75zm0-1.5h-2c-.138 0-.25-.112-.25-.25v-7c0-.138.112-.25.25-.25h2c.138 0 .25.112.25.25v7c0 .138-.112.25-.25.25z"/><path d="m20 22.75c.968 0 1.75-.784 1.75-1.75v-11c0-.966-.782-1.75-1.75-1.75h-2c-.968 0-1.75.784-1.75 1.75v11c0 .966.782 1.75 1.75 1.75zm0-1.5h-2c-.138 0-.25-.112-.25-.25v-11c0-.138.112-.25.25-.25h2c.138 0 .25.112.25.25v11c0 .138-.112.25-.25.25z"/><path d="m6 22.75c.968 0 1.75-.784 1.75-1.75v-4c0-.966-.782-1.75-1.75-1.75h-2c-.968 0-1.75.784-1.75 1.75v4c0 .966.782 1.75 1.75 1.75zm0-1.5h-2c-.138 0-.25-.112-.25-.25v-4c0-.138.112-.25.25-.25h2c.138 0 .25.112.25.25v4c0 .138-.112.25-.25.25z"/><path d="m12.75 6.5c0-2.897-2.352-5.25-5.25-5.25s-5.25 2.353-5.25 5.25c0 2.898 2.352 5.25 5.25 5.25s5.25-2.352 5.25-5.25zm-1.5 0c0 2.07-1.68 3.75-3.75 3.75s-3.75-1.68-3.75-3.75 1.68-3.75 3.75-3.75 3.75 1.68 3.75 3.75z"/></g></svg>