<svg clip-rule="evenodd" fill-rule="evenodd" height="512" stroke-linejoin="round" stroke-miterlimit="2" viewBox="0 0 24 24" width="512" xmlns="http://www.w3.org/2000/svg"><g id="Icon"><path d="m17 22.75c.968 0 1.75-.784 1.75-1.75v-10c0-.966-.782-1.75-1.75-1.75h-5c-.968 0-1.75.784-1.75 1.75v10c0 .966.782 1.75 1.75 1.75zm0-1.5h-5c-.138 0-.25-.112-.25-.25v-10c0-.138.112-.25.25-.25h5c.138 0 .25.112.25.25v10c0 .138-.112.25-.25.25z"/><path d="m14 13.75h1c.414 0 .75-.336.75-.75s-.336-.75-.75-.75h-1c-.414 0-.75.336-.75.75s.336.75.75.75z"/><path d="m14 16.75h1c.414 0 .75-.336.75-.75s-.336-.75-.75-.75h-1c-.414 0-.75.336-.75.75s.336.75.75.75z"/><path d="m14 19.75h1c.414 0 .75-.336.75-.75s-.336-.75-.75-.75h-1c-.414 0-.75.336-.75.75s.336.75.75.75z"/><path d="m6.291 7.254c-2.808.109-5.041 2.411-5.041 5.246 0 2.905 2.345 5.25 5.25 5.25h1.5c.414 0 .75-.336.75-.75s-.336-.75-.75-.75h-1.5c-2.075 0-3.75-1.675-3.75-3.75s1.675-3.75 3.75-3.75h.5c.414 0 .75-.336.75-.75 0-2.896 2.354-5.25 5.25-5.25s5.25 2.354 5.25 5.25c0 .09-.01.18-.01.27 0 .318.2.601.5.707 1.458.517 2.51 1.89 2.51 3.523 0 .89-.307 1.705-.83 2.345-.263.32-.215.793.105 1.055.32.263.793.215 1.055-.105.737-.9 1.17-2.045 1.17-3.295 0-2.093-1.23-3.885-3.004-4.728-.12-3.619-3.099-6.522-6.746-6.522-3.472 0-6.337 2.63-6.709 6.004z"/></g></svg>