<svg clip-rule="evenodd" fill-rule="evenodd" stroke-linejoin="round" stroke-miterlimit="1.414" viewBox="0 0 32 32" xmlns="http://www.w3.org/2000/svg" xmlns:serif="http://www.serif.com/"><path id="zoom-in-magnifying-glass" d="m0 0h32v32h-32z" fill="none"/><path d="m17.636 18.92c-.057.046-.115.091-.174.136-2.292 1.738-5.434 2.284-8.178 1.416-2.98-.942-5.376-3.545-6.072-6.604-.821-3.603.792-7.616 4.008-9.636.512-.322 1.231-.407 1.603.129.348.501.086 1.185-.501 1.546-2.615 1.632-3.939 5.08-3.013 8.048.97 3.108 4.305 5.358 7.704 4.863 2.551-.372 4.83-2.242 5.654-4.739 1.157-3.505-.886-7.762-4.583-8.905-.156-.048-.339-.099-.339-.099-.065-.027-.082-.031-.143-.065-.709-.388-.62-1.748.353-1.873.15-.019.187-.006.236-.002.292.043.581.149.867.252 3.333 1.194 5.797 4.521 5.961 8.072.1 2.165-.636 4.341-1.973 6.037l1.459 1.458c.389-.186.818-.291 1.254-.299h.072c.767.013 1.509.321 2.061.852 1.433 1.416 2.849 2.849 4.273 4.273 1.132 1.146 1.123 3.21-.085 4.33-1.111 1.029-3.023 1.023-4.141-.053-1.433-1.416-2.849-2.849-4.273-4.273-.869-.88-1.1-2.304-.583-3.417zm4.147 1.739c-.77.014-1.316 1.068-.707 1.7 1.412 1.43 2.832 2.851 4.262 4.263.511.492 1.544.238 1.685-.538.057-.313-.044-.647-.268-.879-1.412-1.43-2.832-2.851-4.262-4.263-.189-.182-.447-.285-.71-.283zm-10.777-9.787v-3.006c.005-.183.022-.233.056-.331.124-.353.458-.622.834-.665.108-.012.133-.005.168-.004.182.015.232.035.327.074.329.137.573.458.613.814.005.05.005.062.006.112v3.006h3.006c.019.001.038.001.056.002.745.063 1.244 1.05.691 1.668-.162.182-.393.301-.635.328-.049.006-.062.005-.112.007h-3.006v3.006c-.021.764-1.039 1.311-1.67.747-.182-.163-.301-.393-.328-.635-.005-.05-.005-.062-.006-.112v-3.006h-3.006c-.768-.022-1.315-1.035-.748-1.67.163-.182.393-.301.635-.328.05-.006.063-.005.113-.007z" fill-rule="nonzero"/></svg>