<svg clip-rule="evenodd" fill-rule="evenodd" height="512" stroke-linejoin="round" stroke-miterlimit="2" viewBox="0 0 24 24" width="512" xmlns="http://www.w3.org/2000/svg"><g id="Icon"><path d="m22.75 4.5c0-.729-.29-1.429-.805-1.945-.516-.515-1.216-.805-1.945-.805-3.271 0-12.729 0-16 0-.729 0-1.429.29-1.945.805-.515.516-.805 1.216-.805 1.945v11c0 .729.29 1.429.805 1.945.516.515 1.216.805 1.945.805h4.625s2.775 3.7 2.775 3.7c.142.189.364.3.6.3s.458-.111.6-.3l2.775-3.7h4.625c.729 0 1.429-.29 1.945-.805.515-.516.805-1.216.805-1.945 0-2.444 0-8.556 0-11zm-1.5 0v11c0 .332-.132.649-.366.884-.235.234-.552.366-.884.366h-5c-.236 0-.458.111-.6.3l-2.4 3.2s-2.4-3.2-2.4-3.2c-.142-.189-.364-.3-.6-.3h-5c-.332 0-.649-.132-.884-.366-.234-.235-.366-.552-.366-.884 0-2.444 0-8.556 0-11 0-.332.132-.649.366-.884.235-.234.552-.366.884-.366h16c.332 0 .649.132.884.366.234.235.366.552.366.884z"/><path d="m10.25 5.75c-1.38 0-2.5 1.12-2.5 2.5s1.12 2.5 2.5 2.5 2.5-1.12 2.5-2.5-1.12-2.5-2.5-2.5zm0 1.5c.552 0 1 .448 1 1s-.448 1-1 1-1-.448-1-1 .448-1 1-1z"/><path d="m10.25 9.25c-2.112 0-3.867 1.545-4.21 3.564-.002.012-.004.024-.005.036-.043.355.068.712.306.98s.579.421.937.42c1.3 0 4.652 0 5.953-.014.346 0 .683-.152.917-.416.235-.265.345-.617.302-.968-.001-.01-.002-.02-.004-.029-.325-2.024-2.081-3.573-4.196-3.573zm2.643 3.489c-1.347.01-3.959.011-5.301.011.337-1.153 1.399-2 2.658-2 1.254 0 2.313.841 2.643 1.989z"/><path d="m16.5 10.207v3.293c0 .414.336.75.75.75s.75-.336.75-.75v-5c0-.303-.183-.577-.463-.693s-.603-.052-.817.163l-1 1c-.293.292-.293.768 0 1.06.211.211.516.27.78.177z"/></g></svg>