<svg clip-rule="evenodd" fill-rule="evenodd" stroke-linejoin="round" stroke-miterlimit="1.414" viewBox="0 0 32 32" xmlns="http://www.w3.org/2000/svg" xmlns:serif="http://www.serif.com/"><path id="mailbox-envelope-communication-mail" d="m0 0h32v32h-32z" fill="none"/><path d="m13.066 13.999v-7.002c.007-.21.025-.244.058-.335.121-.342.442-.606.806-.656.06-.008.075-.007.136-.009h8.002c.023.001.046.002.068.002.221.023.279.052.39.109.419.215.645.754.489 1.212-.019.057-.027.07-.052.125l-2 4.001c-.18.33-.517.54-.895.553h-5.002v7.002s-.115.747-.665.942c-.557.198-1.245-.216-1.326-.806-.008-.06-.007-.075-.009-.136v-3.003c-.338 0-.675 0-1.013.002-.52.01-.984.458-.988 1.003v6.999h16.005c0-2.338.014-4.676 0-7.014-.01-.521-.458-.985-1.003-.988h-8c-.781-.032-1.301-1.063-.736-1.678.15-.162.354-.273.572-.309.072-.012.091-.011.164-.014h8.006c.036.001.035.001.071.001 1.544.048 2.917 1.39 2.927 2.997v8.006c-.022.533-.461.978-1.001 1h-18.005-6.002c-.645-.016-1.17-.735-.935-1.355.143-.377.532-.636.935-.646h5.002v-7.005c.009-1.564 1.363-2.987 2.997-2.998zm7.384-6.001h-5.384v2h4.384z" fill-rule="nonzero"/></svg>