<?xml version="1.0"?>
<svg xmlns="http://www.w3.org/2000/svg" viewBox="0 0 32 32" width="512" height="512"><g id="medal_achievement_winner" data-name="medal, achievement, winner"><path d="M28.8545,3.4805A.9992.9992,0,0,0,28,3H22a1,1,0,0,0-.8945.5527l-5.74,11.4794a6.9614,6.9614,0,0,0-3.739,1.5109L5.6445,5H9.3818l3.7237,7.4473a1,1,0,0,0,1.789-.8946l-4-8A1,1,0,0,0,10,3H4a1,1,0,0,0-.8877,1.46l7.0734,13.6478a6.9995,6.9995,0,1,0,7.3455-2.9338L22.6182,5h3.7373L21.7,13.9834a1,1,0,1,0,1.7754.92L28.8877,4.46A1.0006,1.0006,0,0,0,28.8545,3.4805ZM21,22a5,5,0,1,1-5-5A5.0059,5.0059,0,0,1,21,22Z"/></g></svg>
