<svg clip-rule="evenodd" fill-rule="evenodd" height="512" stroke-linejoin="round" stroke-miterlimit="2" viewBox="0 0 24 24" width="512" xmlns="http://www.w3.org/2000/svg"><g id="Icon"><path d="m1.948 7.416c.885.518 2.142 1.543 2.457 3.658.221 1.484 1.107 2.642 2.112 3.484 1.424 1.193 3.065 1.736 3.065 1.736.076.025.156.038.236.038h5.191c.155 0 .307-.048.434-.138 3.044-2.161 4.145-4.244 4.393-5.958.262-1.808-.418-3.263-.999-4.126-.002-.002-.003-.004-.004-.006-.535-.776-1.59-.982-2.377-.47-2.296 1.309-6.559 2.015-9.324.094-2.426-1.685-4.184-1.226-5.199-.723-.039.02-.076.042-.112.068-.381.281-.595.735-.569 1.208.027.473.29.901.7 1.137zm.934-1.188c.743-.271 1.879-.321 3.394.732 3.248 2.256 8.26 1.505 10.948-.037.016-.009.031-.019.047-.029.105-.072.248-.046.322.056.436.647.953 1.727.759 3.071-.203 1.405-1.167 3.046-3.584 4.811-.001 0-4.82 0-4.82 0-.35-.131-1.471-.589-2.468-1.424-.742-.622-1.428-1.458-1.591-2.555-.388-2.598-1.876-3.923-3.007-4.625z"/><path d="m15.679 15.247c-.127-.254-.386-.415-.67-.415h-5.191c-.284 0-.544.161-.671.415l-1.557 3.114c-.116.233-.104.509.033.73s.378.355.638.355h8.305c.26 0 .501-.134.638-.355.136-.221.149-.497.032-.73zm-1.134 1.085.807 1.614h-5.878c.001 0 .808-1.614.808-1.614z"/><path d="m18.123 17.946h-11.419c-.414 0-.75.337-.75.75 0 .414.336.75.75.75h11.419c.414 0 .75-.336.75-.75 0-.413-.336-.75-.75-.75z"/><path d="m18.939 8.14h1.025c.345 0 .676.137.92.381.243.244.38.575.38.92v1.295c0 .493-.278.943-.718 1.163-1.18.59-3.882 1.439-3.882 1.439-.395.125-.615.546-.49.941s.546.614.941.49c0 0 2.854-.905 4.102-1.528.948-.475 1.547-1.444 1.547-2.505v-1.295c0-.743-.295-1.455-.82-1.98-.525-.526-1.237-.821-1.98-.821h-1.025c-.414 0-.75.337-.75.75 0 .414.336.75.75.75z"/></g></svg>