<svg clip-rule="evenodd" fill-rule="evenodd" height="512" stroke-linejoin="round" stroke-miterlimit="2" viewBox="0 0 24 24" width="512" xmlns="http://www.w3.org/2000/svg"><g id="Icon"><path d="m22.75 5c0-2.07-1.68-3.75-3.75-3.75s-3.75 1.68-3.75 3.75 1.68 3.75 3.75 3.75 3.75-1.68 3.75-3.75zm-1.5 0c0 1.242-1.008 2.25-2.25 2.25s-2.25-1.008-2.25-2.25 1.008-2.25 2.25-2.25 2.25 1.008 2.25 2.25z"/><path d="m2.699 7.388s1.898-4.638 9.301-4.638c.414 0 .75-.336.75-.75s-.336-.75-.75-.75c-8.598 0-10.699 5.592-10.699 5.592-.15.386.04.821.426.972.385.15.821-.04.972-.426z"/><path d="m4.623 9.802s2.317-3.406 7.377-3.406c.414 0 .75-.336.75-.75s-.336-.75-.75-.75c-5.94 0-8.623 4.072-8.623 4.072-.231.345-.138.811.206 1.041s.81.137 1.04-.207z"/><path d="m17.348 7.629-6 10.545c-.205.36-.079.818.281 1.023s.818.079 1.023-.281l6-10.545c.205-.36.079-.818-.281-1.023s-.818-.079-1.023.281z"/><path d="m14.872 13.941c1.326.305 2.46.822 3.258 1.489.687.574 1.12 1.252 1.12 2 0 .795-.489 1.509-1.254 2.106-1.35 1.052-3.536 1.714-5.996 1.714s-4.646-.662-5.996-1.714c-.765-.597-1.254-1.311-1.254-2.106 0-.662.342-1.269.895-1.798.981-.938 2.598-1.615 4.502-1.89.41-.059.694-.439.635-.849s-.439-.694-.849-.635c-2.26.325-4.159 1.176-5.324 2.29-.878.839-1.359 1.832-1.359 2.882 0 1.221.656 2.372 1.832 3.289 1.561 1.217 4.074 2.031 6.918 2.031s5.357-.814 6.918-2.031c1.176-.917 1.832-2.068 1.832-3.289 0-.944-.388-1.842-1.105-2.624-.954-1.042-2.521-1.886-4.437-2.327-.403-.093-.806.159-.899.563-.093.403.159.806.563.899z"/></g></svg>