<svg clip-rule="evenodd" fill-rule="evenodd" height="512" stroke-linejoin="round" stroke-miterlimit="2" viewBox="0 0 24 24" width="512" xmlns="http://www.w3.org/2000/svg"><g id="Icon"><path d="m9.975 6.848c.137-.3.326-.574.559-.807l1.865-1.865c.684-.683 1.792-.683 2.475 0l4.95 4.95c.683.683.683 1.791 0 2.475l-1.865 1.865c-.233.233-.507.422-.807.559l-3.229 1.467c-.136.062-.26.148-.366.254l-6.108 6.108c-.515.516-1.215.805-1.944.805-.73 0-1.429-.289-1.945-.805l-1.414-1.414c-.516-.516-.805-1.215-.805-1.945 0-.729.289-1.429.805-1.944l6.108-6.108c.106-.106.192-.23.254-.366zm1.366.62-1.468 3.229c-.136.3-.326.574-.559.807l-6.107 6.107c-.235.235-.366.553-.366.884 0 .332.131.65.366.884l1.414 1.414c.234.235.552.366.884.366.331 0 .649-.131.884-.366l6.107-6.107c.233-.233.507-.423.807-.559l3.229-1.468c.136-.062.26-.148.366-.254l1.865-1.865c.098-.097.098-.256 0-.353l-4.95-4.95c-.097-.098-.256-.098-.353 0l-1.865 1.865c-.106.106-.192.23-.254.366z"/><path d="m10.631 7.712c-.292-.293-.292-.768 0-1.061.293-.293.768-.293 1.061 0l5.657 5.657c.293.293.293.768 0 1.061-.293.292-.768.292-1.061 0z"/><path d="m8.51 11.247c-.293-.292-.293-.768 0-1.06.293-.293.768-.293 1.061 0l4.242 4.242c.293.293.293.768 0 1.061-.292.293-.768.293-1.06 0z"/><path d="m9.747 15.313c.293.293.293.768 0 1.061-.292.293-.768.293-1.06 0l-1.061-1.061c-.293-.292-.293-.768 0-1.06.293-.293.768-.293 1.061 0z"/><path d="m7.626 17.435c.293.292.293.768 0 1.06-.293.293-.768.293-1.061 0l-1.06-1.06c-.293-.293-.293-.768 0-1.061.292-.293.768-.293 1.06 0z"/><path d="m19.47 5.591c-.293.292-.768.292-1.061 0-.292-.293-.292-.768 0-1.061l1.415-1.414c.292-.293.768-.293 1.06 0 .293.292.293.768 0 1.06z"/><path d="m20.484 8.627c-.407.072-.797-.201-.869-.608-.071-.408.201-.797.609-.869l1.969-.347c.408-.072.797.2.869.608s-.2.797-.608.869z"/><path d="m16.85 3.776c-.072.408-.461.68-.869.609-.407-.072-.68-.462-.608-.869l.347-1.97c.072-.408.461-.68.869-.608s.68.461.608.869z"/></g></svg>