<svg clip-rule="evenodd" fill-rule="evenodd" height="512" stroke-linejoin="round" stroke-miterlimit="2" viewBox="0 0 24 24" width="512" xmlns="http://www.w3.org/2000/svg"><g id="Icon"><path d="m16.232 17.293c-.292-.293-.292-.768 0-1.061.293-.292.768-.292 1.061 0l2.475 2.475c.292.293.292.768 0 1.061-.293.292-.768.292-1.061 0z"/><path d="m17.293 19.768c-.293.292-.768.292-1.061 0-.292-.293-.292-.768 0-1.061l2.475-2.475c.293-.292.768-.292 1.061 0 .292.293.292.768 0 1.061z"/><path d="m18 13.25c2.622 0 4.75 2.128 4.75 4.75s-2.128 4.75-4.75 4.75-4.75-2.128-4.75-4.75 2.128-4.75 4.75-4.75zm0 1.5c-1.794 0-3.25 1.456-3.25 3.25s1.456 3.25 3.25 3.25 3.25-1.456 3.25-3.25-1.456-3.25-3.25-3.25z"/><path d="m6.318 2.75h-2.636l-.935 9.821c-.04.412-.406.715-.818.676-.412-.04-.715-.406-.676-.818l.957-10.048c.061-.641.6-1.131 1.245-1.131h3.09c.645 0 1.184.49 1.245 1.131l.623 6.548c.04.412-.263.778-.675.818-.412.039-.779-.264-.818-.676z"/><path d="m11.25 16v3c0 .414-.336.75-.75.75h-5c-.414 0-.75-.336-.75-.75v-3c0-.414.336-.75.75-.75h5c.414 0 .75.336.75.75zm-1.5.75h-3.5v1.5h3.5z"/><path d="m22.75 12c0 .414-.336.75-.75.75s-.75-.336-.75-.75v-2.158l-5.357 3.297c-.231.142-.522.148-.759.016-.237-.133-.384-.383-.384-.655v-2.708l-5.878 3.359c-.232.133-.517.132-.748-.002-.232-.135-.374-.382-.374-.649v-2.658l-5 3.077v8.081c0 .138.112.25.25.25h9c.414 0 .75.336.75.75s-.336.75-.75.75h-9c-.967 0-1.75-.784-1.75-1.75v-8.5c0-.26.135-.502.357-.639l6.5-4c.231-.142.522-.148.759-.016.237.133.384.383.384.655v2.708l5.878-3.359c.232-.133.517-.132.748.002.232.135.374.382.374.649v2.658l5.357-3.297c.231-.142.522-.148.759-.016.237.133.384.383.384.655z"/></g></svg>