<svg clip-rule="evenodd" fill-rule="evenodd" height="512" stroke-linejoin="round" stroke-miterlimit="2" viewBox="0 0 24 24" width="512" xmlns="http://www.w3.org/2000/svg"><g id="Icon"><path d="m14.485 7.961 3.175-3.176c.809-.809.809-2.12 0-2.928-.808-.809-2.119-.809-2.928 0l-4.137 4.136v-1.186c0-1.143-.927-2.07-2.071-2.07-1.114 0-2.023.88-2.069 1.983.001-.005-1.571 7.017-1.571 7.017-.135.601-.437 1.152-.873 1.588 0 0-.754.753-.754.753-1.073 1.074-1.073 2.815 0 3.889l3.149 3.149c1.074 1.074 2.816 1.074 3.889 0 .215-.214.431-.431.632-.632.497-.497 1.142-.819 1.839-.919 0 0 .305-.043.305-.043.803-.115 1.547-.487 2.121-1.061 1.436-1.436 4.716-4.715 6.578-6.578.809-.809.809-2.12 0-2.928-.809-.809-2.12-.809-2.929 0l-3.175 3.175c-.293.293-.293.768 0 1.061.293.292.768.292 1.061 0l3.175-3.176c.223-.223.584-.223.807 0s.223.585 0 .808c0 0-6.578 6.577-6.578 6.577-.344.345-.79.568-1.272.637l-.306.043c-1.017.146-1.96.617-2.687 1.344l-.631.631c-.488.489-1.28.489-1.768 0 0 0-3.149-3.148-3.149-3.148-.488-.489-.488-1.28 0-1.768l.753-.753c.637-.637 1.08-1.442 1.277-2.322.505-2.256 1.588-7.093 1.588-7.093.012-.054.018-.109.018-.164 0-.315.255-.57.57-.57.316 0 .571.255.571.57v2.997c0 .303.183.577.463.693s.603.052.818-.163l5.417-5.417c.223-.223.584-.223.807 0s.223.584 0 .807c0 0-3.176 3.176-3.176 3.176-.292.293-.292.768 0 1.061.293.292.768.292 1.061 0z"/><path d="m18.221 11.696 3.175-3.175c.809-.809.809-2.12 0-2.929-.808-.808-2.12-.808-2.928 0l-3.176 3.176c-.292.293-.292.768 0 1.06.293.293.768.293 1.061 0l3.175-3.175c.223-.223.585-.223.808 0s.223.584 0 .807c0 0-3.176 3.176-3.176 3.176-.293.292-.293.768 0 1.06.293.293.768.293 1.061 0z"/><path d="m17.1 9.081 3.176-3.175c.808-.809.808-2.12 0-2.929-.809-.808-2.12-.808-2.929 0l-3.175 3.176c-.293.292-.293.768 0 1.06.292.293.767.293 1.06 0l3.176-3.175c.223-.223.584-.223.807 0s.223.584 0 .807c0 0-3.176 3.176-3.176 3.176-.292.292-.292.768 0 1.06.293.293.768.293 1.061 0z"/></g></svg>