<svg clip-rule="evenodd" fill-rule="evenodd" height="512" stroke-linejoin="round" stroke-miterlimit="2" viewBox="0 0 24 24" width="512" xmlns="http://www.w3.org/2000/svg"><g id="Icon"><path d="m22.75 8c0-.729-.29-1.429-.805-1.945-.516-.515-1.216-.805-1.945-.805-3.832 0-12.168 0-16 0-.729 0-1.429.29-1.945.805-.515.516-.805 1.216-.805 1.945v11c0 .729.29 1.429.805 1.945.516.515 1.216.805 1.945.805h16c.729 0 1.429-.29 1.945-.805.515-.516.805-1.216.805-1.945zm-1.5 0v11c0 .332-.132.649-.366.884-.235.234-.552.366-.884.366h-16c-.332 0-.649-.132-.884-.366-.234-.235-.366-.552-.366-.884v-11c0-.332.132-.649.366-.884.235-.234.552-.366.884-.366h16c.332 0 .649.132.884.366.234.235.366.552.366.884z"/><path d="m9.75 11.25h-1.25c-.69 0-1.25.56-1.25 1.25v2c0 .332.132.649.366.884.235.234.552.366.884.366h1.25v1.25c0 .69.56 1.25 1.25 1.25h2c.332 0 .649-.132.884-.366.234-.235.366-.552.366-.884v-1.25h1.25c.69 0 1.25-.56 1.25-1.25 0-.555 0-1.445 0-2 0-.332-.132-.649-.366-.884-.235-.234-.552-.366-.884-.366h-1.25v-1.25c0-.69-.56-1.25-1.25-1.25-.555 0-1.445 0-2 0-.332 0-.649.132-.884.366-.234.235-.366.552-.366.884zm3-1v1.75c0 .414.336.75.75.75h1.75v1.5h-1.75c-.414 0-.75.336-.75.75v1.75h-1.5v-1.75c0-.414-.336-.75-.75-.75h-1.75v-1.5h1.75c.414 0 .75-.336.75-.75v-1.75z"/><path d="m7.5 6.75h9l.032-.004c.144-.021.718-.143.718-.759v-.987c0-.729-.29-1.429-.805-1.945-.516-.515-1.216-.805-1.945-.805-1.488 0-3.512 0-5 0-.729 0-1.429.29-1.945.805-.515.516-.805 1.216-.805 1.945v.987s.75.763.75.763zm8.25-1.5h-7.5v-.25c0-.332.132-.649.366-.884.235-.234.552-.366.884-.366h5c.332 0 .649.132.884.366.234.235.366.552.366.884z"/><path d="m18.5 6.25h1.5c.414 0 .75-.336.75-.75s-.336-.75-.75-.75h-1.5c-.414 0-.75.336-.75.75s.336.75.75.75z"/><path d="m4 6.25h1.5c.414 0 .75-.336.75-.75s-.336-.75-.75-.75h-1.5c-.414 0-.75.336-.75.75s.336.75.75.75z"/></g></svg>