<svg clip-rule="evenodd" fill-rule="evenodd" height="512" stroke-linejoin="round" stroke-miterlimit="2" viewBox="0 0 24 24" width="512" xmlns="http://www.w3.org/2000/svg"><g id="Icon"><path d="m16.296 3.199c-1.283-.58-2.706-.903-4.204-.903-5.645 0-10.227 4.583-10.227 10.227s4.582 10.227 10.227 10.227c4.871 0 8.951-3.414 9.977-7.977.091-.404-.163-.806-.567-.897l-3.698-.832c-.404-.091-.805.163-.896.567-.496 2.202-2.466 3.848-4.816 3.848-2.725 0-4.937-2.212-4.937-4.936s2.212-4.936 4.937-4.936c.388 0 .766.045 1.128.13 0 0-1.112 1.579-1.112 1.579-.165.235-.182.544-.042.796.139.251.411.401.698.385l7.26-.411c.22-.013.424-.121.556-.297.133-.176.182-.401.134-.616l-1.641-7.317c-.062-.276-.274-.493-.547-.563-.274-.069-.564.021-.75.233zm-.161 1.589c.307.161.685.091.913-.17l.885-1.012s1.124 5.012 1.124 5.012-4.829.273-4.829.273.795-1.129.795-1.129c.129-.183.169-.415.11-.631-.06-.216-.213-.394-.417-.485-.802-.359-1.69-.559-2.624-.559-3.553 0-6.437 2.884-6.437 6.436s2.884 6.436 6.437 6.436c2.802 0 5.189-1.794 6.071-4.296 0 0 2.247.505 2.247.505-1.122 3.525-4.424 6.082-8.318 6.082-4.817 0-8.727-3.91-8.727-8.727s3.91-8.727 8.727-8.727c1.458 0 2.834.358 4.043.992z"/></g></svg>