<svg clip-rule="evenodd" fill-rule="evenodd" height="512" stroke-linejoin="round" stroke-miterlimit="2" viewBox="0 0 24 24" width="512" xmlns="http://www.w3.org/2000/svg"><g id="Icon"><path d="m15.234 2.174c-.591-.592-1.393-.924-2.229-.924-.844 0-1.652.338-2.244.939 0 0-8.456 8.581-8.456 8.581-.669.572-1.055 1.409-1.055 2.292 0 .8.317 1.567.884 2.133 0-.001 7.336 7.335 7.336 7.335.14.141.331.22.53.22h1c.188 0 .369-.071.507-.198l10.144-9.313c.695-.566 1.099-1.416 1.099-2.313 0-.792-.314-1.551-.874-2.111l-6.642-6.641zm-1.062 1.059 6.644 6.643c.278.278.434.656.434 1.05 0 .451-.205.877-.558 1.159-.013.011-.026.022-.038.033l-9.946 9.132h-.397l-7.117-7.117c-.285-.284-.444-.67-.444-1.071 0-.451.2-.878.545-1.165.019-.016.037-.033.054-.05l8.48-8.605c.31-.315.734-.492 1.176-.492.438 0 .858.173 1.167.483z"/><path d="m8 22.75h11c.414 0 .75-.336.75-.75s-.336-.75-.75-.75h-11c-.414 0-.75.336-.75.75s.336.75.75.75z"/><path d="m14.58 18.519-9.49-9.49c-.293-.292-.768-.292-1.061 0-.292.293-.292.768 0 1.061l9.49 9.49c.293.293.768.293 1.061 0s.293-.768 0-1.061z"/></g></svg>