<svg clip-rule="evenodd" fill-rule="evenodd" height="512" stroke-linejoin="round" stroke-miterlimit="2" viewBox="0 0 134 134" width="512" xmlns="http://www.w3.org/2000/svg"><path d="m66.67 112.41c31.9-6.842 36.474-35.397 37.322-62.54.072-2.299 1.996-4.106 4.295-4.035 2.298.072 4.106 1.997 4.034 4.295-.975 31.197-7.634 63.182-44.837 70.622h-1.634c-27.015-5.403-37.947-23.656-42.269-45.268-2.72-13.598-2.748-28.553-2.748-42.151 0-1.703 1.038-3.236 2.62-3.868l41.666-16.667c.996-.398 2.106-.397 3.101.002l41.49 16.667c2.134.857 3.17 3.286 2.313 5.419-.857 2.134-3.286 3.171-5.42 2.314l-39.94-16.044-37.494 14.997c.007 12.296.156 25.56 2.583 37.697 3.634 18.169 12.532 33.759 34.918 38.56zm-4.17-43.303 13.72-13.72c1.626-1.626 4.267-1.626 5.893 0s1.626 4.267 0 5.893l-16.667 16.666c-1.627 1.627-4.265 1.627-5.892 0l-8.334-8.333c-1.626-1.626-1.626-4.267 0-5.893s4.267-1.626 5.893 0z"/></svg>