<svg clip-rule="evenodd" fill-rule="evenodd" height="512" stroke-linejoin="round" stroke-miterlimit="2" viewBox="0 0 24 24" width="512" xmlns="http://www.w3.org/2000/svg"><g id="Icon"><path d="m1.47 10.47c-.215.214-.279.537-.163.817s.39.463.693.463h8c.303 0 .577-.183.693-.463s.052-.603-.163-.817l-4-4c-.293-.293-.767-.293-1.06 0l-4 4zm2.341-.22 2.189-2.189s2.189 2.189 2.189 2.189z"/><path d="m6.75 7v-3c0-.414-.336-.75-.75-.75s-.75.336-.75.75v3c0 .414.336.75.75.75s.75-.336.75-.75z"/><path d="m10.584 19.376c-.275.183-.398.525-.302.841.096.317.388.533.718.533h4.263c4.134 0 7.487-3.352 7.487-7.487v-2.263c0-.414-.336-.75-.75-.75h-8c-.414 0-.75.336-.75.75v3.395c0 2.001-1.001 3.87-2.666 4.981zm2.378-.126c1.14-1.338 1.788-3.054 1.788-4.855v-2.645h6.5v1.513c0 3.307-2.681 5.987-5.987 5.987z"/><path d="m10.75 14.395v-3.395c0-.415-.336-.751-.75-.75h-8c-.414 0-.75.335-.75.749v2.265c0 4.134 3.353 7.486 7.487 7.486h2.263c.148 0 .293-.044.416-.126.407-.272.772-.586 1.113-.924.141-.141.221-.333.221-.533s-.08-.391-.222-.532c-1.121-1.112-1.778-2.63-1.778-4.24zm-1.5 0c0 1.744.614 3.402 1.69 4.719-.057.046-.116.091-.176.135 0 .001-2.027.001-2.027.001-3.306 0-5.987-2.681-5.987-5.986v-1.515s6.5.001 6.5.001z"/><path d="m22 11.75c.303 0 .577-.183.693-.463s.052-.603-.163-.817l-4-4c-.293-.293-.767-.293-1.06 0l-4 4c-.215.214-.279.537-.163.817s.39.463.693.463zm-1.811-1.5h-4.378s2.189-2.189 2.189-2.189z"/><path d="m18.75 7v-3c0-.414-.336-.75-.75-.75s-.75.336-.75.75v3c0 .414.336.75.75.75s.75-.336.75-.75z"/></g></svg>