<svg clip-rule="evenodd" fill-rule="evenodd" height="512" stroke-linejoin="round" stroke-miterlimit="2" viewBox="0 0 24 24" width="512" xmlns="http://www.w3.org/2000/svg"><g id="Icon"><path d="m20 21.25h-16c-1.518 0-2.75-1.232-2.75-2.75v-13c0-1.518 1.232-2.75 2.75-2.75h5.149c.398 0 .783.135 1.093.383l1.953 1.562c.044.036.099.055.156.055h7.649c1.518 0 2.75 1.232 2.75 2.75v11c0 1.518-1.232 2.75-2.75 2.75zm0-1.5c.69 0 1.25-.56 1.25-1.25v-11c0-.69-.56-1.25-1.25-1.25h-7.649c-.398 0-.783-.135-1.093-.383l-1.953-1.562c-.044-.036-.099-.055-.156-.055h-5.149c-.69 0-1.25.56-1.25 1.25v13c0 .69.56 1.25 1.25 1.25z"/><path d="m4 21.25c-1.518 0-2.75-1.232-2.75-2.75v-8c0-1.518 1.232-2.75 2.75-2.75h6.532c.074 0 .144-.033.192-.09l1.9-2.28c.332-.399.825-.63 1.344-.63h6.032c1.518 0 2.75 1.232 2.75 2.75v11c0 1.518-1.232 2.75-2.75 2.75zm0-1.5h16c.69 0 1.25-.56 1.25-1.25v-11c0-.69-.56-1.25-1.25-1.25h-6.032c-.074 0-.144.033-.192.09l-1.9 2.28c-.332.399-.825.63-1.344.63h-6.532c-.69 0-1.25.56-1.25 1.25v8c0 .69.56 1.25 1.25 1.25z"/><path d="m18.25 16.5v4c0 .414-.336.75-.75.75h-10c-.414 0-.75-.336-.75-.75v-4c0-.966.783-1.75 1.75-1.75h8c.967 0 1.75.784 1.75 1.75zm-1.5 0c0-.138-.112-.25-.25-.25h-8c-.138 0-.25.112-.25.25v3.25h8.5z"/></g></svg>