<svg clip-rule="evenodd" fill-rule="evenodd" height="512" stroke-linejoin="round" stroke-miterlimit="2" viewBox="0 0 24 24" width="512" xmlns="http://www.w3.org/2000/svg"><g id="Icon"><path d="m17.75 8.5c0-1.242-1.008-2.25-2.25-2.25s-2.25 1.008-2.25 2.25 1.008 2.25 2.25 2.25 2.25-1.008 2.25-2.25zm-1.5 0c0 .414-.336.75-.75.75s-.75-.336-.75-.75.336-.75.75-.75.75.336.75.75z"/><path d="m5.75 15.5c0 1.242 1.008 2.25 2.25 2.25s2.25-1.008 2.25-2.25-1.008-2.25-2.25-2.25-2.25 1.008-2.25 2.25zm1.5 0c0-.414.336-.75.75-.75s.75.336.75.75-.336.75-.75.75-.75-.336-.75-.75z"/><path d="m12 1.25c-5.933 0-10.75 4.817-10.75 10.75s4.817 10.75 10.75 10.75 10.75-4.817 10.75-10.75-4.817-10.75-10.75-10.75zm0 1.5c5.105 0 9.25 4.145 9.25 9.25s-4.145 9.25-9.25 9.25-9.25-4.145-9.25-9.25 4.145-9.25 9.25-9.25z"/><path d="m8.828 13.939c-.051-.626-.078-1.275-.078-1.939 0-3.163.598-5.972 1.547-7.71.279-.512.584-.924.919-1.204.249-.207.508-.336.784-.336.491 0 .916.371 1.318.924.527.726.967 1.767 1.297 3.018.106.4.517.639.917.533s.639-.516.534-.917c-.468-1.771-1.157-3.172-1.945-4.016-.646-.692-1.374-1.042-2.121-1.042-1.103 0-2.193.806-3.02 2.321-1.038 1.902-1.73 4.969-1.73 8.429 0 .706.028 1.395.083 2.061.033.412.395.72.808.687.413-.034.72-.396.687-.809z"/><path d="m15.172 10.061c.051.626.078 1.275.078 1.939 0 3.163-.598 5.972-1.547 7.71-.279.512-.584.924-.919 1.204-.249.207-.508.336-.784.336-.398 0-.755-.255-1.095-.643-.696-.796-1.257-2.129-1.639-3.776-.093-.403-.496-.655-.899-.562-.404.094-.655.497-.562.9.449 1.939 1.152 3.489 1.972 4.426.671.766 1.437 1.155 2.223 1.155 1.103 0 2.193-.806 3.02-2.321 1.038-1.902 1.73-4.969 1.73-8.429 0-.706-.028-1.395-.083-2.061-.033-.412-.395-.72-.808-.687-.413.034-.72.396-.687.809z"/><path d="m14 7.75h-11c-.414 0-.75.336-.75.75s.336.75.75.75h11c.414 0 .75-.336.75-.75s-.336-.75-.75-.75z"/><path d="m9.5 16.25h11.5c.414 0 .75-.336.75-.75s-.336-.75-.75-.75h-11.5c-.414 0-.75.336-.75.75s.336.75.75.75z"/><path d="m21 7.75h-4c-.414 0-.75.336-.75.75s.336.75.75.75h4c.414 0 .75-.336.75-.75s-.336-.75-.75-.75z"/><path d="m3 16.25h3.5c.414 0 .75-.336.75-.75s-.336-.75-.75-.75h-3.5c-.414 0-.75.336-.75.75s.336.75.75.75z"/></g></svg>