<?xml version="1.0"?>
<svg xmlns="http://www.w3.org/2000/svg" viewBox="0 0 32 32" width="512" height="512"><g id="microscope_equipment_doctor_bacteria" data-name="microscope, equipment, doctor, bacteria"><path d="M14,23a1,1,0,0,0,0-2H10a1,1,0,0,0,0,2Z"/><path d="M18.8288,9.042A2.9942,2.9942,0,0,0,16,7a2.9635,2.9635,0,0,0-1,.1843V4a1,1,0,0,0-1-1H10A1,1,0,0,0,9,4V7H8A1,1,0,0,0,7,8V18a1,1,0,0,0,1,1h8a1,1,0,0,0,1-1V16a1,1,0,0,0-2,0v1H9V9h4.1843A2.9635,2.9635,0,0,0,13,10a2.9937,2.9937,0,0,0,5.8031,1.0406A9.0065,9.0065,0,0,1,27,19.998V27H4a1,1,0,0,0,0,2H28a1,1,0,0,0,1-1V19.998A11.0058,11.0058,0,0,0,18.8288,9.042ZM13,7H11V5h2Zm3,4a1,1,0,1,1,1-1A1.0009,1.0009,0,0,1,16,11Z"/><path d="M24,25a1,1,0,0,0,1-1V20a8.9812,8.9812,0,0,0-4.0791-7.5371,1,1,0,0,0-1.0957,1.6738A6.9842,6.9842,0,0,1,23,20v4A1,1,0,0,0,24,25Z"/></g></svg>
