<svg viewBox="0 0 32 32" xmlns="http://www.w3.org/2000/svg"><g id="joox_music_audio_media_social" data-name="joox, music, audio, media, social"><path d="m26.5166 8.3584a13.0217 13.0217 0 1 0 -5.7715 19.7344l3.5791.5664a.9927.9927 0 0 0 1.1436-.8311l.61-3.8535a1 1 0 0 0 -1.9746-.3125l-.4541 2.8652-2.8662-.4531a.9869.9869 0 0 0 -.543.0654 11.0008 11.0008 0 1 1 6.1758-6.6289 1 1 0 0 0 1.8945.6387 13.0137 13.0137 0 0 0 -1.7936-11.791z"/><path d="m20 16a4 4 0 1 0 -4 4 4.0039 4.0039 0 0 0 4-4zm-6 0a2 2 0 1 1 2 2 2.0027 2.0027 0 0 1 -2-2z"/><path d="m21.9912 14.9414a.998.998 0 0 0 .6094-1.2754 6.9656 6.9656 0 0 0 -4.2666-4.2666 1 1 0 0 0 -.666 1.8848 5.0528 5.0528 0 0 1 3.0478 3.0478 1.0883 1.0883 0 0 0 1.2754.6094z"/><path d="m14.332 20.7158a5.0528 5.0528 0 0 1 -3.0478-3.0478 1 1 0 1 0 -1.8848.666 6.9656 6.9656 0 0 0 4.2666 4.2666 1.0507 1.0507 0 0 0 1.2754-.6094.998.998 0 0 0 -.6094-1.2754z"/><path d="m24.998 14.9746a1.0015 1.0015 0 0 0 .754-1.1973 10.0405 10.0405 0 0 0 -7.5293-7.5293 1 1 0 0 0 -.4434 1.9512 8.0277 8.0277 0 0 1 6.0215 6.0215 1.0805 1.0805 0 0 0 1.1972.7539z"/><path d="m14.2217 23.8018a8.03 8.03 0 0 1 -6.0235-6.0235 1 1 0 1 0 -1.9511.4434 10.0421 10.0421 0 0 0 7.5312 7.5312.98.98 0 0 0 1.1973-.7539 1.0014 1.0014 0 0 0 -.7539-1.1972z"/></g></svg>