<svg clip-rule="evenodd" fill-rule="evenodd" height="512" stroke-linejoin="round" stroke-miterlimit="2" viewBox="0 0 24 24" width="512" xmlns="http://www.w3.org/2000/svg"><g id="Icon"><path d="m17.737 20.034c-.001-.011-.003-.023-.005-.035 0 0-.465-2.638-.751-4.26-.19-1.076-1.124-1.86-2.216-1.86-1.508 0-4.018 0-5.525 0-1.091 0-2.024.783-2.215 1.857-.288 1.622-.757 4.262-.757 4.262-.002.013-.004.025-.005.037-.122.952.649 1.827 1.694 1.827.5 0 .972-.211 1.291-.564-.002.002 1.433-1.4 1.433-1.4.014-.013.028-.028.041-.043.056-.065.144-.096.235-.096h2.087c.09 0 .177.031.233.095.014.016.028.03.042.044l1.435 1.403c.318.351.789.561 1.289.561 1.044 0 1.816-.875 1.694-1.828zm-1.487.203c.001.086-.108.125-.207.125-.069 0-.138-.023-.182-.073-.013-.015-.027-.03-.041-.044l-1.435-1.402c-.33-.365-.821-.584-1.341-.584h-2.087c-.521 0-1.012.22-1.345.587.003-.003-1.432 1.399-1.432 1.399-.015.014-.029.029-.042.045-.043.05-.112.072-.181.072-.098 0-.206-.038-.207-.123 0-.005.752-4.241.752-4.241.063-.358.375-.619.738-.619h5.525c.364 0 .675.262.738.62l.747 4.235z"/><path d="m14.655 7.398c-.019-.011-.039-.021-.059-.03l-2.563-1.193c-1.14-.629-2.548.195-2.548 1.508v2.411c0 1.314 1.414 2.141 2.556 1.504-.008.005 2.555-1.188 2.555-1.188.02-.01.04-.02.059-.031 1.146-.663 1.146-2.318 0-2.981zm-.732 1.311c.121.087.122.268.003.357-.004.003-2.551 1.189-2.551 1.189-.02.009-.04.019-.059.03-.147.085-.331-.022-.331-.191v-2.411c0-.17.184-.276.331-.191.019.011.039.021.059.031l2.547 1.186z"/><path d="m16.5 17.638h3.5c1.519 0 2.75-1.231 2.75-2.75v-10c0-.729-.29-1.428-.805-1.944-.516-.516-1.216-.806-1.945-.806-3.832 0-12.168 0-16 0-.729 0-1.429.29-1.945.806-.515.516-.805 1.215-.805 1.944v10c0 1.519 1.231 2.75 2.75 2.75h3.5c.414 0 .75-.336.75-.75s-.336-.75-.75-.75h-3.5c-.69 0-1.25-.559-1.25-1.25v-10c0-.331.132-.649.366-.883.235-.235.552-.367.884-.367h16c.332 0 .649.132.884.367.234.234.366.552.366.883v10c0 .691-.56 1.25-1.25 1.25h-3.5c-.414 0-.75.336-.75.75s.336.75.75.75z"/></g></svg>