<svg clip-rule="evenodd" fill-rule="evenodd" height="512" stroke-linejoin="round" stroke-miterlimit="2" viewBox="0 0 24 24" width="512" xmlns="http://www.w3.org/2000/svg"><g id="Icon"><path d="m16 22.75h5c.464 0 .909-.184 1.237-.513.329-.328.513-.773.513-1.237 0-1.331 0-3.669 0-5 0-.464-.184-.909-.513-1.237-.328-.329-.773-.513-1.237-.513-1.331 0-3.669 0-5 0-.464 0-.909.184-1.237.513-.329.328-.513.773-.513 1.237v5c0 .464.184.909.513 1.237.328.329.773.513 1.237.513zm5-1.5h-5c-.066 0-.13-.026-.177-.073s-.073-.111-.073-.177v-5c0-.066.026-.13.073-.177s.111-.073.177-.073h5c.066 0 .13.026.177.073s.073.111.073.177v5c0 .066-.026.13-.073.177s-.111.073-.177.073z"/><path d="m17.75 15v2c0 .414.336.75.75.75s.75-.336.75-.75v-2c0-.414-.336-.75-.75-.75s-.75.336-.75.75z"/><path d="m8.25 11v2c0 .414.336.75.75.75s.75-.336.75-.75v-2c0-.414-.336-.75-.75-.75s-.75.336-.75.75z"/><path d="m22.75 12v-8c0-.729-.29-1.429-.805-1.945-.516-.515-1.216-.805-1.945-.805-3.832 0-12.168 0-16 0-.729 0-1.429.29-1.945.805-.515.516-.805 1.216-.805 1.945v16c0 .729.29 1.429.805 1.945.516.515 1.216.805 1.945.805h8c.414 0 .75-.336.75-.75s-.336-.75-.75-.75c0 0-5.082 0-8 0-.332 0-.649-.132-.884-.366-.234-.235-.366-.552-.366-.884v-16c0-.332.132-.649.366-.884.235-.234.552-.366.884-.366h16c.332 0 .649.132.884.366.234.235.366.552.366.884v8c0 .414.336.75.75.75s.75-.336.75-.75z"/><path d="m3.248 22.358s5.153-1.804 7.66-2.681c1.103-.386 1.842-1.427 1.842-2.596v-10.162c0-1.169-.739-2.21-1.842-2.596-2.507-.877-7.66-2.681-7.66-2.681-.391-.137-.819.07-.956.46-.137.391.07.819.46.956 0 0 5.153 1.803 7.661 2.681.501.176.837.649.837 1.18v10.162c0 .531-.336 1.004-.837 1.18l-7.661 2.681c-.39.137-.597.565-.46.956.137.39.565.597.956.46z"/></g></svg>