<svg clip-rule="evenodd" fill-rule="evenodd" stroke-linejoin="round" stroke-miterlimit="1.414" viewBox="0 0 32 32" xmlns="http://www.w3.org/2000/svg" xmlns:serif="http://www.serif.com/"><path id="time-clock-deadline-watch" d="m0 0h32v32h-32z" fill="none"/><path d="m16.088 3.004c.545.077.594.236.722.414.437.609-.046 1.579-.885 1.584-.024 0-.047.001-.071.001-4.193.066-8.148 2.674-9.868 6.418-1.813 3.945-1.007 8.951 1.996 12.138 3.624 3.847 10.124 4.582 14.547 1.315 2.964-2.19 4.704-5.939 4.452-9.616-.287-4.206-3.139-8.091-7.21-9.589 0 0-.72-.438-.649-1.054.075-.652.816-1.026 1.517-.759.218.084.434.173.647.267 4.324 1.923 7.423 6.382 7.701 11.125.291 4.974-2.532 9.993-6.998 12.316-3.821 1.988-8.633 1.911-12.4-.226-3.334-1.891-5.763-5.32-6.416-9.104-.708-4.113.701-8.537 3.678-11.478 2.4-2.371 5.727-3.745 9.142-3.756.032.001.064.003.095.004zm7.916 14.009h-8.008c-.182-.005-.233-.022-.33-.056-.392-.137-.656-.446-.67-.945v-8.007c.005-.183.022-.234.056-.331.137-.392.446-.656.944-.67.019 0 .038.001.057.001.182.016.231.036.327.075.365.152.604.445.617.925v7.007h7.007c.006.001 1.18.331.976 1.223-.1.439-.519.766-.976.778z" fill-rule="nonzero"/></svg>