<svg clip-rule="evenodd" fill-rule="evenodd" height="512" stroke-linejoin="round" stroke-miterlimit="2" viewBox="0 0 24 24" width="512" xmlns="http://www.w3.org/2000/svg"><g id="Icon"><path d="m22 19.5h-20c-.414 0-.75.336-.75.75s.336.75.75.75h20c.414 0 .75-.336.75-.75s-.336-.75-.75-.75z"/><path d="m18.882 3h-13.764c-.756 0-1.479.286-2.013.791-.55.519-.855 1.225-.855 1.959v10c0 .734.305 1.44.855 1.959.534.505 1.257.791 2.013.791h13.764c.756 0 1.479-.286 2.013-.791.55-.519.855-1.225.855-1.959 0-2.444 0-7.556 0-10 0-.734-.305-1.44-.855-1.959-.534-.505-1.257-.791-2.013-.791zm-13.764 1.5h13.764c.368 0 .723.135.983.381.244.231.385.543.385.869v10c0 .326-.141.638-.385.869-.26.246-.615.381-.983.381h-13.764c-.368 0-.723-.135-.983-.381-.244-.231-.385-.543-.385-.869 0-2.444 0-7.556 0-10 0-.326.141-.638.385-.869.26-.246.615-.381.983-.381z"/></g></svg>