<svg clip-rule="evenodd" fill-rule="evenodd" stroke-linejoin="round" stroke-miterlimit="1.414" viewBox="0 0 32 32" xmlns="http://www.w3.org/2000/svg" xmlns:serif="http://www.serif.com/"><path id="alert-emergency-urgent-alarm" d="m0 0h32v32h-32z" fill="none"/><path d="m5.364 22.12v-8.494c.013-4.372 2.932-8.564 7.102-10.033 1.155-.407 2.384-.605 3.603-.602 4.333.042 8.538 2.966 9.987 7.164.385 1.115.577 2.297.581 3.471v4.729c-.032.803-.953 1.443-1.719 1.053-.332-.169-.573-.502-.631-.868-.012-.082-.011-.103-.014-.185v-4.725c-.007-2.232-.944-4.445-2.565-5.991-2.095-1.997-5.287-2.77-8.071-1.942-3.376 1.004-5.898 4.349-5.91 7.933v8.264c1.576-.009 3.152-.015 4.728-.019v-5.887c.011-1.794 1.491-3.443 3.364-3.538.064-.003.072-.005.227-.004 1.797.034 3.427 1.573 3.497 3.409.002.044.002.088.003.133v5.887c1.984.005 3.968.013 5.953.026 1.893.035 3.57 1.763 3.499 3.677-.065 1.744-1.58 3.321-3.368 3.409-.043.002-.087.003-.131.004-6.319.039-12.638.001-18.957.001-1.88-.012-3.589-1.71-3.541-3.634.035-1.422 1.02-2.732 2.363-3.238zm1.185 2.144c-.946.006-1.633 1.411-.73 2.114.202.157.454.245.712.25 6.312.038 12.626.038 18.938 0 .888-.017 1.532-1.253.852-1.986-.217-.234-.529-.372-.852-.378-6.306-.039-12.613 0-18.92 0zm10.634-2.392c.003-1.966.012-3.931-.001-5.896-.015-.764-.887-1.382-1.628-1.079-.432.176-.733.618-.736 1.098v5.877c.789-.001 1.577-.001 2.365 0z" fill-rule="nonzero"/></svg>