<svg clip-rule="evenodd" fill-rule="evenodd" stroke-linejoin="round" stroke-miterlimit="2" viewBox="0 0 32 32" xmlns="http://www.w3.org/2000/svg" xmlns:serif="http://www.serif.com/"><path id="ringing-phone-call-" d="m0 0h32v32h-32z" fill="none"/><path d="m24.802 6.323c-.232-.228-.464-.455-.699-.681-.408-.38-1.127-.332-1.478.116-.77 1.012-1.522 2.04-2.249 3.085-.239.355-.142.822-.015 1.228.298.954.583 1.848.873 2.84.557 1.989-1.159 4.121-2.596 5.583-.402.408-1.107.46-1.506.025-.369-.403-.307-1.041.119-1.478.232-.241.265-.284.384-.424.637-.752 1.163-1.594 1.611-2.471.154-.318.06-.68-.051-1.05-.283-.934-.574-1.865-.865-2.797-.051-.166-.05-.177-.067-.253-.176-.811.003-1.684.483-2.373.78-1.087 1.52-2.227 2.367-3.237.572-.682 1.467-1.083 2.356-1.074 1.712.042 2.987 1.778 4.378 3.186 1.735 1.785 1.252 4.952.246 7.051-1.463 3.048-3.808 5.621-6.257 8.036-3.035 2.992-6.305 6.113-10.364 7.175-1.658.434-3.579.316-4.91-.975-1.334-1.315-3.008-2.479-3.172-4.135-.102-1.023.36-2.072 1.187-2.702 1.08-.798 2.132-1.665 3.257-2.364.727-.452 1.649-.569 2.479-.317l3.855 1.203c.851.311.785.777.672 1.211-.027.103-.072.199-.13.284-.063.105-.151.202-.266.286l-3.846 2.685c-.827.555-2.363-.761-1.149-1.645l2.18-1.522c-.644-.205-1.29-.407-1.939-.594-.282-.076-.591-.026-.834.138-1.045.727-2.072 1.478-3.085 2.249-.439.344-.503 1.062-.115 1.478.758.79 1.536 1.56 2.322 2.322 1.004.96 2.717.61 3.827.183 3.391-1.304 6.167-3.957 8.719-6.485 2.683-2.658 5.543-5.466 6.415-9.173.029-.123.054-.247.075-.371.015-.09.028-.179.039-.269.093-.811-.034-1.711-.628-2.332-.059-.061-.118-.122-.177-.183l-1.784 2.751c-.497.735-1.996.384-1.834-.694.021-.141.074-.275.15-.398l2.022-3.118zm-8.701.655c.733.062 1.219 1.012.728 1.628-.393.492-1.158.355-1.824.455-3.281.49-5.985 3.564-5.985 6.947 0 0-.132.793-.725.964-.645.186-1.293-.3-1.28-1.134.1-4.622 4.087-8.846 9.026-8.861.02 0 .04.001.06.001zm-.017 4.013c1 .06 1.446 1.953-.159 2.009-1.539.063-2.891 1.461-2.891 3.008 0 0-.233.959-.944 1.001-.615.037-1.093-.539-1.056-1.261.127-2.519 2.383-4.749 5.007-4.757zm.029-8.026c.252.026.324.066.453.144.718.437.564 1.824-.522 1.861 0 0-.761.002-1.476.098-5.055.675-9.352 5.208-9.553 10.512-.036.934.062.402-.066.764-.302.848-1.957.878-1.949-.421.001-.111.003-.223.006-.335.169-5.308 3.858-10.353 9.083-12.014 1.275-.406 2.613-.607 3.954-.611.023 0 .047.002.07.002z"/></svg>