<svg clip-rule="evenodd" fill-rule="evenodd" height="512" stroke-linejoin="round" stroke-miterlimit="2" viewBox="0 0 24 24" width="512" xmlns="http://www.w3.org/2000/svg"><g id="Icon"><circle cx="17.908" cy="13.428" r=".75"/><path d="m15.692 13.906c.128-.264.09-.579-.097-.805s-.488-.322-.772-.247c-.103.028-.211.042-.323.042-.69 0-1.25-.56-1.25-1.25 0-.689.56-1.25 1.25-1.25.388 0 .735.178.964.455.141.171.35.27.571.272.221.003.431-.093.576-.26.231-.27.574-.435.948-.435h.441c.246 0 .476-.121.617-.323 1.251-1.807.612-4.603.612-4.603-.059-.245-.238-.445-.475-.53-.238-.085-.502-.046-.704.106l-.647.485c-.045-.212-.109-.418-.187-.615-.409-1.037-1.19-1.805-1.19-1.805-.154-.152-.367-.229-.582-.213-.216.016-.414.125-.544.298l-.525.7c-.225-.361-.521-.65-.829-.876-.658-.485-1.358-.663-1.358-.663-.195-.05-.401-.02-.574.083-.172.103-.296.271-.343.466l-.157.65c-.23-.155-.473-.275-.717-.369-.976-.373-1.959-.289-1.959-.289-.389.033-.688.358-.688.748v.707c-.211-.11-.429-.198-.648-.266-1.111-.349-2.213-.183-2.213-.183-.23.034-.431.173-.544.376s-.126.447-.034.661l.728 1.699c-1.715-.339-3.327.313-3.327.313-.231.097-.399.302-.448.547-.048.246.029.499.206.676l1.477 1.477c-.148.078-.288.168-.419.267-.745.555-1.187 1.367-1.187 1.367-.185.341-.08.767.243.983l.68.453c-.248.361-.409.8-.496 1.264-.204 1.092-.008 2.282-.008 2.282.039.233.186.434.396.543s.459.112.671.009c0 0 .785-.404 1.212-.426 1.574-.083 7.951.001 7.951.001h.01c2.433 0 3.692-2.522 3.692-2.522zm1.881-4.978h-.014c-.551 0-1.07.163-1.507.449-.441-.303-.976-.481-1.552-.481-1.518 0-2.75 1.233-2.75 2.75 0 1.204.775 2.228 1.853 2.6-.382.36-.913.679-1.595.682-.232-.003-6.483-.082-8.047.001-.221.011-.509.086-.789.179.001-.256.019-.539.07-.813.072-.383.174-.781.527-.917.262-.101.446-.339.476-.618.031-.278-.096-.551-.329-.706l-.853-.569c.104-.113.225-.229.362-.332.244-.181.547-.33.901-.246.327.078.665-.071.829-.363.163-.293.113-.659-.125-.897l-1.573-1.573c.756-.094 1.746-.028 2.552.67.264.229.651.246.933.039.283-.206.385-.579.247-.901l-1.048-2.446c.044.006.089.013.135.022.559.102 1.216.352 1.548 1.044.151.316.501.485.842.407.342-.078.584-.381.584-.731v-1.715c.094.014.193.034.296.059.464.115 1.009.358 1.265.953.128.296.431.477.752.45.322-.027.59-.257.666-.571l.288-1.19c.046.029.093.061.139.095.349.257.689.671.601 1.317-.046.339.142.666.458.796.316.129.68.029.885-.244l.916-1.222c.111.174.219.375.304.591.16.406.247.881.012 1.339-.159.311-.082.69.185.915s.654.236.933.027l.973-.73c.016.577-.05 1.275-.35 1.88z"/><path d="m21.187 14.408c-.342 1.976-2.049 3.485-4.114 3.519-.301.005-.57.19-.683.469s-.048.598.165.811l.5.501c.098.098.098.256 0 .354-.097.097-.255.097-.353 0-.634-.634-1.629-1.634-1.844-1.858-.009-.01-.02-.022-.02-.022l.001.002c-.141-.162-.346-.256-.564-.256h-5.861c-.199 0-.389.079-.53.219l-1.914 1.915c-.098.097-.256.097-.354 0-.097-.098-.098-.256 0-.354 0 0 .739-.739.739-.739.176-.176.253-.428.206-.673-.047-.244-.213-.45-.442-.547-.805-.343-1.369-1.141-1.369-2.071 0-.414-.336-.75-.75-.75s-.75.336-.75.75c0 1.169.535 2.213 1.374 2.901l-.069.068c-.683.684-.683 1.792 0 2.475.684.684 1.792.684 2.475 0l1.695-1.694h5.241c.41.42 1.157 1.176 1.675 1.694.684.684 1.792.684 2.475 0 .512-.512.64-1.261.386-1.893 2.447-.66 4.248-2.895 4.248-5.551 0-.199-.079-.39-.22-.531-.14-.14-.331-.219-.53-.219h-.516c-.195 0-.381-.078-.519-.215-.138-.138-.215-.325-.215-.519v-.002c0-1.803-1.461-3.264-3.264-3.264-.414 0-.75.336-.75.75s.336.75.75.75c.974 0 1.764.789 1.764 1.764v.002c0 .592.235 1.16.654 1.579.349.349.8.57 1.283.635z"/></g></svg>