<svg clip-rule="evenodd" fill-rule="evenodd" height="512" stroke-linejoin="round" stroke-miterlimit="2" viewBox="0 0 24 24" width="512" xmlns="http://www.w3.org/2000/svg"><g id="Icon"><path d="m15.533 13.078c-.183-.224-.283-.503-.283-.792v-4.286c0-.414-.336-.75-.75-.75h-5c-.414 0-.75.336-.75.75v4.286c0 .289-.1.568-.283.792l-3.595 4.395c-.402.491-.622 1.106-.622 1.741v.786c0 1.519 1.231 2.75 2.75 2.75h10c1.519 0 2.75-1.231 2.75-2.75 0-.281 0-.553 0-.786 0-.635-.22-1.25-.622-1.741zm-1.161.949 3.595 4.395c.183.224.283.503.283.792v.786c0 .69-.56 1.25-1.25 1.25h-10c-.69 0-1.25-.56-1.25-1.25v-.786c0-.289.1-.568.283-.792l3.595-4.395c.402-.491.622-1.106.622-1.741v-3.536h3.5v3.536c0 .635.22 1.25.622 1.741z"/><path d="m15.5 7.25h-7c-.414 0-.75.336-.75.75s.336.75.75.75h7c.414 0 .75-.336.75-.75s-.336-.75-.75-.75z"/><path d="m16.25 2.5c0-.414-.336-.75-.75-.75h-.875c-.895 0-1.754.356-2.386.989-.633.632-.989 1.491-.989 2.386v.875c0 .414.336.75.75.75h.875c.895 0 1.754-.356 2.386-.989.633-.632.989-1.491.989-2.386zm-1.5.75v.125c0 .497-.198.974-.549 1.326-.352.351-.829.549-1.326.549h-.125v-.125c0-.497.198-.974.549-1.326.352-.351.829-.549 1.326-.549z"/><path d="m8 1.25c-.414 0-.75.336-.75.75v1c0 .995.395 1.948 1.098 2.652.704.703 1.657 1.098 2.652 1.098h1c.414 0 .75-.336.75-.75v-1c0-.995-.395-1.948-1.098-2.652-.704-.703-1.657-1.098-2.652-1.098zm.75 1.5h.25c.597 0 1.169.237 1.591.659s.659.994.659 1.591v.25h-.25c-.597 0-1.169-.237-1.591-.659s-.659-.994-.659-1.591z"/><path d="m11.25 6v2c0 .414.336.75.75.75s.75-.336.75-.75v-2c0-.414-.336-.75-.75-.75s-.75.336-.75.75z"/><circle cx="9.5" cy="19.5" r="1"/><circle cx="14" cy="18" r="1"/><circle cx="12" cy="14.5" r="1"/></g></svg>