<svg clip-rule="evenodd" fill-rule="evenodd" height="512" stroke-linejoin="round" stroke-miterlimit="2" viewBox="0 0 24 24" width="512" xmlns="http://www.w3.org/2000/svg"><g id="Icon"><path d="m7.75 15.25v.5h-1.25c-.414 0-.75.336-.75.75s.336.75.75.75h1.5c.331 0 .649-.132.884-.366.234-.235.366-.553.366-.884 0-.305 0-.695 0-1 0-.331-.132-.649-.366-.884-.235-.234-.553-.366-.884-.366h-.75v-.5h1.25c.414 0 .75-.336.75-.75s-.336-.75-.75-.75h-1.5c-.331 0-.649.132-.884.366-.234.235-.366.553-.366.884v1c0 .331.132.649.366.884.235.234.553.366.884.366z"/><path d="m11.75 15.75v-2.5h1.25c.414 0 .75-.336.75-.75s-.336-.75-.75-.75h-1.5c-.331 0-.649.132-.884.366-.234.235-.366.552-.366.884v3c0 .332.132.649.366.884.235.234.553.366.884.366h1.5c.414 0 .75-.336.75-.75s-.336-.75-.75-.75z"/><path d="m11 15.25h1.5c.414 0 .75-.336.75-.75s-.336-.75-.75-.75h-1.5c-.414 0-.75.336-.75.75s.336.75.75.75z"/><path d="m18.25 13c0-.332-.132-.649-.366-.884-.235-.234-.553-.366-.884-.366-.305 0-.695 0-1 0-.331 0-.649.132-.884.366-.234.235-.366.552-.366.884v3c0 .332.132.649.366.884.235.234.553.366.884.366h1c.331 0 .649-.132.884-.366.234-.235.366-.552.366-.884zm-2 2.75h.5v-2.5h-.5z"/><path d="m6 7.75h14.5c.414 0 .75-.336.75-.75s-.336-.75-.75-.75h-.75v-4.25c0-.414-.336-.75-.75-.75h-13c-1.795 0-3.25 1.455-3.25 3.25 0 .862.342 1.689.952 2.298.609.61 1.436.952 2.298.952zm12.25-1.5v-3.5h-12.25c-.966 0-1.75.784-1.75 1.75 0 .464.184.909.513 1.237.328.329.773.513 1.237.513z"/><path d="m19.75 7v14c0 .138-.112.25-.25.25h-14c-.332 0-.649-.132-.884-.366-.234-.235-.366-.552-.366-.884 0-4.592 0-15.5 0-15.5 0-.414-.336-.75-.75-.75s-.75.336-.75.75v15.5c0 .729.29 1.429.805 1.945.516.515 1.216.805 1.945.805h14c.967 0 1.75-.784 1.75-1.75 0-3.355 0-14 0-14 0-.414-.336-.75-.75-.75s-.75.336-.75.75z"/></g></svg>