<svg clip-rule="evenodd" fill-rule="evenodd" stroke-linejoin="round" stroke-miterlimit="1.414" viewBox="0 0 32 32" xmlns="http://www.w3.org/2000/svg" xmlns:serif="http://www.serif.com/"><path id="zoom-out-magnifying-glass" d="m0 0h32v32h-32z" fill="none"/><path d="m17.634 18.908-.004.002c-2.287 1.823-5.488 2.434-8.293 1.567-2.977-.92-5.375-3.489-6.103-6.515-.872-3.625.743-7.707 3.983-9.742.43-.27.979-.408 1.386-.098.538.409.463 1.332-.14 1.686-.109.064-.129.078-.18.109-2.605 1.647-3.895 5.081-2.976 8.025.977 3.132 4.352 5.373 7.745 4.857 2.55-.387 4.817-2.27 5.626-4.775 1.13-3.495-.9-7.719-4.596-8.862-.157-.048-.339-.1-.339-.1-.552-.222-.591-.485-.644-.738-.112-.536.294-1.127.853-1.199.15-.019.187-.006.236-.002.878.13 1.776.578 2.589 1.084 2.437 1.52 4.065 4.262 4.233 7.129.129 2.197-.604 4.422-1.965 6.149l1.456 1.456c.389-.185.817-.291 1.255-.299h.072c.766.014 1.506.319 2.061.853 1.433 1.415 2.849 2.848 4.273 4.273 1.106 1.12 1.128 3.125.002 4.244-.004.005-.472.437-.932.637-1.086.471-2.439.22-3.296-.605-1.434-1.415-2.849-2.849-4.273-4.273-.868-.878-1.098-2.302-.582-3.416zm4.146 1.738c-.769.014-1.291 1.095-.707 1.701 1.412 1.429 2.832 2.85 4.262 4.262.514.495 1.556.228 1.687-.549.052-.31-.05-.639-.27-.868-1.412-1.43-2.833-2.85-4.262-4.262-.189-.182-.446-.285-.71-.284zm-5.767-7.782h-8.016c-.23-.006-.305-.037-.435-.099-.614-.296-.751-1.29-.145-1.72.123-.087.264-.145.412-.171.056-.009.112-.012.168-.014h8.016c.019.001.038.001.057.002.229.019.302.054.428.123.584.323.679 1.281.095 1.695-.122.086-.264.145-.412.17-.055.01-.111.013-.168.014z" fill-rule="nonzero"/></svg>