<?xml version="1.0"?>
<svg xmlns="http://www.w3.org/2000/svg" viewBox="0 0 32 32" width="512" height="512"><g id="projector_projection_presentation" data-name="projector, projection, presentation"><path d="M28.1211,11.8789A2.9815,2.9815,0,0,0,26,11H20a1,1,0,0,0,0,2h6a1,1,0,0,1,1,1v6a1,1,0,0,1-1,1H6a1,1,0,0,1-1-1V14a1,1,0,0,1,1-1H7.1011a5,5,0,1,0,0-2H6a3.0008,3.0008,0,0,0-3,3v6a2.9658,2.9658,0,0,0,2,2.8179V24a1,1,0,0,0,2,0V23H25v1a1,1,0,0,0,2,0V22.8179A2.9658,2.9658,0,0,0,29,20V14A2.9815,2.9815,0,0,0,28.1211,11.8789ZM12,9a3,3,0,1,1-3,3A3.0033,3.0033,0,0,1,12,9Z"/><path d="M20,19a1,1,0,0,0,1-1V16a1,1,0,0,0-2,0v2A1,1,0,0,0,20,19Z"/><path d="M25,18V16a1,1,0,0,0-2,0v2a1,1,0,0,0,2,0Z"/></g></svg>
