<svg clip-rule="evenodd" fill-rule="evenodd" height="512" stroke-linejoin="round" stroke-miterlimit="2" viewBox="0 0 24 24" width="512" xmlns="http://www.w3.org/2000/svg"><g id="Icon"><path d="m2.75 8.5v-3.5c0-1.243 1.007-2.25 2.25-2.25h3.5c.414 0 .75-.336.75-.75s-.336-.75-.75-.75h-3.5c-2.071 0-3.75 1.679-3.75 3.75v3.5c0 .414.336.75.75.75s.75-.336.75-.75z"/><path d="m1.25 15.5v3.5c0 2.071 1.679 3.75 3.75 3.75h3.5c.414 0 .75-.336.75-.75s-.336-.75-.75-.75h-3.5c-1.243 0-2.25-1.007-2.25-2.25v-3.5c0-.414-.336-.75-.75-.75s-.75.336-.75.75z"/><path d="m22.75 8.5v-3.5c0-2.071-1.679-3.75-3.75-3.75h-3.5c-.414 0-.75.336-.75.75s.336.75.75.75h3.5c1.243 0 2.25 1.007 2.25 2.25v3.5c0 .414.336.75.75.75s.75-.336.75-.75z"/><path d="m21.25 15.5v3.5c0 1.243-1.007 2.25-2.25 2.25h-3.5c-.414 0-.75.336-.75.75s.336.75.75.75h3.5c2.071 0 3.75-1.679 3.75-3.75v-3.5c0-.414-.336-.75-.75-.75s-.75.336-.75.75z"/><path d="m12 7.25c-2.622 0-4.75 2.128-4.75 4.75s2.128 4.75 4.75 4.75 4.75-2.128 4.75-4.75-2.128-4.75-4.75-4.75zm0 1.5c1.794 0 3.25 1.456 3.25 3.25s-1.456 3.25-3.25 3.25-3.25-1.456-3.25-3.25 1.456-3.25 3.25-3.25z"/></g></svg>