<svg clip-rule="evenodd" fill-rule="evenodd" stroke-linejoin="round" stroke-miterlimit="2" viewBox="0 0 32 32" xmlns="http://www.w3.org/2000/svg" xmlns:serif="http://www.serif.com/"><path id="presentation-group-friends" d="m0 0h32v32h-32z" fill="none"/><path d="m4.436 24.982c-1.016-.9-1.627-2.284-1.376-3.688.322-1.801 1.991-3.257 3.886-3.293h.103c2.256.043 4.235 2.241 3.91 4.558-.133.952-.653 1.82-1.381 2.446.85.739 1.412 1.816 1.42 2.994 0 0-.209.914-.88.996-.542.065-1.092-.377-1.119-.945-.007-.15-.003-.15-.007-.203-.115-1.394-1.961-2.368-3.191-1.449-.495.371-.799.972-.804 1.607 0 .082.038-.035-.029.236-.227.922-2.04 1.017-1.966-.444.055-1.085.607-2.106 1.434-2.815zm18.002-.001c-1.016-.9-1.627-2.284-1.376-3.687.322-1.801 1.991-3.257 3.886-3.293h.103c2.256.043 4.235 2.241 3.91 4.558-.133.952-.653 1.82-1.381 2.446.849.739 1.413 1.816 1.42 2.994 0 0-.209.914-.88.996-.542.065-1.092-.377-1.119-.945-.007-.15-.003-.151-.007-.203-.115-1.389-1.961-2.368-3.191-1.449-.495.371-.799.972-.804 1.607 0 .082.038-.035-.029.236-.223.906-2.042 1.06-1.966-.444.055-1.087.607-2.107 1.434-2.816zm-9.005-.003c-1.014-.9-1.623-2.282-1.372-3.684.322-1.801 1.991-3.257 3.886-3.293h.103c2.256.043 4.235 2.241 3.91 4.558-.133.952-.653 1.82-1.381 2.446.85.739 1.413 1.816 1.42 2.994 0 0-.38 1.256-1.309.954-.397-.129-.68-.516-.691-.951-.003-.107-.003-.116-.006-.155-.114-1.387-1.953-2.365-3.185-1.453-.5.37-.806.977-.81 1.609-.001.167-.011.167-.029.238-.222.901-2.063 1.119-1.963-.489.066-1.071.61-2.075 1.427-2.774zm-6.462-4.977c-1.325.025-2.391 1.593-1.777 2.866.705 1.461 3.481 1.4 3.781-.56.174-1.142-.762-2.314-2.004-2.306zm9.001 0c-1.325.025-2.39 1.593-1.777 2.866.705 1.461 3.481 1.4 3.781-.56.174-1.142-.757-2.314-2.004-2.306zm9.001 0c-1.325.025-2.39 1.593-1.777 2.866.705 1.461 3.481 1.4 3.781-.56.174-1.142-.757-2.314-2.004-2.306zm-17.976-15.002v9.957c-.038.882-.48.958-.912.996-.492.043-.986-.331-1.073-.823-.013-.076-.011-.096-.015-.173v-10.957c.024-.537.462-.977 1-1h20.003c.029.001.058.002.087.004.503.066.891.486.913.996v10.957c-.026.6-.284.741-.5.866-.547.315-1.369-.034-1.485-.693-.014-.076-.012-.096-.015-.173v-9.957zm9.002 8.001h-6.001c-.988-.024-1.471-1.965 0-2h6.001c.016 0 .032.001.048.001.977.071 1.38 1.965-.048 1.999zm6-4h-12.001c-.253-.009-.327-.044-.46-.113-.768-.397-.642-1.85.46-1.888h12.001c.023.001.046.002.068.003.252.026.324.065.452.143.723.44.544 1.818-.52 1.855z"/></svg>