<svg clip-rule="evenodd" fill-rule="evenodd" height="512" stroke-linejoin="round" stroke-miterlimit="2" viewBox="0 0 24 24" width="512" xmlns="http://www.w3.org/2000/svg"><g id="Icon"><circle cx="10" cy="16.5" r=".5"/><circle cx="12" cy="8" r="1"/><path d="m2.75 9v11.5c0 .966.783 1.75 1.75 1.75h15c.967 0 1.75-.784 1.75-1.75 0-2.965 0-11.5 0-11.5 0-.414-.336-.75-.75-.75s-.75.336-.75.75v11.5c0 .138-.112.25-.25.25h-15c-.138 0-.25-.112-.25-.25v-11.5c0-.414-.336-.75-.75-.75s-.75.336-.75.75z"/><path d="m12 10.75c-1.26 0-2.468.5-3.359 1.391s-1.391 2.099-1.391 3.359v6c0 .414.336.75.75.75s.75-.336.75-.75v-6c0-.862.342-1.689.952-2.298.609-.61 1.436-.952 2.298-.952.862 0 1.689.342 2.298.952.61.609.952 1.436.952 2.298v6c0 .414.336.75.75.75s.75-.336.75-.75c0 0 0-3.216 0-6 0-1.26-.5-2.468-1.391-3.359s-2.099-1.391-3.359-1.391z"/><path d="m17.25 6v-2.75h2.5v5.25c0 .414.336.75.75.75s.75-.336.75-.75v-6c0-.414-.336-.75-.75-.75h-4c-.414 0-.75.336-.75.75v3.5c0 .414.336.75.75.75s.75-.336.75-.75z"/><path d="m2.386 10.143 9.485-5.691c.08-.048.178-.048.258 0l9.485 5.691c.355.213.816.098 1.029-.257s.098-.816-.257-1.029c0 0-7.441-4.465-9.486-5.691-.554-.333-1.246-.333-1.8 0-2.045 1.226-9.486 5.691-9.486 5.691-.355.213-.47.674-.257 1.029s.674.47 1.029.257z"/><path d="m16 3.25h5c.414 0 .75-.336.75-.75s-.336-.75-.75-.75h-5c-.414 0-.75.336-.75.75s.336.75.75.75z"/></g></svg>