<svg clip-rule="evenodd" fill-rule="evenodd" height="512" stroke-linejoin="round" stroke-miterlimit="2" viewBox="0 0 24 24" width="512" xmlns="http://www.w3.org/2000/svg"><g id="Icon"><path d="m7.25 4v12.5c0 1.243 1.007 2.25 2.25 2.25h8.5c.729 0 1.429-.29 1.945-.805.515-.516.805-1.216.805-1.945 0 0 0-6.819 0-8.586 0-.464-.184-.909-.513-1.237l-4.414-4.414c-.328-.329-.773-.513-1.237-.513-1.199 0-4.586 0-4.586 0-.729 0-1.429.29-1.945.805-.515.516-.805 1.216-.805 1.945zm1.5 12.5v-12.5c0-.332.132-.649.366-.884.235-.234.552-.366.884-.366h4.586c.066 0 .13.026.177.073 0 0 4.414 4.414 4.414 4.414.047.047.073.111.073.177v8.586c0 .332-.132.649-.366.884-.235.234-.552.366-.884.366h-8.5c-.414 0-.75-.336-.75-.75z"/><path d="m3.25 8v12.5c0 1.243 1.007 2.25 2.25 2.25h8.5c.729 0 1.429-.29 1.945-.805.515-.516.805-1.216.805-1.945 0-.671 0-1.343 0-2 0-.414-.336-.75-.75-.75h-6.5c-.199 0-.39-.079-.53-.22-.141-.14-.22-.331-.22-.53v-10.5c0-.414-.336-.75-.75-.75-.607 0-1.273 0-2 0-.729 0-1.429.29-1.945.805-.515.516-.805 1.216-.805 1.945zm1.5 12.5v-12.5c0-.332.132-.649.366-.884.235-.234.552-.366.884-.366h1.25v9.75c0 .597.237 1.169.659 1.591s.994.659 1.591.659h5.75v1.25c0 .332-.132.649-.366.884-.235.234-.552.366-.884.366h-8.5c-.414 0-.75-.336-.75-.75z"/><path d="m14.25 2.5v3.5c0 .967.783 1.75 1.75 1.75h3.5c.414 0 .75-.336.75-.75s-.336-.75-.75-.75h-3.5c-.138 0-.25-.112-.25-.25v-3.5c0-.414-.336-.75-.75-.75s-.75.336-.75.75z"/><path d="m11.5 10.75h3.5c.414 0 .75-.336.75-.75s-.336-.75-.75-.75h-3.5c-.414 0-.75.336-.75.75s.336.75.75.75z"/><path d="m11.5 14.25h5.5c.414 0 .75-.336.75-.75s-.336-.75-.75-.75h-5.5c-.414 0-.75.336-.75.75s.336.75.75.75z"/></g></svg>