<svg clip-rule="evenodd" fill-rule="evenodd" height="512" stroke-linejoin="round" stroke-miterlimit="2" viewBox="0 0 24 24" width="512" xmlns="http://www.w3.org/2000/svg"><g id="Icon"><path d="m1.25 10.098c0 5.135 3.043 7.598 5.97 9.421 1.718 1.07 3.402 1.864 4.156 2.995.139.209.373.334.624.334s.485-.125.624-.334c.754-1.131 2.438-1.925 4.156-2.995 2.927-1.823 5.97-4.286 5.97-9.421 0-5.412-4.773-8.75-10.75-8.75s-10.75 3.338-10.75 8.75zm1.5 0c0-4.589 4.182-7.25 9.25-7.25s9.25 2.661 9.25 7.25c0 4.466-2.717 6.562-5.262 8.147-1.542.96-3.023 1.769-3.988 2.703-.965-.934-2.446-1.743-3.988-2.703-2.545-1.585-5.262-3.681-5.262-8.147z"/><path d="m20.75 6.598c0-1.207-.658-2.347-1.838-3.252-1.561-1.197-4.073-1.998-6.912-1.998s-5.351.801-6.912 1.998c-1.18.905-1.838 2.045-1.838 3.252 0 1.208.658 2.347 1.838 3.252 1.561 1.197 4.073 1.998 6.912 1.998s5.351-.801 6.912-1.998c1.18-.905 1.838-2.044 1.838-3.252zm-1.5 0c0 .78-.489 1.477-1.251 2.062-1.352 1.037-3.54 1.688-5.999 1.688s-4.647-.651-5.999-1.688c-.762-.585-1.251-1.282-1.251-2.062 0-.779.489-1.477 1.251-2.062 1.352-1.037 3.54-1.688 5.999-1.688s4.647.651 5.999 1.688c.762.585 1.251 1.283 1.251 2.062z"/></g></svg>