<svg clip-rule="evenodd" fill-rule="evenodd" height="512" stroke-linejoin="round" stroke-miterlimit="2" viewBox="0 0 24 24" width="512" xmlns="http://www.w3.org/2000/svg"><g id="Icon"><path d="m21.876 6.141c.558-.52.874-1.248.874-2.01v-1.131c0-.967-.784-1.75-1.75-1.75-3.414 0-14.586 0-18 0-.966 0-1.75.783-1.75 1.75v1.131c0 .762.316 1.49.874 2.01 1.415 1.321 4.814 4.493 6.229 5.814.253.237.397.568.397.914v7.513c0 .606.314 1.17.83 1.489.516.318 1.16.347 1.703.076l3-1.5c.592-.296.967-.902.967-1.565 0-1.333 0-4.48 0-6.013 0-.346.144-.677.397-.914zm-1.023-1.096-6.229 5.814c-.558.52-.874 1.248-.874 2.01v6.013c0 .095-.054.181-.138.224l-3 1.5c-.078.038-.17.034-.243-.011-.074-.046-.119-.126-.119-.213v-7.513c0-.762-.316-1.49-.874-2.01-1.415-1.321-4.814-4.493-6.229-5.814-.253-.237-.397-.568-.397-.914v-1.131c0-.138.112-.25.25-.25h18c.138 0 .25.112.25.25v1.131c0 .346-.144.677-.397.914z"/></g></svg>