<svg clip-rule="evenodd" fill-rule="evenodd" height="512" stroke-linejoin="round" stroke-miterlimit="2" viewBox="0 0 24 24" width="512" xmlns="http://www.w3.org/2000/svg"><g id="Icon"><path d="m19 9.25c.464 0 .909-.184 1.237-.513.329-.328.513-.773.513-1.237 0-1.222 0-3.278 0-4.5 0-.966-.783-1.75-1.75-1.75h-14c-.967 0-1.75.784-1.75 1.75v4.5c0 .464.184.909.513 1.237.328.329.773.513 1.237.513h1.125s1.275 1.7 1.275 1.7c.142.189.364.3.6.3s.458-.111.6-.3l1.275-1.7h4.25s1.275 1.7 1.275 1.7c.142.189.364.3.6.3s.458-.111.6-.3l1.275-1.7zm0-1.5h-1.5c-.236 0-.458.111-.6.3l-.9 1.2s-.9-1.2-.9-1.2c-.142-.189-.364-.3-.6-.3h-5c-.236 0-.458.111-.6.3l-.9 1.2s-.9-1.2-.9-1.2c-.142-.189-.364-.3-.6-.3h-1.5c-.066 0-.13-.026-.177-.073s-.073-.111-.073-.177v-4.5c0-.138.112-.25.25-.25h14c.138 0 .25.112.25.25v4.5c0 .066-.026.13-.073.177s-.111.073-.177.073z"/><path d="m12 12.375c-1.518 0-2.75 1.232-2.75 2.75s1.232 2.75 2.75 2.75 2.75-1.232 2.75-2.75-1.232-2.75-2.75-2.75zm0 1.5c.69 0 1.25.56 1.25 1.25s-.56 1.25-1.25 1.25-1.25-.56-1.25-1.25.56-1.25 1.25-1.25z"/><path d="m18 12.25c-1.242 0-2.25 1.008-2.25 2.25s1.008 2.25 2.25 2.25 2.25-1.008 2.25-2.25-1.008-2.25-2.25-2.25zm0 1.5c.414 0 .75.336.75.75s-.336.75-.75.75-.75-.336-.75-.75.336-.75.75-.75z"/><path d="m5.5 12.25c-1.242 0-2.25 1.008-2.25 2.25s1.008 2.25 2.25 2.25 2.25-1.008 2.25-2.25-1.008-2.25-2.25-2.25zm0 1.5c.414 0 .75.336.75.75s-.336.75-.75.75-.75-.336-.75-.75.336-.75.75-.75z"/><path d="m8 22.75h8s.75-.059.75-.763c0-.078 0-.491 0-.987 0-.729-.29-1.429-.805-1.945-.516-.515-1.216-.805-1.945-.805h-4c-.729 0-1.429.29-1.945.805-.515.516-.805 1.216-.805 1.945v.987c0 .702.747.763.75.763zm7.25-1.5h-6.5v-.25c0-.332.132-.649.366-.884.235-.234.552-.366.884-.366h4c.332 0 .649.132.884.366.234.235.366.552.366.884z"/><path d="m21.461 21.249.039.001.032-.004c.144-.02.718-.139.718-.754v-.617c0-1.519-1.231-2.75-2.75-2.75-.941 0-2.059 0-3 0-.414 0-.75.336-.75.75s.336.75.75.75h3c.69 0 1.25.56 1.25 1.25v.625c0 .018.001.035.002.052l.002.025.002.016c.018.163.079.285.16.377.13.161.325.268.545.279z"/><path d="m1.961 21.249.039.001.032-.004c.144-.02.718-.139.718-.754v-.617c0-.69.56-1.25 1.25-1.25h3c.414 0 .75-.336.75-.75s-.336-.75-.75-.75c-.941 0-2.059 0-3 0-1.519 0-2.75 1.231-2.75 2.75v.617.008c0 .401.315.729.711.749z"/></g></svg>