<?xml version="1.0"?>
<svg xmlns="http://www.w3.org/2000/svg" viewBox="0 0 32 32" width="512" height="512"><g id="Layer_31" data-name="Layer 31"><path d="M28,27H27V19h1a.966.966,0,0,0,.9229-.6179,1.135,1.135,0,0,0-.2167-1.09L24.707,13.293A1,1,0,0,0,24,13H23V12a1,1,0,0,0-2,0v1H18l-1.2-1.6a1.0353,1.0353,0,0,0-1.6,0L14,13H11V9H24a1,1,0,0,0,.707-1.707l-4-4A1,1,0,0,0,20,3H12a1,1,0,0,0-.707.293l-4,4A1,1,0,0,0,8,9H9v4H8a1,1,0,0,0-.707.293l-4,4A1,1,0,0,0,4,19H9.5005l-.3.4A1,1,0,0,0,10,21h1v6H7V22a1,1,0,0,0-2,0v5H4a1,1,0,0,0,0,2H28a1,1,0,0,0,0-2ZM12.4141,5h7.1718l2,2H10.4141ZM23.5859,15l2,2H24a1,1,0,0,0,0,2h1v8H21V21h1a1,1,0,0,0,.8-1.6L19.5,15ZM16,13.6665,20,19H12ZM6.4141,17l2-2H12.5L11,17ZM13,21h6v6H13Z"/></g></svg>
