<svg clip-rule="evenodd" fill-rule="evenodd" height="512" stroke-linejoin="round" stroke-miterlimit="2" viewBox="0 0 24 24" width="512" xmlns="http://www.w3.org/2000/svg"><g id="Icon"><path d="m3.76 7.061c-1.493.801-2.51 2.377-2.51 4.189 0 2.622 2.128 4.75 4.75 4.75.917 0 1.774-.26 2.5-.711.726.451 1.583.711 2.5.711 2.622 0 4.75-2.128 4.75-4.75 0-1.812-1.017-3.388-2.51-4.189.007-.103.01-.206.01-.311 0-2.622-2.128-4.75-4.75-4.75s-4.75 2.128-4.75 4.75zm1.081 1.152c.34-.13.537-.485.468-.843-.039-.201-.059-.408-.059-.62 0-1.794 1.456-3.25 3.25-3.25s3.25 1.456 3.25 3.25c0 .212-.02.419-.059.62-.069.358.128.713.468.843 1.222.467 2.091 1.652 2.091 3.037 0 1.794-1.456 3.25-3.25 3.25-.768 0-1.474-.267-2.031-.713-.274-.22-.664-.22-.938 0-.557.446-1.263.713-2.031.713-1.794 0-3.25-1.456-3.25-3.25 0-1.385.869-2.57 2.091-3.037z"/><path d="m14.773 5.324c.535-.209 1.118-.324 1.727-.324 2.622 0 4.75 2.128 4.75 4.75s-2.128 4.75-4.75 4.75c-.295 0-.584-.027-.864-.078-.407-.075-.799.194-.874.601-.075.408.195.799.602.874.369.068.748.103 1.136.103 3.449 0 6.25-2.801 6.25-6.25s-2.801-6.25-6.25-6.25c-.802 0-1.568.151-2.273.427-.386.151-.576.586-.425.972.15.385.586.576.971.425z"/><path d="m7.75 8.25v13c0 .414.336.75.75.75s.75-.336.75-.75v-13c0-.414-.336-.75-.75-.75s-.75.336-.75.75z"/><path d="m16.25 8.75v12.5c0 .414.336.75.75.75s.75-.336.75-.75v-12.5c0-.414-.336-.75-.75-.75s-.75.336-.75.75z"/><path d="m21 20.5h-18c-.414 0-.75.336-.75.75s.336.75.75.75h18c.414 0 .75-.336.75-.75s-.336-.75-.75-.75z"/><path d="m8.886 13.393 2.5-1.5c.355-.213.47-.674.257-1.029s-.674-.47-1.029-.257l-2.5 1.5c-.355.213-.47.674-.257 1.029s.674.47 1.029.257z"/><path d="m17.469 12.836 2.5-2c.323-.259.375-.731.117-1.055-.259-.323-.731-.375-1.055-.117l-2.5 2c-.323.259-.375.731-.117 1.055.259.323.731.375 1.055.117z"/><path d="m8.886 10.107-2.5-1.5c-.355-.213-.816-.098-1.029.257s-.098.816.257 1.029l2.5 1.5c.355.213.816.098 1.029-.257s.098-.816-.257-1.029z"/></g></svg>