<svg clip-rule="evenodd" fill-rule="evenodd" height="512" stroke-linejoin="round" stroke-miterlimit="2" viewBox="0 0 24 24" width="512" xmlns="http://www.w3.org/2000/svg"><g id="Icon"><circle cx="5.5" cy="4.5" r=".75"/><circle cx="8" cy="4.5" r=".75"/><circle cx="10.5" cy="4.5" r=".75"/><path d="m22.75 4.5c0-1.795-1.455-3.25-3.25-3.25-3.842 0-11.158 0-15 0-1.795 0-3.25 1.455-3.25 3.25v15c0 1.795 1.455 3.25 3.25 3.25h15c1.795 0 3.25-1.455 3.25-3.25zm-1.5 0v15c0 .967-.783 1.75-1.75 1.75h-15c-.967 0-1.75-.783-1.75-1.75v-15c0-.967.783-1.75 1.75-1.75h15c.967 0 1.75.783 1.75 1.75z"/><path d="m19.75 18.5v-8c0-.966-.783-1.75-1.75-1.75h-12c-.967 0-1.75.784-1.75 1.75v8c0 .966.783 1.75 1.75 1.75h12c.967 0 1.75-.784 1.75-1.75zm-1.5-8v8c0 .138-.112.25-.25.25h-12c-.138 0-.25-.112-.25-.25v-8c0-.138.112-.25.25-.25h12c.138 0 .25.112.25.25z"/><path d="m22 6.25h-20c-.414 0-.75.336-.75.75s.336.75.75.75h20c.414 0 .75-.336.75-.75s-.336-.75-.75-.75z"/><path d="m5 17h14c.414 0 .75-.336.75-.75s-.336-.75-.75-.75h-14c-.414 0-.75.336-.75.75s.336.75.75.75z"/><path d="m13.75 9.5v10c0 .414.336.75.75.75s.75-.336.75-.75v-10c0-.414-.336-.75-.75-.75s-.75.336-.75.75z"/><path d="m5 13.5h14c.414 0 .75-.336.75-.75s-.336-.75-.75-.75h-14c-.414 0-.75.336-.75.75s.336.75.75.75z"/><path d="m8.75 9.5v10c0 .414.336.75.75.75s.75-.336.75-.75v-10c0-.414-.336-.75-.75-.75s-.75.336-.75.75z"/></g></svg>