<svg clip-rule="evenodd" fill-rule="evenodd" height="512" stroke-linejoin="round" stroke-miterlimit="2" viewBox="0 0 24 24" width="512" xmlns="http://www.w3.org/2000/svg"><g id="Icon"><path d="m9.267 6.972c1.508-1.508 3.958-1.508 5.466 0 .293.293.768.293 1.061 0 .293-.292.293-.768 0-1.06-2.094-2.094-5.494-2.094-7.588 0-.293.292-.293.768 0 1.06.293.293.768.293 1.061 0z"/><path d="m6.873 4.872c2.83-2.829 7.424-2.829 10.254 0 .292.293.767.293 1.06 0s.293-.768 0-1.061c-3.415-3.415-8.959-3.415-12.374 0-.293.293-.293.768 0 1.061s.768.293 1.06 0z"/><path d="m19.25 11c0-.729-.29-1.429-.805-1.945-.516-.515-1.216-.805-1.945-.805h-9c-.729 0-1.429.29-1.945.805-.515.516-.805 1.216-.805 1.945v9c0 .729.29 1.429.805 1.945.516.515 1.216.805 1.945.805h9c.729 0 1.429-.29 1.945-.805.515-.516.805-1.216.805-1.945zm-1.5 0v9c0 .332-.132.649-.366.884-.235.234-.552.366-.884.366h-9c-.332 0-.649-.132-.884-.366-.234-.235-.366-.552-.366-.884v-9c0-.332.132-.649.366-.884.235-.234.552-.366.884-.366h9c.332 0 .649.132.884.366.234.235.366.552.366.884z"/><path d="m9.5 11.455c0-.133-.053-.26-.146-.354-.094-.093-.221-.146-.354-.146h-1c-.133 0-.26.053-.354.146-.093.094-.146.221-.146.354v1c0 .133.053.26.146.354.094.093.221.146.354.146h1c.133 0 .26-.053.354-.146.093-.094.146-.221.146-.354z"/><path d="m9.5 15c0-.133-.053-.26-.146-.354-.094-.093-.221-.146-.354-.146h-1c-.133 0-.26.053-.354.146-.093.094-.146.221-.146.354v1c0 .133.053.26.146.354.094.093.221.146.354.146h1c.133 0 .26-.053.354-.146.093-.094.146-.221.146-.354z"/><path d="m9.5 18.545c0-.133-.053-.26-.146-.354-.094-.093-.221-.146-.354-.146h-1c-.133 0-.26.053-.354.146-.093.094-.146.221-.146.354v1c0 .133.053.26.146.354.094.093.221.146.354.146h1c.133 0 .26-.053.354-.146.093-.094.146-.221.146-.354z"/><path d="m13 11.455c0-.133-.053-.26-.146-.354-.094-.093-.221-.146-.354-.146h-1c-.133 0-.26.053-.354.146-.093.094-.146.221-.146.354v1c0 .133.053.26.146.354.094.093.221.146.354.146h1c.133 0 .26-.053.354-.146.093-.094.146-.221.146-.354z"/><path d="m13 15c0-.133-.053-.26-.146-.354-.094-.093-.221-.146-.354-.146h-1c-.133 0-.26.053-.354.146-.093.094-.146.221-.146.354v1c0 .133.053.26.146.354.094.093.221.146.354.146h1c.133 0 .26-.053.354-.146.093-.094.146-.221.146-.354z"/><path d="m13 18.545c0-.133-.053-.26-.146-.354-.094-.093-.221-.146-.354-.146h-1c-.133 0-.26.053-.354.146-.093.094-.146.221-.146.354v1c0 .133.053.26.146.354.094.093.221.146.354.146h1c.133 0 .26-.053.354-.146.093-.094.146-.221.146-.354z"/><path d="m16.5 11.455c0-.133-.053-.26-.146-.354-.094-.093-.221-.146-.354-.146h-1c-.133 0-.26.053-.354.146-.093.094-.146.221-.146.354v1c0 .133.053.26.146.354.094.093.221.146.354.146h1c.133 0 .26-.053.354-.146.093-.094.146-.221.146-.354z"/><path d="m16.5 15c0-.133-.053-.26-.146-.354-.094-.093-.221-.146-.354-.146h-1c-.133 0-.26.053-.354.146-.093.094-.146.221-.146.354v1c0 .133.053.26.146.354.094.093.221.146.354.146h1c.133 0 .26-.053.354-.146.093-.094.146-.221.146-.354z"/><path d="m16.5 18.545c0-.133-.053-.26-.146-.354-.094-.093-.221-.146-.354-.146h-1c-.133 0-.26.053-.354.146-.093.094-.146.221-.146.354v1c0 .133.053.26.146.354.094.093.221.146.354.146h1c.133 0 .26-.053.354-.146.093-.094.146-.221.146-.354z"/></g></svg>