<svg viewBox="0 0 32 32" xmlns="http://www.w3.org/2000/svg"><g id="behance_network_media_social_be" data-name="behance network media social be"><path d="m13.43 15.63a5 5 0 0 0 -3.43-8.63h-6a1 1 0 0 0 -1 1v16a1 1 0 0 0 1 1h7a5 5 0 0 0 2.43-9.37zm-2.43 7.37h-6v-14h5a3 3 0 0 1 0 6h-2a1 1 0 0 0 0 2h3a3 3 0 0 1 0 6z"/><path d="m23 12a6.27 6.27 0 0 0 -6 6.5 6.27 6.27 0 0 0 6 6.5 5.9 5.9 0 0 0 4.83-2.64 1 1 0 0 0 -1.66-1.12 3.83 3.83 0 0 1 -3.17 1.76 4.27 4.27 0 0 1 -4-4.5 4.27 4.27 0 0 1 4-4.5 4.14 4.14 0 0 1 3.9 3.5h-5.41a1 1 0 1 0 0 2h6.51a1 1 0 0 0 1-1 6.27 6.27 0 0 0 -6-6.5z"/><path d="m19.5 10h7a1 1 0 0 0 0-2h-7a1 1 0 0 0 0 2z"/></g></svg>