<svg clip-rule="evenodd" fill-rule="evenodd" height="512" stroke-linejoin="round" stroke-miterlimit="2" viewBox="0 0 24 24" width="512" xmlns="http://www.w3.org/2000/svg"><g id="Icon"><path d="m12.826 8.211c.011-.088-.042-.172-.126-.201-.085-.029-.178.006-.223.083-.745 1.278-2.178 3.734-2.662 4.564-.034.058-.034.13-.001.189.034.058.096.094.163.094h1.553s-.217 1.736-.356 2.849c-.011.088.042.172.126.201.085.029.178-.006.223-.083.745-1.278 2.178-3.734 2.662-4.564.034-.058.034-.13.001-.189-.034-.058-.096-.094-.163-.094-.539 0-1.553 0-1.553 0s.217-1.736.356-2.849z"/><path d="m18.25 5.5v13c0 .597-.237 1.169-.659 1.591s-.994.659-1.591.659h-8c-.597 0-1.169-.237-1.591-.659s-.659-.994-.659-1.591v-13c0-.597.237-1.169.659-1.591s.994-.659 1.591-.659h8c.597 0 1.169.237 1.591.659s.659.994.659 1.591zm-1.5 0c0-.199-.079-.39-.22-.53-.14-.141-.331-.22-.53-.22h-8c-.199 0-.39.079-.53.22-.141.14-.22.331-.22.53v13c0 .199.079.39.22.53.14.141.331.22.53.22h8c.199 0 .39-.079.53-.22.141-.14.22-.331.22-.53z"/><path d="m20.75 6.5v3.5c0 .414-.336.75-.75.75h-2.5c-.414 0-.75-.336-.75-.75v-3.5c0-.414.336-.75.75-.75h2.5c.414 0 .75.336.75.75zm-1.5.75h-1v2h1z"/><path d="m4 5.75h2.5c.414 0 .75.336.75.75v3.5c0 .414-.336.75-.75.75h-2.5c-.414 0-.75-.336-.75-.75v-3.5c0-.414.336-.75.75-.75zm.75 1.5v2h1v-2z"/><path d="m20.75 14v3.5c0 .414-.336.75-.75.75h-2.5c-.414 0-.75-.336-.75-.75v-3.5c0-.414.336-.75.75-.75h2.5c.414 0 .75.336.75.75zm-1.5.75h-1v2h1z"/><path d="m4 13.25h2.5c.414 0 .75.336.75.75v3.5c0 .414-.336.75-.75.75h-2.5c-.414 0-.75-.336-.75-.75v-3.5c0-.414.336-.75.75-.75zm.75 1.5v2h1v-2z"/><path d="m20 8.75c-.414 0-.75-.336-.75-.75s.336-.75.75-.75h2c.414 0 .75.336.75.75s-.336.75-.75.75z"/><path d="m4 7.25c.414 0 .75.336.75.75s-.336.75-.75.75h-2c-.414 0-.75-.336-.75-.75s.336-.75.75-.75z"/><path d="m20 16.25c-.414 0-.75-.336-.75-.75s.336-.75.75-.75h2c.414 0 .75.336.75.75s-.336.75-.75.75z"/><path d="m4 14.75c.414 0 .75.336.75.75s-.336.75-.75.75h-2c-.414 0-.75-.336-.75-.75s.336-.75.75-.75z"/></g></svg>