<svg clip-rule="evenodd" fill-rule="evenodd" height="512" stroke-linejoin="round" stroke-miterlimit="2" viewBox="0 0 24 24" width="512" xmlns="http://www.w3.org/2000/svg"><g id="Icon"><path d="m15.5 3.25c-1.242 0-2.25 1.008-2.25 2.25s1.008 2.25 2.25 2.25 2.25-1.008 2.25-2.25-1.008-2.25-2.25-2.25zm0 1.5c.414 0 .75.336.75.75s-.336.75-.75.75-.75-.336-.75-.75.336-.75.75-.75z"/><path d="m14.75 7v10.5c0 2.071-1.679 3.75-3.75 3.75s-3.75-1.679-3.75-3.75v-.689s.22.219.22.219c.292.293.768.293 1.06 0 .293-.292.293-.768 0-1.06l-1.5-1.5c-.214-.215-.537-.279-.817-.163s-.463.39-.463.693v2.5c0 2.899 2.351 5.25 5.25 5.25s5.25-2.35 5.25-5.25c0-4.732 0-10.5 0-10.5 0-.414-.336-.75-.75-.75s-.75.336-.75.75z"/><path d="m2.386 12.143 1.018-.611c.657-.394 1.481-.374 2.117.05l.063.042c1.16.773 2.672.773 3.832 0 .656-.438 1.512-.438 2.168 0 1.16.773 2.672.773 3.832 0 .656-.438 1.512-.438 2.168 0l.063.042c1.118.746 2.567.78 3.72.088l1.019-.611c.355-.213.47-.674.257-1.029s-.674-.47-1.029-.257l-1.018.611c-.657.393-1.481.374-2.117-.051l-.063-.041c-1.16-.774-2.672-.774-3.832 0-.656.437-1.512.437-2.168 0-1.16-.774-2.672-.774-3.832 0-.656.437-1.512.437-2.168 0l-.063-.042c-1.118-.746-2.567-.78-3.72-.088l-1.019.611c-.355.213-.47.674-.257 1.029s.674.47 1.029.257z"/><path d="m16.25 4v-2c0-.414-.336-.75-.75-.75s-.75.336-.75.75v2c0 .414.336.75.75.75s.75-.336.75-.75z"/></g></svg>