<?xml version="1.0"?>
<svg xmlns="http://www.w3.org/2000/svg" viewBox="0 0 32 32" width="512" height="512"><g id="monitor_heartbeat_beat_control" data-name="monitor, heartbeat, beat, control"><path d="M26,19a1,1,0,0,0,1-1V6a1,1,0,0,0-1-1H6A1,1,0,0,0,5,6V22a1,1,0,0,0,1,1H26a1,1,0,0,0,0-2H7V7H25V18A1,1,0,0,0,26,19Z"/><path d="M20,25H12a1,1,0,0,0,0,2h8a1,1,0,0,0,0-2Z"/><path d="M20,13a.9993.9993,0,0,0-.707.293l-1.0186,1.019-1.38-2.7593a1,1,0,0,0-1.6015-.26L13.5859,13H10a1,1,0,0,0,0,2h4a.9993.9993,0,0,0,.707-.293l1.0186-1.019,1.38,2.7593a1,1,0,0,0,.7343.54A1.0529,1.0529,0,0,0,18,17a1,1,0,0,0,.707-.293L20.4141,15h1.5625a1,1,0,1,0,0-2Z"/></g></svg>
