<svg clip-rule="evenodd" fill-rule="evenodd" stroke-linejoin="round" stroke-miterlimit="2" viewBox="0 0 32 32" xmlns="http://www.w3.org/2000/svg" xmlns:serif="http://www.serif.com/"><path id="ringing-bell-notification-" d="m0 0h32v32h-32z" fill="none"/><path d="m6.995 17.076c-.001-1.695-.005-3.391.001-5.086.043-4.63 3.988-8.88 8.847-8.988.059-.001.118-.002.176-.002 4.661.015 8.974 4.042 9.021 8.99v.057 5.044c.583.028 1.15.111 1.671.349 2.075.953 2.989 3.873 1.681 5.866-.717 1.093-1.979 1.788-3.3 1.813-2.019.013-4.037.017-6.056.017.006 1.067-.057 2.11-.675 2.88-1.486 1.849-5.296 1.014-5.35-1.853-.002-.327-.02-.684-.025-1.036-1.998-.004-3.996-.008-5.994-.008-2.458-.016-4.558-2.639-3.854-5.122.47-1.662 2.081-2.91 3.854-2.921zm7.984 8.055c-.023.537-.026 1.04.11 1.373.33.81 1.911.727 1.931-.366.002-.326-.012-.67-.018-1.003-.674-.001-1.349-.002-2.023-.004zm8.057-7.046-.001-.004c0-2.026.007-4.052 0-6.078-.028-2.994-2.136-5.843-5.012-6.701-4.135-1.233-9.008 2.085-9.023 6.748v5.026h11.028c.032.001.063.003.095.004.774.112 1.187 1.164.597 1.729-.177.169-.301.259-.692.278-4.353 0-8.706-.028-13.059 0-1.438.027-2.529 1.91-1.595 3.193.366.504.968.816 1.595.828 2.266.014 4.533.023 6.799.027.091-.021.192-.029.305-.025.056.005.111.013.164.026 1.18.001 2.36.001 3.54 0 .058-.013.12-.022.186-.026.092-.005.183.004.271.025 2.277-.003 4.555-.012 6.833-.027 1.508-.029 2.603-2.158 1.427-3.397-.374-.393-.908-.621-1.455-.624h-1.001c-.08 0-.157-.008-.232-.024-.695-.114-.752-.574-.769-.934-.001-.015-.001-.029-.001-.044z"/></svg>