<svg clip-rule="evenodd" fill-rule="evenodd" height="512" stroke-linejoin="round" stroke-miterlimit="2" viewBox="0 0 24 24" width="512" xmlns="http://www.w3.org/2000/svg"><g id="Icon"><path d="m11.25 2v20c0 .414.336.75.75.75s.75-.336.75-.75v-20c0-.414-.336-.75-.75-.75s-.75.336-.75.75z"/><path d="m22 11.25h-20c-.414 0-.75.336-.75.75s.336.75.75.75h20c.414 0 .75-.336.75-.75s-.336-.75-.75-.75z"/><path d="m4.75 12c0-4.004 3.246-7.25 7.25-7.25.414 0 .75-.336.75-.75s-.336-.75-.75-.75c-4.832 0-8.75 3.918-8.75 8.75 0 .414.336.75.75.75s.75-.336.75-.75z"/><path d="m19.25 12c0 4.004-3.246 7.25-7.25 7.25-.414 0-.75.336-.75.75s.336.75.75.75c4.832 0 8.75-3.918 8.75-8.75 0-.414-.336-.75-.75-.75s-.75.336-.75.75z"/><path d="m17.53 7.53 3-3c.293-.292.293-.768 0-1.06-.292-.293-.768-.293-1.06 0l-3 3c-.293.292-.293.768 0 1.06.292.293.768.293 1.06 0z"/><path d="m16.47 4.53 3 3c.292.293.768.293 1.06 0 .293-.292.293-.768 0-1.06l-3-3c-.292-.293-.768-.293-1.06 0-.293.292-.293.768 0 1.06z"/><path d="m7.75 18.75c0-1.38-1.12-2.5-2.5-2.5s-2.5 1.12-2.5 2.5 1.12 2.5 2.5 2.5 2.5-1.12 2.5-2.5zm-1.5 0c0 .552-.448 1-1 1s-1-.448-1-1 .448-1 1-1 1 .448 1 1z"/></g></svg>