<svg clip-rule="evenodd" fill-rule="evenodd" height="512" stroke-linejoin="round" stroke-miterlimit="2" viewBox="0 0 24 24" width="512" xmlns="http://www.w3.org/2000/svg"><g id="Icon"><path d="m9.207 11.25c-2.524 0-4.756.813-6.143 2.029-1.026.899-1.607 2.021-1.607 3.221s.581 2.322 1.607 3.221c1.387 1.216 3.619 2.029 6.143 2.029s4.756-.813 6.143-2.029c1.026-.899 1.607-2.021 1.607-3.221s-.581-2.322-1.607-3.221c-1.387-1.216-3.619-2.029-6.143-2.029zm0 1.5c2.112 0 3.993.639 5.154 1.657.674.59 1.096 1.306 1.096 2.093s-.422 1.503-1.096 2.093c-1.161 1.018-3.042 1.657-5.154 1.657s-3.993-.639-5.154-1.657c-.673-.59-1.096-1.306-1.096-2.093s.423-1.503 1.096-2.093c1.161-1.018 3.042-1.657 5.154-1.657z"/><path d="m9.207 18c-.953 0-1.806-.276-2.33-.735-.248-.218-.42-.474-.42-.765 0-.414-.336-.75-.75-.75s-.75.336-.75.75c0 .703.33 1.365.931 1.892.751.658 1.954 1.108 3.319 1.108.414 0 .75-.336.75-.75s-.336-.75-.75-.75z"/><path d="m9.207 15c.953 0 1.806.276 2.33.735.249.218.42.474.42.765 0 .414.336.75.75.75s.75-.336.75-.75c0-.703-.33-1.365-.931-1.892-.75-.658-1.954-1.108-3.319-1.108-.414 0-.75.336-.75.75s.336.75.75.75z"/><path d="m22.03 14.237c.684-.683.684-1.791 0-2.474l-2.293-2.293c-.292-.293-.767-.293-1.06 0l-1.414 1.414c-.293.293-.293.768 0 1.061l2.292 2.292c.684.684 1.792.684 2.475 0zm-1.06-1.06c-.098.097-.256.097-.354 0 0 0-1.762-1.763-1.762-1.763l.353-.353 1.763 1.762c.097.098.097.256 0 .354z"/><path d="m15.141 7.348c-1.073 1.074-1.073 2.816 0 3.889 1.073 1.074 2.816 1.074 3.889 0 1.074-1.073 1.074-2.815 0-3.889-1.073-1.073-2.816-1.073-3.889 0zm1.061 1.061c.488-.488 1.28-.488 1.768 0 .487.488.487 1.28 0 1.768-.488.488-1.28.488-1.768 0s-.488-1.28 0-1.768z"/><path d="m16.286 7.024s-3.023-3.65-6.346-4.737c-.228-.075-.479-.035-.673.106-.195.141-.31.367-.31.607v13.5c0 .414.336.75.75.75s.75-.336.75-.75v-12.382c2.555 1.262 4.671 3.858 4.671 3.858.263.32.736.366 1.055.103.32-.262.366-.735.103-1.055z"/></g></svg>