<svg clip-rule="evenodd" fill-rule="evenodd" stroke-linejoin="round" stroke-miterlimit="1.414" viewBox="0 0 32 32" xmlns="http://www.w3.org/2000/svg" xmlns:serif="http://www.serif.com/"><path id="beat-heartbeat-life" d="m0 0h32v32h-32z" fill="none"/><path d="m28.215 15.021c.721.175 1.07 1.166.502 1.708-.138.132-.314.223-.502.259-.083.016-.105.014-.189.018h-6.011c-.316-.015-.614-.153-.798-.397-.05-.066-.058-.085-.098-.157l-.922-1.844-3.242 9.727-.034.089c-.14.278-.22.335-.366.431-.523.344-1.327.054-1.522-.594l-3.035-12.14-1.032 4.126s-.056.2-.158.342c-.185.257-.491.402-.813.417h-6.011c-.775-.037-1.31-1.02-.757-1.658.146-.168.349-.285.568-.327.083-.016.105-.014.189-.018h5.228l1.814-7.255s.135-.454.515-.649c.478-.245 1.137-.023 1.366.47.035.077.039.098.063.179l3.172 12.69 2.919-8.757s.168-.44.56-.606c.463-.196 1.035.025 1.287.474l1.726 3.454h5.392s.087.003.189.018z" fill-rule="nonzero"/></svg>