<svg clip-rule="evenodd" fill-rule="evenodd" height="512" stroke-linejoin="round" stroke-miterlimit="2" viewBox="0 0 24 24" width="512" xmlns="http://www.w3.org/2000/svg"><g id="Icon"><path d="m3.307 18.776c.328.328.773.513 1.238.513.464 0 .909-.185 1.237-.513 1.706-1.706 5.907-5.907 5.907-5.907.293-.293.293-.768 0-1.06l-1.414-1.415c-.293-.293-.768-.293-1.061 0 0 0-4.201 4.201-5.907 5.907-.328.328-.512.773-.512 1.238 0 .464.184.909.512 1.237zm1.061-1.061c-.047-.047-.073-.11-.073-.176 0-.067.026-.13.073-.177l5.376-5.377s.354.354.354.354-5.377 5.376-5.377 5.376c-.047.047-.11.074-.176.074-.067 0-.13-.027-.177-.074z"/><path d="m18.916 21.249c-.199 0-.39-.079-.53-.219-.141-.141-.22-.332-.22-.531v-2c0-.597-.237-1.169-.659-1.591s-.994-.659-1.591-.659c-1.243 0-2.25 1.008-2.25 2.25v.002c0 .199-.079.389-.219.529s-.331.219-.529.219c-.001 0-.003 0-.004 0-.198 0-.389-.079-.529-.219s-.219-.33-.219-.529v-5.002c0-.414-.336-.75-.75-.75s-.75.336-.75.75v5.002c0 .596.237 1.168.658 1.59.422.421.994.658 1.59.658h.004c.596 0 1.168-.237 1.59-.658.421-.422.658-.994.658-1.59v-.002c0-.414.336-.75.75-.75.199 0 .39.079.53.22.141.14.22.331.22.53v2c0 .597.237 1.169.659 1.591s.994.659 1.591.659c1.243 0 2.25-1.007 2.25-2.25v-12c0-.414-.336-.75-.75-.75s-.75.336-.75.75v12c0 .414-.336.75-.75.75z"/><path d="m20.602 9.405c.469-.468.732-1.103.732-1.766 0-.662-.263-1.298-.732-1.766-1.122-1.123-2.769-2.77-3.892-3.892-.468-.469-1.103-.732-1.766-.732-.662 0-1.298.263-1.766.732-.001 0-.001.001-.002.001-.469.469-.732 1.105-.732 1.768s.263 1.299.732 1.768c1.122 1.122 2.767 2.767 3.889 3.889.469.469 1.105.732 1.768.732s1.299-.263 1.768-.732c0-.001.001-.001.001-.002zm-1.06-1.06-.002.001c-.187.188-.442.293-.707.293s-.519-.105-.707-.293l-3.889-3.889c-.188-.187-.293-.442-.293-.707s.105-.52.293-.707c0-.001.001-.001.001-.002.187-.187.441-.292.706-.292s.519.105.706.292l3.892 3.892c.187.188.292.441.292.706s-.105.519-.292.706z"/><path d="m15.653 14.355c.468-.468.731-1.104.731-1.766 0-.663-.263-1.298-.731-1.767-1.123-1.122-2.77-2.769-3.892-3.891-.469-.469-1.104-.732-1.767-.732-.662 0-1.298.263-1.766.732-.001 0-.001.001-.002.001-.468.469-.732 1.105-.732 1.768s.264 1.299.733 1.768c1.121 1.122 2.767 2.767 3.889 3.889.468.468 1.104.732 1.767.732s1.299-.264 1.768-.732c.001-.001.001-.001.002-.002zm-1.061-1.061-.002.002c-.187.187-.441.293-.707.293-.265 0-.519-.106-.707-.293l-3.889-3.889c-.187-.188-.293-.442-.293-.707s.106-.52.293-.707c.001-.001.001-.001.002-.002.187-.187.441-.292.705-.292.265 0 .519.105.706.292l3.892 3.892c.187.187.292.441.292.706s-.105.518-.292.705z"/><path d="m19.188 12.941c.469-.468.732-1.104.732-1.766 0-.663-.263-1.298-.732-1.767-1.608-1.608-4.403-4.402-6.012-6.012-.469-.468-1.104-.732-1.768-.732-.663 0-1.298.264-1.767.732-.001.001-.001.001-.002.002-.468.468-.731 1.104-.731 1.766 0 .663.263 1.298.731 1.767 1.609 1.608 4.403 4.402 6.012 6.011.469.469 1.105.733 1.768.733s1.299-.264 1.768-.733c0 0 .001-.001.001-.001zm-1.061-1.061-.001.002c-.188.187-.442.293-.707.293s-.52-.106-.707-.293c-1.609-1.609-4.404-4.404-6.012-6.012-.187-.187-.292-.441-.292-.706 0-.264.105-.518.292-.705 0-.001.001-.001.001-.002.188-.187.442-.293.707-.293.266 0 .52.106.708.293 1.609 1.609 4.403 4.404 6.011 6.012.188.187.293.441.293.706 0 .264-.105.518-.293.705z"/></g></svg>