<svg viewBox="0 0 32 32" xmlns="http://www.w3.org/2000/svg"><g id="Layer_39" data-name="Layer 39"><path d="m18 17a1 1 0 0 0 -1 1v4a1 1 0 0 0 1 1h4a1 1 0 0 0 1-1v-4a1 1 0 0 0 -1-1zm3 4h-2v-2h2z"/><path d="m28 25h-1v-7a1 1 0 0 0 -2 0v7h-10v-7a1 1 0 0 0 -1-1h-4a1 1 0 0 0 -1 1v7h-2v-10h1a1 1 0 0 0 0-2h-2.7192l1.5-6h18.4384l1.5 6h-14.7192a1 1 0 0 0 0 2h16a1 1 0 0 0 .97-1.2427l-2-8a1 1 0 0 0 -.97-.7573h-20a1 1 0 0 0 -.97.7573l-2 8a1 1 0 0 0 .97 1.2427h1v10h-1a1 1 0 0 0 0 2h24a1 1 0 0 0 0-2zm-17-6h2v6h-2z"/></g></svg>