<svg clip-rule="evenodd" fill-rule="evenodd" height="512" stroke-linejoin="round" stroke-miterlimit="2" viewBox="0 0 24 24" width="512" xmlns="http://www.w3.org/2000/svg"><g id="Icon"><path d="m17.25 15c0-.414-.336-.75-.75-.75h-1.125c-1.094 0-2.143.435-2.917 1.208-.773.774-1.208 1.823-1.208 2.917v1.125c0 .414.336.75.75.75h1.125c1.094 0 2.143-.435 2.917-1.208.773-.774 1.208-1.823 1.208-2.917zm-1.5.75v.375c0 .696-.277 1.364-.769 1.856s-1.16.769-1.856.769h-.375v-.375c0-.696.277-1.364.769-1.856s1.16-.769 1.856-.769z"/><path d="m7.5 14.25c-.414 0-.75.336-.75.75v1.125c0 1.094.435 2.143 1.208 2.917.774.773 1.823 1.208 2.917 1.208h1.125c.414 0 .75-.336.75-.75v-1.125c0-1.094-.435-2.143-1.208-2.917-.774-.773-1.823-1.208-2.917-1.208zm.75 1.5h.375c.696 0 1.364.277 1.856.769s.769 1.16.769 1.856v.375h-.375c-.696 0-1.364-.277-1.856-.769s-.769-1.16-.769-1.856z"/><path d="m12 5.416c-1.242 0-2.25 1.008-2.25 2.25s1.008 2.25 2.25 2.25 2.25-1.008 2.25-2.25-1.008-2.25-2.25-2.25zm0 1.5c.414 0 .75.336.75.75s-.336.75-.75.75-.75-.336-.75-.75.336-.75.75-.75z"/><path d="m8.928 3.492c-1.406.021-2.686.966-3.068 2.39-.346 1.292.145 2.612 1.14 3.384-.38 1.381.2 2.898 1.497 3.647 1.135.655 2.504.541 3.503-.18.998.721 2.368.835 3.503.18 1.297-.749 1.877-2.266 1.497-3.647.995-.772 1.486-2.092 1.14-3.384-.382-1.424-1.662-2.37-3.068-2.39-.416-1.3-1.635-2.242-3.072-2.242s-2.656.942-3.072 2.242zm6.921 4.741c-.203.062-.37.208-.46.402-.098.214-.09.462.021.669.439.817.152 1.843-.657 2.31-.708.408-1.587.258-2.122-.315l-.034-.043c-.138-.18-.351-.287-.578-.292-.227-.004-.444.094-.59.268-.528.628-1.447.806-2.182.382-.757-.438-1.058-1.364-.732-2.15.011-.021.036-.066.062-.109.112-.183.14-.404.078-.609-.063-.205-.209-.373-.404-.463-.748-.345-1.162-1.19-.942-2.012.233-.869 1.09-1.405 1.96-1.254.003.001.035.008.09.021.215.05.441.004.618-.127s.287-.333.302-.553c.06-.898.808-1.608 1.721-1.608.887 0 1.619.671 1.714 1.533.002.01.011.065.028.154.036.201.153.379.324.491.17.113.38.151.579.106.898-.203 1.805.339 2.046 1.237.21.785-.157 1.59-.842 1.962zm-.031.016-.026.013c.005-.002.014-.007.026-.013zm.069-.027c.007-.002.015-.004.024-.006z"/><path d="m11.25 13v9c0 .414.336.75.75.75s.75-.336.75-.75v-9c0-.414-.336-.75-.75-.75s-.75.336-.75.75z"/></g></svg>