<svg clip-rule="evenodd" fill-rule="evenodd" height="512" stroke-linejoin="round" stroke-miterlimit="2" viewBox="0 0 24 24" width="512" xmlns="http://www.w3.org/2000/svg"><g id="Icon"><path d="m22.75 10v-5c0-2.071-1.679-3.75-3.75-3.75-3.776 0-10.224 0-14 0-2.071 0-3.75 1.679-3.75 3.75v14c0 2.071 1.679 3.75 3.75 3.75h5c.414 0 .75-.336.75-.75s-.336-.75-.75-.75h-5c-1.243 0-2.25-1.007-2.25-2.25v-14c0-1.243 1.007-2.25 2.25-2.25h14c1.243 0 2.25 1.007 2.25 2.25v5c0 .414.336.75.75.75s.75-.336.75-.75z"/><path d="m22 6.25h-20c-.414 0-.75.336-.75.75s.336.75.75.75h20c.414 0 .75-.336.75-.75s-.336-.75-.75-.75z"/><circle cx="12.75" cy="4.5" r=".75"/><circle cx="15.5" cy="4.5" r=".75"/><circle cx="18.25" cy="4.5" r=".75"/><circle cx="16" cy="18.75" r=".75"/><path d="m16 9.25c-3.725 0-6.75 3.025-6.75 6.75s3.025 6.75 6.75 6.75 6.75-3.025 6.75-6.75-3.025-6.75-6.75-6.75zm0 1.5c2.898 0 5.25 2.352 5.25 5.25s-2.352 5.25-5.25 5.25-5.25-2.352-5.25-5.25 2.352-5.25 5.25-5.25z"/><path d="m15.25 13v3.5c0 .414.336.75.75.75s.75-.336.75-.75v-3.5c0-.414-.336-.75-.75-.75s-.75.336-.75.75z"/></g></svg>