<svg clip-rule="evenodd" fill-rule="evenodd" height="512" stroke-linejoin="round" stroke-miterlimit="2" viewBox="0 0 24 24" width="512" xmlns="http://www.w3.org/2000/svg"><g id="Icon"><path d="m13.25 3c0-.464-.184-.909-.513-1.237-.328-.329-.773-.513-1.237-.513-1.732 0-5.268 0-7 0-.464 0-.909.184-1.237.513-.329.328-.513.773-.513 1.237v5.5c0 .995.395 1.948 1.098 2.652.704.703 1.657 1.098 2.652 1.098h3c.995 0 1.948-.395 2.652-1.098.703-.704 1.098-1.657 1.098-2.652zm-1.5 0v5.5c0 .597-.237 1.169-.659 1.591s-.994.659-1.591.659h-3c-.597 0-1.169-.237-1.591-.659s-.659-.994-.659-1.591v-5.5c0-.066.026-.13.073-.177s.111-.073.177-.073h7c.066 0 .13.026.177.073s.073.111.073.177z"/><path d="m10.75 11.5c0-.414-.336-.75-.75-.75h-4c-.414 0-.75.336-.75.75v2.5c0 .414.336.75.75.75h4c.414 0 .75-.336.75-.75zm-1.5.75v1h-2.5v-1z"/><path d="m12 22.75h8c.729 0 1.429-.29 1.945-.805.515-.516.805-1.216.805-1.945 0-.967-.784-1.75-1.75-1.75h-7c-.414 0-.75.336-.75.75s.336.75.75.75h7c.138 0 .25.112.25.25 0 .332-.132.649-.366.884-.235.234-.552.366-.884.366h-8c-.414 0-.75.336-.75.75s.336.75.75.75z"/><path d="m13.854 14.783c-.11-.876-.854-1.533-1.737-1.533-1.896 0-6.338 0-8.234 0-.883 0-1.627.657-1.737 1.533-.182 1.46-.548 4.39-.75 6-.062.498.093.999.425 1.375s.81.592 1.312.592h9.734c.502 0 .98-.216 1.312-.592s.487-.877.425-1.375zm-1.489.186.75 6c.009.071-.013.143-.06.196-.048.054-.116.085-.188.085h-9.734c-.072 0-.14-.031-.188-.085-.047-.053-.069-.125-.06-.196l.75-6c.015-.125.122-.219.248-.219h8.234c.126 0 .233.094.248.219z"/><path d="m3.5 6.25h9c.414 0 .75-.336.75-.75s-.336-.75-.75-.75h-9c-.414 0-.75.336-.75.75s.336.75.75.75z"/><path d="m7 18.75h2c.414 0 .75-.336.75-.75s-.336-.75-.75-.75h-2c-.414 0-.75.336-.75.75s.336.75.75.75z"/></g></svg>