<svg clip-rule="evenodd" fill-rule="evenodd" height="512" stroke-linejoin="round" stroke-miterlimit="2" viewBox="0 0 24 24" width="512" xmlns="http://www.w3.org/2000/svg"><g id="Icon"><path d="m20 22.75h-9.5c-.729 0-1.429-.29-1.945-.805-.515-.516-.805-1.216-.805-1.945v-5.5c0-.729.29-1.429.805-1.945.516-.515 1.216-.805 1.945-.805h9.5c.729 0 1.429.29 1.945.805.515.516.805 1.216.805 1.945v5.5c0 .729-.29 1.429-.805 1.945-.516.515-1.216.805-1.945.805zm0-1.5c.332 0 .649-.132.884-.366.234-.235.366-.552.366-.884v-5.5c0-.332-.132-.649-.366-.884-.235-.234-.552-.366-.884-.366h-9.5c-.332 0-.649.132-.884.366-.234.235-.366.552-.366.884v5.5c0 .332.132.649.366.884.235.234.552.366.884.366z"/><path d="m11.75 19.5c0 .414-.336.75-.75.75s-.75-.336-.75-.75v-3.002c0-.596.237-1.168.658-1.59.422-.421.994-.658 1.59-.658h.002c1.243 0 2.25 1.007 2.25 2.25v3c0 .414-.336.75-.75.75s-.75-.336-.75-.75v-3c0-.414-.336-.75-.75-.75h-.002c-.198 0-.389.079-.529.219s-.219.331-.219.529z"/><path d="m15.75 19.5v-4.5c0-.414.336-.75.75-.75h1.5c1.243 0 2.25 1.007 2.25 2.25v1.5c0 1.243-1.007 2.25-2.25 2.25h-1.5c-.414 0-.75-.336-.75-.75zm1.5-.75h.75c.414 0 .75-.336.75-.75v-1.5c0-.414-.336-.75-.75-.75h-.75z"/><path d="m14 16.75c.414 0 .75.336.75.75s-.336.75-.75.75h-3c-.414 0-.75-.336-.75-.75s.336-.75.75-.75z"/><path d="m1.603 12.636c-.352-.219-.458-.682-.239-1.033.219-.352.682-.458 1.033-.239l4 2.5c.352.219.458.682.239 1.033-.219.352-.682.458-1.033.239z"/><path d="m4.573 6.51c-.412.04-.779-.261-.819-.673-.041-.412.261-.78.673-.82l2.751-.27c1.003-.098 1.98.36 2.545 1.195l1.782 2.63c.176.26.442.444.748.516l.545.129c.349.082.716.01 1.009-.197.292-.207.482-.53.52-.886l.138-1.279c.086-.798.517-1.519 1.179-1.973l1.932-1.325c.341-.235.808-.148 1.042.194.235.341.148.808-.194 1.043l-1.932 1.325c-.3.206-.496.534-.535.896l-.138 1.28c-.085.784-.502 1.494-1.146 1.95-.644.455-1.452.613-2.22.431l-.545-.128c-.671-.159-1.258-.563-1.645-1.135l-1.782-2.63c-.257-.379-.7-.588-1.157-.543l-2.751.27z"/><path d="m6.451 19.399c.331.249.397.719.149 1.05-.249.331-.72.398-1.051.149-2.61-1.962-4.299-5.084-4.299-8.598 0-5.933 4.817-10.75 10.75-10.75 5.571 0 10.157 4.246 10.697 9.676.041.412-.26.779-.672.82s-.78-.26-.821-.672c-.464-4.671-4.411-8.324-9.204-8.324-5.105 0-9.25 4.145-9.25 9.25 0 3.024 1.454 5.711 3.701 7.399z"/></g></svg>