<svg clip-rule="evenodd" fill-rule="evenodd" stroke-linejoin="round" stroke-miterlimit="1.414" viewBox="0 0 32 32" xmlns="http://www.w3.org/2000/svg" xmlns:serif="http://www.serif.com/"><path id="towel-sport-rest-break" d="m0 0h32v32h-32z" fill="none"/><path d="m5 21v2h11c.023.001.045.002.068.002.798.082.834.425.911.795.122.584-.274 1.179-.979 1.203h-11v2h14v-6zm0-2h14v-11.003c.007-1.065.353-2.112.981-2.972l.019-.025c-4.012 0-8.025-.025-12.037 0-.208.004-.25.011-.37.028-1.41.193-2.584 1.495-2.593 2.975v3.997c-.037.775-1.036 1.292-1.655.756-.21-.182-.325-.33-.345-.756v-4.003c.016-2.61 2.263-4.98 4.997-4.997h16.003.064c2.591.05 4.919 2.276 4.936 4.997v14.003c-.022.533-.46.978-1 1h-4c-.542-.022-.587-.161-.736-.323-.513-.558-.124-1.641.736-1.677h3c0-4.346.027-8.693 0-13.039-.004-.216-.012-.259-.029-.382-.197-1.404-1.477-2.568-2.972-2.579-.025.001-.6.016-1.079.201-1.119.432-1.912 1.566-1.92 2.802v19.997c-.025.536-.46.975-1 1h-16c-.536-.025-.975-.46-1-1v-12c.029-.616.6-1.094 1.236-.972.438.129.742.513.764.972z" fill-rule="nonzero"/></svg>