<svg clip-rule="evenodd" fill-rule="evenodd" height="512" stroke-linejoin="round" stroke-miterlimit="2" viewBox="0 0 24 24" width="512" xmlns="http://www.w3.org/2000/svg"><g id="Icon"><path d="m12 1.25c-5.933 0-10.75 4.817-10.75 10.75s4.817 10.75 10.75 10.75 10.75-4.817 10.75-10.75-4.817-10.75-10.75-10.75zm0 1.5c5.105 0 9.25 4.145 9.25 9.25s-4.145 9.25-9.25 9.25-9.25-4.145-9.25-9.25 4.145-9.25 9.25-9.25z"/><path d="m11.536 9.547 1.193-1.193c.806-.805 2.111-.805 2.917 0 .805.806.805 2.111 0 2.917 0 0-1.193 1.193-1.193 1.193-.293.293-.293.768 0 1.061.292.292.768.292 1.06 0l1.194-1.194c1.391-1.391 1.391-3.646 0-5.038-1.392-1.391-3.647-1.391-5.038 0 0 0-1.194 1.194-1.194 1.194-.292.292-.292.768 0 1.06.293.293.768.293 1.061 0z"/><path d="m8.487 10.475-1.194 1.194c-1.391 1.391-1.391 3.646 0 5.038 1.392 1.391 3.647 1.391 5.038 0 0 0 1.194-1.194 1.194-1.194.292-.292.292-.768 0-1.06-.293-.293-.768-.293-1.061 0l-1.193 1.193c-.806.805-2.111.805-2.917 0-.805-.806-.805-2.111 0-2.917 0 0 1.193-1.193 1.193-1.193.293-.293.293-.768 0-1.061-.292-.292-.768-.292-1.06 0z"/><path d="m13.061 9.879-3.182 3.182c-.293.292-.293.768 0 1.06.292.293.768.293 1.06 0l3.182-3.182c.293-.292.293-.768 0-1.06-.292-.293-.768-.293-1.06 0z"/></g></svg>