<svg clip-rule="evenodd" fill-rule="evenodd" height="512" stroke-linejoin="round" stroke-miterlimit="2" viewBox="0 0 24 24" width="512" xmlns="http://www.w3.org/2000/svg"><g id="Icon"><path d="m14.75 8c0-1.518-1.232-2.75-2.75-2.75s-2.75 1.232-2.75 2.75 1.232 2.75 2.75 2.75 2.75-1.232 2.75-2.75zm-1.5 0c0 .69-.56 1.25-1.25 1.25s-1.25-.56-1.25-1.25.56-1.25 1.25-1.25 1.25.56 1.25 1.25z"/><path d="m9.645 16.357c-2.49.232-4.498.843-5.485 1.585-.625.469-.91 1.019-.91 1.558 0 .622.398 1.274 1.256 1.791 1.406.847 4.232 1.459 7.494 1.459s6.088-.612 7.494-1.459c.858-.517 1.256-1.169 1.256-1.791 0-.539-.285-1.089-.91-1.558-.987-.742-2.995-1.353-5.485-1.585-.412-.038-.778.265-.816.677s.265.778.677.816c1.858.173 3.418.55 4.366 1.065.204.111.375.226.505.35.084.08.163.146.163.235 0 .092-.083.16-.171.243-.213.199-.528.377-.917.543-1.39.592-3.634.964-6.162.964s-4.772-.372-6.162-.964c-.389-.166-.704-.344-.917-.543-.088-.083-.171-.151-.171-.243 0-.089.079-.155.163-.235.13-.124.301-.239.505-.35.948-.515 2.508-.892 4.366-1.065.412-.038.715-.404.677-.816s-.404-.715-.816-.677z"/><path d="m18.75 8c0-3.725-3.025-6.75-6.75-6.75s-6.75 3.025-6.75 6.75c0 1.675.613 3.46 1.477 5.115 1.243 2.382 2.992 4.496 3.98 5.599.001 0 .001.001.002.002.33.365.799.574 1.291.574s.961-.208 1.291-.573c.001-.001.002-.002.003-.003.987-1.103 2.736-3.217 3.979-5.599.864-1.655 1.477-3.44 1.477-5.115zm-1.5 0c0 1.451-.559 2.988-1.307 4.421-1.175 2.251-2.831 4.247-3.765 5.291-.046.05-.11.078-.178.078-.067 0-.132-.029-.177-.079-.935-1.043-2.591-3.039-3.766-5.29-.748-1.433-1.307-2.97-1.307-4.421 0-2.898 2.352-5.25 5.25-5.25s5.25 2.352 5.25 5.25z"/></g></svg>