<?xml version="1.0"?>
<svg xmlns="http://www.w3.org/2000/svg" viewBox="0 0 32 32" width="512" height="512"><g id="Layer_28" data-name="Layer 28"><path d="M10,11.6176a3.9464,3.9464,0,0,0,6,0,3.9464,3.9464,0,0,0,6,0A3.9831,3.9831,0,0,0,29,9V4a1,1,0,0,0-1-1H4A1,1,0,0,0,3,4V9a3.9867,3.9867,0,0,0,2,3.4435V27H4a1,1,0,0,0,0,2H28a1,1,0,0,0,0-2H27V16a1,1,0,0,0-2,0V27H21V18a1,1,0,0,0-1-1H12a1,1,0,0,0-1,1v9H7V13A3.9747,3.9747,0,0,0,10,11.6176ZM13,19h6v8H13ZM27,9a2,2,0,0,1-4,0V5h4ZM21,9a2,2,0,0,1-4,0V5h4ZM15,9a2,2,0,0,1-4,0V5h4ZM5,5H9V9A2,2,0,0,1,5,9Z"/></g></svg>
