<?xml version="1.0"?>
<svg xmlns="http://www.w3.org/2000/svg" viewBox="0 0 32 32" width="512" height="512"><g id="pencil_write_pen" data-name="pencil, write, pen"><path d="M28.707,9.293l-6-6a.9994.9994,0,0,0-1.414,0l-3,3a.9994.9994,0,0,0,0,1.414L23.5859,13,10.7119,25.874l-5.4971.9112.9112-5.4971L16.707,10.707a1,1,0,0,0-1.414-1.414L4.4849,20.1006a.9975.9975,0,0,0-.2793.5439L3.0137,27.8369A1,1,0,0,0,4,29a1.031,1.031,0,0,0,.1636-.0137l7.1919-1.1924a.9987.9987,0,0,0,.5434-.2793L25.707,13.707l3-3A.9994.9994,0,0,0,28.707,9.293ZM25,11.5859,20.4141,7,22,5.4141,26.5859,10Z"/></g></svg>
