<svg clip-rule="evenodd" fill-rule="evenodd" height="512" stroke-linejoin="round" stroke-miterlimit="2" viewBox="0 0 24 24" width="512" xmlns="http://www.w3.org/2000/svg"><g id="Icon"><path d="m6.318 2.75h-2.636l-.935 9.821c-.04.412-.406.715-.818.676-.412-.04-.715-.406-.676-.818l.957-10.048c.061-.641.6-1.131 1.245-1.131h3.09c.645 0 1.184.49 1.245 1.131l.623 6.548c.04.412-.263.778-.675.818-.412.039-.779-.264-.818-.676z"/><path d="m11.25 16v3c0 .414-.336.75-.75.75h-5c-.414 0-.75-.336-.75-.75v-3c0-.414.336-.75.75-.75h5c.414 0 .75.336.75.75zm-1.5.75h-3.5v1.5h3.5z"/><path d="m19.25 16v3c0 .414-.336.75-.75.75h-5c-.414 0-.75-.336-.75-.75v-3c0-.414.336-.75.75-.75h5c.414 0 .75.336.75.75zm-1.5.75h-3.5v1.5h3.5z"/><path d="m22.75 8.5v12.5c0 .464-.184.909-.513 1.237-.328.329-.773.513-1.237.513h-18c-.464 0-.909-.184-1.237-.513-.329-.328-.513-.773-.513-1.237v-8.5c0-.26.135-.502.357-.639l6.5-4c.231-.142.522-.148.759-.016.237.133.384.383.384.655v2.708l5.878-3.359c.232-.133.517-.132.748.002.232.135.374.382.374.649v2.658l5.357-3.297c.231-.142.522-.148.759-.016.237.133.384.383.384.655zm-1.5 1.342-5.357 3.297c-.231.142-.522.148-.759.016-.237-.133-.384-.383-.384-.655v-2.708l-5.878 3.359c-.232.133-.517.132-.748-.002-.232-.135-.374-.382-.374-.649v-2.658l-5 3.077v8.081c0 .066.026.13.073.177s.111.073.177.073h18c.066 0 .13-.026.177-.073s.073-.111.073-.177z"/></g></svg>