<svg clip-rule="evenodd" fill-rule="evenodd" height="512" stroke-linejoin="round" stroke-miterlimit="2" viewBox="0 0 24 24" width="512" xmlns="http://www.w3.org/2000/svg"><g id="Icon"><path d="m14.188 1.984c-.059-.363-.373-.629-.74-.629h-2.896c-.367 0-.681.266-.74.629l-.337 2.054c-.454.144-.896.327-1.32.547.001 0-1.69-1.215-1.69-1.215-.299-.214-.708-.18-.968.079l-2.048 2.048c-.259.26-.293.669-.079.968l1.215 1.691c-.22.423-.403.864-.547 1.319 0 0-2.054.337-2.054.337-.363.059-.629.373-.629.74v2.896c0 .367.266.681.629.74l2.054.337c.144.454.327.896.547 1.32 0-.001-1.215 1.69-1.215 1.69-.214.299-.18.708.079.968l2.048 2.048c.26.259.669.293.968.079l1.691-1.215c.423.22.864.403 1.319.547 0 0 .337 2.054.337 2.054.059.363.373.629.74.629h2.896c.367 0 .681-.266.74-.629l.337-2.054c.454-.144.896-.327 1.32-.547-.001 0 1.69 1.215 1.69 1.215.299.214.708.18.968-.079l2.048-2.048c.259-.26.293-.669.079-.968l-1.215-1.691c.22-.423.403-.864.547-1.319 0 0 2.054-.337 2.054-.337.363-.059.629-.373.629-.74v-2.896c0-.367-.266-.681-.629-.74l-2.054-.337c-.144-.454-.327-.896-.547-1.32 0 .001 1.215-1.69 1.215-1.69.214-.299.18-.708-.079-.968l-2.048-2.048c-.26-.259-.669-.293-.968-.079l-1.691 1.215c-.423-.22-.864-.403-1.319-.547 0 0-.337-2.054-.337-2.054zm-1.377.871.311 1.895c.048.295.267.533.556.606.645.163 1.262.419 1.833.759.257.154.58.14.822-.034l1.56-1.121s1.147 1.147 1.147 1.147-1.121 1.56-1.121 1.56c-.174.242-.188.565-.034.822.34.571.596 1.188.759 1.833.073.289.311.508.606.556l1.895.311v1.622s-1.895.311-1.895.311c-.295.048-.533.267-.606.556-.163.645-.419 1.262-.759 1.833-.154.257-.14.58.034.822l1.121 1.56s-1.147 1.147-1.147 1.147-1.56-1.121-1.56-1.121c-.242-.174-.565-.188-.822-.034-.571.34-1.188.596-1.833.759-.289.073-.508.311-.556.606l-.311 1.895h-1.622s-.311-1.895-.311-1.895c-.048-.295-.267-.533-.556-.606-.645-.163-1.262-.419-1.833-.759-.257-.154-.58-.14-.822.034l-1.56 1.121s-1.147-1.147-1.147-1.147 1.121-1.56 1.121-1.56c.174-.242.188-.565.034-.822-.34-.571-.596-1.188-.759-1.833-.073-.289-.311-.508-.606-.556l-1.895-.311v-1.622s1.895-.311 1.895-.311c.295-.048.533-.267.606-.556.163-.645.419-1.262.759-1.833.154-.257.14-.58-.034-.822l-1.121-1.56s1.147-1.147 1.147-1.147 1.56 1.121 1.56 1.121c.242.174.565.188.822.034.571-.34 1.188-.596 1.833-.759.289-.073.508-.311.556-.606l.311-1.895h1.622z"/><path d="m12 7.233c-2.631 0-4.767 2.136-4.767 4.767s2.136 4.767 4.767 4.767 4.767-2.136 4.767-4.767-2.136-4.767-4.767-4.767zm0 1.5c1.803 0 3.267 1.464 3.267 3.267s-1.464 3.267-3.267 3.267-3.267-1.464-3.267-3.267 1.464-3.267 3.267-3.267z"/></g></svg>