<svg clip-rule="evenodd" fill-rule="evenodd" height="512" stroke-linejoin="round" stroke-miterlimit="2" viewBox="0 0 24 24" width="512" xmlns="http://www.w3.org/2000/svg"><g id="Icon"><path d="m1.47 11.469c-.141.141-.22.332-.22.531s.079.39.22.531l1.465 1.464c2.404 2.404 5.665 3.755 9.065 3.755s6.661-1.351 9.065-3.756c0 .001 1.465-1.463 1.465-1.463.141-.141.22-.332.22-.531s-.079-.39-.22-.531l-1.465-1.464c-2.404-2.404-5.665-3.755-9.065-3.755s-6.661 1.351-9.065 3.756c0-.001-1.465 1.463-1.465 1.463zm1.591.531.934-.934c2.124-2.123 5.003-3.316 8.005-3.316s5.881 1.193 8.005 3.316l.934.934-.934.934c-2.124 2.123-5.003 3.316-8.005 3.316s-5.881-1.193-8.005-3.316z"/><path d="m15.75 12c0-2.07-1.68-3.75-3.75-3.75s-3.75 1.68-3.75 3.75 1.68 3.75 3.75 3.75 3.75-1.68 3.75-3.75zm-1.5 0c0 1.242-1.008 2.25-2.25 2.25s-2.25-1.008-2.25-2.25 1.008-2.25 2.25-2.25 2.25 1.008 2.25 2.25z"/></g></svg>