<svg height="512" viewBox="0 0 32 32" width="512" xmlns="http://www.w3.org/2000/svg"><g id="ram_memory" data-name="ram, memory"><path d="m28 14a1 1 0 0 0 1-1v-4a1 1 0 0 0 -1-1h-16a1 1 0 0 0 0 2h15l-.001 2.1719a3.0006 3.0006 0 0 0 .001 5.6572v2.1709h-22v-2.1719a3 3 0 0 0 0-5.6572v-2.1709h3a1 1 0 0 0 0-2h-4a1 1 0 0 0 -1 1.001l.002 4a1 1 0 0 0 1 .999 1 1 0 0 1 -.002 2 1 1 0 0 0 -1 1v4a1 1 0 0 0 1 1h1v1a1 1 0 0 0 2 0v-1h2v1a1 1 0 0 0 2 0v-1h2v1a1 1 0 0 0 2 0v-1h6v1a1 1 0 0 0 2 0v-1h2v1a1 1 0 0 0 2 0v-1h1a1 1 0 0 0 1-1v-4a1 1 0 0 0 -1-1 1 1 0 1 1 0-2z"/></g></svg>