<svg clip-rule="evenodd" fill-rule="evenodd" stroke-linejoin="round" stroke-miterlimit="2" viewBox="0 0 32 32" xmlns="http://www.w3.org/2000/svg" xmlns:serif="http://www.serif.com/"><path id="pencil-write-pen" d="m0 0h32v32h-32z" fill="none"/><path d="m23.577 13.003-5.292-5.292c-.13-.137-.154-.188-.199-.284-.174-.372-.142-.768.199-1.13l2.999-2.999c.199-.188.455-.293.736-.293.255.015.493.118.678.293l6 5.999c.129.137.154.188.199.284.173.373.141.768-.199 1.13l-3 2.999-13.806 13.806c-.249.228-.34.236-.543.279l-7.192 1.193c-.642.076-1.231-.47-1.149-1.15l1.192-7.192c.041-.193.059-.302.279-.543l10.806-10.806c.327-.299.338-.319.819-.287.753.119 1.141 1.104.595 1.701l-10.579 10.579-.911 5.496 5.496-.911zm-3.171-5.999 4.585 4.585 1.586-1.585-4.586-4.585c-.528.528-1.057 1.057-1.585 1.585z"/></svg>