<svg clip-rule="evenodd" fill-rule="evenodd" stroke-linejoin="round" stroke-miterlimit="1.414" viewBox="0 0 32 32" xmlns="http://www.w3.org/2000/svg" xmlns:serif="http://www.serif.com/"><path id="add-friend-contact" d="m0 0h32v32h-32z" fill="none"/><path d="m17.126 18.94c.544.046.649.263.935.609 1.282 1.547 2.016 3.574 1.93 5.583-.068 1.579-1.774 2.665-3.387 3.18-3.302 1.055-7.266.996-10.049-.877-.896-.603-1.551-1.538-1.494-2.803.085-1.906.789-3.783 2.047-5.23.432-.496 1.363-.581 1.718.096.328.626-.322 1.224-.818 2.037-.618 1.013-.943 2.203-.963 3.38-.009.524.522.843 1.015 1.099 1.794.928 3.96 1.05 6.039.801 1.317-.159 2.75-.391 3.669-1.353.266-.278.238-.702.203-1.075-.126-1.37-.674-2.702-1.583-3.729l-.095-.109c-.291-.399-.23-.533-.205-.734.051-.423.402-.792.825-.863.135-.023.168-.013.213-.012zm-4.571-9.962c2.299.021 4.443 1.791 4.865 4.069.575 3.103-2.355 6.448-5.808 5.808-2.02-.374-3.718-2.129-4.017-4.171-.404-2.756 1.841-5.639 4.832-5.706.042 0 .085-.001.128 0zm-.052 1.992c-1.683.016-3.172 1.667-2.942 3.388.188 1.407 1.507 2.579 2.942 2.588 1.421.009 2.767-1.124 2.976-2.551.242-1.652-1.1-3.385-2.898-3.425-.026 0-.052 0-.078 0zm8.486-3.985v-2.988c.005-.182.022-.232.056-.329.123-.351.455-.619.829-.661.108-.012.133-.005.167-.004.181.015.231.035.326.074.326.135.568.454.608.809.006.049.005.061.007.111v2.988h2.988c.018.001.037.001.056.002.732.062 1.23 1.05.687 1.658-.187.209-.378.322-.743.333h-2.988v2.988c-.022.758-1.035 1.302-1.66.743-.21-.188-.322-.378-.333-.743v-2.988h-2.988c-.229-.007-.303-.037-.432-.099-.611-.294-.74-1.287-.144-1.71.121-.086.262-.145.409-.17.055-.009.111-.012.167-.014z" fill-rule="nonzero"/></svg>