<svg clip-rule="evenodd" fill-rule="evenodd" height="512" stroke-linejoin="round" stroke-miterlimit="2" viewBox="0 0 24 24" width="512" xmlns="http://www.w3.org/2000/svg"><g id="Icon"><path d="m18 13c0-.464-.184-.909-.513-1.237-.328-.329-.773-.513-1.237-.513h-2.5c-.414 0-.75.336-.75.75v5c0 .414.336.75.75.75h2.5c.464 0 .909-.184 1.237-.513.329-.328.513-.773.513-1.237zm-1.5 0v3c0 .066-.026.13-.073.177s-.111.073-.177.073h-1.75v-3.5h1.75c.066 0 .13.026.177.073s.073.111.073.177z"/><path d="m14.5 17v-9c0-.967-.784-1.75-1.75-1.75h-1.5c-.966 0-1.75.783-1.75 1.75v9c0 .414.336.75.75.75h3.5c.414 0 .75-.336.75-.75zm-1.5-9v8.25h-2v-8.25c0-.138.112-.25.25-.25h1.5c.138 0 .25.112.25.25z"/><path d="m11 10c0-.414-.336-.75-.75-.75h-2.5c-.464 0-.909.184-1.237.513-.329.328-.513.773-.513 1.237v5c0 .464.184.909.513 1.237.328.329.773.513 1.237.513h2.5c.414 0 .75-.336.75-.75zm-1.5.75v5.5h-1.75c-.066 0-.13-.026-.177-.073s-.073-.111-.073-.177v-5c0-.066.026-.13.073-.177s.111-.073.177-.073z"/><path d="m22.75 5c0-2.071-1.679-3.75-3.75-3.75h-14c-2.071 0-3.75 1.679-3.75 3.75v14c0 2.071 1.679 3.75 3.75 3.75h14c2.071 0 3.75-1.679 3.75-3.75zm-1.5 0v14c0 1.243-1.007 2.25-2.25 2.25h-14c-1.243 0-2.25-1.007-2.25-2.25v-14c0-1.243 1.007-2.25 2.25-2.25h14c1.243 0 2.25 1.007 2.25 2.25z"/><path d="m18.5 16.25h-13c-.414 0-.75.336-.75.75s.336.75.75.75h13c.414 0 .75-.336.75-.75s-.336-.75-.75-.75z"/></g></svg>