<svg clip-rule="evenodd" fill-rule="evenodd" height="512" stroke-linejoin="round" stroke-miterlimit="2" viewBox="0 0 24 24" width="512" xmlns="http://www.w3.org/2000/svg"><g id="Icon"><path d="m12 4.75c-4.28 0-7.75 3.47-7.75 7.75 0 .482 0 .907.002 1.241 0 .791.536 1.486 1.305 1.687.001.001.002.001.003.001 4.293 1.102 8.586 1.103 12.88.002.001 0 .003 0 .004-.001.77-.202 1.306-.897 1.306-1.693 0-.333 0-.757 0-1.237 0-4.28-3.47-7.75-7.75-7.75zm0 1.5c3.452 0 6.25 2.798 6.25 6.25v1.238c0 .113-.076.212-.186.241-4.043 1.036-8.085 1.035-12.127-.002-.109-.029-.185-.127-.185-.24l-.002-1.237c0-3.452 2.798-6.25 6.25-6.25z"/><path d="m18.788 14.078c.832.245 1.51.53 1.976.856.271.189.486.347.486.566 0 .145-.117.26-.262.39-.279.252-.691.478-1.202.687-1.756.719-4.592 1.173-7.786 1.173s-6.03-.454-7.786-1.173c-.511-.209-.923-.435-1.202-.687-.145-.13-.262-.245-.262-.39 0-.219.215-.377.486-.566.466-.326 1.144-.611 1.976-.856.397-.117.624-.534.508-.931-.117-.397-.535-.625-.932-.508-1.243.366-2.194.835-2.763 1.341-.53.47-.775.996-.775 1.52 0 .705.479 1.442 1.491 2.027 1.737 1.005 5.23 1.723 9.259 1.723s7.522-.718 9.259-1.723c1.012-.585 1.491-1.322 1.491-2.027 0-.524-.245-1.05-.775-1.52-.569-.506-1.52-.975-2.763-1.341-.397-.117-.815.111-.932.508-.116.397.111.814.508.931z"/></g></svg>