<svg clip-rule="evenodd" fill-rule="evenodd" height="512" stroke-linejoin="round" stroke-miterlimit="2" viewBox="0 0 24 24" width="512" xmlns="http://www.w3.org/2000/svg"><g id="Icon"><path d="m14.624 2.005c.001-.26-.132-.502-.351-.64-.22-.138-.496-.153-.729-.039 0 0-4.906 2.349-5.39 9.103-.161-.159-.327-.336-.488-.527-.476-.564-.924-1.257-1.053-2.026-.053-.316-.302-.565-.619-.616-.317-.052-.632.104-.783.388 0 0-2.66 5.048-1.566 9.53 1.146 4.694 6.429 5.739 8.297 5.569 1.845-.168 8.767-.364 8.682-7.756-.042-3.589-1.624-5.777-3.213-7.697-1.377-1.664-2.801-3.073-2.787-5.289zm-1.369 1.308c.31 1.472 1.135 2.67 2.115 3.871 1.623 1.989 3.71 3.993 3.754 7.825.07 6.108-5.794 6.105-7.318 6.244-1.502.137-5.782-.656-6.704-4.431-.616-2.522.122-5.243.746-6.902.996 1.608 2.609 2.712 2.609 2.712.234.156.535.168.781.032.245-.137.394-.399.385-.68-.156-4.932 2.245-7.567 3.632-8.671z"/><path d="m9.998 15.922c-.151-.148-.283-.325-.319-.54-.051-.303-.281-.545-.581-.61s-.61.06-.781.314c0 0-1.449 2.163-.856 4.594.629 2.575 3.519 3.16 4.544 3.067 1.002-.091 4.725-.238 4.679-4.253-.022-1.901-.85-3.064-1.691-4.08-.63-.761-1.313-1.388-1.307-2.402.002-.275-.148-.529-.389-.662-.241-.132-.536-.122-.767.027 0 0-2.133 1.33-2.532 4.545zm2.512-2.43c.218.477.53.911.883 1.343.764.937 1.77 1.871 1.791 3.676.031 2.732-2.633 2.68-3.315 2.742-.659.06-2.546-.273-2.951-1.929-.205-.841-.078-1.639.116-2.25.037.035.074.069.112.102.589.507 1.264.775 1.264.775.235.093.502.062.709-.083s.326-.385.318-.638c-.056-1.796.535-3.012 1.073-3.738z"/></g></svg>