<svg clip-rule="evenodd" fill-rule="evenodd" height="512" stroke-linejoin="round" stroke-miterlimit="2" viewBox="0 0 24 24" width="512" xmlns="http://www.w3.org/2000/svg"><g id="Icon"><path d="m22.75 4.5c0-.729-.29-1.429-.805-1.945-.516-.515-1.216-.805-1.945-.805-3.271 0-12.729 0-16 0-.729 0-1.429.29-1.945.805-.515.516-.805 1.216-.805 1.945v11c0 .729.29 1.429.805 1.945.516.515 1.216.805 1.945.805h4.625s2.775 3.7 2.775 3.7c.142.189.364.3.6.3s.458-.111.6-.3l2.775-3.7h4.625c.729 0 1.429-.29 1.945-.805.515-.516.805-1.216.805-1.945 0-2.444 0-8.556 0-11zm-1.5 0v11c0 .332-.132.649-.366.884-.235.234-.552.366-.884.366h-5c-.236 0-.458.111-.6.3l-2.4 3.2s-2.4-3.2-2.4-3.2c-.142-.189-.364-.3-.6-.3h-5c-.332 0-.649-.132-.884-.366-.234-.235-.366-.552-.366-.884 0-2.444 0-8.556 0-11 0-.332.132-.649.366-.884.235-.234.552-.366.884-.366h16c.332 0 .649.132.884.366.234.235.366.552.366.884z"/><path d="m9.756 5.907-1 8c-.052.411.24.786.651.837.411.052.786-.24.837-.651l1-8c.052-.411-.24-.786-.651-.837-.411-.052-.786.24-.837.651z"/><path d="m8 12.75h8c.414 0 .75-.336.75-.75s-.336-.75-.75-.75h-8c-.414 0-.75.336-.75.75s.336.75.75.75z"/><path d="m13.756 5.907-1 8c-.052.411.24.786.651.837.411.052.786-.24.837-.651l1-8c.052-.411-.24-.786-.651-.837-.411-.052-.786.24-.837.651z"/><path d="m8 8.75h8c.414 0 .75-.336.75-.75s-.336-.75-.75-.75h-8c-.414 0-.75.336-.75.75s.336.75.75.75z"/></g></svg>