<svg clip-rule="evenodd" fill-rule="evenodd" height="512" stroke-linejoin="round" stroke-miterlimit="2" viewBox="0 0 24 24" width="512" xmlns="http://www.w3.org/2000/svg"><g id="Icon"><path d="m12.5 5.25h7.5c.69 0 1.25.56 1.25 1.25v3.5c0 .414.336.75.75.75s.75-.336.75-.75v-3.5c0-1.518-1.232-2.75-2.75-2.75h-7.5c-.414 0-.75.336-.75.75s.336.75.75.75z"/><path d="m20 21.25c1.518 0 2.75-1.232 2.75-2.75v-9c0-1.518-1.232-2.75-2.75-2.75 0 0-3.96 0-5.446 0-.086 0-.166-.044-.212-.118l-1.912-3.059c-.32-.512-.881-.823-1.484-.823h-6.946c-1.518 0-2.75 1.232-2.75 2.75v13c0 1.518 1.232 2.75 2.75 2.75zm0-1.5h-16c-.69 0-1.25-.56-1.25-1.25v-13c0-.69.56-1.25 1.25-1.25h6.946c.086 0 .166.044.212.118l1.912 3.059c.32.512.881.823 1.484.823h5.446c.69 0 1.25.56 1.25 1.25v9c0 .69-.56 1.25-1.25 1.25z"/></g></svg>