<svg clip-rule="evenodd" fill-rule="evenodd" stroke-linejoin="round" stroke-miterlimit="1.414" viewBox="0 0 32 32" xmlns="http://www.w3.org/2000/svg" xmlns:serif="http://www.serif.com/"><path id="mark-wishlist-favorite" d="m0 0h32v32h-32z" fill="none"/><path d="m22.243 7.033c.435.128.743.513.765.973v20.023c-.037.791-1.045 1.312-1.709.708l-5.299-5.299-5.299 5.299s-.827.521-1.37.043c-.212-.187-.326-.466-.339-.751v-24.028c.025-.537.451-.976 1.001-1.001h12.014c.914.044.981.558 1 .954.026.536-.444 1.022-1 1.048h-11.013v20.61l4.298-4.298c.397-.362 1.016-.364 1.416 0l4.298 4.298v-17.606s.006-.209.071-.372c.177-.441.671-.697 1.166-.601z" fill-rule="nonzero"/></svg>