<svg clip-rule="evenodd" fill-rule="evenodd" height="512" stroke-linejoin="round" stroke-miterlimit="2" viewBox="0 0 24 24" width="512" xmlns="http://www.w3.org/2000/svg"><g id="Icon"><path d="m12 1.25c-5.933 0-10.75 4.817-10.75 10.75s4.817 10.75 10.75 10.75 10.75-4.817 10.75-10.75-4.817-10.75-10.75-10.75zm0 1.5c5.105 0 9.25 4.145 9.25 9.25s-4.145 9.25-9.25 9.25-9.25-4.145-9.25-9.25 4.145-9.25 9.25-9.25z"/><path d="m12 4.75c-4.001 0-7.25 3.249-7.25 7.25s3.249 7.25 7.25 7.25 7.25-3.249 7.25-7.25-3.249-7.25-7.25-7.25zm0 1.5c3.174 0 5.75 2.576 5.75 5.75s-2.576 5.75-5.75 5.75-5.75-2.576-5.75-5.75 2.576-5.75 5.75-5.75z"/><path d="m12 8.25c-2.07 0-3.75 1.68-3.75 3.75s1.68 3.75 3.75 3.75 3.75-1.68 3.75-3.75-1.68-3.75-3.75-3.75zm0 1.5c1.242 0 2.25 1.008 2.25 2.25s-1.008 2.25-2.25 2.25-2.25-1.008-2.25-2.25 1.008-2.25 2.25-2.25z"/><path d="m11.445 2.419.923 1.372s-1.226 1.133-1.226 1.133c-.304.281-.323.756-.042 1.06s.756.323 1.06.042l1.698-1.569c.272-.251.32-.663.114-.97l-1.283-1.906c-.231-.343-.697-.434-1.041-.203-.343.231-.434.697-.203 1.041z"/><path d="m14.411 12.136 1.432 1.816c.229.29.636.37.958.188l2-1.129c.36-.204.488-.662.284-1.022-.203-.361-.661-.488-1.022-.284l-1.44.813s-1.034-1.311-1.034-1.311c-.256-.325-.728-.381-1.053-.125-.325.257-.381.729-.125 1.054z"/></g></svg>