<svg clip-rule="evenodd" fill-rule="evenodd" height="512" stroke-linejoin="round" stroke-miterlimit="2" viewBox="0 0 24 24" width="512" xmlns="http://www.w3.org/2000/svg"><g id="Icon"><path d="m3.755 16.761c-1.403.124-2.505 1.304-2.505 2.739 0 1.518 1.232 2.75 2.75 2.75h16c1.518 0 2.75-1.232 2.75-2.75 0-1.34-.96-2.457-2.23-2.701-.478-1.2-1.65-2.049-3.02-2.049-.488 0-.95.108-1.365.3-.571-.498-1.318-.8-2.135-.8-.754 0-1.449.257-2 .689-.552-.432-1.246-.689-2-.689-.999 0-1.893.451-2.489 1.161-.318-.105-.658-.161-1.011-.161-1.154 0-2.169.603-2.745 1.511zm.245 3.989c-.69 0-1.25-.56-1.25-1.25s.56-1.25 1.25-1.25c.043 0 .086.002.128.006.326.033.635-.148.764-.448.269-.622.888-1.058 1.608-1.058.327 0 .633.09.895.246.177.106.39.134.589.077.199-.056.366-.192.461-.376.291-.562.879-.947 1.555-.947.572 0 1.081.276 1.4.701.142.189.364.3.6.3s.458-.111.6-.3c.319-.425.828-.701 1.4-.701s1.081.276 1.4.701c.12.159.298.264.495.292s.397-.024.556-.143c.292-.22.655-.35 1.049-.35.846 0 1.553.601 1.715 1.4.072.356.39.609.754.6h.031c.69 0 1.25.56 1.25 1.25s-.56 1.25-1.25 1.25z"/><path d="m16.75 18v-14c0-.414-.336-.75-.75-.75s-.75.336-.75.75v14c0 .414.336.75.75.75s.75-.336.75-.75z"/><path d="m8.75 18v-16c0-.414-.336-.75-.75-.75s-.75.336-.75.75v16c0 .414.336.75.75.75s.75-.336.75-.75z"/><path d="m12.031 7.377c-.26.069-.462.272-.532.531-.333 1.251-.009 2.641.971 3.622.981.98 2.371 1.304 3.622.971.259-.07.462-.272.531-.532.334-1.251.01-2.641-.971-3.621-.98-.981-2.37-1.305-3.621-.971zm.845 1.376c.617-.033 1.245.185 1.716.655.47.471.688 1.099.655 1.716-.617.034-1.245-.184-1.716-.655s-.689-1.099-.655-1.715z"/><path d="m4.031 5.377c-.26.069-.462.272-.532.531-.333 1.251-.009 2.641.971 3.622.981.98 2.371 1.304 3.622.971.259-.07.462-.272.531-.532.334-1.251.01-2.641-.971-3.621-.98-.981-2.37-1.305-3.621-.971zm.845 1.376c.617-.033 1.245.185 1.716.655.47.471.688 1.099.655 1.716-.617.034-1.245-.184-1.716-.655s-.689-1.099-.655-1.715z"/><path d="m20.501 4.908c-.07-.259-.272-.462-.532-.531-1.251-.334-2.641-.01-3.621.971-.981.98-1.305 2.37-.971 3.621.069.26.272.462.531.532 1.251.333 2.641.009 3.622-.971.98-.981 1.304-2.371.971-3.622zm-1.377.845c.034.617-.184 1.245-.655 1.716s-1.099.689-1.715.655c-.034-.617.184-1.245.654-1.716.471-.47 1.099-.688 1.716-.655z"/><path d="m12.501 2.908c-.07-.259-.272-.462-.532-.531-1.251-.334-2.641-.01-3.621.971-.981.98-1.305 2.37-.971 3.621.069.26.272.462.531.532 1.251.333 2.641.009 3.622-.971.98-.981 1.304-2.371.971-3.622zm-1.377.845c.034.617-.184 1.245-.655 1.716s-1.099.689-1.715.655c-.034-.617.184-1.245.654-1.716.471-.47 1.099-.688 1.716-.655z"/></g></svg>