<svg clip-rule="evenodd" fill-rule="evenodd" height="512" stroke-linejoin="round" stroke-miterlimit="2" viewBox="0 0 24 24" width="512" xmlns="http://www.w3.org/2000/svg"><g id="Icon"><path d="m12.252 1.792c-1.441.506-2.619 1.76-3.578 3.379-1.311 2.211-2.238 5.106-3.077 7.335-.386.978-.347 2.24-.016 3.291.233.741.611 1.373 1.049 1.76 1.047.926 3.548 1.489 5.293.551 2.086-1.079 4.843-1.861 6.957-3 1.589-.857 2.824-1.925 3.328-3.36.137-.39-.069-.819-.46-.956-.39-.137-.819.069-.956.46-.388 1.107-1.397 1.874-2.624 2.535-2.108 1.136-4.859 1.914-6.939 2.991-.004.002-.008.004-.011.007-1.183.639-2.884.277-3.594-.352-.266-.235-.47-.635-.612-1.086-.231-.734-.289-1.614-.018-2.295.002-.004.004-.009.005-.013.812-2.156 1.697-4.963 2.965-7.103.76-1.282 1.643-2.328 2.784-2.728.391-.137.597-.566.46-.956-.137-.391-.566-.597-.956-.46z"/><path d="m4.197 16.761c-.217-.087-.437-.121-.657-.116-.544.014-1.121.317-1.628.825-.882.882-.882 2.313 0 3.195.255.256.557.438.879.545.106.321.288.623.544.878.882.882 2.313.882 3.195 0 .612-.611.928-1.311.813-1.954-.019-.103-.047-.207-.088-.31 0 0 1.385-1.385 1.385-1.385.293-.292.293-.767 0-1.06l-2-2c-.293-.293-.768-.293-1.061 0zm-.43 1.49.531.22.037-.001.013-.001h.006l.006-.001c.017-.001.033-.003.049-.005l.036-.007.012-.002.007-.002.007-.001c.015-.004.03-.008.045-.013l.035-.011.012-.005.006-.002.006-.003c.015-.005.029-.012.044-.018l.032-.016.011-.007.006-.003.005-.003c.014-.008.028-.016.041-.025l.03-.021.009-.008.006-.003.004-.004.01-.008.028-.024c.009-.008.018-.017.027-.026l1.281-1.281s.94.939.94.939-1.282 1.282-1.282 1.282c-.293.292-.293.767 0 1.06.122.122.095.256.021.384-.079.134-.19.265-.318.393-.297.296-.778.296-1.075 0-.137-.138-.211-.315-.221-.495-.021-.382-.325-.686-.707-.707-.18-.01-.357-.084-.495-.221-.296-.297-.296-.778 0-1.075.125-.125.254-.233.387-.308.137-.077.28-.099.408.029z"/><path d="m11.463 2.464c-.837.837-1.241 1.994-1.211 3.28.041 1.767.919 3.796 2.563 5.441 1.645 1.644 3.674 2.522 5.441 2.563 1.286.03 2.443-.374 3.281-1.211.837-.838 1.241-1.995 1.211-3.281-.041-1.767-.919-3.796-2.563-5.441-1.645-1.644-3.674-2.522-5.441-2.563-1.286-.03-2.443.374-3.28 1.211zm1.061 1.06c.555-.555 1.333-.793 2.185-.773 1.439.034 3.075.785 4.415 2.125s2.091 2.976 2.125 4.415c.02.852-.218 1.63-.773 2.185s-1.333.793-2.185.773c-1.439-.034-3.075-.785-4.415-2.125s-2.091-2.976-2.125-4.415c-.02-.852.218-1.63.773-2.185z"/><path d="m14.555 5.555c-.359.36-.543.853-.53 1.406.015.667.334 1.439.955 2.059.62.621 1.392.94 2.059.955.553.013 1.046-.171 1.406-.53.359-.36.543-.853.53-1.406-.015-.667-.334-1.439-.955-2.059-.62-.621-1.392-.94-2.059-.955-.553-.013-1.046.171-1.406.53zm1.061 1.061c.109-.109.28-.108.454-.077.302.053.619.231.89.501.27.271.448.588.501.89.031.174.032.345-.077.454s-.28.108-.454.077c-.302-.053-.619-.231-.89-.501-.27-.271-.448-.588-.501-.89-.031-.174-.032-.345.077-.454z"/></g></svg>