<svg clip-rule="evenodd" fill-rule="evenodd" height="512" stroke-linejoin="round" stroke-miterlimit="2" viewBox="0 0 24 24" width="512" xmlns="http://www.w3.org/2000/svg"><g id="Icon"><circle cx="5.25" cy="5" r=".75"/><circle cx="7.75" cy="5" r=".75"/><circle cx="10.25" cy="5" r=".75"/><path d="m19.5 22.75c1.795 0 3.25-1.455 3.25-3.25 0-3.842 0-11.158 0-15 0-1.795-1.455-3.25-3.25-3.25-3.842 0-11.158 0-15 0-1.795 0-3.25 1.455-3.25 3.25v15c0 1.795 1.455 3.25 3.25 3.25zm0-1.5h-15c-.967 0-1.75-.783-1.75-1.75v-15c0-.967.783-1.75 1.75-1.75h15c.967 0 1.75.783 1.75 1.75v15c0 .967-.783 1.75-1.75 1.75z"/><path d="m22 7.25h-20c-.414 0-.75.336-.75.75s.336.75.75.75h20c.414 0 .75-.336.75-.75s-.336-.75-.75-.75z"/><path d="m6.03 19.03 4.5-4.5c.293-.292.293-.768 0-1.06-.292-.293-.768-.293-1.06 0l-4.5 4.5c-.293.292-.293.768 0 1.06.292.293.768.293 1.06 0z"/><path d="m7 13.75h3.25v3.25c0 .414.336.75.75.75s.75-.336.75-.75v-4c0-.414-.336-.75-.75-.75h-4c-.414 0-.75.336-.75.75s.336.75.75.75z"/></g></svg>