<svg clip-rule="evenodd" fill-rule="evenodd" height="512" stroke-linejoin="round" stroke-miterlimit="2" viewBox="0 0 24 24" width="512" xmlns="http://www.w3.org/2000/svg"><g id="Icon"><path d="m7 14.25c-1.518 0-2.75 1.232-2.75 2.75s1.232 2.75 2.75 2.75 2.75-1.232 2.75-2.75-1.232-2.75-2.75-2.75zm0 1.5c.69 0 1.25.56 1.25 1.25s-.56 1.25-1.25 1.25-1.25-.56-1.25-1.25.56-1.25 1.25-1.25z"/><path d="m7 1.25c-.995 0-1.948.395-2.652 1.098-.703.704-1.098 1.657-1.098 2.652v7.642c-1.224 1.054-2 2.616-2 4.358 0 3.174 2.576 5.75 5.75 5.75s5.75-2.576 5.75-5.75c0-1.741-.776-3.303-2-4.358v-7.642c0-.995-.395-1.948-1.098-2.652-.704-.703-1.657-1.098-2.652-1.098zm2.25 11.751c0 .236.111.458.299.599 1.032.776 1.701 2.01 1.701 3.4 0 2.346-1.904 4.25-4.25 4.25s-4.25-1.904-4.25-4.25c0-1.39.669-2.624 1.701-3.4.188-.141.299-.363.299-.599v-8.001c0-.597.237-1.169.659-1.591s.994-.659 1.591-.659 1.169.237 1.591.659.659.994.659 1.591z"/><path d="m7.75 15v-9c0-.414-.336-.75-.75-.75s-.75.336-.75.75v9c0 .414.336.75.75.75s.75-.336.75-.75z"/><path d="m19.75 6.296c0-1.242-1.008-2.25-2.25-2.25s-2.25 1.008-2.25 2.25 1.008 2.25 2.25 2.25 2.25-1.008 2.25-2.25zm-1.5 0c0 .414-.336.75-.75.75s-.75-.336-.75-.75.336-.75.75-.75.75.336.75.75z"/><path d="m14.868 2.676c-.178.007-.559.025-.759.056-.379.059-.673.226-.856.478-.182.251-.25.581-.189.96.032.199.132.567.18.738-.142.111-.44.348-.584.493-.27.271-.41.579-.41.895 0 .317.14.625.41.895.145.145.442.382.584.493-.048.171-.148.539-.18.738-.061.379.007.71.189.96.183.252.476.419.856.478.2.031.58.049.758.056.062.169.197.526.289.707.174.342.423.57.721.667.293.095.628.058.97-.12.181-.094.51-.309.653-.404.143.095.471.31.652.404.343.178.678.215.97.12h.001c.298-.097.547-.325.721-.667.092-.181.226-.539.288-.706.178-.008.559-.026.759-.057.379-.059.673-.226.856-.478.182-.25.25-.58.189-.96-.032-.199-.132-.566-.18-.737.142-.111.44-.349.584-.494.27-.27.41-.579.41-.895s-.14-.624-.41-.895c-.145-.145-.442-.382-.584-.493.048-.171.148-.539.18-.738.061-.379-.007-.709-.189-.96-.183-.251-.476-.419-.856-.478-.2-.031-.58-.049-.758-.056-.062-.169-.197-.526-.289-.707-.174-.342-.423-.57-.721-.667-.293-.095-.628-.058-.97.12-.181.094-.51.309-.653.404-.143-.095-.471-.31-.652-.404-.343-.178-.678-.215-.97-.12-.001 0-.001 0-.001 0-.298.097-.547.325-.721.667-.092.182-.226.539-.288.707zm3.738.232c.019.049.037.096.051.134.136.38.329.708.565.881 0 0 .001.001.001.001.239.173.611.256 1.014.269.042.002.093.004.146.007-.014.051-.027.101-.039.141-.111.386-.147.765-.055 1.049.09.276.342.56.663.808.035.027.079.062.123.098-.044.037-.088.072-.123.099-.321.247-.573.532-.663.807v.001c-.092.283-.056.662.055 1.049.012.04.025.089.039.14-.053.003-.105.006-.146.007-.404.013-.776.096-1.014.27 0 0 0 0-.001 0-.236.172-.429.5-.566.881-.014.038-.031.085-.05.134-.044-.029-.087-.056-.121-.08-.333-.224-.684-.376-.985-.376s-.652.152-.985.376c-.035.023-.077.051-.121.08-.019-.049-.037-.096-.051-.134-.136-.38-.329-.708-.565-.881 0 0-.001 0-.001-.001-.239-.173-.611-.256-1.014-.269-.042-.001-.093-.004-.146-.007.014-.051.027-.1.039-.14.111-.387.147-.766.055-1.049-.09-.276-.342-.561-.663-.808-.035-.028-.079-.063-.123-.099.044-.036.088-.072.123-.099.321-.247.573-.532.663-.807.092-.283.056-.663-.055-1.049-.012-.04-.025-.09-.039-.141.053-.003.105-.006.146-.007.404-.013.776-.096 1.014-.27h.001c.236-.172.429-.5.566-.88.014-.039.031-.086.05-.135.044.029.087.057.121.08.333.225.684.376.985.376s.652-.151.985-.376c.035-.023.077-.051.121-.08z"/></g></svg>