<svg clip-rule="evenodd" fill-rule="evenodd" height="512" stroke-linejoin="round" stroke-miterlimit="2" viewBox="0 0 134 134" width="512" xmlns="http://www.w3.org/2000/svg"><path d="m41.667 112.5h-8.334c-1.105 0-2.165-.439-2.946-1.22-.781-.782-1.22-1.842-1.22-2.947 0-14.377 0-43.292 0-53.602 0-1.195.513-2.332 1.408-3.123 6.823-6.026 24.336-21.495 33.333-29.441 1.576-1.392 3.941-1.392 5.517 0 8.997 7.946 26.51 23.415 33.333 29.441.896.791 1.409 1.928 1.409 3.123v53.602c0 1.105-.439 2.165-1.221 2.947-.781.781-1.841 1.22-2.946 1.22-4.167 0-8.333 0-8.333 0-2.3 0-4.167 1.867-4.167 4.167 0 2.299 1.867 4.166 4.167 4.166h8.333c3.315 0 6.495-1.317 8.839-3.661s3.661-5.523 3.661-8.839c0-14.377 0-43.292 0-53.602 0-3.584-1.539-6.996-4.225-9.369-6.823-6.026-24.336-21.494-33.333-29.441-4.727-4.175-11.823-4.175-16.55 0-8.997 7.946-26.51 23.415-33.334 29.441-2.686 2.373-4.225 5.785-4.225 9.369v53.602c0 3.316 1.317 6.495 3.661 8.839 2.345 2.344 5.524 3.661 8.839 3.661h8.334c2.299 0 4.166-1.867 4.166-4.166 0-2.3-1.867-4.167-4.166-4.167zm12.5-19.107-7.113-7.113c-.782-.782-1.221-1.842-1.221-2.947v-16.666c0-2.3 1.867-4.167 4.167-4.167s4.167 1.867 4.167 4.167v14.94l7.113 7.113c.781.782 1.22 1.842 1.22 2.947v25c0 2.299-1.867 4.166-4.167 4.166-2.299 0-4.166-1.867-4.166-4.166zm25-20.119v-14.941c0-2.299 1.867-4.166 4.166-4.166 2.3 0 4.167 1.867 4.167 4.166v16.667c0 1.105-.439 2.165-1.22 2.946l-7.113 7.113v31.608c0 2.299-1.867 4.166-4.167 4.166s-4.167-1.867-4.167-4.166v-33.334c0-1.105.439-2.165 1.221-2.946z"/></svg>