<svg clip-rule="evenodd" fill-rule="evenodd" height="512" stroke-linejoin="round" stroke-miterlimit="2" viewBox="0 0 24 24" width="512" xmlns="http://www.w3.org/2000/svg"><g id="Icon"><path d="m2 22.75h20c.414 0 .75-.336.75-.75s-.336-.75-.75-.75h-20c-.414 0-.75.336-.75.75s.336.75.75.75z"/><path d="m7.75 16.5c0-.332-.132-.649-.366-.884-.235-.234-.553-.366-.884-.366-.769 0-2.231 0-3 0-.331 0-.649.132-.884.366-.234.235-.366.552-.366.884v5.5c0 .414.336.75.75.75h4c.414 0 .75-.336.75-.75zm-4 .25h2.5v4.5h-2.5z"/><path d="m14.75 22v-8.5c0-.332-.132-.649-.366-.884-.235-.234-.553-.366-.884-.366-.769 0-2.231 0-3 0-.331 0-.649.132-.884.366-.234.235-.366.552-.366.884v8.5c0 .414.336.75.75.75h4c.414 0 .75-.336.75-.75zm-4-8.25h2.5v7.5h-2.5z"/><path d="m21.75 9.5c0-.332-.132-.649-.366-.884-.235-.234-.553-.366-.884-.366-.769 0-2.231 0-3 0-.331 0-.649.132-.884.366-.234.235-.366.552-.366.884v12.5c0 .414.336.75.75.75h4c.414 0 .75-.336.75-.75zm-4 .25h2.5v11.5h-2.5z"/><path d="m18.181 2.389c-1.172 1.934-4.513 4.058-8.726 5.45-1.842.61-3.635 1.002-5.251 1.181-.412.046-.709.417-.663.828.046.412.417.709.828.663 1.71-.19 3.608-.603 5.557-1.247 4.636-1.533 8.248-3.97 9.537-6.098.215-.354.102-.815-.252-1.03-.354-.214-.816-.101-1.03.253z"/><path d="m16.682 3.044 2.066-.219s.22 2.067.22 2.067c.043.411.413.71.825.666.411-.043.71-.413.666-.825l-.298-2.812c-.044-.412-.413-.711-.825-.667l-2.813.299c-.411.043-.71.413-.666.825.043.411.413.71.825.666z"/></g></svg>