<svg clip-rule="evenodd" fill-rule="evenodd" height="512" stroke-linejoin="round" stroke-miterlimit="2" viewBox="0 0 24 24" width="512" xmlns="http://www.w3.org/2000/svg"><g id="Icon"><path d="m14.116 5.823-.354.354c-.047.047-.111.073-.177.073h-3.171c-.066 0-.13-.026-.177-.073 0 0-.354-.354-.354-.354-.39-.39-.938-.572-1.484-.495l-5.647.807c-.862.122-1.502.861-1.502 1.733v8.265c0 .869.639 1.609 1.501 1.733l5.648.806c.546.077 1.094-.105 1.484-.495 0 0 .354-.354.354-.354.047-.047.111-.073.177-.073h3.171c.066 0 .13.026.177.073 0 0 .354.354.354.354.39.39.938.572 1.484.495l5.648-.806c.862-.124 1.502-.864 1.502-1.733v-8.265c0-.872-.641-1.611-1.504-1.733l-5.646-.807c-.546-.077-1.094.105-1.484.495zm1.06 1.061c.056-.056.136-.082.214-.071l5.646.807c.123.018.214.123.214.248v8.265c0 .124-.092.23-.216.248 0 0-5.644.806-5.644.806-.078.011-.158-.015-.214-.071 0 0-.354-.354-.354-.354-.327-.327-.771-.512-1.237-.512h-3.171c-.466 0-.91.185-1.237.512 0 0-.354.354-.354.354-.056.056-.136.082-.214.071 0 0-5.644-.806-5.644-.806-.124-.018-.215-.124-.215-.248v-8.265c0-.125.09-.23.213-.248l5.646-.807c.078-.011.158.015.214.071 0 0 .354.354.354.354.327.327.771.512 1.237.512h3.171c.466 0 .91-.185 1.237-.512 0 0 .354-.354.354-.354z"/><g fill-rule="nonzero"><path d="m7.999 10.5h-.5c-.276 0-.5-.224-.5-.5v-.5c0-.276.224-.5.5-.5h.5c.276 0 .5.224.5.5v.5c0 .276-.224.5-.5.5"/><path d="m7.999 12.5h-.5c-.276 0-.5-.224-.5-.5v-.5c0-.276.224-.5.5-.5h.5c.276 0 .5.224.5.5v.5c0 .276-.224.5-.5.5"/><path d="m9.999 12.5h-.5c-.276 0-.5-.224-.5-.5v-.5c0-.276.224-.5.5-.5h.5c.276 0 .5.224.5.5v.5c0 .276-.224.5-.5.5"/><path d="m5.999 12.5h-.5c-.276 0-.5-.224-.5-.5v-.5c0-.276.224-.5.5-.5h.5c.276 0 .5.224.5.5v.5c0 .276-.224.5-.5.5"/></g><path d="m8.999 15.75h6c.414 0 .751-.336.75-.75 0-.414-.336-.75-.75-.75h-6c-.413 0-.749.336-.75.75 0 .414.337.75.75.75z"/></g></svg>