<svg clip-rule="evenodd" fill-rule="evenodd" height="512" stroke-linejoin="round" stroke-miterlimit="2" viewBox="0 0 24 24" width="512" xmlns="http://www.w3.org/2000/svg"><g id="Icon"><path d="m7.25 2.5v19c0 .332-.132.649-.366.884-.235.234-.552.366-.884.366h-2c-.332 0-.649-.132-.884-.366-.234-.235-.366-.552-.366-.884v-19c0-.332.132-.649.366-.884.235-.234.552-.366.884-.366h2c.332 0 .649.132.884.366.234.235.366.552.366.884zm-3 .25v18.5h1.5v-18.5z"/><path d="m20.75 8v8c0 .966-.783 1.75-1.75 1.75h-9c-.967 0-1.75-.784-1.75-1.75v-8c0-.966.783-1.75 1.75-1.75h9c.967 0 1.75.784 1.75 1.75zm-1.5 0c0-.138-.112-.25-.25-.25h-9c-.138 0-.25.112-.25.25v8c0 .138.112.25.25.25h9c.138 0 .25-.112.25-.25z"/><path d="m2 5.75c-.414 0-.75-.336-.75-.75s.336-.75.75-.75h20c.414 0 .75.336.75.75s-.336.75-.75.75z"/><path d="m18.75 7c0 .414-.336.75-.75.75s-.75-.336-.75-.75v-2c0-.414.336-.75.75-.75s.75.336.75.75z"/><path d="m11.75 7c0 .414-.336.75-.75.75s-.75-.336-.75-.75v-2c0-.414.336-.75.75-.75s.75.336.75.75z"/><path d="m11.25 14v-2.26c0-.379.173-.739.469-.976l2-1.6c.457-.365 1.105-.365 1.562 0l2 1.6c.296.237.469.597.469.976v2.26c0 .332-.132.649-.366.884-.235.234-.553.366-.884.366h-4c-.331 0-.649-.132-.884-.366-.234-.235-.366-.552-.366-.884zm1.5-.25h3.5v-1.89l-1.75-1.4-1.75 1.4z"/></g></svg>