<svg clip-rule="evenodd" fill-rule="evenodd" height="512" stroke-linejoin="round" stroke-miterlimit="2" viewBox="0 0 24 24" width="512" xmlns="http://www.w3.org/2000/svg"><g id="Icon"><path d="m20 14.75c.966 0 1.75-.782 1.75-1.75v-9c0-.966-.784-1.75-1.75-1.75h-16c-.966 0-1.75.784-1.75 1.75v9c0 .968.784 1.75 1.75 1.75zm0-1.5h-16c-.138 0-.25-.112-.25-.25v-9c0-.138.112-.25.25-.25h16c.138 0 .25.112.25.25v9c0 .138-.112.25-.25.25z"/><path d="m20.78 21.75c1.105 0 1.933-1.01 1.716-2.093 0 0-.6-3-.6-3-.163-.817-.882-1.407-1.716-1.407h-16.36c-.834 0-1.553.59-1.716 1.408 0-.001-.6 2.999-.6 2.999-.217 1.083.613 2.093 1.715 2.093zm0-1.5h-17.561c-.157 0-.275-.144-.244-.299l.6-3.001c.023-.116.126-.2.245-.2h16.36c.119 0 .222.084.245.2l.6 3.001c.031.155-.087.299-.245.299z"/><path d="m11 5.75h2c.414 0 .75-.336.75-.75s-.336-.75-.75-.75h-2c-.414 0-.75.336-.75.75s.336.75.75.75z"/></g></svg>