<svg clip-rule="evenodd" fill-rule="evenodd" height="512" stroke-linejoin="round" stroke-miterlimit="2" viewBox="0 0 134 134" width="512" xmlns="http://www.w3.org/2000/svg"><path d="m62.5 116.667c0-16.109-13.058-29.167-29.167-29.167-2.299 0-4.166 1.867-4.166 4.167 0 2.299 1.867 4.166 4.166 4.166 11.506 0 20.834 9.328 20.834 20.834 0 2.299 1.867 4.166 4.166 4.166 2.3 0 4.167-1.867 4.167-4.166zm16.667 0c0-25.313-20.521-45.834-45.834-45.834-2.299 0-4.166 1.867-4.166 4.167s1.867 4.167 4.166 4.167c20.711 0 37.5 16.789 37.5 37.5 0 2.299 1.867 4.166 4.167 4.166s4.167-1.867 4.167-4.166zm-50-58.334v-33.333c0-3.315 1.317-6.495 3.661-8.839s5.523-3.661 8.839-3.661h50c3.315 0 6.494 1.317 8.839 3.661 2.344 2.344 3.661 5.524 3.661 8.839v83.333c0 3.315-1.317 6.495-3.661 8.839-2.345 2.344-5.524 3.661-8.839 3.661-5.948 0-6.137-8.333 0-8.333 1.105 0 2.165-.439 2.946-1.22.781-.782 1.22-1.842 1.22-2.947v-4.166h-4.166c-2.3 0-4.167-1.867-4.167-4.167s1.867-4.167 4.167-4.167h4.166v-58.333h-58.333v20.833c0 2.3-1.867 4.167-4.167 4.167-2.299 0-4.166-1.867-4.166-4.167zm16.666 58.334c0-6.904-5.596-12.5-12.5-12.5-2.299 0-4.166 1.867-4.166 4.166 0 2.3 1.867 4.167 4.166 4.167 2.302 0 4.167 1.865 4.167 4.167 0 2.299 1.867 4.166 4.167 4.166 2.299 0 4.166-1.867 4.166-4.166zm50-87.5v-4.167c0-1.105-.439-2.165-1.22-2.946-.781-.782-1.841-1.221-2.946-1.221-12.809 0-37.192 0-50 0-1.105 0-2.165.439-2.947 1.221-.781.781-1.22 1.841-1.22 2.946v4.167z"/></svg>