<svg height="512" viewBox="0 0 32 32" width="512" xmlns="http://www.w3.org/2000/svg"><g id="program_code_coding" data-name="program, code, coding"><path d="m18.3164 9.0518a.999.999 0 0 0 -1.2651.6318l-4 12a1 1 0 0 0 1.8974.6328l4-12a.999.999 0 0 0 -.6323-1.2646z"/><path d="m10.707 11.293a.9994.9994 0 0 0 -1.414 0l-4 4a.9994.9994 0 0 0 0 1.414l4 4a1 1 0 0 0 1.414-1.414l-3.2929-3.293 3.2929-3.293a.9994.9994 0 0 0 0-1.414z"/><path d="m26.707 15.293-4-4a1 1 0 0 0 -1.414 1.414l3.2929 3.293-3.2929 3.293a1 1 0 1 0 1.414 1.414l4-4a.9994.9994 0 0 0 0-1.414z"/></g></svg>