<svg clip-rule="evenodd" fill-rule="evenodd" height="512" stroke-linejoin="round" stroke-miterlimit="2" viewBox="0 0 24 24" width="512" xmlns="http://www.w3.org/2000/svg"><g id="Icon"><path d="m21.25 19.75v1.5h-18.5v-1.5h5.75c.414 0 .75-.336.75-.75s-.336-.75-.75-.75h-6c-.69 0-1.25.56-1.25 1.25v2c0 .332.132.649.366.884.235.234.552.366.884.366h19c.332 0 .649-.132.884-.366.234-.235.366-.552.366-.884 0-.555 0-1.445 0-2 0-.69-.56-1.25-1.25-1.25h-6c-.414 0-.75.336-.75.75s.336.75.75.75z"/><path d="m12 5.55c-3.318 0-5.95 2.318-5.95 5.083 0 1.13.491 2.05 1.27 2.935.659.75 1.537 1.483 2.416 2.362.8.8 1.593 2.405 1.593 2.405.127.254.387.415.671.415s.544-.161.671-.415c0 0 .793-1.605 1.593-2.405.879-.879 1.757-1.612 2.416-2.362.779-.885 1.27-1.805 1.27-2.935 0-2.765-2.632-5.083-5.95-5.083zm0 1.5c2.422 0 4.45 1.565 4.45 3.583 0 .756-.375 1.352-.896 1.945-.641.728-1.496 1.437-2.351 2.292-.43.43-.862 1.058-1.203 1.61-.341-.552-.773-1.18-1.203-1.61-.855-.855-1.71-1.564-2.351-2.292-.521-.593-.896-1.189-.896-1.945 0-2.018 2.028-3.583 4.45-3.583z"/><path d="m10.815 6.457c-.042-.273-.065-.56-.065-.857 0-1.004.249-1.9.667-2.452.17-.225.356-.398.583-.398s.413.173.583.398c.418.552.667 1.448.667 2.452 0 .311-.025.612-.071.896-.067.409.21.795.619.861.408.067.794-.21.861-.619.059-.361.091-.743.091-1.138 0-1.381-.396-2.599-.971-3.358-.492-.649-1.123-.992-1.779-.992s-1.287.343-1.779.992c-.575.759-.971 1.977-.971 3.358 0 .377.029.742.083 1.088.064.409.447.689.856.626.409-.064.69-.448.626-.857z"/><path d="m14.351 4.721c.576-.519 1.201-.873 1.766-1.011.371-.09.708-.116.912.089.161.161.17.414.131.694-.094.685-.552 1.495-1.262 2.205-.123.123-.25.239-.379.346-.317.266-.36.739-.095 1.057s.739.36 1.057.095c.162-.136.322-.281.478-.437.976-.977 1.557-2.118 1.687-3.062.112-.807-.092-1.495-.556-1.959-.441-.441-1.082-.646-1.837-.57-.882.088-1.953.581-2.905 1.438-.308.276-.333.751-.056 1.059.277.307.752.333 1.059.056z"/><path d="m10.484 3.459c-.935-.789-1.964-1.232-2.809-1.298-.724-.056-1.338.15-1.765.577-.464.464-.668 1.152-.556 1.959.13.944.711 2.085 1.687 3.062.156.156.316.301.478.437.318.265.792.223 1.057-.095s.222-.791-.095-1.057c-.129-.107-.256-.223-.379-.346-.71-.71-1.168-1.52-1.262-2.205-.039-.28-.03-.533.131-.694.193-.194.509-.178.857-.102.535.118 1.13.437 1.688.908.316.267.79.227 1.057-.089s.227-.79-.089-1.057z"/><path d="m18.45 16.6 2-1.5c.331-.248.398-.719.15-1.05s-.719-.398-1.05-.15l-2 1.5c-.331.248-.398.719-.15 1.05s.719.398 1.05.15z"/><path d="m6.45 15.4-2-1.5c-.331-.248-.802-.181-1.05.15s-.181.802.15 1.05l2 1.5c.331.248.802.181 1.05-.15s.181-.802-.15-1.05z"/></g></svg>