<svg clip-rule="evenodd" fill-rule="evenodd" stroke-linejoin="round" stroke-miterlimit="1.414" viewBox="0 0 32 32" xmlns="http://www.w3.org/2000/svg" xmlns:serif="http://www.serif.com/"><path id="blood-bag-donate-donation" d="m0 0h32v32h-32z" fill="none"/><path d="m21.007 8.665c-.001-.226-.002-.452-.003-.679-.01-.521-.457-.983-1.003-.986h-1.997c-.403-.018-.423-.033-.707-.293l-1.707-1.707h-3.171l-1.707 1.707c-.298.273-.322.276-.707.293-.704 0-1.413-.072-2.111.006-.477.053-.88.492-.889.981-.033 5.349-.049 10.699 0 16.048.024 1.555 1.375 2.958 3.001 2.963h5.024c.31.015.394.064.54.159.572.367.586 1.385-.082 1.73-.14.072-.297.103-.458.111-1.685 0-3.371.005-5.056 0-2.556-.024-4.943-2.231-4.969-4.969-.016-5.344 0-10.688 0-16.033.01-1.565 1.364-2.986 2.997-2.996h1.589l1.707-1.707s.271-.232.533-.278c.077-.013.096-.012.174-.015h3.999c.029.001.058.003.087.004.375.049.389.077.62.289l1.707 1.707h1.589s.579.018 1.028.182c1.141.418 1.961 1.567 1.969 2.814v4.003c-.015.31-.065.394-.159.541-.367.571-1.386.585-1.73-.083-.072-.14-.103-.297-.111-.458 0-.421.001-.843.002-1.264-1.302-.358-2.66-.45-3.966-.164-1.601.349-3.184.899-4.832.823-.886-.041-1.81-.125-2.61-.481-.494-.22-.739-.886-.477-1.381.25-.472.851-.576 1.389-.429 1.224.326 2.511.38 3.748.111 1.436-.312 2.822-.815 4.347-.836h.159c.754.007 1.507.113 2.243.287zm1.069 6.337c.221.023.28.053.391.111.462.241.669.877.423 1.349-.098.187-.139.212-.199.297-1.28 1.844-2.525 3.751-3.327 5.816-.251.649-.442 1.332-.299 2.028.276 1.346 1.58 2.404 2.958 2.395 1.535-.01 2.949-1.335 2.98-2.941.02-1.029-.549-2.019-1.078-3.04-.234-.452-.482-.896-.739-1.335 0 0-.292-.809.195-1.247.454-.409 1.254-.24 1.58.319 1.037 1.784 2.189 3.672 2.025 5.659-.177 2.15-1.896 4.085-4.037 4.495-2.159.414-4.526-.762-5.477-2.797-.478-1.022-.583-2.204-.292-3.297.72-2.697 2.412-5.135 3.997-7.377 0 0 .453-.452.899-.435zm-9.071 1.997v-1c.01-.51.428-.968.94-.998.077-.005.095-.001.119 0 .162.013.215.031.309.068.369.147.623.528.631.93v1h1c.014 0 .027 0 .04.001.757.045 1.243 1.072.702 1.67-.187.206-.466.323-.742.329h-1v1c-.013.654-.752 1.174-1.368.929-.37-.147-.623-.528-.631-.929v-1h-1c-.769-.016-1.302-1.053-.742-1.671.187-.207.466-.324.742-.329zm1-10.999c.551 0 .999.448.999 1s-.448 1-.999 1c-.552 0-1-.448-1-1s.448-1 1-1z" fill-rule="nonzero"/></svg>