<svg clip-rule="evenodd" fill-rule="evenodd" height="512" stroke-linejoin="round" stroke-miterlimit="2" viewBox="0 0 24 24" width="512" xmlns="http://www.w3.org/2000/svg"><g id="Icon"><path d="m22.75 14.75c0-4.28-3.47-7.75-7.75-7.75h-13c-.414 0-.75.336-.75.75v2c0 .378.282.697.657.744l7.124.891c.125.015.219.122.219.248v1.117c0 1.26.5 2.468 1.391 3.359s2.099 1.391 3.359 1.391h6c1.519 0 2.75-1.231 2.75-2.75zm-1.5 0c0 .69-.56 1.25-1.25 1.25h-6c-.862 0-1.689-.342-2.298-.952-.61-.609-.952-1.436-.952-2.298v-1.117c0-.883-.657-1.627-1.533-1.737 0 0-6.467-.808-6.467-.808v-.588h12.25c3.452 0 6.25 2.798 6.25 6.25z"/><path d="m1.25 6.25v5.5c0 .414.336.75.75.75s.75-.336.75-.75v-5.5c0-.414-.336-.75-.75-.75s-.75.336-.75.75z"/><path d="m19.5 4.5h-13c-.414 0-.75.336-.75.75s.336.75.75.75h13c.414 0 .75-.336.75-.75s-.336-.75-.75-.75z"/><path d="m22 18.5h-10.5c-.414 0-.75.336-.75.75s.336.75.75.75h10.5c.414 0 .75-.336.75-.75s-.336-.75-.75-.75z"/><path d="m12.25 4.75v3c0 .414.336.75.75.75s.75-.336.75-.75v-3c0-.414-.336-.75-.75-.75s-.75.336-.75.75z"/><path d="m13.75 16.75v2.5c0 .414.336.75.75.75s.75-.336.75-.75v-2.5c0-.414-.336-.75-.75-.75s-.75.336-.75.75z"/><path d="m18.25 16.75v2.5c0 .414.336.75.75.75s.75-.336.75-.75v-2.5c0-.414-.336-.75-.75-.75s-.75.336-.75.75z"/><path d="m21.553 13.002s-3.232-.231-5.304-.379c-.611-.044-1.101-.524-1.156-1.134l-.346-3.807c-.038-.412-.403-.716-.815-.679-.412.038-.716.403-.679.815 0 0 .199 2.191.346 3.807.122 1.342 1.199 2.398 2.543 2.494 2.072.148 5.305.379 5.305.379.412.03.772-.282.801-.695.03-.412-.282-.772-.695-.801z"/></g></svg>