<svg clip-rule="evenodd" fill-rule="evenodd" stroke-linejoin="round" stroke-miterlimit="1.414" viewBox="0 0 32 32" xmlns="http://www.w3.org/2000/svg" xmlns:serif="http://www.serif.com/"><path id="alert-report-flag" d="m0 0h32v32h-32z" fill="none"/><path d="m7.719 14.83h16.562v-9.464h-17.745c-.303-.012-.386-.052-.537-.129-.653-.333-.851-1.339-.3-1.891.219-.219.524-.334.837-.346h18.928c.031.001.062.002.093.004.596.07 1.066.572 1.09 1.179v11.83c-.011.285-.04.332-.09.453-.177.428-.624.712-1.093.73h-17.745v10.647c-.012.303-.052.386-.129.538-.334.655-1.343.847-1.891.299-.219-.219-.334-.524-.346-.837v-18.928c.011-.285.04-.332.09-.453.189-.457.678-.746 1.186-.726.594.07 1.066.572 1.09 1.179z" fill-rule="nonzero"/></svg>