<svg clip-rule="evenodd" fill-rule="evenodd" height="512" stroke-linejoin="round" stroke-miterlimit="2" viewBox="0 0 24 24" width="512" xmlns="http://www.w3.org/2000/svg"><g id="Icon"><path d="m18.192 14.739 1.741-1.741c.683-.684.683-1.792 0-2.475-1.494-1.493-4.954-4.954-6.447-6.447-.684-.683-1.792-.683-2.475 0l-1.741 1.741c-.62.62-1.003 1.438-1.083 2.312 0 0-.226 2.488-.226 2.488-.005.059-.031.113-.072.154 0 0-5.834 5.834-5.834 5.834-.515.516-.805 1.215-.805 1.944 0 .73.29 1.429.805 1.945.469.469.991.991 1.46 1.459.516.516 1.215.806 1.944.806.73 0 1.429-.29 1.945-.806 0 0 5.833-5.833 5.833-5.833.042-.041.096-.067.154-.072.001 0 2.489-.226 2.489-.226.873-.08 1.692-.463 2.312-1.083zm.68-2.802-1.741 1.741c-.372.372-.863.602-1.387.65l-2.488.226c-.408.037-.79.216-1.079.505l-5.834 5.834c-.234.234-.552.366-.884.366-.331 0-.649-.132-.883-.366-.469-.469-.991-.991-1.46-1.46-.234-.234-.366-.552-.366-.884 0-.331.132-.649.366-.883l5.834-5.834c.289-.289.468-.671.505-1.079l.226-2.488c.048-.524.278-1.015.65-1.387 0 0 1.741-1.741 1.741-1.741.097-.098.256-.098.353 0l6.447 6.447c.098.097.098.256 0 .353z"/><path d="m18.139 13.017-7.147-7.147c-.293-.292-.768-.292-1.06 0-.293.293-.293.768 0 1.061l7.146 7.146c.293.293.768.293 1.061 0 .292-.292.292-.768 0-1.06z"/><path d="m13.493 14.803-4.287-4.288c-.293-.292-.768-.292-1.061 0-.293.293-.293.768 0 1.061l4.288 4.288c.292.293.768.293 1.06 0 .293-.293.293-.768 0-1.061z"/><path d="m7.788 15.161-1.072 1.072c-.293.292-.293.767 0 1.06.292.293.768.293 1.06 0l1.072-1.072c.293-.292.293-.768 0-1.06-.292-.293-.768-.293-1.06 0z"/><path d="m19.222 3.726-1.429 1.43c-.293.292-.293.768 0 1.06.292.293.767.293 1.06 0l1.429-1.429c.293-.293.293-.768 0-1.061-.292-.292-.768-.292-1.06 0z"/><path d="m21.752 7.506-1.899.691c-.389.142-.59.572-.448.961.141.389.572.59.961.449l1.899-.692c.389-.141.59-.572.449-.961-.142-.389-.573-.59-.962-.448z"/><path d="m15.094 1.743-.692 1.9c-.141.389.059.82.448.961.389.142.82-.059.962-.448l.691-1.899c.142-.389-.059-.82-.448-.962-.389-.141-.82.06-.961.448z"/></g></svg>