<svg viewBox="0 0 32 32" xmlns="http://www.w3.org/2000/svg"><path d="m26 9h-2a1 1 0 0 0 0 2h2a1.0013 1.0013 0 0 1 1 1v12a1 1 0 0 1 -1 1h-20a1 1 0 0 1 -1-1v-12a1.0013 1.0013 0 0 1 1-1h2a1 1 0 0 0 0-2h-2a3.0033 3.0033 0 0 0 -3 3v12a2.9794 2.9794 0 0 0 .8789 2.1211 3.02 3.02 0 0 0 2.1211.8789h20a3.02 3.02 0 0 0 2.1211-.8789 2.9794 2.9794 0 0 0 .8789-2.1211v-12a3.0033 3.0033 0 0 0 -3-3z"/><path d="m13.28 14.623a1 1 0 0 0 1.44-1.3876l-.8286-.8594a3.2358 3.2358 0 0 1 -.8914-2.2339 3.0032 3.0032 0 1 1 6 0 3.2358 3.2358 0 0 1 -.8911 2.2339l-2.8281 2.9292a1 1 0 1 0 1.4384 1.39l2.8282-2.9292a5.1831 5.1831 0 0 0 1.4526-3.6239 5.002 5.002 0 1 0 -10 0 5.1838 5.1838 0 0 0 1.4536 3.6245z"/><path d="m14 21a1 1 0 0 0 0 2h4a1 1 0 0 0 0-2z"/></svg>