<svg clip-rule="evenodd" fill-rule="evenodd" height="512" stroke-linejoin="round" stroke-miterlimit="2" viewBox="0 0 24 24" width="512" xmlns="http://www.w3.org/2000/svg"><g id="Icon"><path d="m18.5 17.75h3.5c.414 0 .75-.336.75-.75v-6c0-1.79-.711-3.507-1.977-4.773-1.133-1.133-2.626-1.821-4.211-1.954-.412-.034-.775.273-.809.685-.035.413.272.776.685.81 1.232.103 2.393.639 3.274 1.52.985.984 1.538 2.32 1.538 3.712v5.25h-2.75c-.414 0-.75.336-.75.75s.336.75.75.75z"/><path d="m7.438 4.273c-1.585.133-3.078.821-4.211 1.954-1.266 1.266-1.977 2.983-1.977 4.773v6c0 .414.336.75.75.75h3c.414 0 .75-.336.75-.75s-.336-.75-.75-.75h-2.25v-5.25c0-1.392.553-2.728 1.538-3.712.881-.881 2.042-1.417 3.274-1.52.413-.034.72-.397.685-.81-.034-.412-.397-.719-.809-.685z"/><path d="m17.75 11v9c0 .332-.132.649-.366.884-.235.234-.552.366-.884.366-2.444 0-6.556 0-9 0-.332 0-.649-.132-.884-.366-.234-.235-.366-.552-.366-.884v-9c0-.414-.336-.75-.75-.75s-.75.336-.75.75v9c0 .729.29 1.429.805 1.945.516.515 1.216.805 1.945.805h9c.729 0 1.429-.29 1.945-.805.515-.516.805-1.216.805-1.945 0-3.172 0-9 0-9 0-.414-.336-.75-.75-.75s-.75.336-.75.75z"/><path d="m1.75 17v2c0 .967.783 1.75 1.75 1.75h2c.414 0 .75-.336.75-.75s-.336-.75-.75-.75h-2c-.138 0-.25-.112-.25-.25v-2c0-.414-.336-.75-.75-.75s-.75.336-.75.75z"/><path d="m20.75 17v2c0 .138-.112.25-.25.25h-2c-.414 0-.75.336-.75.75s.336.75.75.75h2c.967 0 1.75-.783 1.75-1.75v-2c0-.414-.336-.75-.75-.75s-.75.336-.75.75z"/><path d="m6.297 3.198c.101.937.41 2.063 1.258 2.965.826.879 2.179 1.576 4.441 1.587 3.958.019 5.193-2.651 5.583-4.363 0 0 .001-.001.001-.001.117-.519-.008-1.063-.341-1.479-.332-.416-.836-.657-1.368-.657-1.956 0-5.952 0-7.841.004-.496 0-.97.213-1.301.584s-.488.866-.432 1.36zm1.491-.164c0-.002 0-.004 0-.006-.008-.07.014-.139.06-.192.047-.052.114-.082.184-.082h.002c1.887-.004 5.881-.004 7.838-.004h.001c.076 0 .147.034.195.094.047.059.065.137.049.211-.288 1.258-1.205 3.209-4.113 3.195-1.696-.008-2.737-.455-3.357-1.115-.597-.635-.788-1.441-.859-2.101zm-1.49.165-.001-.006z"/><path d="m12.75 7v6c0 .414.336.75.75.75s.75-.336.75-.75v-6c0-.414-.336-.75-.75-.75s-.75.336-.75.75z"/><path d="m9.75 7v3.5c0 .414.336.75.75.75s.75-.336.75-.75v-3.5c0-.414-.336-.75-.75-.75s-.75.336-.75.75z"/><path d="m18.5 17.75h-13c-.414 0-.75.336-.75.75s.336.75.75.75h13c.414 0 .75-.336.75-.75s-.336-.75-.75-.75z"/></g></svg>