<svg clip-rule="evenodd" fill-rule="evenodd" stroke-linejoin="round" stroke-miterlimit="1.414" viewBox="0 0 32 32" xmlns="http://www.w3.org/2000/svg" xmlns:serif="http://www.serif.com/"><path id="whistle-sport-referee-foul" d="m0 0h32v32h-32z" fill="none"/><path d="m15.08 8.998c.5.07.886.492.909.997v1.001h2.002v-1.001c.025-.538.451-.976 1.001-1.001h8.007c.536.025.976.461 1.001 1.001v4.003c-.021.464-.342.867-.805.982-1.843.369-3.689.731-5.531 1.106-1.91.403-3.614 1.628-4.603 3.314 0 0-.242.469-.546.877-.482.648-1.052 1.305-1.775 1.621-.662.29-1.565-.353-1.375-1.149.071-.298.222-.452.59-.722.78-.582 1.239-1.487 1.765-2.244 1.303-1.874 3.333-3.208 5.596-3.669l4.682-.936v-2.182h-6.005v1.001s-.191.963-1.001 1h-4.004c-.537-.024-.976-.451-1.001-1v-1.001c-1.655 0-3.367-.223-4.808.335-1.946.755-3.299 2.829-3.193 4.927.128 2.517 2.365 4.738 5.001 4.747 0 0 .931.203.994.912.052.573-.458 1.097-1.087 1.089-2.851-.036-5.62-2.022-6.548-4.759-.97-2.865.148-6.316 2.721-8.055 1.146-.775 2.524-1.194 3.916-1.198h4.005c.031.001.062.003.092.004z" fill-rule="nonzero"/></svg>