<svg clip-rule="evenodd" fill-rule="evenodd" stroke-linejoin="round" stroke-miterlimit="2" viewBox="0 0 32 32" xmlns="http://www.w3.org/2000/svg" xmlns:serif="http://www.serif.com/"><path id="online-course-phone" d="m0 0h32v32h-32z" fill="none"/><path d="m22.029 3.019c1.538.028 2.928 1.338 2.958 2.958.041 6.682.041 13.364 0 20.046-.029 1.545-1.365 2.929-2.958 2.958-4.019.025-8.039.025-12.058 0-1.545-.029-2.928-1.364-2.958-2.958-.041-6.682-.041-13.364 0-20.046.029-1.545 1.365-2.929 2.958-2.958 4.019-.025 8.039-.025 12.058 0zm-3.033 1.965v.032c0 1.103-.894 1.997-1.997 1.997h-1.998c-.529 0-1.037-.211-1.412-.585-.374-.375-.585-.883-.585-1.412v-.011c-.997.006-1.995.011-2.992.011-.522.003-.992.456-1.002.986-.041 6.669-.124 13.34 0 20.009.016.506.46.957.974.973 4.01.075 8.022.075 12.032 0 .508-.016.958-.459.974-.973.123-6.673.123-13.349 0-20.022-.016-.507-.46-.957-.974-.973-1.007-.019-2.013-.028-3.02-.032zm-6.823 6.023c1.415.018 2.755.683 3.84 1.625 0 0 .737-.606 1.39-.954.83-.441 1.774-.775 2.711-.662.963.116 1.297 1.954-.248 1.991-1.221.04-2.278.828-3.099 1.643 0 0-.912.636-1.603-.074-.037-.037-.073-.074-.11-.111-.587-.576-1.261-1.085-2.041-1.327l-.009 3.917c1.126.194 2.157.811 3.022 1.574.043-.036.087-.072.131-.107.835-.663 1.785-1.194 2.822-1.415l.018-1.163c.072-.854 1.447-1.313 1.897-.377.062.129.092.204.099.433v1.999c-.005.182-.022.232-.056.329-.144.415-.483.651-1.057.672-1.264.058-2.342.89-3.182 1.711 0 0-.826.587-1.541-.152-.121-.123-.244-.243-.371-.36-.1-.09-.202-.179-.306-.264-.089-.072-.179-.142-.271-.209-.615-.446-1.361-.782-2.137-.73 0 0-1.04-.119-1.065-.997v-5.991c.005-.179.021-.229.054-.324.153-.446.54-.679 1.112-.677z"/></svg>