<svg clip-rule="evenodd" fill-rule="evenodd" height="512" stroke-linejoin="round" stroke-miterlimit="2" viewBox="0 0 24 24" width="512" xmlns="http://www.w3.org/2000/svg"><g id="Icon"><path d="m15.25 13v8c0 .967.784 1.75 1.75 1.75h1c1.26 0 2.468-.5 3.359-1.391s1.391-2.099 1.391-3.359c0-.659 0-1.341 0-2 0-1.26-.5-2.468-1.391-3.359s-2.099-1.391-3.359-1.391c-.364 0-.706 0-1 0-.966 0-1.75.783-1.75 1.75zm1.5 0c0-.138.112-.25.25-.25h1c.862 0 1.689.342 2.298.952.61.609.952 1.436.952 2.298v2c0 .862-.342 1.689-.952 2.298-.609.61-1.436.952-2.298.952h-1c-.138 0-.25-.112-.25-.25z"/><path d="m8.75 21v-8c0-.967-.784-1.75-1.75-1.75-.294 0-.636 0-1 0-1.26 0-2.468.5-3.359 1.391s-1.391 2.099-1.391 3.359v2c0 1.26.5 2.468 1.391 3.359s2.099 1.391 3.359 1.391h1c.966 0 1.75-.783 1.75-1.75zm-1.5-8v8c0 .138-.112.25-.25.25h-1c-.862 0-1.689-.342-2.298-.952-.61-.609-.952-1.436-.952-2.298v-2c0-.862.342-1.689.952-2.298.609-.61 1.436-.952 2.298-.952h1c.138 0 .25.112.25.25z"/><path d="m22.75 16v-5c0-5.385-4.365-9.75-9.75-9.75-.665 0-1.335 0-2 0-5.385 0-9.75 4.365-9.75 9.75v5c0 .414.336.75.75.75s.75-.336.75-.75v-5c0-4.556 3.694-8.25 8.25-8.25h2c4.556 0 8.25 3.694 8.25 8.25v5c0 .414.336.75.75.75s.75-.336.75-.75z"/></g></svg>