<svg clip-rule="evenodd" fill-rule="evenodd" height="512" stroke-linejoin="round" stroke-miterlimit="2" viewBox="0 0 24 24" width="512" xmlns="http://www.w3.org/2000/svg"><g id="Icon"><path d="m19.75 9c0-4.323-3.54-7.821-7.881-7.749 0 0 0 0-.001 0-4.044.068-7.467 3.421-7.613 7.464-.088 2.47.981 4.689 2.706 6.165h.001c.777.665 1.288 1.59 1.288 2.612v.508c0 1.519 1.231 2.75 2.75 2.75h2c1.519 0 2.75-1.231 2.75-2.75v-.512c0-1.005.484-1.929 1.253-2.578 1.679-1.419 2.747-3.538 2.747-5.91zm-1.5 0c0 1.912-.862 3.621-2.215 4.764-1.107.935-1.785 2.275-1.785 3.724v.512c0 .69-.56 1.25-1.25 1.25h-2c-.69 0-1.25-.56-1.25-1.25v-.508c0-1.462-.701-2.801-1.814-3.752-1.39-1.19-2.253-2.979-2.181-4.971.116-3.261 2.877-5.964 6.138-6.018 3.501-.058 6.357 2.762 6.357 6.249z"/><path d="m11.25 10v6c0 .414.336.75.75.75s.75-.336.75-.75v-6c0-.414-.336-.75-.75-.75s-.75.336-.75.75z"/><path d="m9 16.75h6c.414 0 .75-.336.75-.75s-.336-.75-.75-.75h-6c-.414 0-.75.336-.75.75s.336.75.75.75z"/><path d="m10 22.75h4c.414 0 .75-.336.75-.75s-.336-.75-.75-.75h-4c-.414 0-.75.336-.75.75s.336.75.75.75z"/><path d="m11.25 11.5c0 .199.079.39.22.53.141.141.331.22.53.22h1.5c2.071 0 3.75-1.679 3.75-3.75 0-.199-.079-.39-.22-.53-.14-.141-.331-.22-.53-.22h-1.5c-2.071 0-3.75 1.679-3.75 3.75zm1.628-.75c.309-.874 1.142-1.5 2.122-1.5h.622c-.309.874-1.142 1.5-2.122 1.5z"/><path d="m12 10.75c.199 0 .39-.079.531-.22.14-.14.219-.331.219-.53 0-2.071-1.679-3.75-3.75-3.75h-1.5c-.199 0-.389.079-.53.22-.141.14-.22.331-.22.53 0 2.071 1.679 3.75 3.75 3.75zm-.878-1.5h-.622c-.979 0-1.813-.626-2.122-1.5h.622c.98 0 1.813.626 2.122 1.5z"/></g></svg>