<svg clip-rule="evenodd" fill-rule="evenodd" height="512" stroke-linejoin="round" stroke-miterlimit="2" viewBox="0 0 24 24" width="512" xmlns="http://www.w3.org/2000/svg"><g id="Icon"><path d="m18 18.748h1.5c.729 0 1.429-.29 1.945-.806.515-.515.805-1.215.805-1.944 0-1.986 0-5.014 0-7 0-.729-.29-1.429-.805-1.945-.516-.515-1.216-.805-1.945-.805h-15c-.729 0-1.429.29-1.945.805-.515.516-.805 1.216-.805 1.945v7c0 .729.29 1.429.805 1.944.516.516 1.216.806 1.945.806h1.5c.414 0 .75-.336.75-.75s-.336-.75-.75-.75h-1.5c-.332 0-.649-.132-.884-.366-.234-.235-.366-.553-.366-.884v-7c0-.332.132-.65.366-.884.235-.234.552-.366.884-.366h15c.332 0 .649.132.884.366.234.234.366.552.366.884v7c0 .331-.132.649-.366.884-.235.234-.552.366-.884.366h-1.5c-.414 0-.75.336-.75.75s.336.75.75.75z"/><path d="m18.75 3c0-.464-.184-.909-.513-1.237-.328-.329-.773-.513-1.237-.513-2.26 0-7.74 0-10 0-.464 0-.909.184-1.237.513-.329.328-.513.773-.513 1.237v3.998c0 .414.336.75.75.75h12c.414 0 .75-.336.75-.75zm-1.5 0v3.248h-10.5v-3.248c0-.066.026-.13.073-.177s.111-.073.177-.073h10c.066 0 .13.026.177.073s.073.111.073.177z"/><path d="m17.25 14.998v5.998c0 .138-.112.25-.25.25h-10c-.138 0-.25-.112-.25-.25v-5.998c0-.414-.336-.75-.75-.75s-.75.336-.75.75v5.998c0 .966.784 1.75 1.75 1.75h10c.966 0 1.75-.784 1.75-1.75v-5.998c0-.414-.336-.75-.75-.75s-.75.336-.75.75z"/><circle cx="12" cy="18.5" r="1"/><path d="m10.95 17.058c.293-.22.656-.35 1.049-.35.394 0 .757.13 1.049.35.331.249.802.182 1.051-.149.248-.331.181-.802-.15-1.05-.543-.408-1.218-.651-1.95-.651-.731 0-1.406.243-1.949.651-.331.248-.398.719-.15 1.05.249.331.72.398 1.05.149z"/><path d="m9.95 14.975c.572-.429 1.281-.683 2.05-.683s1.478.254 2.05.683c.33.248.801.182 1.05-.149.248-.331.181-.802-.15-1.05-.822-.618-1.843-.984-2.95-.984s-2.128.366-2.95.984c-.331.248-.398.719-.15 1.05.249.331.72.397 1.05.149z"/><path d="m18.5 9.25h-2c-.414 0-.75.336-.75.75s.336.75.75.75h2c.414 0 .75-.336.75-.75s-.336-.75-.75-.75z"/></g></svg>