<svg clip-rule="evenodd" fill-rule="evenodd" stroke-linejoin="round" stroke-miterlimit="2" viewBox="0 0 32 32" xmlns="http://www.w3.org/2000/svg" xmlns:serif="http://www.serif.com/"><path id="read-mail-opened-letter" d="m0 0h32v32h-32z" fill="none"/><path d="m3.513 12.118c.025-.025.051-.049.079-.072l11.802-8.852c.332-.226.338-.225.728-.191.169.029.328.093.472.191l8.996 6.747c.702.578.473 1.001.226 1.363-.302.443-.968.549-1.426.237l-8.396-6.298-10.19 7.643 10.19 5.944 11.491-6.703s.453-.163.736-.109c.44.128.745.512.767.972 0 4.344.027 8.688 0 13.031-.029 1.548-1.366 2.932-2.961 2.961-6.689.042-13.377.042-20.066 0-1.556-.029-2.951-1.362-2.961-2.995v-8.999c.031-.645.33-.793.584-.909.601-.274 1.382.205 1.415.909 0 3.007-.056 6.014 0 9.021.016.512.47.965.987.974 6.676.042 13.353.124 20.028 0 .511-.016.965-.467.975-.987v-11.266l-10.491 6.12c-.469.244-.653.185-1.008 0l-11.994-6.997c-.601-.39-.599-1.378.017-1.735z"/></svg>