<svg clip-rule="evenodd" fill-rule="evenodd" height="512" stroke-linejoin="round" stroke-miterlimit="2" viewBox="0 0 24 24" width="512" xmlns="http://www.w3.org/2000/svg"><g id="Icon"><circle cx="5.25" cy="5" r=".75"/><circle cx="7.75" cy="5" r=".75"/><circle cx="10.25" cy="5" r=".75"/><path d="m22.75 9.5v-5c0-1.795-1.455-3.25-3.25-3.25-3.842 0-11.158 0-15 0-1.795 0-3.25 1.455-3.25 3.25v15c0 1.795 1.455 3.25 3.25 3.25h8.5c.414 0 .75-.336.75-.75s-.336-.75-.75-.75h-8.5c-.967 0-1.75-.783-1.75-1.75v-15c0-.967.783-1.75 1.75-1.75h15c.967 0 1.75.783 1.75 1.75v5c0 .414.336.75.75.75s.75-.336.75-.75z"/><path d="m22 7.25h-20c-.414 0-.75.336-.75.75s.336.75.75.75h20c.414 0 .75-.336.75-.75s-.336-.75-.75-.75z"/><path d="m19 11.25c-2.07 0-3.75 1.68-3.75 3.75 0 .92.335 1.844.813 2.672.66 1.143 1.584 2.098 2.087 2.572.001.002.003.003.005.005.477.441 1.213.441 1.69-.001.002-.001.003-.003.005-.004.503-.474 1.427-1.429 2.087-2.572.478-.828.813-1.752.813-2.672 0-2.07-1.68-3.75-3.75-3.75zm-.001 7.73c-.455-.448-1.135-1.189-1.637-2.058-.345-.598-.612-1.258-.612-1.922 0-1.242 1.008-2.25 2.25-2.25s2.25 1.008 2.25 2.25c0 .664-.267 1.324-.612 1.921-.502.871-1.184 1.612-1.639 2.059z"/><path d="m16 22.75h6c.414 0 .75-.336.75-.75s-.336-.75-.75-.75h-6c-.414 0-.75.336-.75.75s.336.75.75.75z"/></g></svg>