<svg clip-rule="evenodd" fill-rule="evenodd" height="512" stroke-linejoin="round" stroke-miterlimit="2" viewBox="0 0 24 24" width="512" xmlns="http://www.w3.org/2000/svg"><g id="Icon"><path d="m20 22.75c.729 0 1.429-.29 1.945-.805.515-.516.805-1.216.805-1.945 0-3.832 0-12.168 0-16 0-.729-.29-1.429-.805-1.945-.516-.515-1.216-.805-1.945-.805-3.832 0-12.168 0-16 0-.729 0-1.429.29-1.945.805-.515.516-.805 1.216-.805 1.945v16c0 .729.29 1.429.805 1.945.516.515 1.216.805 1.945.805zm0-1.5h-16c-.332 0-.649-.132-.884-.366-.234-.235-.366-.552-.366-.884v-16c0-.332.132-.649.366-.884.235-.234.552-.366.884-.366h16c.332 0 .649.132.884.366.234.235.366.552.366.884v16c0 .332-.132.649-.366.884-.235.234-.552.366-.884.366z"/><path d="m16.239 4.87c-.064-.359-.375-.62-.739-.62h-7c-.364 0-.675.261-.739.62 0 0-.324 1.838-.671 3.805-.244 1.382.136 2.802 1.039 3.878.902 1.076 2.235 1.697 3.639 1.697h.464c1.404 0 2.737-.621 3.639-1.697.903-1.076 1.283-2.496 1.039-3.878zm-1.368.88.562 3.185c.167.946-.093 1.918-.711 2.654-.617.736-1.529 1.161-2.49 1.161h-.464c-.961 0-1.873-.425-2.49-1.161-.618-.736-.878-1.708-.711-2.654 0 0 .562-3.185.562-3.185z"/><path d="m11.25 13.5v5.5c0 .414.336.75.75.75s.75-.336.75-.75v-5.5c0-.414-.336-.75-.75-.75s-.75.336-.75.75z"/><path d="m14 18.25h-4c-.414 0-.75.336-.75.75s.336.75.75.75h4c.414 0 .75-.336.75-.75s-.336-.75-.75-.75z"/><path d="m11.579 4.665-1.5 3c-.116.232-.104.508.033.729s.378.356.638.356h1.175s-.818 1.364-.818 1.364c-.213.355-.098.816.257 1.029s.816.098 1.029-.257l1.5-2.5c.139-.232.143-.52.01-.756-.133-.235-.383-.38-.653-.38h-1.286s.957-1.915.957-1.915c.185-.37.035-.821-.336-1.006-.37-.185-.821-.035-1.006.336z"/></g></svg>