<svg height="512" viewBox="0 0 32 32" width="512" xmlns="http://www.w3.org/2000/svg"><g id="Layer_33" data-name="Layer 33"><path d="m13 15h2v2h-2z"/><path d="m13 19h2v2h-2z"/><path d="m13 23h2v2h-2z"/><path d="m17 15h2v2h-2z"/><path d="m17 19h2v2h-2z"/><path d="m17 23h2v2h-2z"/><path d="m28 27h-5v-10h2v7a1 1 0 0 0 2 0v-8a1 1 0 0 0 -1-1h-3v-3a1 1 0 0 0 -1-1h-1v-3a1 1 0 0 0 -1-1h-1v-3a1 1 0 0 0 -1-1h-4a1 1 0 0 0 -1 1v3h-1a1 1 0 0 0 -1 1v3h-1a1 1 0 0 0 -1 1v3h-3a1 1 0 0 0 -1 1v11h-1a1 1 0 0 0 0 2h24a1 1 0 0 0 0-2zm-13-22h2v2h-2zm-2 4h6v2h-6zm-6 8h2v7a1 1 0 0 0 2 0v-11h10v14h-14z"/></g></svg>