<svg clip-rule="evenodd" fill-rule="evenodd" height="512" stroke-linejoin="round" stroke-miterlimit="2" viewBox="0 0 24 24" width="512" xmlns="http://www.w3.org/2000/svg"><g id="Icon"><path d="m17.977 19.047c.481-.328.773-.878.773-1.47v-11.154c0-.59-.291-1.141-.772-1.47l-5.001-3.402c-.592-.403-1.361-.403-1.953.001l-5 3.401c-.483.328-.774.879-.774 1.47v11.154c0 .592.292 1.143.775 1.47-.001 0 4.999 3.401 4.999 3.401.591.404 1.362.404 1.955-.002-.002.002 4.998-3.399 4.998-3.399zm-.844-1.241-5.002 3.403c-.079.054-.182.054-.261 0l-5.003-3.403c-.075-.051-.117-.138-.117-.229v-11.154c0-.092.043-.179.118-.231l5-3.401c.08-.054.185-.054.265 0l4.999 3.401c.075.051.118.138.118.231 0-.001 0 11.154 0 11.154 0 .091-.042.179-.117.229z"/><path d="m15.422 7.379-2.471-1.679c-.578-.374-1.324-.374-1.902 0l-2.47 1.679c-.343.233-.432.7-.199 1.042.233.343.7.432 1.042.199l2.447-1.663c.077-.049.175-.05.254-.005.008.005 2.456 1.668 2.456 1.668.342.233.809.144 1.042-.199.232-.342.143-.809-.199-1.042z"/><path d="m15.422 11.379-2.471-1.679c-.578-.374-1.324-.374-1.902 0l-2.47 1.679c-.343.233-.432.7-.199 1.042.233.343.7.432 1.042.199l2.447-1.663c.077-.049.175-.05.254-.005.008.005 2.456 1.668 2.456 1.668.342.233.809.144 1.042-.199.232-.342.143-.809-.199-1.042z"/></g></svg>