<svg clip-rule="evenodd" fill-rule="evenodd" height="512" stroke-linejoin="round" stroke-miterlimit="2" viewBox="0 0 24 24" width="512" xmlns="http://www.w3.org/2000/svg"><g id="Icon"><path d="m7.379 17.854v.275c0 .771.625 1.395 1.395 1.395h6.452c.77 0 1.395-.624 1.395-1.395 0-.062-.001-.128.006-.197.003-.026.004-.052.004-.078 0-1.342.474-2.641 1.339-3.667 1.17-1.371 1.877-3.149 1.877-5.09 0-4.331-3.516-7.847-7.847-7.847s-7.847 3.516-7.847 7.847c0 1.942.707 3.72 1.885 5.085.866 1.028 1.341 2.329 1.341 3.672zm7.743.17h-6.243v-.17c0-1.698-.601-3.342-1.696-4.641-.002-.002-.004-.004-.006-.007-.953-1.102-1.524-2.539-1.524-4.109 0-3.503 2.844-6.347 6.347-6.347s6.347 2.844 6.347 6.347c0 1.571-.573 3.01-1.52 4.119-.001.001-.002.002-.003.004-1.086 1.288-1.685 2.917-1.693 4.602-.006.067-.008.135-.009.202z"/><path d="m15.976 18.774c0-.414-.336-.75-.75-.75h-6.452c-.414 0-.75.336-.75.75v1.936c0 .541.215 1.06.598 1.442.382.383.901.598 1.443.598h3.87c.542 0 1.061-.215 1.443-.598.383-.382.598-.901.598-1.442 0-.645 0-1.936 0-1.936zm-1.5.75v1.186c0 .143-.057.28-.158.382-.102.101-.239.158-.383.158h-3.87c-.144 0-.281-.057-.383-.158-.101-.102-.158-.239-.158-.382v-1.186z"/><path d="m12 5.976c1.723 0 3.121 1.398 3.121 3.121 0 .414.336.75.75.75s.75-.336.75-.75c0-2.551-2.071-4.621-4.621-4.621-.414 0-.75.336-.75.75s.336.75.75.75z"/></g></svg>