<?xml version="1.0"?>
<svg xmlns="http://www.w3.org/2000/svg" viewBox="0 0 32 32" width="512" height="512"><g id="truck_courier_delivery" data-name="truck, courier, delivery"><path d="M26.707,17.293l-4-4A1,1,0,0,0,22,13H19V6a1,1,0,0,0-1-1H8A3.0033,3.0033,0,0,0,5,8V24a1,1,0,0,0,1,1H7.1843a3,3,0,1,0,0-2H7V8A1.0013,1.0013,0,0,1,8,7h9V20a1,1,0,0,0,2,0V15h2.5859L25,18.4141V23h-.1843a2.982,2.982,0,0,0-5.6314,0H15.0078a1,1,0,0,0,0,2h4.1765a2.982,2.982,0,0,0,5.6314,0H26a1,1,0,0,0,1-1V18A.9993.9993,0,0,0,26.707,17.293ZM10,23a1,1,0,1,1-1,1A1.0009,1.0009,0,0,1,10,23Zm12,2a1,1,0,1,1,1-1A1.0009,1.0009,0,0,1,22,25Z"/></g></svg>
