<svg clip-rule="evenodd" fill-rule="evenodd" height="512" stroke-linejoin="round" stroke-miterlimit="2" viewBox="0 0 24 24" width="512" xmlns="http://www.w3.org/2000/svg"><g id="Icon"><path d="m12 13.75c2.347 0 4.25-1.903 4.25-4.25 0-1.316 0-2.5 0-2.5 0-.276-.152-.531-.396-.661-2.567-1.376-5.134-1.344-7.701-.004-.248.129-.403.386-.403.665v2.5c0 2.347 1.903 4.25 4.25 4.25zm0-1.5c-1.519 0-2.75-1.231-2.75-2.75v-2.033c1.833-.838 3.667-.86 5.5-.004v2.037c0 1.519-1.231 2.75-2.75 2.75z"/><path d="m14 14.75h2c1.243 0 2.25 1.007 2.25 2.25v4.25h-12.5v-4.25c0-1.243 1.007-2.25 2.25-2.25h2c.414 0 .75-.336.75-.75s-.336-.75-.75-.75c0 0-.937 0-2 0-2.071 0-3.75 1.679-3.75 3.75v5c0 .414.336.75.75.75h14c.414 0 .75-.336.75-.75 0 0 0-2.73 0-5 0-2.071-1.679-3.75-3.75-3.75-1.063 0-2 0-2 0-.414 0-.75.336-.75.75s.336.75.75.75z"/><path d="m12 15.25c-.69 0-1.25-.56-1.25-1.25v-1.5c0-.414-.336-.75-.75-.75s-.75.336-.75.75v1.5c0 1.519 1.231 2.75 2.75 2.75s2.75-1.231 2.75-2.75c0-.784 0-1.5 0-1.5 0-.414-.336-.75-.75-.75s-.75.336-.75.75v1.5c0 .69-.56 1.25-1.25 1.25z"/><path d="m16.196 4.221s-.452-1.13-.748-1.871c-.266-.664-.909-1.1-1.625-1.1-.956 0-2.69 0-3.646 0-.716 0-1.359.436-1.625 1.1-.296.741-.748 1.871-.748 1.871-.154.385.033.822.417.975.385.154.822-.033.975-.417l.749-1.872c.038-.095.13-.157.232-.157h3.646c.102 0 .194.062.232.157l.749 1.872c.153.384.59.571.975.417.384-.153.571-.59.417-.975z"/><path d="m8.715 7.812c-.65-.195-1.191-.443-1.566-.741-.226-.179-.399-.354-.399-.571 0-.114.059-.218.142-.321.147-.185.367-.35.637-.503 1.008-.573 2.638-.926 4.471-.926s3.463.353 4.471.926c.27.153.49.318.637.503.083.103.142.207.142.321 0 .217-.173.392-.399.571-.375.298-.916.546-1.566.741-.397.119-.622.537-.503.934.119.396.537.622.933.503 1.054-.316 1.878-.771 2.376-1.279.442-.45.659-.954.659-1.47 0-.615-.314-1.222-.95-1.733-1.09-.875-3.273-1.517-5.8-1.517s-4.71.642-5.8 1.517c-.636.511-.95 1.118-.95 1.733 0 .516.217 1.02.659 1.47.498.508 1.322.963 2.376 1.279.396.119.814-.107.933-.503.119-.397-.106-.815-.503-.934z"/><path d="m15.25 14v8c0 .414.336.75.75.75s.75-.336.75-.75v-8c0-.414-.336-.75-.75-.75s-.75.336-.75.75z"/><path d="m7.25 14v8c0 .414.336.75.75.75s.75-.336.75-.75v-8c0-.414-.336-.75-.75-.75s-.75.336-.75.75z"/></g></svg>