<svg viewBox="0 0 32 32" xmlns="http://www.w3.org/2000/svg"><g id="line_chat_chatting_message" data-name="line, chat, chatting, message"><path d="m30 13.1377a1 1 0 0 0 -1 1 12.0473 12.0473 0 0 1 -.1787 1.67 7.9717 7.9717 0 0 1 -.8643 2.4551 10.7092 10.7092 0 0 1 -2.791 3.3291 43.2818 43.2818 0 0 1 -8.756 5.8436l.17-.8486a1.7607 1.7607 0 0 0 -.3145-1.3984 1.8028 1.8028 0 0 0 -1.2832-.711c-6.4394-.5683-11.2949-5.0136-11.2949-10.34 0-5.7422 5.6777-10.4141 12.6563-10.4141a13.3232 13.3232 0 0 1 10.8506 5.0566 1 1 0 0 0 1.6133-1.1817 15.32 15.32 0 0 0 -12.4638-5.875c-8.0811 0-14.6563 5.5694-14.6563 12.4141 0 6.3027 5.5205 11.56 12.8809 12.31l-.5284 2.6326a1 1 0 0 0 .3731.9912 1.2434 1.2434 0 0 0 1.0547.1 49.4328 49.4328 0 0 0 11.0029-7.0635 12.5338 12.5338 0 0 0 3.2412-3.8867 9.7968 9.7968 0 0 0 1.1045-3.201 12.7185 12.7185 0 0 0 .1836-1.8823 1 1 0 0 0 -1-1z"/><path d="m7 11a1 1 0 0 0 -1 1v5a1 1 0 0 0 1 1h3a1 1 0 0 0 0-2h-2v-4a1 1 0 0 0 -1-1z"/><path d="m12 12v5a1 1 0 0 0 2 0v-5a1 1 0 0 0 -2 0z"/><path d="m19 12v2.1494l-2.2187-2.7744a1 1 0 0 0 -1.7813.625v5a1 1 0 0 0 2 0v-2.1494l2.2188 2.7744a1.19 1.19 0 0 0 1.1123.3184.9966.9966 0 0 0 .6689-.9434v-5a1 1 0 0 0 -2 0z"/><path d="m26 13a1 1 0 0 0 0-2h-3a1 1 0 0 0 -1 1v5a1 1 0 0 0 1 1h3a1 1 0 0 0 0-2h-2v-.5h2a1 1 0 0 0 0-2h-2v-.5z"/></g></svg>