<svg clip-rule="evenodd" fill-rule="evenodd" height="512" stroke-linejoin="round" stroke-miterlimit="2" viewBox="0 0 24 24" width="512" xmlns="http://www.w3.org/2000/svg"><g id="Icon"><path d="m12 20.21-4.828-10.46h3.828c.414 0 .75-.336.75-.75s-.336-.75-.75-.75h-5c-.256 0-.494.13-.632.346-.138.215-.156.486-.049.718 0 0 4.148 8.987 5.546 12.017.204.442.647.726 1.135.726s.931-.284 1.135-.726c1.398-3.03 5.546-12.017 5.546-12.017.107-.232.089-.503-.049-.718-.138-.216-.376-.346-.632-.346h-4.5c-.414 0-.75.336-.75.75s.336.75.75.75h3.328z"/><path d="m11.75 9c0-1.518 1.232-2.75 2.75-2.75s2.75 1.232 2.75 2.75c0 .414.336.75.75.75s.75-.336.75-.75c0-2.346-1.904-4.25-4.25-4.25s-4.25 1.904-4.25 4.25c0 .414.336.75.75.75s.75-.336.75-.75z"/><path d="m6.75 9c0-1.518 1.232-2.75 2.75-2.75.749 0 1.428.3 1.924.786.295.289.771.285 1.06-.011.29-.296.285-.771-.011-1.061-.766-.751-1.816-1.214-2.973-1.214-2.346 0-4.25 1.904-4.25 4.25 0 .414.336.75.75.75s.75-.336.75-.75z"/><path d="m9.25 5.5c0-1.518 1.232-2.75 2.75-2.75s2.75 1.232 2.75 2.75c0 .414.336.75.75.75s.75-.336.75-.75c0-2.346-1.904-4.25-4.25-4.25s-4.25 1.904-4.25 4.25c0 .414.336.75.75.75s.75-.336.75-.75z"/><path d="m10.25 9v2.75c0 .53.211 1.039.586 1.414s.884.586 1.414.586 1.039-.211 1.414-.586.586-.884.586-1.414c0-1.174 0-2.75 0-2.75 0-.414-.336-.75-.75-.75s-.75.336-.75.75v2.75c0 .133-.053.26-.146.354-.094.093-.221.146-.354.146s-.26-.053-.354-.146c-.093-.094-.146-.221-.146-.354v-2.75c0-.414-.336-.75-.75-.75s-.75.336-.75.75z"/></g></svg>