<svg clip-rule="evenodd" fill-rule="evenodd" height="512" stroke-linejoin="round" stroke-miterlimit="2" viewBox="0 0 24 24" width="512" xmlns="http://www.w3.org/2000/svg"><g id="Icon"><path d="m20.636 19.192 1.585-5.55c.065-.226.02-.47-.122-.657-.142-.188-.363-.299-.599-.299h-19c-.235 0-.457.111-.599.299-.141.187-.187.431-.122.657 0 0 1 3.499 1.585 5.55.338 1.18 1.417 1.994 2.645 1.994h11.982c1.228 0 2.307-.814 2.645-1.994zm-1.443-.412c-.153.536-.643.906-1.202.906h-11.982c-.558 0-1.049-.37-1.202-.906 0 0-1.313-4.594-1.313-4.594h17.012z"/><path d="m22.75 12.436c0-.164 0-.335 0-.5 0-.464-.184-.909-.513-1.237-.328-.328-.773-.513-1.237-.513-3.414 0-14.586 0-18 0-.464 0-.909.185-1.237.513-.329.328-.513.773-.513 1.237v.5c0 .464.184.909.513 1.238.328.328.773.512 1.237.512h18c.464 0 .909-.184 1.237-.512.329-.329.513-.774.513-1.238zm-1.5-.5v.5c0 .066-.026.13-.073.177s-.111.073-.177.073h-18c-.066 0-.13-.026-.177-.073s-.073-.111-.073-.177v-.5c0-.066.026-.13.073-.177.047-.046.111-.073.177-.073h18c.066 0 .13.027.177.073.047.047.073.111.073.177z"/><path d="m20.705 11.168s.807-2.219 1.285-3.53c.158-.436.137-.917-.059-1.338s-.551-.746-.987-.905c-.819-.298-2.001-.728-2.819-1.026-.909-.33-1.913.138-2.243 1.046l-.587 1.611c-.141.389.06.82.448.961.389.142.82-.059.962-.448l.586-1.611c.047-.13.191-.197.321-.149l2.819 1.026c.062.022.113.069.141.129s.031.129.008.191c0 0-1.285 3.53-1.285 3.53-.141.389.06.82.448.961.389.142.82-.059.962-.448z"/><path d="m16.75 6.936c0-.464-.184-.909-.513-1.237-.328-.328-.773-.513-1.237-.513-.871 0-2.129 0-3 0-.464 0-.909.185-1.237.513-.329.328-.513.773-.513 1.237v3c0 .464.184.909.513 1.238.328.328.773.512 1.237.512h3c.464 0 .909-.184 1.237-.512.329-.329.513-.774.513-1.238zm-1.5 0v3c0 .066-.026.13-.073.177s-.111.073-.177.073h-3c-.066 0-.13-.026-.177-.073s-.073-.111-.073-.177v-3c0-.066.026-.13.073-.177.047-.046.111-.073.177-.073h3c.066 0 .13.027.177.073.047.047.073.111.073.177z"/><path d="m8.25 6.936c0-.464-.184-.909-.513-1.237-.328-.328-.773-.513-1.237-.513-.871 0-2.129 0-3 0-.464 0-.909.185-1.237.513-.329.328-.513.773-.513 1.237v3c0 .464.184.909.513 1.238.328.328.773.512 1.237.512h3c.464 0 .909-.184 1.237-.512.329-.329.513-.774.513-1.238zm-1.5 0v3c0 .066-.026.13-.073.177s-.111.073-.177.073h-3c-.066 0-.13-.026-.177-.073s-.073-.111-.073-.177v-3c0-.066.026-.13.073-.177.047-.046.111-.073.177-.073h3c.066 0 .13.027.177.073.047.047.073.111.073.177z"/><path d="m12.696 5.406-2.08-2.08c-.683-.683-1.791-.683-2.475 0l-2.079 2.08c-.293.293-.293.768 0 1.06.292.293.768.293 1.06 0l2.08-2.079c.098-.098.256-.098.353 0 0 0 2.08 2.079 2.08 2.079.293.293.768.293 1.061 0 .292-.292.292-.767 0-1.06z"/></g></svg>