<svg clip-rule="evenodd" fill-rule="evenodd" height="512" stroke-linejoin="round" stroke-miterlimit="2" viewBox="0 0 24 24" width="512" xmlns="http://www.w3.org/2000/svg"><g id="Icon"><path d="m17.228 20.182c.056-.224.005-.462-.137-.644s-.36-.288-.591-.288h-9c-.231 0-.449.106-.591.288s-.193.42-.137.644c0 0 .261 1.041.406 1.621.139.557.639.947 1.212.947h7.22c.573 0 1.073-.39 1.212-.947.145-.58.406-1.621.406-1.621zm-8.642 1.068-.125-.5h7.078l-.125.5z"/><path d="m18.75 8c0-1.795-1.455-3.25-3.25-3.25-2.053 0-4.947 0-7 0-1.795 0-3.25 1.455-3.25 3.25v9.5c0 1.795 1.455 3.25 3.25 3.25h7c1.795 0 3.25-1.455 3.25-3.25zm-1.5 0v9.5c0 .967-.784 1.75-1.75 1.75h-7c-.966 0-1.75-.783-1.75-1.75v-9.5c0-.967.784-1.75 1.75-1.75h7c.966 0 1.75.783 1.75 1.75z"/><path d="m16.5 10.25c0-.414-.336-.75-.75-.75h-.875c-.895 0-1.754.356-2.386.989-.633.632-.989 1.491-.989 2.386v.875c0 .414.336.75.75.75h.875c.895 0 1.754-.356 2.386-.989.633-.632.989-1.491.989-2.386zm-1.5.75v.125c0 .497-.198.974-.549 1.326-.352.351-.829.549-1.326.549h-.125v-.125c0-.497.198-.974.549-1.326.352-.351.829-.549 1.326-.549z"/><path d="m8.25 9c-.414 0-.75.336-.75.75v1c0 .995.395 1.948 1.098 2.652.704.703 1.657 1.098 2.652 1.098h1c.414 0 .75-.336.75-.75v-1c0-.995-.395-1.948-1.098-2.652-.704-.703-1.657-1.098-2.652-1.098zm.75 1.5h.25c.597 0 1.169.237 1.591.659s.659.994.659 1.591v.25h-.25c-.597 0-1.169-.237-1.591-.659s-.659-.994-.659-1.591z"/><path d="m11.5 13.75v2c0 .414.336.75.75.75s.75-.336.75-.75v-2c0-.414-.336-.75-.75-.75s-.75.336-.75.75z"/><path d="m16.75 5.5v-3.5c0-.414-.336-.75-.75-.75s-.75.336-.75.75v3.5c0 .414.336.75.75.75s.75-.336.75-.75z"/><path d="m8.75 5.5v-3.5c0-.414-.336-.75-.75-.75s-.75.336-.75.75v3.5c0 .414.336.75.75.75s.75-.336.75-.75z"/><path d="m17 1.25h-10c-.414 0-.75.336-.75.75s.336.75.75.75h10c.414 0 .75-.336.75-.75s-.336-.75-.75-.75z"/><path d="m12.75 5.5v-1.5c0-.414-.336-.75-.75-.75s-.75.336-.75.75v1.5c0 .414.336.75.75.75s.75-.336.75-.75z"/></g></svg>