<svg clip-rule="evenodd" fill-rule="evenodd" height="512" stroke-linejoin="round" stroke-miterlimit="2" viewBox="0 0 24 24" width="512" xmlns="http://www.w3.org/2000/svg"><g id="Icon"><path d="m16.5 5.75c0-2.484-2.016-4.5-4.5-4.5s-4.5 2.016-4.5 4.5 2.016 4.5 4.5 4.5 4.5-2.016 4.5-4.5zm-1.5 0c0 1.656-1.344 3-3 3s-3-1.344-3-3 1.344-3 3-3 3 1.344 3 3z"/><path d="m15.896 21.343.6-3c.103-.514-.03-1.047-.362-1.453-.333-.405-.83-.64-1.354-.64-1.506 0-4.054 0-5.56 0-.524 0-1.021.235-1.354.64-.332.406-.465.939-.362 1.453l.6 3c.163.818.882 1.407 1.716 1.407h4.36c.834 0 1.553-.589 1.716-1.407zm-.871-3.294-.6 3c-.023.117-.126.201-.245.201h-4.36c-.119 0-.222-.084-.245-.201l-.6-3c-.015-.073.004-.15.051-.208.048-.057.119-.091.194-.091h5.56c.075 0 .146.034.194.091.047.058.066.135.051.208z"/><path d="m11.249 9.499-.005 7.5c0 .414.336.751.75.751.413 0 .75-.336.75-.75l.005-7.499c0-.414-.336-.751-.75-.751-.413 0-.75.336-.75.749z"/><path d="m16.75 12c0-.414-.336-.75-.75-.75h-1.248c-.97 0-1.842.333-2.477.971-.618.619-1.025 1.54-1.025 2.779 0 .199.079.39.22.53.14.141.331.22.53.22h1.248c.97 0 1.842-.333 2.477-.971.618-.619 1.025-1.54 1.025-2.779zm-1.579.75c-.093.402-.266.727-.508.971-.361.362-.865.529-1.415.529h-.419c.093-.402.266-.727.508-.971.361-.362.865-.529 1.415-.529z"/><path d="m8 10.25c-.414 0-.75.336-.75.75 0 1.239.407 2.16 1.025 2.779.635.638 1.507.971 2.477.971h1.248c.199 0 .39-.079.53-.22.141-.14.22-.331.22-.53 0-1.239-.407-2.16-1.025-2.779-.635-.638-1.507-.971-2.477-.971zm.829 1.5h.419c.55 0 1.054.167 1.415.529.242.244.415.569.508.971h-.419c-.55 0-1.054-.167-1.415-.529-.242-.244-.415-.569-.508-.971z"/><path d="m20.75 15v-4.097s.15.161.15.161c.282.302.757.319 1.06.036.302-.282.319-.757.036-1.06l-1.448-1.552c-.21-.225-.536-.299-.823-.186s-.475.39-.475.698v6c0 .414.336.75.75.75s.75-.336.75-.75z"/><path d="m19.03 11.03 1.5-1.5c.293-.292.293-.768 0-1.06-.292-.293-.768-.293-1.06 0l-1.5 1.5c-.293.292-.293.768 0 1.06.292.293.768.293 1.06 0z"/><path d="m4.75 12v-4.179s.256.259.256.259c.292.294.767.296 1.061.005.294-.292.296-.767.005-1.061l-1.539-1.552c-.214-.216-.538-.281-.819-.166-.281.116-.464.39-.464.694v6c0 .414.336.75.75.75s.75-.336.75-.75z"/><path d="m3.137 8.013 1.409-1.5c.284-.301.269-.776-.033-1.06-.301-.283-.776-.268-1.06.033l-1.409 1.5c-.283.302-.268.777.033 1.061.302.283.777.268 1.06-.034z"/></g></svg>