<svg clip-rule="evenodd" fill-rule="evenodd" height="512" stroke-linejoin="round" stroke-miterlimit="2" viewBox="0 0 24 24" width="512" xmlns="http://www.w3.org/2000/svg"><g id="Icon"><path d="m6.912 13.998c-.051-.293-.077-.595-.077-.902 0-2.895 2.35-5.246 5.245-5.246.434 0 .855.053 1.259.152-.001 0-1.208 1.715-1.208 1.715-.165.235-.182.544-.042.795.139.252.411.401.698.385l7.656-.433c.22-.012.423-.121.556-.297s.181-.401.133-.616l-1.73-7.715c-.062-.276-.274-.493-.547-.563-.274-.069-.564.021-.75.233l-1.58 1.808c-1.355-.617-2.86-.961-4.445-.961-5.929 0-10.742 4.814-10.742 10.743 0 1.772.43 3.444 1.191 4.918.19.368.643.513 1.01.323.368-.19.513-.643.323-1.011-.655-1.268-1.024-2.706-1.024-4.23 0-5.101 4.141-9.243 9.242-9.243 1.545 0 3.002.38 4.283 1.051.307.161.685.09.913-.171l.985-1.127s1.214 5.41 1.214 5.41-5.224.296-5.224.296.887-1.26.887-1.26c.129-.183.169-.414.11-.631-.06-.216-.213-.394-.417-.485-.841-.376-1.771-.586-2.751-.586-3.723 0-6.745 3.023-6.745 6.746 0 .395.034.782.099 1.158.071.408.459.682.867.611s.682-.459.611-.867z"/><path d="m16.841 10.168c.295.797.4 1.677.267 2.576-.421 2.864-3.088 4.848-5.953 4.427-.429-.063-.838-.177-1.222-.334 0 0 1.444-1.52 1.444-1.52.198-.209.259-.512.157-.781-.101-.27-.348-.457-.634-.483l-7.638-.685c-.219-.02-.436.058-.593.213-.157.154-.238.37-.222.59l.59 7.885c.021.282.199.528.459.636.261.109.561.062.776-.121l1.826-1.559c1.251.808 2.69 1.367 4.258 1.597 5.866.863 11.328-3.199 12.191-9.065.438-2.977-.393-5.85-2.083-8.07-.251-.33-.722-.394-1.051-.143-.33.251-.394.722-.143 1.051 1.455 1.911 2.17 4.383 1.793 6.944-.742 5.047-5.442 8.542-10.489 7.799-1.529-.224-2.915-.812-4.084-1.662-.281-.204-.664-.19-.928.035l-1.139.972s-.414-5.529-.414-5.529 5.212.468 5.212.468-1.061 1.117-1.061 1.117c-.154.163-.228.386-.201.608.028.222.153.421.342.541.777.495 1.667.837 2.636.98 3.684.542 7.114-2.009 7.655-5.693.171-1.157.035-2.289-.344-3.314-.143-.388-.575-.587-.963-.443-.389.143-.587.575-.444.963z"/></g></svg>