<svg clip-rule="evenodd" fill-rule="evenodd" height="512" stroke-linejoin="round" stroke-miterlimit="2" viewBox="0 0 24 24" width="512" xmlns="http://www.w3.org/2000/svg"><g id="Icon"><path d="m20.793 11.614c.44-.44 1.004-1.004 1.444-1.445.329-.328.513-.773.513-1.237s-.184-.909-.513-1.237c-1.404-1.405-4.531-4.532-5.936-5.937-.328-.328-.773-.513-1.238-.513-.464 0-.909.185-1.237.513-.44.44-1.004 1.004-1.444 1.444-.329.329-.513.774-.513 1.238s.184.909.513 1.237c1.404 1.405 4.531 4.532 5.936 5.937.328.328.773.512 1.238.512.464 0 .909-.184 1.237-.512zm.384-2.505-1.445 1.444c-.047.047-.11.073-.176.073-.067 0-.13-.026-.177-.073l-5.937-5.936c-.047-.047-.073-.111-.073-.177s.026-.13.073-.177l1.445-1.444c.047-.047.11-.074.176-.074.067 0 .13.027.177.074l5.937 5.936c.047.047.073.111.073.177s-.026.13-.073.177z"/><path d="m18.474 10.665c.272-.296.263-.754-.022-1.038l-4.083-4.084c-.285-.284-.742-.294-1.038-.022-2.251 2.07-4.434 2.617-6.543 2.659-.751.009-1.417.505-1.643 1.227l-3.865 12.369c-.084.267-.012.557.185.754.197.198.488.269.754.186 0 0 9.66-3.019 12.369-3.869.72-.225 1.215-.889 1.224-1.645.045-2.103.593-4.286 2.662-6.537zm-1.578-.473c-1.991 2.397-2.535 4.728-2.584 6.984v.007c-.001.107-.071.201-.173.232 0 .001 0 .001-.001.001-2.076.652-8.237 2.578-11 3.441 0 0 3.438-11.002 3.438-11.002.033-.103.128-.174.236-.175h.006c2.257-.046 4.588-.59 6.986-2.58z"/><path d="m2.526 22.53 6.942-6.942c.293-.293.293-.768 0-1.061-.293-.292-.768-.292-1.06 0l-6.943 6.943c-.293.292-.293.768 0 1.06.293.293.768.293 1.061 0z"/><path d="m8.408 15.588c.968.969 2.542.969 3.51 0 .969-.969.969-2.542 0-3.511-.968-.969-2.542-.969-3.51 0-.969.969-.969 2.542 0 3.511zm1.06-1.061c-.383-.383-.383-1.006 0-1.389.384-.384 1.006-.384 1.39 0 .383.383.383 1.006 0 1.389-.384.384-1.006.384-1.39 0z"/></g></svg>