<svg height="512" viewBox="0 0 32 32" width="512" xmlns="http://www.w3.org/2000/svg"><g id="server_hard_drive_disk" data-name="server, hard, drive, disk"><g fill-rule="evenodd"><path d="m26 17h-20a3.02 3.02 0 0 0 -2.1211.8789 2.9794 2.9794 0 0 0 -.8789 2.1211v4a2.9794 2.9794 0 0 0 .8789 2.1211 3.02 3.02 0 0 0 2.1211.8789h20a3.02 3.02 0 0 0 2.1211-.8789 2.9794 2.9794 0 0 0 .8789-2.1211v-4a2.9794 2.9794 0 0 0 -.8789-2.1211 3.02 3.02 0 0 0 -2.1211-.8789zm1 7a1 1 0 0 1 -1 1h-20a1 1 0 0 1 -1-1v-4a1 1 0 0 1 1-1h20a1 1 0 0 1 1 1z"/><path d="m28.1211 5.8789a3.02 3.02 0 0 0 -2.1211-.8789h-20a3.02 3.02 0 0 0 -2.1211.8789 2.9794 2.9794 0 0 0 -.8789 2.1211v4a2.9794 2.9794 0 0 0 .8789 2.1211 3.02 3.02 0 0 0 2.1211.8789h20a3.02 3.02 0 0 0 2.1211-.8789 2.9794 2.9794 0 0 0 .8789-2.1211v-4a2.9794 2.9794 0 0 0 -.8789-2.1211zm-1.1211 6.1211a1 1 0 0 1 -1 1h-20a1 1 0 0 1 -1-1v-4a1 1 0 0 1 1-1h20a1 1 0 0 1 1 1z"/><path d="m20 21h-12a1 1 0 0 0 0 2h12a1 1 0 0 0 0-2z"/><path d="m20 9h-12a1 1 0 0 0 0 2h12a1 1 0 0 0 0-2z"/></g><circle cx="24" cy="10" r="1"/><circle cx="24" cy="22" r="1"/></g></svg>