<svg clip-rule="evenodd" fill-rule="evenodd" height="512" stroke-linejoin="round" stroke-miterlimit="2" viewBox="0 0 24 24" width="512" xmlns="http://www.w3.org/2000/svg"><g id="Icon"><path d="m7.104 3.25h-2.604c-1.519 0-2.75 1.231-2.75 2.75v9.5c0 1.26.5 2.468 1.391 3.359s2.099 1.391 3.359 1.391h13c1.519 0 2.75-1.231 2.75-2.75 0-.039 0-.078 0-.118 0-1.743-1.202-3.257-2.901-3.652-1.33-.31-3.034-.706-4.562-1.061-1.925-.448-3.287-2.163-3.287-4.14v-6.029c0-.332-.132-.649-.366-.884-.235-.234-.552-.366-.884-.366-.147 0-.318 0-.5 0-.729 0-1.429.29-1.945.805-.334.335-.574.747-.701 1.195zm-.104 1.5h-2.5c-.69 0-1.25.56-1.25 1.25v9.5c0 .862.342 1.689.952 2.298.609.61 1.436.952 2.298.952h13c.69 0 1.25-.56 1.25-1.25 0-.039 0-.078 0-.118 0-1.046-.721-1.954-1.74-2.191l-.935-.217-.452.649c-.936 1.344-2.634 1.925-4.196 1.437-.733-.229-1.576-.493-2.392-.748-2.401-.75-4.035-2.973-4.035-5.488zm3-2h-.25c-.332 0-.649.132-.884.366-.234.235-.366.552-.366.884v6.824c0 1.859 1.208 3.502 2.982 4.057l2.392.747c.937.293 1.956-.056 2.518-.862l.11-.158-2.054-.478c-2.605-.606-4.448-2.927-4.448-5.601z"/><path d="m12.25 6.25h-6c-.414 0-.75.336-.75.75s.336.75.75.75h6c.414 0 .75-.336.75-.75s-.336-.75-.75-.75z"/><path d="m7.073 12.048 5.768-1.654c.397-.114.628-.53.514-.928s-.53-.628-.928-.514l-5.768 1.654c-.397.114-.628.53-.514.928s.53.628.928.514z"/><path d="m9.723 16.335 4.915-3.441c.339-.238.421-.706.184-1.045-.238-.339-.706-.422-1.045-.184l-4.915 3.441c-.339.238-.421.706-.184 1.045.238.339.706.422 1.045.184z"/><path d="m20.75 21.25h-18c-.414 0-.75.336-.75.75s.336.75.75.75h18c.414 0 .75-.336.75-.75s-.336-.75-.75-.75z"/><path d="m19.5 22v-2.5c0-.414-.336-.75-.75-.75s-.75.336-.75.75v2.5c0 .414.336.75.75.75s.75-.336.75-.75z"/><path d="m12.5 22v-2.5c0-.414-.336-.75-.75-.75s-.75.336-.75.75v2.5c0 .414.336.75.75.75s.75-.336.75-.75z"/><path d="m6.5 22v-2.5c0-.414-.336-.75-.75-.75s-.75.336-.75.75v2.5c0 .414.336.75.75.75s.75-.336.75-.75z"/></g></svg>