<svg clip-rule="evenodd" fill-rule="evenodd" height="512" stroke-linejoin="round" stroke-miterlimit="2" viewBox="0 0 24 24" width="512" xmlns="http://www.w3.org/2000/svg"><g id="Icon"><path d="m18 22.75c.267 0 .514-.142.649-.373.134-.232.135-.517.002-.749l-8-14.017c-.133-.233-.382-.378-.651-.378s-.518.145-.651.378l-8 14.017c-.133.232-.132.517.002.749.135.231.382.373.649.373zm-1.292-1.5h-13.416s6.708-11.754 6.708-11.754z"/><path d="m18 22.75h4c.267 0 .514-.142.649-.373.134-.232.135-.517.002-.749l-5-8.76c-.133-.234-.382-.378-.651-.378s-.518.144-.651.378l-1.861 3.26c-.205.36-.08.818.279 1.023.36.206.818.08 1.023-.279l1.21-2.119s3.708 6.497 3.708 6.497h-2.708c-.414 0-.75.336-.75.75s.336.75.75.75z"/><path d="m6.97 13.53 1 1c.293.293.767.293 1.06 0l.97-.969s.97.969.97.969c.293.293.767.293 1.06 0l1-1c.293-.292.293-.768 0-1.06-.292-.293-.768-.293-1.06 0l-.47.469s-.97-.969-.97-.969c-.293-.293-.767-.293-1.06 0l-.97.969s-.47-.469-.47-.469c-.292-.293-.768-.293-1.06 0-.293.292-.293.768 0 1.06z"/><path d="m10.75 8v-6c0-.414-.336-.75-.75-.75s-.75.336-.75.75v6c0 .414.336.75.75.75s.75-.336.75-.75z"/><path d="m16.171 2.335c.116-.232.104-.508-.033-.729s-.378-.356-.638-.356h-5.5c-.414 0-.75.336-.75.75v4c0 .414.336.75.75.75h5.5c.26 0 .501-.135.638-.356s.149-.497.033-.729l-.832-1.665s.832-1.665.832-1.665zm-1.885.415-.457.915c-.105.211-.105.459 0 .67l.457.915h-3.536v-2.5z"/></g></svg>