<svg clip-rule="evenodd" fill-rule="evenodd" height="512" stroke-linejoin="round" stroke-miterlimit="2" viewBox="0 0 24 24" width="512" xmlns="http://www.w3.org/2000/svg"><g id="Icon"><path d="m14.076 11.202c.052-.041.069-.114.039-.174-.029-.06-.097-.091-.162-.074-1.073.283-3.135.825-3.832 1.009-.049.013-.087.051-.1.099-.014.049 0 .101.036.137.286.285.823.823.823.823s-1.035.806-1.699 1.322c-.053.041-.07.114-.04.174s.098.091.162.074c1.074-.283 3.135-.825 3.833-1.009.049-.013.087-.051.1-.099.013-.049-.001-.101-.036-.137-.286-.285-.824-.823-.824-.823s1.036-.806 1.7-1.322z"/><path d="m15.256 7.496c-.293.293-.768.293-1.061 0-.292-.292-.292-.768 0-1.06l2.904-2.904c.179-.179.179-.469 0-.648-.178-.179-.468-.179-.647 0l-4.954 4.954c-.214.214-.537.279-.817.162-.281-.116-.463-.389-.463-.692v-2.741c0-.253-.205-.458-.458-.458s-.458.205-.458.458c0 .057-.007.114-.019.17l-1.508 6.491c-.201.865-.64 1.656-1.268 2.284l-.988.988 4.406 4.406.936-.937c.727-.727 1.67-1.198 2.687-1.343l.082-.012c.482-.069.928-.292 1.273-.636l5.954-5.955c.179-.179.179-.469 0-.648-.178-.179-.468-.179-.647 0l-2.904 2.904c-.293.293-.768.293-1.061 0-.292-.293-.292-.768 0-1.061l2.904-2.903c.765-.765 2.004-.765 2.769 0 .765.764.765 2.004 0 2.768l-5.955 5.955c-.574.574-1.318.946-2.121 1.061l-.082.012c-.696.099-1.341.422-1.838.919l-1.467 1.467c-.293.293-.768.293-1.061 0l-5.466-5.466c-.293-.293-.293-.768 0-1.061l1.518-1.518c.43-.43.73-.971.868-1.563 0 0 1.49-6.418 1.49-6.415.049-1.038.906-1.865 1.956-1.865 1.081 0 1.958.877 1.958 1.958v.93l3.673-3.674c.765-.764 2.004-.764 2.769 0 .765.765.765 2.005 0 2.769l-2.904 2.904z"/><path d="m18.672 10.913c-.292.292-.767.292-1.06 0-.293-.293-.293-.768 0-1.061l2.904-2.904c.179-.179.179-.469 0-.648-.179-.178-.469-.178-.648.001l-2.904 2.903c-.292.293-.768.293-1.06 0-.293-.292-.293-.768 0-1.06l2.904-2.904c.764-.765 2.004-.765 2.768 0 .765.764.765 2.004 0 2.769z"/><path d="m17.648 8.521c-.293.293-.768.293-1.061 0s-.293-.768 0-1.061l2.904-2.903c.179-.179.179-.469 0-.648s-.469-.179-.648 0l-2.904 2.904c-.292.293-.768.293-1.06 0-.293-.293-.293-.768 0-1.061l2.904-2.904c.764-.764 2.004-.764 2.768 0 .765.765.765 2.005 0 2.769z"/><path d="m10.518 21.267-.909.91c-.235.234-.553.366-.884.366-.332 0-.65-.132-.884-.366l-5.759-5.76c-.235-.234-.366-.552-.366-.883 0-.332.131-.65.366-.884l.909-.91c.235-.234.553-.366.884-.366.332 0 .65.132.884.366l5.759 5.76c.235.234.366.552.366.883 0 .332-.131.65-.366.884zm-7.199-5.733 5.406 5.405.556-.556-5.406-5.405z"/></g></svg>