<svg clip-rule="evenodd" fill-rule="evenodd" height="512" stroke-linejoin="round" stroke-miterlimit="2" viewBox="0 0 24 24" width="512" xmlns="http://www.w3.org/2000/svg"><g id="Icon"><path d="m2 17.75h20c.414 0 .75-.336.75-.75s-.336-.75-.75-.75h-20c-.414 0-.75.336-.75.75s.336.75.75.75z"/><path d="m13.75 11.5c0-3.449-2.801-6.25-6.25-6.25s-6.25 2.801-6.25 6.25 2.801 6.25 6.25 6.25 6.25-2.801 6.25-6.25zm-1.5 0c0 2.622-2.128 4.75-4.75 4.75s-4.75-2.128-4.75-4.75 2.128-4.75 4.75-4.75 4.75 2.128 4.75 4.75z"/><path d="m3.75 11.5c0 2.07 1.68 3.75 3.75 3.75.414 0 .75-.336.75-.75s-.336-.75-.75-.75c-1.242 0-2.25-1.008-2.25-2.25 0-.414-.336-.75-.75-.75s-.75.336-.75.75z"/><path d="m11.25 11.5c0-2.07-1.68-3.75-3.75-3.75-.414 0-.75.336-.75.75s.336.75.75.75c1.242 0 2.25 1.008 2.25 2.25 0 .414.336.75.75.75s.75-.336.75-.75z"/><path d="m7.5 17.75h9c3.449 0 6.25-2.801 6.25-6.25s-2.801-6.25-6.25-6.25h-9c-.414 0-.75.336-.75.75s.336.75.75.75h9c2.622 0 4.75 2.128 4.75 4.75s-2.128 4.75-4.75 4.75h-9c-.414 0-.75.336-.75.75s.336.75.75.75z"/><path d="m18.904 14.555s1.346-1.222 1.346-3.055-1.346-3.055-1.346-3.055c-.307-.278-.781-.256-1.06.051-.278.306-.255.781.051 1.059 0 0 .855.778.855 1.945s-.855 1.945-.855 1.945c-.306.278-.329.753-.051 1.059.279.307.753.329 1.06.051z"/></g></svg>