<svg clip-rule="evenodd" fill-rule="evenodd" height="512" stroke-linejoin="round" stroke-miterlimit="2" viewBox="0 0 24 24" width="512" xmlns="http://www.w3.org/2000/svg"><g id="Icon"><path d="m12.201 8.532 2.303 2.304c.293.293.293.768 0 1.06l-9.193 9.194c-.446.446-1.051.696-1.682.696s-1.235-.25-1.681-.696l-.001-.001c-.446-.446-.697-1.051-.697-1.682 0-.63.251-1.235.697-1.681l9.193-9.194c.293-.293.768-.293 1.061 0zm-.531 1.591-8.663 8.663c-.164.165-.257.388-.257.621s.093.456.257.621l.001.001c.165.165.388.257.621.257s.456-.092.621-.257c0 0 8.663-8.663 8.663-8.663z"/><path d="m8.364 12.369c-.293-.293-.293-.768 0-1.061.292-.292.768-.292 1.06 0l2.304 2.304c.293.293.293.768 0 1.061-.293.292-.768.292-1.061 0z"/><path d="m18.51 7.89.914.914.457-.457c.293-.293.768-.293 1.061 0l1.316 1.316c.656.656.656 1.721 0 2.377l-2.962 2.962c-.656.656-1.72.656-2.377 0l-1.316-1.317c-.293-.293-.293-.767 0-1.06l.457-.457-.914-.914-.642.642c-.293.293-.768.293-1.061 0l-2.303-2.303c-.293-.293-.293-.768 0-1.061 0 0 1.26-1.26 1.26-1.26-1.917-1.435-4.543-1.595-4.543-1.595-.297-.02-.554-.213-.655-.494-.102-.28-.028-.593.188-.798 0 0 2.323-2.171 4.795-2.171 1.68 0 3.291.667 4.479 1.855l2.303 2.303c.293.293.293.768 0 1.061zm-5.779 1.173 1.243 1.242.288-.288c.489-.489 1.28-.489 1.768 0l1.268 1.267c.234.234.366.552.366.884 0 .331-.132.649-.367.884l-.103.103.786.786c.071.07.185.07.256 0l2.961-2.962c.071-.07.071-.185 0-.255 0 0-.786-.786-.786-.786l-.103.103c-.234.235-.552.366-.884.366-.331 0-.649-.131-.884-.366l-1.267-1.267c-.234-.235-.366-.553-.366-.884 0-.332.132-.65.366-.884l.103-.103-1.773-1.773c-.906-.907-2.136-1.416-3.418-1.416-.899 0-1.768.373-2.443.776 1.291.32 3.022.959 4.286 2.209.142.14.222.331.223.531.001.199-.078.391-.22.532z"/></g></svg>