<svg clip-rule="evenodd" fill-rule="evenodd" height="512" stroke-linejoin="round" stroke-miterlimit="2" viewBox="0 0 24 24" width="512" xmlns="http://www.w3.org/2000/svg"><g id="Icon"><path d="m9.544 13.411c-3.474 0-6.294 2.82-6.294 6.294 0 .866.554 1.615 1.559 2.135 1.149.594 2.94.91 4.735.91 1.796 0 3.587-.316 4.736-.91 1.005-.52 1.559-1.269 1.559-2.135 0-3.474-2.821-6.294-6.295-6.294zm0 1.5c2.647 0 4.795 2.148 4.795 4.794 0 .36-.331.587-.748.803-.98.507-2.515.742-4.047.742-1.531 0-3.066-.235-4.046-.742-.417-.216-.748-.443-.748-.803 0-2.646 2.148-4.794 4.794-4.794z"/><path d="m9.544 7.25c-2.114 0-3.83 1.716-3.83 3.83s1.716 3.831 3.83 3.831 3.831-1.717 3.831-3.831-1.717-3.83-3.831-3.83zm0 1.5c1.287 0 2.331 1.044 2.331 2.33s-1.044 2.331-2.331 2.331c-1.286 0-2.33-1.045-2.33-2.331s1.044-2.33 2.33-2.33z"/><path d="m12.929 6.286c.709 0 1.426.269 1.971.814s.814 1.262.814 1.971c0 .414.336.75.75.75s.75-.336.75-.75c0-1.091-.414-2.193-1.253-3.032-.839-.838-1.941-1.253-3.032-1.253-.414 0-.75.336-.75.75s.336.75.75.75z"/><path d="m12.932 2.75c1.617-.007 3.233.612 4.47 1.848 1.236 1.237 1.855 2.853 1.848 4.47-.002.414.333.751.746.753.414.002.752-.332.754-.746.009-2.003-.756-4.006-2.288-5.537-1.531-1.532-3.534-2.297-5.537-2.288-.414.002-.748.34-.746.754.002.413.339.748.753.746z"/></g></svg>