<svg clip-rule="evenodd" fill-rule="evenodd" height="512" stroke-linejoin="round" stroke-miterlimit="2" viewBox="0 0 24 24" width="512" xmlns="http://www.w3.org/2000/svg"><g id="Icon"><path d="m14.5 21.25h-7c-.414 0-.75.336-.75.75s.336.75.75.75h7c.414 0 .75-.336.75-.75s-.336-.75-.75-.75z"/><path d="m11.75 22v-3c0-.414-.336-.75-.75-.75s-.75.336-.75.75v3c0 .414.336.75.75.75s.75-.336.75-.75z"/><path d="m17.137 3.077c1.614 1.609 2.613 3.833 2.613 6.29 0 4.903-3.98 8.883-8.883 8.883-2.457 0-4.681-.999-6.29-2.613-.292-.293-.768-.294-1.061-.001-.293.292-.294.767-.001 1.06 1.88 1.886 4.481 3.054 7.352 3.054 5.73 0 10.383-4.653 10.383-10.383 0-2.871-1.168-5.472-3.054-7.352-.293-.293-.768-.292-1.06.001-.293.293-.292.769.001 1.061z"/><path d="m10.867 1.25c-4.48 0-8.117 3.637-8.117 8.117 0 4.479 3.637 8.116 8.117 8.116 4.479 0 8.116-3.637 8.116-8.116 0-4.48-3.637-8.117-8.116-8.117zm0 1.5c3.652 0 6.616 2.965 6.616 6.617s-2.964 6.616-6.616 6.616-6.617-2.964-6.617-6.616 2.965-6.617 6.617-6.617z"/><path d="m17.703 3.17-1.133 1.133c-.293.293-.293.768 0 1.061.292.292.768.292 1.06 0l1.134-1.134c.292-.292.292-.768 0-1.06-.293-.293-.768-.293-1.061 0z"/><path d="m5.803 15.07-1.133 1.133c-.293.293-.293.768 0 1.061.292.292.768.292 1.06 0l1.134-1.134c.292-.292.292-.768 0-1.06-.293-.293-.768-.293-1.061 0z"/><path d="m5.086 13.469.789-.987c.531-.664 1.42-.926 2.227-.657.945.314 1.979.201 2.833-.311l.268-.161c.563-.338 1.246-.413 1.869-.205l.19.063c.704.235 1.248.802 1.452 1.516 0 .001.565 1.979.565 1.979.114.398.529.629.927.515s.629-.529.515-.927l-.565-1.979c-.34-1.19-1.246-2.135-2.42-2.527-.063-.021-.127-.042-.19-.063-1.038-.346-2.176-.221-3.115.342l-.268.16c-.478.287-1.057.351-1.586.175-.001 0-.001-.001-.001-.001-1.403-.467-2.949-.011-3.873 1.144-.42.526-.789.986-.789.986-.258.324-.206.796.117 1.055.324.258.796.206 1.055-.117z"/><path d="m14.782 3.482-.352 1.162c-.103.34-.346.621-.668.771-.323.15-.694.155-1.02.015 0 0-.594-.254-.594-.254-.743-.319-1.59-.294-2.313.068l-1.276.638c-.352.176-.766.176-1.118 0-.884-.442-2.106-1.053-2.106-1.053-.37-.185-.821-.035-1.006.336-.185.37-.035.821.336 1.006 0 0 1.221.611 2.105 1.053.774.387 1.686.387 2.46 0 0 0 1.276-.638 1.276-.638.329-.165.713-.176 1.051-.031l.594.254c.719.308 1.535.296 2.244-.035.709-.33 1.244-.946 1.471-1.695l.352-1.161c.12-.397-.104-.816-.5-.936-.397-.12-.816.104-.936.5z"/></g></svg>