<svg clip-rule="evenodd" fill-rule="evenodd" height="512" stroke-linejoin="round" stroke-miterlimit="2" viewBox="0 0 24 24" width="512" xmlns="http://www.w3.org/2000/svg"><g id="Icon"><path d="m15.5 14.75h-7c-.414 0-.75.336-.75.75s.336.75.75.75h7c.414 0 .75-.336.75-.75s-.336-.75-.75-.75z"/><path d="m10 22.75h4c.414 0 .75-.336.75-.75s-.336-.75-.75-.75h-4c-.414 0-.75.336-.75.75s.336.75.75.75z"/><path d="m12 1.25c-4.277 0-7.75 3.473-7.75 7.75 0 2.527 1.212 4.773 3.1 6.169.003.002.005.004.008.005.241.174.412.428.483.716 0 0 .557 2.266.557 2.266.302 1.23 1.404 2.094 2.67 2.094h1.864c1.266 0 2.368-.864 2.67-2.094.187-.757.403-1.639.574-2.232.003-.01.005-.019.008-.029.069-.282.237-.531.473-.701.005-.004.009-.007.014-.011 1.87-1.415 3.079-3.659 3.079-6.183 0-4.277-3.473-7.75-7.75-7.75zm0 1.5c3.45 0 6.25 2.801 6.25 6.25 0 2.031-.971 3.836-2.472 4.978-.526.383-.894.929-1.049 1.55-.173.601-.394 1.499-.583 2.27-.138.559-.639.952-1.214.952h-1.864c-.575 0-1.076-.393-1.214-.952l-.557-2.267c-.155-.631-.529-1.187-1.056-1.569-1.518-1.122-2.491-2.93-2.491-4.962 0-3.449 2.801-6.25 6.25-6.25z"/><path d="m12.75 15.5v-4.5c0-.414-.336-.75-.75-.75s-.75.336-.75.75v4.5c0 .414.336.75.75.75s.75-.336.75-.75z"/><path d="m8.97 9.03 2.5 2.5c.293.293.768.293 1.06 0l2.5-2.5c.293-.292.293-.768 0-1.06-.292-.293-.768-.293-1.06 0l-1.97 1.969s-1.97-1.969-1.97-1.969c-.292-.293-.768-.293-1.06 0-.293.292-.293.768 0 1.06z"/></g></svg>