<svg clip-rule="evenodd" fill-rule="evenodd" height="512" stroke-linejoin="round" stroke-miterlimit="2" viewBox="0 0 134 134" width="512" xmlns="http://www.w3.org/2000/svg"><path d="m38.943 29.464 7.33-14.661c.706-1.411 2.149-2.303 3.727-2.303h33.333c1.579 0 3.021.892 3.727 2.303l7.331 14.661c5.593 1.243 9.776 6.235 9.776 12.203v50c0 5.968-4.183 10.959-9.776 12.202l-7.331 14.661c-.706 1.412-2.148 2.303-3.727 2.303h-33.333c-1.578 0-3.021-.891-3.727-2.303l-7.332-14.664c-2.297-.514-4.422-1.67-6.113-3.36-2.344-2.345-3.661-5.524-3.661-8.839 0-12.809 0-37.192 0-50 0-5.968 4.182-10.96 9.776-12.203zm2.772 8.036c-.029 0-.059 0-.088 0-2.283.022-4.127 1.879-4.127 4.167v50c0 1.105.439 2.165 1.22 2.946.772.772 1.816 1.21 2.907 1.22h.088 33.285c2.3 0 4.167 1.867 4.167 4.167s-1.867 4.167-4.167 4.167h-26.592l4.167 8.333h28.183l7.182-14.363c.735-1.471 2.225-2.317 3.767-2.304 2.282-.021 4.126-1.878 4.126-4.166 0-12.809 0-37.192 0-50 0-2.288-1.844-4.145-4.126-4.167-.03 0-.059 0-.089 0zm24.952 37.5c2.299 0 4.166 1.867 4.166 4.167 0 2.299-1.867 4.166-4.166 4.166-2.3 0-4.167-1.867-4.167-4.166 0-2.3 1.867-4.167 4.167-4.167zm-4.167-20.757v12.424c0 2.299 1.867 4.166 4.167 4.166 2.299 0 4.166-1.867 4.166-4.166v-12.424c0-2.3-1.867-4.167-4.166-4.167-2.3 0-4.167 1.867-4.167 4.167zm22.425-25.076-4.167-8.334h-28.183l-4.167 8.334z"/></svg>