<svg clip-rule="evenodd" fill-rule="evenodd" height="512" stroke-linejoin="round" stroke-miterlimit="2" viewBox="0 0 24 24" width="512" xmlns="http://www.w3.org/2000/svg"><g id="Icon"><path d="m18.026 13.205c1.026.373 1.872.837 2.457 1.376.471.434.767.904.767 1.419 0 .774-.627 1.438-1.573 2.018-1.731 1.062-4.528 1.732-7.677 1.732s-5.946-.67-7.677-1.732c-.946-.58-1.573-1.244-1.573-2.018 0-.515.296-.985.767-1.419.585-.539 1.431-1.003 2.457-1.376.389-.142.589-.573.448-.962-.142-.389-.573-.589-.962-.448-1.504.548-2.673 1.287-3.376 2.115-.55.647-.834 1.356-.834 2.09 0 1.214.806 2.386 2.288 3.296 1.91 1.172 4.988 1.954 8.462 1.954s6.552-.782 8.462-1.954c1.482-.91 2.288-2.082 2.288-3.296 0-.734-.284-1.443-.834-2.09-.703-.828-1.872-1.567-3.376-2.115-.389-.141-.82.059-.962.448-.141.389.059.82.448.962z"/><path d="m19.311 14.859s-1.283-6.705-1.889-9.875c-.248-1.297-1.381-2.234-2.701-2.234-1.559 0-3.883 0-5.442 0-1.32 0-2.453.937-2.701 2.234-.606 3.17-1.889 9.875-1.889 9.875-.077.407.19.8.596.878.407.077.8-.19.878-.596 0 0 1.282-6.705 1.888-9.876.113-.589.628-1.015 1.228-1.015h5.442c.6 0 1.115.426 1.228 1.015.606 3.171 1.888 9.876 1.888 9.876.078.406.471.673.878.596.406-.078.673-.471.596-.878z"/><path d="m17.5 9.25h-3.5c-.414 0-.75.336-.75.75s.336.75.75.75h3.5c.414 0 .75-.336.75-.75s-.336-.75-.75-.75z"/><path d="m10 9.25h-3.5c-.414 0-.75.336-.75.75s.336.75.75.75h3.5c.414 0 .75-.336.75-.75s-.336-.75-.75-.75z"/><path d="m14.75 9c0-.332-.132-.649-.366-.884-.235-.234-.552-.366-.884-.366-.769 0-2.231 0-3 0-.332 0-.649.132-.884.366-.234.235-.366.552-.366.884v2c0 .332.132.649.366.884.235.234.552.366.884.366h3c.332 0 .649-.132.884-.366.234-.235.366-.552.366-.884zm-4 1.75h2.5v-1.5h-2.5z"/></g></svg>