<svg clip-rule="evenodd" fill-rule="evenodd" height="512" stroke-linejoin="round" stroke-miterlimit="2" viewBox="0 0 24 24" width="512" xmlns="http://www.w3.org/2000/svg"><g id="Icon"><path d="m7 12.75c-2.346 0-4.25 1.904-4.25 4.25s1.904 4.25 4.25 4.25 4.25-1.904 4.25-4.25-1.904-4.25-4.25-4.25zm0 1.5c1.518 0 2.75 1.232 2.75 2.75s-1.232 2.75-2.75 2.75-2.75-1.232-2.75-2.75 1.232-2.75 2.75-2.75z"/><path d="m17 12.75c-2.346 0-4.25 1.904-4.25 4.25s1.904 4.25 4.25 4.25 4.25-1.904 4.25-4.25-1.904-4.25-4.25-4.25zm0 1.5c1.518 0 2.75 1.232 2.75 2.75s-1.232 2.75-2.75 2.75-2.75-1.232-2.75-2.75 1.232-2.75 2.75-2.75z"/><path d="m10.916 15.888c.656-.438 1.512-.438 2.168 0 .344.23.81.136 1.04-.208.23-.345.136-.811-.208-1.04-1.16-.774-2.672-.774-3.832 0-.344.229-.438.695-.208 1.04.23.344.696.438 1.04.208z"/><path d="m19.309 6.352c-.283-.993-.964-1.825-1.881-2.3-.917-.474-1.989-.55-2.963-.209l-1.391.487c-.695.243-1.453.243-2.148 0l-1.391-.487c-.974-.341-2.046-.265-2.963.209-.917.475-1.598 1.307-1.881 2.3-.645 2.259-1.412 4.942-1.412 4.942-.065.226-.019.47.122.658.142.188.364.298.599.298h16c.235 0 .457-.11.599-.298.141-.188.187-.432.122-.658zm-1.442.412 1.139 3.986h-14.012l1.139-3.986c.17-.596.579-1.095 1.129-1.38s1.193-.33 1.778-.125c0 0 1.391.486 1.391.486 1.016.356 2.122.356 3.138 0 0 0 1.391-.486 1.391-.486.585-.205 1.228-.16 1.778.125s.959.784 1.129 1.38z"/><path d="m22 10.75h-20c-.414 0-.75.336-.75.75s.336.75.75.75h20c.414 0 .75-.336.75-.75s-.336-.75-.75-.75z"/></g></svg>