<?xml version="1.0"?>
<svg xmlns="http://www.w3.org/2000/svg" viewBox="0 0 32 32" width="512" height="512"><g id="ruler_cm_mm" data-name="ruler, cm, mm"><path d="M28.707,9.293l-6-6a1,1,0,0,0-1.414,1.414L26.5859,10,10,26.5859,5.4141,22,8,19.4141,9.293,20.707a1,1,0,0,0,1.414-1.414L9.4141,18,12,15.4141l1.293,1.2929a1,1,0,0,0,1.414-1.414L13.4141,14,16,11.4141l1.293,1.2929a1,1,0,0,0,1.414-1.414L17.4141,10,18.707,8.707a1,1,0,1,0-1.414-1.414l-14,14a.9994.9994,0,0,0,0,1.414l6,6a.9995.9995,0,0,0,1.414,0l18-18A.9994.9994,0,0,0,28.707,9.293Z"/></g></svg>
