<svg clip-rule="evenodd" fill-rule="evenodd" height="512" stroke-linejoin="round" stroke-miterlimit="2" viewBox="0 0 24 24" width="512" xmlns="http://www.w3.org/2000/svg"><g id="Icon"><path d="m9.536 16c0-.414-.336-.75-.75-.75h-5.572c-.414 0-.75.336-.75.75 0 3.248 2.986 6.51 2.986 6.51.142.153.341.24.55.24s.408-.087.55-.24c0 0 2.986-3.262 2.986-6.51zm-1.561.75c-.261 1.668-1.314 3.237-1.975 4.086-.661-.849-1.714-2.418-1.975-4.086z"/><path d="m21.536 16c0-.414-.336-.75-.75-.75h-5.572c-.414 0-.75.336-.75.75 0 3.248 2.986 6.51 2.986 6.51.142.153.341.24.55.24s.408-.087.55-.24c0 0 2.986-3.262 2.986-6.51zm-1.561.75c-.261 1.668-1.314 3.237-1.975 4.086-.661-.849-1.714-2.418-1.975-4.086z"/><path d="m20 16.75c1.518 0 2.75-1.232 2.75-2.75v-8c0-2.623-2.127-4.75-4.75-4.75s-4.75 2.127-4.75 4.75v8c0 1.518 1.232 2.75 2.75 2.75zm0-1.5h-4c-.69 0-1.25-.56-1.25-1.25v-8c0-1.795 1.455-3.25 3.25-3.25s3.25 1.455 3.25 3.25v8c0 .69-.56 1.25-1.25 1.25z"/><path d="m10 7.25c-.414 0-.75.336-.75.75v5c0 .414.336.75.75.75h4c.414 0 .75-.336.75-.75v-5c0-.414-.336-.75-.75-.75zm.75 1.5h2.5v3.5h-2.5z"/><path d="m8 16.75c1.518 0 2.75-1.232 2.75-2.75v-8c0-2.623-2.127-4.75-4.75-4.75s-4.75 2.127-4.75 4.75v8c0 1.518 1.232 2.75 2.75 2.75zm0-1.5h-4c-.69 0-1.25-.56-1.25-1.25v-8c0-1.795 1.455-3.25 3.25-3.25s3.25 1.455 3.25 3.25v8c0 .69-.56 1.25-1.25 1.25z"/><path d="m14 13.75h8c.414 0 .75-.336.75-.75s-.336-.75-.75-.75h-8c-.414 0-.75.336-.75.75s.336.75.75.75z"/><path d="m2 13.75h8c.414 0 .75-.336.75-.75s-.336-.75-.75-.75h-8c-.414 0-.75.336-.75.75s.336.75.75.75z"/></g></svg>