<svg clip-rule="evenodd" fill-rule="evenodd" height="512" stroke-linejoin="round" stroke-miterlimit="2" viewBox="0 0 24 24" width="512" xmlns="http://www.w3.org/2000/svg"><g id="Icon"><path d="m2.52 6.576c-.318-.265-.361-.738-.096-1.056s.738-.361 1.056-.096l5.722 4.768c.045.037.102.058.16.058h4.268c.418 0 .822.149 1.139.421l6.719 5.76c.314.269.351.743.081 1.057-.269.314-.743.351-1.057.081l-6.719-5.759c-.046-.039-.103-.06-.163-.06h-4.268c-.409 0-.806-.144-1.12-.406l-5.722-4.768z"/><path d="m19.812 14.145c-.061-.41.221-.792.631-.853.409-.062.791.221.853.63l.446 2.967c.061.409-.221.791-.631.853l-2.966.446c-.41.061-.792-.221-.853-.631-.062-.409.221-.791.63-.853l2.225-.334z"/><path d="m15.95 19.087c.281-.304.756-.321 1.06-.04.303.281.321.756.04 1.06-1.507 1.625-3.661 2.643-6.05 2.643-4.553 0-8.25-3.697-8.25-8.25 0-1.341.698-3.102 1.718-4.896 2.241-3.941 5.974-8.105 5.974-8.105.142-.158.345-.249.558-.249s.416.091.558.249c0 0 3.132 3.492 5.378 7.105.219.352.111.814-.241 1.033-.351.218-.814.111-1.033-.241-1.607-2.586-3.683-5.108-4.662-6.254-1.1 1.287-3.581 4.307-5.228 7.203-.87 1.53-1.522 3.012-1.522 4.155 0 3.725 3.025 6.75 6.75 6.75 1.955 0 3.717-.833 4.95-2.163z"/></g></svg>