<?xml version="1.0"?>
<svg xmlns="http://www.w3.org/2000/svg" viewBox="0 0 32 32" width="512" height="512"><g id="shutdown_ups_restart" data-name="shutdown, ups, restart"><path d="M24,23a1,1,0,0,0,1-1V6a3.02,3.02,0,0,0-.8789-2.1211A2.9794,2.9794,0,0,0,22,3H10a2.9794,2.9794,0,0,0-2.1211.8789A3.02,3.02,0,0,0,7,6V26a3.02,3.02,0,0,0,.8789,2.1211A2.9794,2.9794,0,0,0,10,29H22a3.0033,3.0033,0,0,0,3-3,1,1,0,0,0-2,0,1.0009,1.0009,0,0,1-1,1H10a1,1,0,0,1-1-1V6a1,1,0,0,1,1-1H22a1,1,0,0,1,1,1V22A1,1,0,0,0,24,23Z"/><path d="M13.0381,17.1348a.9991.9991,0,0,0-1.3672.3637,5,5,0,1,0,8.6582,0,1,1,0,1,0-1.73,1.003,3,3,0,1,1-5.1972,0A1,1,0,0,0,13.0381,17.1348Z"/><path d="M17,20V16a1,1,0,0,0-2,0v4a1,1,0,0,0,2,0Z"/><path d="M20,7H16a1,1,0,0,0,0,2h4a1,1,0,0,0,0-2Z"/></g></svg>
