<svg clip-rule="evenodd" fill-rule="evenodd" height="512" stroke-linejoin="round" stroke-miterlimit="2" viewBox="0 0 24 24" width="512" xmlns="http://www.w3.org/2000/svg"><g id="Icon"><path d="m15.845 10.618c.21-.262 1.679-2.251.703-5.516-.09-.299-.356-.512-.668-.533-.312-.022-.604.153-.734.437 0 0-.055.11-.186.261-.285-1.188-1.062-2.883-3.162-3.937-.255-.128-.56-.101-.787.07-.228.172-.339.457-.287.737 0 0 .183 1.026-.413 2.028-.188-.1-.394-.255-.523-.488-.121-.217-.342-.361-.59-.383s-.491.081-.648.274c0 0-2.7 3.365-.651 6.716 1.239 2.43 5.531 3.927 7.952.327zm-1.172-.936c-.019.022-.036.045-.051.068-1.639 2.469-4.572 1.49-5.401-.174-.01-.021-.021-.041-.033-.06-1.033-1.674-.444-3.352.056-4.276.578.413 1.182.554 1.182.554.271.06.553-.034.733-.246.617-.725.894-1.513 1.011-2.174 1.518 1.355 1.454 3.186 1.454 3.186-.011.258.111.504.324.65.212.147.485.174.723.071.262-.113.491-.243.69-.378.113 1.774-.688 2.779-.688 2.779z"/><path d="m8.5 9.25h-5.5c-.464 0-.909.184-1.237.513-.329.328-.513.773-.513 1.237v10c0 .464.184.909.513 1.237.328.329.773.513 1.237.513h18c.464 0 .909-.184 1.237-.513.329-.328.513-.773.513-1.237 0-2.26 0-7.74 0-10 0-.464-.184-.909-.513-1.237-.328-.329-.773-.513-1.237-.513-1.823 0-5.5 0-5.5 0-.414 0-.75.336-.75.75s.336.75.75.75h5.5c.066 0 .13.026.177.073s.073.111.073.177v10c0 .066-.026.13-.073.177s-.111.073-.177.073h-18c-.066 0-.13-.026-.177-.073s-.073-.111-.073-.177v-10c0-.066.026-.13.073-.177s.111-.073.177-.073h5.5c.414 0 .75-.336.75-.75s-.336-.75-.75-.75z"/><path d="m22 13.25h-20c-.414 0-.75.336-.75.75s.336.75.75.75h20c.414 0 .75-.336.75-.75s-.336-.75-.75-.75z"/><path d="m22 17.25h-20c-.414 0-.75.336-.75.75s.336.75.75.75h20c.414 0 .75-.336.75-.75s-.336-.75-.75-.75z"/><path d="m17.25 10v4c0 .414.336.75.75.75s.75-.336.75-.75v-4c0-.414-.336-.75-.75-.75s-.75.336-.75.75z"/><path d="m17.25 18v4c0 .414.336.75.75.75s.75-.336.75-.75v-4c0-.414-.336-.75-.75-.75s-.75.336-.75.75z"/><path d="m5.25 10v4c0 .414.336.75.75.75s.75-.336.75-.75v-4c0-.414-.336-.75-.75-.75s-.75.336-.75.75z"/><path d="m5.25 18v4c0 .414.336.75.75.75s.75-.336.75-.75v-4c0-.414-.336-.75-.75-.75s-.75.336-.75.75z"/><path d="m11.25 14v4c0 .414.336.75.75.75s.75-.336.75-.75v-4c0-.414-.336-.75-.75-.75s-.75.336-.75.75z"/></g></svg>