<svg clip-rule="evenodd" fill-rule="evenodd" height="512" stroke-linejoin="round" stroke-miterlimit="2" viewBox="0 0 24 24" width="512" xmlns="http://www.w3.org/2000/svg"><g id="Icon"><path d="m14.806 10.949-3.047-1.759c-.835-.482-1.875.12-1.875 1.083v3.519c0 .963 1.04 1.564 1.875 1.081 0 0 3.047-1.759 3.047-1.759.832-.48.832-1.685 0-2.165zm-3.422 2.409 2.297-1.326-2.297-1.326z"/><path d="m15.713 8.324c.952.945 1.537 2.256 1.537 3.708 0 1.451-.585 2.763-1.537 3.707-.295.291-.297.766-.005 1.061.291.294.766.296 1.06.004 1.227-1.215 1.982-2.904 1.982-4.772 0-1.869-.755-3.557-1.982-4.773-.294-.291-.769-.289-1.06.005-.292.294-.29.769.005 1.06z"/><path d="m8.288 15.739c-.953-.944-1.538-2.256-1.538-3.707s.585-2.763 1.538-3.707c.294-.292.296-.767.005-1.061-.292-.294-.767-.296-1.061-.005-1.227 1.216-1.982 2.904-1.982 4.773s.755 3.557 1.982 4.773c.294.291.769.289 1.061-.005.291-.294.289-.769-.005-1.061z"/><path d="m18.54 5.492c1.674 1.675 2.71 3.987 2.71 6.54s-1.036 4.865-2.71 6.54c-.293.292-.293.768 0 1.06.292.293.768.293 1.06 0 1.946-1.945 3.15-4.633 3.15-7.6s-1.204-5.655-3.15-7.6c-.292-.293-.768-.293-1.06 0-.293.292-.293.768 0 1.06z"/><path d="m5.461 18.572c-1.674-1.675-2.711-3.988-2.711-6.54 0-2.553 1.036-4.865 2.711-6.54.292-.292.292-.768 0-1.06-.293-.293-.768-.293-1.061 0-1.946 1.946-3.15 4.633-3.15 7.6 0 2.966 1.204 5.654 3.15 7.6.293.293.768.293 1.061.001.292-.293.292-.768 0-1.061z"/></g></svg>