<svg clip-rule="evenodd" fill-rule="evenodd" height="512" stroke-linejoin="round" stroke-miterlimit="2" viewBox="0 0 24 24" width="512" xmlns="http://www.w3.org/2000/svg"><g id="Icon"><path d="m18 3.75h-4c-1.519 0-2.75 1.231-2.75 2.75v1.172c0 .729.29 1.428.805 1.944l.829.829c.234.234.366.552.366.883v2.172c0 .967.784 1.75 1.75 1.75h.5c.966 0 1.75-.783 1.75-1.75v-2.172c0-.331.132-.649.366-.883 0 0 .829-.829.829-.829.234-.234.552-.366.883-.366.414 0 .75-.336.75-.75s-.336-.75-.75-.75c-.729 0-1.428.29-1.944.805l-.829.829c-.515.516-.805 1.215-.805 1.944v2.172c0 .138-.112.25-.25.25h-.5c-.138 0-.25-.112-.25-.25v-2.172c0-.729-.29-1.428-.805-1.944l-.829-.829c-.234-.234-.366-.552-.366-.883v-1.172c0-.69.56-1.25 1.25-1.25h4c.414 0 .75-.336.75-.75s-.336-.75-.75-.75z"/><path d="m8.555 2.384c-.515.516-.805 1.215-.805 1.944v2.172c0 .138-.112.25-.25.25h-.5c-.138 0-.25-.112-.25-.25v-1.672c0-.414-.336-.75-.75-.75s-.75.336-.75.75v1.672c0 .967.784 1.75 1.75 1.75h.5c.966 0 1.75-.783 1.75-1.75v-2.172c0-.331.132-.649.366-.883.293-.293.293-.768 0-1.061s-.768-.293-1.061 0z"/><path d="m4.172 12.25c.331 0 .649.132.883.366l.829.829c.516.515 1.215.805 1.944.805h2.172c.138 0 .25.112.25.25v.5c0 .138-.112.25-.25.25h-2.172c-.729 0-1.428.29-1.944.805-.293.293-.293.768 0 1.061s.768.293 1.061 0c.234-.234.552-.366.883-.366h2.172c.967 0 1.75-.784 1.75-1.75 0-.165 0-.335 0-.5 0-.966-.783-1.75-1.75-1.75h-2.172c-.331 0-.649-.132-.883-.366l-.829-.829c-.516-.515-1.215-.805-1.944-.805-.414 0-.75.336-.75.75s.336.75.75.75z"/><path d="m5.75 17.317v2.183c0 .967.784 1.75 1.75 1.75s1.75-.784 1.75-1.75v-.166c.326.101.66.185 1 .25v1.416c0 .967.784 1.75 1.75 1.75.464 0 .909-.184 1.237-.513.329-.328.513-.773.513-1.237v-1.416c.34-.065.674-.149 1-.25 0-.001 0 .166 0 .166 0 .464.184.909.513 1.237.328.329.773.513 1.237.513.966 0 1.75-.784 1.75-1.75v-2.183c1.843-1.691 3-4.12 3-6.817 0-5.105-4.145-9.25-9.25-9.25s-9.25 4.145-9.25 9.25c0 2.697 1.156 5.126 3 6.817zm1.5-.338c0-.22-.097-.429-.264-.572-1.673-1.421-2.736-3.541-2.736-5.907 0-4.277 3.473-7.75 7.75-7.75s7.75 3.473 7.75 7.75c0 2.366-1.063 4.486-2.736 5.907-.167.143-.264.352-.264.572v2.521c0 .138-.112.25-.25.25-.066 0-.13-.026-.177-.073s-.073-.111-.073-.177v-1.253c0-.255-.129-.492-.344-.63-.214-.138-.483-.158-.715-.053-.709.321-1.475.538-2.278.633-.378.044-.663.364-.663.745v2.058c0 .066-.026.13-.073.177s-.111.073-.177.073c-.138 0-.25-.112-.25-.25v-2.058c0-.381-.285-.701-.663-.745-.803-.095-1.569-.312-2.277-.633-.233-.105-.502-.085-.716.053-.215.138-.344.375-.344.63v1.253c0 .138-.112.25-.25.25s-.25-.112-.25-.25z"/></g></svg>