<svg clip-rule="evenodd" fill-rule="evenodd" height="512" stroke-linejoin="round" stroke-miterlimit="2" viewBox="0 0 24 24" width="512" xmlns="http://www.w3.org/2000/svg"><g id="Icon"><path d="m20.105 20.75c.892 0 1.64-.669 1.739-1.556l.901-8.111c.003-.028.005-.055.005-.083v-1c0-.966-.784-1.75-1.75-1.75h-18c-.966 0-1.75.784-1.75 1.75v1c0 .028.002.055.005.083l.901 8.111c.099.887.847 1.556 1.739 1.556zm0-1.5h-16.21c-.128 0-.234-.097-.249-.224 0 0-.896-8.068-.896-8.068v-.958c0-.138.112-.25.25-.25h18c.138 0 .25.112.25.25v.958s-.896 8.068-.896 8.068c-.015.127-.121.224-.249.224z"/><path d="m3.75 7v-2c0-.138.112-.25.25-.25h3.586c.066 0 .13.026.177.073 0 0 1.414 1.414 1.414 1.414.329.329.773.513 1.237.513h9.586c.138 0 .25.112.25.25 0 .414.336.75.75.75s.75-.336.75-.75c0-.966-.784-1.75-1.75-1.75h-9.586c-.066 0-.13-.026-.177-.073 0 0-1.414-1.414-1.414-1.414-.329-.329-.773-.513-1.237-.513h-3.586c-.966 0-1.75.784-1.75 1.75v2c0 .414.336.75.75.75s.75-.336.75-.75z"/></g></svg>