<svg clip-rule="evenodd" fill-rule="evenodd" height="512" stroke-linejoin="round" stroke-miterlimit="2" viewBox="0 0 24 24" width="512" xmlns="http://www.w3.org/2000/svg"><g id="Icon"><path d="m22 20.25h-20c-.414 0-.75.336-.75.75s.336.75.75.75h20c.414 0 .75-.336.75-.75s-.336-.75-.75-.75z"/><path d="m4.252 20.949c-.014.208.058.411.2.563s.34.238.548.238h3.5c.21 0 .411-.088.553-.244.142-.155.213-.363.194-.572-.63-7.083 3.356-12.488 3.356-12.488.207-.281.194-.667-.032-.932-.226-.266-.605-.34-.915-.18-2.696 1.392-4.441 3.867-5.545 6.352-1.616 3.635-1.859 7.263-1.859 7.263zm1.584-.699c.16-1.199.588-3.575 1.645-5.954.516-1.16 1.181-2.324 2.046-3.346-1.002 2.283-1.995 5.548-1.828 9.3z"/><path d="m19.502 10.982c.005-.006.01-.012.015-.018-.196.447-.39.927-.574 1.441-.14.389.062.819.451.959.39.14.82-.062.96-.452.991-2.755 2.249-4.466 2.249-4.466.207-.281.194-.667-.032-.932-.226-.266-.605-.34-.915-.18-1.315.679-2.404 1.614-3.303 2.684-.266.317-.225.79.092 1.056.317.267.791.225 1.057-.092z"/><path d="m17.292 6.992c.302-.348.619-.673.953-.97-.287.657-.609 1.424-.943 2.271-.152.385.038.821.423.973s.821-.038.973-.423c1.048-2.658 1.973-4.508 1.973-4.508.141-.281.091-.621-.125-.85s-.552-.298-.841-.174c-1.345.576-2.523 1.522-3.545 2.697-.272.312-.238.787.074 1.058.312.272.787.238 1.058-.074z"/><path d="m15.723 12.781c-.753 2.466-1.348 5.102-1.455 7.469h-2.381c.361-1.974 1.45-6.981 3.76-10.929.209-.358.089-.818-.268-1.027-.358-.209-.817-.088-1.026.269-3.082 5.268-4.095 12.331-4.095 12.331-.031.215.033.433.175.597.143.165.35.259.567.259h4c.414 0 .75-.336.75-.75 0-2.415.618-5.196 1.408-7.781.121-.396-.102-.815-.498-.936s-.816.102-.937.498z"/><path d="m21 21.75c.206 0 .403-.085.544-.234.142-.149.216-.35.205-.556 0 0-.276-5.184-2.097-10.193-1.251-3.443-3.242-6.782-6.296-8.427-.29-.156-.647-.105-.882.125-.234.23-.291.587-.141.879 0 0 4.652 8.999 3.92 17.592-.018.21.053.417.195.571.142.155.342.243.552.243zm-.812-1.5h-2.386c.279-5.744-1.597-11.541-2.915-14.838 1.501 1.591 2.574 3.718 3.356 5.867 1.324 3.643 1.795 7.383 1.945 8.971z"/><path d="m7.54 13.164c-1.226-2.447-2.912-4.6-5.184-5.824-.29-.156-.647-.105-.882.125-.234.23-.291.587-.141.879 0 0 2.218 4.305 3.351 9.807.084.406.481.667.886.584.406-.084.667-.481.583-.886-.608-2.956-1.519-5.579-2.257-7.424.916.976 1.673 2.154 2.303 3.411.186.37.637.52 1.007.334.37-.185.52-.636.334-1.006z"/><path d="m12.843 15.885c-.271-1.75-.721-3.746-1.465-5.657-.06-.155-.412-.987-.534-1.245-1.101-2.333-2.701-4.411-4.988-5.643-.284-.153-.633-.108-.869.113-.235.22-.303.566-.169.859 0 0 1.413 3.099 2.31 7.509.082.406.479.668.884.585.406-.082.668-.478.586-.884-.438-2.15-.994-4.002-1.462-5.364.98.983 1.747 2.184 2.352 3.465.112.238.437 1.006.492 1.149.702 1.804 1.125 3.69 1.381 5.343.063.409.447.69.856.626.409-.063.69-.447.626-.856z"/></g></svg>