<svg height="512" viewBox="0 0 32 32" width="512" xmlns="http://www.w3.org/2000/svg"><g id="Layer_47" data-name="Layer 47"><path d="m13 11h2v2h-2z"/><path d="m13 15h2v2h-2z"/><path d="m13 19h2v2h-2z"/><path d="m17 11h2v2h-2z"/><path d="m17 15h2v2h-2z"/><path d="m17 19h2v2h-2z"/><path d="m28 27h-5v-14h2v11a1 1 0 0 0 2 0v-12a1 1 0 0 0 -1-1h-3v-3a1 1 0 0 0 -.4453-.832l-6-4a1.0009 1.0009 0 0 0 -1.1094 0l-6 4a1 1 0 0 0 -.4453.832v3h-3a1 1 0 0 0 -1 1v15h-1a1 1 0 0 0 0 2h24a1 1 0 0 0 0-2zm-21-14h2v11a1 1 0 0 0 2 0v-15.4648l5-3.3335 5 3.3335v18.4648h-2v-3a1 1 0 0 0 -1-1h-4a1 1 0 0 0 -1 1v3h-6zm10 14h-2v-2h2z"/></g></svg>