<svg clip-rule="evenodd" fill-rule="evenodd" height="512" stroke-linejoin="round" stroke-miterlimit="2" viewBox="0 0 24 24" width="512" xmlns="http://www.w3.org/2000/svg"><g id="Icon"><path d="m13.5 16.25c-.414 0-.75-.336-.75-.75s.336-.75.75-.75h4c.414 0 .75.336.75.75s-.336.75-.75.75z"/><path d="m12.5 19.25c-.414 0-.75-.336-.75-.75s.336-.75.75-.75h6c.414 0 .75.336.75.75s-.336.75-.75.75z"/><path d="m9.416 6.624c-.344.23-.81.136-1.04-.208s-.136-.81.208-1.04l3.939-2.626h-9.523c-.138 0-.25.112-.25.25v14c0 .138.112.25.25.25h6c.414 0 .75.336.75.75s-.336.75-.75.75h-6c-.966 0-1.75-.783-1.75-1.75v-14c0-.967.784-1.75 1.75-1.75h12c.331 0 .622.216.718.533.096.316-.027.658-.302.841z"/><path d="m22.75 7v14c0 .967-.784 1.75-1.75 1.75h-11c-.966 0-1.75-.783-1.75-1.75v-15c0-.414.336-.75.75-.75h12c.966 0 1.75.783 1.75 1.75zm-1.5 0c0-.138-.112-.25-.25-.25h-11.25v14.25c0 .138.112.25.25.25h11c.138 0 .25-.112.25-.25z"/><path d="m20.25 9v3c0 .331-.132.649-.366.884-.235.234-.552.366-.884.366h-7c-.332 0-.649-.132-.884-.366-.234-.235-.366-.553-.366-.884v-3c0-.331.132-.649.366-.884.235-.234.552-.366.884-.366h7c.332 0 .649.132.884.366.234.235.366.552.366.884zm-8 2.75h6.5v-2.5h-6.5z"/><path d="m14.25 2c0-.414.336-.75.75-.75s.75.336.75.75v4c0 .414-.336.75-.75.75s-.75-.336-.75-.75z"/></g></svg>