<svg clip-rule="evenodd" fill-rule="evenodd" stroke-linejoin="round" stroke-miterlimit="1.414" viewBox="0 0 32 32" xmlns="http://www.w3.org/2000/svg" xmlns:serif="http://www.serif.com/"><path id="calender-date-schedule-match" d="m0 0h32v32h-32z" fill="none"/><path d="m16.999 6.995v.999c-.018.886-1.451 1.391-1.904.423-.061-.131-.091-.276-.094-.423v-.999h-2.996c-.769-.037-1.284-1.042-.755-1.653.182-.21.329-.324.755-.345.998 0 1.997-.003 2.996-.009v-.989c.003-.163.019-.216.05-.313.132-.401.527-.686.969-.686.533.021.967.42.979.999v.977c1.997-.012 3.995-.023 5.993-.013v-.964c.01-.534.4-.976.979-.999h.039c.534.021.968.42.979.999v.982c.358.005.716.011 1.073.017 1.531.048 2.893 1.365 2.922 2.959.038 6.017.038 12.035 0 18.053-.028 1.545-1.365 2.929-2.959 2.959-6.683.041-13.367.041-20.05 0-1.539-.029-2.929-1.339-2.959-2.959-.038-6.018-.038-12.036 0-18.053.028-1.556 1.361-2.949 2.993-2.96h1.002v-.998c.003-.163.018-.216.05-.313.132-.401.527-.686.968-.686.534.021.968.42.979.999v3.995c-.017.885-1.409 1.381-1.886.459-.073-.141-.108-.298-.111-.459v-1.003c-.342-.002-.683-.002-1.024.004-.507.016-.958.46-.974.974-.111 6.008-.112 12.02 0 18.028.016.508.46.958.974.974 6.674.124 13.352.124 20.026 0 .507-.016.958-.46.974-.974.111-6.008.111-12.02 0-18.028-.016-.517-.477-.971-1.002-.974h-.996v.999c-.017.877-1.413 1.372-1.886.459-.072-.141-.108-.298-.111-.459v-.999zm-8.99 15.981c.552 0 .999.448.999.999s-.447.999-.999.999c-.551 0-.998-.448-.998-.999s.447-.999.998-.999zm3.996 0c.551 0 .998.448.998.999s-.447.999-.998.999c-.552 0-.999-.448-.999-.999s.447-.999.999-.999zm3.995 0c.551 0 .999.448.999.999s-.448.999-.999.999-.999-.448-.999-.999.448-.999.999-.999zm-7.991-3.995c.552 0 .999.447.999.999 0 .551-.447.998-.999.998-.551 0-.998-.447-.998-.998 0-.552.447-.999.998-.999zm3.996 0c.551 0 .998.447.998.999 0 .551-.447.998-.998.998-.552 0-.999-.447-.999-.998 0-.552.447-.999.999-.999zm3.995 0c.551 0 .999.447.999.999 0 .551-.448.998-.999.998s-.999-.447-.999-.998c0-.552.448-.999.999-.999zm3.995 0c.551 0 .999.447.999.999 0 .551-.448.998-.999.998s-.999-.447-.999-.998c0-.552.448-.999.999-.999zm3.995 0c.552 0 .999.447.999.999 0 .551-.447.998-.999.998-.551 0-.998-.447-.998-.998 0-.552.447-.999.998-.999zm-11.985-3.995c.551 0 .998.447.998.998 0 .552-.447.999-.998.999-.552 0-.999-.447-.999-.999 0-.551.447-.998.999-.998zm3.995 0c.551 0 .999.447.999.998 0 .552-.448.999-.999.999s-.999-.447-.999-.999c0-.551.448-.998.999-.998zm3.995 0c.551 0 .999.447.999.998 0 .552-.448.999-.999.999s-.999-.447-.999-.999c0-.551.448-.998.999-.998zm3.995 0c.552 0 .999.447.999.998 0 .552-.447.999-.999.999-.551 0-.998-.447-.998-.999 0-.551.447-.998.998-.998z"/></svg>