<svg clip-rule="evenodd" fill-rule="evenodd" stroke-linejoin="round" stroke-miterlimit="1.414" viewBox="0 0 32 32" xmlns="http://www.w3.org/2000/svg" xmlns:serif="http://www.serif.com/"><path id="archieve-box-cardbox" d="m0 0h32v32h-32z" fill="none"/><path d="m5 11h-1c-.537-.025-.975-.451-1-1v-4c.025-.537.451-.975 1-1h24c.031.001.062.003.092.004.501.07.884.483.908.996v4c-.025.537-.451.975-1 1h-21v14h18v-11c.026-.596.56-1.066 1.174-.985.461.103.805.509.826.985v12c-.023.537-.462.977-1 1h-20c-.537-.023-.977-.462-1-1zm15 4h-8c-.761-.021-1.307-1.038-.746-1.666.163-.182.393-.301.634-.328.05-.005.062-.005.112-.006h8c.019.001.037.001.056.002.741.062 1.236 1.053.69 1.664-.163.182-.393.301-.634.328-.05.005-.062.005-.112.006zm-15-8v2h22v-2c-7.333 0-14.667 0-22 0z" fill-rule="nonzero"/></svg>