<svg clip-rule="evenodd" fill-rule="evenodd" height="512" stroke-linejoin="round" stroke-miterlimit="2" viewBox="0 0 24 24" width="512" xmlns="http://www.w3.org/2000/svg"><g id="Icon"><path d="m14.5 10.5v2c0 .414.336.75.75.75s.75-.336.75-.75v-2c0-.414-.336-.75-.75-.75s-.75.336-.75.75z"/><path d="m17 9.5v2c0 .414.336.75.75.75s.75-.336.75-.75v-2c0-.414-.336-.75-.75-.75s-.75.336-.75.75z"/><path d="m19.5 10.5v2c0 .414.336.75.75.75s.75-.336.75-.75v-2c0-.414-.336-.75-.75-.75s-.75.336-.75.75z"/><path d="m11.3 20v-13c0-.994-.806-1.8-1.8-1.8-1.636 0-4.864 0-6.5 0-.994 0-1.8.806-1.8 1.8v13c0 1.546 1.254 2.8 2.8 2.8h4.5c1.546 0 2.8-1.254 2.8-2.8zm-1.6-13v13c0 .663-.537 1.2-1.2 1.2h-4.5c-.663 0-1.2-.537-1.2-1.2v-13c0-.11.09-.2.2-.2h6.5c.11 0 .2.09.2.2z"/><path d="m22.8 16c0-.477-.19-.935-.527-1.273-.338-.337-.796-.527-1.273-.527-1.636 0-4.864 0-6.5 0-.477 0-.935.19-1.273.527-.337.338-.527.796-.527 1.273v4c0 1.546 1.254 2.8 2.8 2.8h4.5c1.546 0 2.8-1.254 2.8-2.8zm-1.6 0v4c0 .663-.537 1.2-1.2 1.2h-4.5c-.663 0-1.2-.537-1.2-1.2v-4c0-.053.021-.104.059-.141.037-.038.088-.059.141-.059h6.5c.053 0 .104.021.141.059.038.037.059.088.059.141z"/><path d="m9.8 6v-3c0-.994-.806-1.8-1.8-1.8h-3.5c-.994 0-1.8.806-1.8 1.8v3c0 .442.358.8.8.8h5.5c.442 0 .8-.358.8-.8zm-1.6-3v2.2h-3.9v-2.2c0-.11.09-.2.2-.2h3.5c.11 0 .2.09.2.2z"/><path d="m9.5 3.2h-6.5c-.442 0-.8.358-.8.8s.358.8.8.8h6.5c.442 0 .8-.358.8-.8s-.358-.8-.8-.8z"/></g></svg>