<svg clip-rule="evenodd" fill-rule="evenodd" height="512" stroke-linejoin="round" stroke-miterlimit="2" viewBox="0 0 24 24" width="512" xmlns="http://www.w3.org/2000/svg"><g id="Icon"><circle cx="17.25" cy="13" r="1"/><path d="m16.2 11.558c.293-.22.656-.35 1.049-.35.394 0 .757.13 1.049.35.331.249.802.182 1.051-.149.248-.331.181-.802-.15-1.05-.543-.408-1.218-.651-1.95-.651-.731 0-1.406.243-1.949.651-.331.248-.398.719-.15 1.05.249.331.72.398 1.05.149z"/><path d="m15.2 9.475c.572-.429 1.281-.683 2.05-.683s1.478.254 2.05.683c.33.248.801.182 1.05-.149.248-.331.181-.802-.15-1.05-.822-.618-1.843-.984-2.95-.984s-2.128.366-2.95.984c-.331.248-.398.719-.15 1.05.249.331.72.397 1.05.149z"/><path d="m18 5.5v-1.5c0-1.519-1.231-2.75-2.75-2.75-2.444 0-6.556 0-9 0-1.519 0-2.75 1.231-2.75 2.75v15c0 1.519 1.231 2.75 2.75 2.75h9c1.519 0 2.75-1.231 2.75-2.75v-3.5c0-.414-.336-.75-.75-.75s-.75.336-.75.75v3.5c0 .69-.56 1.25-1.25 1.25-2.444 0-6.556 0-9 0-.69 0-1.25-.56-1.25-1.25v-15c0-.69.56-1.25 1.25-1.25h9c.69 0 1.25.56 1.25 1.25v1.5c0 .414.336.75.75.75s.75-.336.75-.75z"/><path d="m15 21v1c0 .414.336.75.75.75s.75-.336.75-.75v-1c0-.414-.336-.75-.75-.75s-.75.336-.75.75z"/><path d="m5 21v1c0 .414.336.75.75.75s.75-.336.75-.75v-1c0-.414-.336-.75-.75-.75s-.75.336-.75.75z"/><path d="m13 9.25h-8.75c-.414 0-.75.336-.75.75s.336.75.75.75h8.75c.414 0 .75-.336.75-.75s-.336-.75-.75-.75z"/><path d="m6.5 5v2c0 .414.336.75.75.75s.75-.336.75-.75v-2c0-.414-.336-.75-.75-.75s-.75.336-.75.75z"/><path d="m6.5 13v2c0 .414.336.75.75.75s.75-.336.75-.75v-2c0-.414-.336-.75-.75-.75s-.75.336-.75.75z"/></g></svg>