<svg clip-rule="evenodd" fill-rule="evenodd" stroke-linejoin="round" stroke-miterlimit="1.414" viewBox="0 0 32 32" xmlns="http://www.w3.org/2000/svg" xmlns:serif="http://www.serif.com/"><path id="bloods-blood-donation-caring" d="m0 0h32v32h-32z" fill="none"/><path d="m14.002 11.673c1.535-2.862 3.304-5.6 5.162-8.224 0 0 .307-.369.649-.436.179-.034.225-.016.285-.013.733.104 1.135.993.699 1.608-.038.053-.075.106-.113.16-2.414 3.448-4.746 7.099-6.45 10.956-.691 1.564-1.363 3.186-1.209 4.916.266 2.997 2.672 5.681 5.652 6.253 3.887.745 8.164-2.311 8.328-6.61.058-1.529-.557-3.014-1.182-4.445-1.238-2.834-2.842-5.503-4.517-8.111l-.056-.086c-.042-.073-.056-.09-.087-.169-.259-.644.338-1.468 1.07-1.364.414.059.689.43.928.804 1.96 3.073 3.865 6.233 5.092 9.604.531 1.46.887 2.986.694 4.585-.352 2.91-2.226 5.591-4.843 6.932-2.446 1.254-5.47 1.301-7.956.121-2.25-1.068-3.979-3.115-4.735-5.492-.256.091-.526.164-.791.22-2.798.582-5.906-.974-7.09-3.634-.54-1.214-.682-2.599-.366-3.892.573-2.343 1.861-4.491 3.132-6.566.097-.16.445-.599.974-.592.233.021.295.052.411.112.441.229.659.817.457 1.285-.089.208-.14.248-.204.354-1.085 1.786-2.181 3.61-2.756 5.624-.659 2.305.985 5.023 3.512 5.393.785.115 1.598.009 2.329-.299-.017-.217-.026-.436-.026-.656-.002-2.09.914-4.104 1.856-6.07-.31-.639-.596-1.284-.93-1.903-1.017-1.886-2.168-3.706-3.402-5.448 0 0-.379-.796.082-1.281.164-.174.393-.285.631-.307.106-.011.131-.004.165-.002.367.036.642.27.884.615 1.356 1.944 2.654 3.949 3.721 6.058z" fill-rule="nonzero"/></svg>