<svg clip-rule="evenodd" fill-rule="evenodd" height="512" stroke-linejoin="round" stroke-miterlimit="2" viewBox="0 0 24 24" width="512" xmlns="http://www.w3.org/2000/svg"><g id="Icon"><path d="m19.25 12c0 3.997-3.253 7.25-7.25 7.25s-7.25-3.253-7.25-7.25c0-.414-.336-.75-.75-.75s-.75.336-.75.75c0 4.825 3.925 8.75 8.75 8.75s8.75-3.925 8.75-8.75c0-.414-.336-.75-.75-.75s-.75.336-.75.75z"/><path d="m12 17.75c3.175 0 5.75-2.574 5.75-5.75v-5c0-3.175-2.575-5.75-5.75-5.75s-5.75 2.575-5.75 5.75v5c0 3.176 2.575 5.75 5.75 5.75zm0-1.5c-2.347 0-4.25-1.902-4.25-4.25v-5c0-2.347 1.903-4.25 4.25-4.25s4.25 1.903 4.25 4.25v5c0 2.348-1.903 4.25-4.25 4.25z"/><path d="m11.25 20v2c0 .414.336.75.75.75s.75-.336.75-.75v-2c0-.414-.336-.75-.75-.75s-.75.336-.75.75z"/></g></svg>