<svg clip-rule="evenodd" fill-rule="evenodd" stroke-linejoin="round" stroke-miterlimit="2" viewBox="0 0 32 32" xmlns="http://www.w3.org/2000/svg" xmlns:serif="http://www.serif.com/"><path id="neutron-atom-galaxy" d="m0 0h32v32h-32z" fill="none"/><path d="m20.528 11.43c-1.991-.431-4.091-.513-6.149-.372 0 0-1.497-.418-.955-1.459.387-.745 1.654-.6 2.659-.598 3.401.016 6.888.628 9.697 2.329 1.643.996 3.117 2.466 3.219 4.466.004.093-.004.185-.024.275.035.535-.126 1.184-.385 1.735-1.164 2.472-3.97 3.7-6.392 4.379-.171.582-.368 1.154-.593 1.711-.984 2.444-2.666 4.964-5.398 5.103-.07.003-.141-.001-.211-.012-.081.011-.167.014-.257.009-1.8-.117-3.361-1.56-4.293-3.028-.412-.651-.019-1.601.871-1.573 1.007.07 1.394 1.416 2.068 1.961.445.36.989.627 1.567.647.17-.017.345-.013.515-.052 1.316-.302 2.154-1.545 2.741-2.637 1.475-2.747 1.896-5.992 1.779-9.171-.046-1.248-.194-2.493-.459-3.713zm-4.518-8.43h.036c1.883.031 3.528 1.486 4.511 3.036.305.48.164 1.16-.319 1.44-.489.282-1.092.052-1.457-.502-.171-.259-.357-.508-.561-.741-.074-.085-.151-.168-.23-.248-.068-.068-.137-.135-.209-.199-.488-.437-1.109-.782-1.785-.786 0 0-.003-.001-.008-.002-.021.002-.043.003-.064.004-1.249.055-2.171 1.147-2.757 2.056-.132.206-.255.417-.371.632-1.475 2.746-1.897 5.991-1.779 9.171.046 1.247.193 2.491.458 3.71 2.001.434 4.109.514 6.149.375 0 0 .929.131 1.053.821.11.612-.507 1.15-1.13 1.189-4.412.272-9.184-.275-12.571-3.177-1.09-.935-1.957-2.251-1.976-3.726-.001-.049.002-.098.007-.146-.003-.052-.003-.104.001-.158.136-2.182 2.155-3.902 3.922-4.813.877-.452 1.796-.936 2.746-1.161.521-1.714 1.318-3.305 2.443-4.672.949-1.154 2.28-2.093 3.877-2.103zm-6.87 9.125c-1.295.464-2.515 1.119-3.413 2.165-.41.478-.724 1.071-.727 1.716 0 0-.002.011-.006.031.005.04.009.08.012.121.123 1.49 1.557 2.445 2.684 3.05.521.28 1.061.522 1.615.73-.465-2.571-.568-5.27-.165-7.813zm13.551-.063c.446 2.587.471 5.27.036 7.824 1.263-.447 2.59-1.068 3.533-2.153.419-.482.741-1.085.744-1.735 0 0 .002-.017.009-.045-.017-.141-.032-.283-.063-.417-.301-1.315-1.544-2.153-2.636-2.74-.524-.281-1.067-.525-1.623-.734zm-6.651.94c1.974.037 3.597 2.369 2.666 4.301-.812 1.684-3.372 2.208-4.774.871-1.649-1.572-.764-5.119 2.031-5.172.039-.001.039-.001.077 0zm-.051 2c-.861.016-1.412 1.483-.376 1.922.734.31 1.736-.587 1.257-1.419-.179-.31-.503-.506-.881-.503z"/></svg>