<svg clip-rule="evenodd" fill-rule="evenodd" height="512" stroke-linejoin="round" stroke-miterlimit="2" viewBox="0 0 24 24" width="512" xmlns="http://www.w3.org/2000/svg"><g id="Icon"><path d="m18.75 19.979c0-1.102-.661-2.156-1.872-2.981-1.553-1.059-4.053-1.769-6.878-1.769s-5.325.71-6.878 1.769c-1.211.825-1.872 1.879-1.872 2.981v1.221c0 .411.163.805.454 1.096s.685.454 1.096.454h14.4c.411 0 .805-.163 1.096-.454s.454-.685.454-1.096zm-1.5 0v1.221c0 .013-.005.026-.015.035-.009.01-.022.015-.035.015h-14.4c-.013 0-.026-.005-.035-.015-.01-.009-.015-.022-.015-.035v-1.221c0-.665.486-1.244 1.217-1.742 1.36-.927 3.559-1.508 6.033-1.508s4.673.581 6.033 1.508c.731.498 1.217 1.077 1.217 1.742z"/><path d="m10 5.661c-2.622 0-4.75 2.128-4.75 4.75 0 2.621 2.128 4.75 4.75 4.75s4.75-2.129 4.75-4.75c0-2.622-2.128-4.75-4.75-4.75zm0 1.5c1.794 0 3.25 1.456 3.25 3.25 0 1.793-1.456 3.25-3.25 3.25s-3.25-1.457-3.25-3.25c0-1.794 1.456-3.25 3.25-3.25z"/><path d="m22.75 5c0-2.299-2.069-4.119-4.448-3.687-1.479.27-2.693 1.469-2.979 2.944-.245 1.258.464 2.618 1.325 3.482.005.005.01.01.016.015.047.045.074.108.074.173 0 .01 0 .021.001.031.011.279.011.664.011 1.038 0 .965.781 1.748 1.747 1.75.321.001.678.002.999.002.465.001.911-.183 1.24-.511s.514-.774.514-1.239v-1.072c0-.068.028-.133.076-.18.002-.002.004-.003.005-.005.719-.704 1.419-1.792 1.419-2.741zm-1.5 0c0 .594-.52 1.23-.969 1.671-.337.325-.531.779-.531 1.254v1.073c0 .067-.026.13-.073.177s-.111.073-.178.073l-.999-.002c-.138 0-.25-.112-.25-.25 0-.39 0-.791-.012-1.086-.005-.468-.198-.915-.537-1.239-.531-.534-1.058-1.345-.906-2.127 0-.001 0-.001 0-.001.171-.879.894-1.593 1.775-1.754 1.431-.26 2.68.829 2.68 2.211z"/></g></svg>