<svg clip-rule="evenodd" fill-rule="evenodd" height="512" stroke-linejoin="round" stroke-miterlimit="2" viewBox="0 0 24 24" width="512" xmlns="http://www.w3.org/2000/svg"><g id="Icon"><path d="m22 1.75h-20c-.414 0-.75.336-.75.75s.336.75.75.75h20c.414 0 .75-.336.75-.75s-.336-.75-.75-.75z"/><path d="m1.76 2.623.5 3c.026.154.099.297.21.407l1.5 1.5c.292.293.768.293 1.06 0 .293-.292.293-.768 0-1.06l-1.33-1.33s-.46-2.763-.46-2.763c-.068-.409-.455-.685-.863-.617-.409.068-.685.455-.617.863z"/><path d="m4.788 4.763-1.5 4.5c-.062.189-.048.394.041.572l2 4c.136.272.422.435.724.413.303-.021.563-.223.659-.511l1-3c.13-.393-.082-.818-.475-.949-.393-.13-.818.082-.949.475l-.427 1.282s-1.051-2.103-1.051-2.103 1.402-4.205 1.402-4.205c.13-.393-.082-.818-.475-.949-.393-.13-.818.082-.949.475z"/><path d="m9.914 4.031-2 2.5c-.129.162-.186.37-.156.575l.5 3.5c.018.133.073.258.156.363l1.882 2.352s.966 5.313.966 5.313c.056.31.301.552.611.605.311.053.622-.093.778-.367l2-3.5c.042-.074.072-.154.087-.238l1-5.5c.037-.205-.013-.417-.138-.584l-1.35-1.8v-1.75c0-.414-.336-.75-.75-.75s-.75.336-.75.75v2c0 .162.053.32.15.45l1.304 1.738s-.919 5.051-.919 5.051-.915 1.602-.915 1.602-.632-3.475-.632-3.475c-.022-.123-.075-.237-.152-.335l-1.872-2.34s-.426-2.976-.426-2.976 1.798-2.246 1.798-2.246c.258-.324.206-.796-.117-1.055-.324-.258-.796-.206-1.055.117z"/><path d="m17.272 2.318-.96 3.841s-1.898 2.372-1.898 2.372c-.258.324-.206.796.117 1.055.324.258.796.206 1.055-.117l2-2.5c.067-.085.115-.182.142-.287l1-4c.1-.402-.145-.809-.546-.91-.402-.1-.809.145-.91.546z"/><path d="m20.765 2.353-.456 2.277s-1.839 1.84-1.839 1.84c-.141.14-.22.331-.22.53v3.341s-1.334 3.001-1.334 3.001-1.265-2.214-1.265-2.214c-.205-.36-.664-.485-1.023-.279-.36.205-.485.664-.279 1.023l2 3.5c.14.246.406.391.689.377.282-.014.533-.186.647-.444l2-4.5c.043-.096.065-.2.065-.305v-3.189s1.78-1.781 1.78-1.781c.105-.104.176-.238.205-.383l.5-2.5c.082-.406-.182-.801-.588-.882-.406-.082-.801.182-.882.588z"/><path d="m8.171 15.665c-.12-.24-.358-.397-.624-.414-.267-.016-.523.111-.671.333l-1 1.5c-.082.123-.126.268-.126.416v2c0 .116.027.231.079.335l1 2c.123.245.369.404.642.414.274.011.531-.128.672-.363l1.5-2.5c.132-.22.142-.492.028-.721zm-.764 1.826.738 1.476s-.585.976-.585.976-.31-.62-.31-.62v-1.596z"/><path d="m17.1 17.05c-.156-.208-.408-.32-.667-.297s-.488.179-.604.412l-1 2c-.127.254-.099.558.071.785l1.5 2c.156.208.408.32.667.297s.488-.179.604-.412l1-2c.127-.254.099-.558-.071-.785zm-.472 1.871.494.658s-.25.5-.25.5-.494-.658-.494-.658z"/></g></svg>