<svg clip-rule="evenodd" fill-rule="evenodd" height="512" stroke-linejoin="round" stroke-miterlimit="2" viewBox="0 0 24 24" width="512" xmlns="http://www.w3.org/2000/svg"><g id="Icon"><path d="m14.673 22.75c1.423 0 2.61-1.085 2.739-2.501l.836-11.193c.016-.208-.056-.413-.198-.566s-.341-.24-.55-.24h-11c-.208 0-.407.087-.549.24s-.214.358-.199.566l.835 11.193c.13 1.416 1.318 2.501 2.739 2.501zm0-1.5h-5.347c-.643 0-1.181-.489-1.244-1.129 0-.004-.774-10.371-.774-10.371h9.384s-.774 10.367-.774 10.367c-.061.642-.599 1.133-1.245 1.133z"/><path d="m11.53 2c0 .899-.127 1.348-.252 1.798-.155.55-.308 1.101-.308 2.202 0 .414.336.75.75.75s.75-.336.75-.75c0-.899.126-1.348.252-1.798.154-.55.308-1.101.308-2.202 0-.414-.336-.75-.75-.75s-.75.336-.75.75z"/><path d="m8.53 2c0 .899-.127 1.348-.252 1.798-.155.55-.308 1.101-.308 2.202 0 .414.336.75.75.75s.75-.336.75-.75c0-.899.126-1.348.252-1.798.154-.55.308-1.101.308-2.202 0-.414-.336-.75-.75-.75s-.75.336-.75.75z"/><path d="m14.53 2c0 .899-.127 1.348-.252 1.798-.155.55-.308 1.101-.308 2.202 0 .414.336.75.75.75s.75-.336.75-.75c0-.899.126-1.348.252-1.798.154-.55.308-1.101.308-2.202 0-.414-.336-.75-.75-.75s-.75.336-.75.75z"/><path d="m6 9.75h12c.414 0 .75-.336.75-.75s-.336-.75-.75-.75h-12c-.414 0-.75.336-.75.75s.336.75.75.75z"/><path d="m6.608 13.64s1.69 1.052 4.376 1.11c1.351.029 2.621-.503 3.741-1.063.496-.248.961-.498 1.387-.684.326-.143.619-.255.883-.253.413.003.752-.331.755-.745.003-.413-.331-.752-.745-.755-.658-.005-1.463.34-2.36.796-1.055.536-2.285 1.233-3.629 1.204-2.22-.048-3.624-.89-3.624-.89-.353-.216-.816-.105-1.032.248s-.105.816.248 1.032z"/></g></svg>