<svg clip-rule="evenodd" fill-rule="evenodd" height="512" stroke-linejoin="round" stroke-miterlimit="2" viewBox="0 0 24 24" width="512" xmlns="http://www.w3.org/2000/svg"><g id="Icon"><path d="m17.2 8.404c0 .066-.026.13-.073.177s-.111.073-.177.073h-1.4c-.414 0-.75.336-.75.75s.336.75.75.75h1.4c.464 0 .909-.184 1.237-.513.329-.328.513-.773.513-1.237s-.184-.909-.513-1.238c-.328-.328-.773-.512-1.237-.512h-.4c-.066 0-.13-.026-.177-.073s-.073-.111-.073-.177.026-.13.073-.177.111-.073.177-.073h1.4c.414 0 .75-.336.75-.75s-.336-.75-.75-.75h-1.4c-.464 0-.909.184-1.237.512-.329.329-.513.774-.513 1.238s.184.909.513 1.237c.328.329.773.513 1.237.513h.4c.066 0 .13.026.177.073s.073.111.073.177z"/><path d="m17.5 5.404v-1c0-.414-.336-.75-.75-.75s-.75.336-.75.75v1c0 .414.336.75.75.75s.75-.336.75-.75z"/><path d="m17.5 10.404v-1c0-.414-.336-.75-.75-.75s-.75.336-.75.75v1c0 .414.336.75.75.75s.75-.336.75-.75z"/><path d="m21.249 18.605-7.118 2.247c-1.056.334-2.191.325-3.241-.025-2.074-.692-5.153-1.718-5.153-1.718-.393-.131-.818.082-.949.474-.13.393.082.818.475.949 0 0 3.079 1.026 5.153 1.718 1.35.45 2.809.462 4.167.033 2.765-.873 7.643-2.414 7.643-2.414l-.133.021c.2-.041.657-.193.657-.742v-.494c0-.729-.29-1.429-.805-1.945-.516-.515-1.216-.805-1.945-.805-.04 0-.08 0-.119 0-.657 0-1.311.096-1.94.285-.777.233-1.941.582-2.84.852-.733.219-1.511.237-2.252.052-1.164-.291-2.667-.667-2.667-.667-.402-.1-.809.144-.91.546-.1.402.145.809.546.91 0 0 1.503.375 2.667.666 1.003.251 2.056.227 3.047-.071.899-.269 2.063-.619 2.84-.852.489-.146.998-.221 1.509-.221h.119c.332 0 .649.132.884.366.223.223.353.521.365.835z"/><path d="m14.75 17.647v.007c0 .053.006.105.016.155.02.1.057.184.105.253.134.206.366.342.629.342 0 0 .75-.06.75-.763v-.945c0-1.25-.842-2.342-2.05-2.66-2.438-.641-7.009-1.844-7.009-1.844-.4-.106-.811.134-.916.534-.106.401.134.811.534.916l7.009 1.845c.549.144.932.641.932 1.209v.945z"/><path d="m5.993 19.642 1.407-6.33c.131-.59.019-1.209-.311-1.716-.331-.507-.851-.859-1.444-.978l-2.9-.58c-.367-.073-.748.022-1.037.259-.29.238-.458.592-.458.967v8.89c0 .331.132.649.366.884.235.234.552.366.884.366h1.297c1.054 0 1.967-.733 2.196-1.762zm-3.243-8.073 2.6.52c.198.039.372.157.482.326s.147.375.103.572l-1.406 6.33c-.076.343-.381.587-.732.587h-1.047z"/><path d="m16.75 1.404c-3.311 0-6 2.688-6 6 0 3.311 2.689 6 6 6s6-2.689 6-6c0-3.312-2.689-6-6-6zm0 1.5c2.484 0 4.5 2.016 4.5 4.5s-2.016 4.5-4.5 4.5-4.5-2.016-4.5-4.5 2.016-4.5 4.5-4.5z"/></g></svg>