<svg clip-rule="evenodd" fill-rule="evenodd" height="512" stroke-linejoin="round" stroke-miterlimit="2" viewBox="0 0 24 24" width="512" xmlns="http://www.w3.org/2000/svg"><g id="Icon"><path d="m20 12.75c1.519 0 2.75-1.232 2.75-2.75v-4.5c0-.729-.29-1.428-.805-1.944-.516-.516-1.216-.806-1.945-.806s-1.429.29-1.945.806c-.515.516-.805 1.215-.805 1.944v4.5c0 .729.29 1.428.805 1.944.516.516 1.216.806 1.945.806zm0-1.5c-.332 0-.649-.132-.884-.367-.234-.234-.366-.552-.366-.883v-4.5c0-.331.132-.649.366-.883.235-.235.552-.367.884-.367.332 0 .649.132.884.367.234.234.366.552.366.883v4.5c0 .69-.56 1.25-1.25 1.25z"/><path d="m12 12.75c1.519 0 2.75-1.231 2.75-2.75v-4.5c0-1.519-1.231-2.75-2.75-2.75s-2.75 1.231-2.75 2.75v4.5c0 1.519 1.231 2.75 2.75 2.75zm0-1.5c-.69 0-1.25-.56-1.25-1.25v-4.5c0-.69.56-1.25 1.25-1.25.69 0 1.25.56 1.25 1.25v4.5c0 .69-.56 1.25-1.25 1.25z"/><path d="m16 14.25c1.519 0 2.75-1.231 2.75-2.75v-7.5c0-1.519-1.231-2.75-2.75-2.75s-2.75 1.231-2.75 2.75v7.5c0 1.519 1.231 2.75 2.75 2.75zm0-1.5c-.69 0-1.25-.56-1.25-1.25v-7.5c0-.69.56-1.25 1.25-1.25.69 0 1.25.56 1.25 1.25v7.5c0 .69-.56 1.25-1.25 1.25z"/><path d="m10 7h-8c-.414 0-.75.336-.75.75s.336.75.75.75h8c.414 0 .75-.336.75-.75s-.336-.75-.75-.75z"/><path d="m13.25 11v6.5c0 1.242 1.006 2.25 2.25 2.25.284 0 .533-.036.75-.099v.349c0 1.518 1.232 2.75 2.75 2.75s2.75-1.232 2.75-2.75v-8c0-.414-.336-.75-.75-.75s-.75.336-.75.75v8c0 .69-.56 1.25-1.25 1.25s-1.25-.56-1.25-1.25v-2.5c0-.414-.336-.75-.75-.75s-.75.336-.75.75c0 0 0 .75-.75.75-.415 0-.75-.336-.75-.75v-6.5c0-.414-.336-.75-.75-.75s-.75.336-.75.75z"/></g></svg>