<svg clip-rule="evenodd" fill-rule="evenodd" height="512" stroke-linejoin="round" stroke-miterlimit="2" viewBox="0 0 24 24" width="512" xmlns="http://www.w3.org/2000/svg"><g id="Icon"><path d="m9.75 17.5v3.5c0 .966.783 1.75 1.75 1.75h1c.967 0 1.75-.784 1.75-1.75v-5c0-.414-.336-.75-.75-.75s-.75.336-.75.75v5c0 .138-.112.25-.25.25h-1c-.138 0-.25-.112-.25-.25v-3.5c0-.414-.336-.75-.75-.75s-.75.336-.75.75z"/><path d="m17.75 6.045c0-2.648-2.147-4.795-4.795-4.795h-1.91c-2.648 0-4.795 2.147-4.795 4.795v11.207c0 1.38 1.118 2.498 2.498 2.498h.252c.597 0 1.169-.237 1.591-.659s.659-.994.659-1.591c0-.001 0-.001 0-.002 0-.413.335-.748.748-.748h3.002c.729 0 1.429-.29 1.945-.805.515-.516.805-1.216.805-1.945 0-2.907 0-7.955 0-7.955zm-1.5 0v7.955c0 .332-.132.649-.366.884-.235.234-.552.366-.884.366h-3.002c-1.242 0-2.248 1.006-2.248 2.248v.002c0 .199-.079.39-.22.53-.14.141-.331.22-.53.22h-.252c-.551 0-.998-.447-.998-.998v-11.207c0-1.82 1.475-3.295 3.295-3.295h1.91c1.82 0 3.295 1.475 3.295 3.295z"/><path d="m15.25 6.5c0-.729-.29-1.429-.805-1.945-.516-.515-1.216-.805-1.945-.805-.414 0-.75.336-.75.75s.336.75.75.75c.332 0 .649.132.884.366.234.235.366.552.366.884 0 .414.336.75.75.75s.75-.336.75-.75z"/></g></svg>