<svg clip-rule="evenodd" fill-rule="evenodd" height="512" stroke-linejoin="round" stroke-miterlimit="2" viewBox="0 0 24 24" width="512" xmlns="http://www.w3.org/2000/svg"><g id="Icon"><path d="m22.75 12v-8c0-.729-.29-1.429-.805-1.945-.516-.515-1.216-.805-1.945-.805-3.832 0-12.168 0-16 0-.729 0-1.429.29-1.945.805-.515.516-.805 1.216-.805 1.945v16c0 .729.29 1.429.805 1.945.516.515 1.216.805 1.945.805h8c.414 0 .75-.336.75-.75s-.336-.75-.75-.75c0 0-5.082 0-8 0-.332 0-.649-.132-.884-.366-.234-.235-.366-.552-.366-.884v-16c0-.332.132-.649.366-.884.235-.234.552-.366.884-.366h16c.332 0 .649.132.884.366.234.235.366.552.366.884v8c0 .414.336.75.75.75s.75-.336.75-.75z"/><path d="m16.25 2c0-.414-.336-.75-.75-.75h-7c-.414 0-.75.336-.75.75v4c0 .464.184.909.513 1.237.328.329.773.513 1.237.513h5c.464 0 .909-.184 1.237-.513.329-.328.513-.773.513-1.237 0-1.459 0-4 0-4zm-1.5.75v3.25c0 .066-.026.13-.073.177s-.111.073-.177.073h-5c-.066 0-.13-.026-.177-.073s-.073-.111-.073-.177v-3.25z"/><path d="m13.686 21.557c.223.669.827 1.139 1.531 1.189s1.369-.329 1.685-.961l1.628-3.255 3.255-1.628c.632-.316 1.011-.981.961-1.685s-.52-1.308-1.189-1.531c-2.429-.81-5.934-1.782-8.202-2.538-.627-.209-1.318-.046-1.785.422-.468.467-.631 1.158-.422 1.785.756 2.268 1.728 5.773 2.538 8.202zm1.423-.474c-.81-2.429-1.782-5.935-2.538-8.202-.029-.088-.006-.185.059-.251.066-.065.163-.088.251-.059 2.267.756 5.773 1.728 8.202 2.538.094.031.159.116.166.215.007.098-.046.192-.134.236 0 0-3.48 1.74-3.48 1.74-.145.072-.263.19-.335.335l-1.74 3.48c-.044.088-.138.141-.236.134-.099-.007-.184-.072-.215-.166z"/></g></svg>