<svg clip-rule="evenodd" fill-rule="evenodd" height="512" stroke-linejoin="round" stroke-miterlimit="2" viewBox="0 0 24 24" width="512" xmlns="http://www.w3.org/2000/svg"><g id="Icon"><path d="m9.25 5.835c-1.516.678-2.737 1.899-3.415 3.415h-.585v-.75c0-.326-.211-.615-.521-.714-.311-.1-.65.013-.839.278l-2.5 3.5c-.187.261-.187.611 0 .872l2.5 3.5c.189.265.528.378.839.278.31-.099.521-.388.521-.714v-.75h.585c.678 1.516 1.899 2.737 3.415 3.415v.585h-.75c-.326 0-.615.211-.714.521-.1.311.013.65.278.839l3.5 2.5c.261.187.611.187.872 0l3.5-2.5c.265-.189.378-.528.278-.839-.099-.31-.388-.521-.714-.521h-.75v-.585c1.516-.678 2.737-1.899 3.415-3.415h.585v.75c0 .326.211.615.521.714.311.1.65-.013.839-.278l2.5-3.5c.187-.261.187-.611 0-.872l-2.5-3.5c-.189-.265-.528-.378-.839-.278-.31.099-.521.388-.521.714v.75h-.585c-.678-1.516-1.899-2.737-3.415-3.415v-.585h.75c.326 0 .615-.211.714-.521.1-.311-.013-.65-.278-.839l-3.5-2.5c-.261-.187-.611-.187-.872 0l-3.5 2.5c-.265.189-.378.528-.278.839.099.31.388.521.714.521h.75zm1.281-1.864 1.469-1.049 1.469 1.049c-.135.135-.219.322-.219.529v1.842c0 .318.2.601.5.707 1.491.528 2.673 1.71 3.201 3.201.106.3.389.5.707.5h1.842c.207 0 .394-.084.529-.219l1.049 1.469-1.049 1.469c-.135-.135-.322-.219-.529-.219h-1.842c-.318 0-.601.2-.707.5-.528 1.491-1.71 2.673-3.201 3.201-.3.106-.5.389-.5.707v1.842c0 .207.084.394.219.529l-1.469 1.049-1.469-1.049c.135-.135.219-.322.219-.529v-1.842c0-.318-.2-.601-.5-.707-1.491-.528-2.673-1.71-3.201-3.201-.106-.3-.389-.5-.707-.5h-1.842c-.207 0-.394.084-.529.219l-1.049-1.469 1.049-1.469c.135.135.322.219.529.219h1.842c.318 0 .601-.2.707-.5.528-1.491 1.71-2.673 3.201-3.201.3-.106.5-.389.5-.707v-1.842c0-.207-.084-.394-.219-.529z"/><path d="m9.5 14h5c.414 0 .75-.336.75-.75s-.336-.75-.75-.75h-5c-.414 0-.75.336-.75.75s.336.75.75.75z"/><path d="m9.5 11.5h5c.414 0 .75-.336.75-.75s-.336-.75-.75-.75h-5c-.414 0-.75.336-.75.75s.336.75.75.75z"/></g></svg>