<svg clip-rule="evenodd" fill-rule="evenodd" stroke-linejoin="round" stroke-miterlimit="2" viewBox="0 0 32 32" xmlns="http://www.w3.org/2000/svg" xmlns:serif="http://www.serif.com/"><path id="radio-fm-am-communication-" d="m0 0h32v32h-32z" fill="none"/><path d="m19.729 12.971-12.165-6.083c-.225-.123-.272-.185-.357-.3-.399-.54-.052-1.465.64-1.58.149-.025.186-.012.234-.011.11.012.155.003.377.103l15.807 7.904c1.463.146 2.725 1.428 2.735 2.981v4.001c-.037.851-.469.922-.826.985-.513.09-1.065-.288-1.158-.811-.013-.077-.012-.096-.015-.174 0-1.341.025-2.682 0-4.022-.016-.513-.47-.965-.987-.975-5.343-.033-10.686-.099-16.028 0-.512.016-.965.468-.975.987-.016 2.678-.049 5.356.001 8.033.015.511.467.965.986.974 5.343.034 10.687.099 16.028 0 .516-.016.972-.464.975-1.002 0 0 .002-.051.004-.084.081-.618.325-.703.573-.819.649-.302 1.479.248 1.414 1.129-.109 1.466-1.408 2.746-2.953 2.775-5.355.033-10.711.033-16.066 0-1.546-.029-2.931-1.366-2.96-2.961-.017-2.69-.017-5.38 0-8.07.028-1.547 1.365-2.931 2.96-2.961 3.919-.024 7.838-.03 11.756-.019zm2.274 10.014h-3.998c-.881-.018-1.374-1.414-.459-1.888.141-.072.298-.108.459-.111 1.346 0 2.692-.026 4.038.001.872.052 1.329 1.461.383 1.904-.131.061-.276.091-.423.094zm-9.956-5.997c1.972.038 3.594 2.368 2.663 4.299-.654 1.358-2.433 2.049-3.835 1.475-1.511-.617-2.303-2.6-1.553-4.109.487-.978 1.531-1.644 2.648-1.665zm-.052 1.999c-.86.016-1.41 1.482-.375 1.921.729.308 1.73-.57 1.262-1.407-.175-.313-.522-.516-.887-.514zm10.008 0h-3.998c-.878-.018-1.373-1.415-.459-1.887.141-.073.298-.109.459-.112 1.346 0 2.692-.026 4.038.001.876.052 1.321 1.465.383 1.904-.131.061-.276.091-.423.094z"/></svg>