<svg viewBox="0 0 32 32" xmlns="http://www.w3.org/2000/svg"><g id="snapchat_media_social" data-name="snapchat media social"><path d="m28.79 21.41-.12-.15a2.44 2.44 0 0 0 -1-.49 9.56 9.56 0 0 1 -2.46-1.21 11.07 11.07 0 0 1 -1.6-2.48l.58-.24c.83-.32 1.76-.69 2.06-1.51a1.49 1.49 0 0 0 -.1-1.25 2.14 2.14 0 0 0 -2.87-.82c.18-3.18-.44-5.58-1.85-7.16a7 7 0 0 0 -5.43-2.1 6.94 6.94 0 0 0 -5.45 2.12c-1.42 1.58-2.05 4-1.86 7.14a2.16 2.16 0 0 0 -2.88.82 1.49 1.49 0 0 0 -.1 1.25c.3.82 1.23 1.19 2.06 1.51l.58.24a10.83 10.83 0 0 1 -1.6 2.47 9.27 9.27 0 0 1 -2.46 1.22 2.44 2.44 0 0 0 -1 .49l-.12.15a1.26 1.26 0 0 0 0 1.31c.51 1 2.38 1.38 3.37 1.54a1.63 1.63 0 0 0 .62 1.38c.5.34 1.1.23 1.92.08a5.41 5.41 0 0 1 1.59-.14 7 7 0 0 1 1.21.71 8.15 8.15 0 0 0 4.12 1.71 5.28 5.28 0 0 0 2.44-.69 1 1 0 1 0 -.92-1.77 3.47 3.47 0 0 1 -1.52.46 6.77 6.77 0 0 1 -3-1.39 6.64 6.64 0 0 0 -1.85-1 6.29 6.29 0 0 0 -2.41.11h-.21c-.14-1.19-.8-1.46-1.36-1.46a4 4 0 0 1 -.94-.16 5.73 5.73 0 0 0 2.12-1.34c1.79-2.18 2.44-3.75 1.94-4.69a1.8 1.8 0 0 0 -.8-.74 1.78 1.78 0 0 0 .91-.33 1 1 0 0 0 .39-.9c-.34-3.07.1-5.39 1.26-6.69a5 5 0 0 1 3.95-1.41 5 5 0 0 1 4 1.44c1.18 1.31 1.6 3.56 1.25 6.7a1 1 0 0 0 .39.9 1.78 1.78 0 0 0 .94.36 1.8 1.8 0 0 0 -.8.74c-.5.94.15 2.51 1.94 4.69a5.73 5.73 0 0 0 2.12 1.34 5 5 0 0 1 -.94.16c-.56 0-1.22.27-1.36 1.46h-.21a6.29 6.29 0 0 0 -2.41-.11 1 1 0 0 0 .46 1.94 5.41 5.41 0 0 1 1.59.14c.82.15 1.42.26 1.92-.08a1.63 1.63 0 0 0 .62-1.38c1-.16 2.86-.59 3.37-1.54a1.26 1.26 0 0 0 -.09-1.35z"/></g></svg>