<?xml version="1.0"?>
<svg xmlns="http://www.w3.org/2000/svg" viewBox="0 0 32 32" width="512" height="512"><g id="truck_delivery_fast_packing" data-name="truck, delivery, fast, packing"><path d="M13,10a1,1,0,0,0-1-1H4a1,1,0,0,0,0,2h8A1,1,0,0,0,13,10Z"/><path d="M6,13a1,1,0,0,0,0,2h4a1,1,0,0,0,0-2Z"/><path d="M28.707,17.293l-4-4A1,1,0,0,0,24,13H21V6a1,1,0,0,0-1-1H4A1,1,0,0,0,4,7H19V20a1,1,0,0,0,2,0V15h2.5859L27,18.4141V23h-.1843a2.982,2.982,0,0,0-5.6314,0H17.0078a1,1,0,0,0,0,2h4.1765a2.982,2.982,0,0,0,5.6314,0H28a1,1,0,0,0,1-1V18A.9993.9993,0,0,0,28.707,17.293ZM24,25a1,1,0,1,1,1-1A1.0009,1.0009,0,0,1,24,25Z"/><path d="M12,21a2.995,2.995,0,0,0-2.8157,2H9V18a1,1,0,0,0-1-1H6a1,1,0,0,0,0,2H7v5a1,1,0,0,0,1,1H9.1843A2.9947,2.9947,0,1,0,12,21Zm0,4a1,1,0,1,1,1-1A1.0009,1.0009,0,0,1,12,25Z"/></g></svg>
