<svg clip-rule="evenodd" fill-rule="evenodd" stroke-linejoin="round" stroke-miterlimit="1.414" viewBox="0 0 32 32" xmlns="http://www.w3.org/2000/svg" xmlns:serif="http://www.serif.com/"><path id="minus-delete-remove-circle" d="m0 0h32v32h-32z" fill="none"/><path d="m16.089 3.009c.307.043.386.101.523.208.494.387.485 1.267-.075 1.628-.106.069-.226.117-.351.142-.262.051-.664.022-1.039.05-4.883.372-9.31 4.266-10.045 9.399-.471 3.289.641 6.78 2.951 9.189 2.506 2.612 6.347 3.875 9.958 3.206 4.404-.816 8.144-4.544 8.857-9.111.537-3.435-.661-7.102-3.157-9.558-1.117-1.098-2.468-1.947-3.943-2.49l-.088-.037c-.257-.139-.284-.192-.365-.299-.342-.452-.198-1.196.315-1.479.484-.267 1.083.017 1.652.27 4.309 1.915 7.415 6.299 7.697 11.119.235 4.018-1.514 8.111-4.622 10.723-3.386 2.847-8.262 3.794-12.494 2.376-4.416-1.481-7.901-5.48-8.691-10.155-.824-4.868 1.361-10.134 5.551-12.964 2.125-1.436 4.674-2.218 7.271-2.222.031.002.063.003.095.005zm-6.097 12.001h12.006c.023 0 .046.001.068.002.252.026.324.065.452.143.554.338.628 1.269.057 1.672-.13.093-.283.153-.441.174-.06.009-.075.008-.136.01h-12.006c-.252-.009-.327-.044-.46-.113-.597-.309-.717-1.281-.116-1.705.13-.092.282-.152.44-.174.06-.008.076-.007.136-.009z" fill-rule="nonzero"/></svg>