<svg id="pils_medicine_treatment" data-name="pils, medicine, treatment" xmlns="http://www.w3.org/2000/svg" viewBox="0 0 32 32"><title>pils, medicine, treatment</title><path d="M12.5352,28.998A5.9806,5.9806,0,0,1,8.293,27.2432h0a6.0062,6.0062,0,1,1,4.2422,1.7548ZM9.707,25.8291A3.9975,3.9975,0,0,0,16.4072,24H8.6641A3.9792,3.9792,0,0,0,9.707,25.8291ZM8.6641,22h7.7431a3.9979,3.9979,0,0,0-7.7431,0ZM23,19a6,6,0,1,1,6-6A6.0066,6.0066,0,0,1,23,19Zm-3.4453-8.0312A3.9988,3.9988,0,0,0,25.03,16.4453Zm1.4141-1.4141,5.4755,5.4766a3.9987,3.9987,0,0,0-5.4755-5.4766ZM9,15a6,6,0,1,1,6-6A6.0066,6.0066,0,0,1,9,15ZM6.9688,12.4453A3.9988,3.9988,0,0,0,12.4453,6.97ZM9,5a3.9993,3.9993,0,0,0-3.4453,6.0313l5.4766-5.4756A3.9662,3.9662,0,0,0,9,5Z"/></svg>