<svg clip-rule="evenodd" fill-rule="evenodd" height="512" stroke-linejoin="round" stroke-miterlimit="2" viewBox="0 0 24 24" width="512" xmlns="http://www.w3.org/2000/svg"><g id="Icon"><circle cx="5.5" cy="4.5" r=".75"/><circle cx="8" cy="4.5" r=".75"/><circle cx="10.5" cy="4.5" r=".75"/><path d="m45.995-10.995c.411-.137.722-.477.822-.899.099-.421-.027-.865-.333-1.171-1.839-1.839-7.59-7.59-9.429-9.429-.306-.306-.75-.432-1.171-.333-.422.1-.762.41-.899.821l-4.714 14.144c-.15.449-.033.945.301 1.279.335.335.83.452 1.28.302zm-14.143 3.133 13.285-4.428-8.857-8.857z"/><path d="m22.75 5c0-2.071-1.679-3.75-3.75-3.75h-14c-2.071 0-3.75 1.679-3.75 3.75v14c0 2.071 1.679 3.75 3.75 3.75h14c2.071 0 3.75-1.679 3.75-3.75zm-1.5 0v14c0 1.243-1.007 2.25-2.25 2.25h-14c-1.243 0-2.25-1.007-2.25-2.25v-14c0-1.243 1.007-2.25 2.25-2.25h14c1.243 0 2.25 1.007 2.25 2.25z"/><path d="m22 6.25h-20c-.414 0-.75.336-.75.75s.336.75.75.75h20c.414 0 .75-.336.75-.75s-.336-.75-.75-.75z"/><path d="m7.5 19.5h9c.414 0 .75-.336.75-.75s-.336-.75-.75-.75h-9c-.414 0-.75.336-.75.75s.336.75.75.75z"/><path d="m9.25 16.75v-2.5c0-.414-.336-.75-.75-.75s-.75.336-.75.75v2.5c0 .414.336.75.75.75s.75-.336.75-.75z"/><path d="m12.75 16.75v-4.5c0-.414-.336-.75-.75-.75s-.75.336-.75.75v4.5c0 .414.336.75.75.75s.75-.336.75-.75z"/><path d="m16.25 16.75v-6.5c0-.414-.336-.75-.75-.75s-.75.336-.75.75v6.5c0 .414.336.75.75.75s.75-.336.75-.75z"/></g></svg>