<svg clip-rule="evenodd" fill-rule="evenodd" height="512" stroke-linejoin="round" stroke-miterlimit="2" viewBox="0 0 134 134" width="512" xmlns="http://www.w3.org/2000/svg"><path d="m62.5 87.5h-45.833c-2.302 0-4.167-1.865-4.167-4.167v-58.333c0-2.301 1.865-4.167 4.167-4.167h100c2.301 0 4.166 1.866 4.166 4.167v58.333c0 2.302-1.865 4.167-4.166 4.167h-45.834v9.247l30.178 7.544c2.231.558 3.589 2.822 3.031 5.053-.557 2.231-2.822 3.589-5.053 3.032l-32.322-8.081-32.323 8.081c-2.231.557-4.495-.801-5.053-3.032s.801-4.495 3.032-5.053l30.177-7.544zm-41.667-58.333v50h91.667v-50z"/></svg>