<svg clip-rule="evenodd" fill-rule="evenodd" stroke-linejoin="round" stroke-miterlimit="2" viewBox="0 0 32 32" xmlns="http://www.w3.org/2000/svg" xmlns:serif="http://www.serif.com/"><path id="microscope-science-lab-laboratory" d="m0 0h32v32h-32z" fill="none"/><path d="m13.166 9.002h-3.175-1v8.004h6.003v-1s.258-1.05 1.063-.999c.508.032.919.399.937.999v2.001c-.006.193-.021.225-.049.309-.13.402-.434.675-.951.691h-8.004c-.205-.006-.261-.028-.368-.07-.373-.148-.617-.432-.632-.93v-10.005c.006-.193.021-.225.049-.309.13-.402.435-.675.951-.692h1.001v-3.001c.01-.543.418-.989 1-1 1.347 0 2.695-.026 4.041 0 .529.032.95.437.962 1v3.172c.323-.113.672-.173 1.039-.17 1.208.023 2.285.906 2.725 2.031 4.236.328 8.223 3.27 9.642 7.38.398 1.153.596 2.375.6 3.591v8.007c-.004.086-.02.169-.047.247-.034.173-.119.339-.263.477-.176.168-.3.258-.69.277h-24.012c-.645-.031-.793-.33-.91-.585-.274-.601.206-1.383.91-1.416h23.011c.002-2.355.007-4.709 0-7.064-.042-4.396-3.63-8.481-8.189-8.907-.032.089-.069.177-.111.264-.656 1.36-2.436 2.052-3.84 1.478-1.403-.574-2.186-2.324-1.693-3.78zm7.273 3.304c.4.041.089-.131.818.395 2.3 1.659 3.73 4.44 3.741 7.304v4.004c-.028.868-1.43 1.414-1.902.434-.061-.127-.091-.197-.099-.434 0-2.597.303-5.302-.896-7.432-.551-.979-1.345-1.819-2.283-2.437 0 0-.88-1.105.01-1.677.108-.07.23-.118.356-.142.084-.016.17-.018.255-.015zm-6.446 10.703h-4.002c-.882-.018-1.376-1.415-.459-1.889.141-.073.298-.109.459-.112 1.347 0 2.695-.026 4.042.001.874.052 1.317 1.424.42 1.888-.141.073-.298.109-.46.112zm1.988-14.007c-.862.017-1.412 1.484-.376 1.923.734.311 1.736-.587 1.257-1.419-.179-.311-.502-.506-.881-.504zm-4.989-4.001v2h2.001v-2z"/></svg>