<svg clip-rule="evenodd" fill-rule="evenodd" height="512" stroke-linejoin="round" stroke-miterlimit="2" viewBox="0 0 24 24" width="512" xmlns="http://www.w3.org/2000/svg"><g id="Icon"><path d="m22.75 20.672v-2c0-.464-.184-.909-.513-1.237-.328-.328-.773-.513-1.237-.513-3.414 0-14.586 0-18 0-.464 0-.909.185-1.237.513-.329.328-.513.773-.513 1.237v2c0 .465.184.91.513 1.238.328.328.773.512 1.237.512h18c.464 0 .909-.184 1.237-.512.329-.328.513-.773.513-1.238zm-1.5-2v2c0 .067-.026.13-.073.177s-.111.073-.177.073h-18c-.066 0-.13-.026-.177-.073s-.073-.11-.073-.176c0-.001 0-2.001 0-2.001 0-.066.026-.129.073-.176s.111-.074.177-.074h18c.066 0 .13.027.177.074s.073.11.073.176z"/><path d="m6.696 1.64c-.367-.16-.794-.004-.972.354 0 0-2.59 5.26-.885 9.946 1.179 3.239 4.098 5.378 5.797 6.379.193.113.427.135.637.058l1.703-.619c.21-.077.375-.244.45-.455.658-1.858 1.519-5.373.34-8.613-1.705-4.685-7.07-7.05-7.07-7.05zm.071 1.709c1.367.736 4.436 2.685 5.59 5.854.974 2.677.331 5.564-.231 7.267 0 .001-1.029.375-1.029.375-1.526-.944-3.874-2.742-4.848-5.419-1.154-3.169-.055-6.635.518-8.077z"/><path d="m16.198 16.222c1.188-1.103 2.326-2.534 2.963-4.282 1.705-4.686-.885-9.946-.885-9.946-.178-.358-.605-.514-.972-.354 0 0-2.292.998-4.346 2.995-.297.288-.304.763-.015 1.06.288.297.764.304 1.06.015 1.193-1.159 2.474-1.946 3.231-2.357.574 1.443 1.67 4.906.517 8.073-.55 1.513-1.546 2.743-2.574 3.697-.303.281-.321.756-.039 1.06.281.303.756.321 1.06.039z"/><path d="m12.573 17.106-2.395-6.578c-.141-.389-.572-.59-.961-.448s-.59.572-.448.961l2.394 6.578c.142.389.572.59.961.448.389-.141.59-.572.449-.961z"/><path d="m11.856 7.683-1.024 1.57c-.227.347-.129.812.218 1.038s.812.128 1.038-.218l1.025-1.57c.226-.347.128-.812-.219-1.038-.346-.227-.811-.129-1.038.218z"/><path d="m5.133 8.214 1.794.545c.396.12.815-.104.936-.501.12-.396-.104-.815-.501-.935l-1.794-.544c-.396-.12-.815.104-.935.5s.104.815.5.935z"/><path d="m18.432 6.779-1.794.544c-.397.12-.621.539-.501.935.121.397.54.621.936.501l1.794-.545c.396-.12.62-.539.5-.935s-.539-.62-.935-.5z"/></g></svg>