<svg clip-rule="evenodd" fill-rule="evenodd" height="512" stroke-linejoin="round" stroke-miterlimit="2" viewBox="0 0 24 24" width="512" xmlns="http://www.w3.org/2000/svg"><g id="Icon"><path d="m14 8.25h2c.414 0 .75-.336.75-.75s-.336-.75-.75-.75h-2c-.414 0-.75.336-.75.75s.336.75.75.75z"/><path d="m14 11.25h4.5c.414 0 .75-.336.75-.75s-.336-.75-.75-.75h-4.5c-.414 0-.75.336-.75.75s.336.75.75.75z"/><path d="m22.75 11.5v-5.5c0-1.795-1.455-3.25-3.25-3.25h-15c-1.795 0-3.25 1.455-3.25 3.25v9c0 1.795 1.455 3.25 3.25 3.25h7.5c.414 0 .75-.336.75-.75s-.336-.75-.75-.75h-7.5c-.967 0-1.75-.784-1.75-1.75 0-2.542 0-6.458 0-9 0-.966.783-1.75 1.75-1.75h15c.967 0 1.75.783 1.75 1.75v5.5c0 .414.336.75.75.75s.75-.336.75-.75z"/><path d="m8.272 9.33c-1.944 0-3.522 1.579-3.522 3.522 0 .457.212.864.634 1.184.589.446 1.733.714 2.888.714s2.299-.268 2.889-.714c.421-.32.633-.727.633-1.184 0-1.943-1.578-3.522-3.522-3.522zm2.022 3.473c-.023.02-.064.056-.095.075-.081.05-.175.093-.28.131-.449.165-1.048.241-1.647.241-.598 0-1.198-.076-1.647-.241-.104-.038-.199-.081-.279-.131-.032-.019-.073-.055-.095-.075.026-1.093.922-1.973 2.021-1.973 1.1 0 1.996.88 2.022 1.973z"/><path d="m8.272 6.25c-1.264 0-2.29 1.026-2.29 2.29s1.026 2.29 2.29 2.29 2.29-1.026 2.29-2.29-1.026-2.29-2.29-2.29zm0 1.5c.436 0 .79.354.79.79s-.354.79-.79.79-.79-.354-.79-.79.354-.79.79-.79z"/><path d="m18 12.75c-2.07 0-3.75 1.68-3.75 3.75s1.68 3.75 3.75 3.75 3.75-1.68 3.75-3.75-1.68-3.75-3.75-3.75zm0 1.5c1.242 0 2.25 1.008 2.25 2.25s-1.008 2.25-2.25 2.25-2.25-1.008-2.25-2.25 1.008-2.25 2.25-2.25z"/><path d="m19.97 19.53 1.5 1.5c.292.293.768.293 1.06 0 .293-.292.293-.768 0-1.06l-1.5-1.5c-.292-.293-.768-.293-1.06 0-.293.292-.293.768 0 1.06z"/></g></svg>