<svg clip-rule="evenodd" fill-rule="evenodd" height="512" stroke-linejoin="round" stroke-miterlimit="2" viewBox="0 0 24 24" width="512" xmlns="http://www.w3.org/2000/svg"><g id="Icon"><path d="m20 1.25h-16c-.966 0-1.75.784-1.75 1.75v3c0 .414.336.75.75.75h1c.186 0 .365-.069.503-.194l.891-.806h3.752c.138 0 .25.112.25.25v12.659s-.709.619-.709.619c-.816.147-1.437.861-1.437 1.722 0 .968.784 1.75 1.75 1.75h6c.966 0 1.75-.782 1.75-1.75 0-.861-.621-1.575-1.438-1.722.001 0-.708-.619-.708-.619v-12.659c0-.138.112-.25.25-.25h3.752s.891.806.891.806c.138.125.317.194.503.194h1c.414 0 .75-.336.75-.75v-3c0-.966-.784-1.75-1.75-1.75zm.25 3.965-.852-.771c-.138-.125-.317-.194-.503-.194h-4.041c-.966 0-1.75.784-1.75 1.75v13c0 .217.094.423.257.565l1.146 1c.137.119.312.185.493.185.138 0 .25.112.25.25s-.112.25-.25.25h-6c-.138 0-.25-.112-.25-.25s.112-.25.25-.25c.181 0 .356-.066.493-.185l1.146-1c.163-.142.257-.348.257-.565v-13c0-.966-.784-1.75-1.75-1.75h-4.041c-.186 0-.365.069-.503.194l-.852.771v-2.215c0-.138.112-.25.25-.25h16c.138 0 .25.112.25.25z"/></g></svg>