<svg clip-rule="evenodd" fill-rule="evenodd" height="512" stroke-linejoin="round" stroke-miterlimit="2" viewBox="0 0 24 24" width="512" xmlns="http://www.w3.org/2000/svg"><g id="Icon"><path d="m20.599 6.123c-.094-.664-.396-1.304-.907-1.814-.51-.511-1.15-.813-1.815-.908-.409-.058-.789.228-.848.638-.058.409.228.789.637.848.354.05.694.211.966.482.271.272.432.612.482.965.058.41.438.696.848.637.41-.058.695-.438.637-.848z"/><path d="m22.743 5.37c-.143-1.003-.6-1.971-1.371-2.742s-1.739-1.228-2.742-1.371c-.41-.058-.79.228-.848.638-.059.409.227.789.637.848.692.098 1.36.413 1.892.946.533.532.848 1.2.946 1.892.059.41.439.696.848.637.41-.058.696-.438.638-.848z"/><path d="m3.197 20.803c2.597 2.596 6.806 2.596 9.403 0 2.625-2.625 5.845-5.846 7.647-7.647 1.061-1.061 1.061-2.781 0-3.841l-5.562-5.562c-1.06-1.061-2.78-1.061-3.841 0l-7.647 7.647c-2.596 2.597-2.596 6.806 0 9.403zm1.061-1.061c-2.011-2.011-2.011-5.271 0-7.281 0 0 7.647-7.647 7.647-7.647.475-.475 1.245-.475 1.72 0 0 0 5.561 5.561 5.561 5.561.475.475.475 1.245 0 1.72 0 0-7.647 7.647-7.647 7.647-2.01 2.011-5.27 2.011-7.281 0z"/><path d="m17.466 10.705-.695-.695c-.293-.293-.768-.293-1.061 0-.292.292-.292.768 0 1.06l.695.696c.293.292.768.292 1.061 0 .293-.293.293-.768 0-1.061z"/><path d="m15.033 13.138-.695-.695c-.293-.293-.768-.293-1.061 0-.292.292-.292.768 0 1.06l.695.696c.293.292.768.292 1.061 0 .293-.293.293-.768 0-1.061z"/><path d="m12.948 15.223-.696-.695c-.292-.292-.768-.292-1.06 0-.293.293-.293.768 0 1.061l.695.695c.293.293.768.293 1.061 0 .292-.293.292-.768 0-1.061z"/><path d="m13.99 7.229-.695-.695c-.293-.293-.768-.293-1.061 0-.292.293-.292.768 0 1.061l.696.695c.292.292.768.292 1.06 0 .293-.293.293-.768 0-1.061z"/><path d="m11.557 9.662-.695-.695c-.293-.293-.768-.293-1.061 0-.292.293-.292.768 0 1.061l.696.695c.292.292.768.292 1.06 0 .293-.293.293-.768 0-1.061z"/><path d="m9.472 11.748-.695-.696c-.293-.292-.768-.292-1.061 0-.293.293-.293.768 0 1.061l.695.695c.293.293.768.293 1.061 0 .292-.292.292-.768 0-1.06z"/><path d="m8.777 15.223c-1.06-1.06-2.782-1.06-3.842 0s-1.06 2.782 0 3.842 2.782 1.06 3.842 0 1.06-2.782 0-3.842zm-1.061 1.061c.475.475.475 1.245 0 1.72s-1.245.475-1.72 0-.475-1.245 0-1.72 1.245-.475 1.72 0z"/></g></svg>