<svg clip-rule="evenodd" fill-rule="evenodd" height="512" stroke-linejoin="round" stroke-miterlimit="2" viewBox="0 0 24 24" width="512" xmlns="http://www.w3.org/2000/svg"><g id="Icon"><path d="m11.51 11.868c.549-.961 1.74-3.045 2.286-4 .307-.538.307-1.199 0-1.737-.546-.955-1.737-3.039-2.286-4-.311-.545-.891-.881-1.519-.881h-4.554c-.628 0-1.208.336-1.519.881-.549.961-1.74 3.045-2.286 4-.307.538-.307 1.199 0 1.737.546.955 1.737 3.039 2.286 4 .311.545.891.882 1.519.882h4.554c.628 0 1.208-.337 1.519-.882zm.983-4.744-2.285 4c-.045.078-.128.126-.217.126h-4.554c-.089 0-.172-.048-.217-.126l-2.285-4c-.044-.077-.044-.172 0-.248l2.285-4c.045-.078.128-.126.217-.126h4.554c.089 0 .172.048.217.126l2.285 4c.044.076.044.171 0 .248z"/><path d="m11.51 21.868c.549-.961 1.74-3.045 2.286-4 .307-.538.307-1.199 0-1.737-.546-.955-1.737-3.039-2.286-4-.311-.545-.891-.881-1.519-.881h-4.554c-.628 0-1.208.336-1.519.881-.549.961-1.74 3.045-2.286 4-.307.538-.307 1.199 0 1.737.546.955 1.737 3.039 2.286 4 .311.545.891.882 1.519.882h4.554c.628 0 1.208-.337 1.519-.882zm.983-4.744-2.285 4c-.045.078-.128.126-.217.126h-4.554c-.089 0-.172-.048-.217-.126l-2.285-4c-.044-.077-.044-.172 0-.248l2.285-4c.045-.078.128-.126.217-.126h4.554c.089 0 .172.048.217.126l2.285 4c.044.076.044.171 0 .248z"/><path d="m20.082 16.868c.549-.961 1.74-3.045 2.286-4 .307-.538.307-1.199 0-1.737-.546-.955-1.737-3.039-2.286-4-.312-.545-.892-.881-1.52-.881h-4.553c-.628 0-1.208.336-1.519.881l-2.287 4c-.307.538-.307 1.199 0 1.737l2.287 4c.311.545.891.882 1.519.882h4.553c.628 0 1.208-.337 1.52-.882zm.983-4.744-2.285 4c-.045.078-.128.126-.217.126-.001 0-4.554 0-4.554 0-.09 0-.172-.048-.217-.126l-2.286-4c-.044-.077-.044-.172 0-.248l2.286-4c.045-.078.127-.126.217-.126h4.553c.09 0 .173.048.218.126l2.285 4c.044.076.044.171 0 .248z"/></g></svg>