<svg clip-rule="evenodd" fill-rule="evenodd" height="512" stroke-linejoin="round" stroke-miterlimit="2" viewBox="0 0 24 24" width="512" xmlns="http://www.w3.org/2000/svg"><g id="Icon"><path d="m1.25 9.25v10.5c0 .464.184.909.513 1.237.328.329.773.513 1.237.513h18c.464 0 .909-.184 1.237-.513.329-.328.513-.773.513-1.237 0-2.798 0-10.5 0-10.5 0-.414-.336-.75-.75-.75s-.75.336-.75.75v10.5c0 .066-.026.13-.073.177s-.111.073-.177.073h-18c-.066 0-.13-.026-.177-.073s-.073-.111-.073-.177v-10.5c0-.414-.336-.75-.75-.75s-.75.336-.75.75z"/><path d="m22.75 9.25v-1.5c0-.967-.784-1.75-1.75-1.75-3.414 0-14.586 0-18 0-.966 0-1.75.783-1.75 1.75v1.5c0 2.071 1.679 3.75 3.75 3.75h14c2.071 0 3.75-1.679 3.75-3.75zm-1.5-1.5v1.5c0 1.243-1.007 2.25-2.25 2.25-3.776 0-10.224 0-14 0-1.243 0-2.25-1.007-2.25-2.25v-1.5c0-.138.112-.25.25-.25h18c.138 0 .25.112.25.25z"/><path d="m18.25 5.25c0-.729-.29-1.429-.805-1.945-.516-.515-1.216-.805-1.945-.805-1.986 0-5.014 0-7 0-.729 0-1.429.29-1.945.805-.515.516-.805 1.216-.805 1.945v1.5c0 .414.336.75.75.75h11c.414 0 .75-.336.75-.75zm-1.5 0v.75h-9.5v-.75c0-.332.132-.649.366-.884.235-.234.552-.366.884-.366h7c.332 0 .649.132.884.366.234.235.366.552.366.884z"/><path d="m16.25 11.25v2.5c0 .414.336.75.75.75s.75-.336.75-.75v-2.5c0-.414-.336-.75-.75-.75s-.75.336-.75.75z"/><path d="m6.25 11.25v2.5c0 .414.336.75.75.75s.75-.336.75-.75v-2.5c0-.414-.336-.75-.75-.75s-.75.336-.75.75z"/></g></svg>