<svg clip-rule="evenodd" fill-rule="evenodd" height="512" stroke-linejoin="round" stroke-miterlimit="2" viewBox="0 0 24 24" width="512" xmlns="http://www.w3.org/2000/svg"><g id="Icon"><path d="m2.75 6.5v-2.5c0-.332.132-.649.366-.884.235-.234.552-.366.884-.366h2.5c.414 0 .75-.336.75-.75s-.336-.75-.75-.75h-2.5c-.729 0-1.429.29-1.945.805-.515.516-.805 1.216-.805 1.945v2.5c0 .414.336.75.75.75s.75-.336.75-.75z"/><path d="m21.25 17.5v2.5c0 .332-.132.649-.366.884-.235.234-.552.366-.884.366h-2.5c-.414 0-.75.336-.75.75s.336.75.75.75h2.5c.729 0 1.429-.29 1.945-.805.515-.516.805-1.216.805-1.945v-2.5c0-.414-.336-.75-.75-.75s-.75.336-.75.75z"/><path d="m12.774 13.813c.306.666.476 1.407.476 2.187 0 2.898-2.352 5.25-5.25 5.25s-5.25-2.352-5.25-5.25c0-2.599 1.893-4.76 4.374-5.177.409-.069.684-.456.616-.864-.069-.408-.456-.684-.864-.616-3.191.537-5.626 3.315-5.626 6.657 0 3.725 3.025 6.75 6.75 6.75s6.75-3.025 6.75-6.75c0-1.004-.22-1.957-.613-2.813-.173-.376-.619-.541-.995-.369-.376.173-.541.619-.368.995z"/><path d="m13.813 12.774c-1.807-.831-3.063-2.657-3.063-4.774 0-2.898 2.352-5.25 5.25-5.25s5.25 2.352 5.25 5.25c0 2.599-1.893 4.76-4.374 5.177-.409.069-.684.456-.616.864.069.408.456.684.864.616 3.191-.537 5.626-3.315 5.626-6.657 0-3.725-3.025-6.75-6.75-6.75s-6.75 3.025-6.75 6.75c0 2.722 1.614 5.069 3.937 6.137.376.172.822.007.995-.369.172-.376.007-.822-.369-.994z"/><path d="m4.252 20.425c.953-.972 2.281-1.575 3.748-1.575s2.795.603 3.748 1.575c.29.296.765.3 1.06.01.296-.289.301-.765.011-1.06-1.226-1.25-2.932-2.025-4.819-2.025s-3.593.775-4.819 2.025c-.29.295-.285.771.011 1.06.295.29.77.286 1.06-.01z"/><path d="m12.252 12.425c.953-.972 2.281-1.575 3.748-1.575s2.795.603 3.748 1.575c.29.296.765.3 1.06.01.296-.289.301-.765.011-1.06-1.226-1.25-2.932-2.025-4.819-2.025s-3.593.775-4.819 2.025c-.29.295-.285.771.011 1.06.295.29.77.286 1.06-.01z"/><path d="m8 12.5c-1.38 0-2.5 1.12-2.5 2.5s1.12 2.5 2.5 2.5 2.5-1.12 2.5-2.5-1.12-2.5-2.5-2.5zm0 1.5c.552 0 1 .448 1 1s-.448 1-1 1-1-.448-1-1 .448-1 1-1z"/><path d="m16 4.5c-1.38 0-2.5 1.12-2.5 2.5s1.12 2.5 2.5 2.5 2.5-1.12 2.5-2.5-1.12-2.5-2.5-2.5zm0 1.5c.552 0 1 .448 1 1s-.448 1-1 1-1-.448-1-1 .448-1 1-1z"/></g></svg>