<svg clip-rule="evenodd" fill-rule="evenodd" height="512" stroke-linejoin="round" stroke-miterlimit="2" viewBox="0 0 24 24" width="512" xmlns="http://www.w3.org/2000/svg"><g id="Icon"><path d="m5.85 20.935.895-7.157c.044-.355-.066-.713-.304-.982-.237-.269-.578-.423-.937-.423h-3.012c-.69 0-1.25.56-1.25 1.25v7.157c0 .69.56 1.25 1.25 1.25h2.118c.63 0 1.162-.469 1.24-1.095zm-3.108-7.062v6.657h1.647l.832-6.657z"/><path d="m6.106 14.374 1.869-.304c.673-.109 1.364-.003 1.974.302l1.511.755c.31.155.636.276.972.36l2.577.644c.298.075.507.343.507.65v.002c0 .38-.308.688-.687.688-.001 0-.972 0-.972 0-.349 0-.696-.056-1.028-.167 0 0-2.443-.814-2.443-.814-.392-.131-.818.082-.948.475-.131.392.081.817.474.948 0 0 1.55.517 2.443.815.484.161.991.243 1.502.243h.971c1.209 0 2.188-.979 2.188-2.188v-.002c0-.996-.677-1.864-1.643-2.105-.843-.211-1.972-.493-2.577-.644-.23-.058-.453-.14-.665-.246l-1.511-.756c-.892-.446-1.901-.6-2.885-.44l-1.869.303c-.408.066-.686.452-.62.86.066.409.452.687.86.621z"/><path d="m21.057 18.466-5.8 2.389c-1.037.427-2.184.51-3.272.238-2.411-.602-6.242-1.56-6.242-1.56-.402-.101-.809.144-.91.545-.1.402.145.81.546.91 0 0 3.831.958 6.242 1.56 1.399.35 2.873.243 4.207-.306 1.915-.789 4.828-1.988 6.148-2.532.386-.159.668-.501.75-.911.082-.409-.047-.833-.342-1.129l-.242-.241c-.975-.976-2.408-1.337-3.729-.941-1.48.445-3.382 1.015-3.382 1.015-.396.119-.621.537-.502.934.118.396.537.622.933.503 0 0 1.902-.571 3.382-1.015.782-.234 1.629-.027 2.213.541z"/><path d="m16.5 1.25c-3.449 0-6.25 2.801-6.25 6.25s2.801 6.25 6.25 6.25 6.25-2.801 6.25-6.25-2.801-6.25-6.25-6.25zm0 1.5c2.622 0 4.75 2.128 4.75 4.75s-2.128 4.75-4.75 4.75-4.75-2.128-4.75-4.75 2.128-4.75 4.75-4.75z"/><path d="m15.75 10c0 .199-.079.39-.22.53-.14.141-.331.22-.53.22h-2c-.414 0-.75.336-.75.75s.336.75.75.75h2c.597 0 1.169-.237 1.591-.659s.659-.994.659-1.591-.237-1.169-.659-1.591-.994-.659-1.591-.659h-3.5c-.414 0-.75.336-.75.75s.336.75.75.75h3.5c.199 0 .39.079.53.22.141.14.22.331.22.53z"/><path d="m21 3.75h-4.5c-.967 0-1.75.784-1.75 1.75s.783 1.75 1.75 1.75h1c.138 0 .25.112.25.25v.5c0 .966.783 1.75 1.75 1.75h2c.414 0 .75-.336.75-.75s-.336-.75-.75-.75h-2c-.138 0-.25-.112-.25-.25v-.5c0-.966-.783-1.75-1.75-1.75h-1c-.138 0-.25-.112-.25-.25s.112-.25.25-.25h4.5c.414 0 .75-.336.75-.75s-.336-.75-.75-.75z"/></g></svg>