<svg clip-rule="evenodd" fill-rule="evenodd" height="512" stroke-linejoin="round" stroke-miterlimit="2" viewBox="0 0 24 24" width="512" xmlns="http://www.w3.org/2000/svg"><g id="Icon"><path d="m22 5.75c.337 0 .633-.225.723-.55s-.048-.67-.337-.843l-5-3c-.238-.143-.534-.143-.772 0l-5 3c-.289.173-.427.518-.337.843s.386.55.723.55h.25v4.75c0 .69.56 1.25 1.25 1.25h7c.69 0 1.25-.56 1.25-1.25v-4.75zm-8.268-.914 3.268-1.961 3.268 1.961c-.012.052-.018.108-.018.164v5.25h-6.5v-5.25c0-.056-.006-.112-.018-.164z"/><path d="m11.75 14.5c0-.464-.184-.909-.513-1.237-.328-.329-.773-.513-1.237-.513-1.732 0-5.268 0-7 0-.464 0-.909.184-1.237.513-.329.328-.513.773-.513 1.237v6.5c0 .464.184.909.513 1.237.328.329.773.513 1.237.513h7c.464 0 .909-.184 1.237-.513.329-.328.513-.773.513-1.237zm-1.5 0v6.5c0 .066-.026.13-.073.177s-.111.073-.177.073h-7c-.066 0-.13-.026-.177-.073s-.073-.111-.073-.177v-6.5c0-.066.026-.13.073-.177s.111-.073.177-.073h7c.066 0 .13.026.177.073s.073.111.073.177z"/><path d="m4.25 13.5v3c0 .414.336.75.75.75h3c.414 0 .75-.336.75-.75v-3c0-.414-.336-.75-.75-.75s-.75.336-.75.75v2.25h-1.5v-2.25c0-.414-.336-.75-.75-.75s-.75.336-.75.75z"/><path d="m14 22.75h6c1.519 0 2.75-1.231 2.75-2.75v-6.5c0-.414-.336-.75-.75-.75s-.75.336-.75.75v6.5c0 .69-.56 1.25-1.25 1.25h-6c-.414 0-.75.336-.75.75s.336.75.75.75z"/><path d="m12 1.25s-5.082 0-8 0c-.729 0-1.429.29-1.945.805-.515.516-.805 1.216-.805 1.945v6c0 .414.336.75.75.75s.75-.336.75-.75v-6c0-.332.132-.649.366-.884.235-.234.552-.366.884-.366h8c.414 0 .75-.336.75-.75s-.336-.75-.75-.75z"/></g></svg>