<svg clip-rule="evenodd" fill-rule="evenodd" height="512" stroke-linejoin="round" stroke-miterlimit="2" viewBox="0 0 24 24" width="512" xmlns="http://www.w3.org/2000/svg"><g id="Icon"><path d="m17.973 7.916c.009.017.027.056.027.083 0 .028-.018.067-.027.083h-1.723c-.414 0-.75.336-.75.75s.336.75.75.75h1.75c.805 0 1.5-.688 1.5-1.583s-.695-1.583-1.5-1.583h-.973c-.008-.016-.027-.056-.027-.084 0-.027.018-.066.027-.083h1.723c.414 0 .75-.336.75-.75s-.336-.75-.75-.75h-1.75c-.805 0-1.5.688-1.5 1.583s.695 1.584 1.5 1.584z"/><path d="m16.75 4.666v.833c0 .414.336.75.75.75s.75-.336.75-.75v-.833c0-.414-.336-.75-.75-.75s-.75.336-.75.75z"/><path d="m16.75 8.832v.833c0 .414.336.75.75.75s.75-.336.75-.75v-.833c0-.414-.336-.75-.75-.75s-.75.336-.75.75z"/><path d="m22.75 7.166c0-2.898-2.352-5.25-5.25-5.25s-5.25 2.352-5.25 5.25c0 2.897 2.352 5.25 5.25 5.25s5.25-2.353 5.25-5.25zm-1.5 0c0 2.07-1.68 3.75-3.75 3.75s-3.75-1.68-3.75-3.75 1.68-3.75 3.75-3.75 3.75 1.68 3.75 3.75z"/><path d="m7.383 12.979c.099-.321-.027-.669-.309-.852-1.731-1.121-3.462-1.388-5.193-1.111-.363.059-.631.372-.631.741v8c0 .414.336.75.75.75h2.5c.329 0 .619-.214.716-.528zm-1.608.121-1.828 5.907h-1.197v-6.58c1.008-.06 2.017.133 3.025.673z"/><path d="m6.492 13.986s4.393 1.054 6.8 1.632c.562.135.958.638.958 1.216 0 .413.336.75.75.75s.75-.337.75-.75c0-1.272-.872-2.378-2.108-2.675-2.407-.577-6.8-1.632-6.8-1.632-.403-.096-.808.152-.905.555-.096.402.152.807.555.904z"/><path d="m20.605 17.994-5.741 2.233c-1.204.468-2.537.476-3.746.023 0 0-5.855-2.195-5.855-2.195-.387-.146-.82.051-.965.438-.146.388.051.821.439.966 0 0 3.484 1.307 5.854 2.195 1.554.583 3.269.573 4.817-.029 2.661-1.035 6.864-2.669 6.864-2.669.236-.092.41-.297.462-.545s-.024-.505-.204-.685l-.494-.493c-1.043-1.044-2.602-1.378-3.981-.854-1.55.568-4.212 1.066-7.873.15-.402-.1-.809.144-.91.546-.1.401.144.809.546.909 4.073 1.019 7.032.435 8.755-.198.004-.001.007-.002.01-.003.678-.259 1.428-.172 2.022.211z"/></g></svg>