<svg clip-rule="evenodd" fill-rule="evenodd" height="512" stroke-linejoin="round" stroke-miterlimit="2" viewBox="0 0 24 24" width="512" xmlns="http://www.w3.org/2000/svg"><g id="Icon"><path d="m21 17.25c.966 0 1.75-.782 1.75-1.75v-11c0-.966-.784-1.75-1.75-1.75h-18c-.966 0-1.75.784-1.75 1.75v11c0 .968.784 1.75 1.75 1.75zm0-1.5h-18c-.138 0-.25-.112-.25-.25v-11c0-.138.112-.25.25-.25h18c.138 0 .25.112.25.25v11c0 .138-.112.25-.25.25z"/><path d="m11.25 16.5v2c0 .414.336.75.75.75s.75-.336.75-.75v-2c0-.414-.336-.75-.75-.75s-.75.336-.75.75z"/><path d="m16.335 19.829-4-2c-.211-.105-.459-.105-.67 0l-4 2c-.371.185-.521.636-.336 1.006.185.371.636.521 1.006.336l3.665-1.832s3.665 1.832 3.665 1.832c.37.185.821.035 1.006-.336.185-.37.035-.821-.336-1.006z"/></g></svg>