<svg clip-rule="evenodd" fill-rule="evenodd" height="512" stroke-linejoin="round" stroke-miterlimit="2" viewBox="0 0 24 24" width="512" xmlns="http://www.w3.org/2000/svg"><g id="Icon"><path d="m20 14.75c.414 0 .75-.336.75-.75v-9.952c0-1.002-.794-1.798-1.75-1.798h-14c-.956 0-1.75.796-1.75 1.798v9.952c0 .414.336.75.75.75zm-.75-1.5h-14.5v-9.202c0-.156.102-.298.25-.298h14c.148 0 .25.142.25.298z"/><path d="m20.966 21.75c1.199 0 2.042-1.125 1.712-2.237-.003-.01-.006-.02-.009-.03l-1.959-5.726c-.104-.303-.389-.507-.71-.507h-16c-.321 0-.606.204-.71.507l-1.959 5.726c-.003.01-.007.02-.009.03-.33 1.112.515 2.237 1.712 2.237zm0-1.5h-17.932c-.17 0-.313-.137-.279-.294.002-.007 1.781-5.206 1.781-5.206h14.928s1.779 5.199 1.779 5.199c.039.16-.104.301-.277.301z"/><path d="m9 18.75h6c.414 0 .75-.336.75-.75s-.336-.75-.75-.75h-6c-.414 0-.75.336-.75.75s.336.75.75.75z"/></g></svg>