<svg clip-rule="evenodd" fill-rule="evenodd" height="512" stroke-linejoin="round" stroke-miterlimit="2" viewBox="0 0 24 24" width="512" xmlns="http://www.w3.org/2000/svg"><g id="Icon"><path d="m17.75 9c0-1.26-.5-2.468-1.391-3.359s-2.099-1.391-3.359-1.391c-.659 0-1.341 0-2 0-1.26 0-2.468.5-3.359 1.391s-1.391 2.099-1.391 3.359v6c0 1.525.606 2.988 1.684 4.066s2.541 1.684 4.066 1.684c1.525 0 2.988-.606 4.066-1.684s1.684-2.541 1.684-4.066c0-1.951 0-4.157 0-6zm-5.75 10.25c-1.127 0-2.208-.448-3.005-1.245s-1.245-1.878-1.245-3.005c0-1.951 0-4.157 0-6 0-.862.342-1.689.952-2.298.609-.61 1.436-.952 2.298-.952h2c.862 0 1.689.342 2.298.952.61.609.952 1.436.952 2.298v6c0 1.127-.448 2.208-1.245 3.005s-1.878 1.245-3.005 1.245z"/><path d="m9.461 5.749.039.001.032-.004c.144-.021.718-.143.718-.759v-.987c0-.332.132-.649.366-.884.235-.234.552-.366.884-.366h1c.332 0 .649.132.884.366.234.235.366.552.366.884v.987.006.007c0 .053.006.105.016.155.02.101.058.186.106.255.134.205.366.34.628.34 0 0 .75-.059.75-.763v-.987c0-.729-.29-1.429-.805-1.945-.516-.515-1.216-.805-1.945-.805-.329 0-.671 0-1 0-.729 0-1.429.29-1.945.805-.515.516-.805 1.216-.805 1.945v.987.013c0 .401.315.729.711.749z"/><path d="m17 8.25h-10c-.414 0-.75.336-.75.75s.336.75.75.75h10c.414 0 .75-.336.75-.75s-.336-.75-.75-.75z"/><path d="m12.75 20v-11c0-.414-.336-.75-.75-.75s-.75.336-.75.75v11c0 .414.336.75.75.75s.75-.336.75-.75z"/><path d="m17.469 8.586s1.426-1.142 2.124-1.7c.415-.332.657-.835.657-1.367v-1.105c0-.066.026-.13.073-.177 0 0 .707-.707.707-.707.293-.292.293-.768 0-1.06-.292-.293-.768-.293-1.06 0l-.707.707c-.329.328-.513.773-.513 1.237v1.105c0 .076-.035.148-.094.196l-2.125 1.699c-.323.259-.375.731-.117 1.055.259.323.731.375 1.055.117z"/><path d="m7.469 7.414-2.125-1.699c-.059-.048-.094-.12-.094-.196v-1.105c0-.464-.184-.909-.513-1.237l-.707-.707c-.292-.293-.768-.293-1.06 0-.293.292-.293.768 0 1.06l.707.707c.047.047.073.111.073.177v1.105c0 .532.242 1.035.657 1.367.698.558 2.124 1.7 2.124 1.7.324.258.796.206 1.055-.117.258-.324.206-.796-.117-1.055z"/><path d="m17 12.75h.965c.083 0 .161.042.208.111l1.406 2.11c.325.487.871.779 1.456.779h.965c.414 0 .75-.336.75-.75s-.336-.75-.75-.75h-.965c-.083 0-.161-.042-.208-.111l-1.406-2.11c-.325-.487-.871-.779-1.456-.779h-.965c-.414 0-.75.336-.75.75s.336.75.75.75z"/><path d="m7 11.25h-.965c-.585 0-1.131.292-1.456.779l-1.406 2.11c-.047.069-.125.111-.208.111h-.965c-.414 0-.75.336-.75.75s.336.75.75.75h.965c.585 0 1.131-.292 1.456-.779l1.406-2.11c.047-.069.125-.111.208-.111h.965c.414 0 .75-.336.75-.75s-.336-.75-.75-.75z"/><path d="m16.47 16.53 1.621 1.622c.059.059.085.144.069.226-.094.467-.229 1.141-.314 1.569-.091.455.002.927.26 1.314.295.443.77 1.155.77 1.155.23.344.696.438 1.04.208s.438-.696.208-1.04l-.77-1.155c-.037-.056-.05-.123-.037-.188l.313-1.569c.115-.574-.064-1.167-.478-1.581l-1.622-1.621c-.292-.293-.768-.293-1.06 0-.293.292-.293.768 0 1.06z"/><path d="m6.47 15.47-1.622 1.621c-.414.414-.593 1.007-.478 1.581l.313 1.569c.013.065 0 .132-.037.188l-.77 1.155c-.23.344-.136.81.208 1.04s.81.136 1.04-.208c0 0 .475-.712.77-1.155.258-.387.351-.859.26-1.314-.085-.428-.22-1.102-.314-1.569-.016-.082.01-.167.069-.226 0 0 1.621-1.622 1.621-1.622.293-.292.293-.768 0-1.06-.292-.293-.768-.293-1.06 0z"/></g></svg>