<svg clip-rule="evenodd" fill-rule="evenodd" height="512" stroke-linejoin="round" stroke-miterlimit="2" viewBox="0 0 24 24" width="512" xmlns="http://www.w3.org/2000/svg"><g id="Icon"><path d="m12 1.25c-1.518 0-2.75 1.232-2.75 2.75s1.232 2.75 2.75 2.75 2.75-1.232 2.75-2.75-1.232-2.75-2.75-2.75zm0 1.5c.69 0 1.25.56 1.25 1.25s-.56 1.25-1.25 1.25-1.25-.56-1.25-1.25.56-1.25 1.25-1.25z"/><path d="m15 11.25c-.414 0-.75.336-.75.75 0 2.346 1.904 4.25 4.25 4.25s4.25-1.904 4.25-4.25c0-.414-.336-.75-.75-.75zm.854 1.5h5.292c-.326 1.154-1.388 2-2.646 2s-2.32-.846-2.646-2z"/><path d="m2 11.25c-.414 0-.75.336-.75.75 0 2.346 1.904 4.25 4.25 4.25s4.25-1.904 4.25-4.25c0-.414-.336-.75-.75-.75zm.854 1.5h5.292c-.326 1.154-1.388 2-2.646 2s-2.32-.846-2.646-2z"/><path d="m18 21.25h-12c-.414 0-.75.336-.75.75s.336.75.75.75h12c.414 0 .75-.336.75-.75s-.336-.75-.75-.75z"/><path d="m22 3.25h-8c-.414 0-.75.336-.75.75s.336.75.75.75h8c.414 0 .75-.336.75-.75s-.336-.75-.75-.75z"/><path d="m10 3.25h-8c-.414 0-.75.336-.75.75s.336.75.75.75h8c.414 0 .75-.336.75-.75s-.336-.75-.75-.75z"/><path d="m11.25 6v16c0 .414.336.75.75.75s.75-.336.75-.75v-16c0-.414-.336-.75-.75-.75s-.75.336-.75.75z"/><path d="m18.5 7.593 2.856 4.791c.212.356.672.472 1.028.26s.472-.672.26-1.028l-3.07-5.151c-.226-.379-.634-.61-1.074-.61s-.848.231-1.074.61l-3.07 5.151c-.212.356-.096.816.26 1.028s.816.096 1.028-.26z"/><path d="m5.5 7.593 2.856 4.791c.212.356.672.472 1.028.26s.472-.672.26-1.028l-3.07-5.151c-.226-.379-.634-.61-1.074-.61s-.848.231-1.074.61l-3.07 5.151c-.212.356-.096.816.26 1.028s.816.096 1.028-.26z"/></g></svg>