<svg clip-rule="evenodd" fill-rule="evenodd" height="512" stroke-linejoin="round" stroke-miterlimit="2" viewBox="0 0 24 24" width="512" xmlns="http://www.w3.org/2000/svg"><g id="Icon"><path d="m9.75 18.25h8c.414 0 .75-.336.75-.75v-14.5c0-.464-.184-.909-.513-1.237-.328-.329-.773-.513-1.237-.513-2.443 0-8.751 0-12 0-.729 0-1.429.29-1.945.805-.515.516-.805 1.216-.805 1.945v15.5c0 .414.336.75.75.75s.75-.336.75-.75c0 0 0-10.908 0-15.5 0-.332.132-.649.366-.884.235-.234.552-.366.884-.366h12c.066 0 .13.026.177.073s.073.111.073.177v13.75h-7.25c-.414 0-.75.336-.75.75s.336.75.75.75z"/><path d="m9.75 16.75h-4.75c-1.657 0-3 1.343-3 3 0 .796.316 1.559.879 2.121.562.563 1.325.879 2.121.879h11.75c.464 0 .909-.184 1.237-.513.329-.328.513-.773.513-1.237 0-.696 0-1.5 0-1.5 0-.414-.336-.75-.75-.75s-.75.336-.75.75v1.5c0 .066-.026.13-.073.177s-.111.073-.177.073h-11.75c-.398 0-.779-.158-1.061-.439-.281-.282-.439-.663-.439-1.061 0-.828.672-1.5 1.5-1.5h4.75c.414 0 .75-.336.75-.75s-.336-.75-.75-.75z"/><path d="m15 8.5v-2.5c0-.69-.56-1.25-1.25-1.25h-7c-.69 0-1.25.56-1.25 1.25v2.5c0 .69.56 1.25 1.25 1.25h7c.69 0 1.25-.56 1.25-1.25zm-8-2.25v2h6.5v-2z"/><path d="m21.5 4.5c0-.414-.336-.75-.75-.75h-3c-.414 0-.75.336-.75.75v2.5c0 .414.336.75.75.75h3c.414 0 .75-.336.75-.75zm-1.5.75v1h-1.5v-1z"/><path d="m21.5 9.5c0-.414-.336-.75-.75-.75h-3c-.414 0-.75.336-.75.75v2.5c0 .414.336.75.75.75h3c.414 0 .75-.336.75-.75zm-1.5.75v1h-1.5v-1z"/><path d="m21.5 12c0-.414-.336-.75-.75-.75h-3c-.414 0-.75.336-.75.75v2.5c0 .414.336.75.75.75h3c.414 0 .75-.336.75-.75zm-1.5.75v1h-1.5v-1z"/></g></svg>