<svg clip-rule="evenodd" fill-rule="evenodd" stroke-linejoin="round" stroke-miterlimit="2" viewBox="0 0 32 32" xmlns="http://www.w3.org/2000/svg" xmlns:serif="http://www.serif.com/"><path id="phone-smartphone-communication-mobile" d="m0 0h32v32h-32z" fill="none"/><g id="phone-smartphone-communication-mobile1"><path d="m9.003 24.987c.004.341.01.682.016 1.023.016.511.467.964.986.974 4.007.025 8.015.076 12.022 0 .516-.017.968-.464.972-1.002v-13.976c.029-.615.599-1.093 1.234-.971.437.129.741.512.763.971 0 4.673.029 9.345 0 14.018-.029 1.539-1.343 2.926-2.957 2.957-4.02.026-8.039.025-12.059 0-1.545-.029-2.928-1.365-2.958-2.958-.041-6.682-.041-13.364 0-20.046.029-1.546 1.365-2.928 2.958-2.958 4.02-.025 8.039-.026 12.059 0 1.552.029 2.947 1.365 2.957 2.992v2c-.025.535-.46.974-.999.999h-14.978c0 4.66-.071 9.32-.038 13.98h11.022c.023.001.046.001.068.002.251.026.323.066.451.143.719.438.543 1.816-.519 1.852h-11zm1.018-19.971c-.528.003-.999.467-1.002 1.001v.996h13.98c0-.467.078-.963-.06-1.342-.137-.374-.511-.642-.912-.655-4.002-.076-8.004 0-12.006 0z"/></g></svg>