<svg clip-rule="evenodd" fill-rule="evenodd" height="512" stroke-linejoin="round" stroke-miterlimit="2" viewBox="0 0 24 24" width="512" xmlns="http://www.w3.org/2000/svg"><g id="Icon"><path d="m20.461 17.391c1.252.279 2.366-.838 2.088-2.088l-2.818-12.683c-.178-.8-.889-1.37-1.709-1.37h-9.864c-.966 0-1.75.784-1.75 1.75v9.864c0 .821.57 1.531 1.37 1.709zm.326-1.464-12.683-2.818c-.114-.025-.196-.127-.196-.245v-9.864c0-.138.112-.25.25-.25h9.864c.118 0 .22.082.245.197l2.818 12.682c.04.179-.119.338-.298.298z"/><path d="m7.128 3.03 13.5 13.5c.293.293.768.293 1.061 0 .292-.292.292-.768 0-1.06l-13.5-13.5c-.293-.293-.768-.293-1.061 0-.293.292-.293.768 0 1.06z"/><path d="m8.022 13.863 11-11c.293-.292.293-.768 0-1.06-.293-.293-.768-.293-1.061 0l-11 11c-.292.292-.292.768 0 1.06.293.293.768.293 1.061 0z"/><path d="m12.423 8.147s.651 3.338-1.421 6.813c-1.419 2.38-4.106 4.797-9.064 6.323-.396.122-.618.542-.497.938.122.395.542.618.938.496 5.441-1.674 8.354-4.377 9.912-6.989 2.392-4.013 1.603-7.875 1.603-7.875-.081-.406-.477-.67-.883-.588-.406.081-.669.476-.588.882z"/></g></svg>