<svg clip-rule="evenodd" fill-rule="evenodd" height="512" stroke-linejoin="round" stroke-miterlimit="2" viewBox="0 0 24 24" width="512" xmlns="http://www.w3.org/2000/svg"><g id="Icon"><path d="m16.995-10.995c.411-.137.722-.477.822-.899.099-.421-.027-.865-.333-1.171-1.839-1.839-7.59-7.59-9.429-9.429-.306-.306-.75-.432-1.171-.333-.422.1-.762.41-.899.821l-4.714 14.144c-.15.449-.033.945.301 1.279.335.335.83.452 1.28.302zm-14.143 3.133 13.285-4.428-8.857-8.857z"/><path d="m1.25 2v20c0 .414.336.75.75.75h20c.414 0 .75-.336.75-.75s-.336-.75-.75-.75h-19.25v-19.25c0-.414-.336-.75-.75-.75s-.75.336-.75.75z"/><path d="m8.25 22.75c.414 0 .75-.336.75-.75v-4.5c0-.414-.336-.75-.75-.75h-3c-.414 0-.75.336-.75.75v4.5c0 .414.336.75.75.75zm-.75-1.5h-1.5v-3h1.5z"/><path d="m14.25 22.75c.414 0 .75-.336.75-.75v-7.5c0-.414-.336-.75-.75-.75h-3c-.414 0-.75.336-.75.75v7.5c0 .414.336.75.75.75zm-.75-1.5h-1.5v-6h1.5z"/><path d="m20.25 22.75c.414 0 .75-.336.75-.75v-10.5c0-.414-.336-.75-.75-.75h-3c-.414 0-.75.336-.75.75v10.5c0 .414.336.75.75.75zm-.75-1.5h-1.5v-9h1.5z"/><path d="m19.181 3.389c-1.172 1.934-4.513 4.058-8.726 5.45-1.842.61-3.635 1.002-5.251 1.181-.412.046-.709.417-.663.828.046.412.417.709.828.663 1.71-.19 3.608-.603 5.557-1.247 4.636-1.533 8.248-3.97 9.537-6.098.215-.354.102-.815-.252-1.03-.354-.214-.816-.101-1.03.253z"/><path d="m17.682 4.044 2.066-.219s.22 2.067.22 2.067c.043.411.413.71.825.666.411-.043.71-.413.666-.825l-.298-2.812c-.044-.412-.413-.711-.825-.667l-2.813.299c-.411.043-.71.413-.666.825.043.411.413.71.825.666z"/></g></svg>