<svg clip-rule="evenodd" fill-rule="evenodd" height="512" stroke-linejoin="round" stroke-miterlimit="2" viewBox="0 0 24 24" width="512" xmlns="http://www.w3.org/2000/svg"><g id="Icon"><path d="m6.25 12.75c-2.76 0-5 2.24-5 5s2.24 5 5 5 5-2.24 5-5-2.24-5-5-5zm0 1.5c1.932 0 3.5 1.568 3.5 3.5s-1.568 3.5-3.5 3.5-3.5-1.568-3.5-3.5 1.568-3.5 3.5-3.5z"/><path d="m6.25 1.25c-2.76 0-5 2.24-5 5s2.24 5 5 5 5-2.24 5-5-2.24-5-5-5zm0 1.5c1.932 0 3.5 1.568 3.5 3.5s-1.568 3.5-3.5 3.5-3.5-1.568-3.5-3.5 1.568-3.5 3.5-3.5z"/><path d="m8.5 22.25h11.5c.729 0 1.429-.29 1.945-.805.515-.516.805-1.216.805-1.945 0-1.083 0-2.417 0-3.5 0-.729-.29-1.429-.805-1.945-.516-.515-1.216-.805-1.945-.805-3.758 0-11.5 0-11.5 0-.414 0-.75.336-.75.75s.336.75.75.75h11.5c.332 0 .649.132.884.366.234.235.366.552.366.884v3.5c0 .332-.132.649-.366.884-.235.234-.552.366-.884.366h-11.5c-.414 0-.75.336-.75.75s.336.75.75.75z"/><path d="m8.5 10.75h11.5c.729 0 1.429-.29 1.945-.805.515-.516.805-1.216.805-1.945 0-1.083 0-2.417 0-3.5 0-.729-.29-1.429-.805-1.945-.516-.515-1.216-.805-1.945-.805-3.758 0-11.5 0-11.5 0-.414 0-.75.336-.75.75s.336.75.75.75h11.5c.332 0 .649.132.884.366.234.235.366.552.366.884v3.5c0 .332-.132.649-.366.884-.235.234-.552.366-.884.366h-11.5c-.414 0-.75.336-.75.75s.336.75.75.75z"/><path d="m4.25 16.25v3c0 .414.336.75.75.75s.75-.336.75-.75v-3c0-.414-.336-.75-.75-.75s-.75.336-.75.75z"/><path d="m6.75 16.25v3c0 .414.336.75.75.75s.75-.336.75-.75v-3c0-.414-.336-.75-.75-.75s-.75.336-.75.75z"/><path d="m5.5 4.75v3c0 .414.336.75.75.75s.75-.336.75-.75v-3c0-.414-.336-.75-.75-.75s-.75.336-.75.75z"/><circle cx="13.5" cy="18" r="1"/><circle cx="13.5" cy="6.5" r="1"/><path d="m16 18.75h3.5c.414 0 .75-.336.75-.75s-.336-.75-.75-.75h-3.5c-.414 0-.75.336-.75.75s.336.75.75.75z"/><path d="m16 7.25h3.5c.414 0 .75-.336.75-.75s-.336-.75-.75-.75h-3.5c-.414 0-.75.336-.75.75s.336.75.75.75z"/></g></svg>