<svg height="512" viewBox="0 0 32 32" width="512" xmlns="http://www.w3.org/2000/svg"><g id="trusted_shield_check_secure-2" data-name="trusted, shield, check, secure"><path d="m28.8662 23.5-3.6338-6.2939a1 1 0 1 0 -1.7324 1l2.8247 4.8925-2.8486.1709a.999.999 0 0 0 -.7744.4473l-1.5728 2.3818-4.1377-7.1667a8.0034 8.0034 0 1 0 -8.3906-4.9l-5.4668 9.4681a1 1 0 0 0 .8062 1.498l3.9649.2383 2.189 3.3145a.9991.9991 0 0 0 .8343.4492h.03a1.0021 1.0021 0 0 0 .8364-.5l3.0718-5.3213a1 1 0 0 0 -1.7324-1l-2.2627 3.92-1.573-2.3819a.999.999 0 0 0 -.7744-.4473l-2.8486-.1709 4.0947-7.0918a7.9973 7.9973 0 0 0 4.88 2.87l5.5556 9.6232a1.0021 1.0021 0 0 0 .8364.5h.03a.9994.9994 0 0 0 .8345-.4492l2.1889-3.3145 3.9646-.2383a1 1 0 0 0 .8061-1.498zm-18.8662-12.5a6 6 0 1 1 6 6 6.0066 6.0066 0 0 1 -6-6z"/></g></svg>