<svg clip-rule="evenodd" fill-rule="evenodd" height="512" stroke-linejoin="round" stroke-miterlimit="2" viewBox="0 0 24 24" width="512" xmlns="http://www.w3.org/2000/svg"><g id="Icon"><path d="m19 5.75c.966 0 1.75-.784 1.75-1.75v-1c0-.966-.784-1.75-1.75-1.75h-14c-.966 0-1.75.784-1.75 1.75v1c0 .966.784 1.75 1.75 1.75zm0-1.5h-14c-.138 0-.25-.112-.25-.25v-1c0-.138.112-.25.25-.25h14c.138 0 .25.112.25.25v1c0 .138-.112.25-.25.25z"/><path d="m3.426 8.791c.017.006.034.012.052.016.353.099.567.3.825.462.415.259.889.481 1.692.481.785 0 1.256-.212 1.664-.463.365-.225.633-.537 1.334-.537.702 0 .97.312 1.335.537.408.251.879.463 1.664.463.786 0 1.257-.212 1.665-.463.365-.225.633-.537 1.334-.537.704 0 .973.312 1.339.537.409.251.88.463 1.666.463.801 0 1.274-.219 1.689-.472.255-.155.467-.346.819-.429.028-.006.055-.014.082-.024.362-.129.644-.418.765-.783s.068-.765-.145-1.085l-1.582-2.373c-.139-.209-.373-.334-.624-.334h-14c-.251 0-.485.125-.624.334 0 0-.998 1.497-1.559 2.406-.2.309-.249.691-.134 1.04.118.355.392.635.743.761zm16.347-1.28c-.26.104-.477.237-.694.376-.272.174-.542.363-1.083.363-.703 0-.972-.312-1.338-.537-.409-.251-.88-.463-1.667-.463-.785 0-1.256.212-1.664.463-.365.225-.633.537-1.335.537-.701 0-.969-.312-1.334-.537-.408-.251-.879-.463-1.665-.463-.785 0-1.256.212-1.664.463-.365.225-.633.537-1.334.537-.531 0-.798-.185-1.064-.362-.208-.139-.417-.275-.665-.386.376-.598.859-1.333 1.136-1.752h13.197z"/><path d="m19.25 8.21v11.55c0 .803-.538 1.49-1.25 1.49h-12c-.712 0-1.25-.687-1.25-1.49v-11.55c0-.414-.336-.75-.75-.75s-.75.336-.75.75v11.55c0 1.677 1.262 2.99 2.75 2.99h12c1.488 0 2.75-1.313 2.75-2.99v-11.55c0-.414-.336-.75-.75-.75s-.75.336-.75.75z"/></g></svg>