<svg clip-rule="evenodd" fill-rule="evenodd" stroke-linejoin="round" stroke-miterlimit="1.414" viewBox="0 0 32 32" xmlns="http://www.w3.org/2000/svg" xmlns:serif="http://www.serif.com/"><path id="bone-die-skull-osteology" d="m0 0h32v32h-32z" fill="none"/><path d="m27.029 27.022v1.001c-.014.644-.719 1.163-1.335.945-.388-.137-.66-.528-.668-.945v-1.588l-2.305-2.305s-.392-.501-.256-.981c.123-.436.571-.746 1.028-.727.243.021.422.079.644.291l2.304 2.304c.539-.002 1.079-.006 1.618.002.874.037 1.354 1.447.406 1.903-.135.065-.284.098-.434.1zm-22.037 0h-1.001c-.781-.017-1.301-1.093-.724-1.695.187-.195.451-.303.724-.309h1.588l2.305-2.305s.409-.306.772-.291c.749.064 1.222 1.081.674 1.677-.01.011-.02.021-.029.031l-2.305 2.305v1.588c-.011.765-1.062 1.322-1.69.728-.197-.186-.31-.454-.314-.728zm13.022-3.005h-4.007c-.376-.013-.715-.221-.896-.554l-.75-1.501c-.03-.005-.059-.01-.088-.016-1.797-.338-3.256-2.009-3.274-3.914-.003-1.02-.003-2.041 0-3.061.024-2.561 2.235-4.952 4.977-4.978 1.356-.004 2.713-.004 4.069 0 2.569.024 4.951 2.236 4.977 4.978.003 1.02.004 2.041 0 3.061-.017 1.86-1.445 3.606-3.348 3.927l-.764 1.504s-.092.169-.205.277c-.184.176-.435.268-.691.277zm-4.005-12.02c-1.557.005-2.991 1.34-3.007 2.986-.003 1.017-.009 2.033 0 3.05.017 1.035.924 1.974 2.005 1.977 0 0 .137.01.137.01.322.056.598.25.757.544l.725 1.449h2.769l.725-1.449c.178-.329.517-.541.896-.554.232-.008.253-.013.355-.031.905-.162 1.639-1.002 1.648-1.959.003-1.019.009-2.037 0-3.056-.024-1.54-1.348-2.942-2.968-2.967-1.347-.013-2.695 0-4.042 0zm-.002 3.005c.553 0 1.002.449 1.002 1.001 0 .553-.449 1.002-1.002 1.002s-1.001-.449-1.001-1.002c0-.552.448-1.001 1.001-1.001zm4.007 0c.553 0 1.002.449 1.002 1.001 0 .553-.449 1.002-1.002 1.002s-1.002-.449-1.002-1.002c0-.552.449-1.001 1.002-1.001zm-13.022-10.017v-1.002c.008-.519.438-.978.974-1.001h.056c.519.022.966.465.974 1.001v1.589l2.305 2.305c.415.433.352 1.215-.166 1.55-.38.246-.921.183-1.251-.134l-2.305-2.305h-1.588s-.686-.086-.913-.589c-.266-.588.179-1.384.87-1.413.014-.001.028-.001.043-.001zm21.45 2.003-2.305 2.305c-.464.446-1.33.314-1.612-.276-.177-.371-.093-.839.196-1.14l2.305-2.305v-1.589s.051-.498.339-.752c.182-.16.355-.243.662-.249.014 0 .029 0 .043.001.156.01.203.025.291.056.361.127.632.476.664.859.003.038.003.048.004.085v.999c.343-.001.686-.001 1.03.003.767.033 1.261 1.096.699 1.69-.186.197-.454.31-.727.313z"/></svg>