<svg clip-rule="evenodd" fill-rule="evenodd" height="512" stroke-linejoin="round" stroke-miterlimit="2" viewBox="0 0 24 24" width="512" xmlns="http://www.w3.org/2000/svg"><g id="Icon"><circle cx="5.283" cy="17.156" r=".996"/><path d="m9.315 19.55c0 .967-.783 1.75-1.75 1.75h-4.565c-.967 0-1.75-.783-1.75-1.75v-9.946c0-.967.783-1.75 1.75-1.75h4.565c.967 0 1.75.783 1.75 1.75zm-1.5 0v-9.946c0-.139-.112-.25-.25-.25h-4.565c-.138 0-.25.111-.25.25v9.946c0 .138.112.25.25.25h4.565c.138 0 .25-.112.25-.25z"/><path d="m9.197 10.004c-.224.348-.688.45-1.036.227-.349-.224-.45-.688-.227-1.037l3.352-5.228c.402-.628 1.041-1.065 1.771-1.212.731-.147 1.49.008 2.103.431l.216.148c.826.569 1.277 1.542 1.177 2.539l-.27 2.702c-.007.071.016.141.063.193.048.052.115.082.186.082h3.466c.836 0 1.627.381 2.149 1.035.522.653.718 1.509.532 2.325l-1.579 6.951c-.285 1.252-1.398 2.14-2.682 2.14h-5.191c-.934 0-1.857-.193-2.712-.569l-2.251-.987c-.379-.167-.552-.609-.385-.988.166-.379.609-.552.988-.386l2.25.988c.665.292 1.384.442 2.11.442h5.191c.584 0 1.089-.403 1.219-.973l1.58-6.951c.084-.371-.005-.76-.242-1.057-.238-.297-.597-.47-.977-.47h-3.466c-.495 0-.966-.209-1.298-.576-.332-.366-.493-.856-.444-1.348l.271-2.702c.045-.454-.16-.896-.535-1.154l-.216-.149c-.279-.192-.624-.263-.956-.196s-.623.266-.806.551z"/></g></svg>