<svg xmlns="http://www.w3.org/2000/svg" viewBox="0 0 32 32"><title>messenger, message, fb, facebook</title><g id="messenger_message_fb_facebook" data-name="messenger, message, fb, facebook"><path d="M16,3C8.8315,3,3,8.3828,3,15a11.2726,11.2726,0,0,0,2.1743,6.6348,1,1,0,1,0,1.6211-1.1719A9.28,9.28,0,0,1,5,15C5,9.4863,9.9346,5,16,5S27,9.4863,27,15,22.0654,25,16,25a11.9563,11.9563,0,0,1-3.36-.48,1.0033,1.0033,0,0,0-.8808.16L10,26V23.9219a1,1,0,0,0-2,0V28a1.0075,1.0075,0,0,0,.5527.8945A1.0962,1.0962,0,0,0,9.6,28.8l2.9678-2.2256A14.0225,14.0225,0,0,0,16,27c7.1685,0,13-5.3828,13-12S23.1685,3,16,3Z"/><path d="M8.4473,19.8945l5.3554-2.6777L15.5859,19a2.0016,2.0016,0,0,0,2.8282,0l6.2929-6.293a1,1,0,0,0-1.1543-1.6015l-5.3554,2.6777L16.4141,12a2.0029,2.0029,0,0,0-2.8282,0L7.293,18.293a.9935.9935,0,0,0-.104,1.292A1.078,1.078,0,0,0,8.4473,19.8945ZM15,13.4141s1.6782,1.7645,2.293,2.2929a1.0975,1.0975,0,0,0,1.1543.1875c.1253-.0539.4882-.2441.4882-.2441L17,17.5859s-1.7068-1.7329-2.293-2.2929a.9891.9891,0,0,0-1.1543-.1875c-.1244.0561-.4882.2441-.4882.2441Z"/></g></svg>