<svg clip-rule="evenodd" fill-rule="evenodd" stroke-linejoin="round" stroke-miterlimit="1.414" viewBox="0 0 32 32" xmlns="http://www.w3.org/2000/svg" xmlns:serif="http://www.serif.com/"><path id="minus-remove-cart-" d="m0 0h32v32h-32z" fill="none"/><path d="m24.042 23.013c1.383.027 2.671 1.097 2.916 2.472.24 1.337-.555 2.792-1.819 3.309-1.396.57-3.178-.105-3.84-1.478-.685-1.42-.019-3.342 1.436-4.022.384-.179.808-.273 1.23-.281zm-13.488-4.002-5.253-14.007h-1.307s-.755-.121-.946-.673c-.187-.54.192-1.201.756-1.31.084-.016.105-.014.19-.018h2.001c.031.002.062.003.093.004.082.012.103.012.183.035.299.086.535.319.661.61l5.759 15.359h12.466l1.668-10.005h-14.827l-.095-.004c-.084-.012-.106-.013-.187-.036-.745-.219-.954-1.449-.177-1.85.141-.072.298-.103.459-.111h16.008c.586.028 1.059.551.987 1.165l-2.001 12.006c-.101.468-.5.813-.987.836h-14.007c-.672 0-1.343-.004-2.014 0-.754.015-1.292 1.065-.721 1.681.187.202.457.318.737.32h8.001c.632.02 1.153.69.951 1.31-.116.359-.452.636-.826.683-.055.007-.069.006-.125.008h-3.177c.056.152.1.309.128.471.24 1.337-.555 2.792-1.82 3.309-1.395.57-3.177-.105-3.839-1.478-.361-.749-.347-1.637-.039-2.409-1.208-.343-2.192-1.468-2.255-2.746-.08-1.601 1.297-3.139 2.995-3.15zm1.431 6.003c-.766.015-1.313 1.104-.686 1.716.515.503 1.579.215 1.689-.574.08-.567-.376-1.146-1.003-1.142zm12.006 0c-.766.015-1.312 1.104-.686 1.716.515.503 1.579.215 1.69-.574.079-.567-.377-1.146-1.004-1.142zm-3.989-10.005h-4.002c-.769-.015-1.302-1.053-.742-1.672.187-.206.466-.323.742-.329h4.002c.013 0 .026.001.04.001.754.045 1.25 1.065.702 1.671-.187.207-.466.324-.742.329z" fill-rule="nonzero"/></svg>