<?xml version="1.0"?>
<svg xmlns="http://www.w3.org/2000/svg" viewBox="0 0 32 32" width="512" height="512"><g id="smart_watch_smartwatch" data-name="smart, watch, smartwatch"><path d="M20.871,9.1441l-.8847-5.3082A1,1,0,0,0,19,3H13a1,1,0,0,0-.9863.8359L11.129,9.1441A2.994,2.994,0,0,0,9,12v8a3.0033,3.0033,0,0,0,3,3h6.82l-.6668,4H13.8472l-.1939-1.1641a1,1,0,1,0-1.9726.3282l.333,2A1,1,0,0,0,13,29h6a1,1,0,0,0,.9863-.8359l.8847-5.3083A2.9937,2.9937,0,0,0,23,20V12A2.9939,2.9939,0,0,0,20.871,9.1441ZM18.1528,5,18.82,9H13.18l.6668-4ZM21,20a1.0009,1.0009,0,0,1-1,1H12a1.0009,1.0009,0,0,1-1-1V12a1.0009,1.0009,0,0,1,1-1h8a1.0009,1.0009,0,0,1,1,1Z"/></g></svg>
