<svg id="svg11" viewBox="0 0 32 32" xmlns="http://www.w3.org/2000/svg" xmlns:dc="http://purl.org/dc/elements/1.1/" xmlns:cc="http://creativecommons.org/ns#" xmlns:rdf="http://www.w3.org/1999/02/22-rdf-syntax-ns#" xmlns:svg="http://www.w3.org/2000/svg" xmlns:sodipodi="http://sodipodi.sourceforge.net/DTD/sodipodi-0.dtd" xmlns:inkscape="http://www.inkscape.org/namespaces/inkscape" sodipodi:docname="school, dorm, college.svg" inkscape:version="0.92.4 (5da689c313, 2019-01-14)"><g id="school_dorm_college" data-name="school, dorm, college"><path id="path4" d="m30.2427 14.03-8-2c-.799994-.114282-1.224189.382567-1.2427.97v11h-2v-5c0-.552285-.447715-1-1-1h-4c-.552285 0-1 .447715-1 1v5h-8v-8.7191l4-1v4.7191c0 1.333333 2 1.333333 2 0v-9.7192l5-1.25 7.7573 1.9392c1.306998.346568 1.801604-1.6302267.4854-1.94l-8-2c-.159315-.0401-.326085-.0401-.4854 0l-8 2c-1.3162043.3097733-.821598 2.286568.4854 1.94l.7573-.1891v2.4382l-7.2427 1.8109c-1.27084301.336981-.79439466 2.241204.4854 1.94l.7573-.1891v9.2191c0 .552285.4477153 1 1 1h24c.552285 0 1-.447715 1-1v-9.2191l.7573.1893c1.306998.346568 1.801604-1.630227.4854-1.94zm-15.2427 5.97h2v4h-2zm12 4h-4v-9.7191l4 1z" inkscape:connector-curvature="0" sodipodi:nodetypes="cccccssssccccsscccccccccccccsssscccccccccccccc"/><path id="path6" d="m13 13v1a1 1 0 0 0 2 0v-1a1 1 0 0 0 -2 0z"/><path id="path8" d="m17 13v1a1 1 0 0 0 2 0v-1a1 1 0 0 0 -2 0z"/></g></svg>