<svg clip-rule="evenodd" fill-rule="evenodd" height="512" stroke-linejoin="round" stroke-miterlimit="2" viewBox="0 0 24 24" width="512" xmlns="http://www.w3.org/2000/svg"><g id="Icon"><path d="m5.176 11.605-2.098 2.945c-.249.35-.282.811-.085 1.194.197.382.592.623 1.022.623h.304l-2.549 3.939c-.229.354-.246.805-.045 1.175s.589.6 1.01.6h13.206c.415 0 .798-.224 1.002-.586s.196-.806-.02-1.161l-2.411-3.967h.319c.437 0 .836-.248 1.03-.639s.15-.859-.114-1.207l-2.214-2.916h.163c.413 0 .795-.222.999-.58.205-.359.201-.8-.009-1.156l-4.37-7.386c-.207-.35-.584-.564-.99-.564s-.783.214-.99.564l-4.37 7.386c-.21.356-.214.797-.009 1.156.204.358.586.58.999.58zm7.907-1.5h-.256c-.436 0-.835.247-1.03.639-.194.391-.15.858.115 1.206l2.214 2.917h-.237c-.415 0-.798.224-1.002.586s-.196.806.02 1.161l2.411 3.967h-11.939l2.549-3.939c.229-.354.246-.805.045-1.175s-.589-.6-1.01-.6h-.269l2.097-2.945c.25-.351.283-.811.086-1.194-.198-.383-.592-.623-1.022-.623h-.286l3.757-6.349z"/><path d="m16.524 8.566 2.502 4.229c-.305.088-.566.301-.711.594-.195.391-.15.859.114 1.206l1.341 1.767c-.275.087-.512.275-.658.534-.204.362-.196.806.02 1.161l1.534 2.524h-1.666c-.414 0-.75.336-.75.75s.336.75.75.75h2.289c.415 0 .798-.224 1.002-.586s.196-.806-.02-1.161l-1.555-2.559c.321-.081.598-.299.749-.604.195-.391.15-.859-.114-1.207l-1.352-1.781c.256-.09.475-.27.614-.513.204-.359.201-.8-.01-1.155l-3.089-5.222c-.207-.35-.584-.565-.99-.565-.407 0-.783.215-.99.565-.297.502-.679 1.148-.679 1.148-.211.357-.093.817.263 1.028.356.21.817.092 1.027-.264z"/></g></svg>