<svg clip-rule="evenodd" fill-rule="evenodd" height="512" stroke-linejoin="round" stroke-miterlimit="2" viewBox="0 0 24 24" width="512" xmlns="http://www.w3.org/2000/svg"><g id="Icon"><path d="m12.929 9.738c.013-.1-.047-.195-.142-.227s-.2.007-.25.094c-.839 1.438-2.45 4.2-2.995 5.134-.039.066-.039.147-.001.212.038.066.108.107.183.107h1.747s-.244 1.952-.4 3.204c-.013.1.047.195.142.227s.2-.007.25-.094c.839-1.438 2.45-4.2 2.995-5.134.039-.066.039-.147.001-.212-.038-.066-.108-.107-.183-.107-.606 0-1.747 0-1.747 0s.244-1.952.4-3.204z"/><path d="m3.574 11.862c0-.414.336-.75.75-.75s.75.336.75.75v8.188c0 .072.028.142.08.193.051.052.121.08.193.08h13.306c.072 0 .142-.028.193-.08.052-.051.08-.121.08-.193v-8.188c0-.414.336-.75.75-.75s.75.336.75.75v8.188c0 .47-.186.921-.519 1.254s-.784.519-1.254.519h-13.306c-.47 0-.921-.186-1.254-.519s-.519-.784-.519-1.254z"/><path d="m2.427 12.524-.853-.947c-.234-.26-.35-.606-.319-.954.03-.348.203-.668.479-.884l9.172-7.185c.643-.503 1.545-.503 2.188 0l9.172 7.185c.276.216.449.536.479.884.031.348-.085.694-.319.954l-.853.947c-.44.489-1.181.558-1.704.158l-7.703-5.89c-.098-.075-.234-.075-.332 0l-7.703 5.89c-.523.4-1.264.331-1.704-.158zm.432-1.761.535.594 7.529-5.757c.636-.486 1.518-.486 2.154 0l7.529 5.757.535-.594-8.972-7.028c-.099-.078-.239-.078-.338 0l-8.972 7.028z"/><path d="m17.356 6.232c0 .414-.336.75-.75.75s-.75-.336-.75-.75v-3.07c0-.414.336-.75.75-.75h3.07c.415 0 .75.336.75.75v5.117c0 .414-.336.75-.75.75s-.75-.336-.75-.75v-4.367h-1.57z"/></g></svg>