<svg clip-rule="evenodd" fill-rule="evenodd" height="512" stroke-linejoin="round" stroke-miterlimit="2" viewBox="0 0 24 24" width="512" xmlns="http://www.w3.org/2000/svg"><g id="Icon"><path d="m22.75 9.521c0-.571-.279-1.107-.746-1.434-1.592-1.114-7.185-5.029-9-6.3-.603-.422-1.405-.422-2.008 0-1.815 1.271-7.408 5.186-9 6.3-.467.327-.746.863-.746 1.434v11.479c0 .464.184.909.513 1.237.328.329.773.513 1.237.513h18c.464 0 .909-.184 1.237-.513.329-.328.513-.773.513-1.237zm-1.5 0v11.479c0 .066-.026.13-.073.177s-.111.073-.177.073h-18c-.066 0-.13-.026-.177-.073s-.073-.111-.073-.177v-11.479c0-.082.04-.158.107-.205 1.591-1.114 7.185-5.03 9-6.3.086-.06.2-.06.286 0l9 6.3c.067.047.107.123.107.205z"/><path d="m16.75 22v-11c0-.414-.336-.75-.75-.75s-.75.336-.75.75v11c0 .414.336.75.75.75s.75-.336.75-.75z"/><path d="m8.75 22v-13.5c0-.414-.336-.75-.75-.75s-.75.336-.75.75v13.5c0 .414.336.75.75.75s.75-.336.75-.75z"/><path d="m12.031 14.877c-.26.069-.462.272-.532.531-.333 1.251-.009 2.641.971 3.622.981.98 2.371 1.304 3.622.971.259-.07.462-.272.531-.532.334-1.251.01-2.641-.971-3.621-.98-.981-2.37-1.305-3.621-.971zm.845 1.376c.617-.033 1.245.185 1.716.655.47.471.688 1.099.655 1.716-.617.034-1.245-.184-1.716-.655s-.689-1.099-.655-1.715z"/><path d="m4.031 12.377c-.26.069-.462.272-.532.531-.333 1.251-.009 2.641.971 3.622.981.98 2.371 1.304 3.622.971.259-.07.462-.272.531-.532.334-1.251.01-2.641-.971-3.621-.98-.981-2.37-1.305-3.621-.971zm.845 1.376c.617-.033 1.245.185 1.716.655.47.471.688 1.099.655 1.716-.617.034-1.245-.184-1.716-.655s-.689-1.099-.655-1.715z"/><path d="m20.501 12.408c-.07-.259-.272-.462-.532-.531-1.251-.334-2.641-.01-3.621.971-.981.98-1.305 2.37-.971 3.621.069.26.272.462.531.532 1.251.333 2.641.009 3.622-.971.98-.981 1.304-2.371.971-3.622zm-1.377.845c.034.617-.184 1.245-.655 1.716s-1.099.689-1.715.655c-.034-.617.184-1.245.654-1.716.471-.47 1.099-.688 1.716-.655z"/><path d="m12.501 9.908c-.07-.259-.272-.462-.532-.531-1.251-.334-2.641-.01-3.621.971-.981.98-1.305 2.37-.971 3.621.069.26.272.462.531.532 1.251.333 2.641.009 3.622-.971.98-.981 1.304-2.371.971-3.622zm-1.377.845c.034.617-.184 1.245-.655 1.716s-1.099.689-1.715.655c-.034-.617.184-1.245.654-1.716.471-.47 1.099-.688 1.716-.655z"/></g></svg>