<svg clip-rule="evenodd" fill-rule="evenodd" stroke-linejoin="round" stroke-miterlimit="1.414" viewBox="0 0 32 32" xmlns="http://www.w3.org/2000/svg" xmlns:serif="http://www.serif.com/"><path id="battery-full-charge-power" d="m0 0h32v32h-32z" fill="none"/><path d="m20.036 6.999c1.548.029 2.932 1.366 2.962 2.962.033 5.345 0 10.69 0 16.036-.009 1.516-1.278 2.914-2.85 2.992-.038.002-.075.003-.112.004-2.679.016-5.359 0-8.038 0-1.516-.01-2.914-1.278-2.992-2.851-.002-.037-.003-.074-.004-.111-.033-5.345 0-10.691 0-16.036.009-1.513 1.278-2.914 2.85-2.992.038-.002.075-.003.112-.004 2.691-.017 5.381-.017 8.072 0zm-8.032 1.999c-.521.004-.992.447-1.002.988-.034 5.34-.034 10.68 0 16.02.009.514.446.977.987.987 2.674.017 5.348.017 8.022 0 .517-.009.978-.455.988-.987.032-5.34.032-10.68 0-16.02-.01-.514-.447-.978-.988-.988-2.669-.016-5.338 0-8.007 0zm5.995 15.996h-3.998c-.601-.012-1.111-.613-.976-1.217.097-.439.519-.773.976-.783h3.998c.014.001.027.001.04.001.757.045 1.243 1.072.702 1.67-.187.206-.466.323-.742.329zm0-3.999h-3.998c-.783-.016-1.31-1.092-.714-1.7.185-.189.449-.294.714-.299h3.998.04c.755.045 1.25 1.064.702 1.67-.187.207-.466.323-.742.329zm0-3.999h-3.998c-.783-.015-1.31-1.092-.714-1.699.185-.19.449-.295.714-.3h3.998.04c.755.046 1.25 1.064.702 1.67-.187.207-.466.324-.742.329zm0-3.999h-3.998c-.783-.015-1.31-1.092-.714-1.699.185-.189.449-.295.714-.3h3.998c.014 0 .027 0 .04.001.755.045 1.25 1.064.702 1.669-.187.207-.466.324-.742.329zm0-7.998h-3.998c-.655-.013-1.174-.752-.93-1.368.147-.369.528-.623.93-.631h3.998c.014 0 .027.001.04.001.757.045 1.243 1.072.702 1.67-.187.206-.466.323-.742.328z" fill-rule="nonzero"/></svg>