<?xml version="1.0"?>
<svg xmlns="http://www.w3.org/2000/svg" viewBox="0 0 32 32" width="512" height="512"><g id="Layer_37" data-name="Layer 37"><path d="M28,27H27V12.9993l1,0a1,1,0,0,0,.97-1.2427A11.5445,11.5445,0,0,0,17.7549,3h-3.51A11.5449,11.5449,0,0,0,3.03,11.7573,1,1,0,0,0,4,13H20a1,1,0,0,0,0-2L5.3716,10.999A9.546,9.546,0,0,1,14.2451,5h3.51a9.5455,9.5455,0,0,1,8.8735,6H24a.9132.9132,0,0,0-.8192,1.0156A.9487.9487,0,0,0,24,13l1,0V27H23V16a1,1,0,0,0-1-1H10a1,1,0,0,0-1,1V27H7V16a1,1,0,0,0-2,0V27H4a1,1,0,0,0,0,2H28a1,1,0,0,0,0-2ZM21,17v6H11V21h7a1,1,0,0,0,0-2H11V17ZM11,25H21v2H11Z"/></g></svg>
