<svg viewBox="0 0 32 32" xmlns="http://www.w3.org/2000/svg"><g id="slack_collaboration_sharing_synergy" data-name="slack collaboration sharing synergy"><path d="m12 16a3 3 0 0 0 0-6h-6a3 3 0 0 0 0 6zm-7-3a1 1 0 0 1 1-1h6a1 1 0 0 1 0 2h-6a1 1 0 0 1 -1-1z"/><path d="m26 16a1 1 0 0 0 0 2 1 1 0 0 1 0 2h-6a1 1 0 0 1 0-2h2a1 1 0 0 0 0-2h-2a3 3 0 0 0 0 6h6a3 3 0 0 0 0-6z"/><path d="m13 17a3 3 0 0 0 -3 3v6a3 3 0 0 0 6 0v-6a3 3 0 0 0 -3-3zm1 9a1 1 0 0 1 -2 0v-6a1 1 0 0 1 2 0z"/><path d="m22 12v-6a3 3 0 0 0 -6 0v6a3 3 0 0 0 6 0zm-4 0v-6a1 1 0 0 1 2 0v6a1 1 0 0 1 -2 0z"/><path d="m28 12.5a2.5 2.5 0 0 0 -5 0v2.5h2.5a2.5 2.5 0 0 0 2.5-2.5zm-3 0a.5.5 0 1 1 .5.5h-.5z"/><path d="m19.5 23h-2.5v2.5a2.5 2.5 0 1 0 2.5-2.5zm0 3a.5.5 0 0 1 -.5-.5v-.5h.5a.5.5 0 0 1 0 1z"/><path d="m4 19.5a2.5 2.5 0 0 0 5 0v-2.5h-2.5a2.5 2.5 0 0 0 -2.5 2.5zm3 0a.5.5 0 1 1 -.5-.5h.5z"/><path d="m12.5 9h2.5v-2.5a2.5 2.5 0 1 0 -2.5 2.5zm0-3a.5.5 0 0 1 .5.5v.5h-.5a.5.5 0 0 1 0-1z"/></g></svg>