<svg clip-rule="evenodd" fill-rule="evenodd" height="512" stroke-linejoin="round" stroke-miterlimit="2" viewBox="0 0 24 24" width="512" xmlns="http://www.w3.org/2000/svg"><g id="Icon"><path d="m15.857 4.177-7.186-2.693c-.454-.172-.959-.146-1.395.071l-5.058 2.53c-.593.295-.968.903-.968 1.565v14.514c0 1.398 1.557 2.231 2.721 1.456l3.963-2.642c.074-.049.169-.056.249-.016l6.963 3.482c.561.281 1.229.238 1.753-.11l5.072-3.381c.486-.324.779-.871.779-1.456v-13.847c0-1.301-1.369-2.148-2.533-1.565l-4.163 2.081c-.062.031-.133.035-.197.011zm-.53 1.404c.456.171.963.145 1.399-.074-.001.001 4.162-2.08 4.162-2.08.001 0 .001-.001.001-.001.166-.083.361.038.361.224v13.847c0 .083-.041.161-.111.207l-5.072 3.381c-.074.05-.17.058-.25.017l-6.963-3.481c-.561-.282-1.23-.24-1.754.11.001 0-3.961 2.641-3.961 2.641-.166.11-.389-.008-.389-.208v-14.514c0-.094.053-.181.138-.223l5.056-2.529c.063-.031.135-.035.199-.01l7.186 2.693z"/><path d="m5.531 15.562 3-3c.292-.292.292-.768 0-1.06-.293-.293-.768-.293-1.061 0l-3 3c-.293.292-.293.768 0 1.06.293.293.768.293 1.061 0z"/><path d="m4.47 12.562 3 3c.293.293.768.293 1.061 0 .292-.292.292-.768 0-1.06l-3-3c-.293-.293-.768-.293-1.061 0-.293.292-.293.768 0 1.06z"/><path d="m7.75 10.032c0-.208.123-.404.297-.581.29-.295.286-.77-.009-1.06-.294-.291-.77-.287-1.06.008-.477.484-.728 1.063-.728 1.633 0 .414.336.75.75.75s.75-.336.75-.75z"/><path d="m17.421 14.547c1.058-.402 1.878-1.288 2.191-2.386.114-.398-.117-.814-.515-.927-.399-.114-.814.117-.927.515-.184.643-.663 1.161-1.282 1.396-.387.148-.582.581-.435.968.148.387.581.582.968.434zm-5.119-2.766c.195 1.14.924 2.099 1.921 2.608.369.188.821.042 1.009-.327s.042-.821-.327-1.009c-.583-.298-1.01-.858-1.124-1.525-.07-.408-.458-.683-.866-.613s-.683.458-.613.866zm-2.368-2.998c.71.02 1.342.351 1.766.861.265.318.738.362 1.056.097.319-.264.362-.738.098-1.056-.691-.83-1.721-1.368-2.877-1.401-.414-.012-.76.315-.771.728-.012.414.314.76.728.771z"/><path d="m19.75 9.282v-1.25c0-.414-.336-.75-.75-.75s-.75.336-.75.75v1.25c0 .414.336.75.75.75s.75-.336.75-.75z"/></g></svg>