<?xml version="1.0"?>
<svg xmlns="http://www.w3.org/2000/svg" viewBox="0 0 32 32" width="512" height="512"><g id="ribbon_aid_pray_health" data-name="ribbon, aid, pray, health"><path d="M24.457,21.11a33.2844,33.2844,0,0,1-3.57-2.11c2.6595-4.3036,3.2371-8.9262,1.48-12.2438A6.9417,6.9417,0,0,0,16.0342,3h-.0391l-.0023.0005A7.0635,7.0635,0,0,0,9.0166,8.248C7.583,13.1387,9.9814,21.4663,21.459,28.8413A1.0019,1.0019,0,0,0,22,29a.9829.9829,0,0,0,.332-.0571.9981.9981,0,0,0,.6162-.6265l2-6A1,1,0,0,0,24.457,21.11Zm-2.9922,5.3344C12.4453,20.2642,9.6484,13.2021,10.9355,8.8105A5.066,5.066,0,0,1,16.001,5c.0054-.001.0218,0,.0332,0A4.9359,4.9359,0,0,1,20.6,7.6929c1.1158,2.1056,1.2988,5.8092-1.3224,10.1127a17.6367,17.6367,0,0,1-1.9967-1.8717c1.7645-2.5179,2.2426-5.1692,1.2527-7.1429A2.9335,2.9335,0,0,0,16.0049,7h-.01a3.2446,3.2446,0,0,0-2.8867,2.7827c-.7754,3.2393,1.3916,8.231,9.6748,12.7066ZM15.0537,10.248c.2022-.8452.6826-1.242.947-1.2466.1966.0045.511.2188.7454.6861.4656.9294.4686,2.5727-.7435,4.56A5.4123,5.4123,0,0,1,15.0537,10.248Z"/><path d="M12.5889,24.9546c-.6514.5044-1.3389,1.0034-2.0528,1.4912L9.2178,22.49q.4657-.2518.9062-.5048a1,1,0,1,0-.998-1.7334q-.7485.4307-1.5821.8589a.9994.9994,0,0,0-.4921,1.206l2,6a1,1,0,0,0,1.4892.5249c1.1514-.74,2.2529-1.5161,3.2725-2.3057a1,1,0,1,0-1.2246-1.581Z"/></g></svg>
