<svg clip-rule="evenodd" fill-rule="evenodd" height="512" stroke-linejoin="round" stroke-miterlimit="2" viewBox="0 0 24 24" width="512" xmlns="http://www.w3.org/2000/svg"><g id="Icon"><path d="m10.75 15.5v6c0 .69-.56 1.25-1.25 1.25h-7c-.69 0-1.25-.56-1.25-1.25v-6c0-.69.56-1.25 1.25-1.25h7c.69 0 1.25.56 1.25 1.25zm-8 5.75h6.5v-5.5h-6.5z"/><path d="m18.75 15.5v6c0 .69-.56 1.25-1.25 1.25h-7c-.69 0-1.25-.56-1.25-1.25v-6c0-.69.56-1.25 1.25-1.25h7c.69 0 1.25.56 1.25 1.25zm-8 5.75h6.5v-5.5h-6.5z"/><path d="m14.75 8.5v6c0 .69-.56 1.25-1.25 1.25h-7c-.69 0-1.25-.56-1.25-1.25v-6c0-.69.56-1.25 1.25-1.25h7c.69 0 1.25.56 1.25 1.25zm-8 5.75h6.5v-5.5h-6.5z"/><path d="m8.25 15v2.5c0 .332-.132.649-.366.884-.235.234-.552.366-.884.366h-2c-.332 0-.649-.132-.884-.366-.234-.235-.366-.552-.366-.884v-2.5c0-.414.336-.75.75-.75h3c.414 0 .75.336.75.75zm-3 2.25h1.5v-1.5h-1.5z"/><path d="m16.25 15v2.5c0 .332-.132.649-.366.884-.235.234-.552.366-.884.366h-2c-.332 0-.649-.132-.884-.366-.234-.235-.366-.552-.366-.884v-2.5c0-.414.336-.75.75-.75h3c.414 0 .75.336.75.75zm-3 2.25h1.5v-1.5h-1.5z"/><path d="m12.25 8v2.5c0 .332-.132.649-.366.884-.235.234-.552.366-.884.366h-2c-.332 0-.649-.132-.884-.366-.234-.235-.366-.552-.366-.884v-2.5c0-.414.336-.75.75-.75h3c.414 0 .75.336.75.75zm-3 2.25h1.5v-1.5h-1.5z"/><path d="m5.97 2.53c-.293-.292-.293-.768 0-1.06.292-.293.768-.293 1.06 0l2.907 2.906c.086.086.221.098.32.028l3.553-2.486c.75-.526 1.778-.384 2.358.325l6.412 7.836c.263.321.215.793-.105 1.056-.32.262-.793.214-1.055-.106l-6.413-7.836c-.083-.101-.23-.122-.337-.047l-3.553 2.487c-.695.487-1.64.405-2.241-.196l-2.906-2.907z"/><path d="m21.24 7.547c-.001-.414.334-.751.747-.753.414-.001.752.334.753.748l.01 3c.001.414-.333.751-.747.752l-3 .01c-.414.002-.752-.333-.753-.747s.334-.751.748-.753l2.249-.007z"/></g></svg>