<svg clip-rule="evenodd" fill-rule="evenodd" height="512" stroke-linejoin="round" stroke-miterlimit="2" viewBox="0 0 24 24" width="512" xmlns="http://www.w3.org/2000/svg"><g id="Icon"><path d="m9.25 22v-12c0-.414-.336-.75-.75-.75s-.75.336-.75.75v12c0 .414.336.75.75.75s.75-.336.75-.75z"/><path d="m14.75 10v12c0 .414.336.75.75.75s.75-.336.75-.75v-12c0-.414-.336-.75-.75-.75s-.75.336-.75.75z"/><path d="m15.5 18.75h-7c-.414 0-.75.336-.75.75s.336.75.75.75h7c.414 0 .75-.336.75-.75s-.336-.75-.75-.75z"/><path d="m15.5 15.25h-7c-.414 0-.75.336-.75.75s.336.75.75.75h7c.414 0 .75-.336.75-.75s-.336-.75-.75-.75z"/><path d="m15.5 11.75h-7c-.414 0-.75.336-.75.75s.336.75.75.75h7c.414 0 .75-.336.75-.75s-.336-.75-.75-.75z"/><path d="m19.65 5.765c-.333-2.546-2.513-4.515-5.15-4.515-1.837 0-3.452.955-4.376 2.396-.373-.113-.769-.174-1.18-.174-1.099 0-2.097.435-2.831 1.143-.164-.021-.332-.032-.502-.032-2.254 0-4.083 1.83-4.083 4.084 0 2.253 1.829 4.083 4.083 4.083h2.889c.414 0 .75-.336.75-.75s-.336-.75-.75-.75h-2.889c-1.426 0-2.583-1.158-2.583-2.583 0-1.426 1.157-2.584 2.583-2.584.206 0 .407.024.599.07.277.066.567-.031.749-.249.474-.569 1.188-.932 1.985-.932.423 0 .823.102 1.176.283.181.093.393.108.586.041.194-.067.351-.209.437-.395.585-1.269 1.869-2.151 3.357-2.151 2.039 0 3.694 1.655 3.694 3.694 0 .415.336.75.75.75l.018.001c1.109.007 2.01.912 2.01 2.027 0 1.119-.908 2.028-2.028 2.028h-3.444c-.414 0-.75.336-.75.75s.336.75.75.75h3.444c1.947 0 3.528-1.581 3.528-3.528 0-1.705-1.212-3.129-2.822-3.457z"/></g></svg>