<svg clip-rule="evenodd" fill-rule="evenodd" height="512" stroke-linejoin="round" stroke-miterlimit="2" viewBox="0 0 24 24" width="512" xmlns="http://www.w3.org/2000/svg"><g id="Icon"><path d="m21.518 13.393c.723-.18 1.232-.83 1.232-1.577v-8.942c0-.897-.728-1.625-1.625-1.625h-8.942c-.747 0-1.397.51-1.577 1.232 0 0-3.334 13.337-3.334 13.337-.063.255.011.526.198.712.186.186.456.261.712.197zm-.362-1.455-12.125 3.031 3.031-12.125c.014-.056.064-.095.121-.095h8.942c.069 0 .125.056.125.125v8.942c0 .058-.039.108-.094.122z"/><path d="m11.844 3.405 8.75 8.75c.293.293.768.293 1.061 0 .293-.292.293-.768 0-1.06l-8.75-8.75c-.293-.293-.768-.293-1.061 0-.292.292-.292.768 0 1.06z"/><path d="m2 22.75s2.75 0 2.75-2.75c0-.703.088-1.128.315-1.404.228-.277.565-.389.94-.538.749-.298 1.633-.636 2.525-1.528.293-.292.293-.768 0-1.06-.293-.293-.768-.293-1.061 0-.919.919-1.851 1.09-2.54 1.416-.514.243-.93.55-1.23 1.052-.269.452-.449 1.088-.449 2.062 0 1.25-1.25 1.25-1.25 1.25-.414 0-.75.336-.75.75s.336.75.75.75z"/><path d="m8.53 16.53 13.125-13.125c.293-.292.293-.768 0-1.06-.293-.293-.768-.293-1.061 0l-13.125 13.125c-.292.292-.292.768 0 1.06.293.293.768.293 1.061 0z"/></g></svg>