<svg clip-rule="evenodd" fill-rule="evenodd" height="512" stroke-linejoin="round" stroke-miterlimit="2" viewBox="0 0 24 24" width="512" xmlns="http://www.w3.org/2000/svg"><g id="Icon"><path d="m16.5 18.524h4c.597 0 1.169-.237 1.591-.659.422-.421.659-.994.659-1.591 0-1.429 0-3.57 0-4.999 0-.597-.237-1.17-.659-1.591-.422-.422-.994-.66-1.591-.66h-2.333c-.271 0-.534-.087-.75-.249l-.934-.701c-.476-.357-1.055-.55-1.65-.55h-1.005c-.729 0-1.428.29-1.944.806l-2.914 2.914c-.846.845-.846 2.216 0 3.061.845.845 2.215.845 3.06 0 .873-.873 2-2 2-2 .293-.293.293-.768 0-1.061-.292-.293-.768-.293-1.06 0 0 0-1.128 1.128-2 2-.26.26-.68.26-.94 0-.259-.259-.259-.68 0-.939 0 0 2.915-2.914 2.915-2.914.234-.235.552-.367.883-.367h1.005c.271.001.534.088.75.25l.934.7c.476.358 1.055.55 1.65.55h2.333c.199.001.39.08.53.22.141.141.22.332.22.53v5c0 .199-.079.39-.22.531-.14.14-.331.219-.53.219h-4c-.414 0-.75.337-.75.75 0 .414.336.75.75.75z"/><path d="m15.47 14.805.451.451c.248.249.381.59.365.941s-.179.679-.449.903l-3.102 2.586c-.445.371-1.087.387-1.55.04-.743-.557-1.642-1.232-2.202-1.652-.476-.357-1.055-.55-1.65-.55h-3.833c-.199 0-.39-.079-.53-.219-.141-.141-.22-.332-.22-.531v-5c0-.414.336-.749.75-.75h1.672c.729 0 1.428-.289 1.944-.805l.829-.828c.234-.235.552-.367.883-.367h1.172c.414 0 .75-.336.75-.75 0-.413-.336-.75-.75-.75 0 0-.621 0-1.172 0-.729 0-1.428.29-1.944.806l-.829.828c-.234.235-.552.366-.883.366h-1.672c-1.243.001-2.25 1.008-2.25 2.251v4.999c0 .597.237 1.17.659 1.591.422.422.994.659 1.591.659h3.833c.271.001.534.088.75.25.56.42 1.459 1.095 2.202 1.652 1.019.764 2.431.728 3.41-.088l3.103-2.585c.593-.495.951-1.216.986-1.988s-.256-1.523-.802-2.069c0 0-.452-.452-.452-.452-.292-.293-.768-.293-1.06 0-.293.293-.293.768 0 1.061z"/><path d="m12.75 5.274v-2c0-.413-.336-.75-.75-.75s-.75.337-.75.75v2c0 .414.336.75.75.75s.75-.336.75-.75z"/><path d="m16.03 6.305 1.415-1.414c.292-.293.292-.768 0-1.061-.293-.293-.768-.293-1.061 0l-1.414 1.414c-.293.293-.293.768 0 1.061.292.293.768.293 1.06 0z"/><path d="m9.03 5.244-1.414-1.414c-.293-.293-.768-.293-1.061 0-.292.293-.292.768 0 1.061l1.415 1.414c.292.293.768.293 1.06 0 .293-.293.293-.768 0-1.061z"/></g></svg>