<svg clip-rule="evenodd" fill-rule="evenodd" height="512" stroke-linejoin="round" stroke-miterlimit="2" viewBox="0 0 24 24" width="512" xmlns="http://www.w3.org/2000/svg"><g id="Icon"><path d="m9.512 5.75h10.988c.632 0 1.235.266 1.661.733.427.467.637 1.091.58 1.721l-.728 8c-.105 1.159-1.077 2.046-2.24 2.046h-10.988c-.632 0-1.235-.266-1.661-.733-.427-.467-.637-1.091-.58-1.721l.728-8c.105-1.159 1.077-2.046 2.24-2.046zm0 1.5c-.388 0-.711.296-.747.682l-.727 8c-.019.21.051.418.193.574.142.155.343.244.554.244h10.988c.388 0 .712-.296.747-.682l.727-8c.019-.21-.051-.418-.193-.574-.142-.155-.343-.244-.554-.244z"/><path d="m2 15.75c-.414 0-.75-.336-.75-.75s.336-.75.75-.75h2.5c.414 0 .75.336.75.75s-.336.75-.75.75z"/><path d="m2 9.75c-.414 0-.75-.336-.75-.75s.336-.75.75-.75h2.5c.414 0 .75.336.75.75s-.336.75-.75.75z"/><path d="m3.167 12.75c-.414 0-.75-.336-.75-.75s.336-.75.75-.75h2.333c.414 0 .75.336.75.75s-.336.75-.75.75z"/><path d="m8.162 8.576c-.318-.265-.361-.738-.096-1.056s.739-.361 1.057-.096l4.813 4.011c.437.364 1.065.388 1.527.057l5.744-4.102c.336-.241.805-.163 1.046.174.24.337.162.806-.175 1.046l-5.743 4.103c-1.018.727-2.398.675-3.359-.125z"/></g></svg>