<svg clip-rule="evenodd" fill-rule="evenodd" height="512" stroke-linejoin="round" stroke-miterlimit="2" viewBox="0 0 24 24" width="512" xmlns="http://www.w3.org/2000/svg"><g id="Icon"><path d="m5.5 10.75c-2.347 0-4.25 1.903-4.25 4.25v3.5c0 .464.184.909.513 1.237.328.329.773.513 1.237.513h6c.414 0 .75-.336.75-.75v-4.5c0-2.347-1.903-4.25-4.25-4.25zm0 1.5c1.519 0 2.75 1.231 2.75 2.75v3.75h-5.25c-.066 0-.13-.026-.177-.073s-.073-.111-.073-.177v-3.5c0-1.519 1.231-2.75 2.75-2.75z"/><path d="m9 20.25h4.5c.414 0 .75-.336.75-.75v-4.5c0-2.347-1.903-4.25-4.25-4.25h-4.5c-.414 0-.75.336-.75.75s.336.75.75.75h4.5c1.519 0 2.75 1.231 2.75 2.75v3.75h-3.75c-.414 0-.75.336-.75.75s.336.75.75.75z"/><path d="m5.5 20.25h15.5c.967 0 1.75-.784 1.75-1.75 0-1.452 0-4.27 0-7 0-4.28-3.47-7.75-7.75-7.75-.828 0-1.673 0-2.5 0-2.055 0-4.026.817-5.479 2.27-1.453 1.454-2.268 3.425-2.267 5.48 0 .414.336.75.75.75s.75-.337.75-.751c-.001-1.657.657-3.246 1.828-4.418s2.761-1.831 4.418-1.831h2.5c3.452 0 6.25 2.798 6.25 6.25v7c0 .138-.112.25-.25.25h-15.5c-.414 0-.75.336-.75.75s.336.75.75.75z"/><path d="m21 8.25h-14.5c-.414 0-.75.336-.75.75s.336.75.75.75h14.5c.414 0 .75-.336.75-.75s-.336-.75-.75-.75z"/><path d="m22 13.25h-8.5c-.414 0-.75.336-.75.75s.336.75.75.75h8.5c.414 0 .75-.336.75-.75s-.336-.75-.75-.75z"/><path d="m15.75 9v5c0 .414.336.75.75.75s.75-.336.75-.75v-5c0-.414-.336-.75-.75-.75s-.75.336-.75.75z"/><path d="m18.25 14v5.5c0 .414.336.75.75.75s.75-.336.75-.75v-5.5c0-.414-.336-.75-.75-.75s-.75.336-.75.75z"/><path d="m12.25 4.5v4.5c0 .414.336.75.75.75s.75-.336.75-.75v-4.5c0-.414-.336-.75-.75-.75s-.75.336-.75.75z"/></g></svg>