<svg viewBox="0 0 32 32" xmlns="http://www.w3.org/2000/svg"><g id="skype_conference_video_call" data-name="skype conference video call"><path d="m14.52 11.34a4.37 4.37 0 0 1 4.22.22 1 1 0 0 0 1.18-1.62 6.36 6.36 0 0 0 -6.3-.38 3.56 3.56 0 0 0 -2.15 3.17c0 2.62 2.29 3.49 3.66 4 .17.06.34.12.49.19l.43.16c1.42.55 2.28 1 2.28 2.31a1.27 1.27 0 0 1 -.81 1.18 4.87 4.87 0 0 1 -4.52-.27 1 1 0 1 0 -1.07 1.7 6.87 6.87 0 0 0 3.68 1 6 6 0 0 0 2.87-.67 3.27 3.27 0 0 0 1.85-2.93c0-2.8-2.23-3.66-3.56-4.17l-.39-.16-.54-.2c-1.43-.54-2.37-1-2.37-2.14a1.65 1.65 0 0 1 1.05-1.39z"/><path d="m28.85 17.9a12.92 12.92 0 0 0 -9.6-14.49 1 1 0 0 0 -.5 1.94 11 11 0 0 1 8.25 10.65 10.52 10.52 0 0 1 -.17 1.91.27.27 0 0 0 0 .09 1 1 0 0 0 0 .3 1.14 1.14 0 0 0 .15.36 5.92 5.92 0 0 1 1.02 3.34 6 6 0 0 1 -6 6 5.92 5.92 0 0 1 -3.34-1h-.11a1.12 1.12 0 0 0 -.25-.11 1 1 0 0 0 -.35 0 10.6 10.6 0 0 1 -1.95.11 11 11 0 0 1 -11-11 10.52 10.52 0 0 1 .17-1.91.21.21 0 0 0 0-.08 1.07 1.07 0 0 0 0-.31 1.14 1.14 0 0 0 -.17-.36 5.92 5.92 0 0 1 -1-3.34 6 6 0 0 1 6-6 5.92 5.92 0 0 1 3.34 1 1 1 0 0 0 1.12-1.66 8 8 0 0 0 -11.31 10.76 12.93 12.93 0 0 0 14.75 14.75 8 8 0 0 0 11-11z"/></g></svg>