<svg clip-rule="evenodd" fill-rule="evenodd" height="512" stroke-linejoin="round" stroke-miterlimit="2" viewBox="0 0 24 24" width="512" xmlns="http://www.w3.org/2000/svg"><g id="Icon"><path d="m2.75 11c0-2.278.926-4.341 2.415-5.835 1.495-1.489 3.557-2.415 5.835-2.415h2c4.556 0 8.25 3.694 8.25 8.25 0 .312-.019.616-.051.919-.211 1.91-1.077 3.624-2.365 4.916-.245.245-.509.477-.786.686-.002.002-.005.004-.008.006-1.393 1.081-3.143 1.723-5.04 1.723h-2c-2.003 0-3.837-.716-5.267-1.898-.319-.264-.792-.219-1.056.1s-.219.792.1 1.056c1.69 1.397 3.856 2.242 6.223 2.242h2c2.241 0 4.309-.758 5.956-2.035.331-.25.646-.527.939-.82.001 0 .001-.001.001-.001 1.522-1.527 2.545-3.554 2.794-5.812 0-.001.001-.002.001-.003.037-.356.059-.713.059-1.079 0-5.385-4.366-9.75-9.75-9.75h-2c-2.692 0-5.129 1.093-6.895 2.853 0 .001-.001.002-.001.002-1.76 1.766-2.854 4.203-2.854 6.895 0 .414.336.75.75.75s.75-.336.75-.75z"/><path d="m4.75 11c0 3.451 2.798 6.25 6.25 6.25h2c3.452 0 6.25-2.799 6.25-6.25 0-3.453-2.798-6.25-6.25-6.25h-2c-3.452 0-6.25 2.797-6.25 6.25zm1.5 0c0-2.624 2.126-4.75 4.75-4.75h2c2.624 0 4.75 2.126 4.75 4.75 0 2.622-2.126 4.75-4.75 4.75h-2c-2.624 0-4.75-2.128-4.75-4.75z"/><path d="m8.25 11c0 1.518 1.232 2.75 2.75 2.75h2c1.518 0 2.75-1.232 2.75-2.75s-1.232-2.75-2.75-2.75h-2c-1.518 0-2.75 1.232-2.75 2.75zm1.5 0c0-.69.56-1.25 1.25-1.25h2c.69 0 1.25.56 1.25 1.25s-.56 1.25-1.25 1.25h-2c-.69 0-1.25-.56-1.25-1.25z"/><path d="m21.25 12v9c0 .138-.112.25-.25.25h-1.5c-.066 0-.13-.027-.177-.074s-.073-.11-.073-.176v-2.88c0-.414-.336-.75-.75-.75s-.75.336-.75.75v2.88c0 .464.184.909.512 1.237.329.328.774.513 1.238.513h1.5c.966 0 1.75-.784 1.75-1.75v-9c0-.414-.336-.75-.75-.75s-.75.336-.75.75z"/><path d="m4.75 11v3.25h-2v-3.25c0-.414-.336-.75-.75-.75s-.75.336-.75.75v4c0 .414.336.75.75.75h3.5c.414 0 .75-.336.75-.75v-4c0-.414-.336-.75-.75-.75s-.75.336-.75.75z"/><path d="m5.702 21.603.545-6.541c.017-.209-.054-.416-.196-.57-.142-.155-.342-.242-.552-.242h-3.5c-.209 0-.41.087-.552.242-.142.154-.212.361-.195.57 0 0 .416 4.985.546 6.542.054.647.595 1.146 1.245 1.146h1.413c.65 0 1.192-.499 1.246-1.147zm-2.429-.353-.458-5.5h1.869l-.458 5.5z"/></g></svg>