<svg clip-rule="evenodd" fill-rule="evenodd" stroke-linejoin="round" stroke-miterlimit="1.414" viewBox="0 0 32 32" xmlns="http://www.w3.org/2000/svg" xmlns:serif="http://www.serif.com/"><path id="first-aid-kit-med-bag" d="m0 0h32v32h-32z" fill="none"/><path d="m19.996 28.986h-13.988c-1.557-.01-2.963-1.349-2.993-2.96-.033-5.341 0-10.682 0-16.022.009-1.563 1.361-2.984 2.993-2.994h2.001c.029.001.058.003.087.004.282.037.355.085.486.177.473.331.558 1.099.133 1.524-.18.18-.316.276-.706.293-.674 0-1.349-.012-2.023 0-.506.016-.957.46-.973.974-.044 2.338-.068 4.678-.074 7.017h5.068l.048.001c.844.061 1.307 1.415.416 1.882-.1.053-.208.088-.32.104-.048.007-.096.009-.144.011h-5.068c.006 2.339.03 4.678.074 7.017.016.515.464.97 1.001.974h13.982c.284.012.361.054.499.134.524.302.657 1.121.207 1.571-.18.18-.316.275-.706.293zm5.996 0h-2.001c-.284-.013-.361-.054-.499-.134-.524-.303-.657-1.122-.207-1.572.18-.18.316-.275.706-.292.674 0 1.349.012 2.023-.001.507-.015.958-.459.974-.973.043-2.339.068-4.678.073-7.017h-5.068c-.857-.021-1.383-1.401-.464-1.884.1-.052.209-.087.32-.104.048-.007.096-.009.144-.01h5.068c-.005-2.339-.03-4.678-.073-7.017-.016-.515-.465-.971-1.002-.974h-13.981c-.643-.028-.806-.305-.922-.612-.048-.104-.072-.186-.077-.387v-3.996c.005-.182.022-.233.056-.33.137-.391.445-.655.943-.669h7.991c.018.001.037.002.056.002.181.015.231.035.326.075.365.151.603.444.617.922v2.984c1.677 0 3.354.003 5.031.013 1.546.029 2.93 1.365 2.959 2.96.033 5.34.001 10.681.001 16.022-.01 1.565-1.349 2.983-2.994 2.994zm-8.993-9.989v.999c-.018.885-1.409 1.381-1.886.458-.073-.14-.109-.297-.112-.458v-.999h-.999c-.877-.018-1.372-1.414-.458-1.887.14-.072.297-.108.458-.111.333 0 .666-.002.999-.004v-.995c.011-.549.431-.999 1.019-.999.013.001.026.001.04.002.518.041.928.437.939.997v.988c.346.001.692.005 1.039.012.874.052 1.321 1.464.383 1.903-.131.061-.276.091-.423.094zm1.998-13.985h-5.994v1.998c1.998-.002 3.996-.008 5.994-.011z" fill-rule="nonzero"/></svg>