<svg clip-rule="evenodd" fill-rule="evenodd" height="512" stroke-linejoin="round" stroke-miterlimit="2" viewBox="0 0 134 134" width="512" xmlns="http://www.w3.org/2000/svg"><path d="m45.833 45.833v-12.5c0-11.506 9.328-20.833 20.834-20.833s20.833 9.327 20.833 20.833c0 6.357-8.333 6.533-8.333 0 0-6.903-5.597-12.5-12.5-12.5-6.904 0-12.5 5.597-12.5 12.5v12.5h37.5c6.903 0 12.5 5.597 12.5 12.5v50c0 6.904-5.597 12.5-12.5 12.5-12.809 0-37.192 0-50 0-6.904 0-12.5-5.596-12.5-12.5 0-12.808 0-37.191 0-50 0-6.903 5.596-12.5 12.5-12.5zm45.834 8.334h-50c-2.302 0-4.167 1.865-4.167 4.166v50c0 2.302 1.865 4.167 4.167 4.167h50c2.301 0 4.166-1.865 4.166-4.167v-50c0-2.301-1.865-4.166-4.166-4.166zm-25 16.666c-6.899 0-12.5 5.601-12.5 12.5s5.601 12.5 12.5 12.5 12.5-5.601 12.5-12.5-5.601-12.5-12.5-12.5zm0 8.334c2.299 0 4.166 1.867 4.166 4.166 0 2.3-1.867 4.167-4.166 4.167-2.3 0-4.167-1.867-4.167-4.167 0-2.299 1.867-4.166 4.167-4.166z"/></svg>