<svg clip-rule="evenodd" fill-rule="evenodd" height="512" stroke-linejoin="round" stroke-miterlimit="2" viewBox="0 0 24 24" width="512" xmlns="http://www.w3.org/2000/svg"><g id="Icon"><path d="m22.094 13.963c-.739-.74-1.86-.853-2.721-.348-1.452-.292-3.115.174-4.35 1.408-1.235 1.235-1.7 2.899-1.408 4.352-.505.859-.392 1.98.347 2.719.74.74 1.86.853 2.722.348 1.451.292 3.115-.173 4.349-1.408 1.235-1.235 1.701-2.899 1.408-4.352.505-.859.392-1.98-.347-2.719zm-1.061 1.06c.28.28.287.723.032 1.016-.168.194-.226.46-.152.706.314 1.052-.02 2.308-.94 3.228s-2.176 1.254-3.228.94c-.246-.073-.512-.016-.706.153-.294.254-.737.247-1.016-.032s-.287-.723-.032-1.016c.168-.194.226-.46.152-.706-.313-1.052.021-2.308.941-3.228.919-.92 2.176-1.254 3.227-.94.246.073.513.016.706-.152.294-.255.737-.248 1.016.031z"/><path d="m1.25 3v2.756c0 1.543.152 3.08.455 4.592l1.033 5.165c.325 1.625-.65 5.046-.65 5.046-.002.006-.003.011-.005.017-.276 1.105.559 2.174 1.698 2.174h6.438c1.139 0 1.974-1.069 1.698-2.174-.002-.006-.003-.011-.005-.017 0 0-.975-3.421-.65-5.046l1.033-5.166c.303-1.511.455-3.048.455-4.591v-2.756c0-.966-.784-1.75-1.75-1.75h-8c-.966 0-1.75.784-1.75 1.75zm1.5 0c0-.138.112-.25.25-.25h8c.138 0 .25.112.25.25v2.756c0 1.444-.142 2.883-.425 4.297l-1.033 5.166c-.358 1.786.608 5.489.671 5.727.038.152-.082.304-.244.304h-6.438c-.157 0-.274-.142-.246-.294.038-.145 1.036-3.926.673-5.737l-1.033-5.166c-.283-1.414-.425-2.853-.425-4.297z"/><path d="m2 6.75h10c.414 0 .75-.336.75-.75s-.336-.75-.75-.75h-10c-.414 0-.75.336-.75.75s.336.75.75.75z"/></g></svg>