<svg clip-rule="evenodd" fill-rule="evenodd" height="512" stroke-linejoin="round" stroke-miterlimit="2" viewBox="0 0 24 24" width="512" xmlns="http://www.w3.org/2000/svg"><g id="Icon"><path d="m9.375 13.572c-.395-.594-.625-1.306-.625-2.072 0-2.07 1.68-3.75 3.75-3.75s3.75 1.68 3.75 3.75-1.68 3.75-3.75 3.75c-.213 0-.422-.018-.626-.052-.408-.069-.795.207-.864.615-.068.409.207.796.616.864.284.048.576.073.874.073 2.898 0 5.25-2.352 5.25-5.25s-2.352-5.25-5.25-5.25-5.25 2.352-5.25 5.25c0 1.073.322 2.071.875 2.902.23.345.696.439 1.04.21.345-.23.439-.696.21-1.04z"/><path d="m2.651 15.622 2.136-3.738c.401-.701 1.147-1.134 1.954-1.134h1.259c.414 0 .75-.336.75-.75s-.336-.75-.75-.75c0 0-.597 0-1.259 0-1.346 0-2.588.721-3.256 1.889l-2.136 3.739c-.206.359-.081.818.279 1.023.359.206.818.081 1.023-.279z"/><path d="m3.009 22.704s3.623-1.335 5.702-2.101c1.089-.401 1.993-1.187 2.542-2.21.692-1.287 1.723-3.207 2.353-4.381.49-.911.287-2.04-.488-2.725l-.002-.001c-.476-.42-1.11-.618-1.742-.543-.631.075-1.201.416-1.566.937l-1.075 1.537c-.234.334-.616.533-1.024.533-.733 0-1.584 0-1.584 0-.414 0-.75.336-.75.75s.336.75.75.75h1.584c.897 0 1.738-.438 2.253-1.173 0 0 1.075-1.536 1.075-1.536.12-.172.307-.284.515-.308.207-.025.415.04.572.178 0 0 .001.001.001.001.254.224.32.593.16.89 0 0-2.353 4.382-2.353 4.382-.376.699-.995 1.237-1.74 1.512l-5.701 2.1c-.389.143-.588.575-.445.963.143.389.575.588.963.445z"/><path d="m11.75 2.5v2.5c0 .414.336.75.75.75s.75-.336.75-.75v-2.5c0-.414-.336-.75-.75-.75s-.75.336-.75.75z"/><path d="m5.606 5.666 1.767 1.768c.293.293.768.293 1.061 0s.293-.768 0-1.061l-1.768-1.767c-.292-.293-.768-.293-1.06 0-.293.292-.293.768 0 1.06z"/><path d="m18.334 4.606-1.768 1.767c-.293.293-.293.768 0 1.061s.768.293 1.061 0l1.767-1.768c.293-.292.293-.768 0-1.06-.292-.293-.768-.293-1.06 0z"/><path d="m19.394 17.334-1.767-1.768c-.293-.293-.768-.293-1.061 0s-.293.768 0 1.061l1.768 1.767c.292.293.768.293 1.06 0 .293-.292.293-.768 0-1.06z"/><path d="m21.5 10.75h-2.5c-.414 0-.75.336-.75.75s.336.75.75.75h2.5c.414 0 .75-.336.75-.75s-.336-.75-.75-.75z"/><path d="m11.416 3.624 1.084-.723s1.084.723 1.084.723c.344.23.81.136 1.04-.208s.136-.81-.208-1.04l-1.5-1c-.252-.168-.58-.168-.832 0l-1.5 1c-.344.23-.438.696-.208 1.04s.696.438 1.04.208z"/><path d="m6.164 6.697.256-1.277s1.277-.256 1.277-.256c.406-.081.67-.476.589-.882s-.477-.67-.883-.589l-1.768.354c-.296.059-.529.292-.588.588l-.354 1.768c-.081.406.183.802.589.883s.801-.183.882-.589z"/><path d="m20.307 6.403-.354-1.768c-.059-.296-.292-.529-.588-.588l-1.768-.354c-.406-.081-.802.183-.883.589s.183.801.589.882l1.277.256s.256 1.277.256 1.277c.081.406.476.67.882.589s.67-.477.589-.883z"/><path d="m17.597 19.307 1.768-.354c.296-.059.529-.292.588-.588l.354-1.768c.081-.406-.183-.802-.589-.883s-.801.183-.882.589l-.256 1.277s-1.277.256-1.277.256c-.406.081-.67.476-.589.882s.477.67.883.589z"/><path d="m21.624 13.416 1-1.5c.168-.252.168-.58 0-.832l-1-1.5c-.23-.344-.696-.438-1.04-.208s-.438.696-.208 1.04l.723 1.084s-.723 1.084-.723 1.084c-.23.344-.136.81.208 1.04s.81.136 1.04-.208z"/></g></svg>