<svg clip-rule="evenodd" fill-rule="evenodd" height="512" stroke-linejoin="round" stroke-miterlimit="2" viewBox="0 0 24 24" width="512" xmlns="http://www.w3.org/2000/svg"><g id="Icon"><path d="m10.25 8c0-.414-.336-.75-.75-.75h-2.5c-.414 0-.75.336-.75.75v3c0 .414.336.75.75.75h2.5c.414 0 .75-.336.75-.75zm-1.5.75v1.5h-1v-1.5z"/><path d="m15.25 4c0-.414-.336-.75-.75-.75h-2.5c-.414 0-.75.336-.75.75v7c0 .414.336.75.75.75h2.5c.414 0 .75-.336.75-.75zm-1.5.75v5.5h-1v-5.5z"/><path d="m12.75 6c0-.414-.336-.75-.75-.75h-2.5c-.414 0-.75.336-.75.75v5c0 .414.336.75.75.75h2.5c.414 0 .75-.336.75-.75zm-1.5.75v3.5h-1v-3.5z"/><path d="m17.75 2c0-.414-.336-.75-.75-.75h-2.5c-.414 0-.75.336-.75.75v9c0 .414.336.75.75.75h2.5c.414 0 .75-.336.75-.75zm-1.5.75v7.5h-1v-7.5z"/><path d="m14 15.798 4.045-4.283c.206-.218.262-.537.144-.812-.119-.275-.39-.453-.689-.453h-11c-.299 0-.57.178-.689.453-.118.275-.062.594.144.812l4.045 4.283v4.202c0 .228.104.443.281.586l2.5 2c.226.18.534.215.794.09s.425-.388.425-.676zm-1.295-.813c-.132.139-.205.324-.205.515v4.94s-1-.8-1-.8v-4.14c0-.191-.073-.376-.205-.515l-3.055-3.235h7.52s-3.055 3.235-3.055 3.235z"/><path d="m18 10.25h-12c-.414 0-.75.336-.75.75s.336.75.75.75h12c.414 0 .75-.336.75-.75s-.336-.75-.75-.75z"/></g></svg>