<svg clip-rule="evenodd" fill-rule="evenodd" height="512" stroke-linejoin="round" stroke-miterlimit="2" viewBox="0 0 24 24" width="512" xmlns="http://www.w3.org/2000/svg"><g id="Icon"><path d="m7.964 10.355c-.751-.902-2.074-1.074-3.031-.388l-.002.001c-.502.36-.838.908-.93 1.52-.092.611.066 1.234.44 1.726.884 1.164 2.155 2.838 2.804 3.692.168.222.257.493.254.772 0 0-.041 3.3-.041 3.3-.005.468.176.919.505 1.252s.777.52 1.245.52h7.488c.966 0 1.75-.784 1.75-1.75v-3.604c0-.214.021-.427.063-.637 0 0 .845-4.224.845-4.224.061-.306.092-.618.092-.931 0-1.014 0-3.739 0-5.354 0-.53-.211-1.039-.586-1.414s-.884-.586-1.414-.586c-.531 0-1.039.211-1.414.586-.376.375-.586.884-.586 1.414v5.75c0 .414.336.75.75.75s.75-.336.75-.75c0 0 0-3.737 0-5.75 0-.133.052-.26.146-.354.094-.093.221-.146.354-.146.132 0 .26.053.353.146.094.094.147.221.147.354v5.354c0 .214-.021.427-.063.637 0 0-.845 4.224-.845 4.224-.061.306-.092.618-.092.931v3.604c0 .138-.112.25-.25.25h-7.488c-.067 0-.131-.027-.178-.074-.047-.048-.073-.112-.072-.179l.041-3.301c.007-.612-.19-1.209-.56-1.697l-2.803-3.692c-.129-.17-.184-.384-.152-.595s.148-.4.321-.525h.001c.322-.231.767-.17 1.014.139 0 0 1.318 1.643 1.318 1.643.2.249.535.344.835.238.301-.107.502-.392.5-.711 0 0-.027-5.734-.027-7.746 0-.133.052-.26.146-.354.094-.093.221-.146.354-.146.132 0 .26.053.353.146.094.094.147.221.147.354v7.25c0 .414.336.75.75.75s.75-.336.75-.75v-7.25c0-.53-.211-1.039-.586-1.414s-.884-.586-1.414-.586c-.531 0-1.039.211-1.414.586-.376.375-.586.884-.586 1.414 0 1.209.01 3.759.018 5.605z"/><path d="m16.946 12v-7.25c0-.53-.211-1.039-.586-1.414s-.884-.586-1.414-.586c-.531 0-1.039.211-1.414.586-.376.375-.586.884-.586 1.414v7.25c0 .414.336.75.75.75s.75-.336.75-.75c0 0 0-5.237 0-7.25 0-.133.052-.26.146-.354.094-.093.221-.146.354-.146.132 0 .26.053.353.146.094.094.147.221.147.354v7.25c0 .414.336.75.75.75s.75-.336.75-.75z"/><path d="m14.446 12v-8.75c0-.53-.211-1.039-.586-1.414s-.884-.586-1.414-.586c-.531 0-1.039.211-1.414.586-.376.375-.586.884-.586 1.414v8.75c0 .414.336.75.75.75s.75-.336.75-.75c0 0 0-6.737 0-8.75 0-.133.052-.26.146-.354.094-.093.221-.146.354-.146.132 0 .26.053.353.146.094.094.147.221.147.354v8.75c0 .414.336.75.75.75s.75-.336.75-.75z"/><path d="m17.696 18.25h-9.5c-.414 0-.75.336-.75.75s.336.75.75.75h9.5c.414 0 .75-.336.75-.75s-.336-.75-.75-.75z"/></g></svg>