<svg clip-rule="evenodd" fill-rule="evenodd" height="512" stroke-linejoin="round" stroke-miterlimit="2" viewBox="0 0 24 24" width="512" xmlns="http://www.w3.org/2000/svg"><g id="Icon"><path d="m3.5 4v15.502c0 1.794 1.454 3.248 3.248 3.248h13.002c.414 0 .75-.336.75-.75s-.336-.75-.75-.75h-13.002c-.965 0-1.748-.783-1.748-1.748v-.004c0-.965.783-1.748 1.748-1.748h12.502c.69 0 1.25-.56 1.25-1.25v-14c0-.69-.56-1.25-1.25-1.25-1.987 0-9.393 0-13 0-1.519 0-2.75 1.231-2.75 2.75zm15.5-1.25h-12.75c-.69 0-1.25.56-1.25 1.25v12.76c.504-.323 1.104-.51 1.748-.51h12.252v-13.5z"/><path d="m18.5 17v5c0 .414.336.75.75.75s.75-.336.75-.75v-5c0-.414-.336-.75-.75-.75s-.75.336-.75.75z"/><path d="m12.074 6.906-1.571 4.713c-.131.393.082.818.474.949.393.131.818-.082.949-.474l1.571-4.713c.131-.393-.082-.818-.474-.949-.393-.131-.818.082-.949.474z"/><path d="m14.399 8.459 1.04 1.041s-1.04 1.041-1.04 1.041c-.293.292-.293.768 0 1.06.292.293.768.293 1.06 0l1.571-1.571c.293-.293.293-.767 0-1.06l-1.571-1.571c-.292-.293-.768-.293-1.06 0-.293.292-.293.768 0 1.06z"/><path d="m8.541 7.399-1.571 1.571c-.293.293-.293.767 0 1.06l1.571 1.571c.292.293.768.293 1.06 0 .293-.292.293-.768 0-1.06l-1.04-1.041s1.04-1.041 1.04-1.041c.293-.292.293-.768 0-1.06-.292-.293-.768-.293-1.06 0z"/></g></svg>