<svg clip-rule="evenodd" fill-rule="evenodd" stroke-linejoin="round" stroke-miterlimit="1.414" viewBox="0 0 32 32" xmlns="http://www.w3.org/2000/svg" xmlns:serif="http://www.serif.com/"><path id="charge-charging-battery" d="m0 0h32v32h-32z" fill="none"/><path d="m20.036 6.999c1.54.029 2.932 1.34 2.962 2.962.033 5.345 0 10.69 0 16.036-.01 1.558-1.35 2.966-2.962 2.996-2.679.016-5.359 0-8.038 0-1.55-.01-2.965-1.326-2.996-2.962-.033-5.345 0-10.691 0-16.036.01-1.558 1.35-2.966 2.962-2.996 2.691-.017 5.381-.017 8.072 0zm-8.032 1.999c-.522.004-.993.457-1.003.988-.033 5.34-.033 10.68 0 16.02.01.517.465.978.988.987 2.674.017 5.348.017 8.022 0 .517-.009.978-.465.987-.987.034-5.34.034-10.68 0-16.02-.009-.517-.464-.978-.987-.988-2.669-.016-5.338 0-8.007 0zm5.995 7.998c.002 0 .646.085.883.53.106.199.142.434.1.655-.011.059-.017.073-.034.131l-2 5.998c-.088.237-.144.297-.251.401-.481.467-1.44.281-1.654-.428-.058-.191-.078-.311.009-.605l1.56-4.682h-2.611s-.645-.084-.883-.53c-.106-.199-.142-.434-.1-.656.011-.059.017-.073.034-.13l2-5.999c.152-.411.55-.688.997-.682.222.018.281.047.393.102.387.191.621.65.541 1.081-.012.059-.017.073-.035.132l-1.56 4.682zm0-11.997h-3.998c-.601-.011-1.111-.612-.976-1.216.097-.44.519-.774.976-.783h3.998c.014 0 .027.001.04.001.755.045 1.25 1.064.702 1.67-.187.206-.466.323-.742.328z" fill-rule="nonzero"/></svg>