<svg clip-rule="evenodd" fill-rule="evenodd" height="512" stroke-linejoin="round" stroke-miterlimit="2" viewBox="0 0 24 24" width="512" xmlns="http://www.w3.org/2000/svg"><g id="Icon"><path d="m19.75 15c0-4.277-3.473-7.75-7.75-7.75s-7.75 3.473-7.75 7.75c0 4.278 3.473 7.75 7.75 7.75s7.75-3.472 7.75-7.75zm-1.5 0c0 3.45-2.8 6.25-6.25 6.25-3.449 0-6.25-2.8-6.25-6.25 0-3.449 2.801-6.25 6.25-6.25 3.45 0 6.25 2.801 6.25 6.25z"/><path d="m18 1.25h-12c-.414.001-.75.337-.75.751 0 .413.336.75.75.749h12c.414.001.75-.336.75-.749 0-.414-.336-.75-.75-.751z"/><path d="m19.838 9.526 2.392-2.437c.692-.705.692-1.849 0-2.554l-2.698-2.748c-.702-.717-1.843-.717-2.546.001.001-.001-3.435 3.499-3.435 3.499-.29.295-.286.771.009 1.061.296.29.771.285 1.061-.01l3.437-3.501c.111-.114.292-.114.403 0l2.698 2.749c.123.125.123.327 0 .452 0 0-2.391 2.437-2.391 2.437-.29.296-.286.771.009 1.061.296.29.771.285 1.061-.01z"/><path d="m10.449 5.287-3.436-3.5c-.702-.718-1.843-.718-2.546.001.001-.001-2.696 2.747-2.696 2.747-.693.705-.693 1.848 0 2.554 0-.001 2.391 2.436 2.391 2.436.29.296.765.3 1.06.01.296-.29.3-.765.011-1.06l-2.392-2.438c-.123-.124-.123-.327 0-.451l2.698-2.75c.111-.113.292-.113.403 0l3.437 3.501c.29.296.765.3 1.061.01.295-.29.299-.765.009-1.06z"/></g></svg>