<svg clip-rule="evenodd" fill-rule="evenodd" stroke-linejoin="round" stroke-miterlimit="1.414" viewBox="0 0 32 32" xmlns="http://www.w3.org/2000/svg" xmlns:serif="http://www.serif.com/"><path id="money-cash-buy-pay" d="m0 0h32v32h-32z" fill="none"/><path d="m28.236 11.028c.434.127.742.512.764.972v12c-.024.492-.38.852-.877 1.011-3.95 1.273-8.263 1.272-12.198.016-1.986-.634-4.064-1.026-6.15-1-1.852.023-3.704.339-5.459.921 0 0-.344.103-.65-.006-.387-.137-.646-.528-.666-.942v-16c.024-.493.38-.852.877-1.012 3.942-1.27 8.263-1.272 12.198-.016.857.274 1.725.527 2.611.693 2.981.56 6.116.343 8.998-.614 0 0 .185-.043.185-.043.084-.007.105-.012.19-.007.876.052 1.416 1.564.209 1.963-.032.011-.064.021-.097.032-3.972 1.291-8.317 1.286-12.246.031-1.832-.585-3.735-.97-5.655-.999-1.773-.027-3.548.212-5.258.704l-.012 13.93c3.663-.944 7.51-.828 11.075.31 3.52 1.124 7.343 1.322 10.913.295 0 0 .012-11.267.012-11.267s.262-1.16 1.236-.972zm-4.186 8.995c.717.05 1.206.969.76 1.585-.27.372-.778.423-1.299.465-1.18.095-2.38.072-3.55-.05-.653-.068-1.139-.789-.881-1.394.189-.443.698-.634 1.209-.583 1.198.115 2.404.113 3.602-.018 0 0 .051-.008.159-.005zm-8.024-8.006c1.837.017 3.553 1.435 3.89 3.254.459 2.475-1.853 5.162-4.644 4.645-1.616-.3-2.973-1.702-3.213-3.336-.324-2.211 1.488-4.51 3.864-4.563zm-.039 2c-1.3.012-2.379 1.549-1.785 2.819.424.908 1.608 1.384 2.547 1 1.016-.415 1.534-1.76 1.006-2.759-.328-.623-1.001-1.044-1.716-1.06-.017 0-.035 0-.052 0zm-5.921-3.995c.66.003 1.321.039 1.977.11.219.024.889.329.951.892.063.573-.462 1.148-1.063 1.107-1.239-.086-2.541-.139-3.826-.003 0 0-.513.003-.801-.277-.519-.503-.268-1.588.552-1.707.705-.103 1.467-.123 2.21-.122z" fill-rule="nonzero"/></svg>