<svg clip-rule="evenodd" fill-rule="evenodd" height="512" stroke-linejoin="round" stroke-miterlimit="2" viewBox="0 0 24 24" width="512" xmlns="http://www.w3.org/2000/svg"><g id="Icon"><path d="m10.02 3.25c4.829 0 8.75 3.921 8.75 8.75s-3.921 8.75-8.75 8.75-8.75-3.921-8.75-8.75 3.921-8.75 8.75-8.75zm0 1.5c-4.001 0-7.25 3.249-7.25 7.25s3.249 7.25 7.25 7.25c4.002 0 7.25-3.249 7.25-7.25s-3.248-7.25-7.25-7.25z"/><path d="m10.02 8.25c2.07 0 3.75 1.68 3.75 3.75s-1.68 3.75-3.75 3.75c-2.069 0-3.75-1.68-3.75-3.75s1.681-3.75 3.75-3.75zm0 1.5c-1.242 0-2.25 1.008-2.25 2.25s1.008 2.25 2.25 2.25 2.25-1.008 2.25-2.25-1.008-2.25-2.25-2.25z"/><path d="m20.619 19.25-.149-.223c-.213-.319-.213-.735 0-1.054l.649-.973-.649-.973c-.213-.319-.213-.735 0-1.054l.149-.223h-2.599c-.414 0-.75-.336-.75-.75s.336-.75.75-.75h3.626c.351 0 .673.193.838.502s.147.683-.047.975l-.515.773.648.973c.213.319.213.735 0 1.054l-.648.973.515.773c.194.292.212.666.047.975s-.487.502-.837.502h-11.627c-.414 0-.75-.336-.75-.75s.336-.75.75-.75z"/></g></svg>