<?xml version="1.0"?>
<svg xmlns="http://www.w3.org/2000/svg" viewBox="0 0 32 32" width="512" height="512"><g id="trusted_shield_check_secure" data-name="trusted, shield, check, secure"><path d="M24,12a1,1,0,0,0-1,1v4a9.2338,9.2338,0,0,1-7,8.97A9.2346,9.2346,0,0,1,9,17V10h.5278A8.1856,8.1856,0,0,0,16,6.8623,8.1856,8.1856,0,0,0,22.4722,10H24a1,1,0,0,0,0-2H22.4722a6.2034,6.2034,0,0,1-5.5777-3.4473,1.0412,1.0412,0,0,0-1.789,0A6.2034,6.2034,0,0,1,9.5278,8H8A1,1,0,0,0,7,9v8a11.2313,11.2313,0,0,0,8.52,10.9111l.2378.0586a.9872.9872,0,0,0,.4854,0l.2387-.0595A11.23,11.23,0,0,0,25,17V13A1,1,0,0,0,24,12Z"/><path d="M18.293,14.293,15,17.5859,13.707,16.293a1,1,0,0,0-1.414,1.414l2,2a.9995.9995,0,0,0,1.414,0l4-4a1,1,0,0,0-1.414-1.414Z"/></g></svg>
