<svg clip-rule="evenodd" fill-rule="evenodd" stroke-linejoin="round" stroke-miterlimit="1.414" viewBox="0 0 32 32" xmlns="http://www.w3.org/2000/svg" xmlns:serif="http://www.serif.com/"><path id="recipe-task-copy" d="m0 0h32v32h-32z" fill="none"/><path d="m22.023 7.001c.012 0 .024 0 .037.001.006 0 .012.001.018.001l.009.001c.009.001.018.002.026.003.016.002.031.005.046.007.224.036.295.083.415.167.007.005.015.011.022.016.239.175.397.455.404.803v3h3s.018.004.048.012c.244.012.484.106.659.281.144.144.242.332.278.533.007.04.01.064.011.089.001.009.002.017.002.025.001.019.002.037.002.055v.005 16c-.023.537-.462.977-1 1h-16c-.537-.023-.977-.462-1-1v-20c.023-.537.462-.977 1-1h12zm-1.023 1.999h-10v18h14v-14h-3c-.535-.011-.989-.419-1-1zm1 16h-4c-.772-.015-1.294-1.061-.741-1.671.186-.207.465-.324.741-.329h4c.013 0 .027.001.04.001.853.051 1.343 1.41.419 1.887-.106.055-.221.091-.34.105-.039.005-.079.006-.119.007zm-15-20v19s-.028.355-.181.574c-.329.47-1.1.56-1.526.133-.144-.144-.242-.332-.278-.533-.013-.077-.012-.097-.015-.174v-20c.023-.537.462-.977 1-1h12c.029.001.058.003.087.004.282.037.356.085.487.177.472.331.555 1.104.133 1.526-.144.144-.332.242-.533.278-.077.013-.097.012-.174.015zm15 16h-8c-.23-.006-.305-.037-.434-.099-.61-.294-.751-1.286-.145-1.717.168-.119.374-.178.579-.184h8c.019.001.037.001.056.002.229.019.302.053.428.123.576.318.681 1.274.095 1.691-.168.119-.374.178-.579.184zm0-4h-8c-.763-.021-1.308-1.037-.746-1.666.163-.182.393-.301.634-.328.05-.005.062-.005.112-.006h8c.019.001.037.001.056.002.743.062 1.241 1.047.69 1.664-.163.182-.393.301-.634.328-.05.005-.062.005-.112.006zm-4-4h-4c-.772-.015-1.294-1.061-.741-1.671.186-.207.465-.324.741-.329h4c.013 0 .027.001.04.001.625.037 1.116.726.903 1.331-.136.387-.529.66-.943.668z" fill-rule="nonzero"/></svg>