<svg clip-rule="evenodd" fill-rule="evenodd" height="512" stroke-linejoin="round" stroke-miterlimit="2" viewBox="0 0 24 24" width="512" xmlns="http://www.w3.org/2000/svg"><g id="Icon"><path d="m13.237 21.173 7.579-7.578c2.579-2.579 2.579-6.767 0-9.346-2.409-2.409-6.222-2.568-8.816-.477-2.594-2.091-6.407-1.932-8.816.477-2.569 2.569-2.579 6.734-.03 9.316l7.609 7.608c.328.328.773.512 1.237.512.464.001.909-.184 1.237-.512zm-1.06-1.061c-.047.047-.111.073-.177.073s-.13-.026-.177-.073c0 0-7.602-7.602-7.602-7.602-1.97-1.996-1.961-5.215.024-7.2 1.994-1.994 5.231-1.994 7.225 0 .293.293.767.293 1.06 0 1.994-1.994 5.231-1.994 7.225 0 1.994 1.993 1.994 5.23 0 7.224z"/><path d="m17.25 7.957c0-.414-.336-.75-.75-.75h-1.125c-1.094 0-2.143.435-2.917 1.208-.773.774-1.208 1.823-1.208 2.917v1.125c0 .414.336.75.75.75h1.125c1.094 0 2.143-.434 2.917-1.208.773-.774 1.208-1.823 1.208-2.917zm-1.5.75v.375c0 .696-.277 1.364-.769 1.856-.492.493-1.16.769-1.856.769h-.375v-.375c0-.696.277-1.364.769-1.856s1.16-.769 1.856-.769z"/><path d="m7.5 7.207c-.414 0-.75.336-.75.75v1.125c0 1.094.435 2.143 1.208 2.917.774.774 1.823 1.208 2.917 1.208h1.125c.414 0 .75-.336.75-.75v-1.125c0-1.094-.435-2.143-1.208-2.917-.774-.773-1.823-1.208-2.917-1.208zm.75 1.5h.375c.696 0 1.364.277 1.856.769s.769 1.16.769 1.856v.375h-.375c-.696 0-1.364-.276-1.856-.769-.492-.492-.769-1.16-.769-1.856z"/><path d="m11.25 12.207v2.5c0 .414.336.75.75.75s.75-.336.75-.75v-2.5c0-.414-.336-.75-.75-.75s-.75.336-.75.75z"/></g></svg>