<svg height="512" viewBox="0 0 32 32" width="512" xmlns="http://www.w3.org/2000/svg"><g id="student_table_studying" data-name="student, table, studying"><path d="m13 15a1 1 0 0 0 1-1v-1a1.9853 1.9853 0 0 1 .5864-1.4146 2.0473 2.0473 0 0 1 2.8282.001 1.9845 1.9845 0 0 1 .5854 1.4136v1a1 1 0 0 0 2 0v-1a3.9691 3.9691 0 0 0 -1.1714-2.8276c-.065-.0652-.1416-.113-.21-.1731a4 4 0 1 0 -5.2369 0c-.0683.06-.1445.1073-.2091.1721a3.97 3.97 0 0 0 -1.1726 2.8286v1a1 1 0 0 0 1 1zm1-8a2 2 0 1 1 2 2 2.002 2.002 0 0 1 -2-2z"/><path d="m26 17h-20a1 1 0 0 0 0 2h1v9a1 1 0 0 0 2 0v-5h11a1 1 0 0 0 0-2h-11v-2h14v9a1 1 0 0 0 2 0v-9h1a1 1 0 0 0 0-2z"/></g></svg>