<?xml version="1.0"?>
<svg xmlns="http://www.w3.org/2000/svg" viewBox="0 0 32 32" width="512" height="512"><g id="rontgen_lateral_osteology_xray" data-name="rontgen, lateral, osteology, xray"><path d="M28,24a1,1,0,0,0,1-1V5a1,1,0,0,0-1-1H4A1,1,0,0,0,3,5V27a1,1,0,0,0,1,1H28a1,1,0,0,0,0-2H5V6H27V23A1,1,0,0,0,28,24Z"/><path d="M14.002,10c-1.4693-.0029-2.9463-.811-3.0206-1.1914a1,1,0,1,0-1.9628.3828C9.3755,11.0186,12.14,11.9966,13.998,12H14a1,1,0,0,0,.002-2Z"/><path d="M18,12h.002c1.8584-.0034,4.6225-.9814,4.9794-2.8086a1,1,0,0,0-1.9628-.3828c-.0743.38-1.5513,1.1885-3.0206,1.1914A1,1,0,0,0,18,12Z"/><path d="M14.001,14c-2.6328-.0024-4.3408-.5347-5.2227-1.6279a1,1,0,0,0-1.5566,1.2558C8.5068,15.2212,10.7236,15.9971,13.999,16H14a1,1,0,0,0,.001-2Z"/><path d="M14.001,18c-2.6333-.002-4.3413-.5352-5.2227-1.6274a1,1,0,1,0-1.5566,1.2553C8.5063,19.2207,10.7231,19.9971,13.999,20H14a1,1,0,0,0,.001-2Z"/><path d="M8.7783,20.3721a1,1,0,0,0-1.5566,1.2558C8.5063,23.2207,10.7231,23.9971,13.999,24H14a1,1,0,0,0,.001-2C11.3677,21.998,9.66,21.4648,8.7783,20.3721Z"/><path d="M24.6279,12.2217a.9993.9993,0,0,0-1.4062.15C22.34,13.4653,20.6318,13.9976,17.999,14A1,1,0,0,0,18,16h.001c3.2754-.0029,5.4922-.7788,6.7773-2.3721A1,1,0,0,0,24.6279,12.2217Z"/><path d="M24.6274,16.2217a.9988.9988,0,0,0-1.4057.1509C22.34,17.4648,20.6323,17.998,17.999,18A1,1,0,0,0,18,20h.001c3.2759-.0029,5.4927-.7793,6.7773-2.3721A1,1,0,0,0,24.6274,16.2217Z"/><path d="M23.2217,20.3721C22.34,21.4648,20.6323,21.998,17.999,22A1,1,0,0,0,18,24h.001c3.2759-.0029,5.4927-.7793,6.7773-2.3721a1,1,0,0,0-1.5566-1.2558Z"/></g></svg>
