<svg clip-rule="evenodd" fill-rule="evenodd" height="512" stroke-linejoin="round" stroke-miterlimit="2" viewBox="0 0 24 24" width="512" xmlns="http://www.w3.org/2000/svg"><g id="Icon"><path d="m11 14.75h5c.464 0 .909-.184 1.237-.513.329-.328.513-.773.513-1.237 0-1.331 0-3.669 0-5 0-.464-.184-.909-.513-1.237-.328-.329-.773-.513-1.237-.513-1.331 0-3.669 0-5 0-.464 0-.909.184-1.237.513-.329.328-.513.773-.513 1.237v5c0 .464.184.909.513 1.237.328.329.773.513 1.237.513zm5-1.5h-5c-.066 0-.13-.026-.177-.073s-.073-.111-.073-.177v-5c0-.066.026-.13.073-.177s.111-.073.177-.073h5c.066 0 .13.026.177.073s.073.111.073.177v5c0 .066-.026.13-.073.177s-.111.073-.177.073z"/><path d="m12.75 7v2c0 .414.336.75.75.75s.75-.336.75-.75v-2c0-.414-.336-.75-.75-.75s-.75.336-.75.75z"/><path d="m13.5 1.25c-5.105 0-9.25 4.145-9.25 9.25s4.145 9.25 9.25 9.25 9.25-4.145 9.25-9.25-4.145-9.25-9.25-9.25zm0 1.5c4.277 0 7.75 3.473 7.75 7.75s-3.473 7.75-7.75 7.75-7.75-3.473-7.75-7.75 3.473-7.75 7.75-7.75z"/><path d="m2.53 22.53 5.5-5.5c.293-.292.293-.768 0-1.06-.292-.293-.768-.293-1.06 0l-5.5 5.5c-.293.292-.293.768 0 1.06.292.293.768.293 1.06 0z"/></g></svg>