<svg clip-rule="evenodd" fill-rule="evenodd" height="512" stroke-linejoin="round" stroke-miterlimit="2" viewBox="0 0 24 24" width="512" xmlns="http://www.w3.org/2000/svg"><g id="Icon"><path d="m16.25 5c0-.995-.395-1.948-1.098-2.652-.704-.703-1.657-1.098-2.652-1.098-.331 0-.669 0-1 0-.995 0-1.948.395-2.652 1.098-.703.704-1.098 1.657-1.098 2.652v3.5c0 .995.395 1.948 1.098 2.652.704.703 1.657 1.098 2.652 1.098h1c.995 0 1.948-.395 2.652-1.098.703-.704 1.098-1.657 1.098-2.652zm-1.5 0v3.5c0 .597-.237 1.169-.659 1.591s-.994.659-1.591.659h-1c-.597 0-1.169-.237-1.591-.659s-.659-.994-.659-1.591v-3.5c0-.597.237-1.169.659-1.591s.994-.659 1.591-.659h1c.597 0 1.169.237 1.591.659s.659.994.659 1.591z"/><path d="m10.5 20.75h3.752c.662 0 1.298-.263 1.766-.732.469-.468.732-1.103.732-1.766 0-.001 0-.003 0-.004 0-.663-.263-1.298-.732-1.766-.468-.469-1.104-.732-1.766-.732-.659 0-1.252 0-1.252 0-.414 0-.75.336-.75.75s.336.75.75.75h1.252c.265 0 .519.105.706.292s.292.441.292.706v.004c0 .265-.105.519-.292.706s-.441.292-.706.292h-3.752c-.414 0-.75.336-.75.75s.336.75.75.75z"/><path d="m19.25 22v-8.5c0-.995-.395-1.948-1.098-2.652-.704-.703-1.657-1.098-2.652-1.098-.414 0-.75.336-.75.75s.336.75.75.75c.597 0 1.169.237 1.591.659s.659.994.659 1.591v8.5c0 .414.336.75.75.75s.75-.336.75-.75z"/><path d="m8.5 9.75c-.995 0-1.948.395-2.652 1.098-.703.704-1.098 1.657-1.098 2.652v5.5c0 .966.783 1.75 1.75 1.75h4.5c.414 0 .75-.336.75-.75s-.336-.75-.75-.75h-4.5c-.138 0-.25-.112-.25-.25v-5.5c0-.597.237-1.169.659-1.591s.994-.659 1.591-.659c.414 0 .75-.336.75-.75s-.336-.75-.75-.75z"/><path d="m15.5 5.25h-7c-.414 0-.75.336-.75.75s.336.75.75.75h7c.414 0 .75-.336.75-.75s-.336-.75-.75-.75z"/><path d="m5.75 20v2c0 .414.336.75.75.75s.75-.336.75-.75v-2c0-.414-.336-.75-.75-.75s-.75.336-.75.75z"/><path d="m8.878 6.648 5.5-3.208c.357-.209.478-.669.27-1.026-.209-.358-.668-.479-1.026-.27l-5.5 3.208c-.357.209-.478.668-.27 1.026.209.357.668.478 1.026.27z"/><path d="m12.488 10.952-7.5 7c-.302.282-.319.757-.036 1.06.282.302.757.319 1.06.036l7.5-7c.302-.282.319-.757.036-1.06-.282-.302-.757-.319-1.06-.036z"/><path d="m10.592 20.46 7-9c.254-.326.195-.798-.132-1.052-.326-.254-.798-.195-1.052.132l-7 9c-.254.326-.195.798.132 1.052.326.254.798.195 1.052-.132z"/></g></svg>