<svg clip-rule="evenodd" fill-rule="evenodd" height="512" stroke-linejoin="round" stroke-miterlimit="2" viewBox="0 0 24 24" width="512" xmlns="http://www.w3.org/2000/svg"><g id="Icon"><path d="m12 1.25c-5.933 0-10.75 4.817-10.75 10.75s4.817 10.75 10.75 10.75 10.75-4.817 10.75-10.75-4.817-10.75-10.75-10.75zm0 1.5c5.105 0 9.25 4.145 9.25 9.25s-4.145 9.25-9.25 9.25-9.25-4.145-9.25-9.25 4.145-9.25 9.25-9.25z"/><path d="m12 7.25c-2.622 0-4.75 2.128-4.75 4.75s2.128 4.75 4.75 4.75 4.75-2.128 4.75-4.75-2.128-4.75-4.75-4.75zm0 1.5c1.794 0 3.25 1.456 3.25 3.25s-1.456 3.25-3.25 3.25-3.25-1.456-3.25-3.25 1.456-3.25 3.25-3.25z"/><path d="m15.5 3.25h4c.69 0 1.25.56 1.25 1.25v4c0 .414.336.75.75.75s.75-.336.75-.75v-4c0-1.519-1.231-2.75-2.75-2.75h-4c-.414 0-.75.336-.75.75s.336.75.75.75z"/><path d="m15.5 22.25h4c1.519 0 2.75-1.231 2.75-2.75v-4c0-.414-.336-.75-.75-.75s-.75.336-.75.75v4c0 .69-.56 1.25-1.25 1.25h-4c-.414 0-.75.336-.75.75s.336.75.75.75z"/><path d="m8.5 1.75h-4c-1.519 0-2.75 1.231-2.75 2.75v4c0 .414.336.75.75.75s.75-.336.75-.75v-4c0-.69.56-1.25 1.25-1.25h4c.414 0 .75-.336.75-.75s-.336-.75-.75-.75z"/><path d="m8.5 20.75h-4c-.69 0-1.25-.56-1.25-1.25v-4c0-.414-.336-.75-.75-.75s-.75.336-.75.75v4c0 1.519 1.231 2.75 2.75 2.75h4c.414 0 .75-.336.75-.75s-.336-.75-.75-.75z"/><path d="m16 12.75h6c.414 0 .75-.336.75-.75s-.336-.75-.75-.75h-6c-.414 0-.75.336-.75.75s.336.75.75.75z"/><path d="m12.75 8v-6c0-.414-.336-.75-.75-.75s-.75.336-.75.75v6c0 .414.336.75.75.75s.75-.336.75-.75z"/><path d="m2 12.75h6c.414 0 .75-.336.75-.75s-.336-.75-.75-.75h-6c-.414 0-.75.336-.75.75s.336.75.75.75z"/><path d="m12.75 22v-6c0-.414-.336-.75-.75-.75s-.75.336-.75.75v6c0 .414.336.75.75.75s.75-.336.75-.75z"/></g></svg>