<svg clip-rule="evenodd" fill-rule="evenodd" stroke-linejoin="round" stroke-miterlimit="2" viewBox="0 0 32 32" xmlns="http://www.w3.org/2000/svg" xmlns:serif="http://www.serif.com/"><path id="phone-notch-smart-screen" d="m0 0h32v32h-32z" fill="none"/><path d="m19 4h-6v1c0 .53.211 1.039.586 1.414s.884.586 1.414.586h2c1.105 0 2-.895 2-2z"/><path d="m22.029 3.019c1.546.028 2.928 1.364 2.958 2.958.041 6.682.041 13.364 0 20.046-.029 1.541-1.339 2.928-2.958 2.958-4.019.025-8.039.025-12.058 0-1.545-.029-2.928-1.364-2.958-2.958-.041-6.682-.041-13.364 0-20.046.029-1.546 1.365-2.929 2.958-2.958 4.019-.025 8.039-.025 12.058 0zm-12.017 1.997c-.522.003-.992.456-1.002.986-.041 6.669-.124 13.34 0 20.009.016.51.467.964.986.973 4.007.025 8.014.075 12.02 0 .513-.016.964-.469.974-.986.041-6.669.124-13.34 0-20.009-.016-.511-.467-.964-.986-.973-3.997-.025-7.995 0-11.992 0z"/></svg>