<svg clip-rule="evenodd" fill-rule="evenodd" height="512" stroke-linejoin="round" stroke-miterlimit="2" viewBox="0 0 24 24" width="512" xmlns="http://www.w3.org/2000/svg"><g id="Icon"><path d="m18.75 8c0-3.725-3.025-6.75-6.75-6.75s-6.75 3.025-6.75 6.75 3.025 6.75 6.75 6.75 6.75-3.025 6.75-6.75zm-1.5 0c0 2.898-2.352 5.25-5.25 5.25s-5.25-2.352-5.25-5.25 2.352-5.25 5.25-5.25 5.25 2.352 5.25 5.25z"/><path d="m13.5 5.25h-2c-.968 0-1.75.784-1.75 1.75s.782 1.75 1.75 1.75h1c.138 0 .25.112.25.25s-.112.25-.25.25h-2c-.414 0-.75.336-.75.75s.336.75.75.75h2c.968 0 1.75-.784 1.75-1.75s-.782-1.75-1.75-1.75h-1c-.138 0-.25-.112-.25-.25s.112-.25.25-.25h2c.414 0 .75-.336.75-.75s-.336-.75-.75-.75z"/><path d="m11.25 5v1c0 .414.336.75.75.75s.75-.336.75-.75v-1c0-.414-.336-.75-.75-.75s-.75.336-.75.75z"/><path d="m11.25 10v1c0 .414.336.75.75.75s.75-.336.75-.75v-1c0-.414-.336-.75-.75-.75s-.75.336-.75.75z"/><path d="m11.25 13.999v8c0 .414.336.751.75.75.414 0 .75-.336.75-.75v-8c0-.413-.336-.749-.75-.75-.414 0-.75.337-.75.75z"/><path d="m6 15.749c-.414 0-.75.336-.75.751v.803c0 2.18 1.767 3.946 3.946 3.946h2.804c.414 0 .75-.335.75-.75v-.804c0-2.179-1.767-3.946-3.946-3.946zm.75 1.5h2.054c1.351 0 2.446 1.096 2.446 2.446v.055c0-.001-2.054-.001-2.054-.001-1.351 0-2.446-1.095-2.446-2.446z"/><path d="m18.75 15.5c0-.415-.336-.751-.75-.751h-2.6c-2.292 0-4.15 1.858-4.15 4.151 0-.001 0 .599 0 .599 0 .415.336.75.75.75h2.6c2.292 0 4.15-1.857 4.15-4.15zm-1.504.75c-.078 1.393-1.233 2.5-2.646 2.5h-1.846c.078-1.394 1.233-2.5 2.646-2.5z"/></g></svg>