<svg clip-rule="evenodd" fill-rule="evenodd" height="512" stroke-linejoin="round" stroke-miterlimit="2" viewBox="0 0 24 24" width="512" xmlns="http://www.w3.org/2000/svg"><g id="Icon"><path d="m15.256 7.496 2.904-2.904c.765-.764.765-2.004 0-2.769-.765-.764-2.004-.764-2.769 0l-3.673 3.674v-.93c0-1.081-.877-1.958-1.958-1.958-1.051 0-1.909.829-1.956 1.869 0-.003-1.414 6.315-1.414 6.315-.135.602-.438 1.153-.874 1.588-.698.699-1.588 1.589-1.588 1.589-.293.293-.293.768 0 1.061l5.466 5.466c.293.293.768.293 1.061 0 0 0 .791-.792 1.467-1.467.497-.497 1.142-.82 1.838-.919.028-.004.055-.008.082-.012.803-.115 1.547-.487 2.121-1.061l5.955-5.955c.765-.764.765-2.004 0-2.768-.765-.765-2.004-.765-2.769 0l-2.904 2.903c-.292.293-.292.768 0 1.061.293.293.768.293 1.061 0l2.904-2.904c.179-.179.469-.179.647 0 .179.179.179.469 0 .648 0 0-5.954 5.955-5.954 5.955-.345.344-.791.567-1.273.636-.027.004-.055.008-.082.012-1.017.145-1.96.616-2.687 1.343 0 0-.936.937-.936.937s-4.406-4.406-4.406-4.406 1.058-1.058 1.058-1.058c.637-.637 1.08-1.442 1.277-2.321.47-2.101 1.43-6.39 1.43-6.39.012-.054.018-.109.018-.164 0-.253.205-.458.458-.458s.458.205.458.458v2.741c0 .303.182.576.463.692.28.117.603.052.817-.162l4.954-4.954c.179-.179.469-.179.647 0 .179.179.179.469 0 .648 0 0-2.904 2.904-2.904 2.904-.292.292-.292.768 0 1.06.293.293.768.293 1.061 0z"/><path d="m18.672 10.913 2.904-2.904c.765-.765.765-2.005 0-2.769-.764-.765-2.004-.765-2.768 0l-2.904 2.904c-.293.292-.293.768 0 1.06.292.293.768.293 1.06 0l2.904-2.903c.179-.179.469-.179.648-.001.179.179.179.469 0 .648 0 0-2.904 2.904-2.904 2.904-.293.293-.293.768 0 1.061.293.292.768.292 1.06 0z"/><path d="m17.648 8.521 2.903-2.904c.765-.764.765-2.004 0-2.769-.764-.764-2.004-.764-2.768 0l-2.904 2.904c-.293.293-.293.768 0 1.061.292.293.768.293 1.06 0l2.904-2.904c.179-.179.469-.179.648 0s.179.469 0 .648c0 0-2.904 2.903-2.904 2.903-.293.293-.293.768 0 1.061s.768.293 1.061 0z"/><path d="m10.165 21.621c.328-.328.512-.773.512-1.238 0-.464-.184-.909-.512-1.237-1.244-1.244-3.809-3.809-5.052-5.052-.329-.328-.774-.513-1.238-.513s-.909.185-1.237.513c-.067.067-.136.135-.203.202-.328.328-.512.773-.512 1.238 0 .464.184.909.512 1.237l5.052 5.052c.329.328.774.513 1.238.513s.909-.185 1.237-.513zm-1.061-1.061-.202.203c-.047.046-.111.073-.177.073s-.13-.027-.177-.073c-1.244-1.244-3.808-3.809-5.052-5.053-.047-.047-.073-.11-.073-.176 0-.067.026-.13.073-.177l.202-.203c.047-.046.111-.073.177-.073s.13.027.177.073c1.244 1.244 3.808 3.809 5.052 5.053.047.047.073.11.073.176 0 .067-.026.13-.073.177z"/></g></svg>