<svg clip-rule="evenodd" fill-rule="evenodd" height="512" stroke-linejoin="round" stroke-miterlimit="2" viewBox="0 0 24 24" width="512" xmlns="http://www.w3.org/2000/svg"><g id="Icon"><path d="m7.5 2.25h-2.5c-.729 0-1.429.29-1.945.805-.515.516-.805 1.216-.805 1.945v2c0 .414.336.75.75.75s.75-.336.75-.75v-2c0-.332.132-.649.366-.884.235-.234.552-.366.884-.366h2.5c.414 0 .75-.336.75-.75s-.336-.75-.75-.75z"/><path d="m2.25 12v8c0 1.519 1.231 2.75 2.75 2.75h15c1.519 0 2.75-1.231 2.75-2.75v-15c0-1.519-1.231-2.75-2.75-2.75h-7.5c-.414 0-.75.336-.75.75s.336.75.75.75h7.5c.69 0 1.25.56 1.25 1.25v15c0 .69-.56 1.25-1.25 1.25h-15c-.69 0-1.25-.56-1.25-1.25v-8c0-.414-.336-.75-.75-.75s-.75.336-.75.75z"/><path d="m5.25 7.5c0-.331-.132-.649-.366-.884-.235-.234-.552-.366-.884-.366h-1.5c-.332 0-.649.132-.884.366-.234.235-.366.553-.366.884v4c0 .331.132.649.366.884.235.234.552.366.884.366h1.5c.332 0 .649-.132.884-.366.234-.235.366-.553.366-.884zm-2.5 3.75h1v-3.5h-1z"/><path d="m12 5.25c.331 0 .649-.132.884-.366.234-.235.366-.552.366-.884v-1.5c0-.332-.132-.649-.366-.884-.235-.234-.553-.366-.884-.366-.958 0-3.042 0-4 0-.331 0-.649.132-.884.366-.234.235-.366.552-.366.884v1.5c0 .332.132.649.366.884.235.234.553.366.884.366zm-3.75-1.5h3.5v-1h-3.5z"/><path d="m13.3 15.25c1.076 0 1.95-.874 1.95-1.95v-3.6c0-1.076-.874-1.95-1.95-1.95h-3.6c-1.076 0-1.95.874-1.95 1.95v3.6c0 1.076.874 1.95 1.95 1.95zm0-1.5h-3.6c-.248 0-.45-.202-.45-.45v-3.6c0-.248.202-.45.45-.45h3.6c.248 0 .45.202.45.45v3.6c0 .248-.202.45-.45.45z"/><path d="m18.4 19.75c.745 0 1.35-.605 1.35-1.35v-1.8c0-.745-.605-1.35-1.35-1.35h-1.8c-.745 0-1.35.605-1.35 1.35v1.8c0 .745.605 1.35 1.35 1.35zm-1.65-3v1.5h1.5v-1.5z"/><path d="m13 16.75h-4c-.414 0-.75.336-.75.75s.336.75.75.75h4c.414 0 .75-.336.75-.75s-.336-.75-.75-.75z"/><path d="m18.25 13v-7c0-.414-.336-.75-.75-.75s-.75.336-.75.75v7c0 .414.336.75.75.75s.75-.336.75-.75z"/><path d="m7.5 17.5c0 .414-.336.75-.75.75s-.75-.336-.75-.75.336-.75.75-.75.75.336.75.75" fill-rule="nonzero"/></g></svg>