<svg clip-rule="evenodd" fill-rule="evenodd" height="512" stroke-linejoin="round" stroke-miterlimit="2" viewBox="0 0 24 24" width="512" xmlns="http://www.w3.org/2000/svg"><g id="Icon"><path d="m12 1.25c-1.26 0-2.468.5-3.359 1.391s-1.391 2.099-1.391 3.359v5.5c0 1.26.5 2.468 1.391 3.359s2.099 1.391 3.359 1.391 2.468-.5 3.359-1.391 1.391-2.099 1.391-3.359c0-1.736 0-3.764 0-5.5 0-1.26-.5-2.468-1.391-3.359s-2.099-1.391-3.359-1.391zm0 13.5c-.862 0-1.689-.342-2.298-.952-.61-.609-.952-1.436-.952-2.298 0-1.736 0-3.764 0-5.5 0-.862.342-1.689.952-2.298.609-.61 1.436-.952 2.298-.952.862 0 1.689.342 2.298.952.61.609.952 1.436.952 2.298v5.5c0 .862-.342 1.689-.952 2.298-.609.61-1.436.952-2.298.952z"/><path d="m12 17.75c-3.215 0-5.821-2.606-5.821-5.821 0-.414-.336-.75-.75-.75s-.75.336-.75.75c0 4.043 3.277 7.321 7.321 7.321s7.321-3.278 7.321-7.321c0-.414-.336-.75-.75-.75s-.75.336-.75.75c0 3.215-2.606 5.821-5.821 5.821z"/><path d="m11.25 18.5v3.5c0 .414.336.75.75.75s.75-.336.75-.75v-3.5c0-.414-.336-.75-.75-.75s-.75.336-.75.75z"/></g></svg>