<?xml version="1.0"?>
<svg xmlns="http://www.w3.org/2000/svg" viewBox="0 0 32 32" width="512" height="512"><g id="speaker_speaking_device" data-name="speaker, speaking, device"><path d="M11,20a5,5,0,1,0,5-5A5.0059,5.0059,0,0,0,11,20Zm5-3a3,3,0,1,1-3,3A3.0033,3.0033,0,0,1,16,17Z"/><path d="M19,10a3,3,0,1,0-3,3A3.0033,3.0033,0,0,0,19,10Zm-4,0a1,1,0,1,1,1,1A1.0013,1.0013,0,0,1,15,10Z"/><path d="M25.1494,5.7505A2.9819,2.9819,0,0,0,22.16,3H9.84A2.9819,2.9819,0,0,0,6.8506,5.751L5.1846,25.75A3,3,0,0,0,8.1738,29H18a1,1,0,0,0,0-2H8.1738a1,1,0,0,1-.9961-1.083L8.8438,5.9175A.9942.9942,0,0,1,9.84,5H22.16a.9943.9943,0,0,1,.9961.917l1.666,20.0015A1,1,0,0,1,23.8262,27H22a1,1,0,0,0,0,2h1.8262a3,3,0,0,0,2.9892-3.249Z"/></g></svg>
