<svg clip-rule="evenodd" fill-rule="evenodd" height="512" stroke-linejoin="round" stroke-miterlimit="2" viewBox="0 0 24 24" width="512" xmlns="http://www.w3.org/2000/svg"><g id="Icon"><circle cx="12" cy="9.5" r="1"/><path d="m12 2c-5.657 0-10.25 4.593-10.25 10.25s4.593 10.25 10.25 10.25 10.25-4.593 10.25-10.25-4.593-10.25-10.25-10.25zm0 1.5c4.829 0 8.75 3.921 8.75 8.75s-3.921 8.75-8.75 8.75-8.75-3.921-8.75-8.75 3.921-8.75 8.75-8.75z"/><path d="m4.5 18.25h3.167c.378 0 .747-.123 1.05-.35l1.466-1.1c.044-.032.096-.05.15-.05h3.334c.054 0 .106.018.15.05l1.466 1.1c.303.227.672.35 1.05.35h3.167c.414 0 .75-.336.75-.75s-.336-.75-.75-.75h-3.167c-.054 0-.106-.018-.15-.05l-1.466-1.1c-.303-.227-.672-.35-1.05-.35-.754 0-2.58 0-3.334 0-.378 0-.747.123-1.05.35l-1.466 1.1c-.044.032-.096.05-.15.05h-3.167c-.414 0-.75.336-.75.75s.336.75.75.75z"/><path d="m11 6.75h2c.414 0 .75-.336.75-.75s-.336-.75-.75-.75h-2c-.414 0-.75.336-.75.75s.336.75.75.75z"/><path d="m7.75 3.75v6.25c0 .995.395 1.948 1.098 2.652.704.703 1.657 1.098 2.652 1.098h1c.995 0 1.948-.395 2.652-1.098.703-.704 1.098-1.657 1.098-2.652 0-2.701 0-6.25 0-6.25 0-.414-.336-.75-.75-.75s-.75.336-.75.75v6.25c0 .597-.237 1.169-.659 1.591s-.994.659-1.591.659h-1c-.597 0-1.169-.237-1.591-.659s-.659-.994-.659-1.591v-6.25c0-.414-.336-.75-.75-.75s-.75.336-.75.75z"/><path d="m19.28 5.78 3.25-3.25c.293-.292.293-.768 0-1.06-.292-.293-.768-.293-1.06 0l-3.25 3.25c-.293.292-.293.768 0 1.06.292.293.768.293 1.06 0z"/><path d="m5.78 4.72-3.25-3.25c-.292-.293-.768-.293-1.06 0-.293.292-.293.768 0 1.06l3.25 3.25c.292.293.768.293 1.06 0 .293-.292.293-.768 0-1.06z"/></g></svg>