<svg clip-rule="evenodd" fill-rule="evenodd" height="512" stroke-linejoin="round" stroke-miterlimit="2" viewBox="0 0 24 24" width="512" xmlns="http://www.w3.org/2000/svg"><g id="Icon"><path d="m6.4 4.55-1.892 2.522c-.353.472-.329 1.128.06 1.572.388.444 1.035.556 1.55.269.028-.016.055-.033.081-.052.111-.083.261-.111.471-.111.589 0 .807.303 1.112.515.383.264.824.485 1.559.485s1.175-.221 1.557-.486c.305-.211.523-.514 1.109-.514.587 0 .804.303 1.109.514.382.265.822.486 1.557.486.734 0 1.175-.221 1.557-.486.305-.211.522-.514 1.108-.514.246 0 .418.05.56.129.5.278 1.128.169 1.505-.263.374-.428.401-1.057.067-1.515-.831-1.166-1.87-2.551-1.87-2.551-.142-.189-.364-.3-.6-.3h-10c-.236 0-.458.111-.6.3zm-.174 2.732 1.149-1.532h9.249c.252.337.682.919 1.123 1.526-.126-.017-.261-.026-.409-.026-.735 0-1.175.22-1.557.485-.305.211-.522.515-1.108.515s-.804-.304-1.109-.515c-.382-.265-.822-.485-1.557-.485s-1.175.22-1.557.485c-.305.211-.522.515-1.109.515-.588 0-.806-.304-1.112-.515-.382-.265-.823-.485-1.559-.485-.161 0-.308.011-.444.032z"/><path d="m17.659 7.633c-.157-.252-.449-.387-.743-.345-.553.08-.915.297-1.25.54-.26.188-.483.421-.993.421-.587 0-.804-.303-1.109-.514-.382-.265-.822-.486-1.557-.486s-1.175.221-1.557.486c-.305.211-.522.514-1.109.514-.514 0-.739-.235-1-.424-.337-.243-.701-.46-1.258-.538-.294-.042-.585.094-.742.347 0 0-.861 1.385-1.565 2.52-.663 1.066-1.015 2.297-1.016 3.553-.002 1.743-.005 4.446-.008 6.289 0 .73.289 1.43.805 1.947.516.516 1.215.806 1.945.806h11.008c.73 0 1.429-.29 1.945-.806.516-.517.805-1.217.805-1.947-.003-1.84-.006-4.539-.008-6.282-.001-1.261-.356-2.496-1.023-3.565-.707-1.133-1.57-2.516-1.57-2.516zm-.963 1.29 1.26 2.02c.519.832.795 1.792.796 2.773.002 1.743.005 4.442.008 6.282 0 .332-.132.65-.366.885-.234.234-.553.366-.884.366-2.873 0-8.135 0-11.008 0-.331 0-.65-.132-.884-.366-.234-.235-.366-.553-.366-.885 0 0 .008-6.289.008-6.289.001-.977.275-1.934.79-2.764 0 0 1.258-2.025 1.258-2.025.213.121.369.287.567.413.364.231.793.416 1.466.416.735 0 1.175-.22 1.557-.485.305-.211.522-.515 1.109-.515s.804.304 1.109.515c.382.265.822.485 1.557.485.671 0 1.099-.185 1.461-.416.197-.125.352-.289.562-.41z"/><path d="m13.712 18.25c1.126 0 2.039-.914 2.039-2.038v-2.424c0-1.125-.913-2.038-2.039-2.038h-3.424c-1.126 0-2.037.913-2.037 2.038v2.424c0 1.125.911 2.038 2.038 2.038zm0-1.5h-3.423c-.298 0-.538-.241-.538-.538v-2.424c0-.297.24-.538.538-.538h3.422c.298 0 .54.24.54.538v2.424c0 .297-.242.538-.539.538z"/><path d="m18.75 3.502c0-.002 0-.003 0-.004 0-.596-.237-1.168-.658-1.59-.422-.421-.994-.658-1.59-.658-2.306 0-6.698 0-9.004 0-.596 0-1.168.237-1.59.658-.421.422-.658.994-.658 1.59v.004c0 .596.237 1.168.658 1.589.422.422.994.659 1.59.659h9.004c.596 0 1.168-.237 1.59-.659.421-.421.658-.993.658-1.589zm-1.5-.004v.004c0 .198-.079.388-.219.529-.14.14-.331.219-.529.219h-9.004c-.198 0-.389-.079-.529-.219-.14-.141-.219-.331-.219-.529v-.004c0-.198.079-.389.219-.529s.331-.219.529-.219h9.004c.198 0 .389.079.529.219s.219.331.219.529z"/></g></svg>