<svg clip-rule="evenodd" fill-rule="evenodd" stroke-linejoin="round" stroke-miterlimit="2" viewBox="0 0 32 32" xmlns="http://www.w3.org/2000/svg" xmlns:serif="http://www.serif.com/"><path id="medal-achievement-winner" d="m0 0h32v32h-32z" fill="none"/><path d="m15.362 15.033 5.738-11.475c.18-.33.516-.54.894-.553h5.998c.023.001.045.002.068.003.459.047.486.146.614.266.318.298.436.707.206 1.191l-5.411 10.44c-.124.22-.189.27-.311.356-.706.499-1.938-.281-1.464-1.276l4.654-8.98h-3.736l-5.092 10.182c2.606.631 4.832 2.8 5.348 5.489.835 4.351-3.189 9.123-8.152 8.204-2.837-.526-5.223-2.992-5.644-5.86-.247-1.689.212-3.411 1.157-4.824l-7.117-13.731c-.102-.216-.106-.287-.111-.421-.021-.538.343-1.015.999-1.039h5.998c.024.001.049.002.074.003.346.039.649.237.82.55l3.999 7.997c.421.928-1.11 2.133-1.789.895l-3.722-7.445h-3.736l6.013 11.602c1.029-.857 2.3-1.437 3.705-1.574zm.601 1.968c-2.267.021-4.405 1.749-4.864 3.991-.458 2.236.835 4.716 2.953 5.613 2.332.987 5.336-.131 6.45-2.441 1.418-2.941-.775-7.082-4.409-7.162-.043-.001-.086-.001-.13-.001z"/></svg>