<svg clip-rule="evenodd" fill-rule="evenodd" height="512" stroke-linejoin="round" stroke-miterlimit="2" viewBox="0 0 24 24" width="512" xmlns="http://www.w3.org/2000/svg"><g id="Icon"><path d="m12 1.25c5.933 0 10.75 4.817 10.75 10.75s-4.817 10.75-10.75 10.75-10.75-4.817-10.75-10.75 4.817-10.75 10.75-10.75zm0 1.5c-5.105 0-9.25 4.145-9.25 9.25s4.145 9.25 9.25 9.25 9.25-4.145 9.25-9.25-4.145-9.25-9.25-9.25z"/><path d="m19.601 18.541c.293.292.293.768 0 1.06-.292.293-.768.293-1.06 0l-14.142-14.142c-.293-.292-.293-.768 0-1.06.292-.293.768-.293 1.06 0z"/><path d="m7.25 10c0-.414.336-.75.75-.75s.75.336.75.75v6.25h6.5v-6.25c0-.414.336-.75.75-.75s.75.336.75.75v7c0 .414-.336.75-.75.75h-8c-.414 0-.75-.336-.75-.75z"/><path d="m6.941 11.607c-.335.243-.804.169-1.048-.166-.243-.335-.169-.804.166-1.048l5.5-4c.263-.191.619-.191.882 0l5.5 4c.335.244.409.713.166 1.048-.244.335-.713.409-1.048.166l-5.059-3.68z"/><path d="m17 16.25c.414 0 .75.336.75.75s-.336.75-.75.75h-10c-.414 0-.75-.336-.75-.75s.336-.75.75-.75z"/></g></svg>