<svg height="512" viewBox="0 0 32 32" width="512" xmlns="http://www.w3.org/2000/svg"><g id="paypal_payment_pay" data-name="paypal, payment, pay"><path d="m26.28 9.58a6.64 6.64 0 0 0 -6.63-6.58h-9.65a1 1 0 0 0 -1 .84l-3.42 21.45a1 1 0 0 0 .23.8 1 1 0 0 0 .76.36h4.13l-.22 1.39a1 1 0 0 0 1 1.16h4.65a1 1 0 0 0 1-.83l1-6.11h3.15a7.46 7.46 0 0 0 7.43-7.45v-.28a5.87 5.87 0 0 0 -2.43-4.75zm-15.43-4.58h8.8a4.64 4.64 0 0 1 4.51 3.61 5.68 5.68 0 0 0 -1.32-.15h-8.34a1 1 0 0 0 -1 .84l-.59 3.7a1 1 0 0 0 2 .32l.46-2.88h7.49a3.87 3.87 0 0 1 1.4.27 6.47 6.47 0 0 1 -6.4 5.69h-4.64a1 1 0 0 0 -1 .83l-1.22 7.22h-3.26zm15.86 9.61a5.46 5.46 0 0 1 -5.43 5.45h-4a1 1 0 0 0 -1 .83l-1 6.11h-2.64l.22-1.39 1.2-7.19h3.78a8.46 8.46 0 0 0 8.16-6.32 3.82 3.82 0 0 1 .71 2.23z"/></g></svg>