<svg clip-rule="evenodd" fill-rule="evenodd" height="512" stroke-linejoin="round" stroke-miterlimit="2" viewBox="0 0 24 24" width="512" xmlns="http://www.w3.org/2000/svg"><g id="Icon"><path d="m21.553 10.06-1.117-.372c-.195-.712-.479-1.388-.838-2.015l.529-1.057c.336-.673.205-1.486-.327-2.019l-.397-.397c-.533-.532-1.346-.663-2.019-.327l-1.057.528c-.627-.358-1.303-.642-2.016-.837.001 0-.371-1.117-.371-1.117-.238-.715-.908-1.197-1.661-1.197h-.558c-.753 0-1.423.482-1.661 1.197 0 0-.372 1.117-.372 1.117-.712.195-1.388.479-2.015.838l-1.057-.529c-.673-.336-1.486-.205-2.019.327l-.397.397c-.532.533-.663 1.346-.327 2.019l.529 1.059c-.352.624-.625 1.299-.818 2.007 0 0-1.137.378-1.137.378-.715.238-1.197.908-1.197 1.661v.558c0 .753.482 1.423 1.197 1.661 0 0 1.137.378 1.137.378.193.708.466 1.383.819 2.008-.001 0-.53 1.059-.53 1.059-.336.671-.205 1.485.327 2.018l.397.397c.533.532 1.346.663 2.019.327l1.059-.529c.624.352 1.299.625 2.007.818 0-.001.378 1.137.378 1.137.238.715.908 1.197 1.661 1.197h.558c.753 0 1.423-.482 1.661-1.197 0 0 .378-1.138.378-1.138.708-.192 1.383-.465 2.008-.817l1.058.529c.673.336 1.486.205 2.019-.327l.397-.397c.532-.533.663-1.347.327-2.018 0 0-.529-1.058-.529-1.058.359-.627.643-1.303.838-2.016 0 .001 1.117-.371 1.117-.371.715-.238 1.197-.908 1.197-1.661v-.558c0-.753-.482-1.423-1.197-1.661zm-1.983.921 1.509.503c.103.034.171.13.171.237v.558c0 .107-.068.203-.171.237l-1.509.503c-.251.084-.439.293-.495.55-.185.838-.517 1.62-.964 2.32-.142.223-.157.503-.039.739l.713 1.427c.048.097.029.213-.047.29 0 0-.393.393-.393.393-.077.076-.194.095-.291.047 0 0-1.426-.713-1.426-.713-.235-.118-.516-.103-.738.038-.699.445-1.484.758-2.317.945-.257.058-.465.246-.548.495l-.509 1.529c-.034.103-.13.171-.237.171h-.558c-.107 0-.203-.068-.237-.171l-.509-1.529c-.083-.249-.291-.437-.548-.495-.833-.187-1.618-.5-2.317-.945-.222-.141-.503-.156-.738-.038l-1.426.713c-.097.048-.214.029-.291-.047 0 0-.393-.393-.393-.393-.076-.077-.095-.193-.047-.29l.713-1.427c.118-.235.103-.516-.038-.738-.446-.699-.759-1.485-.946-2.318-.058-.256-.246-.464-.495-.547l-1.528-.509c-.103-.034-.171-.13-.171-.237v-.558c0-.107.068-.203.171-.237l1.528-.509c.249-.083.437-.291.495-.547.187-.833.5-1.619.946-2.318.141-.222.156-.503.038-.738l-.713-1.426c-.048-.097-.029-.214.047-.291 0 0 .393-.393.393-.393.077-.076.194-.095.291-.047 0 0 1.426.713 1.426.713.236.118.516.103.739-.039.7-.447 1.482-.779 2.32-.964.257-.056.466-.244.55-.495l.503-1.509c.034-.103.13-.171.237-.171h.558c.107 0 .203.068.237.171l.503 1.509c.084.251.293.439.55.495.838.185 1.62.517 2.32.964.223.142.503.157.739.039l1.426-.713c.097-.048.214-.029.291.047 0 0 .393.393.393.393.076.077.095.194.047.291 0 0-.713 1.426-.713 1.426-.118.236-.103.516.039.739.447.7.779 1.482.964 2.32.056.257.244.466.495.55zm-7.57 5.769c2.623 0 4.75-2.127 4.75-4.75s-2.127-4.75-4.75-4.75-4.75 2.127-4.75 4.75 2.127 4.75 4.75 4.75zm0-1.5c-1.795 0-3.25-1.455-3.25-3.25s1.455-3.25 3.25-3.25 3.25 1.455 3.25 3.25-1.455 3.25-3.25 3.25z"/></g></svg>