<svg clip-rule="evenodd" fill-rule="evenodd" height="512" stroke-linejoin="round" stroke-miterlimit="2" viewBox="0 0 24 24" width="512" xmlns="http://www.w3.org/2000/svg"><g id="Icon"><path d="m12 22.75c4.28 0 7.75-3.47 7.75-7.75v-6c0-4.28-3.47-7.75-7.75-7.75s-7.75 3.47-7.75 7.75v6c0 4.28 3.47 7.75 7.75 7.75zm0-1.5c-3.452 0-6.25-2.798-6.25-6.25v-6c0-3.452 2.798-6.25 6.25-6.25s6.25 2.798 6.25 6.25v6c0 3.452-2.798 6.25-6.25 6.25z"/><path d="m12 13.75c1.518 0 2.75-1.232 2.75-2.75v-1c0-1.518-1.232-2.75-2.75-2.75s-2.75 1.232-2.75 2.75v1c0 1.518 1.232 2.75 2.75 2.75zm0-1.5c-.69 0-1.25-.56-1.25-1.25v-1c0-.69.56-1.25 1.25-1.25s1.25.56 1.25 1.25v1c0 .69-.56 1.25-1.25 1.25z"/><path d="m11.25 2v6c0 .414.336.75.75.75s.75-.336.75-.75v-6c0-.414-.336-.75-.75-.75s-.75.336-.75.75z"/><path d="m11.25 13v3c0 .414.336.75.75.75s.75-.336.75-.75v-3c0-.414-.336-.75-.75-.75s-.75.336-.75.75z"/></g></svg>