<svg clip-rule="evenodd" fill-rule="evenodd" height="512" stroke-linejoin="round" stroke-miterlimit="2" viewBox="0 0 24 24" width="512" xmlns="http://www.w3.org/2000/svg"><g id="Icon"><path d="m9.104 2.246v5.25c0 .414.336.75.75.75.413 0 .75-.336.75-.75v-5.25c0-.414-.337-.75-.75-.75-.414 0-.75.336-.75.75z"/><path d="m14.871 7.482v-5.242c0-.414-.336-.75-.75-.75s-.75.336-.75.75v5.242c0 .414.336.75.75.75s.75-.336.75-.75z"/><path d="m7.482 9.129h-5.254c-.414 0-.75.336-.75.75s.336.75.75.75h5.254c.414 0 .75-.336.75-.75s-.336-.75-.75-.75z"/><path d="m2.245 14.897h5.247c.414 0 .75-.336.75-.75s-.336-.75-.75-.75h-5.247c-.414 0-.75.336-.75.75s.336.75.75.75z"/><path d="m14.897 21.756-.001-5.242c0-.414-.336-.75-.75-.75s-.75.336-.75.75l.001 5.242c0 .414.336.75.75.75s.75-.336.75-.75z"/><path d="m9.129 16.523-.001 5.238c0 .414.336.75.75.75s.75-.336.75-.75l.001-5.238c0-.413-.336-.75-.75-.75s-.75.336-.75.75z"/><path d="m16.522 14.872h5.238c.414 0 .75-.336.75-.75s-.336-.75-.75-.75h-5.238c-.414 0-.75.336-.75.75s.336.75.75.75z"/><path d="m21.754 9.104h-5.242c-.414 0-.75.336-.75.75s.336.75.75.75h5.242c.414 0 .75-.336.75-.75s-.336-.75-.75-.75z"/><path d="m20.821 5.868c-.721-1.054-1.635-1.968-2.688-2.689-1.737-1.219-3.849-1.929-6.133-1.929-2.419 0-4.655.802-6.45 2.151-.919.688-1.726 1.521-2.372 2.467-1.219 1.737-1.928 3.849-1.928 6.132 0 2.285.71 4.397 1.929 6.133.721 1.053 1.635 1.968 2.688 2.689 1.737 1.219 3.849 1.928 6.133 1.928s4.396-.709 6.133-1.928c1.053-.721 1.967-1.636 2.688-2.689 1.219-1.736 1.929-3.848 1.929-6.133 0-2.284-.71-4.396-1.929-6.132zm-1.235.851c.002.002.004.005.005.008 1.05 1.493 1.659 3.309 1.659 5.273 0 1.965-.609 3.781-1.659 5.274-.001.003-.003.005-.005.008-.618.902-1.401 1.687-2.304 2.304-.003.002-.006.004-.008.006-1.493 1.049-3.31 1.658-5.274 1.658s-3.781-.609-5.274-1.658c-.002-.002-.005-.004-.008-.006-.903-.617-1.686-1.402-2.304-2.304-.002-.003-.004-.005-.005-.008-1.05-1.493-1.659-3.309-1.659-5.274 0-1.964.609-3.78 1.659-5.273.002-.003.004-.006.006-.009.553-.812 1.246-1.527 2.034-2.117.001 0 .001-.001.002-.001 1.544-1.161 3.468-1.85 5.549-1.85 1.964 0 3.781.61 5.274 1.659.002.002.005.004.008.006.903.617 1.686 1.401 2.304 2.304zm-1.937 6.33c.065-.34.101-.69.101-1.049s-.037-.71-.101-1.051c-.413-2.249-2.141-4.042-4.356-4.55-.416-.101-.85-.149-1.293-.149-.626 0-1.224.102-1.785.286-1.979.644-3.488 2.338-3.865 4.419-.063.335-.1.686-.1 1.045 0 .36.037.711.101 1.052.423 2.333 2.264 4.175 4.603 4.598.336.064.686.1 1.046.1s.71-.036 1.051-.101c2.333-.422 4.174-2.262 4.598-4.6zm-1.474-.276c0 .002-.001.004-.001.006-.312 1.725-1.671 3.083-3.396 3.396-.002 0-.003 0-.005.001-.251.047-.509.074-.773.074s-.522-.027-.773-.074c-.002-.001-.003-.001-.005-.001-1.725-.313-3.084-1.671-3.396-3.396 0-.002-.001-.004-.001-.006-.048-.251-.075-.508-.075-.773 0-.264.027-.521.075-.772 0-.002.001-.004.001-.006.279-1.535 1.393-2.785 2.854-3.26.001-.001.001-.001.002-.001.414-.136.856-.211 1.318-.211.323 0 .639.033.942.107.004.001.007.002.011.003 1.638.373 2.916 1.699 3.221 3.364.001.001.001.003.001.004.048.251.075.508.075.772 0 .265-.027.522-.075.773zm1.475.273-.001.006z"/><path d="m8.5 1.75h-4c-1.518 0-2.75 1.232-2.75 2.75v4.001c0 .413.336.75.75.75.414-.001.75-.337.75-.751v-4c0-.69.56-1.25 1.25-1.25h4c.414 0 .75-.336.75-.75s-.336-.75-.75-.75z"/><path d="m8.5 20.75h-4c-.69 0-1.25-.56-1.25-1.25v-4c0-.414-.336-.75-.75-.751-.414 0-.75.337-.75.75v4.001c0 1.518 1.232 2.75 2.75 2.75h4c.414 0 .75-.336.75-.75s-.336-.75-.75-.75z"/><path d="m15.5 3.25h4c.69 0 1.25.56 1.25 1.25v4.001c0 .413.336.75.75.75.414-.001.75-.337.75-.751v-4c0-1.518-1.232-2.75-2.75-2.75h-4c-.414 0-.75.336-.75.75s.336.75.75.75z"/><path d="m15.5 22.25h4c1.518 0 2.75-1.232 2.75-2.75v-4.001c0-.413-.336-.749-.75-.75-.414 0-.75.337-.75.75v4.001c0 .69-.56 1.25-1.25 1.25h-4c-.414 0-.75.336-.75.75s.336.75.75.75z"/><path d="m17.75 12c0-.359-.037-.71-.101-1.051-.413-2.249-2.141-4.042-4.356-4.55-.416-.102-.85-.149-1.293-.149-.626 0-1.224.102-1.785.285-1.979.645-3.488 2.339-3.865 4.42-.064.335-.1.686-.1 1.045 0 .36.036.711.101 1.052.423 2.333 2.264 4.175 4.603 4.598.336.064.686.1 1.046.1s.71-.036 1.051-.101c2.334-.422 4.175-2.264 4.599-4.603.063-.335.1-.686.1-1.046zm-1.5 0c0 .265-.028.522-.075.773 0 .002-.001.004-.001.006-.312 1.725-1.671 3.083-3.396 3.395-.002.001-.004.001-.006.001-.25.048-.508.075-.772.075s-.522-.027-.773-.075c-.002 0-.004 0-.005-.001-1.725-.312-3.084-1.67-3.396-3.395 0-.002-.001-.004-.001-.006-.048-.251-.075-.508-.075-.773 0-.264.027-.521.075-.772 0-.002.001-.004.001-.006.278-1.535 1.393-2.785 2.854-3.26.001-.001.001-.001.002-.001.414-.136.856-.211 1.318-.211.323 0 .639.033.942.107.004.001.007.002.011.003 1.638.373 2.915 1.699 3.221 3.364 0 .001.001.003.001.004.047.251.075.508.075.772z"/></g></svg>