<svg clip-rule="evenodd" fill-rule="evenodd" height="512" stroke-linejoin="round" stroke-miterlimit="2" viewBox="0 0 24 24" width="512" xmlns="http://www.w3.org/2000/svg"><g id="Icon"><path d="m10.619 14.831c0 .067-.027.13-.074.177s-.11.073-.176.073h-1.4c-.414 0-.75.337-.75.75 0 .414.336.75.75.75h1.4c.464 0 .909-.184 1.237-.512s.513-.773.513-1.238c0-.464-.185-.909-.513-1.237s-.773-.513-1.237-.513h-.4c-.067 0-.13-.026-.177-.073s-.073-.11-.073-.177c0-.066.026-.129.073-.176s.11-.074.177-.074h1.4c.413 0 .75-.336.75-.75 0-.413-.337-.75-.75-.75h-1.4c-.465 0-.91.185-1.238.513s-.512.773-.512 1.237c0 .465.184.91.512 1.238s.773.512 1.238.512h.4c.066 0 .129.027.176.074s.074.11.074.176z"/><path d="m10.919 11.831v-1c0-.413-.337-.75-.75-.75-.414 0-.75.337-.75.75v1c0 .414.336.75.75.75.413 0 .75-.336.75-.75z"/><path d="m10.919 16.831v-1c0-.413-.337-.75-.75-.75-.414 0-.75.337-.75.75v1c0 .414.336.75.75.75.413 0 .75-.336.75-.75z"/><path d="m18.919 9.831c0-.596-.237-1.169-.659-1.591s-.995-.659-1.591-.659c-3.052 0-9.949 0-13 0-.597 0-1.169.237-1.591.659s-.659.995-.659 1.591v8c0 .597.237 1.169.659 1.591s.994.659 1.591.659h13c.596 0 1.169-.237 1.591-.659s.659-.994.659-1.591zm-1.5 0v8c0 .199-.079.39-.22.531-.141.14-.332.219-.53.219-3.052 0-9.949 0-13 0-.199 0-.39-.079-.531-.219-.14-.141-.219-.332-.219-.531v-8c0-.198.079-.389.219-.53.141-.141.332-.22.531-.22h13c.198 0 .389.079.53.22s.22.332.22.53z"/><path d="m18.363 16.753c.988-.265 1.869-.501 2.551-.684.576-.154 1.068-.531 1.366-1.048s.379-1.131.225-1.707c-.544-2.03-1.527-5.698-2.071-7.728-.154-.576-.531-1.068-1.048-1.366s-1.131-.379-1.707-.225c-2.948.79-10.257 2.749-13.205 3.538-.399.107-.637.519-.53.919s.519.637.919.53c2.947-.79 10.257-2.748 13.204-3.538.192-.051.397-.024.569.075s.298.263.349.455l2.071 7.728c.051.192.024.397-.075.569s-.263.298-.455.349c-.683.183-1.564.419-2.552.684-.399.107-.637.519-.53.919.107.399.519.637.919.53z"/></g></svg>