<svg clip-rule="evenodd" fill-rule="evenodd" height="512" stroke-linejoin="round" stroke-miterlimit="2" viewBox="0 0 24 24" width="512" xmlns="http://www.w3.org/2000/svg"><g id="Icon"><path d="m12 17.777 5.303 1.447c.225.061.466.014.652-.128s.295-.362.295-.596v-2.599s4.166-2.777 4.166-2.777c.222-.148.349-.404.333-.671-.017-.266-.174-.504-.414-.624l-1.382-.691s.743-1.859.743-1.859c.105-.262.054-.56-.131-.772s-.474-.303-.747-.235l-1.237.31s-.346-1.729-.346-1.729c-.052-.261-.239-.475-.49-.562-.252-.087-.531-.034-.733.14l-1.933 1.656s.661-3.964.661-3.964c.041-.248-.045-.5-.229-.672-.183-.171-.441-.239-.686-.18 0 0-1.875.395-3.192-1.674-.138-.216-.377-.347-.633-.347s-.495.131-.633.347c-1.317 2.069-3.192 1.674-3.192 1.674-.245-.059-.503.009-.686.18-.184.172-.27.424-.229.672l.661 3.964s-1.933-1.656-1.933-1.656c-.202-.174-.481-.227-.733-.14-.251.087-.438.301-.49.562l-.346 1.729s-1.237-.31-1.237-.31c-.273-.068-.562.023-.747.235s-.236.51-.131.772l.743 1.859s-1.382.691-1.382.691c-.24.12-.397.358-.414.624-.016.267.111.523.333.671l4.166 2.777v2.599c0 .234.109.454.295.596s.427.189.652.128zm.197-1.501c-.129-.035-.265-.035-.394 0l-4.553 1.242v-2.018c0-.251-.125-.485-.334-.624l-3.425-2.283s.844-.422.844-.422c.349-.175.506-.587.361-.95l-.455-1.138s.577.145.577.145c.199.049.41.015.583-.094.173-.11.294-.286.334-.487l.249-1.244s2.528 2.166 2.528 2.166c.239.206.582.239.857.084.274-.155.423-.465.371-.776l-.847-5.079c.839-.056 2.039-.377 3.107-1.559 1.068 1.182 2.268 1.503 3.107 1.559 0 0-.847 5.079-.847 5.079-.052.311.097.621.371.776.275.155.618.122.857-.084l2.528-2.166s.249 1.244.249 1.244c.04.201.161.377.334.487.173.109.384.143.583.094l.577-.145s-.455 1.138-.455 1.138c-.145.363.012.775.361.95l.844.422s-3.425 2.283-3.425 2.283c-.209.139-.334.373-.334.624v2.018s-4.553-1.242-4.553-1.242z"/><path d="m12.75 22v-5c0-.414-.336-.75-.75-.75s-.75.336-.75.75v5c0 .414.336.75.75.75s.75-.336.75-.75z"/></g></svg>