<svg clip-rule="evenodd" fill-rule="evenodd" stroke-linejoin="round" stroke-miterlimit="1.414" viewBox="0 0 32 32" xmlns="http://www.w3.org/2000/svg" xmlns:serif="http://www.serif.com/"><path id="picture-attach-image-landscape" d="m0 0h32v32h-32z" fill="none"/><path d="m3.311 20.728c-.191-.187-.298-.451-.311-.723v-13.998c.01-1.557 1.35-2.965 2.962-2.995 6.688-.042 13.377-.042 20.066 0 1.556.029 2.951 1.363 2.961 2.995v12.957c-.004.085-.002.106-.018.19-.152.788-1.445 1.092-1.87.268-.072-.14-.103-.297-.111-.458 0-4.326.08-8.653 0-12.978-.016-.509-.46-.959-.975-.975-6.679-.124-13.362-.124-20.041 0-.515.016-.971.465-.975 1.003v11.577l4.291-4.291c.31-.287.412-.292.744-.292.39.029.469.106.67.292l5.291 5.291 3.291-3.292c.311-.29.449-.312.809-.287.354.048.422.117.605.287l7.996 7.997c.336.359.315.563.293.761v1.948c-.009 1.55-1.326 2.965-2.961 2.996-6.678.041-13.355 0-20.032 0-1.566-.01-2.986-1.363-2.996-2.996v-2.002c.004-.084.002-.106.018-.189.153-.792 1.442-1.099 1.87-.269.072.14.104.297.111.458 0 .675-.012 1.349 0 2.024.016.508.461.958.975.974 6.679.125 13.362.125 20.041 0 .516-.016.972-.464.975-1.002v-1.582l-6.997-6.997-2.585 2.585 1.293 1.292c.166.179.191.247.236.377.21.599-.3 1.354-.981 1.329-.249-.01-.485-.121-.669-.292l-7.29-7.29-5.291 5.29s-.047.032-.126.074c-.333.233-.803.288-1.16.034-.004-.003-.009-.006-.013-.009l-.001-.001c-.031-.023-.06-.048-.088-.074l-.001-.001-.001-.001-.003-.003-.002-.002zm18.72-13.718c1.688.032 3.174 1.681 2.931 3.417-.198 1.415-1.534 2.581-2.97 2.581-1.728 0-3.271-1.744-2.952-3.529.242-1.355 1.503-2.442 2.914-2.469zm-.052 1.999c-.765.015-1.311 1.103-.685 1.715.629.614 2.186-.103 1.572-1.201-.175-.312-.523-.516-.887-.514z" fill-rule="nonzero"/></svg>