<svg clip-rule="evenodd" fill-rule="evenodd" stroke-linejoin="round" stroke-miterlimit="2" viewBox="0 0 32 32" xmlns="http://www.w3.org/2000/svg" xmlns:serif="http://www.serif.com/"><path id="mathematic-calc-calculate" d="m0 0h32v32h-32z" fill="none"/><path d="m8.563 22.515-2.298-2.298c-.526-.552-.2-1.679.673-1.711.032-.001.064 0 .096.002.245.02.471.122.649.291l2.298 2.298 2.298-2.298c.2-.19.467-.296.745-.293.747.046 1.293 1.029.706 1.676-.011.012-.023.023-.034.035l-2.298 2.298 2.298 2.298c.608.638-.049 2.017-1.052 1.65-.091-.033-.178-.08-.255-.138-.039-.028-.075-.061-.11-.095l-2.298-2.298-2.298 2.298c-.623.594-1.976-.012-1.666-1.006.034-.108.086-.21.153-.301.029-.039.062-.075.095-.11zm17.454 3.007h-8.018c-.23-.007-.305-.037-.435-.1-.615-.296-.745-1.295-.145-1.72.123-.087.264-.146.412-.171.056-.009.112-.012.168-.014h8.018c.019.001.038.001.057.002.742.062 1.239 1.055.691 1.668-.188.211-.38.324-.748.335zm0-4.009h-8.018c-.23-.007-.305-.037-.435-.1-.613-.295-.756-1.286-.145-1.72.123-.087.264-.146.412-.171.056-.009.112-.012.168-.014h8.018c.019 0 .038.001.057.002.738.062 1.246 1.047.691 1.668-.188.211-.38.324-.748.335zm-17.039-12.028v-3.007c.006-.183.023-.234.057-.331.137-.392.446-.657.946-.671.018 0 .037.001.056.001.182.016.232.036.327.075.367.152.606.446.619.926v3.007h3.007l.056.002c.735.062 1.238 1.056.691 1.668-.188.211-.38.324-.747.335h-3.007v3.006c-.021.765-1.039 1.311-1.67.748-.211-.188-.324-.38-.335-.748v-3.006h-3.006c-.231-.007-.306-.037-.435-.1-.615-.296-.752-1.29-.145-1.72.122-.087.264-.146.412-.171.055-.009.111-.012.168-.014zm17.039 2.005h-8.018c-.761-.022-1.307-1.045-.747-1.671.188-.21.38-.324.747-.334h8.018c.019.001.038.001.057.002.744.062 1.244 1.05.691 1.668-.188.211-.38.324-.748.335z"/></svg>