<svg clip-rule="evenodd" fill-rule="evenodd" height="512" stroke-linejoin="round" stroke-miterlimit="2" viewBox="0 0 24 24" width="512" xmlns="http://www.w3.org/2000/svg"><g id="Icon"><path d="m12.416 9.376c-.252-.168-.58-.168-.832 0 0 0-1.834 1.26-1.834 3.124 0 1.242 1.008 2.25 2.25 2.25s2.25-1.008 2.25-2.25c0-1.864-1.834-3.124-1.834-3.124zm-.416 1.587c.335.322.75.859.75 1.537 0 .414-.336.75-.75.75s-.75-.336-.75-.75c0-.678.415-1.215.75-1.538z"/><path d="m19.75 19.5c0-.414-.336-.75-.75-.75h-14c-.414 0-.75.336-.75.75v1.5c0 .966.783 1.75 1.75 1.75h12c.967 0 1.75-.784 1.75-1.75 0-.696 0-1.5 0-1.5zm-1.5.75v.75c0 .138-.112.25-.25.25h-12c-.138 0-.25-.112-.25-.25v-.75z"/><path d="m14.25 16c0-.332-.132-.649-.366-.884-.235-.234-.552-.366-.884-.366-.555 0-1.445 0-2 0-.332 0-.649.132-.884.366-.234.235-.366.552-.366.884v3.5c0 .414.336.75.75.75h3c.414 0 .75-.336.75-.75zm-1.5.25v2.5h-1.5v-2.5z"/><path d="m19.75 6c0-.966-.783-1.75-1.75-1.75h-12c-.967 0-1.75.784-1.75 1.75v1.5c0 .414.336.75.75.75h14c.414 0 .75-.336.75-.75zm-1.5 0v.75h-12.5v-.75c0-.138.112-.25.25-.25h12c.138 0 .25.112.25.25z"/><path d="m12 1.25c-.995 0-1.948.395-2.652 1.098-.703.704-1.098 1.657-1.098 2.652 0 .414.336.75.75.75h6c.414 0 .75-.336.75-.75 0-.995-.395-1.948-1.098-2.652-.704-.703-1.657-1.098-2.652-1.098zm0 1.5c.597 0 1.169.237 1.591.659.24.24.42.528.53.841h-4.242c.11-.313.29-.601.53-.841.422-.422.994-.659 1.591-.659z"/><path d="m17.25 7.5v12c0 .414.336.75.75.75s.75-.336.75-.75v-12c0-.414-.336-.75-.75-.75s-.75.336-.75.75z"/><path d="m5.25 7.5v12c0 .414.336.75.75.75s.75-.336.75-.75v-12c0-.414-.336-.75-.75-.75s-.75.336-.75.75z"/><path d="m12.75 15.5v-1.5c0-.414-.336-.75-.75-.75s-.75.336-.75.75v1.5c0 .414.336.75.75.75s.75-.336.75-.75z"/></g></svg>