<svg height="512" viewBox="0 0 32 32" width="512" xmlns="http://www.w3.org/2000/svg"><g id="teacher_presentation_teaching" data-name="teacher, presentation, teaching"><path d="m12 18h-5v-12h16v5a1 1 0 0 0 2 0v-5h1a1 1 0 0 0 0-2h-22a1 1 0 0 0 0 2h1v12h-1a1 1 0 0 0 0 2h8a1 1 0 0 0 0-2z"/><path d="m29 18a4 4 0 1 0 -6.6431 3 4.0123 4.0123 0 0 0 -1.0279 1.4388l-4.529-6.0388a1 1 0 1 0 -1.6 1.2l5.8 7.7332v1.6668a1 1 0 0 0 2 0v-3a2 2 0 0 1 4 0v2h-1a1 1 0 0 0 0 2h2a1 1 0 0 0 1-1v-3a3.9918 3.9918 0 0 0 -1.3569-3 3.9918 3.9918 0 0 0 1.3569-3zm-4 2a2 2 0 1 1 2-2 2.002 2.002 0 0 1 -2 2z"/><circle cx="15" cy="12" r="1"/><circle cx="19" cy="12" r="1"/><circle cx="11" cy="12" r="1"/></g></svg>