<svg clip-rule="evenodd" fill-rule="evenodd" stroke-linejoin="round" stroke-miterlimit="1.414" viewBox="0 0 32 32" xmlns="http://www.w3.org/2000/svg" xmlns:serif="http://www.serif.com/"><path id="pils-medicine-treatment" d="m0 0h32v32h-32z" fill="none"/><path d="m18.498 23.175c-.063 1.623-.753 3.232-1.973 4.319-1.643 1.466-4.126 1.912-6.183 1.108-2.433-.952-4.057-3.635-3.777-6.237.307-2.848 2.861-5.292 5.86-5.354.048-.001.095-.001.143-.001 2.25.02 4.416 1.395 5.379 3.408.375.782.555 1.645.556 2.51.007.082.006.165-.005.247zm-2.1.837h-7.717c.329 1.191 1.195 2.242 2.344 2.708 1.786.724 4.054-.055 5.004-1.76.167-.298.289-.617.369-.948zm-.013-2.001c-.159-.636-.467-1.234-.915-1.717-.736-.794-1.797-1.266-2.889-1.283-.024 0-.049 0-.073 0-1.75.016-3.393 1.306-3.848 3zm2.642-13.434c1.053-.942 2.421-1.54 3.859-1.572.052-.001.103-.001.155-.001 2.737.026 5.333 2.138 5.857 4.868.372 1.94-.287 4.047-1.703 5.43-1.656 1.616-4.282 2.155-6.462 1.264-2.504-1.025-4.11-3.894-3.647-6.583.199-1.151.771-2.212 1.579-3.057.088-.145.21-.268.362-.349zm.539 2.408c-.229.372-.396.782-.485 1.215-.511 2.497 1.81 5.269 4.655 4.742.456-.085.892-.257 1.288-.498zm6.872 4.043c.27-.446.454-.942.527-1.461.312-2.226-1.522-4.539-3.937-4.562-.017 0-.035 0-.052 0-.701.007-1.386.217-1.985.576zm-21.845-1.997c-1.202-1.355-1.825-3.243-1.513-5.05.466-2.706 2.957-4.915 5.799-4.978.052-.001.103-.001.155-.001 1.47.014 2.899.63 3.988 1.619.11.073.206.166.283.274.794.815 1.368 1.842 1.586 2.975.372 1.94-.287 4.047-1.703 5.43-1.656 1.616-4.282 2.155-6.462 1.264-.709-.29-1.346-.728-1.884-1.268-.099-.071-.184-.16-.249-.265zm7.813-6.021-5.405 5.404c.774.485 1.718.713 2.728.526 1.628-.302 2.998-1.722 3.229-3.375.125-.888-.093-1.79-.552-2.555zm-1.403-1.427c-.58-.358-1.254-.573-1.982-.58-.017 0-.034 0-.052 0-1.816.017-3.527 1.401-3.894 3.195-.196.955.023 1.95.527 2.786z" fill-rule="nonzero"/></svg>