<svg clip-rule="evenodd" fill-rule="evenodd" height="512" stroke-linejoin="round" stroke-miterlimit="2" viewBox="0 0 24 24" width="512" xmlns="http://www.w3.org/2000/svg"><g id="Icon"><path d="m22 21.25h-17c-1.243 0-2.25-1.007-2.25-2.25v-17c0-.414-.336-.75-.75-.75s-.75.336-.75.75v17c0 2.071 1.679 3.75 3.75 3.75h17c.414 0 .75-.336.75-.75s-.336-.75-.75-.75z"/><path d="m5.561 11.998 3.212-3.614c.049-.055.12-.085.193-.083.074.001.143.036.189.093 0 0 6.494 8.118 6.494 8.118.329.411.824.652 1.349.657.526.005 1.026-.226 1.362-.63l4.216-5.059c.265-.318.222-.791-.096-1.056s-.791-.222-1.056.096l-4.216 5.059c-.048.058-.12.091-.195.09s-.146-.035-.192-.094l-6.495-8.118c-.322-.402-.805-.643-1.321-.656-.515-.013-1.011.201-1.353.587l-3.213 3.614c-.275.309-.247.784.063 1.059.309.275.784.247 1.059-.063z"/></g></svg>