<svg height="512" viewBox="0 0 32 32" width="512" xmlns="http://www.w3.org/2000/svg"><g id="pexels_photo_free" data-name="pexels, photo, free"><path d="m12 23h5a1 1 0 0 0 1-1v-3a5 5 0 0 0 0-10h-6a1 1 0 0 0 -1 1v12a1 1 0 0 0 1 1zm1-12h5a3 3 0 0 1 0 6h-1a1 1 0 0 0 -1 1v3h-3z"/><path d="m23.2 3h-9.6a1 1 0 0 0 0 2h9.6a3.8 3.8 0 0 1 3.8 3.8v14.4a3.8 3.8 0 0 1 -3.8 3.8h-14.4a3.8 3.8 0 0 1 -3.8-3.8v-14.4a3.8 3.8 0 0 1 3.8-3.8 1 1 0 0 0 0-2 5.8 5.8 0 0 0 -5.8 5.8v14.4a5.8 5.8 0 0 0 5.8 5.8h14.4a5.8 5.8 0 0 0 5.8-5.8v-14.4a5.8 5.8 0 0 0 -5.8-5.8z"/></g></svg>