<svg clip-rule="evenodd" fill-rule="evenodd" height="512" stroke-linejoin="round" stroke-miterlimit="2" viewBox="0 0 134 134" width="512" xmlns="http://www.w3.org/2000/svg"><path d="m20.833 33.334v-8.334c0-3.315 1.317-6.495 3.662-8.839 2.344-2.344 5.523-3.661 8.838-3.661h66.667c3.315 0 6.495 1.317 8.839 3.661s3.661 5.524 3.661 8.839v83.333c0 3.315-1.317 6.495-3.661 8.839s-5.524 3.661-8.839 3.661c-15.967 0-50.7 0-66.667 0-3.315 0-6.494-1.317-8.838-3.661-2.345-2.344-3.662-5.523-3.662-8.839v-58.333c0-2.3 1.867-4.167 4.167-4.167s4.167 1.867 4.167 4.167v58.333c0 1.105.439 2.165 1.22 2.947.781.781 1.841 1.22 2.946 1.22h66.667c1.105 0 2.165-.439 2.946-1.22.782-.782 1.221-1.842 1.221-2.947 0-18.833 0-64.5 0-83.333 0-1.105-.439-2.165-1.221-2.946-.781-.782-1.841-1.221-2.946-1.221-15.967 0-50.7 0-66.667 0-1.105 0-2.165.439-2.946 1.221-.781.781-1.22 1.841-1.22 2.946v4.167h45.833c2.3 0 4.167 1.867 4.167 4.166 0 2.3-1.867 4.167-4.167 4.167h-50c-2.59 0-4.167-1.577-4.167-4.166zm16.666 41.666c0-16.098 13.094-29.167 29.168-29.167 16.097 0 29.166 13.069 29.166 29.167s-13.069 29.167-29.166 29.167c-16.07 0-29.168-13.097-29.168-29.167zm8.524 2.82c1.379 10.167 10.102 18.013 20.644 18.013 11.498 0 20.833-9.335 20.833-20.833s-9.335-20.833-20.833-20.833c-9.412 0-17.374 6.254-19.954 14.829 7.196-1.614 14.39-.891 21.585 2.17 3.489 1.484 6.92 2.283 10.339 2.364 2.299.055 4.121 1.965 4.067 4.264-.055 2.299-1.966 4.122-4.265 4.067-4.429-.105-8.883-1.104-13.403-3.027-6.338-2.696-12.675-3.034-19.013-1.014zm45.644-48.653c2.299 0 4.166 1.867 4.166 4.166 0 2.3-1.867 4.167-4.166 4.167-2.3 0-4.167-1.867-4.167-4.167 0-2.299 1.867-4.166 4.167-4.166z"/></svg>