<svg clip-rule="evenodd" fill-rule="evenodd" height="512" stroke-linejoin="round" stroke-miterlimit="2" viewBox="0 0 24 24" width="512" xmlns="http://www.w3.org/2000/svg"><g id="Icon"><path d="m9.191 2.624-1.9 19c-.064.639-.601 1.126-1.243 1.126h-1.495c-.354 0-.69-.149-.927-.411s-.352-.612-.317-.963l1.9-19c.064-.639.601-1.126 1.243-1.126h1.495c.354 0 .69.149.927.411s.352.612.317.963zm-4.362 18.626h.992l1.85-18.5h-.992z"/><path d="m20.691 2.624-1.9 19c-.064.639-.601 1.126-1.243 1.126h-1.495c-.354 0-.69-.149-.927-.411s-.352-.612-.317-.963l1.9-19c.064-.639.601-1.126 1.243-1.126h1.495c.354 0 .69.149.927.411s.352.612.317.963zm-4.362 18.626h.992l1.85-18.5h-.992z"/><path d="m17 4.75c.414 0 .75.336.75.75s-.336.75-.75.75h-8.5c-.414 0-.75-.336-.75-.75s.336-.75.75-.75z"/><path d="m16.5 8.75c.414 0 .75.336.75.75s-.336.75-.75.75h-8.5c-.414 0-.75-.336-.75-.75s.336-.75.75-.75z"/><path d="m16 12.75c.414 0 .75.336.75.75s-.336.75-.75.75h-8.5c-.414 0-.75-.336-.75-.75s.336-.75.75-.75z"/><path d="m15.5 16.75c.414 0 .75.336.75.75s-.336.75-.75.75h-8.5c-.414 0-.75-.336-.75-.75s.336-.75.75-.75z"/><path d="m6 22.75c-.414 0-.75-.336-.75-.75s.336-.75.75-.75h2.5c.414 0 .75.336.75.75s-.336.75-.75.75z"/><path d="m10.5 22.75c-.414 0-.75-.336-.75-.75s.336-.75.75-.75h1c.414 0 .75.336.75.75s-.336.75-.75.75z"/><path d="m17.25 22.75c-.414 0-.75-.336-.75-.75s.336-.75.75-.75h2.5c.414 0 .75.336.75.75s-.336.75-.75.75z"/></g></svg>