<svg clip-rule="evenodd" fill-rule="evenodd" stroke-linejoin="round" stroke-miterlimit="1.414" viewBox="0 0 32 32" xmlns="http://www.w3.org/2000/svg" xmlns:serif="http://www.serif.com/"><path id="heart-health-player-love" d="m0 0h32v32h-32z" fill="none"/><path d="m21.369 5.033c2.123.045 4.109 1.388 4.993 3.431 1.064 2.458.662 5.304-.215 7.74-1.645 4.568-5.441 7.895-9.528 10.598-.385.255-.915.226-1.48-.152-2.699-1.815-5.286-3.883-7.203-6.454-1.886-2.53-3.029-5.712-2.93-8.788.064-2.006.81-4.113 2.502-5.332 2.276-1.639 5.659-1.113 7.705 1.143.743.817 1.401 1.751 1.732 2.786.009.028.017.056.023.085.163.719-.699 1.486-1.433 1.108-.155-.08-.288-.201-.382-.348-.283-.44-.899-1.87-1.859-2.728-.912-.816-2.185-1.249-3.359-.988-1.495.333-2.557 1.76-2.832 3.346-.407 2.338.385 4.788 1.441 6.931 1.046 2.099 2.809 3.779 4.652 5.306.888.735 1.813 1.423 2.763 2.074l.034.024c2.997-2.044 6.03-4.417 7.518-7.546 1.169-2.318 1.906-4.995 1.242-7.37-.593-2.124-3.2-3.739-5.486-2.234 0 0-.638.314-1.095.036-.591-.36-.607-1.316.048-1.74.898-.581 1.959-.917 3.031-.929.059 0 .059 0 .118.001z" fill-rule="nonzero"/></svg>