<svg clip-rule="evenodd" fill-rule="evenodd" height="512" stroke-linejoin="round" stroke-miterlimit="2" viewBox="0 0 24 24" width="512" xmlns="http://www.w3.org/2000/svg"><g id="Icon"><path d="m14.013 2.012c-.078-.295-.326-.513-.628-.552-.92-.119-1.85-.119-2.77 0-.302.039-.55.257-.628.552l-.306 1.154c-.571.148-1.128.35-1.661.605 0-.001-.976-.688-.976-.688-.249-.176-.579-.183-.836-.019-.781.499-1.494 1.098-2.121 1.78-.206.224-.256.551-.127.827l.508 1.08c-.343.481-.639.994-.884 1.531 0 0-1.19.101-1.19.101-.303.025-.561.232-.652.523-.277.884-.439 1.801-.481 2.727-.014.304.158.586.434.714l1.084.502c.046.589.149 1.172.307 1.741 0 0-.847.842-.847.842-.216.214-.281.538-.164.82.357.855.822 1.661 1.385 2.398.185.242.498.348.792.268l1.152-.312c.414.421.868.802 1.355 1.136 0 0-.108 1.189-.108 1.189-.027.303.131.593.402.733.823.427 1.697.745 2.602.948.297.066.605-.054.779-.304l.682-.98c.588.057 1.18.057 1.768 0 0 0 .682.98.682.98.174.25.482.37.779.304.905-.203 1.779-.521 2.602-.948.271-.14.429-.43.402-.733l-.108-1.189c.487-.335.941-.715 1.355-1.137 0 .001 1.152.313 1.152.313.294.08.607-.026.792-.268.563-.737 1.028-1.543 1.385-2.398.117-.282.052-.606-.164-.82l-.847-.842c.158-.569.261-1.153.307-1.742 0 .001 1.084-.501 1.084-.501.276-.128.448-.41.434-.714-.042-.926-.204-1.843-.481-2.727-.091-.291-.349-.498-.652-.523l-1.19-.101c-.245-.537-.541-1.05-.884-1.531 0 0 .508-1.08.508-1.08.129-.276.079-.603-.127-.827-.627-.682-1.34-1.281-2.121-1.78-.257-.164-.587-.157-.836.019l-.976.687c-.533-.254-1.09-.456-1.662-.604.001 0-.305-1.154-.305-1.154zm-1.317.885.288 1.089c.073.275.295.485.574.543.744.152 1.461.413 2.128.774.251.136.556.117.789-.046l.921-.65c.377.271.733.57 1.066.895 0 0-.479 1.02-.479 1.02-.121.257-.086.561.091.785.471.594.852 1.255 1.132 1.96.105.265.35.448.634.472l1.123.095c.115.45.195.908.241 1.37 0 0-1.022.473-1.022.473-.259.12-.427.375-.435.66-.021.758-.154 1.51-.393 2.23-.09.27-.019.568.183.768l.799.795c-.201.418-.434.821-.696 1.205 0 0-1.088-.295-1.088-.295-.274-.075-.568.013-.757.226-.503.567-1.088 1.058-1.734 1.455-.243.149-.38.423-.354.707l.101 1.122c-.423.191-.86.35-1.307.476 0 0-.644-.925-.644-.925-.162-.234-.443-.355-.725-.314-.751.111-1.513.111-2.264 0-.282-.041-.563.08-.725.314l-.644.925c-.447-.126-.884-.285-1.307-.476 0 0 .101-1.122.101-1.122.026-.284-.111-.558-.354-.707-.646-.397-1.231-.888-1.734-1.455-.189-.213-.483-.301-.757-.226l-1.088.295c-.262-.384-.495-.787-.696-1.205 0 0 .799-.795.799-.795.202-.2.273-.498.183-.768-.239-.72-.372-1.472-.393-2.23-.008-.285-.176-.54-.435-.66l-1.022-.473c.046-.462.126-.92.241-1.37 0 0 1.123-.095 1.123-.095.284-.024.529-.207.634-.472.28-.705.661-1.366 1.132-1.96.177-.224.212-.528.091-.785l-.479-1.02c.333-.325.689-.624 1.066-.894 0-.001.921.649.921.649.233.163.538.182.789.046.667-.361 1.384-.622 2.128-.774.279-.058.501-.268.574-.543l.288-1.089c.464-.035.928-.035 1.391 0z"/><path d="m12 5.5c-3.587 0-6.5 2.913-6.5 6.5s2.913 6.5 6.5 6.5 6.5-2.913 6.5-6.5-2.913-6.5-6.5-6.5zm0 1.5c2.76 0 5 2.24 5 5s-2.24 5-5 5-5-2.24-5-5 2.24-5 5-5z"/><path d="m13 8.75h-1.25c-.53 0-1.039.211-1.414.586s-.586.884-.586 1.414.211 1.039.586 1.414.884.586 1.414.586h.502c.275 0 .498.223.498.498v.004c0 .275-.223.498-.498.498h-1.252c-.414 0-.75.336-.75.75s.336.75.75.75h1.252c1.103 0 1.998-.895 1.998-1.998v-.004c0-1.103-.895-1.998-1.998-1.998h-.502c-.133 0-.26-.053-.354-.146-.093-.094-.146-.221-.146-.354s.053-.26.146-.354c.094-.093.221-.146.354-.146h1.25c.414 0 .75-.336.75-.75s-.336-.75-.75-.75z"/><path d="m12.75 9.5v-1c0-.414-.336-.75-.75-.75s-.75.336-.75.75v1c0 .414.336.75.75.75s.75-.336.75-.75z"/><path d="m12.75 15.5v-1c0-.414-.336-.75-.75-.75s-.75.336-.75.75v1c0 .414.336.75.75.75s.75-.336.75-.75z"/></g></svg>