<svg clip-rule="evenodd" fill-rule="evenodd" height="512" stroke-linejoin="round" stroke-miterlimit="2" viewBox="0 0 24 24" width="512" xmlns="http://www.w3.org/2000/svg"><g id="Icon"><circle cx="14.75" cy="11.5" r=".75"/><circle cx="9.25" cy="11.5" r=".75"/><path d="m12 6.205c-4.829 0-8.75 3.921-8.75 8.75 0 3.216 1.738 6.029 4.315 7.567.009.005.017.01.026.015.449.245.984.28 1.462.098.478-.183.852-.566 1.023-1.048 0 0 1.925-5.4 1.925-5.4.605 1.694 1.454 4.06 1.944 5.399.167.471.537.849 1.01 1.029.472.181 1 .146 1.444-.096.007-.004.014-.008.021-.012 2.59-1.52 4.33-4.334 4.33-7.552 0-4.829-3.921-8.75-8.75-8.75zm0 1.5c4.001 0 7.25 3.249 7.25 7.25 0 2.659-1.435 4.986-3.571 6.248-.063.031-.129.034-.189.011-.063-.024-.112-.074-.134-.137-.001-.002-.002-.004-.003-.006-.82-2.242-2.647-7.367-2.647-7.367-.106-.299-.389-.499-.706-.499s-.6.2-.706.499l-2.631 7.38c-.024.069-.078.123-.146.15-.063.023-.132.021-.193-.006-2.137-1.283-3.574-3.611-3.574-6.273 0-4.001 3.249-7.25 7.25-7.25z"/><path d="m11.25 7v2.5c0 .414.336.75.75.75s.75-.336.75-.75v-2.5c0-.414-.336-.75-.75-.75s-.75.336-.75.75z"/><path d="m11.25 12.5v1.5c0 .414.336.75.75.75s.75-.336.75-.75v-1.5c0-.414-.336-.75-.75-.75s-.75.336-.75.75z"/><path d="m9.867 6.716c-.076-.225-.117-.466-.117-.716 0-1.242 1.008-2.25 2.25-2.25s2.25 1.008 2.25 2.25c0 .263-.045.515-.128.75-.138.39.067.819.457.957s.819-.067.957-.457c.138-.391.214-.812.214-1.25 0-2.07-1.68-3.75-3.75-3.75s-3.75 1.68-3.75 3.75c0 .418.069.819.195 1.194.132.393.557.604.95.472.392-.132.603-.557.472-.95z"/><path d="m13.671 3.335.5-1c.185-.37.035-.821-.336-1.006-.37-.185-.821-.035-1.006.336l-.5 1c-.185.37-.035.821.336 1.006.37.185.821.035 1.006-.336z"/><path d="m11.671 2.665-.5-1c-.185-.371-.636-.521-1.006-.336-.371.185-.521.636-.336 1.006l.5 1c.185.371.636.521 1.006.336.371-.185.521-.636.336-1.006z"/><path d="m19.199 17.105c-.214.093-.45.145-.699.145-.966 0-1.75-.784-1.75-1.75s.784-1.75 1.75-1.75c.249 0 .485.052.699.145.38.166.822-.007.988-.386s-.007-.822-.386-.988c-.399-.174-.839-.271-1.301-.271-1.794 0-3.25 1.456-3.25 3.25s1.456 3.25 3.25 3.25c.462 0 .902-.097 1.301-.271.379-.166.552-.609.386-.988s-.608-.552-.988-.386z"/><path d="m4.25 14.878c.235-.083.487-.128.75-.128 1.242 0 2.25 1.008 2.25 2.25 0 .979-.627 1.813-1.5 2.122-.39.138-.595.567-.457.957s.567.595.957.457c1.456-.515 2.5-1.905 2.5-3.536 0-2.07-1.68-3.75-3.75-3.75-.438 0-.859.076-1.25.214-.39.138-.595.567-.457.957s.567.595.957.457z"/><path d="m13.727 19.926c-.535.209-1.118.324-1.727.324s-1.192-.115-1.727-.324c-.385-.151-.821.04-.971.425-.151.386.039.821.425.972.705.276 1.471.427 2.273.427s1.568-.151 2.273-.427c.386-.151.576-.586.425-.972-.15-.385-.586-.576-.971-.425z"/></g></svg>