<svg clip-rule="evenodd" fill-rule="evenodd" height="512" stroke-linejoin="round" stroke-miterlimit="2" viewBox="0 0 24 24" width="512" xmlns="http://www.w3.org/2000/svg"><g id="Icon"><path d="m21 15.75c.966 0 1.75-.782 1.75-1.75v-11c0-.966-.784-1.75-1.75-1.75h-18c-.966 0-1.75.784-1.75 1.75v11c0 .968.784 1.75 1.75 1.75zm0-1.5h-18c-.138 0-.25-.112-.25-.25v-11c0-.138.112-.25.25-.25h18c.138 0 .25.112.25.25v11c0 .138-.112.25-.25.25z"/><path d="m13.519 18.75c1.001 0 1.852-.217 2.377-.511.513-.287.775-.679.838-1.043.055-.32-.012-.66-.284-.99 0 0-1.392-1.684-1.392-1.684-.143-.172-.355-.272-.578-.272h-4.959c-.224 0-.436.1-.578.272l-1.392 1.684c-.411.497-.398 1-.097 1.459.173.264.495.531.962.725.516.215 1.239.36 2.066.36zm1.598-1.802c-.051.028-.106.057-.156.076-.369.143-.873.226-1.442.226h-3.037c-.57 0-1.074-.083-1.443-.226-.049-.019-.105-.048-.155-.076l.99-1.198h4.253z"/><path d="m21 22.75c.26 0 .501-.135.638-.356s.149-.497.033-.729l-1-2c-.127-.254-.387-.415-.671-.415h-16c-.284 0-.544.161-.671.415l-1 2c-.116.232-.104.508.033.729s.378.356.638.356zm-1.214-1.5h-15.572s.25-.5.25-.5h15.072z"/><path d="m17.53 4.469c-.292-.293-.767-.293-1.06 0l-1.915 1.914c-.293.292-.293.767 0 1.06l1.915 1.916c.292.293.767.293 1.06 0l1.915-1.913c.293-.293.293-.768 0-1.061zm-.53 1.591.854.855s-.854.853-.854.853-.854-.855-.854-.855z"/><path d="m4.25 7.5c0 1.242 1.008 2.25 2.25 2.25s2.25-1.008 2.25-2.25-1.008-2.25-2.25-2.25-2.25 1.008-2.25 2.25zm1.5 0c0-.414.336-.75.75-.75s.75.336.75.75-.336.75-.75.75-.75-.336-.75-.75z"/><path d="m14.736 10.761c.232-.134.375-.382.375-.65s-.143-.515-.375-.649l-3.361-1.94c-.232-.134-.518-.134-.75 0s-.375.381-.375.649v3.88c0 .268.143.516.375.65s.518.134.75 0zm-1.875-.65-1.111.641v-1.282z"/></g></svg>