<svg clip-rule="evenodd" fill-rule="evenodd" height="512" stroke-linejoin="round" stroke-miterlimit="2" viewBox="0 0 24 24" width="512" xmlns="http://www.w3.org/2000/svg"><g id="Icon"><path d="m11.5 18.25h8c.414 0 .75-.336.75-.75v-14.5c0-.464-.184-.909-.513-1.237-.328-.329-.773-.513-1.237-.513-2.443 0-8.751 0-12 0-.729 0-1.429.29-1.945.805-.515.516-.805 1.216-.805 1.945v16c0 .414.336.75.75.75s.75-.336.75-.75c0 0 0-11.31 0-16 0-.332.132-.649.366-.884.235-.234.552-.366.884-.366h12c.066 0 .13.026.177.073s.073.111.073.177v13.75h-7.25c-.414 0-.75.336-.75.75s.336.75.75.75z"/><path d="m11.5 16.75h-4.75c-1.657 0-3 1.343-3 3 0 .796.316 1.559.879 2.121.562.563 1.325.879 2.121.879h11.75c.464 0 .909-.184 1.237-.513.329-.328.513-.773.513-1.237 0-.696 0-1.5 0-1.5 0-.414-.336-.75-.75-.75s-.75.336-.75.75v1.5c0 .066-.026.13-.073.177s-.111.073-.177.073h-11.75c-.398 0-.779-.158-1.061-.439-.281-.282-.439-.663-.439-1.061 0-.828.672-1.5 1.5-1.5h4.75c.414 0 .75-.336.75-.75s-.336-.75-.75-.75z"/><path d="m8.464 14.662 2.829-2.828c.293-.293.293-.768 0-1.061s-.768-.293-1.061 0l-2.828 2.828c-.293.293-.293.768 0 1.061s.768.293 1.06 0z"/><path d="m10.674 6.089c-.417.416-1.217 1.217-1.616 1.618-.367.367-.468.926-.251 1.4 0 .001.001.002.001.003.875 1.891 2.255 3.277 4.148 4.151.001.001.003.002.004.002.475.216 1.034.114 1.402-.256.399-.398 1.198-1.198 1.614-1.616.398-.398.48-1.015.199-1.504-.001-.001-.002-.003-.002-.004-.98-1.682-2.305-3.018-3.992-3.994-.001-.001-.003-.002-.004-.003-.49-.279-1.106-.196-1.504.203zm.248 1.873.676-.676c1.319.798 2.376 1.864 3.178 3.184l-1.352 1.354c-1.422-.697-2.48-1.76-3.178-3.184z"/><path d="m11.293 5.47-2.829 2.828c-.292.293-.292.768 0 1.061.293.292.768.292 1.061 0l2.829-2.829c.292-.292.292-.768 0-1.06-.293-.293-.768-.293-1.061 0z"/><path d="m15.536 9.712-2.829 2.829c-.293.292-.293.768 0 1.06.293.293.768.293 1.061 0l2.828-2.828c.293-.293.293-.768 0-1.061-.293-.292-.768-.292-1.06 0z"/></g></svg>