<svg clip-rule="evenodd" fill-rule="evenodd" height="512" stroke-linejoin="round" stroke-miterlimit="2" viewBox="0 0 24 24" width="512" xmlns="http://www.w3.org/2000/svg"><g id="Icon"><path d="m12 4.75c-3.725 0-6.75 3.025-6.75 6.75 0 2.168 1.024 4.1 2.62 5.329.003.002.005.005.008.007.057.042.093.106.099.177l.112 1.234c.128 1.417 1.316 2.503 2.739 2.503h2.344c1.423 0 2.611-1.086 2.739-2.503.041-.454.082-.902.118-1.216 0-.006.001-.012.002-.018.006-.069.041-.131.095-.172.004-.003.007-.005.011-.008 1.59-1.235 2.613-3.166 2.613-5.333 0-3.725-3.025-6.75-6.75-6.75zm0 1.5c2.898 0 5.25 2.352 5.25 5.25 0 1.685-.796 3.186-2.032 4.147-.387.294-.633.736-.68 1.219-.037.323-.079.782-.121 1.246-.058.645-.598 1.138-1.245 1.138h-2.344c-.647 0-1.187-.493-1.245-1.138l-.112-1.236c-.045-.49-.294-.938-.686-1.235-1.239-.956-2.035-2.456-2.035-4.141 0-2.898 2.352-5.25 5.25-5.25z"/><path d="m9.268 10.297c.457-1.056 1.508-1.797 2.732-1.797.414 0 .75-.336.75-.75s-.336-.75-.75-.75c-1.84 0-3.422 1.113-4.109 2.703-.164.38.011.821.391.986.38.164.822-.012.986-.392z"/><path d="m10 22.75h4c.414 0 .75-.336.75-.75s-.336-.75-.75-.75h-4c-.414 0-.75.336-.75.75s.336.75.75.75z"/><path d="m2 12.75h1.5c.414 0 .75-.336.75-.75s-.336-.75-.75-.75h-1.5c-.414 0-.75.336-.75.75s.336.75.75.75z"/><path d="m22 11.25h-1.5c-.414 0-.75.336-.75.75s.336.75.75.75h1.5c.414 0 .75-.336.75-.75s-.336-.75-.75-.75z"/><path d="m18.541 4.399-1.061 1.06c-.293.293-.293.768 0 1.061s.768.293 1.061 0l1.06-1.061c.293-.292.293-.768 0-1.06-.292-.293-.768-.293-1.06 0z"/><path d="m11.25 2v1.5c0 .414.336.75.75.75s.75-.336.75-.75v-1.5c0-.414-.336-.75-.75-.75s-.75.336-.75.75z"/><path d="m4.399 5.459 1.06 1.061c.293.293.768.293 1.061 0s.293-.768 0-1.061l-1.061-1.06c-.292-.293-.768-.293-1.06 0-.293.292-.293.768 0 1.06z"/></g></svg>