<svg clip-rule="evenodd" fill-rule="evenodd" height="512" stroke-linejoin="round" stroke-miterlimit="2" viewBox="0 0 24 24" width="512" xmlns="http://www.w3.org/2000/svg"><g id="Icon"><path d="m15 19.25h-11.036c-.69 0-1.25-.56-1.25-1.25v-12c0-.69.56-1.25 1.25-1.25h16c.69 0 1.25.56 1.25 1.25v7c0 .414.336.75.75.75s.75-.336.75-.75v-7c0-1.518-1.232-2.75-2.75-2.75h-16c-1.518 0-2.75 1.232-2.75 2.75v12c0 1.518 1.232 2.75 2.75 2.75h11.036c.414 0 .75-.336.75-.75s-.336-.75-.75-.75z"/><path d="m4.25 9v6c0 .414.336.75.75.75s.75-.336.75-.75v-6c0-.414-.336-.75-.75-.75s-.75.336-.75.75z"/><path d="m12.115 9.208c-.236-.037-.476.042-.645.211s-.248.409-.211.645l.551 3.551c.024.157.098.303.21.415 0 0 3.608 3.608 5.463 5.463.425.425 1.003.662 1.604.659.602-.004 1.177-.248 1.597-.678l.868-.89c.861-.881.852-2.291-.019-3.162l-5.452-5.452c-.113-.113-.258-.187-.415-.211zm.783 1.64 2.296.356s5.278 5.278 5.278 5.278c.291.291.294.761.007 1.055l-.868.889c-.14.143-.332.225-.533.226-.2.001-.393-.078-.534-.22 0 0-5.29-5.289-5.29-5.289s-.356-2.295-.356-2.295z"/></g></svg>