<svg clip-rule="evenodd" fill-rule="evenodd" height="512" stroke-linejoin="round" stroke-miterlimit="2" viewBox="0 0 24 24" width="512" xmlns="http://www.w3.org/2000/svg"><g id="Icon"><path d="m7.5 13.564c-2.07 0-3.75 1.68-3.75 3.75s1.68 3.75 3.75 3.75 3.75-1.68 3.75-3.75-1.68-3.75-3.75-3.75zm0 1.5c1.242 0 2.25 1.008 2.25 2.25s-1.008 2.25-2.25 2.25-2.25-1.008-2.25-2.25 1.008-2.25 2.25-2.25z"/><path d="m16.5 13.564c-2.07 0-3.75 1.68-3.75 3.75s1.68 3.75 3.75 3.75 3.75-1.68 3.75-3.75-1.68-3.75-3.75-3.75zm0 1.5c1.242 0 2.25 1.008 2.25 2.25s-1.008 2.25-2.25 2.25-2.25-1.008-2.25-2.25 1.008-2.25 2.25-2.25z"/><path d="m9.917 15.696c.596-.399 1.313-.632 2.083-.632s1.487.233 2.083.632c.343.23.81.138 1.04-.206s.138-.81-.206-1.041c-.834-.559-1.838-.885-2.917-.885s-2.083.326-2.917.885c-.344.231-.436.697-.206 1.041s.697.436 1.04.206z"/><path d="m20.716 11.746-2.127-6.873c-.231-.746-.767-1.358-1.476-1.685-.709-.326-1.524-.336-2.24-.027-.833.36-1.746.754-2.378 1.026-.316.136-.674.136-.99 0-.632-.272-1.545-.666-2.378-1.026-.716-.309-1.531-.299-2.24.027-.709.327-1.245.939-1.476 1.685l-2.127 6.873c-.071.227-.029.475.112.667.142.191.366.305.604.305h16c.238 0 .462-.114.604-.305.141-.192.183-.44.112-.667zm-3.56-6.43 1.827 5.902h-13.966s1.827-5.901 1.827-5.901c.105-.339.349-.618.671-.766.322-.149.692-.153 1.018-.013l2.377 1.026c.696.3 1.484.3 2.18 0l2.377-1.026c.326-.14.696-.136 1.018.013.322.148.566.427.671.765z"/><path d="m22 11.218h-20c-.414 0-.75.336-.75.75 0 .413.336.75.75.75h20c.414 0 .75-.337.75-.75 0-.414-.336-.75-.75-.75z"/></g></svg>