<svg height="512" viewBox="0 0 32 32" width="512" xmlns="http://www.w3.org/2000/svg"><g id="ssd_hard_drive_disk" fill-rule="evenodd" data-name="ssd, hard, drive, disk"><path d="m30 9.5a1 1 0 0 0 1-1v-.5a2.9786 2.9786 0 0 0 -.8789-2.1211 3.02 3.02 0 0 0 -2.1211-.8789h-24a3.02 3.02 0 0 0 -2.1211.8789 2.9786 2.9786 0 0 0 -.8789 2.1211v16a2.9794 2.9794 0 0 0 .8789 2.1211 3.02 3.02 0 0 0 2.1211.8789h24a3.02 3.02 0 0 0 2.1211-.8789 2.9794 2.9794 0 0 0 .8789-2.1211v-10.5a1 1 0 0 0 -2 0v10.5a1 1 0 0 1 -1 1h-24a1 1 0 0 1 -1-1v-16a1 1 0 0 1 1-1h24a1 1 0 0 1 1 1v.5a1 1 0 0 0 1 1z"/><path d="m6 9a1 1 0 1 0 1 1 1 1 0 0 0 -1-1z"/><path d="m26 9a1 1 0 1 0 1 1 1 1 0 0 0 -1-1z"/><path d="m6 21a1 1 0 1 0 1 1 1 1 0 0 0 -1-1z"/><path d="m26 21a1 1 0 1 0 1 1 1 1 0 0 0 -1-1z"/></g></svg>