<svg clip-rule="evenodd" fill-rule="evenodd" height="512" stroke-linejoin="round" stroke-miterlimit="2" viewBox="0 0 24 24" width="512" xmlns="http://www.w3.org/2000/svg"><g id="Icon"><path d="m4 21.912h16c.414 0 .75-.336.75-.75s-.336-.75-.75-.75h-16c-.414 0-.75.336-.75.75s.336.75.75.75z"/><path d="m16.939 18.609c-.238-.715-.907-1.197-1.66-1.197h-6.558c-.754 0-1.422.482-1.661 1.197-.295.885-.772 2.316-.772 2.316-.076.229-.037.48.103.676.141.195.368.311.609.311h10c.241 0 .467-.116.608-.311.141-.196.18-.447.103-.676zm-1.423.474.443 1.329h-7.919l.443-1.329c.035-.102.13-.171.238-.171h6.558c.108 0 .203.069.237.171z"/><path d="m9.25 13.162v5c0 .414.336.75.75.75h4c.414 0 .75-.336.75-.75 0 0 0-3.293 0-5 0-.464-.184-.909-.513-1.237-.328-.329-.773-.513-1.237-.513h-2c-.464 0-.909.184-1.238.513-.328.328-.512.773-.512 1.237zm1.5 0c0-.066.026-.13.073-.177s.111-.073.177-.073h2c.066 0 .13.026.177.073s.073.111.073.177v4.25h-2.5z"/><path d="m12.75 12.162v-2.5c0-.414-.336-.75-.75-.75s-.75.336-.75.75v2.5c0 .414.336.75.75.75s.75-.336.75-.75z"/><path d="m9.25 7.662v1c0 .967.783 1.75 1.75 1.75h2c.966 0 1.75-.783 1.75-1.75v-1c0-.967-.784-1.75-1.75-1.75h-2c-.967 0-1.75.783-1.75 1.75zm1.5 0c0-.138.112-.25.25-.25h2c.138 0 .25.112.25.25v1c0 .138-.112.25-.25.25h-2c-.138 0-.25-.112-.25-.25z"/><path d="m16.5 8.912h1.5c.414 0 .75-.336.75-.75s-.336-.75-.75-.75h-1.5c-.414 0-.75.336-.75.75s.336.75.75.75z"/><path d="m7.5 7.412h-1.5c-.414 0-.75.336-.75.75s.336.75.75.75h1.5c.414 0 .75-.336.75-.75s-.336-.75-.75-.75z"/><path d="m16.817 5.842 1.359-.634c.376-.175.538-.621.363-.996-.175-.376-.621-.538-.997-.363l-1.359.634c-.375.175-.538.621-.363.996.175.376.622.538.997.363z"/><path d="m7.817 4.483-1.359-.634c-.376-.175-.822-.013-.997.363-.175.375-.013.821.363.996l1.359.634c.375.175.822.013.997-.363.175-.375.012-.821-.363-.996z"/><path d="m16.183 11.842 1.359.634c.376.175.822.012.997-.363s.013-.821-.363-.996l-1.359-.634c-.375-.175-.822-.013-.997.362-.175.376-.012.822.363.997z"/><path d="m7.183 10.483-1.359.634c-.376.175-.538.621-.363.996s.621.538.997.363l1.359-.634c.375-.175.538-.621.363-.997-.175-.375-.622-.537-.997-.362z"/><path d="m20.5 8.912h1.5c.414 0 .75-.336.75-.75s-.336-.75-.75-.75h-1.5c-.414 0-.75.336-.75.75s.336.75.75.75z"/><path d="m3.5 7.412h-1.5c-.414 0-.75.336-.75.75s.336.75.75.75h1.5c.414 0 .75-.336.75-.75s-.336-.75-.75-.75z"/><path d="m20.442 4.152 1.36-.634c.375-.175.537-.622.362-.997s-.621-.538-.996-.363l-1.36.634c-.375.175-.537.622-.362.997.174.375.621.538.996.363z"/><path d="m4.192 2.792-1.36-.634c-.375-.175-.821-.012-.996.363s-.013.822.362.997l1.36.634c.375.175.822.012.996-.363.175-.375.013-.822-.362-.997z"/><path d="m19.808 13.533 1.36.634c.375.174.821.012.996-.363s.013-.822-.362-.997l-1.36-.634c-.375-.175-.822-.012-.996.363-.175.375-.013.822.362.997z"/><path d="m3.558 12.173-1.36.634c-.375.175-.537.622-.362.997s.621.537.996.363l1.36-.634c.375-.175.537-.622.362-.997-.174-.375-.621-.538-.996-.363z"/></g></svg>