<svg clip-rule="evenodd" fill-rule="evenodd" height="512" stroke-linejoin="round" stroke-miterlimit="2" viewBox="0 0 24 24" width="512" xmlns="http://www.w3.org/2000/svg"><g id="Icon"><path d="m11.116 8.968c.488-.488 1.28-.488 1.768 0s.488 1.28 0 1.768-1.28.488-1.768 0-.488-1.28 0-1.768z"/><path d="m9.267 7.972c1.508-1.508 3.958-1.508 5.466 0 .293.293.768.293 1.061 0 .293-.292.293-.768 0-1.06-2.094-2.094-5.494-2.094-7.588 0-.293.292-.293.768 0 1.06.293.293.768.293 1.061 0z"/><path d="m6.873 5.372c2.83-2.829 7.424-2.829 10.254 0 .292.293.767.293 1.06 0s.293-.768 0-1.061c-3.415-3.415-8.959-3.415-12.374 0-.293.293-.293.768 0 1.061s.768.293 1.06 0z"/><path d="m22.749 17.002c0-.73-.289-1.43-.805-1.946s-1.216-.806-1.945-.806h-15.996c-.729 0-1.429.29-1.945.805-.515.516-.805 1.216-.805 1.945v1c0 .729.29 1.429.805 1.945.516.515 1.216.805 1.945.805h15.995c1.518 0 2.749-1.23 2.75-2.748zm-1.5-.001-.001 1c-.001.69-.56 1.249-1.25 1.249h-15.995c-.332 0-.65-.132-.884-.366-.234-.235-.366-.552-.366-.884v-1c0-.332.132-.649.366-.884.234-.234.552-.366.884-.366h15.996c.331 0 .649.132.884.366.234.235.366.553.366.885z"/><path d="m6.75 15v-7c0-.414-.336-.75-.75-.75s-.75.336-.75.75v7c0 .414.336.75.75.75s.75-.336.75-.75z"/><path d="m5.75 21.5v-1.5c0-.414-.336-.75-.75-.75s-.75.336-.75.75v1.5c0 .414.336.75.75.75s.75-.336.75-.75z"/><path d="m18.75 15v-7c0-.414-.336-.75-.75-.75s-.75.336-.75.75v7c0 .414.336.75.75.75s.75-.336.75-.75z"/><path d="m19.75 21.5v-1.5c0-.414-.336-.75-.75-.75s-.75.336-.75.75v1.5c0 .414.336.75.75.75s.75-.336.75-.75z"/><path d="m19 16.75h-1c-.414 0-.75.336-.75.75s.336.75.75.75h1c.414 0 .75-.336.75-.75s-.336-.75-.75-.75z"/><path d="m15.5 16.75h-1c-.414 0-.75.336-.75.75s.336.75.75.75h1c.414 0 .75-.336.75-.75s-.336-.75-.75-.75z"/></g></svg>