<svg clip-rule="evenodd" fill-rule="evenodd" height="512" stroke-linejoin="round" stroke-miterlimit="2" viewBox="0 0 24 24" width="512" xmlns="http://www.w3.org/2000/svg"><g id="Icon"><path d="m22.07 14.61c.21-.782.1-1.616-.305-2.317-.405-.702-1.072-1.214-1.854-1.423l-10.933-2.93s-1.912-4.856-1.912-4.856c-.087-.221-.274-.388-.503-.45l-1.615-.432c-.22-.059-.454-.015-.638.119-.183.135-.295.345-.305.573l-.159 3.671s-1.028-.275-1.028-.275c-.401-.108-.812.13-.919.53l-.388 1.449c-.074.274.014.567.227.755 0 0 1.019.904 1.933 1.714 1.016.901 2.228 1.554 3.54 1.905 0 0 2.888.774 2.888.774s-3.575 2.508-3.575 2.508c-.239.167-.359.457-.308.744s.263.519.544.594l2.415.647c.161.043.331.032.485-.033l6.653-2.795s3.376.904 3.376.904c.498.134 1.028.064 1.475-.194.446-.257.772-.682.906-1.18zm-1.449-.388v.002c-.031.113-.105.21-.207.269s-.223.075-.337.045l-3.624-.971c-.161-.043-.331-.032-.485.033l-6.653 2.795c.001 0-.614-.165-.614-.165s3.575-2.508 3.575-2.508c.238-.167.358-.457.308-.744-.051-.287-.263-.519-.545-.594 0 0-2.59-.694-4.439-1.19-1.088-.291-2.092-.831-2.934-1.578 0 0-1.586-1.407-1.586-1.407s.074-.276.074-.276 1.207.323 1.207.323c.22.059.454.015.638-.12.183-.134.296-.345.306-.572l.158-3.671s.346.092.346.092 1.912 4.857 1.912 4.857c.087.221.274.388.504.449l11.297 3.027c.398.107.738.368.944.725.206.356.262.781.155 1.179z"/><path d="m22 20.324h-20c-.414 0-.75.336-.75.75s.336.75.75.75h20c.414 0 .75-.336.75-.75s-.336-.75-.75-.75z"/></g></svg>