<svg clip-rule="evenodd" fill-rule="evenodd" height="512" stroke-linejoin="round" stroke-miterlimit="2" viewBox="0 0 24 24" width="512" xmlns="http://www.w3.org/2000/svg"><g id="Icon"><path d="m5.85 20.376.895-7.157c.044-.355-.066-.713-.304-.982-.237-.269-.578-.423-.937-.423h-3.012c-.69 0-1.25.56-1.25 1.25v7.157c0 .69.56 1.25 1.25 1.25h2.118c.63 0 1.162-.47 1.24-1.095zm-3.108-7.062v6.657h1.647l.832-6.657z"/><path d="m6.106 13.814 1.869-.303c.673-.109 1.364-.004 1.974.301l1.511.756c.31.155.636.276.972.36l2.577.644c.298.074.507.342.507.65v.002c0 .38-.308.688-.687.688-.001 0-.972 0-.972 0-.349 0-.696-.056-1.028-.167 0 0-2.443-.814-2.443-.814-.392-.131-.818.082-.948.474-.131.393.081.818.474.949 0 0 1.55.517 2.443.814.484.162.991.244 1.502.244h.971c1.209 0 2.188-.979 2.188-2.188v-.002c0-.996-.677-1.864-1.643-2.105-.843-.211-1.972-.493-2.577-.644-.23-.058-.453-.14-.665-.247l-1.511-.755c-.892-.446-1.901-.6-2.885-.44l-1.869.303c-.408.066-.686.452-.62.86.066.409.452.687.86.62z"/><path d="m21.057 17.907-5.8 2.388c-1.037.428-2.184.511-3.272.239-2.411-.603-6.242-1.56-6.242-1.56-.402-.101-.809.144-.91.545-.1.402.145.809.546.91 0 0 3.831.958 6.242 1.56 1.399.35 2.873.243 4.207-.307 1.915-.788 4.828-1.987 6.148-2.531.386-.159.668-.501.75-.911s-.047-.833-.342-1.129l-.242-.242c-.975-.975-2.408-1.336-3.729-.94-1.48.444-3.382 1.015-3.382 1.015-.396.119-.621.537-.502.934.118.396.537.621.933.502 0 0 1.902-.57 3.382-1.014.782-.235 1.629-.027 2.213.541z"/><path d="m20.37 7.805.841 1.514c.043.078.042.172-.003.249-.045.076-.127.123-.215.123-.001 0-1.801 0-1.801 0-.414 0-.75.336-.75.75s.336.75.75.75h1.8c.621 0 1.194-.328 1.509-.863.314-.534.322-1.195.021-1.737l-.841-1.514c-.201-.362-.658-.493-1.02-.292s-.492.658-.291 1.02z"/><path d="m16.192 9.691h-1.8c-.089 0-.171-.047-.216-.123-.045-.077-.046-.171-.003-.248 0-.001.841-1.515.841-1.515.201-.362.071-.819-.291-1.02s-.819-.07-1.02.292l-.841 1.514c-.301.542-.293 1.203.021 1.737.315.535.888.863 1.509.863h1.8c.414 0 .75-.336.75-.75s-.336-.75-.75-.75z"/><path d="m16.403 5.305 1.07-1.926c.045-.08.128-.129.219-.129s.174.049.219.129c0 0 1.07 1.926 1.07 1.926.201.362.658.493 1.02.291.362-.201.492-.658.291-1.019l-1.07-1.927c-.309-.555-.894-.9-1.53-.9s-1.221.345-1.53.9l-1.07 1.927c-.201.361-.071.818.291 1.019.362.202.819.071 1.02-.291z"/></g></svg>