<svg clip-rule="evenodd" fill-rule="evenodd" height="512" stroke-linejoin="round" stroke-miterlimit="2" viewBox="0 0 24 24" width="512" xmlns="http://www.w3.org/2000/svg"><g id="Icon"><path d="m20.25 4.5c0-.414-.336-.75-.75-.75h-.844c-1.86 0-4.219.494-5.834 1.416-.655.375-1.194.683-1.194.683-.234.133-.378.382-.378.651v13c0 .267.142.514.374.649.231.134.516.135.748.002l1.194-.682c1.408-.805 3.469-1.219 5.09-1.219h.844c.414 0 .75-.336.75-.75zm-1.5.75v11.5h-.094c-1.86 0-4.219.494-5.834 1.416 0 0-.072.042-.072.042v-11.273s.816-.466.816-.466c1.408-.805 3.469-1.219 5.09-1.219z"/><path d="m4.5 3.75c-.414 0-.75.336-.75.75v13c0 .414.336.75.75.75h.844c1.621 0 3.682.414 5.09 1.219 0 0 1.194.682 1.194.682.232.133.517.132.748-.002.232-.135.374-.382.374-.649v-13c0-.269-.144-.518-.378-.651l-1.194-.683c-1.615-.922-3.974-1.416-5.834-1.416zm.75 1.5h.094c1.621 0 3.682.414 5.09 1.219 0 0 .816.466.816.466v11.273l-.072-.042c-1.615-.922-3.974-1.416-5.834-1.416h-.094z"/><path d="m19.5 7.25h1.75v11.5h-9.25c-.414 0-.75.336-.75.75s.336.75.75.75h10c.414 0 .75-.336.75-.75v-13c0-.414-.336-.75-.75-.75h-2.5c-.414 0-.75.336-.75.75s.336.75.75.75z"/><path d="m4.5 5.75h-2.5c-.414 0-.75.336-.75.75v13c0 .414.336.75.75.75h10c.414 0 .75-.336.75-.75s-.336-.75-.75-.75h-9.25v-11.5h1.75c.414 0 .75-.336.75-.75s-.336-.75-.75-.75z"/></g></svg>