<svg clip-rule="evenodd" fill-rule="evenodd" height="512" stroke-linejoin="round" stroke-miterlimit="2" viewBox="0 0 24 24" width="512" xmlns="http://www.w3.org/2000/svg"><g id="Icon"><path d="m2.237 12.712.671-.224c.406-.136.842-.152 1.258-.049l.498.125c.538.135 1.1.148 1.645.039l1.177-.235c.326-.066.663-.058.987.023l.617.155c.598.149 1.222.149 1.82 0l.544-.136c.359-.09.733-.09 1.092-.001l.544.137c.598.149 1.222.149 1.82 0l.544-.136c.359-.09.733-.09 1.092-.001l.544.137c.598.149 1.222.149 1.82 0l.544-.136c.359-.09.733-.09 1.092-.001 0 .001 1.272.319 1.272.319.402.1.809-.145.91-.546.1-.402-.145-.809-.546-.91l-1.272-.318c-.598-.149-1.222-.149-1.82 0l-.544.136c-.359.09-.733.09-1.092.001l-.544-.137c-.598-.149-1.222-.149-1.82 0l-.544.136c-.359.09-.733.09-1.092.001l-.544-.137c-.598-.149-1.222-.149-1.82 0l-.544.136c-.359.09-.733.09-1.092.001l-.618-.155c-.538-.135-1.1-.148-1.645-.039l-1.177.235c-.326.066-.663.058-.987-.023l-.498-.125c-.691-.173-1.418-.145-2.095.081 0 0-.671.223-.671.223-.393.131-.605.556-.475.949.131.393.556.605.949.475z"/><path d="m9.562 7.123 1.408 1.407c.292.293.768.293 1.06 0 .293-.292.293-.768 0-1.06l-1.605-1.605c-.251-.252-.598-.384-.953-.365-.355.02-.684.19-.907.468l-1.35 1.688c-.048.059-.12.094-.196.094h-.335c-.722 0-1.369.443-1.631 1.116-.342.881-.918 2.362-.918 2.362-.149.386.042.821.428.971s.821-.042.971-.427l.917-2.363c.038-.096.13-.159.233-.159h.335c.532 0 1.035-.242 1.367-.657z"/><path d="m9.562 16.877-1.176-1.47c-.332-.415-.835-.657-1.367-.657h-.335c-.103 0-.195-.063-.233-.159 0 0-.335-.863-.335-.863-.15-.385-.584-.577-.97-.427s-.578.585-.428.971l.335.862c.262.673.909 1.116 1.631 1.116h.335c.076 0 .148.035.196.094l1.35 1.688c.223.278.552.448.907.468.355.019.702-.113.953-.365l1.605-1.605c.293-.292.293-.768 0-1.06-.292-.293-.768-.293-1.06 0z"/><path d="m13.5 3.75.6.8c.331.441.849.7 1.4.7h.279c.108 0 .203.069.237.171l.545 1.632c.238.715.907 1.197 1.66 1.197h.12c.1 0 .19.06.229.151 0 .001 1.455 3.394 1.455 3.394.163.381.604.557.985.394.38-.163.557-.604.394-.984l-1.455-3.394c-.276-.644-.908-1.061-1.608-1.061h-.12c-.108 0-.203-.069-.237-.171l-.545-1.632c-.238-.715-.907-1.197-1.66-1.197h-.279c-.079 0-.153-.037-.2-.1l-.8-1.067c-.236-.314-.607-.5-1-.5s-.764.186-1 .5l-1.475 1.967c-.248.331-.181.802.15 1.05s.802.181 1.05-.15z"/><path d="m13.5 20.25-1.275-1.7c-.248-.331-.719-.398-1.05-.15s-.398.719-.15 1.05l1.475 1.967c.236.314.607.5 1 .5s.764-.186 1-.5l.8-1.067c.047-.063.121-.1.2-.1h.279c.753 0 1.422-.482 1.66-1.197l.545-1.632c.034-.102.129-.171.237-.171h.12c.7 0 1.332-.417 1.608-1.061.296-.691.74-1.727.74-1.727.163-.38-.013-.822-.394-.985-.38-.163-.821.014-.984.394l-.741 1.727c-.039.092-.129.152-.229.152h-.12c-.753 0-1.422.482-1.66 1.197l-.545 1.632c-.034.102-.129.171-.237.171h-.279c-.551 0-1.069.259-1.4.7z"/><path d="m14.829 14.665-1 2c-.185.37-.035.821.336 1.006.37.185.821.035 1.006-.336l1-2c.185-.37.035-.821-.336-1.006-.37-.185-.821-.035-1.006.336z"/></g></svg>