<svg clip-rule="evenodd" fill-rule="evenodd" height="512" stroke-linejoin="round" stroke-miterlimit="2" viewBox="0 0 24 24" width="512" xmlns="http://www.w3.org/2000/svg"><g id="Icon"><path d="m21.101 10.771c.405-.7.48-1.544.207-2.305l-1.843-5.127c-.454-1.264-1.755-2.015-3.076-1.776l-5.362.968c-.796.144-1.488.631-1.892 1.331-1.146 1.984-4.13 7.152-5.7 9.872-.759 1.315-.309 2.997 1.007 3.757l7.203 4.159c1.315.759 2.997.308 3.757-1.007zm-1.299-.75-5.699 9.872c-.346.598-1.11.803-1.708.458 0-.001-7.203-4.16-7.203-4.16-.598-.345-.803-1.109-.458-1.707 0 0 5.7-9.872 5.7-9.872.183-.318.498-.54.86-.605 0 0 5.361-.968 5.361-.968.601-.109 1.192.233 1.399.807 0 0 1.842 5.127 1.842 5.127.124.346.09.73-.094 1.048z"/><path d="m16.766 4.462c.453.262.608.842.347 1.295-.261.452-.841.608-1.294.346-.453-.261-.609-.841-.347-1.294.261-.453.841-.608 1.294-.347z"/><path d="m10.735 16.408.342.198-.573.992c-.207.358-.084.817.275 1.024.358.207.817.084 1.024-.274 0 0 .417-.722.698-1.209.166-.287.211-.628.125-.948s-.295-.593-.583-.759c-.239-.138-.535-.31-.775-.448-.287-.165-.628-.21-.948-.125-.32.086-.594.296-.759.583l-.323.558-.342-.197.573-.992c.207-.358.084-.817-.275-1.024-.358-.207-.817-.084-1.024.274 0 0-.417.722-.698 1.208-.166.288-.211.629-.125.949s.295.593.583.759c.239.138.535.309.775.447.287.166.628.211.948.125.32-.085.593-.295.759-.582z"/><path d="m13.011 13.255-1.983-1.145.573-.991c.207-.359.084-.818-.275-1.025-.358-.207-.818-.084-1.024.275 0 0-.417.722-.698 1.208-.166.287-.211.628-.125.948.086.321.295.594.583.759.628.363 1.787 1.032 2.416 1.395.287.166.628.211.948.125.321-.086.594-.295.759-.582.281-.486.698-1.208.698-1.208.207-.359.084-.818-.275-1.025-.358-.207-.817-.084-1.024.275z"/><path d="m12.294 13.707.711-1.231c.207-.358.084-.817-.275-1.024-.358-.207-.817-.084-1.024.274l-.711 1.231c-.207.359-.084.818.275 1.025.358.207.817.084 1.024-.275z"/><path d="m13.891 6.651c-.287-.165-.628-.21-.949-.124-.32.085-.593.295-.759.582-.138.239-.309.536-.447.775-.166.287-.211.628-.125.949.086.32.295.593.582.759.629.363 1.788 1.032 2.417 1.395.287.165.628.21.948.125.321-.086.594-.296.759-.583.139-.239.31-.536.448-.775.166-.287.211-.628.125-.948-.086-.321-.296-.594-.583-.76zm-.731 1.767 1.983 1.145.198-.342-1.983-1.146z"/></g></svg>