<?xml version="1.0"?>
<svg xmlns="http://www.w3.org/2000/svg" viewBox="0 0 32 32" width="512" height="512"><g id="stethoscope_doctor_hospital" data-name="stethoscope, doctor, hospital"><path d="M14.9507,16.95A6.9607,6.9607,0,0,0,17,12V7.998A5.0038,5.0038,0,0,0,12.002,3a1,1,0,0,0,0,2A3.0011,3.0011,0,0,1,15,7.998V12A5,5,0,1,1,5,12V7.998A3.0022,3.0022,0,0,1,8,5a1,1,0,0,0-.002-2A5.0038,5.0038,0,0,0,3,7.998V12a7.001,7.001,0,0,0,11.9507,4.95Z"/><path d="M27,23.1843V7a4,4,0,0,0-8,0V24a3.0016,3.0016,0,0,1-3,3H14a3.0016,3.0016,0,0,1-3-3V22a1,1,0,0,0-2,0v2a5,5,0,0,0,5,5h2a5,5,0,0,0,5-5V7a2,2,0,0,1,4,0V23.1843a3,3,0,1,0,2,0ZM26,27a1,1,0,1,1,1-1A1.0009,1.0009,0,0,1,26,27Z"/></g></svg>
