<svg clip-rule="evenodd" fill-rule="evenodd" height="512" stroke-linejoin="round" stroke-miterlimit="2" viewBox="0 0 24 24" width="512" xmlns="http://www.w3.org/2000/svg"><g id="Icon"><path d="m14 16v6c0 .414-.336.75-.75.75h-2.5c-.414 0-.75-.336-.75-.75v-6c0-.414.336-.75.75-.75h2.5c.414 0 .75.336.75.75zm-1.5.75h-1v4.5h1z"/><path d="m10 16.75c-.414 0-.75-.336-.75-.75s.336-.75.75-.75h11c.138 0 .25-.112.25-.25v-6c0-.862-.342-1.689-.952-2.298-.609-.61-1.436-.952-2.298-.952h-9.5c-.414 0-.75-.336-.75-.75s.336-.75.75-.75h9.5c1.26 0 2.468.5 3.359 1.391s1.391 2.099 1.391 3.359v6c0 .967-.784 1.75-1.75 1.75z"/><path d="m13.75 9.498v6.502c0 .414-.336.75-.75.75h-9c-.414 0-.75-.336-.75-.75v-6.502c0-1.392.553-2.727 1.537-3.711s2.319-1.537 3.711-1.537h.004c1.392 0 2.727.553 3.711 1.537s1.537 2.319 1.537 3.711zm-1.5 0c0-.994-.395-1.947-1.098-2.65s-1.656-1.098-2.65-1.098h-.004c-.994 0-1.947.395-2.65 1.098s-1.098 1.656-1.098 2.65v5.752h7.5z"/><path d="m6 15.25c.414 0 .75.336.75.75s-.336.75-.75.75h-4c-.414 0-.75-.336-.75-.75s.336-.75.75-.75z"/><path d="m16.75 7c0 .414-.336.75-.75.75s-.75-.336-.75-.75v-5c0-.414.336-.75.75-.75h2c.414 0 .75.336.75.75s-.336.75-.75.75h-1.25z"/></g></svg>