<svg clip-rule="evenodd" fill-rule="evenodd" height="512" stroke-linejoin="round" stroke-miterlimit="2" viewBox="0 0 24 24" width="512" xmlns="http://www.w3.org/2000/svg"><g id="Icon"><path d="m20.083 1.462c-.293-.292-.768-.292-1.061 0l-8.685 8.686c-.293.292-.293.767 0 1.06l1.448 1.448c.292.293.767.293 1.06 0l8.685-8.685c.293-.293.293-.768 0-1.061zm-.531 1.591.387.387s-7.624 7.625-7.624 7.625-.387-.387-.387-.387z"/><path d="m9.226 4.357c-.16-.16-.386-.24-.612-.215s-.429.151-.551.343l-2.489 3.911s-3.198 3.199-3.198 3.199c-.293.293-.293.768 0 1.061l1.809 1.809c.151.151.359.23.572.219.213-.012.411-.114.544-.281l2.843-3.553s3.554-2.843 3.554-2.843c.166-.134.268-.332.28-.545s-.068-.42-.218-.571zm-.399 1.722 1.279 1.28s-2.964 2.371-2.964 2.371c-.043.035-.083.074-.117.118l-2.372 2.964s-.686-.687-.686-.687 2.726-2.726 2.726-2.726c.039-.039.073-.082.103-.128z"/><path d="m17.188 7.253c-.293-.293-.768-.293-1.061 0l-4.342 4.342c-.293.293-.293.768 0 1.061l1.447 1.447c.293.293.768.293 1.061 0l4.342-4.342c.293-.293.293-.768 0-1.061zm-.531 1.591.387.386s-3.282 3.282-3.282 3.282-.386-.387-.386-.387z"/><path d="m11.398 10.148c-.293-.293-.768-.293-1.061 0 0 0-1.8 1.799-2.561 2.561-.302.302-.529.67-.664 1.075l-.703 2.107c-.094.283-.287.523-.543.676-.59.354-1.474.885-2.127 1.277-.397.238-.684.625-.797 1.076-.112.45-.042.927.197 1.325l.998 1.663c.277.462.752.77 1.287.836s1.07-.118 1.451-.499l3.27-3.27c.192-.192.337-.427.423-.684 0 0 .553-1.66.553-1.66.016-.047.045-.088.084-.119 0 0 3.018-2.347 3.018-2.347.17-.132.275-.331.288-.545.013-.215-.066-.425-.218-.577zm-.531 1.591 1.764 1.764-2.347 1.825c-.273.212-.477.5-.586.828l-.553 1.66c-.012.037-.033.071-.061.098 0 0-3.27 3.27-3.27 3.27-.054.054-.13.081-.207.071-.076-.009-.144-.053-.184-.119l-.998-1.663c-.034-.057-.044-.125-.028-.189.016-.065.057-.12.114-.154l2.127-1.276c.563-.338.987-.866 1.194-1.489 0 0 .703-2.107.703-2.107.061-.184.164-.351.301-.489z"/><path d="m10.337 16.998.724.724c.692.693 1.815.693 2.508 0l1.447-1.447c.693-.693.693-1.816 0-2.509 0 0-.723-.723-.723-.723-.293-.293-.768-.293-1.061 0-.293.292-.293.768 0 1.06l.724.724c.107.107.107.28 0 .387 0 0-1.448 1.447-1.448 1.447-.107.107-.28.107-.387 0 0 0-.723-.723-.723-.723-.293-.293-.768-.293-1.061 0-.293.292-.293.768 0 1.06z"/><path d="m8.141 9.786-1.448-1.448c-.292-.293-.768-.293-1.06 0-.293.293-.293.768 0 1.061l1.447 1.447c.293.293.768.293 1.061 0 .292-.292.292-.768 0-1.06z"/></g></svg>