<svg clip-rule="evenodd" fill-rule="evenodd" height="512" stroke-linejoin="round" stroke-miterlimit="2" viewBox="0 0 24 24" width="512" xmlns="http://www.w3.org/2000/svg"><g id="Icon"><path d="m12 1.25c-3.723 0-6.75 3.054-6.75 6.821 0 1.276.562 2.859 1.38 4.438 1.801 3.477 4.801 6.979 4.801 6.979.142.166.35.262.569.262s.427-.096.569-.262c0 0 3-3.502 4.801-6.979.818-1.579 1.38-3.162 1.38-4.438 0-3.767-3.027-6.821-6.75-6.821zm0 1.5c2.9 0 5.25 2.387 5.25 5.321 0 1.466-.93 3.376-2.004 5.157-1.152 1.91-2.5 3.664-3.246 4.592-.746-.928-2.094-2.682-3.246-4.592-1.074-1.781-2.004-3.691-2.004-5.157 0-2.934 2.35-5.321 5.25-5.321z"/><path d="m12 5.25c-1.518 0-2.75 1.232-2.75 2.75s1.232 2.75 2.75 2.75 2.75-1.232 2.75-2.75-1.232-2.75-2.75-2.75zm0 1.5c.69 0 1.25.56 1.25 1.25s-.56 1.25-1.25 1.25-1.25-.56-1.25-1.25.56-1.25 1.25-1.25z"/><path d="m16.784 17.377c.813.244 1.483.546 1.946.9.3.228.52.451.52.723 0 .16-.091.305-.219.45-.212.239-.527.454-.917.654-1.378.705-3.606 1.146-6.114 1.146s-4.736-.441-6.114-1.146c-.39-.2-.705-.415-.917-.654-.128-.145-.219-.29-.219-.45 0-.272.22-.495.52-.723.463-.354 1.133-.656 1.946-.9.396-.119.621-.538.502-.934-.119-.397-.538-.622-.934-.503-1.238.373-2.2.884-2.778 1.449-.508.495-.756 1.049-.756 1.611 0 .702.397 1.402 1.204 1.986 1.416 1.024 4.26 1.764 7.546 1.764s6.13-.74 7.546-1.764c.807-.584 1.204-1.284 1.204-1.986 0-.562-.248-1.116-.756-1.611-.578-.565-1.54-1.076-2.778-1.449-.396-.119-.815.106-.934.503-.119.396.106.815.502.934z"/></g></svg>