<svg clip-rule="evenodd" fill-rule="evenodd" stroke-linejoin="round" stroke-miterlimit="1.414" viewBox="0 0 32 32" xmlns="http://www.w3.org/2000/svg" xmlns:serif="http://www.serif.com/"><path id="note-tax-transaction-" d="m0 0h32v32h-32z" fill="none"/><path d="m23.997 28.994h-.001c-5.342 0-10.685.017-16.028 0-2.584-.024-4.96-2.267-4.968-4.998v-15.998c.037-.769 1.043-1.286 1.655-.756.168.146.284.348.327.567.016.083.014.104.018.189 0 5.345-.05 10.69 0 16.034.024 1.547 1.363 2.947 2.98 2.962 4.006.013 8.011 0 12.017 0-.019-.024-.037-.049-.055-.075-.613-.855-.942-1.885-.945-2.923v-18.998h-14.997s-.964-.22-.999-.952c-.025-.536.443-1.021.999-1.047h15.997c.537.024.974.45 1 .999 0 6.678-.062 13.357 0 20.034.024 1.53 1.341 2.922 2.939 2.962.079-.009.055.005.235-.005 1.502-.09 2.82-1.428 2.825-2.996v-8.996h-3s-.484-.053-.733-.32c-.477-.515-.198-1.551.584-1.669.066-.01.083-.009.149-.011h4c.024.001.049.002.074.003.229.025.265.05.359.096.337.162.552.523.566.901 0 3.343.011 6.687 0 10.03-.024 2.604-2.305 4.958-4.997 4.967zm-9.999-5.999h-3.999c-.778-.015-1.301-1.052-.741-1.671.186-.206.458-.323.741-.329h3.999c.013.001.027.001.04.001.873.052 1.316 1.423.419 1.887-.141.073-.297.109-.459.112zm2-3.999h-7.999c-.229-.007-.305-.037-.434-.099-.613-.296-.743-1.292-.144-1.716.122-.087.263-.146.411-.171.055-.009.111-.012.167-.014h7.999c.018.001.037.001.056.002.736.062 1.243 1.044.689 1.664-.188.21-.379.324-.745.334zm0-3.999h-7.999c-.765-.022-1.312-1.033-.745-1.667.187-.21.379-.323.745-.333h7.999c.018 0 .037.001.056.001.739.063 1.227 1.063.689 1.665-.188.21-.379.323-.745.334zm0-4h-7.999c-.763-.021-1.308-1.037-.745-1.666.187-.21.379-.323.745-.333h7.999c.018 0 .037.001.056.001.229.019.302.054.427.123.576.319.682 1.275.095 1.691-.122.086-.263.145-.411.17-.055.009-.111.013-.167.014z" fill-rule="nonzero"/></svg>