<svg clip-rule="evenodd" fill-rule="evenodd" height="512" stroke-linejoin="round" stroke-miterlimit="2" viewBox="0 0 24 24" width="512" xmlns="http://www.w3.org/2000/svg"><g id="Icon"><path d="m12 20.512-9.05.001c-.053 0-.104-.022-.141-.059-.038-.038-.059-.088-.059-.141 0-.001 0-1.45 0-1.45 0-.831.593-1.563 1.507-2.185 1.632-1.114 4.273-1.816 7.243-1.816.49 0 .971.02 1.441.057.412.033.774-.275.807-.688.032-.413-.276-.774-.689-.807-.508-.041-1.028-.062-1.559-.062-3.322 0-6.263.831-8.089 2.076-1.393.95-2.161 2.157-2.161 3.424v1.451c0 .45.179.883.498 1.202.319.318.751.498 1.202.497 0 .001 9.05 0 9.05 0 .414 0 .75-.336.75-.75 0-.413-.336-.75-.75-.75z"/><path d="m11.5 1.5c-3.036 0-5.5 2.464-5.5 5.5s2.464 5.5 5.5 5.5 5.5-2.464 5.5-5.5-2.464-5.5-5.5-5.5zm0 1.5c2.208 0 4 1.792 4 4s-1.792 4-4 4-4-1.792-4-4 1.792-4 4-4z"/><path d="m15.484 14.657c-.087.045-.164.107-.227.183-1.095 1.303-1.755 2.428-2.04 3.371-.226.745-.23 1.4-.057 1.968.284.93 1.054 1.671 2.341 2.155.288.108.592.164.899.164.673.002 2.338.002 3.015.002.312 0 .621-.057.913-.169 1.343-.514 2.085-1.301 2.332-2.261.331-1.29-.311-3.07-2.098-5.223-.063-.077-.142-.14-.23-.186l.467-1.285c.145-.435.072-.913-.196-1.284-.268-.372-.698-.592-1.156-.592h-3.077c-.458 0-.888.22-1.156.592-.268.371-.34.849-.196 1.284zm3.856-1.657-.656 1.804c-.135.37.04.78.399.941l.435.194c.786.964 1.319 1.817 1.575 2.565.205.601.226 1.111-.026 1.525-.234.384-.669.669-1.275.901-.001 0-.001 0-.001.001-.12.045-.247.069-.376.069-.676 0-2.338 0-3.012-.002-.001 0-.002 0-.003 0-.126 0-.251-.023-.37-.068 0 0 0 0-.001 0-.753-.283-1.268-.644-1.434-1.188-.125-.413-.045-.901.194-1.476.283-.68.783-1.452 1.505-2.328.001-.001.437-.194.437-.194.361-.16.537-.572.402-.942l-.655-1.802z"/><path d="m20.159 14.25h-4.5c-.414 0-.75.336-.75.75s.336.75.75.75h4.5c.414 0 .75-.336.75-.75s-.336-.75-.75-.75z"/></g></svg>