<svg clip-rule="evenodd" fill-rule="evenodd" height="512" stroke-linejoin="round" stroke-miterlimit="2" viewBox="0 0 24 24" width="512" xmlns="http://www.w3.org/2000/svg"><g id="Icon"><path d="m14.75 7v-4c0-.138.112-.25.25-.25h6c.138 0 .25.112.25.25v18c0 .138-.112.25-.25.25h-6c-.138 0-.25-.112-.25-.25 0-.414-.336-.75-.75-.75s-.75.336-.75.75c0 .968.784 1.75 1.75 1.75h6c.966 0 1.75-.782 1.75-1.75v-18c0-.966-.784-1.75-1.75-1.75h-6c-.966 0-1.75.784-1.75 1.75v4c0 .414.336.75.75.75s.75-.336.75-.75z"/><path d="m17 18.75c.966 0 1.75-.782 1.75-1.75v-9c0-.966-.784-1.75-1.75-1.75h-14c-.966 0-1.75.784-1.75 1.75v9c0 .968.784 1.75 1.75 1.75zm0-1.5h-14c-.138 0-.25-.112-.25-.25v-9c0-.138.112-.25.25-.25h14c.138 0 .25.112.25.25v9c0 .138-.112.25-.25.25z"/><path d="m9 20.75h2c.414 0 .75-.336.75-.75s-.336-.75-.75-.75h-2c-.414 0-.75.336-.75.75s.336.75.75.75z"/></g></svg>