<svg clip-rule="evenodd" fill-rule="evenodd" height="512" stroke-linejoin="round" stroke-miterlimit="2" viewBox="0 0 24 24" width="512" xmlns="http://www.w3.org/2000/svg"><g id="Icon"><path d="m10 6.75c-.414 0-.75.336-.75.75v2c0 .414.336.75.75.75h4c.414 0 .75-.336.75-.75v-2c0-.414-.336-.75-.75-.75zm.75 1.5h2.5v.5h-2.5z"/><path d="m11.25 2v5.5c0 .414.336.75.75.75s.75-.336.75-.75v-5.5c0-.414-.336-.75-.75-.75s-.75.336-.75.75z"/><path d="m16 17.75h-2.5c-.414 0-.75.336-.75.75s.336.75.75.75h2.5c.414 0 .75-.336.75-.75s-.336-.75-.75-.75z"/><path d="m10.5 12.75h-2.5c-.414 0-.75.336-.75.75s.336.75.75.75h2.5c.414 0 .75-.336.75-.75s-.336-.75-.75-.75z"/><path d="m10.5 15.25h-2.5c-.414 0-.75.336-.75.75s.336.75.75.75h2.5c.414 0 .75-.336.75-.75s-.336-.75-.75-.75z"/><path d="m10.5 17.75h-2.5c-.414 0-.75.336-.75.75s.336.75.75.75h2.5c.414 0 .75-.336.75-.75s-.336-.75-.75-.75z"/><path d="m13.5 14.25h2.5c.414 0 .75-.336.75-.75v-1.272c0-1.921-1.558-3.478-3.478-3.478h-2.544c-1.92 0-3.478 1.557-3.478 3.478v7.044c0 1.92 1.558 3.478 3.478 3.478h2.544c1.92 0 3.478-1.558 3.478-3.478v-3.272c0-.414-.336-.75-.75-.75h-2.5c-.414 0-.75.336-.75.75s.336.75.75.75h1.75v2.522c0 1.092-.886 1.978-1.978 1.978h-2.544c-1.092 0-1.978-.886-1.978-1.978v-7.044c0-1.093.886-1.978 1.978-1.978h2.544c1.092 0 1.978.885 1.978 1.978v.522h-1.75c-.414 0-.75.336-.75.75s.336.75.75.75z"/></g></svg>