<svg clip-rule="evenodd" fill-rule="evenodd" height="512" stroke-linejoin="round" stroke-miterlimit="2" viewBox="0 0 24 24" width="512" xmlns="http://www.w3.org/2000/svg"><g id="Icon"><path d="m17.007 2.012-2.942 2.942c-.684.684-.684 1.792 0 2.475l2.506 2.506c.683.684 1.791.684 2.475 0l2.942-2.942c.683-.683.683-1.791 0-2.474l-2.507-2.507c-.683-.683-1.791-.683-2.474 0zm1.06 1.061c.098-.098.256-.098.354 0 0 0 2.506 2.506 2.506 2.506.098.098.098.256 0 .354 0 0-2.942 2.942-2.942 2.942-.098.097-.256.097-.353 0 0 0-2.507-2.507-2.507-2.507-.097-.097-.097-.256 0-.353z"/><path d="m10.908 8.111-2.942 2.942c-.683.683-.683 1.791 0 2.474l2.507 2.507c.683.683 1.791.683 2.474 0l2.942-2.942c.684-.684.684-1.792 0-2.475l-2.506-2.506c-.683-.684-1.791-.684-2.475 0zm1.061 1.06c.098-.097.256-.097.353 0 0 0 2.507 2.507 2.507 2.507.097.097.097.255 0 .353 0 0-2.942 2.942-2.942 2.942-.098.097-.256.097-.354 0 0 0-2.506-2.506-2.506-2.506-.097-.098-.097-.256 0-.354z"/><path d="m20.734 4.326 1.212-1.212c.293-.292.293-.768 0-1.06-.292-.293-.768-.293-1.06 0l-1.212 1.212c-.293.292-.293.767 0 1.06s.768.293 1.06 0z"/><path d="m14.636 10.425 1.743-1.743c.292-.293.292-.768 0-1.061-.293-.292-.768-.292-1.061 0l-1.743 1.743c-.292.293-.292.768 0 1.061.293.292.768.292 1.061 0z"/><path d="m9.22 13.72-7.5 7.5c-.293.292-.293.768 0 1.06.292.293.768.293 1.06 0l7.5-7.5c.293-.292.293-.768 0-1.06-.292-.293-.768-.293-1.06 0z"/><path d="m6.5 18.137 3.049.435c.41.059.79-.226.848-.636.059-.41-.226-.79-.636-.849l-3.049-.435c-.41-.059-.79.226-.849.636-.058.41.227.79.637.849z"/><path d="m5.388 19.248-.435-3.049c-.059-.41-.439-.695-.849-.636-.41.058-.695.438-.636.848l.435 3.049c.059.41.439.695.849.637.409-.059.695-.439.636-.849z"/></g></svg>