<svg clip-rule="evenodd" fill-rule="evenodd" height="512" stroke-linejoin="round" stroke-miterlimit="2" viewBox="0 0 24 24" width="512" xmlns="http://www.w3.org/2000/svg"><g id="Icon"><path d="m14.165 3.268c-.159-.035-.325-.019-.473.048l-1.692.762s-1.692-.762-1.692-.762c-.148-.067-.314-.083-.473-.048l-4 .9c-.342.077-.585.381-.585.732v11.7c0 3.373 3.002 6.15 6.75 6.15s6.75-2.777 6.75-6.15v-11.7c0-.351-.243-.655-.585-.732l-4-.9zm-.085 1.519 3.17.713v11.1c0 2.591-2.372 4.65-5.25 4.65s-5.25-2.059-5.25-4.65v-11.1s3.17-.713 3.17-.713 1.772.797 1.772.797c.196.088.42.088.616 0z"/><path d="m11.25 2v10c0 .414.336.75.75.75s.75-.336.75-.75v-10c0-.414-.336-.75-.75-.75s-.75.336-.75.75z"/><path d="m6 12.75h12c.414 0 .75-.336.75-.75s-.336-.75-.75-.75h-12c-.414 0-.75.336-.75.75s.336.75.75.75z"/></g></svg>