<svg clip-rule="evenodd" fill-rule="evenodd" height="512" stroke-linejoin="round" stroke-miterlimit="2" viewBox="0 0 24 24" width="512" xmlns="http://www.w3.org/2000/svg"><g id="Icon"><path d="m10.75 2.5c0-.331-.132-.649-.366-.884-.235-.234-.552-.366-.884-.366h-7c-.332 0-.649.132-.884.366-.234.235-.366.553-.366.884v3c0 .331.132.649.366.884.235.234.552.366.884.366h7c.332 0 .649-.132.884-.366.234-.235.366-.553.366-.884zm-8 .25v2.5h6.5v-2.5z"/><path d="m22.75 18.5c0-.331-.132-.649-.366-.884-.235-.234-.552-.366-.884-.366h-7c-.332 0-.649.132-.884.366-.234.235-.366.553-.366.884v3c0 .331.132.649.366.884.235.234.552.366.884.366h7c.332 0 .649-.132.884-.366.234-.235.366-.553.366-.884zm-8 .25v2.5h6.5v-2.5z"/><path d="m10.03 22.03 1.5-1.5c.293-.293.293-.767 0-1.06l-1.5-1.5c-.292-.293-.768-.293-1.06 0-.293.292-.293.768 0 1.06l.969.97s-.969.97-.969.97c-.293.292-.293.768 0 1.06.292.293.768.293 1.06 0z"/><path d="m13.28 12.97-.969-.97s.969-.97.969-.97c.293-.292.293-.768 0-1.06-.292-.293-.768-.293-1.06 0l-1.5 1.5c-.293.293-.293.767 0 1.06l1.5 1.5c.292.293.768.293 1.06 0 .293-.292.293-.768 0-1.06z"/><path d="m20.25 8c0 1.795-1.455 3.25-3.25 3.25h-2.477c-.414 0-.75.336-.75.75s.336.75.75.75h2.477c2.623 0 4.75-2.127 4.75-4.75 0-1.26-.5-2.468-1.391-3.359s-2.099-1.391-3.359-1.391h-5c-.414 0-.75.336-.75.75s.336.75.75.75h5c.862 0 1.689.342 2.298.952.61.609.952 1.436.952 2.298z"/><path d="m9.023 11.25h-2.023c-1.26 0-2.468.5-3.359 1.391s-1.391 2.099-1.391 3.359c0 2.623 2.127 4.75 4.75 4.75.414 0 .75-.336.75-.75s-.336-.75-.75-.75c-1.795 0-3.25-1.455-3.25-3.25 0-.862.342-1.689.952-2.298.609-.61 1.436-.952 2.298-.952h2.023c.414 0 .75-.336.75-.75s-.336-.75-.75-.75z"/></g></svg>