<svg height="512" viewBox="0 0 32 32" width="512" xmlns="http://www.w3.org/2000/svg"><g id="Layer_46" data-name="Layer 46"><path d="m9 11h2v2h-2z"/><path d="m9 15h2v2h-2z"/><path d="m9 19h2v2h-2z"/><path d="m13 11h2v2h-2z"/><path d="m13 15h2v2h-2z"/><path d="m13 19h2v2h-2z"/><path d="m17 11h2v2h-2z"/><path d="m17 15h2v2h-2z"/><path d="m17 19h2v2h-2z"/><path d="m28 27h-1v-17a1 1 0 0 0 -.5527-.8945l-3.4473-1.7237v-3.3818a1 1 0 0 0 -1.2422-.97l-16 4a1 1 0 0 0 -.7578.97v16a1 1 0 0 0 2 0v-15.2192l14-3.5v21.7192h-4v-3a1 1 0 0 0 -1-1h-4a1 1 0 0 0 -1 1v3h-7a1 1 0 0 0 0 2h24a1 1 0 0 0 0-2zm-5-17.3818 2 1v16.3818h-2zm-10 15.3818h2v2h-2z"/></g></svg>