<svg clip-rule="evenodd" fill-rule="evenodd" stroke-linejoin="round" stroke-miterlimit="2" viewBox="0 0 134 134" xmlns="http://www.w3.org/2000/svg" xmlns:serif="http://www.serif.com/"><path id="ac-air-conditioner-cool-temperature-home-equipment" d="m0 0h133.333v133.333h-133.333z" fill="none"/><path d="m62.5 87.5v25c0 2.3 1.867 4.167 4.167 4.167 2.299 0 4.166-1.867 4.166-4.167v-25c0-2.3-1.867-4.167-4.166-4.167-2.3 0-4.167 1.867-4.167 4.167zm58.333 16.667c0-5.855-8.333-5.855-8.333 0 0 2.301-1.865 4.166-4.167 4.166-2.301 0-4.166-1.865-4.166-4.166 0-7.272 0-16.667 0-16.667 0-2.3-1.867-4.167-4.167-4.167s-4.167 1.867-4.167 4.167v16.667c0 6.903 5.597 12.5 12.5 12.5 6.904 0 12.5-5.597 12.5-12.5zm-95.833 4.166c2.301 0 4.167-1.865 4.167-4.166 0-7.272 0-16.667 0-16.667 0-2.3 1.867-4.167 4.166-4.167 2.3 0 4.167 1.867 4.167 4.167v16.667c0 6.903-5.596 12.5-12.5 12.5s-12.5-5.627-12.5-12.5c0-5.855 8.333-5.855 8.333 0 0 2.301 1.866 4.166 4.167 4.166zm20.833-20.833v16.667c0 2.299 1.867 4.166 4.167 4.166s4.167-1.867 4.167-4.166v-16.667c0-2.3-1.867-4.167-4.167-4.167s-4.167 1.867-4.167 4.167zm33.334 0v16.667c0 2.299 1.867 4.166 4.166 4.166 2.3 0 4.167-1.867 4.167-4.166v-16.667c0-2.3-1.867-4.167-4.167-4.167-2.299 0-4.166 1.867-4.166 4.167zm-45.834-20.833h-8.333c-2.301 0-4.167-1.866-4.167-4.167 0-9.248 0-24.085 0-33.333 0-1.105.439-2.165 1.221-2.947.781-.781 1.841-1.22 2.946-1.22h83.333c1.105 0 2.165.439 2.947 1.22.781.782 1.22 1.842 1.22 2.947v33.333c0 2.301-1.865 4.167-4.167 4.167-17.883 0-58.333 0-58.333 0-2.3 0-4.167 1.867-4.167 4.166 0 2.3 1.867 4.167 4.167 4.167h58.333c6.904 0 12.5-5.596 12.5-12.5 0-9.248 0-24.085 0-33.333 0-3.316-1.317-6.495-3.661-8.839s-5.524-3.661-8.839-3.661c-18.833 0-64.5 0-83.333 0-3.315 0-6.495 1.317-8.839 3.661s-3.661 5.523-3.661 8.839v33.333c0 6.904 5.596 12.5 12.5 12.5h8.333c2.3 0 4.167-1.867 4.167-4.167 0-2.299-1.867-4.166-4.167-4.166zm66.667-16.667c2.3 0 4.167 1.867 4.167 4.167 0 2.299-1.867 4.166-4.167 4.166s-4.167-1.867-4.167-4.166c0-2.3 1.867-4.167 4.167-4.167zm-66.667 8.333h50c2.3 0 4.167-1.867 4.167-4.166 0-2.3-1.867-4.167-4.167-4.167h-50c-2.299 0-4.166 1.867-4.166 4.167 0 2.299 1.867 4.166 4.166 4.166z"/></svg>