<svg clip-rule="evenodd" fill-rule="evenodd" height="512" stroke-linejoin="round" stroke-miterlimit="2" viewBox="0 0 24 24" width="512" xmlns="http://www.w3.org/2000/svg"><g id="Icon"><path d="m12 1.25c-3.725 0-6.75 3.025-6.75 6.75 0 2.192 1.047 4.142 2.672 5.37.002.002.005.004.007.006.05.037.085.091.097.151 0 0 .413 2.023.413 2.023.261 1.28 1.387 2.2 2.694 2.2h1.734c1.307 0 2.433-.92 2.694-2.2.151-.738.317-1.552.417-2.012.001-.003.002-.007.003-.01.012-.059.045-.112.094-.148.003-.002.006-.004.009-.006 1.62-1.234 2.666-3.183 2.666-5.374 0-3.725-3.025-6.75-6.75-6.75zm0 1.5c2.898 0 5.25 2.352 5.25 5.25 0 1.704-.814 3.22-2.074 4.179-.34.254-.576.624-.663 1.04-.102.466-.27 1.287-.421 2.031-.119.582-.631 1-1.225 1h-1.734c-.594 0-1.106-.418-1.225-1l-.412-2.024c-.087-.421-.325-.796-.67-1.052-1.262-.955-2.076-2.47-2.076-4.174 0-2.898 2.352-5.25 5.25-5.25z"/><path d="m9.268 6.797c.457-1.056 1.508-1.797 2.732-1.797.414 0 .75-.336.75-.75s-.336-.75-.75-.75c-1.84 0-3.422 1.113-4.109 2.703-.164.38.011.821.391.986.38.164.822-.012.986-.392z"/><path d="m10 20.25h4c.414 0 .75-.336.75-.75s-.336-.75-.75-.75h-4c-.414 0-.75.336-.75.75s.336.75.75.75z"/><path d="m10.5 22.75h3c.414 0 .75-.336.75-.75s-.336-.75-.75-.75h-3c-.414 0-.75.336-.75.75s.336.75.75.75z"/></g></svg>