<svg clip-rule="evenodd" fill-rule="evenodd" height="512" stroke-linejoin="round" stroke-miterlimit="2" viewBox="0 0 24 24" width="512" xmlns="http://www.w3.org/2000/svg"><g id="Icon"><path d="m10.255 3.35c-.218-.063-.468-.1-.755-.1-1.244 0-2.25 1.007-2.25 2.25v4.05c-.375-.192-.8-.3-1.25-.3-.966 0-1.75.784-1.75 1.75v5s.024 5.607 5.087 6.732c.054.012.108.018.163.018h6c.13 0 .259-.034.372-.099 2.398-1.369 3.878-3.92 3.878-6.682v-8.969c0-.966-.784-1.75-1.75-1.75-.085 0-.168.006-.25.018v-.768c0-1.243-1.006-2.25-2.25-2.25-.357 0-.694.083-.993.23-.372-.73-1.131-1.23-2.007-1.23-1.193 0-2.168.927-2.245 2.1zm-3.005 8.65c0-.69-.56-1.25-1.25-1.25-.138 0-.25.112-.25.25v5s-.024 4.334 3.835 5.25c0 0 5.71 0 5.711-.001 1.831-1.123 2.954-3.121 2.954-5.28v-8.969c0-.138-.112-.25-.25-.25s-.25.112-.25.25c0 .414-.336.75-.75.75s-.75-.336-.75-.75v-2.5c0-.415-.335-.75-.75-.75s-.75.335-.75.75c0 .414-.336.75-.75.75s-.75-.336-.75-.75v-1c0-.415-.335-.75-.75-.75s-.75.335-.75.75v2c0 .414-.336.75-.75.75s-.75-.336-.75-.75c0 0 0-.75-.75-.75-.415 0-.75.335-.75.75v6.5c0 .414-.336.75-.75.75s-.75-.336-.75-.75z"/><path d="m16.25 7v5c0 .414.336.75.75.75s.75-.336.75-.75v-5c0-.414-.336-.75-.75-.75s-.75.336-.75.75z"/><path d="m13.25 4.5v7.5c0 .414.336.75.75.75s.75-.336.75-.75v-7.5c0-.414-.336-.75-.75-.75s-.75.336-.75.75z"/><path d="m10.25 5.5v6.5c0 .414.336.75.75.75s.75-.336.75-.75v-6.5c0-.414-.336-.75-.75-.75s-.75.336-.75.75z"/><path d="m7.25 12.002.008 3.992c.001.413.338.749.752.748.413-.001.749-.338.748-.752l-.008-3.992c-.001-.413-.338-.749-.752-.748-.413.001-.749.338-.748.752z"/></g></svg>