<svg clip-rule="evenodd" fill-rule="evenodd" height="512" stroke-linejoin="round" stroke-miterlimit="2" viewBox="0 0 24 24" width="512" xmlns="http://www.w3.org/2000/svg"><g id="Icon"><path d="m11.748 16.484c1.331-1.01 2.938-1.593 4.607-1.67h.001c1.626-.076 3.23-.736 4.47-1.977 2.65-2.649 2.65-6.951 0-9.6-2.649-2.649-6.95-2.649-9.6 0-1.207 1.208-1.865 2.759-1.971 4.34 0 .001-.001.003-.001.004-.107 1.732-.758 3.387-1.861 4.727-.018.022-.035.045-.051.069-.034.053-.075.101-.114.148-.9 1.094-.822 2.691.179 3.692.109.11.22.22.329.329.972.972 2.513 1.077 3.607.246zm-.907-1.194-.405.307c-.497.378-1.198.331-1.64-.111 0 0-.329-.329-.329-.329-.455-.455-.49-1.182-.081-1.679l.191-.249c1.287-1.576 2.048-3.518 2.174-5.551.083-1.232.595-2.44 1.536-3.38 2.064-2.064 5.415-2.064 7.479 0s2.064 5.415 0 7.479c-.966.966-2.214 1.479-3.48 1.538-1.973.092-3.872.78-5.445 1.975z"/><path d="m18.138 3.971c-1.736-.463-3.62-.227-5.205.709-.356.21-.475.67-.264 1.027.21.356.67.475 1.027.264 1.235-.728 2.703-.912 4.056-.551.4.107.811-.132.918-.532.106-.4-.132-.811-.532-.917z"/><path d="m4.239 16.745c-.103-.041-.206-.069-.31-.088-.642-.115-1.342.201-1.954.813-.882.882-.882 2.313 0 3.195.256.256.558.438.879.545.107.321.289.623.544.878.882.882 2.314.882 3.196 0 .715-.715 1.014-1.565.672-2.339 0 .001 2.618-2.617 2.618-2.617.292-.293.292-.768 0-1.06-.293-.293-.768-.293-1.061 0l-3.056 3.055c-.293.293-.293.768 0 1.061.269.268.035.572-.234.84-.296.296-.778.296-1.074 0-.137-.138-.211-.315-.221-.495-.021-.382-.326-.686-.708-.707-.18-.01-.357-.084-.494-.221-.297-.297-.297-.778 0-1.075.128-.128.258-.239.393-.318.128-.074.261-.101.383.021l.531.219s.037-.001.037-.001l.013-.001h.006.006c.017-.002.033-.004.049-.006l.036-.006.012-.003.007-.001.007-.002c.015-.004.03-.008.045-.012l.035-.012.012-.004.006-.003.006-.002c.015-.006.029-.012.044-.019l.032-.016.011-.006.006-.003.005-.004c.014-.007.028-.016.041-.025l.03-.021.009-.007.005-.004.005-.004.01-.008.028-.023c.009-.009.018-.017.027-.026l3.055-3.056c.293-.293.293-.768 0-1.061-.292-.292-.767-.292-1.06 0z"/></g></svg>