<svg clip-rule="evenodd" fill-rule="evenodd" height="512" stroke-linejoin="round" stroke-miterlimit="2" viewBox="0 0 24 24" width="512" xmlns="http://www.w3.org/2000/svg"><g id="Icon"><path d="m12 1.25c-5.933 0-10.75 4.817-10.75 10.75s4.817 10.75 10.75 10.75 10.75-4.817 10.75-10.75-4.817-10.75-10.75-10.75zm0 1.5c5.105 0 9.25 4.145 9.25 9.25s-4.145 9.25-9.25 9.25-9.25-4.145-9.25-9.25 4.145-9.25 9.25-9.25z"/><path d="m12 1.25c-1.322 0-2.58.804-3.572 2.258-1.307 1.917-2.178 5.005-2.178 8.492s.871 6.575 2.178 8.492c.992 1.454 2.25 2.258 3.572 2.258s2.58-.804 3.572-2.258c1.307-1.917 2.178-5.005 2.178-8.492s-.871-6.575-2.178-8.492c-.992-1.454-2.25-2.258-3.572-2.258zm0 1.5c.886 0 1.668.629 2.332 1.603 1.176 1.724 1.918 4.511 1.918 7.647s-.742 5.923-1.918 7.647c-.664.974-1.446 1.603-2.332 1.603s-1.668-.629-2.332-1.603c-1.176-1.724-1.918-4.511-1.918-7.647s.742-5.923 1.918-7.647c.664-.974 1.446-1.603 2.332-1.603z"/><path d="m11.25 2v20c0 .414.336.75.75.75s.75-.336.75-.75v-20c0-.414-.336-.75-.75-.75s-.75.336-.75.75z"/><path d="m22 11.25h-20c-.414 0-.75.336-.75.75s.336.75.75.75h20c.414 0 .75-.336.75-.75s-.336-.75-.75-.75z"/><path d="m20.5 6.25h-17c-.414 0-.75.336-.75.75s.336.75.75.75h17c.414 0 .75-.336.75-.75s-.336-.75-.75-.75z"/><path d="m20.5 16.25h-17c-.414 0-.75.336-.75.75s.336.75.75.75h17c.414 0 .75-.336.75-.75s-.336-.75-.75-.75z"/></g></svg>