<svg clip-rule="evenodd" fill-rule="evenodd" height="512" stroke-linejoin="round" stroke-miterlimit="2" viewBox="0 0 24 24" width="512" xmlns="http://www.w3.org/2000/svg"><g id="Icon"><path d="m4.266 7.249c-.001 0-.001.001-.001.002-.326.492-.264 1.145.15 1.566s1.066.495 1.564.178c.025-.016.05-.034.073-.053.144-.119.326-.192.618-.192.588 0 .807.303 1.112.515.383.264.824.485 1.559.485s1.175-.221 1.557-.486c.305-.211.522-.514 1.109-.514s.804.303 1.109.514c.382.265.822.486 1.557.486.734 0 1.175-.221 1.557-.486.304-.211.522-.514 1.108-.514.317 0 .512.09.679.203.005.003.011.007.016.01.486.311 1.123.24 1.527-.172s.465-1.05.145-1.53c-.854-1.337-2.081-3.177-2.081-3.177-.139-.209-.373-.334-.624-.334h-10c-.251 0-.485.125-.624.334 0 0-1.226 1.838-2.11 3.165zm1.756.069 1.379-2.068h9.197c.294.442.835 1.261 1.354 2.06-.18-.038-.383-.06-.614-.06-.735 0-1.175.22-1.557.485-.305.211-.522.515-1.108.515-.587 0-.804-.304-1.109-.515-.382-.265-.822-.485-1.557-.485s-1.175.22-1.557.485c-.305.211-.522.515-1.109.515-.588 0-.806-.304-1.112-.515-.382-.265-.823-.485-1.559-.485-.245 0-.459.024-.648.068z"/><path d="m17.623 7.58c-.165-.219-.436-.331-.707-.292-.553.08-.915.297-1.25.54-.26.188-.483.421-.993.421-.587 0-.804-.303-1.109-.514-.382-.265-.822-.486-1.557-.486s-1.175.221-1.557.486c-.305.211-.523.514-1.109.514-.514 0-.739-.235-1-.424-.337-.243-.701-.46-1.258-.538-.271-.038-.541.074-.705.292l-1.019 1.358c-1.375 1.834-1.798 4.21-1.139 6.405l1.634 5.447c.349 1.164 1.42 1.96 2.634 1.96h7.024c1.214 0 2.285-.796 2.634-1.96l1.634-5.447c.659-2.195.236-4.571-1.139-6.405zm-.885 1.32.703.937c1.089 1.453 1.424 3.335.903 5.074l-1.634 5.447c-.159.529-.646.891-1.198.891h-7.024c-.552 0-1.039-.362-1.198-.891l-1.634-5.447c-.521-1.739-.186-3.621.903-5.074 0 0 .706-.94.706-.94.235.122.399.301.61.436.364.231.793.416 1.466.416.735 0 1.175-.22 1.557-.485.305-.211.522-.515 1.109-.515.586 0 .804.304 1.109.515.382.265.822.485 1.557.485.671 0 1.098-.185 1.461-.416.21-.133.372-.311.603-.433z"/><path d="m13.711 18.25c1.127 0 2.039-.914 2.039-2.038v-2.424c0-1.125-.912-2.038-2.039-2.038h-3.423c-1.126 0-2.038.913-2.038 2.038v2.424c0 1.125.912 2.038 2.038 2.038zm0-1.5h-3.423c-.297 0-.538-.241-.538-.538v-2.424c0-.297.241-.538.538-.538h3.423c.298 0 .539.24.539.538v2.424c0 .297-.241.538-.539.538z"/><path d="m18.75 3.252v-.004c0-1.103-.895-1.998-1.998-1.998-2.304 0-7.2 0-9.504 0-1.104 0-1.998.895-1.998 1.998v.004c0 1.103.894 1.998 1.998 1.998h9.504c1.103 0 1.998-.895 1.998-1.998zm-1.5 0c0 .275-.223.498-.498.498-2.304 0-7.2 0-9.504 0-.275 0-.498-.223-.498-.498v-.004c0-.275.223-.498.498-.498h9.504c.275 0 .498.223.498.498z"/></g></svg>