<svg clip-rule="evenodd" fill-rule="evenodd" height="512" stroke-linejoin="round" stroke-miterlimit="2" viewBox="0 0 24 24" width="512" xmlns="http://www.w3.org/2000/svg"><g id="Icon"><path d="m18.717 12.408c0 .001 0 .001.001.001.692.691 1.815.691 2.508 0l1.005-1.004c.693-.693.692-1.816-.001-2.508l-.391-.39c-.692-.692-1.816-.692-2.509.001l-1.004 1.002c-.694.693-.693 1.816.001 2.508-.001-.001.39.39.39.39zm1.06-1.061-.391-.391c-.107-.106-.106-.279 0-.386l1.005-1.002c.107-.107.281-.107.388 0l.392.391c.106.106.105.279-.001.386 0 0-1.003 1.002-1.003 1.002-.108.107-.283.107-.39 0z"/><path d="m17.602 8.845 1.227 1.225c.293.292.768.292 1.061-.001.292-.293.292-.768-.001-1.061l-1.227-1.225c-.293-.292-.768-.292-1.061.001-.292.293-.292.768.001 1.061z"/><path d="m11.581 5.28.392.392c.692.691 1.814.691 2.507 0l1.004-1.003c.695-.693.695-1.817 0-2.51.001.001-.389-.389-.389-.389-.693-.693-1.817-.693-2.51 0l-1.004 1.003c-.693.693-.693 1.816.001 2.508zm1.451-.67-.391-.391c-.107-.106-.106-.279.001-.386l1.004-1.003c.107-.107.281-.107.388 0l.391.391c.107.107.107.279 0 .386l-1.004 1.003c-.108.107-.282.107-.389 0z"/><path d="m16.209 5.334-1.227-1.225c-.293-.293-.768-.293-1.06 0-.293.293-.293.769 0 1.061l1.227 1.225c.293.293.769.292 1.061-.001.293-.293.292-.768-.001-1.06z"/><path d="m13.024 7.456-1.11-.37c-.45-.148-.945-.03-1.277.305.002-.002-3.241 3.236-3.241 3.236-.001.001-.002.001-.002.002-.332.334-.449.827-.3 1.277l.369 1.105-2.643 2.64c-.684.682-.685 1.792 0 2.476l1.038 1.036c.682.684 1.791.684 2.474-.001l2.643-2.64 1.108.368c.449.15.943.033 1.277-.299l3.244-3.241c.334-.331.452-.829.302-1.28l-.369-1.103 2.643-2.64c.684-.684.684-1.792 0-2.476l-1.038-1.038c-.683-.68-1.79-.68-2.473 0zm2.41 4.943-3.023 3.02-1.108-.369c-.446-.15-.941-.033-1.276.299l-2.757 2.754c-.097.097-.254.097-.351 0l-1.039-1.037c-.097-.098-.098-.256 0-.353l2.752-2.75c.335-.335.452-.83.303-1.28l-.369-1.105 3.024-3.019 1.107.369c.447.15.943.033 1.278-.302 0 0 2.754-2.75 2.754-2.75.097-.098.256-.098.353-.001 0 0 1.038 1.037 1.038 1.037.098.098.098.256 0 .354l-2.752 2.749c-.335.335-.452.83-.303 1.28z"/><path d="m12.419 18.697-.392-.391c-.692-.691-1.814-.691-2.507 0l-1.004 1.004c-.695.693-.695 1.815 0 2.508-.001-.001.389.389.389.389.693.693 1.817.693 2.51 0 0 .001 1.004-1.002 1.004-1.002.693-.692.694-1.815 0-2.508zm-1.06 1.06c.106.107.107.28 0 .386l-1.005 1.004c-.107.107-.281.107-.388 0l-.391-.391c-.106-.106-.106-.278 0-.385l1.004-1.003c.108-.107.282-.107.389 0z"/><path d="m7.791 18.645 1.227 1.225c.293.292.768.292 1.061-.001.292-.293.292-.769-.001-1.061l-1.227-1.225c-.293-.292-.768-.292-1.061.001-.292.293-.292.768.001 1.061z"/><path d="m5.283 11.57c-.692-.693-1.817-.693-2.509 0 0 0-1.004 1.003-1.004 1.003-.693.691-.693 1.815 0 2.507l.391.391c.693.691 1.816.691 2.509 0l1.004-1.004c.694-.693.694-1.814 0-2.507zm-1.06 1.06.391.39c.106.107.106.28 0 .387 0 0-1.004 1.002-1.004 1.002-.107.107-.282.107-.389 0l-.391-.391c-.107-.106-.107-.278 0-.384l1.004-1.004c.108-.107.281-.107.389 0z"/><path d="m6.398 15.133-1.227-1.225c-.293-.293-.768-.292-1.06.001-.293.293-.293.768 0 1.06l1.227 1.225c.293.293.769.292 1.061-.001.293-.292.292-.768-.001-1.06z"/></g></svg>