<svg clip-rule="evenodd" fill-rule="evenodd" height="512" stroke-linejoin="round" stroke-miterlimit="2" viewBox="0 0 134 134" width="512" xmlns="http://www.w3.org/2000/svg"><path d="m41.667 62.5c-16.098 0-29.167 13.069-29.167 29.167 0 16.097 13.069 29.166 29.167 29.166 16.097 0 29.166-13.069 29.166-29.166 0-16.098-13.069-29.167-29.166-29.167zm24.956-38.442c-4.071 6.003-11.075 16.703-17.235 27.944-1.105 2.017-3.639 2.757-5.656 1.652s-2.757-3.64-1.652-5.656c9.599-17.517 21.196-33.753 21.196-33.753.794-1.111 2.082-1.763 3.447-1.745 1.366.019 2.636.706 3.399 1.838 0 0 8.441 12.527 8.738 12.987 6.023 9.34 13.826 22.272 19.112 34.042 3.753 8.359 6.195 16.202 6.195 21.966 0 17.461-11.96 32.149-28.127 36.316-2.227.574-4.501-.767-5.075-2.994s.768-4.501 2.995-5.075c12.574-3.241 21.873-14.667 21.873-28.247 0-4.884-2.283-11.469-5.463-18.552-5.116-11.392-12.684-23.9-18.513-32.94-.166-.256-2.888-4.3-5.234-7.783zm-24.956 46.775c11.498 0 20.833 9.335 20.833 20.834 0 11.498-9.335 20.833-20.833 20.833-11.499 0-20.834-9.335-20.834-20.833 0-11.499 9.335-20.834 20.834-20.834zm0 29.167c2.299 0 4.166 1.867 4.166 4.167 0 2.299-1.867 4.166-4.166 4.166-2.3 0-4.167-1.867-4.167-4.166 0-2.3 1.867-4.167 4.167-4.167zm-4.167-20.757v12.424c0 2.299 1.867 4.166 4.167 4.166 2.299 0 4.166-1.867 4.166-4.166v-12.424c0-2.3-1.867-4.167-4.166-4.167-2.3 0-4.167 1.867-4.167 4.167z"/></svg>