<svg clip-rule="evenodd" fill-rule="evenodd" height="512" stroke-linejoin="round" stroke-miterlimit="2" viewBox="0 0 24 24" width="512" xmlns="http://www.w3.org/2000/svg"><g id="Icon"><path d="m6 2.75c-.414 0-.75-.336-.75-.75s.336-.75.75-.75h12c.414 0 .75.336.75.75s-.336.75-.75.75z"/><path d="m12.75 8c0 .414-.336.75-.75.75s-.75-.336-.75-.75v-6c0-.414.336-.75.75-.75s.75.336.75.75z"/><path d="m15.75 8.5v2.5c0 .414-.336.75-.75.75h-6c-.414 0-.75-.336-.75-.75v-2.5c0-.332.132-.649.366-.884.235-.234.552-.366.884-.366h5c.332 0 .649.132.884.366.234.235.366.552.366.884zm-6 .25v1.5h4.5v-1.5z"/><path d="m8.998 10.25h6.004c2.622 0 4.748 2.126 4.748 4.748v2.002c0 .966-.783 1.75-1.75 1.75h-12c-.967 0-1.75-.784-1.75-1.75v-2.002c0-2.622 2.126-4.748 4.748-4.748zm6.004 1.5h-6.004c-1.794 0-3.248 1.454-3.248 3.248v2.002c0 .138.112.25.25.25h12c.138 0 .25-.112.25-.25v-2.002c0-1.794-1.454-3.248-3.248-3.248z"/><path d="m8 17.25h8c.414 0 .75.336.75.75 0 2.622-2.128 4.75-4.75 4.75s-4.75-2.128-4.75-4.75c0-.414.336-.75.75-.75zm.837 1.5c.339 1.433 1.627 2.5 3.163 2.5s2.824-1.067 3.163-2.5z"/></g></svg>