<svg clip-rule="evenodd" fill-rule="evenodd" height="512" stroke-linejoin="round" stroke-miterlimit="2" viewBox="0 0 24 24" width="512" xmlns="http://www.w3.org/2000/svg"><g id="Icon"><path d="m13.95 9.5c0 .464-.184.909-.513 1.237-.328.329-.773.513-1.237.513h-1.4c-.414 0-.75-.336-.75-.75s.336-.75.75-.75h1.4c.066 0 .13-.026.177-.073s.073-.111.073-.177-.026-.13-.073-.177-.111-.073-.177-.073h-.4c-.464 0-.909-.184-1.237-.513-.329-.328-.513-.773-.513-1.237s.184-.909.513-1.237c.328-.329.773-.513 1.237-.513h1.4c.414 0 .75.336.75.75s-.336.75-.75.75h-1.4c-.066 0-.13.026-.177.073s-.073.111-.073.177.026.13.073.177.111.073.177.073h.4c.464 0 .909.184 1.237.513.329.328.513.773.513 1.237z"/><path d="m12.75 6.5c0 .414-.336.75-.75.75s-.75-.336-.75-.75v-1c0-.414.336-.75.75-.75s.75.336.75.75z"/><path d="m12.75 11.5c0 .414-.336.75-.75.75s-.75-.336-.75-.75v-1c0-.414.336-.75.75-.75s.75.336.75.75z"/><path d="m22.75 13c0 .414-.336.75-.75.75s-.75-.336-.75-.75v-9c0-.332-.132-.649-.366-.884-.235-.234-.552-.366-.884-.366h-16c-.332 0-.649.132-.884.366-.234.235-.366.552-.366.884v9c0 .69.56 1.25 1.25 1.25h9.5c.414 0 .75.336.75.75s-.336.75-.75.75h-9.5c-1.519 0-2.75-1.231-2.75-2.75v-9c0-.729.29-1.429.805-1.945.516-.515 1.216-.805 1.945-.805h16c.729 0 1.429.29 1.945.805.515.516.805 1.216.805 1.945z"/><path d="m17 9.25c-.414 0-.75-.336-.75-.75s.336-.75.75-.75h2c.414 0 .75.336.75.75s-.336.75-.75.75z"/><path d="m5 9.25c-.414 0-.75-.336-.75-.75s.336-.75.75-.75h2c.414 0 .75.336.75.75s-.336.75-.75.75z"/><path d="m15.75 18.25h-.75c-.303 0-.577-.183-.693-.463s-.052-.603.163-.817l3.5-3.5c.293-.293.767-.293 1.06 0l3.5 3.5c.215.214.279.537.163.817s-.39.463-.693.463h-.75v3.75c0 .414-.336.75-.75.75h-4c-.414 0-.75-.336-.75-.75zm1.013-1.453c.285.107.487.381.487.703v3.75h2.5v-3.75c0-.322.202-.596.487-.703-.816-.816-1.737-1.736-1.737-1.736z"/></g></svg>