<svg clip-rule="evenodd" fill-rule="evenodd" height="512" stroke-linejoin="round" stroke-miterlimit="2" viewBox="0 0 24 24" width="512" xmlns="http://www.w3.org/2000/svg"><g id="Icon"><path d="m12.75 22v-15c0-.414-.336-.75-.75-.75s-.75.336-.75.75v15c0 .414.336.75.75.75s.75-.336.75-.75z"/><path d="m17.75 2c0-.414-.336-.75-.75-.75-3.175 0-5.75 2.575-5.75 5.75v1.667c0 .414.336.75.75.75 3.175 0 5.75-2.575 5.75-5.75zm-1.5.816v.851c0 2.091-1.511 3.829-3.5 4.184v-.851c0-2.091 1.511-3.83 3.5-4.184z"/><path d="m7 4.25c-.414 0-.75.336-.75.75v1.667c0 3.175 2.575 5.75 5.75 5.75.414 0 .75-.336.75-.75v-1.667c0-3.175-2.575-5.75-5.75-5.75zm.75 1.566c1.989.354 3.5 2.093 3.5 4.184v.851c-1.989-.355-3.5-2.093-3.5-4.184z"/><path d="m17.75 10c0-.414-.336-.75-.75-.75-3.175 0-5.75 2.575-5.75 5.75v1.667c0 .414.336.75.75.75 3.175 0 5.75-2.575 5.75-5.75zm-1.5.816v.851c0 2.091-1.511 3.829-3.5 4.184v-.851c0-2.091 1.511-3.83 3.5-4.184z"/><path d="m7 12.25c-.414 0-.75.336-.75.75v1.667c0 3.175 2.575 5.75 5.75 5.75.414 0 .75-.336.75-.75v-1.667c0-3.175-2.575-5.75-5.75-5.75zm.75 1.566c1.989.354 3.5 2.093 3.5 4.184v.851c-1.989-.355-3.5-2.093-3.5-4.184z"/></g></svg>