<svg clip-rule="evenodd" fill-rule="evenodd" height="512" stroke-linejoin="round" stroke-miterlimit="2" viewBox="0 0 24 24" width="512" xmlns="http://www.w3.org/2000/svg"><g id="Icon"><path d="m22.75 13.455c0-.967-.783-1.75-1.75-1.75h-8c-.967 0-1.75.783-1.75 1.75v7c0 .966.783 1.75 1.75 1.75h8c.967 0 1.75-.784 1.75-1.75zm-1.5 0v7c0 .138-.112.25-.25.25h-8c-.138 0-.25-.112-.25-.25v-7c0-.139.112-.25.25-.25h8c.138 0 .25.111.25.25z"/><path d="m22.75 10s0-3.278 0-5.5c0-.729-.29-1.429-.805-1.945-.516-.515-1.216-.805-1.945-.805-3.832 0-12.168 0-16 0-.729 0-1.429.29-1.945.805-.515.516-.805 1.216-.805 1.945v9.5c0 .729.29 1.429.805 1.945.516.515 1.216.805 1.945.805h5.5c.414 0 .75-.336.75-.75s-.336-.75-.75-.75c0 0-3.278 0-5.5 0-.332 0-.649-.132-.884-.366-.234-.235-.366-.552-.366-.884v-9.5c0-.332.132-.649.366-.884.235-.234.552-.366.884-.366h16c.332 0 .649.132.884.366.234.235.366.552.366.884v5.5c0 .414.336.75.75.75s.75-.336.75-.75z"/><path d="m1.876 4.412s5.677 3.032 8.402 4.487c1.114.595 2.451.59 3.56-.014 2.682-1.46 8.222-4.476 8.222-4.476.364-.198.498-.654.3-1.018-.198-.363-.654-.498-1.017-.3 0 0-5.541 3.017-8.222 4.477-.665.362-1.468.365-2.136.008l-8.402-4.488c-.365-.195-.82-.056-1.015.309s-.057.82.308 1.015z"/><path d="m14.5 12.5v3c0 .414.336.75.75.75h3.5c.414 0 .75-.336.75-.75v-3c0-.414-.336-.75-.75-.75s-.75.336-.75.75v2.25h-2v-2.25c0-.414-.336-.75-.75-.75s-.75.336-.75.75z"/></g></svg>