<?xml version="1.0"?>
<svg xmlns="http://www.w3.org/2000/svg" viewBox="0 0 32 32" width="512" height="512"><g id="syrup_drug_health_care" data-name="syrup, drug, health, care"><path d="M20.4473,12.1055A2.6035,2.6035,0,0,1,19,9.7642V9h1a1,1,0,0,0,1-1V4a1,1,0,0,0-1-1H12a1,1,0,0,0-1,1V8a1,1,0,0,0,1,1h1v.7642a2.6035,2.6035,0,0,1-1.4473,2.3413A4.5919,4.5919,0,0,0,9,16.2358V28a1,1,0,0,0,2,0V16.2358a2.6035,2.6035,0,0,1,1.4473-2.3413A4.5919,4.5919,0,0,0,15,9.7642V9h2v.7642a4.5919,4.5919,0,0,0,2.5527,4.13A2.6035,2.6035,0,0,1,21,16.2358V26a1.0013,1.0013,0,0,1-1,1H14a1,1,0,0,0,0,2h6a3.0033,3.0033,0,0,0,3-3V16.2358A4.5919,4.5919,0,0,0,20.4473,12.1055ZM13,5h6V7H13Z"/><path d="M16,17a1,1,0,0,0-1,1v1H14a1,1,0,0,0,0,2h1v1a1,1,0,0,0,2,0V21h1a1,1,0,0,0,0-2H17V18A1,1,0,0,0,16,17Z"/></g></svg>
