<svg clip-rule="evenodd" fill-rule="evenodd" stroke-linejoin="round" stroke-miterlimit="1.414" viewBox="0 0 32 32" xmlns="http://www.w3.org/2000/svg" xmlns:serif="http://www.serif.com/"><path id="notification-bell-message-new-sign" d="m0 0h32v32h-32z" fill="none"/><path d="m6.988 17.001v-5.008c.012-3.662 2.442-7.216 5.965-8.482.994-.357 2.048-.531 3.105-.528 3.675.035 7.236 2.517 8.462 6.069.327.945.489 1.946.492 2.941v5.008c.017 0 .033.001.05.001 1.587.024 3.1 1.069 3.678 2.54.621 1.581.099 3.538-1.236 4.6-.694.553-1.574.861-2.466.87-2.011.006-4.023.01-6.034.013v.991c-.009 1.522-1.323 2.922-2.855 2.998-1.602.079-3.142-1.298-3.153-2.998v-.991c-2.011-.003-4.022-.007-6.034-.013-1.584-.015-3.103-1.047-3.692-2.514-.639-1.593-.111-3.576 1.245-4.642.698-.548 1.578-.852 2.472-.855zm7.98 8.025c.054.649-.092 1.441.477 1.82.59.394 1.551-.034 1.556-.836v-.984c-.678 0-1.356 0-2.033 0zm8.782-6.057c-.369-.103-.668-.43-.728-.81-.011-.069-.01-.086-.013-.156 0-2.018.007-4.036 0-6.054-.028-2.973-2.13-5.818-5.007-6.673-2.352-.7-5.056-.054-6.838 1.645-1.368 1.305-2.167 3.183-2.173 5.075v5.005h11.014c.085.004.107.002.19.019.786.151 1.117 1.436.269 1.873-.141.072-.298.103-.459.111-4.347 0-8.695-.041-13.043 0-1.281.021-2.337 1.494-1.833 2.748.294.732 1.042 1.25 1.846 1.257 6.021.019 12.042.058 18.063 0 1.286-.02 2.34-1.502 1.829-2.757-.298-.731-1.056-1.245-1.857-1.248h-.999c-.012 0-.022-.001-.031-.001-.016-.001-.033-.001-.05-.002-.032-.002-.059-.005-.109-.015-.024-.005-.048-.01-.071-.017z" fill-rule="nonzero"/></svg>