<svg clip-rule="evenodd" fill-rule="evenodd" height="512" stroke-linejoin="round" stroke-miterlimit="2" viewBox="0 0 24 24" width="512" xmlns="http://www.w3.org/2000/svg"><g id="Icon"><path d="m2.692 19.986c0 .733.291 1.436.81 1.955.518.518 1.221.809 1.954.809h3.279c1 0 1.959-.397 2.666-1.104 0 0 .599-.599.599-.599s.599.599.599.599c.707.707 1.666 1.104 2.666 1.104h3.279c.733 0 1.436-.291 1.954-.809.519-.519.81-1.222.81-1.955 0-2.628 0-7.096 0-8.839 0-.756-.484-1.427-1.202-1.666-.217-.073-.466-.156-.72-.24-.584-.195-.943-.782-.849-1.391l.688-4.47c.088-.576-.232-1.137-.774-1.354-.457-.183-1.232-.493-1.715-.686-.605-.242-1.295.02-1.587.603 0 0-2.019 4.038-2.019 4.038-.214.428-.651.699-1.13.699s-.916-.271-1.13-.699c0 0-2.019-4.038-2.019-4.038-.292-.583-.982-.845-1.587-.603-.483.193-1.258.503-1.715.686-.542.217-.862.778-.774 1.354l.688 4.47c.094.609-.265 1.196-.849 1.391-.254.084-.503.167-.72.24-.718.239-1.202.91-1.202 1.666zm13.697-17.169 1.323.529-.658 4.276c-.204 1.331.58 2.616 1.858 3.042l.72.24c.105.035.176.133.176.243v8.839c0 .336-.133.657-.37.894s-.559.37-.894.37h-3.279c-.602 0-1.18-.239-1.606-.665-.54-.541-1.129-1.129-1.129-1.129-.293-.293-.767-.293-1.06 0l-1.129 1.129c-.426.426-1.004.665-1.606.665h-3.279c-.335 0-.657-.133-.894-.37s-.37-.558-.37-.894v-8.839c0-.11.071-.208.176-.243l.72-.24c1.278-.426 2.062-1.711 1.858-3.042l-.658-4.276 1.323-.529 1.917 3.835c.468.936 1.425 1.528 2.472 1.528s2.004-.592 2.472-1.528z"/><path d="m15.524 2.121h-7.048c-.414 0-.75.336-.75.75s.336.75.75.75h7.048c.414 0 .75-.336.75-.75s-.336-.75-.75-.75z"/><path d="m11.25 7.401v12.585c0 .414.336.75.75.75s.75-.336.75-.75v-12.585c0-.413-.336-.75-.75-.75s-.75.337-.75.75z"/><path d="m21.308 15.456c0-.414-.336-.75-.75-.75h-5.538c-.414 0-.75.336-.75.75v2.517c0 .414.336.75.75.75h5.538c.414 0 .75-.336.75-.75zm-1.5.75v1.017h-4.038v-1.017z"/><path d="m9.73 15.456c0-.414-.336-.75-.75-.75h-5.538c-.414 0-.75.336-.75.75v2.517c0 .414.336.75.75.75h5.538c.414 0 .75-.336.75-.75zm-1.5.75v1.017h-4.038v-1.017z"/></g></svg>