<svg clip-rule="evenodd" fill-rule="evenodd" height="512" stroke-linejoin="round" stroke-miterlimit="2" viewBox="0 0 24 24" width="512" xmlns="http://www.w3.org/2000/svg"><g id="Icon"><path d="m12 5.25c-3.725 0-6.75 3.025-6.75 6.75 0 .917.591 1.706 1.653 2.256 1.237.639 3.165.978 5.097.978s3.86-.339 5.097-.978c1.062-.55 1.653-1.339 1.653-2.256 0-3.725-3.025-6.75-6.75-6.75zm0 1.5c2.898 0 5.25 2.352 5.25 5.25 0 .41-.368.678-.843.923-1.067.553-2.739.811-4.407.811s-3.34-.258-4.407-.811c-.475-.245-.843-.513-.843-.923 0-2.898 2.352-5.25 5.25-5.25z"/><path d="m9.75 13.78c0-2.432.44-4.592 1.143-5.929.198-.377.412-.681.65-.887.146-.126.294-.214.457-.214s.311.088.457.214c.238.206.452.51.65.887.703 1.337 1.143 3.497 1.143 5.929 0 .414.336.75.75.75s.75-.336.75-.75c0-3.205-.743-5.978-1.77-7.359-.583-.784-1.279-1.171-1.98-1.171s-1.397.387-1.98 1.171c-1.027 1.381-1.77 4.154-1.77 7.359 0 .414.336.75.75.75s.75-.336.75-.75z"/><path d="m17.835 13.332c1.328.299 2.381.687 3.006 1.157.227.171.409.316.409.511 0 .145-.117.26-.262.39-.279.252-.691.478-1.202.687-1.756.719-4.592 1.173-7.786 1.173s-6.03-.454-7.786-1.173c-.511-.209-.923-.435-1.202-.687-.145-.13-.262-.245-.262-.39 0-.195.182-.34.409-.511.625-.47 1.678-.858 3.006-1.157.404-.091.658-.493.567-.897-.091-.403-.493-.657-.897-.566-1.586.358-2.83.86-3.577 1.421-.689.518-1.008 1.119-1.008 1.71 0 .705.479 1.442 1.491 2.027 1.737 1.005 5.23 1.723 9.259 1.723s7.522-.718 9.259-1.723c1.012-.585 1.491-1.322 1.491-2.027 0-.591-.319-1.192-1.008-1.71-.747-.561-1.991-1.063-3.577-1.421-.404-.091-.806.163-.897.566-.091.404.163.806.567.897z"/></g></svg>