<svg clip-rule="evenodd" fill-rule="evenodd" height="512" stroke-linejoin="round" stroke-miterlimit="2" viewBox="0 0 24 24" width="512" xmlns="http://www.w3.org/2000/svg"><g id="Icon"><path d="m2.708 21.068s3.661-10.345 16.058-15.048c.387-.147.582-.58.435-.967s-.58-.582-.967-.435c-13.109 4.972-16.942 15.952-16.942 15.952-.137.391.069.819.459.957.391.137.819-.069.957-.459z"/><path d="m3.848 16.19c.042.073.095.139.159.194 2.743 2.396 5.203 3.09 7.346 2.776 2.145-.314 4.009-1.657 5.559-3.482 2.925-3.441 4.745-8.593 5.461-10.935.001-.003.002-.006.003-.009.15-.517.054-1.073-.26-1.51-.313-.436-.811-.704-1.348-.726-10.004-.471-14.679 1.65-16.722 4.218-1.631 2.051-1.691 4.439-1.32 6.319.361 1.827 1.122 3.155 1.122 3.155zm1.247-.849c-.164-.317-.644-1.314-.897-2.597-.299-1.513-.291-3.443 1.022-5.094 1.884-2.368 6.252-4.088 15.482-3.653h.006c.076.003.146.041.191.103.043.06.057.135.039.206-.684 2.234-2.392 7.134-5.168 10.401-1.302 1.531-2.834 2.706-4.634 2.969-1.775.26-3.775-.387-6.039-2.332z"/><path d="m6.337 14.551 4.5 1c.404.09.805-.165.895-.569s-.165-.805-.569-.895l-4.5-1c-.404-.09-.805.165-.895.569s.165.805.569.895z"/><path d="m9.657 11.269 4 .5c.411.051.786-.241.837-.651.052-.411-.24-.786-.651-.838l-4-.5c-.411-.051-.786.241-.837.652-.052.41.24.786.651.837z"/><path d="m13.832 8.43 2.932.676c.403.093.806-.159.899-.562.093-.404-.159-.807-.562-.9l-2.933-.675c-.403-.093-.806.159-.899.562s.159.806.563.899z"/><path d="m8.242 12.43.75-5c.061-.409-.221-.791-.631-.853-.409-.061-.791.221-.853.631l-.75 5c-.061.409.221.791.631.853.409.061.791-.221.853-.631z"/><path d="m12.199 9.191 1.29-3.305c.151-.385-.04-.821-.426-.971-.385-.151-.821.04-.971.426l-1.291 3.304c-.15.386.041.821.426.972.386.15.821-.04.972-.426z"/></g></svg>