<svg clip-rule="evenodd" fill-rule="evenodd" stroke-linejoin="round" stroke-miterlimit="1.414" viewBox="0 0 32 32" xmlns="http://www.w3.org/2000/svg" xmlns:serif="http://www.serif.com/"><path id="photo-camera-picture-" d="m0 0h32v32h-32z" fill="none"/><path d="m9.388 9.006 1.722-3.444c.179-.33.516-.54.893-.553h7.994l.069.003c.347.036.655.238.824.55l1.717 3.433c1.141.001 2.282.004 3.423.011 1.539.029 2.928 1.343 2.959 2.959.025 4.01 0 8.021 0 12.031-.01 1.565-1.348 2.984-2.994 2.995h-4c-.256-.01-.326-.044-.454-.109-.554-.283-.715-1.135-.253-1.597.185-.185.443-.282.707-.293 1.336 0 2.673.009 4.01 0 .515-.01.975-.45.985-.986.026-4.005.026-8.01 0-12.016-.009-.52-.456-.982-1.002-.986h-11.986c-.478-.018-.913-.375-.987-.843-.082-.516.306-1.06.83-1.143.069-.011.087-.009.157-.012 2.124 0 4.247-.007 6.371-.01l-.994-1.988h-6.758l-1.722 3.444c-.121.222-.185.273-.306.361-.054.039-.111.071-.171.096-.13.058-.272.09-.417.095-1.336 0-2.673-.008-4.01 0-.515.01-.975.45-.985.986-.026 4.006-.026 8.011 0 12.016.009.522.463.983 1.002.986h11.986c.581.023 1.08.572.987 1.156-.066.415-.417.765-.83.83-.069.011-.087.01-.157.013h-11.993c-1.553-.01-2.963-1.344-2.994-2.959-.025-4.011 0-8.021 0-12.032.01-1.567 1.348-2.984 2.994-2.994h3.383zm6.644 3.997c2.313.022 4.459 1.808 4.88 4.082.298 1.607-.254 3.346-1.423 4.487-1.378 1.346-3.563 1.794-5.377 1.052-2.085-.852-3.421-3.24-3.035-5.478.388-2.25 2.497-4.091 4.827-4.143zm-.052 1.998c-1.349.013-2.619 1.029-2.909 2.356-.295 1.353.483 2.862 1.763 3.403 1.401.593 3.203-.084 3.868-1.464.851-1.764-.463-4.246-2.644-4.295-.026 0-.052 0-.078 0z" fill-rule="nonzero"/></svg>