<svg clip-rule="evenodd" fill-rule="evenodd" stroke-linejoin="round" stroke-miterlimit="2" viewBox="0 0 32 32" xmlns="http://www.w3.org/2000/svg" xmlns:serif="http://www.serif.com/"><path id="phone-call-incoming-answer" d="m0 0h32v32h-32z" fill="none"/><path d="m24.6 6.121c-.231-.229-.463-.457-.698-.682-.41-.383-1.137-.334-1.486.126-.755 1.02-1.518 2.034-2.242 3.075-.239.355-.142.823-.015 1.229.524 1.679 1.343 3.403.759 4.802-.56 1.338-1.473 2.595-2.483 3.622-.561.571-1.701.281-1.766-.577-.025-.327.14-.63.379-.876.232-.241.266-.285.384-.425.639-.753 1.183-1.582 1.615-2.476.148-.317.057-.675-.055-1.045-.346-1.142-.882-2.141-.99-3.442-.057-.698.143-1.41.541-1.983 1.351-1.882 2.482-4.276 4.643-4.311h.082c1.712.042 2.988 1.778 4.379 3.187 1.735 1.785 1.252 4.953.245 7.052-1.462 3.049-3.808 5.623-6.258 8.038-3.035 2.993-6.306 6.114-10.366 7.176-1.646.431-3.541.335-4.888-.952l-.023-.023c-.887-.874-1.83-1.604-2.6-2.647-.926-1.254-.682-3.204.615-4.191 1.067-.789 2.109-1.628 3.219-2.341.737-.473 1.678-.596 2.517-.341l3.857 1.204c.488.178.735.729.643 1.205-.017.088-.046.173-.088.255-.062.121-.153.231-.275.317l-.005.004-3.846 2.686c-.824.552-2.352-.77-1.149-1.646l2.18-1.523c-.644-.205-1.29-.406-1.94-.593-.281-.077-.591-.026-.833.138-1.045.726-2.073 1.478-3.087 2.249-.442.347-.503 1.074-.105 1.488.766.776 1.531 1.554 2.313 2.313 1.004.96 2.717.61 3.828.183 3.378-1.299 6.154-3.943 8.721-6.487 2.686-2.66 5.545-5.467 6.417-9.174.029-.123.054-.247.075-.372.15-.894.082-1.911-.601-2.613-.055-.057-.111-.113-.167-.17l-1.783 2.75c-.553.819-2.477.184-1.684-1.092z"/></svg>