<svg clip-rule="evenodd" fill-rule="evenodd" height="512" stroke-linejoin="round" stroke-miterlimit="2" viewBox="0 0 24 24" width="512" xmlns="http://www.w3.org/2000/svg"><g id="Icon"><path d="m17 1.25c-3.174 0-5.75 2.576-5.75 5.75s2.576 5.75 5.75 5.75 5.75-2.576 5.75-5.75-2.576-5.75-5.75-5.75zm0 1.5c2.346 0 4.25 1.904 4.25 4.25s-1.904 4.25-4.25 4.25-4.25-1.904-4.25-4.25 1.904-4.25 4.25-4.25z"/><path d="m13.966 10.775c.772-.787 1.846-1.275 3.034-1.275s2.262.488 3.034 1.275c.29.296.765.3 1.06.01.296-.289.301-.765.011-1.06-1.044-1.064-2.498-1.725-4.105-1.725s-3.061.661-4.105 1.725c-.29.295-.285.771.011 1.06.295.29.77.286 1.06-.01z"/><path d="m17 3.25c-1.38 0-2.5 1.12-2.5 2.5s1.12 2.5 2.5 2.5 2.5-1.12 2.5-2.5-1.12-2.5-2.5-2.5zm0 1.5c.552 0 1 .448 1 1s-.448 1-1 1-1-.448-1-1 .448-1 1-1z"/><path d="m10.066 21.359c1.662-1.662 3.439-3.44 3.439-3.44.293-.292.293-.767 0-1.06l-2.121-2.122c-.293-.292-.768-.292-1.061 0l-3.086 3.086c-.292.293-.767.293-1.06 0-.001 0-.001-.001-.002-.001-.292-.292-.292-.766 0-1.058 0 0 3.088-3.087 3.088-3.087.292-.293.292-.768 0-1.061l-2.122-2.121c-.293-.293-.768-.293-1.06 0 0 0-1.778 1.777-3.44 3.439-.891.891-1.391 2.099-1.391 3.359s.5 2.468 1.391 3.359c.235.234.473.472.707.707.891.891 2.099 1.391 3.359 1.391s2.468-.5 3.359-1.391zm-1.061-1.061c-.609.61-1.436.952-2.298.952s-1.688-.342-2.298-.952c-.235-.235-.472-.472-.707-.707-.61-.61-.952-1.436-.952-2.298s.342-1.689.952-2.298c0 0 2.909-2.909 2.909-2.909s1.061 1.06 1.061 1.06-2.557 2.557-2.557 2.557c-.878.878-.878 2.302 0 3.179 0 .001.001.001.001.002.879.879 2.303.879 3.182 0l2.556-2.556s1.06 1.061 1.06 1.061z"/><path d="m7.141 14.737-2.121-2.121c-.293-.293-.768-.293-1.061 0-.292.293-.292.768 0 1.061l2.122 2.121c.292.293.768.293 1.06 0 .293-.293.293-.768 0-1.061z"/><path d="m11.384 18.98-2.121-2.121c-.293-.293-.768-.293-1.061 0-.293.292-.293.768 0 1.06l2.121 2.122c.293.292.768.292 1.061 0 .293-.293.293-.768 0-1.061z"/><path d="m14.566 16.152 1.621-1.622c.293-.292.293-.768 0-1.06-.293-.293-.768-.293-1.06 0l-1.622 1.621c-.292.293-.292.768 0 1.061.293.292.768.292 1.061 0z"/><path d="m8.909 10.495 1.621-1.622c.293-.292.293-.767 0-1.06-.292-.293-.768-.293-1.06 0l-1.622 1.621c-.292.293-.292.768 0 1.061.293.292.768.292 1.061 0z"/><path d="m13.152 14.737.56-.56c.293-.293.293-.768 0-1.061-.292-.293-.768-.293-1.06 0l-.561.561c-.293.292-.293.768 0 1.06.293.293.768.293 1.061 0z"/><path d="m10.323 11.909.561-.561c.293-.292.293-.768 0-1.06-.293-.293-.768-.293-1.061 0l-.56.56c-.293.293-.293.768 0 1.061.292.293.768.293 1.06 0z"/></g></svg>