<svg height="512" viewBox="0 0 32 32" width="512" xmlns="http://www.w3.org/2000/svg"><g id="surveillance_cctv_security" data-name="surveillance, cctv, security"><path d="m28 5h-24a1 1 0 0 0 -1 1v4a2.9794 2.9794 0 0 0 .8789 2.1211 3.02 3.02 0 0 0 2.1211.8789h19v3a9 9 0 1 1 -18 0 1 1 0 0 0 -2 .002 11 11 0 0 0 22-.002v-3.1851a2.9558 2.9558 0 0 0 2-2.8149v-4a1 1 0 0 0 -1-1zm-1 5a1 1 0 0 1 -1 1h-20a1 1 0 0 1 -1-1v-3h22z"/><path d="m19 18a3 3 0 1 0 -3 3 3.0033 3.0033 0 0 0 3-3zm-4 0a1 1 0 1 1 1 1 1.0009 1.0009 0 0 1 -1-1z"/></g></svg>