<svg clip-rule="evenodd" fill-rule="evenodd" height="512" stroke-linejoin="round" stroke-miterlimit="2" viewBox="0 0 24 24" width="512" xmlns="http://www.w3.org/2000/svg"><g id="Icon"><path d="m12 22.75.1-.001c4.234-.053 7.65-3.502 7.65-7.749v-9.5c0-2.347-1.903-4.25-4.25-4.25-2.138 0-4.862 0-7 0-2.347 0-4.25 1.903-4.25 4.25v9.5c0 2.055.817 4.027 2.27 5.48s3.425 2.27 5.48 2.27zm0-1.5c-1.658 0-3.247-.658-4.419-1.831-1.173-1.172-1.831-2.761-1.831-4.419v-9.5c0-1.519 1.231-2.75 2.75-2.75h7c1.519 0 2.75 1.231 2.75 2.75v9.5c0 3.452-2.798 6.25-6.25 6.25z"/><path d="m11.25 2v7c0 .414.336.75.75.75s.75-.336.75-.75v-7c0-.414-.336-.75-.75-.75s-.75.336-.75.75z"/></g></svg>