<svg clip-rule="evenodd" fill-rule="evenodd" height="512" stroke-linejoin="round" stroke-miterlimit="2" viewBox="0 0 24 24" width="512" xmlns="http://www.w3.org/2000/svg"><g id="Icon"><path d="m7.979 7.311 1.783 6.655c.107.4-.13.811-.53.918l-3.772 1.011c-.705.189-1.456.09-2.087-.275-.632-.364-1.093-.965-1.281-1.67l-.748-2.791c-.189-.704-.09-1.455.274-2.086.365-.632.966-1.093 1.67-1.282l3.772-1.01c.4-.108.812.13.919.53zm-1.255 1.113-3.048.816c-.32.086-.593.296-.759.583-.165.287-.21.628-.124.948l.747 2.791c.086.32.296.593.583.759s.628.211.948.125c0 0 3.048-.817 3.048-.817z"/><path d="m8.832 14.325.63 5.237c.105.864-.443 1.674-1.284 1.899l-.425.114c-.49.132-1.013.044-1.433-.24-.421-.285-.697-.737-.758-1.241l-.596-4.953c-.045-.371.19-.718.55-.814l2.377-.637c.21-.056.434-.019.614.103s.299.316.325.532zm-1.386 1.038-.913.244.519 4.308c.008.072.048.136.108.177s.135.053.205.034l.425-.114c.12-.032.198-.147.183-.271z"/><path d="m15.075 3.372 2.802 10.457c.059.223.013.461-.126.646-.139.184-.355.294-.586.298l-8.115.137c-.344.005-.648-.224-.737-.556l-1.783-6.655c-.089-.332.06-.683.36-.85l7.096-3.939c.202-.112.444-.125.657-.034.213.09.372.273.432.496zm-1.201 1.316s-5.744 3.189-5.744 3.189l1.48 5.523 6.569-.111z"/><path d="m13.505 3.309c-.107-.4.13-.811.53-.918s.812.13.919.53l3.044 11.359c.107.4-.131.811-.531.919-.4.107-.811-.131-.918-.531z"/><path d="m20.287 8.352c-.4.108-.812-.129-.919-.529-.108-.4.129-.812.529-.919l1.9-.512c.4-.108.812.129.92.529.107.4-.13.812-.53.919z"/><path d="m19.085 12.141c-.359-.207-.483-.666-.276-1.024.206-.359.665-.483 1.024-.276l1.706.982c.359.206.482.665.276 1.024-.207.359-.666.482-1.025.276z"/><path d="m18.573 5.163c-.206.359-.665.482-1.024.276-.359-.207-.482-.666-.276-1.025l.982-1.705c.207-.359.666-.483 1.025-.276.358.206.482.665.275 1.024z"/></g></svg>