<svg id="rss_feed_cast_streaming" viewBox="0 0 32 32" xmlns="http://www.w3.org/2000/svg" data-name="rss feed cast streaming"><path d="m4 21a1 1 0 0 0 0 2 1 1 0 0 1 1 1 1 1 0 0 0 2 0 3 3 0 0 0 -3-3z"/><path d="m28.12 7.88a3 3 0 0 0 -2.12-.88h-20a3 3 0 0 0 -3 3 1 1 0 0 0 2 0 1 1 0 0 1 1-1h20a1 1 0 0 1 1 1v12a1 1 0 0 1 -1 1h-8a1 1 0 0 0 0 2h8a3 3 0 0 0 3-3v-12a3 3 0 0 0 -.88-2.12z"/><path d="m4 17a1 1 0 0 0 0 2 5 5 0 0 1 5 5 1 1 0 0 0 2 0 7 7 0 0 0 -7-7z"/><path d="m4 13a1 1 0 0 0 0 2 9 9 0 0 1 9 9 1 1 0 0 0 2 0 11 11 0 0 0 -11-11z"/></svg>