<svg clip-rule="evenodd" fill-rule="evenodd" height="512" stroke-linejoin="round" stroke-miterlimit="2" viewBox="0 0 24 24" width="512" xmlns="http://www.w3.org/2000/svg"><g id="Icon"><path d="m22.75 17.5v-1.5c0-.69-.56-1.25-1.25-1.25-2.772 0-16.228 0-19 0-.69 0-1.25.56-1.25 1.25v1.5c0 .69.56 1.25 1.25 1.25h19c.69 0 1.25-.56 1.25-1.25zm-20-1.25v1h18.5v-1z"/><path d="m21.75 14c0-.597-.237-1.169-.659-1.591s-.994-.659-1.591-.659c-2.057 0-5.5 0-5.5 0-.414 0-.75.336-.75.75v3c0 .414.336.75.75.75h5.5c.597 0 1.169-.237 1.591-.659s.659-.994.659-1.591zm-1.5 0c0 .199-.079.39-.22.53-.14.141-.331.22-.53.22h-4.75v-1.5h4.75c.199 0 .39.079.53.22.141.14.22.331.22.53z"/><path d="m21.75 8c0-.597-.237-1.169-.659-1.591s-.994-.659-1.591-.659c-2.057 0-5.5 0-5.5 0-.414 0-.75.336-.75.75v3c0 .414.336.75.75.75h5.5c.597 0 1.169-.237 1.591-.659s.659-.994.659-1.591zm-1.5 0c0 .199-.079.39-.22.53-.14.141-.331.22-.53.22h-4.75v-1.5h4.75c.199 0 .39.079.53.22.141.14.22.331.22.53z"/><path d="m13.25 11c0 .597.237 1.169.659 1.591s.994.659 1.591.659h5.5c.414 0 .75-.336.75-.75v-3c0-.414-.336-.75-.75-.75 0 0-3.443 0-5.5 0-.597 0-1.169.237-1.591.659s-.659.994-.659 1.591zm1.5 0c0-.199.079-.39.22-.53.14-.141.331-.22.53-.22h4.75v1.5h-4.75c-.199 0-.39-.079-.53-.22-.141-.14-.22-.331-.22-.53z"/><path d="m11.25 13.5c0-.862-.342-1.689-.952-2.298-.609-.61-1.436-.952-2.298-.952-.65 0-1.35 0-2 0-.862 0-1.689.342-2.298.952-.61.609-.952 1.436-.952 2.298v2c0 .414.336.75.75.75h7c.414 0 .75-.336.75-.75zm-1.5 0v1.25h-5.5v-1.25c0-.464.184-.909.513-1.237.328-.329.773-.513 1.237-.513h2c.464 0 .909.184 1.237.513.329.328.513.773.513 1.237z"/><path d="m7 5.25c-1.794 0-3.25 1.456-3.25 3.25s1.456 3.25 3.25 3.25 3.25-1.456 3.25-3.25-1.456-3.25-3.25-3.25zm0 1.5c.966 0 1.75.784 1.75 1.75s-.784 1.75-1.75 1.75-1.75-.784-1.75-1.75.784-1.75 1.75-1.75z"/></g></svg>