<svg clip-rule="evenodd" fill-rule="evenodd" height="512" stroke-linejoin="round" stroke-miterlimit="2" viewBox="0 0 24 24" width="512" xmlns="http://www.w3.org/2000/svg"><g id="Icon"><path d="m3.538 12.276c-1.263 0-2.288 1.025-2.288 2.288s1.025 2.289 2.288 2.289 2.289-1.026 2.289-2.289-1.026-2.288-2.289-2.288zm0 1.5c.436 0 .789.353.789.788s-.353.789-.789.789c-.435 0-.788-.354-.788-.789s.353-.788.788-.788z"/><path d="m14.821 12.276c-1.264 0-2.289 1.025-2.289 2.288s1.025 2.289 2.289 2.289c1.263 0 2.288-1.026 2.288-2.289s-1.025-2.288-2.288-2.288zm0 1.5c.435 0 .788.353.788.788s-.353.789-.788.789c-.436 0-.789-.354-.789-.789s.353-.788.789-.788z"/><path d="m9.179 7.147c-1.263 0-2.288 1.026-2.288 2.289s1.025 2.288 2.288 2.288c1.264 0 2.289-1.025 2.289-2.288s-1.025-2.289-2.289-2.289zm0 1.5c.436 0 .789.354.789.789s-.353.788-.789.788c-.435 0-.788-.353-.788-.788s.353-.789.788-.789z"/><path d="m20.462 7.147c-1.263 0-2.289 1.026-2.289 2.289s1.026 2.288 2.289 2.288 2.288-1.025 2.288-2.288-1.025-2.289-2.288-2.289zm0 1.5c.435 0 .788.354.788.789s-.353.788-.788.788c-.436 0-.789-.353-.789-.788s.353-.789.789-.789z"/><path d="m5.548 13.625 2.564-2.067c.322-.26.373-.732.113-1.054-.26-.323-.732-.373-1.055-.114l-2.564 2.067c-.322.26-.373.733-.113 1.055s.732.373 1.055.113z"/><path d="m13.753 12.457-2.564-2.067c-.323-.259-.795-.209-1.055.114-.26.322-.209.794.113 1.054l2.564 2.067c.323.26.795.209 1.055-.113s.209-.795-.113-1.055z"/><path d="m16.83 13.625 2.564-2.067c.322-.26.373-.732.113-1.054-.26-.323-.732-.373-1.055-.114l-2.564 2.067c-.322.26-.373.733-.113 1.055s.732.373 1.055.113z"/></g></svg>