<svg clip-rule="evenodd" fill-rule="evenodd" stroke-linejoin="round" stroke-miterlimit="1.414" viewBox="0 0 32 32" xmlns="http://www.w3.org/2000/svg" xmlns:serif="http://www.serif.com/"><path id="heartbeat-live-healthy-" d="m0 0h32v32h-32z" fill="none"/><path d="m20.164 11.013c.48.103.562.238.73.539l1.724 3.447h5.382s.964.211.999.953c.026.537-.443 1.021-.999 1.047h-6c-.376-.017-.645-.106-.894-.552l-.921-1.841-3.236 9.71s-.407.734-1.035.68c-.412-.036-.764-.354-.884-.754l-3.03-12.12-1.03 4.12s-.327.727-.97.757h-6c-.902-.043-.978-.505-.999-.952-.026-.538.443-1.021.999-1.048h5.219l1.811-7.242s.414-.883 1.158-.74c.373.072.671.371.782.74l3.167 12.668 2.914-8.742s.404-.754 1.113-.67z" fill-rule="nonzero"/></svg>