<svg viewBox="0 0 32 32" xmlns="http://www.w3.org/2000/svg"><g id="pinterest_media_social" data-name="pinterest, media, social"><path d="m16.5 3c-9.0781 0-11.5 6.6885-11.5 10.6406a6.3072 6.3072 0 0 0 2.6152 5.417 1.356 1.356 0 0 0 1.7705-.2422c.44-.4262 1.5572-2.1753.938-3.1191a4.3244 4.3244 0 0 1 -.5112-2.0557c0-2.7842 1.1353-6.1025 6.5449-6.1025a4.5365 4.5365 0 0 1 3.2857 1.0566 5.306 5.306 0 0 1 1.18 3.8828c-.022 2.5513-1.4068 6.2569-3.5259 6.2569a1.1307 1.1307 0 0 1 -1.0781-.6939 11.1467 11.1467 0 0 1 .6347-2.9751c.5518-1.8813 1.0728-3.6587.5371-4.7968-.6728-1.4278-2.8886-1.4937-3.8564-1.3057a3.0463 3.0463 0 0 0 -2.0576 1.6186 7.5161 7.5161 0 0 0 -.167 6.02 1 1 0 0 0 1.873-.7022 5.5786 5.5786 0 0 1 .04-4.3432 1.1774 1.1774 0 0 1 .6973-.63 2.8155 2.8155 0 0 1 1.6607.1948c.2128.4522-.3462 2.3584-.6465 3.3823a10.8267 10.8267 0 0 0 -.6992 3.792 3.0542 3.0542 0 0 0 3.0615 2.44c3.5586 0 5.4956-4.7852 5.5259-8.2393a7.1737 7.1737 0 0 0 -1.7593-5.3086 6.4279 6.4279 0 0 0 -4.7061-1.6484c-7.9287 0-8.5449 6.2016-8.5449 8.1025a6.4986 6.4986 0 0 0 .6636 2.8506 3.4611 3.4611 0 0 1 -.2222.5059 4.4953 4.4953 0 0 1 -1.2537-3.3573c0-.8843.2666-8.6406 9.5-8.6406 2.186 0 7.8594 1.4233 7.8594 7.9219 0 5.0937-4.0664 8.7812-6.8081 8.7812a3.5082 3.5082 0 0 1 -2.524-1.0771 1 1 0 0 0 -1.6992.2729l-.4492 1.1446c-1.0742 2.7378-1.3809 3.519-1.9248 4.0883a6.54 6.54 0 0 1 -.0742-1.0424 46.8975 46.8975 0 0 1 1.4048-5.4239 1 1 0 1 0 -1.9082-.5976 47.5578 47.5578 0 0 0 -1.4888 5.8432 18.2507 18.2507 0 0 0 .3608 3.27 1.01 1.01 0 0 0 .627.7529c.4236.1675.9158-.0837 1.4585-.5181 1.6816-1.2754 1.793-1.5293 3.3594-5.5215a5.4587 5.4587 0 0 0 2.8579.8086c3.99 0 8.8081-4.8091 8.8081-10.7812 0-7.2792-5.896-9.9218-9.8594-9.9218z"/></g></svg>