<svg clip-rule="evenodd" fill-rule="evenodd" stroke-linejoin="round" stroke-miterlimit="2" viewBox="0 0 32 32" xmlns="http://www.w3.org/2000/svg" xmlns:serif="http://www.serif.com/"><path id="magnet-bar-magnetism" d="m0 0h32v32h-32z" fill="none"/><path d="m20 21h-18c-.534-.022-.978-.46-1-1v-8c.022-.533.46-.978 1-1h8c.028.001.055.002.083.003.614.077.722.343.833.595.24.549-.13 1.285-.751 1.388-.073.012-.092.011-.165.014h-1v6h11c.453.019.527.126.677.264.577.531.211 1.699-.677 1.736zm3-8h-9c-.581-.023-1.08-.572-.988-1.156.066-.416.418-.766.832-.832.069-.011.086-.009.156-.012h16l.078.003c.504.06.902.484.922.997v8c-.019.481-.373.913-.844.988-.069.011-.086.009-.156.012h-6c-.52-.02-.561-.147-.707-.293-.07-.07-.124-.149-.165-.234-.072-.12-.118-.26-.126-.417-.001-.019-.001-.037-.002-.056zm2 6h4v-6h-4zm-22-6v6h4v-6z"/></svg>