<svg clip-rule="evenodd" fill-rule="evenodd" height="512" stroke-linejoin="round" stroke-miterlimit="2" viewBox="0 0 24 24" width="512" xmlns="http://www.w3.org/2000/svg"><g id="Icon"><path d="m18 22.75c.267 0 .514-.142.649-.373.134-.232.135-.517.002-.749l-7.565-13.256c-.223-.389-.637-.63-1.086-.63s-.863.241-1.086.63l-7.139 12.508c-.22.387-.219.862.005 1.248.224.385.636.622 1.081.622zm-8-13.254-6.708 11.754h13.416z"/><path d="m17 14.753 3.708 6.497h-2.708c-.414 0-.75.336-.75.75s.336.75.75.75h3.139c.445 0 .857-.237 1.081-.622.224-.386.225-.861.005-1.248l-4.139-7.251c-.223-.39-.637-.631-1.086-.631s-.863.241-1.086.631c-.55.963-1.426 2.499-1.426 2.499-.205.36-.08.818.279 1.023.36.206.818.08 1.023-.279z"/><path d="m6.47 14.03 1.5 1.5c.293.293.767.293 1.06 0l.97-.969s.97.969.97.969c.293.293.767.293 1.06 0l1.5-1.5c.293-.292.293-.768 0-1.06-.292-.293-.768-.293-1.06 0l-.97.969s-.97-.969-.97-.969c-.293-.293-.767-.293-1.06 0l-.97.969s-.97-.969-.97-.969c-.292-.293-.768-.293-1.06 0-.293.292-.293.768 0 1.06z"/><path d="m10.75 8.5v-6.5c0-.414-.336-.75-.75-.75s-.75.336-.75.75v6.5c0 .414.336.75.75.75s.75-.336.75-.75z"/><path d="m16.671 2.335c.116-.232.104-.508-.033-.729s-.378-.356-.638-.356h-6c-.414 0-.75.336-.75.75v4c0 .414.336.75.75.75h6c.26 0 .501-.135.638-.356s.149-.497.033-.729l-.832-1.665s.832-1.665.832-1.665zm-1.885.415-.457.915c-.105.211-.105.459 0 .67l.457.915h-4.036v-2.5z"/></g></svg>