<svg clip-rule="evenodd" fill-rule="evenodd" height="512" stroke-linejoin="round" stroke-miterlimit="2" viewBox="0 0 24 24" width="512" xmlns="http://www.w3.org/2000/svg"><g id="Icon"><path d="m15 18.75c1.518 0 2.75-1.232 2.75-2.75v-6c0-.966-.782-1.75-1.75-1.75h-8c-.968 0-1.75.784-1.75 1.75v6c0 1.518 1.232 2.75 2.75 2.75zm0-1.5h-6c-.69 0-1.25-.56-1.25-1.25v-6c0-.138.112-.25.25-.25h8c.138 0 .25.112.25.25v6c0 .69-.56 1.25-1.25 1.25z"/><path d="m4 7.75h16c.414 0 .75-.336.75-.75s-.336-.75-.75-.75h-16c-.414 0-.75.336-.75.75s.336.75.75.75z"/><path d="m14.25 2v5c0 .414.336.75.75.75s.75-.336.75-.75v-5c0-.414-.336-.75-.75-.75s-.75.336-.75.75z"/><path d="m8.25 2v5c0 .414.336.75.75.75s.75-.336.75-.75v-5c0-.414-.336-.75-.75-.75s-.75.336-.75.75z"/><path d="m11.25 18v4c0 .414.336.75.75.75s.75-.336.75-.75v-4c0-.414-.336-.75-.75-.75s-.75.336-.75.75z"/></g></svg>