<svg clip-rule="evenodd" fill-rule="evenodd" height="512" stroke-linejoin="round" stroke-miterlimit="2" viewBox="0 0 24 24" width="512" xmlns="http://www.w3.org/2000/svg"><g id="Icon"><path d="m19.25 6.75c0-.414-.336-.75-.75-.75h-.875c-.895 0-1.754.356-2.386.989-.633.632-.989 1.491-.989 2.386v.875c0 .414.336.75.75.75h.875c.895 0 1.754-.356 2.386-.989.633-.632.989-1.491.989-2.386zm-1.5.75v.125c0 .497-.198.974-.549 1.326-.352.351-.829.549-1.326.549h-.125v-.125c0-.497.198-.974.549-1.326.352-.351.829-.549 1.326-.549z"/><path d="m11.5 6c-.414 0-.75.336-.75.75v.875c0 .895.356 1.754.989 2.386.632.633 1.491.989 2.386.989h.875c.414 0 .75-.336.75-.75v-.875c0-.895-.356-1.754-.989-2.386-.632-.633-1.491-.989-2.386-.989zm.75 1.5h.125c.497 0 .974.198 1.326.549.351.352.549.829.549 1.326v.125h-.125c-.497 0-.974-.198-1.326-.549-.351-.352-.549-.829-.549-1.326z"/><path d="m14.25 10.25v2c0 .414.336.75.75.75s.75-.336.75-.75v-2c0-.414-.336-.75-.75-.75s-.75.336-.75.75z"/><path d="m15 1.25c-4.277 0-7.75 3.473-7.75 7.75s3.473 7.75 7.75 7.75 7.75-3.473 7.75-7.75-3.473-7.75-7.75-7.75zm0 1.5c3.449 0 6.25 2.801 6.25 6.25s-2.801 6.25-6.25 6.25-6.25-2.801-6.25-6.25 2.801-6.25 6.25-6.25z"/><path d="m2.055 21.945c1.074 1.073 2.816 1.073 3.89 0 1.462-1.463 4.242-4.243 4.242-4.243.293-.293.293-.768 0-1.061l-2.828-2.828c-.293-.293-.768-.293-1.061 0 0 0-2.78 2.78-4.243 4.242-1.073 1.074-1.073 2.816 0 3.89zm1.061-1.061c-.488-.488-.488-1.28 0-1.768 0 0 3.712-3.712 3.712-3.712s1.768 1.768 1.768 1.768-3.712 3.712-3.712 3.712c-.488.488-1.28.488-1.768 0z"/><path d="m8.773 16.288 1.757-1.758c.293-.292.293-.768 0-1.06-.292-.293-.768-.293-1.06 0l-1.758 1.757c-.292.293-.292.768 0 1.061.293.292.768.292 1.061 0z"/></g></svg>