<svg clip-rule="evenodd" fill-rule="evenodd" height="512" stroke-linejoin="round" stroke-miterlimit="2" viewBox="0 0 24 24" width="512" xmlns="http://www.w3.org/2000/svg"><g id="Icon"><path d="m20.25 6.649c0-.646-.356-1.24-.926-1.544l-6.5-3.467c-.515-.274-1.133-.274-1.648 0l-6.5 3.467c-.57.304-.926.898-.926 1.544v6.119c0 2.925 1.462 5.657 3.896 7.28l3.383 2.255c.588.392 1.354.392 1.942 0l3.383-2.255c2.434-1.623 3.896-4.355 3.896-7.28zm-1.5 0v6.119c0 2.424-1.211 4.687-3.228 6.032 0 0-3.383 2.255-3.383 2.255-.084.056-.194.056-.278 0 0 0-3.383-2.255-3.383-2.255-2.017-1.345-3.228-3.608-3.228-6.032v-6.119c0-.092.051-.177.132-.22 0 0 6.5-3.467 6.5-3.467.074-.039.162-.039.236 0 0 0 6.5 3.467 6.5 3.467.081.043.132.128.132.22z"/><circle cx="12" cy="14.346" r="1.175"/><path d="m10.688 12.547c.366-.274.82-.437 1.311-.437.492 0 .946.163 1.312.437.33.249.801.182 1.05-.149.248-.331.181-.802-.15-1.05-.616-.463-1.382-.738-2.212-.738-.829 0-1.595.275-2.212.738-.331.248-.397.719-.149 1.05.249.331.719.398 1.05.149z"/><path d="m9.513 10.1c.693-.521 1.554-.829 2.487-.829s1.794.308 2.487.829c.331.248.801.182 1.05-.149.248-.331.181-.802-.149-1.051-.945-.709-2.118-1.129-3.388-1.129s-2.443.42-3.388 1.129c-.33.249-.397.72-.149 1.051.249.331.719.397 1.05.149z"/></g></svg>