<svg clip-rule="evenodd" fill-rule="evenodd" stroke-linejoin="round" stroke-miterlimit="1.414" viewBox="0 0 32 32" xmlns="http://www.w3.org/2000/svg" xmlns:serif="http://www.serif.com/"><path id="pharmacy-shop-drug-medicine" d="m0 0h32v32h-32z" fill="none"/><path d="m27.998 2.994c.019 0 .038.001.056.001.182.016.232.036.327.075.366.152.604.445.617.924 0 1.344.004 2.688 0 4.032-.02 2.148-1.558 4.188-3.631 4.777-1.955.555-4.129-.305-5.365-1.915-.892 1.205-2.291 2.044-3.81 2.101-1.636.063-3.222-.773-4.202-2.084-.893 1.196-2.286 2.027-3.798 2.084-.403.016-.804-.024-1.193-.111-.01 4.38-.08 8.76.001 13.139.016.508.46.959.975.975 5.348.099 10.7.099 16.048 0 .516-.016.972-.465.975-1.003v-9.996c.029-.646.311-.782.578-.906.547-.256 1.297.109 1.407.732.014.077.012.096.015.174v10.002c-.01 1.556-1.35 2.967-2.962 2.997-5.347.032-10.693 0-16.039 0-1.566-.01-2.987-1.363-2.997-2.997v-14.002c.001-.02.002-.041.004-.061-1.179-.908-1.989-2.318-2.004-3.906v-4.032s.156-.977 1-1h23.998zm-12.999 15.999v-3c.005-.183.022-.233.056-.33.137-.392.446-.656.944-.67.019 0 .037.001.056.001.182.016.232.036.327.075.365.151.604.445.617.924v3h3l.056.001c.229.019.302.054.427.123.739.409.555 1.846-.483 1.875h-3v3c-.021.76-1.027 1.317-1.666.746-.21-.188-.324-.38-.334-.746v-3h-3c-.229-.006-.304-.036-.434-.099-.61-.294-.75-1.286-.144-1.716.122-.087.263-.145.411-.17.055-.01.111-.013.167-.014zm11.999-13.999h-5.999c.001 1.01.003 2.021 0 3.032-.001.027-.001.054-.002.081.079.662.264 1.27.664 1.766 1.028 1.278 3.178 1.45 4.394.304.588-.554.936-1.351.943-2.164zm-7.999 0h-5.999c.001 1.01.002 2.021-.001 3.032 0 .038-.001.077-.002.115.077.623.253 1.197.619 1.675 1.012 1.32 3.201 1.528 4.44.361.588-.554.935-1.35.943-2.164zm-8 0h-5.999c0 1.702-.334 3.582.617 4.822 1.012 1.32 3.201 1.528 4.439.361.588-.554.936-1.35.943-2.164z" fill-rule="nonzero"/></svg>