<svg height="512" viewBox="0 0 32 32" width="512" xmlns="http://www.w3.org/2000/svg"><g id="wishlist_love_favorite_like" data-name="wishlist, love, favorite, like"><path d="m25.123 6.5791a5.4912 5.4912 0 0 0 -6.9785-.5942 1 1 0 0 0 1.1133 1.6621 3.4662 3.4662 0 0 1 4.46.3554c1.789 1.7662 1.7129 5.4756-.2012 9.2554-1.4678 3.1065-5.4043 6.0947-7.5166 7.5381-2.1123-1.4434-6.05-4.4341-7.5283-7.5625-1.9024-3.7554-1.9785-7.4648-.19-9.231a3.2428 3.2428 0 0 1 2.4561-.98 4.0424 4.0424 0 0 1 2.87 1.3706 7.1719 7.1719 0 0 1 1.4678 2.2724 1 1 0 0 0 1.8476-.7675 9.1369 9.1369 0 0 0 -1.8662-2.8838 6.08 6.08 0 0 0 -4.287-1.9921 5.3682 5.3682 0 0 0 -3.894 1.558c-2.4463 2.4165-2.52 6.9526-.2012 11.5327 1.7588 3.7212 6.2529 7.0625 8.7754 8.7231a1.0005 1.0005 0 0 0 1.1 0c2.5225-1.6606 7.0166-5.0019 8.7637-8.6987 2.3306-4.6049 2.2561-9.141-.1909-11.558z"/></g></svg>