<svg clip-rule="evenodd" fill-rule="evenodd" height="512" stroke-linejoin="round" stroke-miterlimit="2" viewBox="0 0 24 24" width="512" xmlns="http://www.w3.org/2000/svg"><g id="Icon"><path d="m12.75 3.5c0-.597-.237-1.169-.659-1.591s-.994-.659-1.591-.659c-1.888 0-5.112 0-7 0-.597 0-1.169.237-1.591.659s-.659.994-.659 1.591v17c0 .597.237 1.169.659 1.591s.994.659 1.591.659h7c.597 0 1.169-.237 1.591-.659s.659-.994.659-1.591zm-1.5 0v17c0 .199-.079.39-.22.53-.14.141-.331.22-.53.22h-7c-.199 0-.39-.079-.53-.22-.141-.14-.22-.331-.22-.53v-17c0-.199.079-.39.22-.53.14-.141.331-.22.53-.22h7c.199 0 .39.079.53.22.141.14.22.331.22.53z"/><path d="m22.75 3.5c0-.597-.237-1.169-.659-1.591s-.994-.659-1.591-.659c-1.888 0-5.112 0-7 0-.597 0-1.169.237-1.591.659s-.659.994-.659 1.591v17c0 .597.237 1.169.659 1.591s.994.659 1.591.659h7c.597 0 1.169-.237 1.591-.659s.659-.994.659-1.591zm-1.5 0v17c0 .199-.079.39-.22.53-.14.141-.331.22-.53.22h-7c-.199 0-.39-.079-.53-.22-.141-.14-.22-.331-.22-.53v-17c0-.199.079-.39.22-.53.14-.141.331-.22.53-.22h7c.199 0 .39.079.53.22.141.14.22.331.22.53z"/><path d="m14.25 12.25v1.5c0 .414.336.75.75.75s.75-.336.75-.75v-1.5c0-.414-.336-.75-.75-.75s-.75.336-.75.75z"/><path d="m15 5.75h4c.414 0 .75-.336.75-.75s-.336-.75-.75-.75h-4c-.414 0-.75.336-.75.75s.336.75.75.75z"/><path d="m5 5.75h4c.414 0 .75-.336.75-.75s-.336-.75-.75-.75h-4c-.414 0-.75.336-.75.75s.336.75.75.75z"/><path d="m15 8.25h4c.414 0 .75-.336.75-.75s-.336-.75-.75-.75h-4c-.414 0-.75.336-.75.75s.336.75.75.75z"/><path d="m5 8.25h4c.414 0 .75-.336.75-.75s-.336-.75-.75-.75h-4c-.414 0-.75.336-.75.75s.336.75.75.75z"/><path d="m4.25 12.25v1.5c0 .414.336.75.75.75s.75-.336.75-.75v-1.5c0-.414-.336-.75-.75-.75s-.75.336-.75.75z"/></g></svg>