<svg clip-rule="evenodd" fill-rule="evenodd" height="512" stroke-linejoin="round" stroke-miterlimit="2" viewBox="0 0 24 24" width="512" xmlns="http://www.w3.org/2000/svg"><g id="Icon"><path d="m15.5 14.75c.414 0 .75.336.75.75s-.336.75-.75.75h-7c-.414 0-.75-.336-.75-.75s.336-.75.75-.75z"/><path d="m10 22.75c-.414 0-.75-.336-.75-.75s.336-.75.75-.75h4c.414 0 .75.336.75.75s-.336.75-.75.75z"/><path d="m12 1.25c4.277 0 7.75 3.473 7.75 7.75 0 2.437-1.127 4.613-2.889 6.034-.005.005-.011.009-.016.013-.294.224-.47.569-.478.939-.001.018-.002.036-.004.053-.043.453-.054.961-.061 1.245-.006.269-.074.533-.199.771l-.658 1.257c-.302.576-.899.938-1.55.938h-3.79c-.651 0-1.248-.362-1.55-.938l-.658-1.257c-.125-.238-.193-.502-.199-.771l-.031-1.299c-.009-.379-.19-.734-.492-.964-.002-.002-.004-.004-.007-.005-1.787-1.395-2.918-3.574-2.918-6.016 0-4.277 3.473-7.75 7.75-7.75zm0 1.5c-3.449 0-6.25 2.801-6.25 6.25 0 1.961.906 3.713 2.334 4.828.665.506 1.063 1.287 1.083 2.122l.03 1.299c.001.038.011.076.029.11l.658 1.257c.043.082.128.134.221.134h3.79c.093 0 .178-.052.221-.134l.658-1.257c.018-.034.028-.072.029-.11.007-.303.02-.842.065-1.324.026-.811.414-1.567 1.062-2.067 1.415-1.146 2.32-2.897 2.32-4.858 0-3.449-2.801-6.25-6.25-6.25z"/><path d="m8.794 8.752c-.14-.39.064-.819.454-.958.389-.14.819.064.958.454l1.794 5.022 1.794-5.022c.139-.39.568-.594.958-.454.39.139.593.568.454.958l-2.5 7c-.106.299-.389.498-.706.498s-.6-.199-.706-.498z"/></g></svg>