<svg clip-rule="evenodd" fill-rule="evenodd" height="512" stroke-linejoin="round" stroke-miterlimit="2" viewBox="0 0 24 24" width="512" xmlns="http://www.w3.org/2000/svg"><g id="Icon"><path d="m12.938 9.964s-1.91 5.963-2.862 8.933c-.452 1.409.292 2.923 1.684 3.426.044.016.088.027.134.035.745.122 1.544.261 2.287.318.018.002.037.002.055.003 1.432.003 2.612-1.124 2.674-2.554.202-3.121.446-9.382.446-9.382.016-.414-.306-.762-.72-.779-.414-.016-.763.307-.779.721 0 0-.243 6.244-.444 9.35-.001.006-.001.013-.001.019-.025.618-.524 1.108-1.138 1.124-.676-.053-1.389-.177-2.061-.288-.597-.25-.907-.915-.708-1.535l2.862-8.933c.126-.394-.092-.817-.486-.943-.394-.127-.817.091-.943.485z"/><path d="m4.595 15.428s.143 3.65.214 5.468c.039 1.03.888 1.845 1.919 1.842.047 0 .092-.004.138-.013.441-.083.916-.168 1.343-.287.018-.005.035-.011.053-.017.942-.341 1.448-1.363 1.149-2.318-.513-1.755-1.629-5.237-1.629-5.237-.126-.394-.549-.611-.943-.485s-.611.549-.485.943c0 0 1.111 3.466 1.619 5.207l.006.018c.058.181-.031.375-.202.451-.356.098-.74.167-1.104.235-.202-.026-.358-.192-.365-.397l-.214-5.468c-.016-.414-.365-.736-.779-.72-.413.016-.736.365-.72.778z"/><path d="m16.723 1.353c-3.668-.647-7.172 1.807-7.819 5.476-.159.902.285 1.782 1.236 2.508 1.107.845 2.947 1.513 4.85 1.848 1.902.336 3.86.338 5.189-.078 1.142-.357 1.861-1.031 2.02-1.934.647-3.669-1.807-7.173-5.475-7.82h-.001zm-.26 1.478c2.854.503 4.762 3.228 4.259 6.081-.072.404-.48.604-.991.764-1.147.358-2.838.322-4.481.032-1.642-.29-3.244-.834-4.199-1.563-.426-.325-.741-.652-.67-1.056.503-2.853 3.228-4.762 6.082-4.258z"/><path d="m5.21 9.633c-2.31.408-3.854 2.614-3.447 4.924.09.508.411.918.943 1.191.803.411 2.236.481 3.624.236s2.711-.8 3.324-1.461c.408-.439.569-.934.48-1.442-.408-2.31-2.614-3.855-4.924-3.448zm.261 1.477c1.495-.263 2.922.736 3.186 2.231.011.064-.051.106-.102.161-.108.116-.255.221-.426.321-.539.313-1.291.548-2.059.684-.769.135-1.556.172-2.17.061-.194-.035-.368-.083-.509-.155-.067-.034-.14-.053-.151-.117-.263-1.494.736-2.922 2.231-3.186z"/></g></svg>