<svg clip-rule="evenodd" fill-rule="evenodd" height="512" stroke-linejoin="round" stroke-miterlimit="2" viewBox="0 0 24 24" width="512" xmlns="http://www.w3.org/2000/svg"><g id="Icon"><path d="m6.734 7.55c-.932 1.24-1.484 2.781-1.484 4.45s.552 3.21 1.484 4.45c.249.331.719.398 1.05.15.331-.249.398-.72.149-1.05-.743-.99-1.183-2.219-1.183-3.55s.44-2.56 1.183-3.55c.249-.33.182-.801-.149-1.05-.331-.248-.801-.181-1.05.15z"/><path d="m16.067 8.45c.743.99 1.183 2.219 1.183 3.55s-.44 2.56-1.183 3.55c-.249.33-.182.801.149 1.05.331.248.801.181 1.05-.15.932-1.24 1.484-2.781 1.484-4.45s-.552-3.21-1.484-4.45c-.249-.331-.719-.398-1.05-.15-.331.249-.398.72-.149 1.05z"/><path d="m3.401 5.55c-1.35 1.797-2.151 4.031-2.151 6.45s.801 4.653 2.151 6.45c.249.331.719.398 1.05.15.331-.249.398-.72.149-1.05-1.161-1.547-1.85-3.469-1.85-5.55s.689-4.003 1.85-5.55c.249-.33.182-.801-.149-1.05-.331-.248-.801-.181-1.05.15z"/><path d="m19.4 6.45c1.161 1.547 1.85 3.469 1.85 5.55s-.689 4.003-1.85 5.55c-.249.33-.182.801.149 1.05.331.248.801.181 1.05-.15 1.35-1.797 2.151-4.031 2.151-6.45s-.801-4.653-2.151-6.45c-.249-.331-.719-.398-1.05-.15-.331.249-.398.72-.149 1.05z"/><path d="m12 8.75c-1.794 0-3.25 1.456-3.25 3.25s1.456 3.25 3.25 3.25 3.25-1.456 3.25-3.25-1.456-3.25-3.25-3.25zm0 1.5c.966 0 1.75.784 1.75 1.75s-.784 1.75-1.75 1.75-1.75-.784-1.75-1.75.784-1.75 1.75-1.75z"/></g></svg>