<svg clip-rule="evenodd" fill-rule="evenodd" height="512" stroke-linejoin="round" stroke-miterlimit="2" viewBox="0 0 24 24" width="512" xmlns="http://www.w3.org/2000/svg"><g id="Icon"><path d="m21.25 6c0-.966-.783-1.75-1.75-1.75h-15c-.967 0-1.75.784-1.75 1.75v10c0 .966.783 1.75 1.75 1.75h15c.967 0 1.75-.784 1.75-1.75zm-1.5 0v10c0 .138-.112.25-.25.25h-15c-.138 0-.25-.112-.25-.25v-10c0-.138.112-.25.25-.25h15c.138 0 .25.112.25.25z"/><path d="m22 18.25h-20c-.414 0-.75.336-.75.75s.336.75.75.75h20c.414 0 .75-.336.75-.75s-.336-.75-.75-.75z"/></g></svg>