<svg clip-rule="evenodd" fill-rule="evenodd" height="512" stroke-linejoin="round" stroke-miterlimit="2" viewBox="0 0 24 24" width="512" xmlns="http://www.w3.org/2000/svg"><g id="Icon"><path d="m16.667 1.25c-.415 0-.75.336-.75.75v10c0 1.039-.413 2.035-1.147 2.77-.735.734-1.731 1.147-2.77 1.147s-2.035-.413-2.77-1.148c-.734-.734-1.147-1.73-1.147-2.769v-10c0-.414-.335-.75-.75-.75h-5.333c-.414 0-.75.336-.75.75v10c0 2.851 1.133 5.585 3.149 7.601s4.75 3.149 7.601 3.149 5.585-1.133 7.601-3.149 3.149-4.75 3.149-7.601v-10c0-.414-.336-.75-.75-.75zm.75 1.5h3.833v9.25c0 2.453-.975 4.806-2.709 6.541-1.735 1.734-4.088 2.709-6.541 2.709s-4.806-.975-6.541-2.709c-1.734-1.735-2.709-4.088-2.709-6.541v-9.25h3.833v9.25c0 1.437.571 2.814 1.587 3.83s2.393 1.587 3.83 1.587 2.814-.571 3.83-1.587 1.587-2.393 1.587-3.83z"/><path d="m17 7.75h5c.414 0 .75-.336.75-.75s-.336-.75-.75-.75h-5c-.414 0-.75.336-.75.75s.336.75.75.75z"/><path d="m2 7.75h5c.414 0 .75-.336.75-.75s-.336-.75-.75-.75h-5c-.414 0-.75.336-.75.75s.336.75.75.75z"/></g></svg>