<svg clip-rule="evenodd" fill-rule="evenodd" height="512" stroke-linejoin="round" stroke-miterlimit="2" viewBox="0 0 24 24" width="512" xmlns="http://www.w3.org/2000/svg"><g id="Icon"><path d="m16.624 20.011c-1.36.788-2.94 1.239-4.624 1.239-5.105 0-9.25-4.145-9.25-9.25s4.145-9.25 9.25-9.25 9.25 4.145 9.25 9.25c0 .472-.035.935-.104 1.388-.061.41.221.792.63.854.41.061.792-.221.854-.63.079-.526.12-1.064.12-1.612 0-5.933-4.817-10.75-10.75-10.75s-10.75 4.817-10.75 10.75 4.817 10.75 10.75 10.75c1.958 0 3.794-.525 5.376-1.441.358-.207.48-.666.273-1.024-.207-.359-.667-.481-1.025-.274z"/><path d="m18.087 10.25c-2.574 0-4.663 2.089-4.663 4.663 0 .882.374 1.96.93 3.027 1.188 2.285 3.168 4.553 3.168 4.553.143.163.349.257.565.257s.422-.094.565-.257c0 0 1.979-2.268 3.168-4.553.556-1.067.93-2.145.93-3.027 0-2.574-2.089-4.663-4.663-4.663zm0 1.5c1.746 0 3.163 1.417 3.163 3.163 0 .935-.595 2.125-1.268 3.232-.65 1.069-1.397 2.055-1.895 2.679-.498-.624-1.245-1.61-1.895-2.679-.673-1.107-1.268-2.297-1.268-3.232 0-1.746 1.417-3.163 3.163-3.163z"/><path d="m19.047 4.9c-1.964 1.476-4.404 2.35-7.047 2.35-2.644 0-5.085-.875-7.049-2.351-.331-.249-.802-.182-1.051.148-.248.331-.182.802.149 1.051 2.216 1.665 4.969 2.652 7.951 2.652 2.981 0 5.733-.986 7.948-2.65.331-.249.398-.72.149-1.05-.249-.331-.719-.398-1.05-.15z"/><path d="m14.304 15.448c-.749-.131-1.518-.2-2.304-.2-2.982 0-5.735.987-7.951 2.652-.331.249-.397.72-.149 1.051.249.331.72.397 1.051.149 1.964-1.477 4.405-2.352 7.049-2.352.697 0 1.38.061 2.044.177.408.072.797-.201.869-.608.071-.408-.202-.797-.609-.869z"/><path d="m14.896 18.67c-.755 1.54-1.734 2.58-2.896 2.58-.886 0-1.668-.629-2.332-1.603-1.176-1.724-1.918-4.511-1.918-7.647s.742-5.923 1.918-7.647c.664-.974 1.446-1.603 2.332-1.603.824 0 1.56.549 2.195 1.409 1.13 1.53 1.889 4.021 2.031 6.878.021.414.373.733.787.712.413-.02.732-.373.711-.786-.159-3.203-1.056-5.98-2.322-7.695-.963-1.304-2.153-2.018-3.402-2.018-1.322 0-2.58.804-3.572 2.258-1.307 1.917-2.178 5.005-2.178 8.492s.871 6.575 2.178 8.492c.992 1.454 2.25 2.258 3.572 2.258 1.633 0 3.182-1.256 4.243-3.42.182-.371.028-.821-.343-1.003-.372-.183-.822-.029-1.004.343z"/><path d="m2 12.75h13.5c.414 0 .75-.336.75-.75s-.336-.75-.75-.75h-13.5c-.414 0-.75.336-.75.75s.336.75.75.75z"/><circle cx="18.087" cy="15" r="1.5"/></g></svg>