<svg clip-rule="evenodd" fill-rule="evenodd" height="512" stroke-linejoin="round" stroke-miterlimit="2" viewBox="0 0 24 24" width="512" xmlns="http://www.w3.org/2000/svg"><g id="Icon"><path d="m3.75 13.75h2.757c.597 0 1.169.237 1.591.659l.243.243c.703.703 1.657 1.098 2.652 1.098h3.257c.414 0 .75-.336.75-.75s-.336-.75-.75-.75c0 0-1.925 0-3.257 0-.597 0-1.169-.237-1.591-.659-.081-.081-.162-.162-.243-.243-.703-.703-1.657-1.098-2.652-1.098h-2.757c-.414 0-.75.336-.75.75s.336.75.75.75z"/><path d="m15.25 9c0-.414-.336-.75-.75-.75h-11c-.414 0-.75.336-.75.75v12c0 .966.783 1.75 1.75 1.75h10c.414 0 .75-.336.75-.75zm-1.5.75v11.5h-9.25c-.138 0-.25-.112-.25-.25v-11.25z"/><path d="m18.25 2.5c0-.69-.56-1.25-1.25-1.25h-10c-.69 0-1.25.56-1.25 1.25v2.5c0 .414.336.75.75.75h11c.414 0 .75-.336.75-.75zm-11 .25h9.5v1.5h-9.5z"/><path d="m21.25 9.333c0-.378-.123-.747-.35-1.05-.671-.894-2.8-3.733-2.8-3.733-.142-.189-.364-.3-.6-.3s-.458.111-.6.3l-3 4c-.097.13-.15.288-.15.45v13c0 .414.336.75.75.75h5c.464 0 .909-.184 1.237-.513.329-.328.513-.773.513-1.237zm-1.5 0v11.667c0 .066-.026.13-.073.177s-.111.073-.177.073h-4.25v-12s2.25-3 2.25-3 2.2 2.933 2.2 2.933c.032.044.05.096.05.15z"/><path d="m18.1 5.45c.17-.227.198-.531.071-.785s-.387-.415-.671-.415h-11c-.236 0-.458.111-.6.3l-3 4c-.17.227-.198.531-.071.785s.387.415.671.415h11c.236 0 .458-.111.6-.3zm-2.1.3-1.875 2.5h-9.125s1.875-2.5 1.875-2.5z"/></g></svg>