<svg clip-rule="evenodd" fill-rule="evenodd" height="512" stroke-linejoin="round" stroke-miterlimit="2" viewBox="0 0 24 24" width="512" xmlns="http://www.w3.org/2000/svg"><g id="Icon"><path d="m16.333 21.75c1.616 0 2.917-1.287 2.917-2.861v-14.778c0-1.574-1.301-2.861-2.917-2.861h-8.666c-1.616 0-2.917 1.287-2.917 2.861v14.778c0 1.574 1.301 2.861 2.917 2.861zm0-1.5h-8.666c-.777 0-1.417-.604-1.417-1.361v-14.778c0-.757.64-1.361 1.417-1.361h8.666c.777 0 1.417.604 1.417 1.361v14.778c0 .757-.64 1.361-1.417 1.361z"/><path d="m5.5 10.75h13c.414 0 .75-.336.75-.75s-.336-.75-.75-.75h-13c-.414 0-.75.336-.75.75s.336.75.75.75z"/><path d="m7.75 6v1c0 .414.336.75.75.75s.75-.336.75-.75v-1c0-.414-.336-.75-.75-.75s-.75.336-.75.75z"/><path d="m7.75 14v1c0 .414.336.75.75.75s.75-.336.75-.75v-1c0-.414-.336-.75-.75-.75s-.75.336-.75.75z"/><path d="m7.25 21v1c0 .414.336.75.75.75s.75-.336.75-.75v-1c0-.414-.336-.75-.75-.75s-.75.336-.75.75z"/><path d="m15.25 21v1c0 .414.336.75.75.75s.75-.336.75-.75v-1c0-.414-.336-.75-.75-.75s-.75.336-.75.75z"/></g></svg>