<svg clip-rule="evenodd" fill-rule="evenodd" height="512" stroke-linejoin="round" stroke-miterlimit="2" viewBox="0 0 24 24" width="512" xmlns="http://www.w3.org/2000/svg"><g id="Icon"><path d="m9 18.75c.968 0 1.75-.784 1.75-1.75v-4c0-.966-.782-1.75-1.75-1.75h-3c-.968 0-1.75.784-1.75 1.75v4c0 .966.782 1.75 1.75 1.75zm0-1.5h-3c-.138 0-.25-.112-.25-.25v-4c0-.138.112-.25.25-.25h3c.138 0 .25.112.25.25v4c0 .138-.112.25-.25.25z"/><path d="m9.5 6.25h-5.5c-1.519 0-2.75 1.231-2.75 2.75v9.5c0 .729.29 1.429.805 1.945.516.515 1.216.805 1.945.805h16c.729 0 1.429-.29 1.945-.805.515-.516.805-1.216.805-1.945v-9.5c0-1.519-1.231-2.75-2.75-2.75-2.222 0-5.5 0-5.5 0-.414 0-.75.336-.75.75s.336.75.75.75h5.5c.69 0 1.25.559 1.25 1.25v9.5c0 .332-.132.649-.366.884-.235.234-.552.366-.884.366h-16c-.332 0-.649-.132-.884-.366-.234-.235-.366-.552-.366-.884v-9.5c0-.691.56-1.25 1.25-1.25h5.5c.414 0 .75-.336.75-.75s-.336-.75-.75-.75z"/><path d="m13 13.75h6c.414 0 .75-.336.75-.75s-.336-.75-.75-.75h-6c-.414 0-.75.336-.75.75s.336.75.75.75z"/><path d="m13 16.75h4c.414 0 .75-.336.75-.75s-.336-.75-.75-.75h-4c-.414 0-.75.336-.75.75s.336.75.75.75z"/><path d="m15.25 8v-4c0-.332-.132-.65-.366-.884-.235-.235-.553-.366-.884-.366-.958 0-3.042 0-4 0-.331 0-.649.131-.884.366-.234.234-.366.552-.366.884v4c0 .263.138.507.364.643l1.986 1.191c.554.333 1.246.333 1.8 0l1.986-1.191c.226-.136.364-.38.364-.643zm-5-3.75h3.5v3.325s-1.621.973-1.621.973c-.08.047-.178.047-.258 0 0 0-1.621-.973-1.621-.973z"/></g></svg>