<svg clip-rule="evenodd" fill-rule="evenodd" stroke-linejoin="round" stroke-miterlimit="1.414" viewBox="0 0 32 32" xmlns="http://www.w3.org/2000/svg" xmlns:serif="http://www.serif.com/"><path id="option-gear-setting-setup" d="m0 0h32v32h-32z" fill="none"/><path d="m22.344 21.669c.093.026.093.026.184.061l2.186.962c.577-.754 1.055-1.583 1.422-2.46l-1.919-1.428s-.085-.044-.206-.203c-.337-.444-.097-1.101-.029-1.709.099-.89.047-1.793-.15-2.67 0 0-.039-.682.385-1.026l1.926-1.412c-.364-.877-.843-1.706-1.419-2.462l-2.196.948s-.653.202-1.068-.168c-.45-.401-.404-1.224.096-1.57.07-.048.09-.055.166-.092l2.88-1.268c.604-.232 1.145.21 1.614.81.893 1.14 1.592 2.431 2.064 3.801 0 0 .06.17.066.323.011.325-.151.634-.409.843l-2.028 1.487c.005.034.011.069.016.103.142.996.142 2.024-.016 3.025l2.028 1.487c.503.408.39 1.096.106 1.802-.541 1.345-1.31 2.596-2.26 3.689 0 0-.117.137-.247.218-.275.173-.625.187-.934.068l-2.302-1.013c-.027.022-.054.043-.082.065-.795.625-1.682 1.135-2.627 1.499l-.273 2.5c-.102.639-.755.886-1.509.993-1.421.202-2.875.164-4.285-.105 0 0-.769-.205-.877-.888l-.274-2.5c-.032-.013-.065-.025-.097-.038-.939-.376-1.825-.89-2.612-1.526l-2.302 1.013c-.54.207-1.051-.107-1.514-.684-.916-1.14-1.637-2.432-2.125-3.814-.106-.301-.147-.914.304-1.279l2.028-1.487c-.005-.034-.01-.069-.016-.103-.144-1.007-.141-2.027.016-3.025l-2.028-1.487c-.503-.408-.39-1.096-.106-1.803.541-1.344 1.31-2.594 2.26-3.688 0 0 .117-.137.247-.218.275-.173.625-.187.934-.068l2.302 1.013c.027-.022.055-.044.082-.065.8-.629 1.684-1.136 2.627-1.499l.274-2.5c.101-.639.754-.886 1.508-.993 1.434-.204 2.902-.163 4.324.113 0 0 .177.033.313.105.287.152.473.448.526.775l.342 3.128c.005.084.009.106.002.19-.064.794-1.322 1.238-1.83.471-.088-.132-.135-.284-.161-.443l-.259-2.375c-.942-.123-1.899-.122-2.842-.002l-.277 2.377s.005.095-.073.279c-.211.501-.875.627-1.414.858-.84.36-1.617.868-2.289 1.486 0 0-.16.139-.327.202-.181.067-.381.081-.57.039-.084-.019-.103-.03-.183-.061l-2.186-.962c-.578.754-1.056 1.583-1.423 2.46l1.919 1.428s.086.044.206.203c.329.433.105 1.072.036 1.653-.108.908-.057 1.835.143 2.726 0 0 .039.682-.385 1.026l-1.926 1.412c.364.877.843 1.706 1.419 2.462l2.197-.948s.08-.052.278-.077c.539-.068.981.445 1.45.795.732.547 1.56.967 2.432 1.24 0 0 .61.307.696.845l.26 2.375c.941.123 1.898.122 2.841.002l.277-2.377s-.005-.095.073-.279c.211-.501.876-.627 1.414-.858.839-.36 1.616-.866 2.289-1.487 0 0 .315-.242.61-.262.183-.012.228.012.287.022zm-6.323-8.669c1.693.032 3.176 1.681 2.932 3.418-.198 1.416-1.534 2.582-2.971 2.582-1.729 0-3.273-1.744-2.953-3.53.242-1.355 1.495-2.443 2.915-2.47zm-.052 2c-.766.015-1.312 1.104-.685 1.715.509.498 1.566.225 1.687-.562.084-.55-.361-1.126-.95-1.152-.017-.001-.035-.001-.052-.001z" fill-rule="nonzero"/></svg>