<svg clip-rule="evenodd" fill-rule="evenodd" height="512" stroke-linejoin="round" stroke-miterlimit="2" viewBox="0 0 24 24" width="512" xmlns="http://www.w3.org/2000/svg"><g id="Icon"><path d="m19 22.75c.968 0 1.75-.782 1.75-1.75v-18c0-.966-.782-1.75-1.75-1.75h-14c-.968 0-1.75.784-1.75 1.75v18c0 .968.782 1.75 1.75 1.75zm0-1.5h-14c-.138 0-.25-.112-.25-.25v-18c0-.138.112-.25.25-.25h14c.138 0 .25.112.25.25v18c0 .138-.112.25-.25.25z"/><path d="m9 15.75h6c.414 0 .75-.336.75-.75s-.336-.75-.75-.75h-6c-.414 0-.75.336-.75.75s.336.75.75.75z"/><path d="m9.584 12.717 1.585-1.965s1.437.886 1.437.886c.344.212.794.114 1.018-.222l2-3c.23-.345.136-.811-.208-1.04-.344-.23-.81-.137-1.04.208l-1.599 2.397s-1.383-.853-1.383-.853c-.322-.198-.741-.126-.978.168l-2 2.479c-.26.322-.209.794.113 1.054s.795.21 1.055-.112z"/></g></svg>