<svg clip-rule="evenodd" fill-rule="evenodd" height="512" stroke-linejoin="round" stroke-miterlimit="2" viewBox="0 0 24 24" width="512" xmlns="http://www.w3.org/2000/svg"><g id="Icon"><path d="m7.75 13v3.168c0 .054-.017.106-.05.15l-1.655 2.218c-.666.893-.484 2.156.407 2.824l.003.002c.873.655 2.111.489 2.781-.373 1.131-1.454 3.134-4.029 3.134-4.029.254-.326.195-.798-.132-1.052s-.798-.195-1.052.132c0 0-2.003 2.574-3.134 4.028-.168.217-.478.258-.697.094 0 0-.003-.002-.003-.002-.229-.172-.276-.497-.105-.727l1.656-2.218c.225-.303.347-.67.347-1.047v-3.168c0-.414-.336-.75-.75-.75s-.75.336-.75.75z"/><path d="m11.75 10.714.492.246c.382.191.803.29 1.23.29h3.278c1.105 0 2-.895 2-2 0-.53-.211-1.039-.586-1.414s-.884-.586-1.414-.586h-2.219c-.217 0-.431-.057-.62-.165l-2.808-1.604c-.265-.152-.564-.231-.869-.231h-.731c-.966 0-1.749.783-1.75 1.749 0 1.527-.002 4.426-.002 5.971-.001.888.428 1.722 1.151 2.239l2.243 1.602c.066.047.105.123.105.204v2.237c0 .53.21 1.038.585 1.413.375.374.883.585 1.413.585h.002c1.105 0 2-.895 2-2v-3.221c0-.888-.429-1.721-1.152-2.238 0 0-2.243-1.602-2.243-1.602-.066-.047-.105-.123-.105-.204zm5.5-1.464c0 .276-.224.5-.5.5h-3.278c-.194 0-.385-.045-.559-.132 0 0-1.288-.644-1.288-.644-.295-.147-.644-.132-.924.041-.28.174-.451.479-.451.809v2.161c0 .566.273 1.096.733 1.424l2.244 1.603c.328.235.523.614.523 1.017v3.221c0 .276-.224.5-.5.5h-.002c-.132 0-.259-.052-.352-.146-.094-.093-.146-.22-.146-.352v-2.237c0-.566-.273-1.096-.733-1.424l-2.243-1.603c-.329-.234-.524-.614-.523-1.017l.002-5.971c.001-.138.112-.25.25-.25h.731c.044 0 .087.011.124.033l2.809 1.605c.415.237.886.362 1.364.362h2.219c.133 0 .26.053.354.146.093.094.146.221.146.354z"/><path d="m15.767 10.659 1.848 8.5c.088.405.488.662.892.574.405-.088.662-.488.574-.892l-1.848-8.5c-.088-.405-.488-.662-.892-.574-.405.088-.662.488-.574.892z"/><path d="m8.504 6.25h-2.004c-.729 0-1.429.29-1.945.805-.515.516-.805 1.216-.805 1.945v3c0 1.519 1.231 2.75 2.75 2.75h2c.414 0 .75-.336.75-.75s-.336-.75-.75-.75c0 0-1 0-2 0-.69 0-1.25-.56-1.25-1.25v-3c0-.332.132-.649.366-.884.235-.234.552-.366.884-.366h2.004c.414 0 .75-.336.75-.75s-.336-.75-.75-.75z"/><path d="m6.008 6.25h-2.008c-.414 0-.75.336-.75.75s.336.75.75.75h2.008c.414 0 .75-.336.75-.75s-.336-.75-.75-.75z"/><path d="m10 1.25c-1.518 0-2.75 1.232-2.75 2.75s1.232 2.75 2.75 2.75 2.75-1.232 2.75-2.75-1.232-2.75-2.75-2.75zm0 1.5c.69 0 1.25.56 1.25 1.25s-.56 1.25-1.25 1.25-1.25-.56-1.25-1.25.56-1.25 1.25-1.25z"/><path d="m21.47 16.47-1.781 1.78h-2.189c-.414 0-.75.336-.75.75s.336.75.75.75h2.5c.199 0 .39-.079.53-.22l2-2c.293-.292.293-.768 0-1.06-.292-.293-.768-.293-1.06 0z"/><path d="m16 19.75h-5c-.162 0-.32.053-.45.15l-1.8 1.35h-3.25c-.414 0-.75.336-.75.75s.336.75.75.75h3.5c.162 0 .32-.053.45-.15l1.8-1.35h4.75c.414 0 .75-.336.75-.75s-.336-.75-.75-.75z"/><path d="m3.5 21.25h-1.5c-.414 0-.75.336-.75.75s.336.75.75.75h1.5c.414 0 .75-.336.75-.75s-.336-.75-.75-.75z"/></g></svg>