<svg clip-rule="evenodd" fill-rule="evenodd" stroke-linejoin="round" stroke-miterlimit="1.414" viewBox="0 0 32 32" xmlns="http://www.w3.org/2000/svg" xmlns:serif="http://www.serif.com/"><path id="monitor-heartbeat-beat-control" d="m0 0h32v32h-32z" fill="none"/><path d="m20 27h-8c-.23-.006-.305-.037-.434-.099-.613-.295-.75-1.287-.145-1.717.168-.119.374-.178.579-.184h8c.019.001.037.001.056.002.733.061 1.235 1.054.69 1.664-.163.182-.393.301-.634.328-.05.005-.062.005-.112.006zm6-4h-20c-.537-.023-.977-.462-1-1v-16c.023-.537.462-.977 1-1h20c.029.001.058.003.087.004.499.065.891.486.913.996v12c-.003.077-.002.097-.015.174-.137.778-1.389 1.126-1.851.326-.08-.138-.122-.216-.134-.5v-11h-18v14h19c.001 0 .493.032.766.357.317.378.294.997-.059 1.35-.144.144-.332.242-.533.278-.077.013-.097.012-.174.015zm-12-8h-4c-.253-.009-.327-.043-.46-.112-.595-.308-.722-1.278-.117-1.705.131-.092.283-.152.441-.174.06-.008.075-.007.136-.009h3.586l1.707-1.707s.443-.31.8-.289c.339.044.636.244.801.549l1.38 2.759 1.019-1.019s.285-.246.576-.284c.058-.008.073-.007.131-.009h1.977c.252.009.327.043.46.112.596.309.701 1.292.116 1.705-.13.092-.282.152-.44.174-.06.008-.076.007-.136.009h-1.563l-1.707 1.707s-.346.303-.733.293c-.315-.008-.622-.176-.8-.436-.034-.05-.04-.064-.068-.117l-1.38-2.759-1.019 1.019s-.285.246-.576.284c-.058.008-.073.007-.131.009z" fill-rule="nonzero"/></svg>