<svg clip-rule="evenodd" fill-rule="evenodd" height="512" stroke-linejoin="round" stroke-miterlimit="2" viewBox="0 0 24 24" width="512" xmlns="http://www.w3.org/2000/svg"><g id="Icon"><path d="m5.25 2.5v3c0 .414.336.75.75.75s.75-.336.75-.75v-3c0-.414-.336-.75-.75-.75s-.75.336-.75.75z"/><path d="m19.25 17.5v3c0 .414.336.75.75.75s.75-.336.75-.75v-3c0-.414-.336-.75-.75-.75s-.75.336-.75.75z"/><path d="m4.5 4.75h3.055c.414 0 .75-.336.75-.75s-.336-.75-.75-.75h-3.055c-.414 0-.75.336-.75.75s.336.75.75.75z"/><path d="m18.5 19.75h3.055c.414 0 .75-.336.75-.75s-.336-.75-.75-.75h-3.055c-.414 0-.75.336-.75.75s.336.75.75.75z"/><path d="m21.445 3.063c-.072-.244-.264-.436-.508-.508 0 0-5.791-1.725-10.554 3.038-2.344 2.344-4.778 6.182-4.965 8.38-.019.22.061.437.217.594l3.798 3.798c.157.156.374.236.594.217 2.198-.187 6.036-2.621 8.38-4.965 4.763-4.763 3.038-10.554 3.038-10.554zm-1.346.839c.239 1.276.638 5.264-2.753 8.655-1.983 1.983-5.116 4.117-7.114 4.485-.001 0-3.274-3.273-3.274-3.273.368-1.999 2.502-5.132 4.485-7.115 3.391-3.391 7.379-2.992 8.655-2.753l.001.001z"/><path d="m17.457 6.543c-1.166-1.166-3.059-1.166-4.226 0-1.166 1.166-1.166 3.059 0 4.226 1.167 1.166 3.06 1.166 4.226 0 1.166-1.167 1.166-3.06 0-4.226zm-1.06 1.06c.58.581.58 1.524 0 2.105-.581.581-1.524.581-2.105 0s-.581-1.524 0-2.105c.581-.58 1.524-.58 2.105 0z"/><path d="m13.677 15.79-5.467-5.467c-.292-.293-.768-.293-1.06 0-.293.292-.293.768 0 1.06l5.467 5.467c.292.293.768.293 1.06 0 .293-.292.293-.768 0-1.06z"/><path d="m14.914 15.235s-.135 1.488-.229 2.518c-.032.351-.238.663-.548.83l-2.157 1.161v-1.909c0-.414-.336-.75-.75-.75s-.75.336-.75.75v3.165c0 .264.138.509.365.644s.508.142.74.016c0 0 2.058-1.108 3.263-1.757.754-.405 1.253-1.162 1.331-2.014.094-1.031.229-2.518.229-2.518.037-.413-.267-.778-.679-.815-.412-.038-.778.266-.815.679z"/><path d="m8.629 7.592s-1.487.135-2.518.229c-.852.078-1.609.577-2.014 1.331-.649 1.205-1.757 3.263-1.757 3.263-.126.232-.119.513.016.74s.38.365.644.365h3.165c.414 0 .75-.336.75-.75s-.336-.75-.75-.75h-1.909l1.161-2.157c.167-.31.479-.516.83-.548 1.03-.094 2.518-.229 2.518-.229.413-.037.717-.403.679-.815-.037-.412-.402-.716-.815-.679z"/><path d="m4.217 15.557-1.431 1.431c-.293.293-.293.768 0 1.061.293.292.768.292 1.061 0l1.431-1.431c.293-.293.293-.768 0-1.061s-.768-.293-1.061 0z"/><path d="m5.8 17.14-2.697 2.697c-.293.292-.293.768 0 1.06.292.293.768.293 1.06 0l2.697-2.697c.293-.292.293-.768 0-1.06-.292-.293-.768-.293-1.06 0z"/><path d="m7.382 18.722-1.431 1.431c-.292.293-.292.768 0 1.061.293.293.768.293 1.061 0l1.431-1.431c.293-.293.293-.768 0-1.061s-.768-.293-1.061 0z"/></g></svg>