<svg clip-rule="evenodd" fill-rule="evenodd" height="512" stroke-linejoin="round" stroke-miterlimit="2" viewBox="0 0 24 24" width="512" xmlns="http://www.w3.org/2000/svg"><g id="Icon"><path d="m9 10.75c.968 0 1.75-.784 1.75-1.75v-6c0-.966-.782-1.75-1.75-1.75h-6c-.968 0-1.75.784-1.75 1.75v6c0 .966.782 1.75 1.75 1.75zm0-1.5h-6c-.138 0-.25-.112-.25-.25v-6c0-.138.112-.25.25-.25h6c.138 0 .25.112.25.25v6c0 .138-.112.25-.25.25z"/><path d="m10.75 18c0-2.622-2.128-4.75-4.75-4.75s-4.75 2.128-4.75 4.75c0 2.621 2.128 4.75 4.75 4.75s4.75-2.129 4.75-4.75zm-1.5 0c0 1.794-1.456 3.25-3.25 3.25s-3.25-1.456-3.25-3.25 1.456-3.25 3.25-3.25 3.25 1.456 3.25 3.25z"/><path d="m14.53 10.53 8-8c.293-.292.293-.768 0-1.06-.292-.293-.768-.293-1.06 0l-8 8c-.293.292-.293.768 0 1.06.292.293.768.293 1.06 0z"/><path d="m13.47 2.53 8 8c.292.293.768.293 1.06 0 .293-.292.293-.768 0-1.06l-8-8c-.292-.293-.768-.293-1.06 0-.293.292-.293.768 0 1.06z"/><path d="m13.454 19.952c-.643 1.286.293 2.798 1.729 2.798h5.634c1.436 0 2.372-1.512 1.729-2.798l-2.817-5.635c-.713-1.423-2.745-1.423-3.458 0zm1.342.672 2.817-5.635c.159-.319.615-.319.774 0l2.817 5.635c.145.288-.065.626-.387.626h-5.634c-.322 0-.532-.338-.387-.626z"/></g></svg>