<svg clip-rule="evenodd" fill-rule="evenodd" height="512" stroke-linejoin="round" stroke-miterlimit="2" viewBox="0 0 24 24" width="512" xmlns="http://www.w3.org/2000/svg"><g id="Icon"><path d="m12.75 21.977v-10c0-.414-.336-.75-.75-.75s-.75.336-.75.75v10c0 .414.336.75.75.75s.75-.336.75-.75z"/><path d="m8.931 4.732c.084.101.076.251-.02.343-.102.094-.26.089-.355-.012 0 0-1.032-1.099-1.032-1.099-.147-.156-.354-.242-.568-.236s-.416.103-.554.267c-.299.357-.575.737-.827 1.13-.42.641-.55 1.437-.355 2.185.193.745.691 1.373 1.371 1.733.573.31 1.068.57 1.068.57.122.064.169.215.106.338-.065.121-.216.169-.338.105l-2.559-1.341c-.2-.105-.437-.114-.645-.024-.207.089-.364.267-.425.485-.167.595-.294 1.163-.383 1.674-.001.004-.002.008-.002.013-.186 1.189.425 2.361 1.508 2.888 1.198.593 2.844 1.396 2.844 1.396.02.009.04.018.061.026.129.049.193.194.143.323-.049.129-.193.193-.322.144 0 0-2.973-1.138-2.973-1.138-.266-.102-.568-.044-.777.15-.21.193-.291.489-.21.763.503 1.706 1.414 3.24 2.539 4.2.829.707 1.777 1.112 2.774 1.112 1.096 0 2.122-.387 3-1.065.878.678 1.904 1.065 3 1.065.997 0 1.944-.405 2.773-1.112 1.126-.96 2.037-2.494 2.54-4.2.081-.274 0-.57-.21-.763-.209-.194-.511-.252-.777-.15l-2.973 1.138c-.128.049-.273-.015-.322-.144-.05-.129.014-.274.143-.323.021-.008.041-.017.061-.026 0 0 1.643-.801 2.848-1.388 1.086-.529 1.7-1.705 1.513-2.899-.002-.008-.003-.017-.005-.025-.097-.506-.224-1.069-.39-1.659-.062-.218-.218-.396-.426-.486-.207-.089-.444-.08-.644.025l-2.558 1.341c-.122.064-.273.016-.338-.106-.064-.122-.016-.273.107-.338 0 0 1.062-.556 1.062-.556.687-.36 1.19-.993 1.385-1.744.196-.751.065-1.549-.36-2.198-.002-.003-.004-.006-.006-.009-.258-.383-.531-.757-.826-1.11-.138-.164-.34-.261-.554-.267-.215-.006-.421.08-.568.236l-1.031 1.099c-.095.101-.253.107-.354.012-.094-.089-.105-.233-.028-.334.038-.041.075-.088.11-.142.048-.075.289-.468.418-.825.106-.293.132-.576.091-.776-.114-.557-.492-1.024-1.014-1.252-.008-.004-.016-.007-.024-.011-.797-.315-1.671-.508-2.643-.508-.979 0-1.859.196-2.652.532-.003.001-.006.002-.008.003-.516.226-.89.688-1.003 1.24-.04.195-.017.474.084.763.123.354.354.747.4.821.034.057.071.105.11.146zm5.254-1.503-.269.543c-.589.705-.532 1.758.146 2.396.703.661 1.811.627 2.474-.076l.429-.458c.072.101.142.202.211.305.191.294.25.655.162.995-.089.342-.318.629-.63.793l-1.064.558c-.855.449-1.185 1.506-.737 2.361v.001c.45.856 1.508 1.186 2.364.736-.001.001 1.715-.898 1.715-.898.048.212.09.418.128.614.081.543-.197 1.072-.688 1.311l-2.823 1.376c-.877.356-1.314 1.353-.974 2.245.345.903 1.356 1.355 2.26 1.01l1.388-.531c-.396.786-.898 1.47-1.477 1.964-.542.462-1.149.753-1.8.753-.932 0-1.784-.418-2.475-1.095-.292-.285-.758-.285-1.05 0-.691.677-1.543 1.095-2.475 1.095-.651 0-1.259-.291-1.8-.753-.58-.494-1.081-1.178-1.478-1.965l1.389.532c.901.345 1.915-.107 2.26-1.01.341-.894-.099-1.895-.983-2.249-.201-.099-1.694-.827-2.806-1.377-.002-.001-.003-.001-.004-.002-.489-.238-.766-.767-.684-1.304.034-.196.075-.401.121-.614 0 .001 1.715.899 1.715.899.855.449 1.913.119 2.363-.737 0 0 .001-.001.001-.002.446-.855.117-1.911-.738-2.36 0-.001-.001-.001-.001-.001s-.487-.255-1.049-.56c-.003-.002-.006-.003-.01-.005-.31-.163-.537-.448-.625-.787-.088-.338-.029-.699.163-.991l.202-.305.428.456c.663.703 1.768.737 2.473.076h.001c.676-.636.735-1.685.149-2.392.002.003-.194-.413-.255-.541.023-.041.058-.074.102-.095.621-.263 1.305-.413 2.066-.413s1.446.15 2.071.395c.05.024.089.062.114.107z"/></g></svg>