<svg clip-rule="evenodd" fill-rule="evenodd" height="512" stroke-linejoin="round" stroke-miterlimit="2" viewBox="0 0 24 24" width="512" xmlns="http://www.w3.org/2000/svg"><g id="Icon"><path d="m1.25 13.28v6.439c0 1.073 1.009 2.031 2.35 2.031h9.25c1.091 0 1.9-.799 1.9-1.67v-7.16c0-.872-.809-1.67-1.9-1.67h-9.25c-1.341 0-2.35.957-2.35 2.03zm1.5 0c0-.128.082-.235.187-.319.169-.136.405-.211.663-.211h9.25c.112 0 .216.026.3.075.045.026.1.047.1.095v7.16c0 .048-.056.069-.101.095-.083.05-.187.075-.299.075h-9.25c-.258 0-.494-.075-.663-.21-.105-.085-.187-.192-.187-.321z"/><path d="m12.75 12v-2.4c0-.47.38-.85.85-.85h6.8c.47 0 .85.38.85.85v10.25c0 .221-.179.4-.4.4h-7.85c-.414 0-.75.336-.75.75s.336.75.75.75h7.85c1.049 0 1.9-.851 1.9-1.9v-10.25c0-1.3-1.05-2.35-2.35-2.35h-6.8c-1.3 0-2.35 1.05-2.35 2.35v2.4c0 .414.336.75.75.75s.75-.336.75-.75z"/><path d="m20.75 8v-4.895c0-1.024-.831-1.855-1.855-1.855h-3.79c-1.024 0-1.855.831-1.855 1.855v4.895c0 .414.336.75.75.75s.75-.336.75-.75v-4.895c0-.196.159-.355.355-.355h3.79c.196 0 .355.159.355.355v4.895c0 .414.336.75.75.75s.75-.336.75-.75z"/><path d="m5.25 10.5v1.5c0 .414.336.75.75.75h4c.414 0 .75-.336.75-.75 0 0 0-.804 0-1.5 0-.966-.783-1.75-1.75-1.75h-2c-.967 0-1.75.784-1.75 1.75zm1.5 0c0-.138.112-.25.25-.25h2c.138 0 .25.112.25.25v.75h-2.5z"/><path d="m19.25 21v1c0 .414.336.75.75.75s.75-.336.75-.75v-1c0-.414-.336-.75-.75-.75s-.75.336-.75.75z"/><path d="m10.25 21v1c0 .414.336.75.75.75s.75-.336.75-.75v-1c0-.414-.336-.75-.75-.75s-.75.336-.75.75z"/><path d="m4.25 21v1c0 .414.336.75.75.75s.75-.336.75-.75v-1c0-.414-.336-.75-.75-.75s-.75.336-.75.75z"/><path d="m13.25 21v1c0 .414.336.75.75.75s.75-.336.75-.75v-1c0-.414-.336-.75-.75-.75s-.75.336-.75.75z"/></g></svg>