<svg clip-rule="evenodd" fill-rule="evenodd" height="512" stroke-linejoin="round" stroke-miterlimit="2" viewBox="0 0 24 24" width="512" xmlns="http://www.w3.org/2000/svg"><g id="Icon"><path d="m19.25 4c0-.729-.29-1.429-.805-1.945-.516-.515-1.216-.805-1.945-.805-2.444 0-6.556 0-9 0-.729 0-1.429.29-1.945.805-.515.516-.805 1.216-.805 1.945v16c0 .729.29 1.429.805 1.945.516.515 1.216.805 1.945.805h9c.729 0 1.429-.29 1.945-.805.515-.516.805-1.216.805-1.945zm-1.5 0v16c0 .332-.132.649-.366.884-.235.234-.552.366-.884.366-2.444 0-6.556 0-9 0-.332 0-.649-.132-.884-.366-.234-.235-.366-.552-.366-.884v-16c0-.332.132-.649.366-.884.235-.234.552-.366.884-.366h9c.332 0 .649.132.884.366.234.235.366.552.366.884z"/><path d="m7.772 2.182s.17.676.311 1.242c.195.779.895 1.326 1.698 1.326h4.438c.803 0 1.503-.547 1.698-1.326.141-.566.311-1.242.311-1.242.1-.402-.145-.809-.546-.91-.402-.1-.809.145-.91.546l-.31 1.243c-.028.111-.128.189-.243.189h-4.438c-.115 0-.215-.078-.243-.189l-.31-1.243c-.101-.401-.508-.646-.91-.546-.401.101-.646.508-.546.91z"/><path d="m10.5 19.75h3c.414 0 .75-.336.75-.75s-.336-.75-.75-.75h-3c-.414 0-.75.336-.75.75s.336.75.75.75z"/><path d="m9.5 15.75h5c.464 0 .909-.184 1.237-.513.329-.328.513-.773.513-1.237 0-1.331 0-3.669 0-5 0-.464-.184-.909-.513-1.237-.328-.329-.773-.513-1.237-.513-1.331 0-3.669 0-5 0-.464 0-.909.184-1.237.513-.329.328-.513.773-.513 1.237v5c0 .464.184.909.513 1.237.328.329.773.513 1.237.513zm5-1.5h-5c-.066 0-.13-.026-.177-.073s-.073-.111-.073-.177v-5c0-.066.026-.13.073-.177s.111-.073.177-.073h5c.066 0 .13.026.177.073s.073.111.073.177v5c0 .066-.026.13-.073.177s-.111.073-.177.073z"/><path d="m11.25 8v2c0 .414.336.75.75.75s.75-.336.75-.75v-2c0-.414-.336-.75-.75-.75s-.75.336-.75.75z"/></g></svg>