<svg clip-rule="evenodd" fill-rule="evenodd" height="512" stroke-linejoin="round" stroke-miterlimit="2" viewBox="0 0 24 24" width="512" xmlns="http://www.w3.org/2000/svg"><g id="Icon"><path d="m8.95 17.93c0 .464-.184.909-.513 1.237-.328.328-.773.513-1.237.513h-1.4c-.414 0-.75-.336-.75-.75s.336-.75.75-.75h1.4c.066 0 .13-.026.177-.073s.073-.111.073-.177-.026-.13-.073-.177-.111-.073-.177-.073h-.4c-.464 0-.909-.185-1.237-.513-.329-.328-.513-.773-.513-1.237s.184-.909.513-1.238c.328-.328.773-.512 1.237-.512h1.4c.414 0 .75.336.75.75s-.336.75-.75.75h-1.4c-.066 0-.13.026-.177.073s-.073.111-.073.177.026.13.073.177.111.073.177.073h.4c.464 0 .909.184 1.237.512.329.329.513.774.513 1.238z"/><path d="m7.75 14.93c0 .414-.336.75-.75.75s-.75-.336-.75-.75v-1c0-.414.336-.75.75-.75s.75.336.75.75z"/><path d="m7.75 19.93c0 .414-.336.75-.75.75s-.75-.336-.75-.75v-1c0-.414.336-.75.75-.75s.75.336.75.75z"/><path d="m7 11.18c3.174 0 5.75 2.576 5.75 5.75 0 3.173-2.576 5.75-5.75 5.75s-5.75-2.577-5.75-5.75c0-3.174 2.576-5.75 5.75-5.75zm0 1.5c-2.346 0-4.25 1.904-4.25 4.25 0 2.345 1.904 4.25 4.25 4.25s4.25-1.905 4.25-4.25c0-2.346-1.904-4.25-4.25-4.25z"/><path d="m9.5 2.969 1.719-1.375c.457-.365 1.105-.365 1.562 0l1.719 1.375 1.719-1.375c.457-.365 1.105-.365 1.562 0l1.719 1.375 1.219-.975c.375-.3.889-.359 1.322-.15.434.208.709.646.709 1.126v17.92c0 .48-.275.918-.709 1.126-.433.208-.947.15-1.322-.15l-1.219-.976-1.719 1.376c-.457.365-1.105.365-1.562 0l-2.188-1.751c-.323-.258-.375-.73-.117-1.054.259-.323.731-.375 1.055-.117l2.031 1.625 1.719-1.375c.457-.365 1.105-.365 1.562 0l.969.775v-16.879l-.969.776c-.457.365-1.105.365-1.562 0l-1.719-1.376-1.719 1.376c-.457.365-1.105.365-1.562 0l-1.719-1.376-1.719 1.376c-.457.365-1.105.365-1.562 0l-.969-.776v5.94c0 .414-.336.75-.75.75s-.75-.336-.75-.75v-6.46c0-.48.275-.918.709-1.126.433-.209.947-.15 1.322.15l1.219.975z"/><path d="m10 9.18c-.414 0-.75-.336-.75-.75s.336-.75.75-.75h5.143c.414 0 .75.336.75.75s-.336.75-.75.75z"/><path d="m13.5 13.18c-.414 0-.75-.336-.75-.75s.336-.75.75-.75h5.5c.414 0 .75.336.75.75s-.336.75-.75.75z"/><path d="m15 16.18c-.414 0-.75-.336-.75-.75s.336-.75.75-.75h4c.414 0 .75.336.75.75s-.336.75-.75.75z"/></g></svg>