<svg clip-rule="evenodd" fill-rule="evenodd" height="512" stroke-linejoin="round" stroke-miterlimit="2" viewBox="0 0 24 24" width="512" xmlns="http://www.w3.org/2000/svg"><g id="Icon"><path d="m16.25 14.5c0 1.794 1.456 3.25 3.25 3.25s3.25-1.456 3.25-3.25-1.456-3.25-3.25-3.25-3.25 1.456-3.25 3.25zm1.5 0c0-.966.784-1.75 1.75-1.75s1.75.784 1.75 1.75-.784 1.75-1.75 1.75-1.75-.784-1.75-1.75z"/><path d="m11.25 14.5c0 1.794 1.456 3.25 3.25 3.25s3.25-1.456 3.25-3.25-1.456-3.25-3.25-3.25-3.25 1.456-3.25 3.25zm1.5 0c0-.966.784-1.75 1.75-1.75s1.75.784 1.75 1.75-.784 1.75-1.75 1.75-1.75-.784-1.75-1.75z"/><path d="m14.25 9.5c0 1.794 1.456 3.25 3.25 3.25s3.25-1.456 3.25-3.25-1.456-3.25-3.25-3.25-3.25 1.456-3.25 3.25zm1.5 0c0-.966.784-1.75 1.75-1.75s1.75.784 1.75 1.75-.784 1.75-1.75 1.75-1.75-.784-1.75-1.75z"/><path d="m4.5 16.25c-.966 0-1.75-.784-1.75-1.75s.784-1.75 1.75-1.75c.414 0 .75-.336.75-.75s-.336-.75-.75-.75c-1.794 0-3.25 1.456-3.25 3.25s1.456 3.25 3.25 3.25c.414 0 .75-.336.75-.75s-.336-.75-.75-.75z"/><path d="m7.5 11.25c-.966 0-1.75-.784-1.75-1.75s.784-1.75 1.75-1.75c.414 0 .75-.336.75-.75s-.336-.75-.75-.75c-1.794 0-3.25 1.456-3.25 3.25s1.456 3.25 3.25 3.25c.414 0 .75-.336.75-.75s-.336-.75-.75-.75z"/><path d="m7.5 7.75h10c.414 0 .75-.336.75-.75s-.336-.75-.75-.75h-10c-.414 0-.75.336-.75.75s.336.75.75.75z"/><path d="m4.5 12.75h10c.414 0 .75-.336.75-.75s-.336-.75-.75-.75h-10c-.414 0-.75.336-.75.75s.336.75.75.75z"/><path d="m4.5 17.75h15c.414 0 .75-.336.75-.75s-.336-.75-.75-.75h-15c-.414 0-.75.336-.75.75s.336.75.75.75z"/></g></svg>