<svg clip-rule="evenodd" fill-rule="evenodd" height="512" stroke-linejoin="round" stroke-miterlimit="2" viewBox="0 0 24 24" width="512" xmlns="http://www.w3.org/2000/svg"><g id="Icon"><path d="m16 18.75c1.518 0 2.75-1.232 2.75-2.75v-9c0-.966-.782-1.75-1.75-1.75h-10c-.968 0-1.75.784-1.75 1.75v9c0 1.518 1.232 2.75 2.75 2.75zm0-1.5h-8c-.69 0-1.25-.56-1.25-1.25v-9c0-.138.112-.25.25-.25h10c.138 0 .25.112.25.25v9c0 .69-.56 1.25-1.25 1.25z"/><path d="m14.25 2v4c0 .414.336.75.75.75s.75-.336.75-.75v-4c0-.414-.336-.75-.75-.75s-.75.336-.75.75z"/><path d="m8.25 2v4c0 .414.336.75.75.75s.75-.336.75-.75v-4c0-.414-.336-.75-.75-.75s-.75.336-.75.75z"/><path d="m11.25 18v4c0 .414.336.75.75.75s.75-.336.75-.75v-4c0-.414-.336-.75-.75-.75s-.75.336-.75.75z"/><path d="m11.288 8.763-1 3c-.076.229-.037.48.104.676.141.195.367.311.608.311h.959s-.671 2.013-.671 2.013c-.13.393.082.818.475.949.393.13.818-.082.949-.475l1-3c.076-.229.037-.48-.104-.676-.141-.195-.367-.311-.608-.311h-.959s.671-2.013.671-2.013c.13-.393-.082-.818-.475-.949-.393-.13-.818.082-.949.475z"/></g></svg>