<svg clip-rule="evenodd" fill-rule="evenodd" height="512" stroke-linejoin="round" stroke-miterlimit="2" viewBox="0 0 24 24" width="512" xmlns="http://www.w3.org/2000/svg"><g id="Icon"><path d="m19.25 13c0-.414-.336-.75-.75-.75h-1.5c-1.26 0-2.468.5-3.359 1.391s-1.391 2.099-1.391 3.359v5c0 .414.336.75.75.75h1.5c1.26 0 2.468-.5 3.359-1.391s1.391-2.099 1.391-3.359zm-1.5.75v4.25c0 .862-.342 1.689-.952 2.298-.609.61-1.436.952-2.298.952h-.75v-4.25c0-.862.342-1.689.952-2.298.609-.61 1.436-.952 2.298-.952z"/><path d="m5.5 9.25c-.414 0-.75.336-.75.75v6c0 3.728 3.022 6.75 6.75 6.75h1.5c.414 0 .75-.336.75-.75 0 0 0-3 0-6 0-3.728-3.022-6.75-6.75-6.75zm.75 1.5h.75c2.899 0 5.25 2.351 5.25 5.25v5.25h-.75c-2.899 0-5.25-2.351-5.25-5.25z"/><path d="m17.75 13v-6c0-3.176-2.574-5.75-5.75-5.75-1.525 0-2.988.606-4.066 1.684s-1.684 2.541-1.684 4.066v3c0 .414.336.75.75.75s.75-.336.75-.75c0 0 0-1.623 0-3 0-1.127.448-2.208 1.245-3.005s1.878-1.245 3.005-1.245c2.347 0 4.25 1.903 4.25 4.25v6c0 .414.336.75.75.75s.75-.336.75-.75z"/><path d="m15.179 6.679c0-1.519-1.232-2.75-2.75-2.75-.414 0-.75.336-.75.75s.336.75.75.75c.69 0 1.25.559 1.25 1.25 0 .414.336.75.75.75s.75-.336.75-.75z"/></g></svg>