<svg clip-rule="evenodd" fill-rule="evenodd" height="512" stroke-linejoin="round" stroke-miterlimit="2" viewBox="0 0 24 24" width="512" xmlns="http://www.w3.org/2000/svg"><g id="Icon"><path d="m2.983 20.638-.129-.483 12.064-3.233c.4-.107.638-.519.531-.919s-.519-.637-.919-.53c0 0-9.975 2.673-12.306 3.297-.32.086-.593.296-.759.583s-.211.628-.125.948c.079.295.18.671.259.966.086.321.295.594.582.759.287.166.629.211.949.125 2.331-.624 12.306-3.297 12.306-3.297.4-.107.638-.519.53-.919-.107-.4-.518-.637-.918-.53z"/><path d="m16.686 13.86c-.767.206-1.771.865-2.372 1.642-.493.639-.707 1.355-.538 1.985s.712 1.143 1.458 1.449c.91.373 2.109.442 2.876.237 1.466-.393 2.337-1.902 1.944-3.368s-1.902-2.338-3.368-1.945zm.388 1.449c.667-.179 1.353.217 1.531.884.179.666-.217 1.352-.883 1.531-.513.137-1.312.073-1.919-.176-.266-.109-.518-.225-.578-.449-.06-.225.1-.452.276-.679.401-.519 1.061-.974 1.573-1.111z"/><path d="m19.229 12.422c-.056.307.085.617.353.778.268.16.608.138.852-.057 0 0 2.401-1.923 2.263-4.787-.088-1.817-1.182-4.088-4.824-6.431-.21-.135-.473-.156-.702-.058-.229.099-.394.305-.441.55 0 0-.464 2.477-2.262 4.079-1.457 1.298-1.634 3.222-.995 4.697.44 1.018 1.267 1.814 2.302 2.088.244.065.504.003.692-.165s.279-.419.242-.669c0 0-.285-1.865 1.114-2.933.269.304.629.748.926 1.252.31.524.579 1.113.48 1.656zm1.239-1.545c-.116-.3-.262-.594-.427-.874-.658-1.115-1.576-1.99-1.576-1.99-.23-.219-.573-.269-.857-.126-1.64.83-2.183 2.282-2.347 3.368-.168-.191-.307-.415-.412-.658-.405-.935-.307-2.158.617-2.981 1.349-1.201 2.079-2.809 2.438-3.855 2.38 1.723 3.229 3.307 3.295 4.667.047.997-.324 1.838-.731 2.45z"/></g></svg>