<svg clip-rule="evenodd" fill-rule="evenodd" height="512" stroke-linejoin="round" stroke-miterlimit="2" viewBox="0 0 24 24" width="512" xmlns="http://www.w3.org/2000/svg"><g id="Icon"><path d="m3.454 19.13c.5.501 1.115.761 1.64.786.472.022.888-.132 1.188-.432l6.01-6.01c.293-.293.293-.768 0-1.061l-2.121-2.121c-.293-.293-.768-.293-1.061 0 0 0-4.285 4.285-6.01 6.01-.3.3-.454.716-.432 1.188.025.525.285 1.14.786 1.64zm.718-1.779 5.469-5.468s1.06 1.06 1.06 1.06l-5.468 5.469c-.019.001-.097.005-.145-.004-.194-.039-.397-.161-.574-.338-.177-.178-.299-.381-.338-.574-.009-.048-.005-.126-.004-.145z"/><path d="m18.916 21.25c-.199 0-.39-.079-.53-.22-.141-.14-.22-.331-.22-.53v-2c0-.597-.237-1.169-.659-1.591s-.994-.659-1.591-.659c-1.243 0-2.25 1.007-2.25 2.25v.002c0 .198-.079.389-.219.529s-.331.219-.529.219c-.001 0-.003 0-.004 0-.198 0-.389-.079-.529-.219s-.219-.331-.219-.529v-2.502c0-.414-.336-.75-.75-.75s-.75.336-.75.75v2.502c0 .596.237 1.168.658 1.59.422.421.994.658 1.59.658h.004c.596 0 1.168-.237 1.59-.658.421-.422.658-.994.658-1.59v-.002c0-.414.336-.75.75-.75.199 0 .39.079.53.22.141.14.22.331.22.53v2c0 .597.237 1.169.659 1.591s.994.659 1.591.659c1.243 0 2.25-1.007 2.25-2.25v-7.5c0-.414-.336-.75-.75-.75s-.75.336-.75.75v7.5c0 .414-.336.75-.75.75z"/><path d="m20.601 9.408c.469-.469.732-1.105.732-1.768s-.263-1.299-.732-1.768c-1.122-1.122-2.767-2.767-3.889-3.889-.469-.469-1.105-.732-1.768-.732s-1.299.263-1.768.732c0 .001-.001.001-.001.001-.469.469-.732 1.104-.732 1.767 0 .662.263 1.298.732 1.766 1.122 1.123 2.769 2.77 3.892 3.892.468.469 1.104.732 1.766.732.663 0 1.298-.263 1.766-.732.001 0 .001-.001.002-.001zm-1.061-1.061s-.001.001-.001.001c-.187.188-.441.293-.706.293s-.518-.105-.706-.293l-3.892-3.891c-.187-.188-.292-.441-.292-.706s.105-.519.292-.706c.001 0 .001-.001.002-.001.187-.188.442-.293.707-.293s.52.105.707.293l3.889 3.889c.188.187.293.442.293.707s-.105.519-.293.707z"/><path d="m8.226 6.933c-.468.469-.732 1.105-.732 1.768s.264 1.299.733 1.767c1.122 1.123 2.768 2.769 3.89 3.891.468.468 1.104.731 1.766.731.663 0 1.298-.263 1.767-.731l.003-.003c.468-.468.731-1.104.731-1.766 0-.663-.263-1.298-.731-1.767-1.122-1.122-2.769-2.768-3.891-3.89-.469-.469-1.105-.732-1.768-.732s-1.299.263-1.768.732zm1.061 1.06c.188-.187.442-.292.707-.292s.52.105.707.292l3.891 3.891c.187.187.292.441.292.706 0 .264-.105.518-.292.705-.001.001-.002.002-.003.003-.187.187-.441.292-.706.292-.264 0-.518-.105-.705-.292l-3.891-3.89c-.187-.188-.293-.442-.293-.707 0-.266.106-.52.293-.707z"/><path d="m9.641 3.397c-.977.977-.977 2.559 0 3.536 1.608 1.608 4.402 4.402 6.01 6.01.469.469 1.105.732 1.768.732s1.299-.263 1.768-.732c0 0 .001-.001.001-.001.469-.469.732-1.104.732-1.767 0-.662-.263-1.297-.732-1.766-1.608-1.608-4.403-4.403-6.012-6.012-.469-.469-1.104-.732-1.768-.732-.663 0-1.298.263-1.767.732zm1.06 1.061c.188-.188.442-.293.707-.293.266 0 .52.105.708.293 1.609 1.609 4.403 4.403 6.011 6.012.188.187.293.441.293.705 0 .265-.105.519-.293.706 0 .001-.001.001-.001.002-.188.187-.442.292-.707.292s-.52-.105-.707-.292c-1.609-1.609-4.402-4.402-6.011-6.011-.39-.39-.39-1.024 0-1.414z"/></g></svg>