<svg clip-rule="evenodd" fill-rule="evenodd" height="512" stroke-linejoin="round" stroke-miterlimit="2" viewBox="0 0 24 24" width="512" xmlns="http://www.w3.org/2000/svg"><g id="Icon"><path d="m8.03 7.266 1.812 6.762c.107.4-.13.811-.53.918l-3.864 1.036c-1.467.393-2.975-.478-3.368-1.945l-.776-2.898c-.394-1.467.477-2.975 1.944-3.368l3.864-1.035c.4-.107.811.13.918.53zm-1.254 1.113-3.14.841c-.667.179-1.062.864-.884 1.531l.777 2.898c.179.667.864 1.063 1.531.884l3.139-.841z"/><path d="m8.896 14.391.643 5.335c.104.865-.443 1.674-1.284 1.9l-.464.124c-.49.131-1.013.043-1.433-.241s-.696-.737-.757-1.24l-.609-5.051c-.044-.371.19-.718.551-.815l2.415-.647c.21-.056.434-.018.614.104.18.121.298.315.324.531zm-1.385 1.038s-.952.255-.952.255l.531 4.405c.009.072.048.137.108.178.06.04.135.053.205.034l.463-.124c.12-.032.199-.148.184-.272z"/><path d="m15.24 3.264 2.847 10.625c.06.223.014.461-.126.646-.139.184-.355.294-.586.298l-8.245.139c-.344.006-.648-.223-.737-.556l-1.812-6.761c-.089-.333.06-.683.361-.85l7.21-4.003c.202-.112.444-.125.656-.034.213.09.372.273.432.496zm-1.2 1.316-5.858 3.252s1.508 5.63 1.508 5.63l6.7-.112z"/><path d="m13.668 3.194c-.107-.4.131-.811.531-.918.4-.108.811.13.918.53l3.093 11.541c.107.4-.131.812-.53.919-.4.107-.812-.131-.919-.53l-3.093-11.542z"/><path d="m17.555 6.556c-.298-.288-.306-.763-.019-1.061.288-.298.763-.306 1.061-.019 1.265 1.221 1.673 3.083 1.033 4.72-.151.386-.586.577-.972.426s-.576-.586-.426-.972c.42-1.073.153-2.294-.677-3.094z"/><path d="m19.274 4.132c-.298-.287-.306-.762-.019-1.06.288-.298.763-.307 1.061-.019 2.313 2.231 3.057 5.634 1.888 8.628-.151.385-.587.576-.972.425-.386-.151-.576-.586-.426-.971.95-2.43.346-5.192-1.532-7.003z"/></g></svg>