<svg clip-rule="evenodd" fill-rule="evenodd" height="512" stroke-linejoin="round" stroke-miterlimit="2" viewBox="0 0 24 24" width="512" xmlns="http://www.w3.org/2000/svg"><g id="Icon"><path d="m22.75 7c0-.729-.29-1.429-.805-1.945-.516-.515-1.216-.805-1.945-.805-3.832 0-12.168 0-16 0-.729 0-1.429.29-1.945.805-.515.516-.805 1.216-.805 1.945v10c0 .729.29 1.429.805 1.945.516.515 1.216.805 1.945.805h16c.729 0 1.429-.29 1.945-.805.515-.516.805-1.216.805-1.945zm-1.5 0v10c0 .332-.132.649-.366.884-.235.234-.552.366-.884.366h-16c-.332 0-.649-.132-.884-.366-.234-.235-.366-.552-.366-.884v-10c0-.332.132-.649.366-.884.235-.234.552-.366.884-.366h16c.332 0 .649.132.884.366.234.235.366.552.366.884z"/><path d="m20.531 5.714-7.75 6.201c-.457.365-1.105.365-1.562 0 0 0-7.75-6.201-7.75-6.201-.324-.258-.796-.206-1.055.117-.258.324-.206.796.117 1.055 0 0 5.279 4.222 7.751 6.2 1.004.804 2.432.804 3.436 0l7.751-6.2c.323-.259.375-.731.117-1.055-.259-.323-.731-.375-1.055-.117z"/></g></svg>