<svg clip-rule="evenodd" fill-rule="evenodd" stroke-linejoin="round" stroke-miterlimit="1.414" viewBox="0 0 32 32" xmlns="http://www.w3.org/2000/svg" xmlns:serif="http://www.serif.com/"><path id="phone-call-hang-up" d="m0 0h32v32h-32z" fill="none"/><path d="m24.656 6.013c-.231-.228-.462-.456-.693-.685-.412-.395-1.156-.352-1.514.118-.759 1.028-1.513 2.06-2.258 3.098-.414.595.038 1.451.299 2.293.186.6.368 1.203.551 1.8.04.138.04.146.054.209.285 1.278-.474 2.563-1.278 3.751-.452.666-.903 1.332-1.52 1.843-.576.478-1.681.05-1.662-.804.007-.328.188-.574.475-.879.774-.829 1.395-1.794 1.915-2.807.18-.353.074-.723-.038-1.092-.286-.944-.58-1.886-.874-2.828 0 0-.114-.393-.133-.741-.036-.676.165-1.358.553-1.916.749-1.044 1.513-2.076 2.27-3.114.563-.761 1.471-1.231 2.426-1.247h.083c.769.019 1.512.33 2.066.861 1.474 1.454 3.239 2.732 3.557 4.819.303 1.989-.5 3.959-1.452 5.641-1.516 2.674-3.614 4.985-5.824 7.164-3.07 3.027-6.377 6.183-10.484 7.258-1.665.435-3.581.338-4.943-.964l-.023-.023c-.784-.772-1.558-1.557-2.336-2.335 0 0-.417-.445-.623-.906-.556-1.241-.162-2.828.951-3.674 1.032-.763 2.074-1.513 3.111-2.269.767-.55 1.776-.722 2.69-.444l3.901 1.218c.281.102.484.327.589.59.158.355.137.788-.185 1.105-.037.037-.078.072-.123.103l-.003.003-3.889 2.716c-.649.435-1.71-.139-1.586-.98.04-.272.198-.52.423-.684l2.198-1.535c-.646-.203-1.293-.404-1.94-.601-.294-.085-.619-.031-.87.143-1.038.746-2.071 1.499-3.098 2.259-.454.345-.527 1.087-.118 1.513.771.781 1.546 1.557 2.327 2.327.861.836 2.314.705 3.349.383 2.302-.715 4.304-2.25 6.183-3.831 3.246-2.731 6.359-5.775 8.447-9.347.671-1.148 1.259-2.383 1.35-3.714.051-.759-.113-1.573-.655-2.14-.06-.062-.12-.123-.18-.184l-1.804 2.782c-.497.735-1.939.423-1.864-.624.008-.118.037-.234.085-.342.022-.048.048-.094.075-.138l2.042-3.149z" fill-rule="nonzero"/></svg>