<svg clip-rule="evenodd" fill-rule="evenodd" height="512" stroke-linejoin="round" stroke-miterlimit="2" viewBox="0 0 24 24" width="512" xmlns="http://www.w3.org/2000/svg"><g id="Icon"><path d="m12 4.75c-4.001 0-7.25 3.249-7.25 7.25s3.249 7.25 7.25 7.25 7.25-3.249 7.25-7.25-3.249-7.25-7.25-7.25zm0 1.5c3.174 0 5.75 2.576 5.75 5.75s-2.576 5.75-5.75 5.75-5.75-2.576-5.75-5.75 2.576-5.75 5.75-5.75z"/><path d="m14.051 2.735c3.622.736 6.478 3.592 7.214 7.214.083.406.479.668.884.586.406-.083.668-.479.586-.885-.856-4.21-4.175-7.529-8.385-8.385-.406-.082-.802.18-.885.586-.082.405.18.801.586.884z"/><path d="m21.265 14.051c-.736 3.622-3.592 6.478-7.214 7.214-.406.083-.668.479-.586.884.083.406.479.668.885.586 4.21-.856 7.529-4.175 8.385-8.385.082-.406-.18-.802-.586-.885-.405-.082-.801.18-.884.586z"/><path d="m9.949 21.265c-3.622-.736-6.478-3.592-7.214-7.214-.083-.406-.479-.668-.884-.586-.406.083-.668.479-.586.885.856 4.21 4.175 7.529 8.385 8.385.406.082.802-.18.885-.586.082-.405-.18-.801-.586-.884z"/><path d="m2.735 9.949c.736-3.622 3.592-6.478 7.214-7.214.406-.083.668-.479.586-.884-.083-.406-.479-.668-.885-.586-4.21.856-7.529 4.175-8.385 8.385-.082.406.18.802.586.885.405.082.801-.18.884-.586z"/><path d="m12 4.75c-.882 0-1.744.554-2.406 1.605-.802 1.275-1.344 3.327-1.344 5.645s.542 4.37 1.344 5.645c.662 1.051 1.524 1.605 2.406 1.605s1.744-.554 2.406-1.605c.802-1.275 1.344-3.327 1.344-5.645s-.542-4.37-1.344-5.645c-.662-1.051-1.524-1.605-2.406-1.605zm0 1.5c.443 0 .804.377 1.137.904.687 1.092 1.113 2.859 1.113 4.846s-.426 3.754-1.113 4.846c-.333.527-.694.904-1.137.904s-.804-.377-1.137-.904c-.687-1.092-1.113-2.859-1.113-4.846s.426-3.754 1.113-4.846c.333-.527.694-.904 1.137-.904z"/><path d="m18.001 9.251-12-.013c-.414 0-.751.335-.751.749s.335.751.749.751l12 .013c.414 0 .751-.336.751-.749 0-.414-.335-.751-.749-.751z"/><path d="m18.001 13.251-12-.013c-.414 0-.751.335-.751.749s.335.751.749.751l12 .013c.414 0 .751-.336.751-.749 0-.414-.335-.751-.749-.751z"/></g></svg>