<svg clip-rule="evenodd" fill-rule="evenodd" height="512" stroke-linejoin="round" stroke-miterlimit="2" viewBox="0 0 24 24" width="512" xmlns="http://www.w3.org/2000/svg"><g id="Icon"><path d="m12 1.25c-4.277 0-7.75 3.473-7.75 7.75 0 3.395 2.188 6.283 5.23 7.33-.001 0 1.857 3.52 1.857 3.52.129.246.385.4.663.4s.534-.154.663-.4l1.858-3.52c3.041-1.047 5.229-3.935 5.229-7.33 0-4.277-3.473-7.75-7.75-7.75zm0 1.5c3.449 0 6.25 2.801 6.25 6.25 0 2.829-1.884 5.222-4.464 5.991-.193.057-.355.19-.449.369l-1.337 2.533s-1.337-2.533-1.337-2.533c-.094-.179-.256-.312-.449-.369-2.58-.769-4.464-3.162-4.464-5.991 0-3.449 2.801-6.25 6.25-6.25z"/><path d="m19.235 19.748c-.027.035-.08.1-.127.14-.214.18-.529.34-.921.49-1.395.535-3.649.872-6.187.872s-4.792-.337-6.187-.872c-.392-.15-.707-.31-.921-.49-.047-.04-.1-.105-.127-.14.013-.019.032-.044.047-.061.077-.081.179-.157.301-.232.634-.39 1.695-.7 3.008-.913.408-.067.686-.453.619-.861-.066-.409-.452-.686-.861-.62-1.848.301-3.26.822-3.949 1.4-.472.397-.68.848-.68 1.289 0 .58.398 1.211 1.286 1.693 1.4.759 4.216 1.307 7.464 1.307s6.064-.548 7.464-1.307c.888-.482 1.286-1.113 1.286-1.693 0-.441-.208-.892-.68-1.289-.689-.578-2.101-1.099-3.949-1.4-.409-.066-.795.211-.861.62-.067.408.211.794.619.861 1.313.213 2.374.523 3.008.913.122.075.224.151.301.232.015.017.034.042.047.061z"/><path d="m12 5.25c-2.07 0-3.75 1.68-3.75 3.75s1.68 3.75 3.75 3.75 3.75-1.68 3.75-3.75-1.68-3.75-3.75-3.75zm0 1.5c1.242 0 2.25 1.008 2.25 2.25s-1.008 2.25-2.25 2.25-2.25-1.008-2.25-2.25 1.008-2.25 2.25-2.25z"/></g></svg>