<svg clip-rule="evenodd" fill-rule="evenodd" stroke-linejoin="round" stroke-miterlimit="2" viewBox="0 0 32 32" xmlns="http://www.w3.org/2000/svg" xmlns:serif="http://www.serif.com/"><path id="library-book-school" d="m0 0h32v32h-32z" fill="none"/><path d="m25.067 9.946-1.193-.228c-.495-.104-.856-.582-.812-1.076.044-.491.483-.9.99-.915.013 0 .027 0 .04.001.071.003.089.005.159.017l4.018.767c.981.207 1.086 2.222-.377 1.973l-.816-.156v17.726c-.022.535-.462.982-1.005 1.004h-6.027c-.278-.011-.353-.051-.489-.127-.049-.027-.094-.059-.136-.094-.11-.082-.207-.196-.28-.347-.062-.13-.093-.206-.099-.436v-5.023h-6.027v4.018h3.013c.002.001.693.094.917.594.27.603-.205 1.388-.917 1.415h-10.044c-.541-.02-.981-.357-1.005-1.004v-15.106c.019-.497.399-.941.889-.998.147-.017.183-.003.231 0 .489.076.87.496.889.998v14.101h4.018v-5.022c.005-.183.022-.234.056-.332.138-.393.448-.659.948-.673h8.036c.019.001.038.001.057.002.182.015.232.035.328.075.368.152.606.447.62.928v5.022h4.018zm-2.994 5.051c.516.015.969.463.985.984.009.886-.006 1.99-.965 2.028-.527.021-1.027-.428-1.044-.984-.009-.905.028-1.981.964-2.028.02 0 .04-.001.06 0zm-8.036 0c.516.015.969.463.985.984.009.886-.006 1.99-.965 2.028-.527.021-1.027-.428-1.044-.984-.009-.905.027-1.981.965-2.028.02 0 .039-.001.059 0zm4.018 0c.516.015.969.463.985.984.007.768.048 1.656-.597 1.943-.594.263-1.391-.185-1.412-.899-.009-.905.028-1.981.965-2.028.02 0 .039-.001.059 0zm-8.036 0c.516.015.969.463.985.984.007.768.049 1.656-.597 1.943-.594.263-1.391-.185-1.412-.899-.009-.905.02-1.981.965-2.028.02 0 .039-.001.059 0zm.985-7.863v-3.187c.005-.18.021-.23.054-.326.154-.448.544-.683 1.119-.68 1.423.017 2.771.686 3.863 1.634 0 0 .683-.563 1.288-.9.809-.449 1.719-.725 2.649-.733 0 0 1.047.116 1.072 1.005v6.027c-.005.183-.022.233-.056.331-.145.416-.486.654-1.064.676-1.271.058-2.356.895-3.201 1.721 0 0-.83.59-1.55-.153-.121-.124-.245-.245-.373-.362-.1-.091-.202-.18-.307-.266-.09-.072-.18-.142-.273-.21-.618-.449-1.369-.787-2.15-.735 0 0-1.046-.119-1.071-1.002v-.795l-6.843 1.306c-.859.139-1.653-1.152-.786-1.794.116-.086.184-.13.409-.179zm2.009 1.891c1.107.19 2.114.782 2.969 1.52 0 0-.053.16.203-.045.839-.667 1.795-1.201 2.838-1.423l.017-3.97c-.877.281-1.636.887-2.301 1.557 0 0-.891.547-1.554-.134-.036-.037-.073-.074-.11-.111-.593-.582-1.269-1.092-2.053-1.335l-.009-.002z"/></svg>