<svg clip-rule="evenodd" fill-rule="evenodd" height="512" stroke-linejoin="round" stroke-miterlimit="2" viewBox="0 0 24 24" width="512" xmlns="http://www.w3.org/2000/svg"><g id="Icon"><path d="m16.75 2.5c0-.331-.132-.649-.366-.884-.235-.234-.552-.366-.884-.366h-7c-.332 0-.649.132-.884.366-.234.235-.366.553-.366.884v3c0 .331.132.649.366.884.235.234.552.366.884.366h7c.332 0 .649-.132.884-.366.234-.235.366-.553.366-.884zm-8 .25v2.5h6.5v-2.5z"/><path d="m16.75 10.5c0-.331-.132-.649-.366-.884-.235-.234-.552-.366-.884-.366h-7c-.332 0-.649.132-.884.366-.234.235-.366.553-.366.884v3c0 .331.132.649.366.884.235.234.552.366.884.366h7c.332 0 .649-.132.884-.366.234-.235.366-.553.366-.884zm-8 .25v2.5h6.5v-2.5z"/><path d="m16.75 18.5c0-.331-.132-.649-.366-.884-.235-.234-.552-.366-.884-.366h-7c-.332 0-.649.132-.884.366-.234.235-.366.553-.366.884v3c0 .331.132.649.366.884.235.234.552.366.884.366h7c.332 0 .649-.132.884-.366.234-.235.366-.553.366-.884zm-8 .25v2.5h6.5v-2.5z"/><path d="m20.03 12.97-.969-.97s.969-.97.969-.97c.293-.292.293-.768 0-1.06-.292-.293-.768-.293-1.06 0l-1.5 1.5c-.293.293-.293.767 0 1.06l1.5 1.5c.292.293.768.293 1.06 0 .293-.292.293-.768 0-1.06z"/><path d="m5.03 22.03 1.5-1.5c.293-.293.293-.767 0-1.06l-1.5-1.5c-.292-.293-.768-.293-1.06 0-.293.292-.293.768 0 1.06l.969.97s-.969.97-.969.97c-.293.292-.293.768 0 1.06.292.293.768.293 1.06 0z"/><path d="m18 4.75h2c.69 0 1.25.56 1.25 1.25v4c0 .69-.56 1.25-1.25 1.25-1 0-2 0-2 0-.414 0-.75.336-.75.75s.336.75.75.75h2c1.519 0 2.75-1.231 2.75-2.75 0-1.222 0-2.778 0-4 0-1.519-1.231-2.75-2.75-2.75h-2c-.414 0-.75.336-.75.75s.336.75.75.75z"/><path d="m6 11.25h-2c-1.519 0-2.75 1.231-2.75 2.75v4c0 1.519 1.231 2.75 2.75 2.75h2c.414 0 .75-.336.75-.75s-.336-.75-.75-.75c0 0-1 0-2 0-.69 0-1.25-.56-1.25-1.25v-4c0-.69.56-1.25 1.25-1.25h2c.414 0 .75-.336.75-.75s-.336-.75-.75-.75z"/></g></svg>