<svg clip-rule="evenodd" fill-rule="evenodd" height="512" stroke-linejoin="round" stroke-miterlimit="2" viewBox="0 0 24 24" width="512" xmlns="http://www.w3.org/2000/svg"><g id="Icon"><path d="m12 9.266c-1.518 0-2.75 1.232-2.75 2.75 0 1.517 1.232 2.75 2.75 2.75s2.75-1.233 2.75-2.75c0-1.518-1.232-2.75-2.75-2.75zm0 1.5c.69 0 1.25.56 1.25 1.25s-.56 1.25-1.25 1.25-1.25-.56-1.25-1.25.56-1.25 1.25-1.25z"/><path d="m10.052 10.859c.109.196.301.332.521.371.221.04.448-.022.618-.167.218-.185.501-.297.809-.297s.591.112.809.297c.17.145.397.207.618.167.22-.039.412-.175.521-.37 0 0 2.012-3.577 2.715-4.83.162-.287.203-.629.113-.948-.089-.319-.302-.589-.591-.751-.003-.001-.005-.003-.008-.004-1.242-.677-2.665-1.061-4.177-1.061-1.511 0-2.934.384-4.176 1.057-.004.002-.007.004-.01.005-.29.163-.503.434-.592.754-.09.32-.048.662.115.951.703 1.251 2.715 4.826 2.715 4.826zm5.175-5.336c-.564 1.006-1.642 2.924-2.212 3.936-.314-.125-.657-.193-1.015-.193s-.701.068-1.015.193l-2.215-3.938c.974-.483 2.07-.755 3.23-.755 1.159 0 2.255.272 3.227.757z"/><path d="m11.973 14.281c.114-.193.136-.426.06-.637s-.243-.376-.454-.452c-.269-.096-.507-.284-.662-.551-.154-.267-.198-.568-.146-.849.04-.221-.02-.448-.165-.619-.144-.171-.357-.269-.581-.267 0 0-4.104.046-5.54.064-.33.004-.646.139-.878.376-.231.237-.359.557-.355.888 0 .003.001.006.001.009.035 1.413.413 2.838 1.169 4.148.756 1.309 1.8 2.348 3.004 3.088.003.002.006.004.009.006.286.169.627.218.949.136.322-.083.598-.29.767-.576.731-1.234 2.822-4.764 2.822-4.764zm-1.679-.108-2.303 3.887c-.906-.602-1.69-1.415-2.27-2.419-.579-1.004-.891-2.09-.957-3.174 1.153-.014 3.353-.039 4.515-.052.048.334.16.665.339.976.18.31.41.572.676.782z"/><path d="m13.976 10.906c-.225-.002-.438.096-.582.267-.145.171-.205.398-.165.619.052.281.008.582-.146.849-.155.267-.393.455-.662.551-.211.076-.378.241-.454.452s-.054.444.06.637c0 0 2.091 3.531 2.825 4.765.168.284.444.491.764.573.321.082.662.033.947-.137.002-.001.005-.003.008-.004 1.206-.737 2.251-1.778 3.007-3.087.755-1.309 1.134-2.733 1.172-4.146 0-.003 0-.007 0-.011.005-.332-.124-.652-.356-.89-.232-.237-.549-.372-.882-.375-1.434-.017-5.536-.063-5.536-.063zm.745 1.509 4.518.051c-.069 1.085-.381 2.171-.96 3.175-.58 1.004-1.364 1.817-2.27 2.416-.589-.992-1.71-2.884-2.303-3.884.266-.21.496-.472.676-.782.179-.311.291-.642.339-.976z"/><path d="m12 1.266c-5.933 0-10.75 4.817-10.75 10.75s4.817 10.75 10.75 10.75 10.75-4.817 10.75-10.75-4.817-10.75-10.75-10.75zm0 1.5c5.105 0 9.25 4.145 9.25 9.25s-4.145 9.25-9.25 9.25-9.25-4.145-9.25-9.25 4.145-9.25 9.25-9.25z"/></g></svg>