<svg clip-rule="evenodd" fill-rule="evenodd" height="512" stroke-linejoin="round" stroke-miterlimit="2" viewBox="0 0 24 24" width="512" xmlns="http://www.w3.org/2000/svg"><g id="Icon"><path d="m14.75 4c0-1.518-1.232-2.75-2.75-2.75s-2.75 1.232-2.75 2.75 1.232 2.75 2.75 2.75 2.75-1.232 2.75-2.75zm-1.5 0c0 .69-.56 1.25-1.25 1.25s-1.25-.56-1.25-1.25.56-1.25 1.25-1.25 1.25.56 1.25 1.25z"/><path d="m7.75 15.758c0-1.518-1.232-2.75-2.75-2.75s-2.75 1.232-2.75 2.75 1.232 2.75 2.75 2.75 2.75-1.232 2.75-2.75zm-1.5 0c0 .69-.56 1.25-1.25 1.25s-1.25-.56-1.25-1.25.56-1.25 1.25-1.25 1.25.56 1.25 1.25z"/><path d="m21.75 15.758c0-1.518-1.232-2.75-2.75-2.75s-2.75 1.232-2.75 2.75 1.232 2.75 2.75 2.75 2.75-1.232 2.75-2.75zm-1.5 0c0 .69-.56 1.25-1.25 1.25s-1.25-.56-1.25-1.25.56-1.25 1.25-1.25 1.25.56 1.25 1.25z"/><path d="m11.25 10.5v4c0 .203.082.397.228.538l4.09 3.97c.297.288.772.281 1.06-.016s.281-.772-.016-1.06l-3.862-3.749v-3.683c0-.414-.336-.75-.75-.75s-.75.336-.75.75z"/><path d="m11.477 13.962-4.59 4.471c-.297.289-.303.765-.014 1.061.289.297.764.303 1.06.014l4.59-4.471c.297-.289.303-.764.014-1.061-.289-.296-.764-.302-1.06-.014z"/><path d="m12 5.258c-2.07 0-3.75 1.68-3.75 3.75 0 .475.223.898.662 1.231.629.477 1.853.761 3.088.761s2.459-.284 3.088-.761c.439-.333.662-.756.662-1.231 0-2.07-1.68-3.75-3.75-3.75zm2.25 3.722c-.015.015-.045.046-.067.063-.101.077-.231.138-.379.192-.492.181-1.149.265-1.804.265s-1.312-.084-1.804-.265c-.148-.054-.278-.115-.379-.192-.022-.017-.052-.048-.067-.063.015-1.229 1.018-2.222 2.25-2.222s2.235.993 2.25 2.222z"/><path d="m19 17.008c-2.07 0-3.75 1.681-3.75 3.75 0 .475.223.899.662 1.231.629.477 1.853.761 3.088.761s2.459-.284 3.088-.761c.439-.332.662-.756.662-1.231 0-2.069-1.68-3.75-3.75-3.75zm2.25 3.722c-.015.016-.045.047-.067.064-.101.076-.231.137-.379.192-.492.181-1.149.264-1.804.264s-1.312-.083-1.804-.264c-.148-.055-.278-.116-.379-.192-.022-.017-.052-.048-.067-.064.015-1.229 1.018-2.222 2.25-2.222s2.235.993 2.25 2.222z"/><path d="m5 17.008c-2.07 0-3.75 1.681-3.75 3.75 0 .475.223.899.662 1.231.629.477 1.853.761 3.088.761s2.459-.284 3.088-.761c.439-.332.662-.756.662-1.231 0-2.069-1.68-3.75-3.75-3.75zm2.25 3.722c-.015.016-.045.047-.067.064-.101.076-.231.137-.379.192-.492.181-1.149.264-1.804.264s-1.312-.083-1.804-.264c-.148-.055-.278-.116-.379-.192-.022-.017-.052-.048-.067-.064.015-1.229 1.018-2.222 2.25-2.222s2.235.993 2.25 2.222z"/></g></svg>