<svg clip-rule="evenodd" fill-rule="evenodd" stroke-linejoin="round" stroke-miterlimit="2" viewBox="0 0 32 32" xmlns="http://www.w3.org/2000/svg" xmlns:serif="http://www.serif.com/"><path id="idea-lamp-electricity-creative" d="m0 0h32v32h-32z" fill="none"/><path d="m18.005 29h-4c-.882-.018-1.376-1.415-.46-1.888.141-.073.298-.109.46-.112 1.346 0 2.693-.026 4.039.001.866.051 1.317 1.423.42 1.887-.141.073-.298.109-.459.112zm2-4h-8c-.866-.024-1.41-1.431-.434-1.901.129-.062.204-.093.434-.099h8c.018 0 .037.001.056.002.229.019.302.053.427.123.727.401.555 1.846-.483 1.875zm-3.942-22c3.293.031 6.494 2.008 7.981 4.952 1.236 2.45 1.264 5.477.072 7.949-1.947 4.04-7.162 6.243-11.563 4.412-2.873-1.195-5.029-3.972-5.461-7.056-.393-2.804.628-5.767 2.665-7.733 1.627-1.57 3.837-2.487 6.132-2.523.058-.001.116-.001.174-.001zm.942 15.919c.561-.075 1.114-.22 1.644-.436 2.951-1.207 4.822-4.616 4.238-7.765-.579-3.127-3.51-5.645-6.747-5.717-.06-.001-.12-.001-.181-.001-3.193.03-6.171 2.458-6.812 5.589-.469 2.287.297 4.786 1.969 6.419 1.05 1.025 2.436 1.678 3.889 1.894v-2.073c-1.154-.409-1.992-1.573-2-2.824 0 0 .215-.96.94-1.003.526-.032 1.026.413 1.059.958 0 .02 0 .023.001.068.023.716.961 1.25 1.597.774.25-.187.4-.49.403-.805.001-.11.203-.821.744-.964.653-.172 1.306.426 1.247 1.197-.087 1.14-.929 2.129-1.991 2.546z"/></svg>