<svg clip-rule="evenodd" fill-rule="evenodd" stroke-linejoin="round" stroke-miterlimit="1.414" viewBox="0 0 32 32" xmlns="http://www.w3.org/2000/svg" xmlns:serif="http://www.serif.com/"><path id="microscope-equipment-doctor-bacteria" d="m0 0h32v32h-32z" fill="none"/><path d="m13.173 8.999h-3.175-1v8.001h6.001v-1s.211-.952.937-.998c.544-.034 1.045.432 1.063.998v2c-.006.193-.022.225-.049.309-.117.359-.45.636-.826.683-.055.007-.07.007-.125.008h-8.001c-.193-.006-.225-.021-.309-.049-.359-.116-.636-.449-.683-.825-.007-.056-.007-.07-.008-.126v-10.001c.006-.193.021-.225.049-.309.116-.358.449-.636.825-.683.056-.007.07-.006.126-.008h1v-3c.003-.161.018-.214.049-.309.129-.397.523-.683.951-.691h4 .04c.528.032.949.437.961 1v3.185c.304-.114.628-.178.961-.185h.077c1.225.024 2.342.895 2.772 2.034 4.216.346 8.178 3.281 9.591 7.374.398 1.153.596 2.374.6 3.59v8.004c-.011.27-.048.343-.121.476-.041.077-.094.147-.155.207-.071.081-.159.151-.266.206-.14.073-.297.104-.458.111h-24.003c-.614-.029-1.118-.633-.972-1.236.09-.37.408-.673.783-.746.083-.016.105-.014.189-.018h23.003v-7.001c-.012-3.701-2.477-7.248-6.009-8.492-.704-.248-1.441-.404-2.184-.471-.44 1.121-1.588 1.963-2.808 1.963-1.729 0-3.273-1.745-2.954-3.531.029-.16.072-.318.128-.47zm7.267 3.303c.358.036.244.002.566.218 2.408 1.614 3.976 4.466 3.994 7.444v.035 4.002s-.067.603-.482.855c-.562.341-1.422-.039-1.51-.727-.008-.057-.007-.071-.009-.128 0-1.353.008-2.706 0-4.058-.023-2.294-1.238-4.534-3.176-5.807 0 0-.557-.492-.425-1.063.092-.396.447-.715.85-.766.123-.015.153-.006.192-.005zm-6.442 10.699h-4c-.882-.018-1.375-1.415-.459-1.889.14-.073.297-.108.459-.111h4 .04c.764.046 1.243 1.073.702 1.671-.187.206-.459.323-.742.329zm1.987-14.002c-.765.015-1.311 1.104-.685 1.716.581.567 1.889.048 1.676-.93-.097-.443-.518-.789-.991-.786zm-4.987-4v2h2v-2c-.666 0-1.333 0-2 0z" fill-rule="nonzero"/></svg>