<svg clip-rule="evenodd" fill-rule="evenodd" height="512" stroke-linejoin="round" stroke-miterlimit="2" viewBox="0 0 24 24" width="512" xmlns="http://www.w3.org/2000/svg"><g id="Icon"><path d="m14.778 2.5c0-.332-.131-.649-.366-.884-.234-.234-.552-.366-.884-.366-.958 0-3.042 0-4 0-.331 0-.649.132-.884.366-.234.235-.366.552-.366.884v4.609c0 .355-.15.692-.414.929l-3.381 3.043c-.801.721-1.107 1.844-.782 2.872l2.391 7.574c.23.728.906 1.223 1.669 1.223h7.534c.764 0 1.439-.495 1.669-1.223l2.392-7.574c.324-1.028.018-2.151-.783-2.872l-3.381-3.043c-.263-.237-.414-.574-.414-.929zm-5 .25h3.5v4.359c0 .78.331 1.523.911 2.044l3.381 3.043c.364.328.503.838.355 1.306 0 0-2.391 7.573-2.391 7.573-.033.104-.13.175-.239.175h-7.534c-.109 0-.205-.071-.238-.175 0 0-2.392-7.573-2.392-7.573-.147-.468-.008-.978.356-1.306l3.381-3.043c.579-.521.91-1.264.91-2.044z"/><path d="m14.028 4.25h-5c-.414 0-.75.336-.75.75s.336.75.75.75h5c.414 0 .75-.336.75-.75s-.336-.75-.75-.75z"/><path d="m12.427 18.5v-3c0-.414-.336-.75-.75-.75s-.75.336-.75.75v3c0 .414.336.75.75.75s.75-.336.75-.75z"/><path d="m11.677 17.293c1.253.403 2.505.37 3.758-.089.187-.068.339-.208.423-.389.083-.181.092-.387.023-.574-.177-.482-.45-.896-.821-1.24.351-.33.624-.738.816-1.228.117-.301.029-.644-.22-.85-.684-.567-1.461-.855-2.354-.794-.171-.558-.526-1.12-1.109-1.673-.289-.275-.743-.275-1.032 0-.583.553-.938 1.115-1.109 1.673-.893-.061-1.67.227-2.354.794-.249.206-.337.549-.22.85.192.49.465.898.816 1.228-.371.344-.644.758-.821 1.24-.069.187-.06.393.023.574.084.181.236.321.423.389 1.253.459 2.505.492 3.758.089zm.26-1.497c-.168-.061-.352-.061-.52 0-.674.249-1.349.328-2.023.239.163-.136.356-.251.578-.346.278-.119.457-.393.455-.695-.003-.303-.186-.574-.466-.688-.314-.128-.574-.31-.776-.55.382-.153.808-.172 1.286-.035.229.066.475.018.663-.127.189-.145.297-.371.293-.609-.006-.28.079-.554.25-.829.171.275.256.549.25.829-.005.238.104.464.293.609.188.145.434.193.663.127.478-.137.904-.118 1.286.035-.202.24-.462.422-.776.55-.28.114-.463.385-.466.688-.003.302.177.576.455.695.221.095.415.21.578.346-.675.089-1.349.01-2.023-.239z"/><path d="m14.606 7.243c.446-.311.987-.493 1.571-.493 1.518 0 2.75 1.232 2.75 2.75 0 .769-.317 1.465-.826 1.964-.296.29-.301.765-.011 1.061.289.296.765.3 1.06.011.788-.772 1.277-1.847 1.277-3.036 0-2.346-1.904-4.25-4.25-4.25-.903 0-1.741.282-2.429.763-.34.237-.423.705-.186 1.044.237.34.705.423 1.044.186z"/></g></svg>