<svg clip-rule="evenodd" fill-rule="evenodd" height="512" stroke-linejoin="round" stroke-miterlimit="2" viewBox="0 0 24 24" width="512" xmlns="http://www.w3.org/2000/svg"><g id="Icon"><path d="m2.947 17.322 6.962-10.443 3.558 5.336c.229.345.695.438 1.04.208.344-.229.437-.695.208-1.04l-3.766-5.648c-.232-.348-.622-.557-1.04-.557s-.808.209-1.04.557l-7.429 11.143c-.255.384-.279.877-.062 1.283.218.407.641.661 1.102.661h7.52c.414 0 .75-.336.75-.75s-.336-.75-.75-.75z"/><path d="m9.954 18.82c.015.001.031.002.046.002h11.52c.461 0 .884-.254 1.102-.66.217-.407.193-.9-.062-1.284l-5.338-8.007c-.232-.348-.622-.556-1.04-.556s-.809.208-1.04.556c-1.401 2.101-5.857 8.785-5.857 8.785-.229.344-.136.81.208 1.04.142.094.303.134.461.124zm1.357-1.498h9.742l-4.871-7.307z"/><path d="m5.72 11.807 1.568 1.568c.293.293.768.293 1.061 0l1.656-1.656s1.056.704 1.056.704c.298.199.694.159.947-.093l1.568-1.568c.292-.293.292-.768 0-1.061-.293-.293-.768-.293-1.061 0l-1.133 1.133s-1.057-.704-1.057-.704c-.297-.198-.693-.159-.946.094l-1.561 1.56s-1.037-1.038-1.037-1.038c-.293-.292-.768-.292-1.061 0-.293.293-.293.768 0 1.061z"/><path d="m13.038 13.375 1.568 1.568c.253.253.649.292.946.094l1.057-.705c0 .001.61.611.61.611.253.253.649.292.947.094l1.568-1.046c.344-.229.437-.695.208-1.04-.23-.344-.696-.437-1.04-.208l-1.057.705s-.61-.611-.61-.611c-.253-.253-.649-.292-.947-.094l-1.056.705s-1.134-1.134-1.134-1.134c-.292-.292-.768-.292-1.06 0-.293.293-.293.768 0 1.061z"/></g></svg>