<svg clip-rule="evenodd" fill-rule="evenodd" height="512" stroke-linejoin="round" stroke-miterlimit="2" viewBox="0 0 24 24" width="512" xmlns="http://www.w3.org/2000/svg"><g id="Icon"><path d="m20 18.75c1.518 0 2.75-1.232 2.75-2.75v-8c0-1.518-1.232-2.75-2.75-2.75h-16c-1.518 0-2.75 1.232-2.75 2.75v8c0 1.518 1.232 2.75 2.75 2.75zm0-1.5h-16c-.69 0-1.25-.56-1.25-1.25v-8c0-.69.56-1.25 1.25-1.25h16c.69 0 1.25.56 1.25 1.25v8c0 .69-.56 1.25-1.25 1.25z"/><path d="m14 9.25h-3c-.968 0-1.75.784-1.75 1.75s.782 1.75 1.75 1.75h2c.138 0 .25.112.25.25s-.112.25-.25.25h-3c-.414 0-.75.336-.75.75s.336.75.75.75h3c.968 0 1.75-.782 1.75-1.75 0-.966-.782-1.75-1.75-1.75h-2c-.138 0-.25-.112-.25-.25s.112-.25.25-.25h3c.414 0 .75-.336.75-.75s-.336-.75-.75-.75z"/><path d="m12.75 10v-1c0-.414-.336-.75-.75-.75s-.75.336-.75.75v1c0 .414.336.75.75.75s.75-.336.75-.75z"/><path d="m12.75 15v-1c0-.414-.336-.75-.75-.75s-.75.336-.75.75v1c0 .414.336.75.75.75s.75-.336.75-.75z"/></g></svg>