<svg clip-rule="evenodd" fill-rule="evenodd" height="512" stroke-linejoin="round" stroke-miterlimit="2" viewBox="0 0 24 24" width="512" xmlns="http://www.w3.org/2000/svg"><g id="Icon"><path d="m21.908 13.264c0-.007-.001-.013-.002-.019-.127-.85-.856-1.479-1.715-1.479-3-.016-13.491-.016-16.424-.016-.835 0-1.554.589-1.717 1.408-.001.008-.003.016-.004.025-.326 1.978.211 3.959 1.676 5.933.512.695 1.323 1.105 2.186 1.107 2.519.027 9.531.027 12.118.027.912.001 1.765-.451 2.277-1.206.001-.002.002-.004.004-.006 1.282-1.933 1.837-3.856 1.601-5.774zm-1.487.196c.19 1.579-.306 3.153-1.361 4.744-.233.342-.62.546-1.034.546-2.584 0-9.59 0-12.104-.027-.003 0-.005 0-.008 0-.389 0-.754-.184-.985-.497 0-.001-.001-.002-.002-.003-1.182-1.592-1.661-3.177-1.405-4.773.027-.12.128-.2.244-.2h.001c2.931 0 13.417 0 16.42.016h.004c.11 0 .204.077.228.183z"/><path d="m3.421 12.665-.75-1.5c-.185-.371-.636-.521-1.006-.336-.371.185-.521.636-.336 1.006l.75 1.5c.185.371.636.521 1.006.336.371-.185.521-.636.336-1.006z"/><path d="m20.624 12.916 1-1.5c.23-.344.136-.81-.208-1.04s-.81-.136-1.04.208l-1 1.5c-.23.344-.136.81.208 1.04s.81.136 1.04-.208z"/><path d="m20.084 18.124 1.5 1c.344.23.81.136 1.04-.208s.136-.81-.208-1.04l-1.5-1c-.344-.23-.81-.136-1.04.208s-.136.81.208 1.04z"/><path d="m5.5 15.75h4c.414 0 .75-.336.75-.75s-.336-.75-.75-.75h-4c-.414 0-.75.336-.75.75s.336.75.75.75z"/><path d="m14.5 16.25h4c.414 0 .75-.336.75-.75s-.336-.75-.75-.75h-4c-.414 0-.75.336-.75.75s.336.75.75.75z"/><path d="m10.25 18.25h2.5c.414 0 .75-.336.75-.75s-.336-.75-.75-.75h-2.5c-.414 0-.75.336-.75.75s.336.75.75.75z"/><path d="m6.077 12.168c-.209-.423-.327-.906-.327-1.418 0-1.37.516-3.152 1.31-4.358.419-.636.881-1.142 1.44-1.142s1.021.506 1.44 1.142c.794 1.206 1.31 2.988 1.31 4.358 0 .512-.118.995-.327 1.418-.183.371-.03.821.341 1.004.371.184.821.031 1.004-.34.307-.622.482-1.33.482-2.082 0-1.63-.613-3.748-1.557-5.182-.74-1.125-1.705-1.818-2.693-1.818s-1.953.693-2.693 1.818c-.944 1.434-1.557 3.552-1.557 5.182 0 .752.175 1.46.482 2.082.183.371.633.524 1.004.34.371-.183.524-.633.341-1.004z"/><path d="m12.56 9.565c.829-.93 1.916-1.774 2.921-2.142.501-.183.97-.267 1.333-.058.371.215.533.677.623 1.218.178 1.082-.026 2.479-.436 3.673-.135.392.074.819.465.953.392.135.819-.074.953-.465.492-1.431.712-3.108.497-4.405-.172-1.046-.635-1.858-1.352-2.273-.707-.408-1.623-.409-2.598-.052-1.208.442-2.529 1.436-3.526 2.552-.275.309-.248.783.061 1.059.308.275.783.248 1.059-.06z"/><path d="m4.5 18.25h-1.796c-.413 0-.75.336-.75.75s.337.75.75.75h1.796c.414 0 .75-.336.75-.75s-.336-.75-.75-.75z"/></g></svg>