<svg clip-rule="evenodd" fill-rule="evenodd" height="512" stroke-linejoin="round" stroke-miterlimit="2" viewBox="0 0 24 24" width="512" xmlns="http://www.w3.org/2000/svg"><g id="Icon"><path d="m15 9.75h4c.966 0 1.75-.783 1.75-1.75v-1c0-1.519-1.231-2.75-2.75-2.75h-12c-1.519 0-2.75 1.231-2.75 2.75v1c0 .967.784 1.75 1.75 1.75h4c.414 0 .75-.336.75-.75s-.336-.75-.75-.75c0 0-2.541 0-4 0-.138 0-.25-.112-.25-.25v-1c0-.69.56-1.25 1.25-1.25h12c.69 0 1.25.56 1.25 1.25v1c0 .138-.112.25-.25.25h-4c-.414 0-.75.336-.75.75s.336.75.75.75z"/><path d="m20 15.25h1c.966 0 1.75-.783 1.75-1.75v-2c0-.967-.784-1.75-1.75-1.75h-1c-.414 0-.75.336-.75.75s.336.75.75.75h1c.138 0 .25.112.25.25v2c0 .138-.112.25-.25.25h-1c-.414 0-.75.336-.75.75s.336.75.75.75z"/><path d="m4 13.75h-1c-.138 0-.25-.112-.25-.25v-2c0-.138.112-.25.25-.25h1c.414 0 .75-.336.75-.75s-.336-.75-.75-.75h-1c-.966 0-1.75.783-1.75 1.75v2c0 .967.784 1.75 1.75 1.75h1c.414 0 .75-.336.75-.75s-.336-.75-.75-.75z"/><path d="m15.75 9c0-1.243-1.007-2.25-2.25-2.25h-3c-1.243 0-2.25 1.007-2.25 2.25s1.007 2.25 2.25 2.25h3c1.243 0 2.25-1.007 2.25-2.25zm-1.5 0c0 .414-.336.75-.75.75h-3c-.414 0-.75-.336-.75-.75 0-.414.336-.75.75-.75h3c.414 0 .75.336.75.75z"/><path d="m9 8.25h-4c-.966 0-1.75.783-1.75 1.75v7c0 1.519 1.231 2.75 2.75 2.75h12c.729 0 1.429-.29 1.945-.805.515-.516.805-1.216.805-1.945v-7c0-.967-.784-1.75-1.75-1.75-1.459 0-4 0-4 0-.414 0-.75.336-.75.75s.336.75.75.75h4c.138 0 .25.112.25.25v7c0 .332-.132.649-.366.884-.235.234-.552.366-.884.366h-12c-.69 0-1.25-.56-1.25-1.25v-7c0-.138.112-.25.25-.25h4c.414 0 .75-.336.75-.75s-.336-.75-.75-.75z"/></g></svg>