<svg clip-rule="evenodd" fill-rule="evenodd" height="512" stroke-linejoin="round" stroke-miterlimit="2" viewBox="0 0 24 24" width="512" xmlns="http://www.w3.org/2000/svg"><g id="Icon"><path d="m6.784 13.025c-.069-.352-.377-.606-.736-.606h-4.012c-.214 0-.418.091-.56.251s-.21.373-.185.586c.623 5.362 5.184 9.53 10.711 9.53 2.516 0 4.831-.863 6.667-2.309.168-.133.272-.331.284-.545.013-.214-.066-.423-.218-.575l-2.627-2.627c-.025-.025-.047-.053-.064-.082-.105-.179-.28-.305-.481-.351-.202-.045-.414-.005-.585.111-.85.575-1.874.911-2.976.911-2.584 0-4.741-1.848-5.218-4.294zm8.468 4.97 1.798 1.798c-1.454.945-3.187 1.493-5.048 1.493-4.466 0-8.201-3.161-9.085-7.367h2.542c.829 2.831 3.447 4.9 6.543 4.9 1.177 0 2.283-.298 3.25-.824zm5.209-12.679c-.133-.168-.331-.271-.545-.283-.213-.012-.422.067-.573.218l-2.836 2.837c-.254.253-.293.651-.092.949.571.847.904 1.868.904 2.965 0 1.116-.344 2.153-.933 3.008-.117.171-.159.382-.115.584s.169.378.346.484c.029.017.056.038.081.063 0 0 2.63 2.631 2.63 2.631.151.151.36.23.573.218s.411-.115.545-.282c1.464-1.841 2.34-4.172 2.34-6.706 0-2.525-.87-4.848-2.325-6.686zm-2.489 9.978c.54-.976.847-2.098.847-3.292 0-1.185-.303-2.299-.835-3.27l1.796-1.797c.952 1.457 1.506 3.198 1.506 5.067 0 1.878-.559 3.626-1.519 5.088zm-6.386-13.258c0-.214-.092-.418-.251-.56-.16-.142-.373-.21-.586-.185-4.95.574-8.883 4.507-9.458 9.458-.025.213.043.426.185.586.142.159.346.251.56.251h4.012c.359 0 .667-.254.736-.607.413-2.114 2.081-3.782 4.195-4.195.353-.069.607-.377.607-.736zm-1.5.881v2.542c-2.223.651-3.976 2.405-4.627 4.627h-2.542c.754-3.588 3.582-6.415 7.169-7.169zm3.17-1.626c-.213-.025-.426.043-.586.185s-.251.346-.251.56v4.012c0 .359.254.667.606.736.708.138 1.366.417 1.943.806.297.2.695.162.949-.092l2.836-2.836c.152-.151.231-.36.219-.574-.013-.213-.116-.411-.283-.544-1.53-1.211-3.395-2.016-5.433-2.253zm.663 1.626c1.141.24 2.206.69 3.151 1.307 0 0-1.797 1.797-1.797 1.797-.426-.233-.879-.423-1.354-.562z"/></g></svg>