<svg clip-rule="evenodd" fill-rule="evenodd" height="512" stroke-linejoin="round" stroke-miterlimit="2" viewBox="0 0 24 24" width="512" xmlns="http://www.w3.org/2000/svg"><g id="Icon"><circle cx="12" cy="6" r="1"/><path d="m16.75 12c0-.282-.159-.541-.41-.669-1.702-.864-3.27-.843-4.724.025-.227.135-.366.38-.366.644v4.5c0 .259.133.499.353.636.219.137.494.151.726.038 1.112-.543 2.224-.558 3.336-.003.233.116.509.104.73-.033s.355-.378.355-.638zm-1.5.482v2.933c-.833-.22-1.667-.217-2.5.004v-2.964c.784-.345 1.616-.328 2.5.027z"/><path d="m7.66 11.331c-.251.128-.41.387-.41.669v4.5c0 .26.134.501.355.638s.497.149.73.033c1.112-.555 2.224-.54 3.336.003.232.113.507.099.726-.038.22-.137.353-.377.353-.636v-4.5c0-.264-.139-.509-.366-.644-1.454-.868-3.022-.889-4.724-.025zm1.09 1.151c.884-.355 1.715-.372 2.5-.027v2.964c-.833-.221-1.667-.224-2.5-.004z"/><path d="m22.75 8v-1.323c0-.716-.436-1.359-1.1-1.625l-9-3.6c-.417-.167-.883-.167-1.3 0l-9 3.6c-.664.266-1.1.909-1.1 1.625v1.323c0 .967.784 1.75 1.75 1.75h18c.966 0 1.75-.783 1.75-1.75zm-1.5-1.323v1.323c0 .138-.112.25-.25.25h-18c-.138 0-.25-.112-.25-.25v-1.323c0-.102.062-.194.157-.232 0 0 9-3.6 9-3.6.06-.024.126-.024.186 0 0 0 9 3.6 9 3.6.095.038.157.13.157.232z"/><path d="m22.75 20.5c0-.464-.184-.909-.513-1.237-.328-.329-.773-.513-1.237-.513-3.414 0-14.586 0-18 0-.464 0-.909.184-1.237.513-.329.328-.513.773-.513 1.237v1c0 .69.56 1.25 1.25 1.25h19c.69 0 1.25-.56 1.25-1.25zm-1.5.75h-18.5v-.75c0-.066.026-.13.073-.177s.111-.073.177-.073h18c.066 0 .13.026.177.073s.073.111.073.177z"/><path d="m21.25 19.5v-10.5c0-.414-.336-.75-.75-.75s-.75.336-.75.75v10.5c0 .414.336.75.75.75s.75-.336.75-.75z"/><path d="m4.25 19.5v-10.5c0-.414-.336-.75-.75-.75s-.75.336-.75.75v10.5c0 .414.336.75.75.75s.75-.336.75-.75z"/></g></svg>