<svg clip-rule="evenodd" fill-rule="evenodd" height="512" stroke-linejoin="round" stroke-miterlimit="2" viewBox="0 0 24 24" width="512" xmlns="http://www.w3.org/2000/svg"><g id="Icon"><path d="m12.45 13c0 .066-.026.13-.073.177s-.111.073-.177.073h-1.4c-.414 0-.75.336-.75.75s.336.75.75.75h1.4c.464 0 .909-.184 1.237-.513.329-.328.513-.773.513-1.237s-.184-.909-.513-1.237c-.328-.329-.773-.513-1.237-.513h-.4c-.066 0-.13-.026-.177-.073s-.073-.111-.073-.177.026-.13.073-.177.111-.073.177-.073h1.4c.414 0 .75-.336.75-.75s-.336-.75-.75-.75h-1.4c-.464 0-.909.184-1.237.513-.329.328-.513.773-.513 1.237s.184.909.513 1.237c.328.329.773.513 1.237.513h.4c.066 0 .13.026.177.073s.073.111.073.177z"/><path d="m12.75 10v-1c0-.414-.336-.75-.75-.75s-.75.336-.75.75v1c0 .414.336.75.75.75s.75-.336.75-.75z"/><path d="m12.75 15v-1c0-.414-.336-.75-.75-.75s-.75.336-.75.75v1c0 .414.336.75.75.75s.75-.336.75-.75z"/><path d="m22.75 7.5c0-1.243-1.007-2.25-2.25-2.25h-17c-1.243 0-2.25 1.007-2.25 2.25v9c0 1.243 1.007 2.25 2.25 2.25h17c1.243 0 2.25-1.007 2.25-2.25zm-1.5 0v9c0 .414-.336.75-.75.75h-17c-.414 0-.75-.336-.75-.75v-9c0-.414.336-.75.75-.75h17c.414 0 .75.336.75.75z"/><path d="m3.198 18.351c.575 1.088.889 1.681 1.31 2.478.632 1.194 2.112 1.651 3.307 1.019l6.024-3.185c.366-.193.506-.648.313-1.014-.194-.365-.648-.506-1.014-.312l-6.024 3.185c-.463.245-1.036.068-1.28-.394l-1.31-2.479c-.194-.365-.648-.506-1.014-.312-.366.193-.506.648-.312 1.014z"/><path d="m20.802 5.649c-.658-1.244-.833-1.576-1.31-2.478-.632-1.194-2.112-1.651-3.307-1.019l-6.024 3.185c-.366.193-.506.648-.313 1.014.194.365.648.506 1.014.312l6.024-3.185c.463-.245 1.036-.068 1.28.394l1.31 2.479c.194.365.648.506 1.014.312.366-.193.506-.648.312-1.014z"/><path d="m17 12.75h2c.414 0 .75-.336.75-.75s-.336-.75-.75-.75h-2c-.414 0-.75.336-.75.75s.336.75.75.75z"/><path d="m5 12.75h2c.414 0 .75-.336.75-.75s-.336-.75-.75-.75h-2c-.414 0-.75.336-.75.75s.336.75.75.75z"/></g></svg>