<svg clip-rule="evenodd" fill-rule="evenodd" height="512" stroke-linejoin="round" stroke-miterlimit="2" viewBox="0 0 24 24" width="512" xmlns="http://www.w3.org/2000/svg"><g id="Icon"><path d="m22.75 20.75v-3.975c0-.478-.196-.936-.542-1.266-.346-.331-.813-.505-1.291-.482-.004 0-.008 0-.012 0-4.787.306-9.406 2.553-12.481 6.243-.186.223-.227.535-.103.798.123.264.388.432.679.432h12c.966 0 1.75-.782 1.75-1.75zm-1.5 0c0 .138-.112.25-.25.25h-10.277c2.749-2.64 6.452-4.23 10.269-4.475.067-.002.132.023.181.069.049.047.077.112.077.181z"/><path d="m12.442 19.569c.193-.141.308-.366.308-.606s-.115-.465-.308-.606c-2.66-1.938-5.987-3.112-9.346-3.323-.003 0-.006 0-.01 0-.477-.024-.943.149-1.289.479-.346.329-.542.786-.542 1.264-.005 1.462-.005 3.973-.005 3.973 0 .968.782 1.75 1.75 1.75h6c.222 0 .433-.099.576-.27.847-1.015 1.817-1.897 2.866-2.661zm-1.72-.567c-.738.605-1.433 1.269-2.068 1.999 0-.001-5.654-.001-5.654-.001-.138 0-.25-.112-.25-.25 0 0 0-2.508.005-3.971 0-.001 0-.001 0-.002 0-.067.027-.132.076-.178.047-.045.109-.069.174-.067 2.733.172 5.441 1.036 7.718 2.47z"/><path d="m6.739 18.375s.973-5.726 4.851-10.662c.139-.177.191-.407.142-.627s-.195-.406-.397-.507c0 0-2.235-1.218-6.67 1-.371.185-.521.636-.336 1.006.185.371.636.521 1.006.336 2.039-1.02 3.489-1.2 4.357-1.168-3.526 5-4.431 10.372-4.431 10.372-.07.408.206.795.614.864.408.07.795-.206.864-.614z"/><path d="m10.47 7.78c1.787 1.787 1.78 4.47 1.78 4.47 0 .414.336.75.75.75s.75-.336.75-.75c0 0-.006-3.317-2.22-5.53-.292-.293-.768-.293-1.06 0-.293.292-.293.768 0 1.06z"/><path d="m4.981 4.608c1.739.043 3.942.639 5.376 3.028.189.316.58.447.922.31 0 0 2.874-1.099 5.35 1.792.27.314.744.35 1.058.081s.351-.743.082-1.057c-2.457-2.868-5.24-2.657-6.442-2.387-1.764-2.544-4.286-3.216-6.308-3.267-.414-.01-.758.317-.769.731-.01.414.317.758.731.769z"/><path d="m8.665 2.921s1.585.905 1.585 4.329c0 .331.216.622.533.718.316.096.658-.027.841-.302 0 0 1.74-2.552 5.194-1.688.402.1.809-.145.91-.546.1-.402-.145-.809-.546-.91-2.595-.648-4.444.196-5.555 1.041-.492-3.169-2.292-3.984-2.292-3.984-.37-.185-.821-.035-1.006.336-.185.37-.035.821.336 1.006z"/></g></svg>