<svg clip-rule="evenodd" fill-rule="evenodd" height="512" stroke-linejoin="round" stroke-miterlimit="2" viewBox="0 0 24 24" width="512" xmlns="http://www.w3.org/2000/svg"><g id="Icon"><path d="m4.25 16.5c0 .729.29 1.429.805 1.945.516.515 1.216.805 1.945.805h13c.729 0 1.429-.29 1.945-.805.515-.516.805-1.216.805-1.945 0-2.444 0-6.556 0-9 0-.729-.29-1.429-.805-1.945-.516-.515-1.216-.805-1.945-.805-3.271 0-9.729 0-13 0-.729 0-1.429.29-1.945.805-.515.516-.805 1.216-.805 1.945v1.5c0 .414.336.75.75.75s.75-.336.75-.75v-1.5c0-.332.132-.649.366-.884.235-.234.552-.366.884-.366h13c.332 0 .649.132.884.366.234.235.366.552.366.884v9c0 .332-.132.649-.366.884-.235.234-.552.366-.884.366h-13c-.332 0-.649-.132-.884-.366-.234-.235-.366-.552-.366-.884 0-.414-.336-.75-.75-.75s-.75.336-.75.75z"/><path d="m2 15.25h4.5c.414 0 .75-.336.75-.75s-.336-.75-.75-.75h-4.5c-.414 0-.75.336-.75.75s.336.75.75.75z"/><path d="m4 12.25h2.5c.414 0 .75-.336.75-.75s-.336-.75-.75-.75h-2.5c-.414 0-.75.336-.75.75s.336.75.75.75z"/><path d="m5.103 7.636s4.764 2.978 6.939 4.337c.892.558 2.024.558 2.916 0 2.175-1.359 6.939-4.337 6.939-4.337.352-.219.458-.682.239-1.033-.219-.352-.682-.458-1.033-.239 0 0-4.765 2.978-6.94 4.337-.406.254-.92.254-1.326.001l-6.94-4.338c-.351-.219-.814-.113-1.033.239-.219.351-.113.814.239 1.033z"/></g></svg>