<svg clip-rule="evenodd" fill-rule="evenodd" stroke-linejoin="round" stroke-miterlimit="2" viewBox="0 0 32 32" xmlns="http://www.w3.org/2000/svg" xmlns:serif="http://www.serif.com/"><path id="missed-call-phone-failed" d="m0 0h32v32h-32z" fill="none"/><path d="m24.6 6.121c-.231-.23-.464-.457-.698-.683-.407-.38-1.126-.335-1.479.115-.77 1.013-1.522 2.041-2.249 3.087-.24.355-.142.822-.015 1.228.297.954.583 1.849.873 2.841.553 1.975-1.163 4.126-2.597 5.584-.562.571-1.702.281-1.767-.577-.024-.327.14-.63.38-.876.231-.241.265-.285.384-.425.637-.751 1.163-1.593 1.612-2.471.153-.318.059-.68-.052-1.051-.283-.934-.574-1.865-.865-2.797-.051-.166-.05-.177-.067-.253-.176-.812.003-1.684.483-2.374.78-1.087 1.52-2.227 2.368-3.238.572-.682 1.467-1.083 2.357-1.073 1.712.041 2.988 1.777 4.379 3.186 1.735 1.786 1.252 4.953.245 7.053-1.462 3.049-3.809 5.623-6.258 8.038-3.036 2.993-6.306 6.114-10.367 7.177-1.646.431-3.541.335-4.888-.953l-.023-.022c-.878-.866-1.809-1.605-2.576-2.615-.945-1.246-.726-3.222.591-4.224 1.861-1.376 3.687-3.305 5.736-2.682l3.857 1.204c.279.102.48.325.584.587.15.346.129.764-.167 1.072-.041.043-.087.083-.138.12l-.003.002-3.847 2.686c-.731.49-1.929-.343-1.475-1.266.074-.15.188-.279.326-.38l2.18-1.523c-.644-.205-1.29-.406-1.94-.593-.281-.077-.591-.026-.833.138-1.045.727-2.073 1.479-3.087 2.249-.44.345-.503 1.063-.115 1.478.758.79 1.537 1.561 2.323 2.323 1.004.96 2.717.61 3.828.183 3.379-1.298 6.154-3.943 8.722-6.487 2.683-2.658 5.545-5.467 6.416-9.174.029-.124.055-.248.076-.372.15-.894.082-1.912-.601-2.614-.056-.056-.111-.113-.167-.169l-1.783 2.75c-.56.827-2.47.172-1.685-1.092l2.022-3.117zm-15.197 4.667-2.302-2.302c-.53-.557-.2-1.681.674-1.712.032-.002.064 0 .097.001.244.02.472.123.649.292l2.301 2.301 2.302-2.301c.202-.192.467-.297.746-.293.756.045 1.279 1.047.707 1.677-.011.012-.023.024-.034.035l-2.301 2.302 2.301 2.301c.589.618-.022 1.975-1.008 1.668-.108-.034-.211-.086-.301-.153-.039-.029-.075-.062-.11-.095l-2.302-2.302-2.301 2.302c-.618.588-1.975-.023-1.668-1.009.034-.108.086-.21.153-.301.029-.039.062-.075.095-.11z"/></svg>