<svg clip-rule="evenodd" fill-rule="evenodd" height="512" stroke-linejoin="round" stroke-miterlimit="2" viewBox="0 0 24 24" width="512" xmlns="http://www.w3.org/2000/svg"><g id="Icon"><path d="m20 19.75c1.518 0 2.75-1.232 2.75-2.75v-10c0-1.518-1.232-2.75-2.75-2.75h-16c-1.518 0-2.75 1.232-2.75 2.75v10c0 1.518 1.232 2.75 2.75 2.75zm0-1.5h-16c-.69 0-1.25-.56-1.25-1.25v-10c0-.69.56-1.25 1.25-1.25h16c.69 0 1.25.56 1.25 1.25v10c0 .69-.56 1.25-1.25 1.25z"/><path d="m12.358 15.359c1.854-1.854 1.854-4.864.001-6.718-1.854-1.854-4.864-1.854-6.718-.001-1.854 1.854-1.854 4.864-.001 6.718 1.854 1.854 4.864 1.855 6.718.001zm-1.06-1.061c-1.269 1.269-3.329 1.268-4.597 0-1.268-1.269-1.268-3.329 0-4.597 1.269-1.268 3.329-1.268 4.597.001 1.268 1.268 1.268 3.328 0 4.596z"/><path d="m19 12.75c.414 0 .75-.336.75-.75v-2c0-.199-.079-.39-.22-.53l-1-1c-.14-.141-.331-.22-.53-.22h-1c-.199 0-.39.079-.53.22l-1 1c-.141.14-.22.331-.22.53v2c0 .414.336.75.75.75zm-.75-1.5h-1.5v-.939s.561-.561.561-.561h.378s.561.561.561.561z"/><path d="m16 15.75h3c.414 0 .75-.336.75-.75s-.336-.75-.75-.75h-3c-.414 0-.75.336-.75.75s.336.75.75.75z"/><path d="m11.298 8.641-5.656 5.657c-.293.293-.293.768 0 1.061.293.292.768.292 1.06 0l5.656-5.657c.293-.293.293-.768 0-1.061-.292-.293-.768-.293-1.06 0z"/><path d="m5.642 9.702 5.656 5.657c.292.292.767.292 1.06 0 .293-.293.293-.768 0-1.061l-5.656-5.657c-.292-.293-.768-.293-1.06 0-.293.293-.293.768 0 1.061z"/></g></svg>