<svg clip-rule="evenodd" fill-rule="evenodd" height="512" stroke-linejoin="round" stroke-miterlimit="2" viewBox="0 0 24 24" width="512" xmlns="http://www.w3.org/2000/svg"><g id="Icon"><path d="m12.375 7.501c-.232-.133-.518-.133-.75 0l-3.333 1.925c-.232.134-.375.382-.375.649v3.85c0 .267.143.515.375.649l3.333 1.925c.232.133.518.133.75 0l3.333-1.925c.232-.134.375-.382.375-.649v-3.85c0-.267-.143-.515-.375-.649zm-.375 1.516 2.583 1.492v2.982s-2.583 1.492-2.583 1.492-2.583-1.492-2.583-1.492v-2.982z"/><path d="m15.708 1.728c-.232-.134-.518-.134-.75 0l-3.333 1.924c-.232.134-.375.382-.375.65v3.849c0 .268.143.516.375.65l3.333 1.924c.232.134.518.134.75 0l3.334-1.924c.232-.134.375-.382.375-.65v-3.849c0-.268-.143-.516-.375-.65zm-.375 1.516 2.584 1.491v2.983s-2.584 1.491-2.584 1.491-2.583-1.491-2.583-1.491v-2.983z"/><path d="m15.708 13.275c-.232-.134-.518-.134-.75 0l-3.333 1.924c-.232.134-.375.382-.375.65v3.849c0 .268.143.516.375.65l3.333 1.924c.232.134.518.134.75 0l3.334-1.924c.232-.134.375-.382.375-.65v-3.849c0-.268-.143-.516-.375-.65zm-.375 1.516 2.584 1.491v2.983s-2.584 1.491-2.584 1.491-2.583-1.491-2.583-1.491v-2.983z"/><path d="m5.708 7.501c-.232-.133-.518-.133-.75 0l-3.333 1.925c-.232.134-.375.382-.375.649v3.85c0 .267.143.515.375.649l3.333 1.925c.232.133.518.133.75 0l3.334-1.925c.232-.134.375-.382.375-.649v-3.85c0-.267-.143-.515-.375-.649zm-.375 1.516 2.584 1.492v2.982s-2.584 1.492-2.584 1.492-2.583-1.492-2.583-1.492v-2.982z"/><path d="m9.042 1.728c-.232-.134-.518-.134-.75 0l-3.334 1.924c-.232.134-.375.382-.375.65v3.849c0 .268.143.516.375.65l3.334 1.924c.232.134.518.134.75 0l3.333-1.924c.232-.134.375-.382.375-.65v-3.849c0-.268-.143-.516-.375-.65zm-.375 1.516 2.583 1.491v2.983s-2.583 1.491-2.583 1.491-2.584-1.491-2.584-1.491v-2.983z"/><path d="m9.042 13.275c-.232-.134-.518-.134-.75 0l-3.334 1.924c-.232.134-.375.382-.375.65v3.849c0 .268.143.516.375.65l3.334 1.924c.232.134.518.134.75 0l3.333-1.924c.232-.134.375-.382.375-.65v-3.849c0-.268-.143-.516-.375-.65zm-.375 1.516 2.583 1.491v2.983s-2.583 1.491-2.583 1.491-2.584-1.491-2.584-1.491v-2.983z"/><path d="m19.042 7.501c-.232-.133-.518-.133-.75 0l-3.334 1.925c-.232.134-.375.382-.375.649v3.85c0 .267.143.515.375.649l3.334 1.925c.232.133.518.133.75 0l3.333-1.925c.232-.134.375-.382.375-.649v-3.85c0-.267-.143-.515-.375-.649zm-.375 1.516 2.583 1.492v2.982s-2.583 1.492-2.583 1.492-2.584-1.492-2.584-1.492v-2.982z"/></g></svg>