<svg clip-rule="evenodd" fill-rule="evenodd" height="512" stroke-linejoin="round" stroke-miterlimit="2" viewBox="0 0 24 24" width="512" xmlns="http://www.w3.org/2000/svg"><g id="Icon"><path d="m10 22.75c-.414 0-.75-.336-.75-.75s.336-.75.75-.75h4c.414 0 .75.336.75.75s-.336.75-.75.75z"/><path d="m16.355 14.013-.054 3.263c-.005.272-.073.54-.2.782l-.656 1.254c-.302.576-.899.938-1.55.938h-3.79c-.651 0-1.248-.362-1.55-.938l-.657-1.254c-.126-.242-.194-.51-.199-.782l-.054-3.263c-.004-.202.074-.396.215-.539s.333-.224.535-.224h7.21c.202 0 .394.081.535.224.141.144.219.337.215.539zm-1.512.737h-5.686l.042 2.5c.001.039.01.078.028.112l.657 1.254c.043.082.128.134.221.134h3.79c.093 0 .178-.052.221-.134l.656-1.254c.019-.034.028-.073.029-.112z"/><path d="m12 1.25c2.071 0 3.75 1.679 3.75 3.75v9c0 .414-.336.75-.75.75h-6c-.414 0-.75-.336-.75-.75v-9c0-2.071 1.679-3.75 3.75-3.75zm0 1.5c-1.243 0-2.25 1.007-2.25 2.25v8.25h4.5v-8.25c0-1.243-1.007-2.25-2.25-2.25z"/><path d="m12.75 14c0 .414-.336.75-.75.75s-.75-.336-.75-.75v-8c0-.414.336-.75.75-.75s.75.336.75.75z"/></g></svg>