<svg clip-rule="evenodd" fill-rule="evenodd" height="512" stroke-linejoin="round" stroke-miterlimit="2" viewBox="0 0 24 24" width="512" xmlns="http://www.w3.org/2000/svg"><g id="Icon"><path d="m12 4.77c2.163 0 3.918 1.756 3.918 3.919 0 .489-.23.924-.682 1.266-.66.5-1.942.795-3.236.795s-2.576-.295-3.236-.795c-.452-.342-.682-.777-.682-1.266 0-2.163 1.755-3.919 3.918-3.919zm-2.418 3.903c.013.015.056.062.088.087.109.082.25.149.411.208.523.193 1.221.282 1.919.282s1.396-.089 1.919-.282c.161-.059.302-.126.411-.208.032-.025.075-.072.088-.087-.008-1.327-1.088-2.403-2.418-2.403s-2.41 1.076-2.418 2.403z"/><path d="m18.832 16.77c2.162 0 3.918 1.756 3.918 3.919 0 .489-.23.924-.682 1.266-.66.5-1.943.795-3.236.795-1.294 0-2.577-.295-3.236-.795-.452-.342-.683-.777-.683-1.266 0-2.163 1.756-3.919 3.919-3.919zm-2.418 3.903c.013.015.055.062.087.087.11.082.251.149.412.208.523.193 1.221.282 1.919.282.697 0 1.396-.089 1.919-.282.161-.059.302-.126.411-.208.032-.025.075-.072.088-.087-.008-1.327-1.089-2.403-2.418-2.403-1.33 0-2.41 1.076-2.418 2.403z"/><path d="m5.168 16.77c2.163 0 3.919 1.756 3.919 3.919 0 .489-.231.924-.683 1.266-.659.5-1.942.795-3.236.795-1.293 0-2.576-.295-3.236-.795-.452-.342-.682-.777-.682-1.266 0-2.163 1.756-3.919 3.918-3.919zm-2.418 3.903c.013.015.056.062.088.087.109.082.25.149.411.208.523.193 1.222.282 1.919.282.698 0 1.396-.089 1.919-.282.161-.059.302-.126.412-.208.032-.025.074-.072.087-.087-.008-1.327-1.088-2.403-2.418-2.403-1.329 0-2.41 1.076-2.418 2.403z"/><path d="m12 1.25c1.385 0 2.51 1.125 2.51 2.51 0 1.386-1.125 2.51-2.51 2.51s-2.51-1.124-2.51-2.51c0-1.385 1.125-2.51 2.51-2.51zm0 1.5c-.558 0-1.01.453-1.01 1.01 0 .558.452 1.01 1.01 1.01s1.01-.452 1.01-1.01c0-.557-.452-1.01-1.01-1.01z"/><path d="m18.832 13.25c1.385 0 2.51 1.125 2.51 2.51 0 1.386-1.125 2.51-2.51 2.51-1.386 0-2.51-1.124-2.51-2.51 0-1.385 1.124-2.51 2.51-2.51zm0 1.5c-.558 0-1.01.453-1.01 1.01 0 .558.452 1.01 1.01 1.01.557 0 1.01-.452 1.01-1.01 0-.557-.453-1.01-1.01-1.01z"/><path d="m5.168 13.25c1.386 0 2.51 1.125 2.51 2.51 0 1.386-1.124 2.51-2.51 2.51-1.385 0-2.51-1.124-2.51-2.51 0-1.385 1.125-2.51 2.51-2.51zm0 1.5c-.557 0-1.01.453-1.01 1.01 0 .558.453 1.01 1.01 1.01.558 0 1.01-.452 1.01-1.01 0-.557-.452-1.01-1.01-1.01z"/><path d="m11.25 12c0-.414.336-.75.75-.75s.75.336.75.75v3c0 .414-.336.75-.75.75s-.75-.336-.75-.75z"/><path d="m9.416 17.624c-.344.23-.81.136-1.04-.208s-.136-.81.208-1.04l3-2c.252-.168.58-.168.832 0l3 2c.344.23.438.696.208 1.04s-.696.438-1.04.208c0 0-2.584-1.723-2.584-1.723z"/></g></svg>