<svg clip-rule="evenodd" fill-rule="evenodd" height="512" stroke-linejoin="round" stroke-miterlimit="2" viewBox="0 0 24 24" width="512" xmlns="http://www.w3.org/2000/svg"><g id="Icon"><path d="m16.25 4c0-.322 0-.678 0-1 0-.465-.184-.91-.513-1.238-.328-.328-.773-.512-1.237-.512-1.331 0-3.669 0-5 0-.464 0-.909.184-1.237.512-.329.328-.513.773-.513 1.238v1c0 .464.184.909.513 1.237.328.329.773.513 1.237.513h5c.464 0 .909-.184 1.237-.513.329-.328.513-.773.513-1.237zm-1.5-1v1c0 .066-.026.13-.073.177s-.111.073-.177.073h-5c-.066 0-.13-.026-.177-.073s-.073-.111-.073-.177v-1c0-.067.026-.13.073-.177s.111-.073.177-.073h5c.066 0 .13.026.177.073s.073.11.073.177z"/><path d="m15.19 4.706c-.117-.277-.389-.456-.69-.456h-5c-.301 0-.573.179-.69.456 0 0-1.835 4.318-2.082 4.899l-.082.239c-.262 1.001-.396 2.035-.396 3.074v6.965c0 1.594 1.244 2.867 2.75 2.867h6c1.506 0 2.75-1.273 2.75-2.867v-6.965c0-1.039-.134-2.073-.396-3.074l-.082-.239c-.247-.582-2.082-4.899-2.082-4.899zm-1.186 1.044 1.887 4.442c.005.011.009.022.012.034.23.876.347 1.782.347 2.692v6.965c0 .743-.548 1.367-1.25 1.367h-6c-.702 0-1.25-.624-1.25-1.367v-6.965c0-.91.117-1.816.347-2.692.003-.012.007-.023.011-.034l1.888-4.442z"/><path d="m7.5 11.25h2.257c.597 0 1.169.237 1.591.659l.243.243c.703.703 1.657 1.098 2.652 1.098h2.757c.414 0 .75-.336.75-.75s-.336-.75-.75-.75h-2.757c-.597 0-1.169-.237-1.591-.659-.081-.081-.162-.162-.243-.243-.703-.703-1.657-1.098-2.652-1.098h-2.257c-.414 0-.75.336-.75.75s.336.75.75.75z"/></g></svg>