<svg clip-rule="evenodd" fill-rule="evenodd" stroke-linejoin="round" stroke-miterlimit="1.414" viewBox="0 0 32 32" xmlns="http://www.w3.org/2000/svg" xmlns:serif="http://www.serif.com/"><path id="picture-show-large-view" d="m0 0h32v32h-32z" fill="none"/><path d="m26 27h-8c-.182-.005-.233-.022-.33-.056-.353-.123-.621-.457-.664-.832-.005-.05-.005-.062-.006-.112v-8c.005-.182.022-.233.056-.33.123-.353.457-.621.832-.664.05-.005.062-.005.112-.006h8c.019.001.037.001.056.002.182.015.232.035.327.074.327.136.571.456.611.812.005.05.005.062.006.112v8c-.005.182-.022.233-.056.33-.123.353-.457.621-.832.664-.05.005-.062.005-.112.006zm-12 0h-8c-.182-.005-.233-.022-.33-.056-.353-.123-.621-.457-.664-.832-.005-.05-.005-.062-.006-.112v-8c.005-.182.022-.233.056-.33.123-.353.457-.621.832-.664.05-.005.062-.005.112-.006h8c.019.001.037.001.056.002.182.015.232.035.327.074.327.136.571.456.611.812.005.05.005.062.006.112v8c-.005.182-.022.233-.056.33-.123.353-.457.621-.832.664-.05.005-.062.005-.112.006zm11-8h-6v6h6zm-12 0h-6v6h6zm1-4h-8c-.182-.005-.233-.022-.33-.056-.353-.123-.621-.457-.664-.832-.005-.05-.005-.062-.006-.112v-8c.005-.182.022-.233.056-.33.123-.353.457-.621.832-.664.05-.005.062-.005.112-.006h8c.019.001.037.001.056.002.229.019.302.053.428.123.579.32.686 1.271.095 1.691-.168.119-.374.178-.579.184h-7v6h6v-3s.214-.957.944-.998c.539-.031 1.04.432 1.056.998v4c-.005.182-.022.233-.056.33-.123.353-.457.621-.832.664-.05.005-.062.005-.112.006zm12 0h-8c-.182-.005-.233-.022-.33-.056-.353-.123-.621-.457-.664-.832-.005-.05-.005-.062-.006-.112v-8c.005-.182.022-.233.056-.33.123-.353.457-.621.832-.664.05-.005.062-.005.112-.006h8c.019.001.037.001.056.002.182.015.232.035.327.074.327.136.571.456.611.812.005.05.005.062.006.112v8c-.005.182-.022.233-.056.33-.123.353-.457.621-.832.664-.05.005-.062.005-.112.006zm-1-8h-6v6h6z" fill-rule="nonzero"/></svg>