<svg clip-rule="evenodd" fill-rule="evenodd" height="512" stroke-linejoin="round" stroke-miterlimit="2" viewBox="0 0 24 24" width="512" xmlns="http://www.w3.org/2000/svg"><g id="Icon"><path d="m17.75 17v-14c0-.464-.184-.909-.513-1.237-.328-.329-.773-.513-1.237-.513-2.727 0-10.273 0-13 0-.464 0-.909.184-1.237.513-.329.328-.513.773-.513 1.237v16c0 .995.395 1.948 1.098 2.652.704.703 1.657 1.098 2.652 1.098h14.5c.414 0 .75-.336.75-.75s-.336-.75-.75-.75h-14.5c-.597 0-1.169-.237-1.591-.659s-.659-.994-.659-1.591v-16c0-.066.026-.13.073-.177s.111-.073.177-.073h13c.066 0 .13.026.177.073s.073.111.073.177v14c0 .414.336.75.75.75s.75-.336.75-.75z"/><path d="m19.498 22.75h.002c.862 0 1.689-.342 2.298-.952.61-.609.952-1.436.952-2.298v-12.5c0-.464-.184-.909-.513-1.237-.328-.329-.773-.513-1.237-.513-1.707 0-4 0-4 0-.414 0-.75.336-.75.75v13.502c0 .861.342 1.688.951 2.297s1.436.951 2.297.951zm0-1.5c-.464 0-.908-.184-1.236-.512s-.512-.772-.512-1.236v-12.752h3.25c.066 0 .13.026.177.073s.073.111.073.177v12.5c0 .464-.184.909-.513 1.237-.328.329-.773.513-1.237.513z"/><path d="m9.75 5.5c0-.332-.132-.649-.366-.884-.235-.234-.552-.366-.884-.366-.769 0-2.231 0-3 0-.332 0-.649.132-.884.366-.234.235-.366.552-.366.884v3c0 .332.132.649.366.884.235.234.552.366.884.366h3c.332 0 .649-.132.884-.366.234-.235.366-.552.366-.884zm-4 2.75h2.5v-2.5h-2.5z"/><path d="m11.5 6.25h2.5c.414 0 .75-.336.75-.75s-.336-.75-.75-.75h-2.5c-.414 0-.75.336-.75.75s.336.75.75.75z"/><path d="m5 12.75h9c.414 0 .75-.336.75-.75s-.336-.75-.75-.75h-9c-.414 0-.75.336-.75.75s.336.75.75.75z"/><path d="m11.5 9.25h2.5c.414 0 .75-.336.75-.75s-.336-.75-.75-.75h-2.5c-.414 0-.75.336-.75.75s.336.75.75.75z"/><path d="m5 15.75h9c.414 0 .75-.336.75-.75s-.336-.75-.75-.75h-9c-.414 0-.75.336-.75.75s.336.75.75.75z"/><path d="m5 18.75h9c.414 0 .75-.336.75-.75s-.336-.75-.75-.75h-9c-.414 0-.75.336-.75.75s.336.75.75.75z"/></g></svg>