<svg clip-rule="evenodd" fill-rule="evenodd" height="512" stroke-linejoin="round" stroke-miterlimit="2" viewBox="0 0 24 24" width="512" xmlns="http://www.w3.org/2000/svg"><g id="Icon"><path d="m15.281 4.04s0 0 0-.001c-.275-.587-.852-.975-1.5-1.006-.642-.032-1.249.291-1.582.84-2.417 3.775-6.569 6.75-9.916 8.269-.43.187-.767.539-.935.977-.169.442-.152.934.048 1.363.411.888 1.03 2.216 1.445 3.106 0 0 0 0 .001.001.201.431.569.761 1.019.915.446.152.935.118 1.355-.094 3.305-1.601 8.261-2.83 12.698-2.279.643.097 1.275-.159 1.66-.668.389-.514.462-1.2.189-1.784-1.16-2.516-3.308-7.121-4.482-9.639zm-1.359.635c1.173 2.516 3.319 7.118 4.481 9.635 0 .001 0 .002.001.003.037.08.027.174-.026.245-.053.07-.141.105-.229.091-.009-.001-.018-.003-.027-.004-4.737-.594-10.037.707-13.564 2.417-.006.003-.011.005-.017.008-.06.031-.13.036-.195.014-.064-.022-.117-.069-.145-.13-.415-.89-1.033-2.215-1.444-3.104-.001 0-.001-.001-.001-.002-.028-.06-.031-.13-.007-.192.024-.063.072-.113.134-.139.005-.003.01-.005.016-.007 3.569-1.619 7.991-4.806 10.568-8.835.005-.007.009-.015.014-.022.047-.08.134-.127.227-.122.092.004.175.06.214.144z"/><path d="m10.987 6.662 4.015 8.61c.175.375.621.537.996.363.376-.175.538-.622.363-.997l-4.015-8.61c-.175-.375-.621-.538-.996-.363s-.538.622-.363.997z"/><path d="m7.117 17.293 1.48 3.172c.408.876 1.449 1.255 2.325.847.149-.07.304-.142.453-.212.876-.408 1.255-1.449.847-2.325l-1.268-2.719c-.175-.375-.622-.538-.997-.363s-.537.622-.363.997l1.268 2.719c.059.125.005.274-.121.332l-.453.211c-.125.059-.274.005-.332-.121 0 0-1.479-3.172-1.479-3.172-.175-.375-.622-.537-.997-.362s-.538.621-.363.996z"/><path d="m19.429 8.794 1.813-.845c.375-.175.537-.622.362-.997s-.621-.538-.996-.363l-1.813.845c-.375.175-.538.622-.363.997s.622.538.997.363z"/><path d="m19.881 12.202 1.88.684c.389.142.82-.059.961-.448.142-.389-.059-.82-.448-.961l-1.88-.684c-.389-.142-.819.059-.961.448-.141.389.059.82.448.961z"/><path d="m17.884 5.41.684-1.879c.142-.389-.059-.82-.448-.962-.389-.141-.82.06-.961.448l-.684 1.88c-.142.389.059.82.448.961.389.142.82-.059.961-.448z"/></g></svg>