<svg clip-rule="evenodd" fill-rule="evenodd" height="512" stroke-linejoin="round" stroke-miterlimit="2" viewBox="0 0 24 24" width="512" xmlns="http://www.w3.org/2000/svg"><g id="Icon"><path d="m15.35 7.983v.157c0 .503.302.958.767 1.153.465.194 1.001.091 1.36-.263l1.064-1.047h2.459c.464 0 .909-.184 1.237-.512.329-.328.513-.774.513-1.238v-3.233c0-.966-.783-1.75-1.75-1.75h-6c-.464 0-.909.184-1.237.513-.329.328-.513.773-.513 1.237v3.233c0 .464.184.91.513 1.238.328.328.773.512 1.237.512zm1.487-.428c-.038-.265-.161-.514-.353-.706-.235-.234-.552-.366-.884-.366h-.6c-.066 0-.13-.026-.177-.073s-.073-.11-.073-.177v-3.233c0-.066.026-.13.073-.177s.111-.073.177-.073h6c.138 0 .25.112.25.25v3.233c0 .067-.026.13-.073.177s-.111.073-.177.073h-2.562c-.328 0-.643.129-.877.36z"/><path d="m21.25 9.5v6.5c0 .69-.56 1.25-1.25 1.25h-16c-.332 0-.649-.132-.884-.366-.234-.235-.366-.552-.366-.884v-11c0-.332.132-.649.366-.884.235-.234.552-.366.884-.366h7.5c.414 0 .75-.336.75-.75s-.336-.75-.75-.75c0 0-4.713 0-7.5 0-.729 0-1.429.29-1.945.805-.515.516-.805 1.216-.805 1.945v11c0 .729.29 1.429.805 1.945.516.515 1.216.805 1.945.805h16c1.519 0 2.75-1.231 2.75-2.75v-6.5c0-.414-.336-.75-.75-.75s-.75.336-.75.75z"/><path d="m14.878 17.763c-.102-.306-.389-.513-.711-.513h-4.334c-.322 0-.609.207-.711.513l-1.334 4c-.076.229-.037.48.104.676.141.195.367.311.608.311h7c.241 0 .467-.116.608-.311.141-.196.18-.447.104-.676zm-1.252.987.833 2.5h-4.918s.833-2.5.833-2.5z"/><path d="m6.5 22.75h11c.414 0 .75-.336.75-.75s-.336-.75-.75-.75h-11c-.414 0-.75.336-.75.75s.336.75.75.75z"/><path d="m15.25 13.977c0-.661-.374-1.306-1.1-1.801-.824-.562-2.15-.949-3.65-.949s-2.826.387-3.65.949c-.726.495-1.1 1.14-1.1 1.801v.61c0 .305.121.598.337.813.216.216.508.337.813.337h7.2c.305 0 .597-.121.813-.337.216-.215.337-.508.337-.813zm-1.5.26h-6.5v-.26c0-.224.198-.394.445-.562.631-.43 1.656-.688 2.805-.688s2.174.258 2.805.688c.247.168.445.338.445.562z"/><path d="m10.5 6.442c-1.518 0-2.75 1.233-2.75 2.75 0 1.518 1.232 2.75 2.75 2.75s2.75-1.232 2.75-2.75c0-1.517-1.232-2.75-2.75-2.75zm0 1.5c.69 0 1.25.561 1.25 1.25 0 .69-.56 1.25-1.25 1.25s-1.25-.56-1.25-1.25c0-.689.56-1.25 1.25-1.25z"/></g></svg>