<svg clip-rule="evenodd" fill-rule="evenodd" height="512" stroke-linejoin="round" stroke-miterlimit="2" viewBox="0 0 24 24" width="512" xmlns="http://www.w3.org/2000/svg"><g id="Icon"><path d="m12.74 22.001.01-5c.001-.413-.334-.75-.748-.751s-.751.335-.752.749l-.01 5c-.001.413.335.75.749.751s.75-.335.751-.749z"/><path d="m9.615 3.758-.927-.337c-1.052-.384-2.046.666-1.61 1.68l1.053 2.453-1.333-.979c-.728-.536-1.779-.155-1.995.714l-.132.536-1.17-.338c-1.073-.308-1.988.793-1.495 1.775l.608 1.21-.655.32c-.86.421-.963 1.584-.191 2.148l4.553 3.331-.184 1.628c-.117 1.026 1.009 1.759 1.914 1.227 0 0 3.949-2.32 3.949-2.32s3.949 2.32 3.949 2.32c.905.532 2.031-.201 1.914-1.228l-.183-1.627 4.553-3.332c.771-.563.668-1.726-.193-2.147l-.654-.32.609-1.21c.492-.982-.423-2.083-1.496-1.775l-1.17.338-.132-.536c-.216-.869-1.265-1.25-1.996-.714l-1.332.978 1.053-2.452c.436-1.014-.558-2.064-1.611-1.68l-.926.337-1.329-1.952c0-.001-.001-.001-.001-.002-.503-.735-1.61-.734-2.111.002l-1.329 1.952zm2.385-.838 1.244 1.828c.001.001.001.001.001.002.327.477.945.676 1.495.475l.588-.214-1.175 2.739c-.504 1.175.887 2.275 1.93 1.507l1.739-1.277.108.438c.17.694.895 1.114 1.593.912l.887-.256-.475.945c-.314.625-.059 1.383.576 1.694l.513.252-4.343 3.178.002-.001c-.387.281-.578.754-.502 1.219l.14 1.243-3.941-2.315c-.235-.137-.525-.137-.76 0l-3.94 2.315.141-1.255c.072-.46-.12-.928-.504-1.207l-4.341-3.177.513-.252c.635-.311.888-1.068.577-1.692l-.476-.947.887.257c.698.201 1.42-.218 1.593-.911l.108-.439 1.739 1.277c1.043.767 2.434-.333 1.931-1.508l-1.176-2.739.59.215c.548.2 1.166.001 1.493-.476z"/></g></svg>