<svg clip-rule="evenodd" fill-rule="evenodd" height="512" stroke-linejoin="round" stroke-miterlimit="2" viewBox="0 0 24 24" width="512" xmlns="http://www.w3.org/2000/svg"><g id="Icon"><path d="m20.5 3c0-.966-.783-1.75-1.75-1.75h-13.5c-.967 0-1.75.784-1.75 1.75s.783 1.75 1.75 1.75h13.5c.967 0 1.75-.784 1.75-1.75zm-1.5 0c0 .138-.112.25-.25.25h-13.5c-.138 0-.25-.112-.25-.25 0-.138.112-.25.25-.25h13.5c.138 0 .25.112.25.25z"/><path d="m20.5 21.016c0-.967-.783-1.75-1.75-1.75h-13.5c-.967 0-1.75.783-1.75 1.75 0 .966.783 1.75 1.75 1.75h13.5c.967 0 1.75-.784 1.75-1.75zm-1.5 0c0 .138-.112.25-.25.25h-13.5c-.138 0-.25-.112-.25-.25 0-.138.112-.25.25-.25h13.5c.138 0 .25.112.25.25z"/><path d="m19 20.766c.414 0 .75-.336.75-.75v-16.016c0-.414-.336-.75-.75-.75h-14c-.414 0-.75.336-.75.75v16.016c0 .414.336.75.75.75zm-.75-1.5h-12.5v-14.516h12.5z"/><path d="m4.25 7.75h15.5c.414 0 .75-.336.75-.75s-.336-.75-.75-.75h-15.5c-.414 0-.75.336-.75.75s.336.75.75.75z"/><path d="m4.25 17.75h15.5c.414 0 .75-.336.75-.75s-.336-.75-.75-.75h-15.5c-.414 0-.75.336-.75.75s.336.75.75.75z"/><path d="m12.448 8.664c-.266-.198-.63-.198-.896 0 0 0-2.294 1.75-2.294 4.094 0 1.513 1.229 2.742 2.742 2.742s2.742-1.229 2.742-2.742c0-2.344-2.294-4.094-2.294-4.094zm-.448 1.591c.501.487 1.242 1.395 1.242 2.503 0 .685-.556 1.242-1.242 1.242s-1.242-.557-1.242-1.242c0-1.108.741-2.016 1.242-2.503z"/></g></svg>