<svg clip-rule="evenodd" fill-rule="evenodd" height="512" stroke-linejoin="round" stroke-miterlimit="2" viewBox="0 0 24 24" width="512" xmlns="http://www.w3.org/2000/svg"><g id="Icon"><path d="m8.031 19.663c.292-.293.292-.767 0-1.06l-2.629-2.629c-.293-.293-.768-.293-1.061 0 0 0-1.613 1.613-2.578 2.579-.329.328-.513.773-.513 1.237s.184.909.513 1.238l1.214 1.214c.328.328.773.513 1.237.513.465 0 .91-.185 1.238-.513.966-.966 2.579-2.579 2.579-2.579zm-1.591-.53-2.049 2.048c-.047.047-.11.074-.177.074-.066 0-.129-.027-.176-.074 0 0-1.215-1.214-1.215-1.214-.047-.047-.073-.111-.073-.177s.026-.13.073-.177l2.049-2.048z"/><path d="m19.715 8.787c.537-.697.474-1.684-.149-2.306-.585-.586-1.457-1.458-2.042-2.043-.622-.622-1.61-.685-2.306-.148l-10.415 8.034c-.43.332-.681.844-.681 1.386v2.794c0 .199.079.39.219.531l2.629 2.628c.141.141.331.22.53.22h2.795c.542 0 1.054-.252 1.385-.681zm-1.188-.916-8.035 10.415c-.047.061-.12.097-.197.097-.001 0-2.484 0-2.484 0s-2.189-2.189-2.189-2.189v-2.484c0-.077.036-.151.097-.198l10.415-8.034c.099-.077.24-.068.329.021l2.043 2.042c.089.089.098.23.021.33z"/><path d="m12.302 16.96-5.257-5.258c-.293-.292-.768-.292-1.061 0-.293.293-.293.768 0 1.061l5.257 5.257c.293.293.768.293 1.061 0 .293-.292.293-.768 0-1.06z"/><path d="m15.513 7.431-4.929 4.929c-.292.292-.292.768 0 1.06.293.293.768.293 1.061 0l4.929-4.928c.292-.293.292-.768 0-1.061-.293-.293-.768-.293-1.061 0z"/><path d="m18.87 13.017c0 .437-.165.878-.501 1.213-.335.336-.776.501-1.213.501-.414 0-.75.336-.75.75s.336.75.75.75c.819 0 1.645-.311 2.274-.94s.94-1.455.94-2.274c0-.414-.336-.75-.75-.75s-.75.336-.75.75z"/><path d="m10.988 3.634c-.819 0-1.645.311-2.274.94-.63.63-.941 1.456-.941 2.274 0 .414.336.75.75.75s.75-.336.75-.75c0-.436.166-.877.501-1.213.336-.335.777-.501 1.214-.501.413 0 .75-.336.75-.75s-.337-.75-.75-.75z"/><path d="m21.267 13.787c-.147.801-.533 1.566-1.154 2.187s-1.386 1.007-2.187 1.154c-.407.074-.677.466-.602.873s.466.677.873.602c1.09-.2 2.132-.723 2.977-1.568s1.368-1.888 1.568-2.977c.075-.407-.195-.798-.602-.873s-.798.195-.873.602z"/><path d="m9.947 1.262c-1.09.2-2.132.724-2.977 1.569s-1.368 1.887-1.568 2.976c-.075.408.195.799.602.874.407.074.798-.195.873-.603.147-.8.533-1.566 1.154-2.187.62-.621 1.386-1.006 2.187-1.153.407-.075.677-.466.602-.874-.075-.407-.466-.676-.873-.602z"/></g></svg>