<svg viewBox="0 0 32 32" xmlns="http://www.w3.org/2000/svg"><g id="pinterest_media_social" data-name="pinterest media social"><path d="m16.5 3c-9.08 0-11.5 6.69-11.5 10.64a6.3 6.3 0 0 0 2.62 5.42 1.37 1.37 0 0 0 1.77-.24c.44-.43 1.55-2.18.93-3.12a4.4 4.4 0 0 1 -.51-2.06c0-2.78 1.14-6.1 6.55-6.1a4.53 4.53 0 0 1 3.28 1 5.3 5.3 0 0 1 1.18 3.89c0 2.55-1.4 6.25-3.52 6.25a1.12 1.12 0 0 1 -1.08-.68 11.37 11.37 0 0 1 .63-3c.56-1.89 1.08-3.66.54-4.8-.67-1.36-2.89-1.43-3.86-1.2a3.05 3.05 0 0 0 -2 1.62 7.52 7.52 0 0 0 -.17 6 1 1 0 1 0 1.87-.7 5.56 5.56 0 0 1 0-4.34 1.15 1.15 0 0 1 .7-.63 2.8 2.8 0 0 1 1.66.19c.21.45-.35 2.36-.65 3.38a10.78 10.78 0 0 0 -.69 3.79 3 3 0 0 0 3.06 2.44c3.56 0 5.49-4.78 5.52-8.23a7.15 7.15 0 0 0 -1.76-5.31 6.41 6.41 0 0 0 -4.7-1.65c-7.93 0-8.55 6.2-8.55 8.1a6.4 6.4 0 0 0 .67 2.85 3.69 3.69 0 0 1 -.23.51 4.51 4.51 0 0 1 -1.26-3.38c0-.88.27-8.64 9.5-8.64 2.19 0 7.86 1.42 7.86 7.92 0 5.1-4.07 8.78-6.81 8.78a3.54 3.54 0 0 1 -2.55-1.07 1 1 0 0 0 -1.7.27l-.42 1.1c-1.08 2.78-1.38 3.56-1.88 4.13a6.88 6.88 0 0 1 -.07-1 29.6 29.6 0 0 1 1.33-5.19l.07-.23a1 1 0 1 0 -1.9-.6l-.08.24a30.7 30.7 0 0 0 -1.41 5.6 18.16 18.16 0 0 0 .36 3.27 1 1 0 0 0 .63.75.84.84 0 0 0 .35.07 1 1 0 0 0 .61-.21l.49-.37c1.69-1.28 1.8-1.53 3.36-5.53a5.45 5.45 0 0 0 2.86.81c4 0 8.81-4.81 8.81-10.78-.05-7.32-5.95-9.96-9.91-9.96z"/></g></svg>