<svg clip-rule="evenodd" fill-rule="evenodd" height="512" stroke-linejoin="round" stroke-miterlimit="2" viewBox="0 0 24 24" width="512" xmlns="http://www.w3.org/2000/svg"><g id="Icon"><path d="m5.72 8.974c-.293-.292-.293-.768 0-1.06.292-.293.768-.293 1.06 0 0 0 2.618 2.617 2.618 2.617l3.517-1.758c.274-.137.604-.093.833.11l4.5 4c.31.275.338.75.063 1.059-.275.31-.75.337-1.059.062l-4.121-3.662-3.546 1.773c-.288.144-.637.088-.865-.141l-3-3z"/><path d="m16.943 10.962c-.009-.414.319-.758.733-.767.414-.01.757.318.767.732l.057 2.5c.009.414-.319.757-.733.767l-2.499.057c-.414.009-.758-.319-.767-.733-.01-.414.319-.757.732-.767l1.75-.04z"/><path d="m21.915 17.092c0 .414-.336.75-.75.75s-.75-.336-.75-.75v-12.221c0-.071-.028-.139-.078-.189-.051-.051-.119-.079-.19-.079h-16.294c-.071 0-.139.028-.19.079-.05.05-.078.118-.078.189v12.221c0 .414-.336.75-.75.75s-.75-.336-.75-.75v-12.221c0-.469.186-.918.518-1.25.331-.332.781-.518 1.25-.518h16.294c.469 0 .919.186 1.25.518.332.332.518.781.518 1.25z"/><path d="m22.726 18.401-.17 1.018c-.142.853-.88 1.478-1.744 1.478h-17.624c-.864 0-1.602-.625-1.744-1.478l-.17-1.018c-.085-.513.059-1.037.395-1.434.336-.396.83-.625 1.349-.625h5.418c.284 0 .543.16.671.414l.301.604h5.184l.301-.604c.128-.254.387-.414.671-.414h5.418c.519 0 1.013.229 1.349.625.336.397.48.921.395 1.434zm-1.48-.247c.013-.077-.009-.157-.06-.217s-.126-.095-.204-.095h-4.954l-.302.604c-.127.254-.387.414-.671.414h-6.11c-.284 0-.544-.16-.671-.414l-.302-.604h-4.954c-.079 0-.153.035-.204.095s-.073.14-.06.217l.169 1.019c.022.129.134.224.265.224h17.624c.131 0 .243-.095.265-.224z"/></g></svg>