<svg clip-rule="evenodd" fill-rule="evenodd" height="512" stroke-linejoin="round" stroke-miterlimit="2" viewBox="0 0 24 24" width="512" xmlns="http://www.w3.org/2000/svg"><g id="Icon"><path d="m5 22.75h8c.414 0 .75-.336.75-.75s-.336-.75-.75-.75h-8c-.414 0-.75.336-.75.75s.336.75.75.75z"/><path d="m11 22.75c.414 0 .75-.336.75-.75v-2c0-1.518-1.232-2.75-2.75-2.75s-2.75 1.232-2.75 2.75v2c0 .414.336.75.75.75zm-.75-1.5h-2.5v-1.25c0-.69.56-1.25 1.25-1.25s1.25.56 1.25 1.25z"/><path d="m6.75 12c0-1.518-1.232-2.75-2.75-2.75s-2.75 1.232-2.75 2.75 1.232 2.75 2.75 2.75 2.75-1.232 2.75-2.75zm-1.5 0c0 .69-.56 1.25-1.25 1.25s-1.25-.56-1.25-1.25.56-1.25 1.25-1.25 1.25.56 1.25 1.25z"/><path d="m10.75 4c0-1.518-1.232-2.75-2.75-2.75s-2.75 1.232-2.75 2.75 1.232 2.75 2.75 2.75 2.75-1.232 2.75-2.75zm-1.5 0c0 .69-.56 1.25-1.25 1.25s-1.25-.56-1.25-1.25.56-1.25 1.25-1.25 1.25.56 1.25 1.25z"/><path d="m8.576 17.902-2.881-4.6c-.22-.351-.683-.458-1.034-.238s-.457.683-.237 1.034l2.881 4.6c.219.351.683.457 1.033.237.351-.219.458-.682.238-1.033z"/><path d="m17 3.25h-7c-.414 0-.75.336-.75.75s.336.75.75.75h7c.414 0 .75-.336.75-.75s-.336-.75-.75-.75z"/><path d="m6.44 5.453-2.221 4.42c-.186.37-.036.821.334 1.007s.821.037 1.007-.333l2.221-4.42c.185-.37.036-.821-.334-1.007s-.821-.037-1.007.333z"/><path d="m19 6.75c1.518 0 2.75-1.232 2.75-2.75v-1c0-.966-.783-1.75-1.75-1.75h-2c-.967 0-1.75.784-1.75 1.75v1c0 1.518 1.232 2.75 2.75 2.75zm0-1.5c-.69 0-1.25-.56-1.25-1.25v-1c0-.138.112-.25.25-.25h2c.138 0 .25.112.25.25v1c0 .69-.56 1.25-1.25 1.25z"/><path d="m18.25 6v4c0 .414.336.75.75.75s.75-.336.75-.75v-4c0-.414-.336-.75-.75-.75s-.75.336-.75.75z"/><path d="m21.75 12c0-1.518-1.232-2.75-2.75-2.75s-2.75 1.232-2.75 2.75 1.232 2.75 2.75 2.75 2.75-1.232 2.75-2.75zm-1.5 0c0 .69-.56 1.25-1.25 1.25s-1.25-.56-1.25-1.25.56-1.25 1.25-1.25 1.25.56 1.25 1.25z"/><path d="m17.53 16.47-.78-.781v-2.148s.597-.199.597-.199c.393-.131.605-.556.475-.949-.131-.393-.556-.605-.949-.475l-1.11.37c-.306.103-.513.389-.513.712v3c0 .199.079.39.22.53l1 1c.292.293.768.293 1.06 0 .293-.292.293-.768 0-1.06z"/><path d="m20.652 13.341.598.199v2.149s-.781.781-.781.781c-.292.292-.292.768 0 1.06.293.293.768.293 1.061 0l1-1c.141-.14.22-.331.22-.53v-3c0-.323-.207-.61-.513-.712l-1.11-.37c-.393-.131-.818.082-.949.475-.131.392.082.818.474.948z"/></g></svg>