<svg xmlns="http://www.w3.org/2000/svg" viewBox="0 0 32 32"><title>skype, conference, video, call</title><g id="skype_conference_video_call" data-name="skype, conference, video, call"><path d="M14.5225,11.3423a4.3812,4.3812,0,0,1,4.22.2163A1,1,0,1,0,19.918,9.9414,6.3528,6.3528,0,0,0,13.6152,9.56a3.5688,3.5688,0,0,0-2.1416,3.1718c0,2.6211,3.9956,4.13,4.1475,4.1934.8476.3514,2.709,1.1435,2.709,2.4766a1.2642,1.2642,0,0,1-.8067,1.1748,4.8791,4.8791,0,0,1-4.5078-.274,1,1,0,0,0-1.084,1.6807,6.8985,6.8985,0,0,0,3.6758,1.019,6.061,6.061,0,0,0,2.8731-.6694,3.2714,3.2714,0,0,0,1.85-2.9311c0-2.8023-2.59-3.7856-3.9512-4.3272-.1687-.0671-2.9053-1.19-2.9053-2.3428A1.6505,1.6505,0,0,1,14.5225,11.3423Z"/><path d="M28.8459,17.9034A12.3613,12.3613,0,0,0,29,16,12.9913,12.9913,0,0,0,19.249,3.4092a1,1,0,1,0-.498,1.9365A10.9933,10.9933,0,0,1,27,16a10.76,10.76,0,0,1-.1729,1.9111.9033.9033,0,0,0,.1549.75A5.8928,5.8928,0,0,1,28,22a5.9972,5.9972,0,0,1-9.3408,4.9814,1.0405,1.0405,0,0,0-.7471-.1538A9.7458,9.7458,0,0,1,16,27,11.0125,11.0125,0,0,1,5,16a9.8548,9.8548,0,0,1,.1729-1.9111.9717.9717,0,0,0-.1549-.75A5.8654,5.8654,0,0,1,4,10a6.0066,6.0066,0,0,1,6-6,5.9431,5.9431,0,0,1,3.3408,1.0186A1,1,0,1,0,14.46,3.3613,7.979,7.979,0,0,0,3.1541,14.0966,12.3613,12.3613,0,0,0,3,16,13.0147,13.0147,0,0,0,16,29a12.3827,12.3827,0,0,0,1.9025-.1539A7.9242,7.9242,0,0,0,22,30a8.0092,8.0092,0,0,0,8-8A7.92,7.92,0,0,0,28.8459,17.9034Z"/></g></svg>