<svg clip-rule="evenodd" fill-rule="evenodd" height="512" stroke-linejoin="round" stroke-miterlimit="2" viewBox="0 0 24 24" width="512" xmlns="http://www.w3.org/2000/svg"><g id="Icon"><path d="m10 7h-4.81c-.225 0-.437.101-.58.275-.142.173-.199.402-.155.622 0 0 1.113 5.565 1.678 8.392.257 1.286 1.386 2.211 2.697 2.211h9.72c1.311 0 2.44-.925 2.697-2.211.402-2.009 1.08-5.401 1.439-7.196.103-.514-.03-1.047-.362-1.452-.333-.406-.829-.641-1.354-.641-1.074 0-2.47 0-2.47 0-.414 0-.75.336-.75.75s.336.75.75.75h2.47c.075 0 .146.034.194.092.047.057.066.134.051.207l-1.439 7.196c-.117.584-.63 1.005-1.226 1.005h-9.72c-.596 0-1.109-.421-1.226-1.005l-1.499-7.495h3.895c.414 0 .75-.336.75-.75s-.336-.75-.75-.75z"/><path d="m2 4.5h1.627c.12 0 .223.085.245.203l1.081 5.687c.078.407.47.674.877.597s.674-.47.597-.877c0 0-.75-3.943-1.081-5.687-.157-.825-.879-1.423-1.719-1.423h-1.627c-.414 0-.75.336-.75.75s.336.75.75.75z"/><circle cx="18.19" cy="19.75" r="1.5"/><circle cx="9.69" cy="19.75" r="1.5"/><path d="m20.474 4.699-.387-2.086c-.076-.407-.467-.676-.875-.6l-2.085.387c-.407.075-.676.467-.601.874.076.407.467.676.874.6l1.349-.25s.25 1.349.25 1.349c.075.407.467.676.874.6.407-.075.676-.467.601-.874z"/><path d="m17.876 3.584-2.277 3.416h-2.629c-.228 0-.443.104-.585.281l-2.4 3c-.259.324-.206.796.117 1.055.323.258.795.206 1.054-.117l2.175-2.719h2.669c.251 0 .485-.125.624-.334l2.5-3.75c.23-.344.136-.81-.208-1.04s-.81-.136-1.04.208z"/></g></svg>