<svg clip-rule="evenodd" fill-rule="evenodd" stroke-linejoin="round" stroke-miterlimit="1.414" viewBox="0 0 32 32" xmlns="http://www.w3.org/2000/svg" xmlns:serif="http://www.serif.com/"><path id="mattress-hospital-patient-injury" d="m0 0h32v32h-32z" fill="none"/><path d="m10.034 19.011c1.383.026 2.67 1.097 2.915 2.471.239 1.337-.555 2.791-1.819 3.308-1.395.57-3.177-.105-3.839-1.477-.684-1.42-.019-3.341 1.436-4.021.384-.18.807-.273 1.23-.281zm12.003 0c1.383.026 2.67 1.097 2.915 2.471.239 1.337-.555 2.791-1.819 3.308-1.395.57-3.177-.105-3.839-1.477-.685-1.421-.015-3.343 1.436-4.021.384-.18.807-.273 1.23-.281zm-.052 2c-.765.015-1.312 1.104-.685 1.716.515.503 1.578.215 1.689-.575.079-.567-.377-1.144-1.004-1.141zm-12.003 0c-.765.015-1.312 1.104-.685 1.716.514.502 1.578.215 1.689-.575.079-.567-.375-1.145-1.004-1.141zm1.705-5.987c-1.572-.004-3.145-.009-4.718-.014-1.717-.016-3.352-1.246-3.823-2.906-.377-1.326-.009-2.835.936-3.838.739-.785 1.798-1.248 2.887-1.258.467-.001.934-.001 1.4 0 1.29.012 2.562.538 3.484 1.443l.557.557h13.593c1.594.011 3.037 1.447 2.996 3.076-.038 1.524-1.364 2.896-2.962 2.926-1.914.012-3.827.018-5.74.021l-2.609 1.913.901.66c.511.394.509 1.285-.047 1.646-.338.219-.806.198-1.136-.033l-1.409-1.033-1.409 1.033c-.49.342-1.257.164-1.507-.403-.182-.412-.041-.929.324-1.21l.9-.66zm3.392.007.918.672.915-.671c-.611 0-1.222-.001-1.833-.001zm5.131-1.993c1.934-.006 3.868-.017 5.802-.029.748-.014 1.305-1.067.712-1.69-.187-.195-.452-.308-.728-.31h-14c-.077-.003-.097-.002-.174-.015-.143-.026-.281-.082-.4-.166-.063-.045-.076-.06-.133-.112-.418-.417-.803-.877-1.271-1.193-.482-.326-1.058-.505-1.643-.514-.459-.005-.919-.001-1.379-.001-1.238.004-2.291 1.351-1.916 2.584.244.802 1.026 1.404 1.889 1.417 1.591.015 3.183.025 4.775.031.065-.016.134-.026.208-.03.032-.001.064 0 .097.001.079.006.147.014.214.031 2.501.008 5.002.006 7.504-.002.088-.021.18-.031.275-.03.058.004.114.014.168.028z" fill-rule="nonzero"/></svg>