<svg clip-rule="evenodd" fill-rule="evenodd" height="512" stroke-linejoin="round" stroke-miterlimit="2" viewBox="0 0 24 24" width="512" xmlns="http://www.w3.org/2000/svg"><g id="Icon"><path d="m4.5 2.75h-1c-.597 0-1.169.237-1.591.659s-.659.994-.659 1.591v12c0 .597.237 1.169.659 1.591s.994.659 1.591.659h17c.597 0 1.169-.237 1.591-.659s.659-.994.659-1.591c0-2.874 0-9.126 0-12 0-.597-.237-1.169-.659-1.591s-.994-.659-1.591-.659h-1c-.414 0-.75.336-.75.75s.336.75.75.75h1c.199 0 .39.079.53.22.141.14.22.331.22.53v12c0 .199-.079.39-.22.53-.14.141-.331.22-.53.22h-17c-.199 0-.39-.079-.53-.22-.141-.14-.22-.331-.22-.53v-12c0-.199.079-.39.22-.53.14-.141.331-.22.53-.22h1c.414 0 .75-.336.75-.75s-.336-.75-.75-.75z"/><path d="m11.25 18.5v3.5c0 .414.336.75.75.75s.75-.336.75-.75v-3.5c0-.414-.336-.75-.75-.75s-.75.336-.75.75z"/><path d="m7.5 22.75h9c.414 0 .75-.336.75-.75s-.336-.75-.75-.75h-9c-.414 0-.75.336-.75.75s.336.75.75.75z"/><circle cx="12" cy="7.5" r=".75"/><path d="m11.586 2.251c-.641-.641-1.51-1.001-2.417-1.001-.906 0-1.776.36-2.417 1.001 0 0 0 .001-.001.001-.641.641-1.001 1.511-1.001 2.417 0 .907.36 1.776 1.001 2.417l5.663 5.662c.641.641 1.51 1.002 2.417 1.002.906 0 1.776-.361 2.417-1.002 0 0 0 0 .001-.001.641-.641 1.001-1.51 1.001-2.417 0-.906-.36-1.775-1.001-2.416zm-1.06 1.061 5.662 5.662c.36.36.562.848.562 1.356 0 .509-.202.997-.562 1.357l-.001.001c-.36.359-.848.562-1.356.562-.509 0-.997-.203-1.357-.562 0 0-5.662-5.663-5.662-5.663-.36-.359-.562-.847-.562-1.356s.202-.996.562-1.356l.001-.001c.36-.36.848-.562 1.356-.562.509 0 .997.202 1.357.562z"/><path d="m6.751 7.914c-.641.641-1.001 1.51-1.001 2.416 0 .907.36 1.776 1.001 2.417.001.001.001.001.001.001.641.641 1.511 1.002 2.417 1.002.907 0 1.776-.361 2.417-1.002l5.663-5.662c.641-.641 1.001-1.51 1.001-2.417 0-.906-.36-1.776-1.001-2.417-.001 0-.001-.001-.001-.001-.641-.641-1.511-1.001-2.417-1.001-.907 0-1.776.36-2.417 1.001zm1.061 1.06 5.662-5.662c.36-.36.848-.562 1.357-.562.508 0 .996.202 1.356.562l.001.001c.36.36.562.847.562 1.356s-.202.997-.562 1.356c0 0-5.662 5.663-5.662 5.663-.36.359-.848.562-1.357.562-.508 0-.996-.203-1.356-.562l-.001-.001c-.36-.36-.562-.848-.562-1.357 0-.508.202-.996.562-1.356z"/></g></svg>