<svg clip-rule="evenodd" fill-rule="evenodd" height="512" stroke-linejoin="round" stroke-miterlimit="2" viewBox="0 0 24 24" width="512" xmlns="http://www.w3.org/2000/svg"><g id="Icon"><path d="m22.75 15.5c0-2.871 0-8.129 0-11 0-.729-.29-1.429-.805-1.945-.516-.515-1.216-.805-1.945-.805-3.832 0-12.168 0-16 0-.729 0-1.429.29-1.945.805-.515.516-.805 1.216-.805 1.945v11c0 .729.29 1.429.805 1.945.516.515 1.216.805 1.945.805h16c.729 0 1.429-.29 1.945-.805.515-.516.805-1.216.805-1.945zm-1.5 0c0 .332-.132.649-.366.884-.235.234-.552.366-.884.366h-16c-.332 0-.649-.132-.884-.366-.234-.235-.366-.552-.366-.884v-11c0-.332.132-.649.366-.884.235-.234.552-.366.884-.366h16c.332 0 .649.132.884.366.234.235.366.552.366.884z"/><path d="m15.378 17.263c-.102-.306-.389-.513-.711-.513h-5.334c-.322 0-.609.207-.711.513l-1.334 4c-.076.229-.037.48.104.676.141.195.367.311.608.311h8c.241 0 .467-.116.608-.311.141-.196.18-.447.104-.676zm-1.252.987.833 2.5h-5.918s.833-2.5.833-2.5z"/><path d="m6.5 22.25h11c.414 0 .75-.336.75-.75s-.336-.75-.75-.75h-11c-.414 0-.75.336-.75.75s.336.75.75.75z"/><path d="m8.121 8.712c-.174 1.041-.471 2.826-.667 4-.084.508.059 1.027.391 1.419.333.393.821.619 1.335.619h5.64c.514 0 1.002-.226 1.335-.619.332-.392.475-.911.391-1.419l-.667-4c-.141-.844-.871-1.462-1.726-1.462-1.142 0-3.164 0-4.306 0-.855 0-1.585.618-1.726 1.462zm.813 4.247.667-4c.02-.121.124-.209.246-.209h4.306c.122 0 .226.088.246.209l.667 4c.012.072-.008.147-.056.203-.047.056-.117.088-.19.088-1.515 0-4.125 0-5.64 0-.073 0-.143-.032-.19-.088-.048-.056-.068-.131-.056-.203z"/><path d="m10.75 8v-1.5c0-.138.112-.25.25-.25h2c.138 0 .25.112.25.25v1.5c0 .414.336.75.75.75s.75-.336.75-.75c0 0 0-.804 0-1.5 0-.966-.783-1.75-1.75-1.75h-2c-.967 0-1.75.784-1.75 1.75v1.5c0 .414.336.75.75.75s.75-.336.75-.75z"/></g></svg>