<svg clip-rule="evenodd" fill-rule="evenodd" height="512" stroke-linejoin="round" stroke-miterlimit="2" viewBox="0 0 24 24" width="512" xmlns="http://www.w3.org/2000/svg"><g id="Icon"><path d="m6 17.25h-2.146c-.123 0-.227-.089-.247-.209-.263-2.1-.778-7.653 1.342-10.872.028-.04.063-.068.104-.085.001-.001.003-.001.004-.002.804-.349 3.238-1.393 3.238-1.393.134-.057.248-.152.329-.273l.85-1.275c1.684-.48 3.367-.491 5.05-.002.001 0 .852 1.277.852 1.277.081.121.195.216.329.273l3.244 1.391c.039.017.073.043.099.076 2.123 3.228 1.608 8.785 1.338 10.878-.017.119-.119.207-.239.207-.003 0-.005 0-.008 0-.883.009-2.139.009-2.139.009-.414 0-.75.336-.75.75s.336.75.75.75c0 0 1.264 0 2.154-.009.863 0 1.599-.642 1.718-1.503 0-.002 0-.004.001-.006.296-2.29.755-8.377-1.575-11.906-.003-.005-.006-.01-.01-.014-.187-.27-.447-.482-.749-.611 0 0-3.039-1.303-3.039-1.303s-.876-1.314-.876-1.314c-.094-.141-.234-.247-.396-.298-2.15-.688-4.301-.675-6.452-.002-.164.051-.305.157-.4.3l-.876 1.315c-.605.259-2.377 1.019-3.041 1.308-.298.127-.557.339-.744.608-.003.004-.006.009-.009.013-2.333 3.525-1.874 9.612-1.587 11.902 0 .003 0 .006.001.009.119.866.86 1.511 1.734 1.511h2.146c.414 0 .75-.336.75-.75s-.336-.75-.75-.75z"/><path d="m16.75 9.5v11.5c0 .138-.112.25-.25.25h-9c-.138 0-.25-.112-.25-.25v-11.5c0-.414-.336-.75-.75-.75s-.75.336-.75.75v11.5c0 .966.784 1.75 1.75 1.75h9c.967 0 1.75-.784 1.75-1.75v-11.5c0-.414-.336-.75-.75-.75s-.75.336-.75.75z"/><path d="m17.5 21.75h1.5c1.243 0 2.25-1.007 2.25-2.25 0-.75 0-1.5 0-1.5 0-.414-.336-.75-.75-.75s-.75.336-.75.75v1.5c0 .414-.335.75-.75.75h-1.5c-.414 0-.75.336-.75.75s.336.75.75.75z"/><path d="m6.5 20.25h-1.5c-.199 0-.389-.079-.53-.22-.141-.14-.22-.331-.22-.53 0-.75 0-1.5 0-1.5 0-.414-.336-.75-.75-.75s-.75.336-.75.75v1.5c0 .597.237 1.169.659 1.591s.995.659 1.591.659h1.5c.414 0 .75-.336.75-.75s-.336-.75-.75-.75z"/><path d="m11.25 5.524v16.476c0 .414.336.75.75.75s.75-.336.75-.75v-16.476c0-.414-.336-.75-.75-.75s-.75.336-.75.75z"/><path d="m7.546 4.597c1.482 1.127 2.971 1.676 4.453 1.677 1.483.001 2.973-.546 4.456-1.678.329-.251.392-.722.141-1.051s-.722-.392-1.051-.141c-1.184.903-2.361 1.371-3.544 1.37-1.185-.001-2.363-.47-3.547-1.371-.33-.251-.8-.186-1.051.143-.251.33-.186.8.143 1.051z"/></g></svg>