<svg clip-rule="evenodd" fill-rule="evenodd" height="512" stroke-linejoin="round" stroke-miterlimit="2" viewBox="0 0 24 24" width="512" xmlns="http://www.w3.org/2000/svg"><g id="Icon"><path d="m12 10.75c-1.794 0-3.25 1.456-3.25 3.25s1.456 3.25 3.25 3.25 3.25-1.456 3.25-3.25-1.456-3.25-3.25-3.25zm0 1.5c.966 0 1.75.784 1.75 1.75s-.784 1.75-1.75 1.75-1.75-.784-1.75-1.75.784-1.75 1.75-1.75z"/><path d="m19 11.25c-1.242 0-2.25 1.008-2.25 2.25s1.008 2.25 2.25 2.25 2.25-1.008 2.25-2.25-1.008-2.25-2.25-2.25zm0 1.5c.414 0 .75.336.75.75s-.336.75-.75.75-.75-.336-.75-.75.336-.75.75-.75z"/><path d="m5 11.25c-1.242 0-2.25 1.008-2.25 2.25s1.008 2.25 2.25 2.25 2.25-1.008 2.25-2.25-1.008-2.25-2.25-2.25zm0 1.5c.414 0 .75.336.75.75s-.336.75-.75.75-.75-.336-.75-.75.336-.75.75-.75z"/><path d="m17.25 22v-1.5c0-1.519-1.231-2.75-2.75-2.75h-5c-1.519 0-2.75 1.231-2.75 2.75v1.5c0 .414.336.75.75.75s.75-.336.75-.75v-1.5c0-.69.56-1.25 1.25-1.25h5c.69 0 1.25.56 1.25 1.25v1.5c0 .414.336.75.75.75s.75-.336.75-.75z"/><path d="m22.75 21v-1.5c0-1.519-1.231-2.75-2.75-2.75-1.202 0-2.5 0-2.5 0-.414 0-.75.336-.75.75s.336.75.75.75h2.5c.69 0 1.25.56 1.25 1.25v1.5c0 .414.336.75.75.75s.75-.336.75-.75z"/><path d="m2.75 21v-1.5c0-.69.56-1.25 1.25-1.25h2.5c.414 0 .75-.336.75-.75s-.336-.75-.75-.75c0 0-1.298 0-2.5 0-1.519 0-2.75 1.231-2.75 2.75v1.5c0 .414.336.75.75.75s.75-.336.75-.75z"/><path d="m17.25 6.5v-3.5c0-.967-.784-1.75-1.75-1.75-1.732 0-5.268 0-7 0-.966 0-1.75.783-1.75 1.75v3.5c0 .967.784 1.75 1.75 1.75h1.25s1.8 1.35 1.8 1.35c.267.2.633.2.9 0l1.8-1.35h1.25c.966 0 1.75-.783 1.75-1.75zm-1.5-3.5v3.5c0 .138-.112.25-.25.25h-1.5c-.162 0-.32.053-.45.15l-1.55 1.162s-1.55-1.162-1.55-1.162c-.13-.097-.288-.15-.45-.15h-1.5c-.138 0-.25-.112-.25-.25v-3.5c0-.138.112-.25.25-.25h7c.138 0 .25.112.25.25z"/><path d="m16.331 9.573 1.185 1c.28.236.688.236.968 0l1.568-1.323h.948c.967 0 1.75-.783 1.75-1.75v-3.5c0-.967-.783-1.75-1.75-1.75h-2c-.414 0-.75.336-.75.75s.336.75.75.75h2c.138 0 .25.112.25.25v3.5c0 .138-.112.25-.25.25h-1.222c-.177 0-.349.063-.484.177l-1.294 1.092s-.702-.592-.702-.592c-.316-.267-.789-.227-1.056.089-.267.317-.227.79.089 1.057z"/><path d="m6.702 8.427-.702.592s-1.294-1.092-1.294-1.092c-.135-.114-.307-.177-.484-.177h-1.222c-.138 0-.25-.112-.25-.25v-3.5c0-.138.112-.25.25-.25h2c.414 0 .75-.336.75-.75s-.336-.75-.75-.75h-2c-.967 0-1.75.783-1.75 1.75v3.5c0 .967.783 1.75 1.75 1.75h.948s1.568 1.323 1.568 1.323c.28.236.688.236.968 0l1.185-1c.316-.267.356-.74.089-1.057-.267-.316-.74-.356-1.056-.089z"/></g></svg>