<svg clip-rule="evenodd" fill-rule="evenodd" height="512" stroke-linejoin="round" stroke-miterlimit="2" viewBox="0 0 24 24" width="512" xmlns="http://www.w3.org/2000/svg"><g id="Icon"><path d="m12 5.25c-1.794 0-3.25 1.456-3.25 3.25s1.456 3.25 3.25 3.25 3.25-1.456 3.25-3.25-1.456-3.25-3.25-3.25zm0 1.5c.966 0 1.75.784 1.75 1.75s-.784 1.75-1.75 1.75-1.75-.784-1.75-1.75.784-1.75 1.75-1.75z"/><path d="m12 1.25c-4.139 0-7.5 3.361-7.5 7.5 0 1.941.736 3.887 1.753 5.627 1.469 2.512 3.514 4.589 4.567 5.574.003.002.005.004.007.006.665.606 1.682.606 2.346-.001.002-.002.004-.003.006-.005 1.054-.985 3.099-3.062 4.568-5.574 1.017-1.74 1.753-3.686 1.753-5.627 0-4.139-3.361-7.5-7.5-7.5zm0 1.5c3.311 0 6 2.689 6 6 0 1.683-.666 3.362-1.548 4.87-1.378 2.357-3.3 4.303-4.292 5.23-.09.081-.225.082-.317.004-.996-.931-2.917-2.878-4.295-5.234-.882-1.508-1.548-3.187-1.548-4.87 0-3.311 2.689-6 6-6z"/><path d="m6 22.75h12c.414 0 .75-.336.75-.75s-.336-.75-.75-.75h-12c-.414 0-.75.336-.75.75s.336.75.75.75z"/></g></svg>