<svg clip-rule="evenodd" fill-rule="evenodd" height="512" stroke-linejoin="round" stroke-miterlimit="2" viewBox="0 0 24 24" width="512" xmlns="http://www.w3.org/2000/svg"><g id="Icon"><path d="m20.75 10c0-4.829-3.921-8.75-8.75-8.75s-8.75 3.921-8.75 8.75 3.921 8.75 8.75 8.75 8.75-3.921 8.75-8.75zm-1.5 0c0 4.001-3.249 7.25-7.25 7.25s-7.25-3.249-7.25-7.25 3.249-7.25 7.25-7.25 7.25 3.249 7.25 7.25z"/><path d="m18.25 10c0-3.449-2.801-6.25-6.25-6.25s-6.25 2.801-6.25 6.25 2.801 6.25 6.25 6.25 6.25-2.801 6.25-6.25zm-1.5 0c0 2.622-2.128 4.75-4.75 4.75s-4.75-2.128-4.75-4.75 2.128-4.75 4.75-4.75 4.75 2.128 4.75 4.75z"/><path d="m17.329 19.335s1.112 2.224 3.336 3.336c.37.185.821.035 1.006-.336.185-.37.035-.821-.336-1.006-1.776-.888-2.664-2.664-2.664-2.664-.185-.371-.636-.521-1.006-.336-.371.185-.521.636-.336 1.006z"/><path d="m14.25 20s-.037 1.274 1.22 2.53c.292.293.768.293 1.06 0 .293-.292.293-.768 0-1.06-.744-.744-.78-1.47-.78-1.47 0-.414-.336-.75-.75-.75s-.75.336-.75.75z"/><path d="m5.329 18.665s-.888 1.776-2.664 2.664c-.371.185-.521.636-.336 1.006.185.371.636.521 1.006.336 2.224-1.112 3.336-3.336 3.336-3.336.185-.37.035-.821-.336-1.006-.37-.185-.821-.035-1.006.336z"/><path d="m8.25 20s-.036.726-.78 1.47c-.293.292-.293.768 0 1.06.292.293.768.293 1.06 0 1.257-1.256 1.22-2.53 1.22-2.53 0-.414-.336-.75-.75-.75s-.75.336-.75.75z"/><path d="m11.25 19.995-.014 2c-.003.414.331.752.745.755s.752-.331.755-.745l.014-2c.003-.414-.331-.752-.745-.755s-.752.331-.755.745z"/><path d="m13 11.75h-2c-.414 0-.75.336-.75.75s.336.75.75.75h2c.414 0 .75-.336.75-.75s-.336-.75-.75-.75z"/><path d="m12 9.25c-.332 0-.649-.132-.884-.366-.234-.235-.366-.552-.366-.884v-3c0-.414-.336-.75-.75-.75s-.75.336-.75.75v3c0 .729.29 1.429.805 1.945.516.515 1.216.805 1.945.805s1.429-.29 1.945-.805c.515-.516.805-1.216.805-1.945 0-1.392 0-3 0-3 0-.414-.336-.75-.75-.75s-.75.336-.75.75v3c0 .332-.132.649-.366.884-.235.234-.552.366-.884.366z"/></g></svg>