<svg clip-rule="evenodd" fill-rule="evenodd" height="512" stroke-linejoin="round" stroke-miterlimit="2" viewBox="0 0 24 24" width="512" xmlns="http://www.w3.org/2000/svg"><g id="Icon"><path d="m8.5 16.75c-.414 0-.75-.336-.75-.75s.336-.75.75-.75h4c.414 0 .75.336.75.75s-.336.75-.75.75z"/><path d="m7.5 19.25c-.414 0-.75-.336-.75-.75s.336-.75.75-.75h6c.414 0 .75.336.75.75s-.336.75-.75.75z"/><path d="m3.25 3.5c0-.414.336-.75.75-.75s.75.336.75.75v17.5c0 .066.026.13.073.177s.111.073.177.073h11c.138 0 .25-.112.25-.25v-15c0-.138-.112-.25-.25-.25h-5.5c-.414 0-.75-.336-.75-.75s.336-.75.75-.75h5.5c.966 0 1.75.783 1.75 1.75v15c0 .967-.784 1.75-1.75 1.75h-11c-.464 0-.909-.184-1.237-.513-.329-.328-.513-.773-.513-1.237z"/><path d="m17 21.25c-.414 0-.75-.336-.75-.75s.336-.75.75-.75h2c.138 0 .25-.112.25-.25v-15.5c0-.69-.56-1.25-1.25-1.25h-12.5c-.199 0-.39.079-.53.22-.141.14-.22.331-.22.53s.079.39.22.53c.14.141.331.22.53.22h5c.414 0 .75.336.75.75s-.336.75-.75.75h-5c-.597 0-1.169-.237-1.591-.659s-.659-.994-.659-1.591.237-1.169.659-1.591.994-.659 1.591-.659h12.5c1.519 0 2.75 1.231 2.75 2.75v15.5c0 .966-.783 1.75-1.75 1.75z"/><path d="m15.25 8.5v4c0 .331-.132.649-.366.884-.235.234-.552.366-.884.366h-7c-.332 0-.649-.132-.884-.366-.234-.235-.366-.553-.366-.884v-4c0-.331.132-.649.366-.884.235-.234.552-.366.884-.366h7c.332 0 .649.132.884.366.234.235.366.553.366.884zm-8 3.75h6.5v-3.5h-6.5z"/></g></svg>