<svg clip-rule="evenodd" fill-rule="evenodd" height="512" stroke-linejoin="round" stroke-miterlimit="2" viewBox="0 0 24 24" width="512" xmlns="http://www.w3.org/2000/svg"><g id="Icon"><path d="m1.25 2v20c0 .414.336.75.75.75h20c.414 0 .75-.336.75-.75s-.336-.75-.75-.75h-19.25v-19.25c0-.414-.336-.75-.75-.75s-.75.336-.75.75z"/><path d="m8 22.75c.414 0 .75-.336.75-.75v-6.5c0-.414-.336-.75-.75-.75h-3.5c-.414 0-.75.336-.75.75v6.5c0 .414.336.75.75.75zm-.75-1.5h-2v-5h2z"/><path d="m14 22.75c.414 0 .75-.336.75-.75v-8.5c0-.414-.336-.75-.75-.75h-3.5c-.414 0-.75.336-.75.75v8.5c0 .414.336.75.75.75zm-.75-1.5h-2v-7h2z"/><path d="m20 22.75c.414 0 .75-.336.75-.75v-10.5c0-.414-.336-.75-.75-.75h-3.5c-.414 0-.75.336-.75.75v10.5c0 .414.336.75.75.75zm-.75-1.5h-2v-9h2z"/><path d="m18.894 4.111c-1.172 1.934-4.512 4.058-8.725 5.451-1.843.609-3.636 1.001-5.252 1.18-.411.046-.708.417-.662.829.045.411.416.708.828.662 1.71-.19 3.607-.603 5.556-1.247 4.636-1.533 8.249-3.969 9.538-6.097.214-.354.101-.816-.253-1.03-.354-.215-.815-.102-1.03.252z"/><path d="m17.395 4.767 2.067-.22s.219 2.067.219 2.067c.044.412.414.71.825.667.412-.044.711-.414.667-.825l-.299-2.813c-.043-.412-.413-.71-.825-.667l-2.812.299c-.412.044-.711.413-.667.825s.413.71.825.667z"/></g></svg>