<svg clip-rule="evenodd" fill-rule="evenodd" height="512" stroke-linejoin="round" stroke-miterlimit="2" viewBox="0 0 24 24" width="512" xmlns="http://www.w3.org/2000/svg"><g id="Icon"><path d="m11.844 4.141c-1.815 0-3.556.721-4.84 2.004-1.283 1.284-2.004 3.024-2.004 4.839v2.032c0 .414.336.75.75.75h12.187c.415 0 .75-.336.75-.75v-2.032c0-3.779-3.064-6.843-6.843-6.843zm0 1.5c2.951 0 5.343 2.392 5.343 5.343v1.282h-10.687v-1.282c0-1.417.563-2.776 1.565-3.778s2.361-1.565 3.779-1.565z"/><path d="m21.664 17.241c.337.169.748.061.958-.252.211-.313.156-.734-.128-.983l-4.063-3.554c-.136-.12-.312-.186-.494-.186h-12.187c-.182 0-.357.066-.494.186 0 0-2.34 2.047-3.444 3.081-.34.302-.544.727-.567 1.181-.024.459.139.908.452 1.245l.01.01c.85.881 2.152 1.215 3.622 1.166 1.93-.063 4.161-.771 5.756-1.352 1.667-.608 4.423-1.054 6.836-1.08 1.525-.017 2.909.119 3.743.538zm-2.323-2c-.459-.031-.941-.044-1.436-.038-2.589.028-5.545.518-7.334 1.171-1.467.535-3.516 1.203-5.291 1.262-.997.033-1.906-.107-2.486-.7-.036-.041-.054-.092-.051-.144.002-.054.027-.105.067-.14.007-.006.013-.011.019-.017.89-.833 2.605-2.344 3.203-2.869h11.624s1.686 1.475 1.686 1.475z"/><path d="m17.43 9.219h-11.173c-.414 0-.75.336-.75.75s.336.75.75.75h11.173c.414 0 .75-.336.75-.75s-.336-.75-.75-.75z"/><path d="m21.349 16.197s-2.627 4.314-11.246.697c-.382-.16-.822.02-.982.402s.02.821.401.982c4.951 2.077 8.182 1.757 10.169.969 2.162-.857 2.96-2.304 2.96-2.304.206-.359.081-.817-.278-1.023s-.818-.082-1.024.277z"/></g></svg>