<svg clip-rule="evenodd" fill-rule="evenodd" height="512" stroke-linejoin="round" stroke-miterlimit="2" viewBox="0 0 24 24" width="512" xmlns="http://www.w3.org/2000/svg"><g id="Icon"><path d="m15 22.75c1.79 0 3.507-.711 4.773-1.977s1.977-2.983 1.977-4.773c0-.178 0-.346 0-.5 0-.464-.184-.909-.513-1.237-.328-.329-.773-.513-1.237-.513-3.151 0-12.849 0-16 0-.464 0-.909.184-1.237.513-.329.328-.513.773-.513 1.237v.5c0 1.79.711 3.507 1.977 4.773s2.983 1.977 4.773 1.977zm0-1.5h-6c-1.392 0-2.728-.553-3.712-1.538-.985-.984-1.538-2.32-1.538-3.712v-.5c0-.066.026-.13.073-.177s.111-.073.177-.073h16c.066 0 .13.026.177.073s.073.111.073.177v.5c0 1.392-.553 2.728-1.538 3.712-.984.985-2.32 1.538-3.712 1.538z"/><path d="m7.449 8.512c-2.391.465-4.199 2.573-4.199 5.099 0 .356.036.703.104 1.038.071.35.378.601.735.601h15.822c.357 0 .664-.251.735-.601.068-.335.104-.682.104-1.038 0-2.495-1.764-4.582-4.111-5.081-.869-1.652-2.604-2.78-4.599-2.78-1.989 0-3.718 1.119-4.591 2.762zm.587 1.427c.268-.03.5-.201.607-.449.565-1.317 1.874-2.24 3.397-2.24 1.525 0 2.836.927 3.4 2.248.104.244.33.415.593.449 1.814.235 3.217 1.787 3.217 3.664 0 .047-.001.093-.003.139h-14.494c-.002-.046-.003-.092-.003-.139 0-1.901 1.439-3.469 3.286-3.672z"/><path d="m11.25 2v2c0 .414.336.75.75.75s.75-.336.75-.75v-2c0-.414-.336-.75-.75-.75s-.75.336-.75.75z"/><path d="m14.75 2v3c0 .414.336.75.75.75s.75-.336.75-.75v-3c0-.414-.336-.75-.75-.75s-.75.336-.75.75z"/><path d="m7.75 2v3c0 .414.336.75.75.75s.75-.336.75-.75v-3c0-.414-.336-.75-.75-.75s-.75.336-.75.75z"/></g></svg>