<svg clip-rule="evenodd" fill-rule="evenodd" height="512" stroke-linejoin="round" stroke-miterlimit="2" viewBox="0 0 24 24" width="512" xmlns="http://www.w3.org/2000/svg"><g id="Icon"><path d="m18.25 11v4.25h-5.5v-1.25c0-.414-.336-.75-.75-.75s-.75.336-.75.75v2c0 .414.336.75.75.75h7c.414 0 .75-.336.75-.75v-5c0-.414-.336-.75-.75-.75s-.75.336-.75.75z"/><path d="m8 8.75h14c.414 0 .75-.336.75-.75s-.336-.75-.75-.75h-14c-.414 0-.75.336-.75.75s.336.75.75.75z"/><path d="m22.75 4c0-.729-.29-1.429-.805-1.945-.516-.515-1.216-.805-1.945-.805-3.832 0-12.168 0-16 0-.729 0-1.429.29-1.945.805-.515.516-.805 1.216-.805 1.945v16c0 .729.29 1.429.805 1.945.516.515 1.216.805 1.945.805h16c.729 0 1.429-.29 1.945-.805.515-.516.805-1.216.805-1.945zm-1.5 0v16c0 .332-.132.649-.366.884-.235.234-.552.366-.884.366h-16c-.332 0-.649-.132-.884-.366-.234-.235-.366-.552-.366-.884v-16c0-.332.132-.649.366-.884.235-.234.552-.366.884-.366h16c.332 0 .649.132.884.366.234.235.366.552.366.884z"/><path d="m2 19.75h3c.414 0 .75-.336.75-.75s-.336-.75-.75-.75h-3c-.414 0-.75.336-.75.75s.336.75.75.75z"/><path d="m5.75 11v-5.25h2.25c.414 0 .75-.336.75-.75s-.336-.75-.75-.75h-3c-.414 0-.75.336-.75.75v6c0 .414.336.75.75.75s.75-.336.75-.75z"/><path d="m11.75 8v-6c0-.414-.336-.75-.75-.75s-.75.336-.75.75v6c0 .414.336.75.75.75s.75-.336.75-.75z"/><path d="m2 8.75h3c.414 0 .75-.336.75-.75s-.336-.75-.75-.75h-3c-.414 0-.75.336-.75.75s.336.75.75.75z"/><path d="m19 18.25h-10.25v-2.25c0-.414-.336-.75-.75-.75h-2.25v-3.5h2.25c.414 0 .75-.336.75-.75s-.336-.75-.75-.75h-3c-.414 0-.75.336-.75.75v5c0 .414.336.75.75.75h2.25v2.25c0 .414.336.75.75.75h11c.414 0 .75-.336.75-.75s-.336-.75-.75-.75z"/><path d="m8.75 13v-1.25h5.5v1.25c0 .414.336.75.75.75s.75-.336.75-.75v-2c0-.414-.336-.75-.75-.75h-7c-.414 0-.75.336-.75.75v2c0 .414.336.75.75.75s.75-.336.75-.75z"/><path d="m14 5.75h8c.414 0 .75-.336.75-.75s-.336-.75-.75-.75h-8c-.414 0-.75.336-.75.75s.336.75.75.75z"/><path d="m18.25 19v3c0 .414.336.75.75.75s.75-.336.75-.75v-3c0-.414-.336-.75-.75-.75s-.75.336-.75.75z"/></g></svg>