<svg clip-rule="evenodd" fill-rule="evenodd" stroke-linejoin="round" stroke-miterlimit="2" viewBox="0 0 32 32" xmlns="http://www.w3.org/2000/svg" xmlns:serif="http://www.serif.com/"><path id="messages-chat-compose-new" d="m0 0h32v32h-32z" fill="none"/><path d="m16.919 21.02c2.694.01 5.525.192 7.571 2.081.551.508.704 1.526-.125 1.848-.385.149-.812.02-1.146-.3-.307-.29-.426-.384-.66-.553-1.736-1.25-4.077-1.076-6.179-1.078-3.467 0-6.935.022-10.402 0-1.539-.03-2.928-1.344-2.959-2.959-.026-4.023-.025-8.045 0-12.068.029-1.547 1.366-2.93 2.96-2.96 6.687-.041 13.374-.041 20.06 0 1.557.029 2.951 1.362 2.961 2.995v19.988c-.036.765-1.045 1.283-1.654.756-.21-.182-.324-.33-.345-.756 0-6.67.124-13.341 0-20.01-.016-.512-.469-.965-.986-.974-6.675-.042-13.35-.124-20.023 0-.511.016-.965.467-.975.986-.025 4.01-.076 8.021.001 12.03.016.514.468.963.985.973 3.638.023 7.263-.007 10.916.001zm1.089-3.998h-7.994c-1.004-.028-1.383-1.96 0-1.998h7.994c.019 0 .037.001.056.001.968.082 1.327 1.958-.056 1.997zm3.997-3.997h-11.991c-.253-.009-.327-.043-.46-.112-.765-.396-.662-1.848.46-1.886h11.991c.023 0 .045.001.068.002.742.076.796.377.894.727.167.596-.232 1.244-.962 1.269z"/></svg>