<svg clip-rule="evenodd" fill-rule="evenodd" height="512" stroke-linejoin="round" stroke-miterlimit="2" viewBox="0 0 24 24" width="512" xmlns="http://www.w3.org/2000/svg"><g id="Icon"><circle cx="16" cy="10.025" r=".75"/><circle cx="8" cy="10.025" r=".75"/><path d="m12 3.025c-5.381 0-9.75 4.369-9.75 9.75 0 3.061 1.414 5.795 3.624 7.583.81.655 1.702.719 2.668.515 1.06-.224 2.227-.848 3.458-.848s2.398.624 3.458.848c.966.204 1.858.14 2.668-.515 2.21-1.788 3.624-4.522 3.624-7.583 0-5.381-4.369-9.75-9.75-9.75zm0 1.5c4.553 0 8.25 3.697 8.25 8.25 0 2.59-1.197 4.904-3.067 6.417-.568.46-1.219.289-1.92.082-1.018-.3-2.119-.749-3.263-.749s-2.245.449-3.263.749c-.701.207-1.352.378-1.92-.082-1.87-1.513-3.067-3.827-3.067-6.417 0-4.553 3.697-8.25 8.25-8.25z"/><path d="m4.1 7.324c-.22-.293-.35-.656-.35-1.049 0-.966.784-1.75 1.75-1.75.572 0 1.081.275 1.4.701.249.331.72.398 1.05.149.331-.249.398-.719.15-1.05-.593-.79-1.538-1.3-2.6-1.3-1.794 0-3.25 1.456-3.25 3.25 0 .731.242 1.406.65 1.95.249.331.72.398 1.05.149.331-.249.398-.719.15-1.05z"/><path d="m14 16.025c-.572 0-1.081-.276-1.4-.701-.142-.189-.364-.3-.6-.3s-.458.111-.6.3c-.319.425-.828.701-1.4.701-.414 0-.75.336-.75.75s.336.75.75.75c.754 0 1.449-.257 2-.689.552.432 1.246.689 2 .689.414 0 .75-.336.75-.75s-.336-.75-.75-.75z"/><path d="m21.1 8.225c.408-.544.65-1.219.65-1.95 0-1.794-1.456-3.25-3.25-3.25-1.062 0-2.007.51-2.6 1.3-.248.331-.181.801.15 1.05.33.249.801.182 1.05-.149.319-.426.828-.701 1.4-.701.966 0 1.75.784 1.75 1.75 0 .393-.13.756-.35 1.049-.248.331-.181.801.15 1.05.33.249.801.182 1.05-.149z"/><path d="m14.75 11.775c0-.967-.783-1.75-1.75-1.75h-2c-.967 0-1.75.783-1.75 1.75v.382c0 .663.374 1.269.967 1.565l1.448.724c.211.105.459.105.67 0l1.448-.724c.593-.296.967-.902.967-1.565 0-.122 0-.252 0-.382zm-1.5 0v.382c0 .094-.053.181-.138.223 0 0-1.112.556-1.112.556s-1.112-.556-1.112-.556c-.085-.042-.138-.129-.138-.223v-.382c0-.138.112-.25.25-.25h2c.138 0 .25.112.25.25z"/><path d="m11.25 13.775v2c0 .414.336.75.75.75s.75-.336.75-.75v-2c0-.414-.336-.75-.75-.75s-.75.336-.75.75z"/><path d="m22.279 14.078-5-2c-.385-.153-.822.034-.975.418-.154.385.033.821.417.975l5 2c.385.154.822-.033.975-.418.154-.384-.033-.821-.417-.975z"/><path d="m2.279 15.471 5-2c.384-.154.571-.59.417-.975-.153-.384-.59-.571-.975-.418l-5 2c-.384.154-.571.591-.417.975.153.385.59.572.975.418z"/><path d="m22.279 16.578-5-2c-.385-.154-.822.034-.975.418-.154.384.033.821.417.975l5 2c.385.154.822-.034.975-.418.154-.384-.033-.821-.417-.975z"/><path d="m2.279 17.971 5-2c.384-.154.571-.591.417-.975-.153-.384-.59-.572-.975-.418l-5 2c-.384.154-.571.591-.417.975.153.384.59.572.975.418z"/><path d="m22.279 19.078-5-2c-.385-.154-.822.033-.975.418-.154.384.033.821.417.975l5 2c.385.153.822-.034.975-.418.154-.385-.033-.821-.417-.975z"/><path d="m2.279 20.471 5-2c.384-.154.571-.591.417-.975-.153-.385-.59-.572-.975-.418l-5 2c-.384.154-.571.59-.417.975.153.384.59.571.975.418z"/></g></svg>