<svg clip-rule="evenodd" fill-rule="evenodd" height="512" stroke-linejoin="round" stroke-miterlimit="2" viewBox="0 0 24 24" width="512" xmlns="http://www.w3.org/2000/svg"><g id="Icon"><path d="m20 16.5c-1.518 0-2.75 1.232-2.75 2.75s1.232 2.75 2.75 2.75 2.75-1.232 2.75-2.75-1.232-2.75-2.75-2.75zm0 1.5c.69 0 1.25.56 1.25 1.25s-.56 1.25-1.25 1.25-1.25-.56-1.25-1.25.56-1.25 1.25-1.25z"/><path d="m5 16.5c-1.518 0-2.75 1.232-2.75 2.75s1.232 2.75 2.75 2.75 2.75-1.232 2.75-2.75-1.232-2.75-2.75-2.75zm0 1.5c.69 0 1.25.56 1.25 1.25s-.56 1.25-1.25 1.25-1.25-.56-1.25-1.25.56-1.25 1.25-1.25z"/><path d="m18 18.5h-11c-.414 0-.75.336-.75.75s.336.75.75.75h11c.414 0 .75-.336.75-.75s-.336-.75-.75-.75z"/><path d="m22.1 17.3s-.953-1.27-1.34-1.786c-.184-.245-.429-.438-.71-.559-.797-.341-3.255-1.394-3.255-1.394-.093-.04-.193-.061-.295-.061h-7c-.081 0-.161.013-.237.038l-4.204 1.402c-.338.112-.633.325-.846.61-.403.536-1.313 1.75-1.313 1.75-.248.331-.181.802.15 1.05s.802.181 1.05-.15l1.313-1.75c.03-.041.072-.071.12-.087.001 0 4.089-1.363 4.089-1.363h6.724l3.113 1.334c.04.017.075.045.101.08l1.34 1.786c.248.331.719.398 1.05.15s.398-.719.15-1.05z"/><path d="m16.5 15c.414 0 .75-.336.75-.75v-2.5c0-.414-.336-.75-.75-.75h-7c-.414 0-.75.336-.75.75v2.5c0 .414.336.75.75.75zm-.75-1.5h-5.5v-1h5.5z"/><path d="m14.677 8-1.736-.868c-.174-.087-.365-.132-.559-.132h-3.882c-.332 0-.649.132-.884.366-.234.235-.366.553-.366.884v3c0 .331.132.649.366.884.235.234.552.366.884.366h9c.332 0 .649-.132.884-.366.234-.235.366-.552.366-.884 0-.555 0-1.445 0-2 0-.69-.56-1.25-1.25-1.25zm-2.354.5 1.736.868c.174.087.365.132.559.132h2.632v1.5h-8.5v-2.5z"/><path d="m5.608 15.44-.86-10.75c-.015-.177-.092-.344-.218-.47l-2-2c-.292-.293-.768-.293-1.06 0-.293.292-.293.768 0 1.06l1.804 1.805s.838 10.475.838 10.475c.033.412.395.721.808.688.412-.033.721-.395.688-.808z"/><path d="m12.25 17.5h1.5c.414 0 .75-.336.75-.75s-.336-.75-.75-.75h-1.5c-.414 0-.75.336-.75.75s.336.75.75.75z"/></g></svg>