<svg clip-rule="evenodd" fill-rule="evenodd" height="512" stroke-linejoin="round" stroke-miterlimit="2" viewBox="0 0 24 24" width="512" xmlns="http://www.w3.org/2000/svg"><g id="Icon"><path d="m21.53 4.53c.293-.293.293-.767 0-1.06l-2-2c-.293-.293-.767-.293-1.06 0l-5 5c-.293.293-.293.767 0 1.06l2 2c.293.293.767.293 1.06 0zm-1.591-.53-3.939 3.939s-.939-.939-.939-.939 3.939-3.939 3.939-3.939z"/><path d="m14.75 11c0-1.518-1.232-2.75-2.75-2.75s-2.75 1.232-2.75 2.75 1.232 2.75 2.75 2.75 2.75-1.232 2.75-2.75zm-1.5 0c0 .69-.56 1.25-1.25 1.25s-1.25-.56-1.25-1.25.56-1.25 1.25-1.25 1.25.56 1.25 1.25z"/><path d="m14.47 7.47-1.59 1.59c-.293.292-.293.768 0 1.06.292.293.768.293 1.06 0l1.59-1.59c.293-.292.293-.768 0-1.06-.292-.293-.768-.293-1.06 0z"/><path d="m5.53 1.47c-.293-.293-.767-.293-1.06 0l-2 2c-.293.293-.293.767 0 1.06l5 5c.293.293.767.293 1.06 0l2-2c.293-.293.293-.767 0-1.06l-5-5zm-.53 1.591 3.939 3.939s-.939.939-.939.939-3.939-3.939-3.939-3.939z"/><path d="m8.47 8.53 1.59 1.59c.292.293.768.293 1.06 0 .293-.292.293-.768 0-1.06l-1.59-1.59c-.292-.293-.768-.293-1.06 0-.293.292-.293.768 0 1.06z"/><path d="m2.47 17.47c-.293.293-.293.767 0 1.06l2 2c.293.293.767.293 1.06 0l5-5c.293-.293.293-.767 0-1.06l-2-2c-.293-.293-.767-.293-1.06 0zm1.591.53 3.939-3.939s.939.939.939.939-3.939 3.939-3.939 3.939z"/><path d="m9.53 14.53 1.59-1.59c.293-.292.293-.768 0-1.06-.292-.293-.768-.293-1.06 0l-1.59 1.59c-.293.292-.293.768 0 1.06.292.293.768.293 1.06 0z"/><path d="m18.47 20.53c.293.293.767.293 1.06 0l2-2c.293-.293.293-.767 0-1.06l-5-5c-.293-.293-.767-.293-1.06 0l-2 2c-.293.293-.293.767 0 1.06zm.53-1.591-3.939-3.939s.939-.939.939-.939 3.939 3.939 3.939 3.939z"/><path d="m15.53 13.47-1.59-1.59c-.292-.293-.768-.293-1.06 0-.293.292-.293.768 0 1.06l1.59 1.59c.292.293.768.293 1.06 0 .293-.292.293-.768 0-1.06z"/><path d="m7 22.75h10c.414 0 .75-.336.75-.75s-.336-.75-.75-.75h-10c-.414 0-.75.336-.75.75s.336.75.75.75z"/><path d="m14.753 16.568.426 4.682h-6.358s.426-4.682.426-4.682c.037-.412-.267-.777-.679-.815-.412-.037-.777.267-.815.679l-.5 5.5c-.019.21.051.418.193.574.142.155.343.244.554.244h8c.211 0 .412-.089.554-.244.142-.156.212-.364.193-.574l-.5-5.5c-.038-.412-.403-.716-.815-.679-.412.038-.716.403-.679.815z"/><path d="m9.497 13.818.188-2.068h.315c.414 0 .75-.336.75-.75s-.336-.75-.75-.75h-1c-.388 0-.712.296-.747.682l-.25 2.75c-.037.412.267.777.679.815.412.037.777-.267.815-.679z"/><path d="m15.997 13.682-.25-2.75c-.035-.386-.359-.682-.747-.682h-1c-.414 0-.75.336-.75.75s.336.75.75.75h.315s.188 2.068.188 2.068c.038.412.403.716.815.679.412-.038.716-.403.679-.815z"/><path d="m14 11.75h3c.414 0 .75-.336.75-.75v-1c0-.694-.117-1.352-.348-1.965-.146-.387-.58-.583-.967-.437s-.583.58-.437.967c.169.447.252.929.252 1.435v.25h-2.25c-.414 0-.75.336-.75.75s.336.75.75.75z"/><path d="m10 10.25h-2.25v-.25c0-.506.083-.988.252-1.435.146-.387-.05-.821-.437-.967s-.821.05-.967.437c-.231.613-.348 1.271-.348 1.965v1c0 .414.336.75.75.75h3c.414 0 .75-.336.75-.75s-.336-.75-.75-.75z"/><path d="m9.453 6.597c.705-.534 1.588-.847 2.547-.847s1.842.313 2.547.847c.329.251.8.186 1.05-.144.251-.329.186-.8-.144-1.05-.955-.726-2.152-1.153-3.453-1.153s-2.498.427-3.453 1.153c-.33.25-.395.721-.144 1.05.25.33.721.395 1.05.144z"/></g></svg>