<svg clip-rule="evenodd" fill-rule="evenodd" height="512" stroke-linejoin="round" stroke-miterlimit="2" viewBox="0 0 24 24" width="512" xmlns="http://www.w3.org/2000/svg"><g id="Icon"><path d="m18.826 12.941 2.007 2.867c.192.273.18.641-.03.901-1.616 2.004-3.638 3.426-6.077 4.254-.316.107-.664-.007-.855-.28l-2.008-2.867c-.185-.264-.18-.618.012-.877 1.565-2.108 3.609-3.532 6.121-4.286.31-.093.644.023.83.288zm-.91 1.315c-1.795.633-3.299 1.682-4.506 3.154 0 0 1.359 1.941 1.359 1.941 1.758-.686 3.257-1.74 4.505-3.155z"/><path d="m17.263 13.323c-.238-.339-.155-.807.184-1.044.339-.238.807-.155 1.044.184l2.677 3.823c.237.339.155.807-.184 1.044-.339.238-.807.155-1.045-.184z"/><path d="m11.529 17.338c-.238-.339-.155-.807.184-1.044.339-.238.807-.155 1.044.184l2.677 3.823c.237.339.155.807-.184 1.044-.339.238-.807.155-1.045-.184z"/><path d="m17.244 19.399c-.237-.339-.155-.807.185-1.044.339-.238.807-.155 1.044.184l2.122 3.031c.238.339.155.807-.184 1.044-.339.238-.807.155-1.044-.184z"/><path d="m20.411 11c0 .414-.336.75-.75.75s-.75-.336-.75-.75v-3.172c0-.331-.132-.649-.366-.883l-3.829-3.829c-.234-.234-.552-.366-.883-.366h-8.387c-.331 0-.649.132-.884.366-.234.235-.366.552-.366.884v16c0 .332.132.649.366.884.235.234.553.366.884.366h6.108c.414 0 .75.336.75.75s-.336.75-.75.75h-6.108c-.729 0-1.428-.29-1.944-.805-.516-.516-.806-1.216-.806-1.945v-16c0-.729.29-1.429.806-1.945.516-.515 1.215-.805 1.944-.805h8.387c.729 0 1.428.29 1.944.805l3.829 3.829c.515.516.805 1.215.805 1.944z"/><path d="m13.911 2.5c0-.414.336-.75.75-.75s.75.336.75.75v3.5c0 .138.112.25.25.25h3.5c.414 0 .75.336.75.75s-.336.75-.75.75h-3.5c-.967 0-1.75-.783-1.75-1.75z"/><path d="m6.946 7.75c-.414 0-.75-.336-.75-.75s.336-.75.75-.75h3c.414 0 .75.336.75.75s-.336.75-.75.75z"/><path d="m6.946 13.75c-.414 0-.75-.336-.75-.75s.336-.75.75-.75h3c.414 0 .75.336.75.75s-.336.75-.75.75z"/><path d="m6.946 10.75c-.414 0-.75-.336-.75-.75s.336-.75.75-.75h6c.414 0 .75.336.75.75s-.336.75-.75.75z"/></g></svg>