<svg clip-rule="evenodd" fill-rule="evenodd" height="512" stroke-linejoin="round" stroke-miterlimit="2" viewBox="0 0 24 24" width="512" xmlns="http://www.w3.org/2000/svg"><g id="Icon"><path d="m21.75 10.467c0-1.157-.534-2.249-1.448-2.96-1.519-1.181-4.201-3.267-6-4.666-1.354-1.054-3.25-1.054-4.604 0-1.799 1.399-4.481 3.485-6 4.666-.914.711-1.448 1.803-1.448 2.96v8.533c0 2.071 1.679 3.75 3.75 3.75h12c2.071 0 3.75-1.679 3.75-3.75zm-1.5 0v8.533c0 1.243-1.007 2.25-2.25 2.25h-12c-1.243 0-2.25-1.007-2.25-2.25v-8.533c0-.694.321-1.35.869-1.776 1.518-1.181 4.201-3.267 6-4.666.812-.632 1.95-.632 2.762 0 1.799 1.399 4.482 3.485 6 4.666.548.426.869 1.082.869 1.776z"/><path d="m11.116 16.468c.488-.488 1.28-.488 1.768 0s.488 1.28 0 1.768-1.28.488-1.768 0-.488-1.28 0-1.768z"/><path d="m9.267 15.472c1.508-1.508 3.958-1.508 5.466 0 .293.293.768.293 1.061 0 .293-.292.293-.768 0-1.06-2.094-2.094-5.494-2.094-7.588 0-.293.292-.293.768 0 1.06.293.293.768.293 1.061 0z"/><path d="m6.873 12.872c2.83-2.829 7.424-2.829 10.254 0 .292.293.767.293 1.06 0s.293-.768 0-1.061c-3.415-3.415-8.959-3.415-12.374 0-.293.293-.293.768 0 1.061s.768.293 1.06 0z"/></g></svg>