<svg clip-rule="evenodd" fill-rule="evenodd" stroke-linejoin="round" stroke-miterlimit="2" viewBox="0 0 32 32" xmlns="http://www.w3.org/2000/svg" xmlns:serif="http://www.serif.com/"><path id="ic-integrated-circuit" d="m0 0h32v32h-32z" fill="none"/><path d="m8.998 6.999c.002-.342.004-.684.006-1.026.029-1.541 1.34-2.93 2.961-2.96 2.689-.017 5.379-.017 8.069 0 1.548.028 2.931 1.365 2.961 2.96.002.345.004.689.006 1.033 1.011-.006 2.022-.015 3.032.005.868.052 1.315 1.423.419 1.886-.14.073-.297.108-.459.112h-2.982c.003.665.005 1.33.007 1.995 1.005-.006 2.01-.016 3.015.004.868.052 1.315 1.424.419 1.887-.14.072-.297.108-.459.111h-2.97c.002.665.002 1.33.003 1.995 1.002-.006 2.005-.015 3.007.005.868.052 1.315 1.423.419 1.886-.14.073-.297.109-.459.112h-2.967c-.001.665-.001 1.33-.003 1.995 1.004-.006 2.007-.016 3.01.004.866.052 1.315 1.424.419 1.887-.14.072-.297.108-.459.111h-2.975c-.002.665-.004 1.33-.007 1.995 1.007-.006 2.015-.015 3.022.005.871.052 1.325 1.418.419 1.886-.14.073-.297.109-.459.112h-2.992c-.002.345-.004.691-.006 1.036-.029 1.554-1.362 2.951-2.995 2.961 0 0-.966-.215-1.001-.951-.026-.547.414-1.044 1.01-1.047.516-.01.971-.455.987-.975.037-1.991.063-3.982.078-5.973-.02-.126-.02-.253.003-.373.008-1.15.012-2.3.012-3.45-.059-.2-.064-.414 0-.607-.001-1.187-.005-2.374-.014-3.561-.019-.118-.021-.237-.003-.351-.015-1.908-.04-3.815-.076-5.722-.016-.508-.46-.959-.974-.975-.694-.013-1.389-.022-2.083-.028-.14.951-.557 1.798-1.562 1.991-1.134.217-2.353-.711-2.376-1.937l-.001-.054c-.674.006-1.349.016-2.023.028-.507.016-.958.46-.974.975-.036 1.949-.062 3.899-.077 5.85.038.165.039.337-.004.498-.008 1.142-.012 2.285-.012 3.428.06.203.066.422 0 .62.001 1.156.005 2.312.013 3.468.032.147.035.299.004.442.015 1.911.04 3.821.076 5.731.016.516.477.971 1.002.975h3.994c.913.043.98.557.999.951.025.538-.443 1.021-.999 1.047-1.344 0-2.689.009-4.034 0-1.547-.029-2.931-1.366-2.961-2.961-.002-.345-.004-.691-.006-1.036h-2.992c-.878-.018-1.374-1.415-.459-1.887.14-.073.297-.109.459-.112.994 0 1.988-.014 2.982-.011-.003-.662-.005-1.325-.007-1.988h-2.975c-.886-.017-1.383-1.409-.459-1.887.14-.073.297-.108.459-.111.99 0 1.98-.015 2.97-.011-.002-.663-.002-1.326-.003-1.988h-2.967c-.89-.018-1.384-1.456-.424-1.905.132-.061.276-.091.424-.094.989 0 1.978-.014 2.967-.011.001-.662.001-1.325.003-1.988h-2.97c-.874-.017-1.359-1.422-.459-1.887.14-.073.297-.108.459-.112.991 0 1.983-.014 2.975-.01.002-.663.004-1.326.007-1.988h-2.982c-.878-.018-1.374-1.415-.459-1.887.14-.073.297-.109.459-.112.997 0 1.995-.014 2.992-.011z"/></svg>