<svg clip-rule="evenodd" fill-rule="evenodd" height="512" stroke-linejoin="round" stroke-miterlimit="2" viewBox="0 0 24 24" width="512" xmlns="http://www.w3.org/2000/svg"><g id="Icon"><path d="m16.75 5c0-2.071-1.679-3.75-3.75-3.75h-2c-2.071 0-3.75 1.679-3.75 3.75v8c0 2.071 1.679 3.75 3.75 3.75h2c2.071 0 3.75-1.679 3.75-3.75zm-1.5 0v8c0 1.243-1.007 2.25-2.25 2.25h-2c-1.243 0-2.25-1.007-2.25-2.25v-8c0-1.243 1.007-2.25 2.25-2.25h2c1.243 0 2.25 1.007 2.25 2.25z"/><path d="m4.963 14.187c.749 2.911 3.392 5.063 6.537 5.063h1c3.145 0 5.788-2.152 6.537-5.063.103-.401-.138-.81-.539-.913-.401-.104-.81.138-.913.539-.583 2.264-2.639 3.937-5.085 3.937-.333 0-.667 0-1 0-2.446 0-4.502-1.673-5.085-3.937-.103-.401-.512-.643-.913-.539-.401.103-.642.512-.539.913z"/><path d="m11.25 18.5v3.5c0 .414.336.75.75.75s.75-.336.75-.75v-3.5c0-.414-.336-.75-.75-.75s-.75.336-.75.75z"/><path d="m14.5 21.25h-5c-.414 0-.75.336-.75.75s.336.75.75.75h5c.414 0 .75-.336.75-.75s-.336-.75-.75-.75z"/><path d="m16 5.25h-2.5c-.414 0-.75.336-.75.75s.336.75.75.75h2.5c.414 0 .75-.336.75-.75s-.336-.75-.75-.75z"/><path d="m10.5 5.25h-2.5c-.414 0-.75.336-.75.75s.336.75.75.75h2.5c.414 0 .75-.336.75-.75s-.336-.75-.75-.75z"/><path d="m16 8.25h-2.5c-.414 0-.75.336-.75.75s.336.75.75.75h2.5c.414 0 .75-.336.75-.75s-.336-.75-.75-.75z"/><path d="m10.5 8.25h-2.5c-.414 0-.75.336-.75.75s.336.75.75.75h2.5c.414 0 .75-.336.75-.75s-.336-.75-.75-.75z"/><path d="m16 11.25h-2.5c-.414 0-.75.336-.75.75s.336.75.75.75h2.5c.414 0 .75-.336.75-.75s-.336-.75-.75-.75z"/><path d="m10.5 11.25h-2.5c-.414 0-.75.336-.75.75s.336.75.75.75h2.5c.414 0 .75-.336.75-.75s-.336-.75-.75-.75z"/><path d="m18.25 6.5v3c0 .414.336.75.75.75s.75-.336.75-.75v-3c0-.414-.336-.75-.75-.75s-.75.336-.75.75z"/><path d="m4.25 6.5v3c0 .414.336.75.75.75s.75-.336.75-.75v-3c0-.414-.336-.75-.75-.75s-.75.336-.75.75z"/><path d="m20.75 5v6c0 .414.336.75.75.75s.75-.336.75-.75v-6c0-.414-.336-.75-.75-.75s-.75.336-.75.75z"/><path d="m1.75 5v6c0 .414.336.75.75.75s.75-.336.75-.75v-6c0-.414-.336-.75-.75-.75s-.75.336-.75.75z"/></g></svg>