<svg clip-rule="evenodd" fill-rule="evenodd" height="512" stroke-linejoin="round" stroke-miterlimit="2" viewBox="0 0 24 24" width="512" xmlns="http://www.w3.org/2000/svg"><g id="Icon"><path d="m17 18.75c.966 0 1.75-.782 1.75-1.75v-9c0-.968-.784-1.75-1.75-1.75h-14c-.966 0-1.75.782-1.75 1.75v9c0 .968.784 1.75 1.75 1.75zm0-1.5h-14c-.138 0-.25-.112-.25-.25v-9c0-.138.112-.25.25-.25h14c.138 0 .25.112.25.25v9c0 .138-.112.25-.25.25z"/><path d="m14.75 4v-1c0-.138.112-.25.25-.25h6c.138 0 .25.112.25.25v18c0 .138-.112.25-.25.25h-6c-.138 0-.25-.112-.25-.25v-2.25h2.25c.966 0 1.75-.782 1.75-1.75v-6c0-.414-.336-.75-.75-.75s-.75.336-.75.75v6c0 .138-.112.25-.25.25h-3c-.414 0-.75.336-.75.75v3c0 .968.784 1.75 1.75 1.75h6c.966 0 1.75-.782 1.75-1.75v-18c0-.968-.784-1.75-1.75-1.75h-6c-.966 0-1.75.782-1.75 1.75v1c0 .414.336.75.75.75s.75-.336.75-.75z"/><path d="m9.25 18v4c0 .414.336.75.75.75s.75-.336.75-.75v-4c0-.414-.336-.75-.75-.75s-.75.336-.75.75z"/><path d="m8 22.75h4c.414 0 .75-.336.75-.75s-.336-.75-.75-.75h-4c-.414 0-.75.336-.75.75s.336.75.75.75z"/></g></svg>