<svg clip-rule="evenodd" fill-rule="evenodd" height="512" stroke-linejoin="round" stroke-miterlimit="2" viewBox="0 0 24 24" width="512" xmlns="http://www.w3.org/2000/svg"><g id="Icon"><path d="m11.904 6.046-1.902 2.5c-.172.227-.201.532-.075.787.127.255.387.417.672.417h1.289s-.986 1.296-.986 1.296c-.25.329-.186.8.143 1.051.33.251.801.186 1.051-.143l1.902-2.5c.172-.227.201-.532.075-.787-.127-.255-.387-.417-.672-.417h-1.289s.986-1.296.986-1.296c.25-.329.186-.8-.143-1.051-.33-.251-.801-.186-1.051.143z"/><path d="m12 1.25c-4.277 0-7.75 3.473-7.75 7.75 0 2.111 1.151 4.739 2.57 7.12 2.051 3.443 4.616 6.374 4.616 6.374.142.163.348.256.564.256s.422-.093.564-.256c0 0 2.565-2.931 4.616-6.374 1.419-2.381 2.57-5.009 2.57-7.12 0-4.277-3.473-7.75-7.75-7.75zm0 1.5c3.449 0 6.25 2.801 6.25 6.25 0 1.889-1.089 4.221-2.358 6.352-1.4 2.349-3.046 4.451-3.892 5.482-.846-1.031-2.492-3.133-3.892-5.482-1.269-2.131-2.358-4.463-2.358-6.352 0-3.449 2.801-6.25 6.25-6.25z"/><path d="m12 3.75c-2.898 0-5.25 2.352-5.25 5.25s2.352 5.25 5.25 5.25 5.25-2.352 5.25-5.25-2.352-5.25-5.25-5.25zm0 1.5c2.07 0 3.75 1.68 3.75 3.75s-1.68 3.75-3.75 3.75-3.75-1.68-3.75-3.75 1.68-3.75 3.75-3.75z"/></g></svg>