<svg clip-rule="evenodd" fill-rule="evenodd" height="512" stroke-linejoin="round" stroke-miterlimit="2" viewBox="0 0 24 24" width="512" xmlns="http://www.w3.org/2000/svg"><g id="Icon"><path d="m3.25 15.5c0 1.794 1.456 3.25 3.25 3.25s3.25-1.456 3.25-3.25-1.456-3.25-3.25-3.25-3.25 1.456-3.25 3.25zm1.5 0c0-.966.784-1.75 1.75-1.75s1.75.784 1.75 1.75-.784 1.75-1.75 1.75-1.75-.784-1.75-1.75z"/><path d="m3.251 11.687c-.323-.684-.501-1.419-.501-2.187 0-3.794 4.191-6.75 9.25-6.75s9.25 2.956 9.25 6.75c0 3.795-4.191 6.75-9.25 6.75-1.075 0-2.108-.134-3.07-.383-.401-.104-.81.137-.914.538-.103.401.138.81.539.914 1.079.279 2.239.431 3.445.431 5.987 0 10.75-3.759 10.75-8.25 0-4.49-4.763-8.25-10.75-8.25s-10.75 3.76-10.75 8.25c0 .992.227 1.943.644 2.827.177.374.624.535.998.358.375-.176.535-.624.359-.998z"/><path d="m5.25 18c0 1.795-1.455 3.25-3.25 3.25-.414 0-.75.336-.75.75s.336.75.75.75c2.623 0 4.75-2.127 4.75-4.75 0-.414-.336-.75-.75-.75s-.75.336-.75.75z"/></g></svg>