<svg clip-rule="evenodd" fill-rule="evenodd" height="512" stroke-linejoin="round" stroke-miterlimit="2" viewBox="0 0 24 24" width="512" xmlns="http://www.w3.org/2000/svg"><g id="Icon"><path d="m12 1.25c-5.779 0-10.463 4.684-10.463 10.463v4.543c0 2.772 1.942 5.165 4.654 5.736.477.1.964.203 1.442.303 2.88.607 5.854.607 8.734 0 .478-.1.965-.203 1.442-.303 2.712-.571 4.654-2.964 4.654-5.736 0-1.365 0-2.944 0-4.543 0-5.779-4.684-10.463-10.463-10.463zm0 1.5c4.95 0 8.963 4.013 8.963 8.963v4.543c0 2.062-1.445 3.843-3.464 4.268-.476.1-.963.203-1.441.303-2.676.564-5.44.564-8.116 0-.478-.1-.965-.203-1.441-.303-2.019-.425-3.464-2.206-3.464-4.268v-4.543c0-4.95 4.013-8.963 8.963-8.963z"/><path d="m5.585 20.293s-.906-5.964.407-9.712c.378-1.08.933-1.975 1.833-2.368.928-.405 2.167-.253 3.837.591.212.107.464.107.676 0 1.67-.844 2.909-.996 3.837-.591.9.393 1.455 1.288 1.833 2.368 1.313 3.748.407 9.712.407 9.712-.061.409.222.791.631.852.41.061.792-.222.853-.631 0 0 .935-6.403-.475-10.429-.53-1.511-1.39-2.697-2.649-3.246-1.169-.51-2.727-.497-4.775.462-2.048-.959-3.606-.972-4.775-.462-1.259.549-2.119 1.735-2.649 3.246-1.41 4.026-.475 10.429-.475 10.429.061.409.443.692.853.631.409-.061.692-.443.631-.852z"/><path d="m14.828 10.69v1.023c0 .414.337.75.75.75.414 0 .75-.336.75-.75v-1.023c0-.413-.336-.75-.75-.75-.413 0-.75.337-.75.75z"/><path d="m7.672 10.69v1.023c0 .414.336.75.75.75.413 0 .75-.336.75-.75v-1.023c0-.413-.337-.75-.75-.75-.414 0-.75.337-.75.75z"/><path d="m12 12.497c-1.825 0-3.306 1.481-3.306 3.306 0 .994.476 2.313 1.221 3.205.578.692 1.314 1.123 2.085 1.123s1.507-.431 2.085-1.123c.745-.892 1.221-2.211 1.221-3.205 0-1.825-1.481-3.306-3.306-3.306zm0 1.5c.997 0 1.806.809 1.806 1.806 0 .698-.349 1.617-.872 2.244-.269.322-.576.584-.934.584s-.665-.262-.934-.584c-.523-.627-.872-1.546-.872-2.244 0-.997.809-1.806 1.806-1.806z"/><path d="m12 15.887-1.595-1.196c-.331-.248-.801-.181-1.05.15-.248.332-.181.802.15 1.05 0 0 1.177.883 1.745 1.309.444.333 1.056.333 1.5 0 .568-.426 1.745-1.309 1.745-1.309.331-.248.398-.718.15-1.05-.249-.331-.719-.398-1.05-.15z"/></g></svg>