<svg clip-rule="evenodd" fill-rule="evenodd" height="512" stroke-linejoin="round" stroke-miterlimit="2" viewBox="0 0 24 24" width="512" xmlns="http://www.w3.org/2000/svg"><g id="Icon"><path d="m1.603 12.636 3.27 2.044c.596.372 1.285.57 1.987.57h.76c.657 0 1.281.287 1.709.786l1.051 1.227c.492.574.663 1.356.456 2.082-.268.936-.557 1.949-.557 1.949-.114.398.117.813.515.927s.813-.117.927-.515c0 0 .289-1.013.557-1.949.346-1.21.061-2.514-.759-3.47-.343-.401-.721-.841-1.052-1.227-.712-.832-1.752-1.31-2.847-1.31h-.76c-.421 0-.834-.118-1.192-.342 0 0-3.271-2.044-3.271-2.044-.351-.219-.814-.113-1.033.239-.219.351-.113.814.239 1.033z"/><path d="m3.573 7.608 3.751-.368c.457-.045.9.164 1.157.543l1.782 2.63c.387.572.974.976 1.645 1.135l.545.128c.768.182 1.576.024 2.22-.431.644-.456 1.061-1.166 1.146-1.95 0 0 .138-1.28.138-1.28.039-.362.235-.69.535-.896 0 0 2.432-1.668 2.432-1.668.342-.235.429-.702.194-1.043-.234-.342-.701-.429-1.042-.194l-2.432 1.668c-.662.454-1.093 1.175-1.179 1.973l-.138 1.279c-.038.356-.228.679-.52.886-.293.207-.66.279-1.009.197l-.545-.129c-.306-.072-.572-.256-.748-.516l-1.782-2.63c-.565-.835-1.542-1.293-2.545-1.195 0 0-3.751.368-3.751.368-.412.041-.714.408-.673.82.04.412.407.713.819.673z"/><path d="m12 21.25c-5.105 0-9.25-4.145-9.25-9.25s4.145-9.25 9.25-9.25 9.25 4.145 9.25 9.25c0 .634-.064 1.253-.185 1.851-.083.405.18.801.585.884.406.082.802-.18.885-.586.141-.694.215-1.413.215-2.149 0-5.933-4.817-10.75-10.75-10.75s-10.75 4.817-10.75 10.75 4.817 10.75 10.75 10.75c.414 0 .75-.336.75-.75s-.336-.75-.75-.75z"/><path d="m17.75 15.752h-2.45c-.278 0-.546.11-.742.307-.197.197-.308.464-.308.743v2.4c0 .278.111.545.308.742.196.197.464.308.742.308h2.45v.951c0 .438.271.829.681.983.409.154.871.038 1.159-.291l2.974-3.4c.248-.282.248-.705 0-.987l-2.974-3.399c-.288-.33-.75-.446-1.159-.292-.41.154-.681.546-.681.983zm1.5.246 1.753 2.004-1.753 2.003v-.503c0-.415-.336-.75-.75-.75h-2.75v-1.5h2.75c.414 0 .75-.336.75-.75z"/></g></svg>