<svg clip-rule="evenodd" fill-rule="evenodd" height="512" stroke-linejoin="round" stroke-miterlimit="2" viewBox="0 0 24 24" width="512" xmlns="http://www.w3.org/2000/svg"><g id="Icon"><path d="m7.175 10.9c-3.27 0-5.925 2.655-5.925 5.925s2.655 5.925 5.925 5.925 5.925-2.655 5.925-5.925-2.655-5.925-5.925-5.925zm0 1.5c2.442 0 4.425 1.983 4.425 4.425s-1.983 4.425-4.425 4.425-4.425-1.983-4.425-4.425 1.983-4.425 4.425-4.425z"/><path d="m7.175 10.9c-.546 0-1.091.282-1.545.87-.732.949-1.275 2.852-1.275 5.055s.543 4.106 1.275 5.055c.454.588.999.87 1.545.87s1.091-.282 1.545-.87c.732-.949 1.275-2.852 1.275-5.055s-.543-4.106-1.275-5.055c-.454-.588-.999-.87-1.545-.87zm0 1.5c.091 0 .162.073.242.153.116.118.222.273.322.455.469.86.756 2.252.756 3.817s-.287 2.957-.756 3.817c-.1.182-.206.337-.322.455-.08.08-.151.153-.242.153s-.162-.073-.242-.153c-.116-.118-.222-.273-.322-.455-.469-.86-.756-2.252-.756-3.817s.287-2.957.756-3.817c.1-.182.206-.337.322-.455.08-.08.151-.153.242-.153z"/><path d="m11.941 14.36-9.531-.01c-.414 0-.75.335-.75.749-.001.414.335.751.749.751l9.531.01c.414.001.75-.335.75-.749.001-.414-.335-.75-.749-.751z"/><path d="m11.941 17.81-9.531-.01c-.414 0-.75.335-.75.749-.001.414.335.751.749.751l9.531.01c.414.001.75-.335.75-.749.001-.414-.335-.75-.749-.751z"/><path d="m2.75 9.5v-4.5c0-.597.237-1.169.659-1.591s.994-.659 1.591-.659h3.5c.414 0 .75-.336.75-.75s-.336-.75-.75-.75c0 0-1.796 0-3.5 0-.995 0-1.948.395-2.652 1.098-.703.704-1.098 1.657-1.098 2.652v4.5c0 .414.336.75.75.75s.75-.336.75-.75z"/><path d="m21.25 12.5v6.5c0 .597-.237 1.169-.659 1.591s-.994.659-1.591.659h-4.5c-.414 0-.75.336-.75.75s.336.75.75.75h4.5c.995 0 1.948-.395 2.652-1.098.703-.704 1.098-1.657 1.098-2.652 0-2.784 0-6.5 0-6.5 0-.414-.336-.75-.75-.75s-.75.336-.75.75z"/><path d="m11.409 4.253c-.075-.005-.15-.008-.226-.008-1.792 0-3.246 1.455-3.246 3.247 0 1.791 1.454 3.246 3.246 3.246h7.822c2.067 0 3.745-1.678 3.745-3.746 0-2.067-1.678-3.745-3.745-3.745-.052 0-.102.001-.153.003-.71-1.197-2.016-2-3.509-2-1.878 0-3.462 1.273-3.934 3.003zm.359 1.593c.223.079.47.049.667-.082.197-.13.321-.346.334-.582.076-1.355 1.201-2.432 2.574-2.432 1.074 0 1.995.658 2.383 1.592.137.33.488.518.839.448.142-.028.289-.043.44-.043 1.239 0 2.245 1.006 2.245 2.245 0 1.24-1.006 2.246-2.245 2.246 0 0-7.766 0-7.822 0-.964 0-1.746-.783-1.746-1.746 0-.964.782-1.747 1.746-1.747.205 0 .402.036.585.101z"/></g></svg>