<svg clip-rule="evenodd" fill-rule="evenodd" height="512" stroke-linejoin="round" stroke-miterlimit="2" viewBox="0 0 24 24" width="512" xmlns="http://www.w3.org/2000/svg"><g id="Icon"><path d="m6.5 14.75c-1.518 0-2.75 1.232-2.75 2.75s1.232 2.75 2.75 2.75 2.75-1.232 2.75-2.75-1.232-2.75-2.75-2.75zm0 1.5c.69 0 1.25.56 1.25 1.25s-.56 1.25-1.25 1.25-1.25-.56-1.25-1.25.56-1.25 1.25-1.25z"/><path d="m17 14.75c-1.518 0-2.75 1.232-2.75 2.75s1.232 2.75 2.75 2.75 2.75-1.232 2.75-2.75-1.232-2.75-2.75-2.75zm0 1.5c.69 0 1.25.56 1.25 1.25s-.56 1.25-1.25 1.25-1.25-.56-1.25-1.25.56-1.25 1.25-1.25z"/><path d="m4.5 16.75h-1.5c-.138 0-.25-.112-.25-.25v-3.75h9.75c.464 0 .909-.184 1.237-.513.329-.328.513-.773.513-1.237v-4.75h4.215c.083 0 .161.042.208.111l2.535 3.803c.027.041.042.089.042.139v6.197c0 .138-.112.25-.25.25h-2c-.414 0-.75.336-.75.75s.336.75.75.75h2c.967 0 1.75-.784 1.75-1.75 0-1.722 0-5.16 0-6.197 0-.346-.102-.683-.294-.971-.488-.733-1.913-2.869-2.535-3.803-.325-.487-.871-.779-1.456-.779h-4.965c-.414 0-.75.336-.75.75v5.5c0 .066-.026.13-.073.177s-.111.073-.177.073h-10.5c-.414 0-.75.336-.75.75v4.5c0 .967.784 1.75 1.75 1.75h1.5c.414 0 .75-.336.75-.75s-.336-.75-.75-.75z"/><path d="m2 12.75h10.5c.464 0 .909-.184 1.237-.513.329-.328.513-.773.513-1.237 0-2.042 0-6.5 0-6.5 0-.414-.336-.75-.75-.75s-.75.336-.75.75v6.5c0 .066-.026.13-.073.177s-.111.073-.177.073h-10.5c-.414 0-.75.336-.75.75s.336.75.75.75z"/><path d="m8.5 18.25h6.5c.414 0 .75-.336.75-.75s-.336-.75-.75-.75h-6.5c-.414 0-.75.336-.75.75s.336.75.75.75z"/><path d="m20.5 7.25h-3c-.414 0-.75.336-.75.75v4c0 .414.336.75.75.75h4.5c.414 0 .75-.336.75-.75s-.336-.75-.75-.75h-3.75v-2.5h2.25c.414 0 .75-.336.75-.75s-.336-.75-.75-.75z"/><path d="m18 6.25h2c.414 0 .75-.336.75-.75s-.336-.75-.75-.75h-2c-.414 0-.75.336-.75.75s.336.75.75.75z"/><path d="m12.75 10v7.5c0 .414.336.75.75.75s.75-.336.75-.75v-7.5c0-.414-.336-.75-.75-.75s-.75.336-.75.75z"/></g></svg>