<svg clip-rule="evenodd" fill-rule="evenodd" height="512" stroke-linejoin="round" stroke-miterlimit="2" viewBox="0 0 24 24" width="512" xmlns="http://www.w3.org/2000/svg"><g id="Icon"><path d="m5.25 9.5v5.5c0 1.243 1.007 2.25 2.25 2.25h5.5c.414 0 .75-.336.75-.75s-.336-.75-.75-.75h-5.5c-.414 0-.75-.336-.75-.75v-5.5c0-.414-.336-.75-.75-.75s-.75.336-.75.75z"/><path d="m16.5 17.25c1.243 0 2.25-1.007 2.25-2.25v-6c0-1.243-1.007-2.25-2.25-2.25h-9c-.414 0-.75.336-.75.75s.336.75.75.75h9c.414 0 .75.336.75.75v6c0 .414-.336.75-.75.75s-.75.336-.75.75.336.75.75.75z"/><path d="m7 9.75h-1c-.414 0-.75.336-.75.75s.336.75.75.75h1c.414 0 .75-.336.75-.75s-.336-.75-.75-.75z"/><path d="m18 9.75h-7c-.414 0-.75.336-.75.75s.336.75.75.75h7c.414 0 .75-.336.75-.75s-.336-.75-.75-.75z"/><path d="m8.1 13.95h1.2c.414 0 .75-.336.75-.75s-.336-.75-.75-.75h-1.2c-.414 0-.75.336-.75.75s.336.75.75.75z"/><path d="m12 1.25c-5.933 0-10.75 4.817-10.75 10.75s4.817 10.75 10.75 10.75 10.75-4.817 10.75-10.75-4.817-10.75-10.75-10.75zm0 1.5c5.105 0 9.25 4.145 9.25 9.25s-4.145 9.25-9.25 9.25-9.25-4.145-9.25-9.25 4.145-9.25 9.25-9.25z"/><path d="m19.601 18.541-14.142-14.142c-.292-.293-.768-.293-1.06 0-.293.292-.293.768 0 1.06l14.142 14.142c.292.293.768.293 1.06 0 .293-.292.293-.768 0-1.06z"/></g></svg>