<svg clip-rule="evenodd" fill-rule="evenodd" height="512" stroke-linejoin="round" stroke-miterlimit="2" viewBox="0 0 24 24" width="512" xmlns="http://www.w3.org/2000/svg"><g id="Icon"><path d="m19.737 7.298-8 3c-.293.11-.487.389-.487.702v11c0 .246.121.476.323.616.202.141.46.173.69.086 0 0 5.446-2.042 7.351-2.756.684-.257 1.136-.91 1.136-1.639 0-1.579 0-5.307 0-5.307 0-.414-.336-.75-.75-.75s-.75.336-.75.75v5.307c0 .104-.065.197-.162.234 0 0-6.338 2.377-6.338 2.377v-9.398s7.513-2.818 7.513-2.818c.388-.145.585-.578.439-.965-.145-.388-.578-.585-.965-.439z"/><path d="m3.737 8.702 7.513 2.818v9.398s-6.338-2.377-6.338-2.377c-.097-.037-.162-.13-.162-.234v-5.307c0-.414-.336-.75-.75-.75s-.75.336-.75.75v5.307c0 .729.452 1.382 1.136 1.639l7.351 2.756c.23.087.488.055.69-.086.202-.14.323-.37.323-.616v-11c0-.313-.194-.592-.487-.702l-8-3c-.387-.146-.82.051-.965.439-.146.387.051.82.439.965z"/><path d="m20.671 7.665c-.172-.344-.575-.502-.934-.367l-8 3c-.199.074-.357.23-.435.428s-.068.419.027.609l2 4c.172.344.575.502.934.367l8-3c.199-.074.357-.23.435-.428s.068-.419-.027-.609zm-1.04 1.274 1.326 2.651s-6.588 2.471-6.588 2.471-1.326-2.651-1.326-2.651z"/><path d="m4.263 7.298c-.359-.135-.762.023-.934.367l-2 4c-.095.19-.105.411-.027.609s.236.354.435.428l8 3c.359.135.762-.023.934-.367l2-4c.095-.19.105-.411.027-.609s-.236-.354-.435-.428zm.106 1.641 6.588 2.471s-1.326 2.651-1.326 2.651-6.588-2.471-6.588-2.471z"/><path d="m4.263 8.702 3.5-1.312c.388-.146.585-.578.439-.966-.145-.387-.578-.584-.965-.439l-3.5 1.313c-.388.145-.585.578-.439.965.145.388.578.585.965.439z"/><path d="m16.237 7.39 3.5 1.312c.387.146.82-.051.965-.439.146-.387-.051-.82-.439-.965l-3.5-1.313c-.387-.145-.82.052-.965.439-.146.388.051.82.439.966z"/><path d="m12.75 7.5v-5c0-.414-.336-.75-.75-.75s-.75.336-.75.75v5c0 .414.336.75.75.75s.75-.336.75-.75z"/><path d="m10.03 5.03 1.97-1.969s1.97 1.969 1.97 1.969c.292.293.768.293 1.06 0 .293-.292.293-.768 0-1.06l-2.5-2.5c-.293-.293-.767-.293-1.06 0l-2.5 2.5c-.293.292-.293.768 0 1.06.292.293.768.293 1.06 0z"/></g></svg>