<svg clip-rule="evenodd" fill-rule="evenodd" height="512" stroke-linejoin="round" stroke-miterlimit="2" viewBox="0 0 24 24" width="512" xmlns="http://www.w3.org/2000/svg"><g id="Icon"><path d="m14.75 19c0-.414-.336-.75-.75-.75h-4c-.414 0-.75.336-.75.75v3c0 .414.336.75.75.75h4c.414 0 .75-.336.75-.75zm-1.5.75v1.5h-2.5v-1.5z"/><path d="m8.179 10.25-2.296 3.324c-.159.229-.177.528-.047.774.129.247.385.402.664.402h.816s-2.449 3.847-2.449 3.847c-.147.231-.156.524-.024.764.131.24.383.389.657.389h13c.274 0 .526-.149.657-.389.132-.24.123-.533-.024-.764l-2.449-3.847h.816c.279 0 .535-.155.664-.402.13-.246.112-.545-.047-.774l-2.296-3.324h.679c.27 0 .52-.145.653-.38.133-.236.129-.524-.01-.756l-4.5-7.5c-.135-.226-.38-.364-.643-.364s-.508.138-.643.364l-4.5 7.5c-.139.232-.143.52-.01.756.133.235.383.38.653.38zm2.046-.324c.159-.229.177-.528.048-.774-.13-.247-.386-.402-.665-.402h-.783s3.175-5.292 3.175-5.292 3.175 5.292 3.175 5.292h-.783c-.279 0-.535.155-.665.402-.129.246-.111.545.048.774l2.295 3.324h-.752c-.274 0-.526.149-.657.389-.132.24-.123.533.024.764l2.449 3.847h-10.268s2.449-3.847 2.449-3.847c.147-.231.156-.524.024-.764-.131-.24-.383-.389-.657-.389h-.752s2.295-3.324 2.295-3.324z"/></g></svg>