<svg clip-rule="evenodd" fill-rule="evenodd" stroke-linejoin="round" stroke-miterlimit="1.414" viewBox="0 0 32 32" xmlns="http://www.w3.org/2000/svg" xmlns:serif="http://www.serif.com/"><path id="location-hospital-health-heal" d="m0 0h32v32h-32z" fill="none"/><path d="m16.084 3c3.866.035 7.626 2.249 9.505 5.62 2.293 4.116 1.588 9.643-1.824 13.076l-7.043 7.043c-.064.058-.078.075-.151.124-.651.435-1.776-.226-1.506-1.117.047-.156.138-.293.249-.415 2.361-2.361 4.729-4.715 7.082-7.083 2.514-2.562 3.262-6.654 1.82-9.922-1.089-2.466-3.346-4.382-5.958-5.052-3.824-.982-8.222.843-10.15 4.46-1.781 3.34-1.191 7.774 1.574 10.556l4.083 4.083c.058.065.075.079.124.151.438.657-.262 1.766-1.117 1.507-.156-.048-.293-.138-.415-.249l-4.086-4.086c-2.602-2.619-3.744-6.572-2.937-10.159 1.066-4.742 5.608-8.463 10.553-8.536.065-.001.131-.001.197-.001zm-1.062 10.028v-2.988c.005-.181.022-.232.056-.329.123-.351.455-.618.828-.66.108-.012.133-.006.168-.005.181.015.23.035.325.074.326.135.569.455.608.809.006.049.005.062.007.111v2.988h2.987c.019 0 .037.001.056.001.228.02.301.054.426.123.576.319.675 1.272.094 1.684-.121.086-.262.144-.409.169-.055.01-.111.013-.167.014h-2.987v2.988c-.007.228-.037.303-.099.432-.293.608-1.281.748-1.709.144-.087-.122-.145-.262-.17-.409-.009-.055-.012-.111-.014-.167v-2.988h-2.987c-.752-.021-1.296-1.04-.743-1.659.187-.209.378-.322.743-.332z" fill-rule="nonzero"/></svg>