<svg clip-rule="evenodd" fill-rule="evenodd" height="512" stroke-linejoin="round" stroke-miterlimit="2" viewBox="0 0 24 24" width="512" xmlns="http://www.w3.org/2000/svg"><g id="Icon"><path d="m1.301 12.934c-.37 1.694 1.298 3.117 2.912 2.486l4.97-1.945c.902-.353 1.401-1.323 1.162-2.261-.267-1.05-1.348-1.671-2.389-1.373l-5.131 1.469c-.768.22-1.354.844-1.524 1.624zm1.466.32c.052-.242.234-.434.471-.502 0 0 5.13-1.469 5.13-1.469.228-.065.465.071.523.3v.002c.053.205-.057.416-.255.493l-4.97 1.945c-.499.195-1.014-.245-.899-.769z"/><path d="m11.066 22.699c.78-.17 1.404-.755 1.625-1.523l1.469-5.132c.297-1.041-.324-2.122-1.374-2.388-.938-.24-1.907.259-2.261 1.161l-1.944 4.971c-.632 1.613.792 3.281 2.485 2.911zm-.319-1.466s-.001 0-.001.001c-.523.114-.964-.401-.768-.9l1.944-4.97c.077-.197.289-.307.494-.255 0 0 .001 0 .001.001.23.058.365.295.3.523 0 0-1.468 5.129-1.468 5.129-.068.238-.261.419-.502.471z"/><path d="m14.798 12.013c0-1.551-1.26-2.811-2.811-2.811-1.552 0-2.811 1.26-2.811 2.811 0 1.552 1.259 2.811 2.811 2.811 1.551 0 2.811-1.259 2.811-2.811zm-1.5 0c0 .724-.587 1.311-1.311 1.311s-1.311-.587-1.311-1.311.587-1.311 1.311-1.311 1.311.587 1.311 1.311z"/><path d="m11.987 10.76c.381 0 .718.178.948.447.166.195.42.291.674.256.254-.036.472-.198.578-.431l3.989-8.72c.123-.269.077-.584-.118-.807-.195-.222-.502-.309-.784-.222-3.933 1.21-6.627 4.782-6.764 8.843-.009.252.11.491.316.637.205.146.471.179.705.087.142-.055.295-.09.456-.09zm.105-1.498c.359-2.423 1.802-4.555 3.904-5.789 0 0-2.782 6.08-2.782 6.08-.339-.172-.719-.276-1.122-.291z"/><path d="m13.24 12.013c0 .161-.035.314-.091.457-.091.234-.058.499.088.705.146.205.385.324.637.315 4.061-.137 7.633-2.831 8.843-6.764.087-.282 0-.589-.222-.784-.223-.195-.538-.241-.807-.118l-8.72 3.989c-.233.106-.396.325-.431.579-.035.253.062.508.257.674.269.229.446.565.446.947zm1.498-.105c-.015-.404-.119-.783-.291-1.122 0 0 6.08-2.782 6.08-2.782-1.234 2.102-3.366 3.545-5.789 3.904z"/></g></svg>