<svg clip-rule="evenodd" fill-rule="evenodd" height="512" stroke-linejoin="round" stroke-miterlimit="2" viewBox="0 0 24 24" width="512" xmlns="http://www.w3.org/2000/svg"><g id="Icon"><path d="m11 15.25h5c.414 0 .75-.336.75-.75s-.336-.75-.75-.75h-5c-.414 0-.75.336-.75.75s.336.75.75.75z"/><path d="m11 12.25h5c.414 0 .75-.336.75-.75s-.336-.75-.75-.75h-5c-.414 0-.75.336-.75.75s.336.75.75.75z"/><path d="m9.5 9.25h5c.414 0 .75-.336.75-.75s-.336-.75-.75-.75h-5c-.414 0-.75.336-.75.75s.336.75.75.75z"/><path d="m11 18.25h5c.414 0 .75-.336.75-.75s-.336-.75-.75-.75h-5c-.414 0-.75.336-.75.75s.336.75.75.75z"/><path d="m8 15.25h1c.414 0 .75-.336.75-.75s-.336-.75-.75-.75h-1c-.414 0-.75.336-.75.75s.336.75.75.75z"/><path d="m8 12.25h1c.414 0 .75-.336.75-.75s-.336-.75-.75-.75h-1c-.414 0-.75.336-.75.75s.336.75.75.75z"/><path d="m8 18.25h1c.414 0 .75-.336.75-.75s-.336-.75-.75-.75h-1c-.414 0-.75.336-.75.75s.336.75.75.75z"/><path d="m15.75 4v-1.5c0-.69-.56-1.25-1.25-1.25-1.13 0-3.87 0-5 0-.69 0-1.25.56-1.25 1.25v1.5c0 .69.56 1.25 1.25 1.25h5c.69 0 1.25-.56 1.25-1.25zm-6-.25h4.5v-1h-4.5z"/><path d="m9 2.5h-2.5c-.729 0-1.429.29-1.945.805-.515.516-.805 1.216-.805 1.945v14.75c0 .729.29 1.429.805 1.945.516.515 1.216.805 1.945.805h11c.729 0 1.429-.29 1.945-.805.515-.516.805-1.216.805-1.945 0-3.604 0-11.146 0-14.75 0-.729-.29-1.429-.805-1.945-.516-.515-1.216-.805-1.945-.805-1.202 0-2.5 0-2.5 0-.414 0-.75.336-.75.75s.336.75.75.75h2.5c.332 0 .649.132.884.366.234.235.366.552.366.884v14.75c0 .332-.132.649-.366.884-.235.234-.552.366-.884.366h-11c-.332 0-.649-.132-.884-.366-.234-.235-.366-.552-.366-.884v-14.75c0-.332.132-.649.366-.884.235-.234.552-.366.884-.366h2.5c.414 0 .75-.336.75-.75s-.336-.75-.75-.75z"/></g></svg>