<svg clip-rule="evenodd" fill-rule="evenodd" height="512" stroke-linejoin="round" stroke-miterlimit="2" viewBox="0 0 24 24" width="512" xmlns="http://www.w3.org/2000/svg"><g id="Icon"><path d="m13.75 16.25c0-3.449-2.801-6.25-6.25-6.25s-6.25 2.801-6.25 6.25 2.801 6.25 6.25 6.25 6.25-2.801 6.25-6.25zm-1.5 0c0 2.622-2.128 4.75-4.75 4.75s-4.75-2.128-4.75-4.75 2.128-4.75 4.75-4.75 4.75 2.128 4.75 4.75z"/><path d="m9 13.5h-2c-.968 0-1.75.784-1.75 1.75s.782 1.75 1.75 1.75h1c.138 0 .25.112.25.25s-.112.25-.25.25h-2c-.414 0-.75.336-.75.75s.336.75.75.75h2c.968 0 1.75-.784 1.75-1.75s-.782-1.75-1.75-1.75h-1c-.138 0-.25-.112-.25-.25s.112-.25.25-.25h2c.414 0 .75-.336.75-.75s-.336-.75-.75-.75z"/><path d="m6.75 13.25v1c0 .414.336.75.75.75s.75-.336.75-.75v-1c0-.414-.336-.75-.75-.75s-.75.336-.75.75z"/><path d="m6.75 18.25v1c0 .414.336.75.75.75s.75-.336.75-.75v-1c0-.414-.336-.75-.75-.75s-.75.336-.75.75z"/><path d="m15.5 17.663h1.337c.597 0 1.169-.237 1.591-.659s.659-.994.659-1.591c0-2.101 0-5.899 0-8 0-.597-.237-1.169-.659-1.591s-.994-.659-1.591-.659c-3.051 0-9.949 0-13 0-.597 0-1.169.237-1.591.659s-.659.994-.659 1.591v2.337c0 .414.336.75.75.75s.75-.336.75-.75v-2.337c0-.199.079-.39.22-.53.14-.141.331-.22.53-.22h13c.199 0 .39.079.53.22.141.14.22.331.22.53v8c0 .199-.079.39-.22.53-.14.141-.331.22-.53.22h-1.337c-.414 0-.75.336-.75.75s.336.75.75.75z"/><path d="m18.531 14.334c.988-.264 1.869-.5 2.551-.683.577-.155 1.068-.532 1.367-1.049.298-.516.379-1.131.224-1.707-.544-2.03-1.526-5.698-2.07-7.727-.155-.577-.532-1.068-1.049-1.367-.516-.298-1.13-.379-1.707-.224-2.947.789-10.257 2.748-13.204 3.538-.4.107-.637.518-.53.918s.518.638.918.531c2.947-.79 10.257-2.749 13.204-3.538.192-.052.397-.025.569.074.173.1.298.264.35.456l2.07 7.727c.052.192.025.397-.074.569-.1.173-.264.298-.456.35-.682.183-1.563.419-2.551.683-.4.108-.637.519-.53.919s.518.637.918.53z"/></g></svg>