<svg clip-rule="evenodd" fill-rule="evenodd" height="512" stroke-linejoin="round" stroke-miterlimit="2" viewBox="0 0 24 24" width="512" xmlns="http://www.w3.org/2000/svg"><g id="Icon"><circle cx="5.25" cy="5" r=".75"/><circle cx="7.75" cy="5" r=".75"/><circle cx="10.25" cy="5" r=".75"/><path d="m22.75 11v-6.5c0-1.795-1.455-3.25-3.25-3.25-3.842 0-11.158 0-15 0-1.795 0-3.25 1.455-3.25 3.25v15c0 1.795 1.455 3.25 3.25 3.25h5.5c.414 0 .75-.336.75-.75s-.336-.75-.75-.75h-5.5c-.967 0-1.75-.783-1.75-1.75v-15c0-.967.783-1.75 1.75-1.75h15c.967 0 1.75.784 1.75 1.75v6.5c0 .414.336.75.75.75s.75-.336.75-.75z"/><path d="m22 7.25h-20c-.414 0-.75.336-.75.75s.336.75.75.75h20c.414 0 .75-.336.75-.75s-.336-.75-.75-.75z"/><path d="m21.464 20.329 1.228-4.5c.102-.376.024-.778-.213-1.088-.236-.309-.604-.491-.993-.491h-9.346c-.222 0-.433.099-.575.269-.143.171-.202.396-.163.615 0 0 .694 3.813.926 5.09.108.594.626 1.026 1.23 1.026h6.7c.564 0 1.058-.377 1.206-.921zm-8.425-4.579.727 4h6.302l1.09-4z"/><path d="m9.5 13.75h1.442c.121 0 .225.086.246.205 0 0 .396 2.179.396 2.179.074.407.465.678.872.604.408-.074.678-.465.604-.872l-.396-2.179c-.151-.832-.876-1.437-1.722-1.437h-1.442c-.414 0-.75.336-.75.75s.336.75.75.75z"/><path d="m18.89 20.5v1.5c0 .414.336.75.75.75s.75-.336.75-.75v-1.5c0-.414-.336-.75-.75-.75s-.75.336-.75.75z"/><path d="m13.89 20.5v1.5c0 .414.336.75.75.75s.75-.336.75-.75v-1.5c0-.414-.336-.75-.75-.75s-.75.336-.75.75z"/></g></svg>