<svg clip-rule="evenodd" fill-rule="evenodd" stroke-linejoin="round" stroke-miterlimit="2" viewBox="0 0 32 32" xmlns="http://www.w3.org/2000/svg" xmlns:serif="http://www.serif.com/"><path id="mail-inbox-unread-email" d="m0 0h32v32h-32z" fill="none"/><path d="m28.229 13.029c.438.129.742.513.764.972 0 2.678.016 5.356 0 8.035-.029 1.54-1.34 2.931-2.962 2.961-6.69.042-13.38.042-20.069 0-1.555-.029-2.952-1.362-2.962-2.996v-8c.037-.775 1.039-1.289 1.654-.756.21.182.325.33.345.756 0 2.674-.049 5.348.001 8.022.016.513.469.965.987.975 6.677.041 13.355.124 20.032 0 .511-.016.965-.467.974-.987v-8.01s.019-.42.277-.69c.239-.251.597-.352.959-.282zm-2.198-6.026c1.119.021 2.187.701 2.671 1.711 0 0 .211.81-.301 1.232l-11.805 8.853c-.362.247-.832.25-1.199 0l-11.805-8.853c-1.019-.84.488-2.908 2.37-2.943 6.689-.042 13.379-.042 20.069 0zm-20.029 1.999c-.115.001-.283.04-.283.04l10.277 7.708 10.278-7.708c-.087-.026-.177-.038-.268-.04-6.668-.041-13.336 0-20.004 0z"/></svg>