<svg clip-rule="evenodd" fill-rule="evenodd" height="512" stroke-linejoin="round" stroke-miterlimit="2" viewBox="0 0 24 24" width="512" xmlns="http://www.w3.org/2000/svg"><g id="Icon"><path d="m17.393 7.952c0 .054-.021.106-.059.143-.038.038-.09.06-.144.06h-1.333c-.414 0-.75.336-.75.75s.336.75.75.75h1.333c.452 0 .885-.18 1.204-.499s.499-.752.499-1.204c0-.451-.18-.884-.499-1.203-.319-.32-.752-.499-1.204-.499h-.38c-.054 0-.106-.021-.144-.059s-.059-.09-.059-.143c0-.054.021-.106.059-.143.038-.038.09-.06.144-.06h1.333c.414 0 .75-.336.75-.75s-.336-.75-.75-.75h-1.333c-.452 0-.885.18-1.204.499s-.499.752-.499 1.204c0 .451.18.884.499 1.203.319.32.752.499 1.204.499h.38c.054 0 .106.021.144.059s.059.09.059.143z"/><path d="m17.75 5.095v-.952c0-.414-.336-.75-.75-.75s-.75.336-.75.75v.952c0 .414.336.75.75.75s.75-.336.75-.75z"/><path d="m17.75 9.857v-.952c0-.414-.336-.75-.75-.75s-.75.336-.75.75v.952c0 .414.336.75.75.75s.75-.336.75-.75z"/><path d="m17 1.25c-3.174 0-5.75 2.576-5.75 5.75s2.576 5.75 5.75 5.75 5.75-2.576 5.75-5.75-2.576-5.75-5.75-5.75zm0 1.5c2.346 0 4.25 1.904 4.25 4.25s-1.904 4.25-4.25 4.25-4.25-1.904-4.25-4.25 1.904-4.25 4.25-4.25z"/><path d="m21.117 15.961c-.257-1.286-1.385-2.211-2.696-2.211h-13.721c-1.311 0-2.439.925-2.697 2.211-.203 1.019-.471 2.357-.7 3.5-.161.808.048 1.645.57 2.282.523.638 1.303 1.007 2.127 1.007h15.121c.824 0 1.604-.369 2.126-1.007.523-.637.732-1.474.57-2.282zm-1.47.294.7 3.5c.073.367-.022.748-.26 1.037-.237.29-.592.458-.966.458h-15.121c-.374 0-.729-.168-.967-.458-.237-.289-.332-.67-.259-1.037 0 0 .7-3.5.7-3.5.117-.584.63-1.005 1.226-1.005h13.721c.596 0 1.109.421 1.226 1.005z"/><path d="m18.06 13.75c-3.271 0-9.728 0-13 0-.331 0-.649-.132-.883-.366-.235-.235-.367-.552-.367-.884v-8.5c0-.332.132-.649.367-.884.234-.234.552-.366.883-.366h6.44c.414 0 .75-.336.75-.75s-.336-.75-.75-.75h-6.44c-.729 0-1.428.29-1.944.805-.516.516-.806 1.216-.806 1.945v8.5c0 .729.29 1.429.806 1.945.516.515 1.215.805 1.944.805h13c.414 0 .75-.336.75-.75s-.336-.75-.75-.75z"/><path d="m9.56 18.75h4c.414 0 .75-.336.75-.75s-.336-.75-.75-.75h-4c-.414 0-.75.336-.75.75s.336.75.75.75z"/></g></svg>