<svg clip-rule="evenodd" fill-rule="evenodd" height="512" stroke-linejoin="round" stroke-miterlimit="2" viewBox="0 0 24 24" width="512" xmlns="http://www.w3.org/2000/svg"><g id="Icon"><path d="m12.685 9.723s.928-2.892 4.386-3.453c.409-.067.686-.452.62-.861-.066-.408-.452-.686-.86-.62-4.436.72-5.578 4.488-5.578 4.488-.123.396.098.816.494.939.395.123.816-.098.938-.493z"/><path d="m12.685 9.277s-1.142-3.768-5.577-4.488c-.409-.066-.794.212-.861.62-.066.409.212.794.62.861 3.459.561 4.386 3.453 4.386 3.453.123.395.543.616.939.493.395-.123.616-.543.493-.939z"/><path d="m13.008 7.229c.024.158.099.303.212.416 1.15 1.14 2.173 1.621 3.044 1.716 1.487.163 2.651-.754 3.464-1.996 1.053-1.608 1.505-3.713 1.505-3.713.085-.397-.161-.789-.554-.885-3.409-.837-5.29-.257-6.331.62-1.704 1.436-1.34 3.842-1.34 3.842zm1.458-.467c-.025-.466.02-1.53.849-2.228.741-.625 2.035-.913 4.261-.476-.198.657-.555 1.649-1.103 2.486-.496.757-1.139 1.425-2.046 1.326-.576-.063-1.217-.411-1.96-1.106z"/><path d="m10.718 7.645c.113-.113.188-.258.213-.416 0 0 .364-2.406-1.341-3.842-1.04-.877-2.921-1.457-6.33-.62-.394.096-.64.488-.555.885 0 0 .452 2.105 1.506 3.713.812 1.242 1.976 2.159 3.463 1.996.871-.095 1.895-.576 3.044-1.716zm-1.247-.881c-.743.695-1.383 1.043-1.96 1.106-.907.099-1.55-.569-2.046-1.326-.547-.837-.905-1.829-1.102-2.486 2.225-.437 3.519-.149 4.261.476.828.698.873 1.762.848 2.228z"/><path d="m18.213 14.599c.028-.214-.037-.43-.18-.593-.142-.163-.348-.256-.564-.256h-11c-.216 0-.422.093-.564.256s-.208.379-.179.593c0 0 .621 4.658.884 6.632.116.87.858 1.519 1.735 1.519h7.249c.877 0 1.618-.649 1.734-1.519.264-1.974.885-6.632.885-6.632zm-1.6.651-.772 5.783c-.016.124-.122.217-.247.217h-7.249c-.126 0-.232-.093-.248-.217 0 0-.771-5.783-.771-5.783z"/><path d="m18.719 14v-1.5c0-.69-.559-1.25-1.25-1.25-1.952 0-9.048 0-11 0-.69 0-1.25.56-1.25 1.25v1.5c0 .69.56 1.25 1.25 1.25h11c.691 0 1.25-.56 1.25-1.25zm-12-1.25v1h10.5v-1z"/><path d="m12.719 12v-10c0-.414-.336-.75-.75-.75s-.75.336-.75.75v10c0 .414.336.75.75.75s.75-.336.75-.75z"/></g></svg>