<svg clip-rule="evenodd" fill-rule="evenodd" height="512" stroke-linejoin="round" stroke-miterlimit="2" viewBox="0 0 24 24" width="512" xmlns="http://www.w3.org/2000/svg"><g id="Icon"><path d="m15 22.75c.414 0 .75-.336.75-.75v-9c0-.968-.784-1.75-1.75-1.75h-4c-.966 0-1.75.782-1.75 1.75v9c0 .414.336.75.75.75zm-.75-1.5h-4.5v-8.25c0-.138.112-.25.25-.25h4c.138 0 .25.112.25.25z"/><path d="m20 22.75c.966 0 1.75-.782 1.75-1.75v-3c0-.968-.784-1.75-1.75-1.75h-5c-.414 0-.75.336-.75.75v5c0 .414.336.75.75.75zm0-1.5h-4.25v-3.5h4.25c.138 0 .25.112.25.25v3c0 .138-.112.25-.25.25z"/><path d="m9 22.75c.414 0 .75-.336.75-.75v-7.5c0-.414-.336-.75-.75-.75h-5c-.966 0-1.75.782-1.75 1.75v5.5c0 .968.784 1.75 1.75 1.75zm-.75-1.5h-4.25c-.138 0-.25-.112-.25-.25v-5.5c0-.138.112-.25.25-.25h4.25z"/><path d="m12.673 1.668c-.127-.256-.388-.418-.673-.418s-.546.162-.673.418l-.944 1.913s-2.111.307-2.111.307c-.282.041-.517.239-.605.51-.089.272-.015.57.189.769l1.528 1.49s-.36 2.102-.36 2.102c-.048.282.067.566.298.734s.538.19.79.057l1.888-.994s1.888.994 1.888.994c.252.133.559.111.79-.057s.346-.452.298-.734l-.36-2.102s1.528-1.49 1.528-1.49c.204-.199.278-.497.189-.769-.088-.271-.323-.469-.605-.51l-2.111-.307s-.944-1.913-.944-1.913zm-.673 2.026.446.905c.11.221.321.375.565.41l.997.145s-.722.704-.722.704c-.176.172-.257.42-.215.664l.17.992s-.892-.469-.892-.469c-.218-.115-.48-.115-.698 0l-.892.469s.17-.992.17-.992c.042-.244-.039-.492-.215-.664l-.722-.704s.997-.145.997-.145c.244-.035.455-.189.565-.41z"/></g></svg>