<svg clip-rule="evenodd" fill-rule="evenodd" height="512" stroke-linejoin="round" stroke-miterlimit="2" viewBox="0 0 24 24" width="512" xmlns="http://www.w3.org/2000/svg"><g id="Icon"><path d="m15.97 17.03c-.293-.292-.293-.768 0-1.06.292-.293.768-.293 1.06 0l3 3c.293.292.293.768 0 1.06-.292.293-.768.293-1.06 0z"/><path d="m17.03 20.03c-.292.293-.768.293-1.06 0-.293-.292-.293-.768 0-1.06l3-3c.292-.293.768-.293 1.06 0 .293.292.293.768 0 1.06z"/><path d="m18 13.25c2.622 0 4.75 2.128 4.75 4.75s-2.128 4.75-4.75 4.75-4.75-2.128-4.75-4.75 2.128-4.75 4.75-4.75zm0 1.5c-1.794 0-3.25 1.456-3.25 3.25s1.456 3.25 3.25 3.25 3.25-1.456 3.25-3.25-1.456-3.25-3.25-3.25z"/><path d="m2.75 10.499c0-.414.336-.75.75-.75s.75.336.75.75v8.75h7.25c.414 0 .75.336.75.75 0 .413-.336.75-.75.75h-8c-.414 0-.75-.336-.75-.75z"/><path d="m21.25 12c0 .414-.336.75-.75.75s-.75-.336-.75-.75v-1.501c0-.414.336-.75.75-.75s.75.336.75.75z"/><path d="m15.199 10.456c-.856.828-2.002 1.293-3.195 1.293h-.008c-1.193 0-2.339-.465-3.195-1.293-.006.006-.012.012-.019.018-.815.816-1.922 1.275-3.076 1.275h-.006c-1.254-.001-2.447-.536-3.281-1.471-.833-.936-1.228-2.183-1.084-3.427.006-.054.018-.106.035-.157l1.454-4.261c.242-.708.908-1.185 1.656-1.184h15.04c.748-.001 1.414.476 1.656 1.184l1.454 4.261c.017.051.029.103.035.157.144 1.244-.251 2.491-1.084 3.427-.834.935-2.027 1.47-3.281 1.471h-.006c-1.154 0-2.261-.459-3.076-1.275-.007-.006-.013-.012-.019-.018zm4.557-7.538c-.034-.101-.13-.17-.236-.169h-15.04c-.106-.001-.202.068-.236.169 0 0-1.427 4.18-1.427 4.182-.07.794.19 1.583.722 2.18.549.616 1.335.968 2.161.969h.006c.756 0 1.481-.301 2.016-.835.162-.163.304-.343.421-.537.133-.22.37-.356.628-.361.257-.004.498.123.64.338.115.175.247.338.397.488.581.581 1.368.907 2.188.907h.008c.82 0 1.607-.326 2.188-.907.15-.15.282-.313.397-.488.142-.215.383-.342.64-.338.258.005.495.141.628.361.117.194.259.374.421.537.535.534 1.26.835 2.016.835h.006c.826-.001 1.612-.353 2.161-.969.532-.597.792-1.386.722-2.182z"/><path d="m11.5 19.249c.414 0 .75.336.75.75 0 .413-.336.75-.75.75h-9.5c-.414 0-.75-.337-.75-.75 0-.414.336-.75.75-.75z"/></g></svg>