<svg clip-rule="evenodd" fill-rule="evenodd" height="512" stroke-linejoin="round" stroke-miterlimit="2" viewBox="0 0 24 24" width="512" xmlns="http://www.w3.org/2000/svg"><g id="Icon"><path d="m12 22.75c3.176 0 5.75-2.573 5.75-5.75v-4c0-3.175-2.574-5.75-5.75-5.75s-5.75 2.575-5.75 5.75v4c0 3.177 2.574 5.75 5.75 5.75zm0-1.5c-2.348 0-4.25-1.902-4.25-4.25v-4c0-2.346 1.902-4.25 4.25-4.25s4.25 1.904 4.25 4.25v4c0 2.348-1.902 4.25-4.25 4.25z"/><path d="m16.47 12.47-7.89 7.89c-.293.293-.293.768 0 1.061.292.292.768.292 1.06 0l7.89-7.89c.293-.293.293-.768 0-1.061-.292-.293-.768-.293-1.06 0z"/><path d="m14.47 8.47-8 8c-.293.293-.293.768 0 1.061.292.292.768.292 1.06 0l8-8c.293-.293.293-.768 0-1.061-.292-.293-.768-.293-1.06 0z"/><path d="m6.47 13.531 7.89 7.89c.292.292.768.292 1.06 0 .293-.293.293-.768 0-1.061l-7.89-7.89c-.292-.293-.768-.293-1.06 0-.293.293-.293.768 0 1.061z"/><path d="m8.47 9.531 8 8c.292.292.768.292 1.06 0 .293-.293.293-.768 0-1.061l-8-8c-.292-.293-.768-.293-1.06 0-.293.293-.293.768 0 1.061z"/><path d="m10.75 8.25c0-1.979.708-3.729 1.25-4.779.542 1.05 1.25 2.8 1.25 4.779 0 .414.336.75.75.75s.75-.336.75-.75c0-3.69-2.14-6.686-2.14-6.686-.14-.197-.368-.314-.61-.314s-.47.117-.61.314c0 0-2.14 2.996-2.14 6.686 0 .414.336.75.75.75s.75-.336.75-.75z"/><path d="m10.544 7.767c-1.083-1.286-1.687-2.738-2.002-3.724.518.166 1.165.412 1.85.765.368.189.821.044 1.01-.324.19-.368.045-.82-.323-1.01-1.845-.949-3.456-1.214-3.456-1.214-.239-.04-.482.038-.653.21-.172.171-.25.414-.21.653 0 0 .512 3.086 2.636 5.61.267.317.74.357 1.057.091.317-.267.357-.74.091-1.057z"/><path d="m14.604 8.733c2.124-2.524 2.636-5.61 2.636-5.61.04-.239-.038-.482-.21-.653-.171-.172-.414-.25-.653-.21 0 0-1.611.265-3.456 1.214-.368.19-.513.642-.323 1.01.189.368.642.513 1.01.324.685-.353 1.332-.598 1.85-.765-.316.986-.92 2.438-2.002 3.724-.266.317-.226.79.091 1.057.317.266.79.226 1.057-.091z"/></g></svg>