<svg clip-rule="evenodd" fill-rule="evenodd" height="512" stroke-linejoin="round" stroke-miterlimit="2" viewBox="0 0 24 24" width="512" xmlns="http://www.w3.org/2000/svg"><g id="Icon"><path d="m21.75 10.467c0-1.157-.534-2.249-1.448-2.96-1.519-1.181-4.201-3.267-6-4.666-1.354-1.054-3.25-1.054-4.604 0-1.799 1.399-4.481 3.485-6 4.666-.914.711-1.448 1.803-1.448 2.96v8.533c0 2.071 1.679 3.75 3.75 3.75h12c2.071 0 3.75-1.679 3.75-3.75zm-1.5 0v8.533c0 1.243-1.007 2.25-2.25 2.25h-12c-1.243 0-2.25-1.007-2.25-2.25v-8.533c0-.694.321-1.35.869-1.776 1.518-1.181 4.201-3.267 6-4.666.812-.632 1.95-.632 2.762 0 1.799 1.399 4.482 3.485 6 4.666.548.426.869 1.082.869 1.776z"/><path d="m12 7.25c-1.242 0-2.25 1.008-2.25 2.25s1.008 2.25 2.25 2.25 2.25-1.008 2.25-2.25-1.008-2.25-2.25-2.25zm0 1.5c.414 0 .75.336.75.75s-.336.75-.75.75-.75-.336-.75-.75.336-.75.75-.75z"/><path d="m17 12.25c-1.242 0-2.25 1.008-2.25 2.25s1.008 2.25 2.25 2.25 2.25-1.008 2.25-2.25-1.008-2.25-2.25-2.25zm0 1.5c.414 0 .75.336.75.75s-.336.75-.75.75-.75-.336-.75-.75.336-.75.75-.75z"/><path d="m7 10.25c-1.242 0-2.25 1.008-2.25 2.25s1.008 2.25 2.25 2.25 2.25-1.008 2.25-2.25-1.008-2.25-2.25-2.25zm0 1.5c.414 0 .75.336.75.75s-.336.75-.75.75-.75-.336-.75-.75.336-.75.75-.75z"/><path d="m12.75 22v-11c0-.414-.336-.75-.75-.75s-.75.336-.75.75v11c0 .414.336.75.75.75s.75-.336.75-.75z"/><path d="m15.25 22v-3.292s1.393-2.322 1.393-2.322c.213-.355.098-.816-.257-1.029s-.816-.098-1.029.257l-1.5 2.5c-.07.117-.107.25-.107.386v3.5c0 .414.336.75.75.75s.75-.336.75-.75z"/><path d="m10.25 22v-5.5c0-.136-.037-.269-.107-.386l-1.5-2.5c-.213-.355-.674-.47-1.029-.257s-.47.674-.257 1.029l1.393 2.322v5.292c0 .414.336.75.75.75s.75-.336.75-.75z"/></g></svg>