<svg clip-rule="evenodd" fill-rule="evenodd" height="512" stroke-linejoin="round" stroke-miterlimit="2" viewBox="0 0 24 24" width="512" xmlns="http://www.w3.org/2000/svg"><g id="Icon"><path d="m18 14.25c2.622 0 4.75-2.128 4.75-4.75s-2.128-4.75-4.75-4.75c-.24 0-.476.018-.707.052-1.075-2.107-3.266-3.552-5.793-3.552-3.248 0-5.942 2.387-6.423 5.501-.026-.001-.051-.001-.077-.001-2.07 0-3.75 1.68-3.75 3.75s1.68 3.75 3.75 3.75zm0-1.5h-13c-1.242 0-2.25-1.008-2.25-2.25s1.008-2.25 2.25-2.25c.195 0 .384.025.564.071.222.058.457.011.639-.127.183-.137.293-.351.299-.579.071-2.697 2.284-4.865 4.998-4.865 2.12 0 3.934 1.323 4.661 3.188.142.363.538.557.912.446.294-.087.605-.134.927-.134 1.794 0 3.25 1.456 3.25 3.25s-1.456 3.25-3.25 3.25z"/><path d="m17.054 15.779 1 2.5c.153.384.59.571.975.417.384-.153.571-.59.417-.975l-1-2.5c-.153-.384-.59-.571-.975-.417-.384.153-.571.59-.417.975z"/><path d="m10.554 15.779 1 2.5c.153.384.59.571.975.417.384-.153.571-.59.417-.975l-1-2.5c-.153-.384-.59-.571-.975-.417-.384.153-.571.59-.417.975z"/><path d="m14.804 19.779 1 2.5c.153.384.59.571.975.417.384-.153.571-.59.417-.975l-1-2.5c-.153-.384-.59-.571-.975-.417-.384.153-.571.59-.417.975z"/><path d="m4.054 15.779 1 2.5c.153.384.59.571.975.417.384-.153.571-.59.417-.975l-1-2.5c-.153-.384-.59-.571-.975-.417-.384.153-.571.59-.417.975z"/><path d="m8.804 19.779 1 2.5c.153.384.59.571.975.417.384-.153.571-.59.417-.975l-1-2.5c-.153-.384-.59-.571-.975-.417-.384.153-.571.59-.417.975z"/></g></svg>