<svg clip-rule="evenodd" fill-rule="evenodd" height="512" stroke-linejoin="round" stroke-miterlimit="2" viewBox="0 0 24 24" width="512" xmlns="http://www.w3.org/2000/svg"><g id="Icon"><path d="m12.364 1.594c-.226-.125-.502-.125-.728 0l-4.5 2.5c-.238.133-.386.384-.386.656v5c0 .272.148.523.386.656l4.5 2.5c.226.125.502.125.728 0l4.5-2.5c.238-.133.386-.384.386-.656v-5c0-.272-.148-.523-.386-.656zm-.364 1.514 3.75 2.083v4.118s-3.75 2.083-3.75 2.083-3.75-2.083-3.75-2.083v-4.118z"/><path d="m17.864 11.094c-.226-.125-.502-.125-.728 0l-4.5 2.5c-.238.133-.386.384-.386.656v5c0 .272.148.523.386.656l4.5 2.5c.226.125.502.125.728 0l4.5-2.5c.238-.133.386-.384.386-.656v-5c0-.272-.148-.523-.386-.656zm-.364 1.514 3.75 2.083v4.118s-3.75 2.083-3.75 2.083-3.75-2.083-3.75-2.083v-4.118z"/><path d="m6.864 11.094c-.226-.125-.502-.125-.728 0l-4.5 2.5c-.238.133-.386.384-.386.656v5c0 .272.148.523.386.656l4.5 2.5c.226.125.502.125.728 0l4.5-2.5c.238-.133.386-.384.386-.656v-5c0-.272-.148-.523-.386-.656zm-.364 1.514 3.75 2.083v4.118s-3.75 2.083-3.75 2.083-3.75-2.083-3.75-2.083v-4.118z"/><path d="m11 7h2c.414 0 .75-.336.75-.75s-.336-.75-.75-.75h-2c-.414 0-.75.336-.75.75s.336.75.75.75z"/><path d="m5.5 16h2c.414 0 .75-.336.75-.75s-.336-.75-.75-.75h-2c-.414 0-.75.336-.75.75s.336.75.75.75z"/><path d="m16.5 16h2c.414 0 .75-.336.75-.75s-.336-.75-.75-.75h-2c-.414 0-.75.336-.75.75s.336.75.75.75z"/><path d="m4.5 18h4c.414 0 .75-.336.75-.75s-.336-.75-.75-.75h-4c-.414 0-.75.336-.75.75s.336.75.75.75z"/><path d="m15.5 18h4c.414 0 .75-.336.75-.75s-.336-.75-.75-.75h-4c-.414 0-.75.336-.75.75s.336.75.75.75z"/><path d="m10 9h4c.414 0 .75-.336.75-.75s-.336-.75-.75-.75h-4c-.414 0-.75.336-.75.75s.336.75.75.75z"/></g></svg>