<svg clip-rule="evenodd" fill-rule="evenodd" height="512" stroke-linejoin="round" stroke-miterlimit="2" viewBox="0 0 24 24" width="512" xmlns="http://www.w3.org/2000/svg"><g id="Icon"><path d="m22.146 9.999c.34-.571.519-1.223.519-1.888.089-3.207-2.221-5.962-5.393-6.517-.008-.001-.017-.002-.025-.004-3.508-.493-7.003-.492-10.497.077-.003.001-.006.001-.009.002-2.599.454-4.614 2.404-5.225 4.872-.19.761-.187 1.557.009 2.317.145.755.565 1.847 1.132 2.328.892.757 2.072 1.083 3.227.893 4.076-.65 8.159-.649 12.242-.017 1.147.187 2.318-.138 3.205-.89.31-.262.593-.698.815-1.173zm-1.304-.744c-.016.027-.03.054-.043.082-.124.273-.261.541-.439.692-.552.468-1.281.67-1.996.552-.002-.001-.005-.001-.007-.001-4.239-.657-8.478-.658-12.714.018-.001 0-.003 0-.004.001-.72.119-1.455-.085-2.012-.557-.355-.301-.546-1.02-.634-1.494-.004-.018-.008-.036-.012-.053-.137-.521-.14-1.069-.01-1.591.001-.001.001-.002.001-.002.47-1.901 2.022-3.404 4.024-3.755 3.335-.543 6.671-.543 10.019-.074 2.444.432 4.223 2.544 4.151 5.016-.001.007-.001.015-.001.022 0 .404-.111.8-.323 1.144z"/><path d="m8.137 10.775c-.25.793-.831 2.437-1.758 3.804-.485.717-.719 1.773-.605 2.905.252 2.496 2.146 5.368 6.244 5.266 4.068.094 5.956-2.774 6.208-5.266.114-1.132-.12-2.188-.605-2.905-.927-1.367-1.508-3.011-1.758-3.804-.124-.395-.546-.615-.941-.49-.395.124-.614.545-.49.94.276.876.925 2.687 1.947 4.196.318.469.429 1.17.354 1.912-.189 1.873-1.638 3.995-4.714 3.917-.013 0-.025 0-.038 0-3.076.078-4.525-2.044-4.714-3.917-.075-.742.036-1.443.354-1.912 1.022-1.509 1.671-3.32 1.947-4.196.124-.395-.095-.816-.49-.94-.395-.125-.817.095-.941.49z"/></g></svg>