<svg clip-rule="evenodd" fill-rule="evenodd" height="512" stroke-linejoin="round" stroke-miterlimit="2" viewBox="0 0 24 24" width="512" xmlns="http://www.w3.org/2000/svg"><g id="Icon"><path d="m22.75 4c0-.729-.29-1.429-.805-1.945-.516-.515-1.216-.805-1.945-.805-3.832 0-12.168 0-16 0-.729 0-1.429.29-1.945.805-.515.516-.805 1.216-.805 1.945v16c0 .729.29 1.429.805 1.945.516.515 1.216.805 1.945.805h16c.729 0 1.429-.29 1.945-.805.515-.516.805-1.216.805-1.945zm-1.5 0v16c0 .332-.132.649-.366.884-.235.234-.552.366-.884.366h-16c-.332 0-.649-.132-.884-.366-.234-.235-.366-.552-.366-.884v-16c0-.332.132-.649.366-.884.235-.234.552-.366.884-.366h16c.332 0 .649.132.884.366.234.235.366.552.366.884z"/><path d="m9.75 10.5c0-.332-.132-.649-.366-.884-.235-.234-.552-.366-.884-.366-.769 0-2.231 0-3 0-.332 0-.649.132-.884.366-.234.235-.366.552-.366.884v3c0 .332.132.649.366.884.235.234.552.366.884.366h3c.332 0 .649-.132.884-.366.234-.235.366-.552.366-.884zm-4 2.75h2.5v-2.5h-2.5z"/><path d="m2 7.75h20c.414 0 .75-.336.75-.75s-.336-.75-.75-.75h-20c-.414 0-.75.336-.75.75s.336.75.75.75z"/><path d="m4.5 5.25h1c.414 0 .75-.336.75-.75s-.336-.75-.75-.75h-1c-.414 0-.75.336-.75.75s.336.75.75.75z"/><path d="m8 5.25h1c.414 0 .75-.336.75-.75s-.336-.75-.75-.75h-1c-.414 0-.75.336-.75.75s.336.75.75.75z"/><path d="m11.5 5.25h1c.414 0 .75-.336.75-.75s-.336-.75-.75-.75h-1c-.414 0-.75.336-.75.75s.336.75.75.75z"/><path d="m12 10.75h1c.414 0 .75-.336.75-.75s-.336-.75-.75-.75h-1c-.414 0-.75.336-.75.75s.336.75.75.75z"/><path d="m16 10.75h3c.414 0 .75-.336.75-.75s-.336-.75-.75-.75h-3c-.414 0-.75.336-.75.75s.336.75.75.75z"/><path d="m12 14.75h7c.414 0 .75-.336.75-.75s-.336-.75-.75-.75h-7c-.414 0-.75.336-.75.75s.336.75.75.75z"/><path d="m5 18.75h14c.414 0 .75-.336.75-.75s-.336-.75-.75-.75h-14c-.414 0-.75.336-.75.75s.336.75.75.75z"/></g></svg>