<svg clip-rule="evenodd" fill-rule="evenodd" height="512" stroke-linejoin="round" stroke-miterlimit="2" viewBox="0 0 24 24" width="512" xmlns="http://www.w3.org/2000/svg"><g id="Icon"><path d="m17.25 10c0 .414-.336.75-.75.75s-.75-.336-.75-.75v-6c0-.69-.56-1.25-1.25-1.25h-9c-.332 0-.649.132-.884.366-.234.235-.366.552-.366.884v16c0 .332.132.649.366.884.235.234.552.366.884.366h2c.414 0 .75.336.75.75s-.336.75-.75.75h-2c-.729 0-1.429-.29-1.945-.805-.515-.516-.805-1.216-.805-1.945v-16c0-.729.29-1.429.805-1.945.516-.515 1.216-.805 1.945-.805h9c1.519 0 2.75 1.231 2.75 2.75z"/><path d="m14.196 2.279-.748 1.871c-.266.664-.909 1.1-1.625 1.1h-3.646c-.716 0-1.359-.436-1.625-1.1l-.748-1.871c-.093-.232-.065-.493.075-.699.139-.207.372-.33.621-.33h7c.249 0 .482.123.621.33.14.206.168.467.075.699zm-1.804.471h-4.784l.337.843c.038.095.13.157.232.157h3.646c.102 0 .194-.062.232-.157z"/><path d="m10.75 17.5c0-.414.336-.75.75-.75s.75.336.75.75v3.75h6.5v-3.75c0-.414.336-.75.75-.75s.75.336.75.75v4.5c0 .414-.336.75-.75.75h-8c-.414 0-.75-.336-.75-.75z"/><path d="m17.095 17.723c-.458.34-1.016.527-1.593.527h-.004c-.577 0-1.135-.187-1.593-.527-.443.34-.988.527-1.552.527h-.003c-.734 0-1.432-.313-1.92-.861-.488-.547-.719-1.277-.635-2.006.006-.053.018-.106.035-.156l.727-2.131c.173-.506.648-.846 1.183-.846h7.52c.535 0 1.01.34 1.183.846l.727 2.131c.017.05.029.103.035.156.084.729-.147 1.459-.635 2.006-.488.548-1.186.861-1.92.861h-.003c-.564 0-1.109-.187-1.552-.527zm1.986-3.973h-7.162c-.167.49-.64 1.875-.64 1.877-.013.279.083.554.27.764.204.228.495.359.801.359h.003c.279 0 .546-.111.743-.308.06-.059.112-.126.155-.197.133-.22.37-.356.627-.361.258-.005.499.123.641.338.043.066.094.128.15.185.22.22.518.343.829.343h.004c.311 0 .609-.123.829-.343.056-.057.107-.119.15-.185.142-.215.383-.343.641-.338.257.005.494.141.627.361.043.071.095.138.155.197.197.197.464.308.743.308h.003c.306 0 .597-.131.801-.359.187-.21.283-.485.27-.766z"/><path d="m20.5 21.25c.414 0 .75.336.75.75s-.336.75-.75.75h-10c-.414 0-.75-.336-.75-.75s.336-.75.75-.75z"/></g></svg>