<svg clip-rule="evenodd" fill-rule="evenodd" stroke-linejoin="round" stroke-miterlimit="1.414" viewBox="0 0 32 32" xmlns="http://www.w3.org/2000/svg" xmlns:serif="http://www.serif.com/"><path id="mic-off-microphone" d="m0 0h32v32h-32z" fill="none"/><path d="m15.011 24.935c-1.09-.139-2.144-.5-3.086-1.057 0 0-.509-.363-.514-.865-.005-.515.438-.994.971-1.01.025 0 .05 0 .076.001.34.022.281.042.433.122.957.547 2.03.874 3.121.874 0 0 .003 0 .009.001.017 0 .033 0 .049.001.245.019.467.119.634.279.026.023.05.048.073.075.03.035.057.073.08.113.094.15.15.33.154.531v3h3l.056.002c.229.019.302.053.427.123.579.32.678 1.277.095 1.691-.168.119-.373.178-.578.184h-8c-.763-.021-1.308-1.037-.746-1.666.162-.182.392-.301.634-.328.049-.005.062-.005.112-.006h3zm-2.909-7.089c-.059-.268-.089-.551-.091-.82-.011-3.351-.011-6.702 0-10.053.019-2.046 1.768-3.939 3.948-3.973h.079c2.061.019 3.953 1.818 3.973 3.973v4.546l5.375-4.3c.329-.241.338-.24.735-.213.737.115 1.153 1.072.641 1.654-.052.059-.068.07-.127.121l-20 16c-.229.168-.316.184-.474.208-.596.09-1.214-.467-1.144-1.099.022-.203.108-.397.243-.551.051-.058.068-.069.126-.12l3.426-2.741c-.514-1.07-.785-2.256-.793-3.433v-.034-3.011s.055-.514.359-.768c.185-.154.347-.232.667-.232l.051.003c.189.019.245.043.347.091.311.146.535.46.571.803.004.046.004.057.005.103 0 1.775-.152 3.581.422 5.175zm10.956-3.946c.182.015.232.035.327.075.328.136.571.456.611.812.006.049.005.062.006.112 0 1.415.087 2.821-.265 4.153-.511 1.931-1.767 3.649-3.469 4.721-.704.443-1.791-.224-1.536-1.1.076-.26.266-.463.507-.616.036-.023.036-.023.072-.047 1.648-1.096 2.685-3.015 2.691-5.002v-2.109c.005-.183.022-.234.056-.331.124-.352.457-.621.832-.663.108-.012.134-.006.168-.005zm-4.22 3.146c.675.02 1.163.754.884 1.448-.503 1.251-1.691 2.238-3.018 2.446-.04.006-.08.01-.119.011-.804.028-1.412-1.193-.651-1.787.283-.222.674-.219 1.004-.391.429-.225.769-.609.943-1.063 0 0 .047-.127.116-.227.174-.256.47-.417.781-.436.03-.001.03-.001.06-.001zm-.827-3.927c.004-2.053.031-4.106-.001-6.158-.027-1.284-1.487-2.33-2.755-1.814-.726.296-1.237 1.045-1.244 1.839-.01 3.113-.046 6.227-.01 9.341z" fill-rule="nonzero"/></svg>