<svg clip-rule="evenodd" fill-rule="evenodd" height="512" stroke-linejoin="round" stroke-miterlimit="2" viewBox="0 0 24 24" width="512" xmlns="http://www.w3.org/2000/svg"><g id="Icon"><path d="m4.231 22.75h10.282c.966 0 1.75-.782 1.75-1.75v-2c0-.414-.336-.75-.75-.75h-12.282c-.414 0-.75.336-.75.75v2c0 .968.782 1.75 1.75 1.75zm0-1.5c-.139 0-.25-.112-.25-.25v-1.25h10.782v1.25c0 .138-.112.25-.25.25z"/><path d="m9.371 1.25c-3.827 0-6.891 2.822-6.891 6.25v11.5c0 .414.336.75.75.75h12.283c.415 0 .75-.336.75-.75v-.665s4.27-3.824 4.27-3.824c1.204-1.079 1.322-2.924.265-4.148 0-.001-.001-.002-.002-.002-.526-.61-1.275-.982-2.078-1.033-.804-.052-1.594.222-2.194.759l-.261.234v-2.821c0-3.428-3.064-6.25-6.892-6.25zm0 1.5c2.957 0 5.392 2.102 5.392 4.75v4.5c0 .296.174.564.444.685.271.12.586.071.807-.126l1.511-1.355c.3-.268.695-.405 1.097-.379.402.025.776.211 1.039.516l.002.002c.523.605.464 1.517-.131 2.05l-4.519 4.048c-.159.143-.25.346-.25.559v.25h-10.783v-10.75c0-2.648 2.435-4.75 5.391-4.75z"/></g></svg>