<svg clip-rule="evenodd" fill-rule="evenodd" height="512" stroke-linejoin="round" stroke-miterlimit="2" viewBox="0 0 24 24" width="512" xmlns="http://www.w3.org/2000/svg"><g id="Icon"><path d="m15.264 3.789c-.275-.588-.852-.976-1.5-1.007-.642-.032-1.25.292-1.582.84-2.417 3.775-6.57 6.75-9.916 8.269-.43.187-.767.539-.935.977-.169.442-.152.934.048 1.363.411.888 1.03 2.216 1.445 3.106v.001c.202.431.57.761 1.02.915.446.152.935.118 1.355-.094 3.304-1.601 8.261-2.83 12.698-2.279.642.097 1.275-.159 1.66-.668.388-.514.461-1.2.189-1.784-1.161-2.516-3.308-7.121-4.482-9.639zm-1.359.635c1.173 2.516 3.319 7.118 4.48 9.635.001.001.001.002.002.003.037.08.027.174-.026.245-.054.07-.142.105-.229.091-.009-.001-.018-.002-.027-.004-4.738-.594-10.037.707-13.565 2.417-.005.003-.011.005-.016.008-.06.031-.131.036-.195.014s-.117-.069-.146-.13c-.414-.89-1.032-2.215-1.444-3.104 0 0 0-.001-.001-.002-.028-.06-.03-.13-.006-.192.024-.063.072-.113.133-.139.006-.003.011-.005.016-.007 3.57-1.619 7.992-4.806 10.569-8.835.004-.007.009-.014.013-.022.047-.08.135-.127.227-.122.093.004.176.06.215.144z"/><path d="m10.97 6.411 4.014 8.61c.175.375.622.538.997.363s.538-.622.363-.997l-4.015-8.61c-.175-.375-.621-.538-.997-.363-.375.175-.537.622-.362.997z"/><path d="m7.1 17.042 1.713 3.674c.409.876 1.45 1.255 2.326.847.149-.07.304-.142.453-.212.421-.196.746-.551.905-.987s.138-.918-.059-1.338c-.566-1.215-1.501-3.221-1.501-3.221-.175-.375-.622-.538-.997-.363s-.538.622-.363.997l1.502 3.221c.028.06.031.129.008.191-.022.062-.069.113-.129.141l-.453.211c-.125.059-.274.004-.332-.121 0 0-1.713-3.674-1.713-3.674-.175-.375-.622-.537-.997-.362s-.538.621-.363.996z"/><path d="m19.412 8.543 1.812-.845c.375-.175.538-.622.363-.997s-.622-.538-.997-.363l-1.812.845c-.376.175-.538.622-.363.997s.621.538.997.363z"/><path d="m19.864 11.951 1.879.684c.389.142.82-.059.962-.448.141-.389-.06-.82-.448-.961l-1.88-.684c-.389-.142-.82.059-.961.448-.142.389.059.82.448.961z"/><path d="m17.867 5.159.684-1.879c.142-.389-.059-.82-.448-.962-.389-.141-.82.06-.961.449l-.684 1.879c-.142.389.059.82.448.961.389.142.819-.059.961-.448z"/></g></svg>