<svg clip-rule="evenodd" fill-rule="evenodd" height="512" stroke-linejoin="round" stroke-miterlimit="2" viewBox="0 0 24 24" width="512" xmlns="http://www.w3.org/2000/svg"><g id="Icon"><path d="m12.75 5c0 .414-.336.75-.75.75s-.75-.336-.75-.75.336-.75.75-.75.75.336.75.75" fill-rule="nonzero"/><path d="m15.25 10c0-1.794-1.456-3.25-3.25-3.25s-3.25 1.456-3.25 3.25 1.456 3.25 3.25 3.25 3.25-1.456 3.25-3.25zm-1.5 0c0 .966-.784 1.75-1.75 1.75s-1.75-.784-1.75-1.75.784-1.75 1.75-1.75 1.75.784 1.75 1.75z"/><path d="m7.5 22.75h9c.414 0 .75-.336.75-.75s-.336-.75-.75-.75h-9c-.414 0-.75.336-.75.75s.336.75.75.75z"/><path d="m20.75 10c0-4.829-3.921-8.75-8.75-8.75s-8.75 3.921-8.75 8.75 3.921 8.75 8.75 8.75 8.75-3.921 8.75-8.75zm-1.5 0c0 4.001-3.249 7.25-7.25 7.25s-7.25-3.249-7.25-7.25 3.249-7.25 7.25-7.25 7.25 3.249 7.25 7.25z"/><path d="m8.75 17.738v4.262c0 .414.336.75.75.75h5c.414 0 .75-.336.75-.75v-4.262c0-.414-.336-.75-.75-.75s-.75.336-.75.75v3.512h-3.5v-3.512c0-.414-.336-.75-.75-.75s-.75.336-.75.75z"/></g></svg>