<svg clip-rule="evenodd" fill-rule="evenodd" height="512" stroke-linejoin="round" stroke-miterlimit="2" viewBox="0 0 24 24" width="512" xmlns="http://www.w3.org/2000/svg"><g id="Icon"><path d="m2.708 21.068s3.661-10.345 16.058-15.048c.387-.147.582-.58.435-.967s-.58-.582-.967-.435c-13.109 4.972-16.942 15.952-16.942 15.952-.137.391.069.819.459.957.391.137.819-.069.957-.459z"/><path d="m3.848 16.19c.042.073.095.139.159.194 2.55 2.227 4.855 2.982 6.885 2.827 3.027-.23 5.516-2.527 7.394-5.377 2.971-4.51 4.441-10.332 4.441-10.332.055-.216.01-.444-.121-.624s-.335-.293-.557-.307c-10.615-.697-15.616 1.361-17.828 3.934-1.774 2.063-1.876 4.505-1.513 6.436.353 1.876 1.14 3.249 1.14 3.249zm1.247-.849c-.168-.323-.664-1.356-.913-2.678-.291-1.551-.249-3.522 1.176-5.18 1.987-2.312 6.448-3.954 15.669-3.47-.514 1.736-1.84 5.727-3.994 8.995-1.608 2.441-3.663 4.51-6.254 4.708-1.688.128-3.57-.558-5.682-2.372z"/><path d="m6.021 14.396s1.769 1.519 5.058 1.169c.412-.044.711-.414.667-.825-.044-.412-.414-.711-.825-.667-2.553.272-3.942-.831-3.942-.831-.318-.264-.792-.221-1.056.098-.264.318-.221.792.098 1.056z"/><path d="m9.404 11.19s1.85.979 4.461.576c.409-.063.689-.447.626-.856s-.446-.69-.856-.627c-2.069.32-3.539-.424-3.539-.424-.368-.191-.821-.047-1.012.32-.19.368-.047.821.32 1.011z"/><path d="m13.685 8.38c.736.34 1.845.711 3.229.745.414.01.758-.318.768-.731.01-.414-.318-.758-.732-.769-1.129-.027-2.035-.329-2.635-.606-.376-.174-.822-.01-.996.366-.173.376-.009.822.366.995z"/><path d="m8.184 12.012s-1.079-2.374.613-4.18c.283-.302.268-.777-.034-1.06s-.777-.268-1.06.034c-2.358 2.517-.887 5.82-.887 5.82.169.378.614.547.991.377.378-.169.547-.614.377-.991z"/><path d="m12.395 8.552c.004-.752.21-1.644.943-2.426.283-.302.267-.777-.035-1.06s-.777-.268-1.06.035c-1.041 1.111-1.342 2.373-1.348 3.443-.003.414.331.752.745.754s.752-.332.755-.746z"/></g></svg>