<svg viewBox="0 0 32 32" xmlns="http://www.w3.org/2000/svg"><g id="snapchat_media_social" data-name="snapchat, media, social"><path d="m27.6924 20.7666a9.0076 9.0076 0 0 1 -2.4668-1.2109 11.284 11.284 0 0 1 -1.5947-2.4717c.1748-.0811 3.6012-1.084 2.541-3.0088a2.1787 2.1787 0 0 0 -2.876-.8189c.1855-3.1772-.4326-5.581-1.8428-7.1552a6.9432 6.9432 0 0 0 -5.4297-2.1011 6.9773 6.9773 0 0 0 -5.458 2.1167c-1.4189 1.5825-2.0429 3.9814-1.86 7.14-.6358-.2016-2.2027-.7047-2.878.82-.6932 1.5658 2.3672 2.9258 2.542 3.0069a11.2868 11.2868 0 0 1 -1.5947 2.4707 9.2693 9.2693 0 0 1 -2.4668 1.2119c-1.0085.3807-1.5576 1.1039-1.1474 1.958.464.9663 2.3769 1.38 3.3671 1.5371a1.6132 1.6132 0 0 0 .6192 1.375c.88.5731 2.6475-.2681 3.5137-.0527 1.1431.2847 3.8336 2.4164 5.3629 2.4164a5.3375 5.3375 0 0 0 2.4346-.6875 1 1 0 1 0 -.916-1.7773 3.4585 3.4585 0 0 1 -1.5186.4648c-.9336 0-3.7779-2.1-4.9052-2.3633a9.5556 9.5556 0 0 0 -2.62.1524c-.14-1.1924-.8027-1.4561-1.36-1.4561a4.1345 4.1345 0 0 1 -.9356-.166 5.7138 5.7138 0 0 0 2.1172-1.3418c1.7862-2.1709 2.4385-3.749 1.9385-4.69a1.87 1.87 0 0 0 -.7949-.7374c.3125-.0244 1.4237-.36 1.3232-1.2583-.3436-3.0729.1016-5.3862 1.2686-6.6879a5.0181 5.0181 0 0 1 3.9682-1.4516 4.9856 4.9856 0 0 1 3.9405 1.436c1.1738 1.31 1.6264 3.5686 1.25 6.7036-.1492 1.2421 1.0107 1.2339 1.3232 1.2583a1.8667 1.8667 0 0 0 -.7949.7383c-.5.94.1523 2.5181 1.9385 4.69a5.7256 5.7256 0 0 0 2.1172 1.3408 5.14 5.14 0 0 1 -.9336.166c-.56 0-1.2227.2637-1.3623 1.4561a9.4728 9.4728 0 0 0 -2.62-.1524 1 1 0 0 0 .459 1.9473c.7887-.1777 2.6771.6258 3.5127.0527a1.65 1.65 0 0 0 .6192-1.375c.99-.1572 2.8376-.6051 3.3671-1.5371.6221-1.0946-.2016-1.6175-1.1476-1.958z"/></g></svg>