<svg clip-rule="evenodd" fill-rule="evenodd" height="512" stroke-linejoin="round" stroke-miterlimit="2" viewBox="0 0 24 24" width="512" xmlns="http://www.w3.org/2000/svg"><g id="Icon"><path d="m20 19.75c1.518 0 2.75-1.232 2.75-2.75v-7c0-1.518-1.232-2.75-2.75-2.75h-16c-1.518 0-2.75 1.232-2.75 2.75v7c0 1.518 1.232 2.75 2.75 2.75h4c.414 0 .75-.336.75-.75v-2.25h6.5v2.25c0 .414.336.75.75.75zm0-1.5h-3.25v-2.25c0-.414-.336-.75-.75-.75h-8c-.414 0-.75.336-.75.75v2.25h-3.25c-.69 0-1.25-.56-1.25-1.25v-7c0-.69.56-1.25 1.25-1.25h16c.69 0 1.25.56 1.25 1.25v7c0 .69-.56 1.25-1.25 1.25z"/><path d="m15 22.75c.968 0 1.75-.782 1.75-1.75v-5c0-.414-.336-.75-.75-.75h-8c-.414 0-.75.336-.75.75v5c0 .968.782 1.75 1.75 1.75zm0-1.5h-6c-.138 0-.25-.112-.25-.25v-4.25h6.5v4.25c0 .138-.112.25-.25.25z"/><path d="m16 8.75c.414 0 .75-.336.75-.75v-5c0-.966-.782-1.75-1.75-1.75h-6c-.968 0-1.75.784-1.75 1.75v5c0 .414.336.75.75.75zm-.75-1.5h-6.5v-4.25c0-.138.112-.25.25-.25h6c.138 0 .25.112.25.25z"/></g></svg>