<svg clip-rule="evenodd" fill-rule="evenodd" height="512" stroke-linejoin="round" stroke-miterlimit="2" viewBox="0 0 24 24" width="512" xmlns="http://www.w3.org/2000/svg"><g id="Icon"><path d="m18.801 2.85c-.001 0-.001 0-.002 0-2.575-.038-7.317.537-11.364 4.585-4.048 4.047-4.623 8.789-4.585 11.364v.002c.026 1.481 1.22 2.674 2.7 2.7h.002c2.575.038 7.317-.537 11.364-4.585 4.048-4.047 4.623-8.789 4.585-11.364 0-.001 0-.002 0-.002-.026-1.481-1.22-2.674-2.7-2.7zm-.025 1.5c.671.012 1.213.554 1.226 1.225.033 2.33-.485 6.62-4.146 10.281s-7.951 4.179-10.281 4.145c-.672-.012-1.213-.554-1.226-1.225-.033-2.33.485-6.62 4.146-10.281s7.951-4.179 10.281-4.145z"/><path d="m15.513 8.838c-.535-.534-1.297-.781-2.168-.711-1.092.087-2.381.691-3.454 1.764s-1.677 2.362-1.764 3.454c-.07.871.177 1.633.711 2.168.535.534 1.297.78 2.168.711 1.092-.087 2.381-.691 3.454-1.764s1.677-2.362 1.764-3.454c.069-.871-.177-1.633-.711-2.168zm-1.061 1.061c.24.24.308.596.277.988-.064.8-.543 1.726-1.33 2.512-.786.787-1.712 1.266-2.512 1.33-.392.031-.748-.037-.988-.277-.241-.24-.308-.596-.277-.988.064-.8.543-1.726 1.329-2.513.787-.786 1.713-1.265 2.513-1.329.392-.031.748.036.988.277z"/><path d="m17.259 6.031-1.052 1.053c-.293.292-.293.768 0 1.06.292.293.767.293 1.06 0l1.053-1.052c.293-.293.293-.768 0-1.061s-.768-.293-1.061 0z"/><path d="m7.079 16.211-1.052 1.053c-.293.292-.293.768 0 1.06.292.293.767.293 1.06 0l1.053-1.052c.293-.293.293-.768 0-1.061s-.768-.293-1.061 0z"/><path d="m18.671 17.61-12.281-12.281c-.293-.292-.768-.292-1.061 0-.292.293-.292.768 0 1.061l12.281 12.281c.293.292.768.292 1.061 0 .292-.293.292-.768 0-1.061z"/><path d="m22.73 20.068c.06-.253-.016-.52-.2-.704l-2.456-2.456c-.228-.228-.577-.285-.866-.14l-1.403.702c-.145.072-.263.19-.335.335l-.702 1.403c-.145.289-.088.638.14.866l2.456 2.456c.184.184.449.259.702.2 1.438-.336 2.323-1.227 2.664-2.662zm-1.582.036c-.203.493-.549.842-1.043 1.045 0 0-1.754-1.753-1.754-1.753s.348-.697.348-.697.697-.348.697-.348z"/><path d="m4.636 1.47c-.184-.184-.451-.26-.704-.2-1.435.341-2.326 1.226-2.662 2.664-.059.253.016.518.2.702l2.456 2.456c.228.228.577.285.866.14l1.403-.702c.145-.072.263-.19.335-.335l.702-1.403c.145-.289.088-.638-.14-.866zm-.74 1.382 1.753 1.752s-.348.697-.348.697-.697.348-.697.348-1.753-1.754-1.753-1.754c.202-.493.552-.84 1.045-1.043z"/></g></svg>