<svg clip-rule="evenodd" fill-rule="evenodd" stroke-linejoin="round" stroke-miterlimit="1.414" viewBox="0 0 32 32" xmlns="http://www.w3.org/2000/svg" xmlns:serif="http://www.serif.com/"><path id="qr-code-scanner-scan" d="m0 0h32v32h-32z" fill="none"/><path d="m26.043 27.031h-6.017c-.867-.021-1.409-1.396-.466-1.891.1-.052.209-.088.321-.104.048-.007.096-.01.145-.011h5.014v-5.014s.046-.479.32-.734c.166-.154.384-.25.61-.266.094-.007.116-.001.145 0 .178.017.231.038.328.081.326.142.563.465.598.822.004.043.004.054.005.097v6.017c-.005.176-.021.229-.056.328-.124.361-.469.634-.852.67-.042.004-.053.004-.095.005zm-14.04 0h-6.016c-.176-.004-.229-.021-.328-.055-.361-.125-.634-.47-.671-.853-.004-.042-.003-.053-.004-.095v-6.017c.004-.176.021-.229.055-.328.125-.36.47-.633.852-.67.043-.004.053-.004.096-.005h6.016c.016.001.032.001.048.002.176.012.228.031.325.07.34.136.591.469.626.836.004.042.003.053.004.095v6.017c-.004.176-.021.229-.055.328-.125.361-.47.634-.852.67-.042.004-.053.004-.096.005zm-1.002-6.017h-4.012v4.011h4.012zm9.025-4.011h-16.045c-.257-.01-.327-.044-.455-.109-.554-.283-.721-1.136-.254-1.603.186-.186.444-.283.709-.294h16.045c.026.001.052.002.079.003.255.03.322.07.445.145.512.313.621 1.128.185 1.564-.186.186-.444.283-.709.294zm8.022 0h-4.011c-.764-.015-1.313-1.047-.743-1.676.187-.207.466-.324.743-.33h4.011c.014 0 .027.001.04.001.853.051 1.33 1.423.421 1.893-.106.055-.222.09-.341.105-.04.004-.08.006-.12.007zm-16.045-4.011h-6.016c-.176-.005-.229-.021-.328-.056-.361-.124-.634-.469-.671-.852-.004-.042-.003-.053-.004-.095v-6.017c.004-.176.021-.229.055-.328.125-.361.47-.634.852-.67.043-.004.053-.004.096-.005h6.016c.016 0 .032.001.048.001.176.013.228.032.325.071.34.136.591.469.626.836.004.042.003.053.004.095v6.017c-.004.176-.021.229-.055.328-.125.36-.47.634-.852.67-.042.004-.053.004-.096.005zm14.04 0h-6.017c-.176-.005-.229-.021-.328-.056-.361-.124-.634-.469-.67-.852-.004-.042-.004-.053-.005-.095v-6.017c.004-.176.021-.229.055-.328.125-.36.47-.634.853-.67.042-.004.053-.004.095-.005h6.017c.016 0 .032.001.047.001.176.013.228.032.325.071.34.136.591.469.626.836.004.042.004.053.005.095v6.017c-.005.176-.021.229-.056.328-.124.361-.469.634-.852.67-.042.004-.053.004-.095.005zm-15.042-6.017h-4.012v4.011h4.012zm14.039 0h-4.011v4.011h4.011z" fill-rule="nonzero"/></svg>