<svg clip-rule="evenodd" fill-rule="evenodd" height="512" stroke-linejoin="round" stroke-miterlimit="2" viewBox="0 0 24 24" width="512" xmlns="http://www.w3.org/2000/svg"><g id="Icon"><path d="m21.707 8.814s0 0 .001-.001c.797-.502.773-1.675-.047-2.143.001.001-8.779-5.022-8.779-5.022-.537-.308-1.198-.308-1.737 0l-8.78 5.023c-.819.467-.843 1.64-.045 2.142l8.763 5.503c.569.357 1.292.357 1.86 0zm-1.152-1.048-8.409 5.28c-.081.05-.184.05-.266 0l-8.408-5.28 8.417-4.816c.077-.044.171-.045.248-.001z"/><path d="m21.587 11.101-9.44 5.943c-.082.052-.186.052-.269.001 0 0-9.466-5.945-9.466-5.945-.35-.22-.814-.114-1.034.237-.22.35-.114.813.237 1.034l9.468 5.945c.569.357 1.293.357 1.863-.002l9.44-5.944c.35-.221.456-.684.235-1.034-.22-.351-.684-.456-1.034-.235z"/><path d="m21.587 15.101-9.44 5.943c-.082.052-.186.052-.269.001 0 0-9.466-5.945-9.466-5.945-.35-.22-.814-.114-1.034.237-.22.35-.114.813.237 1.034l9.468 5.945c.569.357 1.293.357 1.863-.002l9.44-5.944c.35-.221.456-.684.235-1.034-.22-.351-.684-.456-1.034-.235z"/></g></svg>