<svg clip-rule="evenodd" fill-rule="evenodd" height="512" stroke-linejoin="round" stroke-miterlimit="2" viewBox="0 0 24 24" width="512" xmlns="http://www.w3.org/2000/svg"><g id="Icon"><path d="m9 4.25c4.28 0 7.75 3.47 7.75 7.75v5c0 1.519-1.231 2.75-2.75 2.75h-9c-2.071 0-3.75-1.679-3.75-3.75v-4c0-4.28 3.47-7.75 7.75-7.75zm0 1.5c-3.452 0-6.25 2.798-6.25 6.25v4c0 1.243 1.007 2.25 2.25 2.25h9c.69 0 1.25-.56 1.25-1.25v-5c0-3.452-2.798-6.25-6.25-6.25z"/><path d="m16 18.75c-.414 0-.75-.336-.75-.75s.336-.75.75-.75h5c.066 0 .13-.026.177-.073s.073-.111.073-.177v-4c0-.066-.026-.13-.073-.177s-.111-.073-.177-.073h-5c-.414 0-.75-.336-.75-.75s.336-.75.75-.75h5c.464 0 .909.184 1.237.513.329.328.513.773.513 1.237v4c0 .464-.184.909-.513 1.237-.328.329-.773.513-1.237.513z"/><path d="m9 7.75c2.622 0 4.75 2.128 4.75 4.75s-2.128 4.75-4.75 4.75-4.75-2.128-4.75-4.75 2.128-4.75 4.75-4.75zm0 1.5c-1.794 0-3.25 1.456-3.25 3.25s1.456 3.25 3.25 3.25 3.25-1.456 3.25-3.25-1.456-3.25-3.25-3.25z"/><circle cx="9" cy="12.5" r="1"/><path d="m19.75 18c0 .414-.336.75-.75.75s-.75-.336-.75-.75v-1.5c0-.414.336-.75.75-.75s.75.336.75.75z"/></g></svg>