<svg clip-rule="evenodd" fill-rule="evenodd" stroke-linejoin="round" stroke-miterlimit="2" viewBox="0 0 32 32" xmlns="http://www.w3.org/2000/svg" xmlns:serif="http://www.serif.com/"><path id="graduation-hat-educate" d="m0 0h32v32h-32z" fill="none"/><path d="m21.02 18.64-4.569 2.284c-.444.197-.586.138-.898 0l-12.042-6.021c-.66-.37-.702-1.401 0-1.795l12.042-6.022c.131-.058.178-.118.542-.101.164.023.205.034.356.101l12.043 6.022c.665.374.684 1.41 0 1.795l-2.122 1.061v4.063c-.026.863-1.389 1.425-1.892.466-.072-.137-.108-.218-.115-.466v-3.06l-1.338.669v4.398c-.015.448-.33.767-.793 1.062-2.818 1.8-6.367 2.472-9.512 1.427-1.154-.383-2.24-.95-3.252-1.623 0 0-.478-.401-.493-.866v-1.053c.009-.253.044-.328.113-.462.309-.596 1.288-.715 1.711-.117.115.163.173.272.183.579v.507c2.218 1.371 4.956 1.951 7.411 1.214.893-.268 1.741-.673 2.54-1.161l.085-.052zm4.178-4.328.613-.307-9.809-4.904-9.809 4.904 9.809 4.905 6.045-3.023-6.188-.888s-.339-.072-.539-.257c-.578-.535-.293-1.732.704-1.74l.06.003.061.007z"/></svg>