<svg clip-rule="evenodd" fill-rule="evenodd" height="512" stroke-linejoin="round" stroke-miterlimit="2" viewBox="0 0 24 24" width="512" xmlns="http://www.w3.org/2000/svg"><g id="Icon"><path d="m17.75 4.625c0-.597-.237-1.169-.659-1.591s-.994-.659-1.591-.659c-2.874 0-9.126 0-12 0-.597 0-1.169.237-1.591.659s-.659.994-.659 1.591v7c0 .597.237 1.169.659 1.591s.994.659 1.591.659h.75v1.25c0 .473.268.906.691 1.118s.93.166 1.309-.118c0 0 3-2.25 3-2.25h6.25c.597 0 1.169-.237 1.591-.659s.659-.994.659-1.591zm-12 10v-1.5c0-.414-.336-.75-.75-.75 0 0-.75 0-1.5 0-.199 0-.39-.079-.53-.22-.141-.14-.22-.331-.22-.53v-7c0-.199.079-.39.22-.53.14-.141.331-.22.53-.22h12c.199 0 .39.079.53.22.141.14.22.331.22.53v7c0 .199-.079.39-.22.53-.14.141-.331.22-.53.22h-6.5c-.162 0-.32.053-.45.15z"/><path d="m18.25 19.875-2.8-2.1c-.13-.097-.288-.15-.45-.15h-6.5c-.199 0-.39-.079-.53-.22-.293-.292-.768-.292-1.061 0-.293.293-.293.768 0 1.061.422.422.994.659 1.591.659h6.25s3 2.25 3 2.25c.379.284.886.33 1.309.118s.691-.645.691-1.118v-1.25h.75c.597 0 1.169-.237 1.591-.659s.659-.994.659-1.591c0-1.888 0-5.112 0-7 0-.597-.237-1.169-.659-1.591s-.994-.659-1.591-.659h-1.5c-.414 0-.75.336-.75.75s.336.75.75.75h1.5c.199 0 .39.079.53.22.141.14.22.331.22.53v7c0 .199-.079.39-.22.53-.14.141-.331.22-.53.22-.75 0-1.5 0-1.5 0-.414 0-.75.336-.75.75z"/><path d="m5.5 7.375h8.5c.414 0 .75-.336.75-.75s-.336-.75-.75-.75h-8.5c-.414 0-.75.336-.75.75s.336.75.75.75z"/><path d="m5.5 10.375h5.5c.414 0 .75-.336.75-.75s-.336-.75-.75-.75h-5.5c-.414 0-.75.336-.75.75s.336.75.75.75z"/></g></svg>