<svg clip-rule="evenodd" fill-rule="evenodd" height="512" stroke-linejoin="round" stroke-miterlimit="2" viewBox="0 0 24 24" width="512" xmlns="http://www.w3.org/2000/svg"><g id="Icon"><path d="m12 1.25c-5.933 0-10.75 4.817-10.75 10.75s4.817 10.75 10.75 10.75 10.75-4.817 10.75-10.75-4.817-10.75-10.75-10.75zm0 1.5c5.105 0 9.25 4.145 9.25 9.25s-4.145 9.25-9.25 9.25-9.25-4.145-9.25-9.25 4.145-9.25 9.25-9.25z"/><path d="m17.075 10.147c.273.56.425 1.189.425 1.853s-.152 1.293-.425 1.853c-.18.372-.025.821.347 1.002.373.181.822.026 1.003-.347.368-.758.575-1.609.575-2.508s-.207-1.75-.575-2.508c-.181-.373-.63-.528-1.003-.347-.372.181-.527.63-.347 1.002z"/><path d="m6.124 9.051c-.672.389-1.124 1.116-1.124 1.949v2c0 1.243 1.007 2.25 2.25 2.25h1.486c.839 0 1.659.248 2.358.714.284.189.595.397.908.605.344.23.81.137 1.04-.208.23-.344.136-.81-.208-1.04-.313-.208-.624-.416-.908-.605-.945-.63-2.055-.966-3.19-.966h-1.486c-.414 0-.75-.336-.75-.75 0-.633 0-1.367 0-2 0-.278.151-.52.376-.65.358-.207.48-.667.273-1.025s-.666-.481-1.025-.274z"/><path d="m15.5 14.697c0-1.654 0-3.74 0-5.394 0-.83-.457-1.592-1.188-1.984-.732-.392-1.62-.349-2.31.112l-.908.605c-.517.345-1.1.57-1.709.664-.409.063-.689.447-.626.856s.447.69.856.627c.823-.128 1.612-.433 2.311-.899l.908-.605c.23-.154.526-.168.77-.037.244.13.396.384.396.661v5.394c0 .414.336.75.75.75s.75-.336.75-.75z"/><path d="m19.601 18.541-14.142-14.142c-.292-.293-.768-.293-1.06 0-.293.292-.293.768 0 1.06l14.142 14.142c.292.293.768.293 1.06 0 .293-.292.293-.768 0-1.06z"/></g></svg>