<svg clip-rule="evenodd" fill-rule="evenodd" height="512" stroke-linejoin="round" stroke-miterlimit="2" viewBox="0 0 24 24" width="512" xmlns="http://www.w3.org/2000/svg"><g id="Icon"><path d="m6.093 17.586 2.324-13.182c.13-.736.549-1.39 1.167-1.818.615-.426 1.375-.592 2.115-.462l8.779 1.548c.718.127 1.356.533 1.775 1.131.418.597.582 1.336.455 2.055l-2.246 12.738c-.13.736-.549 1.39-1.167 1.818-.614.426-1.375.592-2.115.462l-9.207-1.624c-1.261-.222-2.1-1.417-1.88-2.666zm1.477.261c-.077.437.223.85.664.928l9.206 1.624c.35.061.71-.016 1.001-.218.288-.199.484-.503.544-.846l2.246-12.738c.058-.326-.017-.662-.207-.934-.19-.271-.48-.456-.807-.514l-8.778-1.548c-.35-.061-.71.016-1.001.218-.287.199-.483.503-.544.846z"/><path d="m11.37 19.518c.407-.071.797.201.869.609.071.407-.201.797-.609.869l-4.81.848c-.74.13-1.501-.036-2.115-.462-.618-.428-1.037-1.082-1.167-1.818l-2.246-12.738c-.127-.719.037-1.458.455-2.055.419-.598 1.057-1.004 1.775-1.131l5.943-1.048c.408-.072.797.201.869.608.072.408-.201.797-.609.869l-5.942 1.048c-.327.058-.617.243-.807.514-.19.272-.265.608-.207.934l2.246 12.738c.06.343.256.647.544.846.291.201.651.279 1.001.218z"/><path d="m11.558 13.007c-.408-.072-.68-.461-.609-.869.072-.407.462-.68.869-.608l5.417.955c.407.072.68.461.608.869s-.461.68-.869.608z"/><path d="m12.434 8.632c-.408-.072-.68-.461-.608-.869s.461-.68.868-.609l5.417.956c.408.071.68.461.608.868-.072.408-.461.681-.869.609z"/><path d="m10.95 15.954c-.408-.072-.68-.461-.608-.869.072-.407.461-.68.868-.608l5.417.955c.408.072.68.461.608.869-.072.407-.461.68-.869.608z"/></g></svg>