<svg clip-rule="evenodd" fill-rule="evenodd" height="512" stroke-linejoin="round" stroke-miterlimit="2" viewBox="0 0 24 24" width="512" xmlns="http://www.w3.org/2000/svg"><g id="Icon"><path d="m12.675 1.674c-.125-.259-.387-.424-.675-.424s-.55.165-.675.424l-7 14.5c-.154.317-.065.698.212.916l7 5.5c.272.213.654.213.926 0l7-5.5c.277-.218.366-.599.212-.916zm-.675 2.051 6.062 12.558s-6.062 4.763-6.062 4.763-6.062-4.763-6.062-4.763z"/><path d="m5.809 14.59 5.728 4.5c.272.213.654.213.926 0l4-3.143c.326-.256.382-.728.127-1.053-.256-.326-.728-.382-1.053-.127l-3.537 2.779s-5.264-4.136-5.264-4.136c-.325-.255-.797-.199-1.053.127-.256.325-.199.797.126 1.053z"/><path d="m11.502 3.061 8.449 7.51s-2.52 2.941-2.52 2.941c-.27.314-.233.788.081 1.057.314.27.788.233 1.057-.081l3-3.5c.267-.31.235-.777-.071-1.049l-9-8c-.309-.275-.784-.247-1.059.063-.275.309-.247.784.063 1.059z"/><path d="m11.502 1.939-9 8c-.306.272-.338.739-.071 1.049l3 3.5c.269.314.743.351 1.057.081.314-.269.351-.743.081-1.057l-2.52-2.941s8.449-7.51 8.449-7.51c.31-.275.338-.75.063-1.059-.275-.31-.75-.338-1.059-.063z"/></g></svg>