<svg clip-rule="evenodd" fill-rule="evenodd" stroke-linejoin="round" stroke-miterlimit="1.414" viewBox="0 0 32 32" xmlns="http://www.w3.org/2000/svg" xmlns:serif="http://www.serif.com/"><path id="menu-option-list" d="m0 0h32v32h-32z" fill="none"/><path d="m24.018 23.011h-16.026c-.256-.01-.326-.043-.455-.109-.552-.281-.72-1.134-.253-1.601.185-.185.443-.283.708-.293h16.026c.026.001.052.002.078.003.255.03.322.069.445.145.511.313.621 1.126.185 1.562-.185.185-.443.283-.708.293zm0-6.009h-16.026c-.68-.027-1.223-.808-.892-1.457.142-.28.424-.485.735-.534.07-.011.087-.01.157-.013h16.026c.026.001.052.002.078.003.255.031.322.07.445.145.51.312.627 1.121.185 1.562-.185.186-.443.283-.708.294zm0-6.01h-16.026c-.256-.01-.326-.044-.455-.109-.552-.282-.72-1.134-.253-1.601.185-.185.443-.283.708-.293h16.026c.026.001.052.002.078.003.255.03.322.069.445.144.508.312.629 1.118.185 1.563-.185.185-.443.283-.708.293z" fill-rule="nonzero"/></svg>