<svg clip-rule="evenodd" fill-rule="evenodd" stroke-linejoin="round" stroke-miterlimit="1.414" viewBox="0 0 32 32" xmlns="http://www.w3.org/2000/svg" xmlns:serif="http://www.serif.com/"><path id="question-mark-information" d="m0 0h32v32h-32z" fill="none"/><path d="m16.089 3.009c.307.044.386.101.523.209.631.494.384 1.784-.652 1.788-.036 0-.072 0-.107 0-4.126.059-8.101 2.579-9.863 6.415-1.415 3.08-1.312 6.813.329 9.832 1.6 2.945 4.594 5.093 7.932 5.625 4.438.707 9.219-1.574 11.421-5.625 1.908-3.511 1.709-8.064-.571-11.422-1.285-1.894-3.158-3.359-5.333-4.159l-.088-.037c-.257-.139-.284-.192-.365-.299-.503-.665.181-1.899 1.201-1.52 4.778 1.771 8.166 6.359 8.463 11.431.236 4.029-1.521 8.116-4.622 10.723-3.378 2.839-8.242 3.786-12.456 2.388-4.428-1.47-7.934-5.465-8.729-10.168-.824-4.868 1.361-10.133 5.551-12.964 2.125-1.436 4.674-2.217 7.271-2.221.031.001.063.002.095.004zm-.094 20.001c.556 0 1.007.45 1.007 1.004s-.451 1.004-1.007 1.004c-.555 0-1.007-.45-1.007-1.004s.452-1.004 1.007-1.004zm.032-16.004c2.578.025 4.952 2.242 4.971 4.988.015 2.187-1.729 4.133-4.002 4.804v3.214c-.009.253-.043.328-.112.461-.309.594-1.279.721-1.706.116-.092-.13-.152-.282-.174-.44-.008-.061-.007-.076-.009-.137v-3.663c.007-.661.508-1.24 1.179-1.402 1.375-.342 2.771-1.306 2.822-2.87.053-1.582-1.351-3.049-2.962-3.069-1.581-.02-3.035 1.369-3.04 3 0 0-.108.745-.666.943-.61.217-1.344-.273-1.335-1.009.001-.064.003-.128.006-.192.126-2.481 2.277-4.701 4.93-4.743.033-.001.066-.001.098-.001z" fill-rule="nonzero"/></svg>