<svg clip-rule="evenodd" fill-rule="evenodd" height="512" stroke-linejoin="round" stroke-miterlimit="2" viewBox="0 0 24 24" width="512" xmlns="http://www.w3.org/2000/svg"><g id="Icon"><path d="m3.408 18.813c-.051 1.026.321 2.027 1.029 2.772.708.744 1.69 1.165 2.717 1.165h9.692c1.027 0 2.009-.421 2.717-1.165.708-.745 1.08-1.746 1.029-2.772l-.795-15.9c-.047-.932-.816-1.663-1.748-1.663h-.549c-.464 0-.909.184-1.237.513-.329.328-.513.773-.513 1.237v3.82c0 .073-.032.143-.088.19-.056.048-.131.068-.203.056l-1.671-.278c-.191-.032-.385-.032-.576 0l-2.671.445c-.027.004-.055.004-.082 0 0 0-2-.334-2-.334-.121-.02-.209-.124-.209-.246v-3.653c0-.967-.784-1.75-1.75-1.75h-.549c-.932 0-1.701.731-1.748 1.663zm1.499.075.795-15.9c.006-.134.116-.238.249-.238h.549c.138 0 .25.112.25.25v3.653c0 .855.618 1.585 1.462 1.726l2 .333c.191.032.385.032.576 0l2.671-.445c.027-.004.055-.004.082 0 0 0 1.671.279 1.671.279.508.084 1.027-.059 1.419-.391.393-.333.619-.821.619-1.335v-3.82c0-.066.026-.13.073-.177s.111-.073.177-.073h.549c.133 0 .243.104.249.238l.795 15.9c.031.615-.192 1.216-.617 1.663-.424.446-1.013.699-1.63.699h-9.692c-.617 0-1.206-.253-1.63-.699-.425-.447-.648-1.048-.617-1.663z"/><path d="m10.801 17.446h-1.233c-.113 0-.218-.06-.275-.158-.057-.099-.057-.219-.001-.318l.563-.985c.205-.359.08-.818-.279-1.023-.36-.205-.818-.08-1.024.279l-.562.985c-.322.563-.32 1.254.006 1.814.325.561.924.906 1.572.906h1.233c.414 0 .75-.336.75-.75s-.336-.75-.75-.75z"/><path d="m11.053 13.888.671-1.174c.056-.099.162-.16.276-.16s.22.061.276.16l.671 1.174c.205.359.664.484 1.023.279.36-.205.485-.664.279-1.023l-.67-1.174c-.324-.566-.927-.916-1.579-.916s-1.255.35-1.579.916c0 0-.67 1.174-.67 1.174-.206.359-.081.818.279 1.023.359.205.818.08 1.023-.279z"/><path d="m14.252 16.171.456.799c.056.099.056.219-.001.318-.057.098-.162.158-.275.158h-1.233c-.414 0-.75.336-.75.75s.336.75.75.75h1.233c.648 0 1.247-.345 1.572-.906.326-.56.328-1.251.006-1.814 0 0-.456-.799-.456-.799-.205-.359-.664-.485-1.023-.279-.36.205-.485.664-.279 1.023z"/></g></svg>