<svg clip-rule="evenodd" fill-rule="evenodd" height="512" stroke-linejoin="round" stroke-miterlimit="2" viewBox="0 0 24 24" width="512" xmlns="http://www.w3.org/2000/svg"><g id="Icon"><path d="m12.671 6.664s-.832-1.664 0-3.329c.185-.37.035-.821-.336-1.006-.37-.185-.821-.035-1.006.335-1.168 2.336 0 4.671 0 4.671.185.37.636.521 1.006.335.371-.185.521-.636.336-1.006z"/><path d="m18.75 14c0-4.307-3.059-7.75-6.75-7.75s-6.75 3.443-6.75 7.75c0 4.306 3.059 7.75 6.75 7.75s6.75-3.444 6.75-7.75zm-1.5 0c0 3.42-2.318 6.25-5.25 6.25s-5.25-2.83-5.25-6.25c0-3.421 2.318-6.25 5.25-6.25s5.25 2.829 5.25 6.25z"/><path d="m6.75 14c0-2.118.888-3.992 2.263-5.132.205-.17.305-.435.262-.698-.042-.262-.221-.483-.469-.579-.568-.22-1.175-.341-1.806-.341-3.136 0-5.75 2.988-5.75 6.75 0 3.761 2.614 6.75 5.75 6.75.631 0 1.238-.122 1.806-.342.248-.096.427-.316.469-.579.043-.263-.057-.528-.262-.698-1.375-1.139-2.263-3.014-2.263-5.131zm-1.5 0c0 2.031.683 3.874 1.788 5.249-.012.001-.025.001-.038.001-2.389 0-4.25-2.385-4.25-5.25 0-2.866 1.861-5.25 4.25-5.25h.038c-1.105 1.375-1.788 3.217-1.788 5.25z"/><path d="m17 7.25c-.631 0-1.238.121-1.806.341-.248.096-.427.317-.469.579-.043.263.057.528.262.698 1.375 1.14 2.263 3.014 2.263 5.132 0 2.117-.888 3.992-2.263 5.131-.205.17-.305.435-.262.698.042.263.221.483.469.579.568.22 1.175.342 1.806.342 3.136 0 5.75-2.989 5.75-6.75 0-3.762-2.614-6.75-5.75-6.75zm0 1.5c2.389 0 4.25 2.384 4.25 5.25 0 2.865-1.861 5.25-4.25 5.25-.013 0-.026 0-.038-.001 1.105-1.375 1.788-3.218 1.788-5.249 0-2.033-.683-3.875-1.788-5.25z"/></g></svg>