<svg clip-rule="evenodd" fill-rule="evenodd" height="512" stroke-linejoin="round" stroke-miterlimit="2" viewBox="0 0 24 24" width="512" xmlns="http://www.w3.org/2000/svg"><g id="Icon"><path d="m19.337 14.75c1.885 0 3.413-1.528 3.413-3.414 0-5.57-4.516-10.086-10.087-10.086h-1.326c-5.571 0-10.087 4.516-10.087 10.086 0 1.886 1.528 3.414 3.413 3.414zm0-1.5h-14.674c-1.057 0-1.913-.856-1.913-1.914 0-4.742 3.844-8.586 8.587-8.586h1.326c4.743 0 8.587 3.844 8.587 8.586 0 1.057-.856 1.914-1.913 1.914z"/><path d="m12 22.75c2.05 0 3.652-1.77 3.447-3.81-.001-.009-.002-.019-.003-.029l-.701-5.015c-.052-.37-.369-.646-.743-.646h-4c-.374 0-.691.276-.743.646l-.701 5.015c-.001.01-.002.02-.003.029-.204 2.04 1.397 3.81 3.447 3.81zm0-1.5c-1.155 0-2.058-.991-1.957-2.137.001-.011.61-4.363.61-4.363h2.695s.608 4.352.608 4.352c.108 1.151-.798 2.148-1.956 2.148z"/></g></svg>