<svg clip-rule="evenodd" fill-rule="evenodd" height="512" stroke-linejoin="round" stroke-miterlimit="2" viewBox="0 0 24 24" width="512" xmlns="http://www.w3.org/2000/svg"><g id="Icon"><circle cx="7.75" cy="11" r=".75"/><circle cx="16.25" cy="11" r=".75"/><path d="m12 3.5c-5.105 0-9.25 4.145-9.25 9.25 0 .558.217 1.208.536 1.858.386.79.921 1.589 1.166 2.179 1.405 3.389 3.654 5.213 7.548 5.213s6.143-1.824 7.548-5.213c.245-.59.78-1.389 1.166-2.179.319-.65.536-1.3.536-1.858 0-5.105-4.145-9.25-9.25-9.25zm0 1.5c4.277 0 7.75 3.473 7.75 7.75 0 .473-.282 1.027-.577 1.576-.372.693-.795 1.368-1.01 1.887-1.15 2.773-2.976 4.287-6.163 4.287s-5.013-1.514-6.163-4.287c-.215-.519-.638-1.194-1.01-1.887-.295-.549-.577-1.103-.577-1.576 0-4.277 3.473-7.75 7.75-7.75z"/><path d="m16.781 5.374c.179-1.063 1.105-1.874 2.219-1.874 1.242 0 2.25 1.008 2.25 2.25 0 1.114-.811 2.04-1.874 2.219-.409.068-.684.456-.616.864.069.408.456.684.864.615 1.773-.298 3.126-1.841 3.126-3.698 0-2.07-1.68-3.75-3.75-3.75-1.857 0-3.4 1.353-3.698 3.126-.069.408.207.795.615.864.408.068.796-.207.864-.616z"/><path d="m8.719 5.126c-.298-1.773-1.841-3.126-3.698-3.126-2.07 0-3.75 1.68-3.75 3.75 0 1.857 1.353 3.4 3.125 3.698.409.069.796-.207.864-.615.069-.408-.207-.796-.615-.864-1.063-.179-1.874-1.105-1.874-2.219 0-1.242 1.008-2.25 2.25-2.25 1.114 0 2.04.811 2.219 1.874.068.409.455.684.864.616.408-.069.683-.456.615-.864z"/><path d="m6.53 6.22-1.5-1.5c-.292-.293-.768-.293-1.06 0-.293.292-.293.768 0 1.06l1.5 1.5c.292.293.768.293 1.06 0 .293-.292.293-.768 0-1.06z"/><path d="m18.53 7.28 1.5-1.5c.293-.292.293-.768 0-1.06-.292-.293-.768-.293-1.06 0l-1.5 1.5c-.293.292-.293.768 0 1.06.292.293.768.293 1.06 0z"/><path d="m14.922 13.714c.154-.385.107-.821-.125-1.165-.233-.343-.621-.549-1.035-.549h-3.524c-.414 0-.802.206-1.035.549-.232.344-.279.78-.125 1.165.069.174.146.365.223.557.417 1.044 1.429 1.729 2.553 1.729h.292c1.124 0 2.136-.685 2.553-1.729zm-4.314-.214h2.784l-.085.214c-.19.475-.65.786-1.161.786h-.292c-.511 0-.971-.311-1.161-.786z"/><path d="m11.25 15.25v.5c0 1.795 1.455 3.25 3.25 3.25h.5c.414 0 .75-.336.75-.75s-.336-.75-.75-.75h-.5c-.967 0-1.75-.783-1.75-1.75v-.5c0-.414-.336-.75-.75-.75s-.75.336-.75.75z"/><path d="m11.25 15.25v.5c0 .967-.783 1.75-1.75 1.75h-.5c-.414 0-.75.336-.75.75s.336.75.75.75h.5c1.795 0 3.25-1.455 3.25-3.25v-.5c0-.414-.336-.75-.75-.75s-.75.336-.75.75z"/></g></svg>