<svg clip-rule="evenodd" fill-rule="evenodd" height="512" stroke-linejoin="round" stroke-miterlimit="2" viewBox="0 0 24 24" width="512" xmlns="http://www.w3.org/2000/svg"><g id="Icon"><path d="m17.25 15.5c0-.464-.184-.909-.513-1.237-.328-.329-.773-.513-1.237-.513-1.732 0-5.268 0-7 0-.464 0-.909.184-1.237.513-.329.328-.513.773-.513 1.237v5.5c0 .464.184.909.513 1.237.328.329.773.513 1.237.513h7c.464 0 .909-.184 1.237-.513.329-.328.513-.773.513-1.237zm-1.5 0v5.5c0 .066-.026.13-.073.177s-.111.073-.177.073h-7c-.066 0-.13-.026-.177-.073s-.073-.111-.073-.177v-5.5c0-.066.026-.13.073-.177s.111-.073.177-.073h7c.066 0 .13.026.177.073s.073.111.073.177z"/><path d="m9.5 14.5v3c0 .414.336.75.75.75h3.5c.414 0 .75-.336.75-.75v-3c0-.414-.336-.75-.75-.75s-.75.336-.75.75v2.25h-2v-2.25c0-.414-.336-.75-.75-.75s-.75.336-.75.75z"/><path d="m21.592 10.949c.252.163.576.16.825-.006.249-.167.375-.465.321-.759-.935-5.08-5.39-8.934-10.738-8.934s-9.803 3.854-10.738 8.934c-.054.294.072.592.321.759.249.166.573.169.825.006 1.323-.857 2.9-1.354 4.592-1.354s3.269.497 4.592 1.354c.248.16.568.16.816 0 1.322-.856 2.901-1.199 4.592-1.199s3.27.343 4.592 1.199zm-.759-2.052c-1.18-.447-2.474-.647-3.833-.647-1.822 0-3.528.359-4.998 1.191-1.47-.856-3.179-1.346-5.002-1.346-1.352 0-2.641.269-3.817.758 1.342-3.564 4.785-6.103 8.817-6.103 4.048 0 7.504 2.56 8.834 6.147z"/><path d="m11.25 10.319v4.181c0 .414.336.75.75.75s.75-.336.75-.75v-4.181c0-.414-.336-.75-.75-.75s-.75.336-.75.75z"/><path d="m12.289 15.192 10-4.181c.382-.159.563-.599.403-.981s-.599-.562-.981-.403l-10 4.181c-.382.16-.563.599-.403.981s.599.563.981.403z"/><path d="m12.279 13.804-10-4c-.385-.154-.822.033-.975.417-.154.385.033.822.417.975l10 4c.385.154.822-.033.975-.417.154-.385-.033-.822-.417-.975z"/></g></svg>