<svg clip-rule="evenodd" fill-rule="evenodd" height="512" stroke-linejoin="round" stroke-miterlimit="2" viewBox="0 0 24 24" width="512" xmlns="http://www.w3.org/2000/svg"><g id="Icon"><path d="m18.25 16.75c.414 0 .75.336.75.75s-.336.75-.75.75-.75-.336-.75-.75.336-.75.75-.75" fill-rule="nonzero"/><path d="m15.25 16.75c.414 0 .75.336.75.75s-.336.75-.75.75-.75-.336-.75-.75.336-.75.75-.75" fill-rule="nonzero"/><path d="m20 21.75c1.518 0 2.75-1.232 2.75-2.75v-3c0-1.518-1.232-2.75-2.75-2.75h-16c-1.518 0-2.75 1.232-2.75 2.75v3c0 1.518 1.232 2.75 2.75 2.75zm0-1.5h-16c-.69 0-1.25-.56-1.25-1.25v-3c0-.69.56-1.25 1.25-1.25h16c.69 0 1.25.56 1.25 1.25v3c0 .69-.56 1.25-1.25 1.25z"/><path d="m20.75 22v-1c0-.414-.336-.75-.75-.75s-.75.336-.75.75v1c0 .414.336.75.75.75s.75-.336.75-.75z"/><path d="m4.75 22v-1c0-.414-.336-.75-.75-.75s-.75.336-.75.75v1c0 .414.336.75.75.75s.75-.336.75-.75z"/><path d="m8 16.75h-3c-.414 0-.75.336-.75.75s.336.75.75.75h3c.414 0 .75-.336.75-.75s-.336-.75-.75-.75z"/><path d="m21.304 3.721-4 10c-.154.385.033.822.417.975.385.154.822-.033.975-.417l4-10c.154-.385-.033-.822-.417-.975-.385-.154-.822.033-.975.417z"/><path d="m1.304 4.279 4 10c.153.384.59.571.975.417.384-.153.571-.59.417-.975l-4-10c-.153-.384-.59-.571-.975-.417-.384.153-.571.59-.417.975z"/><path d="m7.879 3.761c1.236-.649 2.636-1.011 4.121-1.011s2.886.362 4.12 1.011c.367.193.821.052 1.013-.315.193-.366.052-.82-.315-1.013-1.443-.759-3.082-1.183-4.818-1.183s-3.374.424-4.819 1.183c-.366.193-.507.647-.315 1.013.193.366.647.508 1.013.315z"/><path d="m9.849 6.339c.645-.339 1.376-.528 2.151-.528s1.506.189 2.151.528c.366.192.82.051 1.013-.315.192-.366.051-.82-.315-1.013-.854-.449-1.823-.7-2.849-.7-1.027 0-1.995.251-2.849.7-.366.193-.508.646-.315 1.013.192.366.646.507 1.013.315z"/><path d="m10.849 9.095c.345-.181.736-.282 1.151-.282s.806.101 1.151.282c.366.193.82.052 1.013-.315.192-.366.051-.82-.315-1.013-.554-.291-1.183-.454-1.849-.454s-1.295.163-1.849.454c-.366.193-.508.647-.315 1.013.192.366.646.508 1.013.315z"/></g></svg>