<svg clip-rule="evenodd" fill-rule="evenodd" height="512" stroke-linejoin="round" stroke-miterlimit="2" viewBox="0 0 24 24" width="512" xmlns="http://www.w3.org/2000/svg"><g id="Icon"><path d="m17.75 7c0-3.174-2.576-5.75-5.75-5.75s-5.75 2.576-5.75 5.75 2.576 5.75 5.75 5.75 5.75-2.576 5.75-5.75zm-1.5 0c0 2.346-1.904 4.25-4.25 4.25s-4.25-1.904-4.25-4.25 1.904-4.25 4.25-4.25 4.25 1.904 4.25 4.25z"/><path d="m18.5 22.75c1.243 0 2.25-1.008 2.25-2.25 0-4.004-3.246-7.25-7.25-7.25h-3c-4.004 0-7.25 3.246-7.25 7.25 0 1.242 1.007 2.25 2.25 2.25zm0-1.5h-13c-.415 0-.75-.336-.75-.75 0-3.176 2.574-5.75 5.75-5.75h3c3.176 0 5.75 2.574 5.75 5.75 0 .414-.335.75-.75.75z"/></g></svg>