<svg clip-rule="evenodd" fill-rule="evenodd" height="512" stroke-linejoin="round" stroke-miterlimit="2" viewBox="0 0 24 24" width="512" xmlns="http://www.w3.org/2000/svg"><g id="Icon"><path d="m18 22.353c2.422 0 4.422-1.814 4.724-4.157.001-.009.002-.018.003-.027.063-.684-.438-1.291-1.121-1.359-2.677-.267-16.033-1.603-18.965-1.888-.363-.036-.725.09-.987.345-.263.256-.4.614-.373.979 0 .007.001.013.001.02.334 3.416 3.214 6.087 6.718 6.087zm-15.182-5.907 1.224.121c2.677.265 5.353.532 8.03.798l9.119.911c-.317 1.469-1.624 2.577-3.191 2.577h-10c-2.612 0-4.779-1.908-5.182-4.407z"/><path d="m12.75 16.602v-12.999c0-.413-.336-.75-.75-.75s-.75.337-.75.75v12.999c0 .414.336.75.75.75s.75-.336.75-.75z"/><path d="m10.575 2.056-7.794 8.573c-.967 1.064-.31 2.776 1.122 2.918-.001 0 8.022.803 8.022.803.211.021.421-.048.578-.191.157-.142.247-.344.247-.556 0 0 0-7.605 0-10.706 0-.517-.318-.98-.799-1.166-.482-.187-1.029-.057-1.376.325zm.675 1.487v9.231l-7.199-.72c-.204-.02-.298-.265-.16-.417z"/><path d="m21.249 12.295-4.834-6.646c-.995-1.37-3.165-.665-3.165 1.029v6.042c0 .882.657 1.627 1.532 1.737l4.835.605c1.521.189 2.533-1.528 1.632-2.767zm-6.047-5.764 4.834 6.646c.129.178-.016.423-.234.396 0 0-4.833-.604-4.833-.604-.125-.016-.219-.122-.219-.249v-6.042c0-.242.31-.343.452-.147z"/></g></svg>