<svg clip-rule="evenodd" fill-rule="evenodd" height="512" stroke-linejoin="round" stroke-miterlimit="2" viewBox="0 0 24 24" width="512" xmlns="http://www.w3.org/2000/svg"><g id="Icon"><path d="m2.75 17c0-5.105 4.145-9.25 9.25-9.25s9.25 4.145 9.25 9.25c0 .414.336.75.75.75s.75-.336.75-.75c0-5.933-4.817-10.75-10.75-10.75s-10.75 4.817-10.75 10.75c0 .414.336.75.75.75s.75-.336.75-.75z"/><path d="m5.75 17c0-3.449 2.801-6.25 6.25-6.25s6.25 2.801 6.25 6.25c0 .414.336.75.75.75s.75-.336.75-.75c0-4.277-3.473-7.75-7.75-7.75s-7.75 3.473-7.75 7.75c0 .414.336.75.75.75s.75-.336.75-.75z"/><path d="m8.75 17c0-1.794 1.456-3.25 3.25-3.25s3.25 1.456 3.25 3.25c0 .414.336.75.75.75s.75-.336.75-.75c0-2.622-2.128-4.75-4.75-4.75s-4.75 2.128-4.75 4.75c0 .414.336.75.75.75s.75-.336.75-.75z"/></g></svg>