<svg clip-rule="evenodd" fill-rule="evenodd" height="512" stroke-linejoin="round" stroke-miterlimit="2" viewBox="0 0 24 24" width="512" xmlns="http://www.w3.org/2000/svg"><g id="Icon"><path d="m8.5 12.25c2.07 0 3.75 1.68 3.75 3.75s-1.68 3.75-3.75 3.75-3.75-1.68-3.75-3.75 1.68-3.75 3.75-3.75zm0 1.5c-1.242 0-2.25 1.008-2.25 2.25s1.008 2.25 2.25 2.25 2.25-1.008 2.25-2.25-1.008-2.25-2.25-2.25z"/><path d="m15.75 4v16c0 .729-.29 1.429-.805 1.945-.516.515-1.216.805-1.945.805h-9c-.729 0-1.429-.29-1.945-.805-.515-.516-.805-1.216-.805-1.945v-16c0-.729.29-1.429.805-1.945.516-.515 1.216-.805 1.945-.805h9c.729 0 1.429.29 1.945.805.515.516.805 1.216.805 1.945zm-1.5 0c0-.332-.132-.649-.366-.884-.235-.234-.552-.366-.884-.366h-9c-.332 0-.649.132-.884.366-.234.235-.366.552-.366.884v16c0 .332.132.649.366.884.235.234.552.366.884.366h9c.332 0 .649-.132.884-.366.234-.235.366-.552.366-.884z"/><path d="m13.25 5.5v4c0 .414-.336.75-.75.75h-8c-.414 0-.75-.336-.75-.75v-4c0-.464.184-.909.513-1.237.328-.329.773-.513 1.237-.513h6c.464 0 .909.184 1.237.513.329.328.513.773.513 1.237zm-1.5 0c0-.066-.026-.13-.073-.177s-.111-.073-.177-.073h-6c-.066 0-.13.026-.177.073s-.073.111-.073.177v3.25h6.5z"/><path d="m20 14.75c-.597 0-1.169-.237-1.591-.659s-.659-.994-.659-1.591v-5.5c0-.414.336-.75.75-.75h3c.414 0 .75.336.75.75v5.5c0 .597-.237 1.169-.659 1.591s-.994.659-1.591.659zm0-1.5c.199 0 .39-.079.53-.22.141-.14.22-.331.22-.53v-4.75h-1.5v4.75c0 .199.079.39.22.53.14.141.331.22.53.22z"/><path d="m9.171 9.835c-.185.371-.636.521-1.006.336-.371-.185-.521-.636-.336-1.006l1-2c.185-.371.636-.521 1.006-.336.371.185.521.636.336 1.006z"/><path d="m6.202 19.359c-.293.292-.768.292-1.061 0-.292-.293-.292-.768 0-1.061l5.657-5.657c.293-.292.768-.292 1.061 0 .292.293.292.768 0 1.061z"/><path d="m15 19.75c-.414 0-.75-.336-.75-.75s.336-.75.75-.75h2c1.243 0 2.25-1.007 2.25-2.25v-2c0-.414.336-.75.75-.75s.75.336.75.75v2c0 2.071-1.679 3.75-3.75 3.75z"/><path d="m22 6.25c.414 0 .75.336.75.75s-.336.75-.75.75h-4c-.414 0-.75-.336-.75-.75s.336-.75.75-.75z"/><path d="m20.75 7c0 .414-.336.75-.75.75s-.75-.336-.75-.75v-3c0-.414.336-.75.75-.75s.75.336.75.75z"/></g></svg>