<svg clip-rule="evenodd" fill-rule="evenodd" height="512" stroke-linejoin="round" stroke-miterlimit="2" viewBox="0 0 24 24" width="512" xmlns="http://www.w3.org/2000/svg"><g id="Icon"><path d="m12 1.25c-2.346 0-4.25 1.904-4.25 4.25s1.904 4.25 4.25 4.25 4.25-1.904 4.25-4.25-1.904-4.25-4.25-4.25zm0 1.5c1.518 0 2.75 1.232 2.75 2.75s-1.232 2.75-2.75 2.75-2.75-1.232-2.75-2.75 1.232-2.75 2.75-2.75z"/><path d="m11.25 4v2.5c0 .414.336.75.75.75s.75-.336.75-.75v-2.5c0-.414-.336-.75-.75-.75s-.75.336-.75.75z"/><path d="m15.5 6.25h1.5c.138 0 .25.112.25.25v14.5c0 .066-.026.13-.073.177s-.111.073-.177.073h-10c-.066 0-.13-.026-.177-.073s-.073-.111-.073-.177v-14.5c0-.138.112-.25.25-.25h1.5c.414 0 .75-.336.75-.75s-.336-.75-.75-.75c0 0-.804 0-1.5 0-.966 0-1.75.783-1.75 1.75v14.5c0 .464.184.909.513 1.237.328.329.773.513 1.237.513h10c.464 0 .909-.184 1.237-.513.329-.328.513-.773.513-1.237v-14.5c0-.967-.784-1.75-1.75-1.75-.696 0-1.5 0-1.5 0-.414 0-.75.336-.75.75s.336.75.75.75z"/><path d="m11.665 3.329-1 .5c-.371.185-.521.636-.336 1.006.185.371.636.521 1.006.336l1-.5c.371-.185.521-.636.336-1.006-.185-.371-.636-.521-1.006-.336z"/><path d="m11.25 7.75h1.5c.414 0 .75-.336.75-.75s-.336-.75-.75-.75h-1.5c-.414 0-.75.336-.75.75s.336.75.75.75z"/><path d="m10.5 12.75h3c.414 0 .75-.336.75-.75s-.336-.75-.75-.75h-3c-.414 0-.75.336-.75.75s.336.75.75.75z"/><path d="m9 15.75h6c.414 0 .75-.336.75-.75s-.336-.75-.75-.75h-6c-.414 0-.75.336-.75.75s.336.75.75.75z"/><path d="m9 17.75h6c.414 0 .75-.336.75-.75s-.336-.75-.75-.75h-6c-.414 0-.75.336-.75.75s.336.75.75.75z"/><path d="m9 19.75h6c.414 0 .75-.336.75-.75s-.336-.75-.75-.75h-6c-.414 0-.75.336-.75.75s.336.75.75.75z"/></g></svg>