<svg clip-rule="evenodd" fill-rule="evenodd" height="512" stroke-linejoin="round" stroke-miterlimit="2" viewBox="0 0 24 24" width="512" xmlns="http://www.w3.org/2000/svg"><g id="Icon"><path d="m22 21.25h-20c-.414 0-.75.336-.75.75s.336.75.75.75h20c.414 0 .75-.336.75-.75s-.336-.75-.75-.75z"/><path d="m20.75 3c0-.464-.184-.909-.513-1.237-.328-.329-.773-.513-1.237-.513-1.732 0-5.268 0-7 0-.464 0-.909.184-1.237.513-.329.328-.513.773-.513 1.237v19c0 .414.336.75.75.75h9c.414 0 .75-.336.75-.75zm-1.5 0v18.25h-7.5v-18.25c0-.066.026-.13.073-.177s.111-.073.177-.073h7c.066 0 .13.026.177.073s.073.111.073.177z"/><path d="m18.25 22v-6.5c0-.332-.132-.649-.366-.884-.235-.234-.553-.366-.884-.366-.769 0-2.231 0-3 0-.331 0-.649.132-.884.366-.234.235-.366.552-.366.884v6.5c0 .414.336.75.75.75h4c.414 0 .75-.336.75-.75zm-4-6.25h2.5v5.5h-2.5z"/><path d="m11.75 22v-13c0-.967-.784-1.75-1.75-1.75-1.331 0-3.669 0-5 0-.966 0-1.75.783-1.75 1.75v13c0 .414.336.75.75.75h7c.414 0 .75-.336.75-.75zm-1.5-13v12.25h-5.5v-12.25c0-.138.112-.25.25-.25h5c.138 0 .25.112.25.25z"/><path d="m14.75 5.75h1.5c.414 0 .75-.336.75-.75s-.336-.75-.75-.75h-1.5c-.414 0-.75.336-.75.75s.336.75.75.75z"/><path d="m6.75 12.75h1.5c.414 0 .75-.336.75-.75s-.336-.75-.75-.75h-1.5c-.414 0-.75.336-.75.75s.336.75.75.75z"/><path d="m14.75 8.75h1.5c.414 0 .75-.336.75-.75s-.336-.75-.75-.75h-1.5c-.414 0-.75.336-.75.75s.336.75.75.75z"/><path d="m6.75 15.75h1.5c.414 0 .75-.336.75-.75s-.336-.75-.75-.75h-1.5c-.414 0-.75.336-.75.75s.336.75.75.75z"/><path d="m14.75 11.75h1.5c.414 0 .75-.336.75-.75s-.336-.75-.75-.75h-1.5c-.414 0-.75.336-.75.75s.336.75.75.75z"/><path d="m6.75 18.75h1.5c.414 0 .75-.336.75-.75s-.336-.75-.75-.75h-1.5c-.414 0-.75.336-.75.75s.336.75.75.75z"/></g></svg>