<svg clip-rule="evenodd" fill-rule="evenodd" height="512" stroke-linejoin="round" stroke-miterlimit="2" viewBox="0 0 24 24" width="512" xmlns="http://www.w3.org/2000/svg"><g id="Icon"><path d="m9.566 12.258c-.143-.164-.349-.258-.566-.258s-.423.094-.566.258c0 0-1.038 1.196-1.662 2.35-.32.592-.522 1.184-.522 1.642 0 1.518 1.232 2.75 2.75 2.75s2.75-1.232 2.75-2.75c0-.458-.202-1.05-.522-1.642-.624-1.154-1.662-2.35-1.662-2.35zm-.566 1.689c.208.274.444.605.66.95.3.48.59.977.59 1.353 0 .69-.56 1.25-1.25 1.25s-1.25-.56-1.25-1.25c0-.376.29-.873.59-1.353.216-.345.452-.676.66-.95z"/><path d="m15.25 9c0-.414-.336-.75-.75-.75h-11c-.414 0-.75.336-.75.75v12c0 .966.783 1.75 1.75 1.75h10c.414 0 .75-.336.75-.75zm-1.5.75v11.5h-9.25c-.138 0-.25-.112-.25-.25v-11.25z"/><path d="m18.25 2.5c0-.69-.56-1.25-1.25-1.25h-10c-.69 0-1.25.56-1.25 1.25v2.5c0 .414.336.75.75.75h11c.414 0 .75-.336.75-.75zm-11 .25h9.5v1.5h-9.5z"/><path d="m21.25 9.333c0-.378-.123-.747-.35-1.05-.671-.894-2.8-3.733-2.8-3.733-.142-.189-.364-.3-.6-.3s-.458.111-.6.3l-3 4c-.097.13-.15.288-.15.45v13c0 .414.336.75.75.75h5c.464 0 .909-.184 1.237-.513.329-.328.513-.773.513-1.237zm-1.5 0v11.667c0 .066-.026.13-.073.177s-.111.073-.177.073h-4.25v-12s2.25-3 2.25-3 2.2 2.933 2.2 2.933c.032.044.05.096.05.15z"/><path d="m18.1 5.45c.17-.227.198-.531.071-.785s-.387-.415-.671-.415h-11c-.236 0-.458.111-.6.3l-3 4c-.17.227-.198.531-.071.785s.387.415.671.415h11c.236 0 .458-.111.6-.3zm-2.1.3-1.875 2.5h-9.125s1.875-2.5 1.875-2.5z"/></g></svg>