<svg clip-rule="evenodd" fill-rule="evenodd" height="512" stroke-linejoin="round" stroke-miterlimit="2" viewBox="0 0 24 24" width="512" xmlns="http://www.w3.org/2000/svg"><g id="Icon"><path d="m22.75 14s0-4.348 0-7c0-.729-.29-1.429-.805-1.945-.516-.515-1.216-.805-1.945-.805-3.832 0-12.168 0-16 0-.729 0-1.429.29-1.945.805-.515.516-.805 1.216-.805 1.945v11c0 .729.29 1.429.805 1.945.516.515 1.216.805 1.945.805h8c.414 0 .75-.336.75-.75s-.336-.75-.75-.75c0 0-5.082 0-8 0-.332 0-.649-.132-.884-.366-.234-.235-.366-.552-.366-.884v-11c0-.332.132-.649.366-.884.235-.234.552-.366.884-.366h16c.332 0 .649.132.884.366.234.235.366.552.366.884v7c0 .414.336.75.75.75s.75-.336.75-.75z"/><path d="m7.25 5s0-.75 0-1.5c0-.199.079-.39.22-.53.14-.141.331-.22.53-.22h8c.199 0 .39.079.53.22.141.14.22.331.22.53v1.5c0 .414.336.75.75.75s.75-.336.75-.75c0 0 0-.75 0-1.5 0-.597-.237-1.169-.659-1.591s-.994-.659-1.591-.659c-2.101 0-5.899 0-8 0-.597 0-1.169.237-1.591.659s-.659.994-.659 1.591v1.5c0 .414.336.75.75.75s.75-.336.75-.75z"/><path d="m2.017 6.277 1.285 3.237c.416 1.048 1.429 1.736 2.556 1.736h12.284c1.127 0 2.14-.688 2.556-1.736l1.285-3.237c.153-.385-.036-.821-.421-.974-.384-.153-.821.036-.973.42l-1.285 3.238c-.189.476-.65.789-1.162.789-2.851 0-9.433 0-12.284 0-.512 0-.973-.313-1.162-.789 0 0-1.285-3.238-1.285-3.238-.152-.384-.589-.573-.973-.42-.385.153-.574.589-.421.974z"/><path d="m15.25 9.5v2c0 .414.336.75.75.75s.75-.336.75-.75v-2c0-.414-.336-.75-.75-.75s-.75.336-.75.75z"/><path d="m7.25 9.5v2c0 .414.336.75.75.75s.75-.336.75-.75v-2c0-.414-.336-.75-.75-.75s-.75.336-.75.75z"/><path d="m13.25 17.5c0 2.346 1.904 4.25 4.25 4.25s4.25-1.904 4.25-4.25-1.904-4.25-4.25-4.25-4.25 1.904-4.25 4.25zm1.5 0c0-1.518 1.232-2.75 2.75-2.75s2.75 1.232 2.75 2.75-1.232 2.75-2.75 2.75-2.75-1.232-2.75-2.75z"/><path d="m19.47 20.53 2 2c.292.293.768.293 1.06 0 .293-.292.293-.768 0-1.06l-2-2c-.292-.293-.768-.293-1.06 0-.293.292-.293.768 0 1.06z"/></g></svg>