<svg height="512" viewBox="0 0 32 32" width="512" xmlns="http://www.w3.org/2000/svg"><g id="soundcloud_music_sound_audio" data-name="soundcloud, music, sound, audio"><path d="m4 16a1 1 0 0 0 -1 1v4a1 1 0 0 0 2 0v-4a1 1 0 0 0 -1-1z"/><path d="m7 13a1 1 0 0 0 -1 1v8a1 1 0 0 0 2 0v-8a1 1 0 0 0 -1-1z"/><path d="m10 12a1 1 0 0 0 -1 1v9a1 1 0 0 0 2 0v-9a1 1 0 0 0 -1-1z"/><path d="m13 9a1 1 0 0 0 -1 1v12a1 1 0 0 0 2 0v-12a1 1 0 0 0 -1-1z"/><path d="m26 15.11a8 8 0 0 0 -8-7.11 3 3 0 0 0 -3 3v11a1 1 0 0 0 2 0v-11a1 1 0 0 1 1-1 6 6 0 0 1 6 6 1 1 0 0 0 1 1 2 2 0 0 1 0 4h-5a1 1 0 0 0 0 2h5a4 4 0 0 0 1-7.89z"/></g></svg>