<svg clip-rule="evenodd" fill-rule="evenodd" stroke-linejoin="round" stroke-miterlimit="2" viewBox="0 0 32 32" xmlns="http://www.w3.org/2000/svg" xmlns:serif="http://www.serif.com/"><path id="globe-world-geography" d="m0 0h32v32h-32z" fill="none"/><path d="m12.996 24.102c-1.64-.104-3.255-.554-4.691-1.346-.513-.284-.84-.871-.598-1.395.262-.565.995-.672 1.619-.33 3.438 1.856 8.006 1.259 10.831-1.448 2.331-2.234 3.352-5.736 2.591-8.872-.589-2.429-2.208-4.583-4.371-5.841 0 0-.622-.545-.463-1.128.099-.366.421-.66.795-.725.165-.029.207-.013.262-.011.452.062.854.387 1.261.673 3.499 2.458 5.389 7.014 4.591 11.286-.61 3.264-2.74 6.207-5.653 7.802-1.287.705-2.714 1.135-4.171 1.292v3.98c-.019.874-1.359 1.384-1.869.501-.087-.151-.13-.323-.134-.501zm1.047-18.22c3.208.031 6.229 2.501 6.839 5.685.763 3.976-2.472 8.308-6.839 8.335-3.336.022-6.491-2.642-6.981-5.987-.569-3.88 2.59-7.938 6.8-8.031.06-.001.121-.002.181-.002zm-.078 2.003c-2.27.022-4.412 1.748-4.873 3.998-.459 2.241.836 4.725 2.958 5.623 2.337.989 5.346-.131 6.461-2.444 1.422-2.95-.776-7.095-4.416-7.176-.043 0-.087-.001-.13-.001z"/></svg>