<svg clip-rule="evenodd" fill-rule="evenodd" height="512" stroke-linejoin="round" stroke-miterlimit="2" viewBox="0 0 24 24" width="512" xmlns="http://www.w3.org/2000/svg"><g id="Icon"><path d="m18.75 20.5c0-.464-.184-.909-.513-1.237-.328-.329-.773-.513-1.237-.513-2.26 0-7.74 0-10 0-.464 0-.909.184-1.237.513-.329.328-.513.773-.513 1.237v.5c0 .464.184.909.513 1.237.328.329.773.513 1.237.513h10c.464 0 .909-.184 1.237-.513.329-.328.513-.773.513-1.237zm-1.5 0v.5c0 .066-.026.13-.073.177s-.111.073-.177.073h-10c-.066 0-.13-.026-.177-.073s-.073-.111-.073-.177v-.5c0-.066.026-.13.073-.177s.111-.073.177-.073h10c.066 0 .13.026.177.073s.073.111.073.177z"/><path d="m17.75 18.5c0-.729-.29-1.429-.805-1.945-.516-.515-1.216-.805-1.945-.805-1.743 0-4.257 0-6 0-.729 0-1.429.29-1.945.805-.515.516-.805 1.216-.805 1.945v1c0 .414.336.75.75.75h10c.414 0 .75-.336.75-.75zm-1.5 0v.25h-8.5v-.25c0-.332.132-.649.366-.884.235-.234.552-.366.884-.366h6c.332 0 .649.132.884.366.234.235.366.552.366.884z"/><path d="m9.961 5.249.039.001.032-.004c.144-.019.718-.137.718-.752v-.494c0-.332.132-.649.366-.884.235-.234.552-.366.884-.366s.649.132.884.366c.234.235.366.552.366.884v.5c0 .017.001.034.002.051v.007l.001.011.001.008.001.009c.017.177.086.307.176.402.137.16.341.262.569.262 0 0 .75-.053.75-.756v-.494c0-.729-.29-1.429-.805-1.945-.516-.515-1.216-.805-1.945-.805s-1.429.29-1.945.805c-.515.516-.805 1.216-.805 1.945v.494.006c0 .401.315.729.711.749z"/><path d="m17.75 7.699c0-1.318-.691-2.538-1.821-3.216l-.568-.341c-.428-.257-.917-.392-1.415-.392h-3.892c-.498 0-.987.135-1.415.392l-.568.341c-1.13.678-1.821 1.898-1.821 3.216v5.359c0 1.139.518 2.217 1.407 2.928l.827.661c.487.39 1.093.603 1.718.603h3.596c.625 0 1.231-.213 1.718-.603l.827-.661c.889-.711 1.407-1.789 1.407-2.928zm-1.5 0v5.359c0 .684-.311 1.33-.844 1.757 0 0-.827.661-.827.661-.221.177-.497.274-.781.274h-3.596c-.284 0-.56-.097-.781-.274 0 0-.827-.661-.827-.661-.533-.427-.844-1.073-.844-1.757v-5.359c0-.791.415-1.523 1.092-1.93l.569-.341c.194-.116.416-.178.643-.178h3.892c.227 0 .449.062.643.178l.569.341c.677.407 1.092 1.139 1.092 1.93z"/><path d="m12.576 8.519c-.143-.17-.354-.269-.576-.269s-.433.099-.576.269c0 0-1.031 1.239-1.651 2.38-.323.594-.523 1.177-.523 1.601 0 1.518 1.232 2.75 2.75 2.75s2.75-1.232 2.75-2.75c0-.424-.2-1.007-.523-1.601-.62-1.141-1.651-2.38-1.651-2.38zm-.576 1.702c.208.282.444.619.659.966.299.482.591.969.591 1.313 0 .69-.56 1.25-1.25 1.25s-1.25-.56-1.25-1.25c0-.344.292-.831.591-1.313.215-.347.451-.684.659-.966z"/><path d="m20.537 10.75h1.463c.414 0 .75-.336.75-.75s-.336-.75-.75-.75h-1.463c-.413 0-.75.336-.75.75s.337.75.75.75z"/><path d="m3.463 9.25h-1.463c-.414 0-.75.336-.75.75s.336.75.75.75h1.463c.413 0 .75-.336.75-.75s-.337-.75-.75-.75z"/><path d="m19.854 7.68 1.326-.618c.375-.175.538-.622.363-.997s-.622-.538-.997-.363l-1.325.618c-.376.175-.538.622-.363.997s.621.538.996.363z"/><path d="m4.779 6.32-1.325-.618c-.375-.175-.822-.012-.997.363s-.012.822.363.997l1.326.618c.375.175.821.012.996-.363s.013-.822-.363-.997z"/><path d="m19.221 13.68 1.325.618c.375.175.822.012.997-.363s.012-.822-.363-.997l-1.326-.618c-.375-.175-.821-.012-.996.363s-.013.822.363.997z"/><path d="m4.146 12.32-1.326.618c-.375.175-.538.622-.363.997s.622.538.997.363l1.325-.618c.376-.175.538-.622.363-.997s-.621-.538-.996-.363z"/></g></svg>