<svg clip-rule="evenodd" fill-rule="evenodd" height="512" stroke-linejoin="round" stroke-miterlimit="2" viewBox="0 0 24 24" width="512" xmlns="http://www.w3.org/2000/svg"><g id="Icon"><path d="m22.736 3.297c.072-.474-.13-.949-.521-1.228-.391-.278-.906-.313-1.331-.09-3.401 1.786-15.298 8.032-18.952 9.95-.451.236-.717.718-.678 1.225s.375.943.857 1.108c3.504 1.201 13.975 4.791 16.583 5.685.357.123.751.08 1.074-.115.323-.196.542-.525.599-.899zm-19.642 9.716 15.83 5.427 2.262-14.925z"/><path d="m10.124 16.295 12.043-12.567c.286-.299.276-.774-.023-1.06-.298-.287-.774-.277-1.06.022l-12.043 12.567c-.287.299-.277.774.022 1.061.299.286.774.276 1.061-.023z"/><path d="m10.332 20.389v-4.613c0-.414-.336-.75-.75-.75s-.75.336-.75.75v5.117c0 .502.295.957.752 1.162.458.206.993.124 1.368-.21 1.362-1.21 3.841-3.414 3.841-3.414.309-.275.337-.749.062-1.059-.275-.309-.749-.337-1.058-.062z"/></g></svg>