<svg clip-rule="evenodd" fill-rule="evenodd" height="512" stroke-linejoin="round" stroke-miterlimit="2" viewBox="0 0 24 24" width="512" xmlns="http://www.w3.org/2000/svg"><g id="Icon"><path d="m10.795 7.74-.495 1.523h-1.601c-.547 0-1.032.352-1.201.872s.016 1.09.459 1.412c0 0 1.295.941 1.295.941s-.495 1.523-.495 1.523c-.169.52.016 1.09.459 1.412.442.321 1.042.321 1.484 0 0 0 1.296-.942 1.296-.942s1.295.942 1.295.942c.443.321 1.042.321 1.484 0 .443-.322.628-.892.459-1.412 0 0-.495-1.523-.495-1.523s1.296-.941 1.296-.941c.442-.322.627-.892.458-1.412s-.653-.872-1.2-.872h-1.602s-.495-1.523-.495-1.523c-.169-.52-.653-.873-1.2-.873s-1.032.353-1.201.873zm1.201 1.158.437 1.347c.1.309.388.518.713.518h1.416l-1.145.832c-.263.191-.373.529-.273.838l.438 1.346-1.146-.832c-.262-.191-.618-.191-.881 0l-1.145.832.437-1.346c.1-.309-.01-.647-.272-.838l-1.145-.832h1.415c.325 0 .613-.209.713-.518z"/><path d="m18.064 10.944-.329 1.013h-1.065c-.491 0-.927.316-1.079.784-.152.467.015.979.412 1.268 0 0 .862.626.862.626s-.329 1.013-.329 1.013c-.152.467.014.979.412 1.268.397.289.936.289 1.333 0 0 0 .862-.626.862-.626s.861.626.861.626c.398.289.936.289 1.334 0 .397-.289.564-.801.412-1.268 0 0-.329-1.013-.329-1.013s.861-.626.861-.626c.398-.289.564-.801.412-1.268-.151-.468-.587-.784-1.078-.784h-1.065s-.329-1.013-.329-1.013c-.152-.467-.588-.784-1.079-.784-.492 0-.927.317-1.079.784zm1.079 1.534.15.461c.1.309.388.518.713.518h.484l-.392.285c-.262.191-.372.529-.272.838l.15.461-.392-.285c-.263-.191-.619-.191-.882 0l-.392.285.15-.461c.1-.309-.01-.647-.273-.838l-.392-.285h.485c.325 0 .613-.209.713-.518z"/><path d="m3.778 10.944-.329 1.013h-1.065c-.491 0-.927.316-1.078.784-.152.467.014.979.412 1.268 0 0 .861.626.861.626s-.329 1.013-.329 1.013c-.152.467.015.979.412 1.268.398.289.936.289 1.334 0 0 0 .861-.626.861-.626s.862.626.862.626c.397.289.936.289 1.333 0 .398-.289.564-.801.412-1.268 0 0-.329-1.013-.329-1.013s.862-.626.862-.626c.397-.289.564-.801.412-1.268-.152-.468-.588-.784-1.079-.784h-1.065s-.329-1.013-.329-1.013c-.152-.467-.587-.784-1.079-.784-.491 0-.927.317-1.079.784zm1.079 1.534.15.461c.1.309.388.518.713.518h.485l-.392.285c-.263.191-.373.529-.273.838l.15.461-.392-.285c-.263-.191-.619-.191-.882 0l-.392.285.15-.461c.1-.309-.01-.647-.272-.838l-.392-.285h.484c.325 0 .613-.209.713-.518z"/></g></svg>