<svg clip-rule="evenodd" fill-rule="evenodd" height="512" stroke-linejoin="round" stroke-miterlimit="2" viewBox="0 0 24 24" width="512" xmlns="http://www.w3.org/2000/svg"><g id="Icon"><path d="m2.43 10.114 8.853-6.197c.431-.301 1.003-.301 1.434 0 0 0 8.853 6.197 8.853 6.197.339.238.807.155 1.044-.184.238-.339.155-.807-.184-1.044 0 0-6.226-4.359-8.853-6.198-.947-.662-2.207-.662-3.154 0l-8.853 6.198c-.339.237-.422.705-.184 1.044.237.339.705.422 1.044.184z"/><path d="m19.25 8.5v10c0 .69-.56 1.25-1.25 1.25h-4c-.414 0-.75.336-.75.75s.336.75.75.75h4c1.519 0 2.75-1.231 2.75-2.75v-10c0-.414-.336-.75-.75-.75s-.75.336-.75.75z"/><path d="m17.25 3.25h2v4.75c0 .414.336.75.75.75s.75-.336.75-.75v-5c0-.69-.56-1.25-1.25-1.25h-2.5c-.69 0-1.25.56-1.25 1.25v2.5c0 .414.336.75.75.75s.75-.336.75-.75z"/><circle cx="3.25" cy="20.25" r="1.25"/><path d="m3 16.635c2.133 0 3.865 1.732 3.865 3.865 0 .414.336.75.75.75s.75-.336.75-.75c0-2.961-2.404-5.365-5.365-5.365-.414 0-.75.336-.75.75s.336.75.75.75z"/><path d="m3.5 12.75c4.001 0 7.25 3.249 7.25 7.25 0 .414.336.75.75.75s.75-.336.75-.75c0-4.829-3.921-8.75-8.75-8.75-.414 0-.75.336-.75.75s.336.75.75.75z"/></g></svg>