<svg clip-rule="evenodd" fill-rule="evenodd" height="512" stroke-linejoin="round" stroke-miterlimit="2" viewBox="0 0 24 24" width="512" xmlns="http://www.w3.org/2000/svg"><g id="Icon"><path d="m6.328 17.75c2.351 0 4.25-1.875 4.25-4.179 0-1.612 0-3.53 0-5.142 0-2.304-1.899-4.179-4.25-4.179s-4.25 1.875-4.25 4.179v5.142c0 2.304 1.899 4.179 4.25 4.179zm0-1.5c-1.515 0-2.75-1.195-2.75-2.679v-5.142c0-1.484 1.235-2.679 2.75-2.679 1.515 0 2.75 1.195 2.75 2.679v5.142c0 1.484-1.235 2.679-2.75 2.679z"/><path d="m6.328 18.25c-1.451 0-2.743-.671-3.567-1.715-.257-.325-.729-.38-1.054-.124-.325.257-.38.729-.124 1.054 1.097 1.389 2.814 2.285 4.745 2.285s3.648-.896 4.745-2.285c.256-.325.2-.797-.124-1.054-.325-.256-.797-.201-1.054.124-.824 1.044-2.116 1.715-3.567 1.715z"/><path d="m5.578 19v3c0 .414.336.75.75.75s.75-.336.75-.75v-3c0-.414-.336-.75-.75-.75s-.75.336-.75.75z"/><path d="m8.328 21.25h-4c-.414 0-.75.336-.75.75s.336.75.75.75h4c.414 0 .75-.336.75-.75s-.336-.75-.75-.75z"/><path d="m22.578 3c0-.966-.784-1.75-1.75-1.75h-8c-.967 0-1.75.784-1.75 1.75v5c0 .464.184.909.513 1.237.328.329.773.513 1.237.513h.75v1.75c0 .291.168.556.432.679.263.124.575.083.798-.103l2.791-2.326h3.229c.464 0 .909-.184 1.237-.513.329-.328.513-.773.513-1.237zm-1.5 0v5c0 .066-.026.13-.073.177s-.111.073-.177.073h-3.5c-.175 0-.345.062-.48.174l-1.77 1.475v-.899c0-.414-.336-.75-.75-.75h-1.5c-.066 0-.13-.026-.177-.073s-.073-.111-.073-.177v-5c0-.138.112-.25.25-.25h8c.138 0 .25.112.25.25z"/><path d="m9.828 7.75h-1.5c-.414 0-.75.336-.75.75s.336.75.75.75h1.5c.414 0 .75-.336.75-.75s-.336-.75-.75-.75z"/><path d="m4.328 7.75h-1.5c-.414 0-.75.336-.75.75s.336.75.75.75h1.5c.414 0 .75-.336.75-.75s-.336-.75-.75-.75z"/><path d="m9.828 10.25h-1.5c-.414 0-.75.336-.75.75s.336.75.75.75h1.5c.414 0 .75-.336.75-.75s-.336-.75-.75-.75z"/><path d="m9.828 12.75h-1.5c-.414 0-.75.336-.75.75s.336.75.75.75h1.5c.414 0 .75-.336.75-.75s-.336-.75-.75-.75z"/><path d="m4.328 10.25h-1.5c-.414 0-.75.336-.75.75s.336.75.75.75h1.5c.414 0 .75-.336.75-.75s-.336-.75-.75-.75z"/><path d="m4.328 12.75h-1.5c-.414 0-.75.336-.75.75s.336.75.75.75h1.5c.414 0 .75-.336.75-.75s-.336-.75-.75-.75z"/><path d="m14.328 5.25h2.5c.414 0 .75-.336.75-.75s-.336-.75-.75-.75h-2.5c-.414 0-.75.336-.75.75s.336.75.75.75z"/><path d="m14.328 7.25h5c.414 0 .75-.336.75-.75s-.336-.75-.75-.75h-5c-.414 0-.75.336-.75.75s.336.75.75.75z"/></g></svg>