<svg clip-rule="evenodd" fill-rule="evenodd" height="512" stroke-linejoin="round" stroke-miterlimit="2" viewBox="0 0 24 24" width="512" xmlns="http://www.w3.org/2000/svg"><g id="Icon"><path d="m21 22.75c.968 0 1.75-.782 1.75-1.75v-18c0-.966-.782-1.75-1.75-1.75h-18c-.968 0-1.75.784-1.75 1.75v18c0 .968.782 1.75 1.75 1.75zm0-1.5h-18c-.138 0-.25-.112-.25-.25v-18c0-.138.112-.25.25-.25h18c.138 0 .25.112.25.25v18c0 .138-.112.25-.25.25z"/><path d="m21 8.75c.968 0 1.75-.784 1.75-1.75v-4c0-.966-.782-1.75-1.75-1.75h-18c-.968 0-1.75.784-1.75 1.75v4c0 .966.782 1.75 1.75 1.75zm0-1.5h-18c-.138 0-.25-.112-.25-.25v-4c0-.138.112-.25.25-.25h18c.138 0 .25.112.25.25v4c0 .138-.112.25-.25.25z"/><path d="m8 22.75c.968 0 1.75-.782 1.75-1.75v-12c0-.966-.782-1.75-1.75-1.75h-5c-.968 0-1.75.784-1.75 1.75v12c0 .968.782 1.75 1.75 1.75zm0-1.5h-5c-.138 0-.25-.112-.25-.25v-12c0-.138.112-.25.25-.25h5c.138 0 .25.112.25.25v12c0 .138-.112.25-.25.25z"/><path d="m22.75 8c0-.414-.336-.75-.75-.75h-13c-.414 0-.75.336-.75.75v7c0 .414.336.75.75.75h13c.414 0 .75-.336.75-.75zm-1.5.75v5.5h-11.5v-5.5z"/></g></svg>