<svg clip-rule="evenodd" fill-rule="evenodd" height="512" stroke-linejoin="round" stroke-miterlimit="2" viewBox="0 0 24 24" width="512" xmlns="http://www.w3.org/2000/svg"><g id="Icon"><path d="m7.641 6.656c-.462.228-.775.516-.775.516-.02.019-.039.04-.057.061-2.331 2.775-3.751 5.159-4.358 7.167-.44 1.455-.464 2.732-.126 3.841.557 1.832 2.114 3.247 4.648 4.199.535.201 1.103.305 1.675.305 1.497.005 5.195.005 6.699.005.581 0 1.158-.106 1.701-.314 2.638-1.01 4.138-2.511 4.622-4.397.29-1.132.215-2.42-.25-3.859-.644-1.996-2.054-4.315-4.228-6.934-.018-.021-.037-.042-.057-.061 0 0-.313-.292-.778-.524 0 .001 1.158-2.356 1.158-2.356.015-.03.028-.061.038-.094.229-.686.114-1.44-.309-2.027-.423-.586-1.102-.934-1.825-.934h-6.838c-.723 0-1.402.348-1.825.934-.423.587-.538 1.341-.309 2.027.01.033.023.064.038.094l1.156 2.351zm1.069 1.223c.259 0 .499-.134.636-.354s.151-.495.037-.727l-1.526-3.101c-.058-.22-.017-.452.116-.636.141-.195.367-.311.608-.311h6.838c.241 0 .467.116.608.311.132.183.174.415.117.631-.001.005-1.528 3.11-1.528 3.11-.114.233-.101.508.036.728s.378.353.637.353c.357 0 .669.256.771.349 1.684 2.031 2.885 3.858 3.584 5.486.648 1.507.862 2.822.573 3.948-.38 1.481-1.634 2.576-3.705 3.369-.001 0-.001 0-.001 0-.371.142-.766.215-1.163.215h-.001c-1.503 0-5.198 0-6.697-.005-.001 0-.002 0-.002 0-.392 0-.78-.071-1.146-.209 0 0 0 0-.001 0-2-.751-3.301-1.786-3.741-3.232-.332-1.088-.169-2.38.461-3.897.683-1.647 1.91-3.53 3.705-5.672.107-.099.423-.356.784-.356z"/><path d="m17 6.25h-10c-.414 0-.75.336-.75.75s.336.75.75.75h10c.414 0 .75-.336.75-.75s-.336-.75-.75-.75z"/><path d="m12.583 15.833c0 .322-.261.584-.583.584h-1.333c-.414 0-.75.336-.75.75s.336.75.75.75h1.333c1.151 0 2.083-.933 2.083-2.084 0-1.15-.932-2.083-2.083-2.083-.322 0-.583-.261-.583-.583s.261-.584.583-.584h1.333c.414 0 .75-.336.75-.75s-.336-.75-.75-.75h-1.333c-1.151 0-2.083.933-2.083 2.084 0 1.15.932 2.083 2.083 2.083.322 0 .583.261.583.583z"/><path d="m12.75 11.833v-1.333c0-.414-.336-.75-.75-.75s-.75.336-.75.75v1.333c0 .414.336.75.75.75s.75-.336.75-.75z"/><path d="m12.75 18.5v-1.333c0-.414-.336-.75-.75-.75s-.75.336-.75.75v1.333c0 .414.336.75.75.75s.75-.336.75-.75z"/></g></svg>