<svg clip-rule="evenodd" fill-rule="evenodd" height="512" stroke-linejoin="round" stroke-miterlimit="2" viewBox="0 0 24 24" width="512" xmlns="http://www.w3.org/2000/svg"><g id="Icon"><path d="m22 9.75c.414 0 .75-.336.75-.75v-1c0-.968-.784-1.75-1.75-1.75h-18c-.966 0-1.75.782-1.75 1.75v1c0 .414.336.75.75.75h1c.138 0 .25.112.25.25s-.112.25-.25.25h-1c-.414 0-.75.336-.75.75v2c0 .968.784 1.75 1.75 1.75h18c.966 0 1.75-.782 1.75-1.75v-2c0-.414-.336-.75-.75-.75h-1c-.138 0-.25-.112-.25-.25s.112-.25.25-.25zm-.75-1.5h-.25c-.966 0-1.75.782-1.75 1.75s.784 1.75 1.75 1.75h.25v1.25c0 .138-.112.25-.25.25h-18c-.138 0-.25-.112-.25-.25v-1.25h.25c.966 0 1.75-.782 1.75-1.75s-.784-1.75-1.75-1.75h-.25v-.25c0-.138.112-.25.25-.25h18c.138 0 .25.112.25.25z"/><path d="m20 17.75c.966 0 1.75-.782 1.75-1.75v-2c0-.414-.336-.75-.75-.75h-18c-.414 0-.75.336-.75.75v2c0 .968.784 1.75 1.75 1.75zm0-1.5h-16c-.138 0-.25-.112-.25-.25v-1.25h16.5v1.25c0 .138-.112.25-.25.25z"/><path d="m5.25 16v1c0 .414.336.75.75.75s.75-.336.75-.75v-1c0-.414-.336-.75-.75-.75s-.75.336-.75.75z"/><path d="m11.25 16v1c0 .414.336.75.75.75s.75-.336.75-.75v-1c0-.414-.336-.75-.75-.75s-.75.336-.75.75z"/><path d="m8.25 16v1c0 .414.336.75.75.75s.75-.336.75-.75v-1c0-.414-.336-.75-.75-.75s-.75.336-.75.75z"/><path d="m14.25 16v1c0 .414.336.75.75.75s.75-.336.75-.75v-1c0-.414-.336-.75-.75-.75s-.75.336-.75.75z"/><path d="m17.25 16v1c0 .414.336.75.75.75s.75-.336.75-.75v-1c0-.414-.336-.75-.75-.75s-.75.336-.75.75z"/></g></svg>