<svg clip-rule="evenodd" fill-rule="evenodd" stroke-linejoin="round" stroke-miterlimit="1.414" viewBox="0 0 32 32" xmlns="http://www.w3.org/2000/svg" xmlns:serif="http://www.serif.com/"><path id="lungs-health-patient-recovery" d="m0 0h32v32h-32z" fill="none"/><path d="m15.015 13.395v-8.987c.006-.193.022-.225.049-.309.116-.358.449-.635.825-.682.12-.015.149-.007.188-.006.191.018.222.036.304.068.331.131.579.448.624.803.007.056.006.07.007.126v8.987h1.998v-2.099c.008-1.149.98-2.187 2.18-2.219h.066c.434.007.847.164 1.254.333 3.786 1.576 6.455 5.484 6.486 9.675.004 1.925.007 3.849 0 5.774-.026 2.321-2.457 4.26-4.897 3.566-2.875-.817-5.065-3.594-5.089-6.701v-1.339s.04-.519.385-.788c.537-.418 1.483-.064 1.598.624.012.072.011.091.014.164 0 .975-.049 1.951.246 2.854.534 1.638 1.92 3.014 3.661 3.331.997.182 2.073-.635 2.084-1.726.007-1.916.005-3.833 0-5.749-.025-3.432-2.244-6.713-5.529-7.95-.204-.076-.461-.056-.462.158v3.091c-.011.269-.049.342-.121.475-.034.064-.076.122-.124.175-.05.061-.108.116-.176.164-.122.087-.263.145-.41.17-.056.01-.112.013-.168.014h-7.989c-.033-.001-.065-.003-.097-.008-.076-.005-.152-.02-.227-.046-.339-.116-.602-.427-.661-.78-.012-.072-.01-.091-.013-.164 0-1.03 0-2.061 0-3.091 0-.175-.179-.262-.422-.172-3.23 1.206-5.544 4.459-5.57 7.964-.004 1.921-.02 3.841 0 5.762.02 1.074 1.132 1.968 2.25 1.675.069-.018.138-.037.206-.058 2.018-.62 3.53-2.611 3.536-4.789v-1.3c.011-.269.048-.342.12-.475.287-.529 1.094-.683 1.555-.259.471.433.324 1.29.322 2.073-.025 3.112-2.299 6.1-5.414 6.785-.088.019-.176.035-.265.048-2.102.306-4.282-1.41-4.307-3.699-.007-2.045-.073-4.079.008-6.137.164-4.175 2.971-8.085 7.017-9.518 0 0 .386-.12.714-.126h.066c1.153.03 2.172 1.03 2.181 2.219v2.099z" fill-rule="nonzero"/></svg>