<svg clip-rule="evenodd" fill-rule="evenodd" height="512" stroke-linejoin="round" stroke-miterlimit="2" viewBox="0 0 24 24" width="512" xmlns="http://www.w3.org/2000/svg"><g id="Icon"><path d="m12.488 7.163-2.4 7.2c-.13.393.082.818.475.949.393.13.818-.082.949-.475l2.4-7.2c.13-.393-.082-.818-.475-.949-.393-.13-.818.082-.949.475z"/><path d="m14.57 9.13 1.869 1.87s-1.869 1.87-1.869 1.87c-.293.292-.293.768 0 1.06.292.293.768.293 1.06 0l2.4-2.4c.293-.293.293-.767 0-1.06l-2.4-2.4c-.292-.293-.768-.293-1.06 0-.293.292-.293.768 0 1.06z"/><path d="m8.37 8.07-2.4 2.4c-.293.293-.293.767 0 1.06l2.4 2.4c.292.293.768.293 1.06 0 .293-.292.293-.768 0-1.06l-1.869-1.87s1.869-1.87 1.869-1.87c.293-.292.293-.768 0-1.06-.292-.293-.768-.293-1.06 0z"/><path d="m21.25 6c0-.966-.783-1.75-1.75-1.75h-15c-.967 0-1.75.784-1.75 1.75v10c0 .966.783 1.75 1.75 1.75h15c.967 0 1.75-.784 1.75-1.75zm-1.5 0v10c0 .138-.112.25-.25.25h-15c-.138 0-.25-.112-.25-.25v-10c0-.138.112-.25.25-.25h15c.138 0 .25.112.25.25z"/><path d="m22 18.25h-20c-.414 0-.75.336-.75.75s.336.75.75.75h20c.414 0 .75-.336.75-.75s-.336-.75-.75-.75z"/></g></svg>