<svg clip-rule="evenodd" fill-rule="evenodd" height="512" stroke-linejoin="round" stroke-miterlimit="2" viewBox="0 0 24 24" width="512" xmlns="http://www.w3.org/2000/svg"><g id="Icon"><path d="m11 1.25c-5.381 0-9.75 4.369-9.75 9.75s4.369 9.75 9.75 9.75 9.75-4.369 9.75-9.75-4.369-9.75-9.75-9.75zm0 1.5c4.553 0 8.25 3.697 8.25 8.25s-3.697 8.25-8.25 8.25-8.25-3.697-8.25-8.25 3.697-8.25 8.25-8.25z"/><path d="m22.53 21.47-4.5-4.5c-.292-.293-.768-.293-1.06 0-.293.292-.293.768 0 1.06l4.5 4.5c.292.293.768.293 1.06 0 .293-.292.293-.768 0-1.06z"/><path d="m6.75 11.75v.5h-1.25c-.414 0-.75.336-.75.75s.336.75.75.75h1.5c.331 0 .649-.132.884-.366.234-.235.366-.553.366-.884 0-.305 0-.695 0-1 0-.331-.132-.649-.366-.884-.235-.234-.553-.366-.884-.366h-.75v-.5h1.25c.414 0 .75-.336.75-.75s-.336-.75-.75-.75h-1.5c-.331 0-.649.132-.884.366-.234.235-.366.553-.366.884v1c0 .331.132.649.366.884.235.234.553.366.884.366z"/><path d="m10.75 12.25v-2.5h1.25c.414 0 .75-.336.75-.75s-.336-.75-.75-.75h-1.5c-.331 0-.649.132-.884.366-.234.235-.366.552-.366.884v3c0 .332.132.649.366.884.235.234.553.366.884.366h1.5c.414 0 .75-.336.75-.75s-.336-.75-.75-.75z"/><path d="m10 11.75h1.5c.414 0 .75-.336.75-.75s-.336-.75-.75-.75h-1.5c-.414 0-.75.336-.75.75s.336.75.75.75z"/><path d="m17.25 9.5c0-.332-.132-.649-.366-.884-.235-.234-.553-.366-.884-.366-.305 0-.695 0-1 0-.331 0-.649.132-.884.366-.234.235-.366.552-.366.884v3c0 .332.132.649.366.884.235.234.553.366.884.366h1c.331 0 .649-.132.884-.366.234-.235.366-.552.366-.884zm-2 2.75h.5v-2.5h-.5z"/></g></svg>