<svg clip-rule="evenodd" fill-rule="evenodd" height="512" stroke-linejoin="round" stroke-miterlimit="2" viewBox="0 0 24 24" width="512" xmlns="http://www.w3.org/2000/svg"><g id="Icon"><path d="m11.375 4v2.5c0 .414.336.75.75.75s.75-.336.75-.75v-2.5c0-.414-.336-.75-.75-.75s-.75.336-.75.75z"/><path d="m5.25 4v14c0 .729.29 1.429.805 1.945.516.515 1.216.805 1.945.805h1.689s1.781 1.78 1.781 1.78c.293.293.767.293 1.06 0l1.781-1.78h1.689c.729 0 1.429-.29 1.945-.805.515-.516.805-1.216.805-1.945 0-3.463 0-10.537 0-14 0-1.519-1.231-2.75-2.75-2.75h-8c-1.519 0-2.75 1.231-2.75 2.75zm1.5 0c0-.69.56-1.25 1.25-1.25h8c.69 0 1.25.56 1.25 1.25v14c0 .332-.132.649-.366.884-.235.234-.552.366-.884.366-1 0-2 0-2 0-.199 0-.39.079-.53.22l-1.47 1.469s-1.47-1.469-1.47-1.469c-.14-.141-.331-.22-.53-.22h-2c-.332 0-.649-.132-.884-.366-.234-.235-.366-.552-.366-.884z"/><path d="m11.79 3.329-1 .5c-.371.185-.521.636-.336 1.006.185.371.636.521 1.006.336l1-.5c.371-.185.521-.636.336-1.006-.185-.371-.636-.521-1.006-.336z"/><path d="m11.375 7.75h1.5c.414 0 .75-.336.75-.75s-.336-.75-.75-.75h-1.5c-.414 0-.75.336-.75.75s.336.75.75.75z"/><path d="m10.5 12.75h3c.414 0 .75-.336.75-.75s-.336-.75-.75-.75h-3c-.414 0-.75.336-.75.75s.336.75.75.75z"/><path d="m6 10.25h12c.414 0 .75-.336.75-.75s-.336-.75-.75-.75h-12c-.414 0-.75.336-.75.75s.336.75.75.75z"/><path d="m9 15.75h6c.414 0 .75-.336.75-.75s-.336-.75-.75-.75h-6c-.414 0-.75.336-.75.75s.336.75.75.75z"/><path d="m9 17.75h6c.414 0 .75-.336.75-.75s-.336-.75-.75-.75h-6c-.414 0-.75.336-.75.75s.336.75.75.75z"/></g></svg>