<svg clip-rule="evenodd" fill-rule="evenodd" height="512" stroke-linejoin="round" stroke-miterlimit="2" viewBox="0 0 24 24" width="512" xmlns="http://www.w3.org/2000/svg"><g id="Icon"><circle cx="19" cy="10.25" r="1"/><circle cx="19" cy="6.75" r="1"/><path d="m4 2.5c-.729 0-1.429.29-1.945.805-.515.516-.805 1.216-.805 1.945v11c0 .729.29 1.429.805 1.945.516.515 1.216.805 1.945.805h16c.729 0 1.429-.29 1.945-.805.515-.516.805-1.216.805-1.945 0-2.871 0-8.129 0-11 0-.729-.29-1.429-.805-1.945-.516-.515-1.216-.805-1.945-.805zm0 1.5h16c.332 0 .649.132.884.366.234.235.366.552.366.884v11c0 .332-.132.649-.366.884-.235.234-.552.366-.884.366h-16c-.332 0-.649-.132-.884-.366-.234-.235-.366-.552-.366-.884v-11c0-.332.132-.649.366-.884.235-.234.552-.366.884-.366z"/><path d="m5.5 5c-.966 0-1.75.783-1.75 1.75v8c0 .967.784 1.75 1.75 1.75h7c.966 0 1.75-.783 1.75-1.75v-8c0-.967-.784-1.75-1.75-1.75zm0 1.5h7c.138 0 .25.112.25.25v8c0 .138-.112.25-.25.25h-7c-.138 0-.25-.112-.25-.25v-8c0-.138.112-.25.25-.25z"/><path d="m4 17.5c-.414 0-.75.336-.75.75v2c0 .69.56 1.25 1.25 1.25h2.5c.69 0 1.25-.56 1.25-1.25v-2c0-.414-.336-.75-.75-.75zm2.75 2.5h-2v-1h2z"/><path d="m16.5 17.5c-.414 0-.75.336-.75.75v2c0 .69.56 1.25 1.25 1.25h2.5c.69 0 1.25-.56 1.25-1.25v-2c0-.414-.336-.75-.75-.75zm2.75 2.5h-2v-1h2z"/><path d="m15.25 3.25v15c0 .414.336.75.75.75s.75-.336.75-.75v-15c0-.414-.336-.75-.75-.75s-.75.336-.75.75z"/><path d="m19.75 15.75v-2.75c0-.414-.336-.75-.75-.75s-.75.336-.75.75v2.75c0 .414.336.75.75.75s.75-.336.75-.75z"/></g></svg>