<svg clip-rule="evenodd" fill-rule="evenodd" height="512" stroke-linejoin="round" stroke-miterlimit="2" viewBox="0 0 24 24" width="512" xmlns="http://www.w3.org/2000/svg"><g id="Icon"><path d="m21 20.75c.966 0 1.75-.782 1.75-1.75v-4c0-.968-.784-1.75-1.75-1.75h-18c-.966 0-1.75.782-1.75 1.75v4c0 .968.784 1.75 1.75 1.75zm0-1.5h-18c-.138 0-.25-.112-.25-.25v-4c0-.138.112-.25.25-.25h18c.138 0 .25.112.25.25v4c0 .138-.112.25-.25.25z"/><path d="m10.318 7.032c1.476-1.411 3.482-2.282 5.682-2.282 2.042 0 3.92.74 5.349 1.977.313.271.787.237 1.058-.076s.237-.787-.076-1.058c-1.691-1.465-3.914-2.343-6.331-2.343-2.601 0-4.974 1.029-6.719 2.698-.299.286-.309.761-.023 1.06.286.3.761.31 1.06.024z"/><path d="m13.137 9.589c.769-.658 1.769-1.049 2.863-1.049 1.006 0 1.936.33 2.678.911.326.255.797.198 1.052-.128.256-.326.198-.798-.128-1.053-.998-.782-2.248-1.23-3.602-1.23-1.467 0-2.807.527-3.838 1.409-.314.27-.351.743-.082 1.058.269.314.743.351 1.057.082z"/><path d="m15.25 11v3c0 .414.336.75.75.75s.75-.336.75-.75v-3c0-.414-.336-.75-.75-.75s-.75.336-.75.75z"/><path d="m13.137 9.589c.769-.658 1.769-1.049 2.863-1.049 1.006 0 1.936.33 2.678.911.326.255.797.198 1.052-.128.256-.326.198-.798-.128-1.053-.998-.782-2.248-1.23-3.602-1.23-1.467 0-2.807.527-3.838 1.409-.314.27-.351.743-.082 1.058.269.314.743.351 1.057.082z"/><g fill-rule="nonzero"><path d="m19.074 17.75c-.415 0-.75-.336-.75-.75s.335-.75.75-.75c.414 0 .75.336.75.75s-.336.75-.75.75"/><path d="m16.074 17.75c-.415 0-.75-.336-.75-.75s.335-.75.75-.75c.414 0 .75.336.75.75s-.336.75-.75.75"/></g></g></svg>