<svg clip-rule="evenodd" fill-rule="evenodd" height="512" stroke-linejoin="round" stroke-miterlimit="2" viewBox="0 0 24 24" width="512" xmlns="http://www.w3.org/2000/svg"><g id="Icon"><path d="m12.75 5.828c0-.331-.217-.623-.534-.718 0 0-6.012-1.804-8.713-2.614-.53-.159-1.104-.058-1.548.272-.443.33-.705.851-.705 1.404v12.912c0 .773.507 1.454 1.247 1.676 2.286.686 9.287 2.786 9.287 2.786.228.068.473.025.664-.116.19-.142.302-.365.302-.602zm-1.5.558v13.434s-8.322-2.497-8.322-2.497c-.106-.031-.178-.129-.178-.239v-12.912c0-.079.037-.153.101-.201.063-.047.145-.061.221-.038z"/><path d="m11.784 5.11c-.317.095-.534.387-.534.718v15c0 .237.112.46.302.602.191.141.436.184.664.116 0 0 7.001-2.1 9.287-2.786.74-.222 1.247-.903 1.247-1.676v-12.912c0-.553-.262-1.074-.705-1.404-.444-.33-1.018-.431-1.548-.272-2.701.81-8.713 2.614-8.713 2.614zm.966 1.276 8.178-2.453c.076-.023.158-.009.221.038.064.048.101.122.101.201v12.912c0 .11-.072.208-.178.239 0 0-8.322 2.497-8.322 2.497z"/><path d="m15.216 9.318 4-1.2c.396-.119.621-.537.502-.934-.119-.396-.537-.621-.934-.502l-4 1.2c-.396.119-.621.537-.502.934.119.396.537.621.934.502z"/><path d="m9.216 7.882-4-1.2c-.397-.119-.815.106-.934.502-.119.397.106.815.502.934l4 1.2c.397.119.815-.106.934-.502.119-.397-.106-.815-.502-.934z"/><path d="m15.216 12.918 4-1.2c.396-.119.621-.537.502-.934-.119-.396-.537-.621-.934-.502l-4 1.2c-.396.119-.621.537-.502.934.119.396.537.621.934.502z"/><path d="m9.216 11.482-4-1.2c-.397-.119-.815.106-.934.502-.119.397.106.815.502.934l4 1.2c.397.119.815-.106.934-.502.119-.397-.106-.815-.502-.934z"/><path d="m15.216 16.518 4-1.2c.396-.119.621-.537.502-.934-.119-.396-.537-.621-.934-.502l-4 1.2c-.396.119-.621.537-.502.934.119.396.537.621.934.502z"/><path d="m9.216 15.082-4-1.2c-.397-.119-.815.106-.934.502-.119.397.106.815.502.934l4 1.2c.397.119.815-.106.934-.502.119-.397-.106-.815-.502-.934z"/></g></svg>