<svg clip-rule="evenodd" fill-rule="evenodd" height="512" stroke-linejoin="round" stroke-miterlimit="2" viewBox="0 0 24 24" width="512" xmlns="http://www.w3.org/2000/svg"><g id="Icon"><path d="m20.636 6.344-8.636 4.798s-8.636-4.798-8.636-4.798c-.362-.201-.819-.07-1.02.292s-.07.819.292 1.02l9 5c.226.125.502.125.728 0l9-5c.362-.201.493-.658.292-1.02s-.658-.493-1.02-.292z"/><path d="m11.25 12v10c0 .414.336.75.75.75s.75-.336.75-.75v-10c0-.414-.336-.75-.75-.75s-.75.336-.75.75z"/><path d="m2.25 7v10c0 .272.148.523.386.656l9 5c.226.125.502.125.728 0l9-5c.238-.133.386-.384.386-.656v-10c0-.414-.336-.75-.75-.75s-.75.336-.75.75v9.559s-8.25 4.583-8.25 4.583-8.25-4.583-8.25-4.583v-9.559c0-.414-.336-.75-.75-.75s-.75.336-.75.75z"/><path d="m7.636 17.433 1.5.834c.362.201.819.07 1.02-.292s.07-.818-.292-1.02l-1.5-.833c-.362-.201-.819-.07-1.02.292-.201.361-.07.818.292 1.019z"/><path d="m3.364 7.656 8.636-4.798s8.636 4.798 8.636 4.798c.362.201.819.07 1.02-.292s.07-.819-.292-1.02l-9-5c-.226-.125-.502-.125-.728 0l-9 5c-.362.201-.493.658-.292 1.02s.658.493 1.02.292z"/><path d="m7.236 5.156 8.514 4.73v2.614c0 .414.336.75.75.75s.75-.336.75-.75v-3.056c0-.272-.148-.523-.386-.655l-8.9-4.945c-.362-.201-.819-.07-1.02.292s-.07.819.292 1.02z"/></g></svg>