<svg clip-rule="evenodd" fill-rule="evenodd" height="512" stroke-linejoin="round" stroke-miterlimit="2" viewBox="0 0 24 24" width="512" xmlns="http://www.w3.org/2000/svg"><g id="Icon"><path d="m13.95 16.5c0 .464-.184.909-.513 1.237-.328.329-.773.513-1.237.513h-1.4c-.414 0-.75-.336-.75-.75s.336-.75.75-.75h1.4c.066 0 .13-.026.177-.073s.073-.111.073-.177-.026-.13-.073-.177-.111-.073-.177-.073h-.4c-.464 0-.909-.184-1.237-.513-.329-.328-.513-.773-.513-1.237s.184-.909.513-1.237c.328-.329.773-.513 1.237-.513h1.4c.414 0 .75.336.75.75s-.336.75-.75.75h-1.4c-.066 0-.13.026-.177.073s-.073.111-.073.177.026.13.073.177.111.073.177.073h.4c.464 0 .909.184 1.237.513.329.328.513.773.513 1.237z"/><path d="m12.75 13.5c0 .414-.336.75-.75.75s-.75-.336-.75-.75v-1c0-.414.336-.75.75-.75s.75.336.75.75z"/><path d="m12.75 18.5c0 .414-.336.75-.75.75s-.75-.336-.75-.75v-1c0-.414.336-.75.75-.75s.75.336.75.75z"/><path d="m20 22.75h-16c-.729 0-1.429-.29-1.945-.805-.515-.516-.805-1.216-.805-1.945v-9c0-.729.29-1.429.805-1.945.516-.515 1.216-.805 1.945-.805h16c.729 0 1.429.29 1.945.805.515.516.805 1.216.805 1.945v9c0 .729-.29 1.429-.805 1.945-.516.515-1.216.805-1.945.805zm0-1.5c.332 0 .649-.132.884-.366.234-.235.366-.552.366-.884v-9c0-.332-.132-.649-.366-.884-.235-.234-.552-.366-.884-.366h-16c-.332 0-.649.132-.884.366-.234.235-.366.552-.366.884v9c0 .332.132.649.366.884.235.234.552.366.884.366z"/><path d="m17 16.25c-.414 0-.75-.336-.75-.75s.336-.75.75-.75h2c.414 0 .75.336.75.75s-.336.75-.75.75z"/><path d="m5 16.25c-.414 0-.75-.336-.75-.75s.336-.75.75-.75h2c.414 0 .75.336.75.75s-.336.75-.75.75z"/><path d="m6.899 9.202c-.111.399-.526.632-.924.52-.399-.112-.632-.526-.52-.924.384-1.371 1.129-2.265 1.866-3.085.862-.959 1.733-1.783 1.481-3.611-.032-.237.05-.475.222-.641.171-.166.412-.24.647-.2 0 0 1.425.242 2.687 1.039 1.111.703 2.1 1.802 2.064 3.474.357-.223.709-.595.853-1.213.069-.294.308-.519.606-.569s.598.083.759.339c0 0 1.348 2.136 1.918 4.493.097.402-.15.808-.553.905-.402.097-.808-.15-.905-.553-.259-1.069-.696-2.088-1.066-2.836-.982 1.171-2.497 1.265-2.497 1.265-.244.015-.48-.09-.632-.281-.153-.191-.202-.445-.134-.679.46-1.565-.325-2.514-1.214-3.077-.411-.259-.843-.445-1.211-.574-.059 1.394-.665 2.298-1.409 3.159-.729.845-1.638 1.624-2.038 3.049z"/></g></svg>