<svg clip-rule="evenodd" fill-rule="evenodd" stroke-linejoin="round" stroke-miterlimit="2" viewBox="0 0 32 32" xmlns="http://www.w3.org/2000/svg" xmlns:serif="http://www.serif.com/"><path id="glasses-nerd-geek" d="m0 0h32v32h-32z" fill="none"/><path d="m26 17.998c.537.023.977.462 1 1v3.969c-.01 1.568-1.341 3-2.996 3.03-1.723.011-3.446.001-5.168.001-.794-.005-1.568-.325-2.134-.884l-.702-.702-.702.702c-.105.103-.112.108-.163.151-.534.46-1.235.719-1.936.732-1.723.011-3.445.001-5.168.001-1.582-.01-3.021-1.379-3.031-3.031v-3.969c.004-.087.014-.165.014-.165l2-12s.273-.804.986-.835h2c.029.001.058.002.087.004.845.111.878.548.909.909.043.491-.33.985-.822 1.072-.077.013-.097.011-.174.015h-1.153l-1.667 10zm-1 2h-18c0 .997-.018 1.994 0 2.992.017.524.476.991 1.008 1.007 1.726.032 3.453.033 5.179 0 .261-.008.514-.117.701-.302l1.405-1.404c.226-.207.392-.342.881-.278.324.072.382.139.533.278.475.475.942.958 1.425 1.424.184.173.429.275.681.282 1.726.033 3.453.032 5.179 0 .533-.016 1.005-.481 1.008-1.036zm-.944-13.999c.182.016.232.036.327.075.315.131.521.34.603.759l1.334 8c.118.858-1.18 1.626-1.804.741-.083-.117-.125-.187-.169-.412l-1.194-7.164h-1.153s-1-.221-1-1c0-.531.393-.983 1-1h2c.019 0 .037.001.056.001z"/></svg>