<svg clip-rule="evenodd" fill-rule="evenodd" height="512" stroke-linejoin="round" stroke-miterlimit="2" viewBox="0 0 24 24" width="512" xmlns="http://www.w3.org/2000/svg"><g id="Icon"><path d="m20.75 20v-7.5c0-1.519-1.231-2.75-2.75-2.75h-12c-1.519 0-2.75 1.231-2.75 2.75v7.5c0 1.519 1.231 2.75 2.75 2.75h12c1.519 0 2.75-1.231 2.75-2.75zm-1.5-7.5v7.5c0 .69-.56 1.25-1.25 1.25h-12c-.69 0-1.25-.56-1.25-1.25v-7.5c0-.69.56-1.25 1.25-1.25h12c.69 0 1.25.56 1.25 1.25z"/><path d="m12 1.25c-1.649 0-3.228.6-4.394 1.66-1.192 1.084-1.856 2.557-1.856 4.09v3.5c0 .414.336.75.75.75h11c.414 0 .75-.336.75-.75v-3.5c0-1.533-.664-3.006-1.856-4.09-1.166-1.06-2.745-1.66-4.394-1.66zm0 1.5c1.269 0 2.487.454 3.385 1.269.87.792 1.365 1.862 1.365 2.981v2.75h-9.5v-2.75c0-1.119.495-2.189 1.365-2.981.898-.815 2.116-1.269 3.385-1.269z"/><circle cx="12" cy="18.5" r="1"/><path d="m10.95 17.058c.293-.22.656-.35 1.049-.35.394 0 .757.13 1.049.35.331.249.802.182 1.051-.149.248-.331.181-.802-.15-1.05-.543-.408-1.218-.651-1.95-.651-.731 0-1.406.243-1.949.651-.331.248-.398.719-.15 1.05.249.331.72.398 1.05.149z"/><path d="m9.95 14.975c.572-.429 1.281-.683 2.05-.683s1.478.254 2.05.683c.33.248.801.182 1.05-.149.248-.331.181-.802-.15-1.05-.822-.618-1.843-.984-2.95-.984s-2.128.366-2.95.984c-.331.248-.398.719-.15 1.05.249.331.72.397 1.05.149z"/></g></svg>