<svg clip-rule="evenodd" fill-rule="evenodd" stroke-linejoin="round" stroke-miterlimit="1.414" viewBox="0 0 32 32" xmlns="http://www.w3.org/2000/svg" xmlns:serif="http://www.serif.com/"><path id="recomendation-medal-badge-top" d="m0 0h32v32h-32z" fill="none"/><path d="m8.602 14.024c-.256-.61-.436-1.251-.528-1.908-.351-2.508.571-5.159 2.404-6.908 1.456-1.387 3.426-2.191 5.469-2.21h.103c2.915.028 5.745 1.767 7.073 4.359 1.121 2.188 1.153 4.899.087 7.111-1.152 2.389-3.589 4.055-6.244 4.424l4.162 7.209 1.573-2.383s.367-.409.775-.447l2.849-.171-2.826-4.894s-.217-.489-.061-.875c.131-.324.443-.567.788-.616.134-.018.166-.008.209-.007.328.035.618.212.797.498l3.635 6.295c.107.203.115.27.128.398.05.487-.305.983-.796 1.083-.061.012-.077.012-.139.018l-3.965.238-2.189 3.315s-.343.415-.76.447c-.327.024-.661-.124-.863-.381-.038-.05-.045-.064-.078-.117l-5.559-9.627c-.58-.092-1.156-.252-1.717-.485-1.234-.514-2.319-1.355-3.154-2.397l-4.104 7.107 2.85.171s.545.125.775.447l1.572 2.383 2.264-3.92s.841-.836 1.515-.261c.316.269.434.742.281 1.129-.024.061-.034.075-.064.132l-3.072 5.321c-.126.201-.184.243-.293.319-.395.277-.992.214-1.32-.153-.043-.048-.051-.062-.088-.115l-2.189-3.315-3.966-.238s-1.231-.458-.87-1.368c.024-.06.034-.074.064-.131zm7.357-9.026c-2.737.026-5.289 2.1-5.84 4.792-.401 1.957.254 4.102 1.688 5.502 1.656 1.617 4.28 2.155 6.458 1.265 1.92-.785 3.37-2.63 3.671-4.681.37-2.53-1.075-5.229-3.404-6.318-.801-.374-1.679-.563-2.573-.56z" fill-rule="nonzero"/></svg>