<svg clip-rule="evenodd" fill-rule="evenodd" stroke-linejoin="round" stroke-miterlimit="1.414" viewBox="0 0 32 32" xmlns="http://www.w3.org/2000/svg" xmlns:serif="http://www.serif.com/"><path id="mail-email-message" d="m0 0h32v32h-32z" fill="none"/><path d="m28.412 13.1c.246.157.464.355.544.627.027.091.027.188.04.282 0 2.673.008 5.345 0 8.018-.014 1.546-1.344 2.965-2.981 2.981-6.678.02-13.356.02-20.034 0-1.561-.015-2.976-1.363-2.981-2.998v-8.001c.036-.247.02-.324.159-.54.302-.471 1.048-.604 1.496-.216.214.186.303.467.345.756 0 2.673-.042 5.345 0 8.018.011.514.468.976.993.981 6.674.02 13.349.104 20.023 0 .514-.011.976-.469.981-.994v-8.005l.04-.282c.162-.353.44-.653.817-.708.187-.026.375.027.558.081zm-2.397-6.09c1.119.01 2.196.68 2.691 1.711 0 0 .152.393.058.715-.061.205-.193.38-.36.518l-11.806 8.854c-.358.244-.833.25-1.2 0l-11.806-8.854c-.383-.316-.5-.849-.261-1.314.493-.961 1.535-1.613 2.631-1.63 6.684-.062 13.369-.021 20.053 0zm-20.014 2c-.114 0-.281.04-.281.04l10.278 7.709 10.279-7.709c-.089-.026-.181-.039-.274-.04-6.667-.021-13.335 0-20.002 0z" fill-rule="nonzero"/></svg>