<svg clip-rule="evenodd" fill-rule="evenodd" height="512" stroke-linejoin="round" stroke-miterlimit="2" viewBox="0 0 24 24" width="512" xmlns="http://www.w3.org/2000/svg"><g id="Icon"><path d="m19.045 14.834c.092-.404.494-.657.898-.565.403.091.657.494.565.897-.986 4.34-4.871 7.584-9.508 7.584-5.381 0-9.75-4.369-9.75-9.75 0-4.637 3.244-8.522 7.584-9.508.403-.092.806.162.897.565.092.404-.161.806-.565.898-3.672.834-6.416 4.122-6.416 8.045 0 4.553 3.697 8.25 8.25 8.25 3.923 0 7.211-2.744 8.045-6.416z"/><path d="m11.25 3.047c0-.494.208-.965.574-1.297.365-.332.854-.494 1.346-.446.003 0 .007.001.01.001 4.991.555 8.961 4.525 9.506 9.517 0 .003.001.006.001.009.048.489-.113.975-.444 1.339-.33.364-.798.572-1.287.572-1.937.008-6.055.008-7.956.008-.966 0-1.75-.783-1.75-1.75v-7.953zm1.5-.001v7.954c0 .138.112.25.25.25 1.9 0 6.015 0 7.95-.008h.003c.068 0 .134-.029.179-.079.046-.05.068-.117.062-.184-.471-4.291-3.883-7.702-8.177-8.183-.068-.004-.135.019-.185.065-.052.047-.082.115-.082.185z"/></g></svg>