<svg clip-rule="evenodd" fill-rule="evenodd" height="512" stroke-linejoin="round" stroke-miterlimit="2" viewBox="0 0 24 24" width="512" xmlns="http://www.w3.org/2000/svg"><g id="Icon"><path d="m8.75 18.25c0-1.518-1.232-2.75-2.75-2.75s-2.75 1.232-2.75 2.75 1.232 2.75 2.75 2.75 2.75-1.232 2.75-2.75zm-1.5 0c0 .69-.56 1.25-1.25 1.25s-1.25-.56-1.25-1.25.56-1.25 1.25-1.25 1.25.56 1.25 1.25z"/><path d="m14.75 18.25c0-1.518-1.232-2.75-2.75-2.75s-2.75 1.232-2.75 2.75 1.232 2.75 2.75 2.75 2.75-1.232 2.75-2.75zm-1.5 0c0 .69-.56 1.25-1.25 1.25s-1.25-.56-1.25-1.25.56-1.25 1.25-1.25 1.25.56 1.25 1.25z"/><path d="m20.75 18.25c0-1.518-1.232-2.75-2.75-2.75s-2.75 1.232-2.75 2.75 1.232 2.75 2.75 2.75 2.75-1.232 2.75-2.75zm-1.5 0c0 .69-.56 1.25-1.25 1.25s-1.25-.56-1.25-1.25.56-1.25 1.25-1.25 1.25.56 1.25 1.25z"/><path d="m20 19h1c.966 0 1.75-.782 1.75-1.75v-3.5c0-.968-.784-1.75-1.75-1.75h-18c-.966 0-1.75.782-1.75 1.75v3.5c0 .968.784 1.75 1.75 1.75h1c.414 0 .75-.336.75-.75s-.336-.75-.75-.75h-1c-.138 0-.25-.112-.25-.25v-3.5c0-.138.112-.25.25-.25h18c.138 0 .25.112.25.25v3.5c0 .138-.112.25-.25.25h-1c-.414 0-.75.336-.75.75s.336.75.75.75z"/><path d="m9 13.5c.414 0 .75-.336.75-.75 0 0 0-.804 0-1.5 0-.464-.184-.909-.513-1.237-.328-.329-.773-.513-1.237-.513-.871 0-2.129 0-3 0-.464 0-.909.184-1.237.513-.329.328-.513.773-.513 1.237v1.5c0 .414.336.75.75.75zm-.75-1.5h-3.5v-.75c0-.066.026-.13.073-.177s.111-.073.177-.073h3c.066 0 .13.026.177.073s.073.111.073.177z"/><path d="m20.715 8.51c.166-.293.116-.662-.122-.9l-4.39-4.39c-.239-.239-.607-.289-.901-.122-1.185.672-1.989 1.958-1.989 3.432 0 1.372.693 2.577 1.739 3.284.635.433 1.407.686 2.23.686.33 0 .645-.042.946-.114.002 0 .004-.001.005-.001 1.064-.261 1.961-.956 2.482-1.875zm-1.634-.291c-.317.341-.733.593-1.202.708-.19.045-.389.073-.597.073-.511 0-.992-.157-1.386-.426-.001 0-.002-.001-.003-.001-.65-.44-1.08-1.19-1.08-2.043 0-.711.3-1.353.78-1.798z"/><path d="m17.928 9.955.58 2.045h-3.514s.727-2.555.727-2.555c.114-.398-.117-.813-.516-.926-.398-.114-.813.117-.926.516l-1 3.509c-.065.227-.019.47.123.658.141.188.363.298.598.298h5.5c.235 0 .457-.11.599-.298.141-.187.187-.431.123-.657l-.851-3c-.113-.398-.528-.629-.926-.517-.399.113-.63.528-.517.927z"/><path d="m19.464 3.287-2 2.04c-.289.296-.285.771.011 1.061s.771.285 1.061-.01l2-2.04c.289-.296.285-.771-.011-1.061s-.771-.285-1.061.01z"/><path d="m16 17.5h-2c-.414 0-.75.336-.75.75s.336.75.75.75h2c.414 0 .75-.336.75-.75s-.336-.75-.75-.75z"/><path d="m10 17.5h-2c-.414 0-.75.336-.75.75s.336.75.75.75h2c.414 0 .75-.336.75-.75s-.336-.75-.75-.75z"/></g></svg>