<svg clip-rule="evenodd" fill-rule="evenodd" height="512" stroke-linejoin="round" stroke-miterlimit="2" viewBox="0 0 24 24" width="512" xmlns="http://www.w3.org/2000/svg"><g id="Icon"><path d="m16.537 21.201c.012.006.03.015.04.021.128.063.282.016.353-.112.848-1.709 2.045-5.893-2.899-10.434-.154-.142-.242-.342-.242-.552 0-.987-.802-1.789-1.789-1.789-.414 0-.75-.336-.75-.75s.336-.75.75-.75c1.7 0 3.1 1.293 3.27 2.946 5.515 5.229 3.971 10.057 2.995 12.013-.002.005-.005.011-.008.016-.449.848-1.493 1.183-2.351.753-.097-.049-.193-.103-.277-.168-.378-.215-.663-.565-.796-.982-.144-.447-.1-.933.119-1.346.747-1.416.588-2.85.149-4.06-.468-1.291-1.255-2.343-1.723-2.896-.419.194-.886.302-1.378.302-1.815 0-3.289-1.474-3.289-3.289 0-.414.336-.75.75-.75s.75.336.75.75c0 .987.802 1.789 1.789 1.789.402 0 .774-.133 1.073-.358.297-.223.713-.195.978.067 0 0 1.645 1.625 2.46 3.873.571 1.572.738 3.433-.232 5.272l-.001.001c-.031.058-.037.126-.017.188s.064.113.123.143c.055.027.106.062.153.102z"/><path d="m12 11.913c.414 0 .75.336.75.75s-.336.75-.75.75c-1.746 0-3.176-1.364-3.282-3.081-2.701-4.953.684-8.823.684-8.823.174-.201.442-.295.703-.247.262.049.478.232.569.482 0 0 1.867 5.136 1.867 5.136 1.558.258 2.748 1.613 2.748 3.244 0 .414-.336.75-.75.75s-.75-.336-.75-.75c0-.987-.802-1.789-1.789-1.789-.315 0-.597-.197-.705-.493 0 0-1.501-4.13-1.501-4.13-.6 1.293-1.131 3.498.319 6.041.064.113.098.241.098.371 0 .987.802 1.789 1.789 1.789z"/><circle cx="12" cy="10.124" r=".711"/><path d="m12 8.335c-.414 0-.75-.336-.75-.75s.336-.75.75-.75c1.815 0 3.289 1.474 3.289 3.289 0 .414-.336.75-.75.75s-.75-.336-.75-.75c0-.987-.802-1.789-1.789-1.789z"/><path d="m12 11.913c.414 0 .75.336.75.75s-.336.75-.75.75c-1.815 0-3.289-1.474-3.289-3.289 0-.414.336-.75.75-.75s.75.336.75.75c0 .987.802 1.789 1.789 1.789z"/><path d="m12.705 7.842c-.142.389-.572.59-.961.448-.389-.141-.59-.572-.449-.961l2.031-5.585c.091-.25.307-.433.569-.482.261-.048.529.046.703.247 0 0 3.46 3.956.592 8.986-.205.36-.663.486-1.023.281-.359-.205-.485-.664-.28-1.023 1.45-2.543.919-4.747.319-6.041z"/><path d="m7.463 21.201c.047-.04.098-.075.153-.102.059-.03.103-.081.123-.143s.014-.13-.017-.188l-.001-.001c-.97-1.839-.803-3.7-.232-5.272.815-2.248 2.46-3.873 2.46-3.873.295-.291.77-.289 1.061.006.291.294.288.769-.006 1.06 0 0-1.407 1.394-2.105 3.319-.439 1.21-.598 2.644.148 4.058.22.415.264.901.12 1.348-.133.418-.42.77-.79.978-.089.069-.185.123-.283.172-.858.43-1.902.095-2.351-.753-.003-.005-.006-.011-.008-.016-.989-1.982-2.561-6.913 3.219-12.222.305-.28.78-.26 1.06.045s.259.779-.045 1.059c-4.948 4.545-3.745 8.732-2.892 10.447.071.117.222.161.346.099.01-.006.028-.015.04-.021z"/></g></svg>