<svg clip-rule="evenodd" fill-rule="evenodd" stroke-linejoin="round" stroke-miterlimit="2" viewBox="0 0 32 32" xmlns="http://www.w3.org/2000/svg" xmlns:serif="http://www.serif.com/"><path id="incoming-call-phone-in" d="m0 0h32v32h-32z" fill="none"/><path d="m24.803 6.325c-.232-.229-.465-.456-.699-.681-.408-.38-1.127-.332-1.478.115-.77 1.013-1.522 2.04-2.248 3.085-.239.355-.142.822-.015 1.228.297.954.583 1.848.873 2.84.556 1.988-1.159 4.12-2.596 5.581-.565.574-1.703.251-1.766-.577-.025-.326.14-.63.379-.875.232-.241.266-.285.384-.425.637-.751 1.163-1.593 1.611-2.47.154-.318.06-.68-.052-1.05-.283-.934-.573-1.865-.864-2.796-.051-.166-.05-.177-.067-.253-.176-.811.003-1.683.482-2.373.78-1.087 1.52-2.226 2.368-3.236.572-.682 1.466-1.083 2.355-1.073 1.712.041 2.987 1.777 4.378 3.185 1.734 1.784 1.251 4.951.245 7.049-1.462 3.047-3.807 5.621-6.256 8.035-3.034 2.991-6.303 6.111-10.362 7.173-1.657.434-3.578.317-4.908-.975-1.334-1.314-3.008-2.478-3.172-4.134-.102-1.023.36-2.072 1.187-2.701 1.079-.798 2.132-1.665 3.256-2.363.727-.452 1.649-.57 2.478-.318l3.855 1.203c.816.299.751.746.691 1.118-.017.108-.055.21-.108.303-.065.133-.165.256-.308.36l-3.844 2.685c-.824.551-2.352-.77-1.149-1.645l2.18-1.523c-.645-.204-1.29-.406-1.94-.593-.281-.076-.591-.026-.833.138-1.045.726-2.072 1.478-3.085 2.249-.439.343-.503 1.062-.115 1.477.758.79 1.537 1.559 2.322 2.322 1.004.96 2.716.609 3.826.182 3.39-1.303 6.166-3.956 8.718-6.483 2.682-2.657 5.542-5.465 6.413-9.171.029-.123.055-.247.076-.372.015-.089.028-.178.038-.268.093-.811-.033-1.711-.627-2.332-.059-.061-.119-.122-.178-.182l-1.783 2.75c-.556.821-2.469.172-1.684-1.092l2.022-3.117zm-13.185 6.673-8.319-8.32c-.343-.365-.301-.524-.294-.741.017-.528.405-.971 1.034-.971.021.001.042.002.063.004.346.043.426.112.615.289l8.32 8.32v-3.253s.191-1.003 1.027-1.003c.016.001.031.001.047.002.173.016.224.036.319.076.365.154.603.461.614.925v5.675c-.005.19-.025.252-.068.362-.131.337-.395.573-.785.629-.069.013-.141.017-.217.012h-5.609c-.872-.02-1.375-1.377-.495-1.876.15-.084.32-.126.495-.13z"/></svg>