<svg clip-rule="evenodd" fill-rule="evenodd" height="512" stroke-linejoin="round" stroke-miterlimit="2" viewBox="0 0 24 24" width="512" xmlns="http://www.w3.org/2000/svg"><g id="Icon"><path d="m13.667 9.75c.874 0 1.583-.708 1.583-1.583v-3.334c0-.875-.709-1.583-1.583-1.583h-3.334c-.874 0-1.583.708-1.583 1.583v3.334c0 .875.709 1.583 1.583 1.583zm0-1.5h-3.334c-.046 0-.083-.037-.083-.083v-3.334c0-.046.037-.083.083-.083h3.334c.046 0 .083.037.083.083v3.334c0 .046-.037.083-.083.083z"/><path d="m13.667 20.75c.874 0 1.583-.708 1.583-1.583v-3.334c0-.875-.709-1.583-1.583-1.583h-3.334c-.874 0-1.583.708-1.583 1.583v3.334c0 .875.709 1.583 1.583 1.583zm0-1.5h-3.334c-.046 0-.083-.037-.083-.083v-3.334c0-.046.037-.083.083-.083h3.334c.046 0 .083.037.083.083v3.334c0 .046-.037.083-.083.083z"/><path d="m21.167 20.75c.874 0 1.583-.708 1.583-1.583v-3.334c0-.875-.709-1.583-1.583-1.583h-3.334c-.874 0-1.583.708-1.583 1.583v3.334c0 .875.709 1.583 1.583 1.583zm0-1.5h-3.334c-.046 0-.083-.037-.083-.083v-3.334c0-.046.037-.083.083-.083h3.334c.046 0 .083.037.083.083v3.334c0 .046-.037.083-.083.083z"/><path d="m6.167 20.75c.874 0 1.583-.708 1.583-1.583v-3.334c0-.875-.709-1.583-1.583-1.583h-3.334c-.874 0-1.583.708-1.583 1.583v3.334c0 .875.709 1.583 1.583 1.583zm0-1.5h-3.334c-.046 0-.083-.037-.083-.083v-3.334c0-.046.037-.083.083-.083h3.334c.046 0 .083.037.083.083v3.334c0 .046-.037.083-.083.083z"/><path d="m11.25 9v6c0 .414.336.75.75.75s.75-.336.75-.75v-6c0-.414-.336-.75-.75-.75s-.75.336-.75.75z"/><path d="m4.75 15v-2c0-.138.112-.25.25-.25h14c.138 0 .25.112.25.25v2c0 .414.336.75.75.75s.75-.336.75-.75v-2c0-.968-.784-1.75-1.75-1.75h-14c-.966 0-1.75.782-1.75 1.75v2c0 .414.336.75.75.75s.75-.336.75-.75z"/></g></svg>