<svg clip-rule="evenodd" fill-rule="evenodd" height="512" stroke-linejoin="round" stroke-miterlimit="2" viewBox="0 0 24 24" width="512" xmlns="http://www.w3.org/2000/svg"><g id="Icon"><path d="m21.613 5.285c.799-.799.799-2.096 0-2.896l-.002-.002c-.8-.799-2.097-.799-2.896 0l-7.164 7.164c-.293.293-.293.768 0 1.061l1.837 1.837c.293.293.768.293 1.061 0zm-1.061-1.06-6.633 6.633s-.777-.777-.777-.777 6.633-6.633 6.633-6.633c.214-.214.561-.214.775 0 0 0 .002.002.002.002.214.214.214.561 0 .775z"/><path d="m13.877 20.571.933-.933c1.074-1.074 1.074-2.815 0-3.889-1.771-1.771-4.788-4.788-6.559-6.559-1.074-1.074-2.815-1.074-3.889 0l-.933.933c-.292.293-.292.768 0 1.061l9.387 9.387c.293.292.768.292 1.061 0zm-.128-1.994-.402.403s-8.327-8.327-8.327-8.327.403-.402.403-.402c.488-.488 1.279-.488 1.767 0l6.559 6.559c.488.488.488 1.279 0 1.767z"/><path d="m12.47 10.47-2 2c-.293.292-.293.768 0 1.06.292.293.768.293 1.06 0l2-2c.293-.292.293-.768 0-1.06-.292-.293-.768-.293-1.06 0z"/><path d="m12.816 19.51-1.875 1.875c-.293.293-.293.768 0 1.061s.768.293 1.061 0l1.875-1.875c.293-.293.293-.768 0-1.061s-.768-.293-1.061 0z"/><path d="m8.123 14.816-1.876 1.876c-.292.293-.292.768 0 1.061.293.292.768.292 1.061 0l1.876-1.876c.292-.293.292-.768 0-1.061-.293-.292-.768-.292-1.061 0z"/><path d="m5.776 12.47-1.875 1.875c-.293.293-.293.768 0 1.061.292.293.768.293 1.06 0l1.876-1.876c.293-.292.293-.768 0-1.06-.293-.293-.768-.293-1.061 0z"/><path d="m10.47 17.163-1.876 1.876c-.293.292-.293.768 0 1.06.293.293.768.293 1.061 0l1.875-1.875c.293-.293.293-.768 0-1.061-.292-.293-.768-.293-1.06 0z"/><path d="m3.429 10.123-1.875 1.875c-.293.293-.293.768 0 1.061s.768.293 1.061 0l1.875-1.875c.293-.293.293-.768 0-1.061s-.768-.293-1.061 0z"/></g></svg>