<svg clip-rule="evenodd" fill-rule="evenodd" height="512" stroke-linejoin="round" stroke-miterlimit="2" viewBox="0 0 24 24" width="512" xmlns="http://www.w3.org/2000/svg"><g id="Icon"><path d="m16 22.75c1.518 0 2.75-1.232 2.75-2.75v-16c0-1.518-1.232-2.75-2.75-2.75h-8c-1.518 0-2.75 1.232-2.75 2.75v16c0 1.518 1.232 2.75 2.75 2.75zm0-1.5h-8c-.69 0-1.25-.56-1.25-1.25v-16c0-.69.56-1.25 1.25-1.25h8c.69 0 1.25.56 1.25 1.25v16c0 .69-.56 1.25-1.25 1.25z"/><path d="m10 3.75h4c.414 0 .75-.336.75-.75s-.336-.75-.75-.75h-4c-.414 0-.75.336-.75.75s.336.75.75.75z"/></g></svg>