<svg clip-rule="evenodd" fill-rule="evenodd" stroke-linejoin="round" stroke-miterlimit="1.414" viewBox="0 0 32 32" xmlns="http://www.w3.org/2000/svg" xmlns:serif="http://www.serif.com/"><path id="joints-henge-bones-" d="m0 0h32v32h-32z" fill="none"/><path d="m9.988 15.004h-6.01c-.771-.024-1.319-1.061-.73-1.687.158-.169.375-.28.604-.309.056-.007.07-.006.126-.007h5.18s.2-.52.492-.883c.982-1.217 2.978-1.462 4.225-.457 1.251 1.008 1.453 3.086.37 4.329 0 0 .492.63.657 1.269.372 1.447-.51 3.11-1.947 3.597-1.467.496-3.242-.301-3.797-1.845h-5.18c-.232-.008-.302-.037-.427-.096-.619-.291-.758-1.284-.162-1.716.17-.124.377-.185.589-.192h6.01s.058.002.125.008c.19.03.22.049.3.087.364.17.55.569.58.985.055.676.911 1.168 1.537.766.553-.354.582-1.295.02-1.675-.229-.155-.628-.173-.628-.173-.789-.08-1.247-1.209-.57-1.771.333-.275.819-.149 1.191-.396.613-.407.533-1.569-.277-1.8-.59-.167-1.272.311-1.276.971 0 0-.048.473-.319.725-.152.143-.351.236-.558.262-.055.007-.069.006-.125.008zm12.85 4.007c-.001.003-.201.521-.492.882-.988 1.226-3.007 1.463-4.253.434-1.234-1.019-1.428-3.067-.336-4.312 0 0-.435-.54-.612-1.088-.555-1.714.754-3.827 2.706-3.926.054-.003.061-.004.192-.004 1.228.024 2.374.832 2.795 2.004h5.18c.769.024 1.329 1.05.73 1.687-.158.168-.375.279-.604.308-.056.007-.07.006-.126.008h-6.01c-.192-.006-.224-.022-.308-.049-.422-.136-.664-.57-.697-1.031-.072-.882-1.641-1.327-1.962-.196-.167.587.306 1.274.967 1.276 0 0 .544.05.807.413.4.551.03 1.488-.679 1.582-.234.031-.482.041-.68.172-.614.404-.536 1.571.274 1.802.591.167 1.272-.312 1.276-.97 0 0 .048-.474.319-.726.153-.143.351-.236.558-.262.055-.007.069-.006.125-.008h6.01c.232.008.302.037.427.096.608.286.773 1.273.162 1.716-.17.124-.377.185-.589.192z" fill-rule="nonzero"/></svg>