<svg clip-rule="evenodd" fill-rule="evenodd" height="512" stroke-linejoin="round" stroke-miterlimit="2" viewBox="0 0 24 24" width="512" xmlns="http://www.w3.org/2000/svg"><g id="Icon"><path d="m11.303 9.47s-1.511 1.511-3.675 3.675c-1.214 1.214-1.214 3.181 0 4.395 0 0 0 .001.001.001.582.582 1.372.91 2.196.909.823 0 1.613-.327 2.196-.909 2.076-2.076 5.657-5.658 8.168-8.169 1.858-1.858 1.858-4.87 0-6.728 0 0 0-.001-.001-.001-.892-.892-2.101-1.393-3.363-1.393-1.261 0-2.47.501-3.362 1.393-2.547 2.547-6.315 6.315-9.169 9.169-2.502 2.502-2.502 6.559 0 9.061 2.502 2.503 6.559 2.503 9.061 0 2.925-2.924 7.786-7.786 9.175-9.175.293-.292.293-.768 0-1.06-.292-.293-.768-.293-1.06 0-1.389 1.389-6.251 6.25-9.175 9.175-1.917 1.916-5.024 1.916-6.94 0-1.917-1.917-1.917-5.024 0-6.941 2.853-2.853 6.622-6.622 9.168-9.168.611-.611 1.439-.954 2.302-.954.864 0 1.692.343 2.302.954.001 0 .001 0 .002.001 1.272 1.272 1.272 3.334 0 4.606-2.511 2.512-6.093 6.093-8.169 8.169-.301.301-.709.47-1.135.47-.426.001-.834-.169-1.135-.47-.001 0-.001-.001-.002-.001-.627-.628-.627-1.645 0-2.273 0 0 3.676-3.676 3.676-3.676.293-.292.293-.768 0-1.06-.293-.293-.768-.293-1.061 0z"/></g></svg>