<svg clip-rule="evenodd" fill-rule="evenodd" height="512" stroke-linejoin="round" stroke-miterlimit="2" viewBox="0 0 24 24" width="512" xmlns="http://www.w3.org/2000/svg"><g id="Icon"><circle cx="5.25" cy="5" r=".75"/><circle cx="13.25" cy="19" r=".75"/><circle cx="16.25" cy="19" r=".75"/><circle cx="19.25" cy="19" r=".75"/><circle cx="7.75" cy="5" r=".75"/><circle cx="10.25" cy="5" r=".75"/><path d="m22.75 13v-8.5c0-1.795-1.455-3.25-3.25-3.25-3.842 0-11.158 0-15 0-1.795 0-3.25 1.455-3.25 3.25v15c0 .862.342 1.689.952 2.298.609.61 1.436.952 2.298.952h3.5c.414 0 .75-.336.75-.75s-.336-.75-.75-.75h-3.5c-.464 0-.909-.184-1.237-.513-.329-.328-.513-.773-.513-1.237v-15c0-.967.783-1.75 1.75-1.75h15c.967 0 1.75.783 1.75 1.75v8.5c0 .414.336.75.75.75s.75-.336.75-.75z"/><path d="m22 7.25h-20c-.414 0-.75.336-.75.75s.336.75.75.75h20c.414 0 .75-.336.75-.75s-.336-.75-.75-.75z"/><path d="m22.75 20v-2c0-1.519-1.231-2.75-2.75-2.75h-7.5c-1.519 0-2.75 1.231-2.75 2.75v2c0 1.519 1.231 2.75 2.75 2.75h7.5c1.519 0 2.75-1.231 2.75-2.75zm-1.5-2v2c0 .69-.56 1.25-1.25 1.25h-7.5c-.69 0-1.25-.56-1.25-1.25v-2c0-.69.56-1.25 1.25-1.25h7.5c.69 0 1.25.56 1.25 1.25z"/></g></svg>