<svg clip-rule="evenodd" fill-rule="evenodd" height="512" stroke-linejoin="round" stroke-miterlimit="2" viewBox="0 0 24 24" width="512" xmlns="http://www.w3.org/2000/svg"><g id="Icon"><path d="m16 21v-9c0-.967-.784-1.75-1.75-1.75-1.823 0-5.5 0-5.5 0-.414 0-.75.336-.75.75v10c0 .967.784 1.75 1.75 1.75h4.5c.966 0 1.75-.783 1.75-1.75zm-1.5-9v9c0 .138-.112.25-.25.25-1.222 0-3.278 0-4.5 0-.138 0-.25-.112-.25-.25v-9.25h4.75c.138 0 .25.112.25.25z"/><path d="m14 8.5c0-.332-.132-.649-.366-.884-.235-.234-.552-.366-.884-.366h-3.5c-.332 0-.649.132-.884.366-.234.235-.366.552-.366.884v2.5c0 .414.336.75.75.75h4.5c.414 0 .75-.336.75-.75zm-4.5.25h3v1.5h-3z"/><path d="m11.308 1.499c-.142-.158-.345-.249-.558-.249s-.416.091-.558.249c0 0-.793.887-1.27 1.725-.264.465-.422.929-.422 1.276 0 1.242 1.008 2.25 2.25 2.25s2.25-1.008 2.25-2.25c0-.347-.158-.811-.422-1.276-.477-.838-1.27-1.725-1.27-1.725zm-.558 1.687c.114.151.233.317.344.487.198.301.406.6.406.827 0 .414-.336.75-.75.75s-.75-.336-.75-.75c0-.227.208-.526.406-.827z"/><path d="m13.25 9.75h1.5c.414 0 .75-.336.75-.75s-.336-.75-.75-.75h-1.5c-.414 0-.75.336-.75.75s.336.75.75.75z"/><path d="m12.75 22v-8c0-.414-.336-.75-.75-.75s-.75.336-.75.75v8c0 .414.336.75.75.75s.75-.336.75-.75z"/></g></svg>