<svg height="512" viewBox="0 0 32 32" width="512" xmlns="http://www.w3.org/2000/svg"><g id="spotify_music_podcast_audio" data-name="spotify, music, podcast, audio"><path d="m16 3a13 13 0 0 0 -5.45 24.81 1 1 0 1 0 .84-1.81 11 11 0 1 1 4.61 1 1 1 0 0 0 0 2 13 13 0 0 0 0-26z"/><path d="m23.1 14.57a1 1 0 0 0 .49.13 1 1 0 0 0 .49-1.87c-4-2.27-9.24-2.84-15.56-1.73a1 1 0 0 0 -.81 1.16 1 1 0 0 0 1.16.81c5.85-1.07 10.63-.53 14.23 1.5z"/><path d="m9.66 17c4.88-1.08 8.86-.56 11.85 1.54a1 1 0 0 0 .58.19 1 1 0 0 0 .82-.43 1 1 0 0 0 -.24-1.39c-3.47-2.45-8-3.07-13.44-1.87a1 1 0 0 0 .43 2z"/><path d="m10.52 20.79c3.8-.77 6.89-.4 9.2 1.09a1 1 0 0 0 .54.16 1 1 0 0 0 .54-1.84c-2.8-1.79-6.35-2.2-10.67-1.37a1 1 0 1 0 .39 2z"/></g></svg>