<svg clip-rule="evenodd" fill-rule="evenodd" height="512" stroke-linejoin="round" stroke-miterlimit="2" viewBox="0 0 24 24" width="512" xmlns="http://www.w3.org/2000/svg"><g id="Icon"><path d="m8.27 7.188c-.447-.335-.934-.513-1.425-.513-.847 0-1.665.495-2.3 1.426-.772 1.132-1.295 2.954-1.295 5.015 0 2.531.804 4.689 1.879 5.698.998 1.072 3.161 1.879 5.699 1.879 2.061 0 3.882-.523 5.014-1.295.93-.635 1.425-1.453 1.425-2.3 0-.491-.178-.977-.512-1.424 1.668-.132 3.114-.607 4.07-1.258.93-.635 1.425-1.453 1.425-2.3 0-.633-.27-1.242-.793-1.774-.406-.413-.978-.785-1.677-1.082l.018-.018c1.528-1.528 2.512-3.245 2.81-4.625.247-1.145.03-2.096-.569-2.695s-1.549-.817-2.695-.57c-1.38.298-3.097 1.283-4.625 2.811-.008.009-.017.017-.025.026-.297-.706-.67-1.285-1.085-1.695-.534-.528-1.145-.801-1.781-.801-.848 0-1.666.495-2.3 1.425-.652.956-1.126 2.403-1.258 4.07zm9.575 1.796c-.221.18-.32.469-.258.746.063.277.276.496.552.564.823.202 1.523.506 2.013.89.352.277.598.58.598.932 0 .411-.32.753-.771 1.061-.938.64-2.459 1.034-4.168 1.034-.479 0-.94-.035-1.381-.094-.376-.05-.731.188-.825.556-.095.367.099.748.453.886.555.217 1.016.486 1.334.804.224.225.375.467.375.735 0 .411-.32.753-.771 1.061-.938.64-2.459 1.034-4.168 1.034-2.042 0-3.816-.546-4.616-1.417-.014-.016-.029-.03-.045-.045-.87-.8-1.417-2.573-1.417-4.615 0-1.71.394-3.231 1.034-4.17.308-.451.65-.771 1.061-.771.268 0 .51.151.735.376.318.318.588.78.806 1.335.138.354.519.548.886.452.368-.095.606-.45.555-.826-.06-.441-.094-.902-.094-1.38 0-1.709.393-3.23 1.034-4.168.307-.451.65-.771 1.061-.771.354 0 .659.249.937.606.386.495.69 1.202.892 2.034.067.277.286.492.564.555s.568-.038.748-.26c.248-.306.516-.609.811-.904 1.289-1.29 2.717-2.154 3.881-2.405.552-.12 1.028-.126 1.317.163v.001c.289.288.283.765.164 1.317-.251 1.165-1.116 2.592-2.405 3.881-.291.292-.59.557-.892.803z"/><path d="m2.532 22.533 13-13.061c.292-.294.29-.769-.003-1.061s-.769-.291-1.061.003l-13 13.061c-.292.293-.29.768.003 1.06s.769.291 1.061-.002z"/><path d="m11.25 7.947.021 3.927c.002.414.34.748.754.746s.748-.34.746-.754l-.021-3.927c-.002-.414-.34-.748-.754-.746s-.748.34-.746.754z"/><path d="m8 16.693h3c.414 0 .75-.336.75-.75s-.336-.75-.75-.75h-3c-.414 0-.75.336-.75.75s.336.75.75.75z"/></g></svg>