<svg clip-rule="evenodd" fill-rule="evenodd" height="512" stroke-linejoin="round" stroke-miterlimit="2" viewBox="0 0 24 24" width="512" xmlns="http://www.w3.org/2000/svg"><g id="Icon"><path d="m14.75 9c0-2.622-2.128-4.75-4.75-4.75s-4.75 2.128-4.75 4.75 2.128 4.75 4.75 4.75 4.75-2.128 4.75-4.75zm-1.5 0c0 1.794-1.456 3.25-3.25 3.25s-3.25-1.456-3.25-3.25 1.456-3.25 3.25-3.25 3.25 1.456 3.25 3.25z"/><path d="m12.25 9c0-1.741-.411-3.243-.953-3.993-.378-.522-.843-.757-1.297-.757s-.919.235-1.297.757c-.542.75-.953 2.252-.953 3.993s.411 3.243.953 3.993c.378.522.843.757 1.297.757s.919-.235 1.297-.757c.542-.75.953-2.252.953-3.993zm-2.25-3.195c.063.074.161.197.218.309.333.65.532 1.703.532 2.886s-.199 2.236-.532 2.886c-.057.112-.155.235-.218.309-.063-.074-.161-.197-.218-.309-.333-.65-.532-1.703-.532-2.886s.199-2.236.532-2.886c.057-.112.155-.235.218-.309z"/><path d="m14 8.25h-8c-.414 0-.75.336-.75.75s.336.75.75.75h8c.414 0 .75-.336.75-.75s-.336-.75-.75-.75z"/><path d="m18.75 10.5v-6.5c0-1.519-1.231-2.75-2.75-2.75-3.743 0-11.432 0-11.432 0-.875 0-1.713.332-2.331.917-.634.6-.987 1.415-.987 2.263v15.748c0 1.409 1.187 2.572 2.676 2.572h8.074c.414 0 .75-.336.75-.75s-.336-.75-.75-.75h-8.074c-.638 0-1.176-.468-1.176-1.072v-15.748c0-.441.188-.862.518-1.174.344-.326.813-.506 1.3-.506h11.432c.69 0 1.25.56 1.25 1.25v6.5c0 .414.336.75.75.75s.75-.336.75-.75z"/><path d="m7.75 16.75h2.75c.414 0 .75-.336.75-.75s-.336-.75-.75-.75h-2.75c-.414 0-.75.336-.75.75s.336.75.75.75z"/><path d="m6 19.75h5c.414 0 .75-.336.75-.75s-.336-.75-.75-.75h-5c-.414 0-.75.336-.75.75s.336.75.75.75z"/><path d="m15.457 17.875 1.091 1.143c.142.148.338.232.543.232s.401-.084.542-.232l1.91-2c.285-.3.274-.775-.025-1.061-.3-.285-.775-.274-1.061.025l-1.366 1.432s-.548-.575-.548-.575c-.286-.299-.761-.31-1.061-.024-.299.285-.31.761-.025 1.06z"/><path d="m17.5 12.25c-2.898 0-5.25 2.352-5.25 5.25s2.352 5.25 5.25 5.25 5.25-2.352 5.25-5.25-2.352-5.25-5.25-5.25zm0 1.5c2.07 0 3.75 1.68 3.75 3.75s-1.68 3.75-3.75 3.75-3.75-1.68-3.75-3.75 1.68-3.75 3.75-3.75z"/></g></svg>