<svg clip-rule="evenodd" fill-rule="evenodd" height="512" stroke-linejoin="round" stroke-miterlimit="2" viewBox="0 0 24 24" width="512" xmlns="http://www.w3.org/2000/svg"><g id="Icon"><path d="m22.75 3.5c0-.332-.132-.649-.366-.884-.235-.234-.552-.366-.884-.366h-17.5c-.414 0-.75.336-.75.75v6c0 .414.336.75.75.75h17.5c.332 0 .649-.132.884-.366.234-.235.366-.552.366-.884zm-1.5.25v4.5h-16.5v-4.5z"/><path d="m1.25 15.5v5c0 .332.132.649.366.884.235.234.552.366.884.366h17.5c.414 0 .75-.336.75-.75v-6c0-.414-.336-.75-.75-.75 0 0-14.593 0-17.5 0-.332 0-.649.132-.884.366-.234.235-.366.552-.366.884zm1.5.25h16.5v4.5h-16.5z"/><path d="m4 2.75h-2c-.414 0-.75.336-.75.75s.336.75.75.75h2c.414 0 .75-.336.75-.75s-.336-.75-.75-.75z"/><path d="m20 16.25h2c.414 0 .75-.336.75-.75s-.336-.75-.75-.75h-2c-.414 0-.75.336-.75.75s.336.75.75.75z"/><path d="m4 5.25h-2c-.414 0-.75.336-.75.75s.336.75.75.75h2c.414 0 .75-.336.75-.75s-.336-.75-.75-.75z"/><path d="m20 18.75h2c.414 0 .75-.336.75-.75s-.336-.75-.75-.75h-2c-.414 0-.75.336-.75.75s.336.75.75.75z"/><path d="m4 7.75h-2c-.414 0-.75.336-.75.75s.336.75.75.75h2c.414 0 .75-.336.75-.75s-.336-.75-.75-.75z"/><path d="m20 21.25h2c.414 0 .75-.336.75-.75s-.336-.75-.75-.75h-2c-.414 0-.75.336-.75.75s.336.75.75.75z"/><path d="m21.1 8.366-9.5 6c-.35.221-.455.685-.234 1.034.221.35.685.455 1.034.234l9.5-6c.35-.221.455-.685.234-1.034-.221-.35-.685-.455-1.034-.234z"/><path d="m11.6 8.366-9.5 6c-.35.221-.455.685-.234 1.034.221.35.685.455 1.034.234l9.5-6c.35-.221.455-.685.234-1.034-.221-.35-.685-.455-1.034-.234z"/><path d="m15.272 2.818-.5 2c-.043.174-.023.357.057.517l.876 1.752s-.433 1.731-.433 1.731c-.1.402.145.809.546.91.402.1.809-.145.91-.546l.5-2c.043-.174.023-.357-.057-.517l-.876-1.752s.433-1.731.433-1.731c.1-.402-.145-.809-.546-.91-.402-.1-.809.145-.91.546z"/><path d="m13.772 14.818-.5 2c-.043.174-.023.357.057.517l.876 1.752s-.433 1.731-.433 1.731c-.1.402.145.809.546.91.402.1.809-.145.91-.546l.5-2c.043-.174.023-.357-.057-.517l-.876-1.752s.433-1.731.433-1.731c.1-.402-.145-.809-.546-.91-.402-.1-.809.145-.91.546z"/><path d="m9.272 2.818-.5 2c-.043.174-.023.357.057.517l.876 1.752s-.433 1.731-.433 1.731c-.1.402.145.809.546.91.402.1.809-.145.91-.546l.5-2c.043-.174.023-.357-.057-.517l-.876-1.752s.433-1.731.433-1.731c.1-.402-.145-.809-.546-.91-.402-.1-.809.145-.91.546z"/><path d="m7.772 14.818-.5 2c-.043.174-.023.357.057.517l.876 1.752s-.433 1.731-.433 1.731c-.1.402.145.809.546.91.402.1.809-.145.91-.546l.5-2c.043-.174.023-.357-.057-.517l-.876-1.752s.433-1.731.433-1.731c.1-.402-.145-.809-.546-.91-.402-.1-.809.145-.91.546z"/></g></svg>