<svg clip-rule="evenodd" fill-rule="evenodd" height="512" stroke-linejoin="round" stroke-miterlimit="2" viewBox="0 0 24 24" width="512" xmlns="http://www.w3.org/2000/svg"><g id="Icon"><path d="m11.984 19.425c1.465-1.465 1.465-3.839 0-5.304-1.476-1.476-3.182-3.182-3.182-3.182-.292-.293-.767-.293-1.06 0 0 0-3.433 3.433-4.95 4.95-.328.328-.513.773-.513 1.238 0 .464.185.909.513 1.237l3.889 3.889c.328.328.773.513 1.238.513.464 0 .909-.185 1.237-.513zm-1.06-1.061-2.829 2.828c-.047.047-.11.074-.176.074-.067 0-.13-.027-.177-.074l-3.889-3.889c-.047-.047-.074-.11-.074-.176 0-.067.027-.13.074-.177 0 0 4.419-4.42 4.419-4.42s2.652 2.652 2.652 2.652c.878.879.878 2.303 0 3.182z"/><path d="m6.097 16.72 2.228 2.228c.293.292.768.292 1.061 0 .293-.293.293-.768 0-1.061l-2.228-2.228c-.293-.293-.768-.293-1.061 0-.292.293-.292.768 0 1.061z"/><path d="m8.802 12 9.193-9.192c.097-.098.256-.098.353 0 0 0 1.857 1.856 1.857 1.856s-.209 1.459-.209 1.459h-1.471c-.217 0-.424.095-.566.259-.143.164-.207.382-.176.598l.231 1.618h-1.257c-.217 0-.424.095-.566.259-.143.164-.207.382-.176.597l.231 1.619h-1.256c-.218 0-.425.095-.567.259s-.207.382-.176.597l.231 1.619h-1.256c-.199 0-.39.079-.531.22l-1.06 1.06c-.293.293-.293.768 0 1.061s.768.293 1.06 0l.841-.841h1.811c.218 0 .424-.094.567-.259.142-.164.206-.382.176-.597l-.232-1.619h1.257c.217 0 .424-.094.567-.258.142-.165.206-.383.175-.598l-.231-1.619h1.257c.217 0 .424-.094.566-.258.143-.164.207-.382.176-.598l-.231-1.619h1.256c.374 0 .69-.274.743-.643l.353-2.475c.034-.234-.045-.47-.212-.637l-2.121-2.121c-.683-.683-1.791-.683-2.475 0l-9.192 9.192c-.293.293-.293.768 0 1.061.292.293.768.293 1.06 0z"/></g></svg>