<svg clip-rule="evenodd" fill-rule="evenodd" height="512" stroke-linejoin="round" stroke-miterlimit="2" viewBox="0 0 24 24" width="512" xmlns="http://www.w3.org/2000/svg"><g id="Icon"><path d="m18.25 6c0-.414-.336-.75-.75-.75h-11c-.414 0-.75.336-.75.75v7c0 3.176 2.574 5.75 5.75 5.75h1c3.176 0 5.75-2.574 5.75-5.75 0-3.293 0-7 0-7zm-1.5.75v6.25c0 2.347-1.903 4.25-4.25 4.25-.333 0-.667 0-1 0-2.347 0-4.25-1.903-4.25-4.25v-6.25z"/><path d="m11.25 18v4c0 .414.336.75.75.75s.75-.336.75-.75v-4c0-.414-.336-.75-.75-.75s-.75.336-.75.75z"/><path d="m11.867 8.598-1.901 3c-.147.231-.156.524-.024.764.132.239.384.388.657.388h1.438s-1.171 1.848-1.171 1.848c-.222.35-.118.814.232 1.035.349.222.813.118 1.035-.231l1.901-3c.147-.231.156-.524.024-.764-.132-.239-.384-.388-.657-.388h-1.438s1.171-1.848 1.171-1.848c.222-.35.118-.814-.232-1.035-.349-.222-.813-.118-1.035.231z"/><path d="m18.25 5.25h-12.5c-.414 0-.75.336-.75.75s.336.75.75.75h12.5c.414 0 .75-.336.75-.75s-.336-.75-.75-.75z"/><path d="m9.25 6v-4c0-.414-.336-.75-.75-.75s-.75.336-.75.75v4c0 .414.336.75.75.75s.75-.336.75-.75z"/><path d="m16.25 6v-4c0-.414-.336-.75-.75-.75s-.75.336-.75.75v4c0 .414.336.75.75.75s.75-.336.75-.75z"/></g></svg>