<svg clip-rule="evenodd" fill-rule="evenodd" height="512" stroke-linejoin="round" stroke-miterlimit="2" viewBox="0 0 24 24" width="512" xmlns="http://www.w3.org/2000/svg"><g id="Icon"><path d="m19.75 11.25v-1.25c0-1.518-1.232-2.75-2.75-2.75s-2.75 1.232-2.75 2.75v1.25h-2.25c-.414 0-.75.336-.75.75v10c0 .414.336.75.75.75h9c.966 0 1.75-.782 1.75-1.75v-8c0-.968-.784-1.75-1.75-1.75zm-1.5.75c0 .414.336.75.75.75h2c.138 0 .25.112.25.25v8c0 .138-.112.25-.25.25h-8.25v-8.5h2.25c.414 0 .75-.336.75-.75v-2c0-.69.56-1.25 1.25-1.25s1.25.56 1.25 1.25z"/><path d="m11 1.25h-8c-.966 0-1.75.782-1.75 1.75v9c0 .414.336.75.75.75h2.25v1.25c0 1.518 1.232 2.75 2.75 2.75s2.75-1.232 2.75-2.75v-1.25h2.25c.414 0 .75-.336.75-.75v-9c0-.968-.784-1.75-1.75-1.75zm0 1.5c.138 0 .25.112.25.25v8.25h-2.25c-.414 0-.75.336-.75.75v2c0 .69-.56 1.25-1.25 1.25s-1.25-.56-1.25-1.25v-2c0-.414-.336-.75-.75-.75h-2.25v-8.25c0-.138.112-.25.25-.25z"/><path d="m1.25 12v9c0 .968.784 1.75 1.75 1.75h9c.414 0 .75-.336.75-.75s-.336-.75-.75-.75h-9c-.138 0-.25-.112-.25-.25v-9c0-.414-.336-.75-.75-.75s-.75.336-.75.75z"/></g></svg>