<svg clip-rule="evenodd" fill-rule="evenodd" height="512" stroke-linejoin="round" stroke-miterlimit="2" viewBox="0 0 24 24" width="512" xmlns="http://www.w3.org/2000/svg"><g id="Icon"><path d="m6.5 3.5c-1.794 0-3.25 1.456-3.25 3.25s1.456 3.25 3.25 3.25 3.25-1.456 3.25-3.25-1.456-3.25-3.25-3.25zm0 1.5c.966 0 1.75.784 1.75 1.75s-.784 1.75-1.75 1.75-1.75-.784-1.75-1.75.784-1.75 1.75-1.75z"/><path d="m22 19h-20c-.414 0-.75.336-.75.75s.336.75.75.75h20c.414 0 .75-.336.75-.75s-.336-.75-.75-.75z"/><path d="m3.133 20.153s2.202-3.461 3.113-4.892c.058-.091.167-.135.271-.109l2.769.692c.082.021.149.083.176.164 0 0 1.326 3.979 1.326 3.979.131.393.556.605.949.475.393-.131.605-.556.475-.949l-1.327-3.979c-.189-.568-.655-1-1.236-1.145-.713-.178-1.979-.495-2.768-.692-.731-.182-1.496.123-1.901.758-.91 1.431-3.113 4.892-3.113 4.892-.222.35-.119.814.23 1.036.35.222.814.119 1.036-.23z"/><path d="m8.08 14.725 3.004-3.671c.233-.284.579-.452.947-.458.367-.006.719.15.961.427 1.123 1.284 2.444 2.792 2.444 2.792.272.312.746.343 1.058.071.311-.273.343-.747.07-1.058 0 0-1.32-1.509-2.443-2.793-.533-.609-1.306-.952-2.115-.939-.809.014-1.571.382-2.083 1.008-1.309 1.601-3.003 3.671-3.003 3.671-.263.32-.215.793.105 1.055.32.263.793.215 1.055-.105z"/><path d="m13.171 20.085s1.455-2.911 2.711-5.422c.212-.423.645-.691 1.118-.691s.906.268 1.118.691l2.711 5.422c.185.371.636.521 1.006.336.371-.185.521-.636.336-1.006 0 0-1.456-2.912-2.711-5.423-.466-.931-1.418-1.52-2.46-1.52s-1.994.589-2.46 1.52c-1.255 2.511-2.711 5.423-2.711 5.423-.185.37-.035.821.336 1.006.37.185.821.035 1.006-.336z"/></g></svg>