<svg clip-rule="evenodd" fill-rule="evenodd" height="512" stroke-linejoin="round" stroke-miterlimit="2" viewBox="0 0 24 24" width="512" xmlns="http://www.w3.org/2000/svg"><g id="Icon"><circle cx="12" cy="4.375" r="1.75"/><circle cx="21" cy="7.375" r="1.75"/><circle cx="3" cy="7.375" r="1.75"/><path d="m21.235 8.522c.064-.318-.084-.64-.365-.8-.282-.159-.635-.12-.875.098 0 0-1.046.951-2.226 2.024-.552.502-1.317.697-2.042.522s-1.316-.698-1.578-1.397c0 0-1.447-3.857-1.447-3.857-.11-.293-.389-.487-.702-.487s-.592.194-.702.487l-1.447 3.857c-.262.699-.853 1.222-1.578 1.397s-1.49-.02-2.042-.522c-1.18-1.073-2.226-2.024-2.226-2.024-.24-.218-.593-.257-.875-.098-.281.16-.429.482-.365.8 0 0 1.113 5.565 1.678 8.392.257 1.286 1.386 2.211 2.697 2.211h9.72c1.311 0 2.44-.925 2.697-2.211.565-2.827 1.678-8.392 1.678-8.392zm-1.918 1.942-1.231 6.156c-.117.584-.63 1.005-1.226 1.005h-9.72c-.596 0-1.109-.421-1.226-1.005l-1.231-6.156s.539.49.539.49c.92.836 2.195 1.162 3.403.87 1.209-.292 2.194-1.164 2.631-2.328l.744-1.985s.744 1.985.744 1.985c.437 1.164 1.422 2.036 2.631 2.328 1.208.292 2.483-.034 3.403-.87z"/><path d="m18 20.625h-12c-.414 0-.75.336-.75.75s.336.75.75.75h12c.414 0 .75-.336.75-.75s-.336-.75-.75-.75z"/></g></svg>