<svg clip-rule="evenodd" fill-rule="evenodd" height="512" stroke-linejoin="round" stroke-miterlimit="2" viewBox="0 0 24 24" width="512" xmlns="http://www.w3.org/2000/svg"><g id="Icon"><path d="m15.75 6v-3.5c0-.332-.132-.649-.366-.884-.235-.234-.552-.366-.884-.366-1.13 0-3.87 0-5 0-.332 0-.649.132-.884.366-.234.235-.366.552-.366.884v3.5c0 .332.132.649.366.884.235.234.552.366.884.366h5c.332 0 .649-.132.884-.366.234-.235.366-.552.366-.884zm-6-.25h4.5v-3h-4.5z"/><path d="m8.75 19.5v-3.5c0-.332-.132-.649-.366-.884-.235-.234-.552-.366-.884-.366-1.13 0-3.87 0-5 0-.332 0-.649.132-.884.366-.234.235-.366.552-.366.884v3.5c0 .332.132.649.366.884.235.234.552.366.884.366h5c.332 0 .649-.132.884-.366.234-.235.366-.552.366-.884zm-6-.25h4.5v-3h-4.5z"/><path d="m22.75 19.5v-3.5c0-.332-.132-.649-.366-.884-.235-.234-.552-.366-.884-.366-1.13 0-3.87 0-5 0-.332 0-.649.132-.884.366-.234.235-.366.552-.366.884v3.5c0 .332.132.649.366.884.235.234.552.366.884.366h5c.332 0 .649-.132.884-.366.234-.235.366-.552.366-.884zm-6-.25h4.5v-3h-4.5z"/><path d="m11.25 6.5v2c0 .414.336.75.75.75s.75-.336.75-.75v-2c0-.414-.336-.75-.75-.75s-.75.336-.75.75z"/><path d="m4.25 20v2c0 .414.336.75.75.75s.75-.336.75-.75v-2c0-.414-.336-.75-.75-.75s-.75.336-.75.75z"/><path d="m18.25 20v2c0 .414.336.75.75.75s.75-.336.75-.75v-2c0-.414-.336-.75-.75-.75s-.75.336-.75.75z"/><path d="m10.5 9.25h3c.414 0 .75-.336.75-.75s-.336-.75-.75-.75h-3c-.414 0-.75.336-.75.75s.336.75.75.75z"/><path d="m3.5 22.75h3c.414 0 .75-.336.75-.75s-.336-.75-.75-.75h-3c-.414 0-.75.336-.75.75s.336.75.75.75z"/><path d="m17.5 22.75h3c.414 0 .75-.336.75-.75s-.336-.75-.75-.75h-3c-.414 0-.75.336-.75.75s.336.75.75.75z"/><path d="m11.25 10.5v1.5c0 .414.336.75.75.75s.75-.336.75-.75v-1.5c0-.414-.336-.75-.75-.75s-.75.336-.75.75z"/><path d="m18.961 14.249.039.001.032-.004c.144-.02.718-.139.718-.753 0-.038 0-.245 0-.493 0-.966-.783-1.75-1.75-1.75h-12c-.967 0-1.75.784-1.75 1.75v.493.001.006c0 .414.336.75.75.75 0 0 .75-.056.75-.757v-.493c0-.138.112-.25.25-.25h12c.138 0 .25.112.25.25v.493.001.006c0 .401.315.729.711.749z"/></g></svg>