<svg clip-rule="evenodd" fill-rule="evenodd" height="512" stroke-linejoin="round" stroke-miterlimit="2" viewBox="0 0 24 24" width="512" xmlns="http://www.w3.org/2000/svg"><g id="Icon"><path d="m9.39 5.441c-.164.229-.185.53-.057.779.129.25.386.407.667.407h12c.291 0 .556-.168.679-.432.124-.263.083-.574-.103-.798l-1.827-2.192c-.91-1.092-2.452-1.415-3.724-.779l-.001.001c-.267.133-.581.133-.848 0l-.566-.283c-1.64-.82-3.633-.325-4.698 1.167-.758 1.06-1.522 2.13-1.522 2.13zm2.067-.314.675-.945c.637-.891 1.827-1.187 2.807-.697 0 0 .566.283.566.283.689.345 1.501.345 2.19 0h.001c.649-.325 1.436-.16 1.901.397 0 0 .802.962.802.962z"/><path d="m21.749 16.924.5-8c.012-.207-.061-.409-.202-.56-.142-.151-.34-.237-.547-.237h-11c-.209 0-.408.087-.55.241-.142.153-.214.358-.198.567l.514 6.675c.031.412.392.722.805.69s.722-.393.69-.805l-.451-5.868h9.392s-.451 7.203-.451 7.203c-.025.414.289.77.702.796s.77-.289.796-.702z"/><path d="m22.75 5.877c0-.414-.336-.75-.75-.75h-12c-.414 0-.75.336-.75.75v3c0 .414.336.75.75.75h12c.414 0 .75-.336.75-.75zm-1.5.75v1.5h-10.5v-1.5z"/><path d="m1.25 18.588v2.912c0 .414.336.75.75.75h20c.414 0 .75-.336.75-.75 0 0 0-2.385-.006-3.474 0-.575-.288-1.117-.768-1.441-.012-.008-.024-.016-.037-.023-3.213-1.91-10.374-2.384-14.231-.753-2.053.868-3.581 1.064-4.519 1.041-.489-.052-.975.101-1.343.424-.378.332-.596.811-.596 1.314zm1.5.002c0-.072.031-.141.085-.188s.126-.069.197-.06c.025.003.05.005.075.006 1.062.033 2.821-.157 5.185-1.157 3.479-1.471 9.927-1.071 12.85.642.067.052.102.122.102.197v.004c.004.697.005 1.924.006 2.716h-18.5z"/></g></svg>