<svg clip-rule="evenodd" fill-rule="evenodd" height="512" stroke-linejoin="round" stroke-miterlimit="2" viewBox="0 0 24 24" width="512" xmlns="http://www.w3.org/2000/svg"><g id="Icon"><path d="m20 21.25c.414 0 .75.336.75.75s-.336.75-.75.75h-16c-.414 0-.75-.336-.75-.75s.336-.75.75-.75z"/><path d="m6.689 22.295c-.163.381-.604.557-.984.394-.381-.163-.557-.604-.394-.984l2.939-6.859v-7.846c0-.095.018-.19.054-.279l2-5c.114-.284.389-.471.696-.471h2c.307 0 .582.187.696.471l2 5c.036.089.054.184.054.279v7.846l2.939 6.859c.163.38-.013.821-.394.984-.38.163-.821-.013-.984-.394l-3-7c-.04-.093-.061-.193-.061-.295v-7.856l-1.758-4.394h-.984l-1.758 4.394v7.856c0 .102-.021.202-.061.295z"/><path d="m17 4.75c-.414 0-.75-.336-.75-.75 0-.005 0-.01 0-.014v-.986c0-.138-.112-.25-.25-.25h-8c-.138 0-.25.112-.25.25v.985c0 .702-.75.765-.75.765-.278 0-.521-.152-.651-.377-.037-.063-.067-.136-.083-.221-.01-.048-.016-.099-.016-.152 0-.005 0-.01 0-.014v-.986c0-.966.783-1.75 1.75-1.75h8c.967 0 1.75.784 1.75 1.75v.985c0 .702-.75.765-.75.765z"/><path d="m14.4 6.55c.248-.331.719-.398 1.05-.15s.398.719.15 1.05l-6 8c-.248.331-.719.398-1.05.15s-.398-.719-.15-1.05z"/><path d="m14.571 15.099c.339-.237.807-.154 1.044.186.237.339.154.807-.186 1.044l-9 6.286c-.339.237-.807.154-1.044-.186-.237-.339-.154-.807.186-1.044z"/><path d="m8.4 7.45c-.248-.331-.181-.802.15-1.05s.802-.181 1.05.15l6 8c.248.331.181.802-.15 1.05s-.802.181-1.05-.15z"/><path d="m8.571 16.329c-.34-.237-.423-.705-.186-1.044.237-.34.705-.423 1.044-.186l9 6.286c.34.237.423.705.186 1.044-.237.34-.705.423-1.044.186z"/><path d="m14.25 15v-8c0-.277.152-.531.396-.661.244-.131.54-.116.77.037l5.109 3.406c.765.51 1.225 1.369 1.225 2.288v2.93c0 .414-.336.75-.75.75h-6c-.414 0-.75-.336-.75-.75zm1.5-.75h4.5v-2.18c0-.418-.209-.808-.557-1.04l-3.943-2.629z"/><path d="m9 15.75h-6c-.414 0-.75-.336-.75-.75v-2.93c0-.919.46-1.778 1.225-2.288l5.109-3.406c.23-.153.526-.168.77-.037.244.13.396.384.396.661v8c0 .414-.336.75-.75.75zm-.75-1.5v-5.849l-3.943 2.629c-.348.232-.557.622-.557 1.04v2.18z"/><path d="m20.25 14c0-.414.336-.75.75-.75s.75.336.75.75v2.5c0 .414-.336.75-.75.75s-.75-.336-.75-.75z"/><path d="m2.25 14c0-.414.336-.75.75-.75s.75.336.75.75v2.5c0 .414-.336.75-.75.75s-.75-.336-.75-.75z"/><path d="m15 6.25c.414 0 .75.336.75.75s-.336.75-.75.75h-6c-.414 0-.75-.336-.75-.75s.336-.75.75-.75z"/></g></svg>