<svg clip-rule="evenodd" fill-rule="evenodd" height="512" stroke-linejoin="round" stroke-miterlimit="2" viewBox="0 0 24 24" width="512" xmlns="http://www.w3.org/2000/svg"><g id="Icon"><path d="m19.75 6.5v14c0 1.243-1.007 2.25-2.25 2.25h-11c-1.243 0-2.25-1.007-2.25-2.25v-14c0-1.243 1.007-2.25 2.25-2.25h11c1.243 0 2.25 1.007 2.25 2.25zm-1.5 0c0-.414-.336-.75-.75-.75h-11c-.414 0-.75.336-.75.75v14c0 .414.336.75.75.75h11c.414 0 .75-.336.75-.75z"/><path d="m17.25 9v3c0 .464-.184.909-.513 1.237-.328.329-.773.513-1.237.513h-7c-.464 0-.909-.184-1.237-.513-.329-.328-.513-.773-.513-1.237v-3c0-.464.184-.909.513-1.237.328-.329.773-.513 1.237-.513h7c.464 0 .909.184 1.237.513.329.328.513.773.513 1.237zm-1.5 0c0-.066-.026-.13-.073-.177s-.111-.073-.177-.073h-7c-.066 0-.13.026-.177.073s-.073.111-.073.177v3c0 .066.026.13.073.177s.111.073.177.073h7c.066 0 .13-.026.177-.073s.073-.111.073-.177z"/><path d="m15 5.25c-.414 0-.75-.336-.75-.75s.336-.75.75-.75h2c.414 0 .75.336.75.75s-.336.75-.75.75z"/><path d="m7 5.25c-.414 0-.75-.336-.75-.75s.336-.75.75-.75h2c.414 0 .75.336.75.75s-.336.75-.75.75z"/><path d="m16.75 4.5c0 .414-.336.75-.75.75s-.75-.336-.75-.75v-2.454c0-.414.336-.75.75-.75s.75.336.75.75z"/><path d="m8.75 4.5c0 .414-.336.75-.75.75s-.75-.336-.75-.75v-2.454c0-.414.336-.75.75-.75s.75.336.75.75z"/><path d="m15 15.75c.414 0 .75.336.75.75s-.336.75-.75.75h-6c-.414 0-.75-.336-.75-.75s.336-.75.75-.75z"/><path d="m16 18.25c.414 0 .75.336.75.75s-.336.75-.75.75h-8c-.414 0-.75-.336-.75-.75s.336-.75.75-.75z"/></g></svg>