<svg clip-rule="evenodd" fill-rule="evenodd" height="512" stroke-linejoin="round" stroke-miterlimit="2" viewBox="0 0 24 24" width="512" xmlns="http://www.w3.org/2000/svg"><g id="Icon"><circle cx="12" cy="7" r="1"/><path d="m10.95 5.558c.293-.22.656-.35 1.049-.35.394 0 .757.13 1.049.35.331.249.802.182 1.051-.149.248-.331.181-.802-.15-1.05-.543-.408-1.218-.651-1.95-.651-.731 0-1.406.243-1.949.651-.331.248-.398.719-.15 1.05.249.331.72.398 1.05.149z"/><path d="m9.95 3.475c.572-.429 1.281-.683 2.05-.683s1.478.254 2.05.683c.33.248.801.182 1.05-.149.248-.331.181-.802-.15-1.05-.822-.618-1.843-.984-2.95-.984s-2.128.366-2.95.984c-.331.248-.398.719-.15 1.05.249.331.72.397 1.05.149z"/><path d="m12 8.75c-4.049 0-7.557.843-9.303 2.02-.969.654-1.447 1.443-1.447 2.23s.478 1.576 1.447 2.23c1.746 1.177 5.254 2.02 9.303 2.02s7.557-.843 9.303-2.02c.969-.654 1.447-1.443 1.447-2.23s-.478-1.576-1.447-2.23c-1.746-1.177-5.254-2.02-9.303-2.02zm0 1.5c3.178 0 6 .527 7.746 1.36.511.244.922.509 1.201.801.18.189.303.379.303.589s-.123.4-.303.589c-.279.292-.69.557-1.201.801-1.746.833-4.568 1.36-7.746 1.36s-6-.527-7.746-1.36c-.511-.244-.922-.509-1.201-.801-.18-.189-.303-.379-.303-.589s.123-.4.303-.589c.279-.292.69-.557 1.201-.801 1.746-.833 4.568-1.36 7.746-1.36z"/><path d="m21.25 13v4.5c0 .774-.627 1.438-1.573 2.018-1.731 1.062-4.528 1.732-7.677 1.732s-5.946-.67-7.677-1.732c-.946-.58-1.573-1.244-1.573-2.018v-4.5c0-.414-.336-.75-.75-.75s-.75.336-.75.75v4.5c0 1.214.806 2.386 2.288 3.296 1.91 1.172 4.988 1.954 8.462 1.954s6.552-.782 8.462-1.954c1.482-.91 2.288-2.082 2.288-3.296v-4.5c0-.414-.336-.75-.75-.75s-.75.336-.75.75z"/><path d="m13 18.25h-2c-.414 0-.75.336-.75.75s.336.75.75.75h2c.414 0 .75-.336.75-.75s-.336-.75-.75-.75z"/><path d="m11.25 12v2c0 .414.336.75.75.75s.75-.336.75-.75v-2c0-.414-.336-.75-.75-.75s-.75.336-.75.75z"/><path d="m13.75 12.5v1c0 .414.336.75.75.75s.75-.336.75-.75v-1c0-.414-.336-.75-.75-.75s-.75.336-.75.75z"/><path d="m8.75 12.5v1c0 .414.336.75.75.75s.75-.336.75-.75v-1c0-.414-.336-.75-.75-.75s-.75.336-.75.75z"/></g></svg>