<svg clip-rule="evenodd" fill-rule="evenodd" height="512" stroke-linejoin="round" stroke-miterlimit="2" viewBox="0 0 24 24" width="512" xmlns="http://www.w3.org/2000/svg"><g id="Icon"><path d="m12 1.25h-.01c-2.466-.009-4.047.627-5.067 1.613-1.033.999-1.513 2.386-1.69 3.977-.211 1.897.009 4.099.013 6.162.005 2.362-.561 4.46-1.142 5.994-.332.833-.231 1.777.271 2.52.503.744 1.341 1.191 2.239 1.194 3.062.04 7.7.04 10.761.04.914 0 1.767-.454 2.278-1.212.511-.757.613-1.718.272-2.566-.001 0-.001-.001-.001-.001-.615-1.517-1.179-3.611-1.174-5.969.004-2.063.224-4.265.013-6.162-.177-1.591-.657-2.978-1.69-3.977-1.02-.986-2.6-1.622-5.073-1.613zm0 1.5h.003c1.952-.007 3.223.414 4.027 1.191.791.765 1.106 1.848 1.242 3.064.205 1.846-.018 3.987-.022 5.993-.005 2.583.61 4.876 1.284 6.537.155.383.108.82-.124 1.164s-.62.551-1.035.551c-3.057 0-7.688 0-10.744-.04-.004 0-.007 0-.01 0-.402 0-.778-.2-1.003-.533s-.269-.756-.119-1.129c.002-.005.004-.01.006-.015.633-1.671 1.246-3.959 1.241-6.535-.004-2.006-.227-4.147-.022-5.993.135-1.216.451-2.299 1.242-3.064.804-.777 2.075-1.198 4.027-1.191h.007z"/><path d="m10.114 9.612c-.257-.257-.355-.634-.254-.984s.385-.618.74-.698c.936-.172 1.866-.171 2.796.028.346.079.621.339.719.679.099.341.004.707-.246.958-.523.561-1.137 1.175-1.513 1.551-.094.094-.221.147-.354.147s-.26-.053-.353-.147c-.377-.376-.992-.991-1.535-1.534z"/><path d="m14.25 6v1c0 .414.336.75.75.75s.75-.336.75-.75v-1c0-.414-.336-.75-.75-.75s-.75.336-.75.75z"/><path d="m8.25 6v1c0 .414.336.75.75.75s.75-.336.75-.75v-1c0-.414-.336-.75-.75-.75s-.75.336-.75.75z"/><path d="m16.237 10.212 4.5-1.5c.393-.131.605-.556.475-.949-.131-.393-.556-.605-.949-.475l-4.5 1.5c-.393.131-.605.556-.475.949.131.393.556.605.949.475z"/><path d="m8.237 8.788-4.5-1.5c-.393-.13-.818.082-.949.475-.13.393.082.818.475.949l4.5 1.5c.393.13.818-.082.949-.475.13-.393-.082-.818-.475-.949z"/><path d="m15.763 14.212 4.5 1.5c.393.13.818-.082.949-.475.13-.393-.082-.818-.475-.949l-4.5-1.5c-.393-.13-.818.082-.949.475-.13.393.082.818.475.949z"/><path d="m7.763 12.788-4.5 1.5c-.393.131-.605.556-.475.949.131.393.556.605.949.475l4.5-1.5c.393-.131.605-.556.475-.949-.131-.393-.556-.605-.949-.475z"/><path d="m16 12.25h4.347c.414 0 .75-.336.75-.75s-.336-.75-.75-.75h-4.347c-.414 0-.75.336-.75.75s.336.75.75.75z"/><path d="m8 10.75h-4.347c-.414 0-.75.336-.75.75s.336.75.75.75h4.347c.414 0 .75-.336.75-.75s-.336-.75-.75-.75z"/></g></svg>