<svg clip-rule="evenodd" fill-rule="evenodd" height="512" stroke-linejoin="round" stroke-miterlimit="2" viewBox="0 0 24 24" width="512" xmlns="http://www.w3.org/2000/svg"><g id="Icon"><path d="m16.5 18.644h4c.597 0 1.169-.237 1.591-.659s.659-.995.659-1.591c0-1.43 0-3.571 0-5 0-.597-.237-1.169-.659-1.591s-.994-.659-1.591-.659h-2.333c-.271 0-.534-.088-.75-.25l-.934-.7c-.476-.357-1.055-.55-1.65-.55h-1.005c-.729 0-1.428.289-1.944.805l-2.914 2.914c-.846.846-.846 2.216 0 3.061.845.845 2.215.845 3.06 0 .873-.872 2-2 2-2 .293-.293.293-.768 0-1.061-.292-.292-.768-.292-1.06 0 0 0-1.128 1.128-2 2-.26.26-.68.26-.94 0-.259-.259-.259-.68 0-.939 0 0 2.915-2.914 2.915-2.914.234-.235.552-.366.883-.366h1.005c.271 0 .534.087.75.25l.934.7c.476.357 1.055.55 1.65.55h2.333c.199 0 .39.079.53.219.141.141.22.332.22.531v5c0 .199-.079.389-.22.53-.14.141-.331.22-.53.22h-4c-.414 0-.75.336-.75.75s.336.75.75.75z"/><path d="m15.47 14.924.451.451c.248.249.381.59.365.941s-.179.679-.449.904l-3.102 2.585c-.445.371-1.087.387-1.55.04-.743-.557-1.642-1.232-2.202-1.651-.476-.357-1.055-.55-1.65-.55h-3.833c-.199 0-.39-.079-.53-.22-.141-.141-.22-.331-.22-.53v-5c0-.415.336-.75.75-.75h1.672c.729 0 1.428-.29 1.944-.806l.829-.828c.234-.235.552-.366.883-.366h1.172c.414 0 .75-.336.75-.75s-.336-.75-.75-.75c0 0-.621 0-1.172 0-.729 0-1.428.289-1.944.805l-.829.828c-.234.235-.552.367-.883.367h-1.672c-1.243 0-2.25 1.007-2.25 2.25v5c0 .596.237 1.169.659 1.591s.994.659 1.591.659h3.833c.271 0 .534.087.75.25.56.419 1.459 1.094 2.202 1.651 1.019.764 2.431.728 3.41-.088l3.103-2.585c.593-.495.951-1.216.986-1.988s-.256-1.523-.802-2.069c0 0-.452-.452-.452-.452-.292-.292-.768-.292-1.06 0-.293.293-.293.768 0 1.061z"/><path d="m11.25 3.155v1c0 .414.336.75.75.75s.75-.336.75-.75v-1c0-.414-.336-.75-.75-.75s-.75.336-.75.75z"/><path d="m7.227 5.442.707.707c.293.293.768.293 1.061 0 .293-.292.293-.767 0-1.06l-.707-.707c-.293-.293-.768-.293-1.061 0-.292.293-.292.768 0 1.06z"/><path d="m15.712 4.382-.707.707c-.293.293-.293.768 0 1.06.293.293.768.293 1.061 0l.707-.707c.292-.292.292-.767 0-1.06-.293-.293-.768-.293-1.061 0z"/></g></svg>