<svg clip-rule="evenodd" fill-rule="evenodd" stroke-linejoin="round" stroke-miterlimit="2" viewBox="0 0 32 32" xmlns="http://www.w3.org/2000/svg" xmlns:serif="http://www.serif.com/"><path id="friends-study-group" d="m0 0h32v32h-32z" fill="none"/><path d="m13.076 15.774c-.926-.646-1.643-1.582-1.928-2.716-.714-2.84 1.635-6.026 4.823-6.056h.064c2.495.023 4.829 2.12 4.96 4.636.084 1.609-.74 3.205-2.034 4.172 1.203.914 2.025 2.346 2.04 3.933v4.255s-.418 1.299-1.362.932c-.336-.131-.589-.458-.63-.818-.006-.051-.006-.063-.007-.114 0-1.421.013-2.842 0-4.262-.025-1.595-1.51-3.028-3.137-2.955-1.507.066-2.846 1.397-2.861 2.974l-.001 3.243h3c.233.007.31.038.441.103.601.295.743 1.273.146 1.706-.123.089-.267.15-.417.176-.056.01-.113.013-.17.015h-3.999c-.183-.005-.233-.022-.33-.056-.392-.137-.656-.446-.67-.944 0-1.418-.004-2.837 0-4.255.015-1.562.83-3.038 2.072-3.969zm10.007.227c.024-.003.047-.005.071-.007.75-.062 1.435-.57 1.708-1.261.469-1.188-.447-2.728-1.864-2.732 0 0-.945-.224-.994-.931-.037-.527.398-1.029.952-1.068.035 0 .035-.001.071 0 1.818.017 3.522 1.39 3.892 3.194.284 1.389-.289 2.856-1.346 3.798.849.733 1.416 1.803 1.427 2.979v4.025s-.155.978-1 1h-2.999c-.854-.023-1.417-1.4-.454-1.891.093-.047.194-.08.298-.096.051-.009.104-.011.156-.013h1.999c0-1.013.016-2.025 0-3.038-.023-1.03-.93-1.957-2.002-1.961 0 0-.195-.045-.412-.162-.254-.131-.532-.355-.577-.714-.003-.023-.005-.046-.006-.068-.001-.019-.002-.039-.002-.058.002-.506.424-.956.951-.996.037-.001.037-.001.075-.001.019 0 .037.001.056.001zm-16.672 1.009c-.694-.597-1.197-1.421-1.352-2.352-.373-2.251 1.48-4.633 3.92-4.656.035-.001.035 0 .071 0 .503.035.94.466.954.972.016.579-.523.987-1.153 1.033-.75.062-1.435.57-1.708 1.261-.468 1.188.448 2.728 1.865 2.732h.001c.016 0 .032.001.048.001.09.007.176.029.256.062.15.049.326.138.458.294.183.22.234.505.18.776-.015.273-.138.534-.402.705-.103.067-.217.114-.337.14-.33.07-.688.048-1.008.188-.707.309-1.197 1.05-1.199 1.835v2.997h1.999c.004.001.96.211.999.948.028.537-.436 1.037-.999 1.052h-2.999c-.17-.005-.217-.02-.309-.049-.402-.131-.677-.451-.691-.951 0-1.35-.012-2.7.001-4.05.018-1.131.564-2.199 1.405-2.938zm9.572-8.008c-1.94.018-3.645 2.23-2.681 4.144.791 1.57 3.113 2.115 4.562 1.008 1.242-.95 1.475-2.983.392-4.169-.572-.627-1.427-.986-2.273-.983z"/></svg>