<svg clip-rule="evenodd" fill-rule="evenodd" height="512" stroke-linejoin="round" stroke-miterlimit="2" viewBox="0 0 24 24" width="512" xmlns="http://www.w3.org/2000/svg"><g id="Icon"><path d="m15.15 12c0-1.739-1.412-3.15-3.15-3.15-1.739 0-3.15 1.411-3.15 3.15s1.411 3.15 3.15 3.15c1.738 0 3.15-1.411 3.15-3.15zm-1.5 0c0 .911-.739 1.65-1.65 1.65s-1.65-.739-1.65-1.65.739-1.65 1.65-1.65 1.65.739 1.65 1.65z"/><path d="m14.4 12.75h3.6c.414 0 .75-.336.75-.75s-.336-.75-.75-.75h-3.6c-.414 0-.75.336-.75.75s.336.75.75.75z"/><path d="m13.455 9.949 1.112-3.424c.128-.393-.088-.817-.482-.945-.393-.127-.817.088-.945.482l-1.112 3.424c-.127.394.088.817.482.945s.817-.088.945-.482z"/><path d="m10.499 9.982-2.913-2.115c-.335-.243-.804-.169-1.047.166-.244.335-.169.805.166 1.048l2.913 2.115c.335.243.804.169 1.048-.166.243-.335.168-.805-.167-1.048z"/><path d="m9.618 12.804-2.913 2.115c-.335.243-.41.713-.166 1.048.243.335.712.409 1.047.166l2.913-2.115c.335-.243.41-.713.167-1.048-.244-.335-.713-.409-1.048-.166z"/><path d="m12.028 14.514 1.112 3.424c.128.394.552.609.945.482.394-.128.61-.552.482-.945l-1.112-3.424c-.128-.394-.551-.61-.945-.482s-.609.551-.482.945z"/><path d="m18.75 12c0-3.725-3.025-6.75-6.75-6.75s-6.75 3.025-6.75 6.75 3.025 6.75 6.75 6.75 6.75-3.025 6.75-6.75zm-1.5 0c0 2.898-2.352 5.25-5.25 5.25s-5.25-2.352-5.25-5.25 2.352-5.25 5.25-5.25 5.25 2.352 5.25 5.25z"/><path d="m22.75 12c0-5.933-4.817-10.75-10.75-10.75s-10.75 4.817-10.75 10.75 4.817 10.75 10.75 10.75 10.75-4.817 10.75-10.75zm-1.5 0c0 5.105-4.145 9.25-9.25 9.25s-9.25-4.145-9.25-9.25 4.145-9.25 9.25-9.25 9.25 4.145 9.25 9.25z"/></g></svg>