<svg clip-rule="evenodd" fill-rule="evenodd" stroke-linejoin="round" stroke-miterlimit="1.414" viewBox="0 0 32 32" xmlns="http://www.w3.org/2000/svg" xmlns:serif="http://www.serif.com/"><path id="like-thumbs-love-good" d="m0 0h32v32h-32z" fill="none"/><path d="m12.181 24v1c-.007.21-.025.244-.057.335-.122.342-.443.606-.807.656-.06.008-.075.007-.136.009h-6c-.209-.007-.244-.026-.334-.058-.343-.121-.606-.442-.656-.806-.008-.06-.007-.075-.009-.136v-12c.007-.209.025-.244.057-.334.122-.343.443-.606.806-.656.061-.008.076-.007.136-.01h6c.023.001.046.002.069.003.208.021.242.042.33.08.354.154.588.525.601.917v1h.382l3.724-7.447s.383-.537.894-.552c.435 0 .87-.002 1.305 0 1.828.02 3.418 1.968 2.785 3.891l-1.141 3.425c-.086.232-.145.297-.256.404-.485.466-1.448.264-1.653-.442-.04-.135-.05-.279-.03-.419.008-.059.024-.118.041-.176.383-1.147.787-2.288 1.148-3.443.172-.566-.292-1.233-.909-1.24h-.672l-3.723 7.447c-.16.296-.45.507-.779.546-.051.006-.064.005-.116.006h-1v6h3s.072.002.157.012c.418.084.376.12.55.281l1.707 1.707c1.977 0 3.954.033 5.93 0 .448-.013.855-.358.941-.798.494-2.68.925-5.373 1.345-8.066.081-.559-.384-1.13-.967-1.136h-1.663s-.71-.099-.924-.617c-.249-.6.217-1.355.924-1.383 1.178 0 2.41-.11 3.331.515.927.628 1.439 1.802 1.277 2.919-.421 2.697-.898 5.385-1.346 8.078-.238 1.377-1.504 2.48-2.938 2.488h-6.324c-.211-.008-.419-.068-.588-.191-.056-.041-.068-.055-.119-.102l-1.707-1.707zm-6-10v10h4v-10c-1.333 0-2.666 0-4 0z" fill-rule="nonzero"/></svg>