<svg clip-rule="evenodd" fill-rule="evenodd" height="512" stroke-linejoin="round" stroke-miterlimit="2" viewBox="0 0 24 24" width="512" xmlns="http://www.w3.org/2000/svg"><g id="Icon"><path d="m22.75 13v-9c0-.729-.29-1.429-.805-1.945-.516-.515-1.216-.805-1.945-.805-3.832 0-12.168 0-16 0-.729 0-1.429.29-1.945.805-.515.516-.805 1.216-.805 1.945v14c0 .729.29 1.429.805 1.945.516.515 1.216.805 1.945.805h6c.414 0 .75-.336.75-.75s-.336-.75-.75-.75h-6c-.332 0-.649-.132-.884-.366-.234-.235-.366-.552-.366-.884v-14c0-.332.132-.649.366-.884.235-.234.552-.366.884-.366h16c.332 0 .649.132.884.366.234.235.366.552.366.884v9c0 .414.336.75.75.75s.75-.336.75-.75z"/><path d="m2 7.75h20c.414 0 .75-.336.75-.75s-.336-.75-.75-.75h-20c-.414 0-.75.336-.75.75s.336.75.75.75z"/><path d="m8.5 5.25h1c.414 0 .75-.336.75-.75s-.336-.75-.75-.75h-1c-.414 0-.75.336-.75.75s.336.75.75.75z"/><path d="m5 5.25h1c.414 0 .75-.336.75-.75s-.336-.75-.75-.75h-1c-.414 0-.75.336-.75.75s.336.75.75.75z"/><path d="m15.529 10.25c-2.913 0-5.279 2.366-5.279 5.279 0 2.914 2.366 5.28 5.279 5.28 2.914 0 5.28-2.366 5.28-5.28 0-2.913-2.366-5.279-5.28-5.279zm0 1.5c2.086 0 3.78 1.693 3.78 3.779s-1.694 3.78-3.78 3.78-3.779-1.694-3.779-3.78 1.693-3.779 3.779-3.779z"/><path d="m22.53 21.47-3.235-3.236c-.293-.292-.768-.292-1.061 0-.292.293-.292.768 0 1.061l3.236 3.235c.292.293.768.293 1.06 0 .293-.292.293-.768 0-1.06z"/></g></svg>