<svg viewBox="0 0 32 32" xmlns="http://www.w3.org/2000/svg"><g id="messenger_message_fb_facebook" data-name="messenger message fb facebook"><path d="m16 3c-7.17 0-13 5.38-13 12a11.26 11.26 0 0 0 2.17 6.63 1 1 0 1 0 1.63-1.17 9.23 9.23 0 0 1 -1.8-5.46c0-5.51 4.93-10 11-10s11 4.49 11 10-4.93 10-11 10a11.92 11.92 0 0 1 -3.36-.48 1 1 0 0 0 -.88.16l-1.76 1.32v-2.08a1 1 0 0 0 -2 0v4.08a1 1 0 0 0 .55.89 1 1 0 0 0 1-.09l3-2.23a13.66 13.66 0 0 0 3.45.43c7.17 0 13-5.38 13-12s-5.83-12-13-12z"/><path d="m8.45 19.89 5.35-2.67 1.79 1.78a2 2 0 0 0 2.82 0l6.3-6.29a1 1 0 0 0 -1.16-1.6l-5.35 2.67-1.79-1.78a2 2 0 0 0 -2.82 0l-6.3 6.29a1 1 0 0 0 .71 1.71.93.93 0 0 0 .45-.11zm6.55-6.48 2.29 2.3a.62.62 0 0 0 .17.11.51.51 0 0 0 .16.09h.17a.68.68 0 0 0 .2 0 1 1 0 0 0 .17 0 .56.56 0 0 0 .21-.06l.49-.24-1.86 1.98-2.29-2.3a1.22 1.22 0 0 0 -.19-.12.71.71 0 0 0 -.15-.08h-.18a.65.65 0 0 0 -.19-.09 1 1 0 0 0 -.17 0 .56.56 0 0 0 -.21.06l-.49.24z"/></g></svg>