<svg clip-rule="evenodd" fill-rule="evenodd" height="512" stroke-linejoin="round" stroke-miterlimit="2" viewBox="0 0 24 24" width="512" xmlns="http://www.w3.org/2000/svg"><g id="Icon"><path d="m2 12.75h20c.414 0 .75-.336.75-.75s-.336-.75-.75-.75h-20c-.414 0-.75.336-.75.75s.336.75.75.75z"/><path d="m9 1.25h-5c-1.518 0-2.75 1.232-2.75 2.75v5c0 .414.336.75.75.75s.75-.336.75-.75v-5c0-.69.56-1.25 1.25-1.25h5c.414 0 .75-.336.75-.75s-.336-.75-.75-.75z"/><path d="m22.75 9v-5c0-1.518-1.232-2.75-2.75-2.75h-5c-.414 0-.75.336-.75.75s.336.75.75.75h5c.69 0 1.25.56 1.25 1.25v5c0 .414.336.75.75.75s.75-.336.75-.75z"/><path d="m15 22.75h5c1.518 0 2.75-1.232 2.75-2.75v-5c0-.414-.336-.75-.75-.75s-.75.336-.75.75v5c0 .69-.56 1.25-1.25 1.25h-5c-.414 0-.75.336-.75.75s.336.75.75.75z"/><path d="m1.25 15v5c0 1.518 1.232 2.75 2.75 2.75h5c.414 0 .75-.336.75-.75s-.336-.75-.75-.75h-5c-.69 0-1.25-.56-1.25-1.25v-5c0-.414-.336-.75-.75-.75s-.75.336-.75.75z"/><path d="m9 8.75h6c.414 0 .75-.336.75-.75s-.336-.75-.75-.75h-6c-.414 0-.75.336-.75.75s.336.75.75.75z"/><path d="m9 16.75h6c.414 0 .75-.336.75-.75s-.336-.75-.75-.75h-6c-.414 0-.75.336-.75.75s.336.75.75.75z"/></g></svg>