<svg clip-rule="evenodd" fill-rule="evenodd" height="512" stroke-linejoin="round" stroke-miterlimit="2" viewBox="0 0 24 24" width="512" xmlns="http://www.w3.org/2000/svg"><g id="Icon"><path d="m12 12.5c-1.242 0-2.25 1.008-2.25 2.25s1.008 2.25 2.25 2.25 2.25-1.008 2.25-2.25-1.008-2.25-2.25-2.25zm0 1.5c.414 0 .75.336.75.75s-.336.75-.75.75-.75-.336-.75-.75.336-.75.75-.75z"/><path d="m11.25 16.25v2.5c0 .414.336.75.75.75s.75-.336.75-.75v-2.5c0-.414-.336-.75-.75-.75s-.75.336-.75.75z"/><path d="m20.118 12c0-1.519-1.231-2.75-2.75-2.75-2.816 0-7.92 0-10.736 0-1.519 0-2.75 1.231-2.75 2.75v8c0 1.519 1.231 2.75 2.75 2.75h10.736c1.519 0 2.75-1.231 2.75-2.75zm-1.5 0v8c0 .69-.559 1.25-1.25 1.25-2.816 0-7.92 0-10.736 0-.691 0-1.25-.56-1.25-1.25v-8c0-.69.559-1.25 1.25-1.25h10.736c.691 0 1.25.56 1.25 1.25z"/><path d="m12 1.25c-1.525 0-2.988.606-4.066 1.684s-1.684 2.541-1.684 4.066v3c0 .414.336.75.75.75h10c.414 0 .75-.336.75-.75v-3c0-1.525-.606-2.988-1.684-4.066s-2.541-1.684-4.066-1.684zm0 1.5c1.127 0 2.208.448 3.005 1.245s1.245 1.878 1.245 3.005v2.25h-8.5v-2.25c0-1.127.448-2.208 1.245-3.005s1.878-1.245 3.005-1.245z"/></g></svg>