<svg clip-rule="evenodd" fill-rule="evenodd" height="512" stroke-linejoin="round" stroke-miterlimit="2" viewBox="0 0 24 24" width="512" xmlns="http://www.w3.org/2000/svg"><g id="Icon"><path d="m19.647 9.494c.17-.132.275-.331.288-.545.013-.215-.066-.425-.218-.577l-4.089-4.089c-.152-.152-.362-.231-.577-.218-.214.013-.413.118-.545.288l-2.862 3.68c-.232.298-.206.723.062.99l3.271 3.271c.267.268.692.294.99.062zm-1.592-.662-2.486 1.933s-2.334-2.334-2.334-2.334 1.933-2.486 1.933-2.486z"/><path d="m15.424 11.681c.293-.293.293-.768 0-1.061l-2.044-2.044c-.293-.293-.768-.293-1.061 0l-10.426 10.426c-.857.857-.857 2.246 0 3.103 0 .001.001.002.002.002.857.857 2.246.857 3.103 0zm-1.591-.53-9.896 9.896c-.271.271-.711.271-.982 0 0-.001-.001-.002-.002-.002-.271-.271-.271-.711 0-.982 0 0 9.896-9.896 9.896-9.896z"/><path d="m17.634 8.41c.293.293.768.293 1.061 0l.817-.817c.358-.358.559-.843.559-1.348 0-.506-.201-.991-.559-1.348-.134-.135-.274-.275-.409-.409-.357-.358-.842-.559-1.348-.559-.505 0-.99.201-1.348.559 0 0-.817.817-.817.817-.293.293-.293.768 0 1.061zm.53-1.591-.983-.983s.287-.288.287-.288c.076-.076.18-.119.287-.119.108 0 .212.043.288.119l.409.409c.076.076.119.18.119.288 0 .107-.043.211-.119.287z"/><path d="m16.203 11.885c2.752 2.752 4.316 7.475 4.316 7.475.092.275.333.472.62.507.287.036.569-.097.724-.341 0 0 1.182-1.817.818-4.564-.232-1.748-1.091-3.9-3.373-6.181-.293-.293-.768-.293-1.061 0-.292.292-.292.767 0 1.06 2.871 2.87 3.158 5.467 2.92 7.1-.775-1.754-2.108-4.321-3.903-6.116-.293-.293-.768-.293-1.061 0-.293.292-.293.768 0 1.06z"/><path d="m13.175 6.736c-1.795-1.795-4.362-3.128-6.114-3.903 1.631-.238 4.227.049 7.098 2.92.293.292.768.292 1.06 0 .293-.293.293-.768 0-1.061-2.281-2.282-4.433-3.141-6.181-3.373-2.747-.364-4.564.818-4.564.818-.244.155-.377.437-.341.724.035.287.232.528.507.62 0 0 4.723 1.564 7.475 4.316.292.293.768.293 1.06 0 .293-.293.293-.768 0-1.061z"/></g></svg>