<svg clip-rule="evenodd" fill-rule="evenodd" height="512" stroke-linejoin="round" stroke-miterlimit="2" viewBox="0 0 24 24" width="512" xmlns="http://www.w3.org/2000/svg"><g id="Icon"><path d="m12 22.75c3.728 0 6.75-3.023 6.75-6.75v-8c0-3.727-3.022-6.75-6.75-6.75-3.727 0-6.75 3.023-6.75 6.75v8c0 3.727 3.023 6.75 6.75 6.75zm0-1.5c-2.899 0-5.25-2.351-5.25-5.25v-8c0-2.899 2.351-5.25 5.25-5.25 2.9 0 5.25 2.351 5.25 5.25v8c0 2.899-2.35 5.25-5.25 5.25z"/><path d="m12 10.75c.966 0 1.75-.782 1.75-1.75v-3c0-.968-.784-1.75-1.75-1.75s-1.75.782-1.75 1.75v3c0 .968.784 1.75 1.75 1.75zm0-1.5c-.138 0-.25-.112-.25-.25v-3c0-.138.112-.25.25-.25s.25.112.25.25v3c0 .138-.112.25-.25.25z"/><path d="m18 9.25-12 .008c-.414 0-.75.337-.75.75 0 .414.337.75.75.75l12-.008c.414 0 .75-.337.75-.75 0-.414-.337-.75-.75-.75z"/><path d="m11.25 2v3c0 .414.336.75.75.75s.75-.336.75-.75v-3c0-.414-.336-.75-.75-.75s-.75.336-.75.75z"/></g></svg>