<svg clip-rule="evenodd" fill-rule="evenodd" height="512" stroke-linejoin="round" stroke-miterlimit="2" viewBox="0 0 24 24" width="512" xmlns="http://www.w3.org/2000/svg"><g id="Icon"><path d="m16.5 11.75h3.5c.729 0 1.429-.29 1.945-.805.515-.516.805-1.216.805-1.945 0-1.488 0-3.512 0-5 0-.729-.29-1.429-.805-1.945-.516-.515-1.216-.805-1.945-.805-2.444 0-6.556 0-9 0-.729 0-1.429.29-1.945.805-.515.516-.805 1.216-.805 1.945v5c0 .729.29 1.429.805 1.945.516.515 1.216.805 1.945.805.414 0 .75-.336.75-.75s-.336-.75-.75-.75c-.332 0-.649-.132-.884-.366-.234-.235-.366-.552-.366-.884v-5c0-.332.132-.649.366-.884.235-.234.552-.366.884-.366h9c.332 0 .649.132.884.366.234.235.366.552.366.884v5c0 .332-.132.649-.366.884-.235.234-.552.366-.884.366h-3.5c-.414 0-.75.336-.75.75s.336.75.75.75z"/><path d="m2.651 13.372s1.667-2.917 2.848-4.984c.579-1.013 1.656-1.638 2.822-1.638h.679c.414 0 .75-.336.75-.75s-.336-.75-.75-.75h-.679c-1.704 0-3.278.913-4.124 2.393-1.182 2.068-2.848 4.985-2.848 4.985-.206.359-.081.818.279 1.023.359.206.818.081 1.023-.279z"/><path d="m3.259 22.704s4.463-1.644 7.271-2.679c1.611-.593 2.935-1.779 3.703-3.315l2.859-5.717c.49-.98.298-2.164-.477-2.939-.001 0-.001-.001-.002-.002-.549-.549-1.313-.827-2.087-.759s-1.479.474-1.924 1.111l-1.022 1.46c-.608.869-1.602 1.386-2.663 1.386-.751 0-1.417 0-1.417 0-.414 0-.75.336-.75.75s.336.75.75.75h1.417c1.55 0 3.003-.756 3.892-2.026l1.022-1.46c.191-.273.493-.448.825-.477.333-.029.661.09.896.326l.002.002c.319.318.398.805.196 1.207 0 0-2.858 5.717-2.858 5.717-.597 1.195-1.628 2.117-2.881 2.579-2.808 1.034-7.27 2.678-7.27 2.678-.389.143-.588.575-.445.963.143.389.575.588.963.445z"/></g></svg>