<svg clip-rule="evenodd" fill-rule="evenodd" height="512" stroke-linejoin="round" stroke-miterlimit="2" viewBox="0 0 24 24" width="512" xmlns="http://www.w3.org/2000/svg"><g id="Icon"><path d="m16.75 14c0-2.622-2.128-4.75-4.75-4.75s-4.75 2.128-4.75 4.75 2.128 4.75 4.75 4.75 4.75-2.128 4.75-4.75zm-1.5 0c0 1.794-1.456 3.25-3.25 3.25s-3.25-1.456-3.25-3.25 1.456-3.25 3.25-3.25 3.25 1.456 3.25 3.25z"/><path d="m9.5 13.25h-3c-.414 0-.75.336-.75.75s.336.75.75.75h3c.414 0 .75-.336.75-.75s-.336-.75-.75-.75z"/><path d="m11.25 16.5v3c0 .414.336.75.75.75s.75-.336.75-.75v-3c0-.414-.336-.75-.75-.75s-.75.336-.75.75z"/><path d="m17.5 13.25h-3c-.414 0-.75.336-.75.75s.336.75.75.75h3c.414 0 .75-.336.75-.75s-.336-.75-.75-.75z"/><path d="m11.25 8.5v3c0 .414.336.75.75.75s.75-.336.75-.75v-3c0-.414-.336-.75-.75-.75s-.75.336-.75.75z"/><path d="m3.25 4v16.5c0 1.243 1.007 2.25 2.25 2.25h12.5c.729 0 1.429-.29 1.945-.805.515-.516.805-1.216.805-1.945 0-3.716 0-11.432 0-12.793 0-.331-.132-.649-.366-.884-.731-.731-3.976-3.976-4.707-4.707-.235-.234-.553-.366-.884-.366h-8.793c-.729 0-1.429.29-1.945.805-.515.516-.805 1.216-.805 1.945zm11.439-1.25 4.561 4.561v12.689c0 .332-.132.649-.366.884-.235.234-.552.366-.884.366h-12.5c-.414 0-.75-.336-.75-.75v-16.5c0-.332.132-.649.366-.884.235-.234.552-.366.884-.366z"/><path d="m14.25 2v4c0 .464.184.909.513 1.237.328.329.773.513 1.237.513h4c.414 0 .75-.336.75-.75s-.336-.75-.75-.75h-4c-.066 0-.13-.026-.177-.073s-.073-.111-.073-.177v-4c0-.414-.336-.75-.75-.75s-.75.336-.75.75z"/></g></svg>