<svg clip-rule="evenodd" fill-rule="evenodd" height="512" stroke-linejoin="round" stroke-miterlimit="2" viewBox="0 0 24 24" width="512" xmlns="http://www.w3.org/2000/svg"><g id="Icon"><path d="m2.75 7.5v-2.5c0-1.243 1.007-2.25 2.25-2.25h2.5c.414 0 .75-.336.75-.75s-.336-.75-.75-.75h-2.5c-2.071 0-3.75 1.679-3.75 3.75v2.5c0 .414.336.75.75.75s.75-.336.75-.75z"/><path d="m6.25 9.2v-1.7c0-.69.56-1.25 1.25-1.25h1.7c.414 0 .75-.336.75-.75s-.336-.75-.75-.75h-1.7c-1.519 0-2.75 1.231-2.75 2.75v1.7c0 .414.336.75.75.75s.75-.336.75-.75z"/><path d="m4.75 14.8v1.7c0 1.519 1.231 2.75 2.75 2.75h1.7c.414 0 .75-.336.75-.75s-.336-.75-.75-.75h-1.7c-.69 0-1.25-.56-1.25-1.25v-1.7c0-.414-.336-.75-.75-.75s-.75.336-.75.75z"/><path d="m19.25 9.2v-1.7c0-1.519-1.231-2.75-2.75-2.75h-1.7c-.414 0-.75.336-.75.75s.336.75.75.75h1.7c.69 0 1.25.56 1.25 1.25v1.7c0 .414.336.75.75.75s.75-.336.75-.75z"/><path d="m17.75 14.8v1.7c0 .69-.56 1.25-1.25 1.25h-1.7c-.414 0-.75.336-.75.75s.336.75.75.75h1.7c1.519 0 2.75-1.231 2.75-2.75v-1.7c0-.414-.336-.75-.75-.75s-.75.336-.75.75z"/><path d="m1.25 16.5v2.5c0 2.071 1.679 3.75 3.75 3.75h2.5c.414 0 .75-.336.75-.75s-.336-.75-.75-.75h-2.5c-1.243 0-2.25-1.007-2.25-2.25v-2.5c0-.414-.336-.75-.75-.75s-.75.336-.75.75z"/><path d="m22.75 7.5v-2.5c0-2.071-1.679-3.75-3.75-3.75-1.287 0-2.5 0-2.5 0-.414 0-.75.336-.75.75s.336.75.75.75h2.5c1.243 0 2.25 1.007 2.25 2.25v2.5c0 .414.336.75.75.75s.75-.336.75-.75z"/><path d="m21.25 16.5v2.5c0 1.243-1.007 2.25-2.25 2.25h-2.5c-.414 0-.75.336-.75.75s.336.75.75.75h2.5c2.071 0 3.75-1.679 3.75-3.75 0-1.287 0-2.5 0-2.5 0-.414-.336-.75-.75-.75s-.75.336-.75.75z"/><path d="m22 11.25h-20c-.414 0-.75.336-.75.75s.336.75.75.75h20c.414 0 .75-.336.75-.75s-.336-.75-.75-.75z"/></g></svg>