<svg clip-rule="evenodd" fill-rule="evenodd" height="512" stroke-linejoin="round" stroke-miterlimit="2" viewBox="0 0 24 24" width="512" xmlns="http://www.w3.org/2000/svg"><g id="Icon"><path d="m2.487 16.533 3.928-3.888c.294-.291.297-.766.006-1.061-.292-.294-.767-.296-1.061-.005l-3.928 3.888c-.294.291-.297.766-.006 1.061.292.294.767.296 1.061.005z"/><path d="m8.487 22.533 3.928-3.888c.294-.291.297-.766.006-1.061-.292-.294-.767-.296-1.061-.005l-3.928 3.888c-.294.291-.297.766-.006 1.061.292.294.767.296 1.061.005z"/><path d="m4.487 18.533 3.928-3.888c.294-.291.297-.766.006-1.061-.292-.294-.767-.296-1.061-.005l-3.928 3.888c-.294.291-.297.766-.006 1.061.292.294.767.296 1.061.005z"/><path d="m6.487 20.533 3.928-3.888c.294-.291.297-.766.006-1.061-.292-.294-.767-.296-1.061-.005l-3.928 3.888c-.294.291-.297.766-.006 1.061.292.294.767.296 1.061.005z"/><path d="m14.238 10.349-.586-.586c-.684-.685-1.791-.685-2.475 0 0 0-1.177 1.176-1.177 1.176l-.592-.592c-.778-.776-2.038-.776-2.816 0l-1.122 1.123c-.293.292-.293.767 0 1.06l6 6c.293.293.767.293 1.06 0l1.122-1.122c.778-.776.778-2.038 0-2.816 0 0-.591-.592-.591-.592s1.176-1.177 1.176-1.177c.685-.684.685-1.79 0-2.474zm-1.646.474.585.586c.097.098.097.256 0 .354 0 0-1.707 1.707-1.707 1.707-.293.292-.293.767 0 1.06l1.122 1.122c.192.192.192.504 0 .695l-.592.592s-4.939-4.939-4.939-4.939.591-.591.591-.591c.192-.192.504-.192.696 0 0 0 1.122 1.121 1.122 1.121.293.293.767.293 1.06 0l1.707-1.707c.098-.098.257-.098.355 0z"/><path d="m14.03 11.03 8.5-8.5c.293-.292.293-.768 0-1.06-.292-.293-.768-.293-1.06 0l-8.5 8.5c-.293.292-.293.768 0 1.06.292.293.768.293 1.06 0z"/></g></svg>