<svg clip-rule="evenodd" fill-rule="evenodd" height="512" stroke-linejoin="round" stroke-miterlimit="2" viewBox="0 0 24 24" width="512" xmlns="http://www.w3.org/2000/svg"><g id="Icon"><circle cx="9.375" cy="7.5" r=".75"/><circle cx="14.625" cy="7.5" r=".75"/><path d="m12 1.25c-3.449 0-6.25 2.801-6.25 6.25s2.801 6.25 6.25 6.25 6.25-2.801 6.25-6.25-2.801-6.25-6.25-6.25zm0 1.5c2.622 0 4.75 2.128 4.75 4.75s-2.128 4.75-4.75 4.75-4.75-2.128-4.75-4.75 2.128-4.75 4.75-4.75z"/><path d="m12.75 8c0-1.242 1.008-2.25 2.25-2.25.576 0 1.102.217 1.5.573.308.277.783.25 1.059-.058s.25-.783-.059-1.059c-.663-.594-1.54-.956-2.5-.956-2.07 0-3.75 1.68-3.75 3.75 0 .414.336.75.75.75s.75-.336.75-.75z"/><path d="m12.75 8c0-2.07-1.68-3.75-3.75-3.75-.96 0-1.837.362-2.5.956-.309.276-.335.751-.059 1.059s.751.335 1.059.058c.398-.356.924-.573 1.5-.573 1.242 0 2.25 1.008 2.25 2.25 0 .414.336.75.75.75s.75-.336.75-.75z"/><path d="m11.25 8v1.5c0 .414.336.75.75.75s.75-.336.75-.75v-1.5c0-.414-.336-.75-.75-.75s-.75.336-.75.75z"/><path d="m5.75 7.5v11.5c0 .966.783 1.75 1.75 1.75h2c4.832 0 8.75-3.918 8.75-8.75v-4.5c0-.414-.336-.75-.75-.75s-.75.336-.75.75v4.5c0 4.004-3.246 7.25-7.25 7.25h-2c-.138 0-.25-.112-.25-.25v-11.5c0-.414-.336-.75-.75-.75s-.75.336-.75.75z"/><path d="m7.187 20.474c3.431-.883 6.048-3.795 6.495-7.381.052-.411-.24-.786-.651-.837s-.786.24-.837.651c-.371 2.971-2.538 5.383-5.381 6.115-.401.103-.643.512-.539.913.103.401.512.642.913.539z"/><path d="m5 22.75h14c.414 0 .75-.336.75-.75s-.336-.75-.75-.75h-14c-.414 0-.75.336-.75.75s.336.75.75.75z"/><path d="m11.75 22v-2c0-.414-.336-.75-.75-.75s-.75.336-.75.75v2c0 .414.336.75.75.75s.75-.336.75-.75z"/><path d="m14.75 22v-3c0-.414-.336-.75-.75-.75s-.75.336-.75.75v3c0 .414.336.75.75.75s.75-.336.75-.75z"/></g></svg>