<svg clip-rule="evenodd" fill-rule="evenodd" height="512" stroke-linejoin="round" stroke-miterlimit="2" viewBox="0 0 24 24" width="512" xmlns="http://www.w3.org/2000/svg"><g id="Icon"><path d="m3.484 7.319c1.058 1.059 2.777 1.059 3.835 0 1.059-1.058 1.059-2.777 0-3.835-1.058-1.059-2.777-1.059-3.835 0-1.059 1.058-1.059 2.777 0 3.835zm1.06-1.06c-.473-.473-.473-1.242 0-1.715s1.242-.473 1.715 0 .473 1.242 0 1.715-1.242.473-1.715 0z"/><path d="m6.619 11.842c1.571 1.572 5.339 5.339 6.911 6.911.328.328.773.513 1.237.513s.909-.185 1.238-.513c.766-.766 1.982-1.982 2.748-2.748.328-.329.513-.774.513-1.238s-.185-.909-.513-1.237c-1.572-1.572-5.339-5.34-6.911-6.911-.328-.328-.773-.513-1.237-.513s-.91.185-1.238.513c-.766.766-1.982 1.982-2.748 2.748-.328.328-.513.774-.513 1.238s.185.909.513 1.237zm7.971 5.85-6.91-6.911c-.047-.046-.074-.11-.074-.176 0-.067.027-.13.074-.177l2.748-2.748c.047-.047.11-.074.177-.074.066 0 .13.027.176.074l6.911 6.91c.047.047.074.111.074.177 0 .067-.027.13-.074.177-.766.766-1.982 1.982-2.748 2.748-.047.047-.11.074-.177.074-.066 0-.13-.027-.177-.074z"/><path d="m1.763 19.473c.766.767 1.982 1.982 2.748 2.749.328.328.773.512 1.237.512s.91-.184 1.238-.512l3.442-3.442c.328-.328.512-.774.512-1.238s-.184-.909-.512-1.237c-.766-.767-1.982-1.982-2.748-2.749-.329-.328-.774-.512-1.238-.512s-.909.184-1.237.512c-.921.921-2.522 2.522-3.442 3.443-.329.328-.513.773-.513 1.237s.184.909.513 1.237zm1.06-1.06c-.047-.047-.073-.111-.073-.177s.026-.13.073-.177l3.442-3.442c.047-.047.111-.073.177-.073s.13.026.177.073l2.748 2.748c.047.047.073.111.073.177 0 .067-.026.13-.073.177l-3.442 3.442c-.047.047-.11.073-.177.073-.066 0-.13-.026-.176-.073z"/><path d="m19.473 1.763c-.328-.329-.773-.513-1.237-.513s-.909.184-1.237.513c-.921.92-2.522 2.521-3.443 3.442-.328.328-.512.773-.512 1.237s.184.909.512 1.238c.767.766 1.982 1.982 2.749 2.748.328.328.773.512 1.237.512s.91-.184 1.238-.512c.921-.921 2.521-2.521 3.442-3.442.328-.328.512-.774.512-1.238s-.184-.909-.512-1.237c-.767-.766-1.982-1.982-2.749-2.748zm-1.06 1.06 2.748 2.749c.047.046.073.11.073.176 0 .067-.026.13-.073.177l-3.442 3.442c-.047.047-.11.073-.177.073-.066 0-.13-.026-.177-.073-.766-.766-1.982-1.982-2.748-2.748-.047-.047-.073-.111-.073-.177s.026-.13.073-.177l3.442-3.442c.047-.047.111-.073.177-.073s.13.026.177.073z"/><path d="m16.318 17.379 2.152 2.151c.292.293.768.293 1.06 0 .293-.292.293-.768 0-1.06l-2.151-2.152c-.293-.293-.768-.293-1.061 0s-.293.768 0 1.061z"/><path d="m6.259 7.319 1.734 1.735c.293.292.768.292 1.061 0 .292-.293.292-.768 0-1.061l-1.735-1.734c-.292-.293-.768-.293-1.06 0-.293.292-.293.768 0 1.06z"/><path d="m9.054 15.991 1.387-1.387c.293-.293.293-.768 0-1.061-.292-.293-.768-.293-1.06 0l-1.388 1.388c-.293.292-.293.768 0 1.06.293.293.768.293 1.061 0z"/><path d="m14.931 7.993-1.388 1.388c-.293.292-.293.768 0 1.06.293.293.768.293 1.061 0l1.387-1.387c.293-.293.293-.768 0-1.061-.292-.293-.768-.293-1.06 0z"/><path d="m4.197 20.848 4.857-4.857c.292-.292.292-.768 0-1.06-.293-.293-.768-.293-1.061 0l-4.856 4.856c-.293.293-.293.768 0 1.061.292.292.768.292 1.06 0z"/><path d="m19.787 3.137-4.856 4.856c-.293.293-.293.768 0 1.061.292.292.768.292 1.06 0l4.857-4.857c.292-.292.292-.768 0-1.06-.293-.293-.768-.293-1.061 0z"/><path d="m3.484 16.338 4.162 4.163c.293.292.768.292 1.061 0 .293-.293.293-.768 0-1.061l-4.163-4.162c-.292-.293-.768-.293-1.06 0-.293.292-.293.767 0 1.06z"/><path d="m15.278 4.544 4.162 4.163c.293.293.768.293 1.061 0 .292-.293.292-.768 0-1.061l-4.163-4.162c-.293-.293-.768-.293-1.06 0-.293.292-.293.768 0 1.06z"/></g></svg>