<svg clip-rule="evenodd" fill-rule="evenodd" height="512" stroke-linejoin="round" stroke-miterlimit="2" viewBox="0 0 24 24" width="512" xmlns="http://www.w3.org/2000/svg"><g id="Icon"><path d="m19 11.734h3c.414 0 .75-.336.75-.75s-.336-.75-.75-.75h-3c-.414 0-.75.336-.75.75s.336.75.75.75z"/><path d="m2 11.734h3c.414 0 .75-.336.75-.75s-.336-.75-.75-.75h-3c-.414 0-.75.336-.75.75s.336.75.75.75z"/><path d="m11.25 19.484v2.5c0 .414.336.75.75.75s.75-.336.75-.75v-2.5c0-.414-.336-.75-.75-.75s-.75.336-.75.75z"/><path d="m8 6.234h8c.414 0 .75-.336.75-.75s-.336-.75-.75-.75h-8c-.414 0-.75.336-.75.75s.336.75.75.75z"/><path d="m15 6.234c.414 0 .75-.335.75-.75v-1.484c0-1.528-1.238-2.766-2.766-2.766h-1.968c-1.528 0-2.766 1.238-2.766 2.766v1.484c0 .415.336.75.75.75zm-.75-1.5h-4.5v-.734c0-.699.566-1.266 1.266-1.266h1.968c.7 0 1.266.567 1.266 1.266z"/><path d="m9.184 4.734c-.318 0-.602.201-.708.5-.129.367-.226 1.338-.226 1.75 0 2.072 1.68 3.75 3.75 3.75 2.071 0 3.75-1.678 3.75-3.75 0-.412-.097-1.383-.226-1.75-.106-.299-.39-.5-.707-.5zm.613 1.5h4.405c.032.277.048.581.048.75 0 1.243-1.008 2.25-2.25 2.25s-2.25-1.007-2.25-2.25c0-.169.016-.473.047-.75z"/><path d="m19.75 11.984v-2c0-.966-.784-1.75-1.75-1.75h-3.778c-.212 0-.414.09-.557.248-.412.456-1.001.752-1.665.752s-1.253-.296-1.665-.752c-.143-.158-.345-.248-.557-.248h-3.778c-.966 0-1.75.784-1.75 1.75v2c0 .967.783 1.75 1.75 1.75h1.25v4.974c0 .538.247 1.046.671 1.378.423.332.975.45 1.497.322 0 0 2.522-.621 2.522-.621.039-.01.08-.01.119 0l2.523.621c.522.128 1.074.01 1.498-.322.423-.332.67-.84.67-1.378v-4.974h1.25c.967 0 1.75-.783 1.75-1.75zm-1.5-2v2c0 .138-.112.25-.25.25h-2c-.414 0-.75.336-.75.75v5.724c0 .077-.035.15-.096.197-.06.048-.139.065-.214.046l-2.522-.62c-.275-.068-.562-.068-.837 0l-2.521.62c-.075.019-.154.002-.214-.046-.061-.047-.096-.12-.096-.197v-5.724c0-.414-.336-.75-.75-.75h-2c-.138 0-.25-.112-.25-.25v-2c0-.138.112-.25.25-.25h3.466c.667.618 1.553 1 2.534 1s1.867-.382 2.535-1c-.001 0 3.465 0 3.465 0 .138 0 .25.112.25.25z"/></g></svg>