<svg clip-rule="evenodd" fill-rule="evenodd" height="512" stroke-linejoin="round" stroke-miterlimit="2" viewBox="0 0 24 24" width="512" xmlns="http://www.w3.org/2000/svg"><g id="Icon"><path d="m12 1.25c-5.933 0-10.75 4.817-10.75 10.75s4.817 10.75 10.75 10.75 10.75-4.817 10.75-10.75-4.817-10.75-10.75-10.75zm0 1.5c5.105 0 9.25 4.145 9.25 9.25s-4.145 9.25-9.25 9.25-9.25-4.145-9.25-9.25 4.145-9.25 9.25-9.25z"/><path d="m19.601 18.541-14.142-14.142c-.292-.293-.768-.293-1.06 0-.293.292-.293.768 0 1.06l14.142 14.142c.292.293.768.293 1.06 0 .293-.292.293-.768 0-1.06z"/><path d="m17.897 15.5v-.75c0-.37-.121-.723-.321-.985-.262-.344-.63-.515-1-.515-1.801 0-7.342 0-9.143 0-.37 0-.738.171-1 .515-.2.262-.321.615-.321.985v.75c0 .569.181 1.113.488 1.515.37.485.882.735 1.405.735h7.999c.523 0 1.036-.25 1.405-.735.307-.402.488-.946.488-1.515zm-10.285-.75h8.785v.75c0 .226-.059.446-.181.606-.06.078-.127.144-.212.144h-7.999c-.084 0-.152-.066-.212-.144-.122-.16-.181-.38-.181-.606z"/><path d="m16.5 14.75c.414 0 .75-.336.75-.75v-2.6c0-.414-.336-.75-.75-.75h-9c-.414 0-.75.336-.75.75v2.6c0 .414.336.75.75.75zm-.75-1.5h-7.5v-1.1h7.5z"/><path d="m17.897 10.85v-.55c0-1.078-.442-2.112-1.234-2.874-.781-.752-1.84-1.176-2.945-1.176-1.103 0-2.325 0-3.428 0-1.105 0-2.163.424-2.945 1.176-.791.762-1.234 1.796-1.234 2.874v.55c0 .348.142.683.398.929.245.236.577.371.924.371h9.143c.347 0 .678-.135.924-.371.256-.246.397-.581.397-.929zm-1.5-.2h-8.786v-.35c0-.673.28-1.317.775-1.793.504-.486 1.19-.757 1.904-.757h3.428c.714 0 1.4.271 1.905.757.494.476.774 1.12.774 1.793z"/></g></svg>