<svg clip-rule="evenodd" fill-rule="evenodd" height="512" stroke-linejoin="round" stroke-miterlimit="2" viewBox="0 0 24 24" width="512" xmlns="http://www.w3.org/2000/svg"><g id="Icon"><path d="m12.75 8v-6c0-.414-.336-.75-.75-.75s-.75.336-.75.75v6c0 .414.336.75.75.75s.75-.336.75-.75z"/><path d="m12.336 1.329c-.233-.116-.509-.104-.73.033s-.356.378-.356.638v4c0 .26.135.501.356.638s.497.149.73.033l4-2c.254-.127.414-.387.414-.671s-.16-.544-.414-.671zm.414 1.885 1.573.786s-1.573.786-1.573.786z"/><path d="m12 15.25c-1.518 0-2.75 1.232-2.75 2.75v4c0 .414.336.75.75.75h4c.415 0 .75-.336.75-.75v-4c0-1.518-1.232-2.75-2.75-2.75zm0 1.5c.69 0 1.25.56 1.25 1.25v3.25h-2.5v-3.25c0-.69.56-1.25 1.25-1.25z"/><path d="m17 22.75c.209 0 .407-.087.549-.239s.214-.357.199-.564l-.867-12.144c-.103-1.438-1.3-2.553-2.743-2.553h-4.276c-1.442 0-2.64 1.115-2.743 2.553l-.867 12.144c-.015.207.058.412.2.564.141.152.34.239.548.239zm-.805-1.5h-8.389s.809-11.339.809-11.339c.047-.654.592-1.161 1.247-1.161h4.276c.656 0 1.2.507 1.247 1.161z"/><path d="m1.25 14v7c0 .968.784 1.75 1.75 1.75h4c.394 0 .72-.304.748-.697l.714-10c.015-.207-.057-.412-.199-.564s-.34-.239-.549-.239h-3.714c-1.518 0-2.75 1.232-2.75 2.75zm1.5 0c0-.69.56-1.25 1.25-1.25h2.909s-.607 8.5-.607 8.5h-3.302c-.138 0-.25-.112-.25-.25z"/><path d="m16.286 11.25c-.208 0-.407.087-.549.239s-.214.357-.199.564l.714 10c.028.393.355.697.748.697h4c.968 0 1.75-.782 1.75-1.75v-7c0-1.518-1.231-2.75-2.75-2.75zm.805 1.5h2.909c.691 0 1.25.56 1.25 1.25v7c0 .138-.112.25-.25.25h-3.302z"/></g></svg>