<svg clip-rule="evenodd" fill-rule="evenodd" stroke-linejoin="round" stroke-miterlimit="1.414" viewBox="0 0 32 32" xmlns="http://www.w3.org/2000/svg" xmlns:serif="http://www.serif.com/"><path id="review-notes-pencil-pen" d="m0 0h32v32h-32z" fill="none"/><path d="m22.589 11.999-3.294-3.294c-.121-.127-.146-.176-.192-.27-.166-.342-.116-.778.128-1.074.027-.032.035-.04.064-.07l2.001-2.001c.207-.197.485-.304.778-.29.238.023.462.125.636.29l4.001 4.001c.121.127.146.176.192.27.166.342.116.779-.128 1.074-.027.033-.035.04-.064.071l-2.001 2-14.002 14.002c-.155.144-.345.248-.551.281-.069.011-.086.009-.156.012h-4.001c-.533-.022-.978-.46-1-1v-4.001c.008-.211.068-.419.191-.588.041-.056.055-.068.102-.119l10.998-10.998c.3-.277.304-.292.749-.292.269.022.34.062.47.14.474.282.629.982.302 1.44-.042.06-.057.072-.106.126l-10.706 10.706v2.586h2.587zm-.586 15.002h-8.002c-.229-.006-.304-.037-.433-.099-.608-.292-.756-1.284-.145-1.717.168-.119.373-.178.578-.184h8.002c.018 0 .037.001.056.001.229.02.302.054.428.124.576.318.681 1.274.095 1.691-.168.119-.374.178-.579.184zm-.586-19.003 2.586 2.586.586-.586-2.586-2.586c-.196.195-.391.391-.586.586z" fill-rule="nonzero"/></svg>