<svg clip-rule="evenodd" fill-rule="evenodd" height="512" stroke-linejoin="round" stroke-miterlimit="2" viewBox="0 0 24 24" width="512" xmlns="http://www.w3.org/2000/svg"><g id="Icon"><path d="m21.5 21.25h-9c-.414 0-.75.336-.75.75s.336.75.75.75h9c.414 0 .75-.336.75-.75s-.336-.75-.75-.75z"/><path d="m14.25 20v-2c0-.414-.336-.75-.75-.75s-.75.336-.75.75v2c0 .414.336.75.75.75s.75-.336.75-.75z"/><path d="m17.75 20v-4c0-.414-.336-.75-.75-.75s-.75.336-.75.75v4c0 .414.336.75.75.75s.75-.336.75-.75z"/><path d="m21.25 20v-6c0-.414-.336-.75-.75-.75s-.75.336-.75.75v6c0 .414.336.75.75.75s.75-.336.75-.75z"/><path d="m7.53 1.751-.039-.001c-.027 0-.054.002-.08.005-3.469.416-6.161 3.371-6.161 6.95 0 3.864 3.137 7 7 7 3.579 0 6.534-2.692 6.95-6.16.026-.213-.041-.427-.184-.587-.142-.161-.346-.253-.561-.253h-6.205v-6.205c0-.214-.092-.419-.252-.561-.131-.116-.296-.181-.468-.188zm-.78 1.662v5.292c0 .829.672 1.5 1.5 1.5h5.293c-.654 2.308-2.777 4-5.293 4-3.036 0-5.5-2.464-5.5-5.5 0-2.515 1.692-4.639 4-5.292zm2.839-2.158c-.213-.025-.426.042-.587.184-.16.142-.252.347-.252.561v5.455c0 .199.079.39.22.531.14.14.331.219.53.219h5.455c.215 0 .419-.091.561-.252.143-.16.21-.374.184-.587-.382-3.193-2.918-5.728-6.111-6.111zm.661 1.658c1.831.518 3.275 1.962 3.793 3.793 0-.001-3.793-.001-3.793-.001z"/><path d="m17 9.75h1.625s1.275 1.7 1.275 1.7c.248.331.719.398 1.05.15s.398-.719.15-1.05l-1.5-2c-.142-.189-.364-.3-.6-.3h-2c-.414 0-.75.336-.75.75s.336.75.75.75z"/></g></svg>