<svg clip-rule="evenodd" fill-rule="evenodd" height="512" stroke-linejoin="round" stroke-miterlimit="2" viewBox="0 0 24 24" width="512" xmlns="http://www.w3.org/2000/svg"><g id="Icon"><path d="m22.75 4.5c0-.729-.29-1.429-.805-1.945-.516-.515-1.216-.805-1.945-.805-3.271 0-12.729 0-16 0-.729 0-1.429.29-1.945.805-.515.516-.805 1.216-.805 1.945v11c0 .729.29 1.429.805 1.945.516.515 1.216.805 1.945.805h4.625s2.775 3.7 2.775 3.7c.142.189.364.3.6.3s.458-.111.6-.3l2.775-3.7h4.625c.729 0 1.429-.29 1.945-.805.515-.516.805-1.216.805-1.945 0-2.444 0-8.556 0-11zm-1.5 0v11c0 .332-.132.649-.366.884-.235.234-.552.366-.884.366h-5c-.236 0-.458.111-.6.3l-2.4 3.2s-2.4-3.2-2.4-3.2c-.142-.189-.364-.3-.6-.3h-5c-.332 0-.649-.132-.884-.366-.234-.235-.366-.552-.366-.884 0-2.444 0-8.556 0-11 0-.332.132-.649.366-.884.235-.234.552-.366.884-.366h16c.332 0 .649.132.884.366.234.235.366.552.366.884z"/><path d="m16.875 10.063v3.293c0 .414.336.75.75.75s.75-.336.75-.75v-5c0-.304-.183-.577-.463-.693s-.603-.052-.817.162l-1 1c-.293.293-.293.768 0 1.061.211.211.516.27.78.177z"/><path d="m8.636 6.794-.403 1.242h-1.305c-.565 0-1.065.363-1.239.9-.175.536.016 1.124.473 1.456l1.056.767-.403 1.242c-.175.536.016 1.124.473 1.456.456.332 1.074.332 1.531 0l1.056-.767 1.056.767c.457.332 1.075.332 1.531 0 .457-.332.648-.92.473-1.456l-.403-1.242 1.056-.767c.457-.332.648-.92.473-1.456-.174-.537-.674-.9-1.239-.9h-1.305l-.403-1.242c-.175-.536-.675-.9-1.239-.9s-1.064.364-1.239.9zm1.239 1.042.384 1.181c.1.309.388.519.713.519h1.243l-1.005.73c-.263.191-.373.53-.273.839l.384 1.181-1.005-.73c-.263-.191-.619-.191-.882 0l-1.005.73.384-1.181c.1-.309-.01-.648-.273-.839l-1.005-.73h1.243c.325 0 .613-.21.713-.519z"/></g></svg>