<svg clip-rule="evenodd" fill-rule="evenodd" height="512" stroke-linejoin="round" stroke-miterlimit="2" viewBox="0 0 24 24" width="512" xmlns="http://www.w3.org/2000/svg"><g id="Icon"><path d="m16.462 21.815 5.256-2.366c.628-.282 1.032-.907 1.032-1.596v-13.806c0-.594-.301-1.148-.8-1.47-.498-.322-1.127-.37-1.668-.126l-4.436 1.996c-.326.147-.699.147-1.026 0l-5.025-2.262c-.718-.323-1.539-.323-2.257 0l-5.256 2.366c-.628.282-1.032.907-1.032 1.596v13.806c0 .594.301 1.148.8 1.47.498.322 1.127.37 1.668.126l4.436-1.996c.326-.147.699-.147 1.026 0l5.025 2.262c.718.323 1.539.323 2.257 0zm4.641-3.734-5.257 2.366c-.326.147-.699.147-1.026 0l-5.025-2.262c-.718-.323-1.539-.323-2.257 0 0 0-4.435 1.996-4.435 1.996-.078.035-.168.028-.239-.018s-.114-.125-.114-.21v-13.806c0-.099.058-.188.147-.228 0 0 5.257-2.366 5.257-2.366.326-.147.699-.147 1.026 0l5.025 2.262c.718.323 1.539.323 2.257 0 0 0 4.435-1.996 4.435-1.996.078-.035.168-.028.239.018s.114.125.114.21v13.806c0 .099-.058.188-.147.228z"/><path d="m6.97 12.97-2 2c-.293.292-.293.768 0 1.06.292.293.768.293 1.06 0l2-2c.293-.292.293-.768 0-1.06-.292-.293-.768-.293-1.06 0z"/><path d="m17.97 7.47-2 2c-.293.292-.293.768 0 1.06.292.293.768.293 1.06 0l2-2c.293-.292.293-.768 0-1.06-.292-.293-.768-.293-1.06 0z"/><path d="m4.97 14.03 2 2c.292.293.768.293 1.06 0 .293-.292.293-.768 0-1.06l-2-2c-.292-.293-.768-.293-1.06 0-.293.292-.293.768 0 1.06z"/><path d="m15.97 8.53 2 2c.292.293.768.293 1.06 0 .293-.292.293-.768 0-1.06l-2-2c-.292-.293-.768-.293-1.06 0-.293.292-.293.768 0 1.06z"/><path d="m7.25 11.5v-1.5c0-.414-.336-.75-.75-.75s-.75.336-.75.75v1.5c0 .414.336.75.75.75s.75-.336.75-.75z"/><path d="m7.417 8.376c.216-.374.62-.626 1.083-.626.414 0 .75-.336.75-.75s-.336-.75-.75-.75c-1.018 0-1.906.553-2.382 1.374-.207.359-.084.818.274 1.025s.818.085 1.025-.273z"/><path d="m10.313 7.789c.539.139.937.629.937 1.211 0 .414.336.75.75.75s.75-.336.75-.75c0-1.281-.877-2.358-2.063-2.663-.401-.103-.81.138-.913.539-.104.401.138.81.539.913z"/><path d="m11.25 11v2c0 .414.336.75.75.75s.75-.336.75-.75c0-.646 0-1.354 0-2 0-.414-.336-.75-.75-.75s-.75.336-.75.75z"/><path d="m11.25 15c0 1.018.553 1.906 1.374 2.382.359.207.818.084 1.025-.274s.085-.818-.273-1.025c-.374-.216-.626-.62-.626-1.083 0-.414-.336-.75-.75-.75s-.75.336-.75.75z"/><path d="m15.5 17.75c1.018 0 1.906-.553 2.382-1.374.207-.359.084-.818-.274-1.025s-.818-.085-1.025.273c-.216.374-.62.626-1.083.626-.414 0-.75.336-.75.75s.336.75.75.75z"/><path d="m18.25 14v-2c0-.414-.336-.75-.75-.75s-.75.336-.75.75v2c0 .414.336.75.75.75s.75-.336.75-.75z"/></g></svg>