<svg clip-rule="evenodd" fill-rule="evenodd" height="512" stroke-linejoin="round" stroke-miterlimit="2" viewBox="0 0 24 24" width="512" xmlns="http://www.w3.org/2000/svg"><g id="Icon"><path d="m14.75 21.761v-18.523c0-.58-.288-1.123-.769-1.449-.481-.325-1.092-.391-1.631-.175l-8 3.2c-.664.265-1.1.909-1.1 1.625v15.322c0 .415.336.75.75.75h10c.414 0 .75-.335.75-.75zm-1.5-18.523v17.773h-8.5v-14.572c0-.103.062-.195.157-.233l8-3.2c.077-.03.164-.021.233.025.069.047.11.125.11.207z"/><path d="m20.75 21.761v-13c0-.966-.784-1.75-1.75-1.75-1.707 0-5 0-5 0-.414 0-.75.336-.75.75v14c0 .415.336.75.75.75h6c.414 0 .75-.335.75-.75zm-1.5-13v12.25h-4.5v-12.499l4.25-.001c.138 0 .25.112.25.25z"/><path d="m22 21.011h-20c-.414 0-.75.337-.75.75 0 .414.336.75.75.75h20c.414 0 .75-.336.75-.75 0-.413-.336-.75-.75-.75z"/><path d="m7 9.011h4c.414 0 .75-.336.75-.75 0-.413-.336-.75-.75-.75h-4c-.414 0-.75.337-.75.75 0 .414.336.75.75.75z"/><path d="m7 12.511h4c.414 0 .75-.336.75-.75 0-.413-.336-.75-.75-.75h-4c-.414 0-.75.337-.75.75 0 .414.336.75.75.75z"/><path d="m7 16.011h4c.414 0 .75-.336.75-.75 0-.413-.336-.75-.75-.75h-4c-.414 0-.75.337-.75.75 0 .414.336.75.75.75z"/><path d="m7 19.511h4c.414 0 .75-.336.75-.75 0-.413-.336-.75-.75-.75h-4c-.414 0-.75.337-.75.75 0 .414.336.75.75.75z"/></g></svg>