<svg clip-rule="evenodd" fill-rule="evenodd" height="512" stroke-linejoin="round" stroke-miterlimit="2" viewBox="0 0 24 24" width="512" xmlns="http://www.w3.org/2000/svg"><g id="Icon"><path d="m7.251 22.707s3.912-1.393 7.132-3.666c2.288-1.615 4.185-3.694 4.365-5.982.127-1.618-.006-2.915-.09-3.965-.043-.542-.075-1.009-.033-1.416.031-.294.099-.548.271-.763.451-.566 1.408-.872 3.227-1.175.409-.068.685-.455.617-.863-.068-.409-.455-.685-.863-.617-2.001.334-3.146.786-3.801 1.354-.72.624-.962 1.395-.97 2.421-.009 1.163.317 2.732.146 4.906-.148 1.898-1.837 3.535-3.734 4.874-3.056 2.158-6.769 3.478-6.769 3.478-.39.139-.594.568-.456.958.139.39.568.594.958.456z"/><path d="m1.979 14.75s3.409.089 6.137-1.029c2.01-.823 3.634-2.28 3.634-4.721 0-6.303 7.25-6.25 7.25-6.25.414 0 .75-.336.75-.75s-.336-.75-.75-.75c0 0-8.75.053-8.75 7.75 0 1.758-1.255 2.74-2.702 3.333-2.456 1.007-5.527.917-5.527.917-.414-.011-.759.316-.771.729-.011.414.316.759.729.771z"/><path d="m2.335 20.618c.352-.176.767-.176 1.118 0l.212.106c.774.387 1.685.387 2.459 0 .37-.186.521-.636.336-1.007-.185-.37-.636-.52-1.007-.335-.351.176-.766.176-1.118 0l-.211-.106c-.774-.387-1.685-.387-2.459 0-.371.186-.521.636-.336 1.007.185.37.636.52 1.006.335z"/><path d="m2.835 16.854c.352-.176.767-.176 1.118 0l.212.106c.774.387 1.685.387 2.459 0 .37-.185.521-.636.336-1.007-.185-.37-.636-.52-1.007-.335-.351.176-.766.176-1.118 0l-.211-.106c-.774-.387-1.685-.387-2.459 0-.371.186-.521.636-.336 1.007.185.37.636.52 1.006.335z"/><path d="m10.835 15.382c.352-.176.767-.176 1.118 0l.212.106c.774.387 1.685.387 2.459 0 .37-.186.521-.636.336-1.007-.185-.37-.636-.52-1.007-.335-.351.176-.766.176-1.118 0l-.211-.106c-.774-.387-1.685-.387-2.459 0-.371.185-.521.636-.336 1.007.185.37.636.52 1.006.335z"/><path d="m12.835 12.618c.352-.176.767-.176 1.118 0l.212.106c.774.387 1.685.387 2.459 0 .37-.186.521-.636.336-1.007-.185-.37-.636-.52-1.007-.335-.351.176-.766.176-1.118 0l-.211-.106c-.774-.387-1.685-.387-2.459 0-.371.186-.521.636-.336 1.007.185.37.636.52 1.006.335z"/><path d="m8.335 18.118c.352-.176.767-.176 1.118 0l.212.106c.774.387 1.685.387 2.459 0 .37-.186.521-.636.336-1.007-.185-.37-.636-.52-1.007-.335-.351.176-.766.176-1.118 0l-.211-.106c-.774-.387-1.685-.387-2.459 0-.371.186-.521.636-.336 1.007.185.37.636.52 1.006.335z"/></g></svg>