<svg clip-rule="evenodd" fill-rule="evenodd" height="512" stroke-linejoin="round" stroke-miterlimit="2" viewBox="0 0 24 24" width="512" xmlns="http://www.w3.org/2000/svg"><g id="Icon"><path d="m14.75 9c0-2.622-2.128-4.75-4.75-4.75s-4.75 2.128-4.75 4.75 2.128 4.75 4.75 4.75 4.75-2.128 4.75-4.75zm-1.5 0c0 1.794-1.456 3.25-3.25 3.25s-3.25-1.456-3.25-3.25 1.456-3.25 3.25-3.25 3.25 1.456 3.25 3.25z"/><path d="m12.25 9c0-1.741-.411-3.243-.953-3.993-.378-.522-.843-.757-1.297-.757s-.919.235-1.297.757c-.542.75-.953 2.252-.953 3.993s.411 3.243.953 3.993c.378.522.843.757 1.297.757s.919-.235 1.297-.757c.542-.75.953-2.252.953-3.993zm-2.25-3.195c.063.074.161.197.218.309.333.65.532 1.703.532 2.886s-.199 2.236-.532 2.886c-.057.112-.155.235-.218.309-.063-.074-.161-.197-.218-.309-.333-.65-.532-1.703-.532-2.886s.199-2.236.532-2.886c.057-.112.155-.235.218-.309z"/><path d="m14 8.25h-8c-.414 0-.75.336-.75.75s.336.75.75.75h8c.414 0 .75-.336.75-.75s-.336-.75-.75-.75z"/><path d="m16 22.75c.729 0 1.429-.29 1.945-.805.515-.516.805-1.216.805-1.945 0-3.832 0-12.168 0-16 0-.729-.29-1.429-.805-1.945-.516-.515-1.216-.805-1.945-.805-3.743 0-11.432 0-11.432 0-.875 0-1.713.332-2.331.917-.634.6-.987 1.415-.987 2.263v15.748c0 1.409 1.187 2.572 2.676 2.572zm0-1.5h-12.074c-.638 0-1.176-.468-1.176-1.072v-15.748c0-.441.188-.862.518-1.174.344-.326.813-.506 1.3-.506h11.432c.332 0 .649.132.884.366.234.235.366.552.366.884v16c0 .332-.132.649-.366.884-.235.234-.552.366-.884.366z"/><path d="m18.414 20.152c.54-.358.956-.906 1.136-1.58l3.106-11.591c.189-.705.09-1.455-.274-2.087-.365-.631-.966-1.092-1.67-1.281-.732-.196-1.61-.431-2.518-.675-.4-.107-.811.131-.918.531-.108.4.13.811.53.918l2.518.675c.32.086.593.295.759.582.165.287.21.628.124.949 0 0-3.105 11.591-3.105 11.591-.083.306-.271.555-.516.718-.345.228-.44.694-.211 1.039s.694.44 1.039.211z"/><path d="m7.75 16.75h4.5c.414 0 .75-.336.75-.75s-.336-.75-.75-.75h-4.5c-.414 0-.75.336-.75.75s.336.75.75.75z"/><path d="m6 19.75h8c.414 0 .75-.336.75-.75s-.336-.75-.75-.75h-8c-.414 0-.75.336-.75.75s.336.75.75.75z"/></g></svg>