<svg clip-rule="evenodd" fill-rule="evenodd" stroke-linejoin="round" stroke-miterlimit="1.414" viewBox="0 0 32 32" xmlns="http://www.w3.org/2000/svg" xmlns:serif="http://www.serif.com/"><path id="infuse-heal-water-vitamin" d="m0 0h32v32h-32z" fill="none"/><path d="m12.995 7.006v-1.042c.01-1.541 1.335-2.934 2.93-2.964h.078c1.573.03 2.991 1.386 3.002 3.038v.968h3.005l.078.004c.579.068 1.034.656.896 1.232-.092.383-.428.694-.817.755-.07.011-.087.01-.157.013h-11.018v2.003h7.011l.056.002c.23.019.303.054.429.123.581.321.675 1.282.095 1.694-.168.119-.374.179-.58.184h-7.011v6.476l5.008 3.339 5.008-3.339v-7.477c.01-.257.044-.327.109-.455.282-.553 1.135-.72 1.601-.254.186.186.283.444.294.709v8.013c-.013.331-.174.636-.447.833l-5.563 3.709v3.471c-.018.871-1.404 1.404-1.892.46-.055-.106-.09-.222-.105-.341-.004-.039-.006-.079-.007-.119v-3.471l-5.563-3.709c-.269-.194-.434-.497-.447-.833v-12.02c.01-.241.034-.281.077-.383.15-.363.528-.603.925-.619zm2.003 10.017v-1.002c.004-.163.019-.216.051-.313.136-.414.553-.705 1.011-.687.513.041.93.43.942 1v1.002h1.001c.014 0 .027 0 .04.001.855.051 1.328 1.421.42 1.89-.106.055-.222.091-.34.105-.04.005-.08.006-.12.007h-1.001v1.002c-.016.763-1.046 1.311-1.674.742-.207-.187-.324-.466-.33-.742v-1.002h-1.001c-.77-.015-1.304-1.054-.743-1.674.187-.206.466-.324.743-.329zm2.005-10.017c.001-.326.001-.652-.001-.979-.015-.771-1.094-1.369-1.721-.742-.179.179-.281.428-.283.685v1.036z" fill-rule="nonzero"/></svg>