<svg clip-rule="evenodd" fill-rule="evenodd" height="512" stroke-linejoin="round" stroke-miterlimit="2" viewBox="0 0 24 24" width="512" xmlns="http://www.w3.org/2000/svg"><g id="Icon"><path d="m15.265 3.853-1.101 5.5c-.081.406.183.801.589.882.406.082.801-.182.882-.588l1.1-5.5c.082-.406-.182-.802-.588-.883s-.801.183-.882.589z"/><path d="m19.329 6.664-2.5 5.001c-.185.37-.035.821.335 1.006.371.185.822.035 1.007-.336l2.5-5c.185-.37.035-.821-.336-1.006-.37-.185-.821-.035-1.006.335z"/><path d="m3.572 6.291c-.716.141-1.326.628-1.619 1.312-.124.227-.703 1.38-.703 3.131 0 1.972.81 3.854 2.245 5.21l6.265 5.916c.604.571 1.409.89 2.24.89s1.636-.319 2.24-.891l6.265-5.915c1.435-1.356 2.245-3.238 2.245-5.21 0-1.753-.58-2.906-.708-3.14-.288-.675-.898-1.162-1.613-1.303l-.695-1.043c-.775-1.159-2.036-1.888-3.413-1.987.001 0-.336-.337-.336-.337-.49-.491-1.058-.908-1.693-1.186-2.21-.975-4.65-.441-6.237 1.146 0 0-.377.377-.377.377-1.376.099-2.637.828-3.412 1.987zm.428 1.459c.251 0 .485-.126.624-.334l.89-1.335c.555-.831 1.487-1.331 2.486-1.331.199 0 .39-.079.53-.22l.585-.585c1.163-1.163 2.953-1.549 4.572-.834.001 0 .002.001.003.001.464.203.875.513 1.234.872l.546.546c.14.141.331.22.53.22.999 0 1.931.5 2.486 1.331 0 0 .89 1.335.89 1.335.139.208.373.334.624.334.298 0 .563.183.674.459.014.035.031.069.05.101 0 0 .526.928.526 2.424 0 1.559-.64 3.047-1.775 4.119l-6.265 5.917c-.326.308-.761.48-1.21.48s-.884-.172-1.21-.48l-6.265-5.917c-1.135-1.072-1.775-2.56-1.775-4.119 0-1.496.526-2.424.526-2.424.019-.032.036-.066.05-.101.111-.276.376-.459.674-.459z"/><path d="m7.265 4.147 1 5c.081.406.476.67.882.588.406-.081.67-.476.589-.882l-1.001-5c-.081-.406-.476-.67-.882-.589s-.67.477-.588.883z"/><path d="m3.329 7.335 2.5 5c.185.37.636.521 1.006.335.371-.185.521-.636.336-1.006l-2.5-5c-.185-.37-.636-.52-1.006-.335-.371.185-.521.636-.336 1.006z"/><path d="m14.705 20.975 1.212.52c.849.364 1.825.277 2.597-.232s1.236-1.372 1.236-2.296c0-1.151 0-2.189 0-2.189 0-.414-.336-.75-.75-.75s-.75.336-.75.75v2.189c0 .42-.211.812-.562 1.043-.351.232-.794.271-1.18.106 0 0-1.213-.52-1.213-.52-.38-.163-.821.014-.984.394-.163.381.013.822.394.985z"/><path d="m8.705 19.596-1.213.52c-.386.165-.829.126-1.18-.106-.351-.231-.562-.623-.562-1.043v-2.189c0-.414-.336-.75-.75-.75s-.75.336-.75.75v2.189c0 .924.464 1.787 1.236 2.296s1.748.596 2.597.232l1.213-.52c.38-.163.557-.604.393-.985-.163-.38-.604-.557-.984-.394z"/></g></svg>