<svg clip-rule="evenodd" fill-rule="evenodd" stroke-linejoin="round" stroke-miterlimit="1.414" viewBox="0 0 32 32" xmlns="http://www.w3.org/2000/svg" xmlns:serif="http://www.serif.com/"><path id="add-plus-cart-buy" d="m0 0h32v32h-32z" fill="none"/><path d="m24.044 23.002c1.688.032 3.176 1.682 2.933 3.419-.199 1.416-1.535 2.582-2.972 2.582-1.729 0-3.273-1.745-2.954-3.531.242-1.35 1.495-2.443 2.916-2.47zm-13.485-4.001-5.252-14.004h-1.307s-.964-.209-.999-.952c-.023-.475.34-.94.81-1.03.083-.016.105-.014.189-.018h2.001c.031.001.062.003.093.004.316.045.602.213.762.477.043.071.049.092.081.168l5.758 15.355h12.463l1.667-10.003h-14.823s-.474-.019-.756-.345c-.333-.384-.303-1.027.066-1.379.138-.132.313-.222.501-.258.083-.016.105-.014.189-.018h16.004c.589.028 1.059.551.987 1.164l-2.001 12.003c-.1.468-.499.813-.986.836h-14.004c-.671 0-1.342-.004-2.014 0-.756.015-1.291 1.065-.72 1.681.187.201.458.318.737.32h7.999c.776.024 1.312 1.064.729 1.685-.158.168-.376.278-.604.307-.056.007-.07.006-.125.008h-3.205c.174.443.244.927.175 1.419-.199 1.416-1.535 2.582-2.972 2.582-1.729 0-3.273-1.745-2.954-3.531.036-.202.095-.399.174-.587-1.193-.354-2.155-1.47-2.217-2.735-.08-1.601 1.296-3.138 2.993-3.149zm1.43 6.001c-.766.015-1.312 1.104-.685 1.716.515.503 1.578.215 1.689-.575.079-.566-.378-1.145-1.004-1.141zm12.003 0c-.766.015-1.312 1.104-.685 1.716.514.502 1.578.215 1.689-.575.079-.566-.379-1.145-1.004-1.141zm-6.989-12.003v-1c.004-.163.019-.216.051-.313.136-.413.552-.704 1.009-.685.52.041.93.437.941.998v1h1c.013.001.027.001.04.001.763.046 1.247 1.069.702 1.671-.187.206-.459.323-.742.329h-1v1c-.018.887-1.411 1.383-1.889.459-.073-.14-.108-.297-.112-.459v-1h-1c-.78-.016-1.29-1.066-.741-1.672.186-.206.458-.323.741-.329z" fill-rule="nonzero"/></svg>