<svg clip-rule="evenodd" fill-rule="evenodd" height="512" stroke-linejoin="round" stroke-miterlimit="2" viewBox="0 0 24 24" width="512" xmlns="http://www.w3.org/2000/svg"><g id="Icon"><path d="m5 9.75c.414 0 .75.336.75.75s-.336.75-.75.75h-1.5c-.199 0-.39.079-.53.22-.141.14-.22.331-.22.53v5c0 .199.079.39.22.53.14.141.331.22.53.22h17c.199 0 .39-.079.53-.22.141-.14.22-.331.22-.53v-5c0-.199-.079-.39-.22-.53-.14-.141-.331-.22-.53-.22h-7.5c-.414 0-.75-.336-.75-.75s.336-.75.75-.75h7.5c.597 0 1.169.237 1.591.659s.659.994.659 1.591v5c0 .597-.237 1.169-.659 1.591s-.994.659-1.591.659h-17c-.597 0-1.169-.237-1.591-.659s-.659-.994-.659-1.591v-5c0-.597.237-1.169.659-1.591s.994-.659 1.591-.659z"/><path d="m18.25 18.5c0-.414.336-.75.75-.75s.75.336.75.75v1.5c0 .414-.336.75-.75.75s-.75-.336-.75-.75z"/><path d="m4.25 18.5c0-.414.336-.75.75-.75s.75.336.75.75v1.5c0 .414-.336.75-.75.75s-.75-.336-.75-.75z"/><path d="m9 7.25c2.622 0 4.75 2.128 4.75 4.75s-2.128 4.75-4.75 4.75-4.75-2.128-4.75-4.75 2.128-4.75 4.75-4.75zm0 1.5c-1.794 0-3.25 1.456-3.25 3.25s1.456 3.25 3.25 3.25 3.25-1.456 3.25-3.25-1.456-3.25-3.25-3.25z"/><path d="m9 9.75c1.242 0 2.25 1.008 2.25 2.25s-1.008 2.25-2.25 2.25-2.25-1.008-2.25-2.25 1.008-2.25 2.25-2.25zm0 1.5c-.414 0-.75.336-.75.75s.336.75.75.75.75-.336.75-.75-.336-.75-.75-.75z"/><path d="m19 12.25c.414 0 .75.336.75.75s-.336.75-.75.75h-2c-.414 0-.75-.336-.75-.75s.336-.75.75-.75z"/><path d="m9.75 5.5c0 .414-.336.75-.75.75s-.75-.336-.75-.75v-1.5c0-.414.336-.75.75-.75s.75.336.75.75z"/><path d="m13.53 7.53c-.292.293-.768.293-1.06 0-.293-.292-.293-.768 0-1.06l1.414-1.415c.293-.292.768-.292 1.061 0 .292.293.292.768 0 1.061z"/><path d="m5.53 6.47c.293.292.293.768 0 1.06-.292.293-.768.293-1.06 0l-1.415-1.414c-.292-.293-.292-.768 0-1.061.293-.292.768-.292 1.061 0z"/></g></svg>