<svg clip-rule="evenodd" fill-rule="evenodd" height="512" stroke-linejoin="round" stroke-miterlimit="2" viewBox="0 0 24 24" width="512" xmlns="http://www.w3.org/2000/svg"><g id="Icon"><path d="m12.413 11.606c.006-.045-.021-.087-.063-.101s-.089.003-.111.042c-.373.639-1.089 1.866-1.332 2.282-.017.029-.017.065 0 .094s.048.047.082.047h.776s-.108.868-.178 1.424c-.006.045.021.087.063.101s.089-.003.111-.042c.373-.639 1.089-1.866 1.332-2.282.017-.029.017-.065 0-.094s-.048-.047-.082-.047c-.269 0-.776 0-.776 0s.108-.868.178-1.424z"/><path d="m7.376 20.011c.358.208.48.667.273 1.025s-.667.481-1.025.273c-3.212-1.859-5.374-5.334-5.374-9.309 0-5.933 4.817-10.75 10.75-10.75s10.75 4.817 10.75 10.75-4.817 10.75-10.75 10.75c-.414 0-.75-.336-.75-.75v-5c0-.414.336-.75.75-.75s.75.336.75.75v4.22c4.755-.382 8.5-4.367 8.5-9.22 0-5.105-4.145-9.25-9.25-9.25s-9.25 4.145-9.25 9.25c0 3.421 1.862 6.411 4.626 8.011z"/><path d="m16.25 11v2.502c0 2.346-1.902 4.248-4.248 4.248h-.004c-2.346 0-4.248-1.902-4.248-4.248v-2.502c0-.464.184-.909.513-1.237.328-.329.773-.513 1.237-.513h5c.464 0 .909.184 1.237.513.329.328.513.773.513 1.237zm-1.5 0c0-.066-.026-.13-.073-.177s-.111-.073-.177-.073h-5c-.066 0-.13.026-.177.073s-.073.111-.073.177v2.502c0 1.518 1.23 2.748 2.748 2.748h.004c1.518 0 2.748-1.23 2.748-2.748z"/><path d="m14.75 10c0 .414-.336.75-.75.75s-.75-.336-.75-.75v-3c0-.414.336-.75.75-.75s.75.336.75.75z"/><path d="m10.75 10c0 .414-.336.75-.75.75s-.75-.336-.75-.75v-3c0-.414.336-.75.75-.75s.75.336.75.75z"/></g></svg>