<svg clip-rule="evenodd" fill-rule="evenodd" height="512" stroke-linejoin="round" stroke-miterlimit="2" viewBox="0 0 24 24" width="512" xmlns="http://www.w3.org/2000/svg"><g id="Icon"><path d="m14.278 9.924h-.643c-.637 0-1.154-.517-1.154-1.155 0-.637.517-1.154 1.154-1.154h.643c.414 0 .75-.337.75-.75 0-.414-.336-.75-.75-.75h-.643c-1.466 0-2.654 1.188-2.654 2.654s1.188 2.655 2.654 2.655h.643c.414 0 .75-.336.75-.75s-.336-.75-.75-.75z"/><path d="m16.183 11.424h.643c1.466 0 2.655-1.189 2.655-2.655s-1.189-2.654-2.655-2.654h-.643c-.414 0-.75.336-.75.75 0 .413.336.75.75.75h.643c.638 0 1.155.517 1.155 1.154 0 .638-.517 1.155-1.155 1.155h-.643c-.414 0-.75.336-.75.75s.336.75.75.75z"/><path d="m14.207 9.519h2.048c.413 0 .75-.336.75-.75s-.337-.75-.75-.75h-2.048c-.414 0-.75.336-.75.75s.336.75.75.75z"/><path d="m20.357 3.643c-2.829-2.83-7.423-2.83-10.253 0-2.829 2.829-2.829 7.423 0 10.253 2.83 2.829 7.424 2.829 10.253 0 2.83-2.83 2.83-7.424 0-10.253zm-1.06 1.06c2.244 2.244 2.244 5.888 0 8.132s-5.888 2.244-8.132 0-2.244-5.888 0-8.132 5.888-2.244 8.132 0z"/><path d="m2.326 21.674c1.074 1.074 2.815 1.074 3.889 0 1.463-1.463 4.243-4.243 4.243-4.243.293-.293.293-.767 0-1.06l-2.829-2.829c-.293-.293-.767-.293-1.06 0 0 0-2.78 2.78-4.243 4.243-1.074 1.074-1.074 2.815 0 3.889zm1.061-1.061c-.488-.488-.488-1.279 0-1.767 0 0 3.712-3.713 3.712-3.713s1.768 1.768 1.768 1.768-3.713 3.712-3.713 3.712c-.488.488-1.279.488-1.767 0z"/><path d="m9.044 16.017 2.121-2.121c.293-.293.293-.768 0-1.061s-.768-.293-1.061 0l-2.121 2.121c-.293.293-.293.768 0 1.061s.768.293 1.061 0z"/></g></svg>