<svg clip-rule="evenodd" fill-rule="evenodd" height="512" stroke-linejoin="round" stroke-miterlimit="2" viewBox="0 0 24 24" width="512" xmlns="http://www.w3.org/2000/svg"><g id="Icon"><path d="m22.682 4.125c.177-.62.004-1.288-.453-1.745-.188-.189-.409-.41-.598-.598-.456-.457-1.124-.63-1.745-.452-.502.143-1.262.36-2.017.576-1.767.505-3.337 1.541-4.497 2.968-2.273 2.796-6.204 7.634-7.015 8.631l-.326.452-2.259 3.542c-.449.703-.348 1.623.241 2.213l.287.286c.589.589 1.51.69 2.213.241l3.541-2.259c.157-.1.308-.209.452-.326.997-.81 5.835-4.742 8.632-7.015 1.426-1.16 2.462-2.729 2.967-4.497.216-.755.433-1.515.577-2.017zm-1.443-.412c-.143.502-.36 1.262-.576 2.017-.42 1.472-1.283 2.779-2.471 3.745 0 0-8.632 7.015-8.632 7.015-.1.081-.204.156-.312.225 0 0-3.542 2.26-3.542 2.26-.11.07-.254.054-.346-.038 0 0-.286-.286-.286-.286-.092-.092-.108-.236-.038-.346 0 0 2.26-3.542 2.26-3.542.069-.108.144-.212.225-.312l7.015-8.631c.966-1.189 2.273-2.051 3.746-2.472.754-.216 1.514-.433 2.016-.576.097-.028.201-.001.272.071.189.188.41.409.599.598.071.071.098.175.07.272z"/><path d="m13.063 15.09s3.066 4.697 4.474 6.854c.292.448.772.741 1.304.796.533.056 1.062-.132 1.441-.511l1.046-1.045c.799-.799 1.04-1.998.614-3.044-.993-2.432-3.071-7.525-3.071-7.525-.156-.383-.594-.567-.978-.411-.383.157-.567.595-.411.978 0 0 2.078 5.092 3.071 7.525.198.486.086 1.044-.286 1.416l-1.045 1.046c-.06.059-.142.088-.225.08-.084-.009-.159-.055-.204-.125-1.408-2.157-4.474-6.854-4.474-6.854-.226-.347-.691-.445-1.038-.218-.346.226-.444.691-.218 1.038z"/><path d="m9.128 21.09-1.673-2.227c-.248-.331-.719-.398-1.05-.15-.331.249-.398.72-.149 1.051l1.836 2.444c.219.293.556.476.921.502.365.025.724-.108.983-.367.183-.184.399-.399.585-.586.476-.476.643-1.18.43-1.819-.315-.945-.889-2.667-.889-2.667-.131-.393-.556-.606-.949-.475s-.605.556-.474.949l.889 2.667c.033.1.007.21-.067.284z"/><path d="m2.91 14.872.394-.393c.074-.074.184-.1.284-.067l2.667.889c.393.131.818-.081.949-.474s-.082-.818-.475-.949c0 0-1.722-.574-2.667-.889-.639-.213-1.343-.046-1.819.43-.187.186-.402.402-.586.585-.259.259-.392.618-.367.983.026.365.209.702.502.921l2.444 1.836c.331.249.802.182 1.051-.149.248-.331.181-.802-.15-1.05z"/><path d="m9.744 9.689s-4.708-3.072-6.868-4.482c-.07-.045-.116-.12-.125-.204-.008-.083.021-.165.08-.225l1.046-1.045c.372-.372.93-.484 1.416-.286l7.525 3.071c.383.156.821-.028.978-.411.156-.384-.028-.822-.411-.978 0 0-5.093-2.078-7.525-3.071-1.046-.426-2.245-.185-3.044.614l-1.045 1.046c-.379.379-.567.908-.511 1.441.055.532.348 1.012.796 1.304 2.16 1.41 6.868 4.483 6.868 4.483.346.226.812.128 1.038-.219.226-.346.128-.811-.218-1.038z"/><path d="m16.728 6.576.707.707c.292.293.768.293 1.06 0 .293-.292.293-.768 0-1.06l-.707-.707c-.292-.293-.768-.293-1.06 0-.293.292-.293.768 0 1.06z"/><path d="m21.324 17.183.707-.707c.293-.293.293-.768 0-1.061s-.768-.293-1.061 0l-.707.707c-.293.293-.293.768 0 1.061s.768.293 1.061 0z"/><path d="m7.889 3.748.707-.707c.293-.293.293-.768 0-1.061s-.768-.293-1.061 0l-.707.707c-.293.293-.293.768 0 1.061s.768.293 1.061 0z"/><path d="m19.91 14.354.707-.707c.292-.292.292-.768 0-1.06-.293-.293-.768-.293-1.061 0l-.707.707c-.293.293-.293.768 0 1.06.293.293.768.293 1.061 0z"/><path d="m10.717 5.162.707-.707c.293-.293.293-.768 0-1.061-.292-.292-.768-.292-1.06 0l-.707.707c-.293.293-.293.768 0 1.061.292.293.768.293 1.06 0z"/></g></svg>