<svg clip-rule="evenodd" fill-rule="evenodd" height="512" stroke-linejoin="round" stroke-miterlimit="2" viewBox="0 0 24 24" width="512" xmlns="http://www.w3.org/2000/svg"><g id="Icon"><path d="m1.25 2v20c0 .414.336.75.75.75h20c.414 0 .75-.336.75-.75s-.336-.75-.75-.75h-19.25v-19.25c0-.414-.336-.75-.75-.75s-.75.336-.75.75z"/><path d="m5.54 11.092 4.5 3.5c.171.133.392.186.606.144.213-.042.397-.175.505-.364l3.873-6.778s5.764-2.402 5.764-2.402c.383-.159.564-.598.404-.98-.159-.383-.598-.564-.98-.404l-6 2.5c-.153.063-.281.176-.363.32l-3.571 6.249s-3.818-2.969-3.818-2.969c-.326-.254-.798-.195-1.052.132-.254.326-.195.798.132 1.052z"/><circle cx="6" cy="10.5" r="1.5"/><circle cx="10.5" cy="14" r="1.5"/><circle cx="14.5" cy="7" r="1.5"/><circle cx="20.5" cy="4.5" r="1.5"/><path d="m11.25 22v-1.5c0-.414-.336-.75-.75-.75s-.75.336-.75.75v1.5c0 .414.336.75.75.75s.75-.336.75-.75z"/><path d="m6.75 22v-1.5c0-.414-.336-.75-.75-.75s-.75.336-.75.75v1.5c0 .414.336.75.75.75s.75-.336.75-.75z"/><path d="m15.25 22v-1.5c0-.414-.336-.75-.75-.75s-.75.336-.75.75v1.5c0 .414.336.75.75.75s.75-.336.75-.75z"/><path d="m21.25 22v-1.5c0-.414-.336-.75-.75-.75s-.75.336-.75.75v1.5c0 .414.336.75.75.75s.75-.336.75-.75z"/><path d="m11.25 18.5v-1.5c0-.414-.336-.75-.75-.75s-.75.336-.75.75v1.5c0 .414.336.75.75.75s.75-.336.75-.75z"/><path d="m6.75 18.5v-1.5c0-.414-.336-.75-.75-.75s-.75.336-.75.75v1.5c0 .414.336.75.75.75s.75-.336.75-.75z"/><path d="m15.25 18.5v-1.5c0-.414-.336-.75-.75-.75s-.75.336-.75.75v1.5c0 .414.336.75.75.75s.75-.336.75-.75z"/><path d="m21.25 18.5v-1.5c0-.414-.336-.75-.75-.75s-.75.336-.75.75v1.5c0 .414.336.75.75.75s.75-.336.75-.75z"/><path d="m6.75 15v-1.5c0-.414-.336-.75-.75-.75s-.75.336-.75.75v1.5c0 .414.336.75.75.75s.75-.336.75-.75z"/><path d="m15.25 15v-1.5c0-.414-.336-.75-.75-.75s-.75.336-.75.75v1.5c0 .414.336.75.75.75s.75-.336.75-.75z"/><path d="m21.25 15v-1.5c0-.414-.336-.75-.75-.75s-.75.336-.75.75v1.5c0 .414.336.75.75.75s.75-.336.75-.75z"/><path d="m15.25 11.5v-1.5c0-.414-.336-.75-.75-.75s-.75.336-.75.75v1.5c0 .414.336.75.75.75s.75-.336.75-.75z"/><path d="m21.25 11.5v-1.5c0-.414-.336-.75-.75-.75s-.75.336-.75.75v1.5c0 .414.336.75.75.75s.75-.336.75-.75z"/><path d="m21.25 8v-1.5c0-.414-.336-.75-.75-.75s-.75.336-.75.75v1.5c0 .414.336.75.75.75s.75-.336.75-.75z"/></g></svg>