<svg clip-rule="evenodd" fill-rule="evenodd" height="512" stroke-linejoin="round" stroke-miterlimit="2" viewBox="0 0 24 24" width="512" xmlns="http://www.w3.org/2000/svg"><g id="Icon"><path d="m16.25 5v-1c0-.729-.29-1.429-.805-1.945-.516-.515-1.216-.805-1.945-.805h-8c-.729 0-1.429.29-1.945.805-.515.516-.805 1.216-.805 1.945v16c0 .729.29 1.429.805 1.945.516.515 1.216.805 1.945.805h8c.729 0 1.429-.29 1.945-.805.515-.516.805-1.216.805-1.945v-1c0-.414-.336-.75-.75-.75s-.75.336-.75.75v1c0 .332-.132.649-.366.884-.235.234-.552.366-.884.366h-8c-.332 0-.649-.132-.884-.366-.234-.235-.366-.552-.366-.884v-16c0-.332.132-.649.366-.884.235-.234.552-.366.884-.366h8c.332 0 .649.132.884.366.234.235.366.552.366.884v1c0 .414.336.75.75.75s.75-.336.75-.75z"/><path d="m8.5 5.25h2c.414 0 .75-.336.75-.75s-.336-.75-.75-.75h-2c-.414 0-.75.336-.75.75s.336.75.75.75z"/><path d="m15.75 13c0 .138-.112.25-.25.25h-1c-.414 0-.75.336-.75.75s.336.75.75.75h1c.966 0 1.75-.784 1.75-1.75s-.784-1.75-1.75-1.75c-.138 0-.25-.112-.25-.25s.112-.25.25-.25h1c.414 0 .75-.336.75-.75s-.336-.75-.75-.75h-1c-.966 0-1.75.784-1.75 1.75s.784 1.75 1.75 1.75c.138 0 .25.112.25.25z"/><path d="m16.25 10v-1c0-.414-.336-.75-.75-.75s-.75.336-.75.75v1c0 .414.336.75.75.75s.75-.336.75-.75z"/><path d="m16.25 15v-1c0-.414-.336-.75-.75-.75s-.75.336-.75.75v1c0 .414.336.75.75.75s.75-.336.75-.75z"/><path d="m15.5 6.25c-3.174 0-5.75 2.576-5.75 5.75s2.576 5.75 5.75 5.75 5.75-2.576 5.75-5.75-2.576-5.75-5.75-5.75zm0 1.5c2.346 0 4.25 1.904 4.25 4.25s-1.904 4.25-4.25 4.25-4.25-1.904-4.25-4.25 1.904-4.25 4.25-4.25z"/></g></svg>