<svg clip-rule="evenodd" fill-rule="evenodd" height="512" stroke-linejoin="round" stroke-miterlimit="2" viewBox="0 0 24 24" width="512" xmlns="http://www.w3.org/2000/svg"><g id="Icon"><path d="m19 22.75c.966 0 1.75-.782 1.75-1.75v-18c0-.967-.784-1.75-1.75-1.75h-12c-.966 0-1.75.783-1.75 1.75v18c0 .968.784 1.75 1.75 1.75zm0-1.5h-12c-.138 0-.25-.111-.25-.25v-18c0-.138.112-.25.25-.25h12c.138 0 .25.112.25.25v18c0 .139-.112.25-.25.25z"/><path d="m4 6.75h3c.414 0 .75-.336.75-.75s-.336-.75-.75-.75h-3c-.414 0-.75.336-.75.75s.336.75.75.75z"/><path d="m4 12.75h3c.414 0 .75-.336.75-.75s-.336-.75-.75-.75h-3c-.414 0-.75.336-.75.75s.336.75.75.75z"/><path d="m4 18.75h3c.414 0 .75-.336.75-.75s-.336-.75-.75-.75h-3c-.414 0-.75.336-.75.75s.336.75.75.75z"/><path d="m16 8.75c.966 0 1.75-.782 1.75-1.75v-1c0-.967-.784-1.75-1.75-1.75h-5c-.966 0-1.75.783-1.75 1.75v1c0 .968.784 1.75 1.75 1.75zm0-1.5h-5c-.138 0-.25-.111-.25-.25v-1c0-.138.112-.25.25-.25h5c.138 0 .25.112.25.25v1c0 .139-.112.25-.25.25z"/></g></svg>