<svg clip-rule="evenodd" fill-rule="evenodd" height="512" stroke-linejoin="round" stroke-miterlimit="2" viewBox="0 0 24 24" width="512" xmlns="http://www.w3.org/2000/svg"><g id="Icon"><path d="m11.639 3.778c0-.414-.336-.75-.75-.75-5.324 0-9.639 4.316-9.639 9.639 0 5.322 4.315 9.639 9.639 9.639 2.661 0 5.071-1.079 6.816-2.824.292-.293.292-.767 0-1.06l-6.066-6.066v-8.578zm-1.5.784v8.105c0 .199.079.389.22.53l5.73 5.731c-1.41 1.172-3.223 1.878-5.2 1.878-4.495 0-8.139-3.645-8.139-8.139 0-4.242 3.245-7.727 7.389-8.105z"/><path d="m22 12.083c.414 0 .75-.335.75-.75 0-5.322-4.315-9.639-9.639-9.639-.414 0-.75.336-.75.75v8.889c0 .415.336.75.75.75zm-.784-1.5h-7.355v-7.354c3.897.356 6.999 3.458 7.355 7.354z"/></g></svg>