<svg clip-rule="evenodd" fill-rule="evenodd" height="512" stroke-linejoin="round" stroke-miterlimit="2" viewBox="0 0 24 24" width="512" xmlns="http://www.w3.org/2000/svg"><g id="Icon"><path d="m6 14.75h13c2.07 0 3.75-1.68 3.75-3.75s-1.68-3.75-3.75-3.75c-.026 0-.051 0-.077.001-.481-3.114-3.175-5.501-6.423-5.501-2.527 0-4.718 1.445-5.794 3.553-.23-.035-.466-.053-.706-.053-2.622 0-4.75 2.128-4.75 4.75s2.128 4.75 4.75 4.75zm0-1.5c-1.794 0-3.25-1.456-3.25-3.25s1.456-3.25 3.25-3.25c.322 0 .633.047.927.134.374.111.77-.083.912-.446.727-1.865 2.541-3.188 4.661-3.188 2.714 0 4.927 2.168 4.998 4.865.006.228.116.442.299.579.182.138.417.185.639.127.18-.046.369-.071.564-.071 1.242 0 2.25 1.008 2.25 2.25s-1.008 2.25-2.25 2.25z"/><path d="m3.25 17.25v3.5c0 .414.336.75.75.75s.75-.336.75-.75v-3.5c0-.414-.336-.75-.75-.75s-.75.336-.75.75z"/><path d="m6.75 17.25v3.5c0 .414.336.75.75.75s.75-.336.75-.75v-3.5c0-.414-.336-.75-.75-.75s-.75.336-.75.75z"/><path d="m19.25 17.25v3.5c0 .414.336.75.75.75s.75-.336.75-.75v-3.5c0-.414-.336-.75-.75-.75s-.75.336-.75.75z"/><path d="m15.75 17.25v3.5c0 .414.336.75.75.75s.75-.336.75-.75v-3.5c0-.414-.336-.75-.75-.75s-.75.336-.75.75z"/><path d="m11.847 16.133-1.402 2.5c-.13.233-.127.516.007.746.135.23.381.371.647.371h.521s-.775 1.383-.775 1.383c-.202.361-.074.819.288 1.021.361.203.818.074 1.02-.287l1.402-2.5c.13-.233.127-.516-.007-.746-.135-.23-.381-.371-.647-.371h-.521s.775-1.383.775-1.383c.202-.361.074-.819-.288-1.021-.361-.203-.818-.074-1.02.287z"/></g></svg>