<svg clip-rule="evenodd" fill-rule="evenodd" height="512" stroke-linejoin="round" stroke-miterlimit="2" viewBox="0 0 24 24" width="512" xmlns="http://www.w3.org/2000/svg"><g id="Icon"><path d="m12 1.25c-5.933 0-10.75 4.817-10.75 10.75s4.817 10.75 10.75 10.75 10.75-4.817 10.75-10.75-4.817-10.75-10.75-10.75zm0 1.5c5.105 0 9.25 4.145 9.25 9.25s-4.145 9.25-9.25 9.25-9.25-4.145-9.25-9.25 4.145-9.25 9.25-9.25z"/><path d="m19.601 18.541-14.142-14.142c-.292-.293-.768-.293-1.06 0-.293.292-.293.768 0 1.06l14.142 14.142c.292.293.768.293 1.06 0 .293-.292.293-.768 0-1.06z"/><path d="m6.75 10.5v6.5c0 .597.237 1.169.659 1.591s.994.659 1.591.659h6c.414 0 .75-.336.75-.75s-.336-.75-.75-.75h-6c-.199 0-.39-.079-.53-.22-.141-.14-.22-.331-.22-.53v-6.5c0-.414-.336-.75-.75-.75s-.75.336-.75.75z"/><path d="m7.461 8.249.039.001.032-.004c.144-.02.718-.138.718-.752v-.494c0-.414.336-.75.75-.75h6c.199 0 .39.079.53.22.141.14.22.331.22.53v9.288c0 .414.336.75.75.75s.75-.336.75-.75c0-2.646 0-7.005 0-9.288 0-.597-.237-1.169-.659-1.591s-.994-.659-1.591-.659c-1.665 0-4.335 0-6 0-1.243 0-2.25 1.007-2.25 2.25v.494.006c0 .401.315.729.711.749z"/><path d="m14.5 5.75h-5s.196.471.369.885c.155.372.519.615.923.615h2.416c.404 0 .768-.243.923-.615.173-.414.369-.885.369-.885z"/></g></svg>