<svg clip-rule="evenodd" fill-rule="evenodd" stroke-linejoin="round" stroke-miterlimit="1.414" viewBox="0 0 32 32" xmlns="http://www.w3.org/2000/svg" xmlns:serif="http://www.serif.com/"><path id="hearth-health-healed-heal" d="m0 0h32v32h-32z" fill="none"/><path d="m22.286 3.009c2.157.016 4.241 1.187 5.405 2.992 1.709 2.648 1.557 6.199.614 9.309-.935 3.081-2.656 5.825-5.004 8.173-1.986 1.986-4.218 3.711-6.563 5.265 0 0-.176.128-.352.189-.697.241-1.412-.37-2.128-.869-2.843-1.98-5.557-4.214-7.648-6.949-.604-.79-1.148-1.628-1.583-2.521 0 0-.253-.506-.44-.921-1.069-2.365-1.742-4.922-1.556-7.567.156-2.219 1.06-4.498 2.904-5.844 1.703-1.242 4.022-1.558 6.017-.838 2.335.842 4.092 2.926 5.081 5.232.252.587.082 1.337-.484 1.634-.64.337-1.405-.06-1.735-.811-.895-2.005-2.514-3.857-4.701-4.067-1.739-.167-3.462.874-4.204 2.589-1.243 2.871-.335 6.425 1.202 9.471 1.196 2.517 3.296 4.539 5.494 6.37 1.048.873 2.14 1.69 3.266 2.465l.128.087.216-.147c2.732-1.891 5.373-4.02 7.357-6.647.483-.64.922-1.317 1.272-2.036 0 0 .298-.595.51-1.079 1.06-2.431 1.698-5.18 1.013-7.689-.473-1.729-1.903-3.202-3.66-3.403-.996-.113-2.013.176-2.862.741 0 0-.487.255-.887.175-.918-.184-1.306-1.579-.292-2.227 1.076-.688 2.329-1.08 3.62-1.077zm-7.468 11.815v-1.182c.003-.192.021-.255.059-.369.161-.488.653-.832 1.192-.81.192.015.254.037.366.081.436.173.736.624.746 1.098v1.182h1.181c.016 0 .031 0 .047.001.868.052 1.461 1.219.86 1.938-.221.264-.559.417-.907.424h-1.181v1.181c-.019.913-1.254 1.529-1.975.876-.244-.22-.382-.549-.388-.876v-1.181h-1.182c-.87-.017-1.508-1.16-.936-1.902.22-.286.572-.454.936-.461z" fill-rule="nonzero"/></svg>