<svg clip-rule="evenodd" fill-rule="evenodd" height="512" stroke-linejoin="round" stroke-miterlimit="2" viewBox="0 0 24 24" width="512" xmlns="http://www.w3.org/2000/svg"><g id="Icon"><path d="m12 13.5c.552 0 1 .448 1 1s-.448 1-1 1-1-.448-1-1 .448-1 1-1" fill-rule="nonzero"/><path d="m21 7.75c1.008 0 1.75-.742 1.75-1.55v-2.4c0-.808-.742-1.55-1.75-1.55h-18c-1.008 0-1.75.742-1.75 1.55v2.4c0 .808.742 1.55 1.75 1.55zm.25-3.915v2.33c-.034.019-.158.085-.25.085h-18c-.092 0-.216-.066-.25-.085v-2.33c.034-.019.158-.085.25-.085h18c.092 0 .216.066.25.085z"/><path d="m12 21.75c5.385 0 9.75-4.365 9.75-9.75 0-2.72 0-5 0-5 0-.414-.336-.75-.75-.75h-18c-.414 0-.75.336-.75.75v5c0 5.385 4.365 9.75 9.75 9.75zm0-1.5c-4.556 0-8.25-3.694-8.25-8.25v-4.25h16.5v4.25c0 4.556-3.694 8.25-8.25 8.25z"/><path d="m16.25 14.5c0-2.346-1.904-4.25-4.25-4.25s-4.25 1.904-4.25 4.25 1.904 4.25 4.25 4.25 4.25-1.904 4.25-4.25zm-1.5 0c0 1.518-1.232 2.75-2.75 2.75s-2.75-1.232-2.75-2.75 1.232-2.75 2.75-2.75 2.75 1.232 2.75 2.75z"/></g></svg>