<svg clip-rule="evenodd" fill-rule="evenodd" height="512" stroke-linejoin="round" stroke-miterlimit="2" viewBox="0 0 24 24" width="512" xmlns="http://www.w3.org/2000/svg"><g id="Icon"><path d="m12.247 22v-3.042c0-.414-.336-.75-.75-.75s-.75.336-.75.75v3.042c0 .414.336.75.75.75s.75-.336.75-.75z"/><path d="m15.288 22v-2.028c0-.414-.336-.75-.75-.75-.413 0-.75.336-.75.75v2.028c0 .414.337.75.75.75.414 0 .75-.336.75-.75z"/><path d="m9.205 22v-2.028c0-.414-.336-.75-.75-.75s-.75.336-.75.75v2.028c0 .414.336.75.75.75s.75-.336.75-.75z"/><path d="m18.33 22v-1.352c0-.414-.336-.75-.75-.75s-.75.336-.75.75v1.352c0 .414.336.75.75.75s.75-.336.75-.75z"/><path d="m6.163 22v-1.352c0-.414-.336-.75-.75-.75s-.75.336-.75.75v1.352c0 .414.336.75.75.75s.75-.336.75-.75z"/><path d="m14.975 12.408-.229-.942c-.163-.671-.839-1.083-1.509-.92l-9.375 2.276c-.671.162-1.083.838-.92 1.509l.229.942c.488 2.012 2.516 3.248 4.529 2.759l4.515-1.096c2.013-.488 3.248-2.516 2.76-4.528zm-1.628-.345.17.699c.293 1.207-.448 2.424-1.656 2.717 0 0-4.515 1.096-4.515 1.096-1.208.293-2.424-.448-2.717-1.656l-.17-.699z"/><path d="m13.091 12.125 7.429-1.803c.402-.098.65-.504.552-.906s-.504-.649-.906-.552l-7.429 1.803c-.402.098-.65.504-.552.906s.504.65.906.552z"/><circle cx="7.486" cy="6.329" r="1.014"/><circle cx="10.986" cy="5.273" r="1.014"/><path d="m10.258 8.951c-.034-.128-.016-.264.05-.379s.176-.199.304-.233c.302-.081.69-.185.993-.266.128-.034.264-.016.379.05s.199.175.233.303c.081.303.185.691.266.993.034.128.016.265-.05.38s-.176.198-.304.233c-.302.081-.69.185-.992.266-.129.034-.265.016-.38-.05-.115-.067-.199-.176-.233-.304-.081-.302-.185-.69-.266-.993z"/><path d="m8.242 2.895c.034-.128.016-.264-.05-.379s-.176-.199-.304-.233c-.302-.081-.69-.185-.993-.266-.128-.034-.264-.016-.379.05s-.199.176-.233.304c-.081.302-.185.69-.266.992-.034.129-.016.265.05.38s.176.199.304.233c.302.081.69.185.992.266.129.034.265.016.38-.05s.199-.176.233-.304c.081-.302.185-.69.266-.993z"/><path d="m5.983 9.451c.034-.128.016-.264-.05-.379s-.176-.199-.304-.233c-.302-.081-.69-.185-.992-.266-.129-.034-.265-.016-.38.05s-.199.175-.233.303c-.081.303-.185.691-.266.993-.034.128-.016.265.05.38s.176.198.304.233c.302.081.69.185.993.266.128.034.264.016.379-.05.115-.067.199-.176.233-.304.081-.302.185-.69.266-.993z"/></g></svg>