<svg clip-rule="evenodd" fill-rule="evenodd" height="512" stroke-linejoin="round" stroke-miterlimit="2" viewBox="0 0 24 24" width="512" xmlns="http://www.w3.org/2000/svg"><g id="Icon"><path d="m13.929 7.286c.709 0 1.426.269 1.971.814s.814 1.262.814 1.971c0 .414.336.75.75.75s.75-.336.75-.75c0-1.091-.414-2.193-1.253-3.032-.839-.838-1.941-1.253-3.032-1.253-.414 0-.75.336-.75.75s.336.75.75.75z"/><path d="m13.932 3.75c1.617-.007 3.233.612 4.47 1.848 1.236 1.237 1.855 2.853 1.848 4.47-.002.414.333.751.746.753.414.002.752-.332.754-.746.009-2.003-.756-4.006-2.288-5.537-1.531-1.532-3.534-2.297-5.537-2.288-.414.002-.748.34-.746.754.002.413.339.748.753.746z"/><path d="m12.929 16.583c-2.261-1.399-4.113-3.251-5.513-5.511.47-.564 1.313-1.576 1.795-2.156.391-.469.508-1.111.308-1.69-.484-1.414-.756-2.831-.782-4.249-.008-.952-.789-1.726-1.749-1.727h-3.931c-.93 0-1.697.726-1.748 1.654l-.059 1.096c0 10.348 8.402 18.75 18.75 18.75l1.096-.059c.928-.051 1.654-.818 1.654-1.748 0-1.066 0-2.793-.006-3.899 0-.465-.189-.915-.524-1.243-.333-.325-.782-.504-1.248-.497-1.387.011-2.774-.254-4.16-.786-.59-.229-1.261-.119-1.75.287zm-.624 1.377c.001.001.002.001.002.002.456.273 1.035.228 1.443-.112.514-.427 1.637-1.363 2.271-1.891.07-.058.166-.074.251-.041.001 0 .002.001.003.001 1.569.602 3.139.897 4.709.885h.011c.065-.002.129.024.176.069.046.046.073.109.073.175v.004c.006 1.104.006 2.827.006 3.891 0 .133-.104.243-.236.25l-1.034.057c-9.5-.011-17.212-7.718-17.23-17.217l.057-1.047c.007-.132.117-.236.25-.236h3.93c.137 0 .249.111.25.248v.007c.029 1.57.327 3.139.863 4.709.001.001.001.002.001.003.029.082.012.173-.044.24 0 0 0 .001-.001.001-.523.631-1.474 1.772-1.907 2.291-.34.408-.386.987-.112 1.444.001.001.001.002.002.003 1.568 2.59 3.675 4.697 6.266 6.264z"/></g></svg>