<svg clip-rule="evenodd" fill-rule="evenodd" height="512" stroke-linejoin="round" stroke-miterlimit="2" viewBox="0 0 24 24" width="512" xmlns="http://www.w3.org/2000/svg"><g id="Icon"><circle cx="11.158" cy="9.255" r=".524"/><path d="m4.97 2.044-.007.004c-.203.117-.331.316-.365.532l-.001.004-.003.025-.002.012-.002.024-.001.014v.022l-.001.016.001.02v.019l.002.018.001.02.002.016.003.021.003.015.004.022.003.014.005.023.004.013.006.022.005.014.007.021.005.014.008.02.007.015.008.018.009.016.008.017.01.017s3.243 5.617 4.862 8.421c.702 1.217 2.258 1.634 3.475.931l.001-.001c1.217-.702 1.634-2.258.931-3.475l-3.361-5.823c-1.036-1.793-3.329-2.408-5.123-1.372-.275.158-.504.291-.504.291zm1.396.933 4.484 7.766c.288.499.927.67 1.426.382 0 0 .001-.001.001-.001.499-.288.671-.926.382-1.426 0 0-3.361-5.823-3.361-5.823-.595-1.029-1.88-1.411-2.932-.898z"/><path d="m15.276 10.485c1.706-2.956 4.291-7.432 4.291-7.432.099-.172.126-.377.075-.569-.052-.192-.178-.356-.35-.455-2.209-1.276-4.836-.731-5.889 1.093-.616 1.068-1.335 2.312-2 3.465-.207.358-.084.818.274 1.024.359.207.818.084 1.025-.274.665-1.153 1.384-2.397 2-3.465.576-.997 1.897-1.287 3.155-.857 0 0-3.88 6.72-3.88 6.72-.207.358-.084.817.275 1.024.358.207.817.084 1.024-.274z"/><path d="m9.033 9.524-2.204 1.763c-.167.133-.269.331-.281.544-.011.213.068.421.219.572l2.094 2.094c.27.27.701.294.999.055l2.29-1.832c.324-.259.376-.731.117-1.054-.258-.323-.73-.376-1.054-.117l-1.766 1.413s-1.027-1.027-1.027-1.027 1.55-1.24 1.55-1.24c.323-.258.375-.731.117-1.054-.259-.323-.731-.376-1.054-.117z"/><path d="m14.289 10.888 1.309 1.047s-1.027 1.027-1.027 1.027-1.916-1.533-1.916-1.533c-.323-.259-.795-.206-1.054.117s-.206.796.117 1.054l2.44 1.952c.299.239.729.215.999-.055l2.094-2.094c.151-.151.23-.359.219-.572-.012-.213-.114-.411-.281-.544l-1.963-1.571c-.323-.258-.796-.206-1.054.117-.259.324-.206.796.117 1.055z"/><path d="m9.165 13.99s.05 1.696-.554 3.513c-.386 1.162-1.038 2.383-2.184 3.199-.001.001-.003.002-.004.003-.491.354-1.126.56-1.72.541-.498-.016-.972-.196-1.241-.644-.057-.094-.118-.192-.167-.294-.019-.041-.055-.077-.046-.121.02-.098.088-.179.18-.216 2.038-.823 5.073-2.916 4.616-8.164-.036-.412-.4-.718-.813-.682-.412.036-.718.4-.682.813.37 4.249-2.032 5.976-3.682 6.642-.559.225-.968.716-1.089 1.307-.108.53.133 1.047.397 1.487 1.034 1.722 3.543 1.689 5.125.547 1.419-1.012 2.256-2.506 2.734-3.945.692-2.085.63-4.032.63-4.032-.013-.414-.359-.74-.773-.727s-.739.359-.727.773z"/><path d="m20.756 20.142-.17.395c-.829.752-2.076.828-2.991.168-.001-.001-.003-.002-.004-.003-1.146-.816-1.798-2.037-2.184-3.199-.604-1.817-.554-3.513-.554-3.513.013-.414-.313-.76-.727-.773-.413-.013-.76.313-.773.727 0 0-.062 1.947.63 4.032.478 1.439 1.315 2.933 2.734 3.945 1.522 1.098 3.606.948 4.954-.346.056-.044.12-.115.177-.21.039-.066.241-.415.341-.762.074-.254.092-.51.05-.716-.121-.591-.53-1.082-1.089-1.307-1.65-.666-4.052-2.393-3.682-6.642.036-.413-.27-.777-.682-.813-.413-.036-.777.27-.812.682-.457 5.248 2.577 7.341 4.615 8.164.078.031.138.094.167.171z"/><path d="m14.262 16.25h-4.5c-.414 0-.75.336-.75.75s.336.75.75.75h4.5c.414 0 .75-.336.75-.75s-.336-.75-.75-.75z"/></g></svg>