<svg height="512" viewBox="0 0 32 32" width="512" xmlns="http://www.w3.org/2000/svg"><g id="trello_collaboration_group" data-name="trello, collaboration, group"><path d="m25 2h-18a5 5 0 0 0 -5 5v18a5 5 0 0 0 5 5h13a1 1 0 0 0 0-2h-13a3 3 0 0 1 -3-3v-18a3 3 0 0 1 3-3h18a3 3 0 0 1 3 3v18a3 3 0 0 1 -3 3h-1a1 1 0 0 0 0 2h1a5 5 0 0 0 5-5v-18a5 5 0 0 0 -5-5z"/><path d="m8 6a2 2 0 0 0 -2 2v14a2 2 0 0 0 2 2h5a2 2 0 0 0 2-2v-14a2 2 0 0 0 -2-2zm0 16v-14h5v14z"/><path d="m26 16v-8a2 2 0 0 0 -2-2h-5a2 2 0 0 0 -2 2v8a2 2 0 0 0 2 2h5a2 2 0 0 0 2-2zm-7-8h5v8h-5z"/></g></svg>