<svg clip-rule="evenodd" fill-rule="evenodd" height="512" stroke-linejoin="round" stroke-miterlimit="2" viewBox="0 0 24 24" width="512" xmlns="http://www.w3.org/2000/svg"><g id="Icon"><path d="m5.351 11.611-2.646 2.647c-.82.82-1.228 1.895-1.38 2.993-.21 1.518.072 3.07.272 3.893.001.002.001.005.002.008.157.613.636 1.093 1.25 1.249.002 0 .005.001.007.002.823.2 2.375.482 3.893.272 1.098-.152 2.173-.559 2.993-1.379l2.647-2.647c.488-.488.488-1.28 0-1.768l-5.27-5.27c-.488-.488-1.279-.488-1.768 0zm.884 1.238 4.916 4.916-2.47 2.47c-.582.582-1.358.846-2.138.954-1.296.179-2.62-.071-3.326-.242-.079-.021-.141-.083-.163-.161-.172-.709-.422-2.033-.243-3.329.108-.78.372-1.556.954-2.138z"/><path d="m17.006 1.612-.406.406c-1.464 1.465-1.464 3.839 0 5.304.026.026.052.052.079.078 1.464 1.464 3.838 1.464 5.303 0 .151-.151.29-.29.406-.406.234-.234.366-.552.366-.884 0-.331-.132-.649-.366-.884-.812-.812-2.802-2.802-3.614-3.614-.235-.234-.553-.366-.884-.366-.332 0-.65.132-.884.366zm.884 1.238 3.26 3.26-.229.229c-.879.879-2.303.879-3.182 0-.026-.026-.052-.052-.078-.078-.879-.879-.879-2.303 0-3.182z"/><path d="m9.754 15.307 7.946-7.946c.293-.293.293-.768 0-1.061s-.768-.293-1.061 0l-7.946 7.946c-.292.293-.292.768 0 1.061.293.292.768.292 1.061 0z"/></g></svg>