<svg clip-rule="evenodd" fill-rule="evenodd" height="512" stroke-linejoin="round" stroke-miterlimit="2" viewBox="0 0 24 24" width="512" xmlns="http://www.w3.org/2000/svg"><g id="Icon"><path d="m19 22.75c2.071 0 3.75-1.679 3.75-3.75v-14c0-2.071-1.679-3.75-3.75-3.75h-14c-2.071 0-3.75 1.679-3.75 3.75v14c0 2.071 1.679 3.75 3.75 3.75zm0-1.5h-14c-1.243 0-2.25-1.007-2.25-2.25v-14c0-1.243 1.007-2.25 2.25-2.25h14c1.243 0 2.25 1.007 2.25 2.25v14c0 1.243-1.007 2.25-2.25 2.25z"/><path d="m22 6.25h-20c-.414 0-.75.336-.75.75s.336.75.75.75h20c.414 0 .75-.336.75-.75s-.336-.75-.75-.75z"/><circle cx="12.75" cy="4.5" r=".75"/><circle cx="15.5" cy="4.5" r=".75"/><circle cx="18.25" cy="4.5" r=".75"/><path d="m8.47 10.53.669.67s-.669.67-.669.67c-.293.292-.293.768 0 1.06.292.293.768.293 1.06 0l1.2-1.2c.293-.293.293-.767 0-1.06l-1.2-1.2c-.292-.293-.768-.293-1.06 0-.293.292-.293.768 0 1.06z"/><path d="m5.67 9.47-1.2 1.2c-.293.293-.293.767 0 1.06l1.2 1.2c.292.293.768.293 1.06 0 .293-.292.293-.768 0-1.06l-.669-.67s.669-.67.669-.67c.293-.292.293-.768 0-1.06-.292-.293-.768-.293-1.06 0z"/><path d="m13 11.75h6c.414 0 .75-.336.75-.75s-.336-.75-.75-.75h-6c-.414 0-.75.336-.75.75s.336.75.75.75z"/><path d="m5.5 15.75h13.5c.414 0 .75-.336.75-.75s-.336-.75-.75-.75h-13.5c-.414 0-.75.336-.75.75s.336.75.75.75z"/><path d="m5.5 19.75h13.5c.414 0 .75-.336.75-.75s-.336-.75-.75-.75h-13.5c-.414 0-.75.336-.75.75s.336.75.75.75z"/></g></svg>