<svg clip-rule="evenodd" fill-rule="evenodd" height="512" stroke-linejoin="round" stroke-miterlimit="2" viewBox="0 0 24 24" width="512" xmlns="http://www.w3.org/2000/svg"><g id="Icon"><path d="m20.584 1.286c-5.943 1.188-11.202 4.764-14.457 9.876l-2.505 3.936c-.189.297-.146.685.103.933l4.197 4.197c.247.248.633.291.93.105l3.909-2.462c5.159-3.25 8.758-8.476 9.953-14.455.253-1.267-.863-2.383-2.13-2.13zm.294 1.471c-5.543 1.108-10.45 4.443-13.485 9.211 0 0-2.182 3.428-2.182 3.428s3.348 3.348 3.348 3.348 3.402-2.143 3.402-2.143c4.811-3.03 8.168-7.903 9.282-13.479.044-.217-.148-.409-.365-.365z"/><path d="m4.786 15.039c-.201-.201-.498-.271-.768-.182l-1.529.511c-1.265.422-1.643 2.025-.701 2.969l3.886 3.886c.948.949 2.562.559 2.976-.715l.495-1.532c.087-.268.016-.562-.183-.761zm-.733 1.388 3.524 3.524s-.354 1.093-.354 1.093c-.068.209-.333.274-.488.119 0 0-3.886-3.886-3.886-3.886-.154-.155-.092-.417.115-.487z"/><path d="m16.921 16.736-1.717-1.718c-.293-.293-.768-.293-1.061 0s-.293.768 0 1.061l2.348 2.349c.141.14.331.219.53.219 0 0 .332.046.594-.292.01-.012.07-.089.07-.089h-.001l.019-.024c2.401-3.333 3.776-7.293 3.982-11.372.021-.413-.297-.766-.711-.787-.413-.021-.766.298-.787.712-.179 3.537-1.303 6.979-3.266 9.941z"/><path d="m8.969 8.785-1.633-1.755c2.935-1.933 6.34-3.04 9.849-3.216.413-.021.732-.374.711-.787-.02-.414-.373-.732-.786-.712-4.081.206-8.03 1.581-11.353 3.983-.174.126-.286.32-.307.534s.051.427.197.584l2.224 2.39c.282.303.757.321 1.06.039s.32-.757.038-1.06z"/><path d="m6.874 18.187 5.219-5.219c.292-.293.292-.768 0-1.061-.293-.292-.768-.292-1.061 0l-5.219 5.219c-.293.293-.293.768 0 1.061s.768.293 1.061 0z"/></g></svg>