<svg clip-rule="evenodd" fill-rule="evenodd" stroke-linejoin="round" stroke-miterlimit="1.414" viewBox="0 0 32 32" xmlns="http://www.w3.org/2000/svg" xmlns:serif="http://www.serif.com/"><path id="lifebuoy-help-customer-service" d="m0 0h32v32h-32z" fill="none"/><path d="m24.962 25.37c-1.793 1.719-4.061 2.954-6.543 3.422-3.935.742-8.186-.445-11.169-3.157-1.994-1.812-3.409-4.253-3.976-6.891-1.035-4.821.913-10.154 4.939-13.166 2.179-1.629 4.871-2.547 7.617-2.586.07-.001.14-.001.21-.001 3.637.017 7.22 1.627 9.641 4.323 2.73 3.039 3.892 7.403 3.049 11.39-.506 2.394-1.742 4.605-3.458 6.358-.079.124-.184.231-.31.308zm-1.933-17.812c-.696-.595-1.473-1.106-2.32-1.508-1.477-.701-3.097-1.06-4.747-1.057-2.529.012-5.019.978-6.976 2.583l2.057 2.058c.454.469.304 1.354-.302 1.623-.366.162-.819.078-1.114-.208l-2.072-2.072c-.644.753-1.186 1.593-1.595 2.498-1.401 3.095-1.256 6.853.388 9.833.34.618.744 1.197 1.199 1.732l2.08-2.081c.074-.072.09-.081.128-.108.174-.124.334-.185.597-.185.011 0 .022.001.033.001.762.051 1.268 1.077.658 1.708l-2.064 2.064c2.458 2.004 5.776 2.986 9.002 2.398 1.852-.337 3.586-1.195 5.029-2.405l-2.057-2.057c-.54-.558-.207-1.709.724-1.709.011 0 .023.001.034.001.102.007.119.012.165.022.12.027.235.075.337.143.051.034.077.051.155.127l2.059 2.058c1.132-1.343 1.956-2.942 2.33-4.66.709-3.252-.222-6.764-2.332-9.364l-2.057 2.056c-.555.537-1.666.16-1.707-.657-.014-.278.095-.555.292-.758zm-6.993 2.513c2.706.026 5.27 2.108 5.789 4.811.367 1.918-.283 4-1.683 5.367-1.637 1.598-4.232 2.13-6.386 1.249-2.476-1.012-4.063-3.848-3.605-6.506.461-2.672 2.923-4.857 5.732-4.92.051 0 .102-.001.153-.001zm-.064 2.002c-1.774.017-3.449 1.361-3.82 3.115-.475 2.245 1.345 4.731 3.82 4.747 1.869.012 3.64-1.478 3.915-3.356.319-2.174-1.448-4.452-3.813-4.505-.034 0-.068-.001-.102-.001z" fill-rule="nonzero"/></svg>