<svg clip-rule="evenodd" fill-rule="evenodd" height="512" stroke-linejoin="round" stroke-miterlimit="2" viewBox="0 0 24 24" width="512" xmlns="http://www.w3.org/2000/svg"><g id="Icon"><path d="m6.25 3v2.667c0 .054-.017.106-.05.149-.031.043-.059.089-.081.137l-1.571 3.404c-.193.284-.298.626-.298.976v1.667c0 .968.784 1.75 1.75 1.75.138 0 .25.112.25.25v1.22c0 .114-.078.214-.189.241l-.487.123c-.776.194-1.324.894-1.324 1.697v3.719c0 .968.784 1.75 1.75 1.75h12c.966 0 1.75-.782 1.75-1.75v-18c0-.968-.784-1.75-1.75-1.75h-10c-.966 0-1.75.782-1.75 1.75zm1.5 0c0-.138.112-.25.25-.25h10c.138 0 .25.112.25.25v18c0 .138-.112.25-.25.25h-12c-.138 0-.25-.112-.25-.25v-3.719c0-.115.078-.215.189-.242l.487-.123c.778-.194 1.324-.894 1.324-1.696v-1.22c0-.968-.784-1.75-1.75-1.75-.138 0-.25-.112-.25-.25v-1.667c0-.054.017-.106.05-.149.031-.043.059-.089.081-.137l1.571-3.404c.193-.284.298-.626.298-.976v-2.667z"/><path d="m15.25 5v1c0 .414.336.75.75.75s.75-.336.75-.75v-1c0-.414-.336-.75-.75-.75s-.75.336-.75.75z"/><path d="m12.25 5v1c0 .414.336.75.75.75s.75-.336.75-.75v-1c0-.414-.336-.75-.75-.75s-.75.336-.75.75z"/><path d="m9.25 5v1c0 .414.336.75.75.75s.75-.336.75-.75v-1c0-.414-.336-.75-.75-.75s-.75.336-.75.75z"/></g></svg>