<svg clip-rule="evenodd" fill-rule="evenodd" height="512" stroke-linejoin="round" stroke-miterlimit="2" viewBox="0 0 24 24" width="512" xmlns="http://www.w3.org/2000/svg"><g id="Icon"><path d="m12 1.25c-4.277 0-7.75 3.473-7.75 7.75 0 2.111 1.151 4.739 2.57 7.12 2.051 3.443 4.616 6.374 4.616 6.374.142.163.348.256.564.256s.422-.093.564-.256c0 0 2.565-2.931 4.616-6.374 1.419-2.381 2.57-5.009 2.57-7.12 0-4.277-3.473-7.75-7.75-7.75zm0 1.5c3.449 0 6.25 2.801 6.25 6.25 0 1.889-1.089 4.221-2.358 6.352-1.4 2.349-3.046 4.451-3.892 5.482-.846-1.031-2.492-3.133-3.892-5.482-1.269-2.131-2.358-4.463-2.358-6.352 0-3.449 2.801-6.25 6.25-6.25z"/><path d="m15.976 9.329c0-.414-.336-.75-.75-.75h-.806c-.841 0-1.647.334-2.242.928-.594.595-.928 1.401-.928 2.241v.807c0 .414.336.75.75.75h.807c.84 0 1.646-.334 2.241-.928.594-.595.928-1.401.928-2.242zm-1.5.75v.056c0 .443-.176.868-.489 1.181s-.738.489-1.18.489h-.057v-.057c0-.442.176-.867.489-1.18s.738-.489 1.181-.489z"/><path d="m8.774 8.579c-.414 0-.75.336-.75.75v.806c0 .841.334 1.647.928 2.242.595.594 1.401.928 2.241.928h.807c.414 0 .75-.336.75-.75v-.807c0-.84-.334-1.646-.928-2.241-.595-.594-1.401-.928-2.242-.928zm.75 1.5h.056c.443 0 .868.176 1.181.489s.489.738.489 1.18v.057h-.057c-.442 0-.867-.176-1.18-.489s-.489-.738-.489-1.181z"/><path d="m12.53 5.47c-.293-.293-.767-.293-1.06 0l-.571.57c-.594.594-.928 1.401-.928 2.241 0 .841.334 1.647.928 2.242 0 0 .571.57.571.57.293.293.767.293 1.06 0l.571-.57c.594-.595.928-1.401.928-2.242 0-.84-.334-1.647-.928-2.241 0 0-.571-.57-.571-.57zm-.53 1.591.04.04c.313.313.489.737.489 1.18s-.176.868-.489 1.181l-.04.04-.04-.04c-.313-.313-.489-.738-.489-1.181s.176-.867.489-1.18z"/><path d="m11.25 11.774v2.226c0 .414.336.75.75.75s.75-.336.75-.75v-2.226c0-.414-.336-.75-.75-.75s-.75.336-.75.75z"/></g></svg>