<svg clip-rule="evenodd" fill-rule="evenodd" stroke-linejoin="round" stroke-miterlimit="2" viewBox="0 0 32 32" xmlns="http://www.w3.org/2000/svg" xmlns:serif="http://www.serif.com/"><path id="flask-chemical-bottle" d="m0 0h32v32h-32z" fill="none"/><path d="m18.242 7.029c.435.128.742.512.764.971v7.692c1.923 2.885 3.859 5.762 5.77 8.655 1.15 1.775-.086 4.608-2.483 4.639-4.19.019-8.38.019-12.57 0-2.097-.027-3.771-2.651-2.483-4.639l5.77-8.655v-6.863c-.3-.108-.325-.133-.462-.209-1.578-.882-2.017-3.348-.684-4.713.548-.561 1.318-.888 2.107-.903 1.346-.009 2.693 0 4.039 0 1.568.01 2.984 1.348 2.995 2.994 0 0-.18.895-.857.993-.503.072-1.028-.301-1.124-.8-.053-.273-.01-.154-.023-.293-.052-.484-.491-.886-.981-.896-1.346-.008-2.692-.025-4.037.001-.854.027-1.362 1.468-.384 1.91.321.145.594.105.594.105.46.108.794.509.816.982v7.995c-.016.377-.046.353-.168.554-1.979 2.969-4.022 5.896-5.937 8.907-.365.585.064 1.515.828 1.532 4.187.054 8.375.089 12.561-.001.694-.02 1.22-.902.815-1.538-.005-.009-.005-.009-.011-.017l-5.922-8.883s-.156-.283-.168-.554v-7.995c.03-.615.6-1.093 1.235-.971z"/></svg>