<svg clip-rule="evenodd" fill-rule="evenodd" height="512" stroke-linejoin="round" stroke-miterlimit="2" viewBox="0 0 24 24" width="512" xmlns="http://www.w3.org/2000/svg"><g id="Icon"><path d="m9.832 11.26c.21-1.956 1.542-3.068 2.711-4.191 1.166-1.12 2.196-2.246 2.401-3.85.335.203.713.468 1.072.797.912.835 1.708 2.11 1.184 3.893-.077.264-.004.549.191.743s.481.266.745.186c0 0 1.007-.259 1.768-1.516.547 1.109 1.216 2.751 1.33 4.318.069.956-.067 1.887-.663 2.602-.397.476-.995.846-1.835 1.083-.398.113-.63.527-.518.926.112.398.527.63.926.518 1.189-.336 2.016-.892 2.579-1.566.845-1.013 1.106-2.316 1.007-3.671-.222-3.053-2.299-6.362-2.299-6.362-.162-.256-.461-.39-.759-.339-.298.05-.537.274-.606.569-.063.273-.144.511-.234.718-.187-1.367-.951-2.429-1.803-3.209-1.203-1.101-2.58-1.612-2.58-1.612-.248-.092-.525-.047-.731.118s-.31.426-.274.687c.246 1.794-.825 2.814-1.94 3.885-1.408 1.353-2.911 2.757-3.163 5.113-.044.412.254.782.666.826.411.044.781-.254.825-.666z"/><path d="m1.57 21.995c.561.801 1.665.996 2.465.435l8.855-6.2c.339-.238.422-.706.184-1.045l-1.17-1.671c-.237-.339-.705-.422-1.044-.184 0 0-6.31 4.418-8.855 6.2-.801.561-.996 1.664-.435 2.465zm1.229-.86c-.086-.122-.056-.291.066-.376 0 0 8.241-5.77 8.241-5.77s.309.442.309.442-8.24 5.77-8.24 5.77c-.122.086-.291.056-.376-.066z"/><path d="m12.614 9.611c-1.977 1.385-2.54 3.904-1.354 5.599 1.187 1.695 3.747 2.028 5.725.643 1.977-1.384 2.54-3.904 1.353-5.599s-3.747-2.027-5.724-.643zm.86 1.229c1.252-.876 2.884-.798 3.635.275.751 1.072.267 2.633-.985 3.509-1.251.877-2.884.798-3.635-.274-.751-1.073-.266-2.634.985-3.51z"/></g></svg>