<svg clip-rule="evenodd" fill-rule="evenodd" height="512" stroke-linejoin="round" stroke-miterlimit="2" viewBox="0 0 24 24" width="512" xmlns="http://www.w3.org/2000/svg"><g id="Icon"><path d="m11.225 12.257v-7.759c0-1.794-1.455-3.248-3.248-3.248-.001 0-.002 0-.002 0-.862 0-1.689.342-2.299.952-.609.609-.951 1.436-.951 2.298v7.757c-1.51 1.036-2.5 2.775-2.5 4.743 0 3.174 2.576 5.75 5.75 5.75 3.173 0 5.75-2.576 5.75-5.75 0-1.968-.991-3.706-2.5-4.743zm-1.5.413c0 .267.142.515.374.649 1.27.735 2.126 2.109 2.126 3.681 0 2.346-1.905 4.25-4.25 4.25-2.346 0-4.25-1.904-4.25-4.25 0-1.572.855-2.946 2.125-3.681.232-.134.375-.382.375-.649v-8.17c0-.464.184-.909.512-1.237.328-.329.773-.513 1.238-.513h.002c.965 0 1.748.783 1.748 1.748z"/><path d="m7.975 13.75c-1.794 0-3.25 1.456-3.25 3.25s1.456 3.25 3.25 3.25c1.793 0 3.25-1.456 3.25-3.25s-1.457-3.25-3.25-3.25zm0 1.5c.965 0 1.75.784 1.75 1.75s-.785 1.75-1.75 1.75c-.966 0-1.75-.784-1.75-1.75s.784-1.75 1.75-1.75z"/><path d="m8.725 14.5v-9c0-.414-.336-.75-.75-.75s-.75.336-.75.75v9c0 .414.336.75.75.75s.75-.336.75-.75z"/><path d="m15.057 8.116c.488.488.488 1.28 0 1.768-.487.488-1.28.488-1.767 0-.488-.488-.488-1.28 0-1.768.487-.488 1.28-.488 1.767 0z"/><path d="m16.053 6.267c1.509 1.508 1.509 3.958 0 5.466-.293.293-.293.768 0 1.061s.768.293 1.061 0c2.094-2.094 2.094-5.494 0-7.588-.293-.293-.768-.293-1.061 0s-.293.768 0 1.061z"/><path d="m18.154 3.873c2.829 2.83 2.829 7.424 0 10.254-.293.292-.293.767 0 1.06.292.293.767.293 1.06 0 3.415-3.415 3.415-8.959 0-12.374-.293-.293-.768-.293-1.06 0-.293.293-.293.768 0 1.06z"/></g></svg>