<svg clip-rule="evenodd" fill-rule="evenodd" height="512" stroke-linejoin="round" stroke-miterlimit="2" viewBox="0 0 24 24" width="512" xmlns="http://www.w3.org/2000/svg"><g id="Icon"><path d="m22.75 5.875c0-.729-.29-1.429-.805-1.945-.516-.515-1.216-.805-1.945-.805-3.832 0-12.168 0-16 0-.729 0-1.429.29-1.945.805-.515.516-.805 1.216-.805 1.945v14c0 .729.29 1.429.805 1.945.516.515 1.216.805 1.945.805h16c.729 0 1.429-.29 1.945-.805.515-.516.805-1.216.805-1.945zm-1.5 0v14c0 .332-.132.649-.366.884-.235.234-.552.366-.884.366h-16c-.332 0-.649-.132-.884-.366-.234-.235-.366-.552-.366-.884v-14c0-.332.132-.649.366-.884.235-.234.552-.366.884-.366h16c.332 0 .649.132.884.366.234.235.366.552.366.884z"/><path d="m22 9.125h-20c-.414 0-.75.336-.75.75s.336.75.75.75h20c.414 0 .75-.336.75-.75s-.336-.75-.75-.75z"/><path d="m6.75 2.125v3.5c0 .414.336.75.75.75s.75-.336.75-.75v-3.5c0-.414-.336-.75-.75-.75s-.75.336-.75.75z"/><path d="m15.75 2.125v3.5c0 .414.336.75.75.75s.75-.336.75-.75v-3.5c0-.414-.336-.75-.75-.75s-.75.336-.75.75z"/><path d="m10.916 14.624.334-.223v4.599c0 .414.336.75.75.75s.75-.336.75-.75v-6c0-.277-.152-.531-.396-.661-.244-.131-.54-.116-.77.037l-1.5 1c-.344.23-.438.696-.208 1.04s.696.438 1.04.208z"/><path d="m13.5 18.25h-3c-.414 0-.75.336-.75.75s.336.75.75.75h3c.414 0 .75-.336.75-.75s-.336-.75-.75-.75z"/></g></svg>