<svg clip-rule="evenodd" fill-rule="evenodd" height="512" stroke-linejoin="round" stroke-miterlimit="2" viewBox="0 0 24 24" width="512" xmlns="http://www.w3.org/2000/svg"><g id="Icon"><path d="m18.75 10c0-.414-.336-.75-.75-.75h-13c-.414 0-.75.336-.75.75v11c0 .464.184.909.513 1.237.328.329.773.513 1.237.513h11c.464 0 .909-.184 1.237-.513.329-.328.513-.773.513-1.237 0-2.882 0-11 0-11zm-1.5.75v10.25c0 .066-.026.13-.073.177s-.111.073-.177.073h-11c-.066 0-.13-.026-.177-.073s-.073-.111-.073-.177v-10.25z"/><path d="m5.75 10c0-.414-.336-.75-.75-.75h-2.5c-.69 0-1.25.56-1.25 1.25v1.5c0 .69.56 1.25 1.25 1.25h2.5c.414 0 .75-.336.75-.75zm-3 .75h1.5v1h-1.5z"/><path d="m18 10.75c.227 0 .441-.103.584-.279.142-.177.197-.408.149-.63 0 0-.607-2.803-.913-4.212-.174-.805-.886-1.379-1.71-1.379h-3.366c-.106 0-.2-.066-.235-.165l-.607-1.679c-.25-.694-.908-1.156-1.646-1.156h-4.256c-.967 0-1.75.784-1.75 1.75v7c0 .414.336.75.75.75zm-.93-1.5h-11.32v-6.25c0-.138.112-.25.25-.25h4.256c.106 0 .2.066.235.165l.607 1.679c.25.694.908 1.156 1.646 1.156h3.366c.118 0 .22.082.244.197z"/><path d="m8 7.25h1.5c.414 0 .75-.336.75-.75s-.336-.75-.75-.75h-1.5c-.414 0-.75.336-.75.75s.336.75.75.75z"/><path d="m10.75 13.75h1.5c.414 0 .75-.336.75-.75s-.336-.75-.75-.75h-1.5c-.414 0-.75.336-.75.75s.336.75.75.75z"/><path d="m10.75 19.75h1.5c.414 0 .75-.336.75-.75s-.336-.75-.75-.75h-1.5c-.414 0-.75.336-.75.75s.336.75.75.75z"/><path d="m18 15.25h-13c-.414 0-.75.336-.75.75s.336.75.75.75h13c.414 0 .75-.336.75-.75s-.336-.75-.75-.75z"/><path d="m18.263 11.702 4-1.5c.388-.145.585-.578.439-.965-.145-.388-.578-.585-.965-.439l-4 1.5c-.388.145-.585.578-.439.965.145.388.578.585.965.439z"/><path d="m18.263 16.702 4-1.5c.388-.145.585-.578.439-.965-.145-.388-.578-.585-.965-.439l-4 1.5c-.388.145-.585.578-.439.965.145.388.578.585.965.439z"/><path d="m11.697 4.224 5.5-1.5c.4-.109.635-.522.527-.921-.109-.4-.522-.635-.921-.527l-5.5 1.5c-.4.109-.635.522-.527.921.109.4.522.635.921.527z"/></g></svg>