<svg clip-rule="evenodd" fill-rule="evenodd" height="512" stroke-linejoin="round" stroke-miterlimit="2" viewBox="0 0 24 24" width="512" xmlns="http://www.w3.org/2000/svg"><g id="Icon"><path d="m15.241 22.75c4.147 0 7.509-3.362 7.509-7.51v-2.48c0-4.148-3.362-7.51-7.509-7.51h-6.481c-4.147 0-7.51 3.362-7.51 7.51v2.48c0 4.148 3.363 7.51 7.51 7.51zm0-1.5h-6.481c-3.319 0-6.01-2.69-6.01-6.01v-2.48c0-3.32 2.691-6.01 6.01-6.01h6.481c3.319 0 6.009 2.69 6.009 6.01v2.48c0 3.32-2.69 6.01-6.009 6.01z"/><path d="m12 6.759v.001-.001l.008.001c2.361.073 4.242 2.001 4.242 4.38v5.72c0 2.38-1.883 4.309-4.246 4.38h-.002c-.044 0-.083.003-.119.01h-3.123c-.414 0-.75.336-.75.75s.336.75.75.75h3.1c.075 0 .138-.002.207-.011 3.163-.104 5.683-2.689 5.683-5.879v-5.72c0-3.19-2.52-5.775-5.683-5.879-.069-.009-.132-.011-.207-.011h-3.1c-.414 0-.75.336-.75.75s.336.75.75.75h3.13s-.024-.002-.037-.005zm-.123 14.492c-.008.001-.017.002-.024.004-.378.075-.637.425-.599.809s.361.676.746.676v-.001c-.401-.01-.724-.335-.73-.738-.005-.34.218-.631.528-.727l.02-.008c.011-.003.021-.006.032-.009z"/><path d="m12.121 21.25c-.034-.006-.068-.009-.102-.01-2.373-.06-4.268-1.998-4.268-4.38v-5.72c0-2.382 1.895-4.32 4.268-4.38.034-.001.068-.004.102-.01h3.12c.413 0 .749-.336.75-.75 0-.414-.337-.75-.75-.75h-3.1c-.078 0-.143.002-.215.012-3.158.107-5.675 2.697-5.675 5.878v5.72c0 3.182 2.52 5.774 5.684 5.878.06.01.127.012.206.012-.001 0 3.1 0 3.1 0 .413 0 .75-.336.75-.75-.001-.414-.337-.75-.751-.75z"/><path d="m12.75 6c0-1.795 1.455-3.25 3.25-3.25.414 0 .75-.336.75-.75s-.336-.75-.75-.75c-2.623 0-4.75 2.127-4.75 4.75 0 .414.336.75.75.75s.75-.336.75-.75z"/></g></svg>