<svg clip-rule="evenodd" fill-rule="evenodd" height="512" stroke-linejoin="round" stroke-miterlimit="2" viewBox="0 0 24 24" width="512" xmlns="http://www.w3.org/2000/svg"><g id="Icon"><path d="m16 3.75c-2.623 0-4.75 2.127-4.75 4.75v4.5c0 .414.336.75.75.75h7c.967 0 1.75-.784 1.75-1.75 0-.874 0-2.203 0-3.5 0-2.623-2.127-4.75-4.75-4.75zm0 1.5c1.795 0 3.25 1.455 3.25 3.25v3.5c0 .138-.112.25-.25.25h-6.25v-3.75c0-1.795 1.455-3.25 3.25-3.25z"/><path d="m16 3.75h-9.5c-.995 0-1.948.395-2.652 1.098-.703.704-1.098 1.657-1.098 2.652v4.5c0 .464.184.909.513 1.237.328.329.773.513 1.237.513h7.5c.414 0 .75-.336.75-.75v-4.056c0-.413-.336-.75-.75-.75s-.75.337-.75.75v3.306h-6.75c-.066 0-.13-.026-.177-.073s-.073-.111-.073-.177v-4.5c0-.597.237-1.169.659-1.591s.994-.659 1.591-.659h9.5c.414 0 .75-.336.75-.75s-.336-.75-.75-.75z"/><path d="m6.5 2.75h1.25v4.25c0 .414.336.75.75.75s.75-.336.75-.75v-5c0-.414-.336-.75-.75-.75h-2c-.414 0-.75.336-.75.75s.336.75.75.75z"/><path d="m9.25 13v9c0 .414.336.75.75.75s.75-.336.75-.75v-9c0-.414-.336-.75-.75-.75s-.75.336-.75.75z"/><path d="m15 9.25h2c.414 0 .75-.336.75-.75s-.336-.75-.75-.75h-2c-.414 0-.75.336-.75.75s.336.75.75.75z"/><path d="m20.5 21.25h-13.5c-.414 0-.75.336-.75.75s.336.75.75.75h13.5c.414 0 .75-.336.75-.75s-.336-.75-.75-.75z"/><path d="m13.5 22.75h4c.464 0 .909-.184 1.237-.513.329-.328.513-.773.513-1.237 0-1.11 0-2.89 0-4 0-.464-.184-.909-.513-1.237-.328-.329-.773-.513-1.237-.513-1.11 0-2.89 0-4 0-.464 0-.909.184-1.237.513-.329.328-.513.773-.513 1.237v4c0 .464.184.909.513 1.237.328.329.773.513 1.237.513zm4-1.5h-4c-.066 0-.13-.026-.177-.073s-.073-.111-.073-.177v-4c0-.066.026-.13.073-.177s.111-.073.177-.073h4c.066 0 .13.026.177.073s.073.111.073.177v4c0 .066-.026.13-.073.177s-.111.073-.177.073z"/><path d="m14.75 16v2c0 .414.336.75.75.75s.75-.336.75-.75v-2c0-.414-.336-.75-.75-.75s-.75.336-.75.75z"/></g></svg>