<svg clip-rule="evenodd" fill-rule="evenodd" height="512" stroke-linejoin="round" stroke-miterlimit="2" viewBox="0 0 24 24" width="512" xmlns="http://www.w3.org/2000/svg"><g id="Icon"><path d="m20.75 12.62v-5.929c0-.659-.371-1.263-.96-1.561l-7-3.543c-.497-.251-1.083-.251-1.58 0l-7 3.543c-.589.298-.96.902-.96 1.561v5.929c0 3.03 1.568 5.845 4.145 7.44l3.684 2.28c.564.349 1.278.349 1.842 0l3.684-2.28c2.577-1.595 4.145-4.41 4.145-7.44zm-1.5-5.929v5.929c0 2.511-1.299 4.843-3.435 6.165 0 0-3.683 2.279-3.683 2.279-.081.05-.183.05-.264 0 0 0-3.683-2.279-3.683-2.279-2.136-1.322-3.435-3.654-3.435-6.165v-5.929c0-.094.053-.18.137-.223 0 0 7-3.543 7-3.543.071-.036.155-.036.226 0 0 0 7 3.543 7 3.543.084.043.137.129.137.223z"/><path d="m15 15.778c.414 0 .75-.336.75-.75v-6c0-.415-.336-.75-.75-.75h-6c-.414 0-.75.335-.75.75v6c0 .414.336.75.75.75zm-.75-1.5h-4.5v-4.5h4.5z"/><path d="m11.25 9.028v1.5c0 .414.336.75.75.75s.75-.336.75-.75v-1.5c0-.414-.336-.75-.75-.75s-.75.336-.75.75z"/></g></svg>