<svg clip-rule="evenodd" fill-rule="evenodd" height="512" stroke-linejoin="round" stroke-miterlimit="2" viewBox="0 0 24 24" width="512" xmlns="http://www.w3.org/2000/svg"><g id="Icon"><g fill-rule="nonzero"><path d="m6 4.5c0 .414-.336.75-.75.75s-.75-.336-.75-.75.336-.75.75-.75.75.336.75.75"/><path d="m8.5 4.5c0 .414-.336.75-.75.75s-.75-.336-.75-.75.336-.75.75-.75.75.336.75.75"/><path d="m11 4.5c0 .414-.336.75-.75.75s-.75-.336-.75-.75.336-.75.75-.75.75.336.75.75"/></g><path d="m22.75 5c0-.995-.395-1.948-1.098-2.652-.704-.703-1.657-1.098-2.652-1.098h-14c-.994 0-1.948.395-2.651 1.098-.704.704-1.099 1.657-1.099 2.652v14c0 .995.395 1.948 1.099 2.652.703.703 1.657 1.098 2.651 1.098h14c.995 0 1.948-.395 2.652-1.098.703-.704 1.098-1.657 1.098-2.652zm-1.5 0v14c0 .597-.237 1.169-.659 1.591s-.994.659-1.591.659h-14c-.597 0-1.169-.237-1.591-.659s-.659-.994-.659-1.591c0-3.776 0-10.224 0-14 0-.597.237-1.169.659-1.591s.994-.659 1.591-.659h14c.597 0 1.169.237 1.591.659s.659.994.659 1.591z"/><path d="m2 7.75h20c.414 0 .75-.336.75-.75s-.336-.75-.75-.75h-20c-.414 0-.75.336-.75.75s.336.75.75.75z"/><path d="m6 11.75h7c.414 0 .75-.336.75-.75s-.336-.75-.75-.75h-7c-.414 0-.75.336-.75.75s.336.75.75.75z"/><path d="m6 15.25h6c.414 0 .75-.336.75-.75s-.336-.75-.75-.75h-6c-.414 0-.75.336-.75.75s.336.75.75.75z"/><path d="m15 15.25h3c.414 0 .75-.336.75-.75s-.336-.75-.75-.75h-3c-.414 0-.75.336-.75.75s.336.75.75.75z"/><path d="m6 18.75h2c.414 0 .75-.336.75-.75s-.336-.75-.75-.75h-2c-.414 0-.75.336-.75.75s.336.75.75.75z"/><path d="m11 18.75h7c.414 0 .75-.336.75-.75s-.336-.75-.75-.75h-7c-.414 0-.75.336-.75.75s.336.75.75.75z"/></g></svg>