<svg clip-rule="evenodd" fill-rule="evenodd" height="512" stroke-linejoin="round" stroke-miterlimit="2" viewBox="0 0 24 24" width="512" xmlns="http://www.w3.org/2000/svg"><g id="Icon"><path d="m8.663 6.606c.006-.045-.021-.087-.063-.101s-.089.003-.111.042c-.373.639-1.089 1.866-1.332 2.282-.017.029-.017.065 0 .094s.048.047.082.047h.776s-.108.868-.178 1.424c-.006.045.021.087.063.101s.089-.003.111-.042c.373-.639 1.089-1.866 1.332-2.282.017-.029.017-.065 0-.094s-.048-.047-.082-.047c-.269 0-.776 0-.776 0s.108-.868.178-1.424z"/><path d="m12.5 6v4.465c0 .585-.292 1.131-.779 1.456l-.721.48v1.599c0 .332-.132.649-.366.884-.235.234-.553.366-.884.366h-3c-.331 0-.649-.132-.884-.366-.234-.235-.366-.552-.366-.884v-1.599l-.721-.48c-.487-.325-.779-.871-.779-1.456v-4.465c0-.464.184-.909.513-1.237.328-.329.773-.513 1.237-.513h5c.464 0 .909.184 1.237.513.329.328.513.773.513 1.237zm-5.5 7.75h2.5v-1.75c0-.251.125-.485.334-.624l1.055-.703c.069-.047.111-.125.111-.208v-4.465c0-.066-.026-.13-.073-.177s-.111-.073-.177-.073h-5c-.066 0-.13.026-.177.073s-.073.111-.073.177v4.465c0 .083.042.161.111.208l1.055.703c.209.139.334.373.334.624z"/><path d="m11 5c0 .414-.336.75-.75.75s-.75-.336-.75-.75v-3c0-.414.336-.75.75-.75s.75.336.75.75z"/><path d="m7 5c0 .414-.336.75-.75.75s-.75-.336-.75-.75v-3c0-.414.336-.75.75-.75s.75.336.75.75z"/><path d="m10.25 11.25c.414 0 .75.336.75.75s-.336.75-.75.75h-4c-.414 0-.75-.336-.75-.75s.336-.75.75-.75z"/><path d="m11 21.25c1.105 0 2-.895 2-2v-4.5c0-1.933 1.567-3.5 3.5-3.5s3.5 1.567 3.5 3.5v7.25c0 .414-.336.75-.75.75s-.75-.336-.75-.75v-7.25c0-1.105-.895-2-2-2s-2 .895-2 2v4.5c0 1.933-1.567 3.5-3.5 3.5-.928 0-1.818-.369-2.475-1.025-.656-.657-1.025-1.547-1.025-2.475v-4.75c0-.414.336-.75.75-.75s.75.336.75.75v4.75c0 .53.211 1.039.586 1.414s.884.586 1.414.586z"/></g></svg>