<svg clip-rule="evenodd" fill-rule="evenodd" height="512" stroke-linejoin="round" stroke-miterlimit="2" viewBox="0 0 24 24" width="512" xmlns="http://www.w3.org/2000/svg"><g id="Icon"><path d="m19.074 12.75c-.415 0-.75-.336-.75-.75s.335-.75.75-.75c.414 0 .75.336.75.75s-.336.75-.75.75" fill-rule="nonzero"/><path d="m16.074 12.75c-.415 0-.75-.336-.75-.75s.335-.75.75-.75c.414 0 .75.336.75.75s-.336.75-.75.75" fill-rule="nonzero"/><path d="m21 15.75c.966 0 1.75-.782 1.75-1.75v-4c0-.968-.784-1.75-1.75-1.75h-18c-.966 0-1.75.782-1.75 1.75v4c0 .968.784 1.75 1.75 1.75zm0-1.5h-18c-.138 0-.25-.112-.25-.25v-4c0-.138.112-.25.25-.25h18c.138 0 .25.112.25.25v4c0 .138-.112.25-.25.25z"/><path d="m5 12.75h5c.414 0 .75-.336.75-.75s-.336-.75-.75-.75h-5c-.414 0-.75.336-.75.75s.336.75.75.75z"/><path d="m19.074 6.75c-.415 0-.75-.336-.75-.75s.335-.75.75-.75c.414 0 .75.336.75.75s-.336.75-.75.75" fill-rule="nonzero"/><path d="m16.074 6.75c-.415 0-.75-.336-.75-.75s.335-.75.75-.75c.414 0 .75.336.75.75s-.336.75-.75.75" fill-rule="nonzero"/><path d="m21 9.75c.966 0 1.75-.782 1.75-1.75v-4c0-.968-.784-1.75-1.75-1.75h-18c-.966 0-1.75.782-1.75 1.75v4c0 .968.784 1.75 1.75 1.75zm0-1.5h-18c-.138 0-.25-.112-.25-.25v-4c0-.138.112-.25.25-.25h18c.138 0 .25.112.25.25v4c0 .138-.112.25-.25.25z"/><path d="m5 6.75h5c.414 0 .75-.336.75-.75s-.336-.75-.75-.75h-5c-.414 0-.75.336-.75.75s.336.75.75.75z"/><path d="m19.074 18.75c-.415 0-.75-.336-.75-.75s.335-.75.75-.75c.414 0 .75.336.75.75s-.336.75-.75.75" fill-rule="nonzero"/><path d="m16.074 18.75c-.415 0-.75-.336-.75-.75s.335-.75.75-.75c.414 0 .75.336.75.75s-.336.75-.75.75" fill-rule="nonzero"/><path d="m21 21.75c.966 0 1.75-.782 1.75-1.75v-4c0-.968-.784-1.75-1.75-1.75h-18c-.966 0-1.75.782-1.75 1.75v4c0 .968.784 1.75 1.75 1.75zm0-1.5h-18c-.138 0-.25-.112-.25-.25v-4c0-.138.112-.25.25-.25h18c.138 0 .25.112.25.25v4c0 .138-.112.25-.25.25z"/><path d="m5 18.75h5c.414 0 .75-.336.75-.75s-.336-.75-.75-.75h-5c-.414 0-.75.336-.75.75s.336.75.75.75z"/></g></svg>