<svg clip-rule="evenodd" fill-rule="evenodd" height="512" stroke-linejoin="round" stroke-miterlimit="2" viewBox="0 0 24 24" width="512" xmlns="http://www.w3.org/2000/svg"><g id="Icon"><path d="m22.75 14.172v-8.172c0-.967-.784-1.75-1.75-1.75-3.414 0-14.586 0-18 0-.966 0-1.75.783-1.75 1.75v12c0 .967.784 1.75 1.75 1.75h14.172c.729 0 1.428-.29 1.944-.805l2.829-2.829c.515-.516.805-1.215.805-1.944zm-1.5 0c0 .331-.132.649-.366.883l-2.829 2.829c-.234.234-.552.366-.883.366h-14.172c-.138 0-.25-.112-.25-.25v-12c0-.138.112-.25.25-.25h18c.138 0 .25.112.25.25z"/><path d="m13.75 15v-6c0-.966-.784-1.75-1.75-1.75h-6c-.966 0-1.75.784-1.75 1.75v6c0 .966.784 1.75 1.75 1.75h6c.966 0 1.75-.784 1.75-1.75zm-1.5 0c0 .138-.112.25-.25.25h-6c-.138 0-.25-.112-.25-.25v-6c0-.138.112-.25.25-.25h6c.138 0 .25.112.25.25z"/><path d="m8.25 8v8c0 .414.336.75.75.75s.75-.336.75-.75v-8c0-.414-.336-.75-.75-.75s-.75.336-.75.75z"/><path d="m9 11.25h-4c-.414 0-.75.336-.75.75s.336.75.75.75h4c.414 0 .75-.336.75-.75s-.336-.75-.75-.75z"/></g></svg>