<svg clip-rule="evenodd" fill-rule="evenodd" height="512" stroke-linejoin="round" stroke-miterlimit="2" viewBox="0 0 24 24" width="512" xmlns="http://www.w3.org/2000/svg"><g id="Icon"><path d="m15.763 9.712c.208.069.436.044.624-.069.188-.114.317-.303.353-.52l1-6c.054-.324-.11-.647-.405-.794l-2-1c-.194-.097-.421-.105-.622-.022s-.356.25-.425.456l-2 6c-.13.393.082.818.475.949zm-.359-1.701-1.455-.485s1.489-4.468 1.489-4.468.731.365.731.365z"/><path d="m19.643 4.614c-.092-.153-.236-.269-.406-.326l-2.21-.736c-.208-.069-.436-.044-.624.069-.188.114-.317.303-.353.52l-.645 3.87s-2.168-.723-2.168-.723c-.229-.076-.48-.037-.676.104-.195.141-.311.367-.311.608v14c0 .414.336.75.75.75h4.5c.966 0 1.75-.782 1.75-1.75v-7.662s2.506-2.218 2.506-2.218c.695-.542.879-1.52.423-2.28 0 .001-2.536-4.226-2.536-4.226zm-1.143 1.01 2.393 3.99c.066.109.037.25-.065.327-.017.012-.032.025-.047.038l-2.778 2.459c-.161.143-.253.347-.253.562v8c0 .138-.112.25-.25.25h-3.75v-12.209s2.013.671 2.013.671c.208.069.436.044.624-.069.188-.114.317-.303.353-.52l.645-3.87z"/><path d="m7.26 9.123c.036.217.165.406.353.52.188.113.416.138.624.069l3-1c.393-.131.605-.556.475-.949l-2-6c-.069-.206-.224-.373-.425-.456s-.428-.075-.622.022l-2 1c-.295.147-.459.47-.405.794zm1.335-1.112-.764-4.588s.731-.365.731-.365 1.489 4.468 1.489 4.468z"/><path d="m4.763 4.289c-.17.056-.314.172-.406.325l-2.536 4.227c-.458.761-.271 1.743.431 2.285-.008-.006 2.498 2.212 2.498 2.212v7.662c0 .968.784 1.75 1.75 1.75h4.5c.414 0 .75-.336.75-.75v-14c0-.241-.116-.467-.311-.608-.196-.141-.447-.18-.676-.104l-2.168.723s-.645-3.871-.645-3.871c-.036-.217-.165-.406-.353-.52-.188-.113-.416-.138-.624-.068zm.737 1.335 1.115-.372s.645 3.871.645 3.871c.036.217.165.406.353.52.188.113.416.138.624.069l2.013-.671v12.209h-3.75c-.138 0-.25-.112-.25-.25v-8c0-.215-.092-.419-.253-.562l-2.778-2.459c-.015-.013-.03-.026-.047-.038-.102-.077-.131-.218-.065-.327z"/><path d="m9.237 1.288c-.269-.089-.566-.019-.767.182s-.271.498-.182.767l1.962 5.885v12.878c0 .414.336.75.75.75h2c.414 0 .75-.336.75-.75v-12.878s1.962-5.885 1.962-5.885c.089-.269.019-.566-.182-.767s-.498-.271-.767-.182c-1.793.598-3.733.598-5.526 0zm.91 1.78c1.225.225 2.481.225 3.706 0 .001 0-1.565 4.695-1.565 4.695-.025.076-.038.156-.038.237v12.25h-.5v-12.25c0-.081-.013-.161-.038-.237z"/><path d="m19.25 13v-2c0-.414-.336-.75-.75-.75s-.75.336-.75.75v2c0 .414.336.75.75.75s.75-.336.75-.75z"/><path d="m6.25 13v-2c0-.414-.336-.75-.75-.75s-.75.336-.75.75v2c0 .414.336.75.75.75s.75-.336.75-.75z"/><path d="m13 14.25c1.143 0 1.827.233 2.513.462.814.271 1.63.538 2.987.538.414 0 .75-.336.75-.75s-.336-.75-.75-.75c-1.143 0-1.827-.233-2.513-.462-.814-.271-1.63-.538-2.987-.538-.414 0-.75.336-.75.75s.336.75.75.75z"/><path d="m13 17.25c1.143 0 1.827.233 2.513.462.814.271 1.63.538 2.987.538.414 0 .75-.336.75-.75s-.336-.75-.75-.75c-1.143 0-1.827-.233-2.513-.462-.814-.271-1.63-.538-2.987-.538-.414 0-.75.336-.75.75s.336.75.75.75z"/><path d="m11 13.75c-1.143 0-1.827-.233-2.513-.462-.814-.271-1.63-.538-2.987-.538-.414 0-.75.336-.75.75s.336.75.75.75c1.143 0 1.827.233 2.513.462.814.271 1.63.538 2.987.538.414 0 .75-.336.75-.75s-.336-.75-.75-.75z"/><path d="m11 16.75c-1.143 0-1.827-.233-2.513-.462-.814-.271-1.63-.538-2.987-.538-.414 0-.75.336-.75.75s.336.75.75.75c1.143 0 1.827.233 2.513.462.814.271 1.63.538 2.987.538.414 0 .75-.336.75-.75s-.336-.75-.75-.75z"/></g></svg>