<svg clip-rule="evenodd" fill-rule="evenodd" height="512" stroke-linejoin="round" stroke-miterlimit="2" viewBox="0 0 24 24" width="512" xmlns="http://www.w3.org/2000/svg"><g id="Icon"><path d="m15 1.25c-4.277 0-7.75 3.473-7.75 7.75s3.473 7.75 7.75 7.75 7.75-3.473 7.75-7.75-3.473-7.75-7.75-7.75zm0 1.5c3.449 0 6.25 2.801 6.25 6.25s-2.801 6.25-6.25 6.25-6.25-2.801-6.25-6.25 2.801-6.25 6.25-6.25z"/><path d="m9.47 18.419c.683-.683.683-1.791 0-2.474l-1.415-1.415c-.683-.683-1.791-.683-2.474 0-.915.915-2.517 2.517-3.578 3.578-.422.422-.659.994-.659 1.591s.237 1.169.659 1.591c.231.231.476.476.707.707.422.422.994.659 1.591.659s1.169-.237 1.591-.659zm-1.061-1.06-3.578 3.577c-.14.141-.331.22-.53.22s-.39-.079-.53-.22l-.707-.707c-.141-.14-.22-.331-.22-.53s.079-.39.22-.53l3.577-3.578c.098-.098.256-.098.354 0 0 0 1.414 1.414 1.414 1.414.098.098.098.256 0 .354z"/><path d="m8.763 16.298 1.767-1.768c.293-.292.293-.768 0-1.06-.292-.293-.768-.293-1.06 0l-1.768 1.767c-.293.293-.293.768 0 1.061s.768.293 1.061 0z"/></g></svg>