<svg clip-rule="evenodd" fill-rule="evenodd" height="512" stroke-linejoin="round" stroke-miterlimit="2" viewBox="0 0 24 24" width="512" xmlns="http://www.w3.org/2000/svg"><g id="Icon"><path d="m17.248 6.53c3.036 0 5.502 2.466 5.502 5.503 0 .779-.491 1.458-1.394 1.925-.997.516-2.551.792-4.108.792-1.558 0-3.112-.276-4.109-.792-.903-.467-1.394-1.146-1.394-1.925 0-3.037 2.466-5.503 5.503-5.503zm0 1.5c-2.209 0-4.003 1.794-4.003 4.003 0 .272.267.429.583.593.828.428 2.126.624 3.42.624 1.293 0 2.591-.196 3.419-.624.316-.164.583-.321.583-.593 0-2.209-1.793-4.003-4.002-4.003z"/><path d="m6.748 14.53c3.036 0 5.502 2.466 5.502 5.503 0 .779-.491 1.458-1.394 1.925-.997.516-2.551.792-4.108.792-1.558 0-3.112-.276-4.109-.792-.903-.467-1.394-1.146-1.394-1.925 0-3.037 2.466-5.503 5.503-5.503zm0 1.5c-2.209 0-4.003 1.794-4.003 4.003 0 .272.267.429.583.593.828.428 2.126.624 3.42.624 1.293 0 2.591-.196 3.419-.624.316-.164.583-.321.583-.593 0-2.209-1.793-4.003-4.002-4.003z"/><path d="m17.248 1.25c1.871 0 3.39 1.519 3.39 3.39s-1.519 3.39-3.39 3.39-3.391-1.519-3.391-3.39 1.52-3.39 3.391-3.39zm0 1.5c-1.044 0-1.891.847-1.891 1.89s.847 1.89 1.891 1.89c1.043 0 1.89-.847 1.89-1.89s-.847-1.89-1.89-1.89z"/><path d="m6.748 9.25c1.871 0 3.39 1.519 3.39 3.39s-1.519 3.39-3.39 3.39-3.391-1.519-3.391-3.39 1.52-3.39 3.391-3.39zm0 1.5c-1.044 0-1.891.847-1.891 1.89s.847 1.89 1.891 1.89c1.043 0 1.89-.847 1.89-1.89s-.847-1.89-1.89-1.89z"/><path d="m21.25 16c0-.414.336-.75.75-.75s.75.336.75.75v4c0 1.519-1.231 2.75-2.75 2.75h-5c-.414 0-.75-.336-.75-.75s.336-.75.75-.75h5c.69 0 1.25-.56 1.25-1.25z"/><path d="m2.75 8c0 .414-.336.75-.75.75s-.75-.336-.75-.75v-4c0-1.519 1.231-2.75 2.75-2.75h6c.414 0 .75.336.75.75s-.336.75-.75.75h-6c-.69 0-1.25.56-1.25 1.25z"/></g></svg>