<svg clip-rule="evenodd" fill-rule="evenodd" stroke-linejoin="round" stroke-miterlimit="2" viewBox="0 0 32 32" xmlns="http://www.w3.org/2000/svg" xmlns:serif="http://www.serif.com/"><path id="elearning-phone-online" d="m0 0h32v32h-32z" fill="none"/><path d="m26.029 7.014c1.546.029 2.93 1.349 2.96 2.96.025 4.01 0 8.02 0 12.03-.009 1.558-1.349 2.965-2.96 2.995-6.674.041-13.349 0-20.024 0-1.557-.01-2.964-1.349-2.994-2.96-.025-4.01 0-8.021 0-12.031.01-1.557 1.349-2.964 2.96-2.994 6.686-.041 13.372-.041 20.058 0zm1.004 5.995c-.01-1.008-.024-2.015-.042-3.022-.016-.509-.46-.959-.974-.974-6.668-.125-13.337-.001-20.005-.001-.522.003-.993.457-1.003.987-.025 4.009-.074 8.019.001 12.027.015.507.459.958.974.974 6.676.124 13.356.124 20.033 0 .507-.016.958-.46.974-.974.018-1.007.032-2.015.042-3.022h-.042c-1.104 0-1.998-.895-1.998-1.998v-1.999c0-.53.21-1.038.585-1.413s.883-.585 1.413-.585zm-14.862-1.998c1.414.017 2.758.684 3.842 1.625 0 0 .665-.562 1.355-.934.84-.454 1.797-.797 2.748-.682.801.096 1.169 1.37.406 1.842-.112.069-.236.115-.366.136-.196.032-.434.013-.661.048-1.103.172-2.032.908-2.786 1.668 0 0-.895.55-1.463-.047-.027-.029-.055-.057-.083-.086-.036-.037-.073-.073-.109-.11-.587-.577-1.262-1.086-2.043-1.328l-.008 3.919c1.126.194 2.158.812 3.023 1.575.044-.036.087-.072.132-.107.824-.655 1.759-1.181 2.784-1.407l.056-.012v-1.105c.006-.229.036-.304.099-.433.295-.613 1.29-.743 1.715-.145.086.122.145.263.17.411.009.055.012.111.014.167v2.001c-.005.181-.022.232-.056.329-.146.42-.582.654-1.058.672-1.264.058-2.343.891-3.184 1.712 0 0-.812.585-1.424-.029-.158-.167-.32-.328-.489-.483-.099-.091-.201-.179-.306-.264-.088-.072-.179-.142-.271-.209-.616-.448-1.361-.783-2.138-.731 0 0-1.041-.118-1.066-.997v-5.995c.005-.179.022-.229.054-.325.143-.414.567-.671 1.033-.676z"/></svg>