<svg clip-rule="evenodd" fill-rule="evenodd" height="512" stroke-linejoin="round" stroke-miterlimit="2" viewBox="0 0 24 24" width="512" xmlns="http://www.w3.org/2000/svg"><g id="Icon"><path d="m21 20.75c.968 0 1.75-.782 1.75-1.75v-4c0-.968-.782-1.75-1.75-1.75h-18c-.968 0-1.75.782-1.75 1.75v4c0 .968.782 1.75 1.75 1.75zm0-1.5h-18c-.138 0-.25-.112-.25-.25v-4c0-.138.112-.25.25-.25h18c.138 0 .25.112.25.25v4c0 .138-.112.25-.25.25z"/><path d="m19.5 17c0 .414-.336.75-.75.75s-.75-.336-.75-.75.336-.75.75-.75.75.336.75.75" fill-rule="nonzero"/><path d="m16.5 17c0 .414-.336.75-.75.75s-.75-.336-.75-.75.336-.75.75-.75.75.336.75.75" fill-rule="nonzero"/><path d="m5 17.75h7c.414 0 .75-.336.75-.75s-.336-.75-.75-.75h-7c-.414 0-.75.336-.75.75s.336.75.75.75z"/><path d="m17 11.25c-.414 0-.75.336-.75.75v2c0 .414.336.75.75.75h2c.414 0 .75-.336.75-.75v-2c0-.414-.336-.75-.75-.75zm.75 1.5h.5v.5h-.5z"/><path d="m18.75 11.999-.008-8c0-.414-.337-.749-.751-.749s-.749.337-.749.751l.008 8c0 .414.337.749.751.749s.749-.337.749-.751z"/></g></svg>