<svg clip-rule="evenodd" fill-rule="evenodd" height="512" stroke-linejoin="round" stroke-miterlimit="2" viewBox="0 0 24 24" width="512" xmlns="http://www.w3.org/2000/svg"><g id="Icon"><path d="m19 6.75h-14c-.414 0-.75.336-.75.75s.336.75.75.75h14c.414 0 .75-.336.75-.75s-.336-.75-.75-.75z"/><path d="m6 22.75h12c.967 0 1.75-.784 1.75-1.75 0-3.414 0-14.586 0-18 0-.966-.783-1.75-1.75-1.75h-12c-.967 0-1.75.784-1.75 1.75v18c0 .966.783 1.75 1.75 1.75zm12-1.5h-12c-.138 0-.25-.112-.25-.25v-18c0-.138.112-.25.25-.25h12c.138 0 .25.112.25.25v18c0 .138-.112.25-.25.25z"/><path d="m6.804 2.279 1 2.5c.114.284.389.471.696.471h7c.307 0 .582-.187.696-.471l1-2.5c.154-.385-.033-.822-.417-.975-.385-.154-.822.033-.975.417l-.812 2.029h-5.984s-.812-2.029-.812-2.029c-.153-.384-.59-.571-.975-.417-.384.153-.571.59-.417.975z"/><circle cx="12" cy="16.958" r="1"/><path d="m10.95 15.516c.293-.219.656-.349 1.049-.349.394 0 .757.13 1.049.349.331.249.802.182 1.051-.149.248-.331.181-.801-.15-1.05-.543-.408-1.218-.65-1.95-.65-.731 0-1.406.242-1.949.65-.331.249-.398.719-.15 1.05.249.331.72.398 1.05.149z"/><path d="m9.95 13.433c.572-.429 1.281-.683 2.05-.683s1.478.254 2.05.683c.33.249.801.182 1.05-.149.248-.331.181-.801-.15-1.05-.822-.618-1.843-.984-2.95-.984s-2.128.366-2.95.984c-.331.249-.398.719-.15 1.05.249.331.72.398 1.05.149z"/></g></svg>