<svg clip-rule="evenodd" fill-rule="evenodd" height="512" stroke-linejoin="round" stroke-miterlimit="2" viewBox="0 0 24 24" width="512" xmlns="http://www.w3.org/2000/svg"><g id="Icon"><path d="m11.04 1.25c-.464 0-.91.184-1.238.513-.328.328-.512.773-.512 1.237v4.014c0 .492.207.961.57 1.292l2.378 2.169c.322.294.743.457 1.179.457h7.583c.967 0 1.75-.783 1.75-1.75v-6.182c0-.464-.184-.909-.513-1.237-.328-.329-.773-.513-1.237-.513h-9.96zm0 1.5h9.96c.066 0 .13.026.177.073s.073.111.073.177v6.182c0 .138-.112.25-.25.25h-7.583c-.062 0-.122-.023-.168-.065 0 0-2.378-2.169-2.378-2.169-.052-.047-.081-.114-.081-.184 0-.001 0-4.014 0-4.014 0-.066.026-.13.073-.177s.11-.073.177-.073z"/><path d="m12.939 5.645c-.196.265-.196.627 0 .892 0 0 .466.634 1.187 1.14.529.372 1.188.664 1.894.664s1.365-.292 1.894-.664c.72-.506 1.187-1.14 1.187-1.14.196-.265.196-.627 0-.892 0 0-.467-.634-1.187-1.14-.529-.371-1.188-.664-1.894-.664s-1.365.293-1.894.664c-.721.506-1.187 1.14-1.187 1.14zm1.613.446c.123-.116.27-.242.436-.358.291-.204.644-.392 1.032-.392s.741.188 1.032.392c.166.116.312.242.435.358-.123.117-.269.242-.435.358-.291.205-.644.392-1.032.392s-.741-.187-1.032-.392c-.166-.116-.313-.241-.436-.358z"/><path d="m22 21.25h-20c-.414 0-.75.336-.75.75s.336.75.75.75h20c.414 0 .75-.336.75-.75s-.336-.75-.75-.75z"/><path d="m22 16.25h-11c-.414 0-.75.336-.75.75s.336.75.75.75h11c.414 0 .75-.336.75-.75s-.336-.75-.75-.75z"/><path d="m6 16.25h-4c-.414 0-.75.336-.75.75s.336.75.75.75h4c.414 0 .75-.336.75-.75s-.336-.75-.75-.75z"/><path d="m3.5 20.25h1c.414 0 .75-.336.75-.75s-.336-.75-.75-.75h-1c-.414 0-.75.336-.75.75s.336.75.75.75z"/><path d="m7.5 20.25h1c.414 0 .75-.336.75-.75s-.336-.75-.75-.75h-1c-.414 0-.75.336-.75.75s.336.75.75.75z"/><path d="m11.5 20.25h1c.414 0 .75-.336.75-.75s-.336-.75-.75-.75h-1c-.414 0-.75.336-.75.75s.336.75.75.75z"/><path d="m9.43 15.475 1.229-.861c.339-.237.422-.705.184-1.044-.237-.339-.705-.422-1.044-.184l-1.229.86c-.339.237-.422.705-.184 1.045.237.339.705.421 1.044.184z"/><path d="m10.159 10.816-1.229-.861c-.339-.237-.807-.154-1.044.185-.238.339-.155.807.184 1.044l1.229.861c.339.237.807.154 1.044-.185.238-.339.155-.807-.184-1.044z"/><path d="m15.5 20.25h1c.414 0 .75-.336.75-.75s-.336-.75-.75-.75h-1c-.414 0-.75.336-.75.75s.336.75.75.75z"/><path d="m19.5 20.25h1c.414 0 .75-.336.75-.75s-.336-.75-.75-.75h-1c-.414 0-.75.336-.75.75s.336.75.75.75z"/></g></svg>