<svg clip-rule="evenodd" fill-rule="evenodd" height="512" stroke-linejoin="round" stroke-miterlimit="2" viewBox="0 0 24 24" width="512" xmlns="http://www.w3.org/2000/svg"><g id="Icon"><circle cx="11" cy="16.5" r="1"/><circle cx="11" cy="7.5" r="1"/><path d="m14 17.25h5c.414 0 .75-.336.75-.75s-.336-.75-.75-.75h-5c-.414 0-.75.336-.75.75s.336.75.75.75z"/><path d="m14 8.25h5c.414 0 .75-.336.75-.75s-.336-.75-.75-.75h-5c-.414 0-.75.336-.75.75s.336.75.75.75z"/><path d="m22.75 13.5c0-.414-.336-.75-.75-.75h-14.5c-.414 0-.75.336-.75.75v6c0 .414.336.75.75.75h14.5c.414 0 .75-.336.75-.75zm-1.5.75v4.5h-13v-4.5z"/><path d="m22.75 4.5c0-.414-.336-.75-.75-.75h-14.5c-.414 0-.75.336-.75.75v6c0 .414.336.75.75.75h14.5c.414 0 .75-.336.75-.75zm-1.5.75v4.5h-13v-4.5z"/><path d="m5.75 4.5c0-.414-.336-.75-.75-.75h-3c-.414 0-.75.336-.75.75v6c0 .414.336.75.75.75h3c.414 0 .75-.336.75-.75zm-1.5.75v4.5h-1.5v-4.5z"/><path d="m5.75 13.5c0-.414-.336-.75-.75-.75h-3c-.414 0-.75.336-.75.75v6c0 .414.336.75.75.75h3c.414 0 .75-.336.75-.75zm-1.5.75v4.5h-1.5v-4.5z"/></g></svg>