<svg clip-rule="evenodd" fill-rule="evenodd" stroke-linejoin="round" stroke-miterlimit="1.414" viewBox="0 0 32 32" xmlns="http://www.w3.org/2000/svg" xmlns:serif="http://www.serif.com/"><path id="layers-layer-arrange" d="m0 0h32v32h-32z" fill="none"/><path d="m28.116 20.001c.309.04.389.097.528.203.544.416.461 1.398-.223 1.722l-12.033 5.014c-.382.14-.406.133-.771 0l-12.032-5.014c-.265-.125-.295-.177-.381-.279-.458-.544-.108-1.581.685-1.646.158-.012.315.019.467.074l11.647 4.853 11.646-4.853s.089-.086.467-.074zm0-5.013c.309.04.389.096.528.203.544.416.461 1.398-.223 1.722l-12.033 5.013c-.382.14-.406.134-.771 0l-12.032-5.013c-.773-.366-.812-1.731.21-1.913.172-.03.268-.044.561.062l11.647 4.853 11.646-4.853s.089-.087.467-.074zm-12.146-10.03c.046 0 .1.003.164.009.054.009.094.009.254.068l12.033 5.013c.72.341.789 1.478 0 1.852l-12.033 5.013c-.185.068-.286.101-.383.102l-.009.001c-.099-.001-.197-.036-.379-.103l-12.032-5.013c-.724-.343-.789-1.478 0-1.852l12.032-5.013c.099-.036.149-.076.33-.077zm.033 2.089c-3.142 1.309-6.284 2.618-9.425 3.927l9.425 3.927 9.425-3.927z" fill-rule="nonzero"/></svg>