<svg clip-rule="evenodd" fill-rule="evenodd" height="512" stroke-linejoin="round" stroke-miterlimit="2" viewBox="0 0 24 24" width="512" xmlns="http://www.w3.org/2000/svg"><g id="Icon"><path d="m15.75 12v-5.5c0-.597-.237-1.169-.659-1.591s-.994-.659-1.591-.659h-8.5c-.967 0-1.75.784-1.75 1.75v2.5c0 .414.336.75.75.75s.75-.336.75-.75v-2.5c0-.138.112-.25.25-.25h8.5c.199 0 .39.079.53.22.141.14.22.331.22.53v5.5c0 .414.336.75.75.75s.75-.336.75-.75z"/><path d="m20.75 12v-9c0-.967-.783-1.75-1.75-1.75h-8c-.967 0-1.75.783-1.75 1.75v2c0 .414.336.75.75.75s.75-.336.75-.75v-2c0-.138.112-.25.25-.25h8c.138 0 .25.112.25.25v9c0 .414.336.75.75.75s.75-.336.75-.75z"/><path d="m6 16.25h3c.414 0 .75-.336.75-.75s-.336-.75-.75-.75h-3c-.414 0-.75.336-.75.75s.336.75.75.75z"/><path d="m6 18.75h3c.414 0 .75-.336.75-.75s-.336-.75-.75-.75h-3c-.414 0-.75.336-.75.75s.336.75.75.75z"/><path d="m20 22.75c1.518 0 2.75-1.232 2.75-2.75v-6c0-1.518-1.232-2.75-2.75-2.75h-4.971c-.403 0-.782-.195-1.017-.523l-1.303-1.825c-.517-.723-1.35-1.152-2.238-1.152-2.055 0-6.471 0-6.471 0-1.518 0-2.75 1.232-2.75 2.75v9.5c0 1.518 1.232 2.75 2.75 2.75zm0-1.5h-16c-.69 0-1.25-.56-1.25-1.25v-9.5c0-.69.56-1.25 1.25-1.25h6.471c.403 0 .782.195 1.017.523l1.303 1.825c.517.723 1.35 1.152 2.238 1.152h4.971c.69 0 1.25.56 1.25 1.25v6c0 .69-.56 1.25-1.25 1.25z"/></g></svg>