<svg clip-rule="evenodd" fill-rule="evenodd" height="512" stroke-linejoin="round" stroke-miterlimit="2" viewBox="0 0 24 24" width="512" xmlns="http://www.w3.org/2000/svg"><g id="Icon"><path d="m18.467 19.75c.267 0 .514-.142.649-.373.134-.232.135-.517.002-.749 0 0-5.453-9.555-7.686-13.467-.326-.57-.931-.922-1.588-.922-.656 0-1.262.352-1.587.922-1.664 2.914-5.115 8.961-6.767 11.855-.323.566-.32 1.261.007 1.824s.929.91 1.581.91zm-1.292-1.5h-14.097c-.117 0-.225-.062-.284-.163-.058-.101-.059-.226-.001-.327l6.767-11.856c.058-.102.167-.165.284-.165.118 0 .227.063.285.165z"/><path d="m18.467 19.75h2.455c.652 0 1.254-.347 1.581-.91s.33-1.258.007-1.824l-4.502-7.888c-.326-.57-.932-.922-1.588-.922s-1.262.352-1.587.922l-1.07 1.874c-.205.36-.08.818.28 1.024.359.205.818.079 1.023-.28l1.069-1.874c.059-.102.167-.166.285-.166s.227.064.285.166c0 0 4.502 7.888 4.502 7.888.058.101.057.226-.001.327-.059.101-.167.163-.284.163h-2.455c-.414 0-.75.336-.75.75s.336.75.75.75z"/><path d="m9.844 11.429.706.706c.241.241.569.377.911.377s.67-.136.912-.377c.477-.478 1.235-1.236 1.235-1.236.293-.293.293-.768 0-1.061-.293-.292-.768-.292-1.06 0l-1.087 1.087-.705-.706c-.242-.241-.57-.377-.912-.377s-.669.136-.911.377l-.705.706-1.087-1.087c-.293-.292-.768-.292-1.061 0-.292.293-.292.768 0 1.061 0 0 .758.758 1.236 1.236.242.241.57.377.912.377.341 0 .669-.136.911-.377z"/></g></svg>