<svg clip-rule="evenodd" fill-rule="evenodd" stroke-linejoin="round" stroke-miterlimit="1.414" viewBox="0 0 32 32" xmlns="http://www.w3.org/2000/svg" xmlns:serif="http://www.serif.com/"><path id="wallet-finance-balance-money-pay" d="m0 0h32v32h-32z" fill="none"/><path d="m27.001 21.984v3.001c-.01 1.515-1.263 2.912-2.845 2.992-.039.002-.077.003-.115.004-5.354.033-10.709.016-16.063 0-2.562-.024-4.941-2.219-4.966-4.967-.016-5.018-.016-10.037 0-15.055.024-2.574 2.23-4.942 4.966-4.967 4.676-.015 9.352 0 14.028 0 1.564.01 2.986 1.363 2.996 2.995v1.174s.442.167.766.404c.737.538 1.201 1.422 1.231 2.344l.001.01v.007.002.005.008.004.002l.001.009v.007.004.019 1.024c-.004.084-.002.105-.018.189-.152.785-1.434 1.115-1.87.269-.275-.533.039-1.381-.236-1.95-.171-.304-.498-.522-.866-.529h-.011-.001-15.99c-.869-.036-1.381-1.388-.475-1.878.133-.072.206-.11.475-.121 4.999 0 9.997-.029 14.995-.005.001-.336.001-.671-.001-1.007-.01-.517-.465-.977-.987-.987-4.682-.029-9.363-.043-14.044 0-1.533.024-2.936 1.345-2.961 2.961-.047 5.023-.047 10.046 0 15.068.024 1.526 1.32 2.936 2.961 2.961 5.348.05 10.696.034 16.043.001.522-.01.983-.465.987-1.003v-2.993c-1.341.001-2.682.002-4.023-.003-1.715-.016-3.338-1.243-3.815-2.882-.385-1.325-.022-2.845.926-3.854.739-.786 1.798-1.25 2.889-1.26h7.021c.021.001.042.001.063.002.192.018.223.036.305.068.331.131.579.448.624.804.007.056.006.07.008.126v5.997c-.006.205-.028.261-.07.368-.131.33-.448.579-.804.624-.056.007-.07.006-.126.007-.333 0-.666.001-.999.001zm0-5.998h-5.996c-1.22.004-2.276 1.309-1.924 2.545.233.823 1.031 1.445 1.91 1.453h6.01z" fill-rule="nonzero"/></svg>