<svg clip-rule="evenodd" fill-rule="evenodd" height="512" stroke-linejoin="round" stroke-miterlimit="2" viewBox="0 0 24 24" width="512" xmlns="http://www.w3.org/2000/svg"><g id="Icon"><path d="m5 22.747c.966 0 1.75-.782 1.75-1.75v-8c0-.968-.784-1.75-1.75-1.75h-2c-.966 0-1.75.782-1.75 1.75v8c0 .968.784 1.75 1.75 1.75zm0-1.5h-2c-.138 0-.25-.112-.25-.25v-8c0-.138.112-.25.25-.25h2c.138 0 .25.112.25.25v8c0 .138-.112.25-.25.25z"/><path d="m16 16.747h-4c-.414 0-.75.336-.75.75s.336.75.75.75h4c.414 0 .75-.336.75-.75s-.336-.75-.75-.75z"/><path d="m16.749 16.598c-.042-1.582-1.337-2.851-2.928-2.851l-3.594.003c-.038 0-.074-.009-.108-.025-.002 0-.003-.001-.005-.002-1.239-.581-2.77-.976-4.114-.976-.414 0-.75.336-.75.75v7c0 .344.234.644.568.727l1.179.296c1.934.482 3.919.727 5.912.727h1.521c2.481 0 4.8-1.233 6.188-3.291 0 0 1.711-2.535 1.711-2.535.343-.422.491-.981.39-1.531-.001-.001-.001-.001-.001-.001-.273-1.471-2.195-1.976-3.254-.916l-2.385 2.385c-.098.098-.209.178-.33.24zm-.788 1.648.039.001h.139l.07-.001c.724-.018 1.416-.313 1.93-.826l2.385-2.387c.229-.229.66-.188.72.129.021.117-.012.234-.087.322-.018.022-.035.044-.051.067l-1.732 2.567c-1.108 1.644-2.961 2.629-4.944 2.629h-1.521c-1.871 0-3.734-.23-5.548-.683 0 0-.611-.153-.611-.153v-5.618c.931.108 1.905.403 2.728.788.23.11.488.169.749.169l3.594-.003c.789 0 1.429.64 1.429 1.43v.82c0 .401.315.729.711.749z"/><path d="m15.75 10.997v-9c0-.414-.336-.75-.75-.75s-.75.336-.75.75v9c0 .414.336.75.75.75s.75-.336.75-.75z"/><path d="m21.75 2.497c0-.414-.336-.75-.75-.75h-2.383c-2.411 0-4.367 1.954-4.367 4.367v.883c0 .414.336.75.75.75h2.383c2.411 0 4.367-1.954 4.367-4.366zm-1.5.75v.134c0 1.583-1.284 2.866-2.867 2.866h-1.633v-.133c0-1.584 1.284-2.867 2.867-2.867z"/><path d="m10.681 14.52c.752-1.634 2.404-2.77 4.319-2.77 1.845 0 3.445 1.054 4.232 2.592.188.368.641.514 1.009.326.369-.189.515-.641.326-1.01-1.035-2.022-3.141-3.408-5.567-3.408-2.52 0-4.693 1.494-5.681 3.644-.173.376-.008.822.368.995.376.172.822.007.994-.369z"/></g></svg>