<svg clip-rule="evenodd" fill-rule="evenodd" height="512" stroke-linejoin="round" stroke-miterlimit="2" viewBox="0 0 24 24" width="512" xmlns="http://www.w3.org/2000/svg"><g id="Icon"><path d="m3.189 21.702c0 .414.336.75.75.75h15.997c.414 0 .75-.336.75-.75 0-.993-.662-1.966-1.91-2.711-1.543-.921-4.03-1.539-6.838-1.539s-5.295.618-6.839 1.539c-1.247.745-1.91 1.718-1.91 2.711zm1.817-.75c.209-.24.508-.461.862-.672 1.368-.817 3.581-1.328 6.07-1.328s4.701.511 6.07 1.328c.354.211.653.432.861.672h-13.862z"/><path d="m12.679 19.813s.454-3.032 1.882-5.99c.915-1.897 2.226-3.78 4.123-4.729.371-.185.521-.636.336-1.006s-.636-.52-1.006-.335c-2.19 1.095-3.748 3.229-4.804 5.418-1.53 3.171-2.014 6.42-2.014 6.42-.061.41.222.792.631.853s.791-.222.852-.631z"/><path d="m12.681 19.801s.344-2.548-.25-5.564c-.607-3.078-2.19-6.619-6.008-8.528-.371-.185-.821-.035-1.007.336-.185.37-.034.821.336 1.006 3.335 1.667 4.677 4.788 5.207 7.476.542 2.751.235 5.076.235 5.076-.055.41.234.788.644.842.411.055.788-.233.843-.644z"/><path d="m13.708 12.561c.078.139.199.249.345.315 2.083.939 3.672 1.085 4.871.78 2.01-.51 3.052-2.285 3.504-4.291.612-2.714.157-5.796.157-5.796-.06-.4-.427-.681-.83-.634-4.98.587-7.226 2.265-8.18 3.96-1.523 2.705.133 5.666.133 5.666zm1.199-.949c-.278-.594-.943-2.35-.025-3.981.763-1.357 2.567-2.553 6.3-3.107.086.992.162 2.829-.217 4.511-.325 1.441-.966 2.801-2.41 3.168-.913.232-2.098.074-3.647-.59z"/><path d="m10.891 10.437c.136-.083.242-.208.302-.355 0 0 1.269-3.147-.584-5.638-1.16-1.561-3.6-2.942-8.615-2.894-.406.004-.734.329-.743.734 0 0-.062 3.114.888 5.729.702 1.933 1.96 3.562 4.018 3.814 1.228.151 2.786-.195 4.734-1.39zm-1.008-1.144c-1.453.854-2.608 1.161-3.543 1.046-1.479-.182-2.287-1.45-2.791-2.838-.589-1.621-.746-3.453-.786-4.447 3.773.078 5.714 1.036 6.643 2.285 1.117 1.502.678 3.329.478 3.953z"/></g></svg>