<svg clip-rule="evenodd" fill-rule="evenodd" height="512" stroke-linejoin="round" stroke-miterlimit="2" viewBox="0 0 24 24" width="512" xmlns="http://www.w3.org/2000/svg"><g id="Icon"><path d="m2 3.75h20c.414 0 .75-.336.75-.75s-.336-.75-.75-.75h-20c-.414 0-.75.336-.75.75s.336.75.75.75z"/><path d="m3 2.25c-.414 0-.75.336-.75.75v13c0 .967.784 1.75 1.75 1.75h16c.966 0 1.75-.783 1.75-1.75v-13c0-.414-.336-.75-.75-.75zm.75 1.5h16.5v12.25c0 .138-.112.25-.25.25h-16c-.138 0-.25-.112-.25-.25z"/><path d="m5.25 7v6c0 .967.784 1.75 1.75 1.75h3c.464 0 .909-.184 1.237-.513.329-.328.513-.773.513-1.237v-6c0-.967-.784-1.75-1.75-1.75-.871 0-2.129 0-3 0-.464 0-.909.184-1.237.513-.329.328-.513.773-.513 1.237zm1.5 0c0-.066.026-.13.073-.177s.111-.073.177-.073h3c.138 0 .25.112.25.25v6c0 .066-.026.13-.073.177s-.111.073-.177.073h-3c-.138 0-.25-.112-.25-.25z"/><path d="m12.75 19.5v-2.5c0-.414-.336-.75-.75-.75s-.75.336-.75.75v2.5c0 .414.336.75.75.75s.75-.336.75-.75z"/><path d="m12.75 3v-1c0-.414-.336-.75-.75-.75s-.75.336-.75.75v1c0 .414.336.75.75.75s.75-.336.75-.75z"/><path d="m14 7h2c.414 0 .75-.336.75-.75s-.336-.75-.75-.75h-2c-.414 0-.75.336-.75.75s.336.75.75.75z"/><path d="m14 12h2c.414 0 .75-.336.75-.75s-.336-.75-.75-.75h-2c-.414 0-.75.336-.75.75s.336.75.75.75z"/><path d="m14 9.5h4c.414 0 .75-.336.75-.75s-.336-.75-.75-.75h-4c-.414 0-.75.336-.75.75s.336.75.75.75z"/><path d="m14 14.5h4c.414 0 .75-.336.75-.75s-.336-.75-.75-.75h-4c-.414 0-.75.336-.75.75s.336.75.75.75z"/><path d="m8.936 22.61 3.064-2.188s3.064 2.188 3.064 2.188c.337.241.806.163 1.046-.174.241-.337.163-.806-.174-1.046l-3.5-2.5c-.26-.187-.611-.187-.871 0l-3.501 2.5c-.337.24-.415.709-.174 1.046.24.337.709.415 1.046.174z"/></g></svg>