<svg clip-rule="evenodd" fill-rule="evenodd" height="512" stroke-linejoin="round" stroke-miterlimit="2" viewBox="0 0 24 24" width="512" xmlns="http://www.w3.org/2000/svg"><g id="Icon"><path d="m20.75 10.855c0-1.088-.641-2.075-1.637-2.515-.002-.001-.004-.002-.006-.003-4.74-2.043-9.473-2.036-14.207.016-.001.001-.003.001-.004.002-.989.436-1.627 1.414-1.631 2.494-.015.906-.015 2.137-.015 3.12 0 1.311.925 2.44 2.211 2.697.767.154 1.664.333 2.342.469.902.18 1.834-.102 2.484-.752 0 0 1.536-1.536 1.536-1.536.098-.098.256-.098.354-.001 0 .001 1.536 1.537 1.536 1.537.65.65 1.582.932 2.484.752.678-.136 1.575-.315 2.342-.469 1.286-.257 2.211-1.386 2.211-2.697zm-1.5 0v3.114c0 .596-.421 1.109-1.005 1.226l-2.343.469c-.409.082-.833-.047-1.129-.342l-1.536-1.536c-.683-.684-1.791-.684-2.474 0l-1.536 1.536c-.296.295-.72.424-1.129.342l-2.343-.469c-.584-.117-1.005-.63-1.005-1.226 0-.977 0-2.2.015-3.099 0-.005 0-.009 0-.013 0-.489.288-.931.735-1.129 4.334-1.878 8.668-1.885 13.008-.016.451.201.742.649.742 1.143z"/><path d="m20 10.859h1c.138 0 .25.112.25.25v3c0 .138-.112.25-.25.25h-1c-.414 0-.75.336-.75.75s.336.75.75.75h1c.966 0 1.75-.783 1.75-1.75v-3c0-.966-.784-1.75-1.75-1.75h-1c-.414 0-.75.336-.75.75s.336.75.75.75z"/><path d="m4 9.359h-1c-.966 0-1.75.784-1.75 1.75v3c0 .967.784 1.75 1.75 1.75h1c.414 0 .75-.336.75-.75s-.336-.75-.75-.75h-1c-.138 0-.25-.112-.25-.25v-3c0-.138.112-.25.25-.25h1c.414 0 .75-.336.75-.75s-.336-.75-.75-.75z"/></g></svg>