<svg clip-rule="evenodd" fill-rule="evenodd" height="512" stroke-linejoin="round" stroke-miterlimit="2" viewBox="0 0 24 24" width="512" xmlns="http://www.w3.org/2000/svg"><g id="Icon"><path d="m11 22.75c.966 0 1.75-.782 1.75-1.75v-8c0-.967-.784-1.75-1.75-1.75h-8c-.966 0-1.75.783-1.75 1.75v8c0 .968.784 1.75 1.75 1.75zm0-1.5h-8c-.138 0-.25-.111-.25-.25v-8c0-.138.112-.25.25-.25h8c.138 0 .25.112.25.25v8c0 .139-.112.25-.25.25z"/><path d="m16.09 12.665c.299.061.599.085.91.085 3.174 0 5.75-2.576 5.75-5.75 0-3.173-2.576-5.75-5.75-5.75s-5.75 2.577-5.75 5.75c0 .346.026.682.098 1.003.09.404.491.659.895.569s.659-.491.569-.895c-.048-.217-.062-.443-.062-.677 0-2.345 1.904-4.25 4.25-4.25s4.25 1.905 4.25 4.25c0 2.346-1.904 4.25-4.25 4.25-.209 0-.409-.014-.61-.055-.406-.083-.802.18-.885.585-.083.406.18.802.585.885z"/><path d="m11.469 17.911.966.966c.952.951 2.578.518 2.928-.784l1.601-5.968 1.052-3.938c.349-1.301-.842-2.493-2.145-2.141.001 0-3.985 1.07-3.985 1.07l-5.916 1.582c-1.302.348-1.738 1.975-.786 2.928l.906.905c.293.292.768.292 1.06-.001.293-.293.293-.768 0-1.06l-.904-.904c-.137-.136-.075-.369.112-.419l5.916-1.582 3.988-1.071c.186-.05.355.12.305.305l-1.052 3.937s-1.6 5.968-1.6 5.968c-.051.186-.283.248-.419.112 0 0-.966-.966-.966-.966-.293-.293-.768-.293-1.061 0-.292.293-.292.768 0 1.061z"/></g></svg>