<svg clip-rule="evenodd" fill-rule="evenodd" stroke-linejoin="round" stroke-miterlimit="1.414" viewBox="0 0 32 32" xmlns="http://www.w3.org/2000/svg" xmlns:serif="http://www.serif.com/"><path id="gypsum-plaster-cast-treatment" d="m0 0h32v32h-32z" fill="none"/><path d="m24.999 8.63c-.001-.217-.003-.434-.005-.651-.024-1.528-1.344-2.934-2.959-2.959-1.025-.01-2.1-.145-2.995.157-1.175.396-2.033 1.567-2.037 2.839 0 0-.13.756-.672.944-.612.212-1.334-.299-1.325-1.008.001-.062.003-.124.006-.185.123-2.493 2.304-4.72 4.955-4.745 1.231-.004 2.453-.127 3.599.253 1.963.649 3.406 2.601 3.426 4.71.014 4.686.014 9.373 0 14.059-.033 3.523-3.02 6.782-6.689 6.942-.086.003-.173.005-.26.006-3.354.011-6.709.011-10.063 0-2.576-.024-4.938-2.27-4.963-4.963-.004-1.265-.125-2.526.282-3.684.674-1.919 2.597-3.32 4.681-3.339 1.326-.004 2.651.008 3.977 0 .033-.002.055-.001.072 0 .516-.016.973-.46.976-1.002v-3.992c.012-.245.109-.468.262-.64.155-.193.378-.331.65-.355.041-.004.083-.004.125-.004.16.012.252.017.476.142l3.571 2.142 4.925-1.97c-.001-.195-.001-.391-.002-.587l-5.328-1.776c-.705-.254-.888-1.383-.205-1.8.11-.067.233-.113.36-.134.064-.01.128-.013.193-.012.096.005.191.022.284.051zm-8.467 18.376-1.906-4.763-2.858 4.763c1.588.007 3.176.005 4.764 0zm8.474-8.428-.874-.525-6.549 6.204 1.097 2.742c.45-.002.901-.003 1.351-.005 2.585-.024 4.938-2.27 4.963-4.963.004-1.151.008-2.302.012-3.453zm-11.675.428c-1.119 0-2.238-.013-3.357-.002-.36.005-.712.082-1.041.218l1.834 2.126c.49.587.051 1.676-.786 1.651-.276-.009-.539-.137-.726-.346l-1.831-2.122c-.251.425-.401.913-.409 1.432-.012 1.311-.173 2.697.513 3.713.446.659 1.165 1.12 1.948 1.268l4.218-7.031zm3.672-5.23v2.234c-.007 1.107-.678 2.143-1.656 2.656l1.438 3.595 5.568-5.275zm8.014-.298-2.777 1.11 2.773 1.664c.003-.925.004-1.849.004-2.774z" fill-rule="nonzero"/></svg>