<svg clip-rule="evenodd" fill-rule="evenodd" height="512" stroke-linejoin="round" stroke-miterlimit="2" viewBox="0 0 24 24" width="512" xmlns="http://www.w3.org/2000/svg"><g id="Icon"><path d="m15.5 8.875c-1.518 0-2.75 1.232-2.75 2.75s1.232 2.75 2.75 2.75 2.75-1.232 2.75-2.75-1.232-2.75-2.75-2.75zm0 1.5c.69 0 1.25.56 1.25 1.25s-.56 1.25-1.25 1.25-1.25-.56-1.25-1.25.56-1.25 1.25-1.25z"/><path d="m16.47 13.905 1 1c.292.293.768.293 1.06 0 .293-.292.293-.768 0-1.06l-1-1c-.292-.293-.768-.293-1.06 0-.293.292-.293.768 0 1.06z"/><path d="m1.25 12c0 2.899 2.35 5.25 5.25 5.25h11c2.9 0 5.25-2.351 5.25-5.25s-2.35-5.25-5.25-5.25c-3.284 0-7.716 0-11 0-2.9 0-5.25 2.351-5.25 5.25zm1.5 0c0-2.071 1.679-3.75 3.75-3.75h11c2.071 0 3.75 1.679 3.75 3.75s-1.679 3.75-3.75 3.75h-11c-2.071 0-3.75-1.679-3.75-3.75z"/></g></svg>