<svg clip-rule="evenodd" fill-rule="evenodd" height="512" stroke-linejoin="round" stroke-miterlimit="2" viewBox="0 0 24 24" width="512" xmlns="http://www.w3.org/2000/svg"><g id="Icon"><path d="m20.75 12.592v-5.928c0-.66-.371-1.264-.96-1.562l-7-3.543c-.497-.251-1.083-.251-1.58 0l-7 3.543c-.589.298-.96.902-.96 1.562v5.928c0 3.031 1.568 5.846 4.145 7.44l3.684 2.28c.564.349 1.278.349 1.842 0l3.684-2.28c2.577-1.594 4.145-4.409 4.145-7.44zm-1.5-5.928v5.928c0 2.511-1.299 4.843-3.435 6.165 0 0-3.683 2.28-3.683 2.28-.081.049-.183.049-.264 0 0 0-3.683-2.28-3.683-2.28-2.136-1.322-3.435-3.654-3.435-6.165v-5.928c0-.094.053-.181.137-.223 0 0 7-3.543 7-3.543.071-.036.155-.036.226 0 0 0 7 3.543 7 3.543.084.042.137.129.137.223z"/><path d="m7.75 11.769v.5h-1.25c-.414 0-.75.336-.75.75 0 .413.336.75.75.75h1.5c.331 0 .649-.132.884-.367.234-.234.366-.552.366-.883 0-.306 0-.695 0-1 0-.332-.132-.65-.366-.884-.235-.235-.553-.366-.884-.366h-.75v-.5h1.25c.414 0 .75-.337.75-.75 0-.414-.336-.75-.75-.75h-1.5c-.331 0-.649.131-.884.366-.234.234-.366.552-.366.884v1c0 .331.132.649.366.883.235.235.553.367.884.367z"/><path d="m11.75 12.269v-2.5h1.25c.414 0 .75-.337.75-.75 0-.414-.336-.75-.75-.75h-1.5c-.331 0-.649.131-.884.366-.234.234-.366.552-.366.884v3c0 .331.132.649.366.883.235.235.553.367.884.367h1.5c.414 0 .75-.337.75-.75 0-.414-.336-.75-.75-.75z"/><path d="m11 11.769h1.5c.414 0 .75-.337.75-.75 0-.414-.336-.75-.75-.75h-1.5c-.414 0-.75.336-.75.75 0 .413.336.75.75.75z"/><path d="m18.25 9.519c0-.332-.132-.65-.366-.884-.235-.235-.553-.366-.884-.366-.305 0-.695 0-1 0-.331 0-.649.131-.884.366-.234.234-.366.552-.366.884v3c0 .331.132.649.366.883.235.235.553.367.884.367h1c.331 0 .649-.132.884-.367.234-.234.366-.552.366-.883zm-2 2.75h.5v-2.5h-.5z"/></g></svg>