<svg clip-rule="evenodd" fill-rule="evenodd" height="512" stroke-linejoin="round" stroke-miterlimit="2" viewBox="0 0 24 24" width="512" xmlns="http://www.w3.org/2000/svg"><g id="Icon"><path d="m14.002 14.695c0 .476-.189.932-.525 1.268s-.793.525-1.268.525h-1.461c-.414 0-.75-.336-.75-.75 0-.413.336-.75.75-.75h1.461c.078 0 .152-.03.207-.086.055-.055.086-.129.086-.207s-.031-.153-.086-.208-.129-.086-.207-.086h-.418c-.475 0-.932-.189-1.268-.525s-.525-.793-.525-1.268c0-.476.189-.932.525-1.269.336-.336.793-.525 1.268-.525h1.461c.414 0 .75.336.75.75s-.336.75-.75.75h-1.461c-.078 0-.152.031-.207.086s-.086.13-.086.208.031.152.086.207.129.086.207.086h.418c.475 0 .932.189 1.268.526.336.336.525.792.525 1.268z"/><path d="m12.75 11.564c0 .414-.336.75-.75.75s-.75-.336-.75-.75v-1.044c0-.413.336-.75.75-.75s.75.337.75.75z"/><path d="m12.75 16.782c0 .414-.336.75-.75.75s-.75-.336-.75-.75v-1.044c0-.413.336-.75.75-.75s.75.337.75.75z"/><path d="m21.667 5.88c0 1.014 0 2.88-.002 3.394 0 .144-.008.288-.024.431-1.076 9.749-9.366 12.993-9.366 12.993-.177.069-.373.069-.55 0 0 0-8.291-3.245-9.369-12.993-.016-.144-.024-.288-.023-.431v-3.394c0-.697.402-1.331 1.033-1.628l6.227-2.931c.332-.156.728-.049.936.252l1.566 2.259c.12.174.162.391.114.597 0 0-.175.747-.175.747l.84-.777.476-2.537c.043-.229.189-.424.396-.53.206-.105.45-.109.661-.011l6.227 2.931c.631.297 1.033.931 1.033 1.628zm-1.5 0c0-.116-.066-.221-.171-.271 0 0-5.351-2.517-5.351-2.517l-.342 1.827c-.03.158-.11.303-.228.412l-2.818 2.609c-.242.224-.601.264-.886.098s-.429-.498-.354-.819l.655-2.806-1.014-1.464-5.654 2.66c-.105.05-.171.155-.171.271v3.396c-.001.089.004.177.014.265.862 7.791 6.797 11.003 8.154 11.639 1.355-.636 7.29-3.849 8.149-11.64.01-.088.015-.177.015-.266v-.004c.002-.516.002-2.379.002-3.39z"/></g></svg>