<svg clip-rule="evenodd" fill-rule="evenodd" height="512" stroke-linejoin="round" stroke-miterlimit="2" viewBox="0 0 24 24" width="512" xmlns="http://www.w3.org/2000/svg"><g id="Icon"><path d="m11.606 2.513c0-.211-.089-.412-.244-.554-.156-.142-.365-.212-.575-.193-5.345.494-9.537 4.996-9.537 10.469 0 5.804 4.711 10.515 10.515 10.515 2.55 0 4.889-.91 6.71-2.422.159-.132.257-.325.269-.533.013-.207-.062-.41-.205-.56l-6.933-7.299zm-1.5.86v8.862c0 .193.074.378.206.517l6.563 6.908c-1.452 1.003-3.213 1.59-5.11 1.59-4.976 0-9.015-4.039-9.015-9.015 0-4.409 3.172-8.083 7.356-8.862zm12.641 9.853c.019-.21-.051-.419-.193-.575s-.343-.244-.554-.244h-7.53c-.303 0-.577.182-.693.463-.116.28-.052.602.163.817l5.323 5.323c.149.149.354.228.565.219.21-.01.407-.108.542-.27 1.317-1.586 2.177-3.565 2.377-5.733zm-1.608.681c-.233 1.255-.728 2.419-1.424 3.434 0 0-3.434-3.434-3.434-3.434zm-7.884-12.654c-.21-.019-.419.051-.575.193s-.244.343-.244.554v8.814c0 .415.335.75.75.75h8.814c.211 0 .412-.088.554-.244s.212-.365.193-.575c-.465-5.024-4.469-9.028-9.492-9.492zm.681 1.608c3.646.678 6.524 3.556 7.203 7.203h-7.203z"/></g></svg>