<svg clip-rule="evenodd" fill-rule="evenodd" height="512" stroke-linejoin="round" stroke-miterlimit="2" viewBox="0 0 24 24" width="512" xmlns="http://www.w3.org/2000/svg"><g id="Icon"><path d="m18.958 7.555c-.342-2.848-2.768-5.055-5.708-5.055h-1.25c-2.921 0-5.334 2.178-5.702 5h-.548c-2.485 0-4.5 2.015-4.5 4.5s2.015 4.5 4.5 4.5h12.5c2.485 0 4.5-2.015 4.5-4.5 0-2.244-1.643-4.105-3.792-4.445zm-1.458.695c0 .414.336.75.75.75 1.657 0 3 1.343 3 3s-1.343 3-3 3h-12.5c-1.657 0-3-1.343-3-3s1.343-3 3-3h1.25c.414 0 .75-.336.75-.75 0-2.348 1.903-4.25 4.25-4.25h1.25c2.347 0 4.25 1.902 4.25 4.25z"/><path d="m17.138 17.488-1.591 2.901c-.199.363-.066.82.297 1.019s.819.066 1.018-.297l1.591-2.901c.199-.363.066-.82-.297-1.019s-.819-.066-1.018.297z"/><path d="m12.138 17.488-1.591 2.901c-.199.363-.066.82.297 1.019s.819.066 1.018-.297l1.591-2.901c.199-.363.066-.82-.297-1.019s-.819-.066-1.018.297z"/><path d="m7.138 17.488-1.591 2.901c-.199.363-.066.82.297 1.019s.819.066 1.018-.297l1.591-2.901c.199-.363.066-.82-.297-1.019s-.819-.066-1.018.297z"/></g></svg>