<svg clip-rule="evenodd" fill-rule="evenodd" height="512" stroke-linejoin="round" stroke-miterlimit="2" viewBox="0 0 24 24" width="512" xmlns="http://www.w3.org/2000/svg"><g id="Icon"><circle cx="16.75" cy="5.25" r=".75"/><circle cx="12" cy="17.75" r=".75"/><circle cx="7.25" cy="5.25" r=".75"/><path d="m11.457 22.53c.293.293.768.293 1.061 0 0 0 .631-.631 1.194-1.167.004-.005.008-.009.012-.013.368-.368.853-.596 1.371-.644 2.966-.27 5.079-1.748 6.217-4.631 0-.001.001-.001.001-.002.356-.906.345-1.915-.03-2.813 0 0-1.486-3.566-1.486-3.566-.289-.695-.212-1.488.205-2.114l.727-1.09c.403-.605.39-1.396-.032-1.988l-1.689-2.364c-.431-.602-1.193-.869-1.905-.665l-1.842.526c-.476.136-.985.111-1.445-.071 0 0-1.553-.614-1.553-.614-.177-.07-.374-.07-.551 0l-1.553.614c-.461.182-.969.207-1.445.071l-1.842-.526c-.712-.204-1.475.063-1.905.665l-1.689 2.364c-.422.592-.435 1.383-.032 1.988l.727 1.09c.417.626.494 1.419.205 2.114-.466 1.117-1.089 2.613-1.468 3.586-.368.89-.376 1.888-.024 2.784 1.111 2.891 3.225 4.372 6.196 4.625.522.048 1.011.278 1.382.648 0 0 1.193 1.193 1.193 1.193zm.533-1.588-.666-.666c-.619-.618-1.433-1-2.304-1.081-.002 0-.004 0-.006-.001-2.362-.199-4.045-1.371-4.93-3.673-.001-.002-.001-.003-.002-.005-.211-.538-.205-1.136.017-1.67.002-.005.005-.011.007-.016.375-.964.994-2.451 1.456-3.559.482-1.158.354-2.48-.341-3.523 0 0-.727-1.09-.727-1.09-.057-.086-.056-.199.005-.284l1.689-2.364c.061-.086.17-.124.272-.095 0 0 1.841.526 1.841.526.795.227 1.642.185 2.41-.118l1.276-.505 1.277.505c.768.303 1.615.345 2.409.118 0 0 1.842-.526 1.842-.526.102-.029.211.009.272.095l1.689 2.364c.06.085.062.198.005.284-.001 0-.727 1.09-.727 1.09-.696 1.043-.824 2.365-.341 3.522l1.486 3.567c.224.539.231 1.144.018 1.688-.908 2.297-2.594 3.472-4.959 3.687-.001.001-.001.001-.002.001-.863.08-1.67.458-2.284 1.069z"/><path d="m12.624 7.274c-.137-.219-.378-.353-.637-.353-.258 0-.499.134-.636.353l-1.074 1.723s-1.97.489-1.97.489c-.252.063-.453.25-.533.496-.08.247-.027.517.139.715l1.306 1.554s-.143 2.025-.143 2.025c-.018.258.098.507.307.659.21.153.483.186.723.089l1.881-.762s1.882.762 1.882.762c.24.097.513.064.722-.089.21-.152.326-.401.308-.659l-.144-2.025s1.306-1.554 1.306-1.554c.167-.198.22-.468.14-.715-.08-.246-.282-.433-.533-.496l-1.97-.489s-1.074-1.723-1.074-1.723zm-.637 1.815.599.959c.103.166.266.284.456.331l1.097.273s-.727.866-.727.866c-.126.149-.188.341-.174.536l.079 1.128s-1.048-.425-1.048-.425c-.181-.073-.383-.073-.563 0l-1.049.425s.08-1.128.08-1.128c.014-.195-.048-.387-.174-.536l-.728-.866s1.098-.273 1.098-.273c.189-.047.353-.165.456-.331z"/></g></svg>