<svg clip-rule="evenodd" fill-rule="evenodd" height="512" stroke-linejoin="round" stroke-miterlimit="2" viewBox="0 0 24 24" width="512" xmlns="http://www.w3.org/2000/svg"><g id="Icon"><path d="m19.748 8.053c.015-.207-.057-.412-.199-.564s-.341-.239-.549-.239h-14c-.208 0-.407.087-.549.239s-.214.357-.199.564c0 0 .595 8.335.867 12.143.103 1.439 1.3 2.554 2.743 2.554h8.276c1.443 0 2.64-1.115 2.743-2.554.272-3.808.867-12.143.867-12.143zm-1.553.697-.81 11.339c-.047.654-.591 1.161-1.247 1.161h-8.276c-.656 0-1.2-.507-1.247-1.161 0 0-.81-11.339-.81-11.339z"/><path d="m19 8.75c.231 0 .449-.106.591-.288s.193-.42.137-.644c0 0-.908-3.629-1.311-5.242-.195-.779-.895-1.326-1.698-1.326-2.022 0-7.416 0-9.438 0-.803 0-1.503.547-1.698 1.326-.403 1.613-1.311 5.242-1.311 5.242-.056.224-.005.462.137.644s.36.288.591.288zm-.961-1.5h-12.078l1.077-4.311c.028-.111.128-.189.243-.189h9.438c.115 0 .215.078.243.189z"/><path d="m7.26 2.623s.213 1.277.361 2.165c.141.844.871 1.462 1.726 1.462h5.306c.855 0 1.585-.618 1.726-1.462.148-.888.361-2.165.361-2.165.068-.408-.208-.795-.617-.863-.408-.068-.795.208-.863.617 0 0-.213 1.276-.361 2.164-.02.121-.124.209-.246.209h-5.306c-.122 0-.226-.088-.246-.209-.148-.888-.361-2.164-.361-2.164-.068-.409-.455-.685-.863-.617-.409.068-.685.455-.617.863z"/><path d="m19.75 7.25h-15.5c-.414 0-.75.336-.75.75s.336.75.75.75h15.5c.414 0 .75-.336.75-.75s-.336-.75-.75-.75z"/><path d="m10.801 17.446h-1.233c-.113 0-.218-.06-.275-.158-.057-.099-.057-.219-.001-.318l.563-.985c.205-.359.08-.818-.279-1.023-.36-.205-.818-.08-1.024.279l-.562.985c-.322.563-.32 1.254.006 1.814.325.561.924.906 1.572.906h1.233c.414 0 .75-.336.75-.75s-.336-.75-.75-.75z"/><path d="m11.053 13.888.671-1.174c.056-.099.162-.16.276-.16s.22.061.276.16l.671 1.174c.205.359.664.484 1.023.279.36-.205.485-.664.279-1.023l-.67-1.174c-.324-.566-.927-.916-1.579-.916s-1.255.35-1.579.916c0 0-.67 1.174-.67 1.174-.206.359-.081.818.279 1.023.359.205.818.08 1.023-.279z"/><path d="m14.252 16.171.456.799c.056.099.056.219-.001.318-.057.098-.162.158-.275.158h-1.233c-.414 0-.75.336-.75.75s.336.75.75.75h1.233c.648 0 1.247-.345 1.572-.906.326-.56.328-1.251.006-1.814 0 0-.456-.799-.456-.799-.205-.359-.664-.485-1.023-.279-.36.205-.485.664-.279 1.023z"/></g></svg>