<svg clip-rule="evenodd" fill-rule="evenodd" height="512" stroke-linejoin="round" stroke-miterlimit="2" viewBox="0 0 24 24" width="512" xmlns="http://www.w3.org/2000/svg"><g id="Icon"><path d="m7.75 10.24c0 .35-.147.684-.405.921-.001.001-.002.002-.003.003-1.298 1.203-2.092 2.927-2.092 4.836 0 3.725 3.025 6.75 6.75 6.75s6.75-3.025 6.75-6.75c0-1.903-.789-3.623-2.057-4.85-.005-.005-.01-.009-.015-.014-.251-.23-.394-.555-.394-.896 0-.038-.003-.076-.008-.114-.029-.189-.026-.402-.026-.626 0-.995-.395-1.948-1.098-2.652-.704-.703-1.657-1.098-2.652-1.098-.331 0-.669 0-1 0-.995 0-1.948.395-2.652 1.098-.703.704-1.098 1.657-1.098 2.652zm1.5.001v-.741c0-.597.237-1.169.659-1.591s.994-.659 1.591-.659h1c.597 0 1.169.237 1.591.659s.659.994.659 1.591c0 .286.003.558.036.803.014.728.327 1.428.868 1.929.984.954 1.596 2.29 1.596 3.768 0 2.898-2.352 5.25-5.25 5.25s-5.25-2.352-5.25-5.25c0-1.474.609-2.807 1.612-3.736.564-.518.888-1.253.888-2.023z"/><path d="m7.86 16.657c.348 1.617 1.619 2.893 3.234 3.245.404.089.804-.168.892-.572.089-.404-.168-.805-.572-.893-1.042-.228-1.863-1.051-2.087-2.094-.087-.405-.486-.663-.891-.576-.404.087-.662.486-.576.89z"/><path d="m12.74 6.623s.243-1.469-.2-2.87c-.324-1.024-.995-2.003-2.29-2.46-.391-.138-.82.067-.957.457-.138.391.067.82.457.957.996.352 1.349 1.239 1.484 2.015.152.877.026 1.655.026 1.655-.068.409.209.795.617.863.409.068.795-.209.863-.617z"/><path d="m11.968 7.247.032.003h1.836c1.17 0 2.293-.465 3.121-1.293s1.293-1.953 1.293-3.124c0-.414-.336-.75-.75-.75h-1.833c-2.44 0-4.417 1.978-4.417 4.417 0 .618.574.729.718.747zm.88-1.497c.33-1.247 1.467-2.167 2.819-2.167h.985c-.131.493-.389.947-.756 1.313-.546.547-1.287.854-2.06.854z"/></g></svg>