<svg clip-rule="evenodd" fill-rule="evenodd" height="512" stroke-linejoin="round" stroke-miterlimit="2" viewBox="0 0 24 24" width="512" xmlns="http://www.w3.org/2000/svg"><g id="Icon"><path d="m10.25 15c0-.966-.783-1.75-1.75-1.75h-3.5c-.967 0-1.75.784-1.75 1.75v7c0 .414.336.75.75.75h5.5c.414 0 .75-.336.75-.75zm-1.5 0v6.25h-4v-6.25c0-.138.112-.25.25-.25h3.5c.138 0 .25.112.25.25z"/><path d="m15.75 12.5c0-.966-.783-1.75-1.75-1.75h-3.5c-.967 0-1.75.784-1.75 1.75v9.5c0 .414.336.75.75.75h5.5c.414 0 .75-.336.75-.75zm-1.5 0v8.75h-4v-8.75c0-.138.112-.25.25-.25h3.5c.138 0 .25.112.25.25z"/><path d="m21.25 17c0-.966-.783-1.75-1.75-1.75h-3.5c-.967 0-1.75.784-1.75 1.75v5c0 .414.336.75.75.75h5.5c.414 0 .75-.336.75-.75zm-1.5 0v4.25h-4v-4.25c0-.138.112-.25.25-.25h3.5c.138 0 .25.112.25.25z"/><path d="m10.947 2.015-.493 1.519h-1.597c-.48 0-.905.308-1.053.764s.014.956.402 1.238l1.292.939-.493 1.519c-.148.456.014.955.402 1.237s.913.282 1.301 0l1.292-.939 1.292.939c.388.282.913.282 1.301 0s.55-.781.402-1.237l-.493-1.519 1.292-.939c.388-.282.55-.782.402-1.238s-.573-.764-1.053-.764h-1.597l-.493-1.519c-.149-.456-.574-.765-1.053-.765s-.904.309-1.053.765zm1.053 1.614.288.886c.1.309.388.519.713.519h.932l-.754.547c-.263.191-.373.53-.272.839l.288.886-.754-.548c-.263-.191-.619-.191-.882 0l-.754.548.288-.886c.101-.309-.009-.648-.272-.839l-.754-.547h.932c.325 0 .613-.21.713-.519z"/><path d="m22 21.25h-20c-.414 0-.75.336-.75.75s.336.75.75.75h20c.414 0 .75-.336.75-.75s-.336-.75-.75-.75z"/></g></svg>