<svg clip-rule="evenodd" fill-rule="evenodd" height="512" stroke-linejoin="round" stroke-miterlimit="2" viewBox="0 0 24 24" width="512" xmlns="http://www.w3.org/2000/svg"><g id="Icon"><path d="m22.75 4.5c0-.729-.29-1.429-.805-1.945-.516-.515-1.216-.805-1.945-.805-3.832 0-12.168 0-16 0-.729 0-1.429.29-1.945.805-.515.516-.805 1.216-.805 1.945v11c0 .729.29 1.429.805 1.945.516.515 1.216.805 1.945.805h16c.729 0 1.429-.29 1.945-.805.515-.516.805-1.216.805-1.945zm-1.5 0v11c0 .332-.132.649-.366.884-.235.234-.552.366-.884.366h-16c-.332 0-.649-.132-.884-.366-.234-.235-.366-.552-.366-.884v-11c0-.332.132-.649.366-.884.235-.234.552-.366.884-.366h16c.332 0 .649.132.884.366.234.235.366.552.366.884z"/><path d="m6.425 22.209 2.601-.896c1.92-.663 4.004-.674 5.932-.034 1.434.477 2.805.933 2.805.933.393.13.818-.083.949-.475.13-.393-.083-.818-.475-.949 0 0-1.372-.456-2.806-.932-2.24-.744-4.663-.731-6.894.038-1.344.464-2.601.897-2.601.897-.391.135-.599.562-.464.953.135.392.562.6.953.465z"/><path d="m11.116 12.366c.488-.487 1.28-.487 1.768 0 .488.488.488 1.28 0 1.768s-1.28.488-1.768 0-.488-1.28 0-1.768z"/><path d="m9.267 11.371c1.508-1.509 3.958-1.509 5.466 0 .293.292.768.292 1.061 0 .293-.293.293-.768 0-1.061-2.094-2.094-5.494-2.094-7.588 0-.293.293-.293.768 0 1.061.293.292.768.292 1.061 0z"/><path d="m6.873 9.27c2.83-2.829 7.424-2.829 10.254 0 .292.293.767.293 1.06 0s.293-.768 0-1.06c-3.415-3.415-8.959-3.415-12.374 0-.293.292-.293.767 0 1.06s.768.293 1.06 0z"/></g></svg>