<svg clip-rule="evenodd" fill-rule="evenodd" height="512" stroke-linejoin="round" stroke-miterlimit="2" viewBox="0 0 24 24" width="512" xmlns="http://www.w3.org/2000/svg"><g id="Icon"><path d="m15.25 2.75v5.75h-3.75c-.414 0-.75.336-.75.75s.336.75.75.75h4.5c.414 0 .75-.336.75-.75v-6.75c0-.332-.132-.649-.366-.884-.235-.234-.552-.366-.884-.366-1.221 0-4.875 0-6.5 0-.464 0-.909.184-1.237.513-.329.328-.513.773-.513 1.237v8c0 .414.336.75.75.75s.75-.336.75-.75c0 0 0-5.704 0-8 0-.066.026-.13.073-.177s.111-.073.177-.073z"/><path d="m16.75 9.25c0-.414-.336-.75-.75-.75 0 0-5.461 0-6.376 0-.63 0-1.233.25-1.679.695-.445.446-.695 1.049-.695 1.679v.002c0 1.311 1.063 2.374 2.374 2.374h5.876c.332 0 .649-.132.884-.366.234-.235.366-.552.366-.884zm-1.5 2.5h-5.626c-.483 0-.874-.391-.874-.874v-.002c0-.232.092-.454.256-.618s.386-.256.618-.256h5.626z"/><path d="m22 21.25h-20c-.414 0-.75.336-.75.75s.336.75.75.75h20c.414 0 .75-.336.75-.75s-.336-.75-.75-.75z"/><path d="m8 6.25h-2.5c-.729 0-1.429.29-1.945.805-.515.516-.805 1.216-.805 1.945v8.5c0 .729.29 1.429.805 1.945.516.515 1.216.805 1.945.805h13c.729 0 1.429-.29 1.945-.805.515-.516.805-1.216.805-1.945 0-2.444 0-6.056 0-8.5 0-.729-.29-1.429-.805-1.945-.516-.515-1.216-.805-1.945-.805h-2.5c-.414 0-.75.336-.75.75s.336.75.75.75h2.5c.332 0 .649.132.884.366.234.235.366.552.366.884v8.5c0 .332-.132.649-.366.884-.235.234-.552.366-.884.366h-13c-.332 0-.649-.132-.884-.366-.234-.235-.366-.552-.366-.884 0-2.444 0-6.056 0-8.5 0-.332.132-.649.366-.884.235-.234.552-.366.884-.366h2.5c.414 0 .75-.336.75-.75s-.336-.75-.75-.75z"/></g></svg>