<svg clip-rule="evenodd" fill-rule="evenodd" height="512" stroke-linejoin="round" stroke-miterlimit="2" viewBox="0 0 24 24" width="512" xmlns="http://www.w3.org/2000/svg"><g id="Icon"><path d="m5.506 18.494c1.939 1.94 5.085 1.94 7.024 0 0 0 5.964-5.964 5.964-5.964 1.94-1.939 1.94-5.085 0-7.024-1.939-1.94-5.085-1.94-7.024 0l-5.964 5.964c-1.94 1.939-1.94 5.085 0 7.024zm1.061-1.061c-1.354-1.353-1.354-3.549 0-4.903l5.963-5.963c1.354-1.354 3.55-1.354 4.903 0 1.354 1.353 1.354 3.549 0 4.903 0 0-5.963 5.963-5.963 5.963-1.354 1.354-3.55 1.354-4.903 0z"/><path d="m17.433 6.567c.737.736 1.055 1.721.99 2.684-.021.312.154.604.438.733.285.129.62.069.841-.152l2.558-2.558c.683-.684.683-1.792 0-2.475l-3.059-3.059c-.683-.683-1.791-.683-2.475 0l-2.558 2.558c-.221.221-.281.556-.152.841.129.284.421.459.733.438.963-.065 1.948.253 2.684.99zm1.061-1.061c-.622-.622-1.366-1.038-2.155-1.256-.001 0 1.448-1.449 1.448-1.449.098-.098.256-.098.354 0 0 0 3.058 3.058 3.058 3.058.098.098.098.256 0 .354 0 0-1.449 1.449-1.449 1.449-.218-.79-.634-1.534-1.256-2.156z"/><path d="m6.567 17.433c-.737-.736-1.055-1.721-.99-2.684.021-.312-.154-.604-.438-.733-.285-.129-.62-.069-.841.152l-2.558 2.558c-.683.684-.683 1.792 0 2.475l3.059 3.059c.683.683 1.791.683 2.475 0l2.558-2.558c.221-.221.281-.556.152-.841-.129-.284-.421-.459-.733-.438-.963.065-1.948-.253-2.684-.99zm-1.061 1.061c.622.622 1.366 1.038 2.155 1.256.001 0-1.448 1.449-1.448 1.449-.098.098-.256.098-.354 0 0 0-3.058-3.058-3.058-3.058-.098-.098-.098-.256 0-.354 0 0 1.449-1.449 1.449-1.449.218.79.634 1.534 1.256 2.156z"/><path d="m12.961 11.039c1.115 1.116 2.926 1.116 4.042 0 1.116-1.115 1.116-2.926 0-4.042s-2.927-1.116-4.042 0c-.293.292-.293.768 0 1.06.292.293.768.293 1.06 0 .531-.53 1.391-.53 1.922 0 .53.531.53 1.391 0 1.922-.531.53-1.391.53-1.922 0-.292-.293-.768-.293-1.06 0-.293.292-.293.768 0 1.06z"/><path d="m9.548 15.943-1.491-1.491c-.292-.293-.768-.293-1.06 0-.293.292-.293.768 0 1.06l1.491 1.491c.292.293.768.293 1.06 0 .293-.292.293-.768 0-1.06z"/></g></svg>