<svg clip-rule="evenodd" fill-rule="evenodd" height="512" stroke-linejoin="round" stroke-miterlimit="2" viewBox="0 0 24 24" width="512" xmlns="http://www.w3.org/2000/svg"><g id="Icon"><circle cx="10" cy="13.5" r="1.5"/><circle cx="14.5" cy="16.5" r="1.5"/><circle cx="5.5" cy="16.5" r="1.5"/><circle cx="18.5" cy="12" r="1.5"/><path d="m20 21.75c.729 0 1.429-.29 1.945-.805.515-.516.805-1.216.805-1.945 0-3.463 0-10.537 0-14 0-.729-.29-1.429-.805-1.945-.516-.515-1.216-.805-1.945-.805-3.832 0-12.168 0-16 0-.729 0-1.429.29-1.945.805-.515.516-.805 1.216-.805 1.945v14c0 .729.29 1.429.805 1.945.516.515 1.216.805 1.945.805zm0-1.5h-16c-.332 0-.649-.132-.884-.366-.234-.235-.366-.552-.366-.884v-14c0-.332.132-.649.366-.884.235-.234.552-.366.884-.366h16c.332 0 .649.132.884.366.234.235.366.552.366.884v14c0 .332-.132.649-.366.884-.235.234-.552.366-.884.366z"/><path d="m2 8.75h20c.414 0 .75-.336.75-.75s-.336-.75-.75-.75h-20c-.414 0-.75.336-.75.75s.336.75.75.75z"/><path d="m8.5 6.25h1c.414 0 .75-.336.75-.75s-.336-.75-.75-.75h-1c-.414 0-.75.336-.75.75s.336.75.75.75z"/><path d="m5 6.25h1c.414 0 .75-.336.75-.75s-.336-.75-.75-.75h-1c-.414 0-.75.336-.75.75s.336.75.75.75z"/><path d="m5.916 17.124 4.084-2.723s4.084 2.723 4.084 2.723c.311.208.728.154.977-.126l4-4.5c.275-.309.247-.784-.063-1.059-.309-.275-.784-.247-1.059.063l-3.566 4.012s-3.957-2.638-3.957-2.638c-.252-.168-.58-.168-.832 0l-4.5 3c-.344.23-.438.696-.208 1.04s.696.438 1.04.208z"/></g></svg>