<svg clip-rule="evenodd" fill-rule="evenodd" height="512" stroke-linejoin="round" stroke-miterlimit="2" viewBox="0 0 24 24" width="512" xmlns="http://www.w3.org/2000/svg"><g id="Icon"><path d="m17.5 15.25c1.242 0 2.25 1.008 2.25 2.25s-1.008 2.25-2.25 2.25-2.25-1.008-2.25-2.25 1.008-2.25 2.25-2.25zm0 1.5c-.414 0-.75.336-.75.75s.336.75.75.75.75-.336.75-.75-.336-.75-.75-.75z"/><path d="m22.75 9v11c0 .729-.29 1.429-.805 1.945-.516.515-1.216.805-1.945.805h-16c-.729 0-1.429-.29-1.945-.805-.515-.516-.805-1.216-.805-1.945v-11c0-.729.29-1.429.805-1.945.516-.515 1.216-.805 1.945-.805h16c.729 0 1.429.29 1.945.805.515.516.805 1.216.805 1.945zm-1.5 0c0-.332-.132-.649-.366-.884-.235-.234-.552-.366-.884-.366h-16c-.332 0-.649.132-.884.366-.234.235-.366.552-.366.884v11c0 .332.132.649.366.884.235.234.552.366.884.366h16c.332 0 .649-.132.884-.366.234-.235.366-.552.366-.884z"/><path d="m19.75 10.5v2.5c0 .69-.56 1.25-1.25 1.25h-13c-.69 0-1.25-.56-1.25-1.25v-2.5c0-.69.56-1.25 1.25-1.25h13c.69 0 1.25.56 1.25 1.25zm-14 2.25h12.5v-2h-12.5z"/><path d="m5.31 7.683c-.376.171-.821.004-.993-.373-.171-.376-.004-.821.373-.993l11-5c.376-.171.821-.004.993.373.171.376.004.821-.373.993z"/><path d="m16.75 13.5c0 .414-.336.75-.75.75s-.75-.336-.75-.75v-3.5c0-.414.336-.75.75-.75s.75.336.75.75z"/><path d="m10 15.75c.414 0 .75.336.75.75s-.336.75-.75.75h-4c-.414 0-.75-.336-.75-.75s.336-.75.75-.75z"/><path d="m10 18.25c.414 0 .75.336.75.75s-.336.75-.75.75h-4c-.414 0-.75-.336-.75-.75s.336-.75.75-.75z"/></g></svg>