<svg clip-rule="evenodd" fill-rule="evenodd" height="512" stroke-linejoin="round" stroke-miterlimit="2" viewBox="0 0 24 24" width="512" xmlns="http://www.w3.org/2000/svg"><g id="Icon"><path d="m20.69 3c0-.464-.185-.909-.513-1.237-.328-.329-.773-.513-1.237-.513h-13.88c-.464 0-.909.184-1.237.513-.328.328-.513.773-.513 1.237v2.176c0 .414.336.75.75.75h15.88c.414 0 .75-.336.75-.75zm-1.5 0v1.426h-14.38v-1.426c0-.066.027-.13.073-.177.047-.047.111-.073.177-.073h13.88c.066 0 .13.026.177.073.046.047.073.111.073.177z"/><path d="m20.642 4.913c-.11-.293-.39-.487-.702-.487h-15.88c-.312 0-.592.194-.702.487 0 0-.26.692-.569 1.518-.706 1.88-1.067 3.872-1.067 5.881v7.876c0 .871.641 1.61 1.503 1.733l5.725.818c.838.119 1.641-.377 1.908-1.179l1.142-3.426 1.142 3.426c.267.802 1.07 1.298 1.908 1.179l5.725-.818c.862-.123 1.503-.862 1.503-1.733 0-1.644 0-5.282 0-7.876 0-2.009-.361-4.001-1.067-5.881-.309-.826-.569-1.518-.569-1.518zm-1.222 1.013.387 1.031c.642 1.712.971 3.526.971 5.355v7.876c0 .125-.092.23-.215.248 0 0-5.726.818-5.726.818-.119.017-.234-.054-.272-.169 0 0-1.853-5.56-1.853-5.56-.103-.306-.389-.513-.712-.513s-.609.207-.712.513l-1.853 5.56c-.038.115-.153.186-.272.169 0 0-5.726-.818-5.726-.818-.123-.018-.215-.123-.215-.248v-7.876c0-1.829.329-3.643.971-5.355 0 0 .387-1.031.387-1.031z"/><path d="m10.554 9.746 2.117-4.235c.185-.37.035-.821-.336-1.006-.37-.185-.821-.035-1.006.336l-2.117 4.234c-.185.37-.035.821.335 1.006.371.185.821.035 1.007-.335z"/><path d="m11.329 5.511 2.117 4.235c.186.37.636.52 1.007.335.37-.185.52-.636.335-1.006l-2.117-4.234c-.185-.371-.636-.521-1.006-.336-.371.185-.521.636-.336 1.006z"/></g></svg>