<svg clip-rule="evenodd" fill-rule="evenodd" height="512" stroke-linejoin="round" stroke-miterlimit="2" viewBox="0 0 24 24" width="512" xmlns="http://www.w3.org/2000/svg"><g id="Icon"><path d="m16.266 1.896c-.414-.413-.975-.646-1.561-.646-.585 0-1.146.233-1.56.646-1.012 1.012-2.404 2.404-2.404 2.404-.293.293-.293.768 0 1.061l2.061 2.06c.292.293.767.293 1.06 0 0 0 1.392-1.392 2.404-2.404.414-.413.646-.975.646-1.56s-.232-1.147-.646-1.561zm-1.061 1.061c.133.133.207.312.207.5 0 .187-.074.367-.207.5 0 0-1.873 1.873-1.873 1.873s-1-1-1-1 1.874-1.873 1.874-1.873c.132-.133.312-.207.499-.207.188 0 .368.074.5.207z"/><path d="m22.104 7.734c-.414-.414-.976-.646-1.561-.646s-1.147.232-1.56.646c-1.012 1.012-2.404 2.404-2.404 2.404-.293.293-.293.768 0 1.06l2.06 2.061c.293.293.768.293 1.061 0 0 0 1.392-1.392 2.404-2.404.413-.414.646-.975.646-1.56 0-.586-.233-1.147-.646-1.561zm-1.061 1.061c.133.132.207.312.207.5 0 .187-.074.367-.207.499 0 0-1.873 1.874-1.873 1.874s-1-1-1-1 1.873-1.873 1.873-1.873c.133-.133.313-.207.5-.207.188 0 .367.074.5.207z"/><path d="m14.549 7.047-3.434-3.434c-.293-.292-.768-.292-1.061 0-.292.293-.292.768 0 1.061l3.434 3.434c.293.293.768.293 1.061 0s.293-.768 0-1.061z"/><path d="m20.387 12.885-3.434-3.434c-.293-.293-.768-.293-1.061 0s-.293.768 0 1.061l3.434 3.434c.293.292.768.292 1.061 0 .292-.293.292-.768 0-1.061z"/><path d="m5.621 14.602-2.06-2.06c-.293-.293-.768-.293-1.061 0-.293.292-.293.767 0 1.06l2.06 2.061c.293.292.768.292 1.061 0 .293-.293.293-.768 0-1.061z"/><path d="m11.458 20.439-2.06-2.06c-.293-.293-.768-.293-1.061 0-.292.293-.292.768 0 1.061l2.061 2.06c.293.293.768.293 1.06 0 .293-.293.293-.768 0-1.061z"/><path d="m11.771 5.33-10.301 10.302c-.293.293-.293.768 0 1.061.292.292.768.292 1.06 0l10.302-10.302c.293-.293.293-.768 0-1.061-.293-.292-.768-.292-1.061 0z"/><path d="m17.609 11.168-10.302 10.302c-.292.292-.292.768 0 1.06.293.293.768.293 1.061 0l10.302-10.301c.292-.293.292-.768 0-1.061-.293-.293-.768-.293-1.061 0z"/></g></svg>