<svg clip-rule="evenodd" fill-rule="evenodd" stroke-linejoin="round" stroke-miterlimit="2" viewBox="0 0 32 32" xmlns="http://www.w3.org/2000/svg" xmlns:serif="http://www.serif.com/"><path id="dial-pad-number-phone" d="m0 0h32v32h-32z" fill="none"/><path d="m22.029 5.019c1.546.028 2.928 1.364 2.958 2.958.041 6.682.041 9.364 0 16.046-.029 1.541-1.339 2.928-2.958 2.958-4.019.025-8.039.025-12.058 0-1.545-.029-2.928-1.364-2.958-2.958-.041-6.682-.041-9.364 0-16.046.029-1.546 1.365-2.929 2.958-2.958 4.019-.025 8.039-.025 12.058 0zm-12.017 1.997c-.522.003-.992.456-1.002.986-.041 6.669-.124 9.34 0 16.009.016.51.467.964.986.973 4.007.025 8.014.075 12.02 0 .513-.016.964-.469.974-.986.041-6.669.124-9.34 0-16.009-.016-.511-.467-.964-.986-.973-3.997-.025-7.995 0-11.992 0zm5.988 13.984c.552 0 1 .448 1 1s-.448 1-1 1-1-.448-1-1 .448-1 1-1zm0-4c.552 0 1 .448 1 1s-.448 1-1 1-1-.448-1-1 .448-1 1-1zm4 0c.552 0 1 .448 1 1s-.448 1-1 1-1-.448-1-1 .448-1 1-1zm-8 0c.552 0 1 .448 1 1s-.448 1-1 1-1-.448-1-1 .448-1 1-1zm4-4c.552 0 1 .448 1 1s-.448 1-1 1-1-.448-1-1 .448-1 1-1zm4 0c.552 0 1 .448 1 1s-.448 1-1 1-1-.448-1-1 .448-1 1-1zm-8 0c.552 0 1 .448 1 1s-.448 1-1 1-1-.448-1-1 .448-1 1-1zm4-4c.552 0 1 .448 1 1s-.448 1-1 1-1-.448-1-1 .448-1 1-1zm4 0c.552 0 1 .448 1 1s-.448 1-1 1-1-.448-1-1 .448-1 1-1zm-8 0c.552 0 1 .448 1 1s-.448 1-1 1-1-.448-1-1 .448-1 1-1z"/></svg>