<svg clip-rule="evenodd" fill-rule="evenodd" height="512" stroke-linejoin="round" stroke-miterlimit="2" viewBox="0 0 24 24" width="512" xmlns="http://www.w3.org/2000/svg"><g id="Icon"><circle cx="12.626" cy="8.528" r=".767"/><circle cx="10.069" cy="11.341" r=".767"/><circle cx="8.279" cy="5.97" r=".767"/><circle cx="6.489" cy="9.806" r=".767"/><path d="m7.914 16.174c1.889-.845 10.864-4.86 13.948-6.239.454-.203.746-.654.746-1.152 0-.497-.292-.948-.746-1.151-3.085-1.38-12.061-5.395-13.954-6.233-.407-.183-.871-.203-1.295-.056-.004.001-.007.002-.011.004-3.038 1.104-5.21 4.019-5.21 7.436s2.171 6.331 5.206 7.444c.004.001.008.003.013.005.426.147.892.126 1.304-.058zm12.849-7.391-13.462 6.022c-.059.026-.126.031-.188.013-2.464-.907-4.221-3.267-4.221-6.035 0-2.767 1.757-5.127 4.216-6.024.062-.02.13-.017.19.01.001 0 .002.001.003.001 1.801.798 10.015 4.471 13.462 6.013z"/><path d="m21.108 8.787v5.534c0 .493-.289.939-.739 1.141l-12.696 5.679c-.321.143-.686.145-1.008.006-2.223-1.022-3.773-3.262-3.773-5.862v-6.498c0-.414-.336-.75-.75-.75s-.75.336-.75.75v6.498c0 3.206 1.911 5.97 4.649 7.226.004.002.007.003.01.005.712.314 1.524.312 2.235-.006 2.349-1.051 9.786-4.378 12.695-5.679.99-.443 1.627-1.426 1.627-2.51 0-1.981 0-5.534 0-5.534 0-.414-.336-.75-.75-.75s-.75.336-.75.75z"/><path d="m21.552 11.645-13.879 6.209c-.321.143-.686.145-1.008.006-2.223-1.022-3.773-3.262-3.773-5.862 0-.414-.336-.75-.75-.75s-.75.336-.75.75c0 3.206 1.911 5.97 4.649 7.226.004.002.007.003.01.005.712.314 1.524.312 2.235-.006 2.944-1.318 13.879-6.209 13.879-6.209.377-.169.547-.613.378-.99-.169-.378-.613-.548-.991-.379z"/></g></svg>