<svg clip-rule="evenodd" fill-rule="evenodd" height="512" stroke-linejoin="round" stroke-miterlimit="2" viewBox="0 0 24 24" width="512" xmlns="http://www.w3.org/2000/svg"><g id="Icon"><path d="m15.75 9c0-.414-.336-.75-.75-.75h-6c-.414 0-.75.336-.75.75v6c0 .414.336.75.75.75h6c.414 0 .75-.336.75-.75zm-1.5.75v4.5h-4.5v-4.5z"/><path d="m22.25 2c0-.414-.336-.75-.75-.75h-4c-.414 0-.75.336-.75.75v4c0 .414.336.75.75.75h4c.414 0 .75-.336.75-.75zm-1.5.75v2.5h-2.5v-2.5z"/><path d="m2.5 1.25c-.414 0-.75.336-.75.75v4c0 .414.336.75.75.75h4c.414 0 .75-.336.75-.75v-4c0-.414-.336-.75-.75-.75zm.75 1.5h2.5v2.5h-2.5z"/><path d="m22.75 10c0-.414-.336-.75-.75-.75h-4c-.414 0-.75.336-.75.75v4c0 .414.336.75.75.75h4c.414 0 .75-.336.75-.75zm-1.5.75v2.5h-2.5v-2.5z"/><path d="m2 9.25c-.414 0-.75.336-.75.75v4c0 .414.336.75.75.75h4c.414 0 .75-.336.75-.75v-4c0-.414-.336-.75-.75-.75zm.75 1.5h2.5v2.5h-2.5z"/><path d="m21.5 22.75c.414 0 .75-.336.75-.75v-4c0-.414-.336-.75-.75-.75h-4c-.414 0-.75.336-.75.75v4c0 .414.336.75.75.75zm-.75-1.5h-2.5v-2.5h2.5z"/><path d="m1.75 22c0 .414.336.75.75.75h4c.414 0 .75-.336.75-.75v-4c0-.414-.336-.75-.75-.75h-4c-.414 0-.75.336-.75.75zm1.5-.75v-2.5h2.5v2.5z"/><path d="m14.25 9v-4c0-.138.112-.25.25-.25h3c.414 0 .75-.336.75-.75s-.336-.75-.75-.75h-3c-.967 0-1.75.784-1.75 1.75v4c0 .414.336.75.75.75s.75-.336.75-.75z"/><path d="m11.25 9v-4c0-.966-.783-1.75-1.75-1.75h-3c-.414 0-.75.336-.75.75s.336.75.75.75h3c.138 0 .25.112.25.25v4c0 .414.336.75.75.75s.75-.336.75-.75z"/><path d="m12.75 15v4c0 .966.783 1.75 1.75 1.75h3c.414 0 .75-.336.75-.75s-.336-.75-.75-.75h-3c-.138 0-.25-.112-.25-.25v-4c0-.414-.336-.75-.75-.75s-.75.336-.75.75z"/><path d="m9.75 15v4c0 .138-.112.25-.25.25h-3c-.414 0-.75.336-.75.75s.336.75.75.75h3c.967 0 1.75-.784 1.75-1.75 0-1.459 0-4 0-4 0-.414-.336-.75-.75-.75s-.75.336-.75.75z"/><path d="m18 11.25h-3c-.414 0-.75.336-.75.75s.336.75.75.75h3c.414 0 .75-.336.75-.75s-.336-.75-.75-.75z"/><path d="m6 12.75h3c.414 0 .75-.336.75-.75s-.336-.75-.75-.75h-3c-.414 0-.75.336-.75.75s.336.75.75.75z"/></g></svg>