<svg clip-rule="evenodd" fill-rule="evenodd" stroke-linejoin="round" stroke-miterlimit="1.414" viewBox="0 0 32 32" xmlns="http://www.w3.org/2000/svg" xmlns:serif="http://www.serif.com/"><path id="wishlist-love-favorite-like" d="m0 0h32v32h-32z" fill="none"/><path d="m21.32 5.021c1.825.014 3.588 1.005 4.573 2.532 1.422 2.203 1.323 5.159.55 7.775-.283.956-.66 1.882-1.106 2.774 0 0-.195.403-.372.715-1.46 2.57-3.744 4.609-6.152 6.434-.712.54-1.44 1.055-2.187 1.549-.351.232-.857.261-1.327-.051-2.875-1.91-5.665-4.136-7.611-6.906-1.837-2.618-2.899-5.835-2.653-8.905.134-1.673.763-3.365 2.014-4.497 1.662-1.504 4.262-1.814 6.316-.713 1.633.876 2.832 2.461 3.547 4.161 0 0 .219.949-.448 1.298-.496.26-1.169.017-1.396-.526-.013-.031-.027-.062-.04-.093-.751-1.73-2.147-3.331-4.007-3.51-1.471-.141-2.93.74-3.558 2.191-.654 1.511-.549 3.287-.142 4.942.263 1.066.668 2.099 1.159 3.072 1.003 2.108 2.77 3.815 4.576 5.328.932.781 1.909 1.511 2.91 2.197l.035.023c2.402-1.638 4.713-3.476 6.457-5.815.388-.521.741-1.07 1.026-1.656 0 0 .253-.503.431-.913.897-2.055 1.438-4.382.858-6.506-.297-1.085-.995-2.075-1.991-2.557-1.109-.536-2.479-.393-3.527.305l-.075.045c-.069.034-.086.045-.16.07-.699.236-1.553-.536-1.251-1.311.135-.345.494-.558.829-.743.831-.459 1.771-.711 2.722-.709z" fill-rule="nonzero"/></svg>