<svg clip-rule="evenodd" fill-rule="evenodd" height="512" stroke-linejoin="round" stroke-miterlimit="2" viewBox="0 0 24 24" width="512" xmlns="http://www.w3.org/2000/svg"><g id="Icon"><path d="m15.5 22.75c.38 0 .699-.284.745-.661 0 0 .997-8.313 1.365-11.38.06-.497-.096-.996-.428-1.37-.332-.375-.809-.589-1.309-.589-1.924 0-5.822 0-7.746 0-.5 0-.977.214-1.309.589-.332.374-.488.873-.428 1.37.368 3.067 1.365 11.38 1.365 11.38.046.377.365.661.745.661zm-.665-1.5h-5.67s-1.286-10.72-1.286-10.72c-.009-.071.014-.142.061-.196.048-.053.116-.084.187-.084h7.746c.071 0 .139.031.187.084.047.054.07.125.061.196z"/><path d="m17 13.75h1.142c.864 0 1.598-.63 1.73-1.484l.692-4.5c.078-.505-.069-1.018-.401-1.405-.333-.388-.818-.611-1.329-.611h-13.669c-.51 0-.995.223-1.328.611-.332.387-.479.9-.401 1.405l.692 4.5c.131.854.866 1.484 1.73 1.484h1.142c.414 0 .75-.336.75-.75s-.336-.75-.75-.75h-1.142c-.124 0-.229-.09-.247-.212 0 0-.693-4.5-.693-4.5-.011-.072.01-.145.058-.201.047-.055.116-.087.189-.087h13.669c.073 0 .143.032.19.087.048.056.069.129.057.201 0 0-.692 4.5-.692 4.5-.019.122-.124.212-.247.212h-1.142c-.414 0-.75.336-.75.75s.336.75.75.75z"/><path d="m6 22.75h12c.414 0 .75-.336.75-.75s-.336-.75-.75-.75h-12c-.414 0-.75.336-.75.75s.336.75.75.75z"/><path d="m8.75 6.5v-2.586c0-.066.026-.13.073-.177 0 0 1.207-1.207 1.207-1.207.293-.292.293-.768 0-1.06-.292-.293-.768-.293-1.06 0l-1.207 1.207c-.329.328-.513.773-.513 1.237v2.586c0 .414.336.75.75.75s.75-.336.75-.75z"/></g></svg>