<svg clip-rule="evenodd" fill-rule="evenodd" height="512" stroke-linejoin="round" stroke-miterlimit="2" viewBox="0 0 24 24" width="512" xmlns="http://www.w3.org/2000/svg"><g id="Icon"><path d="m20.24 18.75c.667 0 1.306-.267 1.777-.743.469-.473.733-1.115.733-1.785 0-1.323 0-3.121 0-4.444 0-.67-.264-1.312-.733-1.785-.471-.476-1.11-.743-1.777-.743h-5.24c-.414 0-.75.336-.75.75v8c0 .414.336.75.75.75zm0-1.5h-4.49v-6.5h4.49c.267 0 .523.108.712.298.191.194.298.456.298.73v4.444c0 .274-.107.536-.298.73-.189.19-.445.298-.712.298z"/><path d="m11 1.25c-1.331 0-3.669 0-5 0-.464 0-.909.184-1.237.513-.329.328-.513.773-.513 1.237v4c0 .414.336.75.75.75h7c.414 0 .75-.336.75-.75 0 0 0-2.541 0-4 0-.464-.184-.909-.513-1.237-.328-.329-.773-.513-1.237-.513zm-5 1.5h5c.066 0 .13.026.177.073s.073.111.073.177v3.25h-5.5v-3.25c0-.066.026-.13.073-.177s.111-.073.177-.073z"/><path d="m12 8.75h-7c-.69 0-1.25.56-1.25 1.25v3.5c0 .69.56 1.25 1.25 1.25h7c.69 0 1.25-.56 1.25-1.25v-3.5c0-.69-.56-1.25-1.25-1.25zm-6.75 4.5h6.5v-3h-6.5z"/><circle cx="5.25" cy="19.25" r=".75"/><circle cx="5.25" cy="16.75" r=".75"/><circle cx="8.5" cy="19.25" r=".75"/><circle cx="8.5" cy="16.75" r=".75"/><circle cx="11.75" cy="19.25" r=".75"/><circle cx="11.75" cy="16.75" r=".75"/><path d="m5 4.75h-1c-1.519 0-2.75 1.231-2.75 2.75v12.5c0 1.519 1.231 2.75 2.75 2.75h9c1.519 0 2.75-1.231 2.75-2.75v-12.5c0-1.519-1.231-2.75-2.75-2.75h-1c-.414 0-.75.336-.75.75s.336.75.75.75h1c.69 0 1.25.56 1.25 1.25v12.5c0 .69-.56 1.25-1.25 1.25-2.444 0-6.556 0-9 0-.69 0-1.25-.56-1.25-1.25v-12.5c0-.69.56-1.25 1.25-1.25h1c.414 0 .75-.336.75-.75s-.336-.75-.75-.75z"/><path d="m22 12.25h-7c-.414 0-.75.336-.75.75s.336.75.75.75h7c.414 0 .75-.336.75-.75s-.336-.75-.75-.75z"/></g></svg>