<svg clip-rule="evenodd" fill-rule="evenodd" height="512" stroke-linejoin="round" stroke-miterlimit="2" viewBox="0 0 24 24" width="512" xmlns="http://www.w3.org/2000/svg"><g id="Icon"><path d="m12 4.75c4.001 0 7.25 3.249 7.25 7.25s-3.249 7.25-7.25 7.25-7.25-3.249-7.25-7.25 3.249-7.25 7.25-7.25zm0 1.5c-3.174 0-5.75 2.576-5.75 5.75s2.576 5.75 5.75 5.75 5.75-2.576 5.75-5.75-2.576-5.75-5.75-5.75z"/><path d="m22.75 5v14c0 2.071-1.679 3.75-3.75 3.75h-14c-2.071 0-3.75-1.679-3.75-3.75v-14c0-2.071 1.679-3.75 3.75-3.75h14c2.071 0 3.75 1.679 3.75 3.75zm-1.5 0c0-1.243-1.007-2.25-2.25-2.25h-14c-1.243 0-2.25 1.007-2.25 2.25v14c0 1.243 1.007 2.25 2.25 2.25h14c1.243 0 2.25-1.007 2.25-2.25z"/><circle cx="14.5" cy="12" r="1"/><circle cx="9.5" cy="12" r="1"/><path d="m11.25 5.5c0-.414.336-.75.75-.75s.75.336.75.75v2c0 .414-.336.75-.75.75s-.75-.336-.75-.75z"/><path d="m11.25 16.5c0-.414.336-.75.75-.75s.75.336.75.75v2c0 .414-.336.75-.75.75s-.75-.336-.75-.75z"/></g></svg>