<svg clip-rule="evenodd" fill-rule="evenodd" height="512" stroke-linejoin="round" stroke-miterlimit="2" viewBox="0 0 24 24" width="512" xmlns="http://www.w3.org/2000/svg"><g id="Icon"><path d="m22.75 16c0-.729-.29-1.429-.805-1.945-.516-.515-1.216-.805-1.945-.805-3.832 0-12.168 0-16 0-.729 0-1.429.29-1.945.805-.515.516-.805 1.216-.805 1.945v2.5c0 .729.29 1.429.805 1.945.516.515 1.216.805 1.945.805h16c.729 0 1.429-.29 1.945-.805.515-.516.805-1.216.805-1.945 0-.794 0-1.706 0-2.5zm-1.5 0v2.5c0 .332-.132.649-.366.884-.235.234-.552.366-.884.366h-16c-.332 0-.649-.132-.884-.366-.234-.235-.366-.552-.366-.884 0-.794 0-1.706 0-2.5 0-.332.132-.649.366-.884.235-.234.552-.366.884-.366h16c.332 0 .649.132.884.366.234.235.366.552.366.884z"/><path d="m18.25 20.5v1c0 .414.336.75.75.75s.75-.336.75-.75v-1c0-.414-.336-.75-.75-.75s-.75.336-.75.75z"/><path d="m21.285 4.274-3 9.5c-.125.395.094.817.489.941.395.125.817-.094.941-.489l3-9.5c.125-.395-.094-.817-.489-.941-.395-.125-.817.094-.941.489z"/><path d="m18.25 16.75v1c0 .414.336.75.75.75s.75-.336.75-.75v-1c0-.414-.336-.75-.75-.75s-.75.336-.75.75z"/><path d="m15.25 16.75v1c0 .414.336.75.75.75s.75-.336.75-.75v-1c0-.414-.336-.75-.75-.75s-.75.336-.75.75z"/><path d="m12.25 16.75v1c0 .414.336.75.75.75s.75-.336.75-.75v-1c0-.414-.336-.75-.75-.75s-.75.336-.75.75z"/><path d="m4.25 20.5v1c0 .414.336.75.75.75s.75-.336.75-.75v-1c0-.414-.336-.75-.75-.75s-.75.336-.75.75z"/><path d="m1.285 4.726 3 9.5c.124.395.546.614.941.489.395-.124.614-.546.489-.941l-3-9.5c-.124-.395-.546-.614-.941-.489-.395.124-.614.546-.489.941z"/><path d="m12 10.848c-.552 0-1-.448-1-1s.448-1 1-1 1 .448 1 1-.448 1-1 1" fill-rule="nonzero"/><path d="m10.03 7.606c.502-.502 1.199-.818 1.97-.818s1.468.316 1.97.818c.292.293.768.293 1.06 0 .293-.293.293-.768 0-1.061-.771-.772-1.844-1.257-3.03-1.257s-2.258.485-3.03 1.257c-.293.293-.293.768 0 1.061.292.293.768.293 1.06 0z"/><path d="m7.533 5.103c1.138-1.148 2.718-1.853 4.467-1.853s3.329.705 4.467 1.853c.292.294.767.297 1.061.005.294-.291.296-.766.005-1.06-1.41-1.423-3.367-2.298-5.533-2.298s-4.123.875-5.533 2.298c-.291.294-.289.769.005 1.06.294.292.769.289 1.061-.005z"/></g></svg>