<svg clip-rule="evenodd" fill-rule="evenodd" stroke-linejoin="round" stroke-miterlimit="2" viewBox="0 0 32 32" xmlns="http://www.w3.org/2000/svg" xmlns:serif="http://www.serif.com/"><path id="dna-biology-generation" d="m0 0h32v32h-32z" fill="none"/><path d="m7 11.202c-.729-.133-1.47-.202-2.213-.204h-.788c-.875-.027-1.409-1.453-.418-1.909.375-.173.857-.093 1.289-.092 2.651.023 5.282.788 7.529 2.167.112.048.212.11.296.186.466.302.915.631 1.342.986.637.529.503 1.767-.426 1.86-.218.022-.417-.045-.609-.155v3.825c.903-.818 1.697-1.76 2.393-2.748 2.656-3.742 7.118-6.094 11.766-6.121h.846c.031.002.063.003.095.005.623.089.71.351.815.58.274.601-.206 1.382-.91 1.416-1.327 0-2.66.07-3.939.404-1.084.283-2.11.731-3.064 1.306v6.606c.638.367 1.308.679 2.001.931v-6.246c.005-.174.02-.222.051-.314.135-.409.467-.686.976-.686.018.001.035.002.053.003.173.018.219.037.309.075.364.153.599.449.612.922v6.794c.726.135 1.467.206 2.212.208h.789c.746.025.82.322.942.665.198.555-.203 1.243-.806 1.326-.44.061-.69.011-1.039.009-4.239-.041-8.386-2.036-11.1-5.327-2.699 3.279-6.848 5.302-11.159 5.327l-.846.001s-.889-.155-.99-.858c-.081-.564.403-1.115.99-1.143 2.319 0 4.653-.393 6.677-1.477.11-.058.218-.119.325-.181v-6.686c-.638-.365-1.308-.672-2-.919v6.262c-.014.51-.147.565-.303.717-.536.522-1.652.181-1.697-.664-.001-.017-.001-.035-.001-.053v-6.798zm12.004 2.986c-.634.563-1.219 1.183-1.751 1.842.517.681 1.106 1.305 1.751 1.864z"/></svg>