<svg clip-rule="evenodd" fill-rule="evenodd" height="512" stroke-linejoin="round" stroke-miterlimit="2" viewBox="0 0 24 24" width="512" xmlns="http://www.w3.org/2000/svg"><g id="Icon"><path d="m14.821 17.218c.296-1.64 1.573-2.995 3.198-3.358.848-.189 1.663-.127 2.388.129 1.122.398 2.288-.4 2.335-1.589v-.001c.065-1.636-.256-3.376-1.225-5.198-1.898-3.573-5.586-5.993-9.631-5.95-6.195.064-11.135 5.368-10.596 11.691.403 4.718 3.992 8.678 8.636 9.602h.001c1.458.29 2.863.262 4.182-.008 1.141-.232 1.696-1.525 1.142-2.55-.432-.801-.612-1.756-.43-2.768zm-1.477-.266c-.246 1.37.002 2.661.587 3.747h.001c.076.142.036.335-.122.367h-.001c-1.132.232-2.339.256-3.59.007-3.996-.795-7.087-4.199-7.434-8.259-.465-5.441 3.785-10.008 9.116-10.063h.001c3.488-.037 6.654 2.073 8.29 5.154.827 1.555 1.106 3.038 1.051 4.435-.007.173-.173.293-.336.235 0 0-.001 0-.001-.001-.977-.344-2.073-.433-3.214-.178-2.207.493-3.946 2.329-4.348 4.556z"/><path d="m14.25 9c0 1.518 1.232 2.75 2.75 2.75s2.75-1.232 2.75-2.75-1.232-2.75-2.75-2.75-2.75 1.232-2.75 2.75zm1.5 0c0-.69.56-1.25 1.25-1.25s1.25.56 1.25 1.25-.56 1.25-1.25 1.25-1.25-.56-1.25-1.25z"/><path d="m9.25 6c0 1.518 1.232 2.75 2.75 2.75s2.75-1.232 2.75-2.75-1.232-2.75-2.75-2.75-2.75 1.232-2.75 2.75zm1.5 0c0-.69.56-1.25 1.25-1.25s1.25.56 1.25 1.25-.56 1.25-1.25 1.25-1.25-.56-1.25-1.25z"/><path d="m4.25 9c0 1.518 1.232 2.75 2.75 2.75s2.75-1.232 2.75-2.75-1.232-2.75-2.75-2.75-2.75 1.232-2.75 2.75zm1.5 0c0-.69.56-1.25 1.25-1.25s1.25.56 1.25 1.25-.56 1.25-1.25 1.25-1.25-.56-1.25-1.25z"/><path d="m5.25 16c0 2.07 1.68 3.75 3.75 3.75s3.75-1.68 3.75-3.75-1.68-3.75-3.75-3.75-3.75 1.68-3.75 3.75zm1.5 0c0-1.242 1.008-2.25 2.25-2.25s2.25 1.008 2.25 2.25-1.008 2.25-2.25 2.25-2.25-1.008-2.25-2.25z"/></g></svg>