<svg clip-rule="evenodd" fill-rule="evenodd" height="512" stroke-linejoin="round" stroke-miterlimit="2" viewBox="0 0 24 24" width="512" xmlns="http://www.w3.org/2000/svg"><g id="Icon"><path d="m13.061 1.761-.676-.405c-.237-.141-.533-.141-.77 0l-.676.405c-2.765 1.66-5.841 2.736-9.038 3.164-.396.052-.68.405-.649.803l.23 2.886c.495 6.241 4.447 11.68 10.231 14.079.184.076.39.076.574 0 5.785-2.399 9.736-7.838 10.232-14.08 0 0 .229-2.886.229-2.886.031-.397-.254-.75-.649-.802-3.197-.428-6.272-1.504-9.038-3.164zm-.772 1.286c2.738 1.644 5.761 2.749 8.908 3.26 0 0-.174 2.188-.174 2.188-.442 5.576-3.916 10.447-9.023 12.689-5.106-2.242-8.581-7.113-9.022-12.689l-.175-2.188c3.148-.511 6.171-1.616 8.908-3.26-.001.001.289-.173.289-.173l.289.173z"/><path d="m11.25 2v14.642c0 .414.336.75.75.75s.75-.336.75-.75v-14.642c0-.414-.336-.75-.75-.75s-.75.336-.75.75z"/></g></svg>