<svg clip-rule="evenodd" fill-rule="evenodd" height="512" stroke-linejoin="round" stroke-miterlimit="2" viewBox="0 0 24 24" width="512" xmlns="http://www.w3.org/2000/svg"><g id="Icon"><path d="m5.161 14.642 2.254-2.255c.293-.293.293-.768 0-1.061s-.768-.293-1.061 0l-2.254 2.255c-.293.293-.292.768 0 1.061.293.293.768.293 1.061 0z"/><path d="m7.791 17.272 2.255-2.255c.292-.293.292-.768-.001-1.061-.292-.292-.768-.292-1.06.001l-2.254 2.255c-.293.293-.293.768 0 1.061.293.292.768.292 1.06-.001z"/><path d="m10.423 19.903 2.254-2.255c.292-.293.292-.768-.001-1.061-.292-.292-.768-.292-1.06.001l-2.254 2.255c-.293.293-.293.768 0 1.061.293.292.768.292 1.061-.001z"/><path d="m13.052 22.534 2.255-2.255c.293-.293.293-.768 0-1.061l-10.522-10.522c-.293-.293-.768-.293-1.061 0l-2.254 2.255c-.293.292-.293.768 0 1.06.292.293.768.293 1.06 0l1.725-1.724s9.461 9.461 9.461 9.461-1.724 1.725-1.724 1.725c-.293.293-.293.768 0 1.061.292.292.768.292 1.06 0z"/><path d="m18.777 1.928c-2.635 2.635-9.031 9.031-9.031 9.031-.293.293-.293.768 0 1.061l2.231 2.231c.293.293.768.293 1.06 0 0 0 6.397-6.396 9.032-9.032.436-.436.682-1.028.682-1.644 0-.617-.246-1.209-.682-1.645 0-.001-.001-.002-.002-.002-.436-.437-1.028-.682-1.645-.682s-1.208.245-1.645.682zm1.061 1.06c.155-.155.365-.242.584-.242s.429.087.584.242l.003.003c.155.154.242.365.242.584s-.087.429-.242.584l-8.502 8.501s-1.17-1.17-1.17-1.17z"/><path d="m4.1 8.32-.376.376c-.292.293-.292.768 0 1.061l10.522 10.522c.293.293.768.293 1.061 0l.376-.376c.539-.539.842-1.271.842-2.033 0-.763-.303-1.495-.842-2.034l-7.516-7.516c-.539-.539-1.271-.842-2.033-.842-.763 0-1.495.303-2.034.842zm10.664 10.355-9.436-9.436c.233-.169.514-.261.806-.261.365 0 .714.145.972.403.001 0 7.516 7.516 7.516 7.516.258.258.403.608.403.973 0 .291-.092.572-.261.805z"/></g></svg>