<svg clip-rule="evenodd" fill-rule="evenodd" height="512" stroke-linejoin="round" stroke-miterlimit="2" viewBox="0 0 24 24" width="512" xmlns="http://www.w3.org/2000/svg"><g id="Icon"><path d="m8.25 8c0 .138-.112.25-.25.25h-1c-.414 0-.75.336-.75.75s.336.75.75.75h1c.966 0 1.75-.784 1.75-1.75s-.784-1.75-1.75-1.75c-.138 0-.25-.112-.25-.25s.112-.25.25-.25h1c.414 0 .75-.336.75-.75s-.336-.75-.75-.75h-1c-.966 0-1.75.784-1.75 1.75s.784 1.75 1.75 1.75c.138 0 .25.112.25.25z"/><path d="m8.75 5v-1c0-.414-.336-.75-.75-.75s-.75.336-.75.75v1c0 .414.336.75.75.75s.75-.336.75-.75z"/><path d="m8.75 10v-1c0-.414-.336-.75-.75-.75s-.75.336-.75.75v1c0 .414.336.75.75.75s.75-.336.75-.75z"/><path d="m8 1.25c-3.174 0-5.75 2.576-5.75 5.75s2.576 5.75 5.75 5.75 5.75-2.576 5.75-5.75-2.576-5.75-5.75-5.75zm0 1.5c2.346 0 4.25 1.904 4.25 4.25s-1.904 4.25-4.25 4.25-4.25-1.904-4.25-4.25 1.904-4.25 4.25-4.25z"/><path d="m19.546 10.635c-1.389 1.784-4.955 3.503-9.302 4.394-1.901.389-3.728.569-5.354.558-.414-.002-.752.332-.754.745-.003.414.331.753.745.755 1.72.012 3.653-.177 5.664-.589 4.783-.98 8.655-2.978 10.185-4.941.254-.326.196-.798-.131-1.052-.326-.255-.798-.196-1.053.13z"/><path d="m17.981 11.111 2.078.024s-.023 2.078-.023 2.078c-.005.414.327.754.741.758.414.005.754-.327.759-.741l.032-2.828c.005-.414-.327-.754-.742-.759l-2.828-.032c-.414-.005-.754.328-.758.742-.005.413.327.753.741.758z"/><path d="m5.75 22v-1.5c0-.414-.336-.75-.75-.75s-.75.336-.75.75v1.5c0 .414.336.75.75.75s.75-.336.75-.75z"/><path d="m9.75 22v-2.5c0-.414-.336-.75-.75-.75s-.75.336-.75.75v2.5c0 .414.336.75.75.75s.75-.336.75-.75z"/><path d="m13.75 22v-3.5c0-.414-.336-.75-.75-.75s-.75.336-.75.75v3.5c0 .414.336.75.75.75s.75-.336.75-.75z"/><path d="m17.75 22v-4.5c0-.414-.336-.75-.75-.75s-.75.336-.75.75v4.5c0 .414.336.75.75.75s.75-.336.75-.75z"/><path d="m21.75 22v-5.5c0-.414-.336-.75-.75-.75s-.75.336-.75.75v5.5c0 .414.336.75.75.75s.75-.336.75-.75z"/></g></svg>