<svg clip-rule="evenodd" fill-rule="evenodd" height="512" stroke-linejoin="round" stroke-miterlimit="2" viewBox="0 0 24 24" width="512" xmlns="http://www.w3.org/2000/svg"><g id="Icon"><path d="m9.15 2.853-3.242 4.631c-.238.339-.155.807.184 1.044l2.493 1.746c.34.238.807.155 1.045-.184l2.436-3.479c.237-.339.155-.807-.184-1.044-.34-.238-.808-.155-1.045.184l-2.006 2.864s-1.264-.885-1.264-.885 2.812-4.016 2.812-4.016c.237-.339.155-.807-.184-1.045-.339-.237-.807-.155-1.045.184z"/><path d="m4.174 20.689 5.653-.013c.414 0 .749-.337.748-.751l-.007-3.044c-.001-.414-.337-.749-.751-.748l-4.247.009c-.414.001-.749.338-.748.752s.337.749.751.748l3.497-.008s.003 1.544.003 1.544-4.902.011-4.902.011c-.414.001-.75.338-.749.752.001.413.338.749.752.748z"/><path d="m22.705 16.023-1.926-5.314c-.141-.39-.571-.591-.96-.45l-2.862 1.037c-.389.141-.591.571-.45.961l1.447 3.992c.141.389.572.591.961.45s.59-.572.449-.961l-1.191-3.287s1.452-.526 1.452-.526 1.67 4.609 1.67 4.609c.141.389.571.591.961.45.389-.141.59-.572.449-.961z"/><path d="m10.432 5.459 2.185 3.12s-.456.292-.456.292c-.264.168-.395.482-.33.787.064.306.312.539.621.586l3.913.592c.387.059.754-.19.843-.571l.87-3.736c.068-.293-.045-.598-.287-.775-.243-.178-.567-.194-.826-.041l-.571.339s-2.24-3.199-2.24-3.199c-.14-.2-.369-.32-.614-.32h-3.715c-.28 0-.536.156-.665.404s-.11.547.05.776zm5.81 2.339-.338 1.451-1.511-.228c.009-.028.017-.056.023-.085.039-.201-.005-.409-.122-.576l-2.633-3.761-.396-.566h1.884s2.414 3.448 2.414 3.448c.159.226.42.339.679.317z"/><path d="m5.568 18.141 1.295-3.582s.5.206.5.206c.289.118.622.045.834-.184.213-.229.262-.566.122-.845l-1.768-3.542c-.174-.35-.589-.507-.952-.36l-3.556 1.438c-.278.113-.463.381-.468.681-.006.3.168.575.441.698l.606.273s-1.327 3.672-1.327 3.672c-.084.23-.049.487.092.687l2.137 3.038c.161.229.436.349.713.312s.511-.225.606-.488zm-1.431-6.098 1.382-.558.682 1.367c-.027.008-.055.019-.082.031-.187.082-.332.238-.401.43l-1.561 4.318-.235.649s-1.084-1.541-1.084-1.541 1.431-3.958 1.431-3.958c.094-.259.036-.539-.132-.738z"/><path d="m19.836 15.574-3.809-.005s.024-.541.024-.541c.014-.312-.168-.6-.455-.722-.288-.123-.621-.055-.837.171l-2.733 2.863c-.271.283-.278.726-.017 1.018l2.557 2.859c.201.223.515.306.8.21.284-.096.484-.353.507-.652l.052-.662s3.904.005 3.904.005c.245.001.474-.118.615-.319l2.135-3.04c.161-.229.181-.528.052-.776s-.385-.404-.664-.405zm-6.247 2.3 1.056-1.105c.017.024.036.046.056.067.141.148.337.232.541.232l4.591.006.691.002s-1.083 1.542-1.083 1.542-4.209-.006-4.209-.006c-.276-.001-.519.148-.649.373z"/></g></svg>