<svg clip-rule="evenodd" fill-rule="evenodd" height="512" stroke-linejoin="round" stroke-miterlimit="2" viewBox="0 0 24 24" width="512" xmlns="http://www.w3.org/2000/svg"><g id="Icon"><path d="m21 7.75c.966 0 1.75-.782 1.75-1.75v-3c0-.968-.784-1.75-1.75-1.75h-3c-.966 0-1.75.782-1.75 1.75v3c0 .968.784 1.75 1.75 1.75zm0-1.5h-3c-.138 0-.25-.112-.25-.25v-3c0-.138.112-.25.25-.25h3c.138 0 .25.112.25.25v3c0 .138-.112.25-.25.25z"/><path d="m21 15.25c.966 0 1.75-.782 1.75-1.75v-3c0-.968-.784-1.75-1.75-1.75h-3c-.966 0-1.75.782-1.75 1.75v3c0 .968.784 1.75 1.75 1.75zm0-1.5h-3c-.138 0-.25-.112-.25-.25v-3c0-.138.112-.25.25-.25h3c.138 0 .25.112.25.25v3c0 .138-.112.25-.25.25z"/><path d="m21 22.75c.966 0 1.75-.782 1.75-1.75v-3c0-.968-.784-1.75-1.75-1.75h-3c-.966 0-1.75.782-1.75 1.75v3c0 .968.784 1.75 1.75 1.75zm0-1.5h-3c-.138 0-.25-.112-.25-.25v-3c0-.138.112-.25.25-.25h3c.138 0 .25.112.25.25v3c0 .138-.112.25-.25.25z"/><path d="m11.75 12.75h5.25c.414 0 .75-.336.75-.75s-.336-.75-.75-.75h-5.25c-.414 0-.75.336-.75.75s.336.75.75.75z"/><path d="m15.25 19.25v-13.5h1.75c.414 0 .75-.336.75-.75s-.336-.75-.75-.75h-2c-.69 0-1.25.56-1.25 1.25v14c0 .69.56 1.25 1.25 1.25h2c.414 0 .75-.336.75-.75s-.336-.75-.75-.75z"/><path d="m12.5 16.2v-8.162c0-.395-.166-.771-.458-1.036-.645-.586-2.569-2.336-3.177-2.888-.257-.234-.593-.364-.941-.364-.769 0-3.125 0-4.624 0-.544 0-1.065.216-1.45.6-.384.385-.6.906-.6 1.45v10.4c0 .544.216 1.065.6 1.45.385.384.906.6 1.45.6h7.15c.544 0 1.065-.216 1.45-.6.384-.385.6-.906.6-1.45zm-4.615-10.95 3.115 2.832v8.118c0 .146-.058.286-.161.389s-.243.161-.389.161h-7.15c-.146 0-.286-.058-.389-.161s-.161-.243-.161-.389v-10.4c0-.146.058-.286.161-.389s.243-.161.389-.161z"/><path d="m8.75 7.25v-2.75c0-.414-.336-.75-.75-.75s-.75.336-.75.75v3.175c0 .285.113.559.315.76.201.202.475.315.76.315h3.425c.414 0 .75-.336.75-.75s-.336-.75-.75-.75z"/></g></svg>