<svg clip-rule="evenodd" fill-rule="evenodd" stroke-linejoin="round" stroke-miterlimit="1.414" viewBox="0 0 32 32" xmlns="http://www.w3.org/2000/svg" xmlns:serif="http://www.serif.com/"><path id="in-door-enter" d="m0 0h32v32h-32z" fill="none"/><path d="m12.202 19.031c.435.128.743.513.765.973 0 2.006-.013 4.012 0 6.019.01.517.465.977.988.987 4.016.026 8.033.075 12.049 0 .508-.016.96-.461.975-.976.125-6.688.125-13.38 0-20.068-.015-.508-.46-.96-.975-.976-4.016-.074-8.033-.025-12.049 0-.521.01-.985.457-.988 1.004v6.002c-.037.779-1.052 1.28-1.657.757-.168-.146-.285-.348-.327-.567-.016-.083-.014-.105-.018-.19v-6.008c.01-1.556 1.346-2.969 2.964-3 4.018-.025 8.035 0 12.053 0 1.552.01 2.969 1.328 2.999 2.966.042 6.686.001 13.372.001 20.058-.01 1.556-1.352 2.97-2.966 3-4.017.025-8.034 0-12.051 0-1.571-.01-2.99-1.35-3-3v-6.008c.029-.613.601-1.096 1.237-.973zm7.357-4.032-2.295-2.295s-.443-.626-.194-1.142c.146-.304.454-.522.789-.56.109-.012.134-.006.169-.005.244.021.472.122.651.292l4.004 4.003c.125.133.149.181.194.274.162.337.117.762-.119 1.058-.025.031-.036.043-.056.064-.005.005-.009.01-.014.015l-.005.005-4.004 4.004c-.167.157-.241.189-.377.237-.642.224-1.443-.375-1.317-1.113.025-.148.083-.289.17-.411.033-.046.07-.088.109-.129l2.295-2.295h-15.6c-.874-.036-1.393-1.386-.477-1.881.134-.072.207-.11.477-.121h15.6z" fill-rule="nonzero"/></svg>