<svg clip-rule="evenodd" fill-rule="evenodd" height="512" stroke-linejoin="round" stroke-miterlimit="2" viewBox="0 0 24 24" width="512" xmlns="http://www.w3.org/2000/svg"><g id="Icon"><path d="m22 22.75c.278 0 .534-.154.664-.401.129-.246.112-.544-.046-.774-.217-.316-.483-.728-1.01-1.127-.735-.556-2.019-1.11-4.582-1.198-3.583-.122-5.577-1.19-7.422-3.695-.669-.908-1.624-1.495-2.654-1.857-1.428-.503-2.996-.568-3.996-.551-.005 0-.009 0-.013 0-.943.032-1.692.807-1.691 1.75v7.103c0 .414.336.75.75.75zm-2.012-1.5h-17.238v-6.353c0-.132.101-.24.231-.25.875-.014 2.234.031 3.471.466.75.264 1.458.671 1.944 1.332 2.136 2.9 4.43 4.163 8.578 4.305 1.424.048 2.369.239 3.014.5z"/><path d="m10.216 17.718s3.598-1.103 5.362-3.241c1.342-1.625 2.715-3.08 5.417-2.859.006.001.012.001.018.001.117.007.208.104.208.221v.009c.029 2.569.029 10.151.029 10.151 0 .414.336.75.75.75s.75-.336.75-.75c0 0 0-7.594-.029-10.168 0-.9-.705-1.651-1.61-1.709-3.309-.269-5.045 1.408-6.689 3.4-1.52 1.841-4.638 2.759-4.638 2.759-.397.119-.621.538-.502.934.119.397.538.621.934.502z"/><path d="m20.25 10.845v-2.845c0-.414-.336-.75-.75-.75s-.75.336-.75.75v2.845c0 .414.336.75.75.75s.75-.336.75-.75z"/><path d="m12.75 16v-3.845c0-.414-.336-.75-.75-.75s-.75.336-.75.75v3.845c0 .414.336.75.75.75s.75-.336.75-.75z"/><path d="m19.5 1.25c-1.753 0-3.25 1.646-3.25 3.75s1.497 3.75 3.25 3.75 3.25-1.646 3.25-3.75-1.497-3.75-3.25-3.75zm0 1.5c1.007 0 1.75 1.041 1.75 2.25s-.743 2.25-1.75 2.25-1.75-1.041-1.75-2.25.743-2.25 1.75-2.25z"/><path d="m12 5.405c-1.753 0-3.25 1.646-3.25 3.75s1.497 3.75 3.25 3.75 3.25-1.646 3.25-3.75-1.497-3.75-3.25-3.75zm0 1.5c1.007 0 1.75 1.041 1.75 2.25 0 1.208-.743 2.25-1.75 2.25s-1.75-1.042-1.75-2.25c0-1.209.743-2.25 1.75-2.25z"/><path d="m4.25 2.25c-1.656 0-3 1.344-3 3s1.344 3 3 3 3-1.344 3-3-1.344-3-3-3zm0 1.5c.828 0 1.5.672 1.5 1.5s-.672 1.5-1.5 1.5-1.5-.672-1.5-1.5.672-1.5 1.5-1.5z"/></g></svg>