<svg clip-rule="evenodd" fill-rule="evenodd" height="512" stroke-linejoin="round" stroke-miterlimit="2" viewBox="0 0 24 24" width="512" xmlns="http://www.w3.org/2000/svg"><g id="Icon"><path d="m2 2.75h1c.138 0 .25.111.25.25v19c0 .414.336.75.75.75s.75-.336.75-.75v-19c0-.968-.782-1.75-1.75-1.75h-1c-.414 0-.75.336-.75.75s.336.75.75.75z"/><path d="m21 18.75c.968 0 1.75-.783 1.75-1.75v-10c0-.968-.782-1.75-1.75-1.75h-17c-.414 0-.75.335-.75.75v12c0 .414.336.75.75.75zm0-1.5h-16.25v-10.5h16.25c.138 0 .25.111.25.25v10c0 .138-.112.25-.25.25z"/><path d="m4 17.75c.414 0 .75-.336.75-.75v-3c0-.415-.336-.75-.75-.75h-1.5c-.69 0-1.25.56-1.25 1.25v2c0 .69.56 1.25 1.25 1.25zm-1.25-1.5v-1.5h.5v1.5z"/><path d="m4 10.75c.414 0 .75-.336.75-.75v-3c0-.415-.336-.75-.75-.75h-1.5c-.69 0-1.25.56-1.25 1.25v2c0 .69.56 1.25 1.25 1.25zm-1.25-1.5v-1.5h.5v1.5z"/><path d="m14.5 20.75c.69 0 1.25-.56 1.25-1.25v-1.5c0-.415-.336-.75-.75-.75h-9c-.414 0-.75.335-.75.75v1.5c0 .69.56 1.25 1.25 1.25zm-.25-1.5h-7.5v-.5h7.5z"/><path d="m20.5 20.75c.69 0 1.25-.56 1.25-1.25v-1.5c0-.415-.336-.75-.75-.75h-3c-.414 0-.75.335-.75.75v1.5c0 .69.56 1.25 1.25 1.25zm-1.75-1.5v-.5h1.5v.5z"/><path d="m6.25 11v2c0 .414.336.75.75.75s.75-.336.75-.75v-2c0-.414-.336-.75-.75-.75s-.75.336-.75.75z"/><path d="m9.25 9v6c0 .414.336.75.75.75s.75-.336.75-.75v-6c0-.414-.336-.75-.75-.75s-.75.336-.75.75z"/><path d="m12.25 11v2c0 .414.336.75.75.75s.75-.336.75-.75v-2c0-.414-.336-.75-.75-.75s-.75.336-.75.75z"/><path d="m15.25 9v6c0 .414.336.75.75.75s.75-.336.75-.75v-6c0-.414-.336-.75-.75-.75s-.75.336-.75.75z"/><path d="m18.25 11v2c0 .414.336.75.75.75s.75-.336.75-.75v-2c0-.414-.336-.75-.75-.75s-.75.336-.75.75z"/></g></svg>