<svg clip-rule="evenodd" fill-rule="evenodd" height="512" stroke-linejoin="round" stroke-miterlimit="2" viewBox="0 0 24 24" width="512" xmlns="http://www.w3.org/2000/svg"><g id="Icon"><path d="m12.27 7.317-1.963 5.891c-.131.393.081.818.474.949s.818-.082.949-.474l1.963-5.891c.131-.393-.081-.818-.474-.949s-.818.082-.949.474z"/><path d="m14.506 9.067 1.433 1.433s-1.433 1.433-1.433 1.433c-.293.293-.293.768 0 1.061s.768.293 1.061 0l1.963-1.964c.293-.293.293-.767 0-1.06l-1.963-1.964c-.293-.293-.768-.293-1.061 0s-.293.768 0 1.061z"/><path d="m8.433 8.006-1.963 1.964c-.293.293-.293.767 0 1.06l1.963 1.964c.293.293.768.293 1.061 0s.293-.768 0-1.061l-1.433-1.433s1.433-1.433 1.433-1.433c.293-.293.293-.768 0-1.061s-.768-.293-1.061 0z"/><path d="m21.25 6.635c0-.678-.392-1.295-1.005-1.584-1.602-.754-6.094-2.868-7.5-3.529-.472-.222-1.018-.222-1.49 0l-7.5 3.529c-.614.289-1.005.906-1.005 1.584v3.235l.022.415c1.031 9.314 8.953 12.413 8.953 12.413.177.069.373.069.55 0 0 0 7.922-3.099 8.949-12.413.016-.138.023-.276.023-.415.003-.49.003-2.269.003-3.235zm-1.5 0c0 .964 0 2.738-.003 3.231l-.014.254c-.814 7.382-6.419 10.44-7.733 11.06-1.314-.62-6.92-3.678-7.737-11.059l-.013-.251c0-.493 0-2.27 0-3.235 0-.097.056-.185.144-.227 0 0 7.5-3.529 7.5-3.529.067-.032.145-.032.212 0 0 0 7.5 3.529 7.5 3.529.088.042.144.13.144.227z"/></g></svg>