<svg clip-rule="evenodd" fill-rule="evenodd" height="512" stroke-linejoin="round" stroke-miterlimit="2" viewBox="0 0 24 24" width="512" xmlns="http://www.w3.org/2000/svg"><g id="Icon"><path d="m12.641 16.874-3.123 3.122c-.759.76-1.989 1.024-3.174 1.115-1.331.103-2.628-.04-3.315-.14-.1-.687-.243-1.984-.14-3.315.091-1.185.355-2.415 1.115-3.174l3.122-3.123 1.662 1.661c.293.293.768.293 1.06 0 .293-.292.293-.768 0-1.06 0 0-1.218-1.218-1.838-1.839-.234-.234-.552-.366-.884-.366-.331 0-.649.132-.884.367-.916.916-3.299 3.299-3.299 3.299-.994.994-1.431 2.569-1.55 4.12-.166 2.156.249 4.229.249 4.229.059.296.292.529.588.588 0 0 2.073.415 4.229.249 1.551-.119 3.126-.556 4.12-1.55 0 0 2.383-2.383 3.299-3.299.235-.235.367-.553.367-.884 0-.332-.132-.65-.366-.884-.621-.62-1.839-1.838-1.839-1.838-.292-.293-.768-.293-1.06 0-.293.292-.293.767 0 1.06z"/><path d="m19.712 7.541c.292-.293.292-.768 0-1.061l-2.192-2.192c-.293-.292-.768-.292-1.061 0 0 0-5.261 5.262-7.797 7.798-.96.96-1.684 2.131-2.114 3.42-.256.77-.498 1.496-.498 1.496-.09.269-.02.566.181.767s.498.271.767.181c0 0 .726-.242 1.496-.498 1.289-.43 2.46-1.154 3.42-2.114 2.536-2.536 7.798-7.797 7.798-7.797zm-1.591-.53-7.267 7.266c-.796.796-1.766 1.396-2.834 1.752 0 0-.073.024-.073.024s.024-.073.024-.073c.356-1.068.956-2.038 1.752-2.834 0 0 7.266-7.267 7.266-7.267z"/><path d="m21.515 7.93.765-.766c.488-.488.488-1.28 0-1.768-.822-.822-2.854-2.854-3.676-3.676-.488-.488-1.28-.488-1.768 0l-.766.765c-.328.329-.512.774-.512 1.238s.184.909.512 1.237c.817.817 2.153 2.153 2.97 2.97.328.328.773.512 1.237.512s.909-.184 1.238-.512zm-3.795-4.973 3.323 3.323-.589.589c-.047.047-.111.073-.177.073s-.13-.026-.177-.073l-2.969-2.969c-.047-.047-.073-.111-.073-.177s.026-.13.073-.177z"/><path d="m13.501 12.69-2.191-2.191c-.293-.293-.768-.293-1.061 0-.293.292-.293.767 0 1.06l2.192 2.192c.293.293.768.293 1.06 0 .293-.293.293-.768 0-1.061z"/></g></svg>