<svg clip-rule="evenodd" fill-rule="evenodd" height="512" stroke-linejoin="round" stroke-miterlimit="2" viewBox="0 0 24 24" width="512" xmlns="http://www.w3.org/2000/svg"><g id="Icon"><path d="m12.691 9.25h-3.982c-3.6 0-6.519 2.919-6.519 6.519v3.982c0 1.656 1.343 2.999 2.999 2.999h3.982c3.601 0 6.519-2.919 6.519-6.519v-3.982c0-1.656-1.343-2.999-2.999-2.999zm0 1.5c.828 0 1.499.671 1.499 1.499v3.982c0 2.772-2.246 5.019-5.019 5.019h-3.982c-.828 0-1.499-.671-1.499-1.499v-3.982c0-2.772 2.247-5.019 5.019-5.019z"/><path d="m15.46 5.576 4.265 3.554c.665.555.779 1.534.26 2.227-.594.793-1.753.875-2.453.175v-.001s-.674-.706-1.938-.809c-1.084-.088-2.695.26-4.685 2.248-.292.292-.293.768 0 1.06.292.293.768.294 1.061.001 1.229-1.229 2.239-1.708 3.029-1.803.944-.113 1.473.365 1.473.365 1.344 1.345 3.571 1.187 4.713-.336.998-1.333.779-3.214-.5-4.279l-4.265-3.554c-.318-.265-.791-.222-1.056.096s-.222.791.096 1.056z"/></g></svg>