<svg clip-rule="evenodd" fill-rule="evenodd" height="512" stroke-linejoin="round" stroke-miterlimit="2" viewBox="0 0 24 24" width="512" xmlns="http://www.w3.org/2000/svg"><g id="Icon"><path d="m5.506 2.564c-.311-.272-.343-.746-.07-1.058.272-.311.746-.343 1.058-.07l3.341 2.923c.095.083.235.083.33 0l2.613-2.286c.71-.622 1.786-.568 2.431.121l7.339 7.848c.283.302.267.777-.036 1.06-.302.283-.777.267-1.06-.036l-7.339-7.847c-.092-.099-.246-.106-.347-.017l-2.614 2.286c-.659.578-1.645.578-2.304 0z"/><path d="m21.24 7.547c-.001-.414.334-.751.747-.753.414-.001.752.334.753.748l.01 3c.001.414-.333.751-.747.752l-3 .01c-.414.002-.752-.333-.753-.747s.334-.751.748-.753l2.249-.007z"/><path d="m9 7.25c4.277 0 7.75 3.473 7.75 7.75s-3.473 7.75-7.75 7.75-7.75-3.473-7.75-7.75 3.473-7.75 7.75-7.75zm0 1.5c-3.449 0-6.25 2.801-6.25 6.25s2.801 6.25 6.25 6.25 6.25-2.801 6.25-6.25-2.801-6.25-6.25-6.25z"/><path d="m9 7.25c.883 0 1.757.591 2.419 1.723.795 1.36 1.331 3.552 1.331 6.027s-.536 4.667-1.331 6.027c-.662 1.132-1.536 1.723-2.419 1.723s-1.757-.591-2.419-1.723c-.795-1.36-1.331-3.552-1.331-6.027s.536-4.667 1.331-6.027c.662-1.132 1.536-1.723 2.419-1.723zm0 1.5c-.443 0-.791.411-1.124.98-.694 1.188-1.126 3.109-1.126 5.27s.432 4.082 1.126 5.27c.333.569.681.98 1.124.98s.791-.411 1.124-.98c.694-1.188 1.126-3.109 1.126-5.27s-.432-4.082-1.126-5.27c-.333-.569-.681-.98-1.124-.98z"/><path d="m15.5 12.25c.414 0 .75.336.75.75s-.336.75-.75.75h-13c-.414 0-.75-.336-.75-.75s.336-.75.75-.75z"/><path d="m15.5 16.25c.414 0 .75.336.75.75s-.336.75-.75.75h-13c-.414 0-.75-.336-.75-.75s.336-.75.75-.75z"/></g></svg>