<svg clip-rule="evenodd" fill-rule="evenodd" height="512" stroke-linejoin="round" stroke-miterlimit="2" viewBox="0 0 24 24" width="512" xmlns="http://www.w3.org/2000/svg"><g id="Icon"><path d="m22.75 13c0-.414-.336-.75-.75-.75h-20c-.414 0-.75.336-.75.75v9c0 .414.336.75.75.75h20c.414 0 .75-.336.75-.75zm-1.5.75v7.5h-18.5v-7.5z"/><path d="m21.75 13v-11c0-.414-.336-.75-.75-.75s-.75.336-.75.75v11c0 .414.336.75.75.75s.75-.336.75-.75z"/><path d="m3.75 13v-11c0-.414-.336-.75-.75-.75s-.75.336-.75.75v11c0 .414.336.75.75.75s.75-.336.75-.75z"/><path d="m22 16.75h-20c-.414 0-.75.336-.75.75s.336.75.75.75h20c.414 0 .75-.336.75-.75s-.336-.75-.75-.75z"/><path d="m21 8.25h-18c-.414 0-.75.336-.75.75s.336.75.75.75h18c.414 0 .75-.336.75-.75s-.336-.75-.75-.75z"/><path d="m21 3.25h-18c-.414 0-.75.336-.75.75s.336.75.75.75h18c.414 0 .75-.336.75-.75s-.336-.75-.75-.75z"/><path d="m11.25 17.5v4.5c0 .414.336.75.75.75s.75-.336.75-.75v-4.5c0-.414-.336-.75-.75-.75s-.75.336-.75.75z"/><path d="m16.25 13v4.5c0 .414.336.75.75.75s.75-.336.75-.75v-4.5c0-.414-.336-.75-.75-.75s-.75.336-.75.75z"/><path d="m6.25 13v4.5c0 .414.336.75.75.75s.75-.336.75-.75v-4.5c0-.414-.336-.75-.75-.75s-.75.336-.75.75z"/><path d="m16.055 8.823 1.415 1.414c.292.293.768.293 1.06 0 .293-.292.293-.768 0-1.06l-1.414-1.414c-.293-.293-.768-.293-1.061 0-.292.292-.292.768 0 1.06z"/><path d="m16.055 3.823 1.415 1.414c.292.293.768.293 1.06 0 .293-.292.293-.768 0-1.06l-1.414-1.414c-.293-.293-.768-.293-1.061 0-.292.292-.292.768 0 1.06z"/><path d="m10.763 8.823 1.414 1.414c.292.293.768.293 1.06 0 .293-.292.293-.768 0-1.06l-1.414-1.414c-.292-.293-.768-.293-1.06 0-.293.292-.293.768 0 1.06z"/><path d="m10.763 3.823 1.414 1.414c.292.293.768.293 1.06 0 .293-.292.293-.768 0-1.06l-1.414-1.414c-.292-.293-.768-.293-1.06 0-.293.292-.293.768 0 1.06z"/><path d="m5.47 8.823 1.414 1.414c.293.293.768.293 1.061 0 .292-.292.292-.768 0-1.06l-1.415-1.414c-.292-.293-.768-.293-1.06 0-.293.292-.293.768 0 1.06z"/><path d="m5.47 3.823 1.414 1.414c.293.293.768.293 1.061 0 .292-.292.292-.768 0-1.06l-1.415-1.414c-.292-.293-.768-.293-1.06 0-.293.292-.293.768 0 1.06z"/><path d="m17.116 10.237 1.414-1.414c.293-.292.293-.768 0-1.06-.292-.293-.768-.293-1.06 0l-1.415 1.414c-.292.292-.292.768 0 1.06.293.293.768.293 1.061 0z"/><path d="m17.116 5.237 1.414-1.414c.293-.292.293-.768 0-1.06-.292-.293-.768-.293-1.06 0l-1.415 1.414c-.292.292-.292.768 0 1.06.293.293.768.293 1.061 0z"/><path d="m11.823 10.237 1.414-1.414c.293-.292.293-.768 0-1.06-.292-.293-.768-.293-1.06 0l-1.414 1.414c-.293.292-.293.768 0 1.06.292.293.768.293 1.06 0z"/><path d="m11.823 5.237 1.414-1.414c.293-.292.293-.768 0-1.06-.292-.293-.768-.293-1.06 0l-1.414 1.414c-.293.292-.293.768 0 1.06.292.293.768.293 1.06 0z"/><path d="m6.53 10.237 1.415-1.414c.292-.292.292-.768 0-1.06-.293-.293-.768-.293-1.061 0l-1.414 1.414c-.293.292-.293.768 0 1.06.292.293.768.293 1.06 0z"/><path d="m6.53 5.237 1.415-1.414c.292-.292.292-.768 0-1.06-.293-.293-.768-.293-1.061 0l-1.414 1.414c-.293.292-.293.768 0 1.06.292.293.768.293 1.06 0z"/></g></svg>