<svg clip-rule="evenodd" fill-rule="evenodd" stroke-linejoin="round" stroke-miterlimit="1.414" viewBox="0 0 32 32" xmlns="http://www.w3.org/2000/svg" xmlns:serif="http://www.serif.com/"><path id="first-aid-box-treatment" d="m0 0h32v32h-32z" fill="none"/><path d="m19.996 28.985h-13.988c-1.557-.009-2.963-1.348-2.993-2.959-.033-5.341 0-10.682 0-16.022.009-1.563 1.361-2.984 2.993-2.994h2.001c.029.001.058.003.087.004.282.037.355.085.486.177.47.329.559 1.098.133 1.524-.144.144-.332.242-.533.278-.076.013-.096.011-.173.015-.67 0-1.34-.004-2.01 0-.517.01-.977.464-.987.986-.014 2.335-.022 4.67-.024 7.005h5.019c.016 0 .032.001.048.001.629.046 1.113.752.886 1.352-.143.376-.532.635-.934.645h-5.019c.002 2.335.01 4.669.024 7.004.01.519.457.983 1.002.987h13.982c.284.012.361.054.499.133.522.302.656 1.123.207 1.572-.144.144-.332.242-.533.277-.076.014-.096.012-.173.015zm-8.655-20.234c-.056-.047-.107-.101-.151-.164-.119-.168-.179-.373-.184-.578v-3.996c.005-.182.022-.232.056-.329.123-.353.456-.621.831-.663.049-.006.062-.005.111-.006h7.992c.018 0 .037.001.056.001.181.015.231.035.326.075.327.135.57.455.61.811.006.049.005.062.006.111v2.984c1.678 0 3.355.003 5.032.013 1.539.029 2.929 1.339 2.959 2.96.033 5.34 0 10.681 0 16.022-.009 1.563-1.348 2.983-2.993 2.993h-2.001c-.077-.003-.097-.001-.173-.015-.778-.137-1.126-1.387-.326-1.849.138-.079.215-.121.499-.133.67 0 1.34.004 2.01 0 .516-.01.977-.465.987-.987.014-2.335.022-4.669.024-7.004h-5.019c-.729-.018-1.277-.973-.793-1.606.185-.243.484-.385.793-.392h5.019c-.002-2.335-.01-4.67-.024-7.005-.01-.518-.457-.983-1.002-.986h-13.982c-.284-.013-.361-.054-.499-.134-.06-.035-.115-.076-.164-.123zm3.66 8.248v-.999c.003-.163.018-.216.05-.312.132-.401.528-.687.969-.687.013.001.026.001.04.002.512.041.928.428.939.997v.999h.999l.039.001c.734.044 1.235 1.03.727 1.638-.186.224-.472.353-.766.359h-.999v.999c-.013.639-.716 1.158-1.33.942-.387-.136-.66-.529-.668-.942v-.999h-.999c-.768-.016-1.3-1.052-.74-1.67.186-.206.464-.323.74-.328zm3.996-10v-1.987h-5.994v1.998c1.998-.002 3.996-.008 5.994-.011z" fill-rule="nonzero"/></svg>