<svg clip-rule="evenodd" fill-rule="evenodd" height="512" stroke-linejoin="round" stroke-miterlimit="2" viewBox="0 0 24 24" width="512" xmlns="http://www.w3.org/2000/svg"><g id="Icon"><path d="m22.75 3c0-.464-.184-.909-.513-1.237-.328-.329-.773-.513-1.237-.513-3.414 0-14.586 0-18 0-.464 0-.909.184-1.237.513-.329.328-.513.773-.513 1.237v18c0 .464.184.909.513 1.237.328.329.773.513 1.237.513h18c.464 0 .909-.184 1.237-.513.329-.328.513-.773.513-1.237zm-1.5 0v18c0 .066-.026.13-.073.177s-.111.073-.177.073h-18c-.066 0-.13-.026-.177-.073s-.073-.111-.073-.177v-18c0-.066.026-.13.073-.177s.111-.073.177-.073h18c.066 0 .13.026.177.073s.073.111.073.177z"/><path d="m9.25 4.5c0-.414-.336-.75-.75-.75h-4c-.414 0-.75.336-.75.75v4c0 .414.336.75.75.75h4c.414 0 .75-.336.75-.75zm-1.5.75v2.5h-2.5v-2.5z"/><path d="m20.25 4.5c0-.414-.336-.75-.75-.75h-4c-.414 0-.75.336-.75.75v4c0 .414.336.75.75.75h4c.414 0 .75-.336.75-.75zm-1.5.75v2.5h-2.5v-2.5z"/><path d="m9.25 15.5c0-.414-.336-.75-.75-.75h-4c-.414 0-.75.336-.75.75v4c0 .414.336.75.75.75h4c.414 0 .75-.336.75-.75zm-1.5.75v2.5h-2.5v-2.5z"/><path d="m17.5 18.75h-1.75v-1.75c0-.414-.336-.75-.75-.75s-.75.336-.75.75v2.5c0 .414.336.75.75.75h2.5c.414 0 .75-.336.75-.75s-.336-.75-.75-.75z"/><path d="m7 12.25h-1.75v-1.25c0-.414-.336-.75-.75-.75s-.75.336-.75.75v2c0 .414.336.75.75.75h2.5c.414 0 .75-.336.75-.75s-.336-.75-.75-.75z"/><path d="m17 14.25h2.5c.414 0 .75-.336.75-.75v-2.5c0-.414-.336-.75-.75-.75s-.75.336-.75.75v1.75h-1.75c-.414 0-.75.336-.75.75s.336.75.75.75z"/><path d="m9.5 13.75h1.75v2.5h-.25c-.414 0-.75.336-.75.75s.336.75.75.75h1c.414 0 .75-.336.75-.75v-4c0-.414-.336-.75-.75-.75h-2.5c-.414 0-.75.336-.75.75s.336.75.75.75z"/><path d="m17 16.75h1.75v1.75c0 .414.336.75.75.75s.75-.336.75-.75v-2.5c0-.414-.336-.75-.75-.75h-2.5c-.414 0-.75.336-.75.75s.336.75.75.75z"/><path d="m11 20.25h1.5c.414 0 .75-.336.75-.75s-.336-.75-.75-.75h-1.5c-.414 0-.75.336-.75.75s.336.75.75.75z"/><path d="m9 11.75h2c.414 0 .75-.336.75-.75v-2c0-.414-.336-.75-.75-.75s-.75.336-.75.75v1.25h-1.25c-.414 0-.75.336-.75.75s.336.75.75.75z"/><path d="m14.5 11.75h2.5c.414 0 .75-.336.75-.75s-.336-.75-.75-.75h-2.5c-.414 0-.75.336-.75.75s.336.75.75.75z"/><path d="m15.25 14.5v-1c0-.414-.336-.75-.75-.75s-.75.336-.75.75v1c0 .414.336.75.75.75s.75-.336.75-.75z"/><path d="m11.75 6.5v-2c0-.414-.336-.75-.75-.75s-.75.336-.75.75v2c0 .414.336.75.75.75s.75-.336.75-.75z"/><path d="m14.25 5.5v-1c0-.414-.336-.75-.75-.75s-.75.336-.75.75v1c0 .414.336.75.75.75s.75-.336.75-.75z"/><path d="m14.25 9v-1c0-.414-.336-.75-.75-.75s-.75.336-.75.75v1c0 .414.336.75.75.75s.75-.336.75-.75z"/></g></svg>