<svg clip-rule="evenodd" fill-rule="evenodd" height="512" stroke-linejoin="round" stroke-miterlimit="2" viewBox="0 0 24 24" width="512" xmlns="http://www.w3.org/2000/svg"><g id="Icon"><path d="m12.723 8.685c.01-.078-.037-.151-.111-.176s-.155.005-.194.073c-.653 1.118-1.906 3.266-2.33 3.993-.03.051-.03.114-.001.165.03.051.084.083.143.083h1.359s-.19 1.518-.312 2.492c-.01.078.037.151.111.176s.155-.005.194-.073c.653-1.118 1.906-3.266 2.33-3.993.03-.051.03-.114.001-.165-.03-.051-.084-.083-.143-.083-.471 0-1.359 0-1.359 0s.19-1.518.312-2.492z"/><path d="m12 6.25c3.174 0 5.75 2.576 5.75 5.75s-2.576 5.75-5.75 5.75-5.75-2.576-5.75-5.75 2.576-5.75 5.75-5.75zm0 1.5c-2.346 0-4.25 1.904-4.25 4.25s1.904 4.25 4.25 4.25 4.25-1.904 4.25-4.25-1.904-4.25-4.25-4.25z"/><path d="m14.655 2.014s.293 1.237.468 1.96l.001.003c.018.077.073.141.147.171l.006.003c.672.28 1.305.646 1.883 1.09l.003.003c.064.049.148.065.225.042l1.933-.578c.281-.085.586.004.78.225.915 1.05 1.618 2.267 2.069 3.585.096.278.02.586-.194.788 0 0-.925.873-1.463 1.386l-.003.002c-.058.055-.086.134-.075.213l.001.006c.093.723.093 1.454-.003 2.176v.004c-.011.08.017.161.075.216l1.468 1.385c.214.202.29.51.194.788-.451 1.318-1.154 2.535-2.069 3.585-.194.221-.499.31-.78.225 0 0-1.218-.364-1.931-.574l-.004-.001c-.076-.023-.159-.007-.222.042l-.005.003c-.579.442-1.213.808-1.886 1.086l-.004.001c-.074.031-.13.096-.149.174l-.465 1.963c-.068.286-.297.506-.585.563-1.367.268-2.773.268-4.14 0-.288-.057-.517-.277-.585-.563 0 0-.293-1.237-.468-1.96l-.001-.003c-.018-.077-.073-.141-.147-.171l-.006-.003c-.672-.28-1.305-.646-1.883-1.09l-.003-.003c-.064-.049-.148-.065-.225-.042l-1.933.578c-.281.085-.586-.004-.78-.225-.915-1.05-1.618-2.267-2.069-3.585-.096-.278-.02-.586.194-.788 0 0 .925-.873 1.463-1.386l.003-.002c.058-.055.086-.134.075-.213l-.001-.006c-.093-.723-.093-1.454.003-2.176v-.004c.011-.08-.017-.161-.075-.216l-1.468-1.385c-.214-.202-.29-.51-.194-.788.451-1.318 1.154-2.535 2.069-3.585.194-.221.499-.31.78-.225 0 0 1.218.364 1.931.574l.004.001c.076.023.159.007.222-.042l.005-.003c.579-.442 1.213-.808 1.886-1.086l.004-.001c.074-.031.13-.096.149-.174l.465-1.963c.068-.286.297-.506.585-.563 1.367-.268 2.773-.268 4.14 0 .288.057.517.277.585.563zm-1.345.829c-.869-.124-1.751-.124-2.62 0l-.351 1.482c-.131.549-.52 1.002-1.04 1.214-.553.228-1.073.528-1.543.887-.446.346-1.032.456-1.569.295-.429-.126-1.041-.309-1.462-.434-.542.69-.983 1.454-1.31 2.269l1.107 1.045c.411.388.609.951.532 1.507-.079.593-.079 1.194-.003 1.781.077.559-.121 1.121-.529 1.506-.324.308-.788.747-1.107 1.049.327.814.768 1.578 1.31 2.269l1.459-.437c.541-.161 1.128-.051 1.571.294.474.364.994.665 1.54.893.523.212.91.665 1.04 1.211.105.435.253 1.056.355 1.483.869.124 1.751.124 2.62 0l.351-1.482c.131-.549.52-1.002 1.04-1.214.553-.228 1.073-.528 1.543-.887.446-.346 1.032-.456 1.569-.295.429.126 1.041.309 1.462.434.542-.69.983-1.454 1.31-2.269l-1.107-1.045c-.411-.388-.609-.951-.532-1.507.079-.593.079-1.194.003-1.781-.077-.559.121-1.121.529-1.506.324-.308.788-.747 1.107-1.049-.327-.814-.768-1.578-1.31-2.269l-1.459.437c-.541.161-1.128.051-1.571-.294-.474-.364-.994-.665-1.54-.893-.523-.212-.91-.665-1.04-1.211-.105-.435-.253-1.056-.355-1.483z"/></g></svg>