<svg clip-rule="evenodd" fill-rule="evenodd" height="512" stroke-linejoin="round" stroke-miterlimit="2" viewBox="0 0 24 24" width="512" xmlns="http://www.w3.org/2000/svg"><g id="Icon"><path d="m11 1.25c-5.381 0-9.75 4.369-9.75 9.75s4.369 9.75 9.75 9.75 9.75-4.369 9.75-9.75-4.369-9.75-9.75-9.75zm0 1.5c4.553 0 8.25 3.697 8.25 8.25s-3.697 8.25-8.25 8.25-8.25-3.697-8.25-8.25 3.697-8.25 8.25-8.25z"/><path d="m22.53 21.47-4.5-4.5c-.292-.293-.768-.293-1.06 0-.293.292-.293.768 0 1.06l4.5 4.5c.292.293.768.293 1.06 0 .293-.292.293-.768 0-1.06z"/><path d="m11 7.25c-2.07 0-3.75 1.68-3.75 3.75s1.68 3.75 3.75 3.75 3.75-1.68 3.75-3.75-1.68-3.75-3.75-3.75zm0 1.5c1.242 0 2.25 1.008 2.25 2.25s-1.008 2.25-2.25 2.25-2.25-1.008-2.25-2.25 1.008-2.25 2.25-2.25z"/><path d="m14 11.75h2c.414 0 .75-.336.75-.75s-.336-.75-.75-.75h-2c-.414 0-.75.336-.75.75s.336.75.75.75z"/><path d="m13.652 9.409 1.414-1.414c.293-.293.293-.768 0-1.061s-.768-.293-1.061 0l-1.414 1.414c-.293.293-.293.768 0 1.061s.768.293 1.061 0z"/><path d="m11.75 8v-2c0-.414-.336-.75-.75-.75s-.75.336-.75.75v2c0 .414.336.75.75.75s.75-.336.75-.75z"/><path d="m9.409 8.348-1.414-1.414c-.293-.293-.768-.293-1.061 0s-.293.768 0 1.061l1.414 1.414c.293.293.768.293 1.061 0s.293-.768 0-1.061z"/><path d="m8 10.25h-2c-.414 0-.75.336-.75.75s.336.75.75.75h2c.414 0 .75-.336.75-.75s-.336-.75-.75-.75z"/><path d="m8.348 12.591-1.414 1.414c-.293.293-.293.768 0 1.061s.768.293 1.061 0l1.414-1.414c.293-.293.293-.768 0-1.061s-.768-.293-1.061 0z"/><path d="m10.25 14v2c0 .414.336.75.75.75s.75-.336.75-.75v-2c0-.414-.336-.75-.75-.75s-.75.336-.75.75z"/><path d="m12.591 13.652 1.414 1.414c.293.293.768.293 1.061 0s.293-.768 0-1.061l-1.414-1.414c-.293-.293-.768-.293-1.061 0s-.293.768 0 1.061z"/></g></svg>