<svg clip-rule="evenodd" fill-rule="evenodd" height="512" stroke-linejoin="round" stroke-miterlimit="2" viewBox="0 0 24 24" width="512" xmlns="http://www.w3.org/2000/svg"><g id="Icon"><path d="m11.789 22.751.211.002h.03c5.92 0 10.72-4.8 10.72-10.72v-4.983c0-1.03-.887-1.835-1.913-1.748-1.407.118-2.753.449-4.008.956-2.613 1.058-4.824 2.899-6.347 5.237l.011-.017c-.022.032-.045.076-.067.109-.002.003-.004.007-.007.01-1.375 2.137-2.169 4.676-2.169 7.406v2.54c0 .327.212.617.524.715.958.303 1.963.473 3.015.493zm.211-1.497v-.001c-.78 0-1.53-.095-2.25-.276 0-.001 0-1.974 0-1.974 0-2.43.706-4.691 1.931-6.594.011-.017.028-.053.046-.079.004-.006.008-.011.011-.016 1.357-2.083 3.326-3.723 5.653-4.666 1.119-.451 2.318-.746 3.572-.852.152-.012.287.102.287.254v4.983c0 5.084-4.115 9.207-9.195 9.22-.009 0-.02 0-.031 0z"/><path d="m12 21.253c-.971 0-1.896-.148-2.774-.425-3.756-1.184-6.476-4.69-6.476-8.825v-4.937c0-.155.14-.272.294-.255 1.184.136 2.301.497 3.313 1.034 1.793.962 3.236 2.496 4.068 4.363.168.379.612.549.99.38.378-.168.549-.612.38-.99-.968-2.172-2.645-3.958-4.731-5.076-.001 0-.001-.001-.002-.001-1.176-.624-2.474-1.043-3.849-1.2-.001 0-.001 0-.002 0-1.043-.117-1.961.697-1.961 1.745v4.937c0 4.805 3.16 8.879 7.524 10.255 1.022.323 2.097.495 3.226.495.414 0 .75-.336.75-.75s-.336-.75-.75-.75z"/><path d="m7.324 7.613c.957-1.364 2.068-2.615 3.314-3.723 0 0 1.217-1.079 1.217-1.079.084-.074.206-.074.289 0l1.221 1.081c1.177 1.035 2.228 2.212 3.135 3.483.24.337.709.415 1.046.174.337-.24.415-.709.174-1.046-.973-1.363-2.102-2.626-3.365-3.737.002.002-1.217-1.078-1.217-1.078 0-.001 0-.001 0-.001-.659-.582-1.615-.583-2.275-.001l-1.221 1.082c-1.334 1.186-2.523 2.525-3.546 3.984-.238.339-.155.807.183 1.045.339.238.807.155 1.045-.184z"/></g></svg>