<svg clip-rule="evenodd" fill-rule="evenodd" height="512" stroke-linejoin="round" stroke-miterlimit="2" viewBox="0 0 24 24" width="512" xmlns="http://www.w3.org/2000/svg"><g id="Icon"><circle cx="12" cy="14.479" r="1"/><path d="m10.95 13.037c.293-.219.656-.349 1.049-.349.394 0 .757.13 1.049.349.331.249.802.182 1.051-.149.248-.331.181-.801-.15-1.05-.543-.408-1.218-.65-1.95-.65-.731 0-1.406.242-1.949.65-.331.249-.398.719-.15 1.05.249.331.72.398 1.05.149z"/><path d="m9.95 10.954c.572-.429 1.281-.683 2.05-.683s1.478.254 2.05.683c.33.249.801.182 1.05-.149.248-.331.181-.802-.15-1.05-.822-.618-1.843-.984-2.95-.984s-2.128.366-2.95.984c-.331.248-.398.719-.15 1.05.249.331.72.398 1.05.149z"/><path d="m18.75 8c0-1.519-1.231-2.75-2.75-2.75h-8c-1.519 0-2.75 1.231-2.75 2.75v8c0 1.519 1.231 2.75 2.75 2.75h8c1.519 0 2.75-1.231 2.75-2.75zm-1.5 0v8c0 .69-.56 1.25-1.25 1.25h-8c-.69 0-1.25-.56-1.25-1.25v-8c0-.69.56-1.25 1.25-1.25h8c.69 0 1.25.56 1.25 1.25z"/><path d="m17.228 5.818-.811-3.242c-.195-.779-.895-1.326-1.698-1.326h-5.438c-.803 0-1.503.547-1.698 1.326l-.811 3.242c-.056.224-.005.462.137.644s.36.288.591.288h9c.231 0 .449-.106.591-.288s.193-.42.137-.644zm-2.266-2.879.577 2.311h-7.078s.577-2.311.577-2.311c.028-.111.128-.189.243-.189h5.438c.115 0 .215.078.243.189z"/><path d="m16.417 21.424.811-3.242c.056-.224.005-.462-.137-.644s-.36-.288-.591-.288h-9c-.231 0-.449.106-.591.288s-.193.42-.137.644l.811 3.242c.195.779.895 1.326 1.698 1.326h5.438c.803 0 1.503-.547 1.698-1.326zm-1.455-.363c-.028.111-.128.189-.243.189h-5.438c-.115 0-.215-.078-.243-.189 0 0-.577-2.311-.577-2.311h7.078z"/></g></svg>