<svg clip-rule="evenodd" fill-rule="evenodd" height="512" stroke-linejoin="round" stroke-miterlimit="2" viewBox="0 0 24 24" width="512" xmlns="http://www.w3.org/2000/svg"><g id="Icon"><circle cx="16.75" cy="5.167" r="1.014"/><path d="m14.25 16.25c-1.794 0-3.25 1.456-3.25 3.25s1.456 3.25 3.25 3.25 3.25-1.456 3.25-3.25-1.456-3.25-3.25-3.25zm0 1.5c.966 0 1.75.784 1.75 1.75s-.784 1.75-1.75 1.75-1.75-.784-1.75-1.75.784-1.75 1.75-1.75z"/><path d="m6.25 11.25c-1.794 0-3.25 1.456-3.25 3.25s1.456 3.25 3.25 3.25 3.25-1.456 3.25-3.25-1.456-3.25-3.25-3.25zm0 1.5c.966 0 1.75.784 1.75 1.75s-.784 1.75-1.75 1.75-1.75-.784-1.75-1.75.784-1.75 1.75-1.75z"/><path d="m14.15 9.05c-.408.543-.65 1.219-.65 1.95 0 1.794 1.456 3.25 3.25 3.25s3.25-1.456 3.25-3.25c0-.731-.242-1.407-.65-1.95-.249-.331-.72-.398-1.05-.149-.331.248-.398.719-.15 1.05.22.292.35.656.35 1.049 0 .966-.784 1.75-1.75 1.75s-1.75-.784-1.75-1.75c0-.393.13-.757.35-1.049.248-.331.181-.802-.15-1.05-.33-.249-.801-.182-1.05.149z"/><path d="m16.75 1.25c-2.346 0-4.25 1.904-4.25 4.25 0 1.056.598 2.337 1.358 3.477 1.05 1.575 2.362 2.887 2.362 2.887.293.293.767.293 1.06 0 0 0 1.312-1.312 2.362-2.887.76-1.14 1.358-2.421 1.358-3.477 0-2.346-1.904-4.25-4.25-4.25zm0 1.5c1.518 0 2.75 1.232 2.75 2.75 0 .811-.522 1.769-1.106 2.645-.561.842-1.204 1.602-1.644 2.092-.44-.49-1.083-1.25-1.644-2.092-.584-.876-1.106-1.834-1.106-2.645 0-1.518 1.232-2.75 2.75-2.75z"/><path d="m11.85 17.313-3.44-1.5c-.38-.166-.822.008-.987.387-.166.38.008.822.387.987l3.44 1.5c.38.166.822-.008.987-.387.166-.38-.008-.822-.387-.987z"/><path d="m14.101 10.765-6 1.214c-.405.082-.668.478-.586.884s.478.668.884.586l6-1.214c.405-.082.668-.478.586-.884-.082-.405-.478-.668-.884-.586z"/></g></svg>