<svg clip-rule="evenodd" fill-rule="evenodd" stroke-linejoin="round" stroke-miterlimit="1.414" viewBox="0 0 32 32" xmlns="http://www.w3.org/2000/svg" xmlns:serif="http://www.serif.com/"><path id="home-dashboard-house-front" d="m0 0h32v32h-32z" fill="none"/><g id="home-dashboard-house-front1"><path d="m25.005 12.637c-2.778-2.462-5.553-4.929-8.35-7.371-.366-.312-.947-.313-1.317.01l-10.678 9.431c-.51.409-1.336.243-1.587-.369-.133-.324-.081-.715.133-.992.051-.067.069-.08.13-.139l10.681-9.434c.538-.47 1.242-.738 1.952-.75h.066c.711.012 1.413.28 1.951.75l10.682 9.434c.223.217.253.31.301.477.186.659-.492 1.424-1.208 1.243-.153-.039-.291-.119-.417-.22-.113-.1-.225-.199-.338-.299v11.556c-.01 1.514-1.279 2.917-2.852 2.995-.038.002-.075.003-.112.003-5.349.033-10.697 0-16.046 0-1.566-.009-2.988-1.363-2.998-2.998v-8.604c.013-.285.054-.362.134-.501.302-.522 1.124-.657 1.574-.207.144.145.242.333.278.534.013.076.011.096.015.174 0 2.871-.018 5.742 0 8.614.009.514.447.978.988.988 3.672.022 7.344.03 11.016.021v-10.025h-6.002v7.003c-.009.252-.043.327-.112.46-.308.594-1.279.722-1.706.117-.092-.131-.152-.283-.173-.441-.009-.06-.008-.076-.01-.136v-8.003c.007-.21.026-.245.058-.335.122-.344.442-.606.806-.656.061-.008.076-.007.137-.009h8.002c.023 0 .046.001.069.002.208.021.242.042.33.08.355.154.588.526.602.918v11.019c1.004-.004 2.009-.009 3.013-.015.521-.01.985-.458.988-1.004z" fill-rule="nonzero"/></g></svg>