<svg clip-rule="evenodd" fill-rule="evenodd" height="512" stroke-linejoin="round" stroke-miterlimit="2" viewBox="0 0 24 24" width="512" xmlns="http://www.w3.org/2000/svg"><g id="Icon"><circle cx="18.5" cy="10.5" r="1"/><circle cx="15" cy="10.5" r="1"/><path d="m18 18.25h2c.729 0 1.429-.29 1.945-.805.515-.516.805-1.216.805-1.945 0-1.866 0-4.634 0-6.5 0-.729-.29-1.429-.805-1.945-.516-.515-1.216-.805-1.945-.805-3.832 0-12.168 0-16 0-.729 0-1.429.29-1.945.805-.515.516-.805 1.216-.805 1.945v6.5c0 .729.29 1.429.805 1.945.516.515 1.216.805 1.945.805h2c.414 0 .75-.336.75-.75s-.336-.75-.75-.75c0 0-1 0-2 0-.332 0-.649-.132-.884-.366-.234-.235-.366-.552-.366-.884v-6.5c0-.332.132-.649.366-.884.235-.234.552-.366.884-.366h16c.332 0 .649.132.884.366.234.235.366.552.366.884v6.5c0 .332-.132.649-.366.884-.235.234-.552.366-.884.366h-2c-.414 0-.75.336-.75.75s.336.75.75.75z"/><path d="m18.75 3c0-.464-.184-.909-.513-1.237-.328-.329-.773-.513-1.237-.513-2.26 0-7.74 0-10 0-.464 0-.909.184-1.237.513-.329.328-.513.773-.513 1.237v4c0 .414.336.75.75.75h12c.414 0 .75-.336.75-.75zm-1.5 0v3.25h-10.5v-3.25c0-.066.026-.13.073-.177s.111-.073.177-.073h10c.066 0 .13.026.177.073s.073.111.073.177z"/><path d="m18.75 21v-7c0-.414-.336-.75-.75-.75h-12c-.414 0-.75.336-.75.75v7c0 .464.184.909.513 1.237.328.329.773.513 1.237.513h10c.464 0 .909-.184 1.237-.513.329-.328.513-.773.513-1.237zm-1.5 0c0 .066-.026.13-.073.177s-.111.073-.177.073h-10c-.066 0-.13-.026-.177-.073s-.073-.111-.073-.177v-6.25h10.5z"/><path d="m9.5 18.75h5c.414 0 .75-.336.75-.75s-.336-.75-.75-.75h-5c-.414 0-.75.336-.75.75s.336.75.75.75z"/></g></svg>