<svg clip-rule="evenodd" fill-rule="evenodd" stroke-linejoin="round" stroke-miterlimit="2" viewBox="0 0 32 32" xmlns="http://www.w3.org/2000/svg" xmlns:serif="http://www.serif.com/"><path id="chat-message-inbox-draft" d="m0 0h32v32h-32z" fill="none"/><path d="m16.919 10.964c2.694-.01 5.525-.192 7.571-2.08.551-.509.704-1.527-.125-1.848-.385-.15-.812-.02-1.146.3-.307.289-.426.383-.66.552-1.736 1.25-4.077 1.076-6.179 1.078-3.467 0-6.935-.021-10.402.001-1.539.029-2.928 1.343-2.959 2.959-.026 4.022-.025 8.045 0 12.067.029 1.547 1.366 2.931 2.96 2.96 6.687.042 13.374.042 20.06 0 1.557-.029 2.951-1.362 2.961-2.994v-19.989c-.036-.764-1.045-1.283-1.654-.755-.21.182-.324.329-.345.755 0 6.67.124 13.341 0 20.01-.016.513-.469.965-.986.975-6.675.041-13.35.124-20.023 0-.511-.016-.965-.467-.975-.987-.025-4.01-.076-8.021.001-12.03.016-.513.468-.963.985-.973 3.638-.023 7.263.008 10.916-.001zm1.089 3.998h-7.994c-1.004.028-1.383 1.96 0 1.999h7.994c.019-.001.037-.001.056-.002.968-.082 1.327-1.958-.056-1.997zm3.997 3.997h-11.991c-.253.009-.327.043-.46.112-.765.397-.662 1.848.46 1.887h11.991c.023-.001.045-.002.068-.003.742-.076.796-.376.894-.727.167-.596-.232-1.244-.962-1.269z"/></svg>