<svg clip-rule="evenodd" fill-rule="evenodd" stroke-linejoin="round" stroke-miterlimit="1.414" viewBox="0 0 32 32" xmlns="http://www.w3.org/2000/svg" xmlns:serif="http://www.serif.com/"><path id="eye-health-hospital-care" d="m0 0h32v32h-32z" fill="none"/><path d="m16.071 8.106c2.605.021 5.182.973 7.164 2.615l5.429 4.524c.436.402.459 1.116 0 1.538l-5.429 4.524c-3.128 2.592-7.699 3.343-11.528 1.764-1.055-.435-2.043-1.036-2.922-1.764l-1.317-1.098c-.569-.522-.341-1.623.479-1.757.221-.036.45.004.646.112.074.041.089.056.157.107.693.578 1.364 1.192 2.108 1.689 3.284 2.194 7.979 1.991 11.098-.593l4.503-3.753c-1.515-1.262-3.026-2.529-4.545-3.787-3.172-2.599-8.191-2.819-11.603-.164-.083.065-.165.131-.246.198l-5.426 4.522c-.068.051-.083.067-.157.108-.702.387-1.777-.389-1.406-1.267.062-.146.162-.27.281-.379l5.428-4.524c1.975-1.636 4.501-2.58 7.105-2.614.06-.001.12-.001.181-.001zm-.035 3.904c1.854.018 3.586 1.452 3.916 3.297.318 1.779-.73 3.708-2.405 4.406-1.431.595-3.198.262-4.316-.817-1.214-1.171-1.562-3.145-.808-4.662.651-1.308 2.044-2.2 3.536-2.224zm-.039 2.002c-1.319.013-2.408 1.571-1.797 2.858.435.916 1.634 1.387 2.578.994 1.21-.504 1.636-2.347.596-3.315-.369-.344-.874-.538-1.377-.537z" fill-rule="nonzero"/></svg>