<svg clip-rule="evenodd" fill-rule="evenodd" height="512" stroke-linejoin="round" stroke-miterlimit="2" viewBox="0 0 24 24" width="512" xmlns="http://www.w3.org/2000/svg"><g id="Icon"><path d="m13.95 13c0 .464-.184.909-.513 1.237-.328.329-.773.513-1.237.513h-1.4c-.414 0-.75-.336-.75-.75s.336-.75.75-.75h1.4c.066 0 .13-.026.177-.073s.073-.111.073-.177-.026-.13-.073-.177-.111-.073-.177-.073h-.4c-.464 0-.909-.184-1.237-.513-.329-.328-.513-.773-.513-1.237s.184-.909.513-1.237c.328-.329.773-.513 1.237-.513h1.4c.414 0 .75.336.75.75s-.336.75-.75.75h-1.4c-.066 0-.13.026-.177.073s-.073.111-.073.177.026.13.073.177.111.073.177.073h.4c.464 0 .909.184 1.237.513.329.328.513.773.513 1.237z"/><path d="m12.75 10c0 .414-.336.75-.75.75s-.75-.336-.75-.75v-1c0-.414.336-.75.75-.75s.75.336.75.75z"/><path d="m12.75 15c0 .414-.336.75-.75.75s-.75-.336-.75-.75v-1c0-.414.336-.75.75-.75s.75.336.75.75z"/><path d="m12 5.25c3.725 0 6.75 3.025 6.75 6.75s-3.025 6.75-6.75 6.75-6.75-3.025-6.75-6.75 3.025-6.75 6.75-6.75zm0 1.5c-2.898 0-5.25 2.352-5.25 5.25s2.352 5.25 5.25 5.25 5.25-2.352 5.25-5.25-2.352-5.25-5.25-5.25z"/><path d="m18.603 5.525c-.29-.295-.285-.771.011-1.06.295-.29.77-.286 1.06.01 1.902 1.94 3.076 4.596 3.076 7.525 0 5.933-4.817 10.75-10.75 10.75-.414 0-.75-.336-.75-.75s.336-.75.75-.75c5.105 0 9.25-4.145 9.25-9.25 0-2.52-1.01-4.806-2.647-6.475z"/><path d="m5.397 18.475c.29.295.285.771-.011 1.06-.295.29-.77.286-1.06-.01-1.902-1.94-3.076-4.596-3.076-7.525 0-5.933 4.817-10.75 10.75-10.75.414 0 .75.336.75.75s-.336.75-.75.75c-5.105 0-9.25 4.145-9.25 9.25 0 2.52 1.01 4.806 2.647 6.475z"/><path d="m21.5 4.25c.414 0 .75.336.75.75s-.336.75-.75.75h-1.75v1.75c0 .414-.336.75-.75.75s-.75-.336-.75-.75v-2.5c0-.414.336-.75.75-.75z"/><path d="m2.5 19.75c-.414 0-.75-.336-.75-.75s.336-.75.75-.75h1.75v-1.75c0-.414.336-.75.75-.75s.75.336.75.75v2.5c0 .414-.336.75-.75.75z"/></g></svg>