<svg clip-rule="evenodd" fill-rule="evenodd" stroke-linejoin="round" stroke-miterlimit="2" viewBox="0 0 32 32" xmlns="http://www.w3.org/2000/svg" xmlns:serif="http://www.serif.com/"><path id="creativity-palette-colour" d="m0 0h32v32h-32z" fill="none"/><path d="m16.413 3c1.75.021 3.826 1.172 3.432 3.614 0 0-.277.813-.922.856-.619.041-1.125-.558-1.04-1.234.128-1.132-1.696-1.453-3.448-.903-4.324 1.357-7.807 5.465-8.069 10.064-.183 3.223.796 6.735 3.02 8.77 3.402 3.115 9.049 3.699 12.906 1.757 1.699-.855 2.798-2.462 3.163-4.788.253-1.611-.007-3.364-1.02-4.658-1.483-1.893-4.013-2.736-5.895-4.097-.754-.546-1.453-1.281-1.592-2.254 0 0-.041-.54.299-.865.525-.499 1.536-.178 1.678.581.221 1.187 1.999 1.657 3.337 2.421 2.208 1.271 4.298 3 4.996 5.41.955 3.3-.142 7.222-2.69 9.176-3.624 2.778-9.049 2.589-12.98.988-2.588-1.053-4.822-2.987-5.918-5.63-1.679-4.052-1.85-8.774.449-12.638 1.748-2.937 4.635-5.218 7.851-6.183.792-.238 1.614-.391 2.443-.387zm3.559 15.972c1.969.037 3.59 2.365 2.66 4.294-.81 1.681-3.365 2.204-4.765.869-1.646-1.569-.763-5.11 2.028-5.163.038-.001.038-.001.077 0zm-.052 1.997c-.859.016-1.409 1.48-.375 1.918.733.31 1.733-.585 1.255-1.416-.179-.31-.505-.505-.88-.502zm-7.936-3.994c1.97.037 3.591 2.365 2.661 4.294-.811 1.681-3.366 2.204-4.766.869-1.646-1.569-.763-5.11 2.028-5.163zm-.052 1.997c-.859.016-1.409 1.48-.374 1.918.732.31 1.732-.585 1.254-1.416-.178-.31-.504-.505-.88-.502zm.052-9.985c1.97.037 3.591 2.366 2.661 4.294-.811 1.681-3.366 2.204-4.766.869-1.646-1.569-.763-5.11 2.028-5.163zm-.052 1.997c-.859.016-1.409 1.481-.374 1.919.732.31 1.732-.586 1.254-1.417-.178-.31-.505-.505-.88-.502z"/></svg>