<svg clip-rule="evenodd" fill-rule="evenodd" height="512" stroke-linejoin="round" stroke-miterlimit="2" viewBox="0 0 24 24" width="512" xmlns="http://www.w3.org/2000/svg"><g id="Icon"><path d="m4.649 8.25h-1.649c-.968 0-1.75.782-1.75 1.75v4c0 .968.782 1.75 1.75 1.75h1.649c.056 0 .111.019.155.054l3.103 2.482c1.146.916 2.843.101 2.843-1.367v-9.838c0-1.468-1.697-2.284-2.844-1.367l-3.102 2.482c-.044.035-.099.054-.155.054zm0 1.5c.398 0 .783-.135 1.093-.384l3.102-2.481c.163-.131.406-.014.406.196v9.838c0 .21-.243.326-.406.195l-3.103-2.481c-.309-.248-.694-.383-1.092-.383h-1.649c-.138 0-.25-.112-.25-.25v-4c0-.138.112-.25.25-.25z"/><path d="m18.539 5.46c1.675 1.675 2.711 3.987 2.711 6.539 0 2.554-1.036 4.866-2.711 6.541-.292.293-.292.768.001 1.061.292.293.768.292 1.06 0 1.946-1.947 3.15-4.635 3.15-7.602 0-2.965-1.204-5.653-3.15-7.6-.292-.292-.768-.293-1.06 0-.293.293-.293.768-.001 1.061z"/><path d="m15.712 8.292c.953.945 1.538 2.256 1.538 3.708 0 1.451-.585 2.763-1.538 3.707-.294.291-.296.766-.005 1.06.291.295.767.297 1.061.005 1.227-1.215 1.982-2.904 1.982-4.772 0-1.869-.755-3.557-1.982-4.773-.294-.292-.77-.289-1.061.005s-.289.769.005 1.06z"/><path d="m13.933 13.948c.511-.498.817-1.188.817-1.948s-.306-1.45-.817-1.948c-.297-.288-.772-.282-1.061.015-.288.297-.282.772.015 1.061.229.222.363.532.363.872s-.134.65-.363.872c-.297.289-.303.764-.015 1.061.289.297.764.303 1.061.015z"/></g></svg>