<svg clip-rule="evenodd" fill-rule="evenodd" height="512" stroke-linejoin="round" stroke-miterlimit="2" viewBox="0 0 24 24" width="512" xmlns="http://www.w3.org/2000/svg"><g id="Icon"><circle cx="20.75" cy="3.5" r="1.5"/><circle cx="17.25" cy="3.5" r="1.5"/><path d="m16.062 21.25-1.952-.325c-.735-.123-1.485-.123-2.22 0-.33.055-.697.116-1.027.171-.571.095-1.155.095-1.726 0-.33-.055-.697-.116-1.027-.171-.735-.123-1.485-.123-2.22 0l-.782.13c-.471.078-.948.092-1.42.041.135-.09.279-.181.43-.267.557-.32 1.21-.599 1.859-.579.414.012.76-.314.773-.727.012-.414-.314-.76-.727-.773-.921-.027-1.862.324-2.652.778-1.104.634-1.904 1.444-1.904 1.444-.213.216-.276.537-.159.817.094.226.291.388.522.441h-.001s.4.1.778.195c.899.225 1.834.262 2.747.11.261-.044.533-.089.783-.131.571-.095 1.155-.095 1.726 0 .33.055.697.116 1.027.171.735.123 1.485.123 2.22 0 .33-.055.697-.116 1.027-.171.571-.095 1.155-.095 1.726 0 .874.146 2.014.336 2.014.336.04.007.082.01.123.01h1c1.525 0 2.988-.606 4.066-1.684s1.684-2.541 1.684-4.066c0-2.774 0-5.131 0-7.5 0-2.071-1.679-3.75-3.75-3.75s-3.75 1.679-3.75 3.75v5.502c0 .861-.342 1.688-.951 2.297s-1.436.951-2.297.951c-.414 0-.75.336-.75.75s.336.75.75.75c1.259 0 2.467-.5 3.357-1.391.891-.89 1.391-2.098 1.391-3.357 0-2.968 0-5.502 0-5.502 0-1.243 1.007-2.25 2.25-2.25s2.25 1.007 2.25 2.25v7.5c0 1.127-.448 2.208-1.245 3.005s-1.878 1.245-3.005 1.245z"/><path d="m9.819 15.315c.313.675-.299 1.462-1.054 1.431-.388-.016-.793-.248-1.187-.724-.531-.642-.437-1.442-.034-2.081.663-1.054 2.161-1.723 3.544-.814 1.222.803 1.57 2.349 1.25 3.684-.312 1.306-1.29 2.439-2.838 2.439-3.449 0-6.25-2.801-6.25-6.25s2.801-6.25 6.25-6.25c2.629 0 4.881 1.627 5.804 3.928.154.384.591.571.975.417s.571-.591.417-.975c-1.144-2.853-3.936-4.87-7.196-4.87-4.277 0-7.75 3.473-7.75 7.75s3.473 7.75 7.75 7.75c2.316 0 3.829-1.636 4.297-3.59.461-1.925-.123-4.128-1.885-5.287-2.198-1.444-4.583-.406-5.638 1.269-.742 1.179-.831 2.652.148 3.836 1.27 1.535 2.728 1.497 3.717.888 1.046-.645 1.588-2.002 1.042-3.181-.174-.376-.621-.54-.996-.366-.376.174-.54.621-.366.996z"/><path d="m3 15.25h1.5c.414 0 .75-.336.75-.75s-.336-.75-.75-.75h-1.5c-.414 0-.75.336-.75.75s.336.75.75.75z"/><path d="m3.876 8.916 1 1.5c.23.344.696.438 1.04.208s.438-.696.208-1.04l-1-1.5c-.23-.344-.696-.438-1.04-.208s-.438.696-.208 1.04z"/><path d="m11.304 6.221-.8 2c-.154.385.033.822.417.975.385.154.822-.033.975-.417l.8-2c.154-.385-.033-.822-.417-.975-.385-.154-.822.033-.975.417z"/><path d="m17.572 11.116c.947.657 1.893.633 2.84.011.346-.228.442-.693.215-1.039-.228-.346-.693-.442-1.039-.215-.387.254-.774.279-1.16.011-.34-.236-.808-.152-1.044.188s-.152.808.188 1.044z"/><path d="m21.5 7v-3c0-.414-.336-.75-.75-.75s-.75.336-.75.75v3c0 .414.336.75.75.75s.75-.336.75-.75z"/><path d="m18 7v-3c0-.414-.336-.75-.75-.75s-.75.336-.75.75v3c0 .414.336.75.75.75s.75-.336.75-.75z"/></g></svg>