<svg clip-rule="evenodd" fill-rule="evenodd" height="512" stroke-linejoin="round" stroke-miterlimit="2" viewBox="0 0 24 24" width="512" xmlns="http://www.w3.org/2000/svg"><g id="Icon"><path d="m14.694 15.112s.289-1.933 1.199-3.818c.571-1.182 1.38-2.362 2.562-2.953.37-.185.52-.636.335-1.007-.185-.37-.636-.52-1.006-.335-1.475.737-2.53 2.169-3.242 3.643-1.012 2.098-1.332 4.248-1.332 4.248-.061.409.222.791.631.853.41.061.792-.222.853-.631z"/><path d="m14.698 15.079s.319-3.027-.478-5.975c-.561-2.076-1.677-4.092-3.735-5.122-.371-.185-.821-.035-1.007.336-.185.37-.034.821.336 1.006 1.661.83 2.506 2.497 2.958 4.171.724 2.678.434 5.427.434 5.427-.043.412.256.781.667.825.412.043.781-.256.825-.668z"/><path d="m14.874 10.489c.079.138.199.249.345.314 1.427.643 2.518.731 3.339.523 1.405-.358 2.152-1.584 2.469-2.987.408-1.809.105-3.863.105-3.863-.059-.401-.427-.682-.829-.634-3.367.396-4.871 1.56-5.516 2.705-1.059 1.882.087 3.942.087 3.942zm1.203-.949c-.178-.412-.484-1.366.018-2.257.452-.804 1.508-1.489 3.626-1.845.041.657.05 1.651-.157 2.571-.189.839-.536 1.649-1.376 1.863-.534.136-1.219.038-2.11-.331z"/><path d="m13.409 7.514c.136-.083.242-.208.302-.355 0 0 .877-2.188-.412-3.921-.784-1.055-2.423-2.019-5.813-1.987-.405.004-.734.329-.743.734 0 0-.04 2.076.593 3.819.491 1.352 1.387 2.474 2.827 2.65.841.104 1.911-.121 3.246-.94zm-1.012-1.144c-.837.48-1.505.663-2.052.596-.859-.106-1.306-.867-1.599-1.674-.322-.887-.439-1.874-.481-2.531 2.146.085 3.28.631 3.83 1.372.61.82.428 1.805.303 2.237z"/><path d="m5.85 20.936.895-7.157c.044-.356-.066-.713-.304-.982-.237-.269-.578-.423-.937-.423h-3.012c-.69 0-1.25.56-1.25 1.25v7.157c0 .69.56 1.25 1.25 1.25h2.118c.63 0 1.162-.47 1.24-1.095zm-3.108-7.062v6.657h1.647l.832-6.657z"/><path d="m6.106 14.374 1.869-.303c.673-.109 1.364-.004 1.974.301l1.511.756c.31.155.636.276.972.36l2.577.644c.298.074.507.342.507.65v.002c0 .38-.308.688-.687.688-.001 0-.972 0-.972 0-.349 0-.696-.056-1.028-.167 0 0-2.443-.814-2.443-.814-.392-.131-.818.082-.948.474-.131.393.081.818.474.949 0 0 1.55.517 2.443.814.484.162.991.244 1.502.244h.971c1.209 0 2.188-.98 2.188-2.188v-.002c0-.996-.677-1.864-1.643-2.105-.843-.211-1.972-.493-2.577-.645-.23-.057-.453-.14-.665-.246l-1.511-.755c-.892-.446-1.901-.6-2.885-.44l-1.869.303c-.408.066-.686.451-.62.86s.452.687.86.62z"/><path d="m21.057 18.467-5.8 2.388c-1.037.427-2.184.511-3.272.239-2.411-.603-6.242-1.56-6.242-1.56-.402-.101-.809.144-.91.545-.1.402.145.809.546.91 0 0 3.831.957 6.242 1.56 1.399.35 2.873.242 4.207-.307 1.915-.788 4.828-1.988 6.148-2.531.386-.159.668-.501.75-.911s-.047-.833-.342-1.129l-.242-.242c-.975-.975-2.408-1.336-3.729-.94-1.48.444-3.382 1.015-3.382 1.015-.396.119-.621.537-.502.934.118.396.537.621.933.502 0 0 1.902-.57 3.382-1.014.782-.235 1.629-.027 2.213.541z"/></g></svg>