<svg clip-rule="evenodd" fill-rule="evenodd" height="512" stroke-linejoin="round" stroke-miterlimit="2" viewBox="0 0 24 24" width="512" xmlns="http://www.w3.org/2000/svg"><g id="Icon"><circle cx="5.25" cy="5" r=".75"/><circle cx="7.75" cy="5" r=".75"/><circle cx="10.25" cy="5" r=".75"/><path d="m22.75 11v-6.5c0-1.795-1.455-3.25-3.25-3.25-3.842 0-11.158 0-15 0-1.795 0-3.25 1.455-3.25 3.25v15c0 .862.342 1.689.952 2.298.609.61 1.436.952 2.298.952h7c.414 0 .75-.336.75-.75s-.336-.75-.75-.75c0 0-4.185 0-7 0-.464 0-.909-.184-1.237-.513-.329-.328-.513-.773-.513-1.237v-15c0-.967.783-1.75 1.75-1.75h15c.967 0 1.75.784 1.75 1.75v6.5c0 .414.336.75.75.75s.75-.336.75-.75z"/><path d="m22 7.25h-20c-.414 0-.75.336-.75.75s.336.75.75.75h20c.414 0 .75-.336.75-.75s-.336-.75-.75-.75z"/><path d="m22.75 22v-5c0-2.347-1.903-4.25-4.25-4.25-1.444 0-2.72.72-3.488 1.821-.237.339-.153.807.186 1.044.34.237.808.154 1.044-.186.498-.713 1.323-1.179 2.258-1.179 1.519 0 2.75 1.231 2.75 2.75v5c0 .414.336.75.75.75s.75-.336.75-.75z"/><path d="m14.25 18v4c0 .414.336.75.75.75s.75-.336.75-.75v-4c0-.414-.336-.75-.75-.75s-.75.336-.75.75z"/><path d="m19.25 22v-4.5c0-.414-.336-.75-.75-.75s-.75.336-.75.75v4.5c0 .414.336.75.75.75s.75-.336.75-.75z"/></g></svg>