<svg clip-rule="evenodd" fill-rule="evenodd" height="512" stroke-linejoin="round" stroke-miterlimit="2" viewBox="0 0 24 24" width="512" xmlns="http://www.w3.org/2000/svg"><g id="Icon"><path d="m10.564 18.844-4.2-2.333c-.362-.201-.819-.07-1.02.291-.201.362-.07.819.292 1.02l4.2 2.334c.362.201.819.07 1.02-.292s.07-.819-.292-1.02z"/><path d="m5.1 14.5v-5c0-.414-.336-.75-.75-.75s-.75.336-.75.75v5c0 .414.336.75.75.75s.75-.336.75-.75z"/><path d="m6.364 7.489 4.25-2.361c.362-.201.493-.658.292-1.02s-.658-.492-1.02-.291l-4.25 2.361c-.362.201-.493.658-.292 1.02.201.361.658.492 1.02.291z"/><path d="m13.386 5.128 4.25 2.361c.362.201.819.07 1.02-.291.201-.362.07-.819-.292-1.02l-4.25-2.361c-.362-.201-.819-.071-1.02.291s-.07.819.292 1.02z"/><path d="m18.9 9.5v5c0 .414.336.75.75.75s.75-.336.75-.75v-5c0-.414-.336-.75-.75-.75s-.75.336-.75.75z"/><path d="m17.636 16.511-4.25 2.361c-.362.201-.493.658-.292 1.02s.658.492 1.02.291l4.25-2.361c.362-.201.493-.658.292-1.02-.201-.361-.658-.492-1.02-.291z"/><path d="m12 1.25c-1.38 0-2.5 1.12-2.5 2.5s1.12 2.5 2.5 2.5 2.5-1.12 2.5-2.5-1.12-2.5-2.5-2.5zm0 1.5c.552 0 1 .448 1 1s-.448 1-1 1-1-.448-1-1 .448-1 1-1z"/><path d="m12 17.75c-1.38 0-2.5 1.12-2.5 2.5s1.12 2.5 2.5 2.5 2.5-1.12 2.5-2.5-1.12-2.5-2.5-2.5zm0 1.5c.552 0 1 .448 1 1s-.448 1-1 1-1-.448-1-1 .448-1 1-1z"/><path d="m19.5 5.25c-1.38 0-2.5 1.12-2.5 2.5s1.12 2.5 2.5 2.5 2.5-1.12 2.5-2.5-1.12-2.5-2.5-2.5zm0 1.5c.552 0 1 .448 1 1s-.448 1-1 1-1-.448-1-1 .448-1 1-1z"/><path d="m12 9.5c-1.38 0-2.5 1.12-2.5 2.5s1.12 2.5 2.5 2.5 2.5-1.12 2.5-2.5-1.12-2.5-2.5-2.5zm0 1.5c.552 0 1 .448 1 1s-.448 1-1 1-1-.448-1-1 .448-1 1-1z"/><path d="m19.5 13.75c-1.38 0-2.5 1.12-2.5 2.5s1.12 2.5 2.5 2.5 2.5-1.12 2.5-2.5-1.12-2.5-2.5-2.5zm0 1.5c.552 0 1 .448 1 1s-.448 1-1 1-1-.448-1-1 .448-1 1-1z"/><path d="m4.35 5.25c-1.38 0-2.5 1.12-2.5 2.5s1.12 2.5 2.5 2.5 2.5-1.12 2.5-2.5-1.12-2.5-2.5-2.5zm0 1.5c.552 0 1 .448 1 1s-.448 1-1 1-1-.448-1-1 .448-1 1-1z"/><path d="m4.35 13.75c-1.38 0-2.5 1.12-2.5 2.5s1.12 2.5 2.5 2.5 2.5-1.12 2.5-2.5-1.12-2.5-2.5-2.5zm0 1.5c.552 0 1 .448 1 1s-.448 1-1 1-1-.448-1-1 .448-1 1-1z"/><path d="m17.633 7.937-4.293 2.409c-.361.202-.489.66-.287 1.021.203.361.66.49 1.021.287l4.293-2.408c.361-.203.49-.66.287-1.021-.202-.361-.66-.49-1.021-.288z"/><path d="m18.367 14.67-4.293-2.408c-.361-.203-.818-.074-1.021.287-.202.361-.074.818.287 1.021l4.293 2.408c.361.203.819.074 1.021-.287.203-.361.074-.818-.287-1.021z"/><path d="m9.883 12.286-4.25 2.384c-.361.203-.49.66-.287 1.021.202.361.66.49 1.021.287l4.25-2.384c.361-.203.49-.66.287-1.021-.202-.361-.66-.49-1.021-.287z"/><path d="m10.617 10.322-4.25-2.385c-.361-.202-.819-.073-1.021.288-.203.361-.074.818.287 1.021l4.25 2.384c.361.203.819.074 1.021-.287.203-.361.074-.818-.287-1.021z"/><path d="m11.25 5.5v4.75c0 .414.336.75.75.75s.75-.336.75-.75v-4.75c0-.414-.336-.75-.75-.75s-.75.336-.75.75z"/><path d="m11.25 13.75v4.75c0 .414.336.75.75.75s.75-.336.75-.75v-4.75c0-.414-.336-.75-.75-.75s-.75.336-.75.75z"/></g></svg>