<svg clip-rule="evenodd" fill-rule="evenodd" height="512" stroke-linejoin="round" stroke-miterlimit="2" viewBox="0 0 24 24" width="512" xmlns="http://www.w3.org/2000/svg"><g id="Icon"><path d="m21.823 21.465c.328-.328.513-.773.513-1.237s-.185-.909-.513-1.237c-.975-.975-2.612-2.613-2.612-2.613-.159-.159-.38-.238-.604-.216-.223.022-.425.143-.55.329-.414.62-.946 1.152-1.566 1.565-.186.125-.308.327-.33.551-.022.223.057.445.216.604 0 0 1.639 1.638 2.614 2.612.683.684 1.791.684 2.474 0zm-1.06-1.06-.358.358c-.098.097-.256.097-.354 0l-2.008-2.008c.254-.22.492-.458.712-.711l2.008 2.007c.046.047.073.111.073.177s-.027.13-.073.177z"/><path d="m20.5 13.375c0-3.932-3.193-7.125-7.125-7.125-3.933 0-7.125 3.193-7.125 7.125s3.192 7.125 7.125 7.125c3.932 0 7.125-3.193 7.125-7.125zm-1.5 0c0 3.105-2.521 5.625-5.625 5.625-3.105 0-5.625-2.52-5.625-5.625 0-3.104 2.52-5.625 5.625-5.625 3.104 0 5.625 2.521 5.625 5.625z"/><path d="m20.5 13.375c0-3.932-3.193-7.125-7.125-7.125-3.933 0-7.125 3.193-7.125 7.125s3.192 7.125 7.125 7.125c3.932 0 7.125-3.193 7.125-7.125zm-1.5 0c0 3.105-2.521 5.625-5.625 5.625-3.105 0-5.625-2.52-5.625-5.625 0-3.104 2.52-5.625 5.625-5.625 3.104 0 5.625 2.521 5.625 5.625z"/><path d="m13.375 16c-1.45 0-2.625-1.175-2.625-2.625 0-.414-.336-.75-.75-.75s-.75.336-.75.75c0 2.278 1.847 4.125 4.125 4.125.414 0 .75-.336.75-.75s-.336-.75-.75-.75z"/><path d="m10.25 5.752c0-2.759-2.484-4.943-5.339-4.424-1.774.323-3.23 1.762-3.573 3.531-.302 1.552.617 3.23 1.686 4.264.004.004.009.009.014.013.05.046.078.11.078.178v.016c.009.418.009 1.073.009 1.667 0 .965.782 1.748 1.747 1.749.414.001.75-.334.751-.748s-.334-.751-.748-.752c-.138 0-.25-.112-.25-.249 0-.603 0-1.268-.009-1.694-.003-.482-.205-.941-.56-1.268-.728-.707-1.454-1.822-1.246-2.889 0-.001 0-.001 0-.001.227-1.173 1.193-2.127 2.369-2.341 1.907-.346 3.571 1.105 3.571 2.948 0 .414.336.75.75.75s.75-.336.75-.75z"/><path d="m19.542 9.985 1.402.266c.309.059.622-.081.784-.351l.915-1.529c.17-.284.134-.645-.087-.889l-.721-.795c.006-.124.006-.25 0-.375 0 .001.721-.794.721-.794.221-.244.257-.605.087-.889l-.915-1.529c-.162-.27-.475-.41-.784-.351l-1.098.209c-.119-.075-.242-.143-.369-.206 0 0-.354-1.002-.354-1.002-.106-.3-.39-.5-.707-.5h-1.832c-.317 0-.601.2-.707.5l-.354 1.002c-.126.062-.25.131-.369.206 0 0-1.098-.209-1.098-.209-.309-.059-.622.081-.784.351l-.915 1.529c-.17.284-.134.645.087.889l.941 1.038c.278.307.753.33 1.06.052.306-.278.329-.753.051-1.06l-.567-.625s.361-.603.361-.603.888.169.888.169c.205.039.417-.009.585-.133.196-.145.411-.264.639-.355.2-.081.356-.243.428-.446l.284-.805h.772s.284.805.284.805c.072.203.228.365.428.446.228.091.443.21.639.355.168.124.38.172.585.133l.888-.169s.361.603.361.603-.567.625-.567.625c-.149.164-.218.385-.188.605.031.23.031.464 0 .694-.03.22.039.441.188.605l.567.625s-.361.603-.361.603-.888-.169-.888-.169c-.407-.077-.8.19-.877.597-.077.406.19.799.597.877z"/></g></svg>