<svg clip-rule="evenodd" fill-rule="evenodd" height="512" stroke-linejoin="round" stroke-miterlimit="2" viewBox="0 0 24 24" width="512" xmlns="http://www.w3.org/2000/svg"><g id="Icon"><path d="m12.75 11v2c0 .967.783 1.75 1.75 1.75h6c.967 0 1.75-.783 1.75-1.75 0-.611 0-1.389 0-2 0-.966-.783-1.75-1.75-1.75h-6c-.967 0-1.75.784-1.75 1.75zm1.5 0c0-.138.112-.25.25-.25h6c.138 0 .25.112.25.25v2c0 .138-.112.25-.25.25h-6c-.138 0-.25-.112-.25-.25 0-.611 0-1.389 0-2z"/><path d="m1.75 7v2.001c0 .966.783 1.75 1.75 1.75h6c.967 0 1.75-.784 1.75-1.75 0-.611 0-1.39 0-2.001 0-.966-.783-1.75-1.75-1.75h-6c-.967 0-1.75.784-1.75 1.75zm1.5 0c0-.138.112-.25.25-.25h6c.138 0 .25.112.25.25v2.001c0 .138-.112.25-.25.25h-6c-.138 0-.25-.112-.25-.25 0-.611 0-1.39 0-2.001z"/><path d="m21 10.75c.414 0 .75-.336.75-.75v-.5c0-2.347-1.903-4.25-4.25-4.25-.001 0-.001 0-.002 0-1.127 0-2.207.448-3.004 1.244-.796.797-1.244 1.877-1.244 3.004v.502c0 .414.336.75.75.75zm-.761-1.5h-5.478c.058-.638.337-1.239.794-1.695.515-.515 1.214-.805 1.943-.805h.002c1.434 0 2.612 1.098 2.739 2.5z"/><path d="m14 13.25c-.414 0-.75.336-.75.75v4.5c0 2.347 1.903 4.25 4.25 4.25s4.25-1.903 4.25-4.25v-4.5c0-.414-.336-.75-.75-.75zm.75 1.5h5.5v3.75c0 1.519-1.231 2.75-2.75 2.75s-2.75-1.231-2.75-2.75z"/><path d="m10 6.75c.414 0 .75-.336.75-.75v-.5c0-2.347-1.903-4.25-4.25-4.25-.001 0-.001 0-.002 0-1.127 0-2.207.448-3.004 1.244-.796.797-1.244 1.877-1.244 3.004v.502c0 .414.336.75.75.75zm-.761-1.5h-5.478c.058-.638.337-1.239.794-1.695.515-.515 1.214-.805 1.943-.805h.002c1.434 0 2.612 1.098 2.739 2.5z"/><path d="m3 9.25c-.414 0-.75.336-.75.75v4.5c0 2.347 1.903 4.25 4.25 4.25s4.25-1.903 4.25-4.25v-4.5c0-.414-.336-.75-.75-.75zm.75 1.5h5.5v3.75c0 1.519-1.231 2.75-2.75 2.75s-2.75-1.231-2.75-2.75z"/></g></svg>