<svg clip-rule="evenodd" fill-rule="evenodd" stroke-linejoin="round" stroke-miterlimit="1.414" viewBox="0 0 32 32" xmlns="http://www.w3.org/2000/svg" xmlns:serif="http://www.serif.com/"><path id="user-profile-man" d="m0 0h32v32h-32z" fill="none"/><path d="m23.112 15.884c.352.045.622.278.896.57 1.879 1.999 2.964 4.686 2.982 7.455.012 1.865-1.91 3.224-3.885 3.951-3.191 1.174-6.717 1.353-10.137.936-2.251-.274-4.549-.746-6.413-2.158-.848-.642-1.552-1.585-1.545-2.728.018-2.821 1.136-5.543 3.075-7.555.493-.512 1.42-.576 1.754.135.203.432.019.902-.354 1.292-1.53 1.618-2.434 3.819-2.475 6.029-.016.83.844 1.379 1.65 1.779 2.079 1.032 4.478 1.335 6.847 1.383 2.584.052 5.23-.204 7.557-1.253.661-.298 1.341-.645 1.753-1.254.226-.333.179-.807.143-1.241-.174-2.106-1.128-4.135-2.638-5.638 0 0-.231-.27-.278-.532-.106-.591.423-1.198 1.068-1.171zm-7.067-12.884c2.558.024 5.047 1.56 6.202 3.848.961 1.904.982 4.255.056 6.177-1.513 3.139-5.565 4.851-8.985 3.428-2.232-.929-3.908-3.086-4.244-5.483-.307-2.192.499-4.51 2.102-6.038 1.272-1.213 2.994-1.915 4.779-1.932zm-.077 1.998c-2.281.022-4.404 1.755-4.862 3.989-.334 1.629.212 3.415 1.405 4.58 1.379 1.347 3.567 1.793 5.376 1.053 2.111-.864 3.452-3.313 3.019-5.572-.425-2.215-2.498-3.998-4.809-4.049-.043-.001-.086-.001-.129-.001z" fill-rule="nonzero"/></svg>