<svg clip-rule="evenodd" fill-rule="evenodd" height="512" stroke-linejoin="round" stroke-miterlimit="2" viewBox="0 0 24 24" width="512" xmlns="http://www.w3.org/2000/svg"><g id="Icon"><path d="m14.25 20.5c0-1.242-1.008-2.25-2.25-2.25s-2.25 1.008-2.25 2.25 1.008 2.25 2.25 2.25 2.25-1.008 2.25-2.25zm-1.5 0c0 .414-.336.75-.75.75s-.75-.336-.75-.75.336-.75.75-.75.75.336.75.75z"/><path d="m11.25 17v2c0 .414.336.75.75.75s.75-.336.75-.75v-2c0-.414-.336-.75-.75-.75s-.75.336-.75.75z"/><path d="m2 3.75h20c.414 0 .75-.336.75-.75s-.336-.75-.75-.75h-20c-.414 0-.75.336-.75.75s.336.75.75.75z"/><path d="m3 2.25c-.414 0-.75.336-.75.75v13c0 .967.784 1.75 1.75 1.75h16c.966 0 1.75-.783 1.75-1.75v-13c0-.414-.336-.75-.75-.75zm.75 1.5h16.5v12.25c0 .138-.112.25-.25.25h-16c-.138 0-.25-.112-.25-.25z"/><path d="m5.25 7v6c0 .967.784 1.75 1.75 1.75h3c.464 0 .909-.184 1.237-.513.329-.328.513-.773.513-1.237v-6c0-.967-.784-1.75-1.75-1.75-.871 0-2.129 0-3 0-.464 0-.909.184-1.237.513-.329.328-.513.773-.513 1.237zm1.5 0c0-.066.026-.13.073-.177s.111-.073.177-.073h3c.138 0 .25.112.25.25v6c0 .066-.026.13-.073.177s-.111.073-.177.073h-3c-.138 0-.25-.112-.25-.25z"/><path d="m12.75 3v-1c0-.414-.336-.75-.75-.75s-.75.336-.75.75v1c0 .414.336.75.75.75s.75-.336.75-.75z"/><path d="m14 7h2c.414 0 .75-.336.75-.75s-.336-.75-.75-.75h-2c-.414 0-.75.336-.75.75s.336.75.75.75z"/><path d="m14 12h2c.414 0 .75-.336.75-.75s-.336-.75-.75-.75h-2c-.414 0-.75.336-.75.75s.336.75.75.75z"/><path d="m14 9.5h4c.414 0 .75-.336.75-.75s-.336-.75-.75-.75h-4c-.414 0-.75.336-.75.75s.336.75.75.75z"/><path d="m14 14.5h4c.414 0 .75-.336.75-.75s-.336-.75-.75-.75h-4c-.414 0-.75.336-.75.75s.336.75.75.75z"/></g></svg>