<svg clip-rule="evenodd" fill-rule="evenodd" height="512" stroke-linejoin="round" stroke-miterlimit="2" viewBox="0 0 24 24" width="512" xmlns="http://www.w3.org/2000/svg"><g id="Icon"><path d="m22.75 11v-7c0-.729-.29-1.429-.805-1.945-.516-.515-1.216-.805-1.945-.805-3.832 0-12.168 0-16 0-.729 0-1.429.29-1.945.805-.515.516-.805 1.216-.805 1.945v16c0 .729.29 1.429.805 1.945.516.515 1.216.805 1.945.805h7c.414 0 .75-.336.75-.75s-.336-.75-.75-.75c0 0-4.348 0-7 0-.332 0-.649-.132-.884-.366-.234-.235-.366-.552-.366-.884v-16c0-.332.132-.649.366-.884.235-.234.552-.366.884-.366h16c.332 0 .649.132.884.366.234.235.366.552.366.884v7c0 .414.336.75.75.75s.75-.336.75-.75z"/><path d="m16.25 2c0-.414-.336-.75-.75-.75h-7c-.414 0-.75.336-.75.75v4c0 .464.184.909.513 1.237.328.329.773.513 1.237.513h5c.464 0 .909-.184 1.237-.513.329-.328.513-.773.513-1.237 0-1.459 0-4 0-4zm-1.5.75v3.25c0 .066-.026.13-.073.177s-.111.073-.177.073h-5c-.066 0-.13-.026-.177-.073s-.073-.111-.073-.177v-3.25z"/><path d="m16.855 21.25c-2.266 0-4.105-1.839-4.105-4.105 0-1.388.691-2.616 1.746-3.359.339-.238.42-.707.182-1.045-.239-.339-.707-.42-1.045-.182-1.441 1.015-2.383 2.691-2.383 4.586 0 3.093 2.512 5.605 5.605 5.605.414 0 .75-.336.75-.75s-.336-.75-.75-.75z"/><path d="m17.12 13.048c2.143.137 3.84 1.92 3.84 4.097 0 1.251-.561 2.372-1.445 3.125-.315.269-.352.743-.084 1.058.269.315.742.352 1.057.084 1.207-1.029 1.972-2.559 1.972-4.267 0-2.972-2.319-5.407-5.245-5.594-.413-.026-.769.288-.796.701-.026.413.288.77.701.796z"/><path d="m22 20.367h-1.747v-1.746c0-.414-.336-.75-.75-.75s-.75.336-.75.75v2.496c0 .414.336.75.75.75h2.497c.414 0 .75-.336.75-.75s-.336-.75-.75-.75z"/><path d="m12 13.481h1.747v1.747c0 .414.336.75.75.75s.75-.336.75-.75v-2.497c0-.414-.336-.75-.75-.75h-2.497c-.414 0-.75.336-.75.75s.336.75.75.75z"/></g></svg>