<svg clip-rule="evenodd" fill-rule="evenodd" height="512" stroke-linejoin="round" stroke-miterlimit="2" viewBox="0 0 24 24" width="512" xmlns="http://www.w3.org/2000/svg"><g id="Icon"><path d="m18.323 1.25c-1.045 0-2.048.413-2.79 1.151 0 0-12.052 11.984-12.052 11.984-.091.091-.157.203-.192.327l-1.521 5.355c-.374 1.32.847 2.537 2.165 2.161l5.273-1.507c.123-.035.234-.101.324-.191l11.939-11.939c.82-.819 1.281-1.932 1.281-3.091s-.461-2.272-1.281-3.091c-.741-.742-1.748-1.159-2.797-1.159v.004c-.024-.003-.049-.004-.075-.004h-.269zm-9.716 18.082-5.086 1.454c-.188.054-.363-.121-.31-.309.001 0 1.467-5.166 1.467-5.166l11.913-11.846c.46-.458 1.083-.715 1.732-.715h.349c.651 0 1.276.259 1.737.719.538.539.841 1.27.841 2.031s-.303 1.492-.841 2.031z"/><path d="m13.47 5.53 5 5c.292.293.768.293 1.06 0 .293-.292.293-.768 0-1.06l-5-5c-.292-.293-.768-.293-1.06 0-.293.292-.293.768 0 1.06z"/><path d="m3.47 15.53 5 5c.292.293.768.293 1.06 0 .293-.292.293-.768 0-1.06l-5-5c-.292-.293-.768-.293-1.06 0-.293.292-.293.768 0 1.06z"/><path d="m10.53 3.47-1.293-1.293c-.593-.594-1.397-.927-2.237-.927s-1.644.333-2.237.927c0 0-2.586 2.586-2.586 2.586-.594.593-.927 1.397-.927 2.237s.333 1.644.927 2.237c0 0 1.293 1.293 1.293 1.293.292.293.768.293 1.06 0 .293-.292.293-.768 0-1.06l-1.293-1.293c-.312-.313-.487-.735-.487-1.177s.175-.864.487-1.177c0 0 2.586-2.586 2.586-2.586.313-.312.735-.487 1.177-.487s.864.175 1.177.487c0 0 1.293 1.293 1.293 1.293.292.293.768.293 1.06 0 .293-.292.293-.768 0-1.06z"/><path d="m19.47 14.53 1.293 1.293c.312.313.487.735.487 1.177s-.175.864-.487 1.177c0 0-2.586 2.586-2.586 2.586-.313.312-.735.487-1.177.487s-.864-.175-1.177-.487c0 0-1.293-1.293-1.293-1.293-.292-.293-.768-.293-1.06 0-.293.292-.293.768 0 1.06l1.293 1.293c.593.594 1.397.927 2.237.927s1.644-.333 2.237-.927c0 0 2.586-2.586 2.586-2.586.594-.593.927-1.397.927-2.237s-.333-1.644-.927-2.237c0 0-1.293-1.293-1.293-1.293-.292-.293-.768-.293-1.06 0-.293.292-.293.768 0 1.06z"/><path d="m3.53 9.53 3-3c.293-.292.293-.768 0-1.06-.292-.293-.768-.293-1.06 0l-3 3c-.293.292-.293.768 0 1.06.292.293.768.293 1.06 0z"/><path d="m15.53 21.53 3-3c.293-.292.293-.768 0-1.06-.292-.293-.768-.293-1.06 0l-3 3c-.293.292-.293.768 0 1.06.292.293.768.293 1.06 0z"/></g></svg>