<svg clip-rule="evenodd" fill-rule="evenodd" height="512" stroke-linejoin="round" stroke-miterlimit="2" viewBox="0 0 24 24" width="512" xmlns="http://www.w3.org/2000/svg"><g id="Icon"><path d="m12.172 9.165-1.767 5.301c-.131.393.081.818.474.949s.818-.082.949-.474l1.767-5.302c.131-.393-.081-.818-.474-.949s-.818.082-.949.475z"/><path d="m14.202 10.816 1.237 1.237s-1.237 1.237-1.237 1.237c-.292.292-.292.768 0 1.06.293.293.768.293 1.061 0l1.767-1.767c.293-.293.293-.768 0-1.061l-1.767-1.767c-.293-.293-.768-.293-1.061 0-.292.293-.292.768 0 1.061z"/><path d="m8.737 9.755-1.767 1.767c-.293.293-.293.768 0 1.061l1.767 1.767c.293.293.768.293 1.061 0 .292-.292.292-.768 0-1.06l-1.237-1.237s1.237-1.237 1.237-1.237c.292-.293.292-.768 0-1.061-.293-.293-.768-.293-1.061 0z"/><path d="m8.566 4.223c-.559.247-1.09.553-1.584.914l-2.093-.394c-.445-.085-.903.079-1.194.429-.001.001-.003.003-.004.004-.746.912-1.339 1.939-1.754 3.042 0 .001-.001.002-.001.003-.158.426-.072.904.224 1.249l1.388 1.615c-.066.608-.066 1.221 0 1.829l-1.388 1.616c-.297.343-.383.822-.226 1.249.001.001.002.003.002.005.416 1.102 1.009 2.129 1.757 3.039l.003.003c.29.35.746.514 1.193.43l2.093-.394c.493.361 1.024.668 1.584.915l.705 2.01c.149.428.52.743.968.819.002.001.004.001.006.001 1.163.191 2.349.191 3.511-.001.001-.001.002-.001.004-.001.447-.076.818-.39.968-.818l.706-2.01c.559-.247 1.09-.553 1.584-.914l2.093.394c.445.085.903-.079 1.194-.429.001-.001.003-.003.004-.004.746-.912 1.339-1.939 1.754-3.042 0-.001.001-.002.001-.003.158-.426.072-.904-.224-1.249l-1.388-1.615c.066-.608.066-1.221 0-1.829l1.388-1.616c.297-.343.383-.822.226-1.249-.001-.001-.002-.003-.002-.005-.416-1.102-1.009-2.129-1.757-3.039-.001-.001-.002-.002-.003-.003-.29-.35-.746-.514-1.193-.43l-2.093.394c-.493-.361-1.024-.668-1.584-.915l-.705-2.01.001.002c-.15-.43-.521-.745-.969-.821-.002-.001-.004-.001-.006-.001-1.163-.191-2.349-.191-3.511.001-.001.001-.002.001-.004.001-.447.076-.818.39-.968.818l-.706 2.01zm4.797-1.373.692 1.973c.117.333.369.601.694.738.515.219 1.005.502 1.456.841.278.211.636.295.982.23l2.055-.387c.567.714 1.027 1.51 1.364 2.36l-1.363 1.587c-.23.266-.336.619-.292.969.067.556.067 1.122 0 1.681-.044.346.062.699.291.967l1.363 1.586c-.335.848-.794 1.644-1.362 2.36l-2.055-.387c-.346-.065-.705.019-.986.232-.448.337-.938.62-1.456.841-.322.135-.574.402-.691.735l-.693 1.973c-.901.135-1.82.135-2.725.001l-.692-1.973c-.117-.333-.369-.601-.694-.738-.515-.219-1.005-.502-1.456-.841-.278-.211-.636-.295-.982-.23l-2.055.387c-.567-.714-1.027-1.51-1.364-2.36l1.363-1.587c.23-.266.336-.619.292-.969-.067-.556-.067-1.122 0-1.681.044-.346-.062-.699-.291-.967l-1.363-1.586c.335-.848.794-1.644 1.362-2.36l2.055.387c.346.065.705-.019.986-.232.448-.337.938-.62 1.456-.841.322-.135.574-.402.691-.735l.693-1.973c.901-.135 1.82-.135 2.725-.001z"/></g></svg>