<svg clip-rule="evenodd" fill-rule="evenodd" height="512" stroke-linejoin="round" stroke-miterlimit="2" viewBox="0 0 24 24" width="512" xmlns="http://www.w3.org/2000/svg"><g id="Icon"><path d="m19.812 17.595c-.218-.202-.361-.472-.407-.766l-1.864-11.988c-.214-1.374-1.396-2.387-2.786-2.387-1.592 0-3.918 0-5.51 0-1.39 0-2.572 1.013-2.786 2.387-.494 3.177-1.519 9.77-1.864 11.988-.045.293-.188.562-.405.763-.005.005-2.437 1.678-2.437 1.678-.024.016-.046.034-.067.052-.399.347-.541.905-.356 1.401.186.495.659.823 1.187.823h18.966c.528 0 1.001-.328 1.187-.823.185-.496.043-1.054-.356-1.401-.021-.018-.043-.036-.067-.052l-2.432-1.673zm.916 2.451h-17.456l1.803-1.24c.023-.016.046-.034.067-.052.502-.437.833-1.037.935-1.694.345-2.219 1.37-8.811 1.864-11.989.1-.643.654-1.117 1.304-1.117h5.51c.65 0 1.204.474 1.304 1.117l1.864 11.989c.102.657.433 1.257.935 1.694.021.018.044.036.067.052z"/><path d="m17.691 11.767h-3.621c-.414 0-.75.336-.75.75s.336.75.75.75h3.621c.414 0 .75-.336.75-.75s-.336-.75-.75-.75z"/><path d="m9.93 11.767h-3.621c-.414 0-.75.336-.75.75s.336.75.75.75h3.621c.414 0 .75-.336.75-.75s-.336-.75-.75-.75z"/><path d="m14.82 11.465c0-.331-.132-.649-.366-.884-.235-.234-.553-.366-.884-.366-.797 0-2.343 0-3.14 0-.331 0-.649.132-.884.366-.234.235-.366.553-.366.884v2.105c0 .331.132.649.366.883.235.235.553.367.884.367h3.14c.331 0 .649-.132.884-.367.234-.234.366-.552.366-.883zm-4.14.25v1.605h2.64v-1.605z"/></g></svg>