<svg clip-rule="evenodd" fill-rule="evenodd" height="512" stroke-linejoin="round" stroke-miterlimit="2" viewBox="0 0 24 24" width="512" xmlns="http://www.w3.org/2000/svg"><g id="Icon"><path d="m10.82 2.29c.201-.475.667-.784 1.182-.784.516 0 .982.309 1.183.784l2.394 5.66 6.029.846c.499.07.911.424 1.053.907.143.483-.009 1.005-.39 1.334l-4.311 3.738 1.16 6.199c.092.491-.109.99-.515 1.28-.406.291-.944.319-1.378.074 0 0-5.225-2.949-5.225-2.949l-5.206 2.939c-.438.247-.979.216-1.385-.079-.407-.295-.604-.8-.505-1.292l1.139-5.668-4.438-4.276c-.354-.341-.482-.854-.33-1.321.151-.468.556-.807 1.043-.876l6.106-.856 2.394-5.66zm-7.853 7.94 4.414 4.254c.185.178.266.437.215.688l-1.127 5.608 5.165-2.915c.229-.13.508-.13.737 0l5.189 2.929-1.153-6.166c-.049-.262.044-.53.246-.704l4.277-3.709-5.98-.839c-.261-.036-.484-.207-.587-.45l-2.361-5.581-2.36 5.581c-.103.243-.326.414-.587.45l-6.088.854z"/></g></svg>