<svg clip-rule="evenodd" fill-rule="evenodd" height="512" stroke-linejoin="round" stroke-miterlimit="2" viewBox="0 0 24 24" width="512" xmlns="http://www.w3.org/2000/svg"><g id="Icon"><path d="m22.75 12c0-5.933-4.817-10.75-10.75-10.75s-10.75 4.817-10.75 10.75 4.817 10.75 10.75 10.75 10.75-4.817 10.75-10.75zm-1.5 0c0 5.105-4.145 9.25-9.25 9.25s-9.25-4.145-9.25-9.25 4.145-9.25 9.25-9.25 9.25 4.145 9.25 9.25z"/><path d="m4 12.75h2c.414 0 .75-.336.75-.75s-.336-.75-.75-.75h-2c-.414 0-.75.336-.75.75s.336.75.75.75z"/><path d="m20 11.25h-2c-.414 0-.75.336-.75.75s.336.75.75.75h2c.414 0 .75-.336.75-.75s-.336-.75-.75-.75z"/><path d="m15.351 4.697-1 1.731c-.207.359-.085.818.274 1.025.358.207.817.084 1.024-.275l1-1.731c.207-.358.085-.817-.274-1.024-.358-.207-.817-.084-1.024.274z"/><path d="m7.351 5.447 1 1.731c.207.359.666.482 1.024.275.359-.207.481-.666.274-1.025l-1-1.731c-.207-.358-.666-.481-1.024-.274-.359.207-.481.666-.274 1.024z"/><path d="m9.25 15c0 1.518 1.232 2.75 2.75 2.75s2.75-1.232 2.75-2.75c0-.819-.461-3.607-1.141-5.206-.21-.494-.451-.886-.69-1.126-.291-.293-.611-.418-.919-.418s-.628.125-.919.418c-.239.24-.48.632-.69 1.126-.68 1.599-1.141 4.387-1.141 5.206zm2.75-5.044c.078.126.168.283.229.425.604 1.419 1.021 3.892 1.021 4.619 0 .69-.56 1.25-1.25 1.25s-1.25-.56-1.25-1.25c0-.727.417-3.2 1.021-4.619.061-.142.151-.299.229-.425z"/></g></svg>