<svg clip-rule="evenodd" fill-rule="evenodd" height="512" stroke-linejoin="round" stroke-miterlimit="2" viewBox="0 0 24 24" width="512" xmlns="http://www.w3.org/2000/svg"><g id="Icon"><path d="m7.5 14c-1.38 0-2.5 1.12-2.5 2.5s1.12 2.5 2.5 2.5 2.5-1.12 2.5-2.5-1.12-2.5-2.5-2.5zm0 1.5c.552 0 1 .448 1 1s-.448 1-1 1-1-.448-1-1 .448-1 1-1z"/><path d="m16.5 5c-1.38 0-2.5 1.12-2.5 2.5s1.12 2.5 2.5 2.5 2.5-1.12 2.5-2.5-1.12-2.5-2.5-2.5zm0 1.5c.552 0 1 .448 1 1s-.448 1-1 1-1-.448-1-1 .448-1 1-1z"/><path d="m22.75 6c0-2.071-1.679-3.75-3.75-3.75-3.776 0-10.224 0-14 0-2.071 0-3.75 1.679-3.75 3.75v12c0 2.071 1.679 3.75 3.75 3.75h14c2.071 0 3.75-1.679 3.75-3.75zm-1.5 0v12c0 1.243-1.007 2.25-2.25 2.25-3.776 0-10.224 0-14 0-1.243 0-2.25-1.007-2.25-2.25v-12c0-1.243 1.007-2.25 2.25-2.25h14c1.243 0 2.25 1.007 2.25 2.25z"/><path d="m11.379 11.25h1.371v1.371c0 .414.336.75.75.75s.75-.336.75-.75v-2.121c0-.414-.336-.75-.75-.75h-2.121c-.414 0-.75.336-.75.75s.336.75.75.75z"/><path d="m14.995 15.53 2.475 2.475c.292.293.768.293 1.06 0 .293-.292.293-.768 0-1.06l-2.475-2.475c-.292-.293-.768-.293-1.06 0-.293.292-.293.768 0 1.06z"/><path d="m5.47 6.555 2.475 2.475c.292.293.768.293 1.06 0 .293-.292.293-.768 0-1.06l-2.475-2.475c-.292-.293-.768-.293-1.06 0-.293.292-.293.768 0 1.06z"/><path d="m16.055 18.005 2.475-2.475c.293-.292.293-.768 0-1.06-.292-.293-.768-.293-1.06 0l-2.475 2.475c-.293.292-.293.768 0 1.06.292.293.768.293 1.06 0z"/><path d="m6.53 9.03 2.475-2.475c.293-.292.293-.768 0-1.06-.292-.293-.768-.293-1.06 0l-2.475 2.475c-.293.292-.293.768 0 1.06.292.293.768.293 1.06 0z"/><path d="m9.53 15.53 4.5-4.5c.293-.292.293-.768 0-1.06-.292-.293-.768-.293-1.06 0l-4.5 4.5c-.293.292-.293.768 0 1.06.292.293.768.293 1.06 0z"/></g></svg>