<svg clip-rule="evenodd" fill-rule="evenodd" height="512" stroke-linejoin="round" stroke-miterlimit="2" viewBox="0 0 24 24" width="512" xmlns="http://www.w3.org/2000/svg"><g id="Icon"><path d="m20.691 17.597c.181-.815-.017-1.667-.539-2.318-.522-.65-1.311-1.029-2.145-1.029-3.221 0-8.793 0-12.014 0-.834 0-1.623.379-2.145 1.029-.522.651-.72 1.503-.539 2.318l.372 1.674c.127.572.634.979 1.22.979h14.198c.586 0 1.093-.407 1.22-.979zm-1.793 1.153h-13.796l-.329-1.479c-.082-.37.008-.757.245-1.053s.596-.468.975-.468h12.014c.379 0 .738.172.975.468s.327.683.245 1.053z"/><path d="m19.235 19.647c.045-.22-.012-.449-.155-.622-.142-.174-.355-.275-.58-.275h-13c-.225 0-.438.101-.58.275-.143.173-.2.402-.155.622l.339 1.693c.163.818.882 1.407 1.716 1.407h10.36c.834 0 1.553-.589 1.716-1.407zm-1.65.603-.159.796c-.024.117-.126.201-.246.201h-10.36c-.12 0-.222-.084-.246-.201 0 0-.159-.796-.159-.796z"/><path d="m15.5 15.75c.215 0 .419-.092.562-.253.142-.161.209-.375.182-.589 0 0-.111-.899-.199-1.619-.108-.877-.853-1.536-1.737-1.536-1.218 0-3.398 0-4.616 0-.884 0-1.629.659-1.737 1.536-.088.72-.199 1.619-.199 1.619-.027.214.04.428.182.589.143.161.347.253.562.253zm-.848-1.5h-5.304l.096-.777c.015-.126.122-.22.248-.22h4.616c.126 0 .233.094.248.22z"/><path d="m12 1.25c-2.622 0-4.75 2.128-4.75 4.75 0 1.125.392 2.159 1.05 2.97.614.757.95 1.702.95 2.677v.853c0 .414.336.75.75.75h4c.412 0 .747-.333.75-.745l.006-.858c0-.974.334-1.918.948-2.674.001-.001.001-.002.002-.003.653-.814 1.044-1.847 1.044-2.97 0-2.622-2.128-4.75-4.75-4.75zm0 1.5c1.794 0 3.25 1.456 3.25 3.25 0 .768-.267 1.475-.714 2.031-.826 1.019-1.279 2.295-1.28 3.612 0 0-.001.107-.001.107h-2.505v-.104c0-1.318-.454-2.597-1.285-3.621-.449-.553-.715-1.258-.715-2.025 0-1.794 1.456-3.25 3.25-3.25z"/></g></svg>