<svg clip-rule="evenodd" fill-rule="evenodd" height="512" stroke-linejoin="round" stroke-miterlimit="2" viewBox="0 0 24 24" width="512" xmlns="http://www.w3.org/2000/svg"><g id="Icon"><path d="m19.285 17.123c.227.068.473.024.663-.117.19-.142.302-.365.302-.602v-12c0-.331-.217-.623-.535-.718-2.703-.81-5.414-.133-8.117 1.585-.217.138-.348.377-.348.633v12c0 .274.149.526.389.658.24.131.532.122.763-.025 2.297-1.46 4.586-2.103 6.883-1.414zm-.535-1.664c-1.999-.342-4.001.1-6 1.144v-10.281c2.002-1.199 3.998-1.758 6-1.336z"/><path d="m3.75 16.404c0 .237.112.46.302.602.19.141.436.185.663.117 2.297-.689 4.586-.046 6.883 1.414.231.147.523.156.763.025.24-.132.389-.384.389-.658v-12c0-.256-.131-.495-.348-.633-2.703-1.718-5.414-2.395-8.117-1.585-.318.095-.535.387-.535.718v12zm1.5-.945v-10.473c2.001-.422 3.998.136 6 1.336v10.281c-1.999-1.044-4.001-1.486-6-1.144z"/><path d="m12.123 17.164c-4.34-.723-7.689.544-9.373 1.417v-11.286c.57-.121 1.139-.162 1.709-.131.413.023.767-.294.79-.708.023-.413-.295-.767-.708-.79-.919-.05-1.838.053-2.756.328-.318.095-.535.387-.535.719v13.191c0 .284.161.544.415.671s.558.1.785-.071c0 0 3.774-2.802 9.427-1.86.408.068.795-.208.863-.617.068-.408-.208-.795-.617-.863z"/><path d="m12.123 18.644c5.653-.942 9.427 1.86 9.427 1.86.227.171.531.198.785.071s.415-.387.415-.671v-13.191c0-.332-.217-.624-.535-.719-.918-.275-1.837-.378-2.756-.328-.413.023-.731.377-.708.79.023.414.377.731.79.708.57-.031 1.139.01 1.709.13v11.287c-1.684-.873-5.033-2.14-9.373-1.417-.409.068-.685.455-.617.863.068.409.455.685.863.617z"/></g></svg>