<svg clip-rule="evenodd" fill-rule="evenodd" height="512" stroke-linejoin="round" stroke-miterlimit="2" viewBox="0 0 24 24" width="512" xmlns="http://www.w3.org/2000/svg"><g id="Icon"><path d="m7.132 4.779h-3.132c-.729 0-1.429.29-1.945.806-.515.516-.805 1.215-.805 1.944v3.883c0 .414.336.75.75.75h1.176c.426 0 .833.169 1.134.469.301.301.469.709.469 1.134s-.168.833-.469 1.133c-.301.301-.708.47-1.134.47h-1.176c-.414 0-.75.335-.75.75v3.882c0 .729.29 1.429.805 1.945.516.515 1.216.805 1.945.805h3.882c.415 0 .75-.336.75-.75v-1.176c0-.426.169-.833.47-1.134.3-.301.708-.469 1.133-.469s.833.168 1.134.469c.3.301.469.708.469 1.134v1.176c0 .414.336.75.75.75h3.883c.729 0 1.428-.29 1.944-.805.516-.516.806-1.216.806-1.945v-3.132h.426c.823 0 1.612-.327 2.194-.909s.909-1.371.909-2.194-.327-1.612-.909-2.194-1.371-.909-2.194-.909h-.426v-3.133c0-.729-.29-1.428-.806-1.944s-1.215-.806-1.944-.806h-3.133v-.426c0-.823-.327-1.612-.909-2.194s-1.371-.909-2.194-.909-1.612.327-2.194.909-.909 1.371-.909 2.194zm.75 1.5c.415 0 .75-.335.75-.75v-1.176c0-.425.169-.833.47-1.134.3-.3.708-.469 1.133-.469s.833.169 1.134.469c.3.301.469.709.469 1.134v1.176c0 .415.336.75.75.75h3.883c.331 0 .649.132.883.367.235.234.367.552.367.883v3.883c0 .414.335.75.75.75h1.176c.425 0 .833.169 1.134.469.3.301.469.709.469 1.134s-.169.833-.469 1.133c-.301.301-.709.47-1.134.47h-1.176c-.415 0-.75.335-.75.75v3.882c0 .332-.132.649-.367.884-.234.234-.552.366-.883.366h-3.133v-.426c0-.823-.327-1.613-.909-2.195-.582-.581-1.371-.908-2.194-.908s-1.612.327-2.194.908c-.582.582-.909 1.372-.909 2.195v.426h-3.132c-.332 0-.649-.132-.884-.366-.234-.235-.366-.552-.366-.884v-3.132h.426c.823 0 1.613-.327 2.195-.909.581-.582.908-1.371.908-2.194s-.327-1.612-.908-2.194c-.582-.582-1.372-.909-2.195-.909h-.426v-3.133c0-.331.132-.649.366-.883.235-.235.552-.367.884-.367z"/></g></svg>