<svg clip-rule="evenodd" fill-rule="evenodd" height="512" stroke-linejoin="round" stroke-miterlimit="2" viewBox="0 0 24 24" width="512" xmlns="http://www.w3.org/2000/svg"><g id="Icon"><path d="m12.75 12c0 .414-.336.75-.75.75s-.75-.336-.75-.75.336-.75.75-.75.75.336.75.75" fill-rule="nonzero"/><path d="m10.41 10.41c.405-.405.967-.66 1.59-.66.622 0 1.184.255 1.589.66.293.293.768.293 1.061 0 .293-.292.293-.768 0-1.06-.675-.675-1.613-1.1-2.65-1.1-1.038 0-1.976.425-2.651 1.1-.293.292-.293.768 0 1.06.293.293.768.293 1.061 0z"/><path d="m8.292 8.288c.944-.953 2.256-1.538 3.707-1.538 1.452 0 2.763.585 3.708 1.538.291.294.766.296 1.06.005.294-.292.297-.767.005-1.061-1.216-1.227-2.904-1.982-4.773-1.982-1.868 0-3.557.755-4.772 1.982-.292.294-.29.769.005 1.061.294.291.769.289 1.06-.005z"/><path d="m19.75 9c0-4.323-3.54-7.821-7.881-7.749 0 0 0 0-.001 0-4.044.068-7.467 3.421-7.613 7.464-.088 2.47.981 4.689 2.706 6.165h.001c.777.665 1.288 1.59 1.288 2.612v.508c0 1.519 1.231 2.75 2.75 2.75h2c1.519 0 2.75-1.231 2.75-2.75v-.512c0-1.005.484-1.929 1.253-2.578 1.679-1.419 2.747-3.538 2.747-5.91zm-1.5 0c0 1.912-.862 3.621-2.215 4.764-1.107.935-1.785 2.275-1.785 3.724v.512c0 .69-.56 1.25-1.25 1.25h-2c-.69 0-1.25-.56-1.25-1.25v-.508c0-1.462-.701-2.801-1.814-3.752-1.39-1.19-2.253-2.979-2.181-4.971.116-3.261 2.877-5.964 6.138-6.018 3.501-.058 6.357 2.762 6.357 6.249z"/><path d="m9 16.75h6c.414 0 .75-.336.75-.75s-.336-.75-.75-.75h-6c-.414 0-.75.336-.75.75s.336.75.75.75z"/><path d="m10 22.75h4c.414 0 .75-.336.75-.75s-.336-.75-.75-.75h-4c-.414 0-.75.336-.75.75s.336.75.75.75z"/></g></svg>