<svg clip-rule="evenodd" fill-rule="evenodd" height="512" stroke-linejoin="round" stroke-miterlimit="2" viewBox="0 0 24 24" width="512" xmlns="http://www.w3.org/2000/svg"><g id="Icon"><path d="m7.825 8.095-.077-1.145c-.027-.413-.385-.726-.798-.698-.413.027-.726.385-.698.798 0 0 .524 7.859.813 12.199.131 1.97 1.767 3.501 3.742 3.501h2.386c1.975 0 3.611-1.531 3.742-3.501.289-4.34.813-12.199.813-12.199.016-.233-.078-.461-.254-.615-.176-.153-.414-.216-.643-.17zm.1 1.51.637 9.545c.078 1.182 1.06 2.1 2.245 2.1h2.386c1.185 0 2.167-.918 2.245-2.1 0 0 .748-11.22.748-11.22z"/><path d="m7.75 7c0-2.346 1.904-4.25 4.25-4.25s4.25 1.904 4.25 4.25c0 .414.336.75.75.75s.75-.336.75-.75c0-3.174-2.576-5.75-5.75-5.75s-5.75 2.576-5.75 5.75c0 .414.336.75.75.75s.75-.336.75-.75z"/><path d="m10.917 7.624c-.106-.183-.167-.397-.167-.624 0-.69.56-1.25 1.25-1.25s1.25.56 1.25 1.25c0 .108-.014.213-.039.313-.104.401.138.81.539.913.401.104.81-.138.913-.539.057-.219.087-.45.087-.687 0-1.518-1.232-2.75-2.75-2.75s-2.75 1.232-2.75 2.75c0 .501.134.971.369 1.376.207.358.666.48 1.025.273.358-.207.48-.667.273-1.025z"/><path d="m7.002 9.561s1.654 1.47 2.956 2.628c.557.494 1.29.742 2.033.687.742-.056 1.43-.41 1.907-.982l3.678-4.414c.265-.318.222-.791-.096-1.056s-.791-.222-1.056.096l-3.678 4.414c-.217.26-.53.421-.867.446-.338.025-.671-.088-.924-.312-1.303-1.158-2.957-2.629-2.957-2.629-.309-.275-.784-.247-1.059.063-.275.309-.247.784.063 1.059z"/><path d="m7.838 15.232c3.122.693 5.204.703 8.327 0 .404-.091.658-.493.567-.897s-.493-.658-.897-.567c-2.877.648-4.795.638-7.673 0-.404-.09-.805.166-.894.57-.09.404.166.805.57.894z"/><path d="m7.838 18.732c3.122.693 5.204.703 8.327 0 .404-.091.658-.493.567-.897s-.493-.658-.897-.567c-2.877.648-4.795.638-7.673 0-.404-.09-.805.166-.894.57-.09.404.166.805.57.894z"/></g></svg>