<svg clip-rule="evenodd" fill-rule="evenodd" height="512" stroke-linejoin="round" stroke-miterlimit="2" viewBox="0 0 24 24" width="512" xmlns="http://www.w3.org/2000/svg"><g id="Icon"><path d="m17 22.75c.968 0 1.75-.783 1.75-1.75v-18c0-.968-.782-1.75-1.75-1.75h-10c-.968 0-1.75.782-1.75 1.75v18c0 .967.782 1.75 1.75 1.75zm0-1.5h-10c-.138 0-.25-.112-.25-.25v-18c0-.139.112-.25.25-.25h10c.138 0 .25.111.25.25v18c0 .138-.112.25-.25.25z"/><path d="m15.75 16c0-2.07-1.68-3.75-3.75-3.75s-3.75 1.68-3.75 3.75c0 2.069 1.68 3.75 3.75 3.75s3.75-1.681 3.75-3.75zm-1.5 0c0 1.241-1.008 2.25-2.25 2.25s-2.25-1.009-2.25-2.25c0-1.242 1.008-2.25 2.25-2.25s2.25 1.008 2.25 2.25z"/><path d="m14.75 7c0-1.518-1.232-2.75-2.75-2.75s-2.75 1.232-2.75 2.75c0 1.517 1.232 2.75 2.75 2.75s2.75-1.233 2.75-2.75zm-1.5 0c0 .689-.56 1.25-1.25 1.25s-1.25-.561-1.25-1.25c0-.69.56-1.25 1.25-1.25s1.25.56 1.25 1.25z"/></g></svg>