<svg clip-rule="evenodd" fill-rule="evenodd" height="512" stroke-linejoin="round" stroke-miterlimit="2" viewBox="0 0 24 24" width="512" xmlns="http://www.w3.org/2000/svg"><g id="Icon"><circle cx="15" cy="11.25" r="1"/><path d="m22.75 6.25c0-2.071-1.679-3.75-3.75-3.75-3.776 0-10.224 0-14 0-2.071 0-3.75 1.679-3.75 3.75v10c0 2.071 1.679 3.75 3.75 3.75h14c2.071 0 3.75-1.679 3.75-3.75zm-1.5 0v10c0 1.243-1.007 2.25-2.25 2.25-3.776 0-10.224 0-14 0-1.243 0-2.25-1.007-2.25-2.25v-10c0-1.243 1.007-2.25 2.25-2.25h14c1.243 0 2.25 1.007 2.25 2.25z"/><path d="m6 9h2c.414 0 .75-.336.75-.75s-.336-.75-.75-.75h-2c-.414 0-.75.336-.75.75s.336.75.75.75z"/><path d="m6 12h2c.414 0 .75-.336.75-.75s-.336-.75-.75-.75h-2c-.414 0-.75.336-.75.75s.336.75.75.75z"/><path d="m6 15h2c.414 0 .75-.336.75-.75s-.336-.75-.75-.75h-2c-.414 0-.75.336-.75.75s.336.75.75.75z"/><path d="m15 7.5c-2.07 0-3.75 1.68-3.75 3.75s1.68 3.75 3.75 3.75 3.75-1.68 3.75-3.75-1.68-3.75-3.75-3.75zm0 1.5c1.242 0 2.25 1.008 2.25 2.25s-1.008 2.25-2.25 2.25-2.25-1.008-2.25-2.25 1.008-2.25 2.25-2.25z"/><path d="m17.25 19.25v1.5c0 .414.336.75.75.75s.75-.336.75-.75v-1.5c0-.414-.336-.75-.75-.75s-.75.336-.75.75z"/><path d="m5.25 19.25v1.5c0 .414.336.75.75.75s.75-.336.75-.75v-1.5c0-.414-.336-.75-.75-.75s-.75.336-.75.75z"/></g></svg>