<svg clip-rule="evenodd" fill-rule="evenodd" height="512" stroke-linejoin="round" stroke-miterlimit="2" viewBox="0 0 24 24" width="512" xmlns="http://www.w3.org/2000/svg"><g id="Icon"><path d="m21.975 2.025c-1.034-1.033-2.709-1.033-3.743 0l-6.37 6.37c-.292.293-.292.768 0 1.061l2.682 2.682c.293.292.768.292 1.061 0l6.37-6.37c1.033-1.034 1.033-2.709 0-3.743zm-1.061 1.061c.448.448.448 1.173 0 1.621 0 0-5.839 5.84-5.839 5.84s-1.622-1.622-1.622-1.622 5.84-5.839 5.84-5.839c.448-.448 1.173-.448 1.621 0z"/><path d="m13.929 20.519 1.603-1.603c1.074-1.074 1.074-2.815 0-3.889-1.771-1.771-4.788-4.788-6.559-6.559-1.074-1.074-2.815-1.074-3.889 0l-1.603 1.603c-.293.293-.293.768 0 1.061l9.387 9.387c.293.293.768.293 1.061 0zm.542-2.664-1.072 1.073s-8.327-8.327-8.327-8.327 1.073-1.072 1.073-1.072c.488-.488 1.279-.488 1.768 0 1.771 1.771 4.787 4.787 6.558 6.558.488.489.488 1.28 0 1.768z"/><path d="m13.203 9.736-2.011 2.011c-.293.293-.293.768 0 1.061s.768.293 1.061 0l2.011-2.011c.293-.293.293-.768 0-1.061s-.768-.293-1.061 0z"/><path d="m12.868 19.458-2.011 2.012c-.293.292-.293.768 0 1.06.292.293.768.293 1.06 0l2.012-2.011c.293-.293.293-.768 0-1.061s-.768-.293-1.061 0z"/><path d="m8.175 14.765-2.012 2.011c-.293.293-.293.768 0 1.061s.768.293 1.061 0l2.011-2.012c.293-.292.293-.768 0-1.06-.292-.293-.768-.293-1.06 0z"/><path d="m5.828 12.418-2.012 2.011c-.292.293-.292.768 0 1.061.293.293.768.293 1.061 0l2.012-2.011c.292-.293.292-.768 0-1.061-.293-.293-.768-.293-1.061 0z"/><path d="m10.521 17.111-2.011 2.012c-.293.293-.293.768 0 1.061.293.292.768.292 1.061 0l2.011-2.012c.293-.293.293-.768 0-1.061-.293-.292-.768-.292-1.061 0z"/><path d="m3.481 10.071-2.011 2.012c-.293.292-.293.768 0 1.06.292.293.768.293 1.06 0l2.012-2.011c.293-.293.293-.768 0-1.061s-.768-.293-1.061 0z"/></g></svg>