<svg clip-rule="evenodd" fill-rule="evenodd" height="512" stroke-linejoin="round" stroke-miterlimit="2" viewBox="0 0 24 24" width="512" xmlns="http://www.w3.org/2000/svg"><g id="Icon"><circle cx="5.25" cy="5" r=".75"/><circle cx="7.75" cy="5" r=".75"/><circle cx="10.25" cy="5" r=".75"/><path d="m22.75 11v-6.5c0-1.795-1.455-3.25-3.25-3.25-3.842 0-11.158 0-15 0-1.795 0-3.25 1.455-3.25 3.25v15c0 1.795 1.455 3.25 3.25 3.25h8.5c.414 0 .75-.336.75-.75s-.336-.75-.75-.75h-8.5c-.967 0-1.75-.783-1.75-1.75v-15c0-.967.783-1.75 1.75-1.75h15c.967 0 1.75.784 1.75 1.75v6.5c0 .414.336.75.75.75s.75-.336.75-.75z"/><path d="m22 7.25h-20c-.414 0-.75.336-.75.75s.336.75.75.75h20c.414 0 .75-.336.75-.75s-.336-.75-.75-.75z"/><path d="m22.75 15.049c0-.466-.269-.89-.69-1.088l-3.393-1.597c-.325-.152-.7-.152-1.024 0l-3.393 1.597c-.421.198-.69.622-.69 1.088v1.464l.012.232c.495 4.472 4.308 5.953 4.308 5.953.177.069.373.069.55 0 0 0 3.813-1.481 4.306-5.952.009-.078.013-.156.013-.233zm-1.5.189-.001 1.275-.004.068c-.316 2.869-2.344 4.194-3.09 4.589-.747-.395-2.774-1.719-3.092-4.589l-.003-.068v-1.275l3.095-1.457z"/></g></svg>