<svg clip-rule="evenodd" fill-rule="evenodd" stroke-linejoin="round" stroke-miterlimit="2" viewBox="0 0 32 32" xmlns="http://www.w3.org/2000/svg" xmlns:serif="http://www.serif.com/"><path id="chat-message-compose-reply" d="m0 0h32v32h-32z" fill="none"/><path d="m16.103 2.97c5.193.037 10.636 2.47 12.429 7.201 1.162 3.067.077 6.703-2.337 9.15-1.919 1.946-4.348 3.349-6.278 5.31-1.164 1.183-2.171 2.52-3.044 3.93 0 0-.501.579-1.073.451-.558-.126-.922-.797-.716-1.335.105-.278.178-.323.261-.455 1.453-2.286 3.283-4.32 5.392-6.012 2.488-1.995 5.452-3.73 6.197-7.232.601-2.823-1.491-5.758-4.049-7.247-4.579-2.667-10.934-2.37-14.997.864-2.382 1.896-3.727 5.185-2.222 8.151 1.888 3.722 6.551 5.261 10.357 5.27 0 0 1.038.264.999 1.052-.029.578-.585.96-1.249.951-5.284-.075-10.974-2.667-12.47-7.817-.687-2.364-.182-4.981 1.289-7.041 2.586-3.62 7.279-5.201 11.511-5.191zm3.928 14.035h-8.021c-.87-.024-1.413-1.435-.435-1.905.13-.063.205-.093.435-.1h8.021c.018.001.037.001.056.002.532.045.584.195.727.376.446.559.07 1.581-.727 1.626-.019.001-.038.001-.056.001zm2.005-4.01h-12.031c-.307-.01-.415-.068-.578-.183-.668-.472-.488-1.786.578-1.822h12.031c.023.001.045.002.068.002.252.026.324.066.453.144.718.437.564 1.822-.521 1.859z"/></svg>