<svg clip-rule="evenodd" fill-rule="evenodd" stroke-linejoin="round" stroke-miterlimit="1.414" viewBox="0 0 32 32" xmlns="http://www.w3.org/2000/svg" xmlns:serif="http://www.serif.com/"><path id="drug-treatment-medicine" d="m0 0h32v32h-32z" fill="none"/><path d="m28.003 24.993c.084.004.106.002.189.019.791.152 1.075 1.454.269 1.87-.14.072-.297.103-.458.111-6.675 0-13.351.02-20.026 0-2.595-.024-4.942-2.273-4.968-4.968-.012-4.02-.012-8.039 0-12.059.024-2.562 2.223-4.959 4.997-4.968h19.997c.032.002.063.003.095.005.763.109 1.196 1.146.595 1.718-.138.132-.313.223-.501.259-.083.016-.105.014-.189.018-6.677 0-13.355-.062-20.032 0-1.548.024-2.947 1.363-2.962 2.98-.013 4.018-.038 8.036 0 12.053.024 1.545 1.374 2.958 3 2.962zm-17.957-7.997c1.685.032 3.175 1.681 2.932 3.417-.199 1.415-1.534 2.581-2.971 2.581-1.716 0-3.254-1.713-2.958-3.492.227-1.371 1.5-2.479 2.92-2.506.038-.001.038-.001.077 0zm7.998 0c1.685.032 3.175 1.681 2.932 3.417-.199 1.415-1.534 2.581-2.971 2.581-1.716 0-3.254-1.713-2.958-3.492.227-1.371 1.5-2.479 2.92-2.506.039-.001.038-.001.077 0zm7.998 0c1.685.032 3.175 1.681 2.932 3.417-.198 1.415-1.534 2.581-2.97 2.581-1.716 0-3.254-1.713-2.959-3.492.227-1.371 1.501-2.479 2.92-2.506.039-.001.039-.001.077 0zm-16.048 1.999c-.766.015-1.311 1.103-.685 1.715.514.501 1.577.221 1.688-.575.08-.567-.374-1.144-1.003-1.14zm15.996 0c-.766.015-1.311 1.103-.684 1.715.513.501 1.576.221 1.688-.575.079-.567-.375-1.144-1.004-1.14zm-7.998 0c-.766.015-1.311 1.103-.685 1.715.514.501 1.577.221 1.688-.575.08-.567-.374-1.144-1.003-1.14zm8.05-9.998c1.685.032 3.175 1.681 2.932 3.418-.198 1.415-1.534 2.581-2.97 2.581-1.716 0-3.254-1.713-2.959-3.492.227-1.371 1.501-2.48 2.92-2.507zm-15.996 0c1.685.032 3.175 1.681 2.932 3.418-.199 1.415-1.534 2.581-2.971 2.581-1.716 0-3.254-1.713-2.958-3.492.227-1.371 1.5-2.48 2.92-2.507zm7.998 0c1.685.032 3.175 1.681 2.932 3.418-.199 1.415-1.534 2.581-2.971 2.581-1.716 0-3.254-1.713-2.958-3.492.227-1.371 1.5-2.48 2.92-2.507zm-.052 2c-.766.014-1.311 1.103-.685 1.715.514.501 1.577.22 1.688-.575.08-.567-.376-1.144-1.003-1.14zm7.998 0c-.766.014-1.311 1.103-.684 1.715.513.501 1.576.22 1.688-.575.079-.567-.377-1.144-1.004-1.14zm-15.996 0c-.766.014-1.311 1.103-.685 1.715.514.501 1.577.22 1.688-.575.08-.567-.376-1.144-1.003-1.14z" fill-rule="nonzero"/></svg>