<svg clip-rule="evenodd" fill-rule="evenodd" height="512" stroke-linejoin="round" stroke-miterlimit="2" viewBox="0 0 24 24" width="512" xmlns="http://www.w3.org/2000/svg"><g id="Icon"><path d="m22.75 5v14c0 2.071-1.679 3.75-3.75 3.75h-14c-2.071 0-3.75-1.679-3.75-3.75v-14c0-2.071 1.679-3.75 3.75-3.75h14c2.071 0 3.75 1.679 3.75 3.75zm-1.5 0c0-1.243-1.007-2.25-2.25-2.25h-14c-1.243 0-2.25 1.007-2.25 2.25v14c0 1.243 1.007 2.25 2.25 2.25h14c1.243 0 2.25-1.007 2.25-2.25z"/><path d="m10.75 14.25v1.5c0 .332-.132.649-.366.884-.235.234-.553.366-.884.366h-3c-.331 0-.649-.132-.884-.366-.234-.235-.366-.552-.366-.884v-1.5c0-.332.132-.649.366-.884.235-.234.553-.366.884-.366h3c.331 0 .649.132.884.366.234.235.366.552.366.884zm-4 .25v1h2.5v-1z"/><path d="m18.75 14.25v1.5c0 .332-.132.649-.366.884-.235.234-.553.366-.884.366h-3c-.331 0-.649-.132-.884-.366-.234-.235-.366-.552-.366-.884v-1.5c0-.332.132-.649.366-.884.235-.234.553-.366.884-.366h3c.331 0 .649.132.884.366.234.235.366.552.366.884zm-4 .25v1h2.5v-1z"/><path d="m11.25 6h1.5c.332 0 .649.132.884.366.234.235.366.553.366.884v3c0 .331-.132.649-.366.884-.235.234-.552.366-.884.366h-1.5c-.332 0-.649-.132-.884-.366-.234-.235-.366-.553-.366-.884v-3c0-.331.132-.649.366-.884.235-.234.552-.366.884-.366zm.25 4h1v-2.5h-1z"/></g></svg>