<svg clip-rule="evenodd" fill-rule="evenodd" height="512" stroke-linejoin="round" stroke-miterlimit="2" viewBox="0 0 24 24" width="512" xmlns="http://www.w3.org/2000/svg"><g id="Icon"><path d="m18.25 8.5c0 2.623-2.127 4.75-4.75 4.75-3.5 0-10 0-10 0-1.242 0-2.25 1.008-2.25 2.25s1.008 2.25 2.25 2.25h10c5.109 0 9.25-4.141 9.25-9.25 0-1.242-1.008-2.25-2.25-2.25s-2.25 1.008-2.25 2.25zm1.5 0c0-.414.336-.75.75-.75s.75.336.75.75c0 4.28-3.47 7.75-7.75 7.75-3.5 0-10 0-10 0-.414 0-.75-.336-.75-.75s.336-.75.75-.75h10c3.452 0 6.25-2.798 6.25-6.25z"/><path d="m18.5 8.5h-4c-.414 0-.75.336-.75.75s.336.75.75.75h4c.414 0 .75-.336.75-.75s-.336-.75-.75-.75z"/><path d="m15.25 9c0-.966-.783-1.75-1.75-1.75h-9c-.967 0-1.75.784-1.75 1.75v.5c0 .966.783 1.75 1.75 1.75h9c.967 0 1.75-.784 1.75-1.75zm-1.5 0v.5c0 .138-.112.25-.25.25h-9c-.138 0-.25-.112-.25-.25v-.5c0-.138.112-.25.25-.25h9c.138 0 .25.112.25.25z"/><path d="m4.75 10.5v3.5c0 .414.336.75.75.75s.75-.336.75-.75v-3.5c0-.414-.336-.75-.75-.75s-.75.336-.75.75z"/><path d="m11.75 10.5v3.5c0 .414.336.75.75.75s.75-.336.75-.75v-3.5c0-.414-.336-.75-.75-.75s-.75.336-.75.75z"/></g></svg>