<svg clip-rule="evenodd" fill-rule="evenodd" height="512" stroke-linejoin="round" stroke-miterlimit="2" viewBox="0 0 24 24" width="512" xmlns="http://www.w3.org/2000/svg"><g id="Icon"><path d="m20.75 3c0-.231-.106-.449-.288-.591s-.42-.193-.644-.137c0 0-.859.215-1.451.363-.085.021-.175-.004-.237-.066l-.633-.633c-.495-.495-1.238-.647-1.888-.387l-1.399.559c-.077.031-.163.022-.232-.024 0 0-.81-.54-.81-.54-.287-.192-.625-.294-.971-.294h-1.92c-.317 0-.628.086-.9.249l-1.593.956c-.099.059-.225.044-.306-.037l-.438-.439c-.533-.532-1.346-.664-2.02-.327-.585.292-1.355.677-1.355.677-.254.127-.415.387-.415.671v19c0 .414.336.75.75.75h16c.414 0 .75-.336.75-.75zm-1.5.961v17.289h-14.5v-17.786l.941-.471c.096-.048.212-.029.288.047 0 0 .439.438.439.438.567.568 1.449.677 2.137.263 0 0 1.593-.955 1.593-.955.039-.024.084-.036.129-.036h1.92c.05 0 .098.015.139.042l.81.54c.48.32 1.086.383 1.621.169l1.399-.56c.093-.037.199-.015.27.056l.633.633c.435.435 1.066.609 1.662.46z"/><path d="m19.818 8.272s-.859.215-1.451.363c-.085.021-.175-.004-.237-.066l-.633-.633c-.495-.495-1.238-.647-1.888-.387l-1.399.559c-.077.031-.163.022-.232-.024 0 0-.81-.54-.81-.54-.287-.192-.625-.294-.971-.294h-1.92c-.317 0-.628.086-.9.249l-1.593.956c-.099.059-.225.044-.306-.037l-.438-.439c-.533-.532-1.346-.664-2.02-.327-.585.292-1.355.677-1.355.677-.371.185-.521.636-.336 1.006.185.371.636.521 1.006.336l1.356-.678c.096-.048.212-.029.288.047 0 0 .439.438.439.438.567.568 1.449.677 2.137.263 0 0 1.593-.955 1.593-.955.039-.024.084-.036.129-.036h1.92c.05 0 .098.015.139.042l.81.54c.48.32 1.086.383 1.621.169l1.399-.56c.093-.037.199-.015.27.056l.633.633c.435.435 1.066.609 1.662.46.592-.148 1.451-.362 1.451-.362.401-.101.646-.508.546-.91-.101-.401-.508-.646-.91-.546z"/><path d="m19.818 14.272s-.859.215-1.451.363c-.085.021-.175-.004-.237-.066l-.633-.633c-.495-.495-1.238-.647-1.888-.387l-1.399.559c-.077.031-.163.022-.232-.024 0 0-.81-.54-.81-.54-.287-.192-.625-.294-.971-.294h-1.92c-.317 0-.628.086-.9.249l-1.593.956c-.099.059-.225.044-.306-.037l-.438-.439c-.533-.532-1.346-.664-2.02-.327-.585.292-1.355.677-1.355.677-.371.185-.521.636-.336 1.006.185.371.636.521 1.006.336l1.356-.678c.096-.048.212-.029.288.047 0 0 .439.438.439.438.567.568 1.449.677 2.137.263 0 0 1.593-.955 1.593-.955.039-.024.084-.036.129-.036h1.92c.05 0 .098.015.139.042l.81.54c.48.32 1.086.383 1.621.169l1.399-.56c.093-.037.199-.015.27.056l.633.633c.435.435 1.066.609 1.662.46.592-.148 1.451-.362 1.451-.362.401-.101.646-.508.546-.91-.101-.401-.508-.646-.91-.546z"/><path d="m7 12.75h1c.414 0 .75-.336.75-.75s-.336-.75-.75-.75h-1c-.414 0-.75.336-.75.75s.336.75.75.75z"/><path d="m17.5 4.829h-1c-.414 0-.75.336-.75.75s.336.75.75.75h1c.414 0 .75-.336.75-.75s-.336-.75-.75-.75z"/><path d="m10.25 11.089.786.619c.325.256.797.201 1.053-.124s.2-.797-.125-1.054l-.785-.619c-.325-.256-.797-.2-1.053.125s-.201.797.124 1.053z"/><path d="m15.536 17.97.785.619c.325.256.797.2 1.053-.125s.201-.797-.124-1.053l-.786-.619c-.325-.256-.797-.201-1.053.124s-.2.797.125 1.054z"/><path d="m13.036 4.221-.786.619c-.325.256-.38.728-.124 1.053s.728.381 1.053.125l.785-.619c.325-.257.381-.729.125-1.054s-.728-.381-1.053-.124z"/><path d="m14.188 13.232.976-.218c.404-.091.658-.492.568-.896s-.492-.658-.896-.568l-.976.218c-.404.09-.658.492-.568.896s.492.658.896.568z"/><path d="m6.861 19.95.976-.218c.404-.09.658-.492.568-.896s-.492-.658-.896-.568l-.976.218c-.404.091-.658.492-.568.896s.492.658.896.568z"/><path d="m10.64 5.268-.976-.218c-.404-.09-.806.164-.896.568s.164.805.568.896l.976.218c.404.09.806-.164.896-.568s-.164-.806-.568-.896z"/><path d="m16.811 11.415.394.919c.163.38.604.557.985.394.38-.164.557-.605.393-.985l-.394-.919c-.163-.381-.604-.557-.985-.394-.38.163-.556.604-.393.985z"/><path d="m6.205 4.824-.394.919c-.163.38.013.821.393.985.381.163.822-.014.985-.394l.394-.919c.164-.381-.013-.822-.393-.985-.381-.163-.822.013-.985.394z"/><path d="m13.75 17.433c.006-.319-.194-.619-.513-.725 0 0-.66-.22-1.104-.368-.443-.148-.927-.112-1.344.099-.113.057-.245.123-.382.193-.499.252-.847.727-.937 1.279-.09.551.088 1.112.479 1.51l.223.226c.329.334.778.522 1.247.522h.581c.966 0 1.75-.783 1.75-1.75v-.985zm-1.5.527-.592-.197c-.063-.021-.132-.016-.191.014l-.383.194c-.071.036-.121.103-.134.182s.013.159.069.216l.222.226c.047.048.111.074.178.074h.581c.138 0 .25-.111.25-.25z"/></g></svg>