<svg clip-rule="evenodd" fill-rule="evenodd" height="512" stroke-linejoin="round" stroke-miterlimit="2" viewBox="0 0 24 24" width="512" xmlns="http://www.w3.org/2000/svg"><g id="Icon"><path d="m20 1.25c-1.242 0-2.25 1.008-2.25 2.25s1.008 2.25 2.25 2.25 2.25-1.008 2.25-2.25-1.008-2.25-2.25-2.25zm0 1.5c.414 0 .75.336.75.75s-.336.75-.75.75-.75-.336-.75-.75.336-.75.75-.75z"/><path d="m12 1.25c-1.242 0-2.25 1.008-2.25 2.25s1.008 2.25 2.25 2.25 2.25-1.008 2.25-2.25-1.008-2.25-2.25-2.25zm0 1.5c.414 0 .75.336.75.75s-.336.75-.75.75-.75-.336-.75-.75.336-.75.75-.75z"/><path d="m16 11.417c-1.242 0-2.25 1.008-2.25 2.25 0 1.241 1.008 2.25 2.25 2.25s2.25-1.009 2.25-2.25c0-1.242-1.008-2.25-2.25-2.25zm0 1.5c.414 0 .75.336.75.75s-.336.75-.75.75-.75-.336-.75-.75.336-.75.75-.75z"/><path d="m4 1.25c-1.242 0-2.25 1.008-2.25 2.25s1.008 2.25 2.25 2.25 2.25-1.008 2.25-2.25-1.008-2.25-2.25-2.25zm0 1.5c.414 0 .75.336.75.75s-.336.75-.75.75-.75-.336-.75-.75.336-.75.75-.75z"/><path d="m8 11.417c-1.242 0-2.25 1.008-2.25 2.25 0 1.241 1.008 2.25 2.25 2.25s2.25-1.009 2.25-2.25c0-1.242-1.008-2.25-2.25-2.25zm0 1.5c.414 0 .75.336.75.75s-.336.75-.75.75-.75-.336-.75-.75.336-.75.75-.75z"/><path d="m22.75 7c0-.332-.132-.649-.366-.884-.235-.234-.552-.366-.884-.366-.769 0-2.231 0-3 0-.69 0-1.25.56-1.25 1.25v1.417c0 .287.071.57.206.823l.473.888c.013.024.022.049.026.075l.234 1.345c.104.598.624 1.035 1.232 1.035h1.158c.608 0 1.128-.437 1.232-1.035l.23-1.322c.005-.03.016-.059.031-.085l.434-.731c.16-.27.244-.578.244-.892zm-4 .25h2.5v1.268c0 .044-.012.088-.035.127 0 0-.433.732-.433.732-.109.182-.183.383-.219.592l-.194 1.114h-.738l-.198-1.137c-.032-.183-.093-.36-.18-.524l-.474-.888c-.019-.036-.029-.076-.029-.117z"/><path d="m14.75 7c0-.332-.132-.649-.366-.884-.235-.234-.552-.366-.884-.366-.769 0-2.231 0-3 0-.69 0-1.25.56-1.25 1.25v1.417c0 .287.071.57.206.823l.473.888c.013.024.022.049.026.075l.234 1.345c.104.598.624 1.035 1.232 1.035h1.158c.608 0 1.128-.437 1.232-1.035l.23-1.322c.005-.03.016-.059.031-.085l.434-.731c.16-.27.244-.578.244-.892zm-4 .25h2.5v1.268c0 .044-.012.088-.035.127 0 0-.433.732-.433.732-.109.182-.183.383-.219.592l-.194 1.114h-.738l-.198-1.137c-.032-.183-.093-.36-.18-.524l-.474-.888c-.019-.036-.029-.076-.029-.117z"/><path d="m18.75 17.167c0-.332-.132-.65-.366-.884-.235-.235-.552-.366-.884-.366-.769 0-2.231 0-3 0-.69 0-1.25.559-1.25 1.25v1.416c0 .288.071.57.206.824l.473.888c.013.023.022.049.026.075l.234 1.344c.104.599.624 1.036 1.232 1.036h1.158c.608 0 1.128-.437 1.232-1.036l.23-1.321c.005-.03.016-.059.031-.085l.434-.732c.16-.27.244-.578.244-.892zm-4 .25h2.5v1.267c0 .045-.012.089-.035.128 0 0-.433.731-.433.731-.109.183-.183.383-.219.592l-.194 1.115h-.738l-.198-1.137c-.032-.183-.093-.36-.18-.524l-.474-.888c-.019-.036-.029-.077-.029-.118z"/><path d="m6.75 7c0-.332-.132-.649-.366-.884-.235-.234-.552-.366-.884-.366-.769 0-2.231 0-3 0-.69 0-1.25.56-1.25 1.25v1.417c0 .287.071.57.206.823l.473.888c.013.024.022.049.026.075l.234 1.345c.104.598.624 1.035 1.232 1.035h1.158c.608 0 1.128-.437 1.232-1.035l.23-1.322c.005-.03.016-.059.031-.085l.434-.731c.16-.27.244-.578.244-.892zm-4 .25h2.5v1.268c0 .044-.012.088-.035.127 0 0-.433.732-.433.732-.109.182-.183.383-.219.592l-.194 1.114h-.738l-.198-1.137c-.032-.183-.093-.36-.18-.524l-.474-.888c-.019-.036-.029-.076-.029-.117z"/><path d="m10.75 17.167c0-.332-.132-.65-.366-.884-.235-.235-.552-.366-.884-.366-.769 0-2.231 0-3 0-.69 0-1.25.559-1.25 1.25v1.416c0 .288.071.57.206.824l.473.888c.013.023.022.049.026.075l.234 1.344c.104.599.624 1.036 1.232 1.036h1.158c.608 0 1.128-.437 1.232-1.036l.23-1.321c.005-.03.016-.059.031-.085l.434-.732c.16-.27.244-.578.244-.892zm-4 .25h2.5v1.267c0 .045-.012.089-.035.128 0 0-.433.731-.433.731-.109.183-.183.383-.219.592l-.194 1.115h-.738l-.198-1.137c-.032-.183-.093-.36-.18-.524l-.474-.888c-.019-.036-.029-.077-.029-.118z"/></g></svg>