<svg clip-rule="evenodd" fill-rule="evenodd" height="512" stroke-linejoin="round" stroke-miterlimit="2" viewBox="0 0 24 24" width="512" xmlns="http://www.w3.org/2000/svg"><g id="Icon"><path d="m18.75 8.5c0-.464-.184-.909-.513-1.237-.328-.329-.773-.513-1.237-.513-2.26 0-7.74 0-10 0-.464 0-.909.184-1.237.513-.329.328-.513.773-.513 1.237v.5c0 .464.184.909.513 1.237.328.329.773.513 1.237.513h10c.464 0 .909-.184 1.237-.513.329-.328.513-.773.513-1.237zm-1.5 0v.5c0 .066-.026.13-.073.177s-.111.073-.177.073h-10c-.066 0-.13-.026-.177-.073s-.073-.111-.073-.177v-.5c0-.066.026-.13.073-.177s.111-.073.177-.073h10c.066 0 .13.026.177.073s.073.111.073.177z"/><path d="m21.25 7.5v4c0 .138-.112.25-.25.25h-3c-.414 0-.75.336-.75.75s.336.75.75.75h3c.967 0 1.75-.784 1.75-1.75 0-1.459 0-4 0-4 0-.414-.336-.75-.75-.75s-.75.336-.75.75z"/><path d="m1.25 7.5v4c0 .966.783 1.75 1.75 1.75h3c.414 0 .75-.336.75-.75s-.336-.75-.75-.75h-3c-.138 0-.25-.112-.25-.25v-4c0-.414-.336-.75-.75-.75s-.75.336-.75.75z"/><path d="m17.936 12.994 3.5 4c.272.311.746.343 1.058.07.311-.272.343-.746.07-1.058l-3.5-4c-.272-.311-.746-.343-1.058-.07-.311.272-.343.746-.07 1.058z"/><path d="m4.936 12.006-3.5 4c-.273.312-.241.786.07 1.058.312.273.786.241 1.058-.07l3.5-4c.273-.312.241-.786-.07-1.058-.312-.273-.786-.241-1.058.07z"/><path d="m20.936 12.006-3.5 4c-.273.312-.241.786.07 1.058.312.273.786.241 1.058-.07l3.5-4c.273-.312.241-.786-.07-1.058-.312-.273-.786-.241-1.058.07z"/><path d="m1.936 12.994 3.5 4c.272.311.746.343 1.058.07.311-.272.343-.746.07-1.058l-3.5-4c-.272-.311-.746-.343-1.058-.07-.311.272-.343.746-.07 1.058z"/><path d="m16.027 9.418-8 6.5c-.321.261-.37.734-.109 1.055s.734.37 1.055.109l8-6.5c.321-.261.37-.734.109-1.055s-.734-.37-1.055-.109z"/><path d="m7.027 10.582 8 6.5c.321.261.794.212 1.055-.109s.212-.794-.109-1.055l-8-6.5c-.321-.261-.794-.212-1.055.109s-.212.794.109 1.055z"/></g></svg>