<svg clip-rule="evenodd" fill-rule="evenodd" height="512" stroke-linejoin="round" stroke-miterlimit="2" viewBox="0 0 24 24" width="512" xmlns="http://www.w3.org/2000/svg"><g id="Icon"><path d="m15.039 18.946c-.047-.036-.15-.116-.218-.184-.334-.337-.696-.853-.996-1.316-.022-.035-.048-.068-.076-.099-.321-.35-.774-.549-1.249-.55-.475 0-.928.199-1.249.549-.028.031-.054.065-.077.1-.3.463-.661.979-.995 1.316-.068.068-.171.148-.218.184h-5.513c-.386 0-.698-.312-.698-.698v-3.552c0-.414-.336-.75-.75-.75s-.75.336-.75.75v3.552c0 1.215.984 2.198 2.198 2.198h5.604c.271 0 .616-.124.962-.415.439-.369.955-1.061 1.372-1.697.033-.024.073-.037.114-.037s.08.013.113.037c.417.635.934 1.327 1.373 1.697.346.291.691.415.962.415h5.604c1.214 0 2.198-.983 2.198-2.198v-5.552c0-.464-.184-.909-.513-1.237-.328-.329-.773-.513-1.237-.513h-15c-.414 0-.75.336-.75.75s.336.75.75.75h15c.066 0 .13.026.177.073s.073.111.073.177v5.552c0 .386-.312.698-.698.698z"/><path d="m1.25 12.696v1c0 .967.784 1.75 1.75 1.75h4c.966 0 1.75-.783 1.75-1.75v-1c0-.966-.784-1.75-1.75-1.75-1.11 0-2.89 0-4 0-.966 0-1.75.784-1.75 1.75zm1.5 0c0-.138.112-.25.25-.25h4c.138 0 .25.112.25.25v1c0 .138-.112.25-.25.25h-4c-.138 0-.25-.112-.25-.25z"/><path d="m22.74 12.573s-.835-5.007-1.259-7.552c-.095-.571-.467-1.058-.992-1.301-.526-.242-1.138-.209-1.634.089-.622.373-1.241.744-1.241.744-.355.213-.47.674-.257 1.029s.674.47 1.029.257l1.24-.744c.071-.043.159-.047.234-.013.075.035.128.104.142.186 0 0 1.258 7.551 1.258 7.551.068.409.455.685.863.617.409-.068.685-.455.617-.863z"/><path d="m3.85 11.824 1.14-6.563c.014-.081.067-.15.142-.185.075-.034.162-.029.232.013l1.25.75c.355.213.816.098 1.029-.257s.098-.816-.257-1.029c0 0-.625-.375-1.25-.75-.495-.297-1.104-.331-1.628-.091-.525.241-.898.724-.996 1.292-.4 2.303-1.14 6.564-1.14 6.564-.071.408.203.796.611.867s.796-.203.867-.611z"/></g></svg>