<svg clip-rule="evenodd" fill-rule="evenodd" height="512" stroke-linejoin="round" stroke-miterlimit="2" viewBox="0 0 24 24" width="512" xmlns="http://www.w3.org/2000/svg"><g id="Icon"><path d="m3 12.25c-.414 0-.75.336-.75.75 0 5.381 4.369 9.75 9.75 9.75 1.33 0 2.598-.267 3.753-.75.382-.16.563-.599.403-.981-2.149-5.148-7.233-8.769-13.156-8.769zm.786 1.524c4.685.285 8.69 3.106 10.66 7.107-.773.24-1.594.369-2.446.369-4.292 0-7.824-3.285-8.214-7.476z"/><path d="m21.75 13c0-.414-.336-.75-.75-.75-5.923 0-11.007 3.621-13.156 8.769-.16.382.021.821.403.981 1.155.483 2.423.75 3.753.75 5.381 0 9.75-4.369 9.75-9.75zm-1.536.774c-.39 4.191-3.922 7.476-8.214 7.476-.852 0-1.673-.129-2.446-.369 1.97-4.001 5.975-6.822 10.66-7.107z"/><path d="m20.036 13.749c.396-.019.712-.345.714-.746v-.003c0-1.601.017-3.081-.815-4.318-.165-.245-.458-.371-.749-.321-2.412.413-4.977 1.973-6.068 4.075-.153.294-.094.654.144.885.659.636.936 1.195 1.014 1.384.079.193.235.345.431.418.195.073.412.061.598-.032 1.448-.725 3.053-1.182 4.75-1.306l-.055.002zm-.781-1.393c-1.392.17-2.722.542-3.96 1.084-.143-.225-.331-.485-.577-.764l.001-.001c.908-1.34 2.57-2.326 4.208-2.728.324.725.336 1.542.328 2.409z"/><path d="m10.738 13.321c.238-.231.297-.591.144-.885-1.091-2.102-3.656-3.662-6.068-4.075-.291-.05-.584.076-.749.321-.272.404-.469.988-.593 1.615-.253 1.288-.222 2.756-.222 2.756.009.387.31.703.695.732 1.697.124 3.302.581 4.75 1.306.186.093.403.105.598.032.196-.073.352-.225.431-.418.078-.189.355-.748 1.014-1.384zm-1.456-.645c-.246.279-.434.539-.577.764-1.234-.541-2.56-.911-3.947-1.082.013-.357.042-.819.107-1.289.053-.388.123-.784.237-1.115 1.629.407 3.276 1.389 4.179 2.721z"/><path d="m8.337 14.135c-.15.364.007.78.358.956 1.02.511 1.962 1.155 2.805 1.909.284.255.716.255 1 0 .842-.754 1.785-1.398 2.805-1.909.351-.176.508-.592.358-.956-.16-.39-.916-2.01-3.308-3.296-.222-.119-.488-.119-.71 0-2.392 1.286-3.148 2.906-3.308 3.296zm1.718-.016c.329-.477.926-1.142 1.945-1.756 1.019.613 1.616 1.279 1.945 1.756-.686.392-1.337.839-1.945 1.336-.609-.497-1.259-.944-1.945-1.336z"/><path d="m9.707 11.25s.724-2.077 2.293-3.328c1.568 1.251 2.293 3.328 2.293 3.328.138.391.567.595.957.457.391-.138.595-.567.457-.957 0 0-1.055-2.941-3.302-4.381-.247-.159-.563-.159-.81 0-2.247 1.44-3.302 4.381-3.302 4.381-.138.39.066.819.457.957.39.138.819-.066.957-.457z"/><path d="m9.626 5.509c.594-.898 1.38-1.861 2.374-2.598.994.737 1.78 1.7 2.374 2.598.229.345.694.44 1.04.212.345-.229.44-.694.212-1.039-.777-1.175-1.849-2.434-3.221-3.313-.247-.159-.563-.159-.81 0-1.372.879-2.444 2.138-3.221 3.313-.228.345-.133.81.212 1.039.346.228.811.133 1.04-.212z"/><path d="m6.243 9.101s.289-2.213 1.505-3.746c.652.237 1.939.883 2.556 2.424.153.384.59.571.975.417.384-.153.571-.59.417-.975-1.155-2.887-4.049-3.456-4.049-3.456-.251-.051-.51.031-.687.215-1.77 1.839-2.203 4.919-2.203 4.919-.056.41.232.788.642.844s.788-.232.844-.642z"/><path d="m19.243 8.899s-.433-3.08-2.203-4.919c-.177-.184-.436-.266-.687-.215 0 0-2.894.569-4.049 3.456-.154.385.033.822.417.975.385.154.822-.033.975-.417.617-1.542 1.904-2.188 2.555-2.424 1.217 1.533 1.506 3.746 1.506 3.746.056.41.434.698.844.642s.698-.434.642-.844z"/></g></svg>