<svg clip-rule="evenodd" fill-rule="evenodd" height="512" stroke-linejoin="round" stroke-miterlimit="2" viewBox="0 0 24 24" width="512" xmlns="http://www.w3.org/2000/svg"><g id="Icon"><path d="m5.141 15.583c-.879-1.311-1.391-2.888-1.391-4.583 0-4.553 3.697-8.25 8.25-8.25s8.25 3.697 8.25 8.25-3.697 8.25-8.25 8.25c-.414 0-.75.336-.75.75s.336.75.75.75c5.381 0 9.75-4.369 9.75-9.75s-4.369-9.75-9.75-9.75-9.75 4.369-9.75 9.75c0 2.004.606 3.868 1.644 5.417.231.344.697.436 1.041.206s.436-.697.206-1.04z"/><path d="m13.179 12.607c0 .227-.091.445-.251.606-.161.161-.379.251-.607.251h-1.321c-.203 0-.339-.213-.339-.213-.256-.326-.728-.382-1.053-.126-.326.256-.382.728-.126 1.053 0 0 .65.786 1.518.786h1.321c.626 0 1.225-.248 1.667-.69s.691-1.042.691-1.667-.249-1.225-.691-1.667-1.041-.69-1.667-.69h-.642c-.228 0-.446-.09-.607-.251-.16-.161-.251-.379-.251-.606s.091-.445.251-.606c.161-.161.379-.251.607-.251h1.321c.203 0 .339.213.339.213.256.326.728.382 1.053.126.326-.256.382-.728.126-1.053 0 0-.65-.786-1.518-.786h-1.321c-.626 0-1.225.248-1.667.69s-.691 1.042-.691 1.667.249 1.225.691 1.667 1.041.69 1.667.69h.642c.228 0 .446.09.607.251.16.161.251.379.251.606z"/><path d="m12.75 7.5v-.786c0-.414-.336-.75-.75-.75s-.75.336-.75.75v.786c0 .414.336.75.75.75s.75-.336.75-.75z"/><path d="m12.75 15.286v-.786c0-.414-.336-.75-.75-.75s-.75.336-.75.75v.786c0 .414.336.75.75.75s.75-.336.75-.75z"/><path d="m8 19.25h-5c-.414 0-.75.336-.75.75s.336.75.75.75h5c.414 0 .75-.336.75-.75s-.336-.75-.75-.75z"/><path d="m7.53 22.53 2-2c.293-.293.293-.767 0-1.06l-2-2c-.292-.293-.768-.293-1.06 0-.293.292-.293.768 0 1.06l1.469 1.47s-1.469 1.47-1.469 1.47c-.293.292-.293.768 0 1.06.292.293.768.293 1.06 0z"/></g></svg>