<svg clip-rule="evenodd" fill-rule="evenodd" height="512" stroke-linejoin="round" stroke-miterlimit="2" viewBox="0 0 24 24" width="512" xmlns="http://www.w3.org/2000/svg"><g id="Icon"><path d="m5.5 7.803c-2.346 0-4.25 1.904-4.25 4.25 0 2.345 1.904 4.25 4.25 4.25s4.25-1.905 4.25-4.25c0-2.346-1.904-4.25-4.25-4.25zm0 1.5c1.518 0 2.75 1.232 2.75 2.75 0 1.517-1.232 2.75-2.75 2.75s-2.75-1.233-2.75-2.75c0-1.518 1.232-2.75 2.75-2.75z"/><path d="m18.5 13.75c-2.346 0-4.25 1.904-4.25 4.25s1.904 4.25 4.25 4.25 4.25-1.904 4.25-4.25-1.904-4.25-4.25-4.25zm0 1.5c1.518 0 2.75 1.232 2.75 2.75s-1.232 2.75-2.75 2.75-2.75-1.232-2.75-2.75 1.232-2.75 2.75-2.75z"/><path d="m18.5 1.75c-2.346 0-4.25 1.904-4.25 4.25s1.904 4.25 4.25 4.25 4.25-1.904 4.25-4.25-1.904-4.25-4.25-4.25zm0 1.5c1.518 0 2.75 1.232 2.75 2.75s-1.232 2.75-2.75 2.75-2.75-1.232-2.75-2.75 1.232-2.75 2.75-2.75z"/><path d="m8.811 10.552 6.5-2.959c.376-.171.543-.617.372-.993-.172-.377-.617-.544-.994-.372l-6.5 2.959c-.376.172-.543.617-.372.993.172.377.617.544.994.372z"/><path d="m8.189 14.865 6.5 2.96c.377.171.822.005.994-.372.171-.377.004-.822-.372-.994l-6.5-2.959c-.377-.171-.822-.005-.994.372-.171.377-.004.822.372.993z"/></g></svg>