<svg clip-rule="evenodd" fill-rule="evenodd" height="512" stroke-linejoin="round" stroke-miterlimit="2" viewBox="0 0 24 24" width="512" xmlns="http://www.w3.org/2000/svg"><g id="Icon"><path d="m11.5 18.25h8c.414 0 .75-.336.75-.75v-14.5c0-.464-.184-.909-.513-1.237-.328-.329-.773-.513-1.237-.513-2.443 0-8.751 0-12 0-.729 0-1.429.29-1.945.805-.515.516-.805 1.216-.805 1.945v16c0 .414.336.75.75.75s.75-.336.75-.75c0 0 0-11.31 0-16 0-.332.132-.649.366-.884.235-.234.552-.366.884-.366h12c.066 0 .13.026.177.073s.073.111.073.177v13.75h-7.25c-.414 0-.75.336-.75.75s.336.75.75.75z"/><path d="m11.5 16.75h-4.75c-1.657 0-3 1.343-3 3 0 .796.316 1.559.879 2.121.562.563 1.325.879 2.121.879h11.75c.464 0 .909-.184 1.237-.513.329-.328.513-.773.513-1.237 0-.696 0-1.5 0-1.5 0-.414-.336-.75-.75-.75s-.75.336-.75.75v1.5c0 .066-.026.13-.073.177s-.111.073-.177.073h-11.75c-.398 0-.779-.158-1.061-.439-.281-.282-.439-.663-.439-1.061 0-.828.672-1.5 1.5-1.5h4.75c.414 0 .75-.336.75-.75s-.336-.75-.75-.75z"/><path d="m12 8.46c-2.381 0-4.314 1.933-4.314 4.315 0 .521.248.985.73 1.35.73.553 2.152.875 3.584.875s2.854-.322 3.584-.875c.482-.365.73-.829.73-1.35 0-2.382-1.933-4.315-4.314-4.315zm0 1.5c1.553 0 2.814 1.261 2.814 2.815 0 .07-.071.105-.136.154-.129.098-.296.178-.487.248-.597.22-1.394.323-2.191.323s-1.594-.103-2.191-.323c-.191-.07-.358-.15-.487-.248-.065-.049-.136-.084-.136-.154 0-1.554 1.261-2.815 2.814-2.815z"/><path d="m12 4.5c-1.507 0-2.73 1.223-2.73 2.73s1.223 2.73 2.73 2.73 2.73-1.223 2.73-2.73-1.223-2.73-2.73-2.73zm0 1.5c.679 0 1.23.551 1.23 1.23s-.551 1.23-1.23 1.23-1.23-.551-1.23-1.23.551-1.23 1.23-1.23z"/></g></svg>