<svg clip-rule="evenodd" fill-rule="evenodd" height="512" stroke-linejoin="round" stroke-miterlimit="2" viewBox="0 0 24 24" width="512" xmlns="http://www.w3.org/2000/svg"><g id="Icon"><path d="m19.25 4c0-.729-.29-1.429-.805-1.945-.516-.515-1.216-.805-1.945-.805-2.444 0-6.556 0-9 0-.729 0-1.429.29-1.945.805-.515.516-.805 1.216-.805 1.945v16c0 .729.29 1.429.805 1.945.516.515 1.216.805 1.945.805h9c.729 0 1.429-.29 1.945-.805.515-.516.805-1.216.805-1.945zm-1.5 0v16c0 .332-.132.649-.366.884-.235.234-.552.366-.884.366-2.444 0-6.556 0-9 0-.332 0-.649-.132-.884-.366-.234-.235-.366-.552-.366-.884v-16c0-.332.132-.649.366-.884.235-.234.552-.366.884-.366h9c.332 0 .649.132.884.366.234.235.366.552.366.884z"/><path d="m7.765 2.147.339 1.696c.163.818.882 1.407 1.716 1.407h4.36c.834 0 1.553-.589 1.716-1.407l.339-1.696c.082-.406-.182-.801-.588-.882-.406-.082-.801.182-.882.588l-.34 1.696c-.023.117-.126.201-.245.201h-4.36c-.119 0-.222-.084-.245-.201 0 0-.34-1.696-.34-1.696-.081-.406-.476-.67-.882-.588-.406.081-.67.476-.588.882z"/><path d="m10.5 19.75h3c.414 0 .75-.336.75-.75s-.336-.75-.75-.75h-3c-.414 0-.75.336-.75.75s.336.75.75.75z"/></g></svg>