<svg clip-rule="evenodd" fill-rule="evenodd" height="512" stroke-linejoin="round" stroke-miterlimit="2" viewBox="0 0 24 24" width="512" xmlns="http://www.w3.org/2000/svg"><g id="Icon"><path d="m22.75 11v-5c0-.729-.29-1.429-.805-1.945-.516-.515-1.216-.805-1.945-.805-3.832 0-12.168 0-16 0-.729 0-1.429.29-1.945.805-.515.516-.805 1.216-.805 1.945v14c0 .729.29 1.429.805 1.945.516.515 1.216.805 1.945.805h6c.414 0 .75-.336.75-.75s-.336-.75-.75-.75h-6c-.332 0-.649-.132-.884-.366-.234-.235-.366-.552-.366-.884v-14c0-.332.132-.649.366-.884.235-.234.552-.366.884-.366h16c.332 0 .649.132.884.366.234.235.366.552.366.884v5c0 .414.336.75.75.75s.75-.336.75-.75z"/><path d="m22.75 14c0-.966-.783-1.75-1.75-1.75h-8c-.967 0-1.75.784-1.75 1.75v7c0 .966.783 1.75 1.75 1.75h8c.967 0 1.75-.784 1.75-1.75zm-1.5 0v7c0 .138-.112.25-.25.25h-8c-.138 0-.25-.112-.25-.25v-7c0-.138.112-.25.25-.25h8c.138 0 .25.112.25.25z"/><path d="m6.75 2v3.5c0 .414.336.75.75.75s.75-.336.75-.75v-3.5c0-.414-.336-.75-.75-.75s-.75.336-.75.75z"/><path d="m15.75 2v3.5c0 .414.336.75.75.75s.75-.336.75-.75v-3.5c0-.414-.336-.75-.75-.75s-.75.336-.75.75z"/><path d="m14.5 13v3c0 .414.336.75.75.75h3.5c.414 0 .75-.336.75-.75v-3c0-.414-.336-.75-.75-.75s-.75.336-.75.75v2.25h-2v-2.25c0-.414-.336-.75-.75-.75s-.75.336-.75.75z"/></g></svg>