<svg clip-rule="evenodd" fill-rule="evenodd" height="512" stroke-linejoin="round" stroke-miterlimit="2" viewBox="0 0 24 24" width="512" xmlns="http://www.w3.org/2000/svg"><g id="Icon"><path d="m12.822 13.111-4.306-2.153c-.848-.424-1.843.193-1.843 1.138v4.307c0 .947.996 1.562 1.843 1.139 0 0 4.306-2.153 4.306-2.153.939-.47.938-1.811-.002-2.279zm-4.649 2.925 3.572-1.786-3.572-1.786z"/><path d="m16.612 7.526c1.181 0 2.138-.957 2.138-2.138 0-1.18-.957-2.138-2.138-2.138h-7.358c-.83 0-1.504.673-1.504 1.503v1.27c0 .83.674 1.503 1.504 1.503zm0-1.5h-7.358c-.002 0-.004-.001-.004-.003v-1.27c0-.002.002-.003.004-.003h7.358c.352 0 .638.286.638.638 0 .353-.286.638-.638.638z"/><path d="m17.602 17.136 2.68 1.675c1.083.676 2.468-.12 2.468-1.51v-5.602c0-1.391-1.385-2.187-2.468-1.511l-2.68 1.676c-.351.219-.457.682-.238 1.033.22.351.683.458 1.034.239l2.678-1.675c.11-.069.174.096.174.238v5.602c0 .141-.064.306-.174.237 0 0-2.678-1.674-2.678-1.674-.351-.22-.814-.113-1.034.238-.219.351-.113.814.238 1.034z"/><path d="m2.75 10.5v-3.194c0-.583.473-1.056 1.055-1.056h1.195c.414 0 .75-.336.75-.75s-.336-.75-.75-.75h-1.195c-1.41 0-2.555 1.144-2.555 2.556v3.194c0 .414.336.75.75.75s.75-.336.75-.75z"/><path d="m18.75 18.282v-7.564c0-1.356-1.123-2.468-2.523-2.468h-12.454c-1.4 0-2.523 1.112-2.523 2.468v7.564c0 1.355 1.123 2.468 2.523 2.468h12.454c1.4 0 2.523-1.113 2.523-2.468zm-1.5-7.564v7.564c0 .54-.465.968-1.023.968h-12.454c-.558 0-1.023-.428-1.023-.968v-7.564c0-.541.465-.968 1.023-.968h12.454c.558 0 1.023.427 1.023.968z"/></g></svg>