<svg clip-rule="evenodd" fill-rule="evenodd" height="512" stroke-linejoin="round" stroke-miterlimit="2" viewBox="0 0 24 24" width="512" xmlns="http://www.w3.org/2000/svg"><g id="Icon"><path d="m5.858 20.935.894-7.157c.045-.355-.066-.713-.303-.982s-.579-.423-.937-.423h-3.012c-.69 0-1.25.56-1.25 1.25v7.157c0 .69.56 1.25 1.25 1.25h2.117c.631 0 1.162-.469 1.241-1.095zm-3.108-7.062v6.657h1.647l.832-6.657z"/><path d="m6.114 14.374 1.869-.304c.673-.109 1.363-.003 1.973.302l1.512.755c.31.155.636.276.972.36l2.576.644c.299.075.508.343.508.65v.002c0 .38-.308.688-.688.688h-.972c-.349 0-.696-.056-1.027-.167 0 0-2.443-.814-2.443-.814-.393-.131-.818.082-.949.475-.131.392.082.817.474.948 0 0 1.55.517 2.443.815.485.161.992.243 1.502.243h.972c1.208 0 2.188-.979 2.188-2.188v-.002c0-.996-.678-1.864-1.644-2.105-.843-.211-1.971-.493-2.576-.644-.23-.058-.454-.14-.666-.246l-1.511-.756c-.891-.446-1.901-.6-2.885-.44l-1.868.303c-.409.066-.687.452-.62.86.066.409.451.687.86.621z"/><path d="m21.065 18.466-5.801 2.389c-1.037.427-2.184.51-3.272.238-2.411-.602-6.242-1.56-6.242-1.56-.401-.101-.809.144-.909.545-.101.402.144.81.546.91 0 0 3.83.958 6.241 1.56 1.4.35 2.874.243 4.208-.306 1.915-.789 4.827-1.988 6.147-2.532.387-.159.668-.501.75-.911.082-.409-.046-.833-.342-1.129l-.241-.241c-.976-.976-2.408-1.337-3.73-.941-1.48.445-3.381 1.015-3.381 1.015-.397.119-.622.537-.503.934.119.396.537.622.934.503 0 0 1.901-.571 3.381-1.015.783-.234 1.63-.027 2.214.541z"/><path d="m18.54 1.479c-.142-.146-.337-.229-.54-.229s-.398.083-.54.229c0 0-1.491 1.545-2.685 3.42-.849 1.334-1.525 2.837-1.525 4.101 0 2.622 2.128 4.75 4.75 4.75s4.75-2.128 4.75-4.75c0-1.264-.676-2.767-1.525-4.101-1.194-1.875-2.685-3.42-2.685-3.42zm-.54 1.637c.506.58 1.284 1.527 1.959 2.588.687 1.08 1.291 2.274 1.291 3.296 0 1.794-1.456 3.25-3.25 3.25s-3.25-1.456-3.25-3.25c0-1.022.604-2.216 1.291-3.296.675-1.061 1.453-2.008 1.959-2.588z"/></g></svg>