<svg clip-rule="evenodd" fill-rule="evenodd" height="512" stroke-linejoin="round" stroke-miterlimit="2" viewBox="0 0 24 24" width="512" xmlns="http://www.w3.org/2000/svg"><g id="Icon"><path d="m15.691 3.865c-.292-.293-.292-.768 0-1.061.293-.293.768-.293 1.061 0l4.444 4.444c.293.293.293.768 0 1.061-.293.292-.768.292-1.061 0z"/><path d="m16.307 7.693c1.029 1.028 1.029 2.698 0 3.727-1.028 1.028-2.698 1.028-3.727 0-1.028-1.029-1.028-2.699 0-3.727 1.029-1.029 2.699-1.029 3.727 0zm-1.06 1.06c-.443-.443-1.163-.443-1.606 0s-.443 1.163 0 1.606 1.163.443 1.606 0 .443-1.163 0-1.606z"/><path d="m22.749 1.983s.159 7.28-4.219 11.659c-1.939 1.939-4.05 3.379-5.969 4.202-.282.121-.609.058-.826-.159l-5.377-5.376c-.214-.215-.278-.537-.163-.817.812-1.964 2.169-4.027 4.163-6.022 4.379-4.378 11.659-4.219 11.659-4.219.4.01.722.332.732.732zm-1.514.782c-1.837.084-6.663.613-9.816 3.766-1.681 1.681-2.876 3.41-3.639 5.078 0 0 4.649 4.649 4.649 4.648 1.643-.783 3.405-2.041 5.04-3.676 3.153-3.153 3.682-7.979 3.766-9.816z"/><path d="m6.086 14.359 3.555 3.555c.293.293.293.768 0 1.061-3.964 3.964-6.989 2.848-6.989 2.848-.224-.075-.4-.251-.475-.475 0 0-1.116-3.025 2.848-6.989.293-.293.768-.293 1.061 0zm-.516 1.606c-1.869 2.095-2.058 3.75-2.024 4.489.739.034 2.394-.155 4.489-2.024z"/><path d="m12.752 17.642-1.333 1.333c-.377.376-.887.588-1.419.588-.533 0-1.043-.212-1.42-.588l-3.555-3.555c-.376-.377-.588-.887-.588-1.42 0-.532.212-1.042.588-1.419l1.333-1.333c.293-.293.768-.293 1.061 0l5.333 5.333c.293.293.293.768 0 1.061zm-1.591-.531-4.272-4.272-.803.803c-.095.095-.149.224-.149.358 0 .135.054.264.149.359l3.555 3.555c.095.095.224.149.359.149.134 0 .263-.054.358-.149z"/><path d="m9.273 7.086c.4.107.637.519.53.918-.107.4-.518.638-.918.531-.358-.096-.73-.146-1.108-.146-1.134 0-2.222.451-3.025 1.253l-1.161 1.162 3.7.528c.41.059.695.439.636.849-.058.409-.438.695-.848.636l-5.185-.741c-.281-.04-.516-.235-.606-.505-.089-.269-.019-.567.182-.767l2.222-2.223c1.083-1.083 2.553-1.692 4.085-1.692.51 0 1.012.067 1.496.197z"/><path d="m15.465 15.115c-.107-.4.131-.811.531-.918.399-.107.811.13.918.53.13.484.197.986.197 1.496 0 1.532-.609 3.002-1.692 4.085l-2.223 2.222c-.2.201-.498.271-.767.182-.27-.09-.465-.325-.505-.606l-.741-5.185c-.059-.41.227-.79.636-.848.41-.059.79.226.849.636l.528 3.7 1.162-1.161c.802-.803 1.253-1.891 1.253-3.025 0-.378-.05-.75-.146-1.108z"/></g></svg>