<svg clip-rule="evenodd" fill-rule="evenodd" height="512" stroke-linejoin="round" stroke-miterlimit="2" viewBox="0 0 24 24" width="512" xmlns="http://www.w3.org/2000/svg"><g id="Icon"><path d="m19.528 22.75h-6.948c-.812 0-1.562-.432-1.969-1.134-.407-.701-.41-1.567-.007-2.271l3.474-6.08c.405-.709 1.159-1.146 1.976-1.146.816 0 1.57.437 1.976 1.146l3.474 6.08c.402.704.399 1.57-.008 2.271-.407.702-1.157 1.134-1.968 1.134zm0-1.5c.276 0 .532-.147.671-.386.139-.24.14-.535.002-.775l-3.474-6.08c-.138-.241-.395-.39-.673-.39-.279 0-.536.149-.674.39l-3.474 6.08c-.137.24-.136.535.002.775.139.239.395.386.672.386z"/><path d="m15.304 16.119c0-.414.336-.75.75-.75s.75.336.75.75v2c0 .413-.336.75-.75.75s-.75-.337-.75-.75z"/><circle cx="16.054" cy="19.869" r=".75"/><path d="m19.911 11c0 .414-.336.75-.75.75s-.75-.336-.75-.75v-3.172c0-.331-.132-.649-.366-.883l-3.829-3.829c-.234-.234-.552-.366-.883-.366h-8.387c-.331 0-.649.132-.884.366-.234.235-.366.552-.366.884v16c0 .332.132.649.366.884.235.234.553.366.884.366h3.608c.414 0 .75.336.75.75s-.336.75-.75.75h-3.608c-.729 0-1.428-.29-1.944-.805-.516-.516-.806-1.216-.806-1.945v-16c0-.729.29-1.429.806-1.945.516-.515 1.215-.805 1.944-.805h8.387c.729 0 1.428.29 1.944.805l3.829 3.829c.515.516.805 1.215.805 1.944z"/><path d="m13.411 2.5c0-.414.336-.75.75-.75s.75.336.75.75v3.5c0 .138.112.25.25.25h3.5c.414 0 .75.336.75.75s-.336.75-.75.75h-3.5c-.967 0-1.75-.783-1.75-1.75z"/><path d="m6.446 7.75c-.414 0-.75-.336-.75-.75s.336-.75.75-.75h3c.414 0 .75.336.75.75s-.336.75-.75.75z"/><path d="m6.446 13.75c-.414 0-.75-.336-.75-.75s.336-.75.75-.75h3c.414 0 .75.336.75.75s-.336.75-.75.75z"/><path d="m6.446 10.75c-.414 0-.75-.336-.75-.75s.336-.75.75-.75h6c.414 0 .75.336.75.75s-.336.75-.75.75z"/></g></svg>