<svg clip-rule="evenodd" fill-rule="evenodd" stroke-linejoin="round" stroke-miterlimit="1.414" viewBox="0 0 32 32" xmlns="http://www.w3.org/2000/svg" xmlns:serif="http://www.serif.com/"><path id="history-watch-arrow-clockwise" d="m0 0h32v32h-32z" fill="none"/><path d="m7.999 16.434c.015.267.039.533.075.797.6 4.297 4.586 7.915 9.172 7.799 4.008-.102 7.78-3.158 8.609-7.204.819-3.998-1.402-8.418-5.229-10.092-1.135-.497-2.372-.748-3.616-.752 0 0-.747-.125-.941-.663-.195-.542.177-1.225.773-1.328.097-.017.133-.015.242-.015 4.155.04 8.13 2.576 9.901 6.309 1.986 4.188 1.009 9.607-2.507 12.842-2.784 2.561-6.936 3.557-10.623 2.449-4.351-1.306-7.661-5.435-7.864-10.163l-.303.303s-.318.298-.719.294c-.752-.007-1.309-1.053-.727-1.683.009-.01.018-.019.028-.029l2.005-2.005c.087-.084.106-.094.152-.125.12-.08.258-.134.4-.157.065-.01.131-.013.197-.011.217.012.392.061.579.212.025.021.05.042.074.065.005.005.011.01.016.016l2.006 2.005c.537.559.165 1.67-.659 1.711-.279.014-.559-.101-.759-.293l-.282-.282zm9.077-7.445c.193.019.224.036.306.069.332.131.581.449.626.807.007.055.006.069.008.125v5.602l3.961 3.961s.56.927-.046 1.461c-.346.305-.909.327-1.278.04-.044-.034-.054-.045-.095-.083l-4.254-4.255c-.182-.192-.286-.443-.294-.709v-6.017c.006-.193.022-.225.049-.31.117-.359.451-.637.828-.685.121-.015.15-.007.189-.006z" fill-rule="nonzero"/></svg>