<svg clip-rule="evenodd" fill-rule="evenodd" height="512" stroke-linejoin="round" stroke-miterlimit="2" viewBox="0 0 24 24" width="512" xmlns="http://www.w3.org/2000/svg"><g id="Icon"><g fill-rule="nonzero"><path d="m10.752 16c0 .415-.337.752-.752.752s-.752-.337-.752-.752.337-.752.752-.752.752.337.752.752"/><path d="m14.752 16c0 .415-.337.752-.752.752s-.752-.337-.752-.752.337-.752.752-.752.752.337.752.752"/><path d="m9.252 11.752c0 .415-.337.752-.752.752s-.752-.337-.752-.752.337-.752.752-.752.752.337.752.752"/><path d="m16.252 11.752c0 .415-.337.752-.752.752s-.752-.337-.752-.752.337-.752.752-.752.752.337.752.752"/><path d="m12.752 9.748c0 .415-.337.752-.752.752s-.752-.337-.752-.752.337-.752.752-.752.752.337.752.752"/></g><path d="m13.904 2.666c-.578-1.894-3.23-1.894-3.808 0 0-.001-1.477 4.827-1.477 4.827-.064.209-.252.355-.468.355h-4.906c-1.899 0-2.721 2.43-1.213 3.595l4.074 3.145c.168.13.237.352.174.556l-1.531 5.005c-.571 1.87 1.578 3.37 3.117 2.181l3.839-2.963c.174-.135.416-.135.59 0l3.839 2.963c1.54 1.189 3.689-.311 3.117-2.181l-1.531-5.005c-.063-.204.006-.426.174-.556l4.074-3.145c1.508-1.165.686-3.595-1.212-3.595h-4.906c-.217 0-.405-.146-.469-.355zm-1.435.437 1.477 4.829c.258.843 1.03 1.416 1.904 1.416h4.906c.477 0 .675.615.295.908l-4.074 3.145c-.66.51-.937 1.38-.692 2.182l1.531 5.005c.143.465-.382.85-.765.555l-3.839-2.963c-.716-.553-1.708-.553-2.424 0l-3.839 2.963c-.382.295-.907-.09-.765-.555l1.531-5.005c.245-.802-.032-1.672-.692-2.182l-4.074-3.145c-.38-.293-.182-.908.296-.908h4.906c.873 0 1.645-.573 1.903-1.416l1.477-4.829c.142-.466.796-.466.938 0z"/></g></svg>