<svg clip-rule="evenodd" fill-rule="evenodd" height="512" stroke-linejoin="round" stroke-miterlimit="2" viewBox="0 0 24 24" width="512" xmlns="http://www.w3.org/2000/svg"><g id="Icon"><circle cx="5.5" cy="4.5" r=".75"/><circle cx="8" cy="4.5" r=".75"/><circle cx="10.5" cy="4.5" r=".75"/><path d="m22.75 10v-5c0-2.071-1.679-3.75-3.75-3.75-3.776 0-10.224 0-14 0-2.071 0-3.75 1.679-3.75 3.75v14c0 2.071 1.679 3.75 3.75 3.75h14c.414 0 .75-.336.75-.75s-.336-.75-.75-.75c0 0-9.12 0-14 0-1.243 0-2.25-1.007-2.25-2.25v-14c0-1.243 1.007-2.25 2.25-2.25h14c1.243 0 2.25 1.007 2.25 2.25v5c0 .414.336.75.75.75s.75-.336.75-.75z"/><path d="m22 6.25h-20c-.414 0-.75.336-.75.75s.336.75.75.75h20c.414 0 .75-.336.75-.75s-.336-.75-.75-.75z"/><path d="m15.579 10.922c-2.27 1.311-3.049 4.219-1.738 6.489 1.31 2.27 4.218 3.049 6.488 1.739 2.271-1.311 3.05-4.219 1.739-6.489s-4.218-3.05-6.489-1.739zm.75 1.299c1.554-.897 3.543-.363 4.44 1.19s.364 3.543-1.19 4.439c-1.553.897-3.543.364-4.439-1.189-.897-1.553-.364-3.543 1.189-4.44z"/><path d="m19.305 18.875 2.02 3.5c.207.358.666.481 1.025.275.358-.207.481-.667.274-1.025l-2.02-3.5c-.207-.358-.666-.481-1.025-.275-.358.207-.481.667-.274 1.025z"/></g></svg>