<svg clip-rule="evenodd" fill-rule="evenodd" height="512" stroke-linejoin="round" stroke-miterlimit="2" viewBox="0 0 24 24" width="512" xmlns="http://www.w3.org/2000/svg"><g id="Icon"><path d="m6.984 14.999c-.293-.292-.768-.292-1.06.002l-4.145 4.159c-.682.684-.68 1.792.005 2.474.199.199.416.416.616.614.684.683 1.792.681 2.475-.004l4.144-4.159c.292-.293.291-.768-.002-1.06zm-.527 1.592.97.967s-3.615 3.627-3.615 3.627c-.097.098-.256.098-.354.001l-.616-.614c-.097-.098-.098-.256 0-.354z"/><path d="m12.328 3.541c.192-.118.392-.223.599-.311 1.914-.819 3.932-.54 5.447.467.001 0 .001 0 .002.001.914.604 1.645 1.474 2.089 2.525l.335.801c.339.807.477 1.684.403 2.556v.001c-.214 2.58-1.806 4.845-4.166 5.932-.001 0-.001 0-.001 0-.951.439-1.986.661-3.021.661-.503 0-1-.05-1.495-.154-.406-.173-2.106-.747-4.147.778-.332.248-.4.718-.152 1.05.247.331.718.399 1.049.152 1.492-1.115 2.673-.594 2.673-.594.055.027.113.048.173.061.628.14 1.26.207 1.899.207 1.25 0 2.501-.268 3.649-.799 2.853-1.313 4.775-4.051 5.034-7.169.094-1.113-.083-2.233-.514-3.262l-.337-.804c-.561-1.329-1.488-2.429-2.644-3.193-1.91-1.269-4.453-1.628-6.865-.597-.66.282-1.264.689-1.809 1.155.001-.001-1.744 1.488-1.744 1.488-.268.229-.341.613-.174.924.166.311.527.464.866.368l1.775-.505c.669-.189 1.785-.359 2.48-.349.248.004.496.017.742.045h.001c.703.079 1.341.378 1.841.835h.001c.63.575 1.03 1.405 1.058 2.327.051 1.693-1.517 2.852-1.517 2.852-.016.012-.031.025-.045.038-1.225 1.088-2.805 1.679-4.43 1.679-.213 0-.429-.009-.647-.03-1.42-.145-2.834.352-3.847 1.362 0 0-.964.96-.964.96-.293.292-.294.767-.002 1.06.292.294.767.295 1.061.003l.964-.961c.694-.692 1.664-1.031 2.639-.931h.004c.267.026.532.037.792.037 1.988 0 3.92-.723 5.419-2.052.242-.196 2.14-1.809 2.072-4.062-.041-1.345-.628-2.551-1.546-3.389-.729-.667-1.66-1.103-2.686-1.218-.293-.034-.59-.05-.887-.055-.398-.006-.913.038-1.427.11z"/></g></svg>