<svg clip-rule="evenodd" fill-rule="evenodd" height="512" stroke-linejoin="round" stroke-miterlimit="2" viewBox="0 0 24 24" width="512" xmlns="http://www.w3.org/2000/svg"><g id="Icon"><path d="m18.098 1.477c-1.046 0-2.049.413-2.79 1.151 0 0-12.052 11.984-12.052 11.984-.091.091-.158.203-.193.327l-1.52 5.355c-.374 1.319.847 2.537 2.165 2.161l5.273-1.507c.122-.035.234-.101.324-.191l11.939-11.939c.82-.819 1.281-1.932 1.281-3.091s-.461-2.272-1.281-3.091c-.742-.742-1.749-1.159-2.797-1.159v.004c-.024-.003-.049-.004-.076-.004h-.269zm-9.716 18.082-5.086 1.454c-.189.053-.363-.121-.31-.309 0 0 1.467-5.167 1.467-5.167l11.913-11.845c.46-.459 1.083-.715 1.732-.715h.349c.651 0 1.276.259 1.736.719.539.539.842 1.27.842 2.031s-.303 1.492-.842 2.031z"/><path d="m13.244 5.757 5 5c.293.293.768.293 1.061 0 .293-.292.293-.768 0-1.06l-5-5c-.293-.293-.768-.293-1.061 0-.292.292-.292.768 0 1.06z"/><path d="m3.244 15.757 5 5c.293.293.768.293 1.061 0 .293-.292.293-.768 0-1.06l-5-5c-.293-.293-.768-.293-1.061 0-.292.292-.292.768 0 1.06z"/></g></svg>