<svg clip-rule="evenodd" fill-rule="evenodd" stroke-linejoin="round" stroke-miterlimit="1.414" viewBox="0 0 32 32" xmlns="http://www.w3.org/2000/svg" xmlns:serif="http://www.serif.com/"><path id="trusted-shield-check-secure" d="m0 0h32v32h-32z" fill="none"/><path d="m8.987 8.96c0 2.355-.006 4.709 0 7.063.031 3.901 2.78 7.738 6.728 8.86.118.033.218.093.378.052 3.887-1.027 6.909-4.806 6.92-8.963v-4.006c.004-.082.002-.103.017-.184.129-.692 1.103-1.064 1.66-.556.205.186.314.46.327.74v4.009c-.013 4.831-3.339 9.431-8.127 10.819-.135.039-.27.075-.406.109l-.241.061c-.373.077-.752-.06-1.133-.17-4.507-1.307-7.968-5.657-8.121-10.459-.004-.12-.005-.24-.006-.36v-8.016c.025-.537.462-.977 1.002-1.002 1.124 0 2.25.055 3.305-.257 1.633-.484 3.041-1.66 3.811-3.191 0 0 .026-.047.04-.074.412-.619 1.414-.607 1.768.093.012.025.025.049.038.074 1.044 1.988 3.209 3.35 5.538 3.355h1.53c.792.036 1.307 1.054.74 1.676-.146.161-.343.27-.556.31-.081.015-.102.014-.184.017-1.28 0-2.56.033-3.772-.31-1.665-.47-3.172-1.478-4.243-2.838-1.518 1.927-3.959 3.143-6.483 3.148zm10.055 4.008c.743.045 1.292 1.029.705 1.675-.011.012-.022.023-.033.035l-4.007 4.007c-.128.122-.177.147-.271.193-.343.167-.78.116-1.076-.129-.032-.027-.04-.034-.07-.064l-2.004-2.003c-.413-.434-.354-1.219.17-1.553.38-.243.913-.182 1.247.136l1.295 1.295 3.299-3.299s.401-.297.745-.293z" fill-rule="nonzero"/></svg>