<svg clip-rule="evenodd" fill-rule="evenodd" stroke-linejoin="round" stroke-miterlimit="2" viewBox="0 0 32 32" xmlns="http://www.w3.org/2000/svg" xmlns:serif="http://www.serif.com/"><path id="cpu-processor-electronic" d="m0 0h32v32h-32z" fill="none"/><path d="m10.983 6.984v-3.005c.01-.536.402-.98.983-1.003h.04c.164.006.217.023.313.056.388.137.663.526.671.947v2.997c.669-.002 1.338-.004 2.007-.004v-2.993c.004-.163.019-.217.051-.314.132-.402.529-.689.973-.689.163.006.217.023.313.056.388.137.662.526.671.947v2.993c.669 0 1.338.002 2.007.004v-2.997c.003-.163.018-.217.05-.314.133-.402.53-.689.974-.689.536.021.972.422.983 1.003v3.005c.348.002.695.004 1.043.006 1.559.03 2.962 1.373 2.972 3.008v1.003c1.017-.006 2.034-.016 3.051.005.872.052 1.32 1.429.421 1.894-.141.073-.299.109-.461.112h-3.011v2.004c1.017-.006 2.034-.016 3.051.004.877.053 1.322 1.429.421 1.895-.141.073-.299.109-.461.112h-4.015c-.091-.002-.178-.019-.26-.048-.166-.038-.322-.119-.449-.246-.186-.186-.284-.445-.294-.71 0-2.016.038-4.032-.001-6.048-.016-.511-.461-.961-.977-.977-1.993-.038-3.987-.057-5.981-.058-.098.014-.197.015-.293.001-1.941.001-3.882.02-5.822.057-.512.016-.961.461-.977.977-.038 2.006-.058 4.013-.058 6.02.008.072.008.144 0 .215.001 1.954.021 3.908.058 5.862.016.511.463.96.977.976.605.012 1.21.022 1.815.03.089-.022.183-.031.278-.027.1.008.159.018.211.033 1.143.013 2.286.021 3.429.022.118-.041.245-.061.375-.055.093.007.182.026.266.055 1.145-.002 2.289-.009 3.434-.022.086-.023.178-.035.275-.035.013.001.026.001.039.002.059.004.115.013.17.027.602-.008 1.203-.018 1.804-.03.519-.016.974-.465.978-1.006v-2.004c.015-.392.09-.513.189-.611.139-.225.399-.385.814-.393 1.352 0 2.704-.026 4.055.001.866.052 1.322 1.429.421 1.894-.141.073-.299.109-.461.112h-2.986c.021.704.019 1.396-.196 2.005-.405 1.151-1.554 1.986-2.801 2.01-.348.002-.695.004-1.043.006v3.005c-.017.89-1.416 1.388-1.895.461-.073-.141-.109-.299-.112-.461v-2.997c-.669.003-1.338.004-2.007.005v2.992c-.018.891-1.458 1.398-1.913.425-.062-.132-.092-.277-.095-.425v-2.992c-.669-.001-1.338-.002-2.007-.005v2.997c-.018.882-1.42 1.379-1.895.461-.073-.141-.109-.299-.112-.461v-3.005c-.348-.002-.695-.004-1.043-.006-1.553-.03-2.941-1.374-2.972-2.972-.002-.348-.004-.695-.006-1.043h-3.005c-.885-.017-1.38-1.419-.461-1.895.141-.073.299-.109.461-.112.999 0 1.998-.014 2.997-.011-.002-.665-.004-1.331-.004-1.996h-2.993c-.891-.018-1.398-1.458-.425-1.913.132-.062.277-.092.425-.094.998 0 1.995-.015 2.993-.011 0-.666.002-1.331.004-1.997h-2.997c-.88-.017-1.414-1.45-.425-1.913.132-.061.277-.091.425-.094 1.002 0 2.004-.014 3.005-.011.002-.344.004-.688.006-1.031.03-1.554 1.375-2.942 2.972-2.973.348-.002.695-.004 1.043-.006zm7.025 12.05h-4.014c-.882-.017-1.379-1.42-.461-1.895.141-.073.299-.109.461-.112 1.351 0 2.703-.026 4.054.001.87.052 1.321 1.429.421 1.894-.141.073-.299.109-.461.112zm2.008-4.014h-8.03c-.868-.025-1.406-1.441-.435-1.908.129-.063.205-.093.435-.1h8.03c.018.001.037.001.056.002.988.083 1.295 1.968-.056 2.006z"/></svg>