<svg clip-rule="evenodd" fill-rule="evenodd" height="512" stroke-linejoin="round" stroke-miterlimit="2" viewBox="0 0 24 24" width="512" xmlns="http://www.w3.org/2000/svg"><g id="Icon"><path d="m22.75 6.75v-3c0-1.242-1.008-2.25-2.25-2.25h-17c-1.242 0-2.25 1.008-2.25 2.25v3c0 1.242 1.008 2.25 2.25 2.25h17c1.242 0 2.25-1.008 2.25-2.25zm-1.5 0c0 .414-.336.75-.75.75h-17c-.414 0-.75-.336-.75-.75v-3c0-.414.336-.75.75-.75h17c.414 0 .75.336.75.75z"/><path d="m4 7.5c-.414 0-.75.336-.75.75v7c0 .414.336.75.75.75h6c.414 0 .75-.336.75-.75v-7c0-.414-.336-.75-.75-.75zm.75 1.5h4.5v5.5h-4.5z"/><path d="m14 7.5c-.414 0-.75.336-.75.75v11c0 .414.336.75.75.75h6c.414 0 .75-.336.75-.75v-11c0-.414-.336-.75-.75-.75zm.75 1.5h4.5v9.5h-4.5z"/><path d="m13.25 19.25v2.5c0 .414.336.75.75.75s.75-.336.75-.75v-2.5c0-.414-.336-.75-.75-.75s-.75.336-.75.75z"/><path d="m19.25 19.25v2.5c0 .414.336.75.75.75s.75-.336.75-.75v-2.5c0-.414-.336-.75-.75-.75s-.75.336-.75.75z"/><path d="m16.25 19.25v2.5c0 .414.336.75.75.75s.75-.336.75-.75v-2.5c0-.414-.336-.75-.75-.75s-.75.336-.75.75z"/><path d="m3.25 15.25v2.5c0 .414.336.75.75.75s.75-.336.75-.75v-2.5c0-.414-.336-.75-.75-.75s-.75.336-.75.75z"/><path d="m6.25 15.25v2.5c0 .414.336.75.75.75s.75-.336.75-.75v-2.5c0-.414-.336-.75-.75-.75s-.75.336-.75.75z"/><path d="m9.25 15.25v2.5c0 .414.336.75.75.75s.75-.336.75-.75v-2.5c0-.414-.336-.75-.75-.75s-.75.336-.75.75z"/></g></svg>