<svg clip-rule="evenodd" fill-rule="evenodd" height="512" stroke-linejoin="round" stroke-miterlimit="2" viewBox="0 0 24 24" width="512" xmlns="http://www.w3.org/2000/svg"><g id="Icon"><path d="m2 3.75h20c.414 0 .75-.336.75-.75s-.336-.75-.75-.75h-20c-.414 0-.75.336-.75.75s.336.75.75.75z"/><path d="m3 2.25c-.414 0-.75.336-.75.75v13c0 .967.784 1.75 1.75 1.75h16c.966 0 1.75-.783 1.75-1.75v-13c0-.414-.336-.75-.75-.75zm.75 1.5h16.5v12.25c0 .138-.112.25-.25.25h-16c-.138 0-.25-.112-.25-.25z"/><path d="m12.75 19.5v-2.5c0-.414-.336-.75-.75-.75s-.75.336-.75.75v2.5c0 .414.336.75.75.75s.75-.336.75-.75z"/><path d="m12.75 3v-1c0-.414-.336-.75-.75-.75s-.75.336-.75.75v1c0 .414.336.75.75.75s.75-.336.75-.75z"/><path d="m8.936 22.61 3.064-2.188s3.064 2.188 3.064 2.188c.337.241.806.163 1.046-.174.241-.337.163-.806-.174-1.046l-3.5-2.5c-.26-.187-.611-.187-.871 0l-3.501 2.5c-.337.24-.415.709-.174 1.046.24.337.709.415 1.046.174z"/><path d="m9.25 13v-3c0-.414-.336-.75-.75-.75s-.75.336-.75.75v3c0 .414.336.75.75.75s.75-.336.75-.75z"/><path d="m12.75 13v-6c0-.414-.336-.75-.75-.75s-.75.336-.75.75v6c0 .414.336.75.75.75s.75-.336.75-.75z"/><path d="m16.25 13v-4c0-.414-.336-.75-.75-.75s-.75.336-.75.75v4c0 .414.336.75.75.75s.75-.336.75-.75z"/></g></svg>