<svg clip-rule="evenodd" fill-rule="evenodd" height="512" stroke-linejoin="round" stroke-miterlimit="2" viewBox="0 0 24 24" width="512" xmlns="http://www.w3.org/2000/svg"><g id="Icon"><path d="m21 19.75c.968 0 1.75-.782 1.75-1.75v-12c0-.968-.782-1.75-1.75-1.75h-18c-.968 0-1.75.782-1.75 1.75v12c0 .968.782 1.75 1.75 1.75zm0-1.5h-18c-.138 0-.25-.112-.25-.25v-12c0-.138.112-.25.25-.25h18c.138 0 .25.112.25.25v12c0 .138-.112.25-.25.25z"/><path d="m2.488 14.569 5.727-4.908c.686-.588 1.559-.911 2.462-.911.721 0 1.427.206 2.034.594l8.886 5.667c.349.223.813.12 1.035-.229.223-.349.12-.813-.229-1.035l-8.885-5.667c-.848-.542-1.834-.83-2.841-.83-1.261 0-2.48.451-3.438 1.273 0 0-5.727 4.908-5.727 4.908-.314.269-.351.743-.081 1.057.269.314.743.351 1.057.081z"/></g></svg>