<svg clip-rule="evenodd" fill-rule="evenodd" stroke-linejoin="round" stroke-miterlimit="1.414" viewBox="0 0 32 32" xmlns="http://www.w3.org/2000/svg" xmlns:serif="http://www.serif.com/"><path id="history-clock-watch-time-" d="m0 0h32v32h-32z" fill="none"/><path d="m16.089 3.01c.308.044.386.101.524.209.42.329.504 1.02.14 1.441-.359.416-1.049.335-1.64.382-3.89.308-7.519 2.861-9.137 6.411-1.411 3.096-1.286 6.848.375 9.86 1.612 2.924 4.61 5.053 7.934 5.572 4.421.691 9.163-1.568 11.371-5.601 2.264-4.134 1.514-9.717-1.945-13.12-1.116-1.099-2.468-1.948-3.943-2.49 0 0-.093-.019-.251-.136-.727-.54-.276-2.194 1-1.721 4.475 1.659 8.157 6.21 8.462 11.431.291 4.956-2.506 9.975-6.993 12.31-3.829 1.991-8.651 1.914-12.429-.245-3.322-1.898-5.739-5.301-6.385-9.121-.824-4.871 1.361-10.134 5.551-12.964 2.126-1.436 4.675-2.218 7.271-2.222.032.001.063.003.095.004zm-.031 6.001c.193.018.224.035.306.068.331.131.579.448.624.805.007.055.006.069.008.125v5.589l3.952 3.951s.373.457.269.926c-.144.644-1.03 1.006-1.59.572-.044-.034-.054-.045-.094-.083l-4.245-4.244c-.181-.193-.285-.443-.293-.708v-6.003c.006-.193.022-.225.049-.309.117-.358.45-.636.826-.683.121-.016.15-.007.188-.006z" fill-rule="nonzero"/></svg>