<svg clip-rule="evenodd" fill-rule="evenodd" height="512" stroke-linejoin="round" stroke-miterlimit="2" viewBox="0 0 24 24" width="512" xmlns="http://www.w3.org/2000/svg"><g id="Icon"><path d="m22.75 11.335c0-.464-.184-.909-.513-1.238-.328-.328-.773-.512-1.237-.512-3.414 0-14.586 0-18 0-.464 0-.909.184-1.237.512-.329.329-.513.774-.513 1.238v.5c0 .464.184.909.513 1.237.328.329.773.513 1.237.513h18c.464 0 .909-.184 1.237-.513.329-.328.513-.773.513-1.237zm-1.5 0v.5c0 .066-.026.13-.073.177s-.111.073-.177.073h-18c-.066 0-.13-.026-.177-.073s-.073-.111-.073-.177v-.5c0-.066.026-.13.073-.177s.111-.073.177-.073h18c.066 0 .13.026.177.073s.073.111.073.177z"/><path d="m17.813 3.644 2.291.651-.272.958c-.117.411-.137.843-.057 1.263l.285 1.509c.036.19.027.387-.026.574 0 0-.436 1.531-.436 1.531-.113.398.119.813.517.926.398.114.813-.118.926-.516l.436-1.531c.116-.411.136-.843.057-1.263l-.285-1.509c-.036-.19-.028-.387.026-.573l.34-1.199c.091-.319.051-.661-.11-.95-.161-.29-.431-.504-.75-.594-.717-.204-2.056-.585-2.772-.788-.319-.091-.661-.051-.951.11-.289.161-.503.431-.593.75l-.341 1.199c-.053.186-.149.358-.28.501-.297.326-.739.808-1.036 1.134-.288.315-.499.693-.616 1.103-.278.979-.91 3.2-.91 3.2-.113.398.119.813.517.926.398.114.813-.118.926-.516 0 0 .632-2.221.91-3.199.053-.187.149-.359.28-.502.297-.325.739-.808 1.036-1.134.288-.315.499-.692.616-1.103z"/><path d="m21.739 12.965c.038-.218-.022-.442-.164-.612-.143-.17-.353-.268-.575-.268h-18c-.222 0-.432.098-.575.268-.142.17-.202.394-.164.612 0 0 .772 4.375 1.209 6.848.232 1.314 1.374 2.272 2.708 2.272h11.644c1.334 0 2.476-.958 2.708-2.272.437-2.473 1.209-6.848 1.209-6.848zm-1.633.62-1.053 5.967c-.105.597-.624 1.033-1.231 1.033h-11.644c-.607 0-1.126-.436-1.231-1.033l-1.053-5.967z"/><path d="m14.49 13.385 7 6.5c.303.281.778.264 1.06-.04.281-.303.264-.778-.04-1.06l-7-6.5c-.303-.281-.778-.264-1.06.04-.281.303-.264.778.04 1.06z"/><path d="m8.49 12.285-7 6.5c-.304.282-.321.757-.04 1.06.282.304.757.321 1.06.04l7-6.5c.304-.282.321-.757.04-1.06-.282-.304-.757-.321-1.06-.04z"/><path d="m4.005 10.242c-.108-.862-.024-1.67.434-2.355.481-.719 1.351-1.282 2.72-1.682 1.633-.477 2.791-.374 3.62.186.839.568 1.317 1.56 1.651 2.702.12.411.175.827.171 1.234-.004.414.329.754.743.758s.753-.329.757-.743c.006-.551-.069-1.113-.231-1.67-.441-1.507-1.143-2.774-2.251-3.523-1.119-.757-2.675-1.028-4.881-.383-1.806.527-2.911 1.338-3.546 2.287-.658.984-.831 2.137-.675 3.375.051.411.426.703.837.651.411-.051.703-.427.651-.837z"/><path d="m7.58 5.081s-.199-.329-.144-.762c.041-.33.24-.698.709-1.06.328-.253.389-.724.136-1.052s-.724-.389-1.052-.136c-.893.69-1.203 1.434-1.282 2.061-.126 1.003.37 1.758.37 1.758.223.348.687.45 1.036.227.348-.223.45-.687.227-1.036z"/></g></svg>