<svg clip-rule="evenodd" fill-rule="evenodd" height="512" stroke-linejoin="round" stroke-miterlimit="2" viewBox="0 0 24 24" width="512" xmlns="http://www.w3.org/2000/svg"><g id="Icon"><path d="m12.804 19.591s-.484-3.249-2.014-6.42c-1.056-2.189-2.614-4.323-4.804-5.418-.37-.185-.821-.035-1.006.335s-.035.821.336 1.006c1.897.949 3.208 2.832 4.123 4.729 1.428 2.958 1.882 5.99 1.882 5.99.061.409.443.692.852.631s.692-.443.631-.853z"/><path d="m12.806 19.603s-.307-2.325.235-5.076c.53-2.688 1.872-5.809 5.207-7.476.37-.185.521-.636.336-1.006-.186-.371-.636-.521-1.007-.336-3.818 1.909-5.401 5.45-6.008 8.528-.594 3.016-.25 5.564-.25 5.564.055.411.432.699.843.644.41-.054.699-.432.644-.842z"/><path d="m9.947 12.876c.146-.066.267-.176.345-.315 0 0 1.552-2.771.273-5.4-.81-1.663-2.774-3.35-7.228-4.074-.473-.083-.969.039-1.358.339-.388.299-.632.749-.672 1.237-.001.003-.001.005-.001.008-.095 1.308-.124 3.55.466 5.441.436 1.397 1.21 2.599 2.452 3.227 1.282.648 3.12.71 5.723-.463zm-.855-1.262c-1.894.811-3.236.869-4.192.386-.884-.447-1.386-1.34-1.696-2.335-.529-1.694-.487-3.705-.402-4.88.006-.068.04-.13.094-.172s.123-.059.191-.047c.003.001.006.001.01.002 3.719.605 5.443 1.86 6.119 3.25.768 1.577.143 3.223-.123 3.794z"/><path d="m12.807 10.082c.06.147.166.272.302.355 2.434 1.493 4.265 1.664 5.619 1.183 1.311-.465 2.231-1.56 2.84-2.891.824-1.801 1.079-4.029 1.15-5.339 0-.002 0-.005 0-.007.022-.49-.163-.967-.511-1.313-.347-.346-.824-.53-1.314-.507-4.499.155-6.661 1.58-7.674 3.128-1.602 2.445-.412 5.391-.412 5.391zm1.309-.79c-.192-.601-.603-2.312.358-3.78.846-1.293 2.715-2.32 6.481-2.45.003 0 .006 0 .009-.001.069-.003.136.023.184.071.047.047.073.111.072.177-.064 1.181-.277 3.181-1.016 4.796-.434.948-1.044 1.77-1.978 2.101-1.009.359-2.332.132-4.109-.913z"/><path d="m9.191 17.324c-.463-.36-1.045-.574-1.676-.574-1.408 0-2.569 1.066-2.718 2.435-1.052.716-1.608 1.608-1.608 2.517 0 .414.336.75.75.75h15.997c.414 0 .75-.336.75-.75 0-1.033-.737-2.052-2.09-2.813-.14-1.379-1.305-2.456-2.721-2.456-.782 0-1.487.329-1.986.855-.48-.789-1.348-1.316-2.338-1.316-1.005 0-1.885.543-2.36 1.352zm.506 1.774c.323-.043.581-.29.638-.611.104-.577.609-1.015 1.216-1.015.588 0 1.08.411 1.205.961.072.319.342.554.667.582.19.017.378.036.563.059.322.039.632-.134.769-.427.197-.422.625-.714 1.12-.714.682 0 1.235.553 1.235 1.235 0 .038-.001.075-.005.112-.028.311.141.607.422.743.547.263.992.561 1.296.897.009.011.019.021.028.032h-13.845c.216-.25.531-.48.906-.698.244-.143.387-.411.37-.693-.001-.025-.002-.051-.002-.076 0-.682.553-1.235 1.235-1.235.437 0 .821.228 1.041.57.161.251.455.383.75.336.128-.021.259-.04.391-.058z"/></g></svg>