<svg clip-rule="evenodd" fill-rule="evenodd" height="512" stroke-linejoin="round" stroke-miterlimit="2" viewBox="0 0 24 24" width="512" xmlns="http://www.w3.org/2000/svg"><g id="Icon"><path d="m18 21.25c.414 0 .75.336.75.75s-.336.75-.75.75h-12c-.414 0-.75-.336-.75-.75s.336-.75.75-.75z"/><path d="m14.25 19v3c0 .414-.336.75-.75.75h-3c-.414 0-.75-.336-.75-.75v-3c0-.414.336-.75.75-.75h3c.414 0 .75.336.75.75zm-1.5.75h-1.5v1.5h1.5z"/><path d="m20.381 8.85.773 9c.042.489-.123.972-.454 1.333-.332.361-.799.567-1.29.567h-14.82c-.491 0-.958-.206-1.29-.567-.331-.361-.496-.844-.454-1.333l.773-9c.077-.905.835-1.6 1.743-1.6h13.276c.908 0 1.666.695 1.743 1.6zm-1.494.129c-.011-.13-.119-.229-.249-.229h-13.276c-.13 0-.238.099-.249.229l-.773 9c-.006.069.018.138.065.19.048.052.114.081.185.081h14.821c.07 0 .136-.029.184-.081.047-.052.071-.121.065-.19z"/><path d="m16.692 18.936c.035.412-.271.776-.683.811-.413.036-.776-.27-.812-.683l-.944-11c-.036-.412.27-.776.683-.811.412-.036.776.27.811.683z"/><path d="m8.803 19.064c-.036.413-.399.719-.812.683-.412-.035-.718-.399-.683-.811l.945-11c.035-.413.399-.719.811-.683.413.035.719.399.683.811z"/><path d="m8.104 8.301c-.166.379-.609.552-.988.386s-.552-.608-.386-.988c.887-2.029 2.914-3.449 5.27-3.449s4.383 1.42 5.27 3.449c.166.38-.007.822-.386.988s-.822-.007-.988-.386c-.656-1.501-2.154-2.551-3.896-2.551s-3.24 1.05-3.896 2.551z"/><path d="m16.35 2.965c.207-.359.667-.482 1.025-.275s.481.666.275 1.025l-.5.866c-.207.358-.667.481-1.025.274s-.481-.666-.275-1.024z"/><path d="m11.25 2c0-.414.336-.75.75-.75s.75.336.75.75v1c0 .414-.336.75-.75.75s-.75-.336-.75-.75z"/><path d="m6.35 3.715c-.206-.359-.083-.818.275-1.025s.818-.084 1.025.275l.5.866c.206.358.083.817-.275 1.024s-.818.084-1.025-.274z"/><path d="m19.5 10.75c.414 0 .75.336.75.75s-.336.75-.75.75h-15c-.414 0-.75-.336-.75-.75s.336-.75.75-.75z"/><path d="m20 14.75c.414 0 .75.336.75.75s-.336.75-.75.75h-16c-.414 0-.75-.336-.75-.75s.336-.75.75-.75z"/></g></svg>