<svg clip-rule="evenodd" fill-rule="evenodd" stroke-linejoin="round" stroke-miterlimit="1.414" viewBox="0 0 32 32" xmlns="http://www.w3.org/2000/svg" xmlns:serif="http://www.serif.com/"><path id="dna-original-family" d="m0 0h32v32h-32z" fill="none"/><path d="m12.667 21.005c-.363.639-.67 1.31-.918 2.001h6.251c.018 0 .036.001.054.001.756.061 1.241 1.103.663 1.697-.187.191-.369.293-.717.302h-6.792c-.136.733-.207 1.474-.209 2.213v.788c-.007.227-.035.295-.092.418-.286.623-1.291.772-1.725.16-.083-.118-.14-.253-.166-.395-.012-.06-.016-.122-.017-.183v-.791c.009-3.373 1.194-6.692 3.389-9.307.156-.186.502-.421.868-.413.226.02.293.051.413.115.48.253.64.898.379 1.394h3.817c-.755-.859-1.619-1.623-2.561-2.264-3.784-2.598-6.278-7.139-6.305-11.894v-.055-.79s.24-1.077 1.142-.99c.477.092.834.494.858.99 0 1.309.067 2.626.392 3.892.281 1.093.724 2.139 1.296 3.109h6.625c.366-.638.678-1.308.931-2h-6.243c-.218-.006-.29-.033-.414-.09-.785-.356-.695-1.881.414-1.911h6.792c.136-.727.208-1.468.209-2.212v-.788c.007-.21.026-.245.058-.335.122-.343.442-.606.806-.656.131-.018.162-.009.205-.007.462.047.859.404.922.861.008.061.007.076.009.137 0 1.551-.103 3.111-.511 4.603-.788 2.885-2.503 5.5-4.816 7.4 3.23 2.669 5.302 6.824 5.327 11.156v.056.79s-.127.756-.673.945c-.539.186-1.2-.192-1.309-.756-.016-.083-.014-.105-.018-.189 0-1.329-.07-2.66-.404-3.938-.281-1.077-.718-2.107-1.282-3.064zm5.227-8.001h-3.757c.569.647 1.199 1.24 1.875 1.765.689-.52 1.319-1.114 1.882-1.765z" fill-rule="nonzero"/></svg>