<svg clip-rule="evenodd" fill-rule="evenodd" height="512" stroke-linejoin="round" stroke-miterlimit="2" viewBox="0 0 24 24" width="512" xmlns="http://www.w3.org/2000/svg"><g id="Icon"><path d="m13.581 5.97-3.34 2.733c-.785-.749-1.829-1.168-2.916-1.168-1.121 0-2.196.445-2.988 1.237-.477.477-.923.923-1.229 1.229-.249.249-.389.587-.389.94 0 .352.14.691.389.94 1.484 1.483 6.594 6.594 8.602 8.601.358.358.843.559 1.349.559s.992-.201 1.35-.559c.244-.244.526-.526.819-.819.792-.792 1.237-1.867 1.237-2.988 0-1.087-.419-2.131-1.168-2.916l2.733-3.34.233.233c.745.745 1.954.745 2.699 0 .385-.385.844-.844 1.229-1.229.745-.745.745-1.954 0-2.699l-4.915-4.915c-.745-.745-1.954-.745-2.699 0-.385.385-.844.844-1.229 1.229-.745.745-.745 1.954 0 2.699zm.182 8.373h-.001l.405.405c.511.511.798 1.204.798 1.927s-.287 1.416-.798 1.927l-.819.82c-.077.076-.181.119-.289.119s-.212-.043-.289-.119l-8.481-8.481 1.109-1.108c.511-.511 1.204-.798 1.927-.798s1.416.287 1.927.798l.405.405.01.01.005.005.005.004c.264.25.515.205.515.205.173 0 .341-.06.475-.169 0 0 2.839-2.324 4.01-3.282.291-.237.467-.587.486-.962s-.122-.741-.388-1.006l-.366-.367c-.16-.159-.16-.418 0-.578.385-.385.843-.843 1.228-1.228.16-.16.419-.16.578 0 0 0 4.915 4.915 4.915 4.915.16.159.16.418 0 .578l-1.228 1.228c-.16.16-.419.16-.578 0l-.367-.366c-.265-.266-.631-.407-1.006-.388s-.725.195-.963.486c-.957 1.171-3.281 4.01-3.281 4.01-.183.224-.221.534-.097.796.039.081.091.154.153.214z"/><path d="m7.614 15.326-6.144 6.144c-.293.292-.293.768 0 1.06.292.293.768.293 1.06 0l6.144-6.144c.293-.292.293-.768 0-1.06-.292-.293-.768-.293-1.06 0z"/></g></svg>