<svg xmlns="http://www.w3.org/2000/svg" viewBox="0 0 32 32"><title>vimeo, video, media</title><g id="vimeo_video_media" data-name="vimeo, video, media"><path d="M24,6a6.9955,6.9955,0,0,0-6.9863,5.8335A.92.92,0,0,0,18,13l2.3086.0044a11.2755,11.2755,0,0,1-2.0508,4.1367c-.7744.835-1.1308.8081-1.1318.8057-.0557-.02-.3-.2647-.4785-1.0884L15.04,9.5088a3.7319,3.7319,0,0,0-2.3779-2.835A3.67,3.67,0,0,0,9.1484,7.19l-5.7636,4.5a1,1,0,1,0,1.23,1.5761l5.7627-4.4985a1.6647,1.6647,0,0,1,1.5889-.2183A1.7542,1.7542,0,0,1,13.083,9.9209l1.6094,7.3628c.3183,1.4609.959,2.333,1.9053,2.5918.9794.2685,2.0322-.1948,3.1269-1.374a13.2332,13.2332,0,0,0,2.4815-4.793,2.2469,2.2469,0,0,0-.2881-1.9893A1.902,1.902,0,0,0,20.3643,11h-.9981A4.8119,4.8119,0,0,1,24,8a3.1293,3.1293,0,0,1,3,3c0,4.6963-7.415,11.5322-10.2451,13.749A2.6071,2.6071,0,0,1,14.41,25.09a2.147,2.147,0,0,1-1.4024-1.1411l-2.9512-9.3506a3.1787,3.1787,0,0,0-1.8378-2.0024,1,1,0,1,0-.7012,1.873,1.1819,1.1819,0,0,1,.6318.7329l2.959,9.3731a3.9994,3.9994,0,0,0,2.7021,2.4228,4.76,4.76,0,0,0,4.15-.6533C18.4111,25.9922,29,17.63,29,11A5.0846,5.0846,0,0,0,24,6Z"/></g></svg>