<svg clip-rule="evenodd" fill-rule="evenodd" height="512" stroke-linejoin="round" stroke-miterlimit="2" viewBox="0 0 24 24" width="512" xmlns="http://www.w3.org/2000/svg"><g id="Icon"><path d="m22.75 4c0-.464-.184-.909-.513-1.237-.328-.329-.773-.513-1.237-.513-3.414 0-14.586 0-18 0-.464 0-.909.184-1.237.513-.329.328-.513.773-.513 1.237v4c0 .464.184.909.513 1.237.328.329.773.513 1.237.513h18c.464 0 .909-.184 1.237-.513.329-.328.513-.773.513-1.237zm-1.5 0v4c0 .066-.026.13-.073.177s-.111.073-.177.073h-18c-.066 0-.13-.026-.177-.073s-.073-.111-.073-.177v-4c0-.066.026-.13.073-.177s.111-.073.177-.073h18c.066 0 .13.026.177.073s.073.111.073.177z"/><path d="m20.685 9.305c.103-.232.082-.501-.056-.714s-.375-.341-.629-.341h-16c-.254 0-.491.128-.629.341s-.159.482-.056.714l1.736 3.906c.281.632.907 1.039 1.599 1.039h10.7c.692 0 1.318-.407 1.599-1.039zm-1.839.445-1.267 2.852c-.041.09-.13.148-.229.148h-10.7c-.099 0-.188-.058-.229-.148 0 0-1.267-2.852-1.267-2.852z"/><circle cx="12" cy="6" r="1"/><path d="m11.25 9v1.5c0 .414.336.75.75.75s.75-.336.75-.75v-1.5c0-.414-.336-.75-.75-.75s-.75.336-.75.75z"/><path d="m7.25 9v1.5c0 .414.336.75.75.75s.75-.336.75-.75v-1.5c0-.414-.336-.75-.75-.75s-.75.336-.75.75z"/><path d="m15.25 9v1.5c0 .414.336.75.75.75s.75-.336.75-.75v-1.5c0-.414-.336-.75-.75-.75s-.75.336-.75.75z"/><path d="m8.206 17.088c2.094 2.094 5.494 2.094 7.588 0 .293-.292.293-.768 0-1.06-.293-.293-.768-.293-1.061 0-1.508 1.508-3.958 1.508-5.466 0-.293-.293-.768-.293-1.061 0-.293.292-.293.768 0 1.06z"/><path d="m5.813 19.189c3.415 3.415 8.959 3.415 12.374 0 .293-.293.293-.768 0-1.061s-.768-.293-1.06 0c-2.83 2.829-7.424 2.829-10.254 0-.292-.293-.767-.293-1.06 0s-.293.768 0 1.061z"/></g></svg>