<svg clip-rule="evenodd" fill-rule="evenodd" height="512" stroke-linejoin="round" stroke-miterlimit="2" viewBox="0 0 24 24" width="512" xmlns="http://www.w3.org/2000/svg"><g id="Icon"><path d="m12 1.25c-5.933 0-10.75 4.817-10.75 10.75s4.817 10.75 10.75 10.75 10.75-4.817 10.75-10.75-4.817-10.75-10.75-10.75zm0 1.5c5.105 0 9.25 4.145 9.25 9.25s-4.145 9.25-9.25 9.25-9.25-4.145-9.25-9.25 4.145-9.25 9.25-9.25z"/><path d="m12 3.75c-4.553 0-8.25 3.697-8.25 8.25s3.697 8.25 8.25 8.25 8.25-3.697 8.25-8.25-3.697-8.25-8.25-8.25zm0 1.5c3.725 0 6.75 3.025 6.75 6.75s-3.025 6.75-6.75 6.75-6.75-3.025-6.75-6.75 3.025-6.75 6.75-6.75z"/><path d="m8.271 12.074c.2-2.006 1.797-3.603 3.803-3.803.412-.041.713-.409.672-.821-.041-.411-.408-.713-.82-.672-2.715.271-4.877 2.433-5.148 5.148-.041.412.261.779.672.82.412.041.78-.26.821-.672z"/></g></svg>