<svg clip-rule="evenodd" fill-rule="evenodd" height="512" stroke-linejoin="round" stroke-miterlimit="2" viewBox="0 0 24 24" width="512" xmlns="http://www.w3.org/2000/svg"><g id="Icon"><path d="m15.75 5v-1.82c0-.514-.226-1.002-.619-1.335-.392-.332-.911-.475-1.419-.391 0 0-1.671.279-1.671.279-.027.004-.055.004-.082 0 0 0-1.671-.279-1.671-.279-.508-.084-1.027.059-1.419.391-.393.333-.619.821-.619 1.335v1.82c0 .414.336.75.75.75h6c.414 0 .75-.336.75-.75zm-1.5-1.82v1.07h-4.5v-1.07c0-.073.032-.143.088-.19.056-.048.131-.068.203-.056l1.671.278c.191.032.385.032.576 0l1.671-.278c.072-.012.147.008.203.056.056.047.088.117.088.19z"/><path d="m12 10.75c2.071 0 3.75-1.679 3.75-3.75 0-1.063 0-2 0-2 0-.414-.336-.75-.75-.75h-6c-.414 0-.75.336-.75.75v2c0 2.071 1.679 3.75 3.75 3.75zm0-1.5c-1.243 0-2.25-1.007-2.25-2.25v-1.25h4.5v1.25c0 1.243-1.007 2.25-2.25 2.25z"/><path d="m16 4.25h-8c-.414 0-.75.336-.75.75s.336.75.75.75h8c.414 0 .75-.336.75-.75s-.336-.75-.75-.75z"/><path d="m7.115 14.25-.855 5.127c-.036.217.025.44.168.608.142.168.352.265.572.265h10c.22 0 .43-.097.572-.265.143-.168.204-.391.168-.608l-.855-5.127h1.615c.414 0 .75-.336.75-.75v-3.5c0-.414-.336-.75-.75-.75h-13c-.414 0-.75.336-.75.75v3.5c0 .414.336.75.75.75zm1.625-.627c.036-.217-.025-.44-.168-.608-.142-.168-.352-.265-.572-.265h-1.75v-2h11.5v2h-1.75c-.22 0-.43.097-.572.265-.143.168-.204.391-.168.608l.855 5.127h-8.23s.855-5.127.855-5.127z"/><path d="m11.25 19.5v2.5c0 .414.336.75.75.75s.75-.336.75-.75v-2.5c0-.414-.336-.75-.75-.75s-.75.336-.75.75z"/><path d="m18.5 12.25h3c.414 0 .75-.336.75-.75s-.336-.75-.75-.75h-3c-.414 0-.75.336-.75.75s.336.75.75.75z"/><path d="m5.5 10.75h-3c-.414 0-.75.336-.75.75s.336.75.75.75h3c.414 0 .75-.336.75-.75s-.336-.75-.75-.75z"/><path d="m11.25 12.5v1c0 .414.336.75.75.75s.75-.336.75-.75v-1c0-.414-.336-.75-.75-.75s-.75.336-.75.75z"/><path d="m11.25 16v1c0 .414.336.75.75.75s.75-.336.75-.75v-1c0-.414-.336-.75-.75-.75s-.75.336-.75.75z"/></g></svg>