<svg clip-rule="evenodd" fill-rule="evenodd" height="512" stroke-linejoin="round" stroke-miterlimit="2" viewBox="0 0 24 24" width="512" xmlns="http://www.w3.org/2000/svg"><g id="Icon"><path d="m8.5 14.25c0 .414-.336.75-.75.75s-.75-.336-.75-.75v-3.002c0-.596.237-1.168.658-1.59.422-.421.994-.658 1.59-.658h.004c.596 0 1.168.237 1.59.658.421.422.658.994.658 1.59v3.002c0 .414-.336.75-.75.75s-.75-.336-.75-.75v-3.002c0-.198-.079-.389-.219-.529s-.331-.219-.529-.219h-.004c-.198 0-.389.079-.529.219s-.219.331-.219.529z"/><path d="m12.5 14.25v-4.5c0-.414.336-.75.75-.75h1.5c1.243 0 2.25 1.007 2.25 2.25v1.5c0 1.243-1.007 2.25-2.25 2.25h-1.5c-.414 0-.75-.336-.75-.75zm1.5-.75h.75c.414 0 .75-.336.75-.75v-1.5c0-.414-.336-.75-.75-.75h-.75z"/><path d="m10.75 11.5c.414 0 .75.336.75.75s-.336.75-.75.75h-3c-.414 0-.75-.336-.75-.75s.336-.75.75-.75z"/><path d="m20.75 2v2.5c0 .414-.336.75-.75.75h-16c-.414 0-.75-.336-.75-.75v-2.5c0-.414.336-.75.75-.75h16c.414 0 .75.336.75.75zm-1.5.75h-14.5v1h14.5z"/><path d="m20.75 19v3c0 .414-.336.75-.75.75h-16c-.414 0-.75-.336-.75-.75v-3c0-.414.336-.75.75-.75h16c.414 0 .75.336.75.75zm-1.5.75h-14.5v1.5h14.5z"/><path d="m19.75 4.5v14.5c0 .414-.336.75-.75.75h-14c-.414 0-.75-.336-.75-.75v-14.5c0-.414.336-.75.75-.75h14c.414 0 .75.336.75.75zm-1.5.75h-12.5v13h12.5z"/></g></svg>