<svg clip-rule="evenodd" fill-rule="evenodd" height="512" stroke-linejoin="round" stroke-miterlimit="2" viewBox="0 0 24 24" width="512" xmlns="http://www.w3.org/2000/svg"><g id="Icon"><path d="m16.133 21.649c-.104.008-.167.172-.167.351 0 .414.336.75.75.75 0 0 .366.053.628-.34.022-.033.144-.216.316-.475 1.181-1.77 1.806-3.983 1.806-5.731 0-2.026-1.95-4.401-4.373-4.453.004 0-1.43-.312-1.43-.312-.115-.025-.197-.127-.197-.245v-3.194c0-.597-.237-1.169-.659-1.591s-.994-.659-1.591-.659-1.169.237-1.591.659-.659.994-.659 1.591v5.574s-.3-.326-.3-.326c-.439-.479-1.054-.757-1.704-.771-.649-.014-1.276.238-1.735.697 0 .001-.001.001-.002.002-.914.914-.922 2.394-.018 3.319l2.479 2.535c.585.586.926.911 1.103 1.312.173.392.177.847.177 1.658 0 .414.336.75.75.75s.75-.336.75-.75c0-1.11-.067-1.726-.305-2.264-.233-.529-.641-.992-1.411-1.763 0 0-2.471-2.527-2.471-2.527-.329-.337-.326-.876.007-1.209l.002-.002c.17-.17.402-.264.642-.258.241.005.469.108.631.285.755.822 1.602 1.745 1.602 1.745.21.228.537.304.825.192s.478-.39.478-.699v-7.5c0-.199.079-.39.22-.53.14-.141.331-.22.53-.22s.39.079.53.22c.141.14.22.331.22.53v3.194c0 .823.573 1.535 1.378 1.71.664.145 1.508.329 1.508.329.053.011.106.017.16.017 1.632 0 2.954 1.595 2.954 2.954 0 1.496-.544 3.385-1.554 4.899-.172.259-.316.475-.316.475z"/><path d="m8.849 3.278c.645-.339 1.376-.528 2.151-.528s1.507.189 2.151.527c.366.193.82.052 1.013-.314.192-.367.051-.821-.315-1.013-.854-.449-1.822-.7-2.849-.7s-1.995.251-2.849.7c-.366.192-.507.646-.315 1.012.193.367.646.508 1.013.316z"/><path d="m9.849 5.034c.345-.182.736-.282 1.151-.282s.806.1 1.151.282c.366.192.82.051 1.013-.315.192-.367.051-.82-.315-1.013-.554-.291-1.183-.454-1.849-.454s-1.295.163-1.849.454c-.366.192-.507.646-.315 1.013.193.366.646.507 1.013.315z"/></g></svg>