<svg clip-rule="evenodd" fill-rule="evenodd" height="512" stroke-linejoin="round" stroke-miterlimit="2" viewBox="0 0 24 24" width="512" xmlns="http://www.w3.org/2000/svg"><g id="Icon"><path d="m7.726 3.27c-2.507.259-3.207 2.169-3.401 3.142-1.004.33-1.657.86-2.078 1.467-.721 1.039-.758 2.348-.56 3.445.124.685.333 1.278.479 1.638-.427.847-.495 1.583-.393 2.198.194 1.175 1.054 1.941 1.542 2.289.255 1.396.759 2.43 1.391 3.194 1.118 1.35 2.655 1.881 4.106 2.013 1.567.142 3.018-.188 3.627-.356 1.072.476 1.996.514 2.767.344 1.5-.33 2.433-1.493 2.791-2.025 6.323-2.318 4.429-8.508 3.832-10.073.52-1.024.568-1.887.402-2.592-.342-1.447-1.678-2.263-2.223-2.542-1.562-2.285-3.298-3.378-4.949-3.811-3.416-.895-6.535 1.1-7.333 1.669zm.319 1.479c.156-.01.305-.067.426-.165 0 0 2.935-2.389 6.208-1.532 1.411.37 2.867 1.357 4.196 3.362.085.129.207.228.351.284 0 0 1.279.475 1.545 1.601.115.488.015 1.087-.417 1.821-.126.212-.138.473-.034.697 0 0 3.033 6.409-3.061 8.473-.181.061-.332.19-.422.359 0 0-.651 1.244-1.953 1.53-.564.124-1.245.054-2.047-.349-.18-.09-.387-.105-.577-.04 0 0-1.573.529-3.313.372-1.086-.098-2.249-.466-3.085-1.476-.539-.65-.936-1.557-1.12-2.796-.036-.239-.184-.446-.398-.557 0 0-.935-.468-1.092-1.417-.069-.422.031-.929.391-1.53.131-.219.142-.489.03-.718 0 0-.346-.706-.51-1.612-.133-.736-.168-1.624.316-2.321.316-.455.856-.807 1.693-1.005.331-.078.567-.368.578-.707 0 0 .076-2.14 2.295-2.274z"/><path d="m15.894 17.258c.362-.988 1.092-1.915 2.403-2.591.368-.19.513-.643.323-1.011s-.642-.512-1.01-.323c-1.715.885-2.65 2.116-3.125 3.409-.142.388.057.819.446.962s.82-.057.963-.446z"/><path d="m7.135 12.889c-.107-.717-.104-1.552.381-2.205.32-.431.851-.764 1.656-.954.331-.078.567-.368.578-.707 0 0 .076-2.14 2.295-2.274.413-.025.729-.381.704-.794s-.381-.729-.794-.704c-2.693.163-3.43 2.159-3.63 3.161-.954.313-1.59.809-2.013 1.377-.735.988-.823 2.238-.66 3.322.062.41.444.692.853.631.41-.062.692-.444.63-.853z"/><path d="m14.25 10.523s.032-1.328 1.123-1.954c.359-.206.484-.665.277-1.024-.206-.359-.664-.483-1.023-.277-1.801 1.033-1.877 3.209-1.877 3.209-.012.414.313.76.727.773.414.012.76-.313.773-.727z"/><path d="m9.135 17.389c-.107-.717-.104-1.552.381-2.205.32-.431.851-.764 1.656-.954.403-.095.653-.5.558-.902-.095-.403-.5-.653-.902-.558-1.239.293-2.023.856-2.516 1.519-.735.988-.823 2.238-.66 3.322.062.41.444.692.853.631.41-.062.692-.444.63-.853z"/></g></svg>