<svg clip-rule="evenodd" fill-rule="evenodd" stroke-linejoin="round" stroke-miterlimit="2" viewBox="0 0 32 32" xmlns="http://www.w3.org/2000/svg" xmlns:serif="http://www.serif.com/"><path id="conversation-language-discussion" d="m0 0h32v32h-32z" fill="none"/><path d="m6.423 22.01c-.724-.622-1.243-1.486-1.378-2.446-.311-2.219 1.557-4.511 3.908-4.555.051-.001.051-.001.103 0 2.254.043 4.231 2.239 3.907 4.555-.133.951-.653 1.818-1.381 2.444.85.738 1.412 1.814 1.42 2.991v3.002c-.021.878-1.457 1.387-1.906.421-.041-.088-.069-.181-.082-.277-.007-.048-.01-.096-.011-.144 0-1.008.006-2.017 0-3.025-.025-1.283-1.499-2.338-2.754-1.825-.73.298-1.238 1.049-1.244 1.855v1.995l1.048.001c.846.062 1.355 1.449.373 1.905-.088.041-.181.069-.277.083-.048.006-.096.009-.144.01h-1.999c-.175-.004-.228-.021-.327-.055-.394-.136-.661-.459-.672-.944v-3.002c.007-1.148.559-2.239 1.416-2.989zm13.977-.013c-.717-.621-1.229-1.479-1.363-2.433-.311-2.219 1.556-4.511 3.907-4.555.052-.001.052-.001.103 0 2.255.043 4.232 2.239 3.908 4.555-.135.957-.66 1.83-1.396 2.456.858.747 1.427 1.834 1.434 3.023v2.958c-.004.175-.02.228-.055.326-.136.394-.458.661-.944.673h-1.999c-.878-.021-1.387-1.457-.421-1.906.088-.04.181-.068.277-.082.048-.007.096-.01.144-.011h1c0-.921.231-1.854-.17-2.772-.515-1.176-2.276-1.61-3.239-.67-.371.362-.586.871-.589 1.401v3.041c-.024.99-1.963 1.463-1.999 0v-3.048c.007-1.135.554-2.214 1.402-2.956zm2.57-4.99c-1.325.026-2.39 1.593-1.776 2.864.539 1.12 2.245 1.473 3.18.582.624-.595.796-1.611.391-2.377-.346-.655-1.006-1.074-1.795-1.069zm-13.992 0c-1.324.026-2.389 1.593-1.776 2.864.54 1.12 2.245 1.473 3.181.582.623-.595.795-1.611.391-2.377-.346-.655-1.006-1.074-1.796-1.069zm11.011-5.996h-7.987c-.581-.022-1.076-.565-.988-1.148.063-.42.418-.776.839-.84.066-.01.083-.008.149-.011 2.67 0 5.34.049 8.009 0 .514-.016.97-.465.986-.986.012-.675.012-1.351 0-2.027-.017-.515-.467-.968-.985-.984-3.34-.064-6.683-.064-10.023 0-.522.016-.981.469-.985 1.014v5.981c-.033.885-1.424 1.421-1.9.434-.059-.123-.089-.19-.099-.434v-5.988c.01-1.559 1.349-2.975 2.972-3.006 3.349-.021 6.698-.021 10.048 0 1.55.029 2.94 1.374 2.971 2.971.006 1.025.145 2.097-.164 2.994-.404 1.173-1.582 2.022-2.843 2.03z"/></svg>