<svg clip-rule="evenodd" fill-rule="evenodd" height="512" stroke-linejoin="round" stroke-miterlimit="2" viewBox="0 0 24 24" width="512" xmlns="http://www.w3.org/2000/svg"><g id="Icon"><path d="m22.75 5.75c0-2.071-1.679-3.75-3.75-3.75-3.776 0-10.224 0-14 0-2.071 0-3.75 1.679-3.75 3.75v10c0 2.071 1.679 3.75 3.75 3.75h14c2.071 0 3.75-1.679 3.75-3.75zm-1.5 0v10c0 1.243-1.007 2.25-2.25 2.25-3.776 0-10.224 0-14 0-1.243 0-2.25-1.007-2.25-2.25v-10c0-1.243 1.007-2.25 2.25-2.25h14c1.243 0 2.25 1.007 2.25 2.25z"/><path d="m14.818 7.5c-1.794 0-3.25 1.456-3.25 3.25s1.456 3.25 3.25 3.25 3.25-1.456 3.25-3.25-1.456-3.25-3.25-3.25zm0 1.5c.966 0 1.75.784 1.75 1.75s-.784 1.75-1.75 1.75-1.75-.784-1.75-1.75.784-1.75 1.75-1.75z"/><path d="m16.857 19.136 1.5 2.5c.213.355.674.47 1.029.257s.47-.674.257-1.029l-1.5-2.5c-.213-.355-.674-.47-1.029-.257s-.47.674-.257 1.029z"/><path d="m5.857 18.364-1.5 2.5c-.213.355-.098.816.257 1.029s.816.098 1.029-.257l1.5-2.5c.213-.355.098-.816-.257-1.029s-.816-.098-1.029.257z"/><path d="m13.581 8.452-1.415-1.414c-.292-.293-.768-.293-1.06 0-.293.292-.293.768 0 1.06l1.414 1.415c.293.292.768.292 1.061 0 .292-.293.292-.768 0-1.061z"/><path d="m12.52 11.987-1.414 1.415c-.293.292-.293.768 0 1.06.292.293.768.293 1.06 0l1.415-1.414c.292-.293.292-.768 0-1.061-.293-.292-.768-.292-1.061 0z"/><path d="m18.53 13.402-1.414-1.415c-.293-.292-.768-.292-1.061 0-.292.293-.292.768 0 1.061l1.415 1.414c.292.293.768.293 1.06 0 .293-.292.293-.768 0-1.06z"/><path d="m17.47 7.038-1.415 1.414c-.292.293-.292.768 0 1.061.293.292.768.292 1.061 0l1.414-1.415c.293-.292.293-.768 0-1.06-.292-.293-.768-.293-1.06 0z"/><path d="m6 8.5h2c.414 0 .75-.336.75-.75s-.336-.75-.75-.75h-2c-.414 0-.75.336-.75.75s.336.75.75.75z"/><path d="m6 11.5h2c.414 0 .75-.336.75-.75s-.336-.75-.75-.75h-2c-.414 0-.75.336-.75.75s.336.75.75.75z"/><path d="m6 14.5h2c.414 0 .75-.336.75-.75s-.336-.75-.75-.75h-2c-.414 0-.75.336-.75.75s.336.75.75.75z"/></g></svg>