<svg clip-rule="evenodd" fill-rule="evenodd" height="512" stroke-linejoin="round" stroke-miterlimit="2" viewBox="0 0 24 24" width="512" xmlns="http://www.w3.org/2000/svg"><g id="Icon"><path d="m22.75 5.75v10c0 2.071-1.679 3.75-3.75 3.75h-14c-2.071 0-3.75-1.679-3.75-3.75v-10c0-2.071 1.679-3.75 3.75-3.75h14c2.071 0 3.75 1.679 3.75 3.75zm-1.5 0c0-1.243-1.007-2.25-2.25-2.25h-14c-1.243 0-2.25 1.007-2.25 2.25v10c0 1.243 1.007 2.25 2.25 2.25h14c1.243 0 2.25-1.007 2.25-2.25z"/><path d="m15.318 8c1.518 0 2.75 1.232 2.75 2.75s-1.232 2.75-2.75 2.75-2.75-1.232-2.75-2.75 1.232-2.75 2.75-2.75zm0 1.5c-.69 0-1.25.56-1.25 1.25s.56 1.25 1.25 1.25 1.25-.56 1.25-1.25-.56-1.25-1.25-1.25z"/><path d="m16.804 19.029c-.154-.385.033-.822.417-.975.385-.154.822.033.975.417l1 2.5c.154.385-.033.822-.417.975-.385.154-.822-.033-.975-.417z"/><path d="m5.804 18.471c.153-.384.59-.571.975-.417.384.153.571.59.417.975l-1 2.5c-.153.384-.59.571-.975.417-.384-.153-.571-.59-.417-.975z"/><path d="m13.318 10c.414 0 .75.336.75.75s-.336.75-.75.75h-1.5c-.414 0-.75-.336-.75-.75s.336-.75.75-.75z"/><path d="m14.568 12.75c0-.414.336-.75.75-.75s.75.336.75.75v1.5c0 .414-.336.75-.75.75s-.75-.336-.75-.75z"/><path d="m18.818 10c.414 0 .75.336.75.75s-.336.75-.75.75h-1.5c-.414 0-.75-.336-.75-.75s.336-.75.75-.75z"/><path d="m14.568 7.25c0-.414.336-.75.75-.75s.75.336.75.75v1.5c0 .414-.336.75-.75.75s-.75-.336-.75-.75z"/><path d="m5 7h1.5v1.5h-1.5z"/><path d="m8 7h1.5v1.5h-1.5z"/><path d="m5 10h1.5v1.5h-1.5z"/><path d="m8 10h1.5v1.5h-1.5z"/><path d="m5 13h1.5v1.5h-1.5z"/><path d="m8 13h1.5v1.5h-1.5z"/></g></svg>