<svg clip-rule="evenodd" fill-rule="evenodd" height="512" stroke-linejoin="round" stroke-miterlimit="2" viewBox="0 0 24 24" width="512" xmlns="http://www.w3.org/2000/svg"><g id="Icon"><path d="m12.008 7.75c-1.38 0-2.5 1.12-2.5 2.5s1.12 2.5 2.5 2.5c1.379 0 2.5-1.12 2.5-2.5s-1.121-2.5-2.5-2.5zm0 1.5c.551 0 1 .448 1 1s-.449 1-1 1c-.552 0-1-.448-1-1s.448-1 1-1z"/><path d="m12.008 11.25c-2.113 0-3.868 1.545-4.21 3.564-.002.012-.004.024-.006.036-.043.355.069.712.307.98.237.268.579.421.937.42 1.3 0 4.652 0 5.953-.014.345 0 .682-.152.917-.416.234-.265.344-.617.302-.968-.001-.01-.003-.02-.004-.029-.325-2.024-2.081-3.573-4.196-3.573zm2.643 3.489c-1.347.01-3.96.011-5.302.011.338-1.153 1.4-2 2.659-2 1.253 0 2.312.841 2.643 1.989z"/><path d="m12.008 3.25c-4.83 0-8.75 3.921-8.75 8.75s3.92 8.75 8.75 8.75c4.829 0 8.75-3.921 8.75-8.75s-3.921-8.75-8.75-8.75zm0 1.5c4.001 0 7.25 3.249 7.25 7.25s-3.249 7.25-7.25 7.25c-4.002 0-7.25-3.249-7.25-7.25s3.248-7.25 7.25-7.25z"/><path d="m22 11.25h-3.985c-.414 0-.75.336-.75.75s.336.75.75.75h3.985c.414 0 .75-.336.75-.75s-.336-.75-.75-.75z"/><path d="m11.258 2v3.985c0 .414.336.75.75.75s.75-.336.75-.75v-3.985c0-.414-.336-.75-.75-.75s-.75.336-.75.75z"/><path d="m5.985 11.25h-3.985c-.414 0-.75.336-.75.75s.336.75.75.75h3.985c.414 0 .75-.336.75-.75s-.336-.75-.75-.75z"/><path d="m11.258 18.015v3.985c0 .414.336.75.75.75s.75-.336.75-.75v-3.985c0-.414-.336-.75-.75-.75s-.75.336-.75.75z"/></g></svg>