<svg clip-rule="evenodd" fill-rule="evenodd" height="512" stroke-linejoin="round" stroke-miterlimit="2" viewBox="0 0 24 24" width="512" xmlns="http://www.w3.org/2000/svg"><g id="Icon"><path d="m18 22.75c.968 0 1.75-.783 1.75-1.75v-18c0-.968-.782-1.75-1.75-1.75h-12c-.968 0-1.75.782-1.75 1.75v18c0 .967.782 1.75 1.75 1.75zm0-1.5h-12c-.138 0-.25-.112-.25-.25v-18c0-.139.112-.25.25-.25h12c.138 0 .25.111.25.25v18c0 .138-.112.25-.25.25z"/><path d="m16 22.75c.414 0 .75-.336.75-.75v-2c0-.968-.782-1.75-1.75-1.75h-6c-.968 0-1.75.782-1.75 1.75v2c0 .414.336.75.75.75zm-.75-1.5h-6.5v-1.25c0-.139.112-.25.25-.25h6c.138 0 .25.111.25.25z"/><path d="m15 13.75c.968 0 1.75-.783 1.75-1.75v-2c0-.968-.782-1.75-1.75-1.75h-6c-.968 0-1.75.782-1.75 1.75v2c0 .967.782 1.75 1.75 1.75zm0-1.5h-6c-.138 0-.25-.112-.25-.25v-2c0-.139.112-.25.25-.25h6c.138 0 .25.111.25.25v2c0 .138-.112.25-.25.25z"/></g></svg>