<svg clip-rule="evenodd" fill-rule="evenodd" stroke-linejoin="round" stroke-miterlimit="1.414" viewBox="0 0 32 32" xmlns="http://www.w3.org/2000/svg" xmlns:serif="http://www.serif.com/"><path id="truck-delivery-fast-packing" d="m0 0h32v32h-32z" fill="none"/><path d="m20.991 14.999v5.005c-.01.257-.043.326-.109.455-.283.555-1.136.717-1.6.253-.185-.185-.282-.443-.293-.708v-13.014h-15.016s-.513-.059-.761-.351c-.448-.524-.157-1.518.604-1.639.069-.011.087-.009.157-.012h16.017c.026.001.053.002.079.003.504.06.902.485.922.998v7.008h3.004c.02 0 .04.001.06.002.242.022.468.122.647.291l4.005 4.004c.181.193.285.443.293.708v6.007c-.006.193-.022.225-.049.309-.117.359-.45.636-.827.684-.055.007-.069.006-.125.008h-1.179c-.429 1.141-1.59 2.002-2.825 2.002-1.219 0-2.346-.866-2.794-2.002h-4.206c-.767-.017-1.294-1.058-.746-1.669.187-.209.462-.327.746-.333h4.171c.415-1.13 1.537-1.979 2.79-2.002.039-.001.039-.001.077 0 1.212.023 2.321.878 2.761 2.002h.204v-4.591l-3.418-3.418zm-11.803 10.011h-1.211c-.175-.004-.228-.021-.327-.055-.394-.137-.662-.46-.674-.946v-5.006h-1.001s-1.174-.325-.977-1.217c.097-.44.517-.774.977-.785h2.002c.016 0 .032.001.048.001.175.013.227.032.324.071.373.149.618.459.629.929v5.006h.175c.415-1.13 1.538-1.979 2.79-2.002.039-.001.039-.001.077 0 1.69.032 3.179 1.683 2.936 3.421-.199 1.417-1.536 2.585-2.974 2.585-1.219 0-2.346-.866-2.794-2.002zm2.78-2.002c-.766.014-1.312 1.104-.685 1.717.628.613 2.174-.099 1.579-1.192-.173-.319-.521-.528-.894-.525zm12.013 0c-.766.014-1.312 1.104-.685 1.717.628.613 2.174-.099 1.579-1.192-.173-.319-.521-.528-.894-.525zm-14.002-8.009h-4.004c-.887-.018-1.384-1.412-.46-1.89.141-.073.298-.109.46-.112h4.004c.014 0 .027 0 .04.001.875.052 1.319 1.425.42 1.889-.141.073-.298.109-.46.112zm2.003-4.004h-8.009c-.23-.007-.305-.037-.434-.1-.613-.295-.756-1.285-.145-1.718.122-.087.264-.145.411-.17.056-.01.112-.013.168-.015h8.009c.018.001.037.001.056.002.741.062 1.241 1.051.69 1.667-.188.21-.38.323-.746.334z" fill-rule="nonzero"/></svg>