<svg clip-rule="evenodd" fill-rule="evenodd" height="512" stroke-linejoin="round" stroke-miterlimit="2" viewBox="0 0 24 24" width="512" xmlns="http://www.w3.org/2000/svg"><g id="Icon"><path d="m19.439 1.784c-.001 0-.001 0-.001 0-.713-.711-1.867-.711-2.579 0l-.39.389c-.341.341-.533.806-.533 1.29 0 .084.014.168.042.248l1 2.852c.075.215.244.385.459.46l2.852 1c.079.028.163.042.248.042.485 0 .949-.193 1.29-.535l.389-.389c.711-.713.711-1.866 0-2.579zm-1.061 1.061 2.776 2.776c.127.127.127.334 0 .461 0 0-.388.388-.388.388-.038.038-.086.066-.138.082-.001 0-2.354-.825-2.354-.825s-.825-2.355-.825-2.355c.015-.053.043-.1.081-.139 0 0 .388-.388.388-.388.127-.126.333-.126.46 0z"/><path d="m9.868 15.998 1.237 1.237c.202.202.192.533-.024.721l-3.295 2.884c-.303.264-.69.41-1.091.41h-2.287c-.916 0-1.658-.742-1.658-1.658v-2.287c0-.401.146-.788.41-1.091l2.884-3.295c.188-.216.519-.226.721-.024 0 0 1.237 1.237 1.237 1.237.293.292.768.292 1.061 0 .292-.293.292-.768 0-1.061l-1.237-1.237c-.816-.816-2.152-.772-2.912.098.001 0-2.882 3.294-2.882 3.294-.505.576-.782 1.314-.782 2.079v2.287c0 1.745 1.413 3.158 3.158 3.158h2.287c.765 0 1.503-.277 2.079-.782 0 0 3.294-2.883 3.294-2.883.87-.759.914-2.095.098-2.911 0 0-1.237-1.237-1.237-1.237-.293-.292-.768-.292-1.061 0-.292.293-.292.768 0 1.061z"/><path d="m17.97 6.47-9.293 9.293c-.047.046-.111.073-.177.073s-.13-.027-.177-.073c0 0-.086-.086-.086-.086-.046-.047-.073-.111-.073-.177s.027-.13.073-.177l9.293-9.293c.293-.292.293-.768 0-1.06-.292-.293-.768-.293-1.06 0 0 0-7.013 7.012-9.293 9.293-.328.328-.513.773-.513 1.237s.185.909.513 1.237l.086.086c.328.328.773.513 1.237.513s.909-.185 1.237-.513c2.281-2.28 9.293-9.293 9.293-9.293.293-.292.293-.768 0-1.06-.292-.293-.768-.293-1.06 0z"/></g></svg>