<svg clip-rule="evenodd" fill-rule="evenodd" height="512" stroke-linejoin="round" stroke-miterlimit="2" viewBox="0 0 24 24" width="512" xmlns="http://www.w3.org/2000/svg"><g id="Icon"><g fill-rule="nonzero"><path d="m16 6.99c-.414 0-.75-.336-.75-.75s.336-.75.75-.75.75.336.75.75-.336.75-.75.75"/><path d="m5 12.5c-.414 0-.75-.336-.75-.75s.336-.75.75-.75.75.336.75.75-.336.75-.75.75"/><path d="m8 12.5c-.414 0-.75-.336-.75-.75s.336-.75.75-.75.75.336.75.75-.336.75-.75.75"/></g><path d="m17.59 4.65c.405.405.66.968.66 1.59 0 .623-.255 1.185-.66 1.59-.293.292-.293.768 0 1.06.292.293.768.293 1.06 0 .675-.675 1.1-1.612 1.1-2.65 0-1.037-.425-1.975-1.1-2.65-.292-.293-.768-.293-1.06 0-.293.292-.293.768 0 1.06z"/><path d="m19.712 2.533c.953.944 1.538 2.256 1.538 3.707s-.585 2.763-1.538 3.707c-.294.292-.296.767-.005 1.061.292.294.767.296 1.061.005 1.227-1.216 1.982-2.904 1.982-4.773s-.755-3.557-1.982-4.773c-.294-.291-.769-.289-1.061.005-.291.294-.289.769.005 1.061z"/><path d="m19.75 15.752v-.002c0-.53-.211-1.039-.586-1.414s-.884-.586-1.414-.586c-2.304 0-7.196 0-9.5 0-.53 0-1.039.211-1.414.586s-.586.884-.586 1.414v.002c0 .53.211 1.038.585 1.413.375.375.883.585 1.413.585h9.504c.53 0 1.038-.21 1.413-.585.374-.375.585-.883.585-1.413zm-1.5 0c0 .132-.052.259-.146.352-.093.094-.22.146-.352.146h-9.504c-.132 0-.259-.052-.352-.146-.094-.093-.146-.22-.146-.352v-.002c0-.133.053-.26.146-.354.094-.093.221-.146.354-.146h9.5c.133 0 .26.053.354.146.093.094.146.221.146.354z"/><path d="m8.75 6c0-1.242-1.008-2.25-2.25-2.25s-2.25 1.008-2.25 2.25 1.008 2.25 2.25 2.25 2.25-1.008 2.25-2.25zm-1.5 0c0 .414-.336.75-.75.75s-.75-.336-.75-.75.336-.75.75-.75.75.336.75.75z"/><path d="m5.75 7.5v1.893c0 .414.336.75.75.75s.75-.336.75-.75v-1.893c0-.414-.336-.75-.75-.75s-.75.336-.75.75z"/><path d="m11.75 14.5v-8.5c0-2.623-2.127-4.75-4.75-4.75-.332 0-.668 0-1 0-1.26 0-2.468.5-3.359 1.391s-1.391 2.099-1.391 3.359v12c0 1.26.5 2.468 1.391 3.359s2.099 1.391 3.359 1.391h1c2.623 0 4.75-2.127 4.75-4.75v-1c0-.414-.336-.75-.75-.75s-.75.336-.75.75v1c0 1.795-1.455 3.25-3.25 3.25h-1c-.862 0-1.689-.342-2.298-.952-.61-.609-.952-1.436-.952-2.298v-12c0-.862.342-1.689.952-2.298.609-.61 1.436-.952 2.298-.952h1c1.795 0 3.25 1.455 3.25 3.25v8.5c0 .414.336.75.75.75s.75-.336.75-.75z"/></g></svg>