<svg clip-rule="evenodd" fill-rule="evenodd" height="512" stroke-linejoin="round" stroke-miterlimit="2" viewBox="0 0 24 24" width="512" xmlns="http://www.w3.org/2000/svg"><g id="Icon"><path d="m12 1.25c-5.933 0-10.75 4.817-10.75 10.75s4.817 10.75 10.75 10.75 10.75-4.817 10.75-10.75-4.817-10.75-10.75-10.75zm0 1.5c5.105 0 9.25 4.145 9.25 9.25s-4.145 9.25-9.25 9.25-9.25-4.145-9.25-9.25 4.145-9.25 9.25-9.25z"/><path d="m17.226 10.492c.073-.367-.022-.749-.259-1.038-.238-.29-.593-.458-.968-.458h-7.902c-.224 0-.437.101-.58.274-.142.174-.199.403-.155.623 0 0 .557 2.787.84 4.202.164.819.883 1.408 1.718 1.408h4.868c.834 0 1.553-.589 1.717-1.408zm-1.531.004-.661 3.305c-.023.118-.127.202-.246.202h-4.868c-.12 0-.223-.084-.247-.202l-.661-3.305z"/><path d="m7.108 8.493.503 2.645c.077.406.47.674.877.597.406-.078.674-.471.597-.877 0 0-.376-1.975-.542-2.848-.112-.59-.628-1.017-1.228-1.017h-.815c-.414 0-.75.336-.75.75s.336.75.75.75z"/><circle cx="14.607" cy="16.506" r="1"/><circle cx="10.351" cy="16.506" r="1"/></g></svg>