<svg clip-rule="evenodd" fill-rule="evenodd" height="512" stroke-linejoin="round" stroke-miterlimit="2" viewBox="0 0 24 24" width="512" xmlns="http://www.w3.org/2000/svg"><g id="Icon"><path d="m8.387 18.779 2.721-.383c.272-.038.502-.223.598-.481 1.787-4.796 5.322-8.528 10.049-11.529.162-.103.279-.265.325-.452l.616-2.466c.327-1.307-.856-2.49-2.163-2.164l-2.467.616c-.189.047-.352.166-.455.33-5.002 8.005-11.485 10.03-11.485 10.03-.278.086-.481.324-.522.613l-.383 2.721c-.057.41.229.789.638.847.41.058.79-.228.848-.638l.32-2.273c1.616-.626 7.194-3.198 11.694-10.248 0 0 2.174-.543 2.174-.543.209-.052.398.137.346.345l-.544 2.178c-4.757 3.072-8.325 6.879-10.235 11.691 0-.001-2.285.321-2.285.321-.409.057-.695.437-.638.847.058.41.438.696.848.638z"/><path d="m3.307 21.149-.456-.455 2.249-2.249c.293-.292.293-.768 0-1.06-.293-.293-.768-.293-1.061 0l-2.421 2.421c-.491.491-.491 1.284 0 1.776 0 0 .801.8.801.8.491.492 1.284.492 1.776 0 0 0 2.421-2.421 2.421-2.421.292-.293.292-.768 0-1.061-.293-.292-.768-.292-1.061 0z"/><path d="m3.281 14.656 6.063 6.063c.293.293.768.293 1.061 0s.293-.768 0-1.061l-6.063-6.063c-.293-.292-.768-.292-1.061 0-.292.293-.292.768 0 1.061z"/></g></svg>