<svg clip-rule="evenodd" fill-rule="evenodd" height="512" stroke-linejoin="round" stroke-miterlimit="2" viewBox="0 0 24 24" width="512" xmlns="http://www.w3.org/2000/svg"><g id="Icon"><path d="m19.25 4c0-.729-.29-1.429-.805-1.945-.516-.515-1.216-.805-1.945-.805-2.444 0-6.556 0-9 0-.729 0-1.429.29-1.945.805-.515.516-.805 1.216-.805 1.945v16c0 .729.29 1.429.805 1.945.516.515 1.216.805 1.945.805h9c.729 0 1.429-.29 1.945-.805.515-.516.805-1.216.805-1.945zm-1.5 0v16c0 .332-.132.649-.366.884-.235.234-.552.366-.884.366-2.444 0-6.556 0-9 0-.332 0-.649-.132-.884-.366-.234-.235-.366-.552-.366-.884v-16c0-.332.132-.649.366-.884.235-.234.552-.366.884-.366h9c.332 0 .649.132.884.366.234.235.366.552.366.884z"/><path d="m7.304 2.279.622 1.557c.342.854 1.17 1.414 2.09 1.414h3.968c.92 0 1.748-.56 2.09-1.414l.622-1.557c.154-.385-.033-.822-.417-.975-.385-.154-.822.033-.975.417l-.623 1.558c-.114.284-.39.471-.697.471h-3.968c-.307 0-.583-.187-.697-.471 0 0-.623-1.558-.623-1.558-.153-.384-.59-.571-.975-.417-.384.153-.571.59-.417.975z"/><path d="m10 20.25h4c.414 0 .75-.336.75-.75s-.336-.75-.75-.75h-4c-.414 0-.75.336-.75.75s.336.75.75.75z"/></g></svg>