<svg clip-rule="evenodd" fill-rule="evenodd" height="512" stroke-linejoin="round" stroke-miterlimit="2" viewBox="0 0 24 24" width="512" xmlns="http://www.w3.org/2000/svg"><g id="Icon"><path d="m22.521 1.987c-.072-.245-.263-.436-.508-.508 0 0-4.296-1.286-7.828 2.247-1.727 1.726-3.508 4.561-3.646 6.181-.019.22.06.438.217.594l2.743 2.743c.156.157.374.236.594.217 1.62-.138 4.455-1.919 6.181-3.646 3.533-3.532 2.247-7.828 2.247-7.828zm-1.352.844c.162 1.01.312 3.657-1.955 5.924-1.37 1.37-3.51 2.853-4.922 3.161 0 0-2.208-2.208-2.208-2.208.308-1.412 1.791-3.552 3.161-4.922 2.267-2.267 4.914-2.117 5.924-1.955z"/><path d="m17.396 10.829-.146 1.923c-.032.425-.278.804-.654 1.006 0 0-.902.486-.902.486v-1.53c0-.414-.336-.75-.75-.75s-.75.336-.75.75v2.786c0 .264.138.509.365.644s.508.142.74.016c0 0 1.141-.614 2.009-1.081.825-.445 1.367-1.279 1.438-2.213l.146-1.924c.031-.413-.279-.773-.691-.805-.413-.031-.774.279-.805.692z"/><path d="m13.058 5.108-1.924.146c-.934.071-1.768.613-2.213 1.438-.467.868-1.081 2.009-1.081 2.009-.126.232-.119.513.016.74s.38.365.644.365h2.786c.414 0 .75-.336.75-.75s-.336-.75-.75-.75h-1.53s.486-.902.486-.902c.202-.376.581-.622 1.006-.654 0 0 1.923-.146 1.923-.146.413-.031.723-.392.692-.805-.032-.412-.392-.722-.805-.691z"/><path d="m9.684 11.47-1.486 1.485c-.292.293-.292.768 0 1.061.293.292.768.292 1.061 0l1.485-1.486c.293-.292.293-.768 0-1.06-.292-.293-.768-.293-1.06 0z"/><path d="m11.47 13.256-1.486 1.485c-.292.293-.292.768 0 1.061.293.292.768.292 1.061 0l1.485-1.486c.293-.292.293-.768 0-1.06-.292-.293-.768-.293-1.06 0z"/><path d="m7 10.25h-2c-.966 0-1.75.783-1.75 1.75v10c0 .414.336.75.75.75h16c.414 0 .75-.336.75-.75v-7.5c0-.414-.336-.75-.75-.75s-.75.336-.75.75v6.75h-14.5v-9.25c0-.138.112-.25.25-.25h2c.414 0 .75-.336.75-.75s-.336-.75-.75-.75z"/><path d="m22 21.25h-20c-.414 0-.75.336-.75.75s.336.75.75.75h20c.414 0 .75-.336.75-.75s-.336-.75-.75-.75z"/></g></svg>