<svg clip-rule="evenodd" fill-rule="evenodd" stroke-linejoin="round" stroke-miterlimit="2" viewBox="0 0 32 32" xmlns="http://www.w3.org/2000/svg" xmlns:serif="http://www.serif.com/"><path id="charge-charging-plug-energy-" d="m0 0h32v32h-32z" fill="none"/><path d="m20.034 7.008c1.54.029 2.929 1.339 2.959 2.96.034 5.353.034 10.706 0 16.06-.028 1.54-1.339 2.929-2.959 2.959-2.689.017-5.379.017-8.068 0-1.547-.028-2.93-1.365-2.959-2.959-.034-5.354-.034-10.707 0-16.06.028-1.546 1.365-2.93 2.959-2.96 2.689-.017 5.379-.017 8.068 0zm-8.027 1.998c-.522.003-.993.456-1.002.987-.033 5.34-.099 10.682 0 16.022.016.511.466.965.986.974 2.677.017 5.354.05 8.03 0 .511-.016.965-.466.974-.986.033-5.341.099-10.683 0-16.023-.016-.512-.469-.964-.986-.974-2.668-.017-5.335 0-8.002 0zm5.991 7.993c.001 0 .272.015.455.109.425.218.658.647.493 1.206l-1.998 5.994c-.26.699-.564.676-.928.683-.641.013-1.183-.588-.968-1.315l1.56-4.679h-2.61s-.401-.011-.676-.264c-.285-.262-.41-.584-.272-1.051l1.998-5.995c.153-.412.542-.688.996-.682.222.019.282.047.394.102.433.214.673.648.506 1.212l-1.56 4.68zm0-11.99h-3.996c-.886-.017-1.382-1.409-.459-1.886.141-.073.297-.108.459-.112 1.345 0 2.691-.026 4.036.001.866.052 1.314 1.423.419 1.886-.141.073-.297.108-.459.111z"/></svg>