<svg clip-rule="evenodd" fill-rule="evenodd" height="512" stroke-linejoin="round" stroke-miterlimit="2" viewBox="0 0 24 24" width="512" xmlns="http://www.w3.org/2000/svg"><g id="Icon"><circle cx="17.5" cy="5" r="1"/><circle cx="14" cy="5" r="1"/><path d="m6 5.75h3.5c.414 0 .75-.336.75-.75s-.336-.75-.75-.75h-3.5c-.414 0-.75.336-.75.75s.336.75.75.75z"/><path d="m2.75 8c0 .414.336.75.75.75h17c.414 0 .75-.336.75-.75v-4c0-1.519-1.231-2.75-2.75-2.75-3.271 0-9.729 0-13 0-1.519 0-2.75 1.231-2.75 2.75zm1.5-.75v-3.25c0-.69.56-1.25 1.25-1.25h13c.69 0 1.25.56 1.25 1.25v3.25z"/><path d="m6.75 8c0-.414-.336-.75-.75-.75h-2.5c-.414 0-.75.336-.75.75v14c0 .414.336.75.75.75h2.5c.414 0 .75-.336.75-.75zm-1.5.75v12.5h-1v-12.5z"/><path d="m21.25 8c0-.414-.336-.75-.75-.75h-2.5c-.414 0-.75.336-.75.75v14c0 .414.336.75.75.75h2.5c.414 0 .75-.336.75-.75zm-1.5.75v12.5h-1v-12.5z"/><path d="m2 22.75h20c.414 0 .75-.336.75-.75s-.336-.75-.75-.75h-20c-.414 0-.75.336-.75.75s.336.75.75.75z"/></g></svg>