<svg clip-rule="evenodd" fill-rule="evenodd" height="512" stroke-linejoin="round" stroke-miterlimit="2" viewBox="0 0 24 24" width="512" xmlns="http://www.w3.org/2000/svg"><g id="Icon"><path d="m6.5 12.5v-6c0-.69-.56-1.25-1.25-1.25-.555 0-1.445 0-2 0-.69 0-1.25.56-1.25 1.25v6c0 .69.56 1.25 1.25 1.25h2c.69 0 1.25-.56 1.25-1.25zm-3-5.75v5.5h1.5v-5.5z"/><path d="m16 6.25v-1.25c0-.414-.336-.75-.75-.75h-4.5c-.414 0-.75.336-.75.75v1.25h-4.25c-.414 0-.75.336-.75.75v5c0 .414.336.75.75.75h10.5c.066 0 .13.026.177.073s.073.111.073.177v1.5c0 .414.336.75.75.75h3.5c.414 0 .75-.336.75-.75v-4.5c0-.995-.395-1.948-1.098-2.652-.704-.703-1.657-1.098-2.652-1.098zm-1.5.75c0 .414.336.75.75.75h2.5c.597 0 1.169.237 1.591.659s.659.994.659 1.591v3.75h-2v-.75c0-.464-.184-.909-.513-1.237-.328-.329-.773-.513-1.237-.513h-9.75v-3.5h4.25c.414 0 .75-.336.75-.75v-1.25h3z"/><path d="m13.75 5v-3c0-.414-.336-.75-.75-.75s-.75.336-.75.75v3c0 .414.336.75.75.75s.75-.336.75-.75z"/><path d="m16 1.75h-6c-.414 0-.75.336-.75.75s.336.75.75.75h6c.414 0 .75-.336.75-.75s-.336-.75-.75-.75z"/><path d="m19.7 15.9c-.267-.2-.633-.2-.9 0 0 0-2.3 1.768-2.3 4.1 0 1.518 1.232 2.75 2.75 2.75s2.75-1.232 2.75-2.75c0-2.332-2.3-4.1-2.3-4.1zm-.45 1.59c.504.491 1.25 1.405 1.25 2.51 0 .69-.56 1.25-1.25 1.25s-1.25-.56-1.25-1.25c0-1.105.746-2.019 1.25-2.51z"/><path d="m16.75 15.25h4.5c.414 0 .75-.336.75-.75s-.336-.75-.75-.75h-4.5c-.414 0-.75.336-.75.75s.336.75.75.75z"/></g></svg>