<svg clip-rule="evenodd" fill-rule="evenodd" height="512" stroke-linejoin="round" stroke-miterlimit="2" viewBox="0 0 24 24" width="512" xmlns="http://www.w3.org/2000/svg"><g id="Icon"><path d="m21.75 6c0-.414-.336-.75-.75-.75h-9c-.414 0-.75.336-.75.75v16c0 .414.336.75.75.75h8c.966 0 1.75-.783 1.75-1.75zm-1.5.75v14.25c0 .138-.112.25-.25.25h-7.25v-14.5z"/><path d="m12.75 10c0-.26-.135-.501-.356-.638s-.497-.149-.729-.033l-7.448 3.724c-.593.296-.967.902-.967 1.565v6.382c0 .966.784 1.75 1.75 1.75h7c.414 0 .75-.336.75-.75zm-1.5 1.214v10.036h-6.25c-.138 0-.25-.112-.25-.25v-6.382c0-.095.053-.181.138-.224z"/><path d="m6.165 12.079-3.5 1.75c-.371.185-.521.636-.336 1.006.185.371.636.521 1.006.336l3.5-1.75c.371-.185.521-.636.336-1.006-.185-.371-.636-.521-1.006-.336z"/><path d="m14 6v10c0 .414.336.75.75.75s.75-.336.75-.75v-10c0-.414-.336-.75-.75-.75s-.75.336-.75.75z"/><path d="m17.5 6v10c0 .414.336.75.75.75s.75-.336.75-.75v-10c0-.414-.336-.75-.75-.75s-.75.336-.75.75z"/><path d="m14.75 10.25h3.5c.414 0 .75-.336.75-.75s-.336-.75-.75-.75h-3.5c-.414 0-.75.336-.75.75s.336.75.75.75z"/><path d="m14.75 14.25h3.5c.414 0 .75-.336.75-.75s-.336-.75-.75-.75h-3.5c-.414 0-.75.336-.75.75s.336.75.75.75z"/><path d="m7 14.75c-.414 0-.75.336-.75.75v3.5c0 .414.336.75.75.75h2.5c.414 0 .75-.336.75-.75v-3.5c0-.414-.336-.75-.75-.75zm.75 1.5h1v2h-1z"/><path d="m16.5 1.25c-2.921 0-5.25 2.154-5.25 4.75 0 .414.336.75.75.75h9c.414 0 .75-.336.75-.75 0-2.596-2.329-4.75-5.25-4.75zm0 1.5c1.756 0 3.259 1.052 3.651 2.5-.001 0-7.301 0-7.301 0 .391-1.448 1.894-2.5 3.65-2.5z"/></g></svg>