<svg clip-rule="evenodd" fill-rule="evenodd" height="512" stroke-linejoin="round" stroke-miterlimit="2" viewBox="0 0 24 24" width="512" xmlns="http://www.w3.org/2000/svg"><g id="Icon"><path d="m2.75 8v14c0 .414.336.75.75.75s.75-.336.75-.75v-14c0-.414-.336-.75-.75-.75s-.75.336-.75.75z"/><path d="m22 2.75h-14c-.414 0-.75.336-.75.75s.336.75.75.75h14c.414 0 .75-.336.75-.75s-.336-.75-.75-.75z"/><path d="m20.26 22.75c.665 0 1.304-.275 1.774-.77.457-.481.716-1.132.716-1.812v-10.836c0-.68-.259-1.331-.716-1.812-.47-.495-1.109-.77-1.774-.77-3.334 0-7.686 0-11.02 0-.665 0-1.304.275-1.774.77-.457.481-.716 1.132-.716 1.812v10.836c0 .68.259 1.331.716 1.812.47.495 1.109.77 1.774.77zm0-1.5h-11.02c-.258 0-.504-.111-.687-.303-.196-.206-.303-.487-.303-.779v-10.836c0-.292.107-.573.303-.779.183-.192.429-.303.687-.303h11.02c.258 0 .504.111.687.303.196.206.303.487.303.779v10.836c0 .292-.107.573-.303.779-.183.192-.429.303-.687.303z"/><path d="m18.607 7.5c0-.414-.336-.75-.75-.75h-6.214c-.414 0-.75.336-.75.75v3.773c0 .452.207.894.606 1.213.333.267.782.425 1.254.425h3.994c.472 0 .921-.158 1.254-.425.399-.319.606-.761.606-1.213 0-1.295 0-3.773 0-3.773zm-1.5.75v3.023c0 .02-.026.028-.043.042-.084.067-.199.096-.317.096h-3.994c-.118 0-.233-.029-.317-.096-.017-.014-.043-.022-.043-.042v-3.023z"/><path d="m5 21.25h-3c-.414 0-.75.336-.75.75s.336.75.75.75h3c.414 0 .75-.336.75-.75s-.336-.75-.75-.75z"/><path d="m8.75 5v-3c0-.414-.336-.75-.75-.75s-.75.336-.75.75v3c0 .414.336.75.75.75s.75-.336.75-.75z"/><path d="m5 7.25h-3c-.414 0-.75.336-.75.75s.336.75.75.75h3c.414 0 .75-.336.75-.75s-.336-.75-.75-.75z"/><path d="m22.75 5v-3c0-.414-.336-.75-.75-.75s-.75.336-.75.75v3c0 .414.336.75.75.75s.75-.336.75-.75z"/></g></svg>