<svg clip-rule="evenodd" fill-rule="evenodd" height="512" stroke-linejoin="round" stroke-miterlimit="2" viewBox="0 0 24 24" width="512" xmlns="http://www.w3.org/2000/svg"><g id="Icon"><path d="m2.237 15.212.671-.224c.406-.136.842-.152 1.258-.049l.498.125c.538.135 1.1.148 1.645.039l1.177-.235c.326-.066.663-.058.987.023l.617.155c.598.149 1.222.149 1.82 0l.544-.136c.359-.09.733-.09 1.092-.001l.544.137c.598.149 1.222.149 1.82 0l.544-.136c.359-.09.733-.09 1.092-.001l.544.137c.598.149 1.222.149 1.82 0l.544-.136c.359-.09.733-.09 1.092-.001 0 .001 1.272.319 1.272.319.402.1.809-.145.91-.546.1-.402-.145-.809-.546-.91l-1.272-.318c-.598-.149-1.222-.149-1.82 0l-.544.136c-.359.09-.733.09-1.092.001l-.544-.137c-.598-.149-1.222-.149-1.82 0l-.544.136c-.359.09-.733.09-1.092.001l-.544-.137c-.598-.149-1.222-.149-1.82 0l-.544.136c-.359.09-.733.09-1.092.001l-.618-.155c-.538-.135-1.1-.148-1.645-.039l-1.177.235c-.326.066-.663.058-.987-.023l-.498-.125c-.691-.173-1.418-.145-2.095.081 0 0-.671.223-.671.223-.393.131-.605.556-.475.949.131.393.556.605.949.475z"/><path d="m2.237 18.712.671-.224c.406-.136.842-.152 1.258-.049l.498.125c.538.135 1.1.148 1.645.039l1.177-.235c.326-.066.663-.058.987.023l.617.155c.598.149 1.222.149 1.82 0l.544-.136c.359-.09.733-.09 1.092-.001l.544.137c.598.149 1.222.149 1.82 0l.544-.136c.359-.09.733-.09 1.092-.001l.544.137c.598.149 1.222.149 1.82 0l.544-.136c.359-.09.733-.09 1.092-.001 0 .001 1.272.319 1.272.319.402.1.809-.145.91-.546.1-.402-.145-.809-.546-.91l-1.272-.318c-.598-.149-1.222-.149-1.82 0l-.544.136c-.359.09-.733.09-1.092.001l-.544-.137c-.598-.149-1.222-.149-1.82 0l-.544.136c-.359.09-.733.09-1.092.001l-.544-.137c-.598-.149-1.222-.149-1.82 0l-.544.136c-.359.09-.733.09-1.092.001l-.618-.155c-.538-.135-1.1-.148-1.645-.039l-1.177.235c-.326.066-.663.058-.987-.023l-.498-.125c-.691-.173-1.418-.145-2.095.081 0 0-.671.223-.671.223-.393.131-.605.556-.475.949.131.393.556.605.949.475z"/><path d="m2.237 22.212.671-.224c.406-.136.842-.152 1.258-.049l.498.125c.538.135 1.1.148 1.645.039l1.177-.235c.326-.066.663-.058.987.023l.617.155c.598.149 1.222.149 1.82 0l.544-.136c.359-.09.733-.09 1.092-.001l.544.137c.598.149 1.222.149 1.82 0l.544-.136c.359-.09.733-.09 1.092-.001l.544.137c.598.149 1.222.149 1.82 0l.544-.136c.359-.09.733-.09 1.092-.001 0 .001 1.272.319 1.272.319.402.1.809-.145.91-.546.1-.402-.145-.809-.546-.91l-1.272-.318c-.598-.149-1.222-.149-1.82 0l-.544.136c-.359.09-.733.09-1.092.001l-.544-.137c-.598-.149-1.222-.149-1.82 0l-.544.136c-.359.09-.733.09-1.092.001l-.544-.137c-.598-.149-1.222-.149-1.82 0l-.544.136c-.359.09-.733.09-1.092.001l-.618-.155c-.538-.135-1.1-.148-1.645-.039l-1.177.235c-.326.066-.663.058-.987-.023l-.498-.125c-.691-.173-1.418-.145-2.095.081 0 0-.671.223-.671.223-.393.131-.605.556-.475.949.131.393.556.605.949.475z"/><path d="m18 1.75c-2.07 0-3.75 1.68-3.75 3.75s1.68 3.75 3.75 3.75 3.75-1.68 3.75-3.75-1.68-3.75-3.75-3.75zm0 1.5c1.242 0 2.25 1.008 2.25 2.25s-1.008 2.25-2.25 2.25-2.25-1.008-2.25-2.25 1.008-2.25 2.25-2.25z"/><path d="m8.25 10.5c0 .015 0 .031.002.046.011.243.114.402.241.507.134.122.312.197.507.197 0 0 .75-.043.75-.75 0-.69.56-1.25 1.25-1.25.414 0 .75-.336.75-.75s-.336-.75-.75-.75c-1.519 0-2.75 1.231-2.75 2.75z"/><path d="m3.25 6c0 .015 0 .031.002.046.011.243.114.402.241.507.134.122.312.197.507.197 0 0 .75-.043.75-.75 0-.69.56-1.25 1.25-1.25.414 0 .75-.336.75-.75s-.336-.75-.75-.75c-1.519 0-2.75 1.231-2.75 2.75z"/><path d="m8.25 10.5c0 .015 0 .031.002.046.011.243.114.402.241.507.134.122.312.197.507.197 0 0 .75-.043.75-.75 0-1.519-1.231-2.75-2.75-2.75-.414 0-.75.336-.75.75s.336.75.75.75c.69 0 1.25.56 1.25 1.25z"/><path d="m3.25 6c0 .015 0 .031.002.046.011.243.114.402.241.507.134.122.312.197.507.197 0 0 .75-.043.75-.75 0-1.519-1.231-2.75-2.75-2.75-.414 0-.75.336-.75.75s.336.75.75.75c.69 0 1.25.56 1.25 1.25z"/><path d="m8 11.25h2c.414 0 .75-.336.75-.75s-.336-.75-.75-.75h-2c-.414 0-.75.336-.75.75s.336.75.75.75z"/><path d="m3 6.75h2c.414 0 .75-.336.75-.75s-.336-.75-.75-.75h-2c-.414 0-.75.336-.75.75s.336.75.75.75z"/></g></svg>