<svg clip-rule="evenodd" fill-rule="evenodd" height="512" stroke-linejoin="round" stroke-miterlimit="2" viewBox="0 0 24 24" width="512" xmlns="http://www.w3.org/2000/svg"><g id="Icon"><path d="m19 16.5v-9c0-.729-.29-1.429-.805-1.945-.516-.515-1.216-.805-1.945-.805h-9c-.729 0-1.429.29-1.945.805-.515.516-.805 1.216-.805 1.945v9c0 .729.29 1.429.805 1.945.516.515 1.216.805 1.945.805h9c.729 0 1.429-.29 1.945-.805.515-.516.805-1.216.805-1.945zm-1.5 0c0 .332-.132.649-.366.884-.235.234-.552.366-.884.366h-9c-.332 0-.649-.132-.884-.366-.234-.235-.366-.552-.366-.884v-9c0-.332.132-.649.366-.884.235-.234.552-.366.884-.366h9c.332 0 .649.132.884.366.234.235.366.552.366.884z"/><path d="m17.25 6.25c.248 0 .48-.123.62-.328.139-.205.169-.466.078-.696l-1.115-2.837c-.238-.609-1.045-1.139-2.032-1.139h-6.102c-.987 0-1.794.53-2.032 1.14 0-.001-1.115 2.836-1.115 2.836-.091.23-.061.491.078.696.14.205.372.328.62.328zm-1.101-1.5h-8.798l.713-1.814c.016-.041.072-.054.122-.079.143-.071.322-.107.513-.107h6.102c.191 0 .37.036.513.107.05.025.106.038.122.079z"/><path d="m6.25 17.75c-.248 0-.48.123-.62.328-.139.205-.169.466-.078.696l1.115 2.837c.238.609 1.045 1.139 2.032 1.139h6.102c.987 0 1.794-.53 2.032-1.14 0 .001 1.115-2.836 1.115-2.836.091-.23.061-.491-.078-.696-.14-.205-.372-.328-.62-.328zm1.101 1.5h8.798l-.713 1.814c-.016.041-.072.054-.122.079-.143.071-.322.107-.513.107h-6.102c-.191 0-.37-.036-.513-.107-.05-.025-.106-.038-.122-.079z"/><path d="m18 8v3c0 .414.336.75.75.75s.75-.336.75-.75v-3c0-.414-.336-.75-.75-.75s-.75.336-.75.75z"/><path d="m18 13.75v1.5c0 .414.336.75.75.75s.75-.336.75-.75v-1.5c0-.414-.336-.75-.75-.75s-.75.336-.75.75z"/></g></svg>