<svg clip-rule="evenodd" fill-rule="evenodd" height="512" stroke-linejoin="round" stroke-miterlimit="2" viewBox="0 0 24 24" width="512" xmlns="http://www.w3.org/2000/svg"><g id="Icon"><path d="m9.75 10.75h4c.968 0 1.75-.782 1.75-1.75s-.782-1.75-1.75-1.75h-4c-.968 0-1.75.782-1.75 1.75s.782 1.75 1.75 1.75zm0-1.5c-.138 0-.25-.112-.25-.25s.112-.25.25-.25h4c.138 0 .25.112.25.25s-.112.25-.25.25z"/><path d="m10.75 1.25c-.07 0-.139.01-.206.029l-3.5 1c-.322.092-.544.386-.544.721v3c0 .414.336.75.75.75.484 0 1.042.243 1.414.605.188.184.336.4.336.645 0 .414.336.75.75.75h4c.414 0 .75-.336.75-.75v-.981c0-.149.12-.269.269-.269h1.481c.414 0 .75-.336.75-.75v-4c0-.414-.336-.75-.75-.75zm.105 1.5h4.645v2.5h-.731c-.977 0-1.769.792-1.769 1.769v.231h-2.639c-.134-.354-.357-.682-.649-.967-.459-.449-1.086-.782-1.712-.937v-1.78z"/><path d="m19 3c0-.414-.336-.75-.75-.75h-2c-.414 0-.75.336-.75.75v2c0 .414.336.75.75.75h2c.414 0 .75-.336.75-.75zm-1.5.75v.5h-.5v-.5z"/><path d="m18.441 16.985c-.001-.019-.002-.039-.004-.058-.145-1.483-.689-2.916-1.637-4.161l-2.453-3.22c-.142-.187-.363-.296-.597-.296h-4c-.234 0-.455.109-.597.296l-2.453 3.22c-.948 1.245-1.492 2.678-1.637 4.161-.002.019-.003.039-.004.058l-.059 3.015c0 1.518 1.232 2.75 2.75 2.75h8c1.518 0 2.75-1.232 2.75-2.75zm-1.499.061.058 2.96c-.003.687-.562 1.244-1.25 1.244h-8c-.687 0-1.245-.555-1.25-1.241 0-.003.058-2.963.058-2.963.123-1.202.567-2.362 1.336-3.372 0 0 2.227-2.924 2.227-2.924h3.258s2.227 2.924 2.227 2.924c.766 1.007 1.211 2.164 1.335 3.362z"/><path d="m11.008 9.985s-.528 3.636.656 7.249c.129.393.553.608.946.479.394-.129.608-.553.479-.947-1.072-3.272-.597-6.566-.597-6.566.06-.409-.225-.79-.635-.849-.409-.06-.79.225-.849.634z"/></g></svg>