<svg clip-rule="evenodd" fill-rule="evenodd" height="512" stroke-linejoin="round" stroke-miterlimit="2" viewBox="0 0 24 24" width="512" xmlns="http://www.w3.org/2000/svg"><g id="Icon"><path d="m19.25 17.25v-2.5c0-.332-.132-.649-.366-.884-.235-.234-.553-.366-.884-.366h-.765c-.109 0-.206-.071-.238-.175l-2.062-6.597c-.228-.731-.905-1.228-1.67-1.228-.087 0-.176 0-.265 0-.464 0-.909.184-1.237.513-.329.328-.513.773-.513 1.237v8.5c0 1.519 1.231 2.75 2.75 2.75h4c.69 0 1.25-.56 1.25-1.25zm-1.5-2.25v2h-3.75c-.69 0-1.25-.56-1.25-1.25v-8.5c0-.066.026-.13.073-.177s.111-.073.177-.073h.265c.109 0 .206.071.238.175l2.062 6.597c.228.731.905 1.228 1.67 1.228z"/><path d="m4.75 14.75v2.5c0 .69.56 1.25 1.25 1.25h4c1.519 0 2.75-1.231 2.75-2.75v-8.5c0-.464-.184-.909-.513-1.237-.328-.329-.773-.513-1.237-.513-.089 0-.178 0-.265 0-.765 0-1.442.497-1.67 1.228l-2.062 6.597c-.032.104-.129.175-.238.175h-.765c-.331 0-.649.132-.884.366-.234.235-.366.552-.366.884zm1.5 2.25v-2h.515c.765 0 1.442-.497 1.67-1.228l2.062-6.597c.032-.104.129-.175.238-.175h.265c.066 0 .13.026.177.073s.073.111.073.177v8.5c0 .69-.56 1.25-1.25 1.25z"/><path d="m22.75 6c0-1.26-.5-2.468-1.391-3.359s-2.099-1.391-3.359-1.391h-12c-1.26 0-2.468.5-3.359 1.391s-1.391 2.099-1.391 3.359v12c0 1.26.5 2.468 1.391 3.359s2.099 1.391 3.359 1.391h12c1.26 0 2.468-.5 3.359-1.391s1.391-2.099 1.391-3.359zm-1.5 0v12c0 .862-.342 1.689-.952 2.298-.609.61-1.436.952-2.298.952h-12c-.862 0-1.689-.342-2.298-.952-.61-.609-.952-1.436-.952-2.298v-12c0-.862.342-1.689.952-2.298.609-.61 1.436-.952 2.298-.952h12c.862 0 1.689.342 2.298.952.61.609.952 1.436.952 2.298z"/></g></svg>