<svg clip-rule="evenodd" fill-rule="evenodd" height="512" stroke-linejoin="round" stroke-miterlimit="2" viewBox="0 0 24 24" width="512" xmlns="http://www.w3.org/2000/svg"><g id="Icon"><path d="m17.75 12c0-3.174-2.576-5.75-5.75-5.75s-5.75 2.576-5.75 5.75 2.576 5.75 5.75 5.75 5.75-2.576 5.75-5.75zm-1.5 0c0 2.346-1.904 4.25-4.25 4.25s-4.25-1.904-4.25-4.25 1.904-4.25 4.25-4.25 4.25 1.904 4.25 4.25z"/><path d="m11.25 2v2c0 .414.336.75.75.75s.75-.336.75-.75v-2c0-.414-.336-.75-.75-.75s-.75.336-.75.75z"/><path d="m6.35 3.715 1 1.732c.207.358.667.481 1.025.274s.481-.666.275-1.024l-1-1.732c-.207-.359-.667-.482-1.025-.275s-.481.666-.275 1.025z"/><path d="m2.965 7.65 1.732 1c.358.206.817.083 1.024-.275s.084-.818-.274-1.025l-1.732-1c-.359-.206-.818-.083-1.025.275s-.084.818.275 1.025z"/><path d="m2 12.75h2c.414 0 .75-.336.75-.75s-.336-.75-.75-.75h-2c-.414 0-.75.336-.75.75s.336.75.75.75z"/><path d="m3.715 17.65 1.732-1c.358-.207.481-.667.274-1.025s-.666-.481-1.024-.275l-1.732 1c-.359.207-.482.667-.275 1.025s.666.481 1.025.275z"/><path d="m7.65 21.035 1-1.732c.206-.358.083-.817-.275-1.024s-.818-.084-1.025.274l-1 1.732c-.206.359-.083.818.275 1.025s.818.084 1.025-.275z"/><path d="m12.75 22v-2c0-.414-.336-.75-.75-.75s-.75.336-.75.75v2c0 .414.336.75.75.75s.75-.336.75-.75z"/><path d="m17.65 20.285-1-1.732c-.207-.358-.667-.481-1.025-.274s-.481.666-.275 1.024l1 1.732c.207.359.667.482 1.025.275s.481-.666.275-1.025z"/><path d="m21.035 16.35-1.732-1c-.358-.206-.817-.083-1.024.275s-.084.818.274 1.025l1.732 1c.359.206.818.083 1.025-.275s.084-.818-.275-1.025z"/><path d="m22 11.25h-2c-.414 0-.75.336-.75.75s.336.75.75.75h2c.414 0 .75-.336.75-.75s-.336-.75-.75-.75z"/><path d="m20.285 6.35-1.732 1c-.358.207-.481.667-.274 1.025s.666.481 1.024.275l1.732-1c.359-.207.482-.667.275-1.025s-.666-.481-1.025-.275z"/><path d="m16.35 2.965-1 1.732c-.206.358-.083.817.275 1.024s.818.084 1.025-.274l1-1.732c.206-.359.083-.818-.275-1.025s-.818-.084-1.025.275z"/></g></svg>