<svg clip-rule="evenodd" fill-rule="evenodd" height="512" stroke-linejoin="round" stroke-miterlimit="2" viewBox="0 0 24 24" width="512" xmlns="http://www.w3.org/2000/svg"><g id="Icon"><path d="m12.75 11c0 .133-.053.26-.146.354-.094.093-.221.146-.354.146h-.524c-.206 0-.41-.051-.592-.149-.365-.197-.82-.06-1.016.304-.196.365-.06.82.305 1.016.4.216.848.329 1.303.329h.524c.53 0 1.039-.211 1.414-.586s.586-.884.586-1.414-.211-1.039-.586-1.414-.884-.586-1.414-.586h-.5c-.133 0-.26-.053-.354-.146-.093-.094-.146-.221-.146-.354s.053-.26.146-.354c.094-.093.221-.146.354-.146h.524c.206 0 .41.051.592.149.365.197.82.06 1.016-.304.196-.365.06-.82-.305-1.016-.4-.216-.848-.329-1.303-.329h-.524c-.53 0-1.039.211-1.414.586s-.586.884-.586 1.414.211 1.039.586 1.414.884.586 1.414.586h.5c.133 0 .26.053.354.146.093.094.146.221.146.354z"/><path d="m12.75 7.25v-1c0-.414-.336-.75-.75-.75s-.75.336-.75.75v1c0 .414.336.75.75.75s.75-.336.75-.75z"/><path d="m12.75 13.25v-1c0-.414-.336-.75-.75-.75s-.75.336-.75.75v1c0 .414.336.75.75.75s.75-.336.75-.75z"/><path d="m6 11.5h-2c-1.519 0-2.75 1.231-2.75 2.75v4.5c0 1.519 1.231 2.75 2.75 2.75h16c1.519 0 2.75-1.231 2.75-2.75v-4.5c0-1.519-1.231-2.75-2.75-2.75-1 0-2 0-2 0-.414 0-.75.336-.75.75s.336.75.75.75h2c.69 0 1.25.56 1.25 1.25v4.5c0 .69-.56 1.25-1.25 1.25h-16c-.69 0-1.25-.56-1.25-1.25v-4.5c0-.69.56-1.25 1.25-1.25h2c.414 0 .75-.336.75-.75s-.336-.75-.75-.75z"/><path d="m12 2.5c-4.001 0-7.25 3.249-7.25 7.25s3.249 7.25 7.25 7.25 7.25-3.249 7.25-7.25-3.249-7.25-7.25-7.25zm0 1.5c3.174 0 5.75 2.576 5.75 5.75s-2.576 5.75-5.75 5.75-5.75-2.576-5.75-5.75 2.576-5.75 5.75-5.75z"/><path d="m18.5 15.5h-13c-.414 0-.75.336-.75.75s.336.75.75.75h13c.414 0 .75-.336.75-.75s-.336-.75-.75-.75z"/></g></svg>