<svg clip-rule="evenodd" fill-rule="evenodd" height="512" stroke-linejoin="round" stroke-miterlimit="2" viewBox="0 0 24 24" width="512" xmlns="http://www.w3.org/2000/svg"><g id="Icon"><path d="m22.75 10.5c0 .414-.336.75-.75.75s-.75-.336-.75-.75v-5.25c0-.332-.132-.649-.366-.884-.235-.234-.552-.366-.884-.366h-16c-.332 0-.649.132-.884.366-.234.235-.366.552-.366.884v14c0 .332.132.649.366.884.235.234.552.366.884.366h6c.414 0 .75.336.75.75s-.336.75-.75.75h-6c-.729 0-1.429-.29-1.945-.805-.515-.516-.805-1.216-.805-1.945v-14c0-.729.29-1.429.805-1.945.516-.515 1.216-.805 1.945-.805h16c.729 0 1.429.29 1.945.805.515.516.805 1.216.805 1.945z"/><path d="m17.75 4.5c0 .414-.336.75-.75.75s-.75-.336-.75-.75v-2.5c0-.414.336-.75.75-.75s.75.336.75.75z"/><path d="m7.75 4.5c0 .414-.336.75-.75.75s-.75-.336-.75-.75v-2.5c0-.414.336-.75.75-.75s.75.336.75.75z"/><path d="m2 8.5c-.414 0-.75-.336-.75-.75s.336-.75.75-.75h20c.414 0 .75.336.75.75s-.336.75-.75.75z"/><path d="m17 11.25c3.174 0 5.75 2.576 5.75 5.75s-2.576 5.75-5.75 5.75-5.75-2.576-5.75-5.75 2.576-5.75 5.75-5.75zm0 1.5c-2.346 0-4.25 1.904-4.25 4.25s1.904 4.25 4.25 4.25 4.25-1.904 4.25-4.25-1.904-4.25-4.25-4.25z"/><path d="m16.25 14.5c0-.414.336-.75.75-.75s.75.336.75.75v1.75h1.75c.414 0 .75.336.75.75s-.336.75-.75.75h-2.5c-.414 0-.75-.336-.75-.75z"/></g></svg>