<svg clip-rule="evenodd" fill-rule="evenodd" height="512" stroke-linejoin="round" stroke-miterlimit="2" viewBox="0 0 24 24" width="512" xmlns="http://www.w3.org/2000/svg"><g id="Icon"><path d="m17.75 6.75c0-.966-.783-1.75-1.75-1.75h-8c-.967 0-1.75.784-1.75 1.75v5c0 .966.783 1.75 1.75 1.75h8c.967 0 1.75-.784 1.75-1.75zm-1.5 0v5c0 .138-.112.25-.25.25h-8c-.138 0-.25-.112-.25-.25v-5c0-.138.112-.25.25-.25h8c.138 0 .25.112.25.25z"/><path d="m15.75 4.25c0-.464-.184-.909-.513-1.237-.328-.329-.773-.513-1.237-.513-1.11 0-2.89 0-4 0-.464 0-.909.184-1.237.513-.329.328-.513.773-.513 1.237v1.5c0 .414.336.75.75.75h6c.414 0 .75-.336.75-.75zm-1.5 0v.75h-4.5v-.75c0-.066.026-.13.073-.177s.111-.073.177-.073h4c.066 0 .13.026.177.073s.073.111.073.177z"/><circle cx="18.25" cy="17.75" r=".75"/><circle cx="5.75" cy="17.75" r=".75"/><path d="m22.75 17.75c0-2.071-1.679-3.75-3.75-3.75-3.776 0-10.224 0-14 0-2.071 0-3.75 1.679-3.75 3.75s1.679 3.75 3.75 3.75h14c2.071 0 3.75-1.679 3.75-3.75zm-20 0c0-1.243 1.007-2.25 2.25-2.25h14c1.243 0 2.25 1.007 2.25 2.25v.009c0 1.234-1.007 2.241-2.25 2.241-3.776 0-10.224 0-14 0-1.243 0-2.25-1.007-2.25-2.25zm19.328.672c-.048.02-.078.043-.078.078z"/><path d="m19.97 8.28.969.97s-.969.97-.969.97c-.293.292-.293.768 0 1.06.292.293.768.293 1.06 0l1.5-1.5c.293-.293.293-.767 0-1.06l-1.5-1.5c-.292-.293-.768-.293-1.06 0-.293.292-.293.768 0 1.06z"/><path d="m2.97 7.22-1.5 1.5c-.293.293-.293.767 0 1.06l1.5 1.5c.292.293.768.293 1.06 0 .293-.292.293-.768 0-1.06l-.969-.97s.969-.97.969-.97c.293-.292.293-.768 0-1.06-.292-.293-.768-.293-1.06 0z"/></g></svg>