<svg clip-rule="evenodd" fill-rule="evenodd" height="512" stroke-linejoin="round" stroke-miterlimit="2" viewBox="0 0 24 24" width="512" xmlns="http://www.w3.org/2000/svg"><g id="Icon"><path d="m15.75 8c0-2.07-1.68-3.75-3.75-3.75s-3.75 1.68-3.75 3.75 1.68 3.75 3.75 3.75 3.75-1.68 3.75-3.75zm-1.5 0c0 1.242-1.008 2.25-2.25 2.25s-2.25-1.008-2.25-2.25 1.008-2.25 2.25-2.25 2.25 1.008 2.25 2.25z"/><path d="m12 12.25c-3.175 0-5.75 2.574-5.75 5.75v1c0 .414.336.75.75.75h10c.414 0 .75-.336.75-.75v-1c0-3.176-2.575-5.75-5.75-5.75zm0 1.5c2.347 0 4.25 1.902 4.25 4.25v.25h-8.5v-.25c0-2.348 1.903-4.25 4.25-4.25z"/><path d="m21.292 10.542c0-1.541-1.251-2.792-2.792-2.792s-2.791 1.251-2.791 2.792c0 1.54 1.25 2.791 2.791 2.791s2.792-1.251 2.792-2.791zm-1.5 0c0 .712-.579 1.291-1.292 1.291s-1.291-.579-1.291-1.291c0-.713.578-1.292 1.291-1.292s1.292.579 1.292 1.292z"/><path d="m15 19.75h7c.414 0 .75-.336.75-.75v-.88c0-2.344-1.906-4.24-4.25-4.24-.414 0-.75.336-.75.75s.336.75.75.75c1.516 0 2.75 1.224 2.75 2.74v.13h-6.25c-.414 0-.75.336-.75.75s.336.75.75.75z"/><path d="m8.292 10.542c0-1.541-1.251-2.792-2.792-2.792s-2.791 1.251-2.791 2.792c0 1.54 1.25 2.791 2.791 2.791s2.792-1.251 2.792-2.791zm-1.5 0c0 .712-.579 1.291-1.292 1.291s-1.291-.579-1.291-1.291c0-.713.578-1.292 1.291-1.292s1.292.579 1.292 1.292z"/><path d="m9 18.25h-6.25v-.13c0-1.516 1.234-2.74 2.75-2.74.414 0 .75-.336.75-.75s-.336-.75-.75-.75c-2.344 0-4.25 1.896-4.25 4.24v.88c0 .414.336.75.75.75h7c.414 0 .75-.336.75-.75s-.336-.75-.75-.75z"/></g></svg>