<svg clip-rule="evenodd" fill-rule="evenodd" height="512" stroke-linejoin="round" stroke-miterlimit="2" viewBox="0 0 24 24" width="512" xmlns="http://www.w3.org/2000/svg"><g id="Icon"><path d="m7.871 9.728c-.389-.142-.819.059-.961.448l-.249.685c-.267.732-.231 1.54.098 2.246s.925 1.252 1.657 1.518c0 0 .685.25.685.25.389.141.819-.059.961-.449l.249-.685c.267-.732.232-1.539-.098-2.245-.329-.706-.925-1.252-1.657-1.519 0 0-.685-.249-.685-.249zm.192 1.667c.349.132.633.396.791.735s.177.725.055 1.078c-.349-.133-.633-.396-.791-.735s-.177-.726-.055-1.078z"/><path d="m13.799 12.684c.142-.39-.059-.82-.448-.962l-.685-.249c-.732-.266-1.54-.231-2.246.098s-1.252.925-1.518 1.657c0 0-.249.685-.249.685-.142.389.059.82.448.962l.685.249c.732.266 1.539.231 2.245-.098s1.252-.925 1.519-1.657c0 0 .249-.685.249-.685zm-1.667.192c-.132.349-.396.632-.735.79-.338.158-.725.178-1.078.055.133-.349.396-.632.735-.79s.726-.178 1.078-.055z"/><path d="m12.063 8.286c-.175-.375-.621-.538-.997-.363l-.66.308c-.706.33-1.252.926-1.519 1.658-.266.732-.231 1.539.098 2.245 0 0 .308.661.308.661.175.375.622.538.997.363l.661-.309c.706-.329 1.252-.925 1.518-1.657.267-.732.231-1.539-.098-2.245 0 0-.308-.661-.308-.661zm-1.043 1.315c.153.34.168.727.04 1.078-.128.352-.388.639-.724.801-.153-.34-.167-.727-.039-1.078.128-.352.387-.639.723-.801z"/><path d="m8.894 13.25-.688 1.89c-.142.389.059.82.448.962.389.141.82-.06.961-.449l.689-1.89c.141-.389-.06-.82-.449-.961-.389-.142-.819.059-.961.448z"/><path d="m6.208 3.456-4.571 12.557c-.158.436-.137.917.059 1.338s.551.746.987.905c2.085.759 7.076 2.575 9.16 3.334.437.159.918.138 1.339-.058.42-.197.746-.552.904-.988.824-2.263 2.892-7.945 3.456-9.493.16-.442.137-.929-.066-1.353l-2.009-4.202c-.198-.413-.55-.732-.98-.889l-6.036-2.197c-.909-.331-1.913.138-2.243 1.046zm1.409.513c.047-.13.191-.197.321-.15 0 .001 6.036 2.197 6.036 2.197.061.023.112.068.14.128l2.009 4.201c.029.06.032.13.009.193l-3.455 9.493c-.023.062-.069.113-.129.141s-.129.031-.192.008l-9.16-3.334c-.062-.022-.113-.069-.141-.129s-.031-.129-.008-.191l4.57-12.557z"/><path d="m18.711 5.416-1.158.541c-.376.174-.538.621-.363.996s.621.538.996.363l1.159-.54c.375-.175.537-.622.363-.997-.175-.375-.622-.538-.997-.363z"/><path d="m15.994 3.633.54 1.158c.175.375.622.538.997.363s.538-.622.363-.997l-.541-1.158c-.174-.375-.621-.538-.996-.363s-.538.622-.363.997z"/><path d="m18.269 9.503.849.309c.389.142.82-.059.961-.448.142-.389-.059-.82-.448-.961l-.849-.309c-.389-.142-.82.059-.962.448-.141.389.06.82.449.961z"/><path d="m20.78 6.337.54 1.158c.175.375.622.538.997.363s.538-.622.363-.997l-.54-1.158c-.175-.375-.622-.538-.997-.363s-.538.621-.363.997z"/></g></svg>