<svg clip-rule="evenodd" fill-rule="evenodd" stroke-linejoin="round" stroke-miterlimit="1.414" viewBox="0 0 32 32" xmlns="http://www.w3.org/2000/svg" xmlns:serif="http://www.serif.com/"><path id="truck-courier-delivery-" d="m0 0h32v32h-32z" fill="none"/><path d="m19.003 15.009v5.004c-.012.27-.049.343-.121.477-.286.529-1.093.687-1.558.26-.203-.187-.312-.459-.323-.737v-13.011c-3.007 0-6.014-.019-9.021 0-.525.01-.984.464-.988 1.004v15.01h.215c.263-.736.791-1.381 1.518-1.721.385-.179.808-.273 1.231-.281h.077c1.384.027 2.672 1.098 2.917 2.472.24 1.338-.556 2.794-1.82 3.311-1.396.571-3.179-.105-3.841-1.478-.047-.098-.088-.199-.123-.301h-1.175c-.534-.023-.978-.461-1.001-1.001v-16.018c.01-1.567 1.351-2.989 3-2.999h10.012c.027.001.055.002.082.003.502.063.898.488.919.998v7.006h3.002c.02.001.041.001.061.002.242.022.468.123.647.291l4.004 4.004c.181.192.285.442.293.707v6.006c-.006.193-.022.225-.049.309-.117.359-.45.636-.827.684-.055.007-.069.006-.125.008h-1.197c-.291.784-.892 1.46-1.672 1.779-1.395.571-3.179-.105-3.841-1.478-.047-.098-.088-.199-.123-.301h-4.169c-.757-.017-1.313-1.036-.746-1.669.187-.209.462-.327.746-.333h4.211c.263-.736.79-1.381 1.518-1.721.385-.179.808-.273 1.231-.281h.077c1.221.024 2.367.86 2.789 2.002h.175v-4.59l-3.417-3.417zm-9.021 8.007c-.767.015-1.313 1.104-.686 1.717.515.502 1.579.214 1.69-.575.079-.567-.375-1.146-1.004-1.142zm12.01 0c-.766.015-1.313 1.104-.686 1.717.515.502 1.58.214 1.69-.575.08-.567-.374-1.146-1.004-1.142z" fill-rule="nonzero"/></svg>