<svg clip-rule="evenodd" fill-rule="evenodd" height="512" stroke-linejoin="round" stroke-miterlimit="2" viewBox="0 0 24 24" width="512" xmlns="http://www.w3.org/2000/svg"><g id="Icon"><path d="m22.414 2.094c-.072-.245-.263-.436-.508-.508 0 0-6.388-1.901-11.644 3.354-2.59 2.59-5.285 6.829-5.492 9.259-.019.22.06.438.217.594l4.22 4.22c.156.157.374.236.594.217 2.43-.207 6.669-2.902 9.259-5.492 5.255-5.256 3.354-11.644 3.354-11.644zm-1.344.837c.267 1.372.774 5.901-3.071 9.746-2.229 2.23-5.76 4.625-7.992 5.015 0 0-3.699-3.699-3.699-3.699.391-2.232 2.785-5.763 5.015-7.992 3.845-3.845 8.375-3.338 9.746-3.071z"/><path d="m18.005 5.995c-1.263-1.263-3.315-1.263-4.578 0s-1.263 3.315 0 4.578 3.315 1.263 4.578 0 1.263-3.315 0-4.578zm-1.061 1.061c.678.678.678 1.778 0 2.456s-1.778.678-2.456 0-.678-1.778 0-2.456 1.778-.678 2.456 0z"/><path d="m13.805 16.27-6.075-6.075c-.292-.292-.768-.292-1.06 0-.293.293-.293.768 0 1.061l6.074 6.074c.293.293.768.293 1.061 0 .292-.292.292-.768 0-1.06z"/><path d="m15.321 15.602s-.151 1.653-.255 2.798c-.038.418-.283.788-.652.987l-2.52 1.357v-2.261c0-.414-.336-.75-.75-.75s-.75.336-.75.75v3.517c0 .264.139.509.365.644.227.135.508.142.741.016 0 0 2.286-1.231 3.625-1.952.813-.437 1.352-1.253 1.435-2.172.104-1.145.255-2.799.255-2.799.037-.412-.267-.777-.679-.814-.413-.038-.778.266-.815.679z"/><path d="m8.263 7.185s-1.654.151-2.799.255c-.919.083-1.735.622-2.172 1.435-.721 1.339-1.952 3.625-1.952 3.625-.126.233-.119.514.016.741.135.226.38.365.644.365h3.517c.414 0 .75-.336.75-.75s-.336-.75-.75-.75h-2.261l1.357-2.52c.199-.369.569-.614.987-.652 1.145-.104 2.798-.255 2.798-.255.413-.037.717-.402.679-.815-.037-.412-.402-.716-.814-.679z"/><path d="m3.411 16.011-1.59 1.59c-.292.293-.292.768 0 1.061.293.292.768.292 1.061 0l1.59-1.59c.293-.293.293-.768 0-1.061s-.768-.293-1.061 0z"/><path d="m5.17 17.77-2.997 2.996c-.293.293-.293.768 0 1.061s.768.293 1.061 0l2.996-2.997c.293-.292.293-.768 0-1.06-.292-.293-.768-.293-1.06 0z"/><path d="m6.928 19.528-1.59 1.59c-.292.293-.292.768 0 1.061.293.292.768.292 1.061 0l1.59-1.59c.293-.293.293-.768 0-1.061s-.768-.293-1.061 0z"/></g></svg>