<svg clip-rule="evenodd" fill-rule="evenodd" height="512" stroke-linejoin="round" stroke-miterlimit="2" viewBox="0 0 24 24" width="512" xmlns="http://www.w3.org/2000/svg"><g id="Icon"><path d="m2.75 7v-3c0-.332.132-.649.366-.884.235-.234.552-.366.884-.366h3c.414 0 .75-.336.75-.75s-.336-.75-.75-.75h-3c-.729 0-1.429.29-1.945.805-.515.516-.805 1.216-.805 1.945v3c0 .414.336.75.75.75s.75-.336.75-.75z"/><path d="m1.25 17v3c0 .729.29 1.429.805 1.945.516.515 1.216.805 1.945.805h3c.414 0 .75-.336.75-.75s-.336-.75-.75-.75h-3c-.332 0-.649-.132-.884-.366-.234-.235-.366-.552-.366-.884v-3c0-.414-.336-.75-.75-.75s-.75.336-.75.75z"/><path d="m22.75 7v-3c0-.729-.29-1.429-.805-1.945-.516-.515-1.216-.805-1.945-.805-1.392 0-3 0-3 0-.414 0-.75.336-.75.75s.336.75.75.75h3c.332 0 .649.132.884.366.234.235.366.552.366.884v3c0 .414.336.75.75.75s.75-.336.75-.75z"/><path d="m21.25 17v3c0 .332-.132.649-.366.884-.235.234-.552.366-.884.366h-3c-.414 0-.75.336-.75.75s.336.75.75.75h3c.729 0 1.429-.29 1.945-.805.515-.516.805-1.216.805-1.945 0-1.392 0-3 0-3 0-.414-.336-.75-.75-.75s-.75.336-.75.75z"/><path d="m17.25 13.5v2.5c0 .332-.132.649-.366.884-.235.234-.552.366-.884.366h-2c-.414 0-.75.336-.75.75s.336.75.75.75h2c.729 0 1.429-.29 1.945-.805.515-.516.805-1.216.805-1.945v-2.5c0-.414-.336-.75-.75-.75s-.75.336-.75.75z"/><path d="m18.75 10.5v-2.5c0-.729-.29-1.429-.805-1.945-.516-.515-1.216-.805-1.945-.805h-2c-.414 0-.75.336-.75.75s.336.75.75.75h2c.332 0 .649.132.884.366.234.235.366.552.366.884v2.5c0 .414.336.75.75.75s.75-.336.75-.75z"/><path d="m5.25 13.5v2.5c0 .729.29 1.429.805 1.945.516.515 1.216.805 1.945.805h2c.414 0 .75-.336.75-.75s-.336-.75-.75-.75h-2c-.332 0-.649-.132-.884-.366-.234-.235-.366-.552-.366-.884v-2.5c0-.414-.336-.75-.75-.75s-.75.336-.75.75z"/><path d="m6.75 10.5v-2.5c0-.332.132-.649.366-.884.235-.234.552-.366.884-.366h2c.414 0 .75-.336.75-.75s-.336-.75-.75-.75h-2c-.729 0-1.429.29-1.945.805-.515.516-.805 1.216-.805 1.945v2.5c0 .414.336.75.75.75s.75-.336.75-.75z"/><path d="m20 12.75h-16c-.414 0-.75.336-.75.75s.336.75.75.75h16c.414 0 .75-.336.75-.75s-.336-.75-.75-.75z"/></g></svg>