<svg clip-rule="evenodd" fill-rule="evenodd" height="512" stroke-linejoin="round" stroke-miterlimit="2" viewBox="0 0 24 24" width="512" xmlns="http://www.w3.org/2000/svg"><g id="Icon"><path d="m13.584 12.517c-.047.047-.073.11-.073.177v1.253c0 .464-.184.909-.512 1.237l-1.082 1.081c-.328.329-.773.513-1.237.513s-.909-.184-1.238-.513l-3.442-3.442c-.328-.328-.512-.773-.512-1.237s.184-.909.512-1.238l1.082-1.081c.328-.328.773-.512 1.237-.512h1.253c.066-.001.13-.027.177-.074l4.55-4.55c.683-.683 1.791-.683 2.475 0l1.36 1.361c.684.683.684 1.791 0 2.475zm-1.06-1.061 4.55-4.55c.097-.097.097-.256 0-.353l-1.361-1.361c-.098-.098-.256-.098-.354 0l-4.55 4.55c-.328.328-.773.513-1.237.513h-1.253c-.066 0-.13.026-.177.073l-1.081 1.081c-.047.047-.073.111-.073.177s.026.13.073.177l3.442 3.442c.047.047.111.073.177.073s.13-.026.177-.073l1.081-1.082c.047-.047.073-.11.073-.176v-1.253c0-.464.184-.909.513-1.238z"/><path d="m4.946 18.707-1.387-1.388c-.293-.293-.293-.767 0-1.06l3.469-3.469c.292-.293.767-.293 1.06 0l1.388 1.387c.293.293.293.768 0 1.061l-3.469 3.469c-.293.293-.768.293-1.061 0zm.531-1.591 2.408-2.408s-.327-.327-.327-.327l-2.408 2.408z"/><path d="m4.253 16.952c.292-.292.767-.292 1.06 0 .293.293.293.768 0 1.061l-2.775 2.775c-.293.293-.768.293-1.061 0-.292-.293-.292-.768 0-1.061z"/><path d="m4.946 18.707c-.292-.293-.292-.768 0-1.061.293-.293.768-.293 1.061 0l.694.694c.292.293.292.768 0 1.061-.293.292-.768.292-1.061 0z"/><path d="m2.865 16.626c-.293-.293-.293-.768 0-1.061s.768-.293 1.061 0l.693.694c.293.292.293.768 0 1.06-.292.293-.768.293-1.06 0z"/><path d="m17.454 5.872c-.293.293-.768.293-1.061 0-.292-.292-.292-.768 0-1.06l1.014-1.014c1.074-1.074 2.815-1.074 3.889 0l.641.64c1.074 1.074 1.074 2.815 0 3.889l-2.749 2.748c-.292.293-.768.293-1.06 0-.293-.292-.293-.767 0-1.06l2.748-2.749c.488-.488.488-1.279 0-1.767l-.64-.641c-.488-.488-1.28-.488-1.768 0z"/></g></svg>