<svg clip-rule="evenodd" fill-rule="evenodd" height="512" stroke-linejoin="round" stroke-miterlimit="2" viewBox="0 0 24 24" width="512" xmlns="http://www.w3.org/2000/svg"><g id="Icon"><g fill-rule="nonzero"><path d="m16 7.51c-.414 0-.75-.336-.75-.75s.336-.75.75-.75.75.336.75.75-.336.75-.75.75"/><path d="m5.75 6.25c-.414 0-.75-.336-.75-.75s.336-.75.75-.75.75.336.75.75-.336.75-.75.75"/><path d="m9.25 6.25c-.414 0-.75-.336-.75-.75s.336-.75.75-.75.75.336.75.75-.336.75-.75.75"/></g><path d="m17.59 5.17c.405.405.66.968.66 1.59 0 .623-.255 1.185-.66 1.59-.293.292-.293.768 0 1.06.292.293.768.293 1.06 0 .675-.675 1.1-1.612 1.1-2.65 0-1.037-.425-1.975-1.1-2.65-.292-.293-.768-.293-1.06 0-.293.292-.293.768 0 1.06z"/><path d="m19.712 3.053c.953.944 1.538 2.256 1.538 3.707s-.585 2.763-1.538 3.707c-.294.292-.296.767-.005 1.061.292.294.767.296 1.061.005 1.227-1.216 1.982-2.904 1.982-4.773s-.755-3.557-1.982-4.773c-.294-.291-.769-.289-1.061.005-.291.294-.289.769.005 1.061z"/><path d="m8.25 17.25c0 .414-.336.75-.75.75s-.75-.336-.75-.75.336-.75.75-.75.75.336.75.75" fill-rule="nonzero"/><path d="m13.75 5.5c0-.878-.479-1.715-1.364-2.373-1.104-.821-2.878-1.377-4.886-1.377s-3.782.556-4.886 1.377c-.885.658-1.364 1.495-1.364 2.373s.479 1.715 1.364 2.373c1.104.821 2.878 1.377 4.886 1.377s3.782-.556 4.886-1.377c.885-.658 1.364-1.495 1.364-2.373zm-1.5 0c0 .447-.309.834-.759 1.17-.899.668-2.356 1.08-3.991 1.08s-3.092-.412-3.991-1.08c-.45-.336-.759-.723-.759-1.17s.309-.834.759-1.17c.899-.668 2.356-1.08 3.991-1.08s3.092.412 3.991 1.08c.45.336.759.723.759 1.17z"/><path d="m1.25 9.5c0 .878.479 1.715 1.364 2.373 1.104.821 2.878 1.377 4.886 1.377s3.782-.556 4.886-1.377c.885-.658 1.364-1.495 1.364-2.373 0-.414-.336-.75-.75-.75s-.75.336-.75.75c0 .447-.309.834-.759 1.17-.899.668-2.356 1.08-3.991 1.08s-3.092-.412-3.991-1.08c-.45-.336-.759-.723-.759-1.17 0-.414-.336-.75-.75-.75s-.75.336-.75.75z"/><path d="m1.25 5.5v12.769c-.001 1.768 1.233 3.296 2.962 3.667.007.002.015.004.023.005 2.186.399 4.362.404 6.539-.037.003-.001.007-.002.01-.002 1.706-.369 2.923-1.878 2.923-3.624.043-4.171.043-12.778.043-12.778 0-.414-.336-.75-.75-.75s-.75.336-.75.75c0 0 0 8.597-.043 12.77v.008c0 1.038-.723 1.935-1.736 2.157-1.979.4-3.958.394-5.945.034-1.041-.228-1.776-1.143-1.776-2.2v-12.769c0-.414-.336-.75-.75-.75s-.75.336-.75.75z"/></g></svg>