<svg clip-rule="evenodd" fill-rule="evenodd" height="512" stroke-linejoin="round" stroke-miterlimit="2" viewBox="0 0 24 24" width="512" xmlns="http://www.w3.org/2000/svg"><g id="Icon"><path d="m17.5 10.5v-6.5c0-1.519-1.231-2.75-2.75-2.75-2.444 0-6.556 0-9 0-.729 0-1.429.29-1.945.805-.515.516-.805 1.216-.805 1.945v16c0 .729.29 1.429.805 1.945.516.515 1.216.805 1.945.805h7c.414 0 .75-.336.75-.75s-.336-.75-.75-.75c0 0-4.348 0-7 0-.332 0-.649-.132-.884-.366-.234-.235-.366-.552-.366-.884v-16c0-.332.132-.649.366-.884.235-.234.552-.366.884-.366h9c.69 0 1.25.56 1.25 1.25v6.5c0 .414.336.75.75.75s.75-.336.75-.75z"/><path d="m6.015 2.147.339 1.696c.163.818.882 1.407 1.716 1.407h4.36c.834 0 1.553-.589 1.716-1.407l.339-1.696c.082-.406-.182-.801-.588-.882-.406-.082-.801.182-.882.588l-.34 1.696c-.023.117-.126.201-.245.201h-4.36c-.119 0-.222-.084-.245-.201 0 0-.34-1.696-.34-1.696-.081-.406-.476-.67-.882-.588-.406.081-.67.476-.588.882z"/><path d="m14.956 12.25c-2.459 0-4.456 1.997-4.456 4.456s1.997 4.456 4.456 4.456 4.456-1.997 4.456-4.456-1.997-4.456-4.456-4.456zm0 1.5c1.631 0 2.956 1.324 2.956 2.956 0 1.631-1.325 2.956-2.956 2.956-1.632 0-2.956-1.325-2.956-2.956 0-1.632 1.324-2.956 2.956-2.956z"/><path d="m20.78 21.47-2.647-2.647c-.292-.293-.768-.293-1.06 0-.293.292-.293.768 0 1.06l2.647 2.647c.292.293.768.293 1.06 0 .293-.292.293-.768 0-1.06z"/></g></svg>