<svg clip-rule="evenodd" fill-rule="evenodd" height="512" stroke-linejoin="round" stroke-miterlimit="2" viewBox="0 0 24 24" width="512" xmlns="http://www.w3.org/2000/svg"><g id="Icon"><path d="m20 18.75c1.518 0 2.75-1.232 2.75-2.75v-7c0-1.518-1.232-2.75-2.75-2.75h-16c-1.518 0-2.75 1.232-2.75 2.75v7c0 1.518 1.232 2.75 2.75 2.75h3c.414 0 .75-.336.75-.75v-4.25h8.5v4.25c0 .414.336.75.75.75zm0-1.5h-2.25v-4.25c0-.414-.336-.75-.75-.75h-10c-.414 0-.75.336-.75.75v4.25h-2.25c-.69 0-1.25-.56-1.25-1.25v-7c0-.69.56-1.25 1.25-1.25h16c.69 0 1.25.56 1.25 1.25v7c0 .69-.56 1.25-1.25 1.25z"/><path d="m6 10.75h1c.414 0 .75-.336.75-.75s-.336-.75-.75-.75h-1c-.414 0-.75.336-.75.75s.336.75.75.75z"/><path d="m16 22.75c.968 0 1.75-.782 1.75-1.75v-8c0-.414-.336-.75-.75-.75h-10c-.414 0-.75.336-.75.75v8c0 .968.782 1.75 1.75 1.75zm0-1.5h-8c-.138 0-.25-.112-.25-.25v-7.25h8.5v7.25c0 .138-.112.25-.25.25z"/><path d="m6 13.75h12c.414 0 .75-.336.75-.75s-.336-.75-.75-.75h-12c-.414 0-.75.336-.75.75s.336.75.75.75z"/><path d="m7.75 4v-1c0-.138.112-.25.25-.25h8c.138 0 .25.112.25.25v1c0 .414.336.75.75.75s.75-.336.75-.75v-1c0-.968-.782-1.75-1.75-1.75h-8c-.968 0-1.75.782-1.75 1.75v1c0 .414.336.75.75.75s.75-.336.75-.75z"/></g></svg>