<svg clip-rule="evenodd" fill-rule="evenodd" height="512" stroke-linejoin="round" stroke-miterlimit="2" viewBox="0 0 24 24" width="512" xmlns="http://www.w3.org/2000/svg"><g id="Icon"><path d="m12 1.25c1.518 0 2.75 1.232 2.75 2.75s-1.232 2.75-2.75 2.75-2.75-1.232-2.75-2.75 1.232-2.75 2.75-2.75zm0 1.5c-.69 0-1.25.56-1.25 1.25s.56 1.25 1.25 1.25 1.25-.56 1.25-1.25-.56-1.25-1.25-1.25z"/><path d="m15 11.75h7c.414 0 .75.336.75.75 0 2.346-1.904 4.25-4.25 4.25s-4.25-1.904-4.25-4.25c0-.414.336-.75.75-.75zm.854 1.5c.326 1.154 1.388 2 2.646 2s2.32-.846 2.646-2z"/><path d="m2 9.75h7c.414 0 .75.336.75.75 0 2.346-1.904 4.25-4.25 4.25s-4.25-1.904-4.25-4.25c0-.414.336-.75.75-.75zm.854 1.5c.326 1.154 1.388 2 2.646 2s2.32-.846 2.646-2z"/><path d="m6.739 22.75c-.415 0-.803-.206-1.036-.549-.232-.344-.279-.78-.125-1.165l.474-1.186c.266-.664.909-1.1 1.625-1.1h8.646c.716 0 1.359.436 1.625 1.1l.474 1.186c.154.385.107.821-.125 1.165-.233.343-.621.549-1.036.549zm.369-1.5h9.784l-.337-.843c-.038-.095-.13-.157-.232-.157h-8.646c-.102 0-.194.062-.232.157z"/><path d="m22.007 4.65c.41.057.696.437.638.847-.057.41-.437.696-.847.638l-7.922-1.114c-.41-.057-.696-.437-.638-.847.057-.41.437-.696.847-.638z"/><path d="m10.124 2.979c.41.057.696.437.638.847-.057.41-.437.696-.847.638l-7.922-1.114c-.41-.057-.696-.437-.638-.847.057-.41.437-.696.847-.638z"/><path d="m11.25 6c0-.414.336-.75.75-.75s.75.336.75.75v13.5c0 .414-.336.75-.75.75s-.75-.336-.75-.75z"/><path d="m18.5 8.093-2.856 4.791c-.212.356-.672.472-1.028.26s-.472-.672-.26-1.028l3.07-5.151c.226-.379.634-.61 1.074-.61s.848.231 1.074.61l3.07 5.151c.212.356.096.816-.26 1.028s-.816.096-1.028-.26z"/><path d="m5.5 6.093-2.856 4.791c-.212.356-.672.472-1.028.26s-.472-.672-.26-1.028l3.07-5.151c.226-.379.634-.61 1.074-.61s.848.231 1.074.61l3.07 5.151c.212.356.096.816-.26 1.028s-.816.096-1.028-.26z"/></g></svg>