<svg clip-rule="evenodd" fill-rule="evenodd" height="512" stroke-linejoin="round" stroke-miterlimit="2" viewBox="0 0 24 24" width="512" xmlns="http://www.w3.org/2000/svg"><g id="Icon"><path d="m2.961 21.039c1.984 1.984 5.652 2.37 7.636.387l.546-.547c.203-.203.375-.435.511-.688 1.992-3.698 4.839-6.545 8.538-8.54.25-.134.48-.304.681-.505.139-.136.33-.326.553-.549 1.983-1.984 1.597-5.652-.387-7.636s-5.652-2.37-7.636-.387l-.53.531c-.217.218-.399.468-.539.742-1.915 3.744-4.76 6.563-8.494 8.492-.267.137-.513.316-.727.529-.138.134-.323.32-.539.535-1.983 1.984-1.597 5.652.387 7.636zm1.061-1.061c-1.435-1.434-1.821-4.08-.387-5.514l.534-.531c.105-.105.226-.193.358-.261.001 0 .001 0 .001-.001 4.019-2.076 7.08-5.11 9.143-9.142 0 0 0-.001 0-.002.069-.134.158-.256.264-.363 0 0 .529-.529.529-.529 1.434-1.434 4.08-1.048 5.514.387 1.435 1.434 1.821 4.08.387 5.514l-.548.545c-.099.099-.212.183-.336.25 0 0 0 0-.001 0-3.963 2.137-7.013 5.186-9.148 9.15 0 .001 0 .001-.001.002-.066.123-.15.237-.249.336 0 0-.546.546-.546.546-1.434 1.434-4.08 1.048-5.514-.387z"/><path d="m13.234 3.374s1.065 2.77 1.615 4.198c.279.726.853 1.3 1.579 1.579 1.428.55 4.198 1.615 4.198 1.615.387.149.821-.044.97-.431.148-.386-.045-.82-.431-.969 0 0-2.771-1.065-4.199-1.615-.33-.126-.591-.387-.717-.717-.55-1.428-1.615-4.199-1.615-4.199-.149-.386-.583-.579-.969-.431-.387.149-.58.583-.431.97z"/><path d="m2.835 14.634s2.771 1.065 4.199 1.615c.33.126.591.387.717.717.55 1.428 1.615 4.199 1.615 4.199.149.386.583.579.969.431.387-.149.58-.583.431-.97 0 0-1.065-2.77-1.615-4.198-.279-.726-.853-1.3-1.579-1.579-1.428-.55-4.198-1.615-4.198-1.615-.387-.149-.821.044-.97.431-.148.386.045.82.431.969z"/><path d="m12.243 10.21 1.547 1.547c.293.293.768.293 1.061 0s.293-.768 0-1.061l-1.547-1.547c-.293-.293-.768-.293-1.061 0s-.293.768 0 1.061z"/><path d="m9.149 13.304 1.547 1.547c.293.293.768.293 1.061 0s.293-.768 0-1.061l-1.547-1.547c-.293-.293-.768-.293-1.061 0s-.293.768 0 1.061z"/></g></svg>