<svg clip-rule="evenodd" fill-rule="evenodd" stroke-linejoin="round" stroke-miterlimit="1.414" viewBox="0 0 32 32" xmlns="http://www.w3.org/2000/svg" xmlns:serif="http://www.serif.com/"><path id="group-friend-team-unity" d="m0 0h32v32h-32z" fill="none"/><path d="m15.868 18.929c.544.046.649.264.934.609 1.28 1.544 2.016 3.572 1.93 5.58-.067 1.564-1.744 2.648-3.35 3.167-3.296 1.065-7.207 1.067-10.078-.866-.896-.602-1.55-1.537-1.494-2.801.086-1.905.789-3.781 2.046-5.227.493-.566 1.705-.507 1.823.434.053.414-.201.694-.573 1.184-.842 1.11-1.289 2.506-1.313 3.892-.008.516.509.833.994 1.087 1.757.92 3.878 1.048 5.912.828 1.368-.148 2.868-.381 3.81-1.368.266-.279.239-.702.204-1.075-.126-1.369-.674-2.7-1.582-3.727l-.095-.109c-.137-.187-.154-.254-.185-.38-.127-.528.258-1.125.804-1.216.135-.022.169-.013.213-.012zm9.457-5.973c.357.028.638.255.904.572 1.296 1.546 2.017 3.618 1.961 5.584-.002.065-.007.13-.014.195-.165 1.442-1.66 2.417-3.096 2.923-1.36.48-2.816.671-4.266.679-.674.004-1.253-.679-1.029-1.322.154-.445.632-.663 1.134-.67 1.627-.025 3.333-.23 4.658-1.122.336-.226.627-.519.622-.871-.032-1.555-.586-3.092-1.611-4.25l-.086-.098c-.278-.364-.229-.489-.22-.674.025-.517.495-.957 1.043-.946zm-14.025-3.983c2.284.022 4.44 1.79 4.862 4.067.574 3.101-2.354 6.444-5.805 5.804-2.019-.374-3.715-2.127-4.014-4.168-.403-2.75 1.84-5.636 4.829-5.702.042-.001.085-.001.128-.001zm-.052 1.991c-1.68.016-3.17 1.67-2.94 3.386.188 1.406 1.506 2.578 2.94 2.587 1.743.011 3.295-1.766 2.953-3.553-.254-1.324-1.476-2.389-2.875-2.42-.026 0-.052 0-.078 0zm9.509-7.964c2.311.022 4.46 1.817 4.867 4.098.556 3.104-2.397 6.428-5.84 5.768-2.015-.387-3.702-2.15-3.988-4.194-.388-2.769 1.901-5.643 4.897-5.672zm-.052 1.991c-1.679.016-3.17 1.666-2.94 3.386.188 1.406 1.506 2.578 2.94 2.587 1.42.009 2.765-1.123 2.974-2.55.242-1.651-1.099-3.383-2.896-3.423-.026 0-.052 0-.078 0z" fill-rule="nonzero"/></svg>