<svg clip-rule="evenodd" fill-rule="evenodd" height="512" stroke-linejoin="round" stroke-miterlimit="2" viewBox="0 0 24 24" width="512" xmlns="http://www.w3.org/2000/svg"><g id="Icon"><circle cx="5.297" cy="17.181" r="1"/><path d="m9.345 19.59c0-2.26 0-7.74 0-10 0-.464-.185-.909-.513-1.237s-.773-.513-1.237-.513h-4.595c-.464 0-.909.185-1.237.513-.329.328-.513.773-.513 1.237v10c0 .464.184.91.513 1.238.328.328.773.512 1.237.512h4.595c.464 0 .909-.184 1.237-.512s.513-.774.513-1.238zm-1.5-10v10c0 .067-.027.13-.074.177-.046.047-.11.073-.176.073h-4.595c-.066 0-.13-.026-.177-.073s-.073-.11-.073-.177v-10c0-.066.026-.13.073-.177.047-.046.111-.073.177-.073h4.595c.066 0 .13.027.176.073.047.047.074.111.074.177z"/><path d="m9.226 9.995s2.043-3.187 3.372-5.26c.182-.285.473-.484.805-.551s.677.004.956.196c0 0 .229.158.229.158.375.258.58.7.535 1.154l-.273 2.724c-.049.492.112.982.444 1.349.332.366.803.575 1.298.575h2.408c.667 0 1.3.296 1.727.809.428.512.606 1.187.487 1.844l-.909 5c-.195 1.07-1.127 1.847-2.214 1.847-1.582 0-3.558 0-4.82 0-.726 0-1.444-.15-2.109-.442-.993-.436-2.266-.995-2.266-.995-.379-.166-.822.007-.988.386-.167.379.006.822.385.988 0 0 1.274.559 2.266.994.855.376 1.779.569 2.712.569h4.82c1.812 0 3.365-1.296 3.689-3.079.268-1.473.613-3.369.909-5 .199-1.094-.097-2.22-.81-3.074-.712-.853-1.767-1.347-2.879-1.347h-2.408c-.071 0-.138-.03-.186-.082-.047-.052-.07-.122-.063-.193 0 0 .272-2.724.272-2.724.1-.997-.351-1.97-1.177-2.539l-.229-.157c-.613-.423-1.372-.578-2.102-.431-.731.147-1.37.584-1.772 1.212-1.329 2.073-3.372 5.26-3.372 5.26-.223.348-.122.812.227 1.036.348.223.813.122 1.036-.227z"/></g></svg>