<svg clip-rule="evenodd" fill-rule="evenodd" height="512" stroke-linejoin="round" stroke-miterlimit="2" viewBox="0 0 24 24" width="512" xmlns="http://www.w3.org/2000/svg"><g id="Icon"><path d="m20.742 1.894c-.052-.37-.369-.644-.742-.644h-16c-.373 0-.69.274-.742.644l-2 14c-.031.215.033.433.175.597.143.165.35.259.567.259h20c.217 0 .424-.094.567-.259.142-.164.206-.382.175-.597zm-1.392.856 1.785 12.5h-18.27s1.785-12.5 1.785-12.5z"/><path d="m20 5.75h-16c-.414 0-.75.336-.75.75s.336.75.75.75h16c.414 0 .75-.336.75-.75s-.336-.75-.75-.75z"/><path d="m8.252 1.947-1 14c-.03.412.282.772.695.801.412.03.772-.282.801-.695l1-14c.03-.412-.282-.772-.695-.801-.412-.03-.772.282-.801.695z"/><path d="m3 12.25h18c.414 0 .75-.336.75-.75s-.336-.75-.75-.75h-18c-.414 0-.75.336-.75.75s.336.75.75.75z"/><path d="m16.748 15.947-1-14c-.029-.413-.389-.725-.801-.695-.413.029-.725.389-.695.801l1 14c.029.413.389.725.801.695.413-.029.725-.389.695-.801z"/><path d="m15.75 16c0-.414-.336-.75-.75-.75h-6c-.414 0-.75.336-.75.75v3.5c0 .414.336.75.75.75h6c.414 0 .75-.336.75-.75zm-1.5.75v2h-4.5v-2z"/><path d="m19.75 20.5c0-.966-.783-1.75-1.75-1.75h-12c-.967 0-1.75.784-1.75 1.75v.5c0 .966.783 1.75 1.75 1.75h12c.967 0 1.75-.784 1.75-1.75zm-1.5 0v.5c0 .138-.112.25-.25.25h-12c-.138 0-.25-.112-.25-.25v-.5c0-.138.112-.25.25-.25h12c.138 0 .25.112.25.25z"/></g></svg>