<svg clip-rule="evenodd" fill-rule="evenodd" height="512" stroke-linejoin="round" stroke-miterlimit="2" viewBox="0 0 24 24" width="512" xmlns="http://www.w3.org/2000/svg"><g id="Icon"><path d="m11.716 12.8-1.686-1.686c-.292-.292-.768-.292-1.06 0-.293.293-.293.768 0 1.061l1.873 1.874c.244.244.578.376.923.365s.67-.164.899-.422c.933-1.058 3.397-3.851 3.397-3.851.274-.311.245-.785-.066-1.059-.31-.274-.785-.244-1.058.066z"/><path d="m21.295 6.553c0-.68-.393-1.298-1.008-1.588-1.61-.758-6.127-2.883-7.54-3.548-.473-.223-1.021-.223-1.494 0l-7.54 3.548c-.615.29-1.008.908-1.008 1.588v3.253l.022.416c1.036 9.361 8.998 12.476 8.998 12.476.177.069.373.069.55 0 0 0 7.962-3.115 8.994-12.476.016-.138.023-.277.023-.416.003-.493.003-2.281.003-3.253zm-1.5 0c0 .969 0 2.754-.003 3.249l-.014.255c-.819 7.426-6.459 10.501-7.778 11.123-1.319-.622-6.96-3.697-7.782-11.122l-.013-.252c0-.496 0-2.282 0-3.253 0-.099.057-.189.147-.231 0 0 7.539-3.548 7.539-3.548.069-.032.149-.032.218 0 0 0 7.539 3.548 7.539 3.548.09.042.147.132.147.231z"/></g></svg>