<svg clip-rule="evenodd" fill-rule="evenodd" height="512" stroke-linejoin="round" stroke-miterlimit="2" viewBox="0 0 24 24" width="512" xmlns="http://www.w3.org/2000/svg"><g id="Icon"><path d="m16 7.75c.414 0 .75-.336.75-.75v-4c0-.968-.782-1.75-1.75-1.75h-6c-.968 0-1.75.782-1.75 1.75v4c0 .414.336.75.75.75zm-.75-1.5h-6.5v-3.25c0-.138.112-.25.25-.25h6c.138 0 .25.112.25.25z"/><path d="m18.4 18.717c.227-.303.35-.672.35-1.05v-9.667c0-.966-.782-1.75-1.75-1.75h-10c-.968 0-1.75.784-1.75 1.75v9.667c0 .377.123.746.349 1.048l2.501 3.335c.331.441.851.7 1.4.7h5c.552 0 1.072-.26 1.401-.702-.001.002 2.499-3.331 2.499-3.331zm-1.2-.901-2.501 3.335c-.047.063-.121.099-.199.099h-5c-.079 0-.153-.037-.2-.1l-2.499-3.332c-.032-.044-.051-.097-.051-.151v-9.667c0-.138.112-.25.25-.25h10c.138 0 .25.112.25.25v9.667c0 .053-.017.106-.05.149z"/><path d="m13.25 5v2c0 .414.336.75.75.75s.75-.336.75-.75v-2c0-.414-.336-.75-.75-.75s-.75.336-.75.75z"/><path d="m9.25 5v2c0 .414.336.75.75.75s.75-.336.75-.75v-2c0-.414-.336-.75-.75-.75s-.75.336-.75.75z"/><path d="m12.75 22v-11c0-.414-.336-.75-.75-.75s-.75.336-.75.75v11c0 .414.336.75.75.75s.75-.336.75-.75z"/><path d="m13.496 11.437-1.496-2.591-1.496 2.591z" fill-rule="nonzero"/><path d="m12.594 19.436-2.844-3.692v-1.744c0-.414-.336-.75-.75-.75s-.75.336-.75.75v2c0 .165.055.326.156.457l3 3.894c.253.328.724.389 1.052.137.328-.253.389-.724.136-1.052z"/><path d="m10.128 14c0-.623-.505-1.128-1.128-1.128s-1.128.505-1.128 1.128.505 1.128 1.128 1.128 1.128-.505 1.128-1.128" fill-rule="nonzero"/><path d="m12.201 19.069 3.226-2.227c.203-.14.324-.37.324-.617v-2.225c0-.414-.336-.75-.75-.75s-.75.336-.75.75v1.831s-2.902 2.004-2.902 2.004c-.341.235-.427.703-.192 1.043.236.341.703.426 1.044.191z"/><path d="m14.01 13.01h1.98v1.98h-1.98z"/></g></svg>