<svg clip-rule="evenodd" fill-rule="evenodd" height="512" stroke-linejoin="round" stroke-miterlimit="2" viewBox="0 0 24 24" width="512" xmlns="http://www.w3.org/2000/svg"><g id="Icon"><path d="m13.75 11.277v-8.298c0-.951-.778-1.729-1.75-1.729h-4.927c-.97 0-1.75.778-1.75 1.729v4.433c0 .068-.033.13-.086.172l-2.41 1.911c-1.549 1.226-2.018 3.341-1.136 5.091 0 0 0 0 .001.001 1.121 2.219 3.952 2.966 6.037 1.589 0 0 5.243-3.46 5.243-3.46.488-.321.778-.862.778-1.439zm-1.5 0c0 .076-.04.145-.104.187l-5.243 3.461c-1.337.882-3.154.408-3.872-1.015-.562-1.114-.259-2.459.728-3.24l2.408-1.909c.417-.328.656-.824.656-1.349v-4.433c0-.131.116-.229.25-.229h4.927c.134 0 .25.098.25.229z"/><path d="m13 4.191h-6.93c-.414 0-.75.336-.75.75 0 .413.336.75.75.75h6.93c.414 0 .75-.337.75-.75 0-.414-.336-.75-.75-.75z"/><path d="m9.75 14.445v-2.646c0-1.215 1.009-2.19 2.25-2.19h1c.414 0 .75-.336.75-.75s-.336-.75-.75-.75h-1c-2.079 0-3.75 1.654-3.75 3.69v2.646c0 .414.336.75.75.75s.75-.336.75-.75z"/><path d="m22.75 17.157v-8.298c0-.951-.778-1.729-1.75-1.729h-4.927c-.97 0-1.75.778-1.75 1.729v4.432c0 .068-.032.131-.086.173l-2.41 1.909c-1.549 1.227-2.018 3.343-1.136 5.092h.001c1.121 2.221 3.952 2.968 6.037 1.591 0 0 5.243-3.461 5.243-3.461.487-.319.778-.86.778-1.438zm-1.5 0c0 .075-.039.144-.102.185l-5.245 3.462c-1.337.883-3.154.409-3.872-1.015-.562-1.113-.259-2.459.728-3.24l2.408-1.908c.416-.328.656-.825.656-1.35v-4.432c0-.131.116-.229.25-.229h4.927c.134 0 .25.098.25.229z"/><path d="m22 10.07h-6.93c-.414 0-.75.336-.75.75s.336.75.75.75h6.93c.414 0 .75-.336.75-.75s-.336-.75-.75-.75z"/><path d="m18.75 20.324v-2.646c0-1.215 1.009-2.189 2.25-2.189h1c.414 0 .75-.336.75-.75s-.336-.75-.75-.75h-1c-2.079 0-3.75 1.653-3.75 3.689v2.646c0 .414.336.75.75.75s.75-.336.75-.75z"/></g></svg>