<svg clip-rule="evenodd" fill-rule="evenodd" height="512" stroke-linejoin="round" stroke-miterlimit="2" viewBox="0 0 24 24" width="512" xmlns="http://www.w3.org/2000/svg"><g id="Icon"><path d="m21.25 12c0-5.105-4.145-9.25-9.25-9.25s-9.25 4.145-9.25 9.25 4.145 9.25 9.25 9.25 9.25-4.145 9.25-9.25zm-1.5 0c0 4.277-3.473 7.75-7.75 7.75s-7.75-3.473-7.75-7.75 3.473-7.75 7.75-7.75 7.75 3.473 7.75 7.75z"/><path d="m15.25 12c0-1.794-1.456-3.25-3.25-3.25s-3.25 1.456-3.25 3.25 1.456 3.25 3.25 3.25 3.25-1.456 3.25-3.25zm-1.5 0c0 .966-.784 1.75-1.75 1.75s-1.75-.784-1.75-1.75.784-1.75 1.75-1.75 1.75.784 1.75 1.75z"/><path d="m11.25 2v7.5c0 .414.336.75.75.75s.75-.336.75-.75v-7.5c0-.414-.336-.75-.75-.75s-.75.336-.75.75z"/><path d="m11.25 14.5v7.5c0 .414.336.75.75.75s.75-.336.75-.75v-7.5c0-.414-.336-.75-.75-.75s-.75.336-.75.75z"/><path d="m4.399 5.459 5.071 5.071c.292.293.768.293 1.06 0 .293-.292.293-.768 0-1.06l-5.071-5.071c-.292-.293-.768-.293-1.06 0-.293.292-.293.768 0 1.06z"/><path d="m13.47 14.53 5.071 5.071c.292.293.768.293 1.06 0 .293-.292.293-.768 0-1.06l-5.071-5.071c-.292-.293-.768-.293-1.06 0-.293.292-.293.768 0 1.06z"/><path d="m14.5 12.75h7.5c.414 0 .75-.336.75-.75s-.336-.75-.75-.75h-7.5c-.414 0-.75.336-.75.75s.336.75.75.75z"/><path d="m2 12.75h7.5c.414 0 .75-.336.75-.75s-.336-.75-.75-.75h-7.5c-.414 0-.75.336-.75.75s.336.75.75.75z"/><path d="m5.459 19.601 5.071-5.071c.293-.292.293-.768 0-1.06-.292-.293-.768-.293-1.06 0l-5.071 5.071c-.293.292-.293.768 0 1.06.292.293.768.293 1.06 0z"/><path d="m14.53 10.53 5.071-5.071c.293-.292.293-.768 0-1.06-.292-.293-.768-.293-1.06 0l-5.071 5.071c-.293.292-.293.768 0 1.06.292.293.768.293 1.06 0z"/></g></svg>