<svg clip-rule="evenodd" fill-rule="evenodd" stroke-linejoin="round" stroke-miterlimit="1.414" viewBox="0 0 32 32" xmlns="http://www.w3.org/2000/svg" xmlns:serif="http://www.serif.com/"><path id="disability-wheelchair-patient" d="m0 0h32v32h-32z" fill="none"/><path d="m11.274 11.514c.288.043.367.098.503.204.566.439.43 1.463-.292 1.738-.031.012-.062.024-.093.036-2.018.807-3.599 2.573-4.171 4.648-.731 2.654.28 5.701 2.463 7.396 2.267 1.759 5.656 1.913 8.072.356 1.201-.774 2.153-1.923 2.697-3.241 0 0 .55-.791 1.233-.57.584.189.8.918.536 1.522-1.255 2.869-4.093 4.996-7.252 5.345-3.03.336-6.191-.987-8.079-3.389-2.52-3.206-2.516-8.152.21-11.37.971-1.147 2.236-2.048 3.632-2.587.171-.066.351-.101.541-.088zm1.849-2.653c-1.347-.448-2.371-1.905-2.105-3.391.242-1.354 1.495-2.443 2.915-2.47h.077c1.688.032 3.176 1.682 2.933 3.419-.143 1.016-.872 1.904-1.803 2.324l.451 2.258h6.381l.054.001c.217.018.287.049.407.112.74.384.635 1.83-.407 1.886-.018.001-.036.001-.054.001h-5.981l.8 4.001h5.181s.491.054.739.326c.046.05.054.065.093.119l4.001 6.001c.134.219.144.295.161.438.072.614-.543 1.227-1.189 1.098-.257-.052-.481-.212-.636-.426l-3.704-5.556h-5.466s-.82-.136-.98-.804zm.835-3.861c-.766.015-1.312 1.104-.685 1.716.509.497 1.566.224 1.687-.562.084-.55-.361-1.127-.95-1.153-.017-.001-.034-.001-.052-.001z" fill-rule="nonzero"/></svg>