<svg clip-rule="evenodd" fill-rule="evenodd" height="512" stroke-linejoin="round" stroke-miterlimit="2" viewBox="0 0 24 24" width="512" xmlns="http://www.w3.org/2000/svg"><g id="Icon"><circle cx="5.986" cy="18.5" r="1.014"/><circle cx="18.014" cy="18.5" r="1.014"/><path d="m22.75 18.5c0-2.347-1.903-4.25-4.25-4.25-3.653 0-9.347 0-13 0-2.347 0-4.25 1.903-4.25 4.25s1.903 4.25 4.25 4.25h13c2.347 0 4.25-1.903 4.25-4.25zm-1.5 0c0 1.519-1.231 2.75-2.75 2.75h-13c-1.519 0-2.75-1.231-2.75-2.75s1.231-2.75 2.75-2.75h13c1.519 0 2.75 1.231 2.75 2.75z"/><path d="m22.75 18.5v-15.5c0-.966-.783-1.75-1.75-1.75-1.26 0-2.468.5-3.359 1.391s-1.391 2.099-1.391 3.359v6c0 .414.336.75.75.75s.75-.336.75-.75c0 0 0-3.216 0-6 0-.862.342-1.689.952-2.298.609-.61 1.436-.952 2.298-.952.138 0 .25.112.25.25v15.5c0 .414.336.75.75.75s.75-.336.75-.75z"/><path d="m7.71 13.249.039.001.025-.001c.111-.005.566-.058.703-.567l.204-.763c.12-.448.057-.926-.175-1.328l-.312-.54c-.318-.552-.171-1.255.342-1.632.326-.24.64-.471.854-.629.32-.235.551-.573.654-.956l.038-.145c.258-.96.123-1.984-.374-2.845-.498-.861-1.317-1.49-2.277-1.747-.934-.251-1.894.303-2.144 1.237l-4.011 14.972c-.108.4.13.811.53.918.4.108.811-.13.918-.53l4.012-14.972c.036-.133.173-.212.306-.177.577.155 1.068.532 1.367 1.049.298.517.379 1.131.224 1.707l-.038.144c-.015.055-.048.103-.094.137-.214.158-.528.388-.854.629-1.129.83-1.453 2.376-.752 3.59 0 0 .312.54.312.54.033.058.042.126.025.19 0 0-.204.762-.204.762l.002.003c-.021.059-.031.13-.031.204 0 .401.315.729.711.749z"/></g></svg>