<svg clip-rule="evenodd" fill-rule="evenodd" height="512" stroke-linejoin="round" stroke-miterlimit="2" viewBox="0 0 24 24" width="512" xmlns="http://www.w3.org/2000/svg"><g id="Icon"><path d="m7.262 12.226c.414 0 .75-.336.75-.75v-4.211c0-.415-.336-.75-.75-.75 0 0-1.543 0-2.632 0-.996 0-1.803.807-1.803 1.802v2.106c0 .996.807 1.803 1.803 1.803zm-.75-1.5h-1.882c-.168 0-.303-.135-.303-.303v-2.105c0-.168.135-.303.303-.303h1.882z"/><path d="m21.173 10.423v-2.106c0-.995-.807-1.802-1.803-1.802h-2.632c-.414 0-.75.335-.75.75v4.211c0 .414.336.75.75.75h2.632c.996 0 1.803-.807 1.803-1.803zm-1.5 0c0 .168-.135.303-.303.303h-1.882v-2.711h1.882c.168 0 .303.135.303.302z"/><path d="m17.265 10.726h-4.212c-.414 0-.75.336-.75.75s.336.75.75.75h4.212c.414 0 .75-.336.75-.75s-.336-.75-.75-.75z"/><path d="m22.226 19.606c0-1.265-.766-2.469-2.157-3.417-1.821-1.242-4.755-2.071-8.069-2.071s-6.248.829-8.069 2.071c-1.391.948-2.157 2.152-2.157 3.417v1.446c0 .451.179.882.497 1.201.318.318.75.497 1.2.497h17.058c.45 0 .882-.179 1.2-.497.318-.319.497-.75.497-1.201zm-1.5 0v1.446c0 .053-.021.103-.058.14s-.087.058-.139.058h-17.058c-.052 0-.102-.021-.139-.058s-.058-.087-.058-.14v-1.446c0-.828.591-1.557 1.502-2.178 1.628-1.11 4.262-1.81 7.224-1.81s5.596.7 7.224 1.81c.911.621 1.502 1.35 1.502 2.178z"/><path d="m12 4.072c-3.029 0-5.488 2.459-5.488 5.488s2.459 5.488 5.488 5.488 5.488-2.459 5.488-5.488-2.459-5.488-5.488-5.488zm0 1.5c2.201 0 3.988 1.787 3.988 3.988s-1.787 3.988-3.988 3.988-3.988-1.787-3.988-3.988 1.787-3.988 3.988-3.988z"/><path d="m5.117 8.014.039.001.032-.004c.144-.018.718-.128.718-.746 0-1.198.476-2.346 1.322-3.193.847-.846 1.995-1.322 3.193-1.322h2.895c1.197 0 2.346.476 3.192 1.322.847.847 1.323 1.995 1.323 3.193 0 .015 0 .03.001.045.011.244.115.403.242.508.134.122.312.197.507.197 0 0 .75-.043.75-.75 0-1.596-.634-3.125-1.762-4.253s-2.658-1.762-4.253-1.762c-.951 0-1.944 0-2.895 0-1.596 0-3.125.634-4.253 1.762s-1.762 2.657-1.762 4.253c0 .015.001.03.002.045.011.244.115.403.242.508.124.114.288.186.467.196z"/></g></svg>