<svg clip-rule="evenodd" fill-rule="evenodd" height="512" stroke-linejoin="round" stroke-miterlimit="2" viewBox="0 0 24 24" width="512" xmlns="http://www.w3.org/2000/svg"><g id="Icon"><path d="m11.362 3.023c0-.211-.089-.412-.245-.554s-.364-.212-.574-.193c-5.221.482-9.316 4.88-9.316 10.227 0 5.668 4.602 10.27 10.27 10.27 5.347 0 9.745-4.095 10.227-9.316.019-.21-.051-.418-.193-.574s-.343-.245-.554-.245h-9.48c-.075 0-.135-.06-.135-.135zm-1.5.862v8.618c0 .903.732 1.635 1.635 1.635h8.618c-.766 4.06-4.336 7.135-8.618 7.135-4.84 0-8.77-3.93-8.77-8.77 0-4.282 3.075-7.852 7.135-8.618zm3.59-2.609c-.21-.019-.419.051-.574.193-.156.142-.245.343-.245.554v8.594c0 .414.336.75.75.75h8.594c.211 0 .412-.089.554-.245s.212-.364.193-.574c-.454-4.908-4.366-8.819-9.272-9.272zm.681 1.609c3.53.666 6.315 3.451 6.982 6.982h-6.982z"/></g></svg>