<svg viewBox="0 0 32 32" xmlns="http://www.w3.org/2000/svg"><g id="evernote_note_todo_social_media" data-name="evernote note todo social media"><path d="m27.28 15.9-.58-5.71a5.53 5.53 0 0 0 -4.85-5 10.54 10.54 0 0 1 -3.15-.68 4.11 4.11 0 0 1 -.56-.49 4 4 0 0 0 -1.35-1 5.86 5.86 0 0 0 -2.29-.02 2.51 2.51 0 0 0 -2.71 2.69v3.44a1 1 0 0 1 -1 1h-3.87a2.47 2.47 0 0 0 -2.47 2.74v.13c.66 8 5 9.65 8.6 9.65a3.5 3.5 0 0 0 3.44-2.48 6.9 6.9 0 0 0 3.35 1.34c1.3.18 1.79 2.42 1.79 2.44a1 1 0 0 0 2-.38c0-.15-.75-3.66-3.48-4-2.54-.36-3.16-1.81-3.18-1.85a1 1 0 0 0 -1.93.2c-.34 2.43-1.14 2.77-2 2.77-2.55 0-6-.81-6.6-7.77 0-.72.23-.73.5-.73h3.84a3 3 0 0 0 3-3v-3.5c0-.54.15-.69.77-.69a15.71 15.71 0 0 1 1.59 0 6.72 6.72 0 0 1 .6.53 4.72 4.72 0 0 0 1.05.85 12.51 12.51 0 0 0 3.81.88 3.54 3.54 0 0 1 3.1 3.18l.58 5.66c.3 5-.26 8.14-1.71 9.69a4.51 4.51 0 0 1 -3.5 1.21 1.72 1.72 0 0 1 -1.93-1.65c0-1.24.65-1.39 1.13-1.39a1 1 0 1 0 0-2 3.06 3.06 0 0 0 -3.13 3.39 3.71 3.71 0 0 0 3.93 3.65 6.46 6.46 0 0 0 5-1.88c1.85-2 2.56-5.55 2.21-11.22z"/><path d="m19.69 14.37a1 1 0 1 0 1.31 1.52c.38-.33.71-.5 1.37.18a1 1 0 0 0 1.41 0 1 1 0 0 0 0-1.42 2.76 2.76 0 0 0 -4.09-.28z"/><path d="m7.56 9.5a1 1 0 0 0 .71-.29l2.73-2.71a1 1 0 0 0 0-1.41 1 1 0 0 0 -1.41 0l-2.7 2.7a1 1 0 0 0 0 1.42 1 1 0 0 0 .67.29z"/></g></svg>