<svg clip-rule="evenodd" fill-rule="evenodd" height="512" stroke-linejoin="round" stroke-miterlimit="2" viewBox="0 0 24 24" width="512" xmlns="http://www.w3.org/2000/svg"><g id="Icon"><path d="m1.25 18v2.667c0 1.15.933 2.083 2.083 2.083h2.667c.414 0 .75-.336.75-.75s-.336-.75-.75-.75h-2.667c-.322 0-.583-.261-.583-.583v-2.667c0-.414-.336-.75-.75-.75s-.75.336-.75.75z"/><path d="m12.75 16v-2.667c0-1.15-.933-2.083-2.083-2.083h-2.667c-.414 0-.75.336-.75.75s.336.75.75.75h2.667c.322 0 .583.261.583.583v2.667c0 .414.336.75.75.75s.75-.336.75-.75z"/><path d="m3.863 21.197 7.287-7.287c.293-.292.293-.768 0-1.06-.292-.293-.768-.293-1.06 0l-7.287 7.287c-.293.292-.293.768 0 1.06.292.293.768.293 1.06 0z"/><path d="m2.75 15v-11c0-.69.56-1.25 1.25-1.25h16c.69 0 1.25.56 1.25 1.25v16c0 .69-.56 1.25-1.25 1.25h-11c-.414 0-.75.336-.75.75s.336.75.75.75h11c1.518 0 2.75-1.232 2.75-2.75v-16c0-1.518-1.232-2.75-2.75-2.75h-16c-1.518 0-2.75 1.232-2.75 2.75v11c0 .414.336.75.75.75s.75-.336.75-.75z"/></g></svg>