<svg clip-rule="evenodd" fill-rule="evenodd" height="512" stroke-linejoin="round" stroke-miterlimit="2" viewBox="0 0 24 24" width="512" xmlns="http://www.w3.org/2000/svg"><g id="Icon"><path d="m16.379 8.49-2.181 6.546c-.131.392.081.817.474.948s.818-.081.949-.474l2.181-6.546c.131-.392-.081-.817-.474-.948s-.818.081-.949.474z"/><path d="m18.288 10.349 1.651 1.651s-1.651 1.651-1.651 1.651c-.293.293-.293.768 0 1.061s.768.293 1.061 0l2.181-2.182c.293-.293.293-.767 0-1.06l-2.181-2.182c-.293-.293-.768-.293-1.061 0s-.293.768 0 1.061z"/><path d="m12.651 9.288-2.181 2.182c-.293.293-.293.767 0 1.06l2.181 2.182c.293.293.768.293 1.061 0s.293-.768 0-1.061l-1.651-1.651s1.651-1.651 1.651-1.651c.293-.293.293-.768 0-1.061s-.768-.293-1.061 0z"/><path d="m16.75 6.5s0-1.298 0-2.5c0-.729-.29-1.429-.805-1.945-.516-.515-1.216-.805-1.945-.805h-9c-.729 0-1.429.29-1.945.805-.515.516-.805 1.216-.805 1.945v16c0 .729.29 1.429.805 1.945.516.515 1.216.805 1.945.805h9c.729 0 1.429-.29 1.945-.805.515-.516.805-1.216.805-1.945 0-1.202 0-2.5 0-2.5 0-.414-.336-.75-.75-.75s-.75.336-.75.75v2.5c0 .332-.132.649-.366.884-.235.234-.552.366-.884.366-2.444 0-6.556 0-9 0-.332 0-.649-.132-.884-.366-.234-.235-.366-.552-.366-.884v-16c0-.332.132-.649.366-.884.235-.234.552-.366.884-.366h9c.332 0 .649.132.884.366.234.235.366.552.366.884v2.5c0 .414.336.75.75.75s.75-.336.75-.75z"/><path d="m4.804 2.279.622 1.557c.342.854 1.17 1.414 2.09 1.414h3.968c.92 0 1.748-.56 2.09-1.414l.622-1.557c.154-.385-.033-.822-.417-.975-.385-.154-.822.033-.975.417l-.623 1.558c-.114.284-.39.471-.697.471h-3.968c-.307 0-.583-.187-.697-.471 0 0-.623-1.558-.623-1.558-.153-.384-.59-.571-.975-.417-.384.153-.571.59-.417.975z"/><path d="m7.5 20.25h4c.414 0 .75-.336.75-.75s-.336-.75-.75-.75h-4c-.414 0-.75.336-.75.75s.336.75.75.75z"/></g></svg>