<svg clip-rule="evenodd" fill-rule="evenodd" height="512" stroke-linejoin="round" stroke-miterlimit="2" viewBox="0 0 24 24" width="512" xmlns="http://www.w3.org/2000/svg"><g id="Icon"><path d="m22.295 6.57c-.306-.13-.577-.326-.795-.57-.142-.159-.345-.25-.559-.25-.213 0-.416.091-.558.25-.413.46-1.011.75-1.677.75s-1.264-.29-1.677-.75c-.142-.159-.345-.25-.558-.25-.214 0-.417.091-.559.25-.412.46-1.011.75-1.677.75s-1.264-.29-1.676-.75c-.143-.159-.346-.25-.559-.25s-.416.091-.559.25c-.412.46-1.01.75-1.676.75s-1.265-.29-1.677-.75c-.142-.159-.345-.25-.559-.25-.213 0-.416.091-.558.25-.413.46-1.011.75-1.677.75s-1.264-.29-1.677-.75c-.142-.159-.345-.25-.558-.25-.214 0-.417.091-.559.25-.218.244-.489.44-.795.57-.38.163-.557.604-.395.985.163.38.604.557.985.395.272-.117.529-.265.764-.44.624.465 1.398.74 2.235.74s1.611-.275 2.236-.74c.624.465 1.397.74 2.235.74.837 0 1.611-.275 2.235-.74.624.465 1.398.74 2.235.74.838 0 1.611-.275 2.236-.74.624.465 1.398.74 2.235.74s1.611-.275 2.236-.74c.234.175.49.323.763.44.381.162.822-.015.985-.395.162-.381-.015-.822-.395-.985z"/><path d="m22.295 11.57c-.306-.13-.577-.326-.795-.57-.142-.159-.345-.25-.559-.25-.213 0-.416.091-.558.25-.413.46-1.011.75-1.677.75s-1.264-.29-1.677-.75c-.142-.159-.345-.25-.558-.25-.214 0-.417.091-.559.25-.412.46-1.011.75-1.677.75s-1.264-.29-1.676-.75c-.143-.159-.346-.25-.559-.25s-.416.091-.559.25c-.412.46-1.01.75-1.676.75s-1.265-.29-1.677-.75c-.142-.159-.345-.25-.559-.25-.213 0-.416.091-.558.25-.413.46-1.011.75-1.677.75s-1.264-.29-1.677-.75c-.142-.159-.345-.25-.558-.25-.214 0-.417.091-.559.25-.218.244-.489.44-.795.57-.38.163-.557.604-.395.985.163.38.604.557.985.395.272-.117.529-.265.764-.44.624.465 1.398.74 2.235.74s1.611-.275 2.236-.74c.624.465 1.397.74 2.235.74.837 0 1.611-.275 2.235-.74.624.465 1.398.74 2.235.74.838 0 1.611-.275 2.236-.74.624.465 1.398.74 2.235.74s1.611-.275 2.236-.74c.234.175.49.323.763.44.381.162.822-.015.985-.395.162-.381-.015-.822-.395-.985z"/><path d="m22.295 16.57c-.306-.13-.577-.326-.795-.57-.142-.159-.345-.25-.559-.25-.213 0-.416.091-.558.25-.413.46-1.011.75-1.677.75s-1.264-.29-1.677-.75c-.142-.159-.345-.25-.558-.25-.214 0-.417.091-.559.25-.412.46-1.011.75-1.677.75s-1.264-.29-1.676-.75c-.143-.159-.346-.25-.559-.25s-.416.091-.559.25c-.412.46-1.01.75-1.676.75s-1.265-.29-1.677-.75c-.142-.159-.345-.25-.559-.25-.213 0-.416.091-.558.25-.413.46-1.011.75-1.677.75s-1.264-.29-1.677-.75c-.142-.159-.345-.25-.558-.25-.214 0-.417.091-.559.25-.218.244-.489.44-.795.57-.38.163-.557.604-.395.985.163.38.604.557.985.395.272-.117.529-.265.764-.44.624.465 1.398.74 2.235.74s1.611-.275 2.236-.74c.624.465 1.397.74 2.235.74.837 0 1.611-.275 2.235-.74.624.465 1.398.74 2.235.74.838 0 1.611-.275 2.236-.74.624.465 1.398.74 2.235.74s1.611-.275 2.236-.74c.234.175.49.323.763.44.381.162.822-.015.985-.395.162-.381-.015-.822-.395-.985z"/></g></svg>