<svg clip-rule="evenodd" fill-rule="evenodd" height="512" stroke-linejoin="round" stroke-miterlimit="2" viewBox="0 0 24 24" width="512" xmlns="http://www.w3.org/2000/svg"><g id="Icon"><circle cx="8.262" cy="20.722" r="1.246"/><circle cx="14.99" cy="20.722" r="1.246"/><path d="m17.734 10.009v5.058c0 .91-.698 1.669-1.606 1.744l-10.047.83c-.401.033-.756-.255-.806-.653l-.997-7.884c-.027-.214.039-.429.181-.591.143-.161.348-.254.563-.254h10.962c.967 0 1.75.784 1.75 1.75zm-1.5 0c0-.138-.112-.25-.25-.25h-10.111l.8 6.328 9.332-.771c.129-.011.229-.119.229-.249z"/><path d="m1.968 7.267c-.414 0-.75-.336-.75-.75s.336-.75.75-.75h1.857c.882 0 1.626.656 1.737 1.531l1.291 10.213c.016.125.122.219.248.219h9.82c.414 0 .75.336.75.75 0 .413-.336.75-.75.75h-9.82c-.882 0-1.626-.656-1.736-1.531l-1.292-10.213c-.015-.125-.122-.219-.248-.219z"/><path d="m6.902 11.596c-.052-.411.239-.787.65-.839.41-.051.786.24.838.65l.315 2.493c.052.41-.239.786-.65.838s-.786-.24-.838-.65z"/><path d="m10.101 11.596c-.051-.411.24-.787.65-.839.411-.051.787.24.839.65l.315 2.493c.052.41-.24.786-.65.838-.411.052-.787-.24-.838-.65z"/><path d="m13.313 11.596c-.052-.411.239-.787.65-.839.41-.051.786.24.838.65l.315 2.493c.052.41-.24.786-.65.838-.411.052-.786-.24-.838-.65z"/><path d="m9.974 2.562c-.292-.293-.292-.768 0-1.061.293-.293.768-.293 1.061 0l2.608 2.608 3.504-1.751c.274-.138.605-.094.834.11l4.486 3.987c.309.275.337.75.062 1.059s-.75.337-1.059.062l-4.106-3.65-3.533 1.767c-.289.144-.638.088-.866-.141z"/><path d="m21.162 4.541c-.01-.414.319-.757.732-.767.414-.009.758.319.767.733l.057 2.492c.01.414-.318.757-.732.767l-2.492.056c-.414.01-.758-.318-.767-.732s.319-.758.733-.767l1.741-.04z"/></g></svg>