<svg clip-rule="evenodd" fill-rule="evenodd" stroke-linejoin="round" stroke-miterlimit="2" viewBox="0 0 32 32" xmlns="http://www.w3.org/2000/svg" xmlns:serif="http://www.serif.com/"><path id="certificate-patent-achievement" d="m0 0h32v32h-32z" fill="none"/><path d="m24.995 23.793c-.382-.123-.74-.325-1.043-.614-1.65-1.573-.765-5.123 2.033-5.177h.077c1.975.038 3.6 2.372 2.668 4.306-.334.692-.962 1.188-1.685 1.44.032 1.117 0 2.18-.937 2.259-.536.045-1.061-.398-1.085-.969-.005-.392-.031-.828-.028-1.245zm-4.978.215h-16.016c-.537-.024-.976-.451-1.001-1.001v-16.016c.025-.538.451-.976 1.001-1.001h22.023c.03.001.061.003.092.004.5.07.885.492.909.997v8.008c-.037.788-1.06 1.302-1.676.74-.199-.182-.307-.326-.326-.74v-7.007h-20.021v14.014h15.015s.653.065.897.555c.296.596-.163 1.413-.897 1.447zm5.993-4.004c-.86.017-1.412 1.485-.375 1.924.737.312 1.746-.594 1.251-1.43-.18-.305-.5-.496-.876-.494zm-7.995-2.002h-6.006c-.999-.024-1.472-1.966 0-2.002h6.006c.017.001.033.001.049.001.987.072 1.381 1.967-.049 2.001zm4.005-4.004h-14.015c-.244-.009-.311-.039-.434-.099-.573-.276-.755-1.164-.247-1.636.183-.17.429-.257.681-.267h14.015c.024.001.049.002.074.003.243.027.307.063.426.131.729.421.539 1.829-.5 1.868z"/></svg>