<svg clip-rule="evenodd" fill-rule="evenodd" height="512" stroke-linejoin="round" stroke-miterlimit="2" viewBox="0 0 24 24" width="512" xmlns="http://www.w3.org/2000/svg"><g id="Icon"><circle cx="19.5" cy="13.958" r="1"/><path d="m18.45 12.516c.293-.219.656-.349 1.049-.349.394 0 .757.13 1.049.349.331.249.802.182 1.051-.149.248-.331.181-.801-.15-1.05-.543-.408-1.218-.65-1.95-.65-.731 0-1.406.242-1.949.65-.331.249-.398.719-.15 1.05.249.331.72.398 1.05.149z"/><path d="m17.45 10.433c.572-.429 1.281-.683 2.05-.683s1.478.254 2.05.683c.33.249.801.182 1.05-.149.248-.331.181-.801-.15-1.05-.822-.618-1.843-.984-2.95-.984s-2.128.366-2.95.984c-.331.249-.398.719-.15 1.05.249.331.72.398 1.05.149z"/><path d="m14.75 3c0-.464-.184-.909-.513-1.237-.328-.329-.773-.513-1.237-.513-2.26 0-7.74 0-10 0-.464 0-.909.184-1.237.513-.329.328-.513.773-.513 1.237v18c0 .464.184.909.513 1.237.328.329.773.513 1.237.513h10c.464 0 .909-.184 1.237-.513.329-.328.513-.773.513-1.237zm-1.5 0v18c0 .066-.026.13-.073.177s-.111.073-.177.073h-10c-.066 0-.13-.026-.177-.073s-.073-.111-.073-.177v-18c0-.066.026-.13.073-.177s.111-.073.177-.073h10c.066 0 .13.026.177.073s.073.111.073.177z"/><path d="m8 4.25c-1.518 0-2.75 1.232-2.75 2.75s1.232 2.75 2.75 2.75 2.75-1.232 2.75-2.75-1.232-2.75-2.75-2.75zm0 1.5c.69 0 1.25.56 1.25 1.25s-.56 1.25-1.25 1.25-1.25-.56-1.25-1.25.56-1.25 1.25-1.25z"/><path d="m8 11.25c-2.346 0-4.25 1.904-4.25 4.25s1.904 4.25 4.25 4.25 4.25-1.904 4.25-4.25-1.904-4.25-4.25-4.25zm0 1.5c1.518 0 2.75 1.232 2.75 2.75s-1.232 2.75-2.75 2.75-2.75-1.232-2.75-2.75 1.232-2.75 2.75-2.75z"/><circle cx="8" cy="15.5" r="1"/></g></svg>