<svg clip-rule="evenodd" fill-rule="evenodd" height="512" stroke-linejoin="round" stroke-miterlimit="2" viewBox="0 0 24 24" width="512" xmlns="http://www.w3.org/2000/svg"><g id="Icon"><circle cx="12" cy="5.923" r="1"/><path d="m22.75 7.962v-1.324c0-.715-.436-1.359-1.1-1.624l-9-3.6c-.417-.167-.883-.167-1.3 0l-9 3.6c-.664.265-1.1.909-1.1 1.624v1.324c0 .966.784 1.749 1.75 1.749h18c.966 0 1.75-.783 1.75-1.749zm-1.5-1.324v1.323c0 .139-.112.25-.25.25h-18c-.138 0-.25-.111-.25-.249 0-.001 0-1.323 0-1.323 0-.103.062-.195.157-.233 0 0 9-3.6 9-3.6.06-.023.126-.023.186 0 0 0 9 3.6 9 3.6.095.038.157.13.157.232z"/><path d="m2.994 21.211.52-1.818c.031-.108.129-.182.24-.182h6.746c.414 0 .75-.336.75-.75 0-.413-.336-.75-.75-.75h-6.746c-.781 0-1.468.518-1.682 1.27l-.611 2.137c-.108.377-.032.783.204 1.096s.606.497.998.497h10.337c.414 0 .75-.336.75-.75 0-.413-.336-.75-.75-.75z"/><path d="m20.75 10.961v-2c0-.413-.336-.75-.75-.75s-.75.337-.75.75v2c0 .414.336.75.75.75s.75-.336.75-.75z"/><path d="m16.25 10.461v-1.5c0-.413-.336-.75-.75-.75s-.75.337-.75.75v1.5c0 .414.336.75.75.75s.75-.336.75-.75z"/><path d="m9.25 18.461v-9.5c0-.413-.336-.75-.75-.75s-.75.337-.75.75v9.5c0 .414.336.75.75.75s.75-.336.75-.75z"/><path d="m4.75 18.461v-9.5c0-.413-.336-.75-.75-.75s-.75.337-.75.75v9.5c0 .414.336.75.75.75s.75-.336.75-.75z"/><path d="m16.75 12.25c-2.484 0-4.5 2.016-4.5 4.5s2.016 4.5 4.5 4.5 4.5-2.016 4.5-4.5-2.016-4.5-4.5-4.5zm0 1.5c1.656 0 3 1.344 3 3s-1.344 3-3 3-3-1.344-3-3 1.344-3 3-3z"/><path d="m22.53 21.47-2.5-2.5c-.292-.293-.768-.293-1.06 0-.293.292-.293.768 0 1.06l2.5 2.5c.292.293.768.293 1.06 0 .293-.292.293-.768 0-1.06z"/></g></svg>