<svg clip-rule="evenodd" fill-rule="evenodd" stroke-linejoin="round" stroke-miterlimit="1.414" viewBox="0 0 32 32" xmlns="http://www.w3.org/2000/svg" xmlns:serif="http://www.serif.com/"><path id="date-treatment-calendar-hospital" d="m0 0h32v32h-32z" fill="none"/><path d="m22.992 5.005v-.999c.01-.529.4-.976.978-.999h.04c.529.021.968.42.979.999v.999h1.002c.036 0 .036 0 .071.001 1.526.047 2.892 1.363 2.922 2.958.036 6.006 0 12.012 0 18.017-.009 1.557-1.348 2.964-2.959 2.993-6.672.041-13.344.001-20.015.001-1.556-.01-2.963-1.339-2.993-2.959-.038-6.006-.001-12.012-.001-18.018.01-1.563 1.362-2.983 2.994-2.993h1.001v-.999c.011-.529.401-.976.979-.999h.04c.529.021.967.42.979.999v3.995c-.015.771-1.06 1.292-1.669.74-.206-.186-.323-.464-.329-.74v-1c-.337-.001-.674-.001-1.011.001-.517.01-.976.464-.986.986-.037 6.001-.037 12.002 0 18.003.01.516.465.976.986.986 6.667.041 13.334.041 20 0 .512-.009.97-.455.986-.974.111-6.004.037-12.01 0-18.015-.009-.519-.456-.983-1.001-.986h-.996v.999c-.017.869-1.399 1.4-1.886.459-.055-.106-.09-.222-.104-.34-.005-.04-.007-.079-.007-.119v-.999h-5.993v.999c-.017.869-1.399 1.4-1.886.459-.055-.106-.09-.222-.104-.34-.005-.04-.007-.079-.008-.119v-.999h-2.996c-.084-.004-.106-.002-.189-.018-.784-.151-1.114-1.433-.268-1.868.14-.073.297-.104.457-.111h2.996v-.999c.011-.529.401-.976.979-.999h.04c.529.021.968.42.979.999v.999zm-7.991 11.985v-2.997c.006-.182.023-.232.057-.329.123-.353.455-.621.83-.663.108-.012.134-.006.168-.005.182.016.232.035.326.075.328.135.571.455.611.811.005.049.005.062.006.111v2.997h2.996c.019 0 .038.001.056.001.229.019.302.054.427.123.578.32.678 1.276.095 1.689-.168.119-.373.178-.578.184h-2.996v2.996c-.006.23-.037.305-.099.434-.295.612-1.285.749-1.714.144-.119-.167-.179-.372-.185-.578v-2.996h-2.996c-.229-.006-.304-.037-.433-.099-.607-.292-.754-1.282-.145-1.714.168-.119.373-.179.578-.184z" fill-rule="nonzero"/></svg>