<svg clip-rule="evenodd" fill-rule="evenodd" height="512" stroke-linejoin="round" stroke-miterlimit="2" viewBox="0 0 24 24" width="512" xmlns="http://www.w3.org/2000/svg"><g id="Icon"><path d="m20.75 5.521c0-.2-.08-.391-.221-.532-.142-.141-.334-.219-.533-.218-.733.004-1.436-.284-1.955-.8-.52-.516-.812-1.218-.812-1.95 0-.2-.079-.391-.221-.532s-.333-.219-.533-.218l-1.477.008h-5.996s-1.477-.008-1.477-.008c-.2-.001-.391.077-.533.218s-.221.332-.221.532c0 .732-.292 1.434-.812 1.95-.519.516-1.222.804-1.955.8-.199-.001-.391.077-.533.218-.141.141-.221.332-.221.532v7.584c0 3.314 1.873 6.344 4.837 7.826 1.278.639 2.499 1.249 3.13 1.565.493.247 1.073.247 1.566 0 .631-.316 1.852-.926 3.13-1.565 2.964-1.482 4.837-4.512 4.837-7.826 0-2.454 0-5.36 0-7.584zm-1.5.687v6.897c0 2.746-1.552 5.256-4.008 6.484l-3.13 1.566c-.071.035-.153.035-.224 0l-3.13-1.566c-2.456-1.228-4.008-3.738-4.008-6.484v-6.897c.852-.149 1.645-.555 2.267-1.173s1.033-1.409 1.186-2.26l.797.004h6.004l.793-.004c.153.851.564 1.642 1.186 2.26s1.415 1.024 2.267 1.173z"/><path d="m17.25 8.65c0-.415-.336-.75-.75-.75h-1.125c-1.094 0-2.143.434-2.917 1.208-.773.773-1.208 1.823-1.208 2.917v1.125c0 .414.336.75.75.75h1.125c1.094 0 2.143-.435 2.917-1.209.773-.773 1.208-1.822 1.208-2.916zm-1.5.75v.375c0 .696-.277 1.363-.769 1.856-.492.492-1.16.769-1.856.769h-.375v-.375c0-.697.277-1.364.769-1.857.492-.492 1.16-.768 1.856-.768z"/><path d="m7.5 7.9c-.414 0-.75.335-.75.75v1.125c0 1.094.435 2.143 1.208 2.916.774.774 1.823 1.209 2.917 1.209h1.125c.414 0 .75-.336.75-.75v-1.125c0-1.094-.435-2.144-1.208-2.917-.774-.774-1.823-1.208-2.917-1.208zm.75 1.5h.375c.696 0 1.364.276 1.856.768.492.493.769 1.16.769 1.857v.375h-.375c-.696 0-1.364-.277-1.856-.769-.492-.493-.769-1.16-.769-1.856z"/><path d="m11.25 12.9v2.5c0 .414.336.75.75.75s.75-.336.75-.75v-2.5c0-.414-.336-.75-.75-.75s-.75.336-.75.75z"/></g></svg>