<svg clip-rule="evenodd" fill-rule="evenodd" height="512" stroke-linejoin="round" stroke-miterlimit="2" viewBox="0 0 24 24" width="512" xmlns="http://www.w3.org/2000/svg"><g id="Icon"><path d="m11.67 2c0 1.399-.196 2.098-.392 2.798-.224.8-.448 1.601-.448 3.202 0 .414.336.75.75.75s.75-.336.75-.75c0-1.399.196-2.098.392-2.798.224-.8.448-1.601.448-3.202 0-.414-.336-.75-.75-.75s-.75.336-.75.75z"/><path d="m6.67 2c0 1.399-.196 2.098-.392 2.798-.224.8-.448 1.601-.448 3.202 0 .414.336.75.75.75s.75-.336.75-.75c0-1.399.196-2.098.392-2.798.224-.8.448-1.601.448-3.202 0-.414-.336-.75-.75-.75s-.75.336-.75.75z"/><path d="m16.67 2c0 1.399-.196 2.098-.392 2.798-.224.8-.448 1.601-.448 3.202 0 .414.336.75.75.75s.75-.336.75-.75c0-1.399.196-2.098.392-2.798.224-.8.448-1.601.448-3.202 0-.414-.336-.75-.75-.75s-.75.336-.75.75z"/><path d="m20.208 10.75h-16.416c-1.829 0-3.162 1.76-2.643 3.515.835 2.82 2.915 5.106 5.601 6.227v.508c0 .967.784 1.75 1.75 1.75h7c.966 0 1.75-.783 1.75-1.75v-.509c2.686-1.12 4.766-3.406 5.601-6.226.519-1.755-.814-3.515-2.643-3.515zm0 1.5c.829 0 1.44.794 1.205 1.589-.75 2.532-2.686 4.555-5.163 5.431-.3.106-.5.389-.5.707v1.023c0 .138-.112.25-.25.25h-7c-.138 0-.25-.112-.25-.25v-1.023c0-.318-.2-.601-.5-.707-2.477-.876-4.413-2.899-5.163-5.431-.235-.795.376-1.589 1.205-1.589z"/></g></svg>