<svg clip-rule="evenodd" fill-rule="evenodd" stroke-linejoin="round" stroke-miterlimit="2" viewBox="0 0 32 32" xmlns="http://www.w3.org/2000/svg" xmlns:serif="http://www.serif.com/"><path id="battery-saver-green-" d="m0 0h32v32h-32z" fill="none"/><path d="m20.034 7.008c1.54.029 2.929 1.339 2.959 2.96.034 5.353.034 10.706 0 16.06-.028 1.54-1.339 2.929-2.959 2.959-2.689.017-5.379.017-8.068 0-1.547-.028-2.93-1.365-2.959-2.959-.034-5.354-.034-10.707 0-16.06.028-1.546 1.365-2.93 2.959-2.96 2.689-.017 5.379-.017 8.068 0zm-8.027 1.998c-.522.003-.993.456-1.002.987-.033 5.34-.099 10.682 0 16.022.016.511.466.965.986.974 2.677.017 5.354.05 8.03 0 .511-.016.965-.466.974-.986.033-5.341.099-10.683 0-16.023-.016-.512-.469-.964-.986-.974-2.668-.017-5.335 0-8.002 0zm2.994 7.993v-1.999c.004-.178.021-.231.057-.331.14-.399.473-.667.966-.667.016 0 .032.001.048.002.178.017.23.038.327.08.357.156.589.455.6.916v1.999h1.998c.016 0 .032 0 .049.001.961.07 1.414 1.961-.049 1.997h-1.998v1.998c-.021.86-1.437 1.428-1.905.421-.041-.088-.069-.181-.083-.277-.007-.047-.009-.096-.01-.144v-1.998h-1.998c-.858-.021-1.384-1.401-.465-1.884.1-.052.209-.088.32-.104.048-.007.096-.009.145-.01zm2.997-11.99h-3.996c-.886-.017-1.382-1.409-.459-1.886.141-.073.297-.108.459-.112 1.345 0 2.691-.026 4.036.001.87.052 1.324 1.418.419 1.886-.141.073-.297.108-.459.111z"/></svg>