<svg viewBox="0 0 32 32" xmlns="http://www.w3.org/2000/svg"><g id="wa_whatsapp_message_communication_chat" data-name="wa, whatsapp, message, communication, chat"><path d="m16 3a13.0037 13.0037 0 0 0 -11.4658 19.1313l-1.5 5.61a.9965.9965 0 0 0 .2627.97 1.0445 1.0445 0 0 0 .9726.2515l5.9151-1.6553a1 1 0 0 0 -.5391-1.9258l-4.2266 1.1828 1.1511-4.3072a1 1 0 0 0 -.1006-.7588 11.002 11.002 0 1 1 9.5306 5.5015 11.1474 11.1474 0 0 1 -1.8408-.1533 1 1 0 1 0 -.3321 1.9726 13.1739 13.1739 0 0 0 2.1729.1807 13 13 0 0 0 0-26z"/><path d="m15.0439 11.21-1.166-1.6a2.0482 2.0482 0 0 0 -1.5-.8389 2.0832 2.0832 0 0 0 -1.6133.5947l-1.2031 1.2042a2.826 2.826 0 0 0 -.8027 2.0781c.0107 1.7759 1.3613 3.9961 4.0137 6.6 3.09 3.0322 5.2246 3.9985 6.69 3.9985a2.71 2.71 0 0 0 1.9766-.8037l1.1992-1.2a2.0539 2.0539 0 0 0 -.2422-3.1143l-1.6006-1.1665a2.0642 2.0642 0 0 0 -1.8213-.3l-1.4922.4659a7.7076 7.7076 0 0 1 -2.642-2.458c.13-.4365.3545-1.1553.5049-1.6382a2.0547 2.0547 0 0 0 -.301-1.8218zm1.2911 7.6274a2.3131 2.3131 0 0 0 1.7421.1987l1.5411-.4585 1.6074 1.2491-1.1992 1.2c-.4746.4741-2.2471.3335-5.8535-3.2066-2.961-2.9057-3.41-4.4951-3.4141-5.1836a.8852.8852 0 0 1 .22-.6548l1.2832-1.1938 1.1748 1.6475c-.1543.4912-.3818 1.2221-.51 1.6528a2.1233 2.1233 0 0 0 .0781 1.418 11.098 11.098 0 0 0 3.3301 3.3312z"/></g></svg>