<svg clip-rule="evenodd" fill-rule="evenodd" height="512" stroke-linejoin="round" stroke-miterlimit="2" viewBox="0 0 24 24" width="512" xmlns="http://www.w3.org/2000/svg"><g id="Icon"><path d="m17.465 15.714c0-3.019-2.448-5.464-5.464-5.464-3.018 0-5.466 2.445-5.466 5.464 0 1.723.831 3.877 2.122 5.323.932 1.043 2.1 1.713 3.344 1.713 1.243 0 2.41-.67 3.342-1.713 1.291-1.446 2.122-3.6 2.122-5.323zm-1.5 0c0 1.401-.691 3.148-1.74 4.324-.629.703-1.386 1.212-2.224 1.212-.839 0-1.597-.509-2.226-1.213-1.05-1.175-1.74-2.922-1.74-4.323 0-2.19 1.776-3.964 3.966-3.964 2.188 0 3.964 1.774 3.964 3.964z"/><path d="m12.75 11v-4c0-.414-.336-.75-.75-.75s-.75.336-.75.75v4c0 .414.336.75.75.75s.75-.336.75-.75z"/><path d="m12 7.75c.414 0 .75-.336.75-.75v-1.327c0-2.443-1.981-4.423-4.423-4.423h-1.327c-.414 0-.75.335-.75.75v1.327c0 2.442 1.981 4.423 4.423 4.423zm-.75-1.5h-.577c-1.614 0-2.923-1.31-2.923-2.923v-.577h.577c1.614 0 2.923 1.309 2.923 2.923z"/><path d="m17.75 6c0-.414-.336-.75-.75-.75h-2.229c-1.927 0-3.521 1.823-3.521 3.75 0 .414.336.75.75.75h2.229c1.927 0 3.521-1.822 3.521-3.75zm-1.627.75c-.285.829-1.016 1.5-1.894 1.5h-1.351c.284-.829 1.015-1.5 1.893-1.5z"/></g></svg>