<svg clip-rule="evenodd" fill-rule="evenodd" height="512" stroke-linejoin="round" stroke-miterlimit="2" viewBox="0 0 24 24" width="512" xmlns="http://www.w3.org/2000/svg"><g id="Icon"><path d="m12.75 14.762v-7c0-.414-.336-.75-.75-.75s-.75.336-.75.75v7c0 .414.336.75.75.75s.75-.336.75-.75z"/><path d="m6.772 2.649c-.259.069-.462.272-.531.531-.423 1.585-.013 3.346 1.229 4.588s3.003 1.652 4.588 1.229c.259-.069.462-.272.531-.531.423-1.584.013-3.345-1.229-4.587s-3.003-1.653-4.588-1.23zm.832 1.363c.959-.117 1.96.192 2.695.927s1.044 1.736.927 2.695c-.959.117-1.96-.192-2.695-.927s-1.044-1.736-.927-2.695z"/><path d="m17.759 3.18c-.069-.259-.272-.462-.531-.531-1.585-.423-3.346-.012-4.588 1.23s-1.652 3.003-1.229 4.587c.069.259.272.462.531.531 1.585.423 3.346.013 4.588-1.229s1.652-3.003 1.229-4.588zm-1.363.832c.117.959-.192 1.96-.927 2.695s-1.736 1.044-2.695.927c-.117-.959.192-1.96.927-2.695s1.736-1.044 2.695-.927z"/><path d="m21.996 13.989s-3.094.018-4.385.022c-1.211-1.808-3.273-2.999-5.611-2.999s-4.401 1.191-5.612 3h-4.388c-.414 0-.75.336-.75.75s.336.75.75.75h4.804c.267 0 .515-.143.649-.374.908-1.569 2.605-2.626 4.547-2.626s3.639 1.057 4.547 2.626c.134.231.382.374.649.374.805 0 4.808-.023 4.808-.023.414-.002.748-.34.746-.754s-.34-.748-.754-.746z"/><path d="m12 14.012c-2.07 0-3.75 1.68-3.75 3.75s1.68 3.75 3.75 3.75 3.75-1.68 3.75-3.75-1.68-3.75-3.75-3.75zm0 1.5c1.242 0 2.25 1.008 2.25 2.25s-1.008 2.25-2.25 2.25-2.25-1.008-2.25-2.25 1.008-2.25 2.25-2.25z"/><path d="m22 20.012h-5.5c-.414 0-.75.336-.75.75s.336.75.75.75h5.5c.414 0 .75-.336.75-.75s-.336-.75-.75-.75z"/><path d="m7.5 20.012h-5.5c-.414 0-.75.336-.75.75s.336.75.75.75h5.5c.414 0 .75-.336.75-.75s-.336-.75-.75-.75z"/><path d="m17.5 18.512h4.5c.414 0 .75-.336.75-.75s-.336-.75-.75-.75h-4.5c-.414 0-.75.336-.75.75s.336.75.75.75z"/><path d="m2 18.512h4.5c.414 0 .75-.336.75-.75s-.336-.75-.75-.75h-4.5c-.414 0-.75.336-.75.75s.336.75.75.75z"/></g></svg>