<svg clip-rule="evenodd" fill-rule="evenodd" height="512" stroke-linejoin="round" stroke-miterlimit="2" viewBox="0 0 24 24" width="512" xmlns="http://www.w3.org/2000/svg"><g id="Icon"><path d="m21 21.25c.414 0 .75.336.75.75s-.336.75-.75.75h-18c-.414 0-.75-.336-.75-.75s.336-.75.75-.75z"/><path d="m17.75 19v3c0 .414-.336.75-.75.75h-10c-.414 0-.75-.336-.75-.75v-3c0-.966.783-1.75 1.75-1.75h8c.967 0 1.75.784 1.75 1.75zm-1.5 0c0-.138-.112-.25-.25-.25h-8c-.138 0-.25.112-.25.25v2.25h8.5z"/><path d="m22.75 4c0 .967-.784 1.75-1.75 1.75h-3c-.966 0-1.75-.783-1.75-1.75v-2c0-.414.336-.75.75-.75h5c.414 0 .75.336.75.75zm-1.5 0v-1.25h-3.5v1.25c0 .138.112.25.25.25h3c.138 0 .25-.112.25-.25z"/><path d="m7.75 4c0 .967-.784 1.75-1.75 1.75h-3c-.966 0-1.75-.783-1.75-1.75v-2c0-.414.336-.75.75-.75h5c.414 0 .75.336.75.75zm-1.5 0v-1.25h-3.5v1.25c0 .138.112.25.25.25h3c.138 0 .25-.112.25-.25z"/><path d="m14.75 11.5v6.5c0 .414-.336.75-.75.75h-4c-.414 0-.75-.336-.75-.75v-6.5c0-.332.132-.649.366-.884.235-.234.553-.366.884-.366h3c.331 0 .649.132.884.366.234.235.366.552.366.884zm-4 .25v5.5h2.5v-5.5z"/><path d="m12.75 11c0 .414-.336.75-.75.75s-.75-.336-.75-.75v-6c0-.995.395-1.948 1.098-2.652.704-.703 1.657-1.098 2.652-1.098h7c.414 0 .75.336.75.75s-.336.75-.75.75h-7c-.597 0-1.169.237-1.591.659s-.659.994-.659 1.591z"/><path d="m12.75 11c0 .414-.336.75-.75.75s-.75-.336-.75-.75v-6c0-.597-.237-1.169-.659-1.591s-.994-.659-1.591-.659h-7c-.414 0-.75-.336-.75-.75s.336-.75.75-.75h7c.995 0 1.948.395 2.652 1.098.703.704 1.098 1.657 1.098 2.652z"/></g></svg>