<svg clip-rule="evenodd" fill-rule="evenodd" height="512" stroke-linejoin="round" stroke-miterlimit="2" viewBox="0 0 24 24" width="512" xmlns="http://www.w3.org/2000/svg"><g id="Icon"><path d="m17.167 19.25c1.012 0 1.833-.819 1.833-1.833v-10.834c0-1.013-.821-1.833-1.833-1.833h-10.834c-1.012 0-1.833.82-1.833 1.833v10.834c0 1.014.821 1.833 1.833 1.833zm0-1.5h-10.834c-.184 0-.333-.149-.333-.333v-10.834c0-.184.149-.333.333-.333h10.834c.184 0 .333.149.333.333v10.834c0 .184-.149.333-.333.333z"/><path d="m17.25 6.25c.248 0 .48-.123.62-.328.139-.205.169-.465.078-.696l-1.115-2.837c-.238-.609-1.045-1.139-2.032-1.139h-6.102c-.987 0-1.794.53-2.032 1.14 0-.001-1.115 2.836-1.115 2.836-.091.231-.061.491.078.696.14.205.372.328.62.328zm-1.101-1.5h-8.798l.713-1.813c.016-.042.072-.055.122-.08.143-.071.322-.107.513-.107h6.102c.191 0 .37.036.513.107.05.025.106.038.122.08z"/><path d="m6.25 17.75c-.248 0-.48.123-.62.328-.139.205-.169.466-.078.696l1.115 2.837c.238.61 1.045 1.139 2.032 1.139h6.102c.987 0 1.794-.529 2.032-1.14 0 .001 1.115-2.836 1.115-2.836.091-.23.061-.491-.078-.696-.14-.205-.372-.328-.62-.328zm1.101 1.5h8.798l-.713 1.814c-.016.041-.072.054-.122.079-.143.071-.322.107-.513.107h-6.102c-.191 0-.37-.036-.513-.107-.05-.025-.106-.038-.122-.079z"/><path d="m11.75 9.25c1.518 0 2.75 1.232 2.75 2.75s-1.232 2.75-2.75 2.75-2.75-1.232-2.75-2.75c0-.414-.336-.75-.75-.75s-.75.336-.75.75c0 2.346 1.904 4.25 4.25 4.25s4.25-1.904 4.25-4.25-1.904-4.25-4.25-4.25c-.414 0-.75.336-.75.75s.336.75.75.75z"/><path d="m18 8v3c0 .414.336.75.75.75s.75-.336.75-.75v-3c0-.414-.336-.75-.75-.75s-.75.336-.75.75z"/><path d="m18 13.75v1.5c0 .414.336.75.75.75s.75-.336.75-.75v-1.5c0-.414-.336-.75-.75-.75s-.75.336-.75.75z"/></g></svg>