<svg clip-rule="evenodd" fill-rule="evenodd" height="512" stroke-linejoin="round" stroke-miterlimit="2" viewBox="0 0 24 24" width="512" xmlns="http://www.w3.org/2000/svg"><g id="Icon"><path d="m21.997 9.649c0-.866-.4-1.683-1.083-2.214-1.606-1.25-5.256-4.088-7.192-5.594-1.013-.788-2.431-.788-3.444 0-1.936 1.506-5.586 4.344-7.192 5.594-.683.531-1.083 1.348-1.083 2.214v10.296c0 .744.296 1.457.822 1.983s1.239.822 1.983.822h14.384c.744 0 1.457-.296 1.983-.822s.822-1.239.822-1.983zm-1.5 0v10.296c0 .346-.138.678-.382.923-.245.245-.577.382-.923.382h-14.384c-.346 0-.678-.137-.923-.382-.244-.245-.382-.577-.382-.923v-10.296c0-.403.186-.783.504-1.03 1.606-1.25 5.255-4.088 7.192-5.594.471-.367 1.131-.367 1.602 0 1.937 1.506 5.586 4.344 7.192 5.594.318.247.504.627.504 1.03z"/><path d="m12 18.174c-.552 0-1-.448-1-1s.448-1 1-1 1 .448 1 1-.448 1-1 1" fill-rule="nonzero"/><path d="m10.03 14.932c.502-.502 1.199-.818 1.97-.818s1.468.316 1.97.818c.292.293.768.293 1.06 0 .293-.293.293-.768 0-1.061-.771-.772-1.844-1.257-3.03-1.257s-2.258.485-3.03 1.257c-.293.293-.293.768 0 1.061.292.293.768.293 1.06 0z"/><path d="m7.533 12.429c1.138-1.148 2.718-1.853 4.467-1.853s3.329.705 4.467 1.853c.292.294.767.297 1.061.005.294-.291.296-.766.005-1.06-1.41-1.423-3.367-2.298-5.533-2.298s-4.123.875-5.533 2.298c-.291.294-.289.769.005 1.06.294.292.769.289 1.061-.005z"/></g></svg>