<svg clip-rule="evenodd" fill-rule="evenodd" height="512" stroke-linejoin="round" stroke-miterlimit="2" viewBox="0 0 24 24" width="512" xmlns="http://www.w3.org/2000/svg"><g id="Icon"><path d="m4.469 4.332-.142.142c-1.902 1.937-3.077 4.595-3.077 7.526 0 5.933 4.817 10.75 10.75 10.75 2.933 0 5.594-1.177 7.534-3.085l.139-.139c1.902-1.937 3.077-4.595 3.077-7.526 0-5.933-4.817-10.75-10.75-10.75-2.932 0-5.591 1.176-7.531 3.082zm1.012 1.106.03-.027c1.67-1.645 3.962-2.661 6.489-2.661 5.105 0 9.25 4.145 9.25 9.25 0 2.527-1.016 4.819-2.661 6.489l-.1.1c-1.67 1.645-3.962 2.661-6.489 2.661-5.105 0-9.25-4.145-9.25-9.25 0-2.527 1.016-4.819 2.661-6.489zm.983 1.81c-.157-.157-.375-.236-.596-.217-.221.02-.422.136-.549.318-.92 1.319-1.46 2.923-1.46 4.651 0 4.493 3.648 8.141 8.141 8.141 1.728 0 3.332-.54 4.651-1.46.182-.127.298-.328.318-.549.019-.221-.06-.439-.217-.596zm-.383 1.739 8.932 8.932c-.904.462-1.928.722-3.013.722-3.665 0-6.641-2.976-6.641-6.641 0-1.085.26-2.109.722-3.014zm11.455 7.765c.157.157.375.236.596.217.221-.02.422-.136.549-.318.92-1.319 1.46-2.923 1.46-4.651 0-4.493-3.648-8.141-8.141-8.141-1.728 0-3.332.54-4.651 1.46-.182.127-.298.328-.318.549-.019.221.06.439.217.596zm.383-1.739-8.932-8.932c.904-.462 1.928-.722 3.013-.722 3.665 0 6.641 2.976 6.641 6.641 0 1.085-.26 2.109-.722 3.014zm-13.453-10.678.005-.005z"/></g></svg>