<svg clip-rule="evenodd" fill-rule="evenodd" height="512" stroke-linejoin="round" stroke-miterlimit="2" viewBox="0 0 24 24" width="512" xmlns="http://www.w3.org/2000/svg"><g id="Icon"><path d="m22.75 5.5c0-.729-.29-1.429-.805-1.945-.516-.515-1.216-.805-1.945-.805-3.832 0-12.168 0-16 0-.729 0-1.429.29-1.945.805-.515.516-.805 1.216-.805 1.945v10c0 1.519 1.231 2.75 2.75 2.75h1c.138 0 .25.112.25.25v.919c0 .673.386 1.286.992 1.578.606.291 1.326.209 1.851-.211l3.102-2.481c.044-.036.099-.055.156-.055h8.649c.729 0 1.429-.29 1.945-.805.515-.516.805-1.216.805-1.945zm-1.5 0v10c0 .332-.132.649-.366.884-.235.234-.552.366-.884.366h-8.649c-.398 0-.783.135-1.093.383 0 0-3.102 2.482-3.102 2.482-.075.06-.178.071-.264.03-.087-.042-.142-.13-.142-.226v-.919c0-.967-.783-1.75-1.75-1.75h-1c-.69 0-1.25-.56-1.25-1.25v-10c0-.332.132-.649.366-.884.235-.234.552-.366.884-.366h16c.332 0 .649.132.884.366.234.235.366.552.366.884z"/><path d="m13.074 12.857c-.339-.412-.667-1.132-.564-2.39.166-2.04 2.38-3 2.38-3l.407.62s-1.246.673-1.134 2.223c.075-.01.15-.015.227-.015.894 0 1.62.725 1.62 1.619 0 .893-.726 1.619-1.62 1.619-.238 0-.465-.052-.67-.145-.003 0-.486-.268-.646-.531z"/><path d="m8.574 12.857c-.339-.412-.667-1.132-.564-2.39.166-2.04 2.38-3 2.38-3l.407.62s-1.246.673-1.134 2.223c.075-.01.15-.015.227-.015.894 0 1.62.725 1.62 1.619 0 .893-.726 1.619-1.62 1.619-.238 0-.465-.052-.67-.145-.003 0-.486-.268-.646-.531z"/></g></svg>