<svg clip-rule="evenodd" fill-rule="evenodd" height="512" stroke-linejoin="round" stroke-miterlimit="2" viewBox="0 0 24 24" width="512" xmlns="http://www.w3.org/2000/svg"><g id="Icon"><path d="m12 1.25c-5.933 0-10.75 4.817-10.75 10.75s4.817 10.75 10.75 10.75 10.75-4.817 10.75-10.75-4.817-10.75-10.75-10.75zm0 1.5c5.105 0 9.25 4.145 9.25 9.25s-4.145 9.25-9.25 9.25-9.25-4.145-9.25-9.25 4.145-9.25 9.25-9.25z"/><path d="m11.25 2.023v9.977c0 .414.336.75.75.75s.75-.336.75-.75v-9.977c0-.414-.336-.75-.75-.75s-.75.336-.75.75z"/><path d="m20.425 16.882-8-5.5c-.341-.235-.809-.148-1.043.193-.235.341-.148.809.193 1.043l8 5.5c.341.235.809.148 1.043-.193.235-.341.148-.809-.193-1.043z"/><path d="m4.425 18.118 8-5.5c.341-.234.428-.702.193-1.043-.234-.341-.702-.428-1.043-.193l-8 5.5c-.341.234-.428.702-.193 1.043.234.341.702.428 1.043.193z"/></g></svg>