<svg clip-rule="evenodd" fill-rule="evenodd" height="512" stroke-linejoin="round" stroke-miterlimit="2" viewBox="0 0 24 24" width="512" xmlns="http://www.w3.org/2000/svg"><g id="Icon"><circle cx="13.75" cy="12" r=".75"/><path d="m11.25 10.25c0-.414.336-.75.75-.75s.75.336.75.75-.336.75-.75.75-.75-.336-.75-.75z"/><circle cx="10.25" cy="12" r=".75"/><path d="m11.25 13.75c0-.414.336-.75.75-.75s.75.336.75.75-.336.75-.75.75-.75-.336-.75-.75z"/><path d="m12 6.25c-3.174 0-5.75 2.576-5.75 5.75s2.576 5.75 5.75 5.75 5.75-2.576 5.75-5.75-2.576-5.75-5.75-5.75zm0 1.5c2.346 0 4.25 1.904 4.25 4.25s-1.904 4.25-4.25 4.25-4.25-1.904-4.25-4.25 1.904-4.25 4.25-4.25z"/><path d="m10.25 7.5c0-.888.371-1.843.797-2.674.315-.614.667-1.163.953-1.575.286.412.638.961.953 1.575.426.831.797 1.786.797 2.674 0 .414.336.75.75.75s.75-.336.75-.75c0-2.711-2.674-5.98-2.674-5.98-.142-.171-.353-.27-.576-.27s-.434.099-.576.27c0 0-2.674 3.269-2.674 5.98 0 .414.336.75.75.75s.75-.336.75-.75z"/><path d="m7.623 6.751c-.083-.865-.05-1.711.002-2.328.541.254 1.259.631 1.945 1.111.339.237.807.155 1.044-.184.238-.339.155-.808-.184-1.045-1.515-1.061-3.171-1.669-3.171-1.669-.209-.077-.441-.057-.634.054-.193.112-.326.303-.364.522 0 0-.312 1.803-.131 3.683.04.412.407.715.819.675s.714-.407.674-.819z"/><path d="m7.228 11.266c-.769-.444-1.41-1.243-1.917-2.028-.375-.58-.674-1.159-.888-1.613.5-.041 1.151-.071 1.841-.037.933.047 1.945.202 2.714.646.358.207.817.084 1.024-.274.207-.359.084-.818-.274-1.025-2.348-1.355-6.516-.674-6.516-.674-.219.038-.41.171-.522.364-.111.193-.131.425-.054.634 0 0 1.494 3.95 3.842 5.306.358.207.817.084 1.024-.275.207-.358.084-.817-.274-1.024z"/><path d="m5.111 13.094c-.729-.348-1.385-.764-1.86-1.094.517-.36 1.249-.821 2.057-1.185.377-.169.546-.614.376-.991-.17-.378-.614-.546-.992-.377-1.741.784-3.172 1.977-3.172 1.977-.171.142-.27.353-.27.576s.099.434.27.576c0 0 1.309 1.092 2.946 1.872.374.178.822.019 1-.355.178-.373.019-.821-.355-.999z"/><path d="m8.978 15.766c-.769.444-1.781.599-2.714.646-.69.034-1.341.004-1.841-.038.214-.453.514-1.032.888-1.612.507-.785 1.148-1.584 1.917-2.028.358-.207.481-.666.274-1.024-.207-.359-.666-.482-1.024-.275-2.348 1.356-3.842 5.306-3.842 5.306-.077.209-.057.441.054.634.112.193.303.326.522.364 0 0 4.168.681 6.516-.674.358-.207.481-.666.274-1.025-.207-.358-.666-.481-1.024-.274z"/><path d="m9.675 18.391c-.717.516-1.481.919-2.05 1.186-.052-.617-.085-1.463-.002-2.328.04-.412-.262-.779-.674-.819s-.779.263-.819.675c-.181 1.88.131 3.683.131 3.683.038.219.171.41.364.522.193.111.425.131.634.054 0 0 1.745-.641 3.293-1.755.335-.242.412-.711.17-1.047s-.711-.413-1.047-.171z"/><path d="m8.75 16.5c0 2.711 2.674 5.98 2.674 5.98.142.171.353.27.576.27s.434-.099.576-.27c0 0 2.674-3.269 2.674-5.98 0-.414-.336-.75-.75-.75s-.75.336-.75.75c0 .888-.371 1.843-.797 2.674-.315.614-.667 1.163-.953 1.575-.286-.412-.638-.961-.953-1.575-.426-.831-.797-1.786-.797-2.674 0-.414-.336-.75-.75-.75s-.75.336-.75.75z"/><path d="m13.448 19.609c1.548 1.114 3.293 1.755 3.293 1.755.209.077.441.057.634-.054.193-.112.326-.303.364-.522 0 0 .312-1.803.131-3.683-.04-.412-.407-.715-.819-.675s-.714.407-.674.819c.083.865.05 1.712-.002 2.328-.569-.267-1.333-.67-2.05-1.186-.336-.242-.805-.165-1.047.171s-.165.805.17 1.047z"/><path d="m14.272 17.065c2.348 1.355 6.516.674 6.516.674.219-.038.41-.171.522-.364.111-.193.131-.425.054-.634 0 0-1.494-3.95-3.842-5.306-.358-.207-.817-.084-1.024.275-.207.358-.084.817.274 1.024.769.444 1.41 1.243 1.917 2.028.375.58.674 1.159.888 1.613-.5.041-1.151.071-1.841.037-.933-.047-1.945-.202-2.714-.646-.358-.207-.817-.084-1.024.274-.207.359-.084.818.274 1.025z"/><path d="m19.308 14.553c1.741-.784 3.172-1.977 3.172-1.977.171-.142.27-.353.27-.576s-.099-.434-.27-.576c0 0-1.431-1.193-3.172-1.977-.378-.169-.822-.001-.992.377-.17.377-.001.822.376.991.808.364 1.54.826 2.058 1.185-.518.359-1.25.821-2.058 1.185-.377.169-.546.614-.376.991.17.378.614.546.992.377z"/><path d="m17.522 12.565c2.348-1.356 3.842-5.306 3.842-5.306.077-.209.057-.441-.054-.634-.112-.193-.303-.326-.522-.364 0 0-4.168-.681-6.516.674-.358.207-.481.666-.274 1.025.207.358.666.481 1.024.274.769-.444 1.781-.599 2.714-.646.69-.034 1.341-.004 1.841.038-.214.453-.514 1.032-.888 1.612-.507.785-1.148 1.584-1.917 2.028-.358.207-.481.666-.274 1.024.207.359.666.482 1.024.275z"/><path d="m17.87 6.895c.181-1.88-.131-3.683-.131-3.683-.038-.219-.171-.41-.364-.522-.193-.111-.425-.131-.634-.054 0 0-1.745.641-3.293 1.755-.335.242-.412.711-.17 1.047s.711.413 1.047.171c.717-.516 1.481-.919 2.05-1.186.052.617.085 1.463.002 2.328-.04.412.262.779.674.819s.779-.263.819-.675z"/></g></svg>