<svg clip-rule="evenodd" fill-rule="evenodd" height="512" stroke-linejoin="round" stroke-miterlimit="2" viewBox="0 0 24 24" width="512" xmlns="http://www.w3.org/2000/svg"><g id="Icon"><path d="m2.75 2.5v19c0 .414.336.75.75.75s.75-.336.75-.75v-19c0-.414-.336-.75-.75-.75s-.75.336-.75.75z"/><path d="m19.75 2.5v19c0 .414.336.75.75.75s.75-.336.75-.75v-19c0-.414-.336-.75-.75-.75s-.75.336-.75.75z"/><path d="m2 22.25h3c.414 0 .75-.336.75-.75s-.336-.75-.75-.75h-3c-.414 0-.75.336-.75.75s.336.75.75.75z"/><path d="m19 22.25h3c.414 0 .75-.336.75-.75s-.336-.75-.75-.75h-3c-.414 0-.75.336-.75.75s.336.75.75.75z"/><path d="m20.5 15.75h-17c-.414 0-.75.336-.75.75s.336.75.75.75h17c.414 0 .75-.336.75-.75s-.336-.75-.75-.75z"/><path d="m20.5 7.25h-17c-.414 0-.75.336-.75.75s.336.75.75.75h17c.414 0 .75-.336.75-.75s-.336-.75-.75-.75z"/><path d="m5 16.5c0 .414.336.75.75.75h5c.414 0 .75-.336.75-.75v-5c0-.414-.336-.75-.75-.75h-5c-.414 0-.75.336-.75.75zm1.5-.75v-3.5h3.5v3.5z"/><path d="m5 8c0 .414.336.75.75.75h5c.414 0 .75-.336.75-.75v-5c0-.414-.336-.75-.75-.75h-5c-.414 0-.75.336-.75.75zm1.5-.75v-3.5h3.5v3.5z"/><path d="m12.5 16.5c0 .414.336.75.75.75h5c.414 0 .75-.336.75-.75v-5c0-.414-.336-.75-.75-.75h-5c-.414 0-.75.336-.75.75zm1.5-.75v-3.5h3.5v3.5z"/><path d="m12.5 8c0 .414.336.75.75.75h5c.414 0 .75-.336.75-.75v-5c0-.414-.336-.75-.75-.75h-5c-.414 0-.75.336-.75.75zm1.5-.75v-3.5h3.5v3.5z"/><path d="m7.5 11.5v1.5c0 .414.336.75.75.75s.75-.336.75-.75v-1.5c0-.414-.336-.75-.75-.75s-.75.336-.75.75z"/><path d="m7.5 3v1.5c0 .414.336.75.75.75s.75-.336.75-.75v-1.5c0-.414-.336-.75-.75-.75s-.75.336-.75.75z"/><path d="m15 11.5v1.5c0 .414.336.75.75.75s.75-.336.75-.75v-1.5c0-.414-.336-.75-.75-.75s-.75.336-.75.75z"/><path d="m15 3v1.5c0 .414.336.75.75.75s.75-.336.75-.75v-1.5c0-.414-.336-.75-.75-.75s-.75.336-.75.75z"/></g></svg>