<svg clip-rule="evenodd" fill-rule="evenodd" height="512" stroke-linejoin="round" stroke-miterlimit="2" viewBox="0 0 24 24" width="512" xmlns="http://www.w3.org/2000/svg"><g id="Icon"><path d="m11.25 2v6.5c0 .414.336.75.75.75s.75-.336.75-.75v-6.5c0-.414-.336-.75-.75-.75s-.75.336-.75.75z"/><path d="m4.399 5.459 4.596 4.596c.292.293.768.293 1.06 0 .293-.292.293-.768 0-1.06l-4.596-4.596c-.292-.293-.768-.293-1.06 0-.293.292-.293.768 0 1.06z"/><path d="m2 12.75h6.5c.414 0 .75-.336.75-.75s-.336-.75-.75-.75h-6.5c-.414 0-.75.336-.75.75s.336.75.75.75z"/><path d="m5.459 19.601 4.596-4.596c.293-.292.293-.768 0-1.06-.292-.293-.768-.293-1.06 0l-4.596 4.596c-.293.292-.293.768 0 1.06.292.293.768.293 1.06 0z"/><path d="m12.75 22v-6.5c0-.414-.336-.75-.75-.75s-.75.336-.75.75v6.5c0 .414.336.75.75.75s.75-.336.75-.75z"/><path d="m19.601 18.541-4.596-4.596c-.292-.293-.768-.293-1.06 0-.293.292-.293.768 0 1.06l4.596 4.596c.292.293.768.293 1.06 0 .293-.292.293-.768 0-1.06z"/><path d="m22 11.25h-6.5c-.414 0-.75.336-.75.75s.336.75.75.75h6.5c.414 0 .75-.336.75-.75s-.336-.75-.75-.75z"/><path d="m18.541 4.399-4.596 4.596c-.293.292-.293.768 0 1.06.292.293.768.293 1.06 0l4.596-4.596c.293-.292.293-.768 0-1.06-.292-.293-.768-.293-1.06 0z"/><path d="m8.97 3.03 2.5 2.5c.293.293.767.293 1.06 0l2.5-2.5c.293-.292.293-.768 0-1.06-.292-.293-.768-.293-1.06 0l-1.97 1.969s-1.97-1.969-1.97-1.969c-.292-.293-.768-.293-1.06 0-.293.292-.293.768 0 1.06z"/><path d="m3.515 7.8h3.535c.414 0 .75-.336.75-.75v-3.535c0-.414-.336-.75-.75-.75s-.75.336-.75.75v2.785h-2.785c-.414 0-.75.336-.75.75s.336.75.75.75z"/><path d="m3.03 15.03 2.5-2.5c.293-.293.293-.767 0-1.06l-2.5-2.5c-.292-.293-.768-.293-1.06 0-.293.292-.293.768 0 1.06l1.969 1.97s-1.969 1.97-1.969 1.97c-.293.292-.293.768 0 1.06.292.293.768.293 1.06 0z"/><path d="m7.8 20.485v-3.535c0-.414-.336-.75-.75-.75h-3.535c-.414 0-.75.336-.75.75s.336.75.75.75h2.785v2.785c0 .414.336.75.75.75s.75-.336.75-.75z"/><path d="m10.03 22.03 1.97-1.969s1.97 1.969 1.97 1.969c.292.293.768.293 1.06 0 .293-.292.293-.768 0-1.06l-2.5-2.5c-.293-.293-.767-.293-1.06 0l-2.5 2.5c-.293.292-.293.768 0 1.06.292.293.768.293 1.06 0z"/><path d="m17.7 20.485v-2.785h2.785c.414 0 .75-.336.75-.75s-.336-.75-.75-.75h-3.535c-.414 0-.75.336-.75.75v3.535c0 .414.336.75.75.75s.75-.336.75-.75z"/><path d="m22.03 13.97-1.969-1.97s1.969-1.97 1.969-1.97c.293-.292.293-.768 0-1.06-.292-.293-.768-.293-1.06 0l-2.5 2.5c-.293.293-.293.767 0 1.06l2.5 2.5c.292.293.768.293 1.06 0 .293-.292.293-.768 0-1.06z"/><path d="m20.485 6.3h-2.785v-2.785c0-.414-.336-.75-.75-.75s-.75.336-.75.75v3.535c0 .414.336.75.75.75h3.535c.414 0 .75-.336.75-.75s-.336-.75-.75-.75z"/><path d="m12.375 7.85c-.232-.133-.518-.133-.75 0l-3.031 1.75c-.232.134-.375.382-.375.65v3.5c0 .268.143.516.375.65l3.031 1.75c.232.133.518.133.75 0l3.031-1.75c.232-.134.375-.382.375-.65v-3.5c0-.268-.143-.516-.375-.65zm-.375 1.516 2.281 1.317v2.634s-2.281 1.317-2.281 1.317-2.281-1.317-2.281-1.317v-2.634z"/></g></svg>