<svg clip-rule="evenodd" fill-rule="evenodd" stroke-linejoin="round" stroke-miterlimit="1.414" viewBox="0 0 32 32" xmlns="http://www.w3.org/2000/svg" xmlns:serif="http://www.serif.com/"><path id="exit-out-log-" d="m0 0h32v32h-32z" fill="none"/><path d="m20.244 19.026c.434.128.742.513.764.972v5.999c-.01 1.518-1.263 2.911-2.845 2.991-.038.002-.077.003-.115.004-4.011.026-8.023 0-12.035 0-1.55-.009-2.964-1.325-2.995-2.961-.041-6.676 0-13.352 0-20.028.01-1.558 1.35-2.965 2.961-2.995 4.011-.025 8.023-.001 12.034-.001 1.568.01 2.984 1.349 2.995 2.996v5.999c-.037.768-1.027 1.299-1.654.756-.169-.146-.285-.348-.327-.567-.016-.083-.014-.104-.018-.189 0-2.003.012-4.006 0-6.01-.01-.515-.45-.975-.986-.986-4.006-.025-8.013-.024-12.019 0-.517.01-.977.465-.987.987-.041 6.671-.041 13.343 0 20.013.01.517.465.978.987.987 4.006.025 8.013.026 12.019 0 .52-.01.982-.456.986-1.002v-5.993c.029-.616.6-1.094 1.235-.972zm5.347-4.026-2.292-2.291s-.314-.346-.291-.763c.026-.466.42-.884.886-.937.108-.012.134-.006.168-.005.245.021.472.123.651.292l3.997 3.997c.126.133.15.181.194.273.162.336.117.762-.119 1.057-.024.031-.035.042-.055.063-.005.006-.01.011-.015.016l-.005.005-3.997 3.997c-.553.523-1.658.19-1.705-.65-.013-.243.065-.49.217-.68.031-.039.04-.047.074-.083l2.292-2.292h-15.577c-.714-.029-1.255-.905-.837-1.546.151-.231.401-.394.673-.439.072-.012.091-.011.164-.014z" fill-rule="nonzero"/></svg>