<svg clip-rule="evenodd" fill-rule="evenodd" height="512" stroke-linejoin="round" stroke-miterlimit="2" viewBox="0 0 24 24" width="512" xmlns="http://www.w3.org/2000/svg"><g id="Icon"><path d="m19.342 8.35.8 12c.041.622-.177 1.232-.602 1.687-.426.455-1.021.713-1.643.713h-11.794c-.622 0-1.217-.258-1.643-.713-.425-.455-.643-1.065-.602-1.687l.8-12c.079-1.182 1.061-2.1 2.245-2.1h10.194c1.184 0 2.166.918 2.245 2.1zm-1.497.1c-.026-.394-.353-.7-.748-.7h-10.194c-.395 0-.722.306-.748.7l-.8 12c-.014.207.059.411.201.562.141.152.34.238.547.238h11.794c.207 0 .406-.086.547-.238.142-.151.215-.355.201-.562z"/><path d="m16.25 7c0 .414-.336.75-.75.75s-.75-.336-.75-.75v-1.5c0-1.519-1.231-2.75-2.75-2.75s-2.75 1.231-2.75 2.75v1.5c0 .414-.336.75-.75.75s-.75-.336-.75-.75v-1.5c0-2.347 1.903-4.25 4.25-4.25s4.25 1.903 4.25 4.25z"/><path d="m14.486 10.678c.177-.374.625-.533.999-.355.374.177.533.625.356.999-.682 1.436-2.146 2.428-3.841 2.428s-3.159-.992-3.841-2.428c-.177-.374-.018-.822.356-.999.374-.178.822-.019.999.355.442.929 1.389 1.572 2.486 1.572s2.044-.643 2.486-1.572z"/></g></svg>