<svg clip-rule="evenodd" fill-rule="evenodd" height="512" stroke-linejoin="round" stroke-miterlimit="2" viewBox="0 0 24 24" width="512" xmlns="http://www.w3.org/2000/svg"><g id="Icon"><path d="m10.5 6.795c-1.092 0-2.117.547-2.936 1.523-1.086 1.293-1.814 3.374-1.814 5.727s.728 4.434 1.814 5.727c.819.976 1.844 1.523 2.936 1.523.676 0 1.322-.208 1.913-.597.21-.139.337-.374.337-.626v-12.054c0-.252-.127-.487-.337-.626-.591-.389-1.237-.597-1.913-.597zm0 1.5c.26 0 .511.058.75.164v11.172c-.239.106-.49.164-.75.164-.674 0-1.282-.385-1.787-.987-.901-1.073-1.463-2.811-1.463-4.763s.562-3.69 1.463-4.763c.505-.602 1.113-.987 1.787-.987z"/><path d="m13.5 6.795c-.676 0-1.322.208-1.913.597-.21.139-.337.374-.337.626v12.054c0 .252.127.487.337.626.591.389 1.237.597 1.913.597 1.092 0 2.117-.547 2.936-1.523 1.086-1.293 1.814-3.374 1.814-5.727s-.728-4.434-1.814-5.727c-.819-.976-1.844-1.523-2.936-1.523zm0 1.5c.674 0 1.282.385 1.787.987.901 1.073 1.463 2.811 1.463 4.763s-.562 3.69-1.463 4.763c-.505.602-1.113.987-1.787.987-.26 0-.511-.058-.75-.164v-11.172c.239-.106.49-.164.75-.164z"/><path d="m8.559 19.748c.295-.266.332-.714.085-1.024-.86-1.08-1.394-2.778-1.394-4.679s.534-3.599 1.394-4.679c.247-.31.21-.758-.085-1.024-.746-.673-1.625-1.047-2.559-1.047-1.087 0-2.102.508-2.917 1.404-1.098 1.207-1.833 3.149-1.833 5.346s.735 4.139 1.833 5.346c.815.896 1.83 1.404 2.917 1.404.934 0 1.813-.374 2.559-1.047zm-1.535-.731c-.319.178-.663.278-1.024.278-.68 0-1.297-.353-1.807-.913-.888-.977-1.443-2.56-1.443-4.337s.555-3.36 1.443-4.337c.51-.561 1.127-.913 1.807-.913.361 0 .705.1 1.024.278-.78 1.28-1.274 3.033-1.274 4.972s.494 3.692 1.274 4.972z"/><path d="m15.356 18.724c-.247.31-.21.758.085 1.024.746.673 1.625 1.047 2.559 1.047 1.087 0 2.102-.508 2.917-1.404 1.098-1.207 1.833-3.149 1.833-5.346s-.735-4.139-1.833-5.346c-.815-.896-1.83-1.404-2.917-1.404-.934 0-1.813.374-2.559 1.047-.295.266-.332.714-.085 1.024.86 1.08 1.394 2.778 1.394 4.679s-.534 3.599-1.394 4.679zm1.62.293c.78-1.28 1.274-3.033 1.274-4.972s-.494-3.692-1.274-4.972c.319-.178.663-.278 1.024-.278.68 0 1.297.352 1.807.913.888.977 1.443 2.56 1.443 4.337s-.555 3.36-1.443 4.337c-.51.56-1.127.913-1.807.913-.361 0-.705-.1-1.024-.278z"/><path d="m11.212 7.782s.691-2.074 1.135-3.406c.023-.069.074-.124.141-.152s.143-.025.208.007l.324.162c.096.049.151.153.136.259 0 0-.398 2.787-.398 2.787-.059.41.226.79.636.848.41.059.79-.226.848-.636l.399-2.786c.106-.746-.277-1.476-.95-1.813l-.324-.162c-.454-.227-.984-.246-1.453-.052-.468.194-.83.582-.99 1.064-.444 1.332-1.136 3.406-1.136 3.406-.13.392.082.818.475.948.393.131.818-.081.949-.474z"/></g></svg>