<svg clip-rule="evenodd" fill-rule="evenodd" height="512" stroke-linejoin="round" stroke-miterlimit="2" viewBox="0 0 24 24" width="512" xmlns="http://www.w3.org/2000/svg"><g id="Icon"><path d="m21 22.75c.966 0 1.75-.782 1.75-1.75v-8c0-.968-.784-1.75-1.75-1.75h-18c-.966 0-1.75.782-1.75 1.75v8c0 .968.784 1.75 1.75 1.75zm0-1.5h-18c-.138 0-.25-.112-.25-.25v-8c0-.138.112-.25.25-.25h18c.138 0 .25.112.25.25v8c0 .138-.112.25-.25.25z"/><path d="m5 14.25c-.414 0-.75.336-.75.75v4c0 .414.336.75.75.75h2c.414 0 .75-.336.75-.75v-4c0-.414-.336-.75-.75-.75zm.75 1.5h.5v2.5h-.5z"/><path d="m10 14.25c-.414 0-.75.336-.75.75v4c0 .414.336.75.75.75h2c.414 0 .75-.336.75-.75v-4c0-.414-.336-.75-.75-.75zm.75 1.5h.5v2.5h-.5z"/><path d="m15 14.25c-.414 0-.75.336-.75.75v4c0 .414.336.75.75.75h2c.414 0 .75-.336.75-.75v-4c0-.414-.336-.75-.75-.75zm.75 1.5h.5v2.5h-.5z"/><path d="m9 8.75c1.518 0 2.75-1.232 2.75-2.75v-2c0-1.518-1.232-2.75-2.75-2.75h-4c-.966 0-1.75.782-1.75 1.75v4c0 .968.784 1.75 1.75 1.75zm0-1.5h-4c-.138 0-.25-.112-.25-.25v-4c0-.138.112-.25.25-.25h4c.69 0 1.25.56 1.25 1.25v2c0 .69-.56 1.25-1.25 1.25z"/><path d="m11 5.75h8c.69 0 1.25.56 1.25 1.25v5c0 .414.336.75.75.75s.75-.336.75-.75v-5c0-1.518-1.232-2.75-2.75-2.75h-8c-.414 0-.75.336-.75.75s.336.75.75.75z"/><path d="m4 7.75c.414 0 .75-.336.75-.75v-4c0-.414-.336-.75-.75-.75h-1.5c-.69 0-1.25.56-1.25 1.25v3c0 .69.56 1.25 1.25 1.25zm-1.25-1.5v-2.5h.5v2.5z"/></g></svg>