<svg clip-rule="evenodd" fill-rule="evenodd" height="512" stroke-linejoin="round" stroke-miterlimit="2" viewBox="0 0 24 24" width="512" xmlns="http://www.w3.org/2000/svg"><g id="Icon"><path d="m6.762 11.719c-.156-.114-.49-.357-.676-.467-.363-.213-.721-.261-1.026-.162-.313.101-.575.351-.744.733-.087.197-.21.576-.269.768-.2-.003-.601-.003-.815.017-.417.041-.736.213-.928.474-.192.263-.257.619-.167 1.03.046.206.169.582.232.771-.165.116-.488.348-.649.492-.311.278-.47.605-.47.936s.159.658.47.937c.161.143.484.375.649.491-.063.189-.186.565-.232.771-.09.411-.025.767.167 1.03.191.262.51.433.928.474.214.021.614.02.815.018.06.191.182.571.269.767.169.382.431.632.744.734.305.099.663.051 1.026-.163.186-.11.52-.352.676-.467.155.114.49.357.676.467.363.214.721.262 1.026.163.313-.102.575-.352.744-.734.087-.197.209-.576.269-.767.2.002.601.003.814-.018.417-.041.736-.212.928-.473 0 0 0-.001.001-.001.192-.262.257-.619.166-1.03-.045-.206-.168-.582-.232-.771.166-.116.489-.348.649-.491.312-.279.47-.606.47-.937s-.158-.658-.47-.936c-.16-.144-.483-.375-.648-.492.063-.189.186-.565.232-.771.09-.411.024-.767-.168-1.029s-.511-.433-.927-.474c-.214-.021-.615-.02-.815-.018-.06-.192-.182-.571-.268-.767-.169-.383-.431-.633-.743-.734-.001 0-.001-.001-.001-.001-.306-.098-.664-.05-1.026.163-.187.11-.522.353-.677.467zm1.174 1.017.047.146c.129.426.329.789.578.969.25.181.658.26 1.103.252l.155-.001-.046.141c-.145.419-.197.831-.101 1.127 0 .001 0 .002.001.003.094.287.378.589.746.843.039.027.086.06.133.095-.047.035-.094.068-.133.095-.368.254-.652.556-.746.844-.001 0-.001.001-.001.001-.096.297-.045.71.1 1.129l.047.141-.155-.001c-.444-.008-.852.07-1.102.25-.25.181-.451.544-.58.97l-.046.145-.127-.092c-.354-.265-.731-.441-1.048-.441-.316 0-.693.176-1.046.441l-.127.093-.047-.146c-.129-.426-.33-.789-.578-.969-.001 0-.001-.001-.002-.001-.249-.18-.657-.258-1.101-.25l-.155.001.046-.142c.145-.419.196-.832.099-1.129-.094-.287-.378-.59-.745-.843-.039-.027-.086-.061-.134-.096.048-.035.095-.068.134-.095.367-.254.651-.556.745-.844.097-.297.046-.71-.099-1.129l-.046-.141.155.001c.444.008.853-.071 1.102-.252h.001c.248-.18.449-.543.578-.969l.047-.145.127.092c.353.265.73.441 1.046.441.317 0 .694-.176 1.048-.441z"/><path d="m14.523 12.591c-.2-.003-.6-.003-.814.017-.418.041-.737.213-.928.474-.192.263-.258.619-.167 1.03.046.206.169.582.232.771-.165.116-.488.348-.649.492-.311.278-.47.605-.47.936s.159.658.47.937c.161.143.483.374.649.491-.064.189-.187.565-.232.772-.091.41-.025.767.167 1.029.191.262.51.433.928.474.213.021.613.02.814.018.06.192.182.571.269.767.169.382.431.632.743.734.307.099.664.05 1.027-.163.186-.11.52-.353.676-.467.156.114.49.357.677.467.362.214.72.262 1.026.163.313-.102.575-.352.744-.734.086-.197.208-.576.268-.767.2.002.601.003.815-.018.417-.041.736-.212.928-.473v-.001c.192-.262.258-.619.167-1.03-.046-.206-.169-.582-.232-.771.165-.116.488-.348.649-.491.311-.279.47-.606.47-.937s-.159-.658-.47-.936c-.161-.144-.483-.375-.649-.492.064-.189.186-.564.232-.77.091-.412.025-.768-.167-1.03s-.511-.433-.928-.474c-.214-.021-.615-.02-.815-.018-.059-.191-.182-.571-.268-.767-.169-.383-.431-.633-.744-.735-.306-.098-.664-.05-1.026.163-.187.11-.521.353-.677.467-.156-.114-.49-.357-.676-.466-.362-.214-.72-.262-1.026-.163-.313.101-.575.351-.744.733-.087.197-.209.576-.269.768zm3.889.145.047.146c.129.426.33.789.579.97.25.18.658.259 1.102.251l.156-.001-.047.141c-.145.419-.197.832-.1 1.128v.002c.095.287.379.589.746.843.039.027.086.06.134.095-.048.035-.095.068-.134.095-.367.254-.651.556-.746.844v.001c-.097.297-.045.71.1 1.129l.047.141-.156-.001c-.444-.008-.851.07-1.101.25-.25.181-.451.544-.58.97l-.047.146-.127-.093c-.354-.265-.731-.441-1.047-.441s-.694.176-1.047.441l-.127.093-.047-.146c-.129-.425-.329-.788-.577-.969-.001 0-.001-.001-.002-.001-.249-.18-.658-.258-1.102-.25l-.155.001.047-.142c.144-.419.196-.831.099-1.128-.094-.288-.378-.591-.745-.844-.04-.027-.086-.061-.134-.096.048-.035.094-.068.134-.095.367-.254.651-.556.745-.844.097-.297.046-.71-.099-1.129l-.047-.141.155.001c.445.008.853-.071 1.103-.252.249-.18.45-.543.579-.969l.046-.145.127.092c.353.265.73.441 1.047.441.316 0 .693-.176 1.047-.441z"/><path d="m2.747 16.373.848-10.273c.066-.953.777-1.735 1.718-1.892 0 0 1.81-.302 1.81-.302.409-.068.685-.455.617-.863s-.455-.684-.863-.616l-1.81.301c-1.624.271-2.85 1.618-2.968 3.26 0 0-.846 10.261-.846 10.261-.035.413.273.775.685.81.413.034.775-.274.809-.686z"/><path d="m22.747 16.249-.846-10.261c-.118-1.642-1.344-2.989-2.968-3.26 0 0-1.81-.301-1.81-.301-.408-.068-.795.208-.863.616s.208.795.617.863l1.81.302c.941.157 1.652.939 1.718 1.892l.848 10.273c.034.412.396.72.809.686.412-.035.72-.397.685-.81z"/></g></svg>