<svg clip-rule="evenodd" fill-rule="evenodd" height="512" stroke-linejoin="round" stroke-miterlimit="2" viewBox="0 0 24 24" width="512" xmlns="http://www.w3.org/2000/svg"><g id="Icon"><path d="m8.5 12.294c-1.827 0-3.298 1.444-3.298 3.206s1.471 3.206 3.298 3.206 3.298-1.444 3.298-3.206-1.471-3.206-3.298-3.206zm0 1.5c.985 0 1.798.757 1.798 1.706s-.813 1.706-1.798 1.706-1.798-.757-1.798-1.706.813-1.706 1.798-1.706z"/><path d="m17.5 4.665c-1.042 0-1.875.83-1.875 1.835s.833 1.835 1.875 1.835 1.875-.83 1.875-1.835-.833-1.835-1.875-1.835zm0 1.5c.2 0 .375.142.375.335s-.175.335-.375.335-.375-.142-.375-.335.175-.335.375-.335z"/><path d="m10.53 8.75c-.106-.3-.39-.5-.707-.5h-2.646c-.317 0-.601.2-.707.5l-.558 1.577c-.254.119-.499.255-.733.409 0-.001-1.716-.327-1.716-.327-.309-.059-.622.081-.784.351l-1.322 2.209c-.17.283-.134.644.087.889l1.135 1.252c-.018.259-.018.521 0 .781 0-.001-1.135 1.251-1.135 1.251-.221.245-.257.606-.087.889l1.322 2.209c.162.27.475.41.784.351l1.716-.326c.234.153.479.289.734.409-.001-.001.557 1.576.557 1.576.106.3.39.5.707.5h2.646c.317 0 .601-.2.707-.5l.558-1.577c.254-.119.499-.255.733-.409 0 .001 1.716.327 1.716.327.309.059.622-.081.784-.351l1.322-2.209c.17-.283.134-.644-.087-.889l-1.135-1.252c.018-.259.018-.521 0-.781 0 .001 1.135-1.251 1.135-1.251.221-.245.257-.606.087-.889l-1.322-2.209c-.162-.27-.475-.41-.784-.351l-1.716.326c-.234-.153-.479-.289-.734-.409.001.001-.557-1.576-.557-1.576zm-1.237 1 .489 1.384c.072.204.228.366.429.446.355.143.69.329.995.554.168.124.381.173.586.134l1.511-.288s.768 1.283.768 1.283-.986 1.086-.986 1.086c-.148.164-.217.385-.187.605.049.362.049.73 0 1.092-.03.22.039.441.187.605l.986 1.086s-.768 1.283-.768 1.283-1.511-.288-1.511-.288c-.205-.039-.418.01-.586.134-.305.225-.64.411-.995.554-.201.08-.357.242-.429.446l-.489 1.384h-1.586s-.489-1.384-.489-1.384c-.072-.204-.228-.366-.429-.446-.355-.143-.69-.329-.995-.554-.168-.124-.381-.173-.586-.134l-1.511.288s-.768-1.283-.768-1.283.986-1.086.986-1.086c.148-.164.217-.385.187-.605-.049-.362-.049-.73 0-1.092.03-.22-.039-.441-.187-.605l-.986-1.086s.768-1.283.768-1.283 1.511.288 1.511.288c.205.039.418-.01.586-.134.305-.225.64-.411.995-.554.201-.08.357-.242.429-.446l.489-1.384z"/><path d="m19.123 1.75c-.106-.3-.39-.5-.707-.5h-1.832c-.317 0-.601.2-.707.5l-.354 1.002c-.126.062-.25.131-.369.206 0 0-1.098-.209-1.098-.209-.309-.059-.622.081-.784.351l-.915 1.529c-.17.284-.134.645.087.889l.721.795c-.006.124-.006.25 0 .375 0-.001-.721.794-.721.794-.221.244-.257.605-.087.889l.915 1.529c.162.27.475.41.784.351l1.098-.209c.119.075.242.143.369.206 0 0 .354 1.002.354 1.002.106.3.39.5.707.5h1.832c.317 0 .601-.2.707-.5l.354-1.002c.126-.062.25-.131.369-.206 0 0 1.098.209 1.098.209.309.059.622-.081.784-.351l.915-1.529c.17-.284.134-.645-.087-.889l-.721-.795c.006-.124.006-.25 0-.375 0 .001.721-.794.721-.794.221-.244.257-.605.087-.889l-.915-1.529c-.162-.27-.475-.41-.784-.351l-1.098.209c-.119-.075-.242-.143-.369-.206 0 0-.354-1.002-.354-1.002zm-1.237 1 .284.805c.072.203.228.365.428.446.228.091.443.21.639.355.168.124.38.172.585.133l.888-.169s.361.603.361.603-.567.625-.567.625c-.149.164-.218.385-.188.605.031.23.031.464 0 .694-.03.22.039.441.188.605l.567.625s-.361.603-.361.603-.888-.169-.888-.169c-.205-.039-.417.009-.585.133-.196.145-.411.264-.639.355-.2.081-.356.243-.428.446l-.284.805h-.772s-.284-.805-.284-.805c-.072-.203-.228-.365-.428-.446-.228-.091-.443-.21-.639-.355-.168-.124-.38-.172-.585-.133l-.888.169s-.361-.603-.361-.603.567-.625.567-.625c.149-.164.218-.385.188-.605-.031-.23-.031-.464 0-.694.03-.22-.039-.441-.188-.605l-.567-.625s.361-.603.361-.603.888.169.888.169c.205.039.417-.009.585-.133.196-.145.411-.264.639-.355.2-.081.356-.243.428-.446l.284-.805z"/></g></svg>