<svg clip-rule="evenodd" fill-rule="evenodd" height="512" stroke-linejoin="round" stroke-miterlimit="2" viewBox="0 0 24 24" width="512" xmlns="http://www.w3.org/2000/svg"><g id="Icon"><path d="m7.775 9.75c-3.587 0-6.5 2.913-6.5 6.5s2.913 6.5 6.5 6.5c3.588 0 6.5-2.913 6.5-6.5s-2.912-6.5-6.5-6.5zm0 1.5c2.76 0 5 2.24 5 5s-2.24 5-5 5c-2.759 0-5-2.24-5-5s2.241-5 5-5z"/><path d="m7.775 9.75c-.584 0-1.165.305-1.65.934-.806 1.045-1.4 3.141-1.4 5.566s.594 4.521 1.4 5.566c.485.629 1.066.934 1.65.934s1.165-.305 1.651-.934c.806-1.045 1.399-3.141 1.399-5.566s-.593-4.521-1.399-5.566c-.486-.629-1.067-.934-1.651-.934zm0 1.5c.089 0 .167.053.247.12.166.138.314.345.453.599.526.965.85 2.526.85 4.281s-.324 3.316-.85 4.281c-.139.254-.287.461-.453.599-.08.067-.158.12-.247.12s-.167-.053-.246-.12c-.167-.138-.315-.345-.453-.599-.527-.965-.851-2.526-.851-4.281s.324-3.316.851-4.281c.138-.254.286-.461.453-.599.079-.067.157-.12.246-.12z"/><path d="m13.071 13.595-10.59-.012c-.414 0-.75.336-.751.75 0 .413.335.75.749.75l10.59.012c.414 0 .751-.336.751-.75.001-.414-.335-.75-.749-.75z"/><path d="m13.071 17.428-10.59-.011c-.414-.001-.75.335-.751.749 0 .414.335.75.749.751l10.59.011c.414 0 .751-.335.751-.749.001-.414-.335-.751-.749-.751z"/><path d="m2.75 8v-4c0-.69.56-1.25 1.25-1.25h6c.414 0 .75-.336.75-.75s-.336-.75-.75-.75c0 0-3.63 0-6 0-1.519 0-2.75 1.231-2.75 2.75v4c0 .414.336.75.75.75s.75-.336.75-.75z"/><path d="m21.25 17.5v2.5c0 .69-.56 1.25-1.25 1.25h-3.5c-.414 0-.75.336-.75.75s.336.75.75.75h3.5c1.519 0 2.75-1.231 2.75-2.75v-2.5c0-.414-.336-.75-.75-.75s-.75.336-.75.75z"/><path d="m13.6 10.007c.775-1.033 2.01-1.701 3.4-1.701 2.346 0 4.25 1.904 4.25 4.25 0 .161-.105.285-.242.403-.162.138-.372.255-.614.359-1.104.475-2.793.639-4.338.522-.412-.031-.773.279-.804.692-.031.412.279.773.692.804 2.124.16 4.471-.194 5.693-.981.726-.469 1.113-1.09 1.113-1.799 0-3.174-2.576-5.75-5.75-5.75-1.88 0-3.55.903-4.6 2.3-.248.331-.181.802.15 1.05.33.249.801.182 1.05-.149z"/><path d="m17 1.25c-1.947 0-3.528 1.581-3.528 3.528s1.581 3.528 3.528 3.528 3.528-1.581 3.528-3.528-1.581-3.528-3.528-3.528zm0 1.5c1.119 0 2.028.909 2.028 2.028s-.909 2.028-2.028 2.028-2.028-.909-2.028-2.028.909-2.028 2.028-2.028z"/></g></svg>