<svg clip-rule="evenodd" fill-rule="evenodd" height="512" stroke-linejoin="round" stroke-miterlimit="2" viewBox="0 0 24 24" width="512" xmlns="http://www.w3.org/2000/svg"><g id="Icon"><path d="m21.358 18.176c-.127-.254-.387-.414-.671-.414h-17.374c-.284 0-.544.16-.671.414l-1.239 2.479c-.225.449-.201.982.063 1.408.264.427.73.687 1.232.687h18.604c.502 0 .968-.26 1.232-.687.264-.426.288-.959.063-1.408 0 0-1.239-2.479-1.239-2.479zm-.14 3.074h-18.436l.995-1.988h16.446zm-1.461-3.849c.26 0 .501-.134.638-.356.136-.221.149-.497.033-.729l-1.396-2.791c-.127-.254-.387-.415-.671-.415h-12.722c-.284 0-.544.161-.671.415l-1.396 2.791c-.116.232-.103.508.033.729.137.222.378.356.638.356zm-1.214-1.5h-13.086s.645-1.291.645-1.291h11.796zm-1.112-3.151c.26 0 .502-.135.638-.356.137-.221.149-.497.033-.729l-1.395-2.791c-.127-.254-.387-.415-.671-.415h-8.072c-.284 0-.544.161-.671.415l-1.395 2.791c-.116.232-.104.508.033.729.136.221.378.356.638.356zm-1.213-1.5h-8.436s.646-1.291.646-1.291h7.144zm-7.994-4.237c-.117.233-.104.509.032.73.137.221.378.356.638.356h6.212c.26 0 .501-.135.638-.356.136-.221.149-.497.032-.73l-2.481-4.963c-.245-.49-.747-.8-1.295-.8s-1.05.31-1.295.8c0 0-2.481 4.963-2.481 4.963zm3.776-4.198 1.892 3.784h-3.784z"/></g></svg>