<svg clip-rule="evenodd" fill-rule="evenodd" height="512" stroke-linejoin="round" stroke-miterlimit="2" viewBox="0 0 24 24" width="512" xmlns="http://www.w3.org/2000/svg"><g id="Icon"><path d="m18 21.25h-12c-.414 0-.75.336-.75.75s.336.75.75.75h12c.414 0 .75-.336.75-.75s-.336-.75-.75-.75z"/><path d="m12.75 22v-3c0-.414-.336-.75-.75-.75s-.75.336-.75.75v3c0 .414.336.75.75.75s.75-.336.75-.75z"/><path d="m16.25 16.5c0-.414-.336-.75-.75-.75h-7c-.414 0-.75.336-.75.75v1.5c0 .464.184.909.513 1.237.328.329.773.513 1.237.513h5c.464 0 .909-.184 1.237-.513.329-.328.513-.773.513-1.237 0-.696 0-1.5 0-1.5zm-1.5.75v.75c0 .066-.026.13-.073.177s-.111.073-.177.073h-5c-.066 0-.13-.026-.177-.073s-.073-.111-.073-.177v-.75z"/><circle cx="12" cy="6.958" r="1"/><path d="m10.95 5.516c.293-.219.656-.349 1.049-.349.394 0 .757.13 1.049.349.331.249.802.182 1.051-.149.248-.331.181-.801-.15-1.05-.543-.408-1.218-.65-1.95-.65-.731 0-1.406.242-1.949.65-.331.249-.398.719-.15 1.05.249.331.72.398 1.05.149z"/><path d="m9.95 3.433c.572-.429 1.281-.683 2.05-.683s1.478.254 2.05.683c.33.249.801.182 1.05-.149.248-.331.181-.801-.15-1.05-.822-.618-1.843-.984-2.95-.984s-2.128.366-2.95.984c-.331.249-.398.719-.15 1.05.249.331.72.398 1.05.149z"/><path d="m12.75 16.5s0-1.884 0-3c0-.994.395-1.948 1.098-2.652.703-.703 1.657-1.098 2.652-1.098.995 0 1.948.395 2.652 1.098.703.704 1.098 1.657 1.098 2.652 0 .414.336.75.75.75s.75-.336.75-.75c0-1.392-.553-2.728-1.538-3.712-.984-.985-2.32-1.538-3.712-1.538-1.393 0-2.728.553-3.713 1.538-.984.984-1.537 2.32-1.537 3.712v3c0 .414.336.75.75.75s.75-.336.75-.75z"/><path d="m12.75 16.5s0-1.884 0-3c0-1.392-.553-2.728-1.537-3.712-.985-.985-2.32-1.538-3.713-1.538-1.392 0-2.728.553-3.712 1.538-.985.984-1.538 2.32-1.538 3.712 0 .414.336.75.75.75s.75-.336.75-.75c0-.995.395-1.948 1.098-2.652.704-.703 1.657-1.098 2.652-1.098.995 0 1.949.395 2.652 1.098.703.704 1.098 1.658 1.098 2.652v3c0 .414.336.75.75.75s.75-.336.75-.75z"/><path d="m20.25 16v2c0 .414.336.75.75.75s.75-.336.75-.75c0 0 0-.837 0-2 0-.414-.336-.75-.75-.75s-.75.336-.75.75z"/><path d="m2.25 16v2c0 .414.336.75.75.75s.75-.336.75-.75c0 0 0-.837 0-2 0-.414-.336-.75-.75-.75s-.75.336-.75.75z"/><path d="m15.75 16.5v-2.772c0-.259.103-.508.286-.692.183-.183.432-.286.692-.286h.002c.414 0 .75-.336.75-.75s-.336-.75-.75-.75c-.001 0-.002 0-.002 0-.658 0-1.288.261-1.753.726-.464.465-.725 1.095-.725 1.752v2.772c0 .414.336.75.75.75s.75-.336.75-.75z"/><path d="m9.75 16.5s0-1.89 0-2.772c0-.657-.261-1.287-.725-1.752-.465-.465-1.095-.726-1.753-.726 0 0-.001 0-.002 0-.414 0-.75.336-.75.75s.336.75.75.75h.002c.26 0 .509.103.692.286.183.184.286.433.286.692v2.772c0 .414.336.75.75.75s.75-.336.75-.75z"/><path d="m17.75 13.77v2.23c0 .414.336.75.75.75s.75-.336.75-.75c0 0 0-1.16 0-2.23 0-.414-.336-.75-.75-.75s-.75.336-.75.75z"/><path d="m4.75 13.77v2.23c0 .414.336.75.75.75s.75-.336.75-.75c0 0 0-1.16 0-2.23 0-.414-.336-.75-.75-.75s-.75.336-.75.75z"/></g></svg>