<svg clip-rule="evenodd" fill-rule="evenodd" height="512" stroke-linejoin="round" stroke-miterlimit="2" viewBox="0 0 24 24" width="512" xmlns="http://www.w3.org/2000/svg"><g id="Icon"><path d="m18 16.614h4l.039-.001c.396-.02.711-.347.711-.749 0-5.933-4.817-10.75-10.75-10.75s-10.75 4.817-10.75 10.75c0 .415.336.75.75.75h4c.414 0 .75-.335.75-.75 0-2.897 2.352-5.25 5.25-5.25s5.25 2.353 5.25 5.25c0 .415.336.75.75.75zm3.22-1.5h-2.511c-.374-3.373-3.237-6-6.709-6s-6.335 2.627-6.709 6l-2.511.001c.382-4.756 4.367-8.501 9.22-8.501s8.837 3.745 9.22 8.5z"/><path d="m11.25 5.864v4c0 .414.336.75.75.75s.75-.336.75-.75v-4c0-.414-.336-.75-.75-.75s-.75.336-.75.75z"/><path d="m18.541 8.263-2.571 2.571c-.293.293-.293.768 0 1.061.292.292.768.292 1.06 0l2.571-2.571c.293-.293.293-.768 0-1.061-.292-.293-.768-.293-1.06 0z"/><path d="m4.399 9.324 2.571 2.571c.292.292.768.292 1.06 0 .293-.293.293-.768 0-1.061l-2.571-2.571c-.292-.293-.768-.293-1.06 0-.293.293-.293.768 0 1.061z"/><path d="m17.293 11.57c.117-.319.005-.678-.274-.873s-.654-.178-.914.041c0 0-4.599 3.909-5.088 4.607-.712 1.017-.464 2.422.553 3.134s2.421.464 3.133-.553c.489-.697 2.59-6.356 2.59-6.356zm-2.422 2.194c-.55 1.435-1.163 2.969-1.396 3.302-.238.339-.706.421-1.045.184s-.421-.705-.184-1.044c.233-.333 1.464-1.434 2.625-2.442z"/></g></svg>