<svg clip-rule="evenodd" fill-rule="evenodd" height="512" stroke-linejoin="round" stroke-miterlimit="2" viewBox="0 0 24 24" width="512" xmlns="http://www.w3.org/2000/svg"><g id="Icon"><path d="m21 17.75c.966 0 1.75-.782 1.75-1.75v-8c0-.968-.784-1.75-1.75-1.75h-18c-.966 0-1.75.782-1.75 1.75v8c0 .968.784 1.75 1.75 1.75zm0-1.5h-18c-.138 0-.25-.112-.25-.25v-8c0-.138.112-.25.25-.25h18c.138 0 .25.112.25.25v8c0 .138-.112.25-.25.25z"/><path d="m5 11.75h14c.414 0 .75-.336.75-.75s-.336-.75-.75-.75h-14c-.414 0-.75.336-.75.75s.336.75.75.75z"/><path d="m17 13.25h-2c-.414 0-.75.336-.75.75s.336.75.75.75h2c.414 0 .75-.336.75-.75s-.336-.75-.75-.75z"/><path d="m9 13.25h-2c-.414 0-.75.336-.75.75s.336.75.75.75h2c.414 0 .75-.336.75-.75s-.336-.75-.75-.75z"/></g></svg>