<svg clip-rule="evenodd" fill-rule="evenodd" height="512" stroke-linejoin="round" stroke-miterlimit="2" viewBox="0 0 24 24" width="512" xmlns="http://www.w3.org/2000/svg"><g id="Icon"><path d="m22.75 4.25c0-.597-.237-1.169-.659-1.591s-.994-.659-1.591-.659h-17c-.597 0-1.169.237-1.591.659s-.659.994-.659 1.591v12c0 .597.237 1.169.659 1.591s.994.659 1.591.659h17c.597 0 1.169-.237 1.591-.659s.659-.994.659-1.591zm-1.5 0v12c0 .199-.079.39-.22.53-.14.141-.331.22-.53.22h-17c-.199 0-.39-.079-.53-.22-.141-.14-.22-.331-.22-.53v-12c0-.199.079-.39.22-.53.14-.141.331-.22.53-.22h17c.199 0 .39.079.53.22.141.14.22.331.22.53z"/><path d="m11.25 17.75v3.5c0 .414.336.75.75.75s.75-.336.75-.75v-3.5c0-.414-.336-.75-.75-.75s-.75.336-.75.75z"/><path d="m7.5 22h9c.414 0 .75-.336.75-.75s-.336-.75-.75-.75h-9c-.414 0-.75.336-.75.75s.336.75.75.75z"/><path d="m6.513 12.073c-.346.598-.351 1.34-.011 1.943.343.61.983.984 1.674.984h7.648c.691 0 1.331-.374 1.674-.984.34-.603.335-1.345-.011-1.943-1.08-1.866-2.755-4.762-3.824-6.609-.346-.599-.98-.964-1.663-.964s-1.317.365-1.663.964zm1.299.751 3.823-6.609c.077-.132.215-.215.365-.215s.288.083.365.215l3.823 6.609c.082.14.083.315.003.456-.075.135-.215.22-.367.22h-7.648c-.152 0-.292-.085-.367-.22-.08-.141-.079-.316.003-.456z"/><circle cx="12" cy="12" r=".75"/><path d="m11.25 8.25v2c0 .414.336.75.75.75s.75-.336.75-.75v-2c0-.414-.336-.75-.75-.75s-.75.336-.75.75z"/></g></svg>