<svg clip-rule="evenodd" fill-rule="evenodd" height="512" stroke-linejoin="round" stroke-miterlimit="2" viewBox="0 0 24 24" width="512" xmlns="http://www.w3.org/2000/svg"><g id="Icon"><path d="m2 22.75h20c.414 0 .75-.336.75-.75s-.336-.75-.75-.75h-20c-.414 0-.75.336-.75.75s.336.75.75.75z"/><path d="m12.75 15v-10.945c0-.414-.336-.75-.75-.75s-.75.336-.75.75v10.945c0 .414.336.75.75.75s.75-.336.75-.75z"/><path d="m19.75 2c0-.414-.336-.75-.75-.75h-1.836c-3.266 0-5.914 2.648-5.914 5.914v.836c0 .414.336.75.75.75h1.836c3.266 0 5.914-2.648 5.914-5.914zm-1.5.75v.086c0 2.438-1.976 4.414-4.414 4.414h-1.086v-.086c0-2.438 1.976-4.414 4.414-4.414z"/><path d="m5 6.25c-.414 0-.75.336-.75.75 0 3.176 2.575 5.75 5.75 5.75h2c.414 0 .75-.336.75-.75 0-3.176-2.575-5.75-5.75-5.75zm.816 1.5h1.184c2.091 0 3.83 1.51 4.184 3.5h-1.184c-2.091 0-3.83-1.51-4.184-3.5z"/><path d="m7.093 17.018c-.413-.173-.867-.268-1.343-.268-1.932 0-3.5 1.568-3.5 3.5 0 .846.301 1.622.801 2.228.143.172.355.272.578.272h16.371c.223 0 .434-.099.577-.271.569-.684.923-1.771.923-2.729 0-2.208-1.792-4-4-4-.488 0-.956.088-1.388.248-1.041-1.076-2.495-1.748-4.112-1.748-2.082 0-3.899 1.11-4.907 2.768zm-.141 1.634c.184.139.422.185.645.125.223-.059.407-.219.497-.431.646-1.523 2.148-2.596 3.906-2.596 1.353 0 2.55.639 3.326 1.626.228.29.634.371.956.191.36-.202.776-.317 1.218-.317 1.38 0 2.5 1.12 2.5 2.5 0 .505-.139 1.069-.389 1.5h-15.593c-.171-.294-.268-.636-.268-1 0-1.104.896-2 2-2 .451 0 .867.149 1.202.402z"/></g></svg>