<svg clip-rule="evenodd" fill-rule="evenodd" height="512" stroke-linejoin="round" stroke-miterlimit="2" viewBox="0 0 24 24" width="512" xmlns="http://www.w3.org/2000/svg"><g id="Icon"><path d="m9.25 20.5 2.267 1.7c.476.357 1.055.55 1.65.55h7.333c.464 0 .909-.184 1.237-.513.329-.328.513-.773.513-1.237v-3.42c0-2.42-1.82-4.453-4.225-4.721-1.258-.139-2.617-.291-3.663-.407-.633-.07-1.112-.605-1.112-1.242v-8.21c0-.967-.784-1.75-1.75-1.75h-8c-.464 0-.909.184-1.237.513-.329.328-.513.773-.513 1.237v18c0 .464.184.909.513 1.237.328.329.773.513 1.237.513h4c.966 0 1.75-.783 1.75-1.75zm2.5-17.5v8.21c0 1.401 1.054 2.578 2.446 2.733 1.046.116 2.406.267 3.663.407 1.646.183 2.891 1.574 2.891 3.23v3.42c0 .066-.026.13-.073.177s-.111.073-.177.073h-7.333c-.271 0-.534-.088-.75-.25-.684-.513-1.875-1.406-2.667-2-.379-.284-.886-.33-1.309-.118s-.691.645-.691 1.118v1c0 .138-.112.25-.25.25h-4c-.066 0-.13-.026-.177-.073s-.073-.111-.073-.177v-18c0-.066.026-.13.073-.177s.111-.073.177-.073h8c.138 0 .25.112.25.25z"/><path d="m2.5 17.25h6.333c.271 0 .534.088.75.25.766.574 2.168 1.626 2.934 2.2.476.357 1.055.55 1.65.55h7.333c.414 0 .75-.336.75-.75s-.336-.75-.75-.75c0 0-5.412 0-7.333 0-.271 0-.534-.088-.75-.25-.766-.574-2.168-1.626-2.934-2.2-.476-.357-1.055-.55-1.65-.55-1.748 0-6.333 0-6.333 0-.414 0-.75.336-.75.75s.336.75.75.75z"/><path d="m12.5 6.25h-3c-.729 0-1.429.29-1.945.805-.515.516-.805 1.216-.805 1.945v.5c0 .332-.132.649-.366.884-.235.234-.552.366-.884.366h-3c-.414 0-.75.336-.75.75s.336.75.75.75h3c.729 0 1.429-.29 1.945-.805.515-.516.805-1.216.805-1.945 0-.166 0-.334 0-.5 0-.332.132-.649.366-.884.235-.234.552-.366.884-.366h3c.414 0 .75-.336.75-.75s-.336-.75-.75-.75z"/></g></svg>