<svg clip-rule="evenodd" fill-rule="evenodd" stroke-linejoin="round" stroke-miterlimit="1.414" viewBox="0 0 32 32" xmlns="http://www.w3.org/2000/svg" xmlns:serif="http://www.serif.com/"><path id="trashcan-delete-remove" d="m0 0h32v32h-32z" fill="none"/><path d="m24.073 11c.503.059.901.484.921.996v13.997c-.01 1.554-1.344 2.965-2.96 2.996-4.012.025-8.025 0-12.037 0-1.568-.01-2.985-1.349-2.995-2.996v-13.997c.018-.478.375-.913.843-.987.517-.082 1.06.306 1.143.831.011.069.01.087.013.156 0 4.669-.03 9.338 0 14.007.01.516.45.976.986.987 4.007.025 8.014.025 12.021 0 .522-.01.983-.464.987-1.003v-13.991c.019-.481.373-.913.843-.987.149-.024.186-.011.235-.009zm-6.04 1.997c.182.016.231.035.327.075.327.136.57.456.61.811.006.05.005.062.007.112v7.997c-.007.229-.037.304-.099.434-.295.611-1.283.754-1.716.144-.119-.168-.179-.373-.185-.578v-7.997c.006-.182.023-.233.057-.33.123-.352.456-.621.831-.663.108-.012.133-.006.168-.005zm-3.958 0c.181.016.231.035.326.075.327.135.571.456.611.811.005.05.005.062.006.112v7.997c-.006.229-.037.304-.099.434-.295.611-1.283.754-1.716.144-.119-.168-.178-.373-.184-.578v-7.997c.005-.182.022-.233.056-.33.123-.352.456-.621.832-.663.108-.012.133-.006.168-.005zm-3.075-5.999v-2.998c.005-.183.022-.233.056-.331.123-.352.456-.62.832-.663.049-.005.062-.005.111-.006h7.997c.019.001.037.001.056.002.182.015.232.035.327.074.328.136.57.456.61.812.006.049.005.062.007.112v2.998h4.997l.088.004c.076.01.096.01.171.03.743.199.982 1.404.241 1.832-.138.079-.215.121-.5.133h-19.991c-.077-.003-.097-.001-.174-.015-.783-.138-1.101-1.402-.326-1.85.139-.08.216-.121.5-.134zm7.996 0v-1.999h-5.997v1.999z" fill-rule="nonzero"/></svg>