<svg clip-rule="evenodd" fill-rule="evenodd" stroke-linejoin="round" stroke-miterlimit="1.414" viewBox="0 0 32 32" xmlns="http://www.w3.org/2000/svg" xmlns:serif="http://www.serif.com/"><path id="empty-battery-power" d="m0 0h32v32h-32z" fill="none"/><path d="m20.036 6.999c1.548.029 2.932 1.366 2.962 2.962.033 5.345 0 10.69 0 16.036-.01 1.557-1.35 2.965-2.962 2.996-2.679.016-5.359 0-8.038 0-1.55-.01-2.965-1.326-2.996-2.962-.033-5.345 0-10.691 0-16.036.01-1.558 1.35-2.966 2.962-2.996 2.691-.017 5.381-.017 8.072 0zm-8.032 1.999c-.522.004-.993.457-1.003.988-.033 5.344-.099 10.689.001 16.032.015.508.46.959.974.975 2.682.05 5.366.05 8.048 0 .508-.016.958-.46.974-.975.1-5.347.1-10.697 0-16.045-.015-.508-.46-.958-.974-.974-2.673-.05-5.347-.001-8.02-.001zm5.995-3.999h-3.998c-.748-.014-1.274-.984-.793-1.609.186-.241.483-.384.793-.39h3.998c.014 0 .027.001.04.001.763.045 1.246 1.068.702 1.67-.187.205-.459.323-.742.328z" fill-rule="nonzero"/></svg>