<svg clip-rule="evenodd" fill-rule="evenodd" height="512" stroke-linejoin="round" stroke-miterlimit="2" viewBox="0 0 24 24" width="512" xmlns="http://www.w3.org/2000/svg"><g id="Icon"><path d="m17 6.75c.968 0 1.75-.782 1.75-1.75v-2c0-.968-.782-1.75-1.75-1.75h-9c-.968 0-1.75.782-1.75 1.75v2c0 .968.782 1.75 1.75 1.75zm0-1.5h-9c-.138 0-.25-.112-.25-.25v-2c0-.138.112-.25.25-.25h9c.138 0 .25.112.25.25v2c0 .138-.112.25-.25.25z"/><path d="m18 4.75h2c.414 0 .75-.336.75-.75s-.336-.75-.75-.75h-2c-.414 0-.75.336-.75.75s.336.75.75.75z"/><path d="m6.833 3.25h-1.833c-.968 0-1.75.782-1.75 1.75v2.307c0 .73.454 1.383 1.134 1.638l6.704 2.514c.098.037.162.13.162.234v2.307c0 .414.336.75.75.75s.75-.336.75-.75v-2.307c0-.73-.454-1.383-1.134-1.638l-6.704-2.514c-.098-.037-.162-.13-.162-.234v-2.307c0-.138.112-.25.25-.25h1.833c.414 0 .75-.336.75-.75s-.336-.75-.75-.75z"/><path d="m13 22.75c.968 0 1.75-.782 1.75-1.75v-6c0-.968-.782-1.75-1.75-1.75h-2c-.968 0-1.75.782-1.75 1.75v6c0 .968.782 1.75 1.75 1.75zm0-1.5h-2c-.138 0-.25-.112-.25-.25v-6c0-.138.112-.25.25-.25h2c.138 0 .25.112.25.25v6c0 .138-.112.25-.25.25z"/></g></svg>