<svg clip-rule="evenodd" fill-rule="evenodd" height="512" stroke-linejoin="round" stroke-miterlimit="2" viewBox="0 0 24 24" width="512" xmlns="http://www.w3.org/2000/svg"><g id="Icon"><path d="m12 1.25c-5.933 0-10.75 4.817-10.75 10.75s4.817 10.75 10.75 10.75 10.75-4.817 10.75-10.75-4.817-10.75-10.75-10.75zm0 1.5c5.105 0 9.25 4.145 9.25 9.25s-4.145 9.25-9.25 9.25-9.25-4.145-9.25-9.25 4.145-9.25 9.25-9.25z"/><path d="m10.75 13.667c0-.332-.132-.65-.366-.884-.235-.235-.552-.366-.884-.366-.769 0-2.231 0-3 0-.332 0-.649.131-.884.366-.234.234-.366.552-.366.884v2c0 .331.132.649.366.884.235.234.552.366.884.366h3c.332 0 .649-.132.884-.366.234-.235.366-.553.366-.884zm-4 1.75h2.5v-1.5h-2.5z"/><path d="m14.75 11.667c0-.332-.132-.65-.366-.884-.235-.235-.552-.366-.884-.366-.769 0-2.231 0-3 0-.332 0-.649.131-.884.366-.234.234-.366.552-.366.884v4c0 .331.132.649.366.884.235.234.552.366.884.366h3c.332 0 .649-.132.884-.366.234-.235.366-.553.366-.884zm-4 .25v3.5h2.5v-3.5z"/><path d="m18.75 15.667v-7.334c0-.331-.132-.649-.366-.884-.235-.234-.553-.366-.884-.366-.769 0-2.231 0-3 0-.331 0-.649.132-.884.366-.234.235-.366.553-.366.884v7.334c0 .331.132.649.366.884.235.234.553.366.884.366h3c.331 0 .649-.132.884-.366.234-.235.366-.553.366-.884zm-4-.25h2.5v-6.834h-2.5z"/></g></svg>