<svg clip-rule="evenodd" fill-rule="evenodd" height="512" stroke-linejoin="round" stroke-miterlimit="2" viewBox="0 0 24 24" width="512" xmlns="http://www.w3.org/2000/svg"><g id="Icon"><path d="m22.31 20.478-1.875-6c-.228-.73-.905-1.228-1.67-1.228-2.548 0-10.982 0-13.53 0-.765 0-1.442.498-1.67 1.228l-1.875 6c-.166.531-.07 1.11.26 1.559.33.448.854.713 1.41.713h17.28c.556 0 1.08-.265 1.41-.713.33-.449.426-1.028.26-1.559zm-1.432.448c.024.075.01.158-.037.222s-.122.102-.201.102h-17.28c-.079 0-.154-.038-.201-.102s-.061-.147-.037-.222c0-.001 1.875-6 1.875-6 .032-.105.129-.176.238-.176h13.53c.109 0 .206.071.238.175z"/><path d="m14.75 7c0-1.518-1.232-2.75-2.75-2.75s-2.75 1.232-2.75 2.75 1.232 2.75 2.75 2.75 2.75-1.232 2.75-2.75zm-1.5 0c0 .69-.56 1.25-1.25 1.25s-1.25-.56-1.25-1.25.56-1.25 1.25-1.25 1.25.56 1.25 1.25z"/><path d="m11.25 2v1c0 .414.336.75.75.75s.75-.336.75-.75v-1c0-.414-.336-.75-.75-.75s-.75.336-.75.75z"/><path d="m7.934 3.995.707.707c.293.293.768.293 1.061 0 .292-.292.292-.768 0-1.06l-.707-.707c-.293-.293-.768-.293-1.061 0-.293.292-.293.768 0 1.06z"/><path d="m7 7.75h1c.414 0 .75-.336.75-.75s-.336-.75-.75-.75h-1c-.414 0-.75.336-.75.75s.336.75.75.75z"/><path d="m8.995 11.066.707-.707c.292-.293.292-.768 0-1.061-.293-.293-.768-.293-1.061 0l-.707.707c-.293.293-.293.768 0 1.061.293.292.768.292 1.061 0z"/><path d="m12.75 12v-1c0-.414-.336-.75-.75-.75s-.75.336-.75.75v1c0 .414.336.75.75.75s.75-.336.75-.75z"/><path d="m16.066 10.005-.707-.707c-.293-.293-.768-.293-1.061 0-.292.293-.292.768 0 1.061l.707.707c.293.292.768.292 1.061 0 .293-.293.293-.768 0-1.061z"/><path d="m17 6.25h-1c-.414 0-.75.336-.75.75s.336.75.75.75h1c.414 0 .75-.336.75-.75s-.336-.75-.75-.75z"/><path d="m15.005 2.935-.707.707c-.292.292-.292.768 0 1.06.293.293.768.293 1.061 0l.707-.707c.293-.292.293-.768 0-1.06-.293-.293-.768-.293-1.061 0z"/><path d="m16 22.75c.215 0 .42-.092.562-.254.143-.161.209-.375.182-.589l-1-8c-.047-.375-.366-.657-.744-.657h-6c-.378 0-.697.282-.744.657l-1 8c-.027.214.039.428.182.589.142.162.347.254.562.254zm-.85-1.5h-6.3s.812-6.5.812-6.5h4.676z"/><path d="m20.75 17.25h-17.5c-.414 0-.75.336-.75.75s.336.75.75.75h17.5c.414 0 .75-.336.75-.75s-.336-.75-.75-.75z"/></g></svg>