<svg clip-rule="evenodd" fill-rule="evenodd" height="512" stroke-linejoin="round" stroke-miterlimit="2" viewBox="0 0 24 24" width="512" xmlns="http://www.w3.org/2000/svg"><g id="Icon"><path d="m14.5 22.731c.966 0 1.75-.783 1.75-1.75v-3c0-.415-.336-.75-.75-.75h-7c-.414 0-.75.335-.75.75v3c0 .967.784 1.75 1.75 1.75zm0-1.5h-5c-.138 0-.25-.112-.25-.25v-2.25h5.5v2.25c0 .138-.112.25-.25.25z"/><path d="m18.033 3.76c.081-.641-.118-1.285-.545-1.768-.427-.484-1.042-.761-1.687-.761h-7.602c-.645 0-1.26.277-1.687.761-.427.483-.626 1.127-.545 1.768.513 4.11 1.789 14.314 1.789 14.314.047.375.366.657.744.657h7c.378 0 .697-.282.744-.657zm-1.488-.186-1.707 13.657h-5.676s-1.707-13.657-1.707-13.657c-.027-.214.04-.429.182-.59s.347-.253.562-.253h7.602c.215 0 .42.092.562.253s.209.376.182.59z"/><path d="m17 4.75h-10c-.414 0-.75.336-.75.75s.336.75.75.75h10c.414 0 .75-.336.75-.75s-.336-.75-.75-.75z"/><path d="m11.25 18v1.5c0 .414.336.75.75.75s.75-.336.75-.75v-1.5c0-.414-.336-.75-.75-.75s-.75.336-.75.75z"/></g></svg>