<svg clip-rule="evenodd" fill-rule="evenodd" height="512" stroke-linejoin="round" stroke-miterlimit="2" viewBox="0 0 24 24" width="512" xmlns="http://www.w3.org/2000/svg"><g id="Icon"><path d="m1.75 11c0-.414.336-.75.75-.75s.75.336.75.75v8c0 .597.237 1.169.659 1.591s.994.659 1.591.659h13c.597 0 1.169-.237 1.591-.659s.659-.994.659-1.591v-8c0-.414.336-.75.75-.75s.75.336.75.75v8c0 .995-.395 1.948-1.098 2.652-.704.703-1.657 1.098-2.652 1.098h-13c-.995 0-1.948-.395-2.652-1.098-.703-.704-1.098-1.657-1.098-2.652z"/><path d="m9.75 22c0 .414-.336.75-.75.75s-.75-.336-.75-.75v-5c0-.464.184-.909.513-1.237.328-.329.773-.513 1.237-.513h4c.464 0 .909.184 1.237.513.329.328.513.773.513 1.237v5c0 .414-.336.75-.75.75s-.75-.336-.75-.75v-5c0-.066-.026-.13-.073-.177s-.111-.073-.177-.073h-4c-.066 0-.13.026-.177.073s-.073.111-.073.177z"/><path d="m9.417 2v7.168c0 2.254-1.828 4.082-4.082 4.082h-.003c-2.254 0-4.082-1.828-4.082-4.082v-4.168c0-2.071 1.679-3.75 3.75-3.75h3.667c.414 0 .75.336.75.75zm-1.5.75h-2.917c-1.243 0-2.25 1.007-2.25 2.25v4.168c0 1.426 1.156 2.582 2.582 2.582h.003c1.426 0 2.582-1.156 2.582-2.582z"/><path d="m16.083 2v7.168c0 2.254-1.827 4.082-4.082 4.082h-.002c-2.255 0-4.082-1.828-4.082-4.082v-7.168c0-.414.335-.75.75-.75h6.666c.415 0 .75.336.75.75zm-1.5.75h-5.166v6.418c0 1.426 1.156 2.582 2.582 2.582h.002c1.426 0 2.582-1.156 2.582-2.582z"/><path d="m22.75 5v4.168c0 2.254-1.828 4.082-4.082 4.082h-.003c-2.254 0-4.082-1.828-4.082-4.082v-7.168c0-.414.336-.75.75-.75h3.667c2.071 0 3.75 1.679 3.75 3.75zm-1.5 0c0-1.243-1.007-2.25-2.25-2.25h-2.917v6.418c0 1.426 1.156 2.582 2.582 2.582h.003c1.426 0 2.582-1.156 2.582-2.582z"/></g></svg>