<svg clip-rule="evenodd" fill-rule="evenodd" stroke-linejoin="round" stroke-miterlimit="2" viewBox="0 0 32 32" xmlns="http://www.w3.org/2000/svg" xmlns:serif="http://www.serif.com/"><path id="brush-art-creativity" d="m0 0h32v32h-32z" fill="none"/><path d="m9.758 18.791c4.949-4.95 9.869-9.93 14.849-14.849.467-.45 1.042-.696 1.73-.691 1.834.034 3.177 2.444 1.925 4.113l-7.604 9.777s-.566.522-1.117.333c-.548-.188-.834-.912-.556-1.426.035-.065.047-.078.09-.138 2.533-3.257 5.161-6.441 7.598-9.77.184-.257.119-.669-.15-.826-.2-.116-.521.07-.521.07l-10.61 10.61c1.289.672 2.31 1.834 2.883 3.299.002.004.004.009.006.014.145.313.142.695-.096 1.014l-3.009 3.869c-.06.197-.128.393-.204.586-.778 1.981-2.478 3.594-4.701 3.908-2.399.339-4.837-.686-6.625-2.155 0 0-.507-.524-.374-1.051.15-.595.933-.744 1.652-1.251 1.847-1.301 2.108-4.208 4.212-5.207.2-.095.408-.171.622-.229zm3.665 4.396c.124-.789-.062-1.554-.756-2.088-.436-.337-1.007-.473-1.554-.472-.47.004-.957.063-1.338.334-1.044.745-1.292 2.218-2.178 3.412-.405.547-.889 1.034-1.437 1.435l-.017.013c1.847 1.044 4.296 1.492 5.933-.144.514-.513.958-1.191 1.197-1.891-.007-.08-.002-.164.014-.252.023-.123.07-.24.136-.347zm.439-5.664-1.327 1.327c1.103.364 2.058 1.144 2.544 2.197l1.12-1.439c-.079-.189-.162-.381-.272-.556-.468-.745-1.215-1.271-2.065-1.529z"/></svg>