<svg clip-rule="evenodd" fill-rule="evenodd" height="512" stroke-linejoin="round" stroke-miterlimit="2" viewBox="0 0 24 24" width="512" xmlns="http://www.w3.org/2000/svg"><g id="Icon"><path d="m2.25 11c0 .31.191.589.481.7s.618.033.826-.198c.416-.462 1.021-.752 1.693-.752s1.277.29 1.693.752c.142.158.345.248.557.248s.415-.09.557-.248c.416-.462 1.021-.752 1.693-.752s1.277.29 1.693.752c.142.158.345.248.557.248s.415-.09.557-.248c.416-.462 1.021-.752 1.693-.752s1.277.29 1.693.752c.142.158.345.248.557.248s.415-.09.557-.248c.416-.462 1.021-.752 1.693-.752s1.277.29 1.693.752c.208.231.536.309.826.198s.481-.39.481-.7c0-5.381-4.369-9.75-9.75-9.75s-9.75 4.369-9.75 9.75zm1.636-1.496c.704-3.84 4.072-6.754 8.114-6.754s7.41 2.914 8.114 6.754c-.423-.164-.883-.254-1.364-.254-.843 0-1.622.276-2.25.742-.628-.466-1.407-.742-2.25-.742s-1.622.276-2.25.742c-.628-.466-1.407-.742-2.25-.742s-1.622.276-2.25.742c-.628-.466-1.407-.742-2.25-.742-.481 0-.941.09-1.364.253z"/><path d="m8.25 10.5c0-2.784.65-5.093 1.694-6.489.583-.78 1.279-1.261 2.056-1.261s1.473.481 2.056 1.261c1.044 1.396 1.694 3.705 1.694 6.489 0 .414.336.75.75.75s.75-.336.75-.75c0-3.176-.802-5.795-1.992-7.388-.907-1.213-2.048-1.862-3.258-1.862s-2.351.649-3.258 1.862c-1.19 1.593-1.992 4.212-1.992 7.388 0 .414.336.75.75.75s.75-.336.75-.75z"/><path d="m16.25 21v-2c0-.464-.184-.909-.513-1.237-.328-.329-.773-.513-1.237-.513-1.331 0-3.669 0-5 0-.464 0-.909.184-1.237.513-.329.328-.513.773-.513 1.237v2c0 .464.184.909.513 1.237.328.329.773.513 1.237.513h5c.464 0 .909-.184 1.237-.513.329-.328.513-.773.513-1.237zm-1.5-2v2c0 .066-.026.13-.073.177s-.111.073-.177.073h-5c-.066 0-.13-.026-.177-.073s-.073-.111-.073-.177v-2c0-.066.026-.13.073-.177s.111-.073.177-.073h5c.066 0 .13.026.177.073s.073.111.073.177z"/><path d="m12.75 18v-7c0-.414-.336-.75-.75-.75s-.75.336-.75.75v7c0 .414.336.75.75.75s.75-.336.75-.75z"/><path d="m12.75 10.5v-8.5c0-.414-.336-.75-.75-.75s-.75.336-.75.75v8.5c0 .414.336.75.75.75s.75-.336.75-.75z"/><path d="m12.631 18.406 4.5-7c.224-.349.123-.813-.225-1.037-.349-.224-.813-.123-1.037.225l-4.5 7c-.224.349-.123.813.225 1.037.349.224.813.123 1.037-.225z"/><path d="m12.631 17.594-4.5-7c-.224-.348-.688-.449-1.037-.225-.348.224-.449.688-.225 1.037l4.5 7c.224.348.688.449 1.037.225.348-.224.449-.688.225-1.037z"/><path d="m12.46 18.592 9-7c.327-.254.386-.726.132-1.052-.254-.327-.726-.386-1.052-.132l-9 7c-.327.254-.386.726-.132 1.052.254.327.726.386 1.052.132z"/><path d="m12.46 17.408-9-7c-.326-.254-.798-.195-1.052.132-.254.326-.195.798.132 1.052l9 7c.326.254.798.195 1.052-.132.254-.326.195-.798-.132-1.052z"/></g></svg>