<svg clip-rule="evenodd" fill-rule="evenodd" height="512" stroke-linejoin="round" stroke-miterlimit="2" viewBox="0 0 24 24" width="512" xmlns="http://www.w3.org/2000/svg"><g id="Icon"><path d="m2 11.25c-.414 0-.75.336-.75.75v10c0 .414.336.75.75.75h10c.414 0 .75-.336.75-.75v-10c0-.414-.336-.75-.75-.75zm.75 1.5h8.5v8.5h-8.5z"/><path d="m12 11.25c-.414 0-.75.336-.75.75v10c0 .414.336.75.75.75h10c.414 0 .75-.336.75-.75v-10c0-.414-.336-.75-.75-.75zm.75 1.5h8.5v8.5h-8.5z"/><path d="m2 1.25c-.414 0-.75.336-.75.75v10c0 .414.336.75.75.75h10c.414 0 .75-.336.75-.75v-10c0-.414-.336-.75-.75-.75zm.75 1.5h8.5v8.5h-8.5z"/></g></svg>