<svg clip-rule="evenodd" fill-rule="evenodd" height="512" stroke-linejoin="round" stroke-miterlimit="2" viewBox="0 0 24 24" width="512" xmlns="http://www.w3.org/2000/svg"><g id="Icon"><path d="m18.25 17.5v1.295c0 .106-.066.2-.166.236l-5.334 1.905v-6.941s5.152-2.208 5.152-2.208c.077-.033.165-.025.236.021.07.046.112.125.112.209v1.483c0 .414.336.75.75.75s.75-.336.75-.75v-1.483c0-.589-.296-1.138-.787-1.461-.491-.324-1.112-.38-1.652-.148-2.042.875-5.606 2.403-5.606 2.403-.276.118-.455.389-.455.689v8.5c0 .244.119.473.318.613.199.141.455.175.684.093 0 0 4.59-1.639 6.337-2.263.696-.248 1.161-.908 1.161-1.648 0-.576 0-1.295 0-1.295 0-.414-.336-.75-.75-.75s-.75.336-.75.75z"/><path d="m4.25 17.5v1.295c0 .74.465 1.4 1.161 1.648 1.747.624 6.337 2.263 6.337 2.263.229.082.485.048.684-.093.199-.14.318-.369.318-.613v-8.5c0-.3-.179-.571-.455-.689 0 0-3.564-1.528-5.606-2.403-.54-.232-1.161-.176-1.652.148-.491.323-.787.872-.787 1.461v1.483c0 .414.336.75.75.75s.75-.336.75-.75v-1.483c0-.084.042-.163.112-.209.071-.046.159-.054.236-.021 0 0 5.152 2.208 5.152 2.208v6.941l-5.334-1.905c-.1-.036-.166-.13-.166-.236v-1.295c0-.414-.336-.75-.75-.75s-.75.336-.75.75z"/><path d="m7.275 11.439c.96-1.609 2.719-2.689 4.728-2.689 1.978 0 3.714 1.047 4.683 2.616.218.352.68.461 1.032.244.353-.218.462-.68.244-1.032-1.233-1.997-3.442-3.328-5.959-3.328-2.556 0-4.794 1.373-6.016 3.421-.212.355-.096.816.26 1.028.355.212.816.096 1.028-.26z"/><path d="m12.003 1.25c-2.07 0-3.75 1.68-3.75 3.75s1.68 3.75 3.75 3.75 3.75-1.68 3.75-3.75-1.68-3.75-3.75-3.75zm0 1.5c1.242 0 2.25 1.008 2.25 2.25s-1.008 2.25-2.25 2.25-2.25-1.008-2.25-2.25 1.008-2.25 2.25-2.25z"/><path d="m19 18c.597 0 1.169-.237 1.591-.659s.659-.994.659-1.591c0-.166 0-.334 0-.5 0-.597-.237-1.169-.659-1.591s-.994-.659-1.591-.659c-.361 0-.723 0-1 0-.69 0-1.25.56-1.25 1.25v2.5c0 .69.56 1.25 1.25 1.25zm-.75-3.5h.75c.199 0 .39.079.53.22.141.14.22.331.22.53v.5c0 .199-.079.39-.22.53-.14.141-.331.22-.53.22h-.75z"/><path d="m5 18h1c.69 0 1.25-.56 1.25-1.25v-2.5c0-.69-.56-1.25-1.25-1.25-.277 0-.639 0-1 0-.597 0-1.169.237-1.591.659s-.659.994-.659 1.591v.5c0 .597.237 1.169.659 1.591s.994.659 1.591.659zm.75-3.5v2h-.75c-.199 0-.39-.079-.53-.22-.141-.14-.22-.331-.22-.53v-.5c0-.199.079-.39.22-.53.14-.141.331-.22.53-.22z"/></g></svg>