<svg clip-rule="evenodd" fill-rule="evenodd" height="512" stroke-linejoin="round" stroke-miterlimit="2" viewBox="0 0 24 24" width="512" xmlns="http://www.w3.org/2000/svg"><g id="Icon"><path d="m14.381 7.388c.171-.739.533-1.471.98-1.918.662-.662 1.737-.662 2.399 0s.662 1.737 0 2.399c-.447.447-1.179.809-1.918.98-.403.094-.655.497-.562.9.094.403.497.655.9.561 1.023-.236 2.022-.762 2.641-1.38 1.247-1.248 1.247-3.273 0-4.521-1.248-1.247-3.273-1.247-4.521 0-.618.619-1.144 1.619-1.38 2.641-.094.403.158.806.561.9.403.093.806-.159.9-.562z"/><path d="m7.82 12.15c-1.023.236-2.022.762-2.641 1.38-1.247 1.248-1.247 3.273 0 4.521 1.248 1.247 3.273 1.247 4.521 0 .618-.619 1.144-1.618 1.38-2.641.094-.403-.158-.806-.561-.899-.403-.094-.806.158-.9.561-.171.739-.533 1.471-.98 1.918-.662.662-1.737.662-2.399 0s-.662-1.737 0-2.399c.447-.447 1.179-.809 1.918-.98.403-.093.655-.497.562-.9-.094-.403-.497-.655-.9-.561z"/><path d="m18.053 12.02c.922-.391 1.751-.929 2.34-1.518 2.116-2.115 2.116-5.55 0-7.665-2.115-2.116-5.55-2.116-7.665 0-.589.589-1.127 1.418-1.518 2.34-.161.381.017.821.398.983s.822-.017.983-.398c.311-.732.729-1.396 1.197-1.865 1.53-1.53 4.015-1.53 5.545 0s1.53 4.015 0 5.545c-.468.468-1.133.886-1.865 1.197-.381.161-.559.602-.398.983.162.381.602.559.983.398z"/><path d="m11.409 16.698c-.311.732-.729 1.397-1.197 1.865-1.53 1.53-4.015 1.53-5.545 0s-1.53-4.015 0-5.545c.468-.468 1.133-.886 1.865-1.197.381-.161.559-.602.398-.983-.162-.381-.602-.559-.983-.398-.922.391-1.751.929-2.34 1.518-2.116 2.115-2.116 5.55 0 7.665 2.115 2.116 5.55 2.116 7.665 0 .589-.589 1.127-1.418 1.518-2.339.161-.382-.017-.822-.398-.984-.381-.161-.822.017-.983.398z"/><path d="m9.51 7.914 5.807 5.806c.761.761 2.05.752 2.875-.072.825-.825.834-2.114.072-2.876 0 0-5.806-5.806-5.806-5.806-.762-.762-2.051-.752-2.875.072-.825.825-.834 2.114-.073 2.876zm1.061-1.061c-.201-.201-.145-.537.072-.754s.554-.273.754-.073c0 0 5.807 5.807 5.807 5.807.2.2.144.537-.073.754s-.553.273-.754.072c0 0-5.806-5.806-5.806-5.806z"/><path d="m5.736 11.688 5.806 5.806c.762.762 2.051.753 2.875-.072.825-.825.834-2.114.073-2.875 0 0-5.807-5.807-5.807-5.807-.761-.761-2.05-.752-2.875.073-.825.824-.834 2.113-.072 2.875zm1.06-1.061c-.2-.2-.144-.537.073-.754s.553-.273.754-.072c0 0 5.806 5.806 5.806 5.806.201.201.145.537-.072.754s-.554.273-.754.073c0 0-5.807-5.807-5.807-5.807z"/><path d="m14.615 18.877c-.641.641-.907 1.209-.948 1.699-.047.566.172 1.093.678 1.6.303.302.858.646 1.514.619.428-.017.913-.179 1.393-.659.021-.021.137-.137.311-.311 2.203-2.204 2.203-5.776 0-7.98-2.603-2.603-7.863-7.863-7.863-7.863-.814-.814-2.135-.814-2.948 0-.814.813-.814 2.134 0 2.948 0 0 7.863 7.863 7.863 7.863.576.575.625 1.459 0 2.084zm1.061 1.061c1.261-1.262 1.161-3.044 0-4.206l-7.864-7.863c-.228-.228-.228-.598 0-.826.229-.229.599-.229.827 0 0 0 5.26 5.26 7.863 7.863 1.618 1.618 1.618 4.241 0 5.858-.174.174-.289.29-.311.311-.14.141-.267.217-.393.222-.173.007-.312-.102-.392-.182-.124-.124-.225-.233-.243-.366-.014-.101.035-.201.107-.32.093-.153.229-.314.406-.491z"/></g></svg>