<svg clip-rule="evenodd" fill-rule="evenodd" height="512" stroke-linejoin="round" stroke-miterlimit="2" viewBox="0 0 24 24" width="512" xmlns="http://www.w3.org/2000/svg"><g id="Icon"><path d="m15 20.75c.966 0 1.75-.782 1.75-1.75s-.784-1.75-1.75-1.75h-6c-.966 0-1.75.782-1.75 1.75s.784 1.75 1.75 1.75zm0-1.5h-6c-.138 0-.25-.112-.25-.25s.112-.25.25-.25h6c.138 0 .25.112.25.25s-.112.25-.25.25z"/><path d="m8.75 7c0-2.07-1.68-3.75-3.75-3.75s-3.75 1.68-3.75 3.75 1.68 3.75 3.75 3.75 3.75-1.68 3.75-3.75zm-1.5 0c0 1.242-1.008 2.25-2.25 2.25s-2.25-1.008-2.25-2.25 1.008-2.25 2.25-2.25 2.25 1.008 2.25 2.25z"/><path d="m22.75 7c0-2.07-1.68-3.75-3.75-3.75s-3.75 1.68-3.75 3.75 1.68 3.75 3.75 3.75 3.75-1.68 3.75-3.75zm-1.5 0c0 1.242-1.008 2.25-2.25 2.25s-2.25-1.008-2.25-2.25 1.008-2.25 2.25-2.25 2.25 1.008 2.25 2.25z"/><path d="m12 8.25c-.921 0-1.751.673-1.975 1.679l-1.757 7.908c-.049.222.005.455.147.632.142.178.358.281.585.281h6c.227 0 .443-.103.585-.281.142-.177.196-.41.147-.632l-1.757-7.908c-.224-1.006-1.054-1.679-1.975-1.679zm0 1.5c.255 0 .449.226.511.505 0 0 1.554 6.995 1.554 6.995h-4.13s1.554-6.995 1.554-6.995c.062-.279.256-.505.511-.505z"/><path d="m11.478 10.306c.011-.028.024-.06.031-.082.071-.228.03-.476-.111-.668-.142-.193-.366-.306-.605-.306h-8.293c-.692 0-1.25.56-1.25 1.25v1c0 .692.558 1.25 1.25 1.25h7.833c.352 0 .656-.244.732-.588zm-1.635.444h-7.093v.5h6.982z"/><path d="m12.523 10.307.412 1.856c.076.343.38.587.732.587h7.833c.69 0 1.25-.56 1.25-1.25v-1c0-.69-.56-1.25-1.25-1.25h-8.293c-.235 0-.456.11-.598.297s-.188.43-.124.656c.008.029.024.071.038.104zm8.727.943v-.5h-7.093l.112.5z"/></g></svg>