<svg clip-rule="evenodd" fill-rule="evenodd" height="512" stroke-linejoin="round" stroke-miterlimit="2" viewBox="0 0 24 24" width="512" xmlns="http://www.w3.org/2000/svg"><g id="Icon"><circle cx="12" cy="15" r=".5"/><circle cx="10" cy="6" r=".75"/><circle cx="14" cy="6" r=".75"/><circle cx="12" cy="18" r=".5"/><path d="m15.864 10.089c1.453 1.145 2.386 2.92 2.386 4.911 0 3.449-2.801 6.25-6.25 6.25s-6.25-2.801-6.25-6.25c0-1.991.933-3.766 2.386-4.911.325-.256.381-.728.124-1.053-.256-.325-.728-.381-1.053-.125-1.8 1.42-2.957 3.62-2.957 6.089 0 4.277 3.473 7.75 7.75 7.75s7.75-3.473 7.75-7.75c0-2.469-1.157-4.669-2.957-6.089-.325-.256-.797-.2-1.053.125-.257.325-.201.797.124 1.053z"/><path d="m13.215 8.016c-.542.223-.874.352-1.213.351-.341-.001-.676-.133-1.222-.353-.383-.155-.821.031-.976.415-.154.384.032.821.416.976.787.318 1.285.46 1.778.462.495.002.995-.138 1.787-.464.383-.157.566-.596.409-.979-.158-.382-.596-.565-.979-.408z"/><path d="m12 1.25c-3.174 0-5.75 2.576-5.75 5.75s2.576 5.75 5.75 5.75 5.75-2.576 5.75-5.75-2.576-5.75-5.75-5.75zm0 1.5c2.346 0 4.25 1.904 4.25 4.25s-1.904 4.25-4.25 4.25-4.25-1.904-4.25-4.25 1.904-4.25 4.25-4.25z"/><path d="m17.35 14.45 5.25-7c.248-.331.181-.802-.15-1.05s-.802-.181-1.05.15l-5.25 7c-.248.331-.181.802.15 1.05s.802.181 1.05-.15z"/><path d="m7.85 13.55-5.25-7c-.248-.331-.719-.398-1.05-.15s-.398.719-.15 1.05l5.25 7c.248.331.719.398 1.05.15s.398-.719.15-1.05z"/><path d="m20 10.75h2c.414 0 .75-.336.75-.75s-.336-.75-.75-.75h-2c-.414 0-.75.336-.75.75s.336.75.75.75z"/><path d="m4 9.25h-2c-.414 0-.75.336-.75.75s.336.75.75.75h2c.414 0 .75-.336.75-.75s-.336-.75-.75-.75z"/><path d="m20.25 10v-3c0-.414-.336-.75-.75-.75s-.75.336-.75.75v3c0 .414.336.75.75.75s.75-.336.75-.75z"/><path d="m5.25 10v-3c0-.414-.336-.75-.75-.75s-.75.336-.75.75v3c0 .414.336.75.75.75s.75-.336.75-.75z"/></g></svg>