<svg clip-rule="evenodd" fill-rule="evenodd" height="512" stroke-linejoin="round" stroke-miterlimit="2" viewBox="0 0 24 24" width="512" xmlns="http://www.w3.org/2000/svg"><g id="Icon"><path d="m10.5 19.75h4.49c1.658 0 3.205-.546 4.452-1.492 1.257-.945 2.203-2.291 2.659-3.87 0-.001 0-.002.001-.003.444-1.568.356-3.247-.244-4.77-.007-.017-.014-.034-.022-.05 0 0-.346-.72-.346-1.525 0-.925.363-1.833 1.04-2.51.215-.214.279-.537.163-.817s-.39-.463-.693-.463h-3.24c-3.098 0-5.698 2.172-6.342 5.078-.09.404.165.805.57.894.404.09.805-.165.894-.57.496-2.234 2.496-3.902 4.878-3.902h1.78c-.362.71-.55 1.496-.55 2.29 0 1.034.4 1.968.48 2.145.472 1.209.542 2.543.189 3.789-.364 1.259-1.118 2.333-2.12 3.087-.001 0-.002.001-.002.002-.993.753-2.226 1.187-3.547 1.187h-4.49c-.414 0-.75.336-.75.75s.336.75.75.75z"/><path d="m5.882 6.251-.024-.001h-.207-.004c-1.28 0-2.475.64-3.185 1.703l-.828 1.244c-.24.36-.384.574-.384 1.393 0 .329.199.891.592 1.352.396.464.963.808 1.568.808 1.459 0 2.859.58 3.892 1.612 0 0 1.297 1.298 1.297 1.298.293.293.768.293 1.061.001.293-.293.293-.768.001-1.061l-1.299-1.3c-1.314-1.312-3.095-2.05-4.952-2.05-.175 0-.312-.147-.426-.282-.112-.13-.219-.368-.234-.402.002-.307.039-.397.132-.537l.828-1.243c.432-.646 1.159-1.036 1.937-1.036h.235c.401 0 .768.227.947.586.435.867 1.32 1.414 2.289 1.414h1.882c2.347 0 4.25 1.902 4.25 4.25s-1.903 4.25-4.25 4.25h-5c-.414 0-.75.336-.75.75s.336.75.75.75h5c3.175 0 5.75-2.574 5.75-5.75s-2.575-5.75-5.75-5.75h-1.882c-.401 0-.768-.227-.947-.586-.435-.867-1.32-1.414-2.289-1.414z"/><path d="m9.75 19v-3c0-.226.039-.452.099-.656.277-.929 1.132-1.594 2.151-1.594.414 0 .75-.336.75-.75s-.336-.75-.75-.75c-1.701 0-3.126 1.115-3.589 2.666v.001c-.1.336-.161.71-.161 1.083v3c0 .414.336.75.75.75s.75-.336.75-.75z"/><path d="m8 13.25h-2c-1.518 0-2.75 1.232-2.75 2.75 0 .414.336.75.75.75s.75-.336.75-.75c0-.69.56-1.25 1.25-1.25h2c.414 0 .75-.336.75-.75s-.336-.75-.75-.75z"/><path d="m5.75 7c0-.69.56-1.25 1.25-1.25.414 0 .75-.336.75-.75s-.336-.75-.75-.75c-1.518 0-2.75 1.232-2.75 2.75 0 .414.336.75.75.75s.75-.336.75-.75z"/><path d="m16.25 12c0 2.713-1.651 5.153-4.172 6.161-.384.153-.571.59-.417.975.153.384.59.571.975.417 3.089-1.236 5.114-4.226 5.114-7.553 0-.414-.336-.75-.75-.75s-.75.336-.75.75z"/></g></svg>