<svg clip-rule="evenodd" fill-rule="evenodd" height="512" stroke-linejoin="round" stroke-miterlimit="2" viewBox="0 0 24 24" width="512" xmlns="http://www.w3.org/2000/svg"><g id="Icon"><circle cx="6" cy="14.5" r="1"/><circle cx="10" cy="14.5" r="1"/><circle cx="14" cy="14.5" r="1"/><circle cx="18" cy="14.5" r="1"/><circle cx="6" cy="18.5" r="1"/><circle cx="18" cy="18.5" r="1"/><path d="m11 10.25h-7c-.729 0-1.429.29-1.945.805-.515.516-.805 1.216-.805 1.945v7c0 .729.29 1.429.805 1.945.516.515 1.216.805 1.945.805h16c.729 0 1.429-.29 1.945-.805.515-.516.805-1.216.805-1.945 0-1.986 0-5.014 0-7 0-.729-.29-1.429-.805-1.945-.293-.292-.768-.292-1.061 0-.293.293-.293.768 0 1.061.234.235.366.552.366.884v7c0 .332-.132.649-.366.884-.235.234-.552.366-.884.366h-16c-.332 0-.649-.132-.884-.366-.234-.235-.366-.552-.366-.884v-7c0-.332.132-.649.366-.884.235-.234.552-.366.884-.366h7c.414 0 .75-.336.75-.75s-.336-.75-.75-.75z"/><path d="m9.5 19.25h5c.414 0 .75-.336.75-.75s-.336-.75-.75-.75h-5c-.414 0-.75.336-.75.75s.336.75.75.75z"/><path d="m17.5 1.25c-2.898 0-5.25 2.352-5.25 5.25 0 1.525.506 5.593.506 5.593.028.229.161.432.359.551.198.118.44.139.655.056 0 0 2.411-.95 3.73-.95 2.898 0 5.25-2.352 5.25-5.25s-2.352-5.25-5.25-5.25zm0 1.5c2.07 0 3.75 1.68 3.75 3.75s-1.68 3.75-3.75 3.75c-.959 0-2.426.425-3.366.734-.146-1.255-.384-3.461-.384-4.484 0-2.07 1.68-3.75 3.75-3.75z"/></g></svg>