<svg clip-rule="evenodd" fill-rule="evenodd" height="512" stroke-linejoin="round" stroke-miterlimit="2" viewBox="0 0 24 24" width="512" xmlns="http://www.w3.org/2000/svg"><g id="Icon"><path d="m20.5 9.5s0-.618 0-1.5c0-3.728-3.022-6.75-6.75-6.75h-3.5c-3.728 0-6.75 3.022-6.75 6.75v1.5c0 .414.336.75.75.75s.75-.336.75-.75c0 0 0-.618 0-1.5 0-2.899 2.351-5.25 5.25-5.25h3.5c2.899 0 5.25 2.351 5.25 5.25v1.5c0 .414.336.75.75.75s.75-.336.75-.75z"/><path d="m4.25 18.75c1.657 0 3-1.343 3-3 0-1.374 0-2.126 0-3.5 0-1.657-1.343-3-3-3s-3 1.343-3 3v3.5c0 1.657 1.343 3 3 3zm0-1.5c-.828 0-1.5-.672-1.5-1.5v-3.5c0-.828.672-1.5 1.5-1.5.828 0 1.5.672 1.5 1.5v3.5c0 .828-.672 1.5-1.5 1.5z"/><path d="m19.75 18.75c1.657 0 3-1.343 3-3 0-1.374 0-2.126 0-3.5 0-1.657-1.343-3-3-3s-3 1.343-3 3v3.5c0 1.657 1.343 3 3 3zm0-1.5c-.828 0-1.5-.672-1.5-1.5v-3.5c0-.828.672-1.5 1.5-1.5.828 0 1.5.672 1.5 1.5v3.5c0 .828-.672 1.5-1.5 1.5z"/><path d="m19 18.502c0 .729-.29 1.428-.805 1.943s-1.214.805-1.943.805c-2.529 0-5.502 0-5.502 0-.414 0-.75.336-.75.75s.336.75.75.75h5.502c1.127 0 2.207-.448 3.004-1.244.796-.797 1.244-1.877 1.244-3.004 0-.414-.336-.75-.75-.75s-.75.336-.75.75z"/></g></svg>