<svg clip-rule="evenodd" fill-rule="evenodd" height="512" stroke-linejoin="round" stroke-miterlimit="2" viewBox="0 0 24 24" width="512" xmlns="http://www.w3.org/2000/svg"><g id="Icon"><path d="m8.5 14.75c0 .414-.336.75-.75.75s-.75-.336-.75-.75v-3.002c0-.596.237-1.168.658-1.59.422-.421.994-.658 1.59-.658h.004c.596 0 1.168.237 1.59.658.421.422.658.994.658 1.59v3.002c0 .414-.336.75-.75.75s-.75-.336-.75-.75v-3.002c0-.198-.079-.389-.219-.529s-.331-.219-.529-.219h-.004c-.198 0-.389.079-.529.219s-.219.331-.219.529z"/><path d="m12.5 14.75v-4.5c0-.414.336-.75.75-.75h1.5c1.243 0 2.25 1.007 2.25 2.25v1.5c0 1.243-1.007 2.25-2.25 2.25h-1.5c-.414 0-.75-.336-.75-.75zm1.5-.75h.75c.414 0 .75-.336.75-.75v-1.5c0-.414-.336-.75-.75-.75h-.75z"/><path d="m10.75 12c.414 0 .75.336.75.75s-.336.75-.75.75h-3c-.414 0-.75-.336-.75-.75s.336-.75.75-.75z"/><path d="m19.75 4v16c0 .729-.29 1.429-.805 1.945-.516.515-1.216.805-1.945.805h-10c-.729 0-1.429-.29-1.945-.805-.515-.516-.805-1.216-.805-1.945v-16c0-.729.29-1.429.805-1.945.516-.515 1.216-.805 1.945-.805h10c.729 0 1.429.29 1.945.805.515.516.805 1.216.805 1.945zm-1.5 0c0-.332-.132-.649-.366-.884-.235-.234-.552-.366-.884-.366h-10c-.332 0-.649.132-.884.366-.234.235-.366.552-.366.884v16c0 .332.132.649.366.884.235.234.552.366.884.366h10c.332 0 .649-.132.884-.366.234-.235.366-.552.366-.884z"/><path d="m16.696 2.279-.748 1.871c-.266.664-.909 1.1-1.625 1.1h-4.646c-.716 0-1.359-.436-1.625-1.1l-.748-1.871c-.093-.232-.065-.493.075-.699.139-.207.372-.33.621-.33h8c.249 0 .482.123.621.33.14.206.168.467.075.699zm-1.804.471h-5.784l.337.843c.038.095.13.157.232.157h4.646c.102 0 .194-.062.232-.157z"/></g></svg>