<svg clip-rule="evenodd" fill-rule="evenodd" height="512" stroke-linejoin="round" stroke-miterlimit="2" viewBox="0 0 24 24" width="512" xmlns="http://www.w3.org/2000/svg"><g id="Icon"><path d="m20.809 16.492c.146-.802-.072-1.628-.594-2.254-.523-.626-1.296-.988-2.111-.988h-12.208c-.815 0-1.588.362-2.111.988-.522.626-.74 1.452-.594 2.254.188 1.036.39 2.149.496 2.732.109.594.626 1.026 1.23 1.026h14.166c.604 0 1.121-.432 1.23-1.026zm-1.935 2.258h-13.748l-.459-2.526c-.067-.365.032-.74.27-1.025.237-.284.589-.449.959-.449h12.208c.37 0 .722.165.959.449.238.285.337.66.27 1.025z"/><path d="m19.235 19.647c.045-.22-.012-.449-.155-.622-.142-.174-.355-.275-.58-.275h-13c-.225 0-.438.101-.58.275-.143.173-.2.402-.155.622l.339 1.693c.163.818.882 1.407 1.716 1.407h10.36c.834 0 1.553-.589 1.716-1.407zm-1.65.603-.159.796c-.024.117-.126.201-.246.201h-10.36c-.12 0-.222-.084-.246-.201 0 0-.159-.796-.159-.796z"/><path d="m8.298 13.736c-.087.23-.055.488.085.691.14.202.371.323.617.323h6c.246 0 .477-.121.617-.323.14-.203.172-.461.085-.691 0 0-1.005-2.633-.013-4.94.407-.947 1.048-2.079 1.372-3.136.267-.872.32-1.705.03-2.405-.257-.618-.771-1.165-1.715-1.53-.763-.295-1.853-.478-3.376-.475-1.523-.003-2.613.18-3.376.475-.944.365-1.458.912-1.715 1.53-.29.7-.237 1.533.03 2.405.324 1.057.965 2.189 1.372 3.136.992 2.307-.013 4.94-.013 4.94zm1.687-.486c.261-1.178.499-3.197-.296-5.046-.388-.903-1.007-1.977-1.316-2.984-.155-.505-.246-.985-.078-1.39.125-.302.409-.528.869-.706.64-.247 1.558-.376 2.835-.374h.002c1.277-.002 2.195.127 2.835.374.46.178.744.404.869.706.168.405.077.885-.078 1.39-.309 1.007-.928 2.081-1.316 2.984-.795 1.849-.557 3.868-.296 5.046z"/></g></svg>