<svg clip-rule="evenodd" fill-rule="evenodd" height="512" stroke-linejoin="round" stroke-miterlimit="2" viewBox="0 0 24 24" width="512" xmlns="http://www.w3.org/2000/svg"><g id="Icon"><g fill-rule="nonzero"><path d="m6 4.5c0 .414-.336.75-.75.75s-.75-.336-.75-.75.336-.75.75-.75.75.336.75.75"/><path d="m8.5 4.5c0 .414-.336.75-.75.75s-.75-.336-.75-.75.336-.75.75-.75.75.336.75.75"/><path d="m11 4.5c0 .414-.336.75-.75.75s-.75-.336-.75-.75.336-.75.75-.75.75.336.75.75"/></g><path d="m22.75 5c0-.995-.395-1.948-1.099-2.652-.703-.703-1.657-1.098-2.651-1.098h-14c-.995 0-1.948.395-2.652 1.098-.703.704-1.098 1.657-1.098 2.652v14c0 .995.395 1.948 1.098 2.652.704.703 1.657 1.098 2.652 1.098h14c.994 0 1.948-.395 2.651-1.098.704-.704 1.099-1.657 1.099-2.652zm-1.5 0v14c0 .597-.237 1.169-.659 1.591s-.994.659-1.591.659h-14c-.597 0-1.169-.237-1.591-.659s-.659-.994-.659-1.591c0-3.776 0-10.224 0-14 0-.597.237-1.169.659-1.591s.994-.659 1.591-.659h14c.597 0 1.169.237 1.591.659s.659.994.659 1.591z"/><path d="m2 7.75h20c.414 0 .75-.336.75-.75s-.336-.75-.75-.75h-20c-.414 0-.75.336-.75.75s.336.75.75.75z"/><path d="m15.75 14.5c0-2.07-1.68-3.75-3.75-3.75s-3.75 1.68-3.75 3.75 1.68 3.75 3.75 3.75 3.75-1.68 3.75-3.75zm-1.5 0c0 1.242-1.008 2.25-2.25 2.25s-2.25-1.008-2.25-2.25 1.008-2.25 2.25-2.25 2.25 1.008 2.25 2.25z"/><path d="m7.536 15.25h1.464c.414 0 .75-.336.75-.75s-.336-.75-.75-.75h-1.464c-.414 0-.75.336-.75.75s.336.75.75.75z"/><path d="m9.373 18.187 1.036-1.035c.293-.293.293-.768 0-1.061s-.768-.293-1.061 0l-1.035 1.036c-.293.292-.293.767 0 1.06s.768.293 1.06 0z"/><path d="m12.75 18.964v-1.464c0-.414-.336-.75-.75-.75s-.75.336-.75.75v1.464c0 .414.336.75.75.75s.75-.336.75-.75z"/><path d="m15.687 17.127-1.035-1.036c-.293-.293-.768-.293-1.061 0s-.293.768 0 1.061l1.036 1.035c.292.293.767.293 1.06 0s.293-.768 0-1.06z"/><path d="m16.464 13.75h-1.464c-.414 0-.75.336-.75.75s.336.75.75.75h1.464c.414 0 .75-.336.75-.75s-.336-.75-.75-.75z"/><path d="m14.627 10.813-1.036 1.035c-.293.293-.293.768 0 1.061s.768.293 1.061 0l1.035-1.036c.293-.292.293-.767 0-1.06s-.768-.293-1.06 0z"/><path d="m11.25 10.036v1.464c0 .414.336.75.75.75s.75-.336.75-.75v-1.464c0-.414-.336-.75-.75-.75s-.75.336-.75.75z"/><path d="m8.313 11.873 1.035 1.036c.293.293.768.293 1.061 0s.293-.768 0-1.061l-1.036-1.035c-.292-.293-.767-.293-1.06 0s-.293.768 0 1.06z"/></g></svg>