<svg clip-rule="evenodd" fill-rule="evenodd" height="512" stroke-linejoin="round" stroke-miterlimit="2" viewBox="0 0 24 24" width="512" xmlns="http://www.w3.org/2000/svg"><g id="Icon"><path d="m22.75 19c0 2.071-1.679 3.75-3.75 3.75h-14c-2.071 0-3.75-1.679-3.75-3.75v-14c0-2.071 1.679-3.75 3.75-3.75h14c2.071 0 3.75 1.679 3.75 3.75zm-1.5 0v-14c0-1.243-1.007-2.25-2.25-2.25h-14c-1.243 0-2.25 1.007-2.25 2.25v14c0 1.243 1.007 2.25 2.25 2.25h14c1.243 0 2.25-1.007 2.25-2.25z"/><path d="m16.75 17.5c0 .967-.784 1.75-1.75 1.75h-6c-.966 0-1.75-.783-1.75-1.75v-11c0-.967.784-1.75 1.75-1.75h6c.966 0 1.75.783 1.75 1.75zm-1.5 0v-11c0-.138-.112-.25-.25-.25h-6c-.138 0-.25.112-.25.25v11c0 .138.112.25.25.25h6c.138 0 .25-.112.25-.25z"/><path d="m12.75 16c0 .414-.336.75-.75.75s-.75-.336-.75-.75v-2c0-.414.336-.75.75-.75s.75.336.75.75z"/></g></svg>