<svg clip-rule="evenodd" fill-rule="evenodd" height="512" stroke-linejoin="round" stroke-miterlimit="2" viewBox="0 0 24 24" width="512" xmlns="http://www.w3.org/2000/svg"><g id="Icon"><path d="m14 22.75c4.28 0 7.75-3.47 7.75-7.75v-3c0-.967-.784-1.75-1.75-1.75-3.151 0-12.849 0-16 0-.966 0-1.75.783-1.75 1.75v3c0 4.28 3.47 7.75 7.75 7.75zm0-1.5h-4c-3.452 0-6.25-2.798-6.25-6.25v-3c0-.138.112-.25.25-.25h16c.138 0 .25.112.25.25v3c0 3.452-2.798 6.25-6.25 6.25z"/><path d="m19.5 21.25h-15c-.414 0-.75.336-.75.75s.336.75.75.75h15c.414 0 .75-.336.75-.75s-.336-.75-.75-.75z"/><path d="m16.25 14.5c0-.414-.336-.75-.75-.75h-7c-.414 0-.75.336-.75.75v1.5c0 .862.342 1.689.952 2.298.609.61 1.436.952 2.298.952h2c.862 0 1.689-.342 2.298-.952.61-.609.952-1.436.952-2.298zm-1.5.75v.75c0 .464-.184.909-.513 1.237-.328.329-.773.513-1.237.513h-2c-.464 0-.909-.184-1.237-.513-.329-.328-.513-.773-.513-1.237v-.75z"/><path d="m18.961 5.249.039.001.032-.004c.144-.02.718-.141.718-.756 0-.057 0-.362 0-.74 0-.663-.263-1.299-.732-1.768s-1.105-.732-1.768-.732c-.001 0-.001 0-.002 0-1.38 0-2.498 1.118-2.498 2.498v11.252c0 .414.336.75.75.75s.75-.336.75-.75v-11.252c0-.551.447-.998.998-.998h.002c.265 0 .52.105.707.293.188.187.293.442.293.707v.75c0 .018.001.036.002.054l.002.023.003.025c.018.145.071.258.141.346.13.173.333.289.563.301z"/></g></svg>