<svg clip-rule="evenodd" fill-rule="evenodd" stroke-linejoin="round" stroke-miterlimit="1.414" viewBox="0 0 32 32" xmlns="http://www.w3.org/2000/svg" xmlns:serif="http://www.serif.com/"><path id="broken-break-bone-accident" d="m0 0h32v32h-32z" fill="none"/><path d="m19.146 15.029c.152.015.298.059.435.132l4.482 2.588s.434-.35.867-.517c1.456-.564 3.307.222 3.884 1.715.563 1.453-.195 3.291-1.707 3.881-.194.076-.139.139-.139.139.213 1.224-.403 2.54-1.479 3.146-1.399.789-3.412.223-4.159-1.266-.291-.581-.386-1.254-.27-1.897l-4.482-2.588c-.644-.401-.617-1.545.179-1.815.228-.077.483-.069.705.023.053.022.066.031.117.058l5.201 3.003c.17.106.19.137.251.206.29.33.281.816.079 1.23-.29.613.205 1.466.947 1.431.656-.03 1.152-.83.855-1.439-.122-.251-.459-.465-.459-.465-.628-.456-.483-1.641.365-1.811.436-.087.808.275 1.257.247.733-.046 1.245-1.092.659-1.696-.427-.44-1.256-.366-1.589.202 0 0-.295.403-.671.477-.193.037-.395.017-.576-.058-.054-.022-.066-.031-.117-.058l-5.201-3.003c-.205-.127-.252-.191-.332-.31-.381-.57.002-1.505.767-1.555.043-.003.087-.002.131 0zm-10.318 4.001c0 .002-.201.52-.492.882-.987 1.225-3.004 1.462-4.249.434-1.234-1.018-1.427-3.064-.336-4.309 0 0-.435-.54-.612-1.087-.323-.999-.073-2.164.636-2.943.553-.609 1.366-.968 2.183-.984h.077c1.227.024 2.372.832 2.793 2.002h5.176c.232.007.301.036.426.095.617.29.76 1.282.162 1.716-.169.123-.376.184-.588.191h-6.005c-.193-.006-.225-.022-.309-.049-.421-.136-.663-.57-.695-1.03-.073-.881-1.64-1.326-1.961-.196-.023.08-.036.164-.038.248-.013.528.439 1.02.996 1.027 0 0 .502.031.776.363.445.538.097 1.532-.64 1.63-.234.031-.481.042-.68.172-.677.446-.487 1.812.523 1.838.531.013 1.023-.444 1.027-1.007 0 0 .048-.473.318-.725.152-.143.35-.236.558-.262.055-.007.069-.006.125-.007h6.005c.773.024 1.309 1.068.73 1.686-.158.168-.376.279-.605.307-.055.007-.069.007-.125.008zm13.211-10.008c.768.032 1.297 1.074.68 1.708l-2.002 2.002c-.554.539-1.684.165-1.708-.68-.008-.271.102-.539.293-.736l2.001-2.001c.075-.073.101-.091.152-.125.109-.073.232-.124.361-.149.061-.013.061-.022.223-.019zm-6.005-2.002c.518.022.965.465.973 1v2.002c-.011.773-1.075 1.308-1.689.728-.197-.187-.309-.454-.313-.728v-2.002c.007-.519.437-.978.973-1z" fill-rule="nonzero"/></svg>