<svg clip-rule="evenodd" fill-rule="evenodd" height="512" stroke-linejoin="round" stroke-miterlimit="2" viewBox="0 0 24 24" width="512" xmlns="http://www.w3.org/2000/svg"><g id="Icon"><circle cx="18.524" cy="5.452" r=".524"/><path d="m14.713 9.235c-5.282 2.189-7.381 6.353-7.381 6.353-.094.183-.108.397-.039.591s.215.351.403.435c0 0 1.812.805 3.998 1.08 1.523.192 3.216.117 4.641-.595 3.251-1.625 7.946-5.575 5.872-11.422-.633-1.782-1.64-2.722-2.687-3.12-1.63-.62-3.442.064-4.49 1.264-.792.908-1.138 2.088-.756 3.193.135.391.563.599.954.464.391-.136.599-.563.464-.954-.208-.6.039-1.224.468-1.716.663-.759 1.796-1.241 2.827-.849.727.277 1.367.981 1.806 2.22 1.755 4.946-2.379 8.203-5.128 9.578-1.161.58-2.544.605-3.784.449-1.107-.139-2.108-.43-2.767-.656.805-1.172 2.745-3.509 6.173-4.929.383-.158.564-.598.406-.98-.159-.382-.598-.564-.98-.406z"/><path d="m11.279 11.304s-2.29-.96-6.094.196c.553-.536 1.208-1.108 1.949-1.646 2.37-1.722 5.639-3.125 9.326-1.826.16.296.447.759.867 1.176.495.491 1.165.913 2.004.994.842.081 1.889-.175 3.114-1.193.318-.265.362-.738.097-1.057-.265-.318-.738-.361-1.056-.097-.802.668-1.459.907-2.011.854-.461-.045-.819-.295-1.091-.565-.464-.461-.692-1-.692-1-.078-.189-.231-.338-.422-.412-4.355-1.681-8.233-.11-11.018 1.913-2.716 1.973-4.368 4.36-4.368 4.36-.197.284-.175.665.054.924.23.259.606.328.912.167 4.832-2.547 7.871-1.396 7.871-1.396.384.154.821-.033.975-.417s-.033-.821-.417-.975z"/><path d="m8.016 15.355s-1.525 1.211-6.035 1.323c-.414.011-.741.355-.731.769.011.414.355.741.769.731 5.23-.131 6.965-1.677 6.965-1.677.316-.267.356-.741.089-1.057s-.741-.356-1.057-.089z"/><path d="m8.115 15.284s-2.405 1.348-2.365 5.651c.004.414.343.747.757.743s.747-.343.743-.757c-.03-3.264 1.635-4.349 1.635-4.349.355-.213.471-.674.259-1.029-.213-.355-.674-.471-1.029-.259z"/><path d="m20.134 4.166.882-.16s-.252 1.277-.252 1.277c-.08.406.185.801.591.881s.801-.184.881-.591l.465-2.356c.048-.243-.027-.494-.201-.671s-.424-.256-.668-.212l-1.966.356c-.407.074-.678.465-.604.872s.464.678.872.604z"/></g></svg>