<svg clip-rule="evenodd" fill-rule="evenodd" height="512" stroke-linejoin="round" stroke-miterlimit="2" viewBox="0 0 24 24" width="512" xmlns="http://www.w3.org/2000/svg"><g id="Icon"><path d="m12 5c-3.863 0-7 3.137-7 7s3.137 7 7 7 7-3.137 7-7-3.137-7-7-7zm0 1.5c3.036 0 5.5 2.464 5.5 5.5s-2.464 5.5-5.5 5.5-5.5-2.464-5.5-5.5 2.464-5.5 5.5-5.5z"/><path d="m14.63 1.932c-.089-.248-.302-.43-.56-.481-1.367-.268-2.773-.268-4.14 0-.258.051-.471.233-.56.481l-.494 1.361c-1.042.374-2.009.933-2.855 1.649.001-.001-1.425-.254-1.425-.254-.259-.046-.524.047-.697.245-.915 1.05-1.618 2.267-2.069 3.585-.086.249-.034.524.135.726l.933 1.108c-.197 1.09-.197 2.206 0 3.297 0-.001-.933 1.107-.933 1.107-.169.202-.221.477-.135.726.451 1.318 1.154 2.535 2.069 3.585.173.198.438.291.697.245l1.426-.253c.845.715 1.812 1.274 2.855 1.648-.001 0 .493 1.361.493 1.361.089.248.302.43.56.481 1.367.268 2.773.268 4.14 0 .258-.051.471-.233.56-.481l.494-1.361c1.042-.374 2.009-.933 2.855-1.649-.001.001 1.425.254 1.425.254.259.046.524-.047.697-.245.915-1.05 1.618-2.267 2.069-3.585.086-.249.034-.524-.135-.726l-.933-1.108c.197-1.09.197-2.206 0-3.297 0 .001.933-1.107.933-1.107.169-.202.221-.477.135-.726-.451-1.318-1.154-2.535-2.069-3.585-.173-.198-.438-.291-.697-.245l-1.426.253c-.845-.715-1.812-1.274-2.855-1.648.001 0-.493-1.361-.493-1.361zm-1.262.92.469 1.292c.079.22.257.391.481.461 1.088.341 2.088.918 2.928 1.69.172.159.408.228.639.187l1.353-.241c.572.718 1.033 1.516 1.369 2.37 0 0-.886 1.052-.886 1.052-.15.179-.209.418-.158.646.249 1.114.249 2.268 0 3.382-.051.228.008.467.158.646l.886 1.052c-.336.854-.797 1.652-1.368 2.37-.001 0-1.354-.241-1.354-.241-.231-.041-.467.028-.639.187-.84.772-1.84 1.349-2.928 1.69-.224.07-.402.241-.481.461l-.469 1.292c-.907.136-1.829.136-2.736 0 0 0-.469-1.292-.469-1.292-.079-.22-.257-.391-.481-.461-1.088-.341-2.088-.918-2.928-1.69-.172-.159-.408-.228-.639-.187l-1.353.241c-.572-.718-1.033-1.516-1.369-2.37 0 0 .886-1.052.886-1.052.15-.179.209-.418.158-.646-.249-1.114-.249-2.268 0-3.382.051-.228-.008-.467-.158-.646l-.886-1.052c.336-.854.797-1.652 1.368-2.37.001 0 1.354.241 1.354.241.231.041.467-.028.639-.187.84-.772 1.84-1.349 2.928-1.69.224-.07.402-.241.481-.461l.469-1.292c.907-.136 1.829-.136 2.736 0z"/><path d="m16.25 10.5c0-.414-.336-.75-.75-.75h-.875c-.895 0-1.754.356-2.386.989-.633.632-.989 1.491-.989 2.386v.875c0 .414.336.75.75.75h.875c.895 0 1.754-.356 2.386-.989.633-.632.989-1.491.989-2.386zm-1.5.75v.125c0 .497-.198.974-.549 1.326-.352.351-.829.549-1.326.549h-.125v-.125c0-.497.198-.974.549-1.326.352-.351.829-.549 1.326-.549z"/><path d="m8.5 9.75c-.414 0-.75.336-.75.75v.875c0 .895.356 1.754.989 2.386.632.633 1.491.989 2.386.989h.875c.414 0 .75-.336.75-.75v-.875c0-.895-.356-1.754-.989-2.386-.632-.633-1.491-.989-2.386-.989zm.75 1.5h.125c.497 0 .974.198 1.326.549.351.352.549.829.549 1.326v.125h-.125c-.497 0-.974-.198-1.326-.549-.351-.352-.549-.829-.549-1.326z"/><path d="m11.25 14v4c0 .414.336.75.75.75s.75-.336.75-.75v-4c0-.414-.336-.75-.75-.75s-.75.336-.75.75z"/></g></svg>