<svg clip-rule="evenodd" fill-rule="evenodd" height="512" stroke-linejoin="round" stroke-miterlimit="2" viewBox="0 0 24 24" width="512" xmlns="http://www.w3.org/2000/svg"><g id="Icon"><path d="m6.329 7.428c-1.845.942-3.109 2.861-3.109 5.073 0 3.141 2.55 5.691 5.692 5.691 1.138 0 2.198-.334 3.088-.911.89.576 1.95.911 3.088.911 3.142 0 5.692-2.55 5.692-5.691 0-2.212-1.264-4.131-3.109-5.073.014-.16.021-.322.021-.486 0-3.142-2.551-5.692-5.692-5.692s-5.692 2.55-5.692 5.692zm1.087 1.156c.34-.13.538-.485.469-.843-.05-.259-.077-.526-.077-.799 0-2.314 1.879-4.192 4.192-4.192s4.192 1.878 4.192 4.192c0 .273-.027.54-.077.799-.069.358.129.713.469.843 1.576.603 2.696 2.13 2.696 3.917 0 2.313-1.878 4.191-4.192 4.191-.99 0-1.901-.344-2.619-.92-.274-.22-.664-.22-.938 0-.718.576-1.629.92-2.619.92-2.314 0-4.192-1.878-4.192-4.191 0-1.787 1.12-3.314 2.696-3.917z"/><path d="m11.25 6.5v15.5c0 .414.336.75.75.75s.75-.336.75-.75v-15.5c0-.414-.336-.75-.75-.75s-.75.336-.75.75z"/><path d="m21 21.25h-18c-.414 0-.75.336-.75.75s.336.75.75.75h18c.414 0 .75-.336.75-.75s-.336-.75-.75-.75z"/><path d="m12.386 15.143 2.5-1.5c.355-.213.47-.674.257-1.029s-.674-.47-1.029-.257l-2.5 1.5c-.355.213-.47.674-.257 1.029s.674.47 1.029.257z"/><path d="m12.386 9.643 2.5-1.5c.355-.213.47-.674.257-1.029s-.674-.47-1.029-.257l-2.5 1.5c-.355.213-.47.674-.257 1.029s.674.47 1.029.257z"/><path d="m12.386 11.857-2.5-1.5c-.355-.213-.816-.098-1.029.257s-.098.816.257 1.029l2.5 1.5c.355.213.816.098 1.029-.257s.098-.816-.257-1.029z"/></g></svg>