<svg clip-rule="evenodd" fill-rule="evenodd" height="512" stroke-linejoin="round" stroke-miterlimit="2" viewBox="0 0 24 24" width="512" xmlns="http://www.w3.org/2000/svg"><g id="Icon"><path d="m16.797 10.75c.354 0 .659-.247.733-.592l.999-4.647c.031-.145.019-.296-.035-.433l-1.325-3.354c-.092-.233-.295-.405-.54-.457-.245-.053-.501.02-.68.195l-2.586 2.513c-.106.103-.18.235-.211.38l-1.18 5.487c-.047.222.008.453.15.629.143.177.357.279.584.279zm-.606-1.5h-2.557s.937-4.358.937-4.358 1.616-1.57 1.616-1.57.828 2.096.828 2.096z"/><path d="m10.408 2.281c-.186-.665-.875-1.055-1.54-.869l-3.372.938c-.665.185-1.054.874-.869 1.539l1.757 6.312c.09.325.385.549.722.549h4.671c.235 0 .456-.11.597-.296.142-.187.189-.429.126-.655zm-1.379.643 1.761 6.326h-3.114l-1.537-5.522z"/><path d="m19.25 10c0-.414-.336-.75-.75-.75h-13c-.414 0-.75.336-.75.75v9c0 .995.395 1.948 1.098 2.652.704.703 1.657 1.098 2.652 1.098h7c.995 0 1.948-.395 2.652-1.098.703-.704 1.098-1.657 1.098-2.652zm-1.5.75v8.25c0 .597-.237 1.169-.659 1.591s-.994.659-1.591.659h-7c-.597 0-1.169-.237-1.591-.659s-.659-.994-.659-1.591v-8.25z"/><path d="m19.5 9.25h-15c-.414 0-.75.336-.75.75s.336.75.75.75h15c.414 0 .75-.336.75-.75s-.336-.75-.75-.75z"/><path d="m7.75 13v3c0 .414.336.75.75.75s.75-.336.75-.75v-3c0-.414-.336-.75-.75-.75s-.75.336-.75.75z"/><path d="m7.75 18v1c0 .414.336.75.75.75s.75-.336.75-.75v-1c0-.414-.336-.75-.75-.75s-.75.336-.75.75z"/><path d="m6.201 6.723 1.445-.403c.399-.111.633-.524.522-.923s-.525-.633-.924-.522l-1.445.402c-.399.111-.633.525-.522.924s.525.633.924.522z"/><path d="m7.427 9.723 1.446-.403c.398-.111.632-.524.521-.923s-.525-.633-.924-.522l-1.445.402c-.398.111-.632.525-.521.924s.525.633.923.522z"/></g></svg>