<svg clip-rule="evenodd" fill-rule="evenodd" height="512" stroke-linejoin="round" stroke-miterlimit="2" viewBox="0 0 24 24" width="512" xmlns="http://www.w3.org/2000/svg"><g id="Icon"><path d="m20.723 3.277c-1.407-1.408-3.355-2.074-5.515-2.024-3.079.071-6.608 1.616-9.473 4.482-2.866 2.865-4.411 6.394-4.482 9.473-.05 2.16.616 4.108 2.024 5.515 1.407 1.408 3.355 2.074 5.515 2.024 3.079-.071 6.608-1.616 9.473-4.482 2.866-2.865 4.411-6.394 4.482-9.473.05-2.16-.616-4.108-2.024-5.515zm-1.06 1.06c1.125 1.125 1.625 2.694 1.585 4.42-.064 2.752-1.482 5.887-4.043 8.448s-5.696 3.979-8.448 4.043c-1.726.04-3.295-.46-4.42-1.585s-1.625-2.694-1.585-4.42c.064-2.752 1.482-5.887 4.043-8.448s5.696-3.979 8.448-4.043c1.726-.04 3.295.46 4.42 1.585z"/><path d="m14.365 1.979c-.078 2.208.587 4.202 2.021 5.635 1.433 1.434 3.427 2.099 5.635 2.021.413-.015.737-.362.723-.776-.015-.414-.362-.738-.776-.723-1.767.062-3.375-.435-4.522-1.582s-1.644-2.755-1.582-4.522c.015-.414-.309-.761-.723-.776-.414-.014-.761.31-.776.723z"/><path d="m2.032 15.864c1.767-.062 3.375.435 4.522 1.582s1.644 2.755 1.582 4.522c-.015.414.309.761.723.776.414.014.761-.31.776-.723.078-2.208-.587-4.202-2.021-5.635-1.433-1.434-3.427-2.099-5.635-2.021-.413.015-.737.362-.723.776.015.414.362.738.776.723z"/><path d="m16.217 10.241-2.458-2.458c-.292-.293-.768-.293-1.06 0-.293.292-.293.768 0 1.06l2.458 2.458c.292.293.768.293 1.06 0 .293-.292.293-.768 0-1.06z"/><path d="m13.759 12.699-2.458-2.458c-.292-.293-.768-.293-1.06 0-.293.292-.293.768 0 1.06l2.458 2.458c.292.293.768.293 1.06 0 .293-.292.293-.768 0-1.06z"/><path d="m11.301 15.157-2.458-2.458c-.292-.293-.768-.293-1.06 0-.293.292-.293.768 0 1.06l2.458 2.458c.292.293.768.293 1.06 0 .293-.292.293-.768 0-1.06z"/></g></svg>