<svg xmlns="http://www.w3.org/2000/svg" viewBox="0 0 32 32"><title>world, www, web, website</title><g id="world_www_web_website" data-name="world, www, web, website"><path d="M16,3A13,13,0,1,0,29,16,13.0144,13.0144,0,0,0,16,3Zm6.69,16.9094A24.1831,24.1831,0,0,0,23,16a24.0113,24.0113,0,0,0-.32-3.9109C25.3716,13.0752,27,14.584,27,16,27,17.4689,25.314,18.9505,22.69,19.9094ZM5,16c0-1.4689,1.686-2.95,4.31-3.9094a24.4263,24.4263,0,0,0,.01,7.82C6.6284,18.9248,5,17.416,5,16ZM11.4985,5.9738A14.2962,14.2962,0,0,0,9.816,9.8212,14.2625,14.2625,0,0,0,5.9781,11.49,11.0551,11.0551,0,0,1,11.4985,5.9738ZM5.9738,20.5015A19.4656,19.4656,0,0,0,16,23q.8971,0,1.7607-.0615a1,1,0,1,0-.1416-1.9951Q16.8267,21,16,21a21.3985,21.3985,0,0,1-4.5245-.4659A21.42,21.42,0,0,1,11,16c0-6.4824,2.6353-11,5-11,.9951,0,2.0117.7658,2.8867,2.1411a1.0375,1.0375,0,0,0,1.3784.3159,1.1147,1.1147,0,0,0,.2473-1.4779,11.0545,11.0545,0,0,1,5.5138,5.5194A19.98,19.98,0,0,0,16,9q-.8971,0-1.7607.0615a1,1,0,1,0,.1416,1.9951Q15.1734,11,16,11a21.3985,21.3985,0,0,1,4.5245.4659A21.42,21.42,0,0,1,21,16c0,6.4824-2.6353,11-5,11-.9951,0-2.0205-.76-2.8867-2.1411a1,1,0,0,0-1.3784-.3159,1.0452,1.0452,0,0,0-.2473,1.4779A11.0545,11.0545,0,0,1,5.9738,20.5015Zm14.5277,5.5247a14.2962,14.2962,0,0,0,1.6825-3.8474,14.2625,14.2625,0,0,0,3.8379-1.6683A11.0551,11.0551,0,0,1,20.5015,26.0262Z"/></g></svg>