<svg clip-rule="evenodd" fill-rule="evenodd" height="512" stroke-linejoin="round" stroke-miterlimit="2" viewBox="0 0 24 24" width="512" xmlns="http://www.w3.org/2000/svg"><g id="Icon"><path d="m4.75 7.75c-1.518 0-2.75 1.232-2.75 2.75s1.232 2.75 2.75 2.75 2.75-1.232 2.75-2.75-1.232-2.75-2.75-2.75zm0 1.5c.69 0 1.25.56 1.25 1.25s-.56 1.25-1.25 1.25-1.25-.56-1.25-1.25.56-1.25 1.25-1.25z"/><path d="m8.25 15.5c0-.464-.184-.909-.513-1.237-.328-.329-.773-.513-1.237-.513h-3.5c-.464 0-.909.184-1.237.513-.329.328-.513.773-.513 1.237v1.5c0 .287.071.57.206.823l.807 1.514c.012.023.021.048.026.074l.328 1.889c.146.838.873 1.45 1.724 1.45h.818c.851 0 1.578-.612 1.724-1.45l.324-1.866c.006-.03.016-.058.032-.084l.767-1.294c.16-.27.244-.579.244-.893zm-1.5 0v1.663c0 .045-.012.089-.035.128l-.767 1.294c-.108.182-.182.383-.218.592l-.325 1.866c-.021.12-.125.207-.246.207h-.818c-.121 0-.225-.087-.246-.207 0 0-.329-1.889-.329-1.889-.031-.183-.092-.359-.18-.523l-.807-1.513c-.019-.037-.029-.077-.029-.118v-1.5c0-.066.026-.13.073-.177s.111-.073.177-.073h3.5c.066 0 .13.026.177.073s.073.111.073.177z"/><path d="m5.5 6.5v-3.5c0-.138.112-.25.25-.25h15.25c.138 0 .25.112.25.25v13c0 .066-.026.13-.073.177s-.111.073-.177.073h-11c-.414 0-.75.336-.75.75s.336.75.75.75h11c.464 0 .909-.184 1.237-.513.329-.328.513-.773.513-1.237 0-2.727 0-10.273 0-13 0-.966-.783-1.75-1.75-1.75h-15.25c-.967 0-1.75.784-1.75 1.75v3.5c0 .414.336.75.75.75s.75-.336.75-.75z"/><path d="m19 12.75h-9c-.414 0-.75.336-.75.75s.336.75.75.75h9c.414 0 .75-.336.75-.75s-.336-.75-.75-.75z"/><path d="m11.75 11.5v-2c0-.414-.336-.75-.75-.75s-.75.336-.75.75v2c0 .414.336.75.75.75s.75-.336.75-.75z"/><path d="m15.25 11.5v-4c0-.414-.336-.75-.75-.75s-.75.336-.75.75v4c0 .414.336.75.75.75s.75-.336.75-.75z"/><path d="m18.75 11.5v-6c0-.414-.336-.75-.75-.75s-.75.336-.75.75v6c0 .414.336.75.75.75s.75-.336.75-.75z"/></g></svg>