<svg clip-rule="evenodd" fill-rule="evenodd" height="512" stroke-linejoin="round" stroke-miterlimit="2" viewBox="0 0 24 24" width="512" xmlns="http://www.w3.org/2000/svg"><g id="Icon"><path d="m20.698 2.75v10.633c0 .915-.363 1.792-1.01 2.439-1.196 1.196-3.049 3.049-4.572 4.572-1.141 1.141-2.991 1.141-4.132 0-.001 0-.001-.001-.002-.001-.135-.136-.256-.283-.361-.439-.23-.344-.697-.436-1.04-.205-.344.23-.436.697-.205 1.04.158.237.341.46.545.664.001.001.001.001.002.002 1.727 1.727 4.527 1.727 6.254 0l4.572-4.572c.928-.928 1.449-2.187 1.449-3.5v-10.883c0-.331-.131-.649-.366-.884-.234-.234-.552-.366-.884-.366-1.654 0-6.848 0-6.848 0-.414 0-.75.336-.75.75s.336.75.75.75z"/><path d="m6.526 2.5v8.75c0 .332-.132.65-.366.884 0 0-3.063 3.063-3.063 3.063-1.727 1.727-1.727 4.528 0 6.256.001 0 .001 0 .001.001 1.728 1.727 4.529 1.727 6.256 0 1.548-1.548 3.437-3.437 4.629-4.629.891-.891 1.392-2.099 1.392-3.359 0-2.761 0-8.221 0-10.466 0-.966-.784-1.75-1.75-1.75h-5.849c-.332 0-.65.132-.884.366-.234.235-.366.552-.366.884zm1.5.25h5.599c.138 0 .25.112.25.25v10.466c0 .862-.343 1.688-.952 2.298-1.193 1.193-3.082 3.081-4.629 4.629-1.142 1.142-2.994 1.142-4.135 0-.001 0-.001 0-.001-.001-1.142-1.142-1.142-2.993 0-4.135l3.062-3.062c.516-.516.806-1.215.806-1.945z"/><path d="m21.448 4.924h-6.299c-.413 0-.75.336-.75.75s.337.75.75.75h6.299c.414 0 .75-.336.75-.75s-.336-.75-.75-.75z"/><path d="m14.625 4.924h-7.349c-.414 0-.75.336-.75.75s.336.75.75.75h7.349c.414 0 .75-.336.75-.75s-.336-.75-.75-.75z"/><path d="m19.168 17.185c-.716-.633-1.169-1.557-1.169-2.587 0-1.904 1.546-3.45 3.449-3.45.414 0 .75-.336.75-.75 0-.413-.336-.75-.75-.75-2.731 0-4.949 2.218-4.949 4.95 0 1.477.649 2.804 1.677 3.712.31.273.784.244 1.058-.067.274-.31.245-.784-.066-1.058z"/><path d="m12.344 17.185c-.716-.633-1.169-1.557-1.169-2.587 0-1.904 1.546-3.45 3.45-3.45.414 0 .75-.336.75-.75 0-.413-.336-.75-.75-.75-2.732 0-4.95 2.218-4.95 4.95 0 1.477.649 2.804 1.677 3.712.31.273.785.244 1.059-.067.273-.31.244-.784-.067-1.058z"/></g></svg>