<svg clip-rule="evenodd" fill-rule="evenodd" height="512" stroke-linejoin="round" stroke-miterlimit="2" viewBox="0 0 24 24" width="512" xmlns="http://www.w3.org/2000/svg"><g id="Icon"><path d="m2 14.731h20c.414 0 .75-.337.75-.75 0-.414-.336-.75-.75-.75h-20c-.414 0-.75.336-.75.75 0 .413.336.75.75.75z"/><path d="m5 17.731h2c.414 0 .75-.337.75-.75 0-.414-.336-.75-.75-.75h-2c-.414 0-.75.336-.75.75 0 .413.336.75.75.75z"/><path d="m11 17.731h8c.414 0 .75-.337.75-.75 0-.414-.336-.75-.75-.75h-8c-.414 0-.75.336-.75.75 0 .413.336.75.75.75z"/><path d="m8 20.731h3.5c.414 0 .75-.337.75-.75 0-.414-.336-.75-.75-.75h-3.5c-.414 0-.75.336-.75.75 0 .413.336.75.75.75z"/><path d="m14 20.731h2c.414 0 .75-.337.75-.75 0-.414-.336-.75-.75-.75h-2c-.414 0-.75.336-.75.75 0 .413.336.75.75.75z"/><path d="m6.75 13.981c0-2.897 2.354-5.25 5.25-5.25s5.25 2.353 5.25 5.25c0 .413.336.75.75.75s.75-.337.75-.75c0-3.724-3.026-6.75-6.75-6.75s-6.75 3.026-6.75 6.75c0 .413.336.75.75.75s.75-.337.75-.75z"/><path d="m11.25 4v1.5c0 .414.336.75.75.75s.75-.336.75-.75v-1.5c0-.414-.336-.75-.75-.75s-.75.336-.75.75z"/><path d="m20.268 8.341-1.299.75c-.358.207-.481.666-.274 1.024.207.359.666.482 1.024.275l1.299-.75c.359-.207.482-.666.275-1.025-.207-.358-.666-.481-1.025-.274z"/><path d="m16.341 4.962-.75 1.299c-.207.359-.084.818.274 1.025.359.207.818.084 1.025-.275l.75-1.299c.207-.358.084-.817-.275-1.024-.358-.207-.817-.084-1.024.274z"/><path d="m6.36 5.712.75 1.299c.207.359.666.482 1.025.275.358-.207.481-.666.274-1.025l-.75-1.299c-.207-.358-.666-.481-1.024-.274-.359.207-.482.666-.275 1.024z"/><path d="m2.982 9.64 1.299.75c.358.207.817.084 1.024-.275.207-.358.084-.817-.274-1.024l-1.299-.75c-.359-.207-.818-.084-1.025.274-.207.359-.084.818.275 1.025z"/></g></svg>