<svg clip-rule="evenodd" fill-rule="evenodd" stroke-linejoin="round" stroke-miterlimit="1.414" viewBox="0 0 32 32" xmlns="http://www.w3.org/2000/svg" xmlns:serif="http://www.serif.com/"><path id="bowl-pharmacy-drug-" d="m0 0h32v32h-32z" fill="none"/><path d="m19.254 15.231 2.193-7.673-4.247 5.945s-.403.451-.886.415c-.654-.05-1.131-.856-.804-1.466.027-.05.036-.061.067-.109 1.639-2.293 3.264-4.597 4.915-6.881.338-.457.894-.738 1.466-.737 1.095.014 2.023 1.151 1.723 2.274l-2.355 8.241c.237.002.473.003.709.005 1.542.028 2.925 1.363 2.955 2.954.009 1.482.087 2.985-.395 4.353-.945 2.683-3.65 4.634-6.542 4.661-2.167.007-4.428.284-6.355-.394-2.68-.944-4.634-3.65-4.662-6.542-.003-1.02-.144-2.088.152-2.98.387-1.172 1.567-2.029 2.803-2.052 3.088-.02 6.176-.024 9.263-.014zm.638 1.999c-3.286-.008-6.573.009-9.86.009-.52.003-.991.446-1.001.985-.008 1.259-.123 2.515.282 3.665.675 1.916 2.591 3.31 4.673 3.33 1.351.004 2.703.004 4.054 0 2.565-.025 4.929-2.219 4.955-4.955.002-.68.004-1.36 0-2.04-.009-.513-.445-.975-.985-.985-.627-.004-1.255-.006-1.883-.008-.016.002-.033.004-.05.005-.062.005-.124.003-.185-.006z" fill-rule="nonzero"/></svg>