<svg clip-rule="evenodd" fill-rule="evenodd" height="512" stroke-linejoin="round" stroke-miterlimit="2" viewBox="0 0 24 24" width="512" xmlns="http://www.w3.org/2000/svg"><g id="Icon"><path d="m9 8.25h-1c-.966 0-1.75.782-1.75 1.75s.784 1.75 1.75 1.75c.138 0 .25.112.25.25s-.112.25-.25.25h-1c-.414 0-.75.336-.75.75s.336.75.75.75h1c.966 0 1.75-.782 1.75-1.75s-.784-1.75-1.75-1.75c-.138 0-.25-.112-.25-.25s.112-.25.25-.25h1c.414 0 .75-.336.75-.75s-.336-.75-.75-.75z"/><path d="m13 8.25h-1c-.966 0-1.75.782-1.75 1.75s.784 1.75 1.75 1.75c.138 0 .25.112.25.25s-.112.25-.25.25h-1c-.414 0-.75.336-.75.75s.336.75.75.75h1c.966 0 1.75-.782 1.75-1.75s-.784-1.75-1.75-1.75c-.138 0-.25-.112-.25-.25s.112-.25.25-.25h1c.414 0 .75-.336.75-.75s-.336-.75-.75-.75z"/><path d="m14.25 13c0 .414.336.75.75.75h1.104c.909 0 1.646-.737 1.646-1.646v-2.208c0-.909-.737-1.646-1.646-1.646h-1.104c-.414 0-.75.336-.75.75zm1.5-.75v-2.5h.354c.081 0 .146.065.146.146v2.208c0 .081-.065.146-.146.146z"/><path d="m18 22.75c1.518 0 2.75-1.232 2.75-2.75v-16c0-1.518-1.232-2.75-2.75-2.75h-12c-1.518 0-2.75 1.232-2.75 2.75v16c0 1.518 1.232 2.75 2.75 2.75zm0-1.5h-12c-.69 0-1.25-.56-1.25-1.25v-16c0-.69.56-1.25 1.25-1.25h12c.69 0 1.25.56 1.25 1.25v16c0 .69-.56 1.25-1.25 1.25z"/><path d="m6.25 19v3c0 .414.336.75.75.75h10c.414 0 .75-.336.75-.75v-3c0-.69-.56-1.25-1.25-1.25-1.707 0-7.293 0-9 0-.69 0-1.25.56-1.25 1.25zm1.5.25h8.5v2h-8.5z"/><path d="m13.25 18.5v3.5c0 .414.336.75.75.75s.75-.336.75-.75v-3.5c0-.414-.336-.75-.75-.75s-.75.336-.75.75z"/></g></svg>