<svg clip-rule="evenodd" fill-rule="evenodd" height="512" stroke-linejoin="round" stroke-miterlimit="2" viewBox="0 0 24 24" width="512" xmlns="http://www.w3.org/2000/svg"><g id="Icon"><path d="m15.561 16.614-2.445-2.445c-.234-.235-.366-.553-.366-.884v-9.285c0-.066.026-.13.073-.177s.111-.073.177-.073h.724c.117 0 .218.081.244.196.399 1.795 1.372 6.175 1.72 7.741.113.51.37.978.74 1.348.522.522 1.356 1.356 1.356 1.356.293.293.768.293 1.061 0 .292-.293.292-.768 0-1.061l-1.357-1.356c-.168-.168-.284-.381-.336-.613l-1.72-7.741c-.178-.8-.888-1.37-1.708-1.37-.23 0-.484 0-.724 0-.464 0-.909.184-1.237.513-.329.328-.513.773-.513 1.237v9.285c0 .729.29 1.428.805 1.944l2.446 2.445c.292.293.767.293 1.06 0 .293-.292.293-.768 0-1.06z"/><path d="m9.499 17.674s1.565-1.564 2.446-2.445c.515-.516.805-1.215.805-1.944v-9.285c0-.464-.184-.909-.513-1.237-.328-.329-.773-.513-1.237-.513-.24 0-.494 0-.724 0-.82 0-1.53.57-1.708 1.37l-1.72 7.741c-.052.232-.168.445-.336.613l-1.357 1.356c-.292.293-.292.768 0 1.061.293.293.768.293 1.061 0 0 0 .834-.834 1.356-1.356.37-.37.627-.838.74-1.348.348-1.566 1.321-5.946 1.72-7.741.026-.115.127-.196.244-.196h.724c.066 0 .13.026.177.073s.073.111.073.177v9.285c0 .331-.132.649-.366.884 0 0-2.445 2.445-2.445 2.445-.293.292-.293.768 0 1.06.293.293.768.293 1.06 0z"/><path d="m21.924 14.326-1.786-1.1c-.69-.426-1.582-.321-2.155.252l-3.458 3.458c-.549.549-.671 1.395-.298 2.077.283.517.684 1.249 1.021 1.866.264.483.741.814 1.287.892.545.079 1.096-.105 1.486-.494 1.153-1.154 3.092-3.093 4.223-4.223.378-.379.563-.91.5-1.441-.062-.532-.364-1.006-.82-1.287zm-2.573.177 1.786 1.1c.065.04.109.108.117.184.009.076-.017.152-.071.206l-4.223 4.223c-.056.056-.134.082-.212.071-.078-.012-.146-.059-.184-.128l-1.021-1.866c-.053-.097-.036-.218.043-.297l3.457-3.457c.082-.082.21-.097.308-.036z"/><path d="m3.862 13.226-1.786 1.1c-.456.281-.758.755-.82 1.287-.063.531.122 1.062.5 1.441 1.131 1.13 3.07 3.069 4.223 4.223.39.389.941.573 1.486.494.546-.078 1.023-.409 1.287-.892.337-.617.738-1.349 1.021-1.866.373-.682.251-1.528-.298-2.077l-3.458-3.458c-.573-.573-1.465-.678-2.155-.252zm.787 1.277c.098-.061.226-.046.308.036l3.457 3.457c.079.079.096.2.043.297l-1.021 1.866c-.038.069-.106.116-.184.128-.078.011-.156-.015-.212-.071l-4.223-4.223c-.054-.054-.08-.13-.071-.206.008-.076.052-.144.117-.184z"/></g></svg>