<svg clip-rule="evenodd" fill-rule="evenodd" height="512" stroke-linejoin="round" stroke-miterlimit="2" viewBox="0 0 24 24" width="512" xmlns="http://www.w3.org/2000/svg"><g id="Icon"><path d="m8.216 12.75v3.5c0 .967-.784 1.75-1.75 1.75h-1.966c-.966 0-1.75-.783-1.75-1.75v-3.5c0-.967.784-1.75 1.75-1.75h1.966c.966 0 1.75.783 1.75 1.75zm-1.5 0c0-.138-.112-.25-.25-.25h-1.966c-.138 0-.25.112-.25.25v3.5c0 .138.112.25.25.25h1.966c.138 0 .25-.112.25-.25z"/><path d="m14.716 5.25v11c0 .464-.185.909-.513 1.237-.328.329-.773.513-1.237.513h-1.966c-.464 0-.909-.184-1.237-.513-.329-.328-.513-.773-.513-1.237v-11c0-.464.184-.909.513-1.237.328-.329.773-.513 1.237-.513h1.966c.464 0 .909.184 1.237.513.328.328.513.773.513 1.237zm-1.5 0c0-.066-.027-.13-.073-.177-.047-.047-.111-.073-.177-.073h-1.966c-.066 0-.13.026-.177.073s-.073.111-.073.177v11c0 .066.026.13.073.177s.111.073.177.073h1.966c.066 0 .13-.026.177-.073.046-.047.073-.111.073-.177z"/><path d="m21.25 9.25v7c0 .464-.184.909-.513 1.237-.328.329-.773.513-1.237.513h-1.966c-.464 0-.909-.184-1.237-.513-.328-.328-.513-.773-.513-1.237v-7c0-.464.185-.909.513-1.237.328-.329.773-.513 1.237-.513h1.966c.464 0 .909.184 1.237.513.329.328.513.773.513 1.237zm-1.5 0c0-.066-.026-.13-.073-.177s-.111-.073-.177-.073h-1.966c-.066 0-.13.026-.177.073-.046.047-.073.111-.073.177v7c0 .066.027.13.073.177.047.047.111.073.177.073h1.966c.066 0 .13-.026.177-.073s.073-.111.073-.177z"/><path d="m22 19c.414 0 .75.336.75.75s-.336.75-.75.75h-20c-.414 0-.75-.336-.75-.75s.336-.75.75-.75z"/></g></svg>