<svg clip-rule="evenodd" fill-rule="evenodd" height="512" stroke-linejoin="round" stroke-miterlimit="2" viewBox="0 0 24 24" width="512" xmlns="http://www.w3.org/2000/svg"><g id="Icon"><path d="m20.732 17.296-2.549-.905c-1.374-.489-2.708.818-2.246 2.203 0 0 .85 2.548.85 2.548.406 1.222 1.95 1.599 2.876.705l1.699-1.645c.934-.9.594-2.47-.63-2.906zm-.503 1.413c.175.062.224.286.091.414l-1.699 1.645c-.132.127-.353.074-.41-.1l-.851-2.549c-.066-.198.124-.385.321-.315z"/><g fill-rule="nonzero"><path d="m19 10.412c0 .553-.447 1-1 1s-1-.447-1-1 .447-1 1-1 1 .447 1 1"/><path d="m16 10.412c0 .553-.447 1-1 1s-1-.447-1-1 .447-1 1-1 1 .447 1 1"/><path d="m7 10.412c0 .553-.447 1-1 1s-1-.447-1-1 .447-1 1-1 1 .447 1 1"/></g><path d="m7.702 6.832c1.242-2.184 3.597-3.671 6.298-3.671 4.006 0 7.25 3.245 7.25 7.25 0 1.274-.328 2.47-.904 3.508-.201.362-.07.819.292 1.02s.819.07 1.02-.292c.696-1.253 1.092-2.697 1.092-4.236 0-4.834-3.916-8.75-8.75-8.75-3.259 0-6.104 1.794-7.602 4.43-.205.36-.079.818.281 1.022.36.205.818.079 1.023-.281z"/><path d="m7.043 15.705c1.371 1.802 3.417 3.056 5.766 3.376.411.056.789-.231.845-.641s-.232-.789-.642-.845c-1.946-.265-3.64-1.305-4.775-2.798-.251-.329-.722-.393-1.051-.143-.33.251-.394.722-.143 1.051z"/><path d="m7.132 5.721c-.21-.024-.416-.06-.632-.06-2.899 0-5.25 2.351-5.25 5.25 0 2.901 2.351 5.25 5.25 5.25.462 0 .902-.075 1.329-.187.401-.105.641-.516.536-.916s-.516-.64-.916-.535c-.305.08-.619.138-.949.138-2.071 0-3.75-1.678-3.75-3.75 0-2.071 1.679-3.75 3.75-3.75.158 0 .307.033.46.05.411.048.784-.248.831-.659.048-.411-.248-.783-.659-.831z"/><path d="m7.829 15.974c1.155-.303 2.156-.985 2.857-1.905.251-.33.187-.801-.142-1.051-.329-.251-.8-.187-1.051.142-.502.659-1.218 1.146-2.045 1.363-.4.105-.64.516-.535.916.106.4.516.64.916.535zm3.92-5.175c-.026-1.227-.474-2.345-1.204-3.221-.265-.318-.738-.361-1.056-.097-.318.265-.361.739-.096 1.057.519.623.838 1.419.856 2.293.009.414.352.742.766.734.414-.009.742-.352.734-.766zm-4.143-4.998c-.154-.033-.31-.06-.469-.079-.411-.05-.785.243-.836.653-.05.411.243.786.654.836.114.014.226.033.336.056.405.087.804-.171.891-.575.087-.405-.171-.804-.576-.891z"/></g></svg>