<svg clip-rule="evenodd" fill-rule="evenodd" height="512" stroke-linejoin="round" stroke-miterlimit="2" viewBox="0 0 24 24" width="512" xmlns="http://www.w3.org/2000/svg"><g id="Icon"><path d="m17 5.75c.414 0 .75-.336.75-.75v-2c0-.968-.784-1.75-1.75-1.75h-8c-.966 0-1.75.782-1.75 1.75v2c0 .414.336.75.75.75zm-.75-1.5h-8.5v-1.25c0-.138.112-.25.25-.25h8c.138 0 .25.112.25.25z"/><path d="m19.25 2.157v2.843c0 .414.336.75.75.75s.75-.336.75-.75v-2.843c0-.414-.336-.75-.75-.75s-.75.336-.75.75z"/><path d="m3.25 2.157v2.843c0 .414.336.75.75.75s.75-.336.75-.75v-2.843c0-.414-.336-.75-.75-.75s-.75.336-.75.75z"/><path d="m19.25 18.157v2.843c0 .414.336.75.75.75s.75-.336.75-.75v-2.843c0-.414-.336-.75-.75-.75s-.75.336-.75.75z"/><path d="m3.25 18.157v2.843c0 .414.336.75.75.75s.75-.336.75-.75v-2.843c0-.414-.336-.75-.75-.75s-.75.336-.75.75z"/><path d="m2.25 6v11c0 .968.784 1.75 1.75 1.75h1.5c.079 0 .153.037.2.1 0 0 2.4 3.2 2.4 3.2.331.441.849.7 1.4.7h5c.551 0 1.069-.259 1.4-.7 0 0 2.4-3.2 2.4-3.2.047-.063.121-.1.2-.1h1.5c.966 0 1.75-.782 1.75-1.75v-11c0-.968-.784-1.75-1.75-1.75h-16c-.966 0-1.75.782-1.75 1.75zm1.5 0c0-.138.112-.25.25-.25h16c.138 0 .25.112.25.25v11c0 .138-.112.25-.25.25h-1.5c-.551 0-1.069.259-1.4.7 0 0-2.4 3.2-2.4 3.2-.047.063-.121.1-.2.1h-5c-.079 0-.153-.037-.2-.1 0 0-2.4-3.2-2.4-3.2-.331-.441-.849-.7-1.4-.7h-1.5c-.138 0-.25-.112-.25-.25z"/><path d="m7 12.75h10c.414 0 .75-.336.75-.75s-.336-.75-.75-.75h-10c-.414 0-.75.336-.75.75s.336.75.75.75z"/><path d="m7 9.75h10c.414 0 .75-.336.75-.75s-.336-.75-.75-.75h-10c-.414 0-.75.336-.75.75s.336.75.75.75z"/><path d="m7 15.75h10c.414 0 .75-.336.75-.75s-.336-.75-.75-.75h-10c-.414 0-.75.336-.75.75s.336.75.75.75z"/></g></svg>