<svg clip-rule="evenodd" fill-rule="evenodd" height="512" stroke-linejoin="round" stroke-miterlimit="2" viewBox="0 0 24 24" width="512" xmlns="http://www.w3.org/2000/svg"><g id="Icon"><path d="m9.745 12.063-2.192-2.192c-.293-.292-.768-.292-1.06 0l-3.653 3.653c-.994.994-1.431 2.57-1.551 4.12-.165 2.156.25 4.229.25 4.229.059.297.291.529.588.588 0 0 2.073.415 4.229.25 1.55-.12 3.126-.557 4.12-1.551 0 0 3.653-3.653 3.653-3.653.292-.292.292-.767 0-1.06l-2.192-2.192c-.293-.293-.768-.293-1.061 0s-.293.768 0 1.061l1.662 1.661s-3.123 3.123-3.123 3.123c-.76.759-1.989 1.024-3.174 1.115-1.332.102-2.628-.04-3.315-.141-.101-.687-.243-1.983-.141-3.315.091-1.185.356-2.414 1.115-3.174 0 0 3.123-3.123 3.123-3.123s1.661 1.662 1.661 1.662c.293.293.768.293 1.061 0s.293-.768 0-1.061z"/><path d="m19.608 7.644c.293-.292.293-.767 0-1.06l-2.192-2.192c-.293-.293-.768-.293-1.06 0 0 0-5.262 5.261-7.798 7.797-.96.961-1.684 2.132-2.113 3.42-.257.77-.499 1.496-.499 1.496-.09.27-.02.567.181.768s.498.271.768.181c0 0 .726-.242 1.496-.499 1.288-.429 2.459-1.153 3.42-2.113 2.536-2.536 7.797-7.798 7.797-7.798zm-1.591-.53-7.267 7.267c-.796.796-1.766 1.395-2.834 1.751 0 0-.073.025-.073.025s.025-.073.025-.073c.356-1.068.955-2.038 1.751-2.834 0 0 7.267-7.267 7.267-7.267z"/><path d="m21.411 8.033.766-.766c.488-.488.488-1.279 0-1.767-.822-.822-2.855-2.855-3.677-3.677-.488-.488-1.279-.488-1.767 0l-.766.766c-.328.328-.513.773-.513 1.237 0 .465.185.91.513 1.238.816.817 2.152 2.153 2.969 2.969.328.328.773.513 1.238.513.464 0 .909-.185 1.237-.513zm-3.795-4.972 3.323 3.323-.589.589c-.047.047-.11.073-.176.073-.067 0-.13-.027-.177-.073l-2.97-2.97c-.046-.047-.073-.11-.073-.177 0-.066.026-.129.073-.176z"/><path d="m13.398 12.794-2.192-2.192c-.293-.293-.768-.293-1.061 0-.292.293-.292.768 0 1.061l2.192 2.192c.293.292.768.292 1.061 0 .293-.293.293-.768 0-1.061z"/></g></svg>