<svg clip-rule="evenodd" fill-rule="evenodd" height="512" stroke-linejoin="round" stroke-miterlimit="2" viewBox="0 0 24 24" width="512" xmlns="http://www.w3.org/2000/svg"><g id="Icon"><path d="m18.75 21v.5c0 .332-.132.649-.366.884-.235.234-.552.366-.884.366h-11c-.332 0-.649-.132-.884-.366-.234-.235-.366-.552-.366-.884v-.5c0-.729.29-1.429.805-1.945.516-.515 1.216-.805 1.945-.805h8c.729 0 1.429.29 1.945.805.515.516.805 1.216.805 1.945zm-12 .25h10.5v-.25c0-.332-.132-.649-.366-.884-.235-.234-.552-.366-.884-.366h-8c-.332 0-.649.132-.884.366-.234.235-.366.552-.366.884z"/><path d="m14.25 12v7c0 .414-.336.75-.75.75h-3c-.414 0-.75-.336-.75-.75v-7c0-.414.336-.75.75-.75h3c.414 0 .75.336.75.75zm-1.5.75h-1.5v5.5h1.5z"/><path d="m18.314 3.254 2.049 7.271c.149.528.042 1.094-.289 1.531-.33.437-.847.694-1.395.694h-13.358c-.548 0-1.065-.257-1.395-.694-.331-.437-.438-1.003-.289-1.531l2.049-7.271c.334-1.185 1.416-2.004 2.647-2.004h7.334c1.231 0 2.313.819 2.647 2.004zm-1.444.407c-.152-.539-.643-.911-1.203-.911h-7.334c-.56 0-1.051.372-1.203.911l-2.05 7.271c-.021.076-.006.156.042.219.047.062.121.099.199.099h13.358c.078 0 .152-.037.199-.099.048-.063.063-.143.042-.219z"/><path d="m6.25 12c0-.414.336-.75.75-.75s.75.336.75.75v2c0 .414-.336.75-.75.75s-.75-.336-.75-.75z"/></g></svg>