<svg clip-rule="evenodd" fill-rule="evenodd" height="512" stroke-linejoin="round" stroke-miterlimit="2" viewBox="0 0 24 24" width="512" xmlns="http://www.w3.org/2000/svg"><g id="Icon"><path d="m19.25 11c0 .414.336.75.75.75h1c.968 0 1.75-.782 1.75-1.75v-2c0-.968-.782-1.75-1.75-1.75h-1c-.414 0-.75.336-.75.75zm1.5-.75v-2.5h.25c.138 0 .25.112.25.25v2c0 .138-.112.25-.25.25z"/><path d="m19 5.25h-14c-.968 0-1.75.782-1.75 1.75v5c0 1.518 1.232 2.75 2.75 2.75h3.451c.237 0 .47-.047.687-.14-.001 0 1.862-.795 1.862-.795s1.863.795 1.863.795c.216.093.449.14.686.14h3.451c1.518 0 2.75-1.232 2.75-2.75v-5c0-.968-.782-1.75-1.75-1.75zm0 1.5c.138 0 .25.112.25.25v5c0 .69-.56 1.25-1.25 1.25h-3.451c-.033 0-.066-.007-.097-.02l-2.158-.92c-.188-.08-.4-.08-.588 0l-2.158.92c-.031.013-.064.02-.097.02h-3.451c-.69 0-1.25-.56-1.25-1.25v-5c0-.138.112-.25.25-.25z"/><path d="m4 11.75c.414 0 .75-.336.75-.75v-4c0-.414-.336-.75-.75-.75h-1c-.968 0-1.75.782-1.75 1.75v2c0 .968.782 1.75 1.75 1.75zm-.75-1.5h-.25c-.138 0-.25-.112-.25-.25v-2c0-.138.112-.25.25-.25h.25z"/><path d="m14 6.75c.414 0 .75-.336.75-.75v-3c0-.968-.782-1.75-1.75-1.75h-2c-.968 0-1.75.782-1.75 1.75v3c0 .414.336.75.75.75zm-.75-1.5h-2.5v-2.25c0-.138.112-.25.25-.25h2c.138 0 .25.112.25.25z"/><path d="m6.787 10.53 1.871-1.872c.293-.293.293-.768 0-1.06-.293-.293-.768-.293-1.061 0l-1.871 1.872c-.292.293-.292.768.001 1.06.292.293.768.293 1.06 0z"/><path d="m6.059 6.242c.253-.739.679-1.408 1.227-1.947.002-.003.004-.005.006-.007.945-.953 2.256-1.538 3.708-1.538h2c2.283 0 4.233 1.459 4.942 3.497.136.39.564.597.955.461s.598-.564.462-.955c-.913-2.622-3.421-4.503-6.359-4.503h-2c-1.868 0-3.555.754-4.77 1.979-.711.7-1.263 1.57-1.59 2.529-.134.392.076.818.467.952.392.133.819-.076.952-.468z"/><path d="m14.55 14.75h3.489s-.554 2.217-.554 2.217c-.629 2.517-2.89 4.283-5.485 4.283-2.594 0-4.856-1.766-5.486-4.283 0 0-.554-2.217-.554-2.217h3.49c.414 0 .75-.336.75-.75s-.336-.75-.75-.75h-4.45c-.231 0-.449.106-.591.288s-.193.42-.137.644l.787 3.149c.797 3.185 3.659 5.419 6.941 5.419 3.283 0 6.144-2.234 6.94-5.419l.787-3.149c.056-.224.006-.462-.136-.644s-.36-.288-.591-.288h-4.45c-.414 0-.75.336-.75.75s.336.75.75.75z"/></g></svg>