<svg clip-rule="evenodd" fill-rule="evenodd" height="512" stroke-linejoin="round" stroke-miterlimit="2" viewBox="0 0 24 24" width="512" xmlns="http://www.w3.org/2000/svg"><g id="Icon"><path d="m2.493 6.553c-.305-.28-.326-.755-.046-1.06s.755-.326 1.06-.046l5.408 4.958c.087.079.216.088.312.02l3.678-2.574c.678-.475 1.596-.41 2.2.156l6.408 6c.302.283.317.758.034 1.06-.282.302-.757.318-1.06.035l-6.407-6c-.087-.081-.218-.09-.315-.022l-3.677 2.574c-.673.471-1.582.411-2.186-.143l-5.409-4.958z"/><path d="m20.24 11.547c-.001-.414.334-.751.747-.753.414-.001.752.334.753.748l.01 3c.001.414-.333.751-.747.752l-3 .01c-.414.002-.752-.333-.753-.747s.334-.751.748-.753l2.249-.007z"/><path d="m18.75 8c0 .414-.336.75-.75.75s-.75-.336-.75-.75v-4c0-.69-.56-1.25-1.25-1.25h-8c-.332 0-.649.132-.884.366-.234.235-.366.552-.366.884v16c0 .332.132.649.366.884.235.234.552.366.884.366h8c.69 0 1.25-.56 1.25-1.25v-3c0-.414.336-.75.75-.75s.75.336.75.75v3c0 1.519-1.231 2.75-2.75 2.75h-8c-.729 0-1.429-.29-1.945-.805-.515-.516-.805-1.216-.805-1.945v-16c0-.729.29-1.429.805-1.945.516-.515 1.216-.805 1.945-.805h8c1.519 0 2.75 1.231 2.75 2.75z"/><path d="m16.208 2.248-.641 1.83c-.245.702-.908 1.172-1.651 1.172h-3.832c-.743 0-1.406-.47-1.651-1.172l-.641-1.83c-.08-.23-.044-.484.096-.682.141-.198.369-.316.612-.316h7c.243 0 .471.118.612.316.14.198.176.452.096.682zm-1.765.502h-4.886l.292.833c.035.1.129.167.235.167h3.832c.106 0 .2-.067.235-.167z"/><path d="m9 19.25c-.414 0-.75-.336-.75-.75s.336-.75.75-.75h6c.414 0 .75.336.75.75s-.336.75-.75.75z"/><path d="m10.75 18.5c0 .414-.336.75-.75.75s-.75-.336-.75-.75v-3c0-.414.336-.75.75-.75s.75.336.75.75z"/><path d="m12.75 18.5c0 .414-.336.75-.75.75s-.75-.336-.75-.75v-4.5c0-.414.336-.75.75-.75s.75.336.75.75z"/><path d="m14.75 18.5c0 .414-.336.75-.75.75s-.75-.336-.75-.75v-2c0-.414.336-.75.75-.75s.75.336.75.75z"/></g></svg>