<svg clip-rule="evenodd" fill-rule="evenodd" height="512" stroke-linejoin="round" stroke-miterlimit="2" viewBox="0 0 24 24" width="512" xmlns="http://www.w3.org/2000/svg"><g id="Icon"><path d="m16.625 8.456c2.173 1.254 3.625 3.375 3.625 5.794 0 3.897-3.725 7-8.25 7s-8.25-3.103-8.25-7c0-2.419 1.452-4.54 3.625-5.794.358-.207.481-.666.275-1.024-.207-.359-.666-.482-1.025-.275-2.649 1.529-4.375 4.143-4.375 7.093 0 4.658 4.34 8.5 9.75 8.5s9.75-3.842 9.75-8.5c0-2.95-1.726-5.564-4.375-7.093-.359-.207-.818-.084-1.025.275-.206.358-.083.817.275 1.024z"/><path d="m12 5.63c-.845-.426-2.853-1.08-5.795.181-.201.086-.354.255-.42.463s-.038.434.077.62c0 0 .564.922 1.667 1.677-.145.128-.286.27-.409.425-.491.618-.745 1.411-.294 2.334.123.251.375.412.654.42 0 0 1.493.029 2.9-.55.154.647.483 1.403 1.18 1.908.263.189.617.189.88 0 .697-.505 1.026-1.261 1.18-1.908 1.407.579 2.9.55 2.9.55.279-.008.531-.169.654-.42.451-.923.197-1.716-.294-2.334-.123-.155-.264-.297-.409-.425 1.103-.755 1.667-1.677 1.667-1.677.115-.186.143-.412.077-.62s-.219-.377-.42-.463c-2.942-1.261-4.95-.607-5.795-.181zm-.45 1.47c.267.2.633.2.9 0 0 0 1.362-.952 3.785-.258-.353.337-.855.715-1.498.956-.286.107-.479.377-.487.682s.17.585.45.707c0 0 .446.196.818.542.147.136.297.301.354.496-.639-.058-1.655-.243-2.419-.823-.235-.178-.554-.202-.813-.06-.26.142-.411.423-.388.718 0 0 .078.72-.252 1.326-.33-.606-.252-1.326-.252-1.326.023-.295-.128-.576-.388-.718-.259-.142-.578-.118-.813.06-.764.58-1.78.765-2.419.823.057-.195.207-.36.354-.496.372-.346.818-.542.818-.542.28-.122.458-.402.45-.707s-.201-.575-.487-.682c-.643-.241-1.145-.619-1.499-.956 2.424-.694 3.786.258 3.786.258z"/><path d="m12.721 5.794s-.575-1.957.794-3.249c.301-.284.315-.759.03-1.06-.284-.301-.759-.315-1.06-.03-2.006 1.894-1.206 4.751-1.206 4.751.114.398.529.629.927.515s.629-.529.515-.927z"/></g></svg>