<svg clip-rule="evenodd" fill-rule="evenodd" height="512" stroke-linejoin="round" stroke-miterlimit="2" viewBox="0 0 24 24" width="512" xmlns="http://www.w3.org/2000/svg"><g id="Icon"><path d="m11.71 20.95c-4.945 0-8.96-4.015-8.96-8.96 0-3.029 1.507-5.709 3.811-7.331.338-.239.419-.707.181-1.045-.238-.339-.707-.42-1.045-.182-2.689 1.894-4.447 5.022-4.447 8.558 0 5.773 4.687 10.46 10.46 10.46.414 0 .75-.336.75-.75s-.336-.75-.75-.75z"/><path d="m12.288 3.048c4.676.298 8.382 4.191 8.382 8.942 0 2.731-1.224 5.177-3.153 6.821-.315.269-.353.743-.084 1.058.268.315.742.353 1.057.084 2.252-1.919 3.68-4.776 3.68-7.963 0-5.547-4.327-10.091-9.787-10.439-.413-.026-.77.288-.796.701s.288.77.701.796z"/><path d="m20.465 19.503-2.723-.334s.335-2.723.335-2.723c.05-.411-.243-.786-.653-.836-.411-.051-.786.242-.836.653l-.426 3.467c-.05.412.242.786.653.836l3.468.426c.411.05.785-.242.835-.653.051-.411-.242-.786-.653-.836z"/><path d="m3.514 3.735 2.738.186s-.187 2.738-.187 2.738c-.028.413.284.771.697.799s.772-.285.8-.698l.237-3.485c.028-.413-.284-.771-.697-.799l-3.486-.238c-.413-.028-.771.285-.799.698s.284.771.697.799z"/><path d="m11.646 9.879 1.061-1.061c.684-.683 1.792-.683 2.475 0s.683 1.791 0 2.475c0 0-1.061 1.061-1.061 1.061-.292.292-.292.768 0 1.06.293.293.768.293 1.061 0l1.061-1.06c1.269-1.27 1.269-3.327 0-4.597-1.27-1.269-3.327-1.269-4.597 0 0 0-1.06 1.061-1.06 1.061-.293.293-.293.768 0 1.061.292.292.768.292 1.06 0z"/><path d="m8.818 10.586-1.061 1.06c-1.269 1.27-1.269 3.327 0 4.597 1.27 1.269 3.327 1.269 4.597 0 0 0 1.06-1.061 1.06-1.061.293-.293.293-.768 0-1.061-.292-.292-.768-.292-1.06 0l-1.061 1.061c-.684.683-1.792.683-2.475 0s-.683-1.791 0-2.475c0 0 1.061-1.061 1.061-1.061.292-.292.292-.768 0-1.06-.293-.293-.768-.293-1.061 0z"/><path d="m12.884 10.055-2.829 2.829c-.292.293-.292.768 0 1.061.293.292.768.292 1.061 0l2.829-2.829c.292-.293.292-.768 0-1.061-.293-.292-.768-.292-1.061 0z"/></g></svg>