<svg clip-rule="evenodd" fill-rule="evenodd" height="512" stroke-linejoin="round" stroke-miterlimit="2" viewBox="0 0 24 24" width="512" xmlns="http://www.w3.org/2000/svg"><g id="Icon"><path d="m18 3.25h-2c-.597 0-1.169.237-1.591.659s-.659.994-.659 1.591v14c0 .597.237 1.169.659 1.591s.994.659 1.591.659h2c.414 0 .75-.336.75-.75s-.336-.75-.75-.75h-2c-.199 0-.39-.079-.53-.22-.141-.14-.22-.331-.22-.53v-14c0-.199.079-.39.22-.53.14-.141.331-.22.53-.22h2c.414 0 .75-.336.75-.75s-.336-.75-.75-.75z"/><path d="m18 11.25h-6c-.414 0-.75.336-.75.75s.336.75.75.75h6c.414 0 .75-.336.75-.75s-.336-.75-.75-.75z"/><path d="m5.667 2.5c-2.07 0-3.75 1.68-3.75 3.75s1.68 3.75 3.75 3.75c2.069 0 3.75-1.68 3.75-3.75s-1.681-3.75-3.75-3.75zm0 1.5c1.241 0 2.25 1.008 2.25 2.25s-1.009 2.25-2.25 2.25c-1.242 0-2.25-1.008-2.25-2.25s1.008-2.25 2.25-2.25z"/><path d="m10.083 12.083c0-.552-.219-1.082-.61-1.473-.391-.39-.92-.61-1.473-.61h-4.667c-.552 0-1.082.22-1.473.61-.391.391-.61.921-.61 1.473v2c0 .342.084.679.245.981l1.076 2.017c.029.055.049.114.06.175l.438 2.518c.173.998 1.04 1.726 2.052 1.726h1.091c1.013 0 1.879-.728 2.052-1.726l.433-2.488c.012-.07.037-.136.073-.197l1.022-1.726c.191-.321.291-.688.291-1.062zm-1.5 0v2.218c0 .105-.028.208-.081.298l-1.023 1.725c-.128.217-.217.456-.26.705l-.432 2.488c-.049.279-.292.483-.575.483h-1.091c-.283 0-.526-.204-.574-.483 0 0-.438-2.518-.438-2.518-.038-.218-.11-.429-.214-.624l-1.076-2.017c-.045-.085-.069-.179-.069-.275v-2c0-.154.061-.303.171-.412.109-.11.258-.171.412-.171h4.667c.155 0 .303.061.412.171.11.109.171.258.171.412z"/><path d="m21 14.75c.968 0 1.75-.784 1.75-1.75v-2c0-.966-.782-1.75-1.75-1.75h-2c-.968 0-1.75.784-1.75 1.75v2c0 .966.782 1.75 1.75 1.75zm0-1.5h-2c-.138 0-.25-.112-.25-.25v-2c0-.138.112-.25.25-.25h2c.138 0 .25.112.25.25v2c0 .138-.112.25-.25.25z"/><path d="m21 23.75c.968 0 1.75-.784 1.75-1.75v-2c0-.966-.782-1.75-1.75-1.75h-2c-.968 0-1.75.784-1.75 1.75v2c0 .966.782 1.75 1.75 1.75zm0-1.5h-2c-.138 0-.25-.112-.25-.25v-2c0-.138.112-.25.25-.25h2c.138 0 .25.112.25.25v2c0 .138-.112.25-.25.25z"/><path d="m21 6.75c.968 0 1.75-.784 1.75-1.75v-2c0-.966-.782-1.75-1.75-1.75h-2c-.968 0-1.75.784-1.75 1.75v2c0 .966.782 1.75 1.75 1.75zm0-1.5h-2c-.138 0-.25-.112-.25-.25v-2c0-.138.112-.25.25-.25h2c.138 0 .25.112.25.25v2c0 .138-.112.25-.25.25z"/></g></svg>