<svg clip-rule="evenodd" fill-rule="evenodd" height="512" stroke-linejoin="round" stroke-miterlimit="2" viewBox="0 0 24 24" width="512" xmlns="http://www.w3.org/2000/svg"><g id="Icon"><path d="m22.712 7.052c-.21-.783-.722-1.45-1.423-1.855-.702-.405-1.535-.515-2.318-.305l-10.932 2.929s-4.084-3.249-4.084-3.249c-.186-.149-.431-.2-.661-.138l-1.614.433c-.22.058-.401.214-.493.422-.091.208-.084.447.022.649l1.698 3.258s-1.029.276-1.029.276c-.4.107-.637.519-.53.919l.388 1.448c.074.275.296.484.574.541 0 0 1.335.273 2.531.518 1.331.272 2.707.231 4.019-.12 0 0 2.888-.774 2.888-.774s-1.842 3.959-1.842 3.959c-.123.264-.082.576.105.799.188.223.487.317.769.242l2.415-.647c.16-.043.302-.138.403-.271l4.364-5.747s3.376-.905 3.376-.905c.498-.133.922-.459 1.18-.905.258-.447.328-.978.194-1.476zm-1.449.388v.002c.031.113.015.235-.044.337s-.156.176-.27.206l-3.623.971c-.161.044-.303.139-.404.271l-4.364 5.748s-.614.164-.614.164 1.842-3.959 1.842-3.959c.123-.264.082-.576-.106-.799-.187-.223-.487-.317-.768-.242 0 0-2.591.694-4.44 1.19-1.087.291-2.227.325-3.33.1 0 0-2.077-.425-2.077-.425s-.074-.277-.074-.277 1.207-.324 1.207-.324c.22-.059.401-.214.493-.422.091-.209.084-.447-.022-.649l-1.698-3.259s.346-.092.346-.092 4.084 3.249 4.084 3.249c.186.149.431.2.661.138l11.298-3.027c.398-.107.822-.051 1.179.155s.617.546.724.944z"/><path d="m22.126 18.092h-19.51c-.414 0-.75.336-.75.75s.336.75.75.75h19.51c.414 0 .75-.336.75-.75s-.336-.75-.75-.75z"/></g></svg>