<svg clip-rule="evenodd" fill-rule="evenodd" stroke-linejoin="round" stroke-miterlimit="2" viewBox="0 0 32 32" xmlns="http://www.w3.org/2000/svg" xmlns:serif="http://www.serif.com/"><path id="bookmark-ribbon-mark" d="m0 0h32v32h-32z" fill="none"/><path d="m7.178 6.98c.444-1.159 1.63-2.038 2.9-2.006 1.538.038 2.925 1.378 2.935 3.006v15.643l2.301-2.301s.822-.548 1.419 0l2.301 2.301c0-5.222.097-10.444 0-15.665-.017-.524-.482-.975-1.007-.978h-2.003c-.286-.013-.363-.055-.502-.135-.525-.303-.659-1.127-.208-1.578.181-.181.317-.277.71-.294.693 0 1.387-.012 2.081.001 1.213.037 2.321.871 2.749 2.006h7.211c.019 0 .037.001.056.001.23.02.303.054.429.124.742.41.557 1.852-.485 1.882h-7.024v17.058c-.033.748-.941 1.269-1.579.822-.064-.045-.077-.06-.134-.112l-3.304-3.305-3.305 3.305s-1.198.616-1.619-.286c-.061-.132-.087-.276-.094-.424 0-6.029.112-12.059 0-18.087-.021-.675-.928-1.143-1.528-.821.556.388.729 1.384-.049 1.753-.133.063-.279.093-.43.097h-5.017c-.744-.017-1.275-.973-.804-1.604.186-.249.488-.396.804-.403h3.196z"/></svg>