<svg clip-rule="evenodd" fill-rule="evenodd" stroke-linejoin="round" stroke-miterlimit="1.414" viewBox="0 0 32 32" xmlns="http://www.w3.org/2000/svg" xmlns:serif="http://www.serif.com/"><path id="compose-write-review-pencil" d="m0 0h32v32h-32z" fill="none"/><path d="m24.003 29.001h-20.003c-.537-.023-.977-.462-1-1v-20.003c.023-.537.462-.976 1-1h10.001c.03.001.059.003.088.004.282.037.355.085.486.177.476.334.547 1.113.134 1.526-.145.145-.333.243-.534.278-.076.014-.096.012-.174.015h-9.001v18.003h18.003v-9.001s-.013-.085.034-.259c.199-.745 1.4-.99 1.832-.241.08.138.122.215.134.5v10.001c-.023.537-.462.977-1 1zm.586-19.002-3.294-3.294c-.121-.127-.146-.176-.192-.27-.166-.342-.116-.778.128-1.074.027-.032.035-.04.064-.07l2.001-2c.207-.198.485-.305.778-.291.238.023.462.125.636.291l4.001 4c.121.127.146.176.192.27.166.343.116.778-.128 1.074-.027.033-.035.04-.064.07l-2.001 2.001-10.001 10.001c-.159.148-.354.252-.565.283-.063.009-.079.008-.142.01h-4.001c-.229-.009-.267-.031-.365-.069-.37-.145-.62-.523-.635-.931v-4.001c.014-.393.093-.492.293-.707l6.997-6.997c.31-.288.413-.292.745-.292.244.018.309.051.43.115.503.266.685 1.007.337 1.478-.039.053-.052.064-.097.113l-6.705 6.705v2.586h2.586zm-1.172-4.001 2.586 2.586.586-.586-2.586-2.586c-.195.195-.391.391-.586.586z" fill-rule="nonzero"/></svg>