<svg clip-rule="evenodd" fill-rule="evenodd" stroke-linejoin="round" stroke-miterlimit="1.414" viewBox="0 0 32 32" xmlns="http://www.w3.org/2000/svg" xmlns:serif="http://www.serif.com/"><path id="trade-transaction-payment-trading" d="m0 0h32v32h-32z" fill="none"/><path d="m8.397 19.006 2.297 2.297.053.058c.043.054.056.067.092.127.361.588-.082 1.525-.854 1.525-.262 0-.513-.114-.708-.294l-4.007-4.006c-.047-.052-.061-.063-.102-.12-.393-.541-.066-1.464.654-1.578.069-.011.087-.01.157-.012h16.027l.078.003c.07.008.087.008.155.024.677.163 1.009 1.149.475 1.683-.186.185-.444.283-.708.293zm17.615-4.007h-16.027c-.069-.002-.087-.001-.156-.012-.612-.097-1.036-.856-.736-1.444.166-.326.518-.532.892-.547h13.609l-2.297-2.297-.053-.058c-.043-.054-.056-.067-.092-.127-.337-.549.011-1.404.697-1.513.149-.023.186-.011.235-.009.07.008.087.008.155.025.179.043.338.139.475.266l4.007 4.006c.047.052.061.063.102.12.321.442.194 1.148-.287 1.443-.112.068-.237.114-.367.135-.069.011-.087.01-.157.012z" fill-rule="nonzero"/></svg>