<svg clip-rule="evenodd" fill-rule="evenodd" stroke-linejoin="round" stroke-miterlimit="2" viewBox="0 0 32 32" xmlns="http://www.w3.org/2000/svg" xmlns:serif="http://www.serif.com/"><path id="transmitter-signal-tower-bts" d="m0 0h32v32h-32z" fill="none"/><path d="m18.049 20.253c.136.009.159.017.219.033.303.081.523.247.671.596l2.002 5.004c.348.929-1.278 2.108-1.859.744l-2.002-5.005c-.231-.618.231-1.354.925-1.373.015.001.03.001.044.001zm-3.385-3.341c-.263-.121-.51-.284-.728-.492-1.65-1.573-.765-5.123 2.033-5.176h.077c1.975.037 3.6 2.371 2.668 4.305-.375.778-1.123 1.308-1.958 1.522l-3.823 9.559c-.213.488-.357.479-.564.56-.684.268-1.578-.448-1.316-1.244.006-.02.014-.04.021-.06zm-7.053-12.155c.261.036.329.078.452.159.57.374.48 1.205-.04 1.749-3.788 4.009-3.99 10.859-.097 15.06.152.164.353.369.353.369.616.791-.442 2.412-1.591 1.234-2.771-2.842-4.111-6.959-3.57-10.871.377-2.73 1.658-5.332 3.57-7.292.269-.276.427-.437.923-.408zm16.954-.003c.483.05.54.183.762.411 3.216 3.298 4.474 8.338 3.157 12.785-.596 2.015-1.684 3.867-3.157 5.378-.722.741-1.806.302-1.827-.565-.016-.705.747-1.163 1.266-1.841 3.09-4.042 2.922-10.27-.677-14.154-.152-.164-.352-.369-.352-.369-.162-.208-.181-.285-.213-.429-.117-.525.263-1.106.8-1.202.152-.028.191-.015.241-.014zm-13.421 3.541c.23.028.297.064.416.134.601.352.529 1.2-.013 1.795-2.026 2.258-2.024 6.018.216 8.272 0 0 .627 1.363-.434 1.667-.501.144-.969-.207-1.369-.667-2.589-2.977-2.592-7.878.349-10.875 0 0 .44-.35.835-.326zm9.853-.003c.373.024.674.278.956.59 2.69 2.977 2.693 7.994-.247 10.99 0 0-.755.529-1.304.159-.568-.384-.444-1.202.066-1.762 2.03-2.261 2.024-6.018-.216-8.272 0 0-.214-.245-.267-.49-.128-.578.26-1.175.949-1.216.021 0 .042 0 .063.001zm-5.003 4.954c-.861.016-1.412 1.484-.375 1.923.734.311 1.736-.587 1.257-1.42-.178-.31-.502-.506-.882-.503z"/></svg>