<svg clip-rule="evenodd" fill-rule="evenodd" height="512" stroke-linejoin="round" stroke-miterlimit="2" viewBox="0 0 24 24" width="512" xmlns="http://www.w3.org/2000/svg"><g id="Icon"><path d="m13.17 17.471c1.388.174 2.846.198 4.374.072 1.626-.135 2.838-1.564 2.703-3.191-.134-1.626-1.564-2.837-3.19-2.703-4.786.396-8.57-1.356-11.34-5.285-.94-1.334-2.786-1.653-4.12-.713s-1.653 2.786-.713 4.12c.885 1.256 1.841 2.359 2.868 3.312.303.281.778.263 1.06-.04.281-.304.264-.779-.04-1.06-.953-.885-1.84-1.91-2.662-3.076-.463-.657-.306-1.567.351-2.03s1.567-.306 2.03.351c3.099 4.397 7.334 6.359 12.69 5.916.801-.066 1.505.531 1.571 1.332.067.801-.53 1.505-1.331 1.572-1.42.117-2.775.096-4.064-.066-.411-.051-.786.24-.838.651-.051.411.24.786.651.838z"/><path d="m6.222 13.082s-.466 1-.933 2c-.69 1.48-.05 3.239 1.43 3.929 1.48.691 3.24.05 3.93-1.43.466-1 .932-2 .932-2 .175-.375.013-.821-.362-.996-.376-.175-.822-.013-.997.362 0 0-.466 1-.933 2-.34.73-1.206 1.045-1.936.705-.729-.34-1.044-1.207-.704-1.936.466-1 .932-2 .932-2 .175-.375.013-.822-.362-.997-.376-.175-.822-.012-.997.363z"/><path d="m6.357 18.015-1.421 3.047c-.175.375-.013.822.363.996.375.175.821.013.996-.362l1.421-3.047c.175-.375.013-.822-.363-.997-.375-.175-.821-.012-.996.363z"/><path d="m19.787 15.278 1.233-.033c.414-.012.741-.357.73-.771-.012-.413-.357-.74-.77-.729l-1.234.034c-.413.011-.74.356-.729.77s.357.741.77.729z"/><path d="m.413 5.635.766.966c.258.324.73.379 1.054.121.324-.257.379-.729.121-1.053l-.767-.967c-.257-.324-.729-.378-1.053-.121-.324.258-.379.73-.121 1.054z"/><path d="m17.141 9.658s.413-.62.733-1.101c.392-.588.392-1.353 0-1.941l-.363-.546c-.056-.084-.056-.193 0-.277l.363-.546c.392-.588.392-1.354 0-1.941-.32-.481-.733-1.101-.733-1.101-.23-.344-.696-.437-1.04-.208-.345.23-.438.696-.208 1.04l.733 1.101c.056.084.056.193 0 .277l-.363.546c-.392.588-.392 1.353 0 1.941l.363.546c.056.084.056.193 0 .277l-.733 1.101c-.23.344-.137.81.208 1.04.344.229.81.136 1.04-.208z"/><path d="m13.831 7.722-.734-1.1c-.056-.084-.056-.194 0-.278l.364-.545c.392-.588.392-1.354 0-1.942-.321-.481-.734-1.1-.734-1.1-.229-.344-.695-.438-1.04-.208-.344.23-.437.696-.208 1.04l.734 1.1c.056.084.056.194 0 .278l-.364.545c-.392.588-.392 1.354 0 1.942.321.481.734 1.1.734 1.1.229.345.695.438 1.04.208.344-.229.437-.695.208-1.04z"/></g></svg>