<svg clip-rule="evenodd" fill-rule="evenodd" height="512" stroke-linejoin="round" stroke-miterlimit="2" viewBox="0 0 24 24" width="512" xmlns="http://www.w3.org/2000/svg"><g id="Icon"><path d="m17.75 12c0-.099-.002-.209-.012-.31-.036-.786-.241-1.539-.571-2.213-.091-.203-.205-.389-.321-.575-.001-.002-.002-.004-.004-.006-.423-.663-.982-1.225-1.623-1.672-.01-.007-.021-.014-.031-.02-.183-.115-.378-.228-.572-.32-.659-.344-1.405-.56-2.196-.611-.131-.02-.27-.023-.42-.023-.099 0-.209.001-.31.012-.786.036-1.539.241-2.213.571-.203.091-.389.205-.574.321-.002.001-.004.002-.006.003-.664.424-1.226.983-1.672 1.624-.007.01-.014.021-.021.031-.114.183-.228.378-.319.572-.345.659-.561 1.405-.611 2.196-.021.131-.024.27-.024.42 0 .099.002.209.012.31.036.786.241 1.539.571 2.212.091.203.205.39.321.575.001.002.003.004.004.006.423.664.983 1.226 1.623 1.672.011.007.021.014.032.021.182.114.377.227.571.319.66.345 1.406.561 2.196.611.131.02.27.024.42.024.099 0 .209-.002.31-.012.786-.036 1.539-.241 2.213-.571.203-.092.389-.205.575-.321.002-.002.004-.003.005-.004.664-.423 1.226-.983 1.673-1.624.007-.01.014-.02.02-.031.114-.183.228-.377.32-.571.344-.66.56-1.406.611-2.197.02-.13.023-.269.023-.419zm-1.5 0c0 .072.004.139-.008.206-.005.03-.009.06-.011.091-.033.59-.193 1.146-.455 1.644-.005.01-.01.019-.015.029-.062.134-.141.267-.219.394-.34.485-.753.899-1.243 1.212-.13.081-.258.164-.404.228-.008.004-.017.008-.026.013-.499.245-1.058.398-1.651.423-.02.001-.041.003-.061.005-.05.007-.107.005-.157.005-.072 0-.139.004-.206-.008-.03-.006-.06-.009-.091-.011-.59-.034-1.147-.194-1.644-.455-.01-.005-.02-.01-.03-.015-.133-.063-.266-.141-.393-.22-.485-.339-.899-.753-1.212-1.243-.081-.129-.164-.257-.229-.403-.003-.009-.008-.017-.012-.026-.245-.5-.398-1.059-.424-1.651 0-.021-.002-.041-.005-.061-.006-.051-.004-.107-.004-.157 0-.073-.004-.14.008-.206.005-.03.009-.061.011-.092.034-.59.194-1.146.455-1.643.005-.01.01-.02.015-.03.063-.134.141-.267.219-.393.34-.485.753-.9 1.244-1.213.129-.081.257-.163.403-.228.009-.004.017-.008.026-.012.5-.246 1.058-.399 1.651-.424.021-.001.041-.003.061-.005.05-.006.107-.004.157-.004.073 0 .139-.004.206.008.03.005.061.009.091.01.59.034 1.147.194 1.644.456.01.005.02.01.03.014.133.063.267.141.393.22.485.339.9.753 1.213 1.243.08.13.163.258.228.403l.012.027c.246.499.398 1.058.424 1.651.001.02.002.04.005.061.006.05.004.106.004.157z"/><path d="m14.722 8.079.038.001.013-.01c.207-.004.403-.093.542-.246.126-.138.195-.318.195-.503v-.001c0-.024-.001-.046-.003-.066v-.006c-.099-1.018-.372-2.001-.809-2.909-.426-.917-1.016-1.758-1.747-2.489 0 0-.38-.38-.38-.38-.293-.293-.768-.293-1.061 0l-.38.38c-.724.723-1.315 1.567-1.732 2.477-.442.898-.716 1.873-.814 2.88-.041.412.261.779.673.819.412.041.779-.261.82-.673.081-.83.306-1.633.676-2.382.003-.006.006-.013.009-.02.314-.686.75-1.325 1.278-1.885.538.569.976 1.213 1.3 1.91.001.003.003.006.005.01.358.744.583 1.549.666 2.384.002.041.008.082.017.122l.001.004.002.007.003.014.006.023.002.008.001.003c.091.294.359.512.679.528zm-.71-.7c.003.039.008.077.016.113l.003.011.009.037.003.011c.024.075.058.139.1.194-.071-.101-.117-.222-.129-.353zm-.002-.059v.004l.001-.009z"/><path d="m7.572 4.247c.752.228 1.449.569 2.079 1.008.34.237.807.153 1.044-.186.237-.34.154-.808-.186-1.044-.83-.579-1.758-1.016-2.762-1.289.002.001-.508-.139-.508-.139-.193-.053-.398-.027-.572.072-.173.099-.299.263-.351.456l-.141.522c-.262.982-.349 1.997-.273 2.99.032.413.393.722.806.691.412-.032.722-.393.69-.806-.058-.755-.003-1.525.174-2.275z"/><path d="m4.288 7.5c.758-.184 1.535-.239 2.297-.173.835.073 1.661.28 2.432.634.376.173.822.008.995-.368s.008-.821-.368-.994c-.929-.428-1.923-.679-2.929-.766-1.004-.088-2.03-.001-3.024.271 0 0-.513.128-.513.128-.195.049-.362.174-.464.348-.102.173-.13.381-.078.575l.142.526c.272.98.698 1.906 1.264 2.724.569.831 1.28 1.563 2.1 2.154.336.241.805.165 1.047-.171s.165-.805-.171-1.047c-.679-.489-1.268-1.096-1.739-1.785-.001-.001-.002-.002-.002-.003-.431-.621-.762-1.317-.989-2.053z"/><path d="m3.066 11.96c.569-.538 1.213-.976 1.909-1.299.376-.174.54-.62.366-.996-.174-.375-.62-.539-.996-.365-.919.426-1.762 1.016-2.495 1.749 0 0-.38.38-.38.38-.293.293-.293.768 0 1.061l.38.38c.723.724 1.568 1.315 2.478 1.732.376.172.822.006.994-.37.172-.377.007-.822-.37-.994-.686-.314-1.326-.75-1.886-1.278z"/><path d="m4.247 16.428c.229-.752.569-1.45 1.008-2.079.002-.002.003-.004.004-.006.471-.687 1.068-1.293 1.756-1.782.337-.239.416-.708.176-1.046-.239-.337-.708-.416-1.045-.176-.832.59-1.554 1.323-2.123 2.155-.578.829-1.014 1.756-1.287 2.759.001-.002-.139.508-.139.508-.053.193-.027.399.073.572.099.173.263.3.456.351l.52.139c.983.263 1.998.351 2.991.274 1.005-.076 1.988-.327 2.905-.731.379-.167.551-.61.384-.988-.166-.379-.609-.551-.988-.384-.762.335-1.579.544-2.414.607-.001 0-.001 0-.002 0-.755.059-1.525.004-2.275-.173z"/><path d="m7.5 19.712c-.184-.759-.239-1.536-.173-2.298.036-.412-.269-.776-.682-.812-.412-.036-.776.27-.812.682-.087 1.005 0 2.031.271 3.026 0-.001.129.512.129.512.049.195.174.362.347.464.174.102.381.13.575.078l.526-.142c.982-.273 1.909-.698 2.727-1.267.34-.236.424-.704.188-1.044s-.704-.424-1.044-.188c-.62.431-1.316.762-2.052.989z"/><path d="m11.96 20.934c-.538-.569-.976-1.213-1.3-1.91-.001-.003-.003-.006-.004-.01-.362-.751-.588-1.565-.669-2.406-.04-.412-.407-.714-.819-.675-.412.04-.714.407-.674.819.098 1.017.371 2.001.808 2.909.427.917 1.016 1.758 1.748 2.489 0 0 .38.38.38.38.293.293.768.293 1.06 0l.38-.38c.724-.723 1.315-1.568 1.732-2.478.443-.898.716-1.873.815-2.879.04-.412-.262-.779-.674-.82-.412-.04-.779.262-.819.674-.081.829-.307 1.632-.676 2.381-.004.006-.007.013-.01.02-.314.686-.749 1.326-1.278 1.886z"/><path d="m16.429 19.753c-.752-.229-1.45-.569-2.08-1.009-.339-.236-.807-.153-1.044.187-.237.339-.153.807.186 1.044.83.578 1.758 1.015 2.763 1.288-.002 0 .508.14.508.14.192.053.398.027.571-.073.173-.099.3-.263.351-.455l.141-.522c.262-.983.349-1.998.273-2.991-.032-.413-.393-.722-.805-.69-.413.032-.722.392-.691.805.058.755.003 1.525-.173 2.276z"/><path d="m19.712 16.5c-.757.184-1.535.239-2.297.172-.835-.072-1.66-.279-2.432-.634-.376-.173-.821-.008-.994.368s-.008.822.368.995c.928.427 1.923.678 2.928.766 1.004.087 2.03 0 3.024-.272 0 0 .513-.128.513-.128.195-.049.363-.174.465-.347.102-.174.13-.381.077-.575l-.141-.526c-.273-.981-.699-1.907-1.265-2.725-.569-.83-1.28-1.563-2.1-2.153-.336-.242-.805-.166-1.047.17s-.165.805.171 1.047c.679.489 1.268 1.096 1.739 1.785.001.001.002.003.003.004.43.62.761 1.316.988 2.053z"/><path d="m20.934 12.04c-.569.538-1.212.976-1.909 1.298-.376.174-.54.62-.366.996s.621.539.996.365c.919-.425 1.762-1.016 2.495-1.749 0 0 .38-.38.38-.38.293-.293.293-.768 0-1.061l-.38-.38c-.723-.723-1.568-1.315-2.478-1.731-.376-.172-.822-.007-.994.37-.172.376-.007.821.37.994.686.314 1.326.749 1.886 1.278z"/><path d="m19.753 7.572c-.229.752-.569 1.45-1.008 2.079-.001.002-.002.004-.004.005-.47.687-1.068 1.293-1.755 1.782-.338.24-.417.708-.177 1.046.239.337.708.416 1.046.177.831-.591 1.553-1.324 2.122-2.154.578-.829 1.014-1.758 1.287-2.761-.001.002.139-.508.139-.508.053-.193.027-.399-.072-.572-.1-.173-.264-.3-.457-.351l-.521-.139c-.982-.262-1.997-.35-2.99-.274-1.005.076-1.988.328-2.905.732-.379.167-.551.61-.384.989.167.378.61.551.988.384.763-.336 1.579-.546 2.414-.609h.002c.754-.058 1.524-.003 2.275.174z"/><path d="m16.5 4.288c.184.757.239 1.535.173 2.297-.036.412.27.776.682.812.413.036.776-.27.812-.682.088-1.004.001-2.031-.271-3.024 0 0-.128-.513-.128-.513-.049-.195-.174-.363-.348-.465-.173-.102-.381-.13-.575-.077l-.526.141c-.982.273-1.908.698-2.727 1.267-.34.236-.424.704-.188 1.044s.704.424 1.044.188c.62-.431 1.316-.762 2.052-.988z"/></g></svg>