<svg clip-rule="evenodd" fill-rule="evenodd" stroke-linejoin="round" stroke-miterlimit="2" viewBox="0 0 32 32" xmlns="http://www.w3.org/2000/svg" xmlns:serif="http://www.serif.com/"><path id="book-open-novel" d="m0 0h32v32h-32z" fill="none"/><path d="m7.047 5.929c3.221.031 6.417.902 9.291 2.288.301.145.64.477.662.947v12c-.033.693-.361.837-.673.945-.595.206-1.295-.271-1.327-.945v-11.366c-3.128-1.422-6.595-2.13-9.973-1.765l-.027 13.939c3.705-.506 7.542.472 10.986 2.077.24-.119.481-.234.725-.345 3.214-1.461 6.785-2.103 10.281-1.701l.008-13.947c-2.232-.205-4.468.001-6.622.561l-.214.052c-.688.082-.885-.219-1.042-.508-.302-.554.021-1.288.75-1.479.109-.028.218-.056.327-.083 2.57-.631 5.239-.783 7.871-.435 0 0 .893.223.93 1v16c-.03.621-.595 1.087-1.267.968-.03-.005-.059-.01-.089-.015-3.754-.632-7.707.128-11.183 1.934 0 0-.686.109-1.314-.186-3.397-1.583-7.126-2.551-10.935-1.724 0 0-.556.055-.875-.229-.211-.187-.324-.464-.337-.748v-16c.049-1.04 1.604-1.138 2.876-1.207.39-.021.78-.03 1.171-.028zm.979 12.235s1.159.078 2.203.255c.661.112 1.316.256 1.964.426 0 0 .732.289.8.866.075.637-.571 1.251-1.25 1.084-1.241-.331-2.519-.548-3.809-.633 0 0-.939-.274-.934-1.004.003-.516.455-.976.987-.994zm0-4s.759.053 1.351.129c.998.127 2.021.262 2.956.593.771.272.871 1.661-.079 1.91-.116.03-.236.04-.355.028-.696-.071-1.474-.351-2.241-.472-.572-.089-1.147-.152-1.724-.19 0 0-1.152-.397-.894-1.279.123-.419.544-.721.986-.719zm16.027.002c.807.059 1.294 1.262.53 1.81-.232.167-.536.186-.815.208-1.185.097-2.361.305-3.511.611 0 0-.76.071-1.083-.403-.353-.518-.081-1.343.569-1.53 1.345-.358 2.732-.595 4.127-.691 0 0 .066-.009.183-.005zm-16.027-4.002s1.159.078 2.203.255c.661.112 1.316.256 1.964.426 0 0 .556.182.73.598.28.672-.373 1.55-1.18 1.352-1.241-.331-2.519-.548-3.809-.633 0 0-.716-.165-.886-.691-.189-.587.274-1.285.939-1.307zm16.027.002c.807.059 1.294 1.262.53 1.81-.232.167-.536.186-.815.208-1.185.097-2.361.305-3.511.611 0 0-.976.042-1.206-.652-.17-.514.152-1.125.692-1.281 1.345-.358 2.732-.595 4.127-.691 0 0 .066-.009.183-.005z"/></svg>