<svg clip-rule="evenodd" fill-rule="evenodd" stroke-linejoin="round" stroke-miterlimit="1.414" viewBox="0 0 32 32" xmlns="http://www.w3.org/2000/svg" xmlns:serif="http://www.serif.com/"><path id="compass-discover-adventure-gear" d="m0 0h32v32h-32z" fill="none"/><path d="m16.089 3.009c.307.043.386.101.523.208.625.49.384 1.785-.652 1.788-.036 0-.072.001-.107.001-2.888.041-5.717 1.253-7.732 3.316-3.226 3.305-4.072 8.694-1.834 12.873 1.596 2.978 4.615 5.149 7.964 5.683 4.443.708 9.21-1.558 11.421-5.625 1.908-3.51 1.709-8.064-.571-11.423-1.285-1.893-3.158-3.358-5.333-4.158l-.088-.037c-.273-.148-.327-.229-.419-.377-.421-.685.274-1.806 1.255-1.443 4.785 1.774 8.168 6.388 8.463 11.431.235 4.009-1.505 8.087-4.592 10.698-3.378 2.857-8.269 3.827-12.524 2.401-4.422-1.483-7.902-5.486-8.691-10.155-.824-4.868 1.361-10.133 5.551-12.964 2.125-1.436 4.674-2.218 7.271-2.222.031.002.063.003.095.005zm5.652 6.345c.216.026.273.055.381.112.41.217.631.741.485 1.192-.018.057-.026.07-.049.124l-3.659 7.66c-.156.304-.246.355-.472.472l-7.66 3.658c-.468.205-.599.102-.777.037-.476-.176-.766-.753-.606-1.247.018-.056.025-.069.049-.123l3.659-7.661c.156-.303.245-.355.471-.471l7.661-3.659c.162-.071.336-.104.517-.094zm-6.996 5.406-2.287 4.787 4.788-2.286 2.286-4.788c-1.595.762-3.191 1.524-4.787 2.287z" fill-rule="nonzero"/></svg>