<svg clip-rule="evenodd" fill-rule="evenodd" height="512" stroke-linejoin="round" stroke-miterlimit="2" viewBox="0 0 24 24" width="512" xmlns="http://www.w3.org/2000/svg"><g id="Icon"><path d="m21.792 6.401c-.01.414-.353.742-.767.733-.414-.01-.742-.353-.733-.767l.041-1.806-1.805-.041c-.414-.01-.742-.353-.733-.767.01-.414.353-.742.767-.733l2.556.059c.414.009.742.352.732.766z"/><path d="m5.827 9.346v12.141c0 .698-.565 1.263-1.263 1.263h-2.051c-.698 0-1.263-.565-1.263-1.263v-12.141c0-.697.565-1.263 1.263-1.263h2.051c.698 0 1.263.566 1.263 1.263zm-3.077.237v11.667h1.577v-11.667z"/><path d="m17.109 15.5v5.987c0 .335-.133.656-.37.893s-.558.37-.893.37h-2.051c-.335 0-.656-.133-.893-.37s-.37-.558-.37-.893v-5.987c0-.335.133-.656.37-.893s.558-.37.893-.37h2.051c.335 0 .656.133.893.37s.37.558.37.893zm-3.077.237v5.513h1.577v-5.513z"/><path d="m11.468 12.423v9.064c0 .698-.565 1.263-1.263 1.263h-2.051c-.698 0-1.263-.565-1.263-1.263v-9.064c0-.335.133-.656.37-.893s.558-.37.893-.37h2.051c.698 0 1.263.566 1.263 1.263zm-3.077.237v8.59h1.577v-8.59z"/><path d="m22.75 12.423v9.064c0 .698-.565 1.263-1.263 1.263h-2.051c-.698 0-1.263-.565-1.263-1.263v-9.064c0-.335.133-.656.37-.893s.558-.37.893-.37h2.051c.698 0 1.263.566 1.263 1.263zm-3.077.237v8.59h1.577v-8.59z"/><path d="m2.45 2.6c-.332-.248-.399-.719-.15-1.05.248-.331.718-.398 1.05-.15l5.953 4.465h2.827c.231 0 .448.106.59.287l2.287 2.911 5.3-5.531c.286-.299.761-.309 1.06-.022.299.286.309.761.023 1.06l-5.898 6.154c-.15.157-.361.241-.578.23-.217-.01-.419-.115-.553-.286l-2.595-3.303h-2.713c-.162 0-.32-.052-.45-.15z"/></g></svg>