<svg clip-rule="evenodd" fill-rule="evenodd" stroke-linejoin="round" stroke-miterlimit="1.414" viewBox="0 0 32 32" xmlns="http://www.w3.org/2000/svg" xmlns:serif="http://www.serif.com/"><path id="top-king-crown-seller" d="m0 0h32v32h-32z" fill="none"/><path d="m16.242 7.03c.208.063.329.094.558.37l5.2 6.934 5.2-6.934s.303-.37.737-.398c.541-.034 1.036.437 1.063.998v16c-.025.536-.46.975-1 1h-20c-.777-.037-1.293-1.034-.756-1.655.146-.168.348-.284.567-.327.083-.016.105-.014.189-.018h19v-12l-4.2 5.6c-.4.483-1.176.511-1.6 0l-5.2-6.933-5.2 6.933s-.971.759-1.6 0l-4.2-5.6v13s-.02.474-.345.756c-.383.331-1.027.304-1.379-.066-.131-.138-.222-.313-.258-.5-.016-.084-.014-.105-.018-.19v-16c.038-.78 1.053-1.3 1.671-.741.063.057.075.076.129.141l5.2 6.934 5.2-6.934.062-.075c.062-.061.075-.079.145-.13.158-.116.349-.184.544-.193.186-.01.231.016.291.028z" fill-rule="nonzero"/></svg>