<svg clip-rule="evenodd" fill-rule="evenodd" height="512" stroke-linejoin="round" stroke-miterlimit="2" viewBox="0 0 24 24" width="512" xmlns="http://www.w3.org/2000/svg"><g id="Icon"><path d="m22.75 8c0-.199-.079-.39-.22-.53l-1-1c-.14-.141-.331-.22-.53-.22h-6c-.199 0-.39.079-.53.22l-.47.469s-.47-.469-.47-.469c-.14-.141-.331-.22-.53-.22h-10c-.199 0-.39.079-.53.22l-1 1c-.141.14-.22.331-.22.53v8c0 .199.079.39.22.53l1 1c.14.141.331.22.53.22h10c.199 0 .39-.079.53-.22l.47-.469s.47.469.47.469c.14.141.331.22.53.22h6c.199 0 .39-.079.53-.22l1-1c.141-.14.22-.331.22-.53zm-1.5.311v7.378s-.561.561-.561.561h-5.378s-.781-.78-.781-.78c-.293-.293-.767-.293-1.06 0l-.781.78h-9.378s-.561-.561-.561-.561v-7.378s.561-.561.561-.561h9.378s.781.78.781.78c.293.293.767.293 1.06 0l.781-.78h5.378z"/><path d="m13.25 8v8c0 .414.336.75.75.75s.75-.336.75-.75v-8c0-.414-.336-.75-.75-.75s-.75.336-.75.75z"/><path d="m11 11.25h-5.5c-.414 0-.75.336-.75.75s.336.75.75.75h5.5c.414 0 .75-.336.75-.75s-.336-.75-.75-.75z"/><path d="m10.143 11.614-1.5-2.5c-.213-.355-.674-.47-1.029-.257s-.47.674-.257 1.029l1.5 2.5c.213.355.674.47 1.029.257s.47-.674.257-1.029z"/><path d="m6.171 11.665-.5-1c-.185-.371-.636-.521-1.006-.336-.371.185-.521.636-.336 1.006l.5 1c.185.371.636.521 1.006.336.371-.185.521-.636.336-1.006z"/><path d="m4.829 11.665-.5 1c-.185.37-.035.821.336 1.006.37.185.821.035 1.006-.336l.5-1c.185-.37.035-.821-.336-1.006-.37-.185-.821-.035-1.006.336z"/><path d="m8.857 11.614-1.5 2.5c-.213.355-.098.816.257 1.029s.816.098 1.029-.257l1.5-2.5c.213-.355.098-.816-.257-1.029s-.816-.098-1.029.257z"/><path d="m16.5 11.25h1.5c.414 0 .75-.336.75-.75s-.336-.75-.75-.75h-1.5c-.414 0-.75.336-.75.75s.336.75.75.75z"/><path d="m16.5 14.25h3c.414 0 .75-.336.75-.75s-.336-.75-.75-.75h-3c-.414 0-.75.336-.75.75s.336.75.75.75z"/></g></svg>