<svg clip-rule="evenodd" fill-rule="evenodd" height="512" stroke-linejoin="round" stroke-miterlimit="2" viewBox="0 0 24 24" width="512" xmlns="http://www.w3.org/2000/svg"><g id="Icon"><path d="m2.3 21.701c.635.636 1.512 1.03 2.485 1.03.61 0 1.214-.159 1.748-.466 0 .001 4.01-2.294 4.01-2.294 1.971-1.124 3.79-2.486 5.424-4.042.001-.001.002-.002.003-.003 1.099-1.057 2.115-2.203 3.024-3.424.448-.587.865-1.194 1.256-1.819.278-.439.535-.89.766-1.353.454-.903.826-1.845 1.109-2.814l.095-.343c.26-.978.43-1.982.505-2.995.081-1.083-.804-1.984-1.887-1.904-1.137.083-2.261.285-3.352.602-1.462.423-2.866 1.053-4.171 1.876-.001 0-.001 0-.002.001-.801.508-1.577 1.052-2.317 1.638-1.197.936-2.311 1.968-3.334 3.083v.001c-.884.965-1.695 1.992-2.435 3.076-.426.615-.822 1.253-1.197 1.905l-2.296 4.013c-.305.534-.464 1.136-.464 1.747 0 .972.394 1.85 1.03 2.485zm1.06-1.06c-.364-.365-.59-.868-.59-1.425 0-.351.091-.697.266-1.003 0 0 2.294-4.01 2.294-4.01.355-.616.729-1.218 1.131-1.8.001-.001.002-.003.003-.004.7-1.026 1.468-1.998 2.304-2.912.967-1.054 2.022-2.031 3.154-2.915.001-.001.003-.002.004-.003.699-.555 1.432-1.068 2.19-1.549 1.185-.747 2.46-1.319 3.788-1.704.991-.287 2.011-.471 3.043-.546h.001c.165-.012.294.131.281.296v.001c-.068.92-.223 1.831-.458 2.719-.029.107-.058.208-.087.315-.257.879-.595 1.735-1.009 2.557 0 .001-.001.001-.001.002-.209.419-.442.826-.693 1.225-.001 0-.001.001-.001.002-.368.586-.76 1.157-1.181 1.709-.002.002-.004.005-.006.007-.86 1.156-1.822 2.24-2.862 3.241-1.545 1.472-3.266 2.761-5.132 3.824l-4.012 2.296c-.306.176-.652.267-1.002.267-.557 0-1.06-.226-1.425-.59z"/><path d="m3.36 21.701 3.69-3.69c.293-.292.293-.768 0-1.06-.292-.293-.768-.293-1.06 0l-3.69 3.69c-.293.292-.293.768 0 1.06.292.293.768.293 1.06 0z"/><path d="m9.981 8.23.039.001h11c.414 0 .75-.337.75-.75 0-.414-.336-.75-.75-.75h-10.975-.01c-.291.006-.541.178-.659.424-.068.054-.106.185-.106.326 0 .401.315.728.711.749z"/><path d="m19.02 10.231h-12.17c-.414 0-.75.336-.75.75 0 .413.336.75.75.75h12.17c.414 0 .75-.337.75-.75 0-.414-.336-.75-.75-.75z"/></g></svg>