<svg viewBox="0 0 32 32" xmlns="http://www.w3.org/2000/svg"><g id="discord_group_forum_message" data-name="discord group forum message"><path d="m9.82 17.41a3.1 3.1 0 0 0 2.9 3.26 3.1 3.1 0 0 0 2.89-3.26 3.11 3.11 0 0 0 -2.89-3.27 3.11 3.11 0 0 0 -2.9 3.27zm3.79 0c0 .68-.41 1.26-.89 1.26s-.9-.58-.9-1.26.41-1.27.9-1.27.89.58.89 1.27z"/><path d="m19.28 14.14a3.11 3.11 0 0 0 -2.89 3.27 3.1 3.1 0 0 0 2.89 3.26 3.1 3.1 0 0 0 2.9-3.26 3.11 3.11 0 0 0 -2.9-3.27zm0 4.53c-.48 0-.89-.58-.89-1.26s.41-1.27.89-1.27.9.58.9 1.27-.41 1.26-.9 1.26z"/><path d="m26.63 10.53-.07-.09s0-.07 0-.1a12.15 12.15 0 0 0 -6.8-4.15 1 1 0 1 0 -.48 1.94 10.19 10.19 0 0 1 5.65 3.39 24.87 24.87 0 0 1 2.07 9.81 10 10 0 0 1 -5 2.52v-.43s0-.05 0-.08a13.48 13.48 0 0 0 3.43-1.95 1 1 0 0 0 -1.25-1.57 12.83 12.83 0 0 1 -8.18 2.6 12.83 12.83 0 0 1 -8.11-2.6 1 1 0 0 0 -1.25 1.57 13.36 13.36 0 0 0 3.41 1.95v.51a10 10 0 0 1 -5-2.52 24.87 24.87 0 0 1 2.09-9.81 10.19 10.19 0 0 1 5.65-3.39 1 1 0 0 0 -.48-1.94 12.15 12.15 0 0 0 -6.8 4.15s0 .07 0 .1l-.07.09c-1.94 4-2.16 7.65-2.37 11.14a1 1 0 0 0 .29.77 12 12 0 0 0 7.64 3.56 1 1 0 0 0 .7-.29 1 1 0 0 0 .3-.71v-1a17.56 17.56 0 0 0 8 0v1a1 1 0 0 0 .3.71 1 1 0 0 0 .7.29 12 12 0 0 0 7.74-3.51 1 1 0 0 0 .29-.77c-.24-3.54-.46-7.15-2.4-11.19z"/><path d="m23.49 11.72a1 1 0 0 0 -.43-1.35 15.47 15.47 0 0 0 -7.06-1.5 15.47 15.47 0 0 0 -7.06 1.5 1 1 0 0 0 -.43 1.35 1 1 0 0 0 1.35.42 13.55 13.55 0 0 1 6.14-1.27 13.55 13.55 0 0 1 6.14 1.27 1 1 0 0 0 .46.12 1 1 0 0 0 .89-.54z"/></g></svg>