<svg clip-rule="evenodd" fill-rule="evenodd" height="512" stroke-linejoin="round" stroke-miterlimit="2" viewBox="0 0 24 24" width="512" xmlns="http://www.w3.org/2000/svg"><g id="Icon"><path d="m12.75 11.5v-5.5c0-.414-.336-.75-.75-.75s-.75.336-.75.75v5.5c0 .414.336.75.75.75s.75-.336.75-.75z"/><path d="m10.916 7.624 1.084-.723s1.084.723 1.084.723c.344.23.81.136 1.04-.208s.136-.81-.208-1.04l-1.5-1c-.252-.168-.58-.168-.832 0l-1.5 1c-.344.23-.438.696-.208 1.04s.696.438 1.04.208z"/><path d="m10.916 10.124 1.084-.723s1.084.723 1.084.723c.344.23.81.136 1.04-.208s.136-.81-.208-1.04l-1.5-1c-.252-.168-.58-.168-.832 0l-1.5 1c-.344.23-.438.696-.208 1.04s.696.438 1.04.208z"/><path d="m8 22.75h8c.414 0 .75-.336.75-.75s-.336-.75-.75-.75h-8c-.414 0-.75.336-.75.75s.336.75.75.75z"/><path d="m12.75 22v-8c0-.414-.336-.75-.75-.75s-.75.336-.75.75v8c0 .414.336.75.75.75s.75-.336.75-.75z"/><path d="m12.75 3.5v-1.5c0-.414-.336-.75-.75-.75s-.75.336-.75.75v1.5c0 .414.336.75.75.75s.75-.336.75-.75z"/><path d="m4.75 10.5-1 .75c-.315.236-.5.607-.5 1v.75c0 .966.783 1.75 1.75 1.75h14c.464 0 .909-.184 1.237-.513.329-.328.513-.773.513-1.237 0-1.423 0-3.95 0-4.75 0-.393-.185-.764-.5-1l-1-.75 1-.75c.315-.236.5-.607.5-1v-.25c0-.464-.184-.909-.513-1.237-.328-.329-.773-.513-1.237-.513h-14c-.966 0-1.75.783-1.75 1.75v4.25c0 .393.185.764.5 1zm14.5-5.875-1.167.875c-.314.236-.5.607-.5 1s.186.764.5 1l1.167.875v4.625c0 .066-.026.13-.073.177s-.111.073-.177.073h-14c-.138 0-.25-.112-.25-.25v-.625l1.167-.875c.314-.236.5-.607.5-1s-.186-.764-.5-1l-1.167-.875v-4.125c0-.138.112-.25.25-.25h14c.066 0 .13.026.177.073s.073.111.073.177z"/></g></svg>