<svg clip-rule="evenodd" fill-rule="evenodd" height="512" stroke-linejoin="round" stroke-miterlimit="2" viewBox="0 0 24 24" width="512" xmlns="http://www.w3.org/2000/svg"><g id="Icon"><path d="m6.5 4.75h-1c-1.519 0-2.75 1.231-2.75 2.75v12.5c0 1.519 1.231 2.75 2.75 2.75h13c1.519 0 2.75-1.231 2.75-2.75v-12.5c0-1.519-1.231-2.75-2.75-2.75h-1c-.414 0-.75.336-.75.75s.336.75.75.75h1c.69 0 1.25.56 1.25 1.25v12.5c0 .69-.56 1.25-1.25 1.25-3.271 0-9.729 0-13 0-.69 0-1.25-.56-1.25-1.25v-12.5c0-.69.56-1.25 1.25-1.25h1c.414 0 .75-.336.75-.75s-.336-.75-.75-.75z"/><path d="m16.689 1.705c-.094-.221-.289-.383-.523-.436-.234-.054-.479.008-.66.167l-4 3.5c-.164.143-.257.35-.256.568.001.217.097.424.262.565l3.5 3c.163.14.378.203.59.174.213-.029.403-.148.522-.327l2-3c.141-.211.165-.478.065-.711l-1.5-3.5zm-.972 1.539.934 2.178s-1.306 1.958-1.306 1.958-2.199-1.886-2.199-1.886z"/><path d="m8.494 1.436c-.181-.159-.426-.221-.66-.167-.234.053-.429.215-.523.436l-1.5 3.5c-.1.233-.076.5.065.711l2 3c.119.179.309.298.522.327.212.029.427-.034.59-.174l3.5-3c.165-.141.261-.348.262-.565.001-.218-.092-.425-.256-.568l-4-3.5zm-.211 1.808 2.571 2.25s-2.199 1.886-2.199 1.886-1.306-1.958-1.306-1.958z"/><path d="m8.9 8.45 1.5 2c.142.189.364.3.6.3h2c.236 0 .458-.111.6-.3l1.5-2c.248-.331.181-.802-.15-1.05s-.802-.181-1.05.15l-1.275 1.7h-1.25s-1.275-1.7-1.275-1.7c-.248-.331-.719-.398-1.05-.15s-.398.719-.15 1.05z"/><path d="m10.261 9.87-1.427 8.086c-.081.463.027.939.3 1.322l2.256 3.158c.14.197.368.314.61.314s.47-.117.61-.314l2.256-3.158c.273-.383.381-.859.3-1.322l-1.427-8.086c-.072-.408-.462-.681-.869-.609-.408.072-.681.462-.609.869l1.427 8.087c.012.066-.003.134-.042.189 0 0-1.646 2.304-1.646 2.304s-1.646-2.304-1.646-2.304c-.039-.055-.054-.123-.042-.189 0 0 1.427-8.087 1.427-8.087.072-.407-.201-.797-.609-.869-.407-.072-.797.201-.869.609z"/><path d="m16 1.25h-8c-.414 0-.75.336-.75.75s.336.75.75.75h8c.414 0 .75-.336.75-.75s-.336-.75-.75-.75z"/></g></svg>