<svg clip-rule="evenodd" fill-rule="evenodd" height="512" stroke-linejoin="round" stroke-miterlimit="2" viewBox="0 0 24 24" width="512" xmlns="http://www.w3.org/2000/svg"><g id="Icon"><path d="m2 2.75h1c.138 0 .25.112.25.25v19c0 .414.336.75.75.75s.75-.336.75-.75v-19c0-.968-.784-1.75-1.75-1.75h-1c-.414 0-.75.336-.75.75s.336.75.75.75z"/><path d="m21 18.75c.966 0 1.75-.782 1.75-1.75v-12c0-.968-.784-1.75-1.75-1.75h-17c-.414 0-.75.336-.75.75v14c0 .414.336.75.75.75zm0-1.5h-16.25v-12.5h16.25c.138 0 .25.112.25.25v12c0 .138-.112.25-.25.25z"/><path d="m4 17.75c.414 0 .75-.336.75-.75v-3c0-.414-.336-.75-.75-.75h-1.5c-.69 0-1.25.56-1.25 1.25v2c0 .69.56 1.25 1.25 1.25zm-1.25-1.5v-1.5h.5v1.5z"/><path d="m4 10.75c.414 0 .75-.336.75-.75v-3c0-.414-.336-.75-.75-.75h-1.5c-.69 0-1.25.56-1.25 1.25v2c0 .69.56 1.25 1.25 1.25zm-1.25-1.5v-1.5h.5v1.5z"/><path d="m14.5 20.75c.69 0 1.25-.56 1.25-1.25v-1.5c0-.414-.336-.75-.75-.75h-9c-.414 0-.75.336-.75.75v1.5c0 .69.56 1.25 1.25 1.25zm-.25-1.5h-7.5v-.5h7.5z"/><path d="m20.5 20.75c.69 0 1.25-.56 1.25-1.25v-1.5c0-.414-.336-.75-.75-.75h-3c-.414 0-.75.336-.75.75v1.5c0 .69.56 1.25 1.25 1.25zm-1.75-1.5v-.5h1.5v.5z"/><path d="m19.75 11c0-2.622-2.128-4.75-4.75-4.75s-4.75 2.128-4.75 4.75 2.128 4.75 4.75 4.75 4.75-2.128 4.75-4.75zm-1.5 0c0 1.794-1.456 3.25-3.25 3.25s-3.25-1.456-3.25-3.25 1.456-3.25 3.25-3.25 3.25 1.456 3.25 3.25z"/><path d="m15.679 10.681s-.22-.5-.044-1.117c.135-.47.5-.981 1.27-1.441.356-.212.472-.673.26-1.028-.212-.356-.673-.472-1.028-.26-1.214.724-1.732 1.577-1.944 2.317-.342 1.198.128 2.167.128 2.167.176.375.623.536.998.36s.536-.623.36-.998z"/><path d="m14.681 10.321s-.5.22-1.117.044c-.47-.135-.981-.5-1.441-1.27-.212-.356-.673-.472-1.028-.26-.356.212-.472.673-.26 1.028.724 1.214 1.577 1.732 2.317 1.944 1.198.342 2.167-.128 2.167-.128.375-.176.536-.623.36-.998s-.623-.536-.998-.36z"/><path d="m14.321 11.319s.22.5.044 1.117c-.135.47-.5.981-1.27 1.441-.356.212-.472.673-.26 1.028.212.356.673.472 1.028.26 1.214-.724 1.732-1.577 1.944-2.317.342-1.198-.128-2.167-.128-2.167-.176-.375-.623-.536-.998-.36s-.536.623-.36.998z"/><path d="m15.319 11.679s.5-.22 1.117-.044c.47.135.981.5 1.441 1.27.212.356.673.472 1.028.26.356-.212.472-.673.26-1.028-.724-1.214-1.577-1.732-2.317-1.944-1.198-.342-2.167.128-2.167.128-.375.176-.536.623-.36.998s.623.536.998.36z"/></g></svg>