<svg clip-rule="evenodd" fill-rule="evenodd" height="512" stroke-linejoin="round" stroke-miterlimit="2" viewBox="0 0 24 24" width="512" xmlns="http://www.w3.org/2000/svg"><g id="Icon"><path d="m6 11.75c-2.622 0-4.75 2.128-4.75 4.75s2.128 4.75 4.75 4.75 4.75-2.128 4.75-4.75-2.128-4.75-4.75-4.75zm0 1.5c1.794 0 3.25 1.456 3.25 3.25s-1.456 3.25-3.25 3.25-3.25-1.456-3.25-3.25 1.456-3.25 3.25-3.25z"/><circle cx="6" cy="16.5" r="1.5"/><path d="m18.75 13.25c-2.208 0-4 1.792-4 4s1.792 4 4 4 4-1.792 4-4-1.792-4-4-4zm0 1.5c1.38 0 2.5 1.12 2.5 2.5s-1.12 2.5-2.5 2.5-2.5-1.12-2.5-2.5 1.12-2.5 2.5-2.5z"/><path d="m2.462 11.968c.976-.763 2.204-1.218 3.538-1.218 3.174 0 5.75 2.576 5.75 5.75 0 .414.336.75.75.75s.75-.336.75-.75c0-4.001-3.249-7.25-7.25-7.25-1.682 0-3.231.574-4.462 1.537-.326.255-.384.727-.129 1.053s.727.383 1.053.128z"/><path d="m19.75 11.195v3.305c0 .414.336.75.75.75s.75-.336.75-.75v-3.537c0-.653-.503-1.196-1.154-1.246l-5.306-.408c-.109-.009-.2-.087-.224-.193-.39-1.69-1.335-5.785-1.335-5.785-.079-.34-.382-.581-.731-.581h-8.5c-.414 0-.75.336-.75.75v6.5c0 .414.336.75.75.75s.75-.336.75-.75v-5.75h7.153s1.201 5.203 1.201 5.203c.172.745.808 1.292 1.571 1.351z"/><path d="m15.5 15.75h-3c-.414 0-.75.336-.75.75s.336.75.75.75h3c.414 0 .75-.336.75-.75s-.336-.75-.75-.75z"/><path d="m13.5 2.75h-10.5c-.414 0-.75.336-.75.75s.336.75.75.75h10.5c.414 0 .75-.336.75-.75s-.336-.75-.75-.75z"/><path d="m6 10.75h8.5c.414 0 .75-.336.75-.75s-.336-.75-.75-.75h-8.5c-.414 0-.75.336-.75.75s.336.75.75.75z"/><path d="m18.75 10v-2.5c0-.414-.336-.75-.75-.75s-.75.336-.75.75v2.5c0 .414.336.75.75.75s.75-.336.75-.75z"/></g></svg>