<svg clip-rule="evenodd" fill-rule="evenodd" height="512" stroke-linejoin="round" stroke-miterlimit="2" viewBox="0 0 24 24" width="512" xmlns="http://www.w3.org/2000/svg"><g id="Icon"><path d="m16.133 21.649c-.104.008-.167.172-.167.351 0 .414.336.75.75.75 0 0 .366.053.628-.34.022-.033.144-.216.316-.475 1.174-1.76 1.806-4.493 1.806-6.231 0-2.026-1.95-4.401-4.373-4.453.004 0-1.43-.312-1.43-.312-.115-.025-.197-.127-.197-.245v-3.194c0-.597-.237-1.169-.659-1.591s-.994-.659-1.591-.659-1.169.237-1.591.659-.659.994-.659 1.591v5.574s-.3-.326-.3-.326c-.439-.479-1.054-.757-1.704-.771-.649-.014-1.276.238-1.735.697 0 .001-.001.001-.002.002-.914.914-.922 2.394-.018 3.319l2.479 2.535c1.175 1.176 1.28 1.807 1.28 3.47 0 .414.336.75.75.75s.75-.336.75-.75c0-2.177-.179-2.989-1.716-4.527 0 0-2.471-2.527-2.471-2.527-.329-.337-.326-.876.007-1.209l.002-.002c.17-.17.402-.264.642-.258.241.005.469.108.631.285.755.822 1.602 1.745 1.602 1.745.21.228.537.304.825.192s.478-.39.478-.699v-7.5c0-.199.079-.39.22-.53.14-.141.331-.22.53-.22s.39.079.53.22c.141.14.22.331.22.53v3.194c0 .823.573 1.535 1.378 1.71.664.145 1.508.329 1.508.329.053.011.106.017.16.017 1.632 0 2.954 1.595 2.954 2.954 0 1.506-.537 3.874-1.554 5.399-.172.259-.316.475-.316.475z"/><path d="m11.966 4v-2c0-.414-.336-.75-.75-.75s-.75.336-.75.75v2c0 .414.336.75.75.75s.75-.336.75-.75z"/><path d="m8.918 4.642-1.414-1.414c-.293-.293-.768-.293-1.061 0-.293.292-.293.768 0 1.06l1.414 1.414c.293.293.768.293 1.061 0 .292-.292.292-.768 0-1.06z"/><path d="m14.575 5.702 1.414-1.414c.293-.292.293-.768 0-1.06-.293-.293-.768-.293-1.061 0l-1.414 1.414c-.292.292-.292.768 0 1.06.293.293.768.293 1.061 0z"/></g></svg>