<svg clip-rule="evenodd" fill-rule="evenodd" stroke-linejoin="round" stroke-miterlimit="1.414" viewBox="0 0 32 32" xmlns="http://www.w3.org/2000/svg" xmlns:serif="http://www.serif.com/"><path id="bone-skull-osteology" d="m0 0h32v32h-32z" fill="none"/><path d="m17.002 27.015c.597-.002 1.193-.007 1.79-.02.357-.011.698-.225.863-.545.681-1.347 1.133-2.94 2.467-3.632.919-.466 1.91-.877 2.429-1.716.286-.462.44-1.002.447-1.549.015-3.194.011-6.388 0-9.582-.024-2.602-2.294-4.958-4.999-4.967h-3.997c-.084-.004-.106-.002-.189-.018-.778-.15-1.117-1.432-.269-1.87.141-.072.298-.103.458-.111 1.362 0 2.724-.012 4.086.001 3.551.055 6.851 3.127 6.909 6.909v.044c.011 3.19.001 6.379.001 9.569-.002.26-.008.324-.024.482-.161 1.655-1.2 3.191-2.7 3.966-.622.315-1.391.522-1.669 1.045-.678 1.306-1.129 2.837-2.285 3.539-.459.278-.993.427-1.528.434-1.86.008-3.719.008-5.579 0-1.089-.014-2.138-.657-2.643-1.634-.394-.778-.769-1.565-1.17-2.339-.333-.625-1.338-.814-2.052-1.262-1.412-.886-2.318-2.494-2.341-4.189-.014-3.204-.01-6.407 0-9.611.034-3.62 3.17-6.942 6.996-6.954 0 0 .758.13.946.673.204.592-.271 1.294-.945 1.326 0 0-.951.025-1.714.303-1.892.691-3.264 2.603-3.284 4.664-.01 3.194-.014 6.388 0 9.582.015 1.092.655 2.137 1.634 2.643.994.503 2.016.906 2.543 1.922.396.781.766 1.574 1.175 2.348.17.315.513.524.873.529.59.002 1.181.007 1.772.012v-3.011c.003-.163.018-.216.05-.312.136-.414.552-.704 1.009-.686.162.013.215.032.309.069.368.146.623.522.631.929zm-4.959-16.013c1.691.032 3.173 1.69 2.931 3.417-.199 1.414-1.534 2.58-2.97 2.58-1.728 0-3.271-1.743-2.952-3.528.243-1.357 1.494-2.442 2.914-2.469zm7.996 0c1.691.032 3.173 1.69 2.931 3.417-.198 1.414-1.533 2.58-2.969 2.58-1.729 0-3.272-1.743-2.952-3.528.242-1.357 1.494-2.442 2.913-2.469zm-.052 1.999c-.764.015-1.31 1.103-.684 1.715.625.61 2.161-.085 1.583-1.18-.171-.324-.527-.537-.899-.535zm-7.996 0c-.765.015-1.311 1.103-.685 1.715.625.61 2.161-.085 1.583-1.18-.171-.324-.526-.537-.898-.535z" fill-rule="nonzero"/></svg>