<svg clip-rule="evenodd" fill-rule="evenodd" height="512" stroke-linejoin="round" stroke-miterlimit="2" viewBox="0 0 24 24" width="512" xmlns="http://www.w3.org/2000/svg"><g id="Icon"><path d="m12 1.25c-5.933 0-10.75 4.817-10.75 10.75s4.817 10.75 10.75 10.75 10.75-4.817 10.75-10.75-4.817-10.75-10.75-10.75zm0 1.5c5.105 0 9.25 4.145 9.25 9.25s-4.145 9.25-9.25 9.25-9.25-4.145-9.25-9.25 4.145-9.25 9.25-9.25z"/><path d="m14.502 8.606c1.059.773 1.748 2.024 1.748 3.434 0 2.346-1.904 4.25-4.25 4.25s-4.25-1.904-4.25-4.25c0-1.41.689-2.661 1.748-3.434.334-.244.407-.714.163-1.048-.244-.335-.713-.408-1.048-.164-1.432 1.046-2.363 2.739-2.363 4.646 0 3.174 2.576 5.75 5.75 5.75s5.75-2.576 5.75-5.75c0-1.907-.931-3.6-2.363-4.646-.335-.244-.804-.171-1.048.164-.244.334-.171.804.163 1.048z"/><path d="m11.25 6.5v3c0 .414.336.75.75.75s.75-.336.75-.75v-3c0-.414-.336-.75-.75-.75s-.75.336-.75.75z"/></g></svg>