<svg clip-rule="evenodd" fill-rule="evenodd" height="512" stroke-linejoin="round" stroke-miterlimit="2" viewBox="0 0 24 24" width="512" xmlns="http://www.w3.org/2000/svg"><g id="Icon"><path d="m17.75 9v-6c0-.464-.184-.909-.513-1.237-.328-.329-.773-.513-1.237-.513-2.443 0-8.751 0-12 0-.729 0-1.429.29-1.945.805-.515.516-.805 1.216-.805 1.945v15.5c0 .414.336.75.75.75s.75-.336.75-.75c0 0 0-10.908 0-15.5 0-.332.132-.649.366-.884.235-.234.552-.366.884-.366h12c.066 0 .13.026.177.073s.073.111.073.177v6c0 .414.336.75.75.75s.75-.336.75-.75z"/><path d="m9 16.75h-4.75c-1.657 0-3 1.343-3 3 0 .796.316 1.559.879 2.121.562.563 1.325.879 2.121.879h8.75c.414 0 .75-.336.75-.75s-.336-.75-.75-.75h-8.75c-.398 0-.779-.158-1.061-.439-.281-.282-.439-.663-.439-1.061 0-.828.672-1.5 1.5-1.5h4.75c.414 0 .75-.336.75-.75s-.336-.75-.75-.75z"/><path d="m6 6.75h7c.414 0 .75-.336.75-.75s-.336-.75-.75-.75h-7c-.414 0-.75.336-.75.75s.336.75.75.75z"/><path d="m16 10.75c-2.898 0-5.25 2.352-5.25 5.25s2.352 5.25 5.25 5.25 5.25-2.352 5.25-5.25-2.352-5.25-5.25-5.25zm0 1.5c2.07 0 3.75 1.68 3.75 3.75s-1.68 3.75-3.75 3.75-3.75-1.68-3.75-3.75 1.68-3.75 3.75-3.75z"/><path d="m22.53 21.47-2.5-2.5c-.292-.293-.768-.293-1.06 0-.293.292-.293.768 0 1.06l2.5 2.5c.292.293.768.293 1.06 0 .293-.292.293-.768 0-1.06z"/></g></svg>