<svg clip-rule="evenodd" fill-rule="evenodd" height="512" stroke-linejoin="round" stroke-miterlimit="2" viewBox="0 0 24 24" width="512" xmlns="http://www.w3.org/2000/svg"><g id="Icon"><path d="m18.47 2.53 2.469 2.47s-2.469 2.47-2.469 2.47c-.293.292-.293.768 0 1.06.292.293.768.293 1.06 0l3-3c.293-.293.293-.767 0-1.06l-3-3c-.292-.293-.768-.293-1.06 0-.293.292-.293.768 0 1.06z"/><path d="m22 4.25h-9.29c-4.178 0-7.922 2.579-9.411 6.483-.147.386.047.82.434.968.386.147.82-.047.968-.434 1.267-3.322 4.453-5.517 8.009-5.517h9.29c.414 0 .75-.336.75-.75s-.336-.75-.75-.75z"/><path d="m5.53 21.47-2.469-2.47s2.469-2.47 2.469-2.47c.293-.292.293-.768 0-1.06-.292-.293-.768-.293-1.06 0l-3 3c-.293.293-.293.767 0 1.06l3 3c.292.293.768.293 1.06 0 .293-.292.293-.768 0-1.06z"/><path d="m2 19.75h9.29c4.178 0 7.922-2.579 9.411-6.483.147-.386-.047-.82-.434-.968-.386-.147-.82.047-.968.434-1.267 3.322-4.453 5.517-8.009 5.517h-9.29c-.414 0-.75.336-.75.75s.336.75.75.75z"/></g></svg>