<svg clip-rule="evenodd" fill-rule="evenodd" height="512" stroke-linejoin="round" stroke-miterlimit="2" viewBox="0 0 24 24" width="512" xmlns="http://www.w3.org/2000/svg"><g id="Icon"><path d="m20 22.75c1.518 0 2.75-1.232 2.75-2.75v-16c0-1.518-1.232-2.75-2.75-2.75h-16c-1.518 0-2.75 1.232-2.75 2.75v16c0 1.518 1.232 2.75 2.75 2.75zm0-1.5h-16c-.69 0-1.25-.56-1.25-1.25v-16c0-.69.56-1.25 1.25-1.25h16c.69 0 1.25.56 1.25 1.25v16c0 .69-.56 1.25-1.25 1.25z"/><path d="m2 7.75h20c.414 0 .75-.336.75-.75s-.336-.75-.75-.75h-20c-.414 0-.75.336-.75.75s.336.75.75.75z"/><g fill-rule="nonzero"><path d="m5.5 4.5c0 .414-.336.75-.75.75s-.75-.336-.75-.75.336-.75.75-.75.75.336.75.75"/><path d="m7.5 4.5c0 .414-.336.75-.75.75s-.75-.336-.75-.75.336-.75.75-.75.75.336.75.75"/><path d="m9.5 4.5c0 .414-.336.75-.75.75s-.75-.336-.75-.75.336-.75.75-.75.75.336.75.75"/></g><path d="m8.921 14.135.856 2.568c.412 1.233 1.976 1.603 2.898.683l1.711-1.711c.921-.921.55-2.487-.684-2.898l-2.568-.856c-1.37-.455-2.669.846-2.213 2.214zm1.423-.475c-.065-.196.122-.381.317-.316l2.567.856c.176.059.229.283.097.414 0 0-1.71 1.711-1.71 1.711-.132.132-.357.078-.416-.099 0 0-.855-2.566-.855-2.566z"/><path d="m12.47 16.53 1 1c.292.293.768.293 1.06 0 .293-.292.293-.768 0-1.06l-1-1c-.292-.293-.768-.293-1.06 0-.293.292-.293.768 0 1.06z"/></g></svg>