<svg clip-rule="evenodd" fill-rule="evenodd" height="512" stroke-linejoin="round" stroke-miterlimit="2" viewBox="0 0 24 24" width="512" xmlns="http://www.w3.org/2000/svg"><g id="Icon"><path d="m20.841 11.831c.241.209.587.243.864.085s.424-.474.366-.787c-.877-4.764-5.055-8.379-10.071-8.379s-9.194 3.615-10.071 8.379c-.058.313.089.629.366.787s.623.124.864-.085c.493-.429 1.137-.689 1.841-.689s1.348.26 1.841.689c.282.245.702.245.984 0 .494-.429 1.138-.689 1.842-.689s1.348.26 1.841.689c.282.245.702.245.984 0 .493-.429 1.137-.689 1.841-.689s1.348.26 1.842.689c.282.245.702.245.984 0 .493-.429 1.137-.689 1.841-.689s1.348.26 1.841.689zm-.705-2.037c-.362-.099-.743-.152-1.136-.152-.86 0-1.661.252-2.334.687-.672-.435-1.473-.687-2.333-.687-.859 0-1.66.252-2.333.687-.672-.435-1.474-.687-2.333-.687-.86 0-1.661.252-2.334.687-.672-.435-1.473-.687-2.333-.687-.393 0-.774.053-1.136.152 1.276-3.245 4.44-5.544 8.136-5.544s6.86 2.299 8.137 5.544z"/><path d="m11.25 11.265v8.735c0 .332-.132.649-.366.884-.235.234-.552.366-.884.366-.001 0-.002 0-.003 0-.689 0-1.247-.558-1.247-1.247 0-.414-.336-.75-.75-.75s-.75.336-.75.75c0 1.517 1.23 2.747 2.747 2.747h.003c.729 0 1.429-.29 1.945-.805.515-.516.805-1.216.805-1.945 0-2.979 0-8.735 0-8.735 0-.414-.336-.75-.75-.75s-.75.336-.75.75z"/><path d="m12.75 3.5v-1.5c0-.414-.336-.75-.75-.75s-.75.336-.75.75v1.5c0 .414.336.75.75.75s.75-.336.75-.75z"/></g></svg>