<svg clip-rule="evenodd" fill-rule="evenodd" height="512" stroke-linejoin="round" stroke-miterlimit="2" viewBox="0 0 24 24" width="512" xmlns="http://www.w3.org/2000/svg"><g id="Icon"><path d="m18.75 7.5c0-1.242-1.008-2.25-2.25-2.25s-2.25 1.008-2.25 2.25 1.008 2.25 2.25 2.25 2.25-1.008 2.25-2.25zm-1.5 0c0 .414-.336.75-.75.75s-.75-.336-.75-.75.336-.75.75-.75.75.336.75.75z"/><path d="m9.75 13.5c0-1.242-1.008-2.25-2.25-2.25s-2.25 1.008-2.25 2.25 1.008 2.25 2.25 2.25 2.25-1.008 2.25-2.25zm-1.5 0c0 .414-.336.75-.75.75s-.75-.336-.75-.75.336-.75.75-.75.75.336.75.75z"/><path d="m9.45 13.6 6-4.5c.331-.248.398-.719.15-1.05s-.719-.398-1.05-.15l-6 4.5c-.331.248-.398.719-.15 1.05s.719.398 1.05.15z"/><path d="m5.97 6.53 2 2c.292.293.768.293 1.06 0 .293-.292.293-.768 0-1.06l-2-2c-.292-.293-.768-.293-1.06 0-.293.292-.293.768 0 1.06z"/><path d="m7.97 5.47-2 2c-.293.292-.293.768 0 1.06.292.293.768.293 1.06 0l2-2c.293-.292.293-.768 0-1.06-.292-.293-.768-.293-1.06 0z"/><path d="m15.47 13.53 2 2c.292.293.768.293 1.06 0 .293-.292.293-.768 0-1.06l-2-2c-.292-.293-.768-.293-1.06 0-.293.292-.293.768 0 1.06z"/><path d="m17.47 12.47-2 2c-.293.292-.293.768 0 1.06.292.293.768.293 1.06 0l2-2c.293-.292.293-.768 0-1.06-.292-.293-.768-.293-1.06 0z"/><path d="m2 3.75h20c.414 0 .75-.336.75-.75s-.336-.75-.75-.75h-20c-.414 0-.75.336-.75.75s.336.75.75.75z"/><path d="m3 2.25c-.414 0-.75.336-.75.75v14c0 .464.184.909.513 1.237.328.329.773.513 1.237.513h16c.464 0 .909-.184 1.237-.513.329-.328.513-.773.513-1.237 0-3.355 0-14 0-14 0-.414-.336-.75-.75-.75h-18zm.75 1.5h16.5v13.25c0 .066-.026.13-.073.177s-.111.073-.177.073h-16c-.066 0-.13-.026-.177-.073s-.073-.111-.073-.177z"/><path d="m12.75 20.5v-2.5c0-.414-.336-.75-.75-.75s-.75.336-.75.75v2.5c0 .414.336.75.75.75s.75-.336.75-.75z"/><path d="m12.75 3v-1c0-.414-.336-.75-.75-.75s-.75.336-.75.75v1c0 .414.336.75.75.75s.75-.336.75-.75z"/><path d="m8.795 22.689 3.205-1.373s3.205 1.373 3.205 1.373c.38.163.821-.013.984-.394.163-.38-.013-.821-.394-.984l-3.499-1.5c-.189-.081-.402-.081-.591 0l-3.5 1.5c-.381.163-.557.604-.394.984.163.381.604.557.984.394z"/></g></svg>