<svg clip-rule="evenodd" fill-rule="evenodd" stroke-linejoin="round" stroke-miterlimit="2" viewBox="0 0 32 32" xmlns="http://www.w3.org/2000/svg" xmlns:serif="http://www.serif.com/"><path id="streaming-cast-recording" d="m0 0h32v32h-32z" fill="none"/><path d="m25.987 25.01h-7.999c-.955-.045-1.02-.586-.998-1.047.024-.506.479-.927.998-.952 2.674 0 5.347.05 8.02 0 .512-.016.965-.467.975-.987.024-4.009.074-8.02 0-12.03-.016-.512-.47-.964-.987-.974-6.676-.041-13.354-.127-20.029 0-.515.017-.967.463-.971 1l-.018.188c-.143.591-.36.626-.566.72-.657.3-1.461-.281-1.409-1.102.094-1.479 1.41-2.775 2.952-2.805 6.688-.042 13.377-.041 20.066 0 1.546.029 2.931 1.349 2.961 2.961.024 4.022.024 8.045 0 12.067-.029 1.557-1.363 2.951-2.995 2.961zm-21.952-3.997c1.583.03 3.129 1.463 2.954 3.103-.053.501-.53.919-1.043.893-.526-.026-.92-.504-.952-1.063-.036-.513-.49-.924-1.032-.935 0 0-1.164-.378-.931-1.255.114-.433.537-.746 1.004-.743zm.033-7.995c5.553.052 10.767 4.744 10.919 10.71.017.689-.501 1.439-1.242 1.252-.809-.205-.713-1.353-.849-2.284-.615-4.199-4.561-7.666-8.902-7.68 0 0-.723-.113-.928-.634-.228-.584.218-1.324.871-1.363.021-.001.042-.001.063-.002.023 0 .045.001.068.001zm-.026 3.997c3.589.034 6.878 3.13 6.949 6.861.017.883-1.278 1.622-1.858.644-.201-.34-.128-.784-.188-1.209-.327-2.342-2.474-4.289-4.951-4.297 0 0-.736-.124-.933-.648-.218-.581.218-1.303.891-1.35.045-.001.045-.001.09-.001z"/></svg>