<svg clip-rule="evenodd" fill-rule="evenodd" height="512" stroke-linejoin="round" stroke-miterlimit="2" viewBox="0 0 24 24" width="512" xmlns="http://www.w3.org/2000/svg"><g id="Icon"><path d="m12 2.75c-5.105 0-9.25 4.145-9.25 9.25s4.145 9.25 9.25 9.25 9.25-4.145 9.25-9.25-4.145-9.25-9.25-9.25zm0 1.5c4.277 0 7.75 3.473 7.75 7.75s-3.473 7.75-7.75 7.75-7.75-3.473-7.75-7.75 3.473-7.75 7.75-7.75z"/><path d="m19.5 12.75h2.5c.414 0 .75-.336.75-.75s-.336-.75-.75-.75h-2.5c-.414 0-.75.336-.75.75s.336.75.75.75z"/><path d="m12.75 4.5v-2.5c0-.414-.336-.75-.75-.75s-.75.336-.75.75v2.5c0 .414.336.75.75.75s.75-.336.75-.75z"/><path d="m2 12.75h2.5c.414 0 .75-.336.75-.75s-.336-.75-.75-.75h-2.5c-.414 0-.75.336-.75.75s.336.75.75.75z"/><path d="m12.75 22v-2.5c0-.414-.336-.75-.75-.75s-.75.336-.75.75v2.5c0 .414.336.75.75.75s.75-.336.75-.75z"/><path d="m8.25 12.75v.5h-1.25c-.414 0-.75.336-.75.75s.336.75.75.75h1.5c.331 0 .649-.132.884-.366.234-.235.366-.553.366-.884 0-.305 0-.695 0-1 0-.331-.132-.649-.366-.884-.235-.234-.553-.366-.884-.366h-.75v-.5h1.25c.414 0 .75-.336.75-.75s-.336-.75-.75-.75h-1.5c-.331 0-.649.132-.884.366-.234.235-.366.553-.366.884v1c0 .331.132.649.366.884.235.234.553.366.884.366z"/><path d="m11.75 13.25v-2.5h1.25c.414 0 .75-.336.75-.75s-.336-.75-.75-.75h-1.5c-.331 0-.649.132-.884.366-.234.235-.366.552-.366.884v3c0 .332.132.649.366.884.235.234.553.366.884.366h1.5c.414 0 .75-.336.75-.75s-.336-.75-.75-.75z"/><path d="m11 12.75h1.5c.414 0 .75-.336.75-.75s-.336-.75-.75-.75h-1.5c-.414 0-.75.336-.75.75s.336.75.75.75z"/><path d="m17.75 10.5c0-.332-.132-.649-.366-.884-.235-.234-.553-.366-.884-.366-.305 0-.695 0-1 0-.331 0-.649.132-.884.366-.234.235-.366.552-.366.884v3c0 .332.132.649.366.884.235.234.553.366.884.366h1c.331 0 .649-.132.884-.366.234-.235.366-.552.366-.884zm-2 2.75h.5v-2.5h-.5z"/></g></svg>