<svg clip-rule="evenodd" fill-rule="evenodd" height="512" stroke-linejoin="round" stroke-miterlimit="2" viewBox="0 0 24 24" width="512" xmlns="http://www.w3.org/2000/svg"><g id="Icon"><path d="m6.5 1.25c-1.105 0-2 .895-2 2v17.5c0 1.105.895 2 2 2 1.105 0 2-.895 2-2v-17.5c0-1.105-.895-2-2-2zm0 20c-.276 0-.5-.224-.5-.5v-17.5c0-.276.224-.5.5-.5.276 0 .5.224.5.5v17.5c0 .276-.224.5-.5.5z"/><path d="m17.5 1.25c-1.105 0-2 .895-2 2v17.5c0 1.105.895 2 2 2 1.105 0 2-.895 2-2v-17.5c0-1.105-.895-2-2-2zm0 20c-.276 0-.5-.224-.5-.5v-17.5c0-.276.224-.5.5-.5.276 0 .5.224.5.5v17.5c0 .276-.224.5-.5.5z"/><path d="m16.25 3.75h-8.5c-.414 0-.75.336-.75.75s.336.75.75.75h8.5c.414 0 .75-.336.75-.75s-.336-.75-.75-.75z"/><path d="m16.25 7.25h-8.5c-.414 0-.75.336-.75.75s.336.75.75.75h8.5c.414 0 .75-.336.75-.75s-.336-.75-.75-.75z"/><path d="m16.25 11.25h-8.5c-.414 0-.75.336-.75.75s.336.75.75.75h8.5c.414 0 .75-.336.75-.75s-.336-.75-.75-.75z"/><path d="m16.25 15.25h-8.5c-.414 0-.75.336-.75.75s.336.75.75.75h8.5c.414 0 .75-.336.75-.75s-.336-.75-.75-.75z"/><path d="m16.25 18.75h-8.5c-.414 0-.75.336-.75.75s.336.75.75.75h8.5c.414 0 .75-.336.75-.75s-.336-.75-.75-.75z"/></g></svg>