<svg clip-rule="evenodd" fill-rule="evenodd" height="512" stroke-linejoin="round" stroke-miterlimit="2" viewBox="0 0 24 24" width="512" xmlns="http://www.w3.org/2000/svg"><g id="Icon"><path d="m6.75 8c0-.414-.336-.75-.75-.75h-3c-.414 0-.75.336-.75.75v4c0 .414.336.75.75.75h3c.414 0 .75-.336.75-.75zm-1.5.75v2.5h-1.5v-2.5z"/><path d="m5.25 14.5v.75h-1.5v-.75c0-.414-.336-.75-.75-.75s-.75.336-.75.75v1.5c0 .414.336.75.75.75h3c.414 0 .75-.336.75-.75v-1.5c0-.414-.336-.75-.75-.75s-.75.336-.75.75z"/><path d="m11.75 5c0-.414-.336-.75-.75-.75h-3c-.414 0-.75.336-.75.75v7c0 .414.336.75.75.75h3c.414 0 .75-.336.75-.75zm-1.5.75v5.5h-1.5v-5.5z"/><path d="m10.25 14.5v3.75h-1.5v-3.75c0-.414-.336-.75-.75-.75s-.75.336-.75.75v4.5c0 .414.336.75.75.75h3c.414 0 .75-.336.75-.75v-4.5c0-.414-.336-.75-.75-.75s-.75.336-.75.75z"/><path d="m16.75 7c0-.414-.336-.75-.75-.75h-3c-.414 0-.75.336-.75.75v5c0 .414.336.75.75.75h3c.414 0 .75-.336.75-.75zm-1.5.75v3.5h-1.5v-3.5z"/><path d="m15.25 14.5v1.75h-1.5v-1.75c0-.414-.336-.75-.75-.75s-.75.336-.75.75v2.5c0 .414.336.75.75.75h3c.414 0 .75-.336.75-.75v-2.5c0-.414-.336-.75-.75-.75s-.75.336-.75.75z"/><path d="m21.75 2c0-.414-.336-.75-.75-.75h-3c-.414 0-.75.336-.75.75v10c0 .414.336.75.75.75h3c.414 0 .75-.336.75-.75zm-1.5.75v8.5h-1.5v-8.5z"/><path d="m20.25 14.5v6.75h-1.5v-6.75c0-.414-.336-.75-.75-.75s-.75.336-.75.75v7.5c0 .414.336.75.75.75h3c.414 0 .75-.336.75-.75v-7.5c0-.414-.336-.75-.75-.75s-.75.336-.75.75z"/><path d="m22 11.25h-20c-.414 0-.75.336-.75.75s.336.75.75.75h20c.414 0 .75-.336.75-.75s-.336-.75-.75-.75z"/></g></svg>