<svg height="512" viewBox="0 0 32 32" width="512" xmlns="http://www.w3.org/2000/svg"><g id="xing_media_social" data-name="xing, media, social"><path d="m14.71 13-2.4-4a2 2 0 0 0 -1.72-1h-3.54a1.51 1.51 0 0 0 -1.31.76 1.49 1.49 0 0 0 0 1.51l2.26 3.73-3.28 5.75a1.51 1.51 0 0 0 0 1.5 1.49 1.49 0 0 0 1.28.75h3.58a2 2 0 0 0 1.73-1l3.43-6a2 2 0 0 0 -.03-2zm-5.13 7h-2.7l2.86-5a2 2 0 0 0 0-2l-1.82-3h2.67l2.41 4z"/><path d="m27.44 4.75a1.52 1.52 0 0 0 -1.3-.75h-3.56a2 2 0 0 0 -1.74 1l-7.43 13a2 2 0 0 0 0 2l4.44 8a2 2 0 0 0 1.75 1h3.56a1.5 1.5 0 0 0 1.31-2.23l-4.32-7.77 3.72-6.51a1 1 0 0 0 -1.74-1l-3.72 6.51a2 2 0 0 0 0 2l3.9 7h-2.72l-4.44-8 7.43-13h2.7l-.86 1.5a1 1 0 1 0 1.74 1l1.28-2.25a1.5 1.5 0 0 0 0-1.5z"/></g></svg>