<svg clip-rule="evenodd" fill-rule="evenodd" height="512" stroke-linejoin="round" stroke-miterlimit="2" viewBox="0 0 24 24" width="512" xmlns="http://www.w3.org/2000/svg"><g id="Icon"><path d="m7 15.25c-1.242 0-2.25 1.008-2.25 2.25s1.008 2.25 2.25 2.25 2.25-1.008 2.25-2.25-1.008-2.25-2.25-2.25zm0 1.5c.414 0 .75.336.75.75s-.336.75-.75.75-.75-.336-.75-.75.336-.75.75-.75z"/><path d="m7.75 16v-7.5c0-.414-.336-.75-.75-.75s-.75.336-.75.75v7.5c0 .414.336.75.75.75s.75-.336.75-.75z"/><path d="m3.75 13.378c-1.218.961-2 2.451-2 4.122 0 2.898 2.352 5.25 5.25 5.25s5.25-2.352 5.25-5.25c0-1.671-.782-3.161-2-4.123v-8.879c0-1.794-1.454-3.248-3.248-3.248-.001 0-.003 0-.004 0-1.794 0-3.248 1.454-3.248 3.248zm1.167 1.004c.208-.139.333-.373.333-.623v-9.261c0-.965.783-1.748 1.748-1.748h.004c.965 0 1.748.783 1.748 1.748v9.261c0 .25.125.484.333.623 1.004.673 1.667 1.819 1.667 3.118 0 2.07-1.68 3.75-3.75 3.75s-3.75-1.68-3.75-3.75c0-1.299.663-2.445 1.667-3.118z"/><path d="m22.25 6.625c0-.414-.336-.75-.75-.75h-1.125c-1.094 0-2.143.435-2.917 1.208-.773.774-1.208 1.823-1.208 2.917v1.125c0 .414.336.75.75.75h1.125c1.094 0 2.143-.435 2.917-1.208.773-.774 1.208-1.823 1.208-2.917zm-1.5.75v.375c0 .696-.277 1.364-.769 1.856s-1.16.769-1.856.769h-.375v-.375c0-.696.277-1.364.769-1.856s1.16-.769 1.856-.769z"/><path d="m12.5 5.875c-.414 0-.75.336-.75.75v1.125c0 1.094.435 2.143 1.208 2.917.774.773 1.823 1.208 2.917 1.208h1.125c.414 0 .75-.336.75-.75v-1.125c0-1.094-.435-2.143-1.208-2.917-.774-.773-1.823-1.208-2.917-1.208zm.75 1.5h.375c.696 0 1.364.277 1.856.769s.769 1.16.769 1.856v.375h-.375c-.696 0-1.364-.277-1.856-.769s-.769-1.16-.769-1.856z"/><path d="m16.25 10.875v2.5c0 .414.336.75.75.75s.75-.336.75-.75v-2.5c0-.414-.336-.75-.75-.75s-.75.336-.75.75z"/></g></svg>