<svg clip-rule="evenodd" fill-rule="evenodd" height="512" stroke-linejoin="round" stroke-miterlimit="2" viewBox="0 0 24 24" width="512" xmlns="http://www.w3.org/2000/svg"><g id="Icon"><path d="m19 20.75c.966 0 1.75-.782 1.75-1.75v-1c0-.414-.336-.75-.75-.75h-3c-.414 0-.75.336-.75.75v2c0 .414.336.75.75.75zm0-1.5h-1.25v-.5h1.5v.25c0 .138-.112.25-.25.25z"/><path d="m13.65 1.25h-3.3c-1.16 0-2.1.94-2.1 2.1v.65c0 .323.207.61.513.712l1.459.486c1.154.384 2.402.384 3.556 0l1.459-.486c.306-.102.513-.389.513-.712v-.65c0-1.16-.94-2.1-2.1-2.1zm-3.3 1.5h3.3c.332 0 .6.268.6.6v.109s-.946.315-.946.315c-.846.282-1.762.282-2.608 0 0 0-.946-.315-.946-.315v-.109c0-.332.268-.6.6-.6z"/><path d="m8.774 3.285-1.696.535c-1.649.345-2.957 1.603-3.367 3.24l-1.053 4.214c-.27 1.085-.408 2.2-.408 3.318v2.408c0 .968.784 1.75 1.75 1.75h2.25v1.25c0 .414.336.75.75.75h10c.414 0 .75-.336.75-.75v-1.25h2.25c.966 0 1.75-.782 1.75-1.75v-2.408c0-1.119-.137-2.233-.408-3.319l-1.053-4.213c-.411-1.638-1.72-2.896-3.371-3.241.004.001-1.692-.534-1.692-.534-.395-.125-.817.095-.941.489-.125.395.095.817.489.941l1.733.547c.026.008.053.015.079.021 1.101.219 1.975 1.053 2.247 2.141 0 0 1.053 4.213 1.053 4.213.241.966.364 1.958.364 2.955v2.408c0 .138-.112.25-.25.25h-3c-.414 0-.75.336-.75.75v1.25h-8.5v-1.25c0-.414-.336-.75-.75-.75h-3c-.138 0-.25-.112-.25-.25v-2.408c0-.996.122-1.989.364-2.954 0 0 1.053-4.214 1.053-4.214.272-1.088 1.146-1.922 2.247-2.141.026-.006.053-.013.079-.021l1.733-.547c.394-.124.614-.546.489-.941-.124-.394-.546-.614-.941-.489z"/><path d="m16 19.25h-8c-.414 0-.75.336-.75.75v1c0 .968.784 1.75 1.75 1.75h6c.966 0 1.75-.782 1.75-1.75v-1c0-.414-.336-.75-.75-.75zm-4 1.5h3.25v.25c0 .138-.112.25-.25.25h-6c-.138 0-.25-.112-.25-.25v-.25z"/><path d="m5 20.75h2c.414 0 .75-.336.75-.75v-2c0-.414-.336-.75-.75-.75h-3c-.414 0-.75.336-.75.75v1c0 .968.784 1.75 1.75 1.75zm0-1.5c-.138 0-.25-.112-.25-.25v-.25h1.5v.5z"/><path d="m17.75 18v-8c0-.414-.336-.75-.75-.75s-.75.336-.75.75v8c0 .414.336.75.75.75s.75-.336.75-.75z"/><path d="m7.75 18v-8c0-.414-.336-.75-.75-.75s-.75.336-.75.75v8c0 .414.336.75.75.75s.75-.336.75-.75z"/><path d="m6.47 12.53 2 2c.293.293.767.293 1.06 0l2.47-2.469s2.47 2.469 2.47 2.469c.293.293.767.293 1.06 0l2.002-2.002c.293-.292.293-.768 0-1.06-.292-.293-.768-.293-1.06 0l-1.472 1.471s-2.47-2.469-2.47-2.469c-.293-.293-.767-.293-1.06 0l-2.47 2.469s-1.47-1.469-1.47-1.469c-.292-.293-.768-.293-1.06 0-.293.292-.293.768 0 1.06z"/><path d="m6.47 15.53 2 2c.293.293.767.293 1.06 0l2.47-2.469s2.47 2.469 2.47 2.469c.293.293.767.293 1.06 0l2.002-2.002c.293-.292.293-.768 0-1.06-.292-.293-.768-.293-1.06 0l-1.472 1.471s-2.47-2.469-2.47-2.469c-.293-.293-.767-.293-1.06 0l-2.47 2.469s-1.47-1.469-1.47-1.469c-.292-.293-.768-.293-1.06 0-.293.292-.293.768 0 1.06z"/></g></svg>