<svg clip-rule="evenodd" fill-rule="evenodd" height="512" stroke-linejoin="round" stroke-miterlimit="2" viewBox="0 0 24 24" width="512" xmlns="http://www.w3.org/2000/svg"><g id="Icon"><path d="m17.75 11c0-.729-.29-1.429-.805-1.945-.516-.515-1.216-.805-1.945-.805-2.871 0-8.129 0-11 0-.729 0-1.429.29-1.945.805-.515.516-.805 1.216-.805 1.945v7c0 .729.29 1.429.805 1.945.516.515 1.216.805 1.945.805h11c.729 0 1.429-.29 1.945-.805.515-.516.805-1.216.805-1.945zm-1.5 0v7c0 .332-.132.649-.366.884-.235.234-.552.366-.884.366h-11c-.332 0-.649-.132-.884-.366-.234-.235-.366-.552-.366-.884v-7c0-.332.132-.649.366-.884.235-.234.552-.366.884-.366h11c.332 0 .649.132.884.366.234.235.366.552.366.884z"/><path d="m16.25 6v-1c0-.967-.784-1.75-1.75-1.75-1.222 0-3.278 0-4.5 0-.966 0-1.75.783-1.75 1.75v1c0 .967.784 1.75 1.75 1.75h4.5c.966 0 1.75-.783 1.75-1.75zm-1.5-1v1c0 .138-.112.25-.25.25-1.222 0-3.278 0-4.5 0-.138 0-.25-.112-.25-.25v-1c0-.138.112-.25.25-.25h4.5c.138 0 .25.112.25.25z"/><path d="m22.75 18.762v-8.524c0-.414-.206-.802-.549-1.035-.344-.232-.78-.279-1.165-.125-1.37.548-4.315 1.726-4.315 1.726-.284.114-.471.389-.471.696v6c0 .307.187.582.471.696 0 0 2.945 1.178 4.315 1.726.385.154.821.107 1.165-.125.343-.233.549-.621.549-1.035zm-1.5-8.154v7.784l-3.5-1.4v-4.984z"/><path d="m5 12.75h2c.414 0 .75-.336.75-.75s-.336-.75-.75-.75h-2c-.414 0-.75.336-.75.75s.336.75.75.75z"/><path d="m6.75 9v-2.5c0-.138.112-.25.25-.25h2c.414 0 .75-.336.75-.75s-.336-.75-.75-.75h-2c-.967 0-1.75.784-1.75 1.75v2.5c0 .414.336.75.75.75s.75-.336.75-.75z"/></g></svg>