<svg clip-rule="evenodd" fill-rule="evenodd" height="512" stroke-linejoin="round" stroke-miterlimit="2" viewBox="0 0 24 24" width="512" xmlns="http://www.w3.org/2000/svg"><g id="Icon"><path d="m22.75 4c0-.729-.29-1.429-.805-1.945-.516-.515-1.216-.805-1.945-.805-3.832 0-12.168 0-16 0-.729 0-1.429.29-1.945.805-.515.516-.805 1.216-.805 1.945v16c0 .729.29 1.429.805 1.945.516.515 1.216.805 1.945.805h16c.729 0 1.429-.29 1.945-.805.515-.516.805-1.216.805-1.945zm-1.5 0v16c0 .332-.132.649-.366.884-.235.234-.552.366-.884.366h-16c-.332 0-.649-.132-.884-.366-.234-.235-.366-.552-.366-.884v-16c0-.332.132-.649.366-.884.235-.234.552-.366.884-.366h16c.332 0 .649.132.884.366.234.235.366.552.366.884z"/><path d="m9 14.5v-7.5c0-.414-.336-.75-.75-.75s-.75.336-.75.75v7.5c0 .414.336.75.75.75s.75-.336.75-.75z"/><path d="m17.5 16.75h-11c-.414 0-.75.336-.75.75s.336.75.75.75h11c.414 0 .75-.336.75-.75s-.336-.75-.75-.75z"/><path d="m16.5 14.5v-7.5c0-.414-.336-.75-.75-.75s-.75.336-.75.75v7.5c0 .414.336.75.75.75s.75-.336.75-.75z"/><path d="m6.28 9.53 1.97-1.969s1.97 1.969 1.97 1.969c.292.293.768.293 1.06 0 .293-.292.293-.768 0-1.06l-2.5-2.5c-.293-.293-.767-.293-1.06 0l-2.5 2.5c-.293.292-.293.768 0 1.06.292.293.768.293 1.06 0z"/><path d="m13.78 9.53 1.97-1.969s1.97 1.969 1.97 1.969c.292.293.768.293 1.06 0 .293-.292.293-.768 0-1.06l-2.5-2.5c-.293-.293-.767-.293-1.06 0l-2.5 2.5c-.293.292-.293.768 0 1.06.292.293.768.293 1.06 0z"/></g></svg>