<svg clip-rule="evenodd" fill-rule="evenodd" height="512" stroke-linejoin="round" stroke-miterlimit="2" viewBox="0 0 24 24" width="512" xmlns="http://www.w3.org/2000/svg"><g id="Icon"><path d="m12.723 12.185c.01-.078-.037-.151-.111-.176s-.155.005-.194.073c-.653 1.118-1.906 3.266-2.33 3.993-.03.051-.03.114-.001.165.03.051.084.083.143.083h1.359s-.19 1.518-.312 2.492c-.01.078.037.151.111.176s.155-.005.194-.073c.653-1.118 1.906-3.266 2.33-3.993.03-.051.03-.114.001-.165-.03-.051-.084-.083-.143-.083-.471 0-1.359 0-1.359 0s.19-1.518.312-2.492z"/><path d="m21.745 10.588-1.083 9.118c-.105.881-.851 1.544-1.738 1.544h-13.848c-.887 0-1.633-.663-1.738-1.544l-1.083-9.118c-.025-.212.042-.426.184-.586.143-.16.347-.252.561-.252h18c.214 0 .418.092.561.252.142.16.209.374.184.586zm-1.589.662h-16.312l.984 8.28c.014.125.121.22.248.22h13.848c.127 0 .234-.095.248-.221z"/><path d="m21 11.25h-18c-.231 0-.449-.106-.591-.288s-.193-.42-.137-.644l.906-3.621c.139-.557.639-.947 1.212-.947h15.22c.573 0 1.073.39 1.212.947l.906 3.621c.056.224.005.462-.137.644s-.36.288-.591.288zm-1.586-4h-14.828l-.625 2.5h16.078z"/><path d="m16 7.25h-8c-.414 0-.75-.336-.75-.75v-2.5c0-.332.132-.649.366-.884.235-.234.552-.366.884-.366h7c.69 0 1.25.56 1.25 1.25v2.5c0 .414-.336.75-.75.75zm-7.25-3v1.5h6.5v-1.5z"/><path d="m22 9.75c.414 0 .75.336.75.75s-.336.75-.75.75h-20c-.414 0-.75-.336-.75-.75s.336-.75.75-.75z"/></g></svg>