<svg clip-rule="evenodd" fill-rule="evenodd" height="512" stroke-linejoin="round" stroke-miterlimit="2" viewBox="0 0 24 24" width="512" xmlns="http://www.w3.org/2000/svg"><g id="Icon"><path d="m6.25 18.477v2.523c0 .967.783 1.75 1.75 1.75h8c.967 0 1.75-.783 1.75-1.75v-2.523c1.531-1.328 2.5-3.29 2.5-5.477v-2c0-1.242-1.008-2.25-2.25-2.25s-2.25 1.008-2.25 2.25v2c0 1.519-1.231 2.75-2.75 2.75h-2c-1.519 0-2.75-1.231-2.75-2.75 0-1.128 0-2 0-2 0-1.242-1.008-2.25-2.25-2.25s-2.25 1.008-2.25 2.25v2c0 2.187.968 4.148 2.5 5.477zm1.5-.353c0-.231-.106-.449-.288-.591-1.346-1.052-2.212-2.692-2.212-4.533 0-1.128 0-2 0-2 0-.414.336-.75.75-.75s.75.336.75.75v2c0 2.347 1.903 4.25 4.25 4.25h2c2.347 0 4.25-1.903 4.25-4.25v-2c0-.414.336-.75.75-.75s.75.336.75.75v2c0 1.841-.866 3.481-2.212 4.533-.182.142-.288.36-.288.591v2.876c0 .138-.112.25-.25.25h-8c-.138 0-.25-.112-.25-.25z"/><path d="m12 8.25c-1.794 0-3.25 1.456-3.25 3.25s1.456 3.25 3.25 3.25 3.25-1.456 3.25-3.25-1.456-3.25-3.25-3.25zm0 1.5c.966 0 1.75.784 1.75 1.75s-.784 1.75-1.75 1.75-1.75-.784-1.75-1.75.784-1.75 1.75-1.75z"/><path d="m12.629 1.592c-.138-.213-.375-.342-.629-.342s-.491.129-.629.342l-.786 1.211s-1.394.373-1.394.373c-.246.065-.441.251-.52.492-.078.242-.029.507.131.705l.909 1.121s-.076 1.441-.076 1.441c-.014.254.102.497.308.647.205.149.473.184.71.093l1.347-.518s1.347.518 1.347.518c.237.091.505.056.71-.093.206-.15.322-.393.308-.647l-.076-1.441s.909-1.121.909-1.121c.16-.198.209-.463.131-.705-.079-.241-.274-.427-.52-.492l-1.394-.373s-.786-1.211-.786-1.211zm-.629 1.787.313.482c.101.156.256.269.436.317l.555.148s-.362.447-.362.447c-.117.144-.176.327-.166.512l.03.574s-.537-.206-.537-.206c-.173-.067-.365-.067-.538 0l-.537.206s.03-.574.03-.574c.01-.185-.049-.368-.166-.512l-.362-.447s.555-.148.555-.148c.18-.048.335-.161.436-.317z"/></g></svg>