<svg clip-rule="evenodd" fill-rule="evenodd" height="512" stroke-linejoin="round" stroke-miterlimit="2" viewBox="0 0 24 24" width="512" xmlns="http://www.w3.org/2000/svg"><g id="Icon"><path d="m5.995 22.353h10c3.504 0 6.385-2.671 6.718-6.087.001-.007.001-.013.002-.02.026-.365-.111-.723-.374-.979-.262-.255-.624-.381-.989-.345-2.929.285-16.286 1.621-18.963 1.888-.683.068-1.184.675-1.121 1.359l.003.027c.302 2.343 2.302 4.157 4.724 4.157zm13.958-5.786 1.225-.121c-.402 2.497-2.57 4.407-5.183 4.407h-10c-1.565 0-2.871-1.105-3.189-2.577l9.117-.911c2.677-.266 5.353-.533 8.03-.798z"/><path d="m12.745 16.602v-12.999c0-.413-.336-.75-.75-.75s-.75.337-.75.75v12.999c0 .414.336.75.75.75s.75-.336.75-.75z"/><path d="m21.214 10.629-7.794-8.573c-.347-.382-.894-.512-1.376-.325-.481.186-.799.649-.799 1.166v10.706c0 .212.09.414.247.556.157.143.367.212.578.191l8.023-.803c1.431-.142 2.088-1.854 1.121-2.918zm-8.469-7.086 7.359 8.094c.138.152.045.397-.16.417l-7.199.72z"/><path d="m4.735 12.316c-.874 1.237.136 2.933 1.647 2.746l4.836-.605c.874-.11 1.532-.855 1.532-1.737v-7.042c0-1.694-2.17-2.399-3.166-1.029-.009.013-.018.027-.027.04l-4.823 7.629zm1.229.861c.009-.013.018-.026.027-.04l4.817-7.619c.148-.177.442-.075.442.16v7.042c0 .127-.094.233-.22.249 0 0-4.832.604-4.832.604-.218.027-.363-.218-.234-.396z"/></g></svg>