<svg clip-rule="evenodd" fill-rule="evenodd" height="512" stroke-linejoin="round" stroke-miterlimit="2" viewBox="0 0 24 24" width="512" xmlns="http://www.w3.org/2000/svg"><g id="Icon"><path d="m19 22.75c.968 0 1.75-.782 1.75-1.75v-18c0-.968-.782-1.75-1.75-1.75h-14c-.968 0-1.75.782-1.75 1.75v18c0 .968.782 1.75 1.75 1.75zm0-1.5h-14c-.138 0-.25-.112-.25-.25v-18c0-.138.112-.25.25-.25h14c.138 0 .25.112.25.25v18c0 .138-.112.25-.25.25z"/><path d="m13 5c0 .553-.447 1-1 1s-1-.447-1-1 .447-1 1-1 1 .447 1 1" fill-rule="nonzero"/><path d="m11 19.75h2c.414 0 .75-.336.75-.75s-.336-.75-.75-.75h-2c-.414 0-.75.336-.75.75s.336.75.75.75z"/></g></svg>