<svg clip-rule="evenodd" fill-rule="evenodd" height="512" stroke-linejoin="round" stroke-miterlimit="2" viewBox="0 0 24 24" width="512" xmlns="http://www.w3.org/2000/svg"><g id="Icon"><path d="m22.308 19.101s-.999-.45-1.904-.857c-1.119-.504-2.415-.428-3.468.204 0 0-.445.267-.445.267-.713.428-1.603.428-2.315 0l-.247-.147c-1.187-.713-2.671-.713-3.858 0l-.247.147c-.712.428-1.602.428-2.315 0l-.445-.267c-1.053-.632-2.349-.708-3.468-.204-.905.407-1.904.857-1.904.857-.377.169-.546.614-.376.991.17.378.614.546.992.377 0 0 .999-.45 1.903-.857.672-.302 1.449-.257 2.081.122l.445.268c1.188.712 2.671.712 3.859 0l.246-.148c.713-.428 1.603-.428 2.316 0l.246.148c1.188.712 2.671.712 3.859 0l.445-.268c.632-.379 1.409-.424 2.081-.122.904.407 1.903.857 1.903.857.378.169.822.001.992-.377.17-.377.001-.822-.376-.991z"/><path d="m4.75 8.214v-2c0-.332.132-.649.366-.884.235-.234.552-.366.884-.366.69 0 1.25.56 1.25 1.25v13c0 .414.336.75.75.75s.75-.336.75-.75c0 0 0-9.586 0-13 0-1.519-1.231-2.75-2.75-2.75-.729 0-1.429.29-1.945.805-.515.516-.805 1.216-.805 1.945v2c0 .414.336.75.75.75s.75-.336.75-.75z"/><path d="m12.75 8.214v-2c0-.332.132-.649.366-.884.235-.234.552-.366.884-.366.69 0 1.25.56 1.25 1.25v13c0 .414.336.75.75.75s.75-.336.75-.75c0 0 0-9.586 0-13 0-1.519-1.231-2.75-2.75-2.75-.729 0-1.429.29-1.945.805-.515.516-.805 1.216-.805 1.945v2c0 .414.336.75.75.75s.75-.336.75-.75z"/><path d="m8 12.464h8c.414 0 .75-.336.75-.75s-.336-.75-.75-.75h-8c-.414 0-.75.336-.75.75s.336.75.75.75z"/><path d="m8 15.964h8c.414 0 .75-.336.75-.75s-.336-.75-.75-.75h-8c-.414 0-.75.336-.75.75s.336.75.75.75z"/><path d="m2 8.964h20c.414 0 .75-.336.75-.75s-.336-.75-.75-.75h-20c-.414 0-.75.336-.75.75s.336.75.75.75z"/></g></svg>