<svg clip-rule="evenodd" fill-rule="evenodd" height="512" stroke-linejoin="round" stroke-miterlimit="2" viewBox="0 0 24 24" width="512" xmlns="http://www.w3.org/2000/svg"><g id="Icon"><path d="m12 10.75h4.5c1.519 0 2.75-1.231 2.75-2.75 0-.315 0-.652 0-1 0-3.176-2.574-5.75-5.75-5.75h-3c-3.176 0-5.75 2.574-5.75 5.75v5c0 .414.336.75.75.75s.75-.336.75-.75c0 0 0-2.5 0-5 0-2.347 1.903-4.25 4.25-4.25h3c2.347 0 4.25 1.903 4.25 4.25v1c0 .69-.56 1.25-1.25 1.25h-4.5c-.414 0-.75.336-.75.75s.336.75.75.75z"/><path d="m15.748 6.624c-.648-1.12-1.86-1.874-3.248-1.874h-1c-1.388 0-2.6.754-3.248 1.874-.207.359-.085.818.274 1.025.358.207.817.085 1.025-.273.389-.673 1.116-1.126 1.949-1.126h1c.833 0 1.56.453 1.949 1.126.208.358.667.48 1.025.273.359-.207.481-.666.274-1.025z"/><path d="m7.5 9.25c-1.519 0-2.75 1.231-2.75 2.75s1.231 2.75 2.75 2.75h2c.414 0 .75-.336.75-.75s-.336-.75-.75-.75h-2c-.69 0-1.25-.56-1.25-1.25s.56-1.25 1.25-1.25c.414 0 .75-.336.75-.75s-.336-.75-.75-.75z"/><path d="m13 14.75h3.5c1.519 0 2.75-1.231 2.75-2.75s-1.231-2.75-2.75-2.75h-4.5c-.414 0-.75.336-.75.75s.336.75.75.75h4.5c.69 0 1.25.56 1.25 1.25s-.56 1.25-1.25 1.25h-3.5c-.414 0-.75.336-.75.75s.336.75.75.75z"/><path d="m16.5 18.75c1.519 0 2.75-1.231 2.75-2.75s-1.231-2.75-2.75-2.75h-3.5c-.414 0-.75.336-.75.75s.336.75.75.75h3.5c.69 0 1.25.56 1.25 1.25s-.56 1.25-1.25 1.25c-.414 0-.75.336-.75.75s.336.75.75.75z"/><path d="m9.5 13.25h-2c-1.519 0-2.75 1.231-2.75 2.75s1.231 2.75 2.75 2.75h4.5c.414 0 .75-.336.75-.75s-.336-.75-.75-.75h-4.5c-.69 0-1.25-.56-1.25-1.25s.56-1.25 1.25-1.25h2c.414 0 .75-.336.75-.75s-.336-.75-.75-.75z"/><path d="m12 17.25h-4.5c-1.519 0-2.75 1.233-2.75 2.752 0 .701.29 1.428.805 1.943s1.214.805 1.943.805h9.004c.729 0 1.428-.29 1.943-.805s.805-1.242.805-1.943c0-1.378-1.231-2.752-2.75-2.752-.414 0-.75.336-.75.75s.336.75.75.75c.691 0 1.25.626 1.25 1.252 0 .318-.131.648-.366.882-.234.235-.551.366-.882.366-2.445 0-6.559 0-9.004 0-.331 0-.648-.131-.882-.366-.235-.234-.366-.564-.366-.882 0-.691.559-1.252 1.25-1.252h4.5c.414 0 .75-.336.75-.75s-.336-.75-.75-.75z"/></g></svg>