<svg clip-rule="evenodd" fill-rule="evenodd" height="512" stroke-linejoin="round" stroke-miterlimit="2" viewBox="0 0 24 24" width="512" xmlns="http://www.w3.org/2000/svg"><g id="Icon"><path d="m11.73 1.7c-5.933 0-10.75 4.817-10.75 10.75s4.817 10.75 10.75 10.75 10.75-4.817 10.75-10.75-4.817-10.75-10.75-10.75zm0 1.5c5.105 0 9.25 4.144 9.25 9.25 0 5.105-4.145 9.25-9.25 9.25-5.106 0-9.25-4.145-9.25-9.25 0-5.106 4.144-9.25 9.25-9.25z"/><path d="m12.48 15.075v-8.75c0-.414-.336-.75-.75-.75s-.75.336-.75.75v8.75c0 .414.336.75.75.75s.75-.336.75-.75z"/><path d="m15.76 9.294-3.5-3.5c-.293-.293-.768-.293-1.061 0l-3.5 3.5c-.292.293-.292.768 0 1.061.293.293.768.293 1.061 0l2.97-2.97s2.969 2.97 2.969 2.97c.293.293.768.293 1.061 0s.293-.768 0-1.061z"/><path d="m15.73 16.825h-8c-.414 0-.75.336-.75.75s.336.75.75.75h8c.414 0 .75-.336.75-.75s-.336-.75-.75-.75z"/></g></svg>