<svg clip-rule="evenodd" fill-rule="evenodd" height="512" stroke-linejoin="round" stroke-miterlimit="2" viewBox="0 0 24 24" width="512" xmlns="http://www.w3.org/2000/svg"><g id="Icon"><path d="m12.767 19.996c.002-.414.34-.748.754-.746s.748.34.746.754c0 0-.006 1.242-.006 1.242l1.243.006c.414.002.748.339.746.753s-.34.749-.754.747l-1.992-.01c-.414-.002-.748-.339-.746-.753z"/><path d="m4.767 19.996c.002-.414.34-.748.754-.746s.748.34.746.754c0 0-.006 1.242-.006 1.242l1.243.006c.414.002.748.339.746.753s-.34.749-.754.747l-1.992-.01c-.414-.002-.748-.339-.746-.753z"/><path d="m6.377 5.794c.555-2.596 2.863-4.544 5.623-4.544 2.185 0 4.087 1.222 5.059 3.018.146-.012.293-.018.441-.018 2.898 0 5.25 2.352 5.25 5.25s-2.352 5.25-5.25 5.25h-11.75c-2.484 0-4.5-2.016-4.5-4.5s2.016-4.5 4.5-4.5c.213 0 .422.015.627.044zm.379 1.629c-.314-.112-.653-.173-1.006-.173-1.656 0-3 1.344-3 3s1.344 3 3 3h11.75c2.07 0 3.75-1.68 3.75-3.75s-1.68-3.75-3.75-3.75c-.251 0-.496.025-.734.072-.351.069-.702-.118-.839-.448-.639-1.54-2.157-2.624-3.927-2.624-2.265 0-4.118 1.775-4.243 4.009-.013.236-.137.452-.334.582-.197.131-.444.161-.667.082z"/><path d="m16.931 13.512c.269-.314.743-.351 1.057-.081.314.269.351.743.081 1.057l-1.938 2.262h1.369c.293 0 .559.171.681.437.123.266.079.579-.112.801l-3 3.5c-.269.314-.743.351-1.057.081-.314-.269-.351-.743-.081-1.057l1.938-2.262h-1.369c-.293 0-.559-.171-.681-.437-.123-.266-.079-.579.112-.801z"/><path d="m8.931 13.512c.269-.314.743-.351 1.057-.081.314.269.351.743.081 1.057l-1.938 2.262h1.369c.293 0 .559.171.681.437.123.266.079.579-.112.801l-3 3.5c-.269.314-.743.351-1.057.081-.314-.269-.351-.743-.081-1.057l1.938-2.262h-1.369c-.293 0-.559-.171-.681-.437-.123-.266-.079-.579.112-.801z"/></g></svg>