<svg clip-rule="evenodd" fill-rule="evenodd" height="512" stroke-linejoin="round" stroke-miterlimit="2" viewBox="0 0 24 24" width="512" xmlns="http://www.w3.org/2000/svg"><g id="Icon"><path d="m20.043 13.25h-.543c-.967 0-1.75.784-1.75 1.75v1.5c0 .332-.132.649-.366.884-.235.234-.552.366-.884.366h-1c-.967 0-1.75.784-1.75 1.75v2.5c0 .414.336.75.75.75s.75-.336.75-.75v-2.5c0-.138.112-.25.25-.25h1c.729 0 1.429-.29 1.945-.805.515-.516.805-1.216.805-1.945v-1.5c0-.138.112-.25.25-.25h1.028c.469 0 .898-.262 1.112-.678s.178-.918-.094-1.299c0 0-1.749-2.448-1.749-2.448-.031-.043-.047-.093-.047-.145v-.68c0-4.543-4.207-8.25-8.75-8.25s-8.75 3.707-8.75 8.25v.9c0 1.815.359 3.613 1.058 5.288l1.346 3.231c.063.153.096.316.096.481v2.6c0 .414.336.75.75.75s.75-.336.75-.75v-2.6c0-.363-.072-.723-.212-1.058-.266-.64-.835-2.005-1.346-3.23-.622-1.493-.942-3.095-.942-4.712v-.9c0-3.742 3.508-6.75 7.25-6.75s7.25 3.008 7.25 6.75v.68c0 .364.114.72.326 1.017z"/><path d="m16.264 8.625c0-.414-.336-.75-.75-.75h-1.125c-1.094 0-2.143.435-2.917 1.208-.773.774-1.208 1.823-1.208 2.917v1.125c0 .414.336.75.75.75h1.125c1.094 0 2.143-.435 2.917-1.208.774-.774 1.208-1.823 1.208-2.917zm-1.5.75v.375c0 .696-.276 1.364-.769 1.856-.492.492-1.16.769-1.856.769h-.375v-.375c0-.696.277-1.364.769-1.856s1.16-.769 1.856-.769z"/><path d="m6.514 7.875c-.414 0-.75.336-.75.75v1.125c0 1.094.435 2.143 1.208 2.917.774.773 1.823 1.208 2.917 1.208h1.125c.414 0 .75-.336.75-.75v-1.125c0-1.094-.434-2.143-1.208-2.917-.774-.773-1.823-1.208-2.917-1.208zm.75 1.5h.375c.696 0 1.364.277 1.856.769.493.492.769 1.16.769 1.856v.375h-.375c-.696 0-1.364-.277-1.856-.769s-.769-1.16-.769-1.856z"/><path d="m10.264 12.875v2.5c0 .414.336.75.75.75s.75-.336.75-.75v-2.5c0-.414-.336-.75-.75-.75s-.75.336-.75.75z"/></g></svg>