<svg clip-rule="evenodd" fill-rule="evenodd" height="512" stroke-linejoin="round" stroke-miterlimit="2" viewBox="0 0 24 24" width="512" xmlns="http://www.w3.org/2000/svg"><g id="Icon"><path d="m19.25 13c0 .414.336.75.75.75h1c.968 0 1.75-.782 1.75-1.75v-2c0-.968-.782-1.75-1.75-1.75h-1c-.414 0-.75.336-.75.75zm1.5-.75v-2.5h.25c.138 0 .25.112.25.25v2c0 .138-.112.25-.25.25z"/><path d="m19 7.25h-14c-.968 0-1.75.782-1.75 1.75v5c0 1.518 1.232 2.75 2.75 2.75h4c.199 0 .39-.079.53-.22l1.47-1.469s1.47 1.469 1.47 1.469c.14.141.331.22.53.22h4c1.518 0 2.75-1.232 2.75-2.75v-5c0-.968-.782-1.75-1.75-1.75zm0 1.5c.138 0 .25.112.25.25v5c0 .69-.56 1.25-1.25 1.25h-3.689s-1.781-1.78-1.781-1.78c-.293-.293-.767-.293-1.06 0l-1.781 1.78h-3.689c-.69 0-1.25-.56-1.25-1.25v-5c0-.138.112-.25.25-.25z"/><path d="m4 13.75c.414 0 .75-.336.75-.75v-4c0-.414-.336-.75-.75-.75h-1c-.968 0-1.75.782-1.75 1.75v2c0 .968.782 1.75 1.75 1.75zm-.75-1.5h-.25c-.138 0-.25-.112-.25-.25v-2c0-.138.112-.25.25-.25h.25z"/><path d="m6 10.75h1.417c.414 0 .75-.336.75-.75s-.336-.75-.75-.75h-1.417c-.414 0-.75.336-.75.75s.336.75.75.75z"/></g></svg>