<svg clip-rule="evenodd" fill-rule="evenodd" height="512" stroke-linejoin="round" stroke-miterlimit="2" viewBox="0 0 24 24" width="512" xmlns="http://www.w3.org/2000/svg"><g id="Icon"><path d="m18.5 11c0-.966-.783-1.75-1.75-1.75h-12c-.967 0-1.75.784-1.75 1.75v5c0 1.79.711 3.507 1.977 4.773s2.983 1.977 4.773 1.977h2c1.79 0 3.507-.711 4.773-1.977s1.977-2.983 1.977-4.773zm-1.5 0v5c0 1.392-.553 2.728-1.538 3.712-.984.985-2.32 1.538-3.712 1.538h-2c-1.392 0-2.728-.553-3.712-1.538-.985-.984-1.538-2.32-1.538-3.712v-5c0-.138.112-.25.25-.25h12c.138 0 .25.112.25.25z"/><path d="m18.25 21.25h-15c-.414 0-.75.336-.75.75s.336.75.75.75h15c.414 0 .75-.336.75-.75s-.336-.75-.75-.75z"/><path d="m5.22 2.53.5.5c.259.26.259.68 0 .94-.846.845-.846 2.215-.001 3.06l.501.5c.292.293.768.293 1.06 0 .293-.292.293-.768 0-1.06l-.5-.5c-.259-.26-.259-.68 0-.94.846-.845.846-2.215.001-3.06l-.501-.5c-.292-.293-.768-.293-1.06 0-.293.292-.293.768 0 1.06z"/><path d="m9.72 2.53.5.5c.259.26.259.68 0 .94-.846.845-.846 2.215-.001 3.06l.501.5c.292.293.768.293 1.06 0 .293-.292.293-.768 0-1.06l-.5-.5c-.259-.26-.259-.68 0-.94.846-.845.846-2.215.001-3.06l-.501-.5c-.292-.293-.768-.293-1.06 0-.293.292-.293.768 0 1.06z"/><path d="m14.22 2.53.5.5c.259.26.259.68 0 .94-.846.845-.846 2.215-.001 3.06l.501.5c.292.293.768.293 1.06 0 .293-.292.293-.768 0-1.06l-.5-.5c-.259-.26-.259-.68 0-.94.846-.845.846-2.215.001-3.06l-.501-.5c-.292-.293-.768-.293-1.06 0-.293.292-.293.768 0 1.06z"/><path d="m17.75 12.25h1c.332 0 .649.132.884.366.234.235.366.552.366.884v.646c0 .852-.482 1.631-1.244 2.012 0 0-1.341.671-1.341.671-.371.185-.521.636-.336 1.006.185.371.636.521 1.006.336l1.342-.671c1.27-.635 2.073-1.934 2.073-3.354 0-.213 0-.431 0-.646 0-.729-.29-1.429-.805-1.945-.516-.515-1.216-.805-1.945-.805h-1c-.414 0-.75.336-.75.75s.336.75.75.75z"/><path d="m7.25 10v3c0 .414.336.75.75.75s.75-.336.75-.75v-3c0-.414-.336-.75-.75-.75s-.75.336-.75.75z"/><path d="m10.25 14.268c0-.418-.209-.809-.557-1.04-.417-.279-1.277-.852-1.277-.852-.252-.168-.58-.168-.832 0 0 0-.86.573-1.277.852-.348.231-.557.622-.557 1.04v1.732c0 .69.56 1.25 1.25 1.25h2c.69 0 1.25-.56 1.25-1.25zm-3 .133v1.349h1.5v-1.349l-.75-.5z"/></g></svg>