<svg clip-rule="evenodd" fill-rule="evenodd" height="512" stroke-linejoin="round" stroke-miterlimit="2" viewBox="0 0 24 24" width="512" xmlns="http://www.w3.org/2000/svg"><g id="Icon"><path d="m22.75 15.5v-11.5c0-.729-.29-1.429-.805-1.945-.516-.515-1.216-.805-1.945-.805-3.832 0-12.168 0-16 0-.729 0-1.429.29-1.945.805-.515.516-.805 1.216-.805 1.945v14c0 .729.29 1.429.805 1.945.516.515 1.216.805 1.945.805h8.5c.414 0 .75-.336.75-.75s-.336-.75-.75-.75c0 0-5.453 0-8.5 0-.332 0-.649-.132-.884-.366-.234-.235-.366-.552-.366-.884v-14c0-.332.132-.649.366-.884.235-.234.552-.366.884-.366h16c.332 0 .649.132.884.366.234.235.366.552.366.884v11.5c0 .414.336.75.75.75s.75-.336.75-.75z"/><path d="m2 7.75h20c.414 0 .75-.336.75-.75s-.336-.75-.75-.75h-20c-.414 0-.75.336-.75.75s.336.75.75.75z"/><path d="m8.5 5.25h1c.414 0 .75-.336.75-.75s-.336-.75-.75-.75h-1c-.414 0-.75.336-.75.75s.336.75.75.75z"/><path d="m5 5.25h1c.414 0 .75-.336.75-.75s-.336-.75-.75-.75h-1c-.414 0-.75.336-.75.75s.336.75.75.75z"/><path d="m22.062 22.08c.917-.917.917-2.404 0-3.321l-2.979-2.979c.177-1.195-.194-2.455-1.113-3.374-1.214-1.215-3.026-1.472-4.493-.772-.22.105-.375.31-.416.55s.037.485.209.657l1.679 1.679s-.112.336-.112.336-.335.111-.335.111-1.679-1.679-1.679-1.679c-.172-.172-.417-.25-.657-.209-.24.042-.445.197-.55.417-.7 1.467-.443 3.278.771 4.493.919.919 2.18 1.29 3.375 1.112l2.978 2.98c.917.917 2.405.917 3.322-.001zm-1.061-1.06c-.331.331-.869.331-1.2 0 0 0-3.264-3.264-3.264-3.264-.189-.189-.465-.263-.724-.194-.817.217-1.725.007-2.365-.634-.446-.446-.684-1.023-.714-1.608 0 .001 1.035 1.036 1.035 1.036.201.201.498.271.768.181l1.13-.377c.224-.075.4-.25.475-.474l.376-1.131c.09-.269.02-.567-.181-.767l-1.034-1.035c.584.029 1.16.267 1.607.713.64.641.851 1.549.633 2.366-.069.258.005.534.194.723l3.264 3.264c.332.332.332.869 0 1.201z"/></g></svg>