<svg height="512" viewBox="0 0 32 32" width="512" xmlns="http://www.w3.org/2000/svg"><g id="yahoo_email_mail_y" data-name="yahoo, email, mail, y"><path d="m19.24 10a1 1 0 0 0 -.83-.44h-4.56a1 1 0 0 0 -.93.62l-1.71 4.22-1.72-4.22a1 1 0 0 0 -.93-.62h-4.56a1 1 0 0 0 0 2h3.89l2.39 5.87a1 1 0 0 0 .93.62 1 1 0 0 0 .93-.62l2.38-5.87h2.4l-5.82 14.28h-2.4l1.16-2.84a1 1 0 0 0 0-.76l-3.12-7.62a1 1 0 1 0 -1.85.76l3 7.26-1.61 3.82a1 1 0 0 0 .93 1.38h4.56a1 1 0 0 0 .93-.62l6.64-16.28a1 1 0 0 0 -.1-.94z"/><path d="m29.66 4.68a1 1 0 0 0 -.83-.44h-4.56a1 1 0 0 0 -.92.62l-4.35 10.76a1 1 0 0 0 .91 1.38h4.56a1 1 0 0 0 .92-.62l4.37-10.77a1 1 0 0 0 -.1-.93zm-5.87 10.32h-2.4l3.61-8.76h2.4z"/><path d="m20.41 17.7a3.41 3.41 0 1 0 3.41 3.41 3.41 3.41 0 0 0 -3.41-3.41zm0 4.82a1.41 1.41 0 1 1 1.41-1.41 1.41 1.41 0 0 1 -1.41 1.41z"/></g></svg>