<svg clip-rule="evenodd" fill-rule="evenodd" height="512" stroke-linejoin="round" stroke-miterlimit="2" viewBox="0 0 24 24" width="512" xmlns="http://www.w3.org/2000/svg"><g id="Icon"><path d="m12.826 10.461c.011-.088-.042-.172-.126-.201-.085-.029-.178.006-.223.083-.745 1.278-2.178 3.734-2.662 4.564-.034.058-.034.13-.001.189.034.058.096.094.163.094h1.553s-.217 1.736-.356 2.849c-.011.088.042.172.126.201.085.029.178-.006.223-.083.745-1.278 2.178-3.734 2.662-4.564.034-.058.034-.13.001-.189-.034-.058-.096-.094-.163-.094-.539 0-1.553 0-1.553 0s.217-1.736.356-2.849z"/><path d="m22.75 20.5v1c0 .331-.132.649-.366.884-.235.234-.552.366-.884.366h-19c-.332 0-.649-.132-.884-.366-.234-.235-.366-.553-.366-.884v-1c0-.331.132-.649.366-.884.235-.234.552-.366.884-.366h19c.332 0 .649.132.884.366.234.235.366.553.366.884zm-20 .25v.5h18.5v-.5z"/><path d="m18.75 3.498v5.002c0 .414-.336.75-.75.75h-3c-.414 0-.75-.336-.75-.75v-5.002c0-1.242 1.006-2.248 2.248-2.248h.004c1.242 0 2.248 1.006 2.248 2.248zm-1.5 0c0-.413-.335-.748-.748-.748h-.004c-.413 0-.748.335-.748.748v4.252h1.5z"/><path d="m9.75 3.498v5.002c0 .414-.336.75-.75.75h-3c-.414 0-.75-.336-.75-.75v-5.002c0-1.242 1.006-2.248 2.248-2.248h.004c1.242 0 2.248 1.006 2.248 2.248zm-1.5 0c0-.413-.335-.748-.748-.748h-.004c-.413 0-.748.335-.748.748v4.252h1.5z"/><path d="m21.75 9.5v10.5c0 .414-.336.75-.75.75h-18c-.414 0-.75-.336-.75-.75v-10.5c0-.464.184-.909.513-1.237.328-.329.773-.513 1.237-.513h16c.464 0 .909.184 1.237.513.329.328.513.773.513 1.237zm-1.5 0c0-.066-.026-.13-.073-.177s-.111-.073-.177-.073h-16c-.066 0-.13.026-.177.073s-.073.111-.073.177v9.75h16.5z"/><path d="m19 4.5c.414 0 .75.336.75.75s-.336.75-.75.75h-5c-.414 0-.75-.336-.75-.75s.336-.75.75-.75z"/><path d="m10 4.5c.414 0 .75.336.75.75s-.336.75-.75.75h-5c-.414 0-.75-.336-.75-.75s.336-.75.75-.75z"/></g></svg>