<svg clip-rule="evenodd" fill-rule="evenodd" height="512" stroke-linejoin="round" stroke-miterlimit="2" viewBox="0 0 24 24" width="512" xmlns="http://www.w3.org/2000/svg"><g id="Icon"><path d="m9.25 20.5 2.267 1.7c.476.357 1.055.55 1.65.55h7.333c.464 0 .909-.184 1.237-.513.329-.328.513-.773.513-1.237v-3.46c0-2.133-1.423-4.005-3.479-4.576l-4.606-1.28c-.541-.15-.915-.643-.915-1.204v-7.48c0-.967-.784-1.75-1.75-1.75h-8c-.464 0-.909.184-1.237.513-.329.328-.513.773-.513 1.237v18c0 .464.184.909.513 1.237.328.329.773.513 1.237.513h4c.966 0 1.75-.783 1.75-1.75zm2.5-17.5v7.48c0 1.235.824 2.319 2.014 2.65 1.243.345 3.065.851 4.606 1.279 1.407.391 2.38 1.671 2.38 3.131v3.46c0 .066-.026.13-.073.177s-.111.073-.177.073h-7.333c-.271 0-.534-.088-.75-.25-.684-.513-1.875-1.406-2.667-2-.379-.284-.886-.33-1.309-.118s-.691.645-.691 1.118v1c0 .138-.112.25-.25.25h-4c-.066 0-.13-.026-.177-.073s-.073-.111-.073-.177v-18c0-.066.026-.13.073-.177s.111-.073.177-.073h8c.138 0 .25.112.25.25z"/><path d="m2.5 17.25h6.333c.271 0 .534.088.75.25.766.574 2.168 1.626 2.934 2.2.476.357 1.055.55 1.65.55h7.333c.414 0 .75-.336.75-.75s-.336-.75-.75-.75c0 0-5.412 0-7.333 0-.271 0-.534-.088-.75-.25-.766-.574-2.168-1.626-2.934-2.2-.476-.357-1.055-.55-1.65-.55-1.748 0-6.333 0-6.333 0-.414 0-.75.336-.75.75s.336.75.75.75z"/><path d="m12.5 5.25h-10c-.414 0-.75.336-.75.75s.336.75.75.75h10c.414 0 .75-.336.75-.75s-.336-.75-.75-.75z"/></g></svg>