<svg clip-rule="evenodd" fill-rule="evenodd" height="512" stroke-linejoin="round" stroke-miterlimit="2" viewBox="0 0 24 24" width="512" xmlns="http://www.w3.org/2000/svg"><g id="Icon"><path d="m8.85 14.789c-1.793.652-2.719 2.638-2.066 4.431.652 1.793 2.638 2.719 4.431 2.067 1.793-.653 2.719-2.639 2.067-4.432-.653-1.793-2.639-2.719-4.432-2.066zm.513 1.409c1.015-.369 2.14.155 2.509 1.17.37 1.015-.155 2.14-1.17 2.509-1.015.37-2.139-.154-2.509-1.17-.369-1.015.155-2.139 1.17-2.509z"/><path d="m9.811 15.237s-2.744-7.541-3.453-9.487c-.189-.52-.625-.91-1.161-1.041l-3.044-.741c-.402-.098-.808.149-.906.551s.149.808.551.906l3.043.742c.05.012.09.048.108.096l3.453 9.487c.141.389.572.59.961.448.389-.141.59-.572.448-.961z"/><path d="m12.833 17.817 9.424-3.43c.388-.142.589-.573.448-.961-.142-.389-.573-.59-.962-.449l-9.423 3.43c-.389.142-.589.572-.448.961.142.389.572.59.961.449z"/><path d="m18.058 3.592c-.15-.412-.457-.748-.854-.933s-.852-.205-1.264-.055c-1.468.534-4.468 1.626-5.936 2.161-.412.149-.748.457-.933.854s-.205.852-.055 1.264c.535 1.468 1.626 4.468 2.161 5.936.15.412.457.747.854.933.398.185.852.205 1.264.055 1.468-.535 4.468-1.626 5.936-2.161.412-.15.748-.457.933-.854.185-.398.205-.852.055-1.264zm-1.409.513 2.161 5.936c.013.038.012.08-.006.117-.017.036-.048.065-.086.079l-5.936 2.16c-.038.014-.08.012-.117-.005-.036-.017-.065-.048-.079-.086l-2.16-5.936c-.014-.038-.012-.08.005-.117s.048-.065.086-.079l5.936-2.161c.038-.013.08-.012.117.005.037.018.065.049.079.087z"/><path d="m12.524 4.646.857 2.355c.142.389.573.59.961.449.389-.142.59-.573.449-.962l-.858-2.356c-.141-.388-.572-.589-.961-.448-.389.142-.59.573-.448.962z"/></g></svg>