<svg clip-rule="evenodd" fill-rule="evenodd" height="512" stroke-linejoin="round" stroke-miterlimit="2" viewBox="0 0 24 24" width="512" xmlns="http://www.w3.org/2000/svg"><g id="Icon"><path d="m11.25 7v8c0 .413.336.749.75.75.414 0 .75-.337.75-.75v-8c0-.414-.336-.75-.75-.75s-.75.336-.75.75z"/><path d="m14.75 17c0-1.518-1.232-2.75-2.75-2.75s-2.75 1.232-2.75 2.75c0 1.517 1.232 2.75 2.75 2.75s2.75-1.233 2.75-2.75zm-1.5 0c0 .689-.56 1.25-1.25 1.25s-1.25-.561-1.25-1.25c0-.69.56-1.25 1.25-1.25s1.25.56 1.25 1.25z"/><path d="m15.75 12.664v-7.664c0-2.073-1.679-3.75-3.75-3.75s-3.75 1.677-3.75 3.75v7.664c-1.465 1.264-2.299 3.238-1.902 5.405.412 2.246 2.193 4.09 4.429 4.553 3.711.77 6.973-2.047 6.973-5.622 0-1.738-.78-3.283-2-4.336zm-1.5.358c0 .235.11.457.298.598 1.026.776 1.702 1.994 1.702 3.38 0 2.647-2.422 4.724-5.169 4.154-1.646-.341-2.955-1.701-3.257-3.355-.313-1.71.408-3.257 1.628-4.179.188-.141.298-.363.298-.598v-8.022c0-1.243 1.007-2.25 2.25-2.25s2.25 1.007 2.25 2.25z"/></g></svg>