<svg clip-rule="evenodd" fill-rule="evenodd" height="512" stroke-linejoin="round" stroke-miterlimit="2" viewBox="0 0 24 24" width="512" xmlns="http://www.w3.org/2000/svg"><g id="Icon"><path d="m18.75 8.009c0-3.725-3.025-6.75-6.75-6.75s-6.75 3.025-6.75 6.75 3.025 6.75 6.75 6.75 6.75-3.025 6.75-6.75zm-1.5 0c0 2.898-2.352 5.25-5.25 5.25s-5.25-2.352-5.25-5.25 2.352-5.25 5.25-5.25 5.25 2.352 5.25 5.25z"/><path d="m11.25 6.946v3.063c0 .414.336.75.75.75s.75-.336.75-.75v-4.748c0-.304-.183-.577-.463-.693s-.603-.052-.817.162l-.967.967c-.293.293-.293.768 0 1.061.202.202.491.265.747.188z"/><path d="m16.25 11.319v9.46c0 .362-.397.592-.728.428l-2.634-1.302c-.555-.27-1.221-.27-1.776 0l-2.634 1.302c-.331.164-.728-.066-.728-.428v-9.46c0-.414-.336-.75-.75-.75s-.75.336-.75.75v9.46c0 1.457 1.563 2.43 2.892 1.773l2.626-1.298c.145-.07.319-.07.464 0l2.626 1.298c1.329.657 2.892-.316 2.892-1.773v-9.46c0-.414-.336-.75-.75-.75s-.75.336-.75.75z"/></g></svg>