<svg clip-rule="evenodd" fill-rule="evenodd" height="512" stroke-linejoin="round" stroke-miterlimit="2" viewBox="0 0 24 24" width="512" xmlns="http://www.w3.org/2000/svg"><g id="Icon"><path d="m17.75 9.5v-6.5c0-.464-.184-.909-.513-1.237-.328-.329-.773-.513-1.237-.513-2.443 0-8.751 0-12 0-.729 0-1.429.29-1.945.805-.515.516-.805 1.216-.805 1.945v15.5c0 .414.336.75.75.75s.75-.336.75-.75c0 0 0-10.908 0-15.5 0-.332.132-.649.366-.884.235-.234.552-.366.884-.366h12c.066 0 .13.026.177.073s.073.111.073.177v6.5c0 .414.336.75.75.75s.75-.336.75-.75z"/><path d="m9 16.75h-4.75c-1.657 0-3 1.343-3 3 0 .796.316 1.559.879 2.121.562.563 1.325.879 2.121.879h7.25c.414 0 .75-.336.75-.75s-.336-.75-.75-.75h-7.25c-.398 0-.779-.158-1.061-.439-.281-.282-.439-.663-.439-1.061 0-.828.672-1.5 1.5-1.5h4.75c.414 0 .75-.336.75-.75s-.336-.75-.75-.75z"/><path d="m6 6.75h7c.414 0 .75-.336.75-.75s-.336-.75-.75-.75h-7c-.414 0-.75.336-.75.75s.336.75.75.75z"/><path d="m18.331 11.523c-.093-.254-.314-.437-.58-.482-.657-.11-1.327-.11-1.984 0-.266.045-.487.228-.58.482l-.409 1.115c-.054.025-.109.051-.163.078.001 0-1.126-.376-1.126-.376-.256-.085-.538-.027-.738.154-.496.444-.914.968-1.237 1.55-.131.236-.125.524.015.754l.617 1.015c-.014.058-.028.117-.04.177 0-.001-.996.645-.996.645-.227.147-.357.404-.341.673.039.665.188 1.318.442 1.934.102.249.331.425.598.459l1.178.15c.037.047.075.095.113.142 0-.001-.116 1.181-.116 1.181-.026.268.094.53.314.686.544.384 1.148.674 1.787.86.259.075.538.006.732-.182l.852-.827c.06.001.12.001.181 0-.001 0 .851.827.851.827.194.188.473.257.732.182.639-.186 1.243-.476 1.787-.86.22-.156.34-.418.314-.686l-.116-1.182c.038-.046.076-.094.113-.142-.001.001 1.178-.149 1.178-.149.267-.034.496-.21.598-.459.254-.616.403-1.269.442-1.934.015-.269-.115-.526-.341-.673l-.996-.646c-.012-.059-.026-.118-.04-.177 0 .001.617-1.014.617-1.014.14-.23.146-.518.015-.754-.324-.582-.742-1.106-1.237-1.55-.201-.181-.482-.239-.738-.154l-1.127.376c-.053-.027-.108-.053-.163-.079.001.001-.408-1.114-.408-1.114zm-1.25.947.363.992c.076.207.238.37.444.446.192.071.377.16.552.266.188.113.416.138.625.069l1.003-.335c.145.158.279.326.4.503.001 0-.548.904-.548.904-.115.187-.141.416-.072.624.064.195.11.395.136.597.029.218.151.413.336.532l.886.576c-.032.212-.08.421-.143.626 0 .001-1.048.135-1.048.135-.218.027-.413.149-.533.333-.112.171-.24.332-.382.479-.153.158-.228.375-.207.594l.103 1.052c-.186.107-.38.2-.579.279 0 0-.759-.736-.759-.736-.157-.153-.374-.23-.593-.209-.204.019-.409.019-.612 0-.219-.021-.436.056-.593.209l-.759.736c-.199-.079-.393-.172-.579-.279 0 0 .103-1.052.103-1.052.021-.219-.055-.436-.207-.594-.142-.147-.27-.308-.382-.479-.12-.184-.315-.306-.533-.333l-1.048-.134c-.063-.206-.111-.415-.144-.627 0 0 .887-.576.887-.576.184-.119.307-.314.335-.532.027-.202.073-.402.137-.597.069-.208.042-.437-.072-.624l-.549-.904c.122-.177.256-.345.401-.502 0-.001 1.003.334 1.003.334.208.069.437.044.625-.069.175-.106.36-.195.552-.266.206-.076.368-.239.444-.446l.363-.992c.215-.015.429-.015.643 0zm-.322 2.171c-1.279 0-2.318 1.038-2.318 2.317 0 1.28 1.039 2.318 2.318 2.318s2.318-1.038 2.318-2.318c0-1.279-1.039-2.317-2.318-2.317zm0 1.5c.451 0 .818.366.818.817 0 .452-.367.818-.818.818s-.818-.366-.818-.818c0-.451.367-.817.818-.817z"/></g></svg>