<svg clip-rule="evenodd" fill-rule="evenodd" height="512" stroke-linejoin="round" stroke-miterlimit="2" viewBox="0 0 24 24" width="512" xmlns="http://www.w3.org/2000/svg"><g id="Icon"><path d="m16.75 3.5c0-1.243-1.007-2.25-2.25-2.25h-11c-1.243 0-2.25 1.007-2.25 2.25v10c0 1.243 1.007 2.25 2.25 2.25h11c1.243 0 2.25-1.007 2.25-2.25 0-2.502 0-7.498 0-10zm-1.5 0v10c0 .414-.336.75-.75.75h-11c-.414 0-.75-.336-.75-.75 0-2.502 0-7.498 0-10 0-.414.336-.75.75-.75h11c.414 0 .75.336.75.75z"/><path d="m16 4.75h-14c-.414 0-.75.336-.75.75s.336.75.75.75h14c.414 0 .75-.336.75-.75s-.336-.75-.75-.75z"/><path d="m8.552 7.472-1.527 4.582c-.131.392.081.818.474.948.393.131.818-.081.949-.474l1.527-4.582c.131-.392-.081-.818-.474-.948-.393-.131-.818.081-.949.474z"/><path d="m10.442 9.003.997.997s-.997.997-.997.997c-.292.293-.292.768 0 1.061.293.292.768.292 1.061 0l1.527-1.528c.293-.293.293-.767 0-1.06l-1.527-1.528c-.293-.292-.768-.292-1.061 0-.292.293-.292.768 0 1.061z"/><path d="m5.497 7.942-1.527 1.528c-.293.293-.293.767 0 1.06l1.527 1.528c.293.292.768.292 1.061 0 .292-.293.292-.768 0-1.061l-.997-.997s.997-.997.997-.997c.292-.293.292-.768 0-1.061-.293-.292-.768-.292-1.061 0z"/><path d="m5.25 15v2.5c0 .597.237 1.169.659 1.591s.994.659 1.591.659h13c.597 0 1.169-.237 1.591-.659s.659-.994.659-1.591c0-2.101 0-5.899 0-8 0-1.243-1.007-2.25-2.25-2.25h-4.5c-.414 0-.75.336-.75.75s.336.75.75.75h4.5c.414 0 .75.336.75.75v8c0 .199-.079.39-.22.53-.14.141-.331.22-.53.22-3.051 0-9.949 0-13 0-.199 0-.39-.079-.53-.22-.141-.14-.22-.331-.22-.53v-2.5c0-.414-.336-.75-.75-.75s-.75.336-.75.75z"/><path d="m13.25 19v3c0 .414.336.75.75.75s.75-.336.75-.75v-3c0-.414-.336-.75-.75-.75s-.75.336-.75.75z"/><path d="m10 22.75h8c.414 0 .75-.336.75-.75s-.336-.75-.75-.75h-8c-.414 0-.75.336-.75.75s.336.75.75.75z"/></g></svg>