<svg clip-rule="evenodd" fill-rule="evenodd" stroke-linejoin="round" stroke-miterlimit="1.414" viewBox="0 0 32 32" xmlns="http://www.w3.org/2000/svg" xmlns:serif="http://www.serif.com/"><path id="bone-osteology-osteologist" d="m0 0h32v32h-32z" fill="none"/><path d="m24.206 17.032c.452.113.784.504.807.976.007.157.132.649.483.863.66.401 1.741-.256 1.477-1.143-.122-.411-.522-.712-.966-.715l-.097-.005c-.086-.013-.109-.014-.192-.039-.729-.226-.956-1.418-.18-1.838.324-.175.721-.084 1.024-.284.613-.403.536-1.57-.274-1.8-.573-.163-1.243.291-1.274.911-.014.274-.01.229-.044.34-.204.681-1.262.954-1.749.326-.595-.766-.033-2.156.855-2.907.959-.812 2.449-.928 3.526-.255 1.43.893 1.867 3.079.728 4.459-.095.115-.023.155-.023.155.799.956.921 2.402.293 3.465-.824 1.392-2.877 1.901-4.266.962-.529-.357-.935-.885-1.152-1.488h-14.357s-.2.52-.492.882c-.987 1.225-3.005 1.462-4.25.434-1.234-1.019-1.427-3.065-.336-4.309 0 0-.499-.628-.663-1.265-.373-1.457.531-3.132 1.982-3.603 1.459-.475 3.214.337 3.759 1.855h11.183c.857.041 1.385 1.301.541 1.843-.147.095-.231.144-.541.159h-12.013c-.527-.026-.974-.442-1.001-.994-.007-.158-.131-.65-.483-.863-.659-.401-1.742.25-1.478 1.141.121.408.514.711.955.716 0 0 .636.057.888.529.319.597-.152 1.439-.876 1.473-.157.008-.65.132-.863.483-.401.66.256 1.742 1.142 1.478.412-.123.713-.522.715-.966 0 0 .042-.452.296-.704.185-.184.441-.278.705-.291h16.017s.09.004.194.019z" fill-rule="nonzero"/></svg>