<svg clip-rule="evenodd" fill-rule="evenodd" height="512" stroke-linejoin="round" stroke-miterlimit="2" viewBox="0 0 24 24" width="512" xmlns="http://www.w3.org/2000/svg"><g id="Icon"><circle cx="12" cy="12" r=".75"/><circle cx="13.375" cy="9.75" r=".75"/><circle cx="13.375" cy="14.25" r=".75"/><circle cx="9.25" cy="12" r=".75"/><circle cx="10.625" cy="9.75" r=".75"/><circle cx="10.625" cy="14.25" r=".75"/><circle cx="14.75" cy="12" r=".75"/><path d="m12 6.25c-3.173 0-5.75 2.577-5.75 5.75 0 3.174 2.577 5.75 5.75 5.75s5.75-2.576 5.75-5.75c0-3.173-2.577-5.75-5.75-5.75zm0 1.5c2.346 0 4.25 1.905 4.25 4.25 0 2.346-1.904 4.25-4.25 4.25s-4.25-1.904-4.25-4.25c0-2.345 1.904-4.25 4.25-4.25z"/><path d="m11.39 6.659c-.225-.44-.354-1.023-.354-1.659 0-.509.225-.975.478-1.357.159-.239.332-.447.486-.613.154.166.327.374.486.613.253.382.478.848.478 1.357 0 .636-.129 1.219-.354 1.658-.189.369-.043.821.326 1.01.368.188.82.042 1.009-.326.318-.622.519-1.442.519-2.342 0-.815-.323-1.574-.728-2.186-.565-.852-1.273-1.404-1.273-1.404-.272-.213-.654-.213-.926 0 0 0-.708.552-1.273 1.404-.405.612-.728 1.371-.728 2.186 0 .9.201 1.72.519 2.342.189.369.641.515 1.01.326.368-.189.514-.641.325-1.009z"/><path d="m7.069 9.857c-.493-.025-1.062-.204-1.613-.522-.441-.255-.732-.683-.936-1.093-.128-.256-.221-.51-.288-.727.221-.05.487-.096.774-.114.457-.028.973.009 1.414.264.551.318.99.721 1.259 1.136.225.348.689.447 1.037.223.347-.225.447-.69.222-1.038-.379-.586-.989-1.17-1.768-1.62-.706-.408-1.525-.508-2.257-.462-1.021.063-1.853.4-1.853.4-.32.129-.511.46-.463.802 0 0 .124.889.58 1.805.327.656.823 1.315 1.529 1.723.779.45 1.59.686 2.288.721.413.021.766-.297.787-.711.021-.413-.298-.766-.712-.787z"/><path d="m6.659 12.61c-.44.225-1.023.354-1.659.354-.509 0-.975-.225-1.357-.478-.239-.159-.447-.332-.613-.486.166-.154.374-.327.613-.486.382-.253.848-.478 1.357-.478.636 0 1.219.129 1.658.354.369.189.821.043 1.01-.326.188-.368.042-.82-.326-1.009-.622-.318-1.442-.519-2.342-.519-.815 0-1.574.323-2.186.728-.852.565-1.404 1.273-1.404 1.273-.213.272-.213.654 0 .926 0 0 .552.708 1.404 1.273.612.405 1.371.728 2.186.728.9 0 1.72-.201 2.342-.519.369-.189.515-.641.326-1.01-.189-.368-.641-.514-1.009-.325z"/><path d="m7.679 15.199c-.268.414-.708.818-1.259 1.136-.441.255-.957.292-1.414.264-.287-.018-.553-.064-.774-.114.067-.217.16-.471.288-.727.204-.41.495-.838.936-1.093.551-.318 1.12-.497 1.613-.522.414-.021.732-.374.711-.787-.021-.414-.373-.732-.787-.711-.698.035-1.508.271-2.287.721-.706.408-1.202 1.067-1.529 1.723-.456.916-.58 1.805-.58 1.805-.048.342.143.673.463.802 0 0 .832.337 1.853.4.732.046 1.551-.054 2.257-.462.779-.45 1.389-1.034 1.768-1.621.225-.347.126-.812-.222-1.037s-.812-.125-1.037.223z"/><path d="m15.199 16.321c.414.268.818.708 1.136 1.259.255.441.292.957.264 1.414-.018.287-.064.553-.114.774-.217-.067-.471-.16-.727-.288-.41-.204-.838-.495-1.093-.936-.318-.551-.497-1.12-.522-1.613-.021-.414-.374-.732-.787-.711-.414.021-.732.373-.711.787.035.698.271 1.508.721 2.287.408.706 1.067 1.202 1.723 1.529.916.456 1.805.58 1.805.58.342.048.673-.143.802-.463 0 0 .337-.832.4-1.853.046-.732-.054-1.551-.462-2.257-.45-.779-1.034-1.389-1.621-1.768-.347-.225-.812-.126-1.037.222s-.125.812.223 1.037z"/><path d="m14.143 7.069c.025-.493.204-1.062.522-1.613.255-.441.683-.732 1.093-.936.256-.128.51-.221.727-.288.05.221.096.487.114.774.028.457-.009.973-.264 1.414-.318.551-.721.99-1.136 1.259-.348.225-.447.689-.223 1.037.225.347.69.447 1.038.222.586-.379 1.17-.989 1.62-1.768.408-.706.508-1.525.462-2.257-.063-1.021-.4-1.853-.4-1.853-.129-.32-.46-.511-.802-.463 0 0-.889.124-1.805.58-.656.327-1.315.823-1.723 1.529-.45.779-.686 1.59-.721 2.288-.021.413.297.766.711.787.413.021.766-.298.787-.712z"/><path d="m10.055 16.658c-.318.622-.519 1.442-.519 2.342 0 .815.323 1.574.728 2.186.565.852 1.273 1.404 1.273 1.404.272.213.654.213.926 0 0 0 .708-.552 1.273-1.404.405-.612.728-1.371.728-2.186 0-.9-.201-1.72-.519-2.342-.189-.368-.641-.514-1.009-.326-.369.189-.515.641-.326 1.01.225.439.354 1.022.354 1.658 0 .509-.225.975-.478 1.357-.159.239-.332.447-.486.613-.154-.166-.327-.374-.486-.613-.253-.382-.478-.848-.478-1.357 0-.636.129-1.219.354-1.659.189-.368.043-.82-.325-1.009-.369-.189-.821-.043-1.01.326z"/><path d="m15.062 16.013c.379.587.989 1.171 1.768 1.621.706.408 1.525.508 2.257.462 1.021-.063 1.853-.4 1.853-.4.32-.129.511-.46.463-.802 0 0-.124-.889-.58-1.805-.327-.656-.823-1.315-1.529-1.723-.779-.45-1.589-.686-2.287-.721-.414-.021-.766.297-.787.711-.021.413.297.766.711.787.493.025 1.062.204 1.613.522.441.255.732.683.936 1.093.128.256.221.51.288.727-.221.05-.487.096-.774.114-.457.028-.973-.009-1.414-.264-.551-.318-.991-.722-1.259-1.136-.225-.348-.689-.448-1.037-.223s-.447.69-.222 1.037z"/><path d="m16.658 13.945c.622.318 1.442.519 2.342.519.815 0 1.574-.323 2.186-.728.852-.565 1.404-1.273 1.404-1.273.213-.272.213-.654 0-.926 0 0-.552-.708-1.404-1.273-.612-.405-1.371-.728-2.186-.728-.9 0-1.72.201-2.342.519-.368.189-.514.641-.326 1.009.189.369.641.515 1.01.326.439-.225 1.022-.354 1.658-.354.509 0 .975.225 1.357.478.239.159.447.332.613.486-.166.154-.374.327-.613.486-.382.253-.848.478-1.357.478-.636 0-1.219-.129-1.659-.354-.368-.189-.82-.043-1.009.325-.189.369-.043.821.326 1.01z"/><path d="m17.006 11.355c.698-.035 1.509-.271 2.288-.721.706-.408 1.202-1.067 1.529-1.723.456-.916.58-1.805.58-1.805.048-.342-.143-.673-.463-.802 0 0-.832-.337-1.853-.4-.732-.046-1.551.054-2.257.462-.779.45-1.389 1.034-1.768 1.62-.225.348-.125.813.222 1.038.348.224.812.125 1.037-.223.269-.415.708-.818 1.259-1.136.441-.255.957-.292 1.414-.264.287.018.553.064.774.114-.067.217-.16.471-.288.727-.204.41-.495.838-.936 1.093-.551.318-1.12.497-1.613.522-.414.021-.733.374-.712.787.021.414.374.732.787.711z"/><path d="m11.355 6.994c-.035-.698-.271-1.509-.721-2.288-.408-.706-1.067-1.202-1.723-1.529-.916-.456-1.805-.58-1.805-.58-.342-.048-.673.143-.802.463 0 0-.337.832-.4 1.853-.046.732.054 1.551.462 2.257.45.779 1.034 1.389 1.62 1.768.348.225.813.125 1.038-.222.224-.348.125-.812-.223-1.037-.415-.269-.818-.708-1.136-1.259-.255-.441-.292-.957-.264-1.414.018-.287.064-.553.114-.774.217.067.471.16.727.288.41.204.838.495 1.093.936.318.551.497 1.12.522 1.613.021.414.374.733.787.712.414-.021.732-.374.711-.787z"/><path d="m7.987 15.062c-.587.379-1.171.989-1.621 1.768-.408.706-.508 1.525-.462 2.257.063 1.021.4 1.853.4 1.853.129.32.46.511.802.463 0 0 .889-.124 1.805-.58.656-.327 1.315-.823 1.723-1.529.45-.779.686-1.589.721-2.287.021-.414-.297-.766-.711-.787-.413-.021-.766.297-.787.711-.025.493-.204 1.062-.522 1.613-.255.441-.683.732-1.093.936-.256.128-.51.221-.727.288-.05-.221-.096-.487-.114-.774-.028-.457.009-.973.264-1.414.318-.551.722-.991 1.136-1.259.348-.225.448-.689.223-1.037s-.69-.447-1.037-.222z"/></g></svg>