<svg clip-rule="evenodd" fill-rule="evenodd" height="512" stroke-linejoin="round" stroke-miterlimit="2" viewBox="0 0 24 24" width="512" xmlns="http://www.w3.org/2000/svg"><g id="Icon"><path d="m19.302 9.244c.297.851.458 1.765.458 2.716 0 4.553-3.697 8.25-8.25 8.25s-8.25-3.697-8.25-8.25 3.697-8.25 8.25-8.25c.98 0 1.919.171 2.791.485.39.14.82-.062.96-.452.14-.389-.062-.819-.451-.959-1.031-.371-2.142-.574-3.3-.574-5.381 0-9.75 4.369-9.75 9.75s4.369 9.75 9.75 9.75 9.75-4.369 9.75-9.75c0-1.124-.191-2.205-.542-3.21-.136-.391-.564-.598-.955-.461-.391.136-.598.564-.461.955z"/><path d="m15.936 10.233c.209.536.324 1.118.324 1.727 0 2.622-2.128 4.75-4.75 4.75s-4.75-2.128-4.75-4.75c0-2.621 2.128-4.75 4.75-4.75.609 0 1.192.115 1.727.324.385.151.821-.04.971-.425.151-.386-.039-.821-.425-.972-.705-.275-1.471-.427-2.273-.427-3.45 0-6.25 2.801-6.25 6.25 0 3.45 2.8 6.25 6.25 6.25 3.449 0 6.25-2.8 6.25-6.25 0-.802-.152-1.568-.427-2.273-.151-.385-.586-.576-.972-.425-.385.15-.576.586-.425.971z"/><path d="m13.225 12.311c-.162.798-.869 1.399-1.715 1.399-.966 0-1.75-.784-1.75-1.75 0-.846.601-1.552 1.399-1.715.406-.082.668-.479.586-.884-.083-.406-.479-.668-.884-.586-1.483.302-2.601 1.614-2.601 3.185 0 1.794 1.456 3.25 3.25 3.25 1.571 0 2.883-1.118 3.185-2.6.082-.406-.18-.802-.586-.885-.405-.082-.802.18-.884.586z"/><path d="m16.219 19.876 1.667 2.5c.23.345.696.438 1.04.208.344-.229.438-.695.208-1.04l-1.667-2.5c-.229-.344-.695-.437-1.04-.208-.344.23-.437.696-.208 1.04z"/><path d="m5.553 19.044-1.667 2.5c-.23.345-.136.811.208 1.04.344.23.81.137 1.04-.208l1.667-2.5c.229-.344.136-.81-.208-1.04-.345-.229-.811-.136-1.04.208z"/><path d="m12.04 12.51 6.091-6.091c.293-.292.293-.768 0-1.06-.292-.293-.768-.293-1.06 0l-6.091 6.091c-.293.292-.293.768 0 1.06.292.293.768.293 1.06 0z"/><path d="m22.02 4.652c.196-.196.268-.483.188-.748s-.3-.464-.571-.518l-1.277-.256s-.256-1.277-.256-1.277c-.054-.271-.253-.491-.518-.571s-.552-.008-.748.188l-2.121 2.121c-.177.177-.254.432-.205.677l.354 1.768c.059.297.291.529.588.589l1.768.353c.246.049.5-.028.677-.205zm-2.051-.07-.847.846s-.884-.176-.884-.176-.176-.884-.176-.884.846-.847.846-.847.079.394.079.394c.059.297.291.529.588.588z"/></g></svg>