<svg clip-rule="evenodd" fill-rule="evenodd" height="512" stroke-linejoin="round" stroke-miterlimit="2" viewBox="0 0 24 24" width="512" xmlns="http://www.w3.org/2000/svg"><g id="Icon"><circle cx="12" cy="19.75" r=".75"/><path d="m16.75 5.5c0-.414-.336-.75-.75-.75h-8c-.414 0-.75.336-.75.75v2.5c0 2.623 2.127 4.75 4.75 4.75 2.623 0 4.75-2.127 4.75-4.75 0-1.34 0-2.5 0-2.5zm-4.75 5.75c-1.795 0-3.25-1.455-3.25-3.25v-1.75h6.5v1.75c0 1.795-1.455 3.25-3.25 3.25z"/><path d="m19.25 21c0-.874 0-2.203 0-3.5 0-2.623-2.127-4.75-4.75-4.75-1.588 0-3.412 0-5 0-2.623 0-4.75 2.127-4.75 4.75v3.5c0 .966.783 1.75 1.75 1.75h11c.967 0 1.75-.784 1.75-1.75zm-1.5 0c0 .138-.112.25-.25.25h-11c-.138 0-.25-.112-.25-.25v-3.5c0-1.795 1.455-3.25 3.25-3.25h5c1.795 0 3.25 1.455 3.25 3.25z"/><path d="m14.5 22.75c.414 0 .75-.336.75-.75v-4.5c0-.414-.336-.75-.75-.75h-5c-.414 0-.75.336-.75.75v4.5c0 .414.336.75.75.75zm-.75-1.5h-3.5v-3h3.5z"/><path d="m16 6.25c.235 0 .457-.11.599-.298.141-.188.187-.432.122-.658 0 0-.31-1.087-.585-2.049-.338-1.181-1.417-1.995-2.645-1.995-.912 0-2.07 0-2.982 0-1.228 0-2.307.814-2.645 1.995-.275.962-.585 2.049-.585 2.049-.065.226-.019.47.122.658.142.188.364.298.599.298zm-.994-1.5h-6.012l.313-1.093c.153-.537.644-.907 1.202-.907h2.982c.558 0 1.049.37 1.202.907z"/><path d="m17.5 4.75h-11c-.414 0-.75.336-.75.75s.336.75.75.75h11c.414 0 .75-.336.75-.75s-.336-.75-.75-.75z"/><path d="m15.124 17.916 2-3c.23-.344.136-.81-.208-1.04s-.81-.136-1.04.208l-2 3c-.23.344-.136.81.208 1.04s.81.136 1.04-.208z"/><path d="m10.124 17.084-2-3c-.23-.344-.696-.438-1.04-.208s-.438.696-.208 1.04l2 3c.23.344.696.438 1.04.208s.438-.696.208-1.04z"/><path d="m12.75 17.5v-1.5c0-.414-.336-.75-.75-.75s-.75.336-.75.75v1.5c0 .414.336.75.75.75s.75-.336.75-.75z"/></g></svg>