<svg clip-rule="evenodd" fill-rule="evenodd" height="512" stroke-linejoin="round" stroke-miterlimit="2" viewBox="0 0 24 24" width="512" xmlns="http://www.w3.org/2000/svg"><g id="Icon"><path d="m11.836 5.75c-3.45 0-6.25 2.801-6.25 6.25 0 2.113 1.05 3.982 2.657 5.113.338.239.806.157 1.045-.181.238-.339.157-.807-.182-1.045-1.221-.86-2.02-2.281-2.02-3.887 0-2.622 2.128-4.75 4.75-4.75.414 0 .75-.336.75-.75s-.336-.75-.75-.75z"/><path d="m12.238 18.237c3.262-.208 5.848-2.923 5.848-6.237 0-1.904-.854-3.611-2.199-4.758-.315-.268-.789-.231-1.057.084-.269.315-.231.789.084 1.058 1.023.871 1.672 2.168 1.672 3.616 0 2.519-1.965 4.582-4.444 4.74-.413.027-.727.383-.7.796.026.414.383.728.796.701z"/><path d="m17.664 6.75h-2.828c-.414 0-.75.336-.75.75v2.828c0 .414.336.75.75.75s.75-.336.75-.75v-2.078h2.078c.414 0 .75-.336.75-.75s-.336-.75-.75-.75z"/><path d="m6.336 17.75h2.828c.414 0 .75-.336.75-.75v-2.828c0-.414-.336-.75-.75-.75s-.75.336-.75.75v2.078h-2.078c-.414 0-.75.336-.75.75s.336.75.75.75z"/><path d="m22.75 5c0-2.071-1.679-3.75-3.75-3.75h-14c-2.071 0-3.75 1.679-3.75 3.75v14c0 2.071 1.679 3.75 3.75 3.75h14c2.071 0 3.75-1.679 3.75-3.75zm-1.5 0v14c0 1.243-1.007 2.25-2.25 2.25h-14c-1.243 0-2.25-1.007-2.25-2.25v-14c0-1.243 1.007-2.25 2.25-2.25h14c1.243 0 2.25 1.007 2.25 2.25z"/></g></svg>