<svg clip-rule="evenodd" fill-rule="evenodd" stroke-linejoin="round" stroke-miterlimit="2" viewBox="0 0 32 32" xmlns="http://www.w3.org/2000/svg" xmlns:serif="http://www.serif.com/"><path id="phone-book-contact-list" d="m0 0h32v32h-32z" fill="none"/><path d="m23.921 26.641c-.313 1.277-1.487 2.312-2.877 2.337-4.683.029-9.367.029-14.051 0-1.541-.028-2.927-1.338-2.957-2.957-.042-6.68-.042-13.361 0-20.041.028-1.546 1.364-2.928 2.957-2.958 4.684-.029 9.369-.03 14.053 0 1.337.025 2.558 1.021 2.876 2.338l3.522 1.761c.334.179.539.438.552.892v3.994c-.005.17-.017.198-.038.273-.076.266-.268.488-.514.62l-3.442 1.72c.001 1.252.004 2.504.006 3.755l1.991-.995.001-1.419c.009-.163.027-.216.062-.311.148-.395.554-.664.995-.646.162.013.214.031.308.068.368.146.622.522.631.928v1.997c-.003.128-.011.164-.028.235-.069.285-.217.496-.524.658l-3.432 1.716c.002 1.253.002 2.506-.002 3.759l1.989-.995.001-1.419c.009-.163.027-.215.062-.31.148-.396.554-.665.995-.647.517.041.927.436.939.996v1.997c-.003.128-.011.164-.028.235-.069.285-.217.496-.524.658zm.081-19.009v2.378c-.037.772-1.016 1.306-1.652.755-.21-.182-.324-.329-.345-.755 0-1.34.026-2.68 0-4.019-.016-.509-.461-.956-.972-.972-4.675-.089-9.352-.087-14.027 0-.511.016-.964.466-.974.985-.041 6.668-.124 13.338 0 20.004.016.511.467.964.986.974 4.671.029 9.343.087 14.014 0 .511-.016.964-.467.973-.986v-11.992s.015-.059.049-.148c.031-.287.175-.559.454-.719.016-.009.033-.018.049-.026l3.442-1.721v-2.759zm-12.541 10.344c-1.014-.898-1.624-2.279-1.373-3.68.321-1.798 1.988-3.251 3.879-3.287.052-.001.052-.001.103 0 2.252.043 4.227 2.237 3.903 4.55-.133.95-.652 1.817-1.379 2.442.849.737 1.411 1.812 1.418 2.988 0 0-.379 1.254-1.307.952-.396-.128-.678-.515-.69-.949-.002-.107-.003-.115-.005-.155-.116-1.396-1.958-2.363-3.185-1.446-.495.37-.798.97-.803 1.604-.001.082.038-.035-.029.236-.231.938-2.034.975-1.962-.444.055-1.085.605-2.104 1.43-2.811zm2.532-4.971c-1.323.026-2.387 1.591-1.774 2.861.703 1.459 3.474 1.398 3.773-.559.175-1.139-.76-2.309-1.999-2.302z"/></svg>