<svg clip-rule="evenodd" fill-rule="evenodd" height="512" stroke-linejoin="round" stroke-miterlimit="2" viewBox="0 0 24 24" width="512" xmlns="http://www.w3.org/2000/svg"><g id="Icon"><path d="m22.75 12c0-.604-.382-1.173-.953-1.673-.291-.256-.627-.501-.912-.752-.169-.149-.334-.281-.385-.446-.055-.18 0-.403.055-.642.087-.38.219-.784.311-1.165.181-.752.166-1.438-.16-1.907-.339-.488-.977-.72-1.739-.774-.375-.026-.783-.019-1.155-.049-.214-.017-.416-.022-.548-.123 0 0 0-.001-.001-.001-.137-.104-.205-.31-.29-.528-.141-.361-.26-.771-.401-1.138-.279-.733-.693-1.29-1.239-1.476-.541-.184-1.194.014-1.844.445-.316.209-.64.465-.959.668-.188.12-.359.241-.53.241s-.342-.121-.53-.241c-.319-.203-.643-.459-.959-.668-.65-.431-1.303-.629-1.844-.445-.546.186-.96.743-1.239 1.476-.141.367-.26.777-.401 1.138-.085.218-.153.424-.29.528-.001 0-.001.001-.001.001-.132.101-.334.106-.548.123-.372.03-.779.023-1.155.049-.762.053-1.4.285-1.739.773-.326.469-.341 1.156-.16 1.908.092.381.224.785.311 1.165.055.239.11.462.055.642-.051.165-.216.297-.385.446-.285.251-.621.496-.912.752-.571.5-.953 1.069-.953 1.673s.382 1.173.953 1.673c.291.255.627.501.912.752.169.149.334.281.385.446.055.18 0 .403-.055.642-.087.38-.219.784-.311 1.165-.181.752-.166 1.438.16 1.907.339.488.977.72 1.739.774.375.026.783.019 1.155.049.214.017.416.022.548.123 0 0 0 .001.001.001.137.104.205.31.29.528.141.361.26.771.401 1.138.279.732.693 1.29 1.239 1.476.541.184 1.194-.014 1.844-.445.316-.209.64-.465.959-.668.188-.12.359-.241.53-.241s.342.121.53.241c.319.203.643.459.959.668.65.431 1.303.629 1.844.445.546-.186.96-.744 1.239-1.476.141-.367.26-.777.401-1.138.085-.218.153-.424.29-.528.001 0 .001-.001.001-.001.132-.101.334-.106.548-.123.372-.03.779-.023 1.155-.049.762-.053 1.4-.285 1.739-.773.326-.47.341-1.156.16-1.908-.092-.381-.224-.785-.311-1.165-.055-.239-.11-.462-.055-.642.051-.165.216-.297.385-.446.285-.251.621-.497.912-.752.571-.5.953-1.069.953-1.673zm-13.612-9.249c.018.004.073.015.106.027.058.022.118.051.179.085.182.099.369.231.559.367.356.255.719.521 1.068.696.325.164.647.254.95.254s.625-.09.95-.254c.349-.175.712-.441 1.068-.696.19-.136.377-.268.559-.367.061-.034.121-.063.179-.085.033-.012.088-.023.106-.027.06.029.084.107.125.18.123.215.217.485.31.76.143.421.283.854.458 1.203.164.326.366.589.599.767.24.183.548.305.902.371.376.069.818.076 1.249.089.228.007.452.016.654.049.127.021.254.013.315.101.047.067.022.158.014.256-.022.249-.098.526-.177.808-.225.807-.426 1.647-.243 2.238.178.576.816 1.128 1.461 1.648.218.176.431.351.587.54.065.079.134.149.134.239s-.069.16-.134.239c-.156.189-.369.364-.587.54-.645.52-1.283 1.072-1.461 1.648-.183.59.018 1.431.243 2.238.079.282.155.559.177.809.008.098.033.189-.014.256-.061.088-.188.08-.315.1-.202.033-.426.042-.654.049-.431.013-.873.02-1.249.089-.354.066-.662.188-.902.37-.233.178-.435.442-.599.768-.175.349-.315.782-.458 1.203-.093.275-.187.545-.31.76-.041.073-.065.151-.125.18-.018-.004-.073-.015-.106-.027-.058-.022-.118-.052-.179-.085-.182-.099-.369-.231-.559-.367-.356-.255-.719-.521-1.068-.696-.325-.164-.647-.254-.95-.254s-.625.09-.95.254c-.349.175-.712.441-1.068.696-.19.136-.377.268-.559.367-.061.033-.121.063-.179.085-.033.012-.088.023-.106.027-.06-.029-.084-.107-.125-.18-.123-.215-.217-.485-.31-.76-.143-.421-.283-.854-.458-1.203-.164-.326-.366-.59-.599-.768-.24-.182-.548-.304-.902-.37-.376-.069-.818-.076-1.249-.089-.228-.007-.452-.016-.654-.049-.127-.021-.254-.013-.315-.101-.047-.067-.022-.158-.014-.256.022-.249.098-.526.177-.808.225-.807.426-1.648.243-2.238-.178-.576-.816-1.128-1.461-1.648-.218-.176-.431-.351-.587-.54-.065-.079-.134-.149-.134-.239s.069-.16.134-.239c.156-.189.369-.364.587-.54.645-.52 1.283-1.072 1.461-1.648.183-.591-.018-1.431-.243-2.238-.079-.282-.155-.559-.177-.809-.008-.098-.033-.189.014-.256.061-.088.188-.08.315-.1.202-.033.426-.042.654-.049.431-.013.873-.02 1.249-.089.354-.066.662-.188.902-.371.233-.178.435-.441.599-.767.175-.349.315-.782.458-1.203.093-.275.187-.545.31-.76.041-.073.065-.151.125-.18z"/><path d="m8.47 12.53 2 2c.293.293.767.293 1.06 0l4-4c.293-.292.293-.768 0-1.06-.292-.293-.768-.293-1.06 0l-3.47 3.469s-1.47-1.469-1.47-1.469c-.292-.293-.768-.293-1.06 0-.293.292-.293.768 0 1.06z"/></g></svg>