<svg clip-rule="evenodd" fill-rule="evenodd" height="512" stroke-linejoin="round" stroke-miterlimit="2" viewBox="0 0 24 24" width="512" xmlns="http://www.w3.org/2000/svg"><g id="Icon"><path d="m19 16.22c1.518 0 2.75-1.232 2.75-2.75v-4c0-1.518-1.232-2.75-2.75-2.75h-14c-1.518 0-2.75 1.232-2.75 2.75v4c0 1.518 1.232 2.75 2.75 2.75zm0-1.5h-14c-.69 0-1.25-.56-1.25-1.25v-4c0-.69.56-1.25 1.25-1.25h14c.69 0 1.25.56 1.25 1.25v4c0 .69-.56 1.25-1.25 1.25z"/><path d="m5.5 10.72h2c.414 0 .75-.336.75-.75 0-.413-.336-.75-.75-.75h-2c-.414 0-.75.337-.75.75 0 .414.336.75.75.75z"/><path d="m4.75 15.47v1.53c0 3.176 2.574 5.75 5.75 5.75h3c3.176 0 5.75-2.574 5.75-5.75 0-.885 0-1.53 0-1.53 0-.413-.336-.75-.75-.75s-.75.337-.75.75v1.53c0 2.347-1.903 4.25-4.25 4.25h-3c-2.347 0-4.25-1.903-4.25-4.25 0-.885 0-1.53 0-1.53 0-.413-.336-.75-.75-.75s-.75.337-.75.75z"/><path d="m9.348 19.166c.703.703 1.656 1.098 2.65 1.098h.002c.97 0 1.854-.369 2.52-.974.307-.278.33-.753.051-1.059-.278-.306-.753-.329-1.059-.051-.4.363-.93.584-1.512.584h-.002c-.596 0-1.168-.237-1.59-.659-.292-.292-.768-.292-1.06 0-.293.293-.293.768 0 1.061z"/><path d="m5.461 8.219.039.001.032-.003c.144-.019.718-.135.718-.752 0-.031 0-.202 0-.465 0-2.347 1.903-4.25 4.25-4.25h3c2.347 0 4.25 1.903 4.25 4.25v.47c0 .017.001.034.002.051v.008l.002.023c.018.188.093.324.19.421.137.152.335.247.556.247 0 0 .75-.05.75-.755v-.465c0-3.176-2.574-5.75-5.75-5.75h-3c-3.176 0-5.75 2.574-5.75 5.75v.47c0 .017.001.034.002.051v.008l.002.023c.018.188.093.324.19.421.129.143.312.236.517.246z"/></g></svg>