<svg clip-rule="evenodd" fill-rule="evenodd" stroke-linejoin="round" stroke-miterlimit="1.414" viewBox="0 0 32 32" xmlns="http://www.w3.org/2000/svg" xmlns:serif="http://www.serif.com/"><path id="comment-message-chatting-texting" d="m0 0h32v32h-32z" fill="none"/><path d="m16.077 2.999c3.024.021 6.091.815 8.611 2.554 2.818 1.944 4.932 5.312 4.147 8.897-.515 2.351-1.977 4.367-3.904 5.986-1.689 1.42-3.547 2.649-5.086 4.222-1.145 1.17-2.133 2.484-2.999 3.882 0 0-.037.087-.183.219-.4.358-1.092.318-1.444-.114-.293-.36-.252-.876.013-1.3 1.679-2.685 3.89-4.944 6.431-6.89 1.477-1.129 3.043-2.187 4.081-3.767 1.241-1.887 1.688-4.256.585-6.429-1.441-2.841-4.596-4.489-7.795-5.043-3.857-.669-8.069.087-11.047 2.727-1.464 1.299-2.532 3.156-2.498 5.161.04 2.364 1.637 4.516 3.645 5.837 2.154 1.417 4.788 2.062 7.363 2.068 0 0 .094-.014.282.042.693.205.948 1.266.333 1.747-.4.313-1.014.218-1.597.185-5.021-.287-10.243-2.863-11.695-7.713-.668-2.233-.274-4.726 1.029-6.737 2.47-3.813 7.395-5.544 11.728-5.534zm3.92 10.006c-.552 0-1 .448-1 1s.448 1.001 1 1.001c.553 0 1.001-.449 1.001-1.001s-.448-1-1.001-1zm-4.002 0c-.552 0-1.001.448-1.001 1s.449 1.001 1.001 1.001 1.001-.449 1.001-1.001-.449-1-1.001-1zm-4.002 0c-.553 0-1.001.448-1.001 1s.448 1.001 1.001 1.001c.552 0 1-.449 1-1.001s-.448-1-1-1z" fill-rule="nonzero"/></svg>