<svg clip-rule="evenodd" fill-rule="evenodd" height="512" stroke-linejoin="round" stroke-miterlimit="2" viewBox="0 0 24 24" width="512" xmlns="http://www.w3.org/2000/svg"><g id="Icon"><path d="m17.75 9.375c0-1.173-.952-2.125-2.125-2.125s-2.125.952-2.125 2.125.952 2.125 2.125 2.125 2.125-.952 2.125-2.125zm-1.5 0c0 .345-.28.625-.625.625s-.625-.28-.625-.625.28-.625.625-.625.625.28.625.625z"/><path d="m10.5 18.125c0-1.173-.952-2.125-2.125-2.125s-2.125.952-2.125 2.125.952 2.125 2.125 2.125 2.125-.952 2.125-2.125zm-1.5 0c0 .345-.28.625-.625.625s-.625-.28-.625-.625.28-.625.625-.625.625.28.625.625z"/><path d="m7.75 16.5v.25c0 .016.001.032.002.048.011.219.099.37.21.474.136.141.327.228.538.228 0 0 .75-.048.75-.753v-.247c0-1.243 1.007-2.25 2.25-2.25h1.375c.928 0 1.818-.369 2.475-1.025.656-.656 1.025-1.547 1.025-2.475 0-.414-.336-.75-.75-.75s-.75.336-.75.75c0 .53-.211 1.039-.586 1.414s-.884.586-1.414.586h-1.375c-2.071 0-3.75 1.679-3.75 3.75z"/><path d="m6.47 8.53 1.833 1.833c.292.293.768.293 1.06 0 .293-.292.293-.768 0-1.06l-1.833-1.833c-.292-.293-.768-.293-1.06 0-.293.292-.293.768 0 1.06z"/><path d="m8.303 7.47-1.833 1.833c-.293.292-.293.768 0 1.06.292.293.768.293 1.06 0l1.833-1.833c.293-.292.293-.768 0-1.06-.292-.293-.768-.293-1.06 0z"/><path d="m14.637 17.697 1.833 1.833c.292.293.768.293 1.06 0 .293-.292.293-.768 0-1.06l-1.833-1.833c-.292-.293-.768-.293-1.06 0-.293.292-.293.768 0 1.06z"/><path d="m16.47 16.637-1.833 1.833c-.293.292-.293.768 0 1.06.292.293.768.293 1.06 0l1.833-1.833c.293-.292.293-.768 0-1.06-.292-.293-.768-.293-1.06 0z"/><path d="m16.75 4v-1c0-.967-.784-1.75-1.75-1.75h-6c-.966 0-1.75.783-1.75 1.75v1c0 .967.784 1.75 1.75 1.75h6c.966 0 1.75-.783 1.75-1.75zm-1.5-1v1c0 .138-.112.25-.25.25h-6c-.138 0-.25-.112-.25-.25v-1c0-.138.112-.25.25-.25h6c.138 0 .25.112.25.25z"/><path d="m8 2.75h-2c-1.519 0-2.75 1.231-2.75 2.75v14.5c0 1.519 1.231 2.75 2.75 2.75h12c1.519 0 2.75-1.231 2.75-2.75v-14.5c0-1.519-1.231-2.75-2.75-2.75-1 0-2 0-2 0-.414 0-.75.336-.75.75s.336.75.75.75h2c.69 0 1.25.56 1.25 1.25v14.5c0 .69-.56 1.25-1.25 1.25h-12c-.69 0-1.25-.56-1.25-1.25v-14.5c0-.69.56-1.25 1.25-1.25h2c.414 0 .75-.336.75-.75s-.336-.75-.75-.75z"/></g></svg>