<svg clip-rule="evenodd" fill-rule="evenodd" stroke-linejoin="round" stroke-miterlimit="2" viewBox="0 0 32 32" xmlns="http://www.w3.org/2000/svg" xmlns:serif="http://www.serif.com/"><path id="bell-alarm-fire" d="m0 0h32v32h-32z" fill="none"/><path d="m18.004 19.967c-2.261 1.126-4.989 1.37-7.46.342-2.872-1.195-5.027-3.97-5.46-7.054-.531-3.797 1.659-7.827 5.159-9.437 1.19-.547 2.492-.822 3.81-.818 3.274.031 6.459 1.982 7.955 4.902 1.261 2.46 1.296 5.51.097 7.997-.505 1.046-1.229 1.97-2.101 2.732v4.273c2.708-.501 4.98-2.975 4.989-5.909v-4.997c.007-.21.026-.244.058-.335.122-.343.442-.605.806-.655.13-.018.162-.009.204-.007.209.021.242.042.33.08.354.154.588.525.602.917 0 1.684.005 3.367-.001 5.051-.036 3.812-3.087 7.338-6.988 7.876v1.073c-.01 1.552-1.344 2.966-2.961 2.996-2.02.013-4.04.001-6.06.001-1.566-.01-2.986-1.349-2.996-2.997v-4.002c.027-.868 1.435-1.423 1.904-.426.059.125.088.195.096.426 0 1.342-.026 2.684 0 4.025.016.514.469.964.986.974 2.019.013 4.039.038 6.058 0 .516-.017.97-.464.973-1.003zm-4.054-14.967c-3.192.03-6.17 2.457-6.811 5.588-.468 2.286.297 4.784 1.968 6.417 1.932 1.886 4.996 2.511 7.532 1.474 2.95-1.206 4.821-4.614 4.238-7.763-.58-3.13-3.511-5.643-6.746-5.715-.06-.001-.121-.002-.181-.001zm.084 3.98c1.985.037 3.619 2.384 2.681 4.327-.659 1.367-2.449 2.063-3.861 1.486-1.521-.622-2.318-2.618-1.563-4.137.49-.985 1.541-1.655 2.666-1.676.038-.001.038-.001.077 0zm-.052 1.999c-.878.017-1.438 1.511-.383 1.958.735.311 1.739-.554 1.304-1.402-.172-.336-.538-.558-.921-.556z"/></svg>