<svg clip-rule="evenodd" fill-rule="evenodd" height="512" stroke-linejoin="round" stroke-miterlimit="2" viewBox="0 0 24 24" width="512" xmlns="http://www.w3.org/2000/svg"><g id="Icon"><path d="m22.75 16.5v-1.161c0-.512-.311-.971-.786-1.161l-4.314-1.726c-.417-.167-.883-.167-1.3 0l-4.314 1.726c-.475.19-.786.649-.786 1.161v1.161c0 .331.132.649.366.884.235.234.552.366.884.366h9c.332 0 .649-.132.884-.366.234-.235.366-.553.366-.884zm-1.5-.992v.742h-8.5v-.742l4.157-1.663c.06-.024.126-.024.186 0z"/><path d="m21.75 22v-5c0-.414-.336-.75-.75-.75s-.75.336-.75.75v5c0 .414.336.75.75.75s.75-.336.75-.75z"/><path d="m12 22.75h10c.414 0 .75-.336.75-.75s-.336-.75-.75-.75h-10c-.414 0-.75.336-.75.75s.336.75.75.75z"/><path d="m13.75 22v-5c0-.414-.336-.75-.75-.75s-.75.336-.75.75v5c0 .414.336.75.75.75s.75-.336.75-.75z"/><path d="m17.75 22v-5c0-.414-.336-.75-.75-.75s-.75.336-.75.75v5c0 .414.336.75.75.75s.75-.336.75-.75z"/><circle cx="5" cy="4.5" r=".75"/><circle cx="7.5" cy="4.5" r=".75"/><circle cx="10" cy="4.5" r=".75"/><path d="m22.75 12v-7.5c0-1.795-1.455-3.25-3.25-3.25-3.842 0-11.158 0-15 0-1.795 0-3.25 1.455-3.25 3.25v15c0 1.795 1.455 3.25 3.25 3.25h4.5c.414 0 .75-.336.75-.75s-.336-.75-.75-.75c0 0-2.49 0-4.5 0-.966 0-1.75-.783-1.75-1.75v-15c0-.967.783-1.75 1.75-1.75h15c.967 0 1.75.783 1.75 1.75v7.5c0 .414.336.75.75.75s.75-.336.75-.75z"/><path d="m22 6.25h-20c-.414 0-.75.336-.75.75s.336.75.75.75h20c.414 0 .75-.336.75-.75s-.336-.75-.75-.75z"/></g></svg>