<svg clip-rule="evenodd" fill-rule="evenodd" height="512" stroke-linejoin="round" stroke-miterlimit="2" viewBox="0 0 24 24" width="512" xmlns="http://www.w3.org/2000/svg"><g id="Icon"><path d="m6 11.75c-2.622 0-4.75 2.128-4.75 4.75s2.128 4.75 4.75 4.75 4.75-2.128 4.75-4.75-2.128-4.75-4.75-4.75zm0 1.5c1.794 0 3.25 1.456 3.25 3.25s-1.456 3.25-3.25 3.25-3.25-1.456-3.25-3.25 1.456-3.25 3.25-3.25z"/><circle cx="6" cy="16.5" r="1.5"/><path d="m19 13.75c-2.07 0-3.75 1.68-3.75 3.75s1.68 3.75 3.75 3.75 3.75-1.68 3.75-3.75-1.68-3.75-3.75-3.75zm0 1.5c1.242 0 2.25 1.008 2.25 2.25s-1.008 2.25-2.25 2.25-2.25-1.008-2.25-2.25 1.008-2.25 2.25-2.25z"/><path d="m2.462 11.968c.976-.763 2.204-1.218 3.538-1.218 3.174 0 5.75 2.576 5.75 5.75 0 .414.336.75.75.75s.75-.336.75-.75c0-4.001-3.249-7.25-7.25-7.25-1.682 0-3.231.574-4.462 1.537-.326.255-.384.727-.129 1.053s.727.383 1.053.128z"/><path d="m19.75 11.19v3.31c0 .414.336.75.75.75s.75-.336.75-.75c0 0 0-2.489 0-3.54 0-.65-.498-1.192-1.146-1.246l-4.961-.413c-.09-.007-.168-.063-.206-.144l-2.756-5.971c-.123-.266-.388-.436-.681-.436h-7.5c-.414 0-.75.336-.75.75v6.5c0 .414.336.75.75.75s.75-.336.75-.75v-5.75h6.27s2.555 5.535 2.555 5.535c.264.572.815.958 1.443 1.011z"/><path d="m16 15.75h-3.5c-.414 0-.75.336-.75.75s.336.75.75.75h3.5c.414 0 .75-.336.75-.75s-.336-.75-.75-.75z"/><path d="m13.5 2.75h-11c-.414 0-.75.336-.75.75s.336.75.75.75h11c.414 0 .75-.336.75-.75s-.336-.75-.75-.75z"/><path d="m6 10.75h9c.414 0 .75-.336.75-.75s-.336-.75-.75-.75h-9c-.414 0-.75.336-.75.75s.336.75.75.75z"/><path d="m18.75 10v-2.086c0-.066.026-.13.073-.177 0 0 .707-.707.707-.707.293-.292.293-.768 0-1.06-.292-.293-.768-.293-1.06 0l-.707.707c-.329.328-.513.773-.513 1.237v2.086c0 .414.336.75.75.75s.75-.336.75-.75z"/></g></svg>