<svg clip-rule="evenodd" fill-rule="evenodd" stroke-linejoin="round" stroke-miterlimit="1.414" viewBox="0 0 32 32" xmlns="http://www.w3.org/2000/svg" xmlns:serif="http://www.serif.com/"><path id="tag-sale-discount-promo" d="m0 0h32v32h-32z" fill="none"/><path d="m14.13 2.986c.773.014 1.532.332 2.083.877l12.515 12.514c.361.396.364 1.016 0 1.415l-10.915 10.915c-.479.435-.795.328-1.058.23-.616-.23-.832-1.123-.357-1.645l10.207-10.207c-3.94-3.941-7.809-7.956-11.822-11.823-.181-.169-.42-.267-.665-.275-2.288-.043-4.578-.015-6.866 0-1.168.022-2.214 1.024-2.244 2.229-.029 2.294-.043 4.588 0 6.881.008.256.114.503.295.685l9.417 9.418c.524.576.183 1.647-.636 1.705-.278.02-.463-.003-.779-.29-3.149-3.149-6.317-6.278-9.446-9.446-.53-.551-.838-1.294-.853-2.059-.014-2.292 0-4.585 0-6.877.028-2.215 1.923-4.204 4.221-4.247 2.301-.015 4.602-.015 6.903 0zm-4.081 4.002c1.974.038 3.598 2.371 2.666 4.303-.655 1.36-2.436 2.052-3.84 1.478-1.512-.619-2.305-2.603-1.554-4.114.487-.98 1.532-1.646 2.651-1.667zm-.052 2.001c-.861.016-1.412 1.484-.375 1.923.732.31 1.737-.585 1.257-1.419-.177-.307-.518-.506-.882-.504z" fill-rule="nonzero"/></svg>