<svg clip-rule="evenodd" fill-rule="evenodd" height="512" stroke-linejoin="round" stroke-miterlimit="2" viewBox="0 0 24 24" width="512" xmlns="http://www.w3.org/2000/svg"><g id="Icon"><path d="m16.301 16.039c.941.21 1.89-.317 2.211-1.226.879-2.491 3.219-9.121 4.162-11.793.17-.482.049-1.019-.313-1.381s-.899-.483-1.381-.313c-2.672.943-9.302 3.283-11.793 4.162-.909.321-1.436 1.27-1.226 2.211.334 1.506.96 4.32 1.253 5.64.16.722.725 1.287 1.447 1.447zm4.839-13.179-4.042 11.454c-.069.193-.271.306-.472.261l-5.639-1.253c-.154-.034-.275-.155-.309-.309l-1.253-5.639c-.045-.201.068-.403.261-.472z"/><path d="m12.437 10.502-4.497 4.497c-.293.293-.293.768 0 1.061s.768.293 1.061 0l4.497-4.497c.292-.293.292-.768 0-1.061-.293-.292-.768-.292-1.061 0z"/><path d="m5.322 22.192 4.496-4.497c.519-.519.519-1.36 0-1.878-.453-.454-1.181-1.182-1.635-1.635-.518-.519-1.359-.519-1.878 0l-4.497 4.496c-.744.745-.744 1.952 0 2.696l.818.818c.744.744 1.951.744 2.696 0zm1.922-6.828 1.392 1.392-4.375 4.375c-.159.159-.416.159-.574 0 0 0-.818-.818-.818-.818-.159-.158-.159-.415 0-.574z"/></g></svg>