<svg height="512" viewBox="0 0 32 32" width="512" xmlns="http://www.w3.org/2000/svg"><g id="youtube_youtuber_video_play" data-name="youtube, youtuber, video, play"><path d="m30 12a5.71 5.71 0 0 0 -5.31-5.7c-5.77-.3-11.63-.3-17.36-.02-2.82 0-5.33 2.72-5.33 5.72a43.69 43.69 0 0 0 0 8.72 5.32 5.32 0 0 0 5.28 5.33q4.35.24 8.72.24t8.67-.23a5.34 5.34 0 0 0 5.33-5.26 31.67 31.67 0 0 0 0-8.8zm-2 8.63a.49.49 0 0 0 0 .12 3.36 3.36 0 0 1 -3.39 3.34 166 166 0 0 1 -17.28 0 3.36 3.36 0 0 1 -3.33-3.44 42 42 0 0 1 0-8.47.45.45 0 0 0 0-.11 3.78 3.78 0 0 1 3.38-3.79c2.86-.13 5.74-.19 8.62-.19s5.76.06 8.62.19h.05c1.71 0 3.33 1.84 3.33 3.79a.76.76 0 0 0 0 .15 30.11 30.11 0 0 1 0 8.39z"/><path d="m20.79 15.51-7.14-3.68a1 1 0 1 0 -.92 1.78l5.43 2.79-4 2.07v-2.07a1 1 0 0 0 -2 0v3.72a1 1 0 0 0 1 1 1 1 0 0 0 .46-.11l7.14-3.72a1 1 0 0 0 .54-.89 1 1 0 0 0 -.51-.89z"/></g></svg>