<svg clip-rule="evenodd" fill-rule="evenodd" height="512" stroke-linejoin="round" stroke-miterlimit="2" viewBox="0 0 24 24" width="512" xmlns="http://www.w3.org/2000/svg"><g id="Icon"><path d="m6.652 7.08c-1.724.893-2.902 2.693-2.902 4.766 0 2.961 2.404 5.366 5.365 5.366 1.062 0 2.052-.309 2.885-.842.833.533 1.823.842 2.885.842 2.961 0 5.365-2.405 5.365-5.366 0-2.073-1.178-3.873-2.902-4.766.012-.141.017-.283.017-.426 0-2.961-2.404-5.366-5.365-5.366s-5.365 2.405-5.365 5.366zm1.085 1.154c.34-.13.537-.485.468-.843-.046-.238-.07-.485-.07-.737 0-2.134 1.732-3.866 3.865-3.866s3.865 1.732 3.865 3.866c0 .252-.024.499-.07.737-.069.358.128.713.468.843 1.454.556 2.487 1.964 2.487 3.612 0 2.134-1.732 3.866-3.865 3.866-.914 0-1.754-.318-2.416-.849-.274-.22-.664-.22-.938 0-.662.531-1.502.849-2.416.849-2.133 0-3.865-1.732-3.865-3.866 0-1.648 1.033-3.056 2.487-3.612z"/><path d="m11.25 8.5v13.5c0 .414.336.75.75.75s.75-.336.75-.75v-13.5c0-.414-.336-.75-.75-.75s-.75.336-.75.75z"/><path d="m21 21.25h-18c-.414 0-.75.336-.75.75s.336.75.75.75h18c.414 0 .75-.336.75-.75s-.336-.75-.75-.75z"/><path d="m12.386 14.143 2.5-1.5c.355-.213.47-.674.257-1.029s-.674-.47-1.029-.257l-2.5 1.5c-.355.213-.47.674-.257 1.029s.674.47 1.029.257z"/><path d="m12.386 10.857-2.5-1.5c-.355-.213-.816-.098-1.029.257s-.098.816.257 1.029l2.5 1.5c.355.213.816.098 1.029-.257s.098-.816-.257-1.029z"/></g></svg>