<svg clip-rule="evenodd" fill-rule="evenodd" height="512" stroke-linejoin="round" stroke-miterlimit="2" viewBox="0 0 24 24" width="512" xmlns="http://www.w3.org/2000/svg"><g id="Icon"><path d="m7.047 5.02 6.5 3.799c.358.209.817.088 1.026-.269.209-.358.089-.817-.269-1.026l-6.5-3.799c-.357-.209-.817-.088-1.026.269-.209.358-.088.817.269 1.026z"/><path d="m11.175 12.999c-.132.267-.093.586.099.814s.5.321.786.236c0 0 4.261-1.257 5.937-1.751.402-.119.695-.465.745-.88.051-.416-.15-.822-.512-1.034l-1.758-1.027c-.107-.063-.228-.098-.351-.102l-2.563-.092c-.296-.011-.57.153-.7.418zm5.399-1.845-3.298.973.713-1.448s1.889.068 1.889.068z"/><path d="m2.906 14.209 4.955 2.895c1.244.726 2.844.245 3.481-1.047-.001 0 3.319-6.728 4.502-9.125.406-.824.107-1.822-.687-2.285l-5.113-2.988c-.802-.468-1.83-.229-2.343.546 0 0-5.59 8.456-5.59 8.456-.815 1.188-.451 2.819.795 3.548zm.757-1.295c-.494-.289-.638-.938-.312-1.409l5.602-8.473c.073-.11.22-.145.334-.078l5.114 2.988c.113.066.156.209.098.326l-4.503 9.126c-.252.512-.886.702-1.378.415z"/><path d="m4.239 8.554-.909-.532c-.558-.326-.746-1.041-.42-1.599.326-.557 1.042-.745 1.599-.419l.923.539c.358.209.817.088 1.026-.269.209-.358.088-.817-.269-1.026l-.923-.539c-1.273-.744-2.907-.316-3.651.957-.744 1.274-.314 2.908.958 3.651 0 0 .909.532.909.532.357.209.817.088 1.026-.269s.089-.817-.269-1.026z"/><path d="m18.25 13.83v3c0 .414.336.75.75.75s.75-.336.75-.75v-3c0-.414-.336-.75-.75-.75s-.75.336-.75.75z"/><path d="m18.25 19.33v2.5c0 .414.336.75.75.75s.75-.336.75-.75v-2.5c0-.414-.336-.75-.75-.75s-.75.336-.75.75z"/><path d="m21.25 14.83v4c0 .414.336.75.75.75s.75-.336.75-.75v-4c0-.414-.336-.75-.75-.75s-.75.336-.75.75z"/><path d="m20 10.58c.69 0 1.25.56 1.25 1.25 0 .414.336.75.75.75s.75-.336.75-.75c0-1.518-1.232-2.75-2.75-2.75-.414 0-.75.336-.75.75s.336.75.75.75z"/></g></svg>