<svg clip-rule="evenodd" fill-rule="evenodd" height="512" stroke-linejoin="round" stroke-miterlimit="2" viewBox="0 0 24 24" width="512" xmlns="http://www.w3.org/2000/svg"><g id="Icon"><path d="m20.229 4.601c.001-1.295-.902-2.415-2.167-2.689-.002-.001-.005-.001-.007-.002-4.039-.834-8.075-.839-12.112.007-.002 0-.004.001-.006.001-1.26.275-2.159 1.39-2.159 2.68-.007 2.828-.007 8.77-.007 11.884 0 1.519 1.231 2.75 2.75 2.75h10.958c1.519 0 2.75-1.231 2.75-2.75zm-1.5-.001v11.882c0 .69-.559 1.25-1.25 1.25h-10.958c-.691 0-1.25-.56-1.25-1.25 0-3.113 0-9.053.007-11.882 0-.001 0-.001 0-.002 0-.584.406-1.089.977-1.214 3.83-.801 7.66-.796 11.492-.006.574.126.982.635.982 1.222z"/><path d="m16.322 18.773 1.496 3.552c.16.382.601.561.982.4.382-.161.561-.601.4-.982l-1.496-3.552c-.16-.382-.6-.561-.982-.4-.381.16-.561.601-.4.982z"/><path d="m6.35 18.191-1.496 3.552c-.161.381.019.821.4.982.382.161.822-.018.982-.4l1.496-3.552c.161-.381-.018-.822-.4-.982-.381-.161-.822.018-.982.4z"/><circle cx="7.54" cy="14.992" r=".997"/><circle cx="16.515" cy="14.992" r=".997"/><path d="m10.558 15.742h2.938c.414 0 .75-.336.75-.75s-.336-.75-.75-.75h-2.938c-.414 0-.75.336-.75.75s.336.75.75.75z"/><path d="m17.984 20.225h-11.967c-.414 0-.75.336-.75.75s.336.75.75.75h11.967c.413 0 .75-.336.75-.75s-.337-.75-.75-.75z"/><path d="m17.736 6.02c0-.465-.184-.91-.512-1.238-.329-.328-.774-.512-1.238-.512-1.911 0-6.061 0-7.972 0-.464 0-.909.184-1.238.512-.328.328-.512.773-.512 1.238v4.98c0 .464.184.909.512 1.238.329.328.774.512 1.238.512h7.972c.464 0 .909-.184 1.238-.512.328-.329.512-.774.512-1.238zm-1.5 0v4.98c0 .066-.026.13-.073.177s-.111.073-.177.073h-7.972c-.066 0-.13-.026-.177-.073s-.073-.111-.073-.177v-4.98c0-.067.026-.13.073-.177s.111-.073.177-.073h7.972c.066 0 .13.026.177.073s.073.11.073.177z"/></g></svg>