<svg clip-rule="evenodd" fill-rule="evenodd" stroke-linejoin="round" stroke-miterlimit="2" viewBox="0 0 32 32" xmlns="http://www.w3.org/2000/svg" xmlns:serif="http://www.serif.com/"><path id="abacus-mathematic-calc" d="m0 0h32v32h-32z" fill="none"/><path d="m5 24.998v3c-.043.912-.558.98-.952.998-.536.026-1.022-.443-1.048-.998v-24c.028-.583.523-1.049 1.142-.99.477.092.834.494.858.99v3h2v-1c.011-.535.401-.977.98-1h.04c.163.006.216.022.312.056.386.136.66.524.668.944v1h2v-1c.003-.163.018-.217.05-.313.132-.402.528-.687.97-.687.163.006.216.022.312.056.386.136.66.524.668.944v1h3c.023 0 .045.001.068.002.252.026.324.065.452.143.554.337.627 1.269.057 1.671-.163.115-.271.173-.577.184h-3v1c-.015.748-.985 1.273-1.61.792-.241-.186-.384-.483-.39-.792v-1h-2v1c-.015.769-1.044 1.309-1.671.741-.206-.186-.323-.459-.329-.741v-1h-2v6h2v-1c.003-.163.018-.217.05-.313.136-.413.553-.704 1.01-.686.518.042.929.438.94.999v1h3c.019 0 .037.001.056.001.229.019.302.054.428.123.739.409.554 1.846-.484 1.876h-3v1c-.015.769-1.044 1.309-1.671.741-.206-.186-.323-.459-.329-.741v-1h-2v5.996c1.013-.006 2.027-.016 3.04.004.733.044 1.228.991.752 1.61-.186.241-.483.383-.792.39zm22-18v-3c.028-.581.523-1.049 1.142-.99.478.092.835.502.858.99v24c-.043.912-.558.98-.952.998-.536.026-1.022-.443-1.048-.998v-3h-2v1c-.018.887-1.453 1.392-1.906.423-.061-.131-.091-.276-.094-.423v-1h-2v1c-.018.887-1.453 1.392-1.906.423-.061-.131-.091-.276-.094-.423v-1h-2v1c-.018.886-1.411 1.383-1.888.459-.073-.141-.109-.298-.112-.459v-1h-2v1c-.018.89-1.456 1.384-1.906.423-.061-.131-.091-.276-.094-.423v-4c.003-.163.018-.217.05-.313.136-.414.553-.704 1.01-.686.162.013.214.032.309.069.368.146.623.522.631.93v1h2v-1c.003-.163.018-.217.05-.313.136-.414.553-.704 1.01-.686.519.042.929.438.94.999v1h2v-1c.003-.163.018-.217.05-.313.136-.413.553-.704 1.01-.686.518.042.929.438.94.999v1h2v-1c.011-.55.431-1 1.02-1 .013 0 .026.001.04.001.519.042.929.438.94.999v1h2v-6h-2v1c-.018.887-1.453 1.392-1.906.423-.061-.131-.091-.276-.094-.423v-1h-2v1c-.018.886-1.411 1.383-1.888.459-.073-.141-.109-.298-.112-.459v-1h-2v1c-.018.887-1.453 1.392-1.906.423-.061-.131-.091-.276-.094-.423v-4c.003-.163.018-.217.05-.313.136-.414.553-.704 1.01-.686.518.042.929.438.94.999v1h2v-1c.003-.163.018-.217.05-.313.136-.414.553-.704 1.01-.686.518.042.929.438.94.999v1h2v-1c.003-.163.018-.217.05-.313.136-.414.553-.704 1.01-.686.519.042.929.438.94.999v1h2v-6h-2v1c-.018.882-1.415 1.375-1.888.459-.073-.141-.109-.298-.112-.459v-1h-2v1c-.017.878-1.415 1.374-1.888.459-.073-.141-.109-.298-.112-.459v-4c.003-.163.018-.217.05-.313.132-.402.528-.687.97-.687.534.021.968.42.98 1v1h2v-1c.003-.163.018-.217.05-.313.132-.402.528-.687.97-.687.534.021.968.42.98 1v1h2z"/></svg>