<svg clip-rule="evenodd" fill-rule="evenodd" stroke-linejoin="round" stroke-miterlimit="1.414" viewBox="0 0 32 32" xmlns="http://www.w3.org/2000/svg" xmlns:serif="http://www.serif.com/"><path id="speaker-announcement-voice-colume" d="m0 0h32v32h-32z" fill="none"/><path d="m11.795 10 13.811-5.92c.124-.046.168-.097.504-.074.494.076.869.492.89.994v20c-.029.669-.741 1.166-1.394.919l-12.606-5.403v6.484c-.005.176-.021.225-.052.319-.121.359-.461.634-.84.675-.048.005-.06.005-.108.006h-4c-.2-.005-.26-.027-.37-.071-.336-.134-.585-.46-.624-.821-.006-.048-.005-.06-.006-.108v-4c.005-.179.021-.229.054-.325.131-.381.512-.664.918-.675.107-.003.131.006.165.009.167.028.194.044.265.075.319.14.553.456.592.806.005.049.005.061.006.11v3h2v-6h-5c-.183-.005-.233-.022-.33-.056-.353-.124-.622-.457-.664-.832-.006-.05-.005-.062-.006-.112v-8c.005-.183.022-.234.056-.331.123-.352.456-.621.832-.663.049-.006.062-.005.112-.006zm1.205 1.659v3.341c-.021.755-1.044 1.301-1.666.745-.182-.162-.301-.392-.328-.633-.005-.05-.005-.062-.006-.112v-3h-4v6h4.945c.123-.012.22-.006.449.081l12.606 5.402v-16.967z" fill-rule="nonzero"/></svg>