<svg clip-rule="evenodd" fill-rule="evenodd" height="512" stroke-linejoin="round" stroke-miterlimit="2" viewBox="0 0 24 24" width="512" xmlns="http://www.w3.org/2000/svg"><g id="Icon"><path d="m11 1.25c-5.381 0-9.75 4.369-9.75 9.75s4.369 9.75 9.75 9.75 9.75-4.369 9.75-9.75-4.369-9.75-9.75-9.75zm0 1.5c4.553 0 8.25 3.697 8.25 8.25s-3.697 8.25-8.25 8.25-8.25-3.697-8.25-8.25 3.697-8.25 8.25-8.25z"/><path d="m22.53 21.47-4.5-4.5c-.292-.293-.768-.293-1.06 0-.293.292-.293.768 0 1.06l4.5 4.5c.292.293.768.293 1.06 0 .293-.292.293-.768 0-1.06z"/><path d="m5 11.75h2.5c.3 0 .571-.179.689-.455l.669-1.561s1.421 4.972 1.421 4.972c.09.316.376.537.705.544.328.007.624-.201.728-.513l1.484-4.453s.661 1.102.661 1.102c.135.226.38.364.643.364h2.5c.414 0 .75-.336.75-.75s-.336-.75-.75-.75h-2.075s-1.282-2.136-1.282-2.136c-.151-.251-.434-.391-.725-.36-.291.032-.537.231-.63.509l-1.233 3.7s-1.334-4.669-1.334-4.669c-.087-.305-.357-.522-.674-.542-.316-.021-.611.161-.736.453l-1.306 3.045h-2.005c-.414 0-.75.336-.75.75s.336.75.75.75z"/></g></svg>