<svg clip-rule="evenodd" fill-rule="evenodd" stroke-linejoin="round" stroke-miterlimit="2" viewBox="0 0 32 32" xmlns="http://www.w3.org/2000/svg" xmlns:serif="http://www.serif.com/"><path id="sim-card-phone-chip-electronic" d="m0 0h32v32h-32z" fill="none"/><path d="m13.005 24.998c-.003.459-.358.893-.809.98-.084.016-.105.014-.189.018-2.009 0-4.019.012-6.028 0-1.544-.029-2.928-1.364-2.957-2.958-.029-4.683-.029-9.367 0-14.051.028-1.539 1.338-2.927 2.957-2.957 6.681-.042 13.361-.042 20.042 0 1.545.028 2.928 1.364 2.957 2.957.029 4.684.03 9.368 0 14.053-.029 1.554-1.365 2.946-2.991 2.956h-10.026c-.769-.036-1.297-1.026-.755-1.652.182-.21.33-.324.755-.345 1.011 0 2.023.006 3.034.013v-4.711c-.423-.68-1.175-2.34-.974-3.972.132-1.077.514-2.175 1.227-2.976.187-.209.462-.324.745-.334h7.033c-.011-1.006-.026-2.013-.045-3.019-.015-.511-.466-.964-.985-.974-4.33-.027-8.661-.071-12.991-.065v4.783c.507.881 1.236 2.969.727 4.841-.161.593-.412 1.159-.721 1.692zm14.037-10.982h-6.498c-.688 1.205-.669 2.682.016 3.992 1.156-.005 2.311-.021 3.466.002.974.058 1.436 1.967-.039 1.996h-2.995v4.017c1.673.008 3.345.008 5.018-.024.508-.016.955-.461.971-.972.058-3.003.077-6.007.061-9.011zm-16.034 9.983v-3.993h-6.027c.007 1.007.019 2.013.038 3.02.015.511.466.964.985.973zm0-11.99v-4.041c-1.672.009-3.344.027-5.016.058-.512.016-.964.469-.974.986-.018 2.999-.049 5.998-.045 8.997h6.379c.36-.828.696-1.696.538-2.625-.046-.274-.121-.542-.218-.802-.067-.182-.162-.384-.255-.566h-3.404c-.985-.02-1.475-1.967 0-1.997.999 0 1.997-.014 2.995-.01z"/></svg>