<svg clip-rule="evenodd" fill-rule="evenodd" height="512" stroke-linejoin="round" stroke-miterlimit="2" viewBox="0 0 24 24" width="512" xmlns="http://www.w3.org/2000/svg"><g id="Icon"><path d="m19.75 3.757c0-.791-.531-1.485-1.295-1.69-.001-.001-.003-.001-.004-.001-4.3-1.132-8.6-1.125-12.899.003-.001 0-.003 0-.004 0-.764.205-1.296.898-1.296 1.689-.002 2.464-.002 10.225-.002 12.567-.001.724.446 1.375 1.123 1.634.002.001.003.001.004.002 4.416 1.665 8.831 1.668 13.246-.004.001 0 .002-.001.003-.001.675-.259 1.121-.908 1.121-1.631.003-2.341.003-10.105.003-12.568zm-1.5 0c0 2.463 0 10.226-.003 12.567v.001c0 .102-.063.193-.158.23-4.059 1.537-8.119 1.534-12.179.003-.097-.037-.16-.13-.16-.233 0-2.342 0-10.102.002-12.566v-.001c0-.112.075-.21.183-.239 4.044-1.06 8.087-1.067 12.131-.004.109.03.184.129.184.242z"/><path d="m5.25 17.5v1.786c0 .756.486 1.428 1.206 1.663.004.002.008.003.012.004 3.454 1.067 7.607 1.059 11.06-.005.004-.001.007-.002.011-.003.72-.233 1.208-.904 1.208-1.661.003-.737.003-1.784.003-1.784 0-.414-.336-.75-.75-.75s-.75.336-.75.75c0 0 0 1.043-.003 1.78v.004c0 .103-.064.195-.16.231-3.181.977-6.994.986-10.168.008-.101-.035-.169-.13-.169-.237v-1.786c0-.414-.336-.75-.75-.75s-.75.336-.75.75z"/><path d="m12 4.25c-2.346 0-4.25 1.904-4.25 4.25s1.904 4.25 4.25 4.25 4.25-1.904 4.25-4.25-1.904-4.25-4.25-4.25zm0 1.5c1.518 0 2.75 1.232 2.75 2.75s-1.232 2.75-2.75 2.75-2.75-1.232-2.75-2.75 1.232-2.75 2.75-2.75z"/><path d="m16 14.25h-4.5c-.414 0-.75.336-.75.75s.336.75.75.75h4.5c.414 0 .75-.336.75-.75s-.336-.75-.75-.75z"/><path d="m9 14.25h-1c-.414 0-.75.336-.75.75s.336.75.75.75h1c.414 0 .75-.336.75-.75s-.336-.75-.75-.75z"/><path d="m13.75 21.001v.999c0 .414.336.75.75.75s.75-.336.75-.75v-.999c0-.414-.336-.75-.75-.75s-.75.336-.75.75z"/><path d="m8.75 21.001v.999c0 .414.336.75.75.75s.75-.336.75-.75v-.999c0-.414-.336-.75-.75-.75s-.75.336-.75.75z"/><path d="m12.75 8.5v-1.5c0-.414-.336-.75-.75-.75s-.75.336-.75.75v1.5c0 .414.336.75.75.75s.75-.336.75-.75z"/></g></svg>