<svg clip-rule="evenodd" fill-rule="evenodd" height="512" stroke-linejoin="round" stroke-miterlimit="2" viewBox="0 0 24 24" width="512" xmlns="http://www.w3.org/2000/svg"><g id="Icon"><path d="m22.75 5c0-2.071-1.679-3.75-3.75-3.75h-14c-2.071 0-3.75 1.679-3.75 3.75v14c0 2.071 1.679 3.75 3.75 3.75h14c2.071 0 3.75-1.679 3.75-3.75zm-1.5 0v14c0 1.243-1.007 2.25-2.25 2.25h-14c-1.243 0-2.25-1.007-2.25-2.25v-14c0-1.243 1.007-2.25 2.25-2.25h14c1.243 0 2.25 1.007 2.25 2.25z"/><path d="m22 6.25h-20c-.414 0-.75.336-.75.75s.336.75.75.75h20c.414 0 .75-.336.75-.75s-.336-.75-.75-.75z"/><circle cx="12.75" cy="4.5" r=".75"/><circle cx="15.5" cy="4.5" r=".75"/><circle cx="18.25" cy="4.5" r=".75"/><path d="m16 10c-1.794 0-3.25 1.456-3.25 3.25s1.456 3.25 3.25 3.25 3.25-1.456 3.25-3.25-1.456-3.25-3.25-3.25zm0 1.5c.966 0 1.75.784 1.75 1.75s-.784 1.75-1.75 1.75-1.75-.784-1.75-1.75.784-1.75 1.75-1.75z"/><path d="m17.47 16.03 1 1c.292.293.768.293 1.06 0 .293-.292.293-.768 0-1.06l-1-1c-.292-.293-.768-.293-1.06 0-.293.292-.293.768 0 1.06z"/><path d="m12.5 15.75h-7.5c-.414 0-.75.336-.75.75s.336.75.75.75h7.5c.414 0 .75-.336.75-.75s-.336-.75-.75-.75z"/></g></svg>