<svg clip-rule="evenodd" fill-rule="evenodd" height="512" stroke-linejoin="round" stroke-miterlimit="2" viewBox="0 0 24 24" width="512" xmlns="http://www.w3.org/2000/svg"><g id="Icon"><path d="m16.554 12.25c2.897 0 5.25 2.352 5.25 5.25s-2.353 5.25-5.25 5.25c-2.898 0-5.25-2.352-5.25-5.25s2.352-5.25 5.25-5.25zm0 1.5c-2.07 0-3.75 1.68-3.75 3.75s1.68 3.75 3.75 3.75c2.069 0 3.75-1.68 3.75-3.75s-1.681-3.75-3.75-3.75z"/><circle cx="17.804" cy="19.25" r=".75"/><circle cx="15.304" cy="15.732" r=".75"/><path d="m19.911 11c0 .414-.336.75-.75.75s-.75-.336-.75-.75v-3.172c0-.331-.132-.649-.366-.883l-3.829-3.829c-.234-.234-.552-.366-.883-.366h-8.387c-.331 0-.649.132-.884.366-.234.235-.366.552-.366.884v16c0 .332.132.649.366.884.235.234.553.366.884.366h3.608c.414 0 .75.336.75.75s-.336.75-.75.75h-3.608c-.729 0-1.428-.29-1.944-.805-.516-.516-.806-1.216-.806-1.945v-16c0-.729.29-1.429.806-1.945.516-.515 1.215-.805 1.944-.805h8.387c.729 0 1.428.29 1.944.805l3.829 3.829c.515.516.805 1.215.805 1.944z"/><path d="m13.411 2.5c0-.414.336-.75.75-.75s.75.336.75.75v3.5c0 .138.112.25.25.25h3.5c.414 0 .75.336.75.75s-.336.75-.75.75h-3.5c-.967 0-1.75-.783-1.75-1.75z"/><path d="m6.446 7.75c-.414 0-.75-.336-.75-.75s.336-.75.75-.75h3c.414 0 .75.336.75.75s-.336.75-.75.75z"/><path d="m6.446 13.75c-.414 0-.75-.336-.75-.75s.336-.75.75-.75h3c.414 0 .75.336.75.75s-.336.75-.75.75z"/><path d="m6.446 10.75c-.414 0-.75-.336-.75-.75s.336-.75.75-.75h6c.414 0 .75.336.75.75s-.336.75-.75.75z"/><path d="m15.316 19.798c-.292.293-.768.293-1.06 0-.293-.293-.293-.768 0-1.061l3.535-3.535c.293-.293.768-.293 1.061 0 .292.293.292.768 0 1.061z"/></g></svg>