<svg clip-rule="evenodd" fill-rule="evenodd" height="512" stroke-linejoin="round" stroke-miterlimit="2" viewBox="0 0 24 24" width="512" xmlns="http://www.w3.org/2000/svg"><g id="Icon"><path d="m12 10.75c-2.346 0-4.25 1.904-4.25 4.25s1.904 4.25 4.25 4.25 4.25-1.904 4.25-4.25-1.904-4.25-4.25-4.25zm0 1.5c1.518 0 2.75 1.232 2.75 2.75s-1.232 2.75-2.75 2.75-2.75-1.232-2.75-2.75 1.232-2.75 2.75-2.75z"/><path d="m22.53 12.97s-.604-.604-1.514-1.515c-4.98-4.979-13.052-4.979-18.032 0-.91.911-1.514 1.515-1.514 1.515-.293.292-.293.768 0 1.06.292.293.768.293 1.06 0 0 0 .604-.604 1.515-1.514 4.393-4.394 11.517-4.394 15.91 0 .911.91 1.515 1.514 1.515 1.514.292.293.768.293 1.06 0 .293-.292.293-.768 0-1.06z"/><path d="m18.85 6.867-1.5 2.598c-.206.358-.083.817.275 1.024s.818.084 1.025-.274l1.5-2.598c.206-.359.083-.818-.275-1.025s-.818-.084-1.025.275z"/><path d="m11.25 5.5v3c0 .414.336.75.75.75s.75-.336.75-.75v-3c0-.414-.336-.75-.75-.75s-.75.336-.75.75z"/><path d="m3.85 7.617 1.5 2.598c.207.358.667.481 1.025.274s.481-.666.275-1.024l-1.5-2.598c-.207-.359-.667-.482-1.025-.275s-.481.666-.275 1.025z"/></g></svg>