<svg clip-rule="evenodd" fill-rule="evenodd" height="512" stroke-linejoin="round" stroke-miterlimit="2" viewBox="0 0 24 24" width="512" xmlns="http://www.w3.org/2000/svg"><g id="Icon"><path d="m13 2.75h7c.414 0 .75-.336.75-.75s-.336-.75-.75-.75h-7c-.414 0-.75.336-.75.75s.336.75.75.75z"/><path d="m13 7.75h7c.414 0 .75-.336.75-.75s-.336-.75-.75-.75h-7c-.414 0-.75.336-.75.75s.336.75.75.75z"/><path d="m4 12.75h16c.414 0 .75-.336.75-.75s-.336-.75-.75-.75h-16c-.414 0-.75.336-.75.75s.336.75.75.75z"/><path d="m4 17.75h16c.414 0 .75-.336.75-.75s-.336-.75-.75-.75h-16c-.414 0-.75.336-.75.75s.336.75.75.75z"/><path d="m4 22.75h16c.414 0 .75-.336.75-.75s-.336-.75-.75-.75h-16c-.414 0-.75.336-.75.75s.336.75.75.75z"/><path d="m5.706 9.252 1.794-5.022s1.794 5.022 1.794 5.022c.139.39.568.594.958.454.39-.139.594-.568.454-.958l-2.5-7c-.106-.299-.389-.498-.706-.498s-.6.199-.706.498l-2.5 7c-.14.39.064.819.454.958.39.14.819-.064.958-.454z"/><path d="m9.47 6.769h-3.939c-.414 0-.75.337-.75.75 0 .414.336.75.75.75h3.939c.414 0 .75-.336.75-.75 0-.413-.336-.75-.75-.75z"/></g></svg>