<svg clip-rule="evenodd" fill-rule="evenodd" height="512" stroke-linejoin="round" stroke-miterlimit="2" viewBox="0 0 24 24" width="512" xmlns="http://www.w3.org/2000/svg"><g id="Icon"><path d="m17.022 5.753-.745-3.913c-.077-.406-.47-.674-.877-.596-.406.077-.674.47-.596.877l.745 3.913c.077.407.47.674.877.596.407-.077.674-.47.596-.877z"/><path d="m19.116 9.793c.162-.682-.101-1.396-.666-1.81-.701-.537-1.164-1.395-1.448-2.311-.083-.271-.313-.472-.593-.518-.28-.047-.562.069-.729.298-.867 1.191-2.103 2.2-3.679 2.701-1.578-.502-2.814-1.51-3.681-2.701-.167-.229-.449-.345-.729-.298-.28.046-.51.247-.593.518-.284.915-.746 1.771-1.439 2.32-.563.415-.822 1.119-.664 1.793.309 1.379.825 2.383 1.59 3.615.148.24.21.524.176.805-.142.663-.418 1.283-.707 1.983-.493 1.192-1.03 2.588-1.183 4.63-.047.477.112.959.438 1.32.329.365.798.573 1.29.572 2.823.013 8.086.013 11.003.018.496.002.97-.208 1.303-.577.331-.366.491-.854.443-1.344-.166-2.035-.706-3.426-1.189-4.616-.283-.695-.548-1.312-.673-1.964-.039-.288.021-.568.167-.805.004-.007.008-.013.011-.02.72-1.247 1.233-2.243 1.552-3.609zm-1.46-.346v.003c-.282 1.209-.747 2.086-1.382 3.188-.333.545-.463 1.18-.373 1.803.001.01.003.02.005.029.14.76.435 1.478.763 2.285.438 1.078.935 2.336 1.084 4.179.001.006.001.012.002.018.007.071-.015.141-.063.194s-.115.083-.186.082c-.001 0-.001 0-.002 0-2.915-.005-8.176-.005-11.003-.018-.002 0-.004 0-.006 0-.066 0-.128-.028-.172-.076-.044-.049-.066-.115-.059-.18.001-.007.002-.015.002-.022.138-1.841.63-3.097 1.074-4.171.331-.802.636-1.514.794-2.267.003-.015.006-.031.008-.047.092-.638-.043-1.288-.382-1.836 0-.001 0-.001-.001-.002-.668-1.077-1.131-1.949-1.401-3.155 0-.003-.001-.007-.002-.011-.022-.091.014-.186.09-.241.008-.006.016-.011.023-.018.609-.476 1.1-1.122 1.473-1.855 1.009 1.046 2.301 1.887 3.853 2.329.134.038.276.038.41 0 1.552-.442 2.844-1.283 3.853-2.329.375.734.871 1.38 1.488 1.851.005.004.01.008.015.012.081.058.118.158.095.255z"/><path d="m8.451 6.034.745-3.913c.078-.407-.19-.8-.596-.877-.407-.078-.8.19-.877.596l-.745 3.913c-.078.407.189.8.596.877.407.078.8-.189.877-.596z"/><path d="m12.723 22.224s1.211-3.503 5.036-4.505c.401-.105.641-.515.536-.916-.105-.4-.515-.64-.916-.535-4.627 1.212-6.075 5.469-6.075 5.469-.134.392.074.819.466.953s.818-.075.953-.466z"/><path d="m12.723 21.737s-1.449-4.257-6.076-5.469c-.4-.105-.81.135-.915.535-.105.401.135.811.535.916 3.825 1.002 5.037 4.505 5.037 4.505.134.391.561.6.952.466.392-.134.601-.561.467-.953z"/></g></svg>