<svg clip-rule="evenodd" fill-rule="evenodd" height="512" stroke-linejoin="round" stroke-miterlimit="2" viewBox="0 0 24 24" width="512" xmlns="http://www.w3.org/2000/svg"><g id="Icon"><path d="m14.335 2.975c-.014-.957-.793-1.725-1.75-1.725h-5.943c-.966 0-1.75.784-1.75 1.75v3.5c0 .331.132.649.367.884.234.234.552.366.883.366h6.993c.335 0 .656-.134.89-.372.235-.239.365-.561.36-.896zm-1.453 3.275h-6.49v-3.25c0-.138.112-.25.25-.25h5.943c.137 0 .248.11.25.246z"/><path d="m14.392 10c0-.69-.559-1.25-1.25-1.25h-7c-.69 0-1.25.56-1.25 1.25v10.707c0 .826.577 1.54 1.385 1.713.003 0 .005 0 .007.001 2.241.457 4.481.462 6.721-.002.001-.001.003-.001.005-.002.805-.173 1.379-.884 1.379-1.707.003-2.283.003-8.845.003-10.71zm-8 .25h6.5c0 2.141 0 8.268-.003 10.459v.001c0 .116-.08.216-.194.241-2.035.421-4.07.416-6.106.001-.115-.025-.197-.127-.197-.244z"/><path d="m13.892 8c0-.464-.184-.909-.512-1.237-.328-.329-.773-.513-1.238-.513-1.33 0-3.669 0-5 0-.464 0-.909.184-1.237.513-.328.328-.513.773-.513 1.237v.5c0 .464.185.909.513 1.237.328.329.773.513 1.238.513h4.999c.465 0 .91-.184 1.238-.513.328-.328.512-.773.512-1.237zm-1.5 0v.5c0 .066-.026.13-.073.177s-.11.073-.177.073h-5c-.066 0-.129-.026-.176-.073s-.074-.111-.074-.177v-.5c0-.066.027-.13.074-.177s.11-.073.176-.073h5c.067 0 .13.026.177.073s.073.111.073.177z"/><path d="m14.23 7.5h-1.088c-.413 0-.75.336-.75.75s.337.75.75.75h.905c.305.1.424.429.531.807.289 1.021.261 2.458.367 3.687.07.808.199 1.538.445 2.069.349.751.906 1.187 1.752 1.187.521 0 .911-.16 1.202-.408.287-.244.487-.587.587-1.02.133-.572.081-1.344-.106-2.183-.247-1.111-.718-2.36-1.145-3.362-.59-1.381-1.948-2.277-3.45-2.277zm1.943 2.614c.109.671.156 1.428.197 2.175.047.87.088 1.726.277 2.363.096.319.189.598.495.598.349 0 .367-.317.366-.674-.004-1.187-.658-2.922-1.208-4.21-.037-.087-.08-.172-.127-.252z"/></g></svg>