<svg clip-rule="evenodd" fill-rule="evenodd" height="512" stroke-linejoin="round" stroke-miterlimit="2" viewBox="0 0 24 24" width="512" xmlns="http://www.w3.org/2000/svg"><g id="Icon"><path d="m12 10.569c-2.898 0-5.25 2.352-5.25 5.25 0 .751.47 1.407 1.341 1.858.949.491 2.427.754 3.909.754s2.96-.263 3.909-.754c.871-.451 1.341-1.107 1.341-1.858 0-2.898-2.352-5.25-5.25-5.25zm0 1.5c2.07 0 3.75 1.68 3.75 3.75 0 .245-.247.379-.531.526-.779.403-2.001.586-3.219.586s-2.44-.183-3.219-.586c-.284-.147-.531-.281-.531-.526 0-2.07 1.68-3.75 3.75-3.75z"/><path d="m21.25 13.355c-.013.015-.056.061-.087.086-.065.049-.142.092-.228.132-.597.28-1.523.387-2.406.353-.414-.017-.762.306-.778.72s.306.762.72.778c1.36.053 2.783-.219 3.52-.732.503-.349.759-.807.759-1.322 0-2.163-1.756-3.918-3.918-3.918-1.113 0-2.119.465-2.832 1.211-.286.299-.276.774.023 1.06.3.287.775.276 1.061-.023.44-.461 1.061-.748 1.748-.748 1.329 0 2.41 1.075 2.418 2.403z"/><path d="m2.75 13.355c.008-1.328 1.089-2.403 2.418-2.403.687 0 1.308.287 1.748.748.286.299.761.31 1.061.023.299-.286.309-.761.023-1.06-.713-.746-1.719-1.211-2.832-1.211-2.162 0-3.918 1.755-3.918 3.918 0 .515.256.973.759 1.322.737.513 2.16.785 3.52.732.414-.016.736-.364.72-.778s-.364-.737-.778-.72c-.883.034-1.809-.073-2.406-.353-.086-.04-.163-.083-.228-.132-.031-.025-.074-.071-.087-.086z"/><path d="m12 5.569c-1.794 0-3.25 1.456-3.25 3.25 0 1.793 1.456 3.25 3.25 3.25s3.25-1.457 3.25-3.25c0-1.794-1.456-3.25-3.25-3.25zm0 1.5c.966 0 1.75.784 1.75 1.75 0 .965-.784 1.75-1.75 1.75s-1.75-.785-1.75-1.75c0-.966.784-1.75 1.75-1.75z"/><path d="m18.832 5.931c-1.386 0-2.51 1.125-2.51 2.51 0 1.386 1.124 2.511 2.51 2.511 1.385 0 2.51-1.125 2.51-2.511 0-1.385-1.125-2.51-2.51-2.51zm0 1.5c.557 0 1.01.453 1.01 1.01 0 .558-.453 1.011-1.01 1.011-.558 0-1.01-.453-1.01-1.011 0-.557.452-1.01 1.01-1.01z"/><path d="m5.168 5.931c-1.385 0-2.51 1.125-2.51 2.51 0 1.386 1.125 2.511 2.51 2.511 1.386 0 2.51-1.125 2.51-2.511 0-1.385-1.124-2.51-2.51-2.51zm0 1.5c.558 0 1.01.453 1.01 1.01 0 .558-.452 1.011-1.01 1.011-.557 0-1.01-.453-1.01-1.011 0-.557.453-1.01 1.01-1.01z"/></g></svg>