<svg clip-rule="evenodd" fill-rule="evenodd" height="512" stroke-linejoin="round" stroke-miterlimit="2" viewBox="0 0 24 24" width="512" xmlns="http://www.w3.org/2000/svg"><g id="Icon"><path d="m16 7c.414 0 .75-.336.75-.75v-1c0-.718-.259-1.405-.71-1.912-.481-.542-1.137-.838-1.818-.838-1.323 0-3.121 0-4.444 0-.681 0-1.337.296-1.818.838-.451.507-.71 1.194-.71 1.912v1c0 .414.336.75.75.75zm-.75-1.5h-6.5v-.25c0-.343.116-.674.331-.916.186-.209.434-.334.697-.334h4.444c.263 0 .511.125.697.334.215.242.331.573.331.916z"/><path d="m22.75 8.25c0-.729-.29-1.429-.805-1.945-.516-.515-1.216-.805-1.945-.805-3.832 0-12.168 0-16 0-.729 0-1.429.29-1.945.805-.515.516-.805 1.216-.805 1.945v10.5c0 .729.29 1.429.805 1.945.516.515 1.216.805 1.945.805h16c.729 0 1.429-.29 1.945-.805.515-.516.805-1.216.805-1.945zm-1.5 0v10.5c0 .332-.132.649-.366.884-.235.234-.552.366-.884.366h-16c-.332 0-.649-.132-.884-.366-.234-.235-.366-.552-.366-.884v-10.5c0-.332.132-.649.366-.884.235-.234.552-.366.884-.366h16c.332 0 .649.132.884.366.234.235.366.552.366.884z"/><path d="m17.25 6.25v14.5c0 .414.336.75.75.75s.75-.336.75-.75v-14.5c0-.414-.336-.75-.75-.75s-.75.336-.75.75z"/><path d="m5.25 6.25v14.5c0 .414.336.75.75.75s.75-.336.75-.75v-14.5c0-.414-.336-.75-.75-.75s-.75.336-.75.75z"/></g></svg>