<svg clip-rule="evenodd" fill-rule="evenodd" height="512" stroke-linejoin="round" stroke-miterlimit="2" viewBox="0 0 24 24" width="512" xmlns="http://www.w3.org/2000/svg"><g id="Icon"><path d="m22.75 5v14c0 2.071-1.679 3.75-3.75 3.75h-14c-2.071 0-3.75-1.679-3.75-3.75v-14c0-2.071 1.679-3.75 3.75-3.75h14c2.071 0 3.75 1.679 3.75 3.75zm-1.5 0c0-1.243-1.007-2.25-2.25-2.25h-14c-1.243 0-2.25 1.007-2.25 2.25v14c0 1.243 1.007 2.25 2.25 2.25h14c1.243 0 2.25-1.007 2.25-2.25z"/><path d="m20.25 6.5v7.5c0 .414-.336.75-.75.75h-15c-.414 0-.75-.336-.75-.75v-7.5c0-.729.29-1.429.805-1.945.516-.515 1.216-.805 1.945-.805h11c.729 0 1.429.29 1.945.805.515.516.805 1.216.805 1.945zm-1.5 0c0-.332-.132-.649-.366-.884-.235-.234-.552-.366-.884-.366h-11c-.332 0-.649.132-.884.366-.234.235-.366.552-.366.884v6.75h13.5z"/><path d="m12.53 11.53c-.292.293-.768.293-1.06 0-.293-.292-.293-.768 0-1.06l3-3c.292-.293.768-.293 1.06 0 .293.292.293.768 0 1.06z"/><path d="m9.75 14c0 .414-.336.75-.75.75s-.75-.336-.75-.75c0-2.07 1.68-3.75 3.75-3.75s3.75 1.68 3.75 3.75c0 .414-.336.75-.75.75s-.75-.336-.75-.75c0-1.242-1.008-2.25-2.25-2.25s-2.25 1.008-2.25 2.25z"/><path d="m5 18.75c-.414 0-.75-.336-.75-.75s.336-.75.75-.75h2c.414 0 .75.336.75.75s-.336.75-.75.75z"/><path d="m11 18.75c-.414 0-.75-.336-.75-.75s.336-.75.75-.75h2c.414 0 .75.336.75.75s-.336.75-.75.75z"/><path d="m17 18.75c-.414 0-.75-.336-.75-.75s.336-.75.75-.75h2c.414 0 .75.336.75.75s-.336.75-.75.75z"/></g></svg>