<svg clip-rule="evenodd" fill-rule="evenodd" height="512" stroke-linejoin="round" stroke-miterlimit="2" viewBox="0 0 24 24" width="512" xmlns="http://www.w3.org/2000/svg"><g id="Icon"><path d="m12 1.25c-5.933 0-10.75 4.817-10.75 10.75s4.817 10.75 10.75 10.75 10.75-4.817 10.75-10.75-4.817-10.75-10.75-10.75zm0 1.5c5.105 0 9.25 4.145 9.25 9.25s-4.145 9.25-9.25 9.25-9.25-4.145-9.25-9.25 4.145-9.25 9.25-9.25z"/><path d="m12 5.25c-2.346 0-4.25 1.904-4.25 4.25s1.904 4.25 4.25 4.25 4.25-1.904 4.25-4.25-1.904-4.25-4.25-4.25zm0 1.5c1.518 0 2.75 1.232 2.75 2.75s-1.232 2.75-2.75 2.75-2.75-1.232-2.75-2.75 1.232-2.75 2.75-2.75z"/><path d="m4.302 19.098c-.027.232.056.463.223.625 1.936 1.874 4.572 3.027 7.475 3.027s5.539-1.153 7.475-3.027c.167-.162.25-.393.223-.625-.448-3.853-3.726-6.848-7.698-6.848s-7.25 2.995-7.698 6.848zm1.544-.195c.519-2.927 3.079-5.153 6.154-5.153s5.635 2.226 6.154 5.153c-1.636 1.46-3.792 2.347-6.154 2.347s-4.518-.887-6.154-2.346z"/></g></svg>