<svg clip-rule="evenodd" fill-rule="evenodd" stroke-linejoin="round" stroke-miterlimit="1.414" viewBox="0 0 32 32" xmlns="http://www.w3.org/2000/svg" xmlns:serif="http://www.serif.com/"><path id="stick-walking-treatment" d="m0 0h32v32h-32z" fill="none"/><path d="m25.005 9.011h-7.006c-.182-.005-.233-.022-.33-.056-.353-.124-.622-.457-.664-.833-.006-.05-.005-.062-.006-.112v-2.005c.009-1.555 1.345-2.968 2.963-2.999 1.36-.008 2.72-.008 4.081 0 1.552.03 2.953 1.369 2.963 2.999v2.005c0 3.189.01 6.377 0 9.566-.017 1.824-.762 3.612-2.05 4.908l-1.953 1.953v3.588c-.015.77-1.053 1.303-1.672.742-.207-.187-.324-.465-.329-.742v-3.584c-1.081-1.05-2.243-2.048-2.988-3.276-.66-1.089-1.011-2.359-1.015-3.631v-5.521c.022-.582.572-1.081 1.157-.988.416.066.766.417.832.832.011.069.009.086.012.156 0 1.85-.006 3.7 0 5.55.012 1.299.543 2.579 1.467 3.508l1.535 1.536c.754-.753 1.599-1.455 2.162-2.299.545-.817.838-1.797.841-2.778v-2.515h-3.003c-.769-.015-1.302-1.053-.741-1.672.187-.207.465-.324.741-.329h3.003zm-12.009 0h-7.006c-.182-.005-.233-.022-.33-.056-.353-.124-.622-.457-.664-.833-.006-.05-.005-.062-.007-.112v-2.005c.01-1.553 1.346-2.968 2.964-2.999 1.36-.008 2.72-.008 4.08 0 1.555.03 2.954 1.369 2.964 2.999v2.005c0 3.189.01 6.377 0 9.566-.017 1.825-.764 3.614-2.051 4.909l-1.952 1.952v3.588c-.015.77-1.053 1.303-1.672.742-.207-.187-.324-.465-.33-.742v-3.584c-1.08-1.05-2.242-2.048-2.987-3.276-.66-1.088-1.012-2.355-1.016-3.631v-5.521c.011-.256.044-.326.11-.454.282-.555 1.133-.72 1.599-.254.185.186.283.444.293.708 0 1.85-.006 3.7 0 5.55.012 1.299.542 2.579 1.467 3.508l1.535 1.536c.754-.753 1.599-1.455 2.162-2.299.545-.817.838-1.797.841-2.778v-2.515h-3.003c-.736-.014-1.277-.982-.793-1.611.187-.242.485-.384.793-.39h3.003zm-5.001-4.003c-.53.003-1.001.457-1.004 1.004v.997h6.005c0-.626.1-1.305-.285-1.7-.183-.187-.438-.296-.703-.301-1.338-.009-2.675 0-4.013 0zm12.009 0c-.53.003-1 .457-1.004 1.004v.997h6.005c0-.644.096-1.347-.319-1.733-.18-.167-.421-.263-.669-.268-1.337-.009-2.675 0-4.013 0z" fill-rule="nonzero"/></svg>