<svg clip-rule="evenodd" fill-rule="evenodd" height="512" stroke-linejoin="round" stroke-miterlimit="2" viewBox="0 0 24 24" width="512" xmlns="http://www.w3.org/2000/svg"><g id="Icon"><path d="m22.75 6.5c0-1.243-1.007-2.25-2.25-2.25h-17c-1.243 0-2.25 1.007-2.25 2.25s1.007 2.25 2.25 2.25h17c1.243 0 2.25-1.007 2.25-2.25zm-1.5 0c0 .414-.336.75-.75.75h-17c-.414 0-.75-.336-.75-.75 0-.414.336-.75.75-.75h17c.414 0 .75.336.75.75z"/><path d="m3.769 7.834-2.5 11c-.092.403.161.806.565.897.403.092.806-.161.897-.565l2.5-11c.092-.403-.161-.806-.565-.897-.403-.092-.806.161-.897.565z"/><path d="m18.769 8.166 2.5 11c.091.404.494.657.897.565.404-.091.657-.494.565-.897l-2.5-11c-.091-.404-.494-.657-.897-.565-.404.091-.657.494-.565.897z"/><path d="m20 10.25h-16c-.414 0-.75.336-.75.75s.336.75.75.75h16c.414 0 .75-.336.75-.75s-.336-.75-.75-.75z"/></g></svg>