<svg clip-rule="evenodd" fill-rule="evenodd" height="512" stroke-linejoin="round" stroke-miterlimit="2" viewBox="0 0 24 24" width="512" xmlns="http://www.w3.org/2000/svg"><g id="Icon"><path d="m18.074 9.75c-.414 0-.75-.336-.75-.75s.336-.75.75-.75.75.336.75.75-.336.75-.75.75" fill-rule="nonzero"/><path d="m6.074 9.75c-.414 0-.75-.336-.75-.75s.336-.75.75-.75.75.336.75.75-.336.75-.75.75" fill-rule="nonzero"/><path d="m17 14.75c3.176 0 5.75-2.574 5.75-5.75s-2.574-5.75-5.75-5.75h-10c-3.176 0-5.75 2.574-5.75 5.75s2.574 5.75 5.75 5.75zm0-1.5h-10c-2.348 0-4.25-1.902-4.25-4.25s1.902-4.25 4.25-4.25h10c2.348 0 4.25 1.902 4.25 4.25s-1.902 4.25-4.25 4.25z"/><path d="m11.25 14v4c0 .414.336.75.75.75s.75-.336.75-.75v-4c0-.414-.336-.75-.75-.75s-.75.336-.75.75z"/><path d="m15.75 9c0-2.07-1.68-3.75-3.75-3.75s-3.75 1.68-3.75 3.75 1.68 3.75 3.75 3.75 3.75-1.68 3.75-3.75zm-1.5 0c0 1.242-1.008 2.25-2.25 2.25s-2.25-1.008-2.25-2.25 1.008-2.25 2.25-2.25 2.25 1.008 2.25 2.25z"/><path d="m14 20.75c.968 0 1.75-.782 1.75-1.75s-.782-1.75-1.75-1.75h-4c-.968 0-1.75.782-1.75 1.75s.782 1.75 1.75 1.75zm0-1.5h-4c-.138 0-.25-.112-.25-.25s.112-.25.25-.25h4c.138 0 .25.112.25.25s-.112.25-.25.25z"/></g></svg>