<svg clip-rule="evenodd" fill-rule="evenodd" stroke-linejoin="round" stroke-miterlimit="1.414" viewBox="0 0 32 32" xmlns="http://www.w3.org/2000/svg" xmlns:serif="http://www.serif.com/"><path id="world-internet-www" d="m0 0h32v32h-32z" fill="none"/><path d="m15.965 3.001c.051-.003.044-.001.069 0h.008c3.268.015 6.498 1.304 8.869 3.537 2.392 2.254 3.806 5.439 4.018 8.722.044.232.069.471.071.715 0 0-.001.012-.005.033.003.045.004.091.002.138-.006.173-.023.343-.051.51-.068 1.679-.456 3.352-1.195 4.908-2.083 4.388-6.753 7.421-11.709 7.437-.013 0-.026 0-.038 0h-.001c-5.478-.001-10.779-3.754-12.442-9.213-.346-1.139-.529-2.327-.551-3.518-.006-.081-.009-.162-.01-.244 0 0 0-.011.001-.032-.001-.021-.001-.044 0-.066.001-.073.004-.146.01-.219.046-1.91.503-3.811 1.359-5.52 2.127-4.245 6.686-7.134 11.504-7.188h.091zm.096 2c-.032 0-.064 0-.097 0-.028 0-.057 0-.086 0-.099.011-.197.022-.292.042-1.34.272-2.196 1.538-2.791 2.647-1.475 2.746-1.897 5.991-1.779 9.17.046 1.24.192 2.479.454 3.692.889.185 1.8.304 2.709.377 1.111.089 2.229.094 3.342.022l.173-.009c.794.032 1.34 1.143.661 1.747-.369.328-.962.28-1.522.298-3.754.124-7.701-.33-10.814-2.419 1.112 2.354 3.065 4.33 5.456 5.443-.01-.016-.02-.031-.03-.046-.399-.63.032-1.568.833-1.574.012.001.025.001.038.001.117.009.137.015.189.028.781.193 1.014 1.235 1.878 1.933.416.337.913.593 1.454.64.126.001.251 0 .376-.003.068-.008.135-.018.201-.031 1.34-.273 2.196-1.538 2.791-2.648 1.475-2.746 1.897-5.99 1.779-9.17-.046-1.24-.192-2.478-.454-3.692-.889-.185-1.8-.304-2.709-.376-1.111-.089-2.229-.095-3.342-.022l-.173.009c-.561-.023-.676-.23-.812-.421-.417-.588.033-1.528.799-1.58.596-.041 1.191-.059 1.788-.058 3.462.016 7.061.572 9.909 2.451-1.11-2.336-3.069-4.272-5.426-5.396.321.591.013 1.444-.689 1.544-.428.061-.823-.208-1.074-.593-.649-.986-1.514-1.94-2.69-2.003-.017-.001-.034-.002-.05-.003zm9.936 15.524c-.502.326-1.042.615-1.599.864-.704.315-1.433.572-2.175.784-.274.911-.616 1.796-1.032 2.648-.198.405-.42.805-.667 1.187 1.123-.502 2.165-1.19 3.064-2.046 1.02-.974 1.834-2.151 2.409-3.437zm-16.735-8.451c-1.289.443-2.507 1.071-3.468 2.139-.403.447-.73 1.002-.786 1.616-.002.109-.003.217-.002.326.094 1.212 1.141 2.093 2.052 2.68.704.453 1.461.817 2.252 1.108-.455-2.596-.493-5.294-.048-7.869zm13.43-.015c.461 2.603.506 5.293.06 7.863 1.284-.442 2.497-1.069 3.454-2.133.39-.434.709-.967.78-1.559.004-.145.005-.29.004-.434-.115-1.173-1.141-2.045-2.048-2.63-.703-.452-1.459-.816-2.25-1.107zm-11.205-6.078c-1.111.499-2.14 1.178-3.027 2.013-1.039.979-1.869 2.169-2.455 3.471 1.154-.742 2.451-1.261 3.783-1.64.247-.83.551-1.64.914-2.419.226-.487.489-.969.785-1.425z" fill-rule="nonzero"/></svg>