<svg clip-rule="evenodd" fill-rule="evenodd" height="512" stroke-linejoin="round" stroke-miterlimit="2" viewBox="0 0 24 24" width="512" xmlns="http://www.w3.org/2000/svg"><g id="Icon"><circle cx="9" cy="19" r="1"/><path d="m12 19.75h5c.414 0 .75-.336.75-.75s-.336-.75-.75-.75h-5c-.414 0-.75.336-.75.75s.336.75.75.75z"/><path d="m8.75 13.25c0-1.105.895-2 2-2h5v1.75c0 .303.183.577.463.693s.603.052.817-.163l5.5-5.5c.293-.293.293-.767 0-1.06l-5.5-5.5c-.214-.215-.537-.279-.817-.163s-.463.39-.463.693v1.75h-5.75c-2.321 0-4.546.922-6.187 2.563s-2.563 3.866-2.563 6.187v1.5c0 2.321.922 4.546 2.563 6.187s3.866 2.563 6.187 2.563h12c.277 0 .531-.152.661-.396.131-.244.116-.54-.037-.77l-1.723-2.584s1.723-2.584 1.723-2.584c.153-.23.168-.526.037-.77-.13-.244-.384-.396-.661-.396h-11.25c-.53 0-1.039-.211-1.414-.586s-.586-.884-.586-1.414zm-1.5 0c0 .928.369 1.819 1.025 2.475.657.656 1.547 1.025 2.475 1.025h9.849s-1.223 1.834-1.223 1.834c-.168.252-.168.58 0 .832l1.223 1.834h-10.599c-1.923 0-3.767-.764-5.127-2.123-1.359-1.36-2.123-3.204-2.123-5.127 0-.499 0-1.001 0-1.5 0-1.923.764-3.767 2.123-5.127 1.36-1.359 3.204-2.123 5.127-2.123h6.5c.414 0 .75-.336.75-.75v-.689s3.689 3.689 3.689 3.689-3.689 3.689-3.689 3.689v-.689c0-.414-.336-.75-.75-.75 0 0-3.267 0-5.75 0-1.933 0-3.5 1.567-3.5 3.5z"/></g></svg>