<svg clip-rule="evenodd" fill-rule="evenodd" height="512" stroke-linejoin="round" stroke-miterlimit="2" viewBox="0 0 24 24" width="512" xmlns="http://www.w3.org/2000/svg"><g id="Icon"><path d="m20.75 3c0-.464-.184-.909-.513-1.237-.328-.329-.773-.513-1.237-.513h-14c-.464 0-.909.184-1.237.513-.329.328-.513.773-.513 1.237v16c0 .464.184.909.513 1.237.328.329.773.513 1.237.513h14c.464 0 .909-.184 1.237-.513.329-.328.513-.773.513-1.237zm-1.5 0v16c0 .066-.026.13-.073.177s-.111.073-.177.073h-14c-.066 0-.13-.026-.177-.073s-.073-.111-.073-.177v-16c0-.066.026-.13.073-.177s.111-.073.177-.073h14c.066 0 .13.026.177.073s.073.111.073.177z"/><path d="m19.75 20c0-.414-.336-.75-.75-.75h-2.5c-.414 0-.75.336-.75.75v1.5c0 .331.132.649.366.884.235.234.552.366.884.366h1.5c.332 0 .649-.132.884-.366.234-.235.366-.553.366-.884 0-.592 0-1.5 0-1.5zm-1.5 1.25h-1v-.5h1z"/><path d="m8.25 20c0-.414-.336-.75-.75-.75h-2.5c-.414 0-.75.336-.75.75v1.5c0 .331.132.649.366.884.235.234.552.366.884.366h1.5c.332 0 .649-.132.884-.366.234-.235.366-.553.366-.884 0-.592 0-1.5 0-1.5zm-1.5 1.25h-1v-.5h1z"/><path d="m10.25 4c0-.414-.336-.75-.75-.75h-2.5c-.414 0-.75.336-.75.75v4c0 .414.336.75.75.75h2.5c.414 0 .75-.336.75-.75zm-1.5.75v2.5h-1v-2.5z"/><path d="m12.75 4c0-.414-.336-.75-.75-.75h-2.5c-.414 0-.75.336-.75.75v4c0 .414.336.75.75.75h2.5c.414 0 .75-.336.75-.75zm-1.5.75v2.5h-1v-2.5z"/><path d="m15.25 10c0-.414-.336-.75-.75-.75h-2.5c-.414 0-.75.336-.75.75v4c0 .414.336.75.75.75h2.5c.414 0 .75-.336.75-.75zm-1.5.75v2.5h-1v-2.5z"/><path d="m9.75 10c0-.414-.336-.75-.75-.75h-2.5c-.414 0-.75.336-.75.75v4c0 .414.336.75.75.75h2.5c.414 0 .75-.336.75-.75zm-1.5.75v2.5h-1v-2.5z"/><path d="m17.75 16c0-.414-.336-.75-.75-.75h-2.5c-.414 0-.75.336-.75.75v4c0 .414.336.75.75.75h2.5c.414 0 .75-.336.75-.75zm-1.5.75v2.5h-1v-2.5z"/><path d="m7 16.75c-.414 0-.75.336-.75.75v2.5c0 .414.336.75.75.75h4c.414 0 .75-.336.75-.75v-2.5c0-.414-.336-.75-.75-.75zm.75 1.5h2.5v1h-2.5z"/><path d="m15.25 4c0-.414-.336-.75-.75-.75h-2.5c-.414 0-.75.336-.75.75v4c0 .414.336.75.75.75h2.5c.414 0 .75-.336.75-.75zm-1.5.75v2.5h-1v-2.5z"/><path d="m17.75 10c0-.414-.336-.75-.75-.75h-2.5c-.414 0-.75.336-.75.75v4c0 .414.336.75.75.75h2.5c.414 0 .75-.336.75-.75zm-1.5.75v2.5h-1v-2.5z"/><path d="m20 7.25h-16c-.414 0-.75.336-.75.75s.336.75.75.75h16c.414 0 .75-.336.75-.75s-.336-.75-.75-.75z"/><path d="m20 13.25h-16c-.414 0-.75.336-.75.75s.336.75.75.75h16c.414 0 .75-.336.75-.75s-.336-.75-.75-.75z"/></g></svg>