<svg viewBox="0 0 32 32" xmlns="http://www.w3.org/2000/svg"><g id="facebook_fb_face_book" data-name="facebook fb face book"><path d="m24 3h-16a5 5 0 0 0 -5 5v16a5 5 0 0 0 5 5h8a1 1 0 0 0 1-1v-8a1 1 0 0 0 -1-1h-1v-2h1a1 1 0 0 0 1-1v-3.5a2.5 2.5 0 0 1 2.5-2.5h2.5v2h-1a2 2 0 0 0 -2 2v2a1 1 0 0 0 1 1h1.72l-.5 2h-1.22a1 1 0 0 0 -1 1v4a1 1 0 0 0 2 0v-3h1a1 1 0 0 0 1-.76l1-4a1 1 0 0 0 -.18-.86 1 1 0 0 0 -.82-.38h-2v-1h2a1 1 0 0 0 1-1v-4a1 1 0 0 0 -1-1h-3.5a4.51 4.51 0 0 0 -4.5 4.5v2.5h-1a1 1 0 0 0 -1 1v4a1 1 0 0 0 1 1h1v6h-7a3 3 0 0 1 -3-3v-16a3 3 0 0 1 3-3h16a3 3 0 0 1 3 3v16a3 3 0 0 1 -3 3h-4a1 1 0 0 0 0 2h4a5 5 0 0 0 5-5v-16a5 5 0 0 0 -5-5z"/></g></svg>