<svg clip-rule="evenodd" fill-rule="evenodd" height="512" stroke-linejoin="round" stroke-miterlimit="2" viewBox="0 0 24 24" width="512" xmlns="http://www.w3.org/2000/svg"><g id="Icon"><path d="m11.143 16v3c0 .414.336.75.75.75s.75-.336.75-.75v-3c0-.414-.336-.75-.75-.75s-.75.336-.75.75z"/><path d="m10.393 18.25h3c.414 0 .75-.336.75-.75s-.336-.75-.75-.75h-3c-.414 0-.75.336-.75.75s.336.75.75.75z"/><path d="m10.879 5.986c0 .56.455 1.014 1.014 1.014.56 0 1.014-.454 1.014-1.014s-.454-1.014-1.014-1.014c-.559 0-1.014.454-1.014 1.014z"/><path d="m11.893 1.25c-2.347 0-4.25 1.903-4.25 4.25v13c0 2.347 1.903 4.25 4.25 4.25 2.348 0 4.25-1.903 4.25-4.25 0-3.653 0-9.347 0-13 0-2.347-1.902-4.25-4.25-4.25zm0 1.5c1.519 0 2.75 1.231 2.75 2.75v13c0 1.519-1.231 2.75-2.75 2.75-1.518 0-2.75-1.231-2.75-2.75v-13c0-1.519 1.232-2.75 2.75-2.75z"/><path d="m8.52 2.97s-3.837 3.837-6.364 6.364c-.683.683-.683 1.791 0 2.474.891.891 2.099 1.392 3.359 1.392 1.259 0 2.468-.501 3.358-1.392.293-.292.293-.767 0-1.06-.292-.293-.767-.293-1.06 0-.61.609-1.436.952-2.298.952s-1.689-.343-2.298-.952c-.098-.098-.098-.256 0-.354 0 0 6.364-6.364 6.364-6.364.292-.292.292-.768 0-1.06-.293-.293-.768-.293-1.061 0z"/><path d="m15.424 21.03s4.742-4.742 6.42-6.42c.59-.59.681-1.514.219-2.208l-.205-.308c-.358-.535-.98-.83-1.62-.77-.641.061-1.196.468-1.447 1.061-.004.009-.008.019-.012.029-.145.388-.349.768-.724.919-.244.097-.546.081-.924-.045-.22-.073-.461-.04-.654.088l-1.5 1c-.344.23-.437.696-.208 1.04.23.344.696.438 1.04.208l1.214-.809c.632.144 1.156.084 1.59-.09.757-.303 1.267-.984 1.564-1.766.037-.078.114-.133.202-.141.092-.009.18.033.231.11 0 0 .205.306.205.306.066.099.053.231-.032.315-1.678 1.678-6.42 6.421-6.42 6.421-.293.292-.293.768 0 1.06.293.293.768.293 1.061 0z"/></g></svg>