<svg clip-rule="evenodd" fill-rule="evenodd" height="512" stroke-linejoin="round" stroke-miterlimit="2" viewBox="0 0 24 24" width="512" xmlns="http://www.w3.org/2000/svg"><g id="Icon"><path d="m11.724 16.25c0-2.622-2.128-4.75-4.75-4.75s-4.75 2.128-4.75 4.75 2.128 4.75 4.75 4.75 4.75-2.128 4.75-4.75zm-1.5 0c0 1.794-1.456 3.25-3.25 3.25s-3.25-1.456-3.25-3.25 1.456-3.25 3.25-3.25 3.25 1.456 3.25 3.25z"/><path d="m14.631 17.388c.068-.364.093-.751.093-1.138 0-4.285-3.466-7.75-7.75-7.75-.381 0-.751.023-1.121.09-1.719.235-3.254 1.052-4.414 2.235-.29.295-.286.77.01 1.06.295.29.77.286 1.06-.01.936-.953 2.174-1.615 3.565-1.802.011-.001.023-.003.034-.005.286-.052.572-.068.866-.068 3.455 0 6.25 2.795 6.25 6.25 0 .293-.016.586-.067.862-.077.407.192.799.599.875.406.076.799-.192.875-.599z"/><path d="m22.724 17.25c0-2.07-1.68-3.75-3.75-3.75s-3.75 1.68-3.75 3.75 1.68 3.75 3.75 3.75 3.75-1.68 3.75-3.75zm-1.5 0c0 1.242-1.008 2.25-2.25 2.25s-2.25-1.008-2.25-2.25 1.008-2.25 2.25-2.25 2.25 1.008 2.25 2.25z"/><path d="m6.724 9.33v-4.83h5.713s1.707 5.014 1.707 5.014c.133.392.56.601.952.468s.601-.56.468-.952l-1.88-5.522c-.104-.304-.389-.508-.71-.508h-7c-.414 0-.75.336-.75.75v5.58c0 .414.336.75.75.75s.75-.336.75-.75z"/><path d="m4.974 4.5h9.5c.414 0 .75-.336.75-.75s-.336-.75-.75-.75h-9.5c-.414 0-.75.336-.75.75s.336.75.75.75z"/><path d="m6.974 10h11.942c1.294 0 2.341 1.053 2.334 2.347 0 0-.026 4.899-.026 4.899-.002.414.332.752.746.754s.752-.332.754-.746l.026-4.899c.011-2.126-1.708-3.855-3.834-3.855h-11.942c-.414 0-.75.336-.75.75s.336.75.75.75z"/><path d="m15.974 16.5h-2.08c-.414 0-.75.336-.75.75s.336.75.75.75h2.08c.414 0 .75-.336.75-.75s-.336-.75-.75-.75z"/><path d="m19.724 9.25v-1c0-.69.56-1.25 1.25-1.25.414 0 .75-.336.75-.75s-.336-.75-.75-.75c-1.518 0-2.75 1.232-2.75 2.75v1c0 .414.336.75.75.75s.75-.336.75-.75z"/></g></svg>