<svg clip-rule="evenodd" fill-rule="evenodd" height="512" stroke-linejoin="round" stroke-miterlimit="2" viewBox="0 0 24 24" width="512" xmlns="http://www.w3.org/2000/svg"><g id="Icon"><path d="m7.416 11.072c1.4 2.261 3.251 4.112 5.512 5.511.557-.463 1.552-1.293 2.134-1.777.489-.407 1.16-.517 1.75-.288 1.386.532 2.773.797 4.16.786.466-.007.915.172 1.248.497.335.328.524.778.524 1.243.006 1.106.006 2.833.006 3.899 0 .93-.726 1.697-1.654 1.748l-1.055.058c-.014.001-.027.001-.041.001-10.348 0-18.75-8.402-18.75-18.75 0-.014 0-.027.001-.041l.058-1.055c.051-.928.818-1.654 1.748-1.654h3.931c.96.001 1.741.775 1.749 1.727.026 1.418.298 2.835.782 4.249.2.579.083 1.221-.308 1.69-.482.58-1.325 1.593-1.795 2.156zm4.889 6.888c-2.591-1.567-4.698-3.674-6.266-6.264l-.002-.003c-.274-.457-.228-1.036.112-1.444.433-.519 1.385-1.661 1.908-2.291.056-.067.073-.159.044-.241l-.001-.003c-.536-1.57-.834-3.139-.863-4.709 0-.002 0-.005 0-.007-.001-.137-.113-.248-.25-.248h-3.93c-.133 0-.243.104-.25.236 0 0-.057 1.034-.057 1.047.018 9.499 7.73 17.206 17.23 17.217l1.034-.057c.132-.007.236-.117.236-.25 0-1.064 0-2.787-.006-3.891v-.004c0-.066-.027-.129-.073-.175-.047-.045-.111-.071-.176-.069-.004 0-.007 0-.011 0-1.57.012-3.14-.283-4.709-.885l-.003-.001c-.085-.033-.181-.017-.251.041-.634.528-1.757 1.464-2.271 1.891-.408.34-.987.385-1.443.112z"/></g></svg>