<svg clip-rule="evenodd" fill-rule="evenodd" height="512" stroke-linejoin="round" stroke-miterlimit="2" viewBox="0 0 24 24" width="512" xmlns="http://www.w3.org/2000/svg"><g id="Icon"><path d="m17.067 9.883c.533.71.85 1.593.85 2.549 0 .957-.317 1.839-.85 2.55-.249.331-.182.801.149 1.05s.801.182 1.05-.149c.722-.962 1.151-2.157 1.151-3.451s-.429-2.489-1.151-3.45c-.249-.331-.719-.398-1.05-.149-.331.248-.398.719-.149 1.05z"/><path d="m19.733 7.883c.953 1.268 1.517 2.843 1.517 4.549 0 1.707-.564 3.282-1.517 4.55-.249.331-.182.801.149 1.05s.802.182 1.05-.149c1.141-1.519 1.818-3.406 1.818-5.451 0-2.044-.677-3.931-1.818-5.45-.248-.331-.719-.398-1.05-.149-.331.248-.398.719-.149 1.05z"/><path d="m14.25 5v13c0 .862-.342 1.689-.952 2.298-.609.61-1.436.952-2.298.952-1.588 0-3.412 0-5 0-.862 0-1.689-.342-2.298-.952-.61-.609-.952-1.436-.952-2.298 0-5.026 0-13 0-13 0-.414-.336-.75-.75-.75s-.75.336-.75.75v13c0 1.26.5 2.468 1.391 3.359s2.099 1.391 3.359 1.391h5c1.26 0 2.468-.5 3.359-1.391s1.391-2.099 1.391-3.359c0-5.026 0-13 0-13 0-.414-.336-.75-.75-.75s-.75.336-.75.75z"/><path d="m15 13.75h-13c-.414 0-.75.336-.75.75s.336.75.75.75h13c.414 0 .75-.336.75-.75s-.336-.75-.75-.75z"/><path d="m5 18.75h1c.414 0 .75-.336.75-.75s-.336-.75-.75-.75h-1c-.414 0-.75.336-.75.75s.336.75.75.75z"/><path d="m8.5 18.75h1c.414 0 .75-.336.75-.75s-.336-.75-.75-.75h-1c-.414 0-.75.336-.75.75s.336.75.75.75z"/><path d="m8.5 1.25c-2.318 0-4.37.542-5.645 1.344-1.051.662-1.605 1.524-1.605 2.406s.554 1.744 1.605 2.406c1.275.802 3.327 1.344 5.645 1.344s4.37-.542 5.645-1.344c1.051-.662 1.605-1.524 1.605-2.406s-.554-1.744-1.605-2.406c-1.275-.802-3.327-1.344-5.645-1.344zm0 1.5c1.987 0 3.754.426 4.846 1.113.527.333.904.694.904 1.137s-.377.804-.904 1.137c-1.092.687-2.859 1.113-4.846 1.113s-3.754-.426-4.846-1.113c-.527-.333-.904-.694-.904-1.137s.377-.804.904-1.137c1.092-.687 2.859-1.113 4.846-1.113z"/></g></svg>