<svg clip-rule="evenodd" fill-rule="evenodd" height="512" stroke-linejoin="round" stroke-miterlimit="2" viewBox="0 0 24 24" width="512" xmlns="http://www.w3.org/2000/svg"><g id="Icon"><path d="m12 2.75c-5.105 0-9.25 4.145-9.25 9.25s4.145 9.25 9.25 9.25 9.25-4.145 9.25-9.25-4.145-9.25-9.25-9.25zm0 1.5c4.277 0 7.75 3.473 7.75 7.75s-3.473 7.75-7.75 7.75-7.75-3.473-7.75-7.75 3.473-7.75 7.75-7.75z"/><path d="m13.05 13.5c0 .199-.079.39-.22.53-.14.141-.331.22-.53.22h-1.233c-.168 0-.277-.18-.277-.18-.256-.326-.728-.382-1.054-.126-.325.256-.381.728-.126 1.053 0 0 .624.753 1.457.753h1.233c.597 0 1.169-.237 1.591-.659s.659-.994.659-1.591-.237-1.169-.659-1.591-.994-.659-1.591-.659h-.6c-.199 0-.39-.079-.53-.22-.141-.14-.22-.331-.22-.53s.079-.39.22-.53c.14-.141.331-.22.53-.22h1.233c.168 0 .277.18.277.18.256.326.728.382 1.054.126.325-.256.381-.728.126-1.053 0 0-.624-.753-1.457-.753h-1.233c-.597 0-1.169.237-1.591.659s-.659.994-.659 1.591.237 1.169.659 1.591.994.659 1.591.659h.6c.199 0 .39.079.53.22.141.14.22.331.22.53z"/><path d="m12.75 9v-1c0-.414-.336-.75-.75-.75s-.75.336-.75.75v1c0 .414.336.75.75.75s.75-.336.75-.75z"/><path d="m12.75 16v-1c0-.414-.336-.75-.75-.75s-.75.336-.75.75v1c0 .414.336.75.75.75s.75-.336.75-.75z"/><path d="m22 11.25h-3c-.414 0-.75.336-.75.75s.336.75.75.75h3c.414 0 .75-.336.75-.75s-.336-.75-.75-.75z"/><path d="m11.25 2v3c0 .414.336.75.75.75s.75-.336.75-.75v-3c0-.414-.336-.75-.75-.75s-.75.336-.75.75z"/><path d="m5 11.25h-3c-.414 0-.75.336-.75.75s.336.75.75.75h3c.414 0 .75-.336.75-.75s-.336-.75-.75-.75z"/><path d="m11.25 19v3c0 .414.336.75.75.75s.75-.336.75-.75v-3c0-.414-.336-.75-.75-.75s-.75.336-.75.75z"/></g></svg>