<svg clip-rule="evenodd" fill-rule="evenodd" height="512" stroke-linejoin="round" stroke-miterlimit="2" viewBox="0 0 24 24" width="512" xmlns="http://www.w3.org/2000/svg"><g id="Icon"><path d="m2.53 16.53 4-4c.293-.292.293-.768 0-1.06-.292-.293-.768-.293-1.06 0l-4 4c-.293.292-.293.768 0 1.06.292.293.768.293 1.06 0z"/><path d="m16.18 4.24c.572.573.987 1.322 1.149 2.114l.707 3.436c.1.62-.085 1.252-.504 1.719l-3.092 3.422c-.204.229-.483.372-.786.403l-.893.097c-1.142.124-2.208.636-3.02 1.449l-3.582 3.59c-.292.293-.292.769.001 1.061s.769.292 1.061-.001l3.582-3.59c.57-.571 1.318-.931 2.12-1.017l.889-.097c.671-.069 1.292-.386 1.748-.897-.004.004 3.086-3.416 3.086-3.416.001-.001.002-.002.002-.002.727-.81 1.045-1.907.866-2.98l-.715-3.479c-.222-1.076-.781-2.095-1.559-2.872-.602-.603-1.402-.93-2.24-.93s-1.638.327-2.24.93c0 0-1.79 1.79-1.79 1.79-.293.292-.293.768 0 1.06.292.293.768.293 1.06 0l1.79-1.79c.318-.317.738-.49 1.18-.49s.862.173 1.18.49z"/><path d="m4.291 11.352.753.753c1.08 1.079 2.832 1.079 3.912 0 0 0 2.764-2.764 2.764-2.764 1.293-1.293 1.293-3.389 0-4.682 0 0-1.662-1.662-1.662-1.662-.479-.479-1.128-.747-1.804-.747-.86 0-1.66.432-2.132 1.151l-2.289 3.487c-.38.581-.583 1.257-.583 1.95 0 .943.376 1.848 1.041 2.514zm1.061-1.061c-.385-.385-.602-.908-.602-1.453 0-.401.118-.792.338-1.128 0 0 2.288-3.486 2.288-3.486.194-.296.524-.474.878-.474.279 0 .546.11.743.308 0 0 1.662 1.662 1.662 1.662.707.707.707 1.853 0 2.56 0 0-2.764 2.764-2.764 2.764-.494.494-1.296.494-1.79 0 0 0-.753-.753-.753-.753z"/><path d="m11.26 16.96 4.57 4.57c.293.293.768.293 1.061 0 .292-.293.292-.768 0-1.061l-4.57-4.57c-.293-.292-.768-.292-1.061 0-.293.293-.293.768 0 1.061z"/><path d="m22.53 15.39-3.91-3.91c-.292-.293-.768-.293-1.06 0-.293.292-.293.768 0 1.06l3.91 3.91c.292.293.768.293 1.06 0 .293-.292.293-.768 0-1.06z"/><path d="m15 2.25h-7c-.414 0-.75.336-.75.75s.336.75.75.75h7c.414 0 .75-.336.75-.75s-.336-.75-.75-.75z"/></g></svg>