<svg clip-rule="evenodd" fill-rule="evenodd" height="512" stroke-linejoin="round" stroke-miterlimit="2" viewBox="0 0 24 24" width="512" xmlns="http://www.w3.org/2000/svg"><g id="Icon"><path d="m20.24 7.061c.007-.103.01-.206.01-.311 0-2.622-2.128-4.75-4.75-4.75s-4.75 2.128-4.75 4.75c0 .105.003.209.01.312-1.493.8-2.51 2.376-2.51 4.188 0 2.622 2.128 4.75 4.75 4.75.917 0 1.774-.26 2.5-.711.726.451 1.583.711 2.5.711 2.622 0 4.75-2.128 4.75-4.75 0-1.812-1.017-3.388-2.51-4.189zm-1.549.309c-.069.358.128.713.468.843 1.222.467 2.091 1.652 2.091 3.037 0 1.794-1.456 3.25-3.25 3.25-.768 0-1.474-.267-2.031-.713-.274-.22-.664-.22-.938 0-.557.446-1.263.713-2.031.713-1.794 0-3.25-1.456-3.25-3.25 0-1.385.869-2.57 2.091-3.037.34-.13.537-.485.468-.843-.039-.201-.059-.408-.059-.62 0-1.794 1.456-3.25 3.25-3.25s3.25 1.456 3.25 3.25c0 .212-.02.419-.059.62z"/><path d="m9.773 3.927c-.705-.276-1.471-.427-2.273-.427-3.449 0-6.25 2.801-6.25 6.25s2.801 6.25 6.25 6.25c.388 0 .767-.035 1.136-.103.407-.075.677-.466.602-.874-.075-.407-.467-.676-.874-.601-.28.051-.569.078-.864.078-2.622 0-4.75-2.128-4.75-4.75s2.128-4.75 4.75-4.75c.609 0 1.192.115 1.727.324.385.151.821-.04.971-.425.151-.386-.039-.821-.425-.972z"/><path d="m14.75 8.25v13c0 .414.336.75.75.75s.75-.336.75-.75v-13c0-.414-.336-.75-.75-.75s-.75.336-.75.75z"/><path d="m6.25 8.75v12.5c0 .414.336.75.75.75s.75-.336.75-.75v-12.5c0-.414-.336-.75-.75-.75s-.75.336-.75.75z"/><path d="m21 20.5h-18c-.414 0-.75.336-.75.75s.336.75.75.75h18c.414 0 .75-.336.75-.75s-.336-.75-.75-.75z"/><path d="m15.886 12.107-2.5-1.5c-.355-.213-.816-.098-1.029.257s-.098.816.257 1.029l2.5 1.5c.355.213.816.098 1.029-.257s.098-.816-.257-1.029z"/><path d="m7.469 11.664-2.5-2c-.324-.258-.796-.206-1.055.117-.258.324-.206.796.117 1.055l2.5 2c.324.258.796.206 1.055-.117.258-.324.206-.796-.117-1.055z"/><path d="m15.886 11.393 2.5-1.5c.355-.213.47-.674.257-1.029s-.674-.47-1.029-.257l-2.5 1.5c-.355.213-.47.674-.257 1.029s.674.47 1.029.257z"/></g></svg>