<svg clip-rule="evenodd" fill-rule="evenodd" height="512" stroke-linejoin="round" stroke-miterlimit="2" viewBox="0 0 24 24" width="512" xmlns="http://www.w3.org/2000/svg"><g id="Icon"><path d="m18.508 12.389c.24.21.587.244.864.086s.423-.474.366-.787c-.674-3.661-3.884-6.438-7.738-6.438s-7.064 2.777-7.738 6.438c-.057.313.089.629.366.787s.624.124.864-.086c.337-.292.777-.47 1.258-.47s.921.178 1.258.47c.282.246.702.246.984 0 .337-.292.777-.47 1.258-.47s.921.178 1.258.47c.282.246.702.246.984 0 .337-.292.777-.47 1.258-.47s.921.178 1.258.47c.282.246.702.246.984 0 .337-.292.777-.47 1.258-.47s.921.178 1.258.47zm-.72-1.928c-.175-.028-.355-.042-.538-.042-.64 0-1.238.176-1.751.482-.511-.306-1.11-.482-1.749-.482-.64 0-1.238.176-1.751.482-.511-.306-1.11-.482-1.749-.482-.64 0-1.238.176-1.751.482-.511-.306-1.11-.482-1.749-.482-.183 0-.362.014-.537.042 1.006-2.189 3.22-3.711 5.787-3.711s4.781 1.522 5.788 3.712z"/><path d="m22.75 4c0-.729-.29-1.429-.805-1.945-.516-.515-1.216-.805-1.945-.805-3.832 0-12.168 0-16 0-.729 0-1.429.29-1.945.805-.515.516-.805 1.216-.805 1.945v16c0 .729.29 1.429.805 1.945.516.515 1.216.805 1.945.805h16c.729 0 1.429-.29 1.945-.805.515-.516.805-1.216.805-1.945zm-1.5 0v16c0 .332-.132.649-.366.884-.235.234-.552.366-.884.366h-16c-.332 0-.649-.132-.884-.366-.234-.235-.366-.552-.366-.884v-16c0-.332.132-.649.366-.884.235-.234.552-.366.884-.366h16c.332 0 .649.132.884.366.234.235.366.552.366.884z"/><path d="m11.25 11.823v6.177c0 .199-.079.39-.22.53-.14.141-.331.22-.53.22-.001 0-.001 0-.002 0-.413 0-.748-.335-.748-.748 0-.414-.336-.75-.75-.75s-.75.336-.75.75c0 1.242 1.006 2.248 2.248 2.248h.002c.597 0 1.169-.237 1.591-.659s.659-.994.659-1.591c0-2.234 0-6.177 0-6.177 0-.413-.336-.75-.75-.75s-.75.337-.75.75z"/><path d="m12.75 6v-1.5c0-.414-.336-.75-.75-.75s-.75.336-.75.75v1.5c0 .414.336.75.75.75s.75-.336.75-.75z"/></g></svg>