<svg clip-rule="evenodd" fill-rule="evenodd" height="512" stroke-linejoin="round" stroke-miterlimit="2" viewBox="0 0 24 24" width="512" xmlns="http://www.w3.org/2000/svg"><g id="Icon"><path d="m19.732 9.631c.315.9.485 1.868.485 2.875 0 4.82-3.913 8.734-8.733 8.734-4.821 0-8.734-3.914-8.734-8.734s3.913-8.734 8.734-8.734c1.037 0 2.032.181 2.955.514.389.14.819-.063.959-.452.141-.39-.062-.82-.451-.96-1.082-.389-2.248-.602-3.463-.602-5.648 0-10.234 4.586-10.234 10.234s4.586 10.234 10.234 10.234 10.233-4.586 10.233-10.234c0-1.18-.2-2.314-.568-3.37-.137-.391-.565-.597-.956-.461-.391.137-.597.565-.461.956z"/><path d="m16.185 10.672c.222.568.344 1.187.344 1.834 0 2.785-2.261 5.045-5.045 5.045-2.785 0-5.046-2.26-5.046-5.045s2.261-5.046 5.046-5.046c.647 0 1.265.122 1.834.345.385.15.821-.04.972-.426.15-.385-.04-.821-.426-.971-.738-.289-1.541-.448-2.38-.448-3.613 0-6.546 2.933-6.546 6.546 0 3.612 2.933 6.545 6.546 6.545 3.612 0 6.545-2.933 6.545-6.545 0-.84-.158-1.643-.447-2.381-.151-.385-.586-.576-.972-.425-.385.151-.576.586-.425.972z"/><path d="m13.33 12.883c-.175.86-.936 1.507-1.846 1.507-1.04 0-1.885-.844-1.885-1.884 0-.911.648-1.672 1.507-1.847.406-.082.668-.478.586-.884-.083-.406-.479-.668-.885-.586-1.544.314-2.708 1.681-2.708 3.317 0 1.868 1.517 3.384 3.385 3.384 1.636 0 3.002-1.164 3.316-2.708.083-.405-.18-.802-.585-.884-.406-.083-.802.18-.885.585z"/><path d="m12.014 13.057 6.418-6.418c.293-.293.293-.768 0-1.061-.292-.292-.768-.292-1.06 0l-6.419 6.419c-.292.292-.292.768 0 1.06.293.293.768.293 1.061 0z"/><path d="m22.53 4.776c.196-.195.268-.483.188-.748-.08-.264-.3-.463-.571-.518l-1.372-.274s-.275-1.373-.275-1.373c-.054-.271-.253-.49-.518-.57s-.552-.008-.748.187l-2.235 2.235c-.177.178-.254.432-.205.678l.372 1.863c.06.297.292.529.589.588l1.863.373c.245.049.5-.028.677-.206zm-2.051-.07-.961.961s-.979-.196-.979-.196-.195-.979-.195-.979.96-.96.96-.96.098.488.098.488c.059.297.291.529.588.589z"/></g></svg>