<svg clip-rule="evenodd" fill-rule="evenodd" stroke-linejoin="round" stroke-miterlimit="2" viewBox="0 0 32 32" xmlns="http://www.w3.org/2000/svg" xmlns:serif="http://www.serif.com/"><path id="atom-science-molecule" d="m0 0h32v32h-32z" fill="none"/><path d="m20.677 11.096c-.533-.813-.793-1.804-.614-2.806.322-1.801 1.992-3.258 3.887-3.294h.103c2.26.043 4.234 2.255 3.912 4.56-.265 1.887-2.047 3.443-3.963 3.443-.654 0-1.288-.187-1.851-.51-.299.305-.597.609-.91.896.306.478.532 1.011.652 1.578.252 1.193.005 2.458-.602 3.516l1.463 1.247c.636-.441 1.396-.709 2.197-.725h.103c2.256.043 4.236 2.242 3.911 4.56-.264 1.887-2.046 3.443-3.963 3.443-2.306 0-4.365-2.326-3.939-4.708.067-.375.193-.735.366-1.07l-1.445-1.231c-.332.259-.699.475-1.094.637-1.22.498-2.614.423-3.827-.097l-1.864 2.177c.592.806.905 1.816.76 2.85-.264 1.887-2.046 3.443-3.963 3.443-2.305 0-4.365-2.326-3.939-4.709.323-1.801 1.992-3.258 3.888-3.294h.103c.571.011 1.124.16 1.627.414l1.718-2.007c-.54-.543-.959-1.212-1.189-1.981-.373-1.255-.165-2.609.457-3.749-.616-.575-1.222-1.161-1.834-1.739-.573-.558-.254-1.729.702-1.728.239.007.469.097.649.253.594.544 1.176 1.102 1.759 1.657.8-.663 1.805-1.09 2.934-1.122.053-.002.107-.002.16-.002.996.01 1.968.346 2.784.913.286-.273.574-.544.862-.815zm-10.707 11.907c-1.325.025-2.391 1.594-1.777 2.867.704 1.461 3.481 1.4 3.781-.561.175-1.141-.762-2.314-2.004-2.306zm15.006-2.001c-1.326.025-2.391 1.594-1.778 2.867.705 1.461 3.482 1.401 3.782-.561.174-1.141-.757-2.314-2.004-2.306zm-7.996-8.003c-1.366.013-2.644 1.046-2.921 2.396-.352 1.716 1.114 3.595 2.921 3.606 1.3.008 2.547-.914 2.906-2.18.493-1.732-.857-3.765-2.809-3.821-.032-.001-.065-.001-.097-.001zm-9.933-10.004c2.257.043 4.236 2.242 3.911 4.56-.264 1.887-2.046 3.443-3.963 3.443-2.305 0-4.365-2.326-3.939-4.709.322-1.801 1.992-3.258 3.888-3.294zm16.929 4.002c-1.326.025-2.392 1.593-1.778 2.866.705 1.462 3.481 1.401 3.781-.56.175-1.14-.757-2.314-2.003-2.306zm-17.007-2.001c-1.326.025-2.391 1.594-1.778 2.867.705 1.461 3.482 1.4 3.782-.561.175-1.141-.762-2.314-2.004-2.306z"/></svg>