<svg clip-rule="evenodd" fill-rule="evenodd" height="512" stroke-linejoin="round" stroke-miterlimit="2" viewBox="0 0 24 24" width="512" xmlns="http://www.w3.org/2000/svg"><g id="Icon"><path d="m2.75 8v-4c0-.69.56-1.25 1.25-1.25h2.5c.414 0 .75-.336.75-.75s-.336-.75-.75-.75c0 0-1.298 0-2.5 0-1.519 0-2.75 1.231-2.75 2.75v4c0 .414.336.75.75.75s.75-.336.75-.75z"/><path d="m21.25 13v7c0 .69-.56 1.25-1.25 1.25h-5c-.414 0-.75.336-.75.75s.336.75.75.75h5c1.519 0 2.75-1.231 2.75-2.75 0-2.652 0-7 0-7 0-.414-.336-.75-.75-.75s-.75.336-.75.75z"/><path d="m6.752 14.53c-3.036 0-5.502 2.466-5.502 5.503 0 .779.491 1.458 1.394 1.925.997.516 2.551.792 4.108.792 1.558 0 3.112-.276 4.109-.792.903-.467 1.394-1.146 1.394-1.925 0-3.037-2.466-5.503-5.503-5.503zm0 1.5c2.209 0 4.003 1.794 4.003 4.003 0 .272-.267.429-.583.593-.828.428-2.126.624-3.42.624-1.293 0-2.591-.196-3.419-.624-.316-.164-.583-.321-.583-.593 0-2.209 1.793-4.003 4.002-4.003z"/><path d="m6.752 9.25c-1.871 0-3.39 1.519-3.39 3.39s1.519 3.39 3.39 3.39 3.391-1.519 3.391-3.39-1.52-3.39-3.391-3.39zm0 1.5c1.044 0 1.891.847 1.891 1.89s-.847 1.89-1.891 1.89c-1.043 0-1.89-.847-1.89-1.89s.847-1.89 1.89-1.89z"/><path d="m19.25 7.5c0-1.181 0-2.819 0-4 0-.597-.237-1.169-.659-1.591s-.994-.659-1.591-.659c-1.549 0-3.951 0-5.5 0-.597 0-1.169.237-1.591.659s-.659.994-.659 1.591v4c0 .597.237 1.169.659 1.591s.994.659 1.591.659h5.5c.597 0 1.169-.237 1.591-.659s.659-.994.659-1.591zm-1.5-4v4c0 .199-.079.39-.22.53-.14.141-.331.22-.53.22-1.549 0-3.951 0-5.5 0-.199 0-.39-.079-.53-.22-.141-.14-.22-.331-.22-.53v-4c0-.199.079-.39.22-.53.14-.141.331-.22.53-.22h5.5c.199 0 .39.079.53.22.141.14.22.331.22.53z"/><path d="m22.75 8.242c0-1.346 0-4.138 0-5.484 0-.42-.211-.812-.562-1.043-.351-.232-.794-.271-1.18-.106-1.021.438-2.803 1.202-2.803 1.202-.276.118-.455.389-.455.689v4c0 .3.179.571.455.689 0 0 1.782.764 2.803 1.202.386.165.829.126 1.18-.106.351-.231.562-.623.562-1.043zm-1.5-5.105v4.726l-2-.858v-3.01z"/></g></svg>