<svg clip-rule="evenodd" fill-rule="evenodd" stroke-linejoin="round" stroke-miterlimit="1.414" viewBox="0 0 32 32" xmlns="http://www.w3.org/2000/svg" xmlns:serif="http://www.serif.com/"><path id="house-home-dashboard-landing" d="m0 0h32v32h-32z" fill="none"/><path d="m20.198 14.968c.462.108.797.511.819.986v11.039c1.013 0 2.025.019 3.037 0 .513-.017.961-.464.977-.977.082-4.321.087-8.643 0-12.964-.009-.266-.125-.523-.319-.707-2.64-2.428-5.336-4.797-8.066-7.124-.362-.301-.928-.304-1.293 0-2.73 2.327-5.425 4.696-8.066 7.124-.193.183-.31.441-.319.707-.087 4.32-.08 8.642 0 12.962.016.518.467.976 1.006.979h8.026c.084.004.106.002.189.018.645.124 1.039.991.628 1.568-.185.259-.496.406-.817.421h-8.032c-1.564-.01-2.977-1.355-3.007-2.973-.027-4.317 0-8.634 0-12.951.005-.836.369-1.658.987-2.226 2.679-2.398 5.376-4.777 8.085-7.141 1.088-.928 2.804-.963 3.933 0 2.699 2.356 5.372 4.744 8.057 7.116.624.558.998 1.375 1.015 2.214.029 4.318 0 8.636 0 12.954-.01 1.578-1.354 2.997-3.007 3.007h-4.017c-.539-.025-.978-.452-1.004-1.004v-11.038h-6.021v7.024c-.037.771-1.031 1.304-1.661.759-.169-.147-.286-.349-.328-.569-.016-.083-.014-.105-.018-.19v-8.028c.025-.539.452-.978 1.003-1.003h8.029s.085.003.184.017z" fill-rule="nonzero"/></svg>