<svg clip-rule="evenodd" fill-rule="evenodd" height="512" stroke-linejoin="round" stroke-miterlimit="2" viewBox="0 0 24 24" width="512" xmlns="http://www.w3.org/2000/svg"><g id="Icon"><path d="m20.24 9.242c.007-.103.01-.207.01-.311 0-2.622-2.128-4.75-4.75-4.75s-4.75 2.128-4.75 4.75c0 .104.003.208.01.311-1.493.8-2.51 2.377-2.51 4.189 0 2.621 2.128 4.75 4.75 4.75.917 0 1.774-.261 2.5-.712.726.451 1.583.712 2.5.712 2.622 0 4.75-2.129 4.75-4.75 0-1.812-1.017-3.388-2.51-4.189zm-1.549.309c-.069.357.128.713.468.843 1.222.467 2.091 1.651 2.091 3.037 0 1.793-1.456 3.25-3.25 3.25-.768 0-1.474-.267-2.031-.714-.274-.22-.664-.22-.938 0-.557.447-1.263.714-2.031.714-1.794 0-3.25-1.457-3.25-3.25 0-1.386.869-2.57 2.091-3.037.34-.13.537-.486.468-.843-.039-.201-.059-.408-.059-.62 0-1.794 1.456-3.25 3.25-3.25s3.25 1.456 3.25 3.25c0 .212-.02.419-.059.62z"/><path d="m14.75 10.431v11c0 .414.336.75.75.75s.75-.336.75-.75v-11c0-.414-.336-.75-.75-.75s-.75.336-.75.75z"/><path d="m5.75 8.931v12.5c0 .414.336.75.75.75s.75-.336.75-.75v-12.5c0-.414-.336-.75-.75-.75s-.75.336-.75.75z"/><path d="m21 20.681h-18c-.414 0-.75.336-.75.75s.336.75.75.75h18c.414 0 .75-.336.75-.75s-.336-.75-.75-.75z"/><path d="m15.886 14.287-2.5-1.5c-.355-.213-.816-.097-1.029.258s-.098.816.257 1.029l2.5 1.5c.355.213.816.097 1.029-.258.213-.354.098-.816-.257-1.029z"/><path d="m6.835 12.76-2-1c-.37-.185-.821-.035-1.006.335s-.035.821.336 1.006l2 1c.37.186.821.035 1.006-.335s.035-.821-.336-1.006z"/><path d="m15.886 13.574 2.5-1.5c.355-.213.47-.674.257-1.029s-.674-.471-1.029-.258l-2.5 1.5c-.355.213-.47.675-.257 1.029.213.355.674.471 1.029.258z"/><path d="m7.494 16.862c-.342.294-.654.51-.89.656-.068.036-.142.04-.208.015-1.076-.681-3.646-2.746-3.646-7.102 0-4.365 2.58-6.429 3.649-7.09.066-.028.13-.027.187-.003.709.431 2.084 1.475 2.932 3.395.167.379.61.551.989.384.378-.167.55-.611.383-.989-1.029-2.331-2.71-3.582-3.545-4.085-.011-.007-.023-.013-.034-.02-.504-.268-1.107-.272-1.613-.009-.016.008-.03.016-.045.025-1.24.755-4.403 3.171-4.403 8.392 0 5.2 3.139 7.617 4.379 8.392.017.011.034.021.052.03.526.273 1.156.261 1.67-.034.007-.004.014-.008.02-.012.29-.178.677-.442 1.102-.808.313-.27.349-.744.079-1.058-.27-.313-.744-.349-1.058-.079z"/></g></svg>