<svg clip-rule="evenodd" fill-rule="evenodd" height="512" stroke-linejoin="round" stroke-miterlimit="2" viewBox="0 0 24 24" width="512" xmlns="http://www.w3.org/2000/svg"><g id="Icon"><path d="m18.5 11.25c.69 0 1.25.56 1.25 1.25v2c0 .332-.132.649-.366.884-.235.234-.552.366-.884.366h-2.5c-.066 0-.13.026-.177.073s-.073.111-.073.177v5.5c0 .69-.56 1.25-1.25 1.25h-2c-.332 0-.649-.132-.884-.366-.234-.235-.366-.552-.366-.884v-6.5c0-.995.395-1.948 1.098-2.652.704-.703 1.657-1.098 2.652-1.098zm-5.75 10h1.5v-5.25c0-.464.184-.909.513-1.237.328-.329.773-.513 1.237-.513h2.25v-1.5h-3.25c-.597 0-1.169.237-1.591.659s-.659.994-.659 1.591z"/><path d="m5.5 11.25h3.5c.995 0 1.948.395 2.652 1.098.703.704 1.098 1.657 1.098 2.652v6.5c0 .332-.132.649-.366.884-.235.234-.552.366-.884.366h-2c-.69 0-1.25-.56-1.25-1.25v-5.5c0-.066-.026-.13-.073-.177s-.111-.073-.177-.073h-2.5c-.332 0-.649-.132-.884-.366-.234-.235-.366-.552-.366-.884v-2c0-.69.56-1.25 1.25-1.25zm.25 3h2.25c.464 0 .909.184 1.237.513.329.328.513.773.513 1.237v5.25h1.5v-6.25c0-.597-.237-1.169-.659-1.591s-.994-.659-1.591-.659h-3.25z"/><path d="m19 14.25c-.414 0-.75-.336-.75-.75s.336-.75.75-.75h3c.414 0 .75.336.75.75s-.336.75-.75.75z"/><path d="m5 12.75c.414 0 .75.336.75.75s-.336.75-.75.75h-3c-.414 0-.75-.336-.75-.75s.336-.75.75-.75z"/><path d="m6.75 1.25c2.484 0 4.5 2.016 4.5 4.5s-2.016 4.5-4.5 4.5-4.5-2.016-4.5-4.5 2.016-4.5 4.5-4.5zm0 1.5c-1.656 0-3 1.344-3 3s1.344 3 3 3 3-1.344 3-3-1.344-3-3-3z"/><path d="m17.25 1.25c2.484 0 4.5 2.016 4.5 4.5s-2.016 4.5-4.5 4.5-4.5-2.016-4.5-4.5 2.016-4.5 4.5-4.5zm0 1.5c-1.656 0-3 1.344-3 3s1.344 3 3 3 3-1.344 3-3-1.344-3-3-3z"/><path d="m6 4c0-.414.336-.75.75-.75s.75.336.75.75v3.5c0 .414-.336.75-.75.75s-.75-.336-.75-.75z"/><path d="m5 6.5c-.414 0-.75-.336-.75-.75s.336-.75.75-.75h3.5c.414 0 .75.336.75.75s-.336.75-.75.75z"/><path d="m15.5 6.5c-.414 0-.75-.336-.75-.75s.336-.75.75-.75h3.5c.414 0 .75.336.75.75s-.336.75-.75.75z"/></g></svg>