<svg clip-rule="evenodd" fill-rule="evenodd" height="512" stroke-linejoin="round" stroke-miterlimit="2" viewBox="0 0 24 24" width="512" xmlns="http://www.w3.org/2000/svg"><g id="Icon"><path d="m12.884 15.471c0 .488-.396.884-.884.884s-.884-.396-.884-.884c0-.489.396-.885.884-.885s.884.396.884.885" fill-rule="nonzero"/><path d="m10.03 13.501c.502-.502 1.199-.818 1.97-.818s1.468.316 1.97.818c.292.292.768.292 1.06 0 .293-.293.293-.768 0-1.061-.772-.772-1.844-1.257-3.03-1.257s-2.259.485-3.03 1.257c-.293.293-.293.768 0 1.061.292.292.768.292 1.06 0z"/><path d="m7.533 10.998c1.137-1.148 2.718-1.853 4.467-1.853s3.329.705 4.467 1.853c.291.294.767.296 1.061.005s.296-.767.005-1.061c-1.41-1.422-3.367-2.297-5.533-2.297s-4.124.875-5.533 2.297c-.291.294-.289.77.005 1.061s.769.289 1.061-.005z"/><path d="m22.75 12c0-5.933-4.817-10.75-10.75-10.75s-10.75 4.817-10.75 10.75 4.817 10.75 10.75 10.75 10.75-4.817 10.75-10.75zm-1.5 0c0 5.105-4.145 9.25-9.25 9.25s-9.25-4.145-9.25-9.25 4.145-9.25 9.25-9.25 9.25 4.145 9.25 9.25z"/></g></svg>