<svg clip-rule="evenodd" fill-rule="evenodd" height="512" stroke-linejoin="round" stroke-miterlimit="2" viewBox="0 0 24 24" width="512" xmlns="http://www.w3.org/2000/svg"><g id="Icon"><path d="m22.75 6.207c0-1.26-.5-2.468-1.391-3.359-.891-.89-2.099-1.391-3.359-1.391-3.486 0-8.514 0-12 0-1.26 0-2.468.501-3.359 1.391-.891.891-1.391 2.099-1.391 3.359v9c0 2.623 2.127 4.75 4.75 4.75h2.586c.066 0 .13.026.177.073l2 2c.683.684 1.791.684 2.474 0l2-2c.047-.047.111-.073.177-.073h2.586c2.623 0 4.75-2.127 4.75-4.75zm-1.5 0v9c0 1.795-1.455 3.25-3.25 3.25h-2.586c-.464 0-.909.184-1.237.513 0 0-2 2-2 2-.098.097-.256.097-.354 0 0 0-2-2-2-2-.328-.329-.773-.513-1.237-.513h-2.586c-1.795 0-3.25-1.455-3.25-3.25 0-2.713 0-6.286 0-9 0-.862.342-1.688.952-2.298.609-.609 1.436-.952 2.298-.952h12c.862 0 1.689.343 2.298.952.61.61.952 1.436.952 2.298z"/><path d="m6.5 8.707v5c0 .414.336.75.75.75s.75-.336.75-.75v-5c0-.414-.336-.75-.75-.75s-.75.336-.75.75z"/><path d="m10.5 8.707v5c0 .414.336.75.75.75s.75-.336.75-.75v-5c0-.414-.336-.75-.75-.75s-.75.336-.75.75z"/><path d="m5.25 9.457h4c.414 0 .75-.336.75-.75s-.336-.75-.75-.75h-4c-.414 0-.75.336-.75.75s.336.75.75.75z"/><path d="m11.25 11.457h1.5c.138 0 .25.112.25.25v2c0 .414.336.75.75.75s.75-.336.75-.75v-2c0-.966-.784-1.75-1.75-1.75-.696 0-1.5 0-1.5 0-.414 0-.75.336-.75.75s.336.75.75.75z"/><path d="m16.35 14.157 3-4c.248-.331.181-.802-.15-1.05s-.802-.181-1.05.15l-3 4c-.248.331-.181.802.15 1.05s.802.181 1.05-.15z"/><path d="m19.35 13.257-3-4c-.248-.331-.719-.398-1.05-.15s-.398.719-.15 1.05l3 4c.248.331.719.398 1.05.15s.398-.719.15-1.05z"/></g></svg>