<svg clip-rule="evenodd" fill-rule="evenodd" height="512" stroke-linejoin="round" stroke-miterlimit="2" viewBox="0 0 24 24" width="512" xmlns="http://www.w3.org/2000/svg"><g id="Icon"><path d="m19.272 16.648s-1.111 1.119-2.613.953c-.659-.073-1.382-.404-2.129-1.151-.292-.292-.768-.292-1.06 0-.293.293-.293.768 0 1.061 1.053 1.053 2.094 1.478 3.024 1.581 2.203.244 3.838-1.383 3.838-1.383.293-.293.293-.768 0-1.061-.292-.292-.768-.292-1.06 0z"/><path d="m20.008 9.93c-.755-.793-1.258-1.792-1.258-2.887v-4.063c0-.967-.782-1.75-1.75-1.75h-1c-.968 0-1.75.783-1.75 1.75v2.83c0 1.231-.9 2.353-2.128 2.417-1.297.068-2.372-.964-2.372-2.247v-3c0-.967-.782-1.75-1.75-1.75h-1c-.968 0-1.75.783-1.75 1.75v4.011c0 1.023-.343 2.046-1.078 2.758-1.21 1.172-1.9 2.778-1.922 4.459v.001c-.013 1.104.642 2.722 1.423 3.505.426.428.728.963.876 1.549 0 0 .534 2.141.534 2.141.194.78.895 1.326 1.698 1.326h10.438c.803 0 1.503-.545 1.698-1.325l.59-2.364c.13-.514.441-.95.817-1.325.913-.906 1.426-2.142 1.426-3.431 0-1.624-.625-3.183-1.742-4.355zm-1.086 1.035c.851.893 1.328 2.082 1.328 3.32 0 .889-.353 1.742-.984 2.368-.001 0-.001.001-.002.001-.568.568-1.015 1.242-1.211 2.021l-.59 2.365c-.029.112-.129.19-.244.19h-10.438c-.115 0-.214-.077-.242-.189l-.536-2.143c-.212-.848-.65-1.623-1.268-2.243-.541-.543-.994-1.663-.985-2.429.017-1.281.542-2.506 1.466-3.4 1.025-.992 1.534-2.407 1.534-3.835v-4.011c0-.138.112-.25.25-.25h1c.138 0 .25.112.25.25v3c0 2.137 1.789 3.858 3.95 3.745 2.016-.105 3.55-1.895 3.55-3.915v-2.83c0-.138.112-.25.25-.25h1c.138 0 .25.112.25.25v4.063c0 1.482.649 2.848 1.672 3.922z"/><path d="m3.668 17.709s1.635 1.627 3.839 1.383c.929-.103 1.971-.528 3.024-1.581.292-.293.292-.768 0-1.061-.293-.292-.768-.292-1.061 0-.747.747-1.469 1.078-2.128 1.151-1.502.166-2.613-.953-2.613-.953-.293-.292-.768-.292-1.061 0-.293.293-.293.768 0 1.061z"/><path d="m14.224 3.856c-.421.843-1.282 1.374-2.224 1.374-.941 0-1.802-.531-2.223-1.374-.185-.37-.636-.52-1.006-.335-.371.184-.521.635-.336 1.006.675 1.351 2.056 2.203 3.565 2.203 1.51 0 2.891-.852 3.566-2.203.185-.371.034-.822-.336-1.006-.37-.185-.821-.035-1.006.335z"/></g></svg>