<svg clip-rule="evenodd" fill-rule="evenodd" height="512" stroke-linejoin="round" stroke-miterlimit="2" viewBox="0 0 24 24" width="512" xmlns="http://www.w3.org/2000/svg"><g id="Icon"><path d="m20 21.25h-12c-.414 0-.75.336-.75.75s.336.75.75.75h12c.414 0 .75-.336.75-.75s-.336-.75-.75-.75z"/><path d="m12.579 21.523-7-8.5c-.263-.319-.736-.365-1.056-.102-.319.263-.365.736-.102 1.056l7 8.5c.263.319.736.365 1.056.102.319-.263.365-.736.102-1.056z"/><path d="m11.512 2.931-7 6c-.314.269-.351.743-.081 1.057.269.314.743.351 1.057.081l7-6c.314-.269.351-.743.081-1.057-.269-.314-.743-.351-1.057-.081z"/><path d="m5 8.75c-1.518 0-2.75 1.232-2.75 2.75s1.232 2.75 2.75 2.75 2.75-1.232 2.75-2.75-1.232-2.75-2.75-2.75zm0 1.5c.69 0 1.25.56 1.25 1.25s-.56 1.25-1.25 1.25-1.25-.56-1.25-1.25.56-1.25 1.25-1.25z"/><path d="m21.75 3.5c0-.597-.237-1.169-.659-1.591s-.994-.659-1.591-.659c-1.665 0-4.335 0-6 0-.597 0-1.169.237-1.591.659s-.659.994-.659 1.591v1c0 .464.184.909.513 1.237.328.329.773.513 1.237.513h7c.464 0 .909-.184 1.237-.513.329-.328.513-.773.513-1.237zm-1.5 0v1c0 .066-.026.13-.073.177s-.111.073-.177.073h-7c-.066 0-.13-.026-.177-.073s-.073-.111-.073-.177v-1c0-.199.079-.39.22-.53.14-.141.331-.22.53-.22h6c.199 0 .39.079.53.22.141.14.22.331.22.53z"/><path d="m18.876 8.416 1 1.5c.23.344.696.438 1.04.208s.438-.696.208-1.04l-1-1.5c-.23-.344-.696-.438-1.04-.208s-.438.696-.208 1.04z"/><path d="m12.876 7.584-1 1.5c-.23.344-.136.81.208 1.04s.81.136 1.04-.208l1-1.5c.23-.344.136-.81-.208-1.04s-.81-.136-1.04.208z"/><path d="m15.75 9v1.5c0 .414.336.75.75.75s.75-.336.75-.75v-1.5c0-.414-.336-.75-.75-.75s-.75.336-.75.75z"/></g></svg>