<svg clip-rule="evenodd" fill-rule="evenodd" height="512" stroke-linejoin="round" stroke-miterlimit="2" viewBox="0 0 24 24" width="512" xmlns="http://www.w3.org/2000/svg"><g id="Icon"><path d="m5.25 12.499v7c0 .69-.56 1.25-1.25 1.25h-1.5c-.69 0-1.25-.56-1.25-1.25v-7c0-.691.56-1.25 1.25-1.25h1.5c.69 0 1.25.559 1.25 1.25zm-2.5 6.75h1v-6.5h-1z"/><path d="m22.75 12.499v7c0 .69-.56 1.25-1.25 1.25h-1.5c-.69 0-1.25-.56-1.25-1.25v-7c0-.691.56-1.25 1.25-1.25h1.5c.69 0 1.25.559 1.25 1.25zm-2.5 6.75h1v-6.5h-1z"/><path d="m4.737 13.71c-.393.131-.818-.081-.949-.474-.13-.393.082-.818.475-.949l3.028-1.009c1.154-.385 2.423-.186 3.404.533.333.245.406.715.161 1.049s-.715.406-1.048.161c-.589-.432-1.35-.551-2.043-.32z"/><path d="m13.359 15.679c-.255-.327-.196-.798.13-1.053.327-.254.798-.196 1.053.13.375.481 1.067 1.539 1.106 2.288.055 1.053-.365 2.075-1.145 2.784l-1.878 1.707c-.911.828-2.262.95-3.307.297l-1.986-1.241c-.358-.224-.771-.342-1.192-.342h-1.64c-.414 0-.75-.336-.75-.75s.336-.75.75-.75h1.64c.702 0 1.391.197 1.987.57l1.986 1.241c.475.297 1.089.242 1.503-.135l1.878-1.707c.447-.406.688-.992.656-1.596-.008-.156-.089-.332-.179-.508-.187-.37-.448-.725-.612-.935z"/><path d="m19.705 12.277c.398.113.63.528.516.927-.113.398-.528.629-.926.516l-4.081-1.159c-.448-.127-.925-.112-1.365.043l-3.344 1.182c-.242.085-.435.27-.531.508s-.085.505.029.734l.013.026c.17.339.566.498.924.37l3.497-1.251c.39-.14.82.063.959.453.14.39-.064.819-.453.959l-3.498 1.252c-1.072.383-2.261-.094-2.771-1.112l-.012-.026c-.307-.614-.336-1.33-.079-1.967.257-.636.775-1.132 1.422-1.361l3.345-1.181c.732-.259 1.526-.284 2.274-.072z"/><path d="m18.97 17.968c.292-.292.768-.292 1.06 0 .293.293.293.768 0 1.061l-1.251 1.252c-.963.963-2.373 1.328-3.682.954l-1.803-.515c-.398-.114-.629-.529-.515-.927s.529-.629.927-.515l1.803.515c.785.224 1.631.005 2.209-.573z"/><path d="m12 8.25c-.414 0-.75-.336-.75-.75s.336-.75.75-.75h8c.414 0 .75.336.75.75s-.336.75-.75.75z"/><path d="m12 3.75c.414 0 .75.336.75.75s-.336.75-.75.75h-8c-.414 0-.75-.336-.75-.75s.336-.75.75-.75z"/><path d="m17.47 6.03c-.293-.292-.293-.768 0-1.06.292-.293.768-.293 1.06 0l2 2c.293.293.293.767 0 1.06l-2 2c-.292.293-.768.293-1.06 0-.293-.292-.293-.768 0-1.06l1.469-1.47z"/><path d="m5.47 1.97c.292-.293.768-.293 1.06 0 .293.292.293.768 0 1.06l-1.469 1.47 1.469 1.47c.293.292.293.768 0 1.06-.292.293-.768.293-1.06 0l-2-2c-.293-.293-.293-.767 0-1.06z"/></g></svg>