<svg clip-rule="evenodd" fill-rule="evenodd" height="512" stroke-linejoin="round" stroke-miterlimit="2" viewBox="0 0 24 24" width="512" xmlns="http://www.w3.org/2000/svg"><g id="Icon"><path d="m21.439 6.983.55-.576c.566-.592.645-1.498.191-2.179l-.215-.323c-.065-.097-.054-.226.027-.311 0 0 .55-.576.55-.576.286-.299.275-.774-.024-1.06s-.774-.275-1.06.024l-.551.576c-.565.592-.645 1.498-.19 2.179l.215.323c.065.097.053.227-.028.311 0 0-.55.576-.55.576-.286.299-.275.775.025 1.061.299.285.774.275 1.06-.025z"/><path d="m21.778 11.954.045-.045c.684-.683.684-1.791 0-2.475l-1.414-1.414c-.683-.683-1.791-.683-2.475 0l-1.657 1.657c-.047.047-.11.073-.176.073h-9.601c-2.9 0-5.25 2.351-5.25 5.25v2c0 1.525.606 2.988 1.684 4.066s2.541 1.684 4.066 1.684h10c1.525 0 2.988-.606 4.066-1.684s1.684-2.541 1.684-4.066v-2.002c0-1.135-.36-2.185-.972-3.044zm-1.541-.58c-.287.287-.294.751-.014 1.046.637.672 1.027 1.579 1.027 2.578v2.002c0 1.127-.448 2.208-1.245 3.005s-1.878 1.245-3.005 1.245h-10c-1.127 0-2.208-.448-3.005-1.245s-1.245-1.878-1.245-3.005v-2c0-2.071 1.679-3.75 3.75-3.75h9.6c.465 0 .91-.184 1.238-.513 0 0 1.657-1.656 1.657-1.656.097-.098.256-.098.353 0 0 0 1.415 1.414 1.415 1.414.097.097.097.256 0 .353 0 0-.526.526-.526.526z"/><path d="m12.75 10.5v-2.5c0-.414-.336-.75-.75-.75s-.75.336-.75.75v2.5c0 .414.336.75.75.75s.75-.336.75-.75z"/><path d="m14 7.25h-4c-.414 0-.75.336-.75.75s.336.75.75.75h4c.414 0 .75-.336.75-.75s-.336-.75-.75-.75z"/><path d="m6.75 10.5v-3.5c0-1.127.448-2.208 1.245-3.005s1.878-1.245 3.005-1.245h2c2.056 0 3.771 1.46 4.165 3.399.082.406.479.668.884.586.406-.082.668-.479.586-.884-.533-2.625-2.853-4.601-5.635-4.601h-2c-1.525 0-2.988.606-4.066 1.684s-1.684 2.541-1.684 4.066v3.5c0 .414.336.75.75.75s.75-.336.75-.75z"/><path d="m17 13.75h-10c-.414 0-.75.336-.75.75s.336.75.75.75h10c.414 0 .75-.336.75-.75s-.336-.75-.75-.75z"/></g></svg>