<svg clip-rule="evenodd" fill-rule="evenodd" height="512" stroke-linejoin="round" stroke-miterlimit="2" viewBox="0 0 24 24" width="512" xmlns="http://www.w3.org/2000/svg"><g id="Icon"><path d="m20 22.75c.729 0 1.429-.29 1.945-.805.515-.516.805-1.216.805-1.945 0-3.053 0-8.775 0-11.2 0-.966-.507-1.861-1.335-2.358-1.893-1.136-6.062-3.637-8-4.8-.871-.523-1.959-.523-2.83 0-1.938 1.163-6.107 3.664-8 4.8-.828.497-1.335 1.392-1.335 2.358v11.2c0 .729.29 1.429.805 1.945.516.515 1.216.805 1.945.805zm0-1.5h-16c-.332 0-.649-.132-.884-.366-.234-.235-.366-.552-.366-.884v-11.2c0-.439.23-.846.607-1.072l8-4.8c.396-.237.89-.237 1.286 0l8 4.8c.377.226.607.633.607 1.072v11.2c0 .332-.132.649-.366.884-.235.234-.552.366-.884.366z"/><path d="m6.25 22v-10c0-.138.112-.25.25-.25h11c.138 0 .25.112.25.25v10c0 .414.336.75.75.75s.75-.336.75-.75v-10c0-.967-.784-1.75-1.75-1.75h-11c-.966 0-1.75.783-1.75 1.75v10c0 .414.336.75.75.75s.75-.336.75-.75z"/><path d="m10 8.418h4c.414 0 .75-.336.75-.75s-.336-.75-.75-.75h-4c-.414 0-.75.336-.75.75s.336.75.75.75z"/><path d="m16.75 18c0-.414-.336-.75-.75-.75h-4c-.414 0-.75.336-.75.75v4c0 .414.336.75.75.75h4c.414 0 .75-.336.75-.75zm-1.5.75v2.5h-2.5v-2.5z"/><path d="m14.75 14c0-.414-.336-.75-.75-.75h-4c-.414 0-.75.336-.75.75v4c0 .414.336.75.75.75h4c.414 0 .75-.336.75-.75zm-1.5.75v2.5h-2.5v-2.5z"/><path d="m12.75 18c0-.414-.336-.75-.75-.75h-4c-.414 0-.75.336-.75.75v4c0 .414.336.75.75.75h4c.414 0 .75-.336.75-.75zm-1.5.75v2.5h-2.5v-2.5z"/></g></svg>