<svg clip-rule="evenodd" fill-rule="evenodd" height="512" stroke-linejoin="round" stroke-miterlimit="2" viewBox="0 0 24 24" width="512" xmlns="http://www.w3.org/2000/svg"><g id="Icon"><path d="m12 1.25c-5.933 0-10.75 4.817-10.75 10.75s4.817 10.75 10.75 10.75 10.75-4.817 10.75-10.75-4.817-10.75-10.75-10.75zm0 1.5c5.105 0 9.25 4.145 9.25 9.25s-4.145 9.25-9.25 9.25-9.25-4.145-9.25-9.25 4.145-9.25 9.25-9.25z"/><path d="m5.397 19.025c1.679-1.712 4.018-2.775 6.603-2.775s4.924 1.063 6.603 2.775c.29.296.765.3 1.061.01.295-.289.3-.765.01-1.06-1.951-1.99-4.67-3.225-7.674-3.225s-5.723 1.235-7.674 3.225c-.29.295-.285.771.01 1.06.296.29.771.286 1.061-.01z"/><path d="m12 5.25c-2.346 0-4.25 1.904-4.25 4.25s1.904 4.25 4.25 4.25 4.25-1.904 4.25-4.25-1.904-4.25-4.25-4.25zm0 1.5c1.518 0 2.75 1.232 2.75 2.75s-1.232 2.75-2.75 2.75-2.75-1.232-2.75-2.75 1.232-2.75 2.75-2.75z"/></g></svg>