<svg clip-rule="evenodd" fill-rule="evenodd" height="512" stroke-linejoin="round" stroke-miterlimit="2" viewBox="0 0 24 24" width="512" xmlns="http://www.w3.org/2000/svg"><g id="Icon"><path d="m18.53 2.53c.215-.214.279-.537.163-.817s-.39-.463-.693-.463h-4.586c-.464 0-.908.184-1.237.513 0 0-2.414 2.414-2.414 2.414-.329.329-.513.773-.513 1.237v5.172c0 .066-.026.13-.073.177 0 0-7.414 7.414-7.414 7.414-.329.329-.513.773-.513 1.237v1.586c0 .968.784 1.75 1.75 1.75h1.586c.464 0 .908-.184 1.237-.513 0 0 7.414-7.414 7.414-7.414.047-.047.111-.073.177-.073h5.172c.464 0 .908-.184 1.237-.513 0 0 2.414-2.414 2.414-2.414.329-.329.513-.773.513-1.237v-4.586c0-.303-.183-.577-.463-.693s-.603-.052-.817.163l-3.707 3.707c-.047.047-.111.073-.177.073h-2.586c-.138 0-.25-.112-.25-.25v-2.586c0-.066.026-.13.073-.177 0 0 3.707-3.707 3.707-3.707zm-2.341.22-2.426 2.427c-.329.329-.513.773-.513 1.237v2.586c0 .968.784 1.75 1.75 1.75h2.586c.464 0 .908-.184 1.237-.513 0 0 2.427-2.426 2.427-2.426v2.775c0 .066-.026.13-.073.177 0 0-2.414 2.414-2.414 2.414-.047.047-.111.073-.177.073h-5.172c-.464 0-.908.184-1.237.513 0 0-7.414 7.414-7.414 7.414-.047.047-.111.073-.177.073h-1.586c-.138 0-.25-.112-.25-.25v-1.586c0-.066.026-.13.073-.177 0 0 7.414-7.414 7.414-7.414.329-.329.513-.773.513-1.237v-5.172c0-.066.026-.13.073-.177 0 0 2.414-2.414 2.414-2.414.047-.047.111-.073.177-.073h2.775z"/></g></svg>