<svg clip-rule="evenodd" fill-rule="evenodd" height="512" stroke-linejoin="round" stroke-miterlimit="2" viewBox="0 0 24 24" width="512" xmlns="http://www.w3.org/2000/svg"><g id="Icon"><path d="m8.132 7.237c-.107-.4-.518-.638-.918-.531l-3.864 1.036c-1.467.393-2.338 1.901-1.945 3.368.244.908.533 1.989.777 2.897.393 1.467 1.901 2.338 3.368 1.945l3.864-1.035c.4-.107.637-.519.53-.919zm-1.255 1.112 1.424 5.313s-3.139.841-3.139.841c-.667.179-1.353-.217-1.531-.884 0 0-.777-2.898-.777-2.898-.178-.666.217-1.352.884-1.53z"/><path d="m8.998 14.361c-.026-.215-.144-.409-.324-.531s-.405-.16-.615-.103l-2.414.647c-.361.096-.596.443-.551.814 0 0 .393 3.261.609 5.051.06.504.337.956.757 1.24.42.285.943.372 1.433.241l.463-.124c.842-.225 1.389-1.035 1.285-1.9zm-1.386 1.038.54 4.477c.015.123-.064.239-.184.271 0 0-.463.124-.463.124-.07.019-.145.006-.205-.034-.06-.041-.099-.105-.108-.177 0 0-.531-4.406-.531-4.406z"/><path d="m15.342 3.234c-.06-.223-.219-.406-.432-.496-.212-.09-.455-.077-.657.035l-7.209 4.002c-.301.167-.45.518-.361.85l1.812 6.761c.089.333.393.562.737.556l8.245-.139c.231-.003.447-.113.586-.298.139-.184.186-.422.126-.646zm-1.2 1.316 2.349 8.77s-6.699.113-6.699.113-1.508-5.631-1.508-5.631z"/><path d="m13.77 3.164c.681 2.541 2.412 9.001 3.093 11.542.107.4.519.637.918.53.4-.107.638-.519.531-.918-.681-2.541-2.412-9.001-3.093-11.542-.107-.4-.519-.637-.918-.53-.4.107-.638.519-.531.918z"/><path d="m8.852 14.893 1.5 2.06c.244.335.713.409 1.048.165s.409-.713.165-1.048l-1.5-2.06c-.244-.335-.713-.409-1.048-.165-.335.243-.408.713-.165 1.048z"/><path d="m17.377 5.795c1.235 1.191 1.633 3.008 1.008 4.606-.15.386.04.821.426.972.385.151.821-.04.971-.426.845-2.162.308-4.62-1.363-6.231-.298-.288-.773-.279-1.061.019-.287.298-.278.773.019 1.06z"/><path d="m19.376 4.103c1.877 1.81 2.482 4.572 1.532 7.002-.15.385.04.821.426.971.385.151.821-.04.971-.425 1.17-2.994.426-6.397-1.887-8.628-.298-.287-.774-.279-1.061.019s-.279.773.019 1.061z"/></g></svg>