<svg clip-rule="evenodd" fill-rule="evenodd" height="512" stroke-linejoin="round" stroke-miterlimit="2" viewBox="0 0 24 24" width="512" xmlns="http://www.w3.org/2000/svg"><g id="Icon"><path d="m12 1.25c-5.933 0-10.75 4.817-10.75 10.75s4.817 10.75 10.75 10.75 10.75-4.817 10.75-10.75-4.817-10.75-10.75-10.75zm0 1.5c5.105 0 9.25 4.145 9.25 9.25s-4.145 9.25-9.25 9.25-9.25-4.145-9.25-9.25 4.145-9.25 9.25-9.25z"/><path d="m12 8.75c-1.794 0-3.25 1.456-3.25 3.25s1.456 3.25 3.25 3.25 3.25-1.456 3.25-3.25-1.456-3.25-3.25-3.25zm0 1.5c.966 0 1.75.784 1.75 1.75s-.784 1.75-1.75 1.75-1.75-.784-1.75-1.75.784-1.75 1.75-1.75z"/><path d="m9.706 13.245-5.287 5.32c-.292.293-.29.768.003 1.06.294.292.769.29 1.061-.003l5.287-5.32c.292-.294.29-.769-.004-1.061-.293-.291-.768-.29-1.06.004z"/><path d="m12.741 9.169-.022-7.071c-.001-.414-.338-.749-.752-.747-.414.001-.749.338-.748.752l.022 7.071c.001.414.339.749.752.748.414-.002.749-.339.748-.753z"/><path d="m14.831 12.741 7.071-.022c.414-.001.749-.338.747-.752-.001-.414-.338-.749-.752-.748l-7.071.022c-.414.001-.749.339-.748.752.002.414.339.749.753.748z"/></g></svg>