<svg clip-rule="evenodd" fill-rule="evenodd" height="512" stroke-linejoin="round" stroke-miterlimit="2" viewBox="0 0 24 24" width="512" xmlns="http://www.w3.org/2000/svg"><g id="Icon"><circle cx="4.25" cy="12" r=".75"/><path d="m5.99 16.95c.292-.293.768-.293 1.06 0 .293.292.293.768 0 1.06-.292.293-.768.293-1.06 0-.293-.292-.293-.768 0-1.06z"/><path d="m18.01 7.05c-.292.293-.768.293-1.06 0-.293-.292-.293-.768 0-1.06.292-.293.768-.293 1.06 0 .293.292.293.768 0 1.06z"/><path d="m12.75 4.25c0 .414-.336.75-.75.75s-.75-.336-.75-.75.336-.75.75-.75.75.336.75.75z"/><path d="m7.05 5.99c.293.292.293.768 0 1.06-.292.293-.768.293-1.06 0-.293-.292-.293-.768 0-1.06.292-.293.768-.293 1.06 0z"/><path d="m17.5 15.304c-1.249 0-2.25.992-2.25 2.196s1.001 2.196 2.25 2.196 2.25-.992 2.25-2.196-1.001-2.196-2.25-2.196zm0 1.5c.407 0 .75.304.75.696s-.343.696-.75.696-.75-.304-.75-.696.343-.696.75-.696z"/><path d="m19.123 12.75c-.106-.3-.39-.5-.707-.5h-1.832c-.317 0-.601.2-.707.5l-.354 1.002c-.126.062-.25.131-.369.206 0 0-1.098-.209-1.098-.209-.309-.059-.622.081-.784.351l-.915 1.529c-.17.284-.134.645.087.889l.721.795c-.006.124-.006.25 0 .375 0-.001-.721.794-.721.794-.221.244-.257.605-.087.889l.915 1.529c.162.27.475.41.784.351l1.098-.209c.119.075.242.143.369.206 0 0 .354 1.002.354 1.002.106.3.39.5.707.5h1.832c.317 0 .601-.2.707-.5l.354-1.002c.126-.062.25-.131.369-.206 0 0 1.098.209 1.098.209.309.059.622-.081.784-.351l.915-1.529c.17-.284.134-.645-.087-.889l-.721-.795c.006-.124.006-.25 0-.375 0 .001.721-.794.721-.794.221-.244.257-.605.087-.889l-.915-1.529c-.162-.27-.475-.41-.784-.351l-1.098.209c-.119-.075-.242-.143-.369-.206 0 0-.354-1.002-.354-1.002zm-1.237 1 .284.805c.072.203.228.365.428.446.228.091.443.21.639.355.168.124.38.172.585.133l.888-.169s.361.603.361.603-.567.625-.567.625c-.149.164-.218.385-.188.605.031.23.031.464 0 .694-.03.22.039.441.188.605l.567.625s-.361.603-.361.603-.888-.169-.888-.169c-.205-.039-.417.009-.585.133-.196.145-.411.264-.639.355-.2.081-.356.243-.428.446l-.284.805h-.772s-.284-.805-.284-.805c-.072-.203-.228-.365-.428-.446-.228-.091-.443-.21-.639-.355-.168-.124-.38-.172-.585-.133l-.888.169s-.361-.603-.361-.603.567-.625.567-.625c.149-.164.218-.385.188-.605-.031-.23-.031-.464 0-.694.03-.22-.039-.441-.188-.605l-.567-.625s.361-.603.361-.603.888.169.888.169c.205.039.417-.009.585-.133.196-.145.411-.264.639-.355.2-.081.356-.243.428-.446l.284-.805z"/><path d="m11.074 21.204c-4.671-.464-8.324-4.411-8.324-9.204 0-5.105 4.145-9.25 9.25-9.25 4.793 0 8.74 3.653 9.204 8.324.041.412.409.713.821.672s.713-.408.672-.82c-.54-5.43-5.126-9.676-10.697-9.676-5.933 0-10.75 4.817-10.75 10.75 0 5.571 4.246 10.157 9.676 10.697.412.041.779-.26.82-.672s-.26-.78-.672-.821z"/><path d="m11.75 7.475v4.25h-3.25c-.414 0-.75.336-.75.75s.336.75.75.75h4c.414 0 .75-.336.75-.75v-5c0-.414-.336-.75-.75-.75s-.75.336-.75.75z"/></g></svg>