<svg clip-rule="evenodd" fill-rule="evenodd" height="512" stroke-linejoin="round" stroke-miterlimit="2" viewBox="0 0 24 24" width="512" xmlns="http://www.w3.org/2000/svg"><g id="Icon"><path d="m19.771 5c0-.883-.591-1.757-1.723-2.419-1.36-.795-3.552-1.331-6.027-1.331s-4.667.536-6.027 1.331c-1.132.662-1.723 1.536-1.723 2.419s.591 1.757 1.723 2.419c1.36.795 3.552 1.331 6.027 1.331s4.667-.536 6.027-1.331c1.132-.662 1.723-1.536 1.723-2.419zm-1.5 0c0 .443-.411.791-.98 1.124-1.188.694-3.109 1.126-5.27 1.126s-4.082-.432-5.27-1.126c-.569-.333-.98-.681-.98-1.124s.411-.791.98-1.124c1.188-.694 3.109-1.126 5.27-1.126s4.082.432 5.27 1.126c.569.333.98.681.98 1.124z"/><path d="m4.271 19c0 .885.59 1.759 1.721 2.421 1.359.794 3.55 1.329 6.029 1.329s4.67-.535 6.029-1.329c1.131-.662 1.721-1.536 1.721-2.421 0-.414-.336-.75-.75-.75s-.75.336-.75.75c0 .444-.41.794-.978 1.126-1.187.694-3.107 1.124-5.272 1.124s-4.085-.43-5.272-1.124c-.568-.332-.978-.682-.978-1.126 0-.414-.336-.75-.75-.75s-.75.336-.75.75z"/><path d="m4.271 5v6.487s-.164-.033-.164-.033c-.921-.191-1.816.384-2.044 1.294l-.56 2.23c-.209.839.228 1.713 1.032 2.045l1.736.711v1.266c0 .414.336.75.75.75s.75-.336.75-.75v-1.77c0-.305-.184-.579-.466-.694l-2.198-.899c-.116-.048-.179-.174-.148-.295l.56-2.23c.032-.13.157-.215.29-.188l1.066.212c.22.043.449-.014.622-.156.173-.143.274-.356.274-.58v-7.4c0-.414-.336-.75-.75-.75s-.75.336-.75.75z"/><path d="m18.271 5v4.28c0 .218.094.424.259.567.164.142.383.206.598.175l1.17-.168c.117-.014.233.054.27.169l.469 1.388c.037.118-.012.25-.125.305l-2.226 1.113c-.255.127-.415.387-.415.671v5.5c0 .414.336.75.75.75s.75-.336.75-.75v-5.036s1.805-.903 1.805-.903c.78-.382 1.151-1.288.889-2.109l-.474-1.402c-.259-.797-1.063-1.289-1.885-1.184l-.335.048v-3.414c0-.414-.336-.75-.75-.75s-.75.336-.75.75z"/><path d="m16.771 11v-3.54c0-.414-.336-.75-.75-.75s-.75.336-.75.75v3.54c0 .414.336.75.75.75s.75-.336.75-.75z"/><path d="m12.771 22v-9c0-.414-.336-.75-.75-.75s-.75.336-.75.75v9c0 .414.336.75.75.75s.75-.336.75-.75z"/><path d="m7.771 12v6c0 .414.336.75.75.75s.75-.336.75-.75v-6c0-.414-.336-.75-.75-.75s-.75.336-.75.75z"/><path d="m15.271 15v3c0 .414.336.75.75.75s.75-.336.75-.75v-3c0-.414-.336-.75-.75-.75s-.75.336-.75.75z"/></g></svg>