<svg clip-rule="evenodd" fill-rule="evenodd" height="512" stroke-linejoin="round" stroke-miterlimit="2" viewBox="0 0 24 24" width="512" xmlns="http://www.w3.org/2000/svg"><g id="Icon"><circle cx="7.696" cy="8.457" r=".759"/><circle cx="7.696" cy="12.002" r=".759"/><circle cx="7.696" cy="15.546" r=".759"/><path d="m10.481 9.207h6.582c.414 0 .75-.336.75-.75s-.336-.75-.75-.75h-6.582c-.414 0-.75.336-.75.75s.336.75.75.75z"/><path d="m10.481 12.752h6.582c.414 0 .75-.336.75-.75s-.336-.75-.75-.75h-6.582c-.414 0-.75.336-.75.75s.336.75.75.75z"/><path d="m10.481 16.296h6.582c.414 0 .75-.336.75-.75s-.336-.75-.75-.75h-6.582c-.414 0-.75.336-.75.75s.336.75.75.75z"/><path d="m6.599 2.963-1.45-1.088c-.379-.284-.886-.33-1.309-.118-.424.212-.691.644-.691 1.118v18.253c0 .474.267.906.691 1.118.423.212.93.166 1.309-.118l1.45-1.088 1.951 1.463c.444.334 1.055.334 1.5 0l1.95-1.463 1.95 1.463c.445.334 1.056.334 1.5 0l1.951-1.463 1.45 1.088c.379.284.886.33 1.309.118.424-.212.691-.644.691-1.118v-18.253c0-.474-.267-.906-.691-1.118-.423-.212-.93-.166-1.309.118l-1.45 1.088-1.951-1.463c-.444-.333-1.055-.333-1.5 0l-1.95 1.463-1.95-1.463c-.445-.333-1.056-.333-1.5 0zm8.101-.151 1.951 1.463c.444.334 1.055.334 1.5 0l1.2-.9v17.253l-1.2-.9c-.445-.333-1.056-.333-1.5 0l-1.951 1.463-1.95-1.463c-.444-.333-1.056-.333-1.5 0l-1.95 1.463-1.951-1.463c-.444-.333-1.055-.333-1.5 0l-1.2.9v-17.253l1.2.9c.445.334 1.056.334 1.5 0l1.951-1.463 1.95 1.463c.444.334 1.056.334 1.5 0z"/></g></svg>