<svg clip-rule="evenodd" fill-rule="evenodd" stroke-linejoin="round" stroke-miterlimit="1.414" viewBox="0 0 32 32" xmlns="http://www.w3.org/2000/svg" xmlns:serif="http://www.serif.com/"><path id="rontgen-lateral-osteology-xray" d="m0 0h32v32h-32z" fill="none"/><path d="m28 28h-24c-.536-.025-.975-.46-1-1v-22c.025-.537.451-.975 1-1h24c.031.001.062.003.092.004.5.07.884.483.908.996v18c-.037.779-1.04 1.289-1.655.756-.168-.146-.285-.348-.327-.567-.016-.083-.014-.105-.018-.189v-17h-22v20h23s.964.221.999.952c.025.536-.443 1.022-.999 1.048zm-19.934-7.998c.482.044.777.502 1.145.81 1.288 1.079 3.152 1.183 4.792 1.188 0 0 .571.068.822.434.393.573.006 1.529-.78 1.565-.944.043-1.987-.061-2.957-.254-1.435-.285-2.848-.897-3.81-2.048-.492-.59-.156-1.671.692-1.697.032-.001.064.001.096.002zm15.964-.002c.772.043 1.246 1.033.692 1.697-.039.046-.078.091-.118.136-1.565 1.745-4.289 2.156-6.522 2.167-.68.003-1.264-.699-1.018-1.352.159-.422.616-.646 1.081-.649 1.815-.019 3.779-.173 4.97-1.501.189-.211.208-.24.283-.296.18-.136.405-.203.632-.202zm-15.964-3.998c.482.044.777.502 1.145.81 1.288 1.079 3.152 1.183 4.792 1.188 0 0 .661.083.895.559.288.587-.153 1.408-.853 1.44-.944.043-1.987-.061-2.957-.254-1.435-.285-2.848-.897-3.81-2.048-.498-.597-.156-1.671.692-1.697.032-.001.064.001.096.002zm15.964-.002c.772.043 1.246 1.033.692 1.697-.039.046-.078.091-.118.136-1.565 1.745-4.289 2.156-6.522 2.167-.68.003-1.264-.699-1.018-1.352.159-.422.616-.646 1.081-.649 1.815-.019 3.779-.173 4.97-1.501.189-.211.208-.24.283-.296.18-.136.406-.203.632-.202zm-15.964-3.998c.482.044.777.502 1.145.81 1.288 1.079 3.152 1.183 4.792 1.188 0 0 .571.068.822.434.393.573.006 1.529-.78 1.565-.944.043-1.987-.061-2.957-.254-1.435-.285-2.848-.897-3.81-2.048-.495-.593-.156-1.671.692-1.697.032-.001.064.001.096.002zm15.964-.002c.764.042 1.254 1.023.692 1.697-.039.046-.078.091-.118.136-1.565 1.745-4.289 2.156-6.522 2.167-.903.004-1.532-1.365-.549-1.884.099-.053.208-.088.32-.105.992-.148 2.103-.03 3.318-.385.777-.227 1.53-.614 2.053-1.257 0 0 .404-.371.806-.369zm-13.971-3.998c.146.011.189.025.272.054.325.114.574.405.649.746.117.532 1.006.817 1.768 1.019.411.11.833.176 1.258.179 0 0 .605.066.856.494.366.622-.145 1.52-.956 1.505-.076-.001-.153-.004-.229-.009-1.216-.069-2.433-.426-3.424-1.112-.615-.425-1.188-1.028-1.25-1.798-.043-.539.412-1.068.976-1.08.027 0 .053.001.08.002zm11.962-.002c.637.026 1.106.69.924 1.348-.367 1.322-1.901 2.112-3.411 2.464-.99.231-2.244.393-2.499-.55-.151-.557.27-1.206.879-1.258.924-.08 2.041-.197 2.865-.901.145-.123.25-.34.25-.34.037-.142.059-.182.102-.258.173-.303.449-.489.85-.505z" fill-rule="nonzero"/></svg>