<svg clip-rule="evenodd" fill-rule="evenodd" stroke-linejoin="round" stroke-miterlimit="2" viewBox="0 0 32 32" xmlns="http://www.w3.org/2000/svg" xmlns:serif="http://www.serif.com/"><path id="satelite-signal-connection" d="m0 0h32v32h-32z" fill="none"/><path d="m9.975 7.009c-.021-.692-.019-1.373.189-1.977.398-1.157 1.546-1.999 2.799-2.022 2.025-.013 4.05-.013 6.075 0 1.552.029 2.952 1.367 2.962 2.996v1.002c1.346-.002 2.692-.007 4.038.001 1.543.03 2.931 1.345 2.962 2.962.009 1.459.141 2.946-.019 4.371-.16 1.431-1.445 2.639-2.944 2.667l-1.093-.001c-.531-.045-.582-.195-.726-.375-.445-.558-.069-1.578.726-1.622.911-.051 2.037.026 2.056-.989.008-1.347.025-2.693-.001-4.039-.016-.514-.468-.964-.986-.974h-4.013v6.966c-.02.573-.179.621-.369.776-.573.465-1.601.115-1.631-.776 0-2.581.038-5.162.025-7.742-.033-.144-.032-.29-.002-.429-.005-.607-.012-1.214-.023-1.821-.017-.514-.469-.964-.987-.974-2.017-.012-4.034-.062-6.05.001-.513.022-.96.482-.963 1.002v.997h2c.021.001.042.002.063.002.53.05.566.189.708.361.456.551.096 1.585-.708 1.635-.021.002-.042.002-.063.002-.953 0-1.906-.01-2.859-.02-.087.01-.175.009-.262-.003-1.639-.016-3.278-.027-4.916.024-.504.022-.947.465-.963.974-.025 1.354-.041 2.709.001 4.062.022.504.464.947.974.963 1.599.03 3.199.051 4.798.028.079-.018.162-.028.249-.028.015.001.03.002.044.002.06.006.105.011.142.018.276-.005.553-.012.829-.021.514-.022.96-.481.963-1.002v-1.997c.032-1.013 1.956-1.394 2 0 0 1.018.145 2.083-.164 2.977-.398 1.157-1.546 2-2.799 2.023h-.024c-.008.346-.023.702-.012 1.037.022.51.474.953.987.963 1.026.006 2.073-.122 3.078 0h.02c2.477.032 5.072.962 6.305 2.937.629 1.009.901 2.393.134 3.22-.918.989-2.469 1.19-3.881 1.354-.536.062-1.078.113-1.622.147.038 1.011.055 1.978-.639 2.266-.585.242-1.353-.197-1.383-.896-.006-.442-.033-.905-.028-1.333-1.42-.044-2.816-.25-4.113-.712-1.048-.374-2.005-1.131-1.826-2.473.174-1.305 1.065-2.365 2.168-3.118-.123-.087-.24-.186-.348-.297-.752-.77-.929-1.918-.911-3.087-1.326.003-2.653 0-3.979-.008-1.542-.029-2.932-1.341-2.963-2.963-.009-1.458-.141-2.944.019-4.37.159-1.427 1.445-2.639 2.944-2.667h4.012zm5.956 14c-1.515.02-3.07.358-4.203 1.476-.371.366-.668.835-.72 1.362 0 0 1.201.516 2.457.672 2.389.295 4.944.416 7.141-.462.449-.18.37-.375.325-.528-.583-2.027-3.234-2.499-4.862-2.52-.069 0-.069 0-.138 0z"/></svg>