<svg clip-rule="evenodd" fill-rule="evenodd" height="512" stroke-linejoin="round" stroke-miterlimit="2" viewBox="0 0 24 24" width="512" xmlns="http://www.w3.org/2000/svg"><g id="Icon"><path d="m12.25 5v2.25h-7.25c-.414 0-.75.336-.75.75 0 4.28 3.47 7.75 7.75 7.75s7.75-3.47 7.75-7.75v-3c0-2.071-1.679-3.75-3.75-3.75s-3.75 1.679-3.75 3.75zm1.5 0c0-1.243 1.007-2.25 2.25-2.25s2.25 1.007 2.25 2.25v3c0 3.452-2.798 6.25-6.25 6.25-3.198 0-5.835-2.402-6.205-5.5h7.205c.414 0 .75-.336.75-.75z"/><path d="m21 5.25h-2c-.414 0-.75.336-.75.75s.336.75.75.75h2c.414 0 .75-.336.75-.75s-.336-.75-.75-.75z"/><path d="m11 8.75c.414 0 .75-.336.75-.75 0-3.727-3.023-6.75-6.75-6.75h-2c-.414 0-.75.336-.75.75v6c0 .414.336.75.75.75zm-.803-1.5h-6.447v-4.5h1.25c2.644 0 4.833 1.956 5.197 4.5z"/><path d="m8 8.75c.414 0 .75-.336.75-.75 0-2.071-1.679-3.75-3.75-3.75h-2c-.414 0-.75.336-.75.75v3c0 .414.336.75.75.75zm-.878-1.5h-3.372v-1.5h1.25c.98 0 1.813.626 2.122 1.5z"/><path d="m16.75 5c0 .414-.336.75-.75.75s-.75-.336-.75-.75.336-.75.75-.75.75.336.75.75" fill-rule="nonzero"/><path d="m11.25 15v7c0 .414.336.75.75.75s.75-.336.75-.75v-7c0-.414-.336-.75-.75-.75s-.75.336-.75.75z"/><path d="m6 19.75h13c.414 0 .75-.336.75-.75s-.336-.75-.75-.75h-13c-.414 0-.75.336-.75.75s.336.75.75.75z"/><path d="m17.47 17.53 1.469 1.47s-1.469 1.47-1.469 1.47c-.293.292-.293.768 0 1.06.292.293.768.293 1.06 0l2-2c.293-.293.293-.768 0-1.06l-2-2c-.292-.293-.768-.293-1.06 0-.293.292-.293.768 0 1.06z"/><path d="m3.47 17.53 1.469 1.47s-1.469 1.47-1.469 1.47c-.293.292-.293.768 0 1.06.292.293.768.293 1.06 0l2-2c.293-.293.293-.768 0-1.06l-2-2c-.292-.293-.768-.293-1.06 0-.293.292-.293.768 0 1.06z"/></g></svg>