<svg clip-rule="evenodd" fill-rule="evenodd" height="512" stroke-linejoin="round" stroke-miterlimit="2" viewBox="0 0 24 24" width="512" xmlns="http://www.w3.org/2000/svg"><g id="Icon"><path d="m3.998 7.365 3.564-.349c.419-.042.828.15 1.064.499l1.693 2.499c.372.55.938.94 1.585 1.093l.518.122c.74.175 1.519.023 2.139-.416.621-.439 1.023-1.123 1.104-1.879 0 0 .131-1.215.131-1.215.036-.334.216-.635.493-.825 0 0 2.31-1.585 2.31-1.585.342-.234.429-.701.194-1.043-.234-.341-.701-.428-1.042-.194l-2.31 1.585c-.638.437-1.053 1.132-1.136 1.901l-.131 1.215c-.036.328-.21.625-.479.816-.27.19-.608.256-.929.18l-.517-.122c-.281-.066-.527-.235-.688-.474l-1.693-2.499c-.544-.804-1.486-1.246-2.452-1.151 0 0-3.564.349-3.564.349-.412.04-.714.408-.673.82.04.412.407.713.819.673z"/><path d="m21.156 12.761-4.07-.723c-.655-.116-1.329.018-1.889.375l-.449.286c-.641.409-1.075 1.074-1.192 1.825-.118.751.093 1.516.578 2.101 0 0 .78.941.78.941.215.258.305.597.248.928 0 0-.245 1.429-.245 1.429-.07.408.205.796.613.866s.796-.204.866-.612l.245-1.429c.131-.763-.078-1.544-.572-2.14l-.78-.941c-.211-.253-.302-.586-.251-.911.051-.326.239-.615.517-.792l.449-.286c.243-.155.535-.214.819-.163l4.071.723c.407.072.797-.2.869-.608.073-.407-.199-.797-.607-.869z"/><path d="m12 1.25c-5.657 0-10.25 4.593-10.25 10.25s4.593 10.25 10.25 10.25 10.25-4.593 10.25-10.25-4.593-10.25-10.25-10.25zm0 1.5c4.829 0 8.75 3.921 8.75 8.75s-3.921 8.75-8.75 8.75-8.75-3.921-8.75-8.75 3.921-8.75 8.75-8.75z"/><path d="m8.007 11.435c-.466.407-.933.843-1.396 1.306-2.582 2.582-4.324 5.314-4.748 7.116-.248 1.056-.058 1.866.428 2.352.45.45 1.17.648 2.107.479 1.031-.187 2.402-.833 3.886-1.863.34-.236.424-.703.188-1.043s-.704-.425-1.044-.189c-1.265.878-2.418 1.46-3.297 1.619-.339.061-.616.099-.779-.064-.097-.096-.105-.249-.102-.426.007-.341.113-.748.292-1.205.624-1.597 2.111-3.696 4.13-5.716.438-.438.881-.851 1.321-1.236.312-.272.344-.746.072-1.058s-.747-.344-1.058-.072z"/><path d="m9.129 14.568.12-2.532c.02-.411-.295-.76-.705-.784l-2.527-.149c-.413-.025-.769.291-.793.704-.024.414.291.769.705.793l1.787.105s-.085 1.792-.085 1.792c-.02.414.3.765.714.785.413.02.765-.3.784-.714z"/></g></svg>