<svg clip-rule="evenodd" fill-rule="evenodd" height="512" stroke-linejoin="round" stroke-miterlimit="2" viewBox="0 0 24 24" width="512" xmlns="http://www.w3.org/2000/svg"><g id="Icon"><path d="m4.833 8.506v11.9c0 .549.218 1.076.607 1.464.388.388.914.606 1.463.606h10.241c.549 0 1.075-.218 1.463-.606.389-.388.607-.915.607-1.464 0-2.966 0-11.9 0-11.9 0-.414-.336-.75-.75-.75s-.75.336-.75.75v11.9c0 .151-.06.296-.167.403s-.252.167-.403.167h-10.241c-.151 0-.296-.06-.403-.167s-.167-.252-.167-.403v-11.9c0-.414-.336-.75-.75-.75s-.75.336-.75.75z"/><path d="m7.356 3.235c.46 2.141 2.366 3.749 4.644 3.749 2.268 0 4.167-1.594 4.638-3.721l2.057.733c.377.134.667.441.78.826l1.764 6.024c-.019.066-.065.121-.128.152 0 0-2.559 1.262-2.559 1.262-.372.184-.524.634-.341 1.005s.633.524 1.004.341l2.559-1.262c.598-.295.976-.904.976-1.57 0-.071-.01-.142-.03-.211 0 0-1.232-4.206-1.806-6.163-.247-.846-.886-1.522-1.716-1.817 0 0-2.662-.948-2.662-.948-.138-.059-.281-.099-.426-.12-.215-.032-.433.031-.598.172-.165.142-.261.348-.262.565-.01 1.786-1.463 3.232-3.25 3.232-1.789 0-3.243-1.449-3.25-3.237-.001-.222-.1-.432-.271-.574s-.396-.201-.614-.161c-.112.021-.224.053-.333.096.012-.005-2.618.822-2.618.822-.879.276-1.561.974-1.817 1.859-.583 2.013-1.817 6.277-1.817 6.277-.02.067-.03.138-.03.208 0 .666.378 1.275.976 1.57l2.559 1.262c.371.183.821.03 1.004-.341s.031-.821-.341-1.005l-2.559-1.262c-.063-.031-.109-.087-.128-.152-.001-.001 1.777-6.14 1.777-6.14.116-.402.426-.72.826-.845l1.992-.626z"/><path d="m7.999 3 8 .007c.414 0 .751-.336.751-.75s-.336-.75-.749-.75l-8-.007c-.414 0-.751.335-.751.749s.335.751.749.751z"/><path d="m16.25 11.066c0-.414-.336-.75-.75-.75h-.875c-.895 0-1.754.355-2.386.988-.633.633-.989 1.492-.989 2.387v.875c0 .414.336.75.75.75h.875c.895 0 1.754-.356 2.386-.989.633-.633.989-1.491.989-2.386zm-1.5.75v.125c0 .497-.198.974-.549 1.326-.352.351-.829.549-1.326.549h-.125v-.125c0-.498.198-.974.549-1.326.352-.352.829-.549 1.326-.549z"/><path d="m8.5 10.316c-.414 0-.75.336-.75.75v.875c0 .895.356 1.753.989 2.386.632.633 1.491.989 2.386.989h.875c.414 0 .75-.336.75-.75v-.875c0-.895-.356-1.754-.989-2.387-.632-.633-1.491-.988-2.386-.988zm.75 1.5h.125c.497 0 .974.197 1.326.549.351.352.549.828.549 1.326v.125h-.125c-.497 0-.974-.198-1.326-.549-.351-.352-.549-.829-.549-1.326z"/><path d="m11.25 14.566v2c0 .414.336.75.75.75s.75-.336.75-.75v-2c0-.414-.336-.75-.75-.75s-.75.336-.75.75z"/></g></svg>