<svg clip-rule="evenodd" fill-rule="evenodd" height="512" stroke-linejoin="round" stroke-miterlimit="2" viewBox="0 0 24 24" width="512" xmlns="http://www.w3.org/2000/svg"><g id="Icon"><path d="m9.118 1.536.003-.02c.335.118.649.274.94.46.218.141.349.385.344.644l-.107 6.145c-.005.252-.135.484-.347.62-.348.222-.955.393-1.447.504.28 1.23.802 2.425 1.569 3.522.768 1.096 1.713 1.995 2.773 2.679.273-.424.641-.937.969-1.188.199-.153.462-.195.7-.113l5.811 2.001c.241.082.423.282.484.529.086.347.129.707.114 1.075l-.047.643c-.002.025-.005.05-.009.074-.422 2.393-2.707 3.994-5.1 3.572-8.349-1.472-13.932-9.446-12.46-17.794.422-2.393 2.707-3.994 5.1-3.572.025.005.05.01.074.017l.597.169c.016.005.029.017.039.033zm-.475 1.402c.087.031.172.066.254.105 0 0-.091 5.234-.091 5.234-.536.191-1.278.276-1.278.276-.2.027-.379.133-.5.293-.12.161-.171.364-.141.562.258 1.699.907 3.362 1.958 4.863s2.391 2.68 3.9 3.503c.176.096.383.118.576.06.192-.059.353-.191.447-.369 0 0 .334-.669.696-1.107 0-.001 4.955 1.705 4.955 1.705.007.085.01.17.007.256 0 .006-.042.567-.042.567-.294 1.558-1.79 2.596-3.356 2.319-7.533-1.328-12.571-8.523-11.243-16.056.276-1.565 1.761-2.615 3.324-2.361l.534.15zm.093.023.02.004zm-.06-.013.041.009c-.014-.003-.027-.006-.041-.009z"/></g></svg>