<svg clip-rule="evenodd" fill-rule="evenodd" stroke-linejoin="round" stroke-miterlimit="1.414" viewBox="0 0 32 32" xmlns="http://www.w3.org/2000/svg" xmlns:serif="http://www.serif.com/"><path id="user-account-people-man" d="m0 0h32v32h-32z" fill="none"/><path d="m23.114 15.891c.38.048.667.322.943.619 1.845 1.986 2.912 4.695 2.937 7.375.012 1.259-.88 2.355-1.934 3.039-1.999 1.298-4.456 1.77-6.902 1.976-2.933.248-5.943.057-8.73-.841-1.706-.55-3.494-1.384-4.19-2.97-.276-.629-.255-1.343-.194-2.05.221-2.538 1.344-4.97 3.155-6.799 0 0 .444-.382.903-.302.705.124 1.108 1.115.515 1.712-.026.026-.052.053-.078.08-1.538 1.59-2.478 3.791-2.534 6.037-.021.849.873 1.464 1.751 1.885 2.61 1.249 5.675 1.457 8.524 1.305 2.064-.11 4.157-.431 5.995-1.322.59-.285 1.193-.622 1.556-1.171.249-.378.168-.95.108-1.485-.224-2.005-1.144-3.916-2.593-5.363 0 0-.278-.276-.311-.639-.045-.49.326-.986.818-1.074.164-.03.206-.015.261-.012zm-7.07-12.891c2.545.024 5.022 1.542 6.186 3.812.98 1.914 1.008 4.285.075 6.219-1.32 2.738-4.539 4.431-7.629 3.838-2.832-.543-5.204-3.022-5.607-5.895-.307-2.193.499-4.512 2.103-6.041 1.272-1.213 2.996-1.916 4.782-1.933zm-.078 1.999c-2.28.022-4.405 1.75-4.864 3.991-.334 1.63.212 3.417 1.406 4.583 1.38 1.347 3.569 1.793 5.379 1.053 1.597-.653 2.806-2.185 3.057-3.898.309-2.108-.895-4.356-2.835-5.262-.667-.312-1.398-.469-2.143-.467z" fill-rule="nonzero"/></svg>