<svg clip-rule="evenodd" fill-rule="evenodd" stroke-linejoin="round" stroke-miterlimit="2" viewBox="0 0 32 32" xmlns="http://www.w3.org/2000/svg" xmlns:serif="http://www.serif.com/"><path id="teacher-presentation-teaching" d="m0 0h32v32h-32z" fill="none"/><g id="teacher-presentation-teaching1"><path d="m29 29h-2.167c-1.063-.026-1.586-2.128 0-2.167h1.083c0-1.034.188-2.165-.169-3.009-.538-1.272-2.44-1.728-3.492-.726-.423.403-.668.976-.672 1.572v3.247c-.026 1.074-2.128 1.586-2.167 0v-1.806l-6.283-8.378c-.288-.407-.23-.541-.213-.742.046-.534.439-.957 1.051-.991h.061c.328.019.628.173.834.433l4.92 6.559c.272-.608.683-1.157 1.192-1.595-1.102-.975-1.766-2.475-1.494-3.996.351-1.961 2.213-3.529 4.21-3.567.056-.001.056-.001.112 0 2.448.046 4.585 2.441 4.235 4.937-.144 1.031-.707 1.971-1.496 2.65.92.8 1.53 1.966 1.538 3.242v3.254c-.004.19-.022.247-.059.354-.148.426-.498.716-1.024.729zm-23.831-8.667c-1.45.023-3.144.248-3.249-.992-.049-.579.431-1.148 1.049-1.174.372-.005.743-.008 1.114-.008v-12.992h-1.083c-.97-.045-1.041-.575-1.079-.984-.055-.595.462-1.154 1.079-1.183h23.833c.033.002.067.003.1.005.849.118 1.285 1.282.63 1.879-.189.172-.319.264-.73.283h-1.083v5.416c-.012.292-.053.372-.131.516-.309.571-1.184.744-1.686.281-.22-.202-.337-.495-.35-.797v-5.416h-17.333v13h5.416c.004 0 .75.095.993.648.263.601-.162 1.395-.814 1.504-.079.013-.099.011-.179.014zm20.553-4.333c-1.436.028-2.59 1.726-1.926 3.105.585 1.213 2.434 1.596 3.448.63.676-.645.862-1.746.424-2.577-.375-.71-1.091-1.163-1.946-1.158zm-10.806-5.417c.598 0 1.084.486 1.084 1.084s-.486 1.083-1.084 1.083c-.597 0-1.083-.485-1.083-1.083s.486-1.084 1.083-1.084zm4.334 0c.598 0 1.083.486 1.083 1.084s-.485 1.083-1.083 1.083-1.084-.485-1.084-1.083.486-1.084 1.084-1.084zm-8.667 0c.598 0 1.083.486 1.083 1.084s-.485 1.083-1.083 1.083-1.083-.485-1.083-1.083.485-1.084 1.083-1.084z"/></g></svg>