<svg clip-rule="evenodd" fill-rule="evenodd" height="512" stroke-linejoin="round" stroke-miterlimit="2" viewBox="0 0 24 24" width="512" xmlns="http://www.w3.org/2000/svg"><g id="Icon"><path d="m4.25 16.5v5c0 .331.132.649.366.884.235.234.553.366.884.366h15c.331 0 .649-.132.884-.366.234-.235.366-.553.366-.884 0-1.13 0-3.87 0-5 0-.332-.132-.65-.366-.884-.235-.234-.553-.366-.884-.366-2.388 0-12.612 0-15 0-.331 0-.649.132-.884.366-.234.234-.366.552-.366.884zm1.5.25v4.5h14.5v-4.5z"/><path d="m9.824 3v.5c0 .464.185.909.513 1.237.328.329.773.513 1.237.513h2.852c.464 0 .909-.184 1.237-.513.328-.328.513-.773.513-1.237 0-.165 0-.335 0-.5 0-.464-.185-.909-.513-1.238-.328-.328-.773-.512-1.237-.512h-2.852c-.464 0-.909.184-1.237.512-.328.329-.513.774-.513 1.238zm1.5.5v-.5c0-.066.027-.13.073-.177.047-.047.111-.073.177-.073h2.852c.066 0 .13.026.177.073.046.047.073.111.073.177v.5c0 .066-.027.13-.073.177-.047.047-.111.073-.177.073h-2.852c-.066 0-.13-.026-.177-.073-.046-.047-.073-.111-.073-.177z"/><path d="m19 2.5h-3.5c-.414 0-.75.336-.75.75s.336.75.75.75h3.5c.414 0 .75-.336.75-.75s-.336-.75-.75-.75z"/><path d="m2.5 7h1c.966 0 1.75-.784 1.75-1.75v-1c0-.138.112-.25.25-.25h5c.414 0 .75-.336.75-.75s-.336-.75-.75-.75c0 0-3.293 0-5 0-.966 0-1.75.783-1.75 1.75v1c0 .138-.112.25-.25.25h-1c-.414 0-.75.336-.75.75s.336.75.75.75z"/><path d="m7.75 16v-14c0-.414-.336-.75-.75-.75s-.75.336-.75.75v14c0 .414.336.75.75.75s.75-.336.75-.75z"/><path d="m19.75 16v-14c0-.414-.336-.75-.75-.75s-.75.336-.75.75v14c0 .414.336.75.75.75s.75-.336.75-.75z"/><path d="m13.75 7.5v-3c0-.414-.336-.75-.75-.75s-.75.336-.75.75v3c0 .414.336.75.75.75s.75-.336.75-.75z"/><path d="m10 19.75h6c.414 0 .75-.336.75-.75s-.336-.75-.75-.75h-6c-.414 0-.75.336-.75.75s.336.75.75.75z"/><path d="m15.25 19v3c0 .414.336.75.75.75s.75-.336.75-.75v-3c0-.414-.336-.75-.75-.75s-.75.336-.75.75z"/><path d="m10.75 22v-3c0-.414-.336-.75-.75-.75s-.75.336-.75.75v3c0 .414.336.75.75.75s.75-.336.75-.75z"/><path d="m5 19.75h5c.414 0 .75-.336.75-.75s-.336-.75-.75-.75h-5c-.414 0-.75.336-.75.75s.336.75.75.75z"/><path d="m16 19.75h5c.414 0 .75-.336.75-.75s-.336-.75-.75-.75h-5c-.414 0-.75.336-.75.75s.336.75.75.75z"/><path d="m17.25 16v3c0 .414.336.75.75.75s.75-.336.75-.75v-3c0-.414-.336-.75-.75-.75s-.75.336-.75.75z"/><path d="m13.75 19v-3c0-.414-.336-.75-.75-.75s-.75.336-.75.75v3c0 .414.336.75.75.75s.75-.336.75-.75z"/><path d="m12.25 16v3c0 .414.336.75.75.75s.75-.336.75-.75v-3c0-.414-.336-.75-.75-.75s-.75.336-.75.75z"/><path d="m8.75 19v-3c0-.414-.336-.75-.75-.75s-.75.336-.75.75v3c0 .414.336.75.75.75s.75-.336.75-.75z"/><path d="m16.164 8.172c.05-.358-.058-.72-.296-.993-.237-.272-.581-.429-.942-.429-.962 0-2.89 0-3.852 0-.361 0-.705.157-.942.429-.238.273-.346.635-.296.993l.486 3.5c.086.618.614 1.078 1.238 1.078h2.88c.624 0 1.152-.46 1.238-1.078zm-4.803.078.417 3h2.444l.417-3z"/></g></svg>