<svg clip-rule="evenodd" fill-rule="evenodd" height="512" stroke-linejoin="round" stroke-miterlimit="2" viewBox="0 0 24 24" width="512" xmlns="http://www.w3.org/2000/svg"><g id="Icon"><path d="m11.5 18.25h8c.414 0 .75-.336.75-.75v-10c0-.199-.079-.39-.22-.53l-.969-.97s.969-.97.969-.97c.141-.14.22-.331.22-.53v-1.5c0-.464-.184-.909-.513-1.237-.328-.329-.773-.513-1.237-.513-2.443 0-8.751 0-12 0-.729 0-1.429.29-1.945.805-.515.516-.805 1.216-.805 1.945v15.5c0 .414.336.75.75.75s.75-.336.75-.75c0 0 0-10.908 0-15.5 0-.332.132-.649.366-.884.235-.234.552-.366.884-.366h12c.066 0 .13.026.177.073s.073.111.073.177v1.189s-1.28 1.281-1.28 1.281c-.293.293-.293.767 0 1.06l1.28 1.281v8.939h-7.25c-.414 0-.75.336-.75.75s.336.75.75.75z"/><path d="m11.5 16.75h-4.75c-1.657 0-3 1.343-3 3 0 .796.316 1.559.879 2.121.562.563 1.325.879 2.121.879h11.75c.464 0 .909-.184 1.237-.513.329-.328.513-.773.513-1.237 0-.696 0-1.5 0-1.5 0-.414-.336-.75-.75-.75s-.75.336-.75.75v1.5c0 .066-.026.13-.073.177s-.111.073-.177.073h-11.75c-.398 0-.779-.158-1.061-.439-.281-.282-.439-.663-.439-1.061 0-.828.672-1.5 1.5-1.5h4.75c.414 0 .75-.336.75-.75s-.336-.75-.75-.75z"/><path d="m4.221 14.196 2.5 1c.243.098.52.061.729-.096l2-1.5c.331-.248.398-.719.15-1.05s-.719-.398-1.05-.15l-1.663 1.247s-2.108-.843-2.108-.843c-.385-.154-.822.033-.975.417-.154.385.033.822.417.975z"/><path d="m19.394 11.758-3.5.5c-.161.022-.31.097-.424.212l-1.281 1.28h-1.189c-.414 0-.75.336-.75.75s.336.75.75.75h1.5c.199 0 .39-.079.53-.22l1.324-1.323s3.252-.465 3.252-.465c.41-.058.695-.438.636-.848-.058-.41-.438-.695-.848-.636z"/><path d="m8 6.75h4c.414 0 .75-.336.75-.75s-.336-.75-.75-.75h-4c-.414 0-.75.336-.75.75s.336.75.75.75z"/><path d="m8 9.75h3c.414 0 .75-.336.75-.75s-.336-.75-.75-.75h-3c-.414 0-.75.336-.75.75s.336.75.75.75z"/><path d="m19.5 7.75h-3c-.251 0-.485.125-.624.334l-1 1.5c-.23.344-.136.81.208 1.04s.81.136 1.04-.208l.777-1.166h2.599c.414 0 .75-.336.75-.75s-.336-.75-.75-.75z"/></g></svg>