<svg clip-rule="evenodd" fill-rule="evenodd" height="512" stroke-linejoin="round" stroke-miterlimit="2" viewBox="0 0 24 24" width="512" xmlns="http://www.w3.org/2000/svg"><g id="Icon"><path d="m22.25 3.5c0-.367-.265-.68-.627-.74l-6-1c-.217-.036-.44.025-.608.168-.168.142-.265.352-.265.572v4.5c0 .22.097.43.265.572.168.143.391.204.608.168l6-1c.362-.06.627-.373.627-.74zm-1.5.635v1.23s-4.5.75-4.5.75v-2.73z"/><path d="m20.75 3v3.5c0 .414.336.75.75.75s.75-.336.75-.75v-3.5c0-.414-.336-.75-.75-.75s-.75.336-.75.75z"/><path d="m14.75 2v5.5c0 .414.336.75.75.75s.75-.336.75-.75v-5.5c0-.414-.336-.75-.75-.75s-.75.336-.75.75z"/><path d="m21.25 20.498c0-1.242-1.006-2.248-2.248-2.248h-15.004c-1.242 0-2.248 1.006-2.248 2.248v.002c0 .597.237 1.169.659 1.591s.994.659 1.591.659h15c.597 0 1.169-.237 1.591-.659s.659-.994.659-1.591c0-.001 0-.001 0-.002zm-1.5 0v.002c0 .199-.079.39-.22.53-.14.141-.331.22-.53.22h-15c-.199 0-.39-.079-.53-.22-.141-.14-.22-.331-.22-.53 0-.001 0-.001 0-.002 0-.413.335-.748.748-.748h15.004c.413 0 .748.335.748.748z"/><path d="m20.25 17.498c0-1.242-1.006-2.248-2.248-2.248-3.051 0-9.953 0-13.004 0-1.242 0-2.248 1.006-2.248 2.248v.002c0 .597.237 1.169.659 1.591s.994.659 1.591.659h13c.597 0 1.169-.237 1.591-.659s.659-.994.659-1.591zm-1.5 0v.002c0 .199-.079.39-.22.53-.14.141-.331.22-.53.22h-13c-.199 0-.39-.079-.53-.22-.141-.14-.22-.331-.22-.53 0-.001 0-.001 0-.002 0-.413.335-.748.748-.748h13.004c.413 0 .748.335.748.748z"/><path d="m19.25 14.498c0-1.242-1.006-2.248-2.248-2.248h-11.004c-1.242 0-2.248 1.006-2.248 2.248v.002c0 1.243 1.007 2.25 2.25 2.25h11c1.243 0 2.25-1.007 2.25-2.25 0-.001 0-.001 0-.002zm-1.5 0v.002c0 .414-.336.75-.75.75h-11c-.414 0-.75-.336-.75-.75 0-.001 0-.001 0-.002 0-.413.335-.748.748-.748h11.004c.413 0 .748.335.748.748z"/><path d="m16.25 3.25c0-.414-.336-.75-.75-.75h-2c-4.004 0-7.25 3.246-7.25 7.25v3.25c0 .414.336.75.75.75h3c.414 0 .75-.336.75-.75v-3.25c0-1.519 1.231-2.75 2.75-2.75h2c.414 0 .75-.336.75-.75zm-1.5.75v1.5h-1.25c-2.347 0-4.25 1.903-4.25 4.25v2.5h-1.5v-2.5c0-3.176 2.574-5.75 5.75-5.75z"/></g></svg>