<svg clip-rule="evenodd" fill-rule="evenodd" height="512" stroke-linejoin="round" stroke-miterlimit="2" viewBox="0 0 24 24" width="512" xmlns="http://www.w3.org/2000/svg"><g id="Icon"><path d="m12.501 6.942c-.285-.256-.717-.256-1.002 0 0 0-1.304 1.17-2.347 2.666-.752 1.079-1.347 2.327-1.347 3.447 0 2.315 1.88 4.195 4.195 4.195s4.195-1.88 4.195-4.195c0-1.12-.595-2.368-1.347-3.447-1.043-1.496-2.347-2.666-2.347-2.666zm-.501 1.602c.429.436 1.064 1.128 1.617 1.922.57.817 1.078 1.74 1.078 2.589 0 1.487-1.208 2.695-2.695 2.695s-2.695-1.208-2.695-2.695c0-.849.508-1.772 1.078-2.589.553-.794 1.188-1.486 1.617-1.922z"/><path d="m12 20.95c-4.945 0-8.96-4.015-8.96-8.96 0-3.029 1.507-5.709 3.81-7.331.339-.239.42-.707.182-1.045-.238-.339-.707-.42-1.045-.182-2.689 1.894-4.447 5.022-4.447 8.558 0 5.773 4.687 10.46 10.46 10.46.414 0 .75-.336.75-.75s-.336-.75-.75-.75z"/><path d="m12.578 3.048c4.676.298 8.382 4.191 8.382 8.942 0 2.731-1.224 5.177-3.153 6.821-.315.269-.353.743-.084 1.058.268.315.742.353 1.057.084 2.252-1.919 3.68-4.776 3.68-7.963 0-5.547-4.327-10.091-9.787-10.439-.413-.026-.77.288-.796.701s.288.77.701.796z"/><path d="m20.755 19.503-2.723-.334s.335-2.723.335-2.723c.05-.411-.243-.786-.653-.836-.411-.051-.786.242-.836.653l-.426 3.467c-.05.412.242.786.653.836l3.468.426c.41.05.785-.242.835-.653.051-.411-.242-.786-.653-.836z"/><path d="m3.804 3.735 2.738.186s-.187 2.738-.187 2.738c-.028.413.284.771.697.799s.771-.285.8-.698l.237-3.485c.028-.413-.284-.771-.697-.799l-3.486-.238c-.413-.028-.771.285-.799.698s.284.771.697.799z"/></g></svg>