<svg clip-rule="evenodd" fill-rule="evenodd" height="512" stroke-linejoin="round" stroke-miterlimit="2" viewBox="0 0 24 24" width="512" xmlns="http://www.w3.org/2000/svg"><g id="Icon"><path d="m20.824 22.015 1.034-1.293c.3-.375.359-.889.15-1.322-.208-.433-.646-.708-1.126-.708h-17.764c-.48 0-.918.275-1.126.708-.209.433-.15.947.15 1.322l1.034 1.293c.332.415.835.657 1.367.657h14.914c.532 0 1.034-.242 1.367-.657zm-17.186-1.823h16.724l-.71.886c-.047.06-.119.094-.195.094-2.345 0-12.569 0-14.914 0-.076 0-.148-.034-.195-.094z"/><path d="m19.873 12.994s2.894 3.225-.189 5.697c-.001.001-15.87.001-15.87.001-.378-.317-1.329-1.311-.999-3.082.469-2.518 3.688-7.684 10.987-5.859.402.1.81-.144.91-.546.1-.401-.144-.809-.546-.909-8.576-2.144-12.275 4.081-12.825 7.039-.612 3.286 1.832 4.745 1.832 4.745.118.073.254.112.393.112h16.372c.159 0 .315-.051.444-.146 4.671-3.431.613-8.047.613-8.047-.275-.31-.749-.339-1.059-.064s-.338.749-.063 1.059z"/><path d="m14.177 8.138c-1.205.524-2.204 1.523-2.693 2.857-.95 2.588.38 5.46 2.968 6.409v.001c2.588.949 5.461-.381 6.41-2.969.442-1.203.391-2.467-.05-3.571-.002-.006-.005-.011-.007-.017-.084-.195-.089-.414-.016-.613.019-.053.032-.108.04-.165 0 0 .121-1.27-.147-1.848-.292-.63-.822-1.118-1.473-1.358l-1.566-.574c-.652-.239-1.372-.21-2.002.082s-1.118.822-1.357 1.473zm5.17 1.678c-.169.532-.142 1.107.079 1.622.301.759.336 1.642.028 2.481-.664 1.811-2.674 2.742-4.485 2.077-1.811-.664-2.741-2.674-2.077-4.485.374-1.018 1.172-1.757 2.122-2.092.001-.001.003-.001.005-.002.209-.075.373-.239.45-.447l.223-.608c.102-.278.311-.505.58-.629.268-.125.576-.137.854-.035 0 0 1.566.575 1.566.575.278.102.504.31.629.579.047.103.046.258.05.403.005.217-.014.451-.024.561z"/><path d="m20.321 8.071.51-1.39c.785-.132 1.479-.671 1.773-1.471.436-1.189-.175-2.508-1.363-2.944-.397-.145-.808-.174-1.195-.104-.25-.304-.582-.548-.979-.693-1.188-.437-2.507.174-2.943 1.363-.294.8-.113 1.66.401 2.269-.001 0-.511 1.39-.511 1.39-.142.389.057.82.446.962.388.143.82-.057.962-.445l.682-1.857c.118-.322.003-.682-.278-.876-.291-.201-.421-.58-.294-.927.151-.411.607-.622 1.018-.471.223.081.387.253.467.458.078.2.238.358.44.432s.426.058.615-.045c.194-.105.43-.129.652-.048.411.151.623.608.472 1.019-.128.347-.472.552-.824.517-.34-.034-.66.166-.778.487l-.682 1.858c-.142.388.057.819.446.962s.82-.057.963-.446z"/></g></svg>