<svg clip-rule="evenodd" fill-rule="evenodd" height="512" stroke-linejoin="round" stroke-miterlimit="2" viewBox="0 0 24 24" width="512" xmlns="http://www.w3.org/2000/svg"><g id="Icon"><path d="m22.75 12.998v.002c0 .251-.125.484-.333.623-.124.083-.268.127-.417.127-.251 0-.484-.125-.623-.333-.374-.558-1.079-.917-1.877-.917s-1.503.359-1.877.917c-.139.208-.373.333-.623.333s-.484-.125-.623-.333c-.374-.558-1.079-.917-1.877-.917s-1.503.359-1.877.917c-.139.208-.373.333-.623.333s-.484-.125-.623-.333c-.374-.558-1.079-.917-1.877-.917s-1.503.359-1.877.917c-.139.208-.373.333-.623.333s-.484-.125-.623-.333c-.374-.558-1.079-.917-1.877-.917s-1.503.359-1.877.917c-.183.274-.525.397-.841.301s-.532-.388-.532-.718c0-5.933 4.817-10.75 10.75-10.75 5.932 0 10.749 4.816 10.75 10.748zm-1.65-1.667c-.787-4.31-4.565-7.581-9.1-7.581-4.536 0-8.313 3.271-9.099 7.581.481-.211 1.024-.331 1.599-.331.973 0 1.852.343 2.5.89.648-.547 1.527-.89 2.5-.89s1.852.343 2.5.89c.648-.547 1.527-.89 2.5-.89s1.852.343 2.5.89c.648-.547 1.527-.89 2.5-.89.575 0 1.118.12 1.6.331z"/><path d="m7.75 13c0 .414-.336.75-.75.75s-.75-.336-.75-.75c0-3.487.871-6.575 2.178-8.492.992-1.454 2.25-2.258 3.572-2.258s2.58.804 3.572 2.258c1.307 1.917 2.178 5.005 2.178 8.492 0 .414-.336.75-.75.75s-.75-.336-.75-.75c0-3.136-.742-5.923-1.918-7.647-.664-.974-1.446-1.603-2.332-1.603s-1.668.629-2.332 1.603c-1.176 1.724-1.918 4.511-1.918 7.647z"/><path d="m11.25 2c0-.414.336-.75.75-.75s.75.336.75.75v1c0 .414-.336.75-.75.75s-.75-.336-.75-.75z"/><path d="m11.25 3c0-.414.336-.75.75-.75s.75.336.75.75v9.5c0 .414-.336.75-.75.75s-.75-.336-.75-.75z"/><path d="m10.252 21.25c.551 0 .998-.447.998-.998v-7.752c0-.414.336-.75.75-.75s.75.336.75.75v7.752c0 1.38-1.118 2.498-2.498 2.498h-.004c-.663 0-1.298-.263-1.766-.732-.469-.468-.732-1.104-.732-1.766v-1.252c0-.414.336-.75.75-.75s.75.336.75.75v1.252c0 .265.105.519.292.706s.441.292.706.292z"/></g></svg>