<svg viewBox="0 0 32 32" xmlns="http://www.w3.org/2000/svg"><g id="ig_instagram_insta_photo" data-name="ig instagram insta photo"><path d="m20.45 13.32a1 1 0 0 0 -.57 1.3 4 4 0 1 1 -2.31-2.3 1 1 0 1 0 .71-1.87 6 6 0 0 0 -6.37 9.85 6 6 0 0 0 8.48 0 6 6 0 0 0 1.36-6.41 1 1 0 0 0 -1.3-.57z"/><circle cx="23" cy="9" r="1"/><path d="m28 9a5 5 0 0 0 -4.9-5 77.11 77.11 0 0 0 -14.1 0 5 5 0 0 0 -5 4.92 91.91 91.91 0 0 0 0 14.08 5 5 0 0 0 4.9 5c2.36.22 4.73.34 7.1.34s4.71-.11 7.05-.34a5 5 0 0 0 4.95-4.92 87.09 87.09 0 0 0 0-14.08zm-2 14a3 3 0 0 1 -3 3h-.1a71.73 71.73 0 0 1 -13.9 0 3 3 0 0 1 -3-3.08 92.4 92.4 0 0 1 0-13.92 3 3 0 0 1 3.09-3q3.44-.31 6.9-.32t7.01.32a3 3 0 0 1 3 3.08 85.13 85.13 0 0 1 0 13.92z"/></g></svg>