<svg clip-rule="evenodd" fill-rule="evenodd" height="512" stroke-linejoin="round" stroke-miterlimit="2" viewBox="0 0 24 24" width="512" xmlns="http://www.w3.org/2000/svg"><g id="Icon"><path d="m18.625 22.75c1.518 0 2.75-1.232 2.75-2.75v-8c0-.414-.336-.75-.75-.75h-12c-.414 0-.75.336-.75.75v8c0 .729.29 1.429.805 1.945.516.515 1.216.805 1.945.805zm0-1.5h-8c-.332 0-.649-.132-.884-.366-.234-.235-.366-.552-.366-.884v-7.25h10.5v7.25c0 .69-.56 1.25-1.25 1.25z"/><path d="m11.625 12.75c.414 0 .75-.336.75-.75v-6.5c0-1.242-1.008-2.25-2.25-2.25s-2.25 1.008-2.25 2.25v6.5c0 .414.336.75.75.75zm-.75-1.5h-1.5v-5.75c0-.414.336-.75.75-.75s.75.336.75.75z"/><path d="m14.625 12.75c.414 0 .75-.336.75-.75v-8.5c0-1.242-1.008-2.25-2.25-2.25s-2.25 1.008-2.25 2.25v8.5c0 .414.336.75.75.75zm-.75-1.5h-1.5v-7.75c0-.414.336-.75.75-.75s.75.336.75.75z"/><path d="m17.625 12.75c.414 0 .75-.336.75-.75v-7.5c0-1.242-1.008-2.25-2.25-2.25s-2.25 1.008-2.25 2.25v7.5c0 .414.336.75.75.75zm-.75-1.5h-1.5v-6.75c0-.414.336-.75.75-.75s.75.336.75.75z"/><path d="m20.625 12.75c.414 0 .75-.336.75-.75v-5.5c0-1.242-1.008-2.25-2.25-2.25s-2.25 1.008-2.25 2.25v5.5c0 .414.336.75.75.75zm-.75-1.5h-1.5v-4.75c0-.414.336-.75.75-.75s.75.336.75.75z"/><path d="m7.125 13.099v-2.099c0-1.242-1.008-2.25-2.25-2.25s-2.25 1.008-2.25 2.25v3.563c0 .813.36 1.584.982 2.106 0 0 4.529 3.899 4.529 3.899.222.192.535.236.802.114.266-.122.437-.389.437-.682v-5c0-.251-.125-.485-.334-.624zm-1.5.401c0 .251.125.485.334.624l1.916 1.277v2.964l-3.3-2.841c-.285-.238-.45-.59-.45-.961v-3.563c0-.414.336-.75.75-.75s.75.336.75.75z"/><path d="m17.375 17c0-1.518-1.232-2.75-2.75-2.75s-2.75 1.232-2.75 2.75 1.232 2.75 2.75 2.75 2.75-1.232 2.75-2.75zm-1.5 0c0 .69-.56 1.25-1.25 1.25s-1.25-.56-1.25-1.25.56-1.25 1.25-1.25 1.25.56 1.25 1.25z"/><path d="m13.875 19v3c0 .414.336.75.75.75s.75-.336.75-.75v-3c0-.414-.336-.75-.75-.75s-.75.336-.75.75z"/></g></svg>