<svg clip-rule="evenodd" fill-rule="evenodd" height="512" stroke-linejoin="round" stroke-miterlimit="2" viewBox="0 0 24 24" width="512" xmlns="http://www.w3.org/2000/svg"><g id="Icon"><path d="m4.065 17.75h13.386c1.268 0 2.299-1.034 2.299-2.315 0-3.019 0-5.958 0-9.349 0-.751-.296-1.471-.822-2.003-.529-.534-1.246-.833-1.993-.833 0 0-8.865 0-12.935 0-.729 0-1.429.29-1.945.805-.515.516-.805 1.216-.805 1.945v8.914c0 .751.296 1.471.822 2.003.529.534 1.246.833 1.993.833zm13.386-1.5h-13.386c-.348 0-.681-.14-.927-.389-.249-.251-.388-.592-.388-.947v-8.914c0-.332.132-.649.366-.884.235-.234.552-.366.884-.366h12.935c.348 0 .681.14.927.389.249.251.388.592.388.947v9.349c0 .448-.356.815-.799.815z"/><path d="m4.25 17v.914c0 .751.296 1.471.822 2.003.529.534 1.246.833 1.993.833h13.386c1.268 0 2.299-1.034 2.299-2.315 0-3.019 0-5.958 0-9.349 0-.751-.296-1.471-.822-2.003-.529-.534-1.246-.833-1.993-.833h-.935c-.414 0-.75.336-.75.75s.336.75.75.75h.935c.348 0 .681.14.927.389.249.251.388.592.388.947v9.349c0 .448-.356.815-.799.815h-13.386c-.348 0-.681-.14-.927-.389-.249-.251-.388-.592-.388-.947v-.914c0-.414-.336-.75-.75-.75s-.75.336-.75.75z"/><path d="m10.75 13c0-1.331 0-3.669 0-5 0-.464-.184-.909-.513-1.237-.328-.329-.773-.513-1.237-.513-.871 0-2.129 0-3 0-.464 0-.909.184-1.237.513-.329.328-.513.773-.513 1.237v5c0 .464.184.909.513 1.237.328.329.773.513 1.237.513h3c.464 0 .909-.184 1.237-.513.329-.328.513-.773.513-1.237zm-1.5-5v5c0 .066-.026.13-.073.177s-.111.073-.177.073h-3c-.066 0-.13-.026-.177-.073s-.073-.111-.073-.177v-5c0-.066.026-.13.073-.177s.111-.073.177-.073h3c.066 0 .13.026.177.073s.073.111.073.177z"/><path d="m12.5 14.25h3.5c.414 0 .75-.336.75-.75s-.336-.75-.75-.75h-3.5c-.414 0-.75.336-.75.75s.336.75.75.75z"/><path d="m12.5 11.25h3.5c.414 0 .75-.336.75-.75s-.336-.75-.75-.75h-3.5c-.414 0-.75.336-.75.75s.336.75.75.75z"/><path d="m12.5 8.25h1.5c.414 0 .75-.336.75-.75s-.336-.75-.75-.75h-1.5c-.414 0-.75.336-.75.75s.336.75.75.75z"/></g></svg>