<svg clip-rule="evenodd" fill-rule="evenodd" height="512" stroke-linejoin="round" stroke-miterlimit="2" viewBox="0 0 24 24" width="512" xmlns="http://www.w3.org/2000/svg"><g id="Icon"><path d="m5.53 18.47c.293.292.293.768 0 1.06-.292.293-.768.293-1.06 0-.293-.292-.293-.768 0-1.06.292-.293.768-.293 1.06 0z"/><path d="m10.572 9.486c-.727-2.176-.224-4.675 1.508-6.406 1.716-1.716 4.185-2.225 6.347-1.527.249.08.438.284.499.538s-.014.521-.199.706l-2.149 2.149.247 2.229 2.228.247 2.15-2.149c.185-.185.452-.26.706-.199s.458.25.538.499c.698 2.162.189 4.631-1.527 6.347-1.731 1.732-4.23 2.235-6.406 1.508l-7.782 8.318c-.586.627-1.402.989-2.261 1.004-.858.014-1.686-.321-2.293-.928s-.942-1.435-.928-2.293c.015-.859.377-1.675 1.004-2.261zm1.393.751-8.686 8.126c-.331.309-.521.739-.529 1.191-.007.452.169.888.489 1.207.319.32.755.496 1.207.489.452-.008.882-.198 1.191-.529l8.126-8.686c.216-.231.555-.301.845-.176 1.737.752 3.833.419 5.251-.999.966-.966 1.429-2.245 1.389-3.511l-1.389 1.389c-.161.161-.386.24-.613.215l-3.183-.354c-.348-.039-.623-.314-.662-.662l-.354-3.183c-.025-.227.054-.452.215-.613 0 0 1.389-1.389 1.389-1.389-1.266-.04-2.545.423-3.511 1.389-1.418 1.418-1.751 3.514-.999 5.251.125.29.055.629-.176.845z"/></g></svg>