<svg clip-rule="evenodd" fill-rule="evenodd" height="512" stroke-linejoin="round" stroke-miterlimit="2" viewBox="0 0 24 24" width="512" xmlns="http://www.w3.org/2000/svg"><g id="Icon"><path d="m16.75 13c0-2.622-2.128-4.75-4.75-4.75s-4.75 2.128-4.75 4.75 2.128 4.75 4.75 4.75 4.75-2.128 4.75-4.75zm-1.5 0c0 1.794-1.456 3.25-3.25 3.25s-3.25-1.456-3.25-3.25 1.456-3.25 3.25-3.25 3.25 1.456 3.25 3.25z"/><path d="m14.25 13c0-1.741-.411-3.243-.953-3.993-.378-.522-.843-.757-1.297-.757s-.919.235-1.297.757c-.542.75-.953 2.252-.953 3.993s.411 3.243.953 3.993c.378.522.843.757 1.297.757s.919-.235 1.297-.757c.542-.75.953-2.252.953-3.993zm-2.25-3.195c.063.074.161.197.218.309.333.65.532 1.703.532 2.886s-.199 2.236-.532 2.886c-.057.112-.155.235-.218.309-.063-.074-.161-.197-.218-.309-.333-.65-.532-1.703-.532-2.886s.199-2.236.532-2.886c.057-.112.155-.235.218-.309z"/><path d="m16 12.25h-8c-.414 0-.75.336-.75.75s.336.75.75.75h8c.414 0 .75-.336.75-.75s-.336-.75-.75-.75z"/><path d="m6.685 22.75h10.315c1.519 0 2.75-1.231 2.75-2.75v-11.5c0-1.519-1.231-2.75-2.75-2.75h-12c-.414 0-.75.336-.75.75v14.088c0 1.155 1.057 2.162 2.435 2.162zm10.315-1.5h-10.315c-.485 0-.935-.256-.935-.662v-13.338h11.25c.69 0 1.25.56 1.25 1.25v11.5c0 .69-.56 1.25-1.25 1.25z"/><path d="m16.383 7.25c.414 0 .75-.336.75-.75v-3.362c0-.64-.325-1.238-.863-1.585-.538-.348-1.216-.4-1.801-.137-3.137 1.412-9.777 4.4-9.777 4.4-.322.145-.499.496-.425.841.074.346.379.593.733.593zm-.75-1.5h-7.139s6.591-2.966 6.591-2.966c.12-.054.259-.043.37.028.111.072.178.194.178.326z"/><path d="m9.75 20.25h4.5c.414 0 .75-.336.75-.75s-.336-.75-.75-.75h-4.5c-.414 0-.75.336-.75.75s.336.75.75.75z"/></g></svg>