<svg clip-rule="evenodd" fill-rule="evenodd" stroke-linejoin="round" stroke-miterlimit="1.414" viewBox="0 0 32 32" xmlns="http://www.w3.org/2000/svg" xmlns:serif="http://www.serif.com/"><path id="search-internet-web-" d="m0 0h32v32h-32z" fill="none"/><path d="m17.601 18.911c-.871.702-1.868 1.246-2.936 1.58-3.629 1.132-7.895-.282-10.107-3.508-1.893-2.761-2.095-6.567-.419-9.533.77-1.363 1.904-2.519 3.248-3.319.57-.339 1.426-.082 1.574.6.1.46-.185.9-.621 1.165-2.135 1.315-3.473 3.797-3.356 6.31.157 3.41 3.075 6.534 6.722 6.684 2.665.109 5.318-1.437 6.532-3.826 1.103-2.17.966-4.92-.354-6.974-.927-1.442-2.396-2.52-4.059-2.974 0 0-.633-.248-.742-.766-.114-.538.301-1.129.851-1.2.149-.02.186-.006.235-.003.522.076 1.015.289 1.502.507 3.877 1.731 6.188 6.384 5.002 10.646-.324 1.166-.899 2.253-1.656 3.194l1.467 1.467c.389-.187.817-.294 1.251-.301.036-.001.036-.001.072 0 .77.013 1.525.326 2.074.865 1.428 1.419 2.851 2.842 4.27 4.27.911.929 1.124 2.463.468 3.604-.902 1.572-3.325 2.011-4.717.646-1.428-1.419-2.852-2.842-4.27-4.27-.858-.874-1.101-2.287-.573-3.405zm4.158 1.752c-.654.011-1.169.758-.917 1.379.049.121.123.232.215.325 1.411 1.42 2.831 2.831 4.246 4.247.57.569 1.742.134 1.71-.745-.009-.245-.112-.485-.283-.661-1.403-1.431-2.834-2.834-4.251-4.251-.19-.191-.431-.296-.72-.294z" fill-rule="nonzero"/></svg>