<svg clip-rule="evenodd" fill-rule="evenodd" height="512" stroke-linejoin="round" stroke-miterlimit="2" viewBox="0 0 24 24" width="512" xmlns="http://www.w3.org/2000/svg"><g id="Icon"><path d="m9.75 3c0 1.242 1.008 2.25 2.25 2.25s2.25-1.008 2.25-2.25c0-.22.097-.43.265-.572.168-.143.391-.204.608-.168l2.214.369c.616.103 1.207.326 1.737.658l3.323 2.077c.303.189.431.565.305.899l-1.5 4c-.071.189-.215.342-.399.423-.185.082-.394.085-.582.01 0 0-1.471-.588-1.471-.588v9.892c0 .464-.184.909-.513 1.237-.328.329-.773.513-1.237.513h-10c-.464 0-.909-.184-1.237-.513-.329-.328-.513-.773-.513-1.237v-9.892l-1.471.588c-.188.075-.397.072-.582-.01-.184-.081-.328-.234-.399-.423l-1.5-4c-.126-.334.002-.71.305-.899l3.476-2.173c.429-.268.907-.449 1.407-.532l2.391-.399c.217-.036.44.025.608.168.168.142.265.352.265.572zm-1.399.868-1.618.27c-.305.051-.597.162-.859.325l-2.956 1.848 1.015 2.708 1.788-.715c.232-.093.493-.065.699.075.207.139.33.372.33.621v11c0 .066.026.13.073.177s.111.073.177.073h10c.066 0 .13-.026.177-.073s.073-.111.073-.177v-11c0-.249.123-.482.33-.621.206-.14.467-.168.699-.075l1.788.715 1.015-2.708-2.803-1.752c-.363-.227-.767-.38-1.189-.45 0 0-1.441-.241-1.441-.241-.392 1.652-1.878 2.882-3.649 2.882s-3.257-1.23-3.649-2.882z"/><path d="m14.78 2.283c.396-.121.816.102.937.497.121.396-.102.816-.497.937-2.146.657-4.292.653-6.438.001-.396-.121-.62-.54-.5-.936.121-.396.54-.62.936-.5 1.854.564 3.708.569 5.562.001z"/></g></svg>