<svg clip-rule="evenodd" fill-rule="evenodd" height="512" stroke-linejoin="round" stroke-miterlimit="2" viewBox="0 0 24 24" width="512" xmlns="http://www.w3.org/2000/svg"><g id="Icon"><path d="m20 22.75c1.518 0 2.75-1.232 2.75-2.75v-8c0-1.518-1.232-2.75-2.75-2.75h-16c-1.518 0-2.75 1.232-2.75 2.75v8c0 1.518 1.232 2.75 2.75 2.75zm0-1.5h-16c-.69 0-1.25-.56-1.25-1.25v-8c0-.69.56-1.25 1.25-1.25h16c.69 0 1.25.56 1.25 1.25v8c0 .69-.56 1.25-1.25 1.25z"/><path d="m8.064 19.685h7.872c.413 0 .75-.336.75-.75-.001-.413-.337-.75-.751-.75h-7.87c-.414 0-.75.337-.75.75-.001.414.336.75.749.75z"/><path d="m5 13.75h1c.414 0 .75-.336.75-.75s-.336-.75-.75-.75h-1c-.414 0-.75.336-.75.75s.336.75.75.75z"/><path d="m9 13.75h1c.414 0 .75-.336.75-.75s-.336-.75-.75-.75h-1c-.414 0-.75.336-.75.75s.336.75.75.75z"/><path d="m14 13.75h1c.414 0 .75-.336.75-.75s-.336-.75-.75-.75h-1c-.414 0-.75.336-.75.75s.336.75.75.75z"/><path d="m18 13.75h1c.414 0 .75-.336.75-.75s-.336-.75-.75-.75h-1c-.414 0-.75.336-.75.75s.336.75.75.75z"/><path d="m5 16.75h1c.414 0 .75-.336.75-.75s-.336-.75-.75-.75h-1c-.414 0-.75.336-.75.75s.336.75.75.75z"/><path d="m9 16.75h1c.414 0 .75-.336.75-.75s-.336-.75-.75-.75h-1c-.414 0-.75.336-.75.75s.336.75.75.75z"/><path d="m14 16.75h1c.414 0 .75-.336.75-.75s-.336-.75-.75-.75h-1c-.414 0-.75.336-.75.75s.336.75.75.75z"/><path d="m18 16.75h1c.414 0 .75-.336.75-.75s-.336-.75-.75-.75h-1c-.414 0-.75.336-.75.75s.336.75.75.75z"/><path d="m6.486 4.689c1.411-1.202 3.362-1.939 5.514-1.939 2.151 0 4.103.737 5.514 1.939.315.269.788.231 1.057-.084.268-.315.231-.789-.085-1.058-1.661-1.415-3.953-2.297-6.486-2.297-2.534 0-4.825.882-6.486 2.297-.316.269-.353.743-.085 1.058.269.315.742.353 1.057.084z"/><path d="m8.867 6.753c.797-.63 1.907-1.008 3.133-1.008s2.336.378 3.133 1.008c.325.257.797.202 1.054-.123.256-.325.201-.797-.123-1.053-1.037-.82-2.471-1.332-4.064-1.332s-3.027.512-4.064 1.332c-.324.256-.38.728-.123 1.053s.729.38 1.054.123z"/></g></svg>