<svg clip-rule="evenodd" fill-rule="evenodd" stroke-linejoin="round" stroke-miterlimit="1.414" viewBox="0 0 32 32" xmlns="http://www.w3.org/2000/svg" xmlns:serif="http://www.serif.com/"><path id="injection-blood-donation-health" d="m0 0h32v32h-32z" fill="none"/><path d="m24.62 6.005-1.295-1.294c-.536-.558-.171-1.668.658-1.709.027-.001.053-.001.08-.001.122.006.142.013.197.026.129.03.252.086.36.164.043.031.083.066.121.103l4.006 4.006c.529.551.189 1.667-.658 1.709-.279.014-.559-.101-.758-.292l-1.295-1.295-2.59 2.59 1.295 1.295c.066.068.118.144.157.226.173.33.172.758-.055 1.071-.041.056-.055.068-.102.119l-12.019 12.019c-.155.144-.345.248-.551.281-.069.011-.087.01-.157.012h-3.591l-3.713 3.713c-.558.536-1.668.165-1.709-.658-.014-.279.101-.559.292-.758l3.713-3.713v-3.592c.016-.41.098-.496.294-.708l8.012-8.012c.428-.396 1.17-.36 1.519.119.247.341.246.838 0 1.178-.042.056-.055.068-.102.119l-7.72 7.719v2.59h2.59l11.017-11.017-3.298-3.298c-.529-.551-.197-1.666.659-1.709.026-.001.053-.001.079-.001.256.013.453.076.679.293l1.295 1.295 2.59-2.59z" fill-rule="nonzero"/></svg>