<svg clip-rule="evenodd" fill-rule="evenodd" height="512" stroke-linejoin="round" stroke-miterlimit="2" viewBox="0 0 24 24" width="512" xmlns="http://www.w3.org/2000/svg"><g id="Icon"><path d="m9.25 20c0 1.518 1.232 2.75 2.75 2.75s2.75-1.232 2.75-2.75-1.232-2.75-2.75-2.75-2.75 1.232-2.75 2.75zm1.5 0c0-.69.56-1.25 1.25-1.25s1.25.56 1.25 1.25-.56 1.25-1.25 1.25-1.25-.56-1.25-1.25z"/><path d="m1.25 7.5c0 1.794 1.456 3.25 3.25 3.25s3.25-1.456 3.25-3.25-1.456-3.25-3.25-3.25-3.25 1.456-3.25 3.25zm1.5 0c0-.966.784-1.75 1.75-1.75s1.75.784 1.75 1.75-.784 1.75-1.75 1.75-1.75-.784-1.75-1.75z"/><path d="m22.75 2c0-.414-.336-.75-.75-.75h-4c-.414 0-.75.336-.75.75v4c0 .414.336.75.75.75h4c.414 0 .75-.336.75-.75zm-1.5.75v2.5h-2.5v-2.5z"/><path d="m12.656 1.636c-.133-.238-.384-.386-.656-.386s-.523.148-.656.386l-3 5.398c-.129.232-.125.515.01.744.134.229.38.37.646.37h6c.266 0 .512-.141.646-.37.135-.229.139-.512.01-.744zm-.656 1.908 1.725 3.104h-3.45s1.725-3.104 1.725-3.104z"/><path d="m11.25 8v10c0 .414.336.75.75.75s.75-.336.75-.75v-10c0-.414-.336-.75-.75-.75s-.75.336-.75.75z"/><path d="m19.25 6v6c0 .69-.56 1.25-1.25 1.25h-6c-.414 0-.75.336-.75.75s.336.75.75.75h6c1.518 0 2.75-1.232 2.75-2.75v-6c0-.414-.336-.75-.75-.75s-.75.336-.75.75z"/><path d="m3.75 10v3.407c0 1.521 1.232 2.75 2.75 2.75h5.5c.414 0 .75-.336.75-.75s-.336-.75-.75-.75h-5.5c-.69 0-1.25-.559-1.25-1.25v-3.407c0-.414-.336-.75-.75-.75s-.75.336-.75.75z"/></g></svg>