<svg clip-rule="evenodd" fill-rule="evenodd" height="512" stroke-linejoin="round" stroke-miterlimit="2" viewBox="0 0 24 24" width="512" xmlns="http://www.w3.org/2000/svg"><g id="Icon"><path d="m20.25 20v-12.558c0-.493-.208-.963-.573-1.295-.991-.901-3.952-3.592-4.886-4.442-.323-.293-.742-.455-1.178-.455-1.182 0-4.807 0-7.113 0-.729 0-1.429.29-1.945.805-.515.516-.805 1.216-.805 1.945v16c0 .729.29 1.429.805 1.945.516.515 1.216.805 1.945.805h11c.729 0 1.429-.29 1.945-.805.515-.516.805-1.216.805-1.945zm-1.5 0c0 .332-.132.649-.366.884-.235.234-.552.366-.884.366h-11c-.332 0-.649-.132-.884-.366-.234-.235-.366-.552-.366-.884v-16c0-.332.132-.649.366-.884.235-.234.552-.366.884-.366h7.113c.063 0 .123.023.169.065l4.886 4.442c.052.048.082.115.082.185z"/><path d="m14.75 6.25v-3.75c0-.414-.336-.75-.75-.75s-.75.336-.75.75v4c0 .332.132.649.366.884.235.234.553.366.884.366h4.5c.414 0 .75-.336.75-.75s-.336-.75-.75-.75z"/><path d="m7.5 10v3c0 .414.336.75.75.75s.75-.336.75-.75v-3c0-.414-.336-.75-.75-.75s-.75.336-.75.75z"/><path d="m7.25 10.75h2c.414 0 .75-.336.75-.75s-.336-.75-.75-.75h-2c-.414 0-.75.336-.75.75s.336.75.75.75z"/><path d="m10.921 13.335.829-1.658s.829 1.658.829 1.658c.185.371.636.521 1.006.336.371-.185.521-.636.336-1.006l-1.5-3c-.127-.254-.387-.415-.671-.415s-.544.161-.671.415l-1.5 3c-.185.37-.035.821.336 1.006.37.185.821.035 1.006-.336z"/><path d="m15.374 13.416 2-3c.23-.344.136-.81-.208-1.04s-.81-.136-1.04.208l-2 3c-.23.344-.136.81.208 1.04s.81.136 1.04-.208z"/><path d="m17.374 12.584-2-3c-.23-.344-.696-.438-1.04-.208s-.438.696-.208 1.04l2 3c.23.344.696.438 1.04.208s.438-.696.208-1.04z"/><path d="m11 16.75h5c.414 0 .75-.336.75-.75s-.336-.75-.75-.75h-5c-.414 0-.75.336-.75.75s.336.75.75.75z"/><path d="m11 19.75h5c.414 0 .75-.336.75-.75s-.336-.75-.75-.75h-5c-.414 0-.75.336-.75.75s.336.75.75.75z"/><path d="m8 16.75h1c.414 0 .75-.336.75-.75s-.336-.75-.75-.75h-1c-.414 0-.75.336-.75.75s.336.75.75.75z"/><path d="m8 19.75h1c.414 0 .75-.336.75-.75s-.336-.75-.75-.75h-1c-.414 0-.75.336-.75.75s.336.75.75.75z"/></g></svg>