<svg clip-rule="evenodd" fill-rule="evenodd" height="512" stroke-linejoin="round" stroke-miterlimit="2" viewBox="0 0 24 24" width="512" xmlns="http://www.w3.org/2000/svg"><g id="Icon"><path d="m15.55 8c0-.477-.19-.935-.527-1.273-.338-.337-.796-.527-1.273-.527-1.732 0-5.268 0-7 0-.477 0-.935.19-1.273.527-.337.338-.527.796-.527 1.273v12c0 .743.295 1.455.82 1.98s1.237.82 1.98.82h5c.743 0 1.455-.295 1.98-.82s.82-1.237.82-1.98zm-1.6 0v12c0 .318-.126.623-.351.849-.226.225-.531.351-.849.351h-5c-.318 0-.623-.126-.849-.351-.225-.226-.351-.531-.351-.849v-12c0-.053.021-.104.059-.141.037-.038.088-.059.141-.059h7c.053 0 .104.021.141.059.038.037.059.088.059.141z"/><path d="m12.8 12.5v-1c0-.994-.806-1.8-1.8-1.8h-1.5c-.994 0-1.8.806-1.8 1.8v1c0 .994.806 1.8 1.8 1.8h1.5c.994 0 1.8-.806 1.8-1.8zm-1.6-1v1c0 .11-.09.2-.2.2h-1.5c-.11 0-.2-.09-.2-.2v-1c0-.11.09-.2.2-.2h1.5c.11 0 .2.09.2.2z"/><path d="m15.55 4c0-.743-.295-1.455-.82-1.98s-1.237-.82-1.98-.82c-1.488 0-3.512 0-5 0-.743 0-1.455.295-1.98.82s-.82 1.237-.82 1.98v2c0 .477.19.935.527 1.273.338.337.796.527 1.273.527h7c.477 0 .935-.19 1.273-.527.337-.338.527-.796.527-1.273zm-1.6 0v2c0 .053-.021.104-.059.141-.037.038-.088.059-.141.059h-7c-.053 0-.104-.021-.141-.059-.038-.037-.059-.088-.059-.141v-2c0-.318.126-.623.351-.849.226-.225.531-.351.849-.351h5c.318 0 .623.126.849.351.225.226.351.531.351.849z"/><path d="m14.75 9.75h1.5c.69 0 1.25.56 1.25 1.25v4c0 .69-.56 1.25-1.25 1.25h-1.5c-.414 0-.75.336-.75.75s.336.75.75.75h1.5c1.519 0 2.75-1.231 2.75-2.75 0-1.222 0-2.778 0-4 0-1.519-1.231-2.75-2.75-2.75-.784 0-1.5 0-1.5 0-.414 0-.75.336-.75.75s.336.75.75.75z"/><path d="m14.75 18.25h-9c-.414 0-.75.336-.75.75s.336.75.75.75h9c.414 0 .75-.336.75-.75s-.336-.75-.75-.75z"/></g></svg>