<svg clip-rule="evenodd" fill-rule="evenodd" height="512" stroke-linejoin="round" stroke-miterlimit="2" viewBox="0 0 24 24" width="512" xmlns="http://www.w3.org/2000/svg"><g id="Icon"><circle cx="5.5" cy="8.06" r="1"/><circle cx="18.5" cy="8.06" r="1"/><path d="m12 15.172c-1.247 0-2.259 1.012-2.259 2.259s1.012 2.259 2.259 2.259 2.259-1.012 2.259-2.259-1.012-2.259-2.259-2.259zm0 1.5c.419 0 .759.34.759.759s-.34.759-.759.759-.759-.34-.759-.759.34-.759.759-.759z"/><path d="m18.491 15.181c-1.242 0-2.25 1.008-2.25 2.25s1.008 2.25 2.25 2.25 2.25-1.008 2.25-2.25-1.008-2.25-2.25-2.25zm0 1.5c.414 0 .75.336.75.75s-.336.75-.75.75-.75-.336-.75-.75.336-.75.75-.75z"/><path d="m5.509 15.172c-1.247 0-2.259 1.012-2.259 2.259s1.012 2.259 2.259 2.259 2.259-1.012 2.259-2.259-1.012-2.259-2.259-2.259zm0 1.5c.419 0 .759.34.759.759s-.34.759-.759.759-.759-.34-.759-.759.34-.759.759-.759z"/><path d="m2 18.181h2c.414 0 .75-.336.75-.75s-.336-.75-.75-.75h-2c-.414 0-.75.336-.75.75s.336.75.75.75z"/><path d="m7 18.181h3.491c.414 0 .75-.336.75-.75s-.336-.75-.75-.75h-3.491c-.414 0-.75.336-.75.75s.336.75.75.75z"/><path d="m13.509 18.181h3.473c.414 0 .75-.336.75-.75s-.336-.75-.75-.75h-3.473c-.414 0-.75.336-.75.75s.336.75.75.75z"/><path d="m19.985 18.181h2.015c.414 0 .75-.336.75-.75s-.336-.75-.75-.75h-2.015c-.414 0-.75.336-.75.75s.336.75.75.75z"/><path d="m5.5 4.31c-2.07 0-3.75 1.681-3.75 3.75 0 3.364 3.334 5.624 3.334 5.624.252.168.58.168.832 0 0 0 3.334-2.26 3.334-5.624 0-2.069-1.68-3.75-3.75-3.75zm0 1.5c1.242 0 2.25 1.008 2.25 2.25 0 1.978-1.5 3.451-2.25 4.064-.75-.613-2.25-2.086-2.25-4.064 0-1.242 1.008-2.25 2.25-2.25z"/><path d="m18.5 4.31c-2.07 0-3.75 1.681-3.75 3.75 0 3.364 3.334 5.624 3.334 5.624.252.168.58.168.832 0 0 0 3.334-2.26 3.334-5.624 0-2.069-1.68-3.75-3.75-3.75zm0 1.5c1.242 0 2.25 1.008 2.25 2.25 0 1.978-1.5 3.451-2.25 4.064-.75-.613-2.25-2.086-2.25-4.064 0-1.242 1.008-2.25 2.25-2.25z"/></g></svg>