<svg clip-rule="evenodd" fill-rule="evenodd" height="512" stroke-linejoin="round" stroke-miterlimit="2" viewBox="0 0 24 24" width="512" xmlns="http://www.w3.org/2000/svg"><g id="Icon"><path d="m21.171 8.085c.116-.232.104-.508-.033-.729s-.378-.356-.638-.356h-13.5c-.229 0-.446.105-.588.285-.143.18-.195.415-.142.638l1.095 4.61c.071.298.316.524.62.569l9.405 1.39c.321.047.636-.117.781-.407zm-1.885.415-2.214 4.429s-8.365-1.237-8.365-1.237-.758-3.192-.758-3.192z"/><path d="m2 5h.643c.123 0 .228.09.247.212.107.691.31 2.243.493 3.671 0 .001 0 .003.001.004.28 2.089 1.902 3.743 3.985 4.063 3.286.506 8.289 1.275 9.659 1.486 0 0 1.821 3.186 1.821 3.186.205.36.664.485 1.023.279.36-.205.485-.664.279-1.023l-2-3.5c-.113-.199-.311-.335-.537-.369l-10.017-1.542c-1.424-.219-2.534-1.35-2.727-2.778-.184-1.442-.39-3.009-.498-3.707-.132-.853-.866-1.482-1.729-1.482h-.643c-.414 0-.75.336-.75.75s.336.75.75.75z"/><path d="m22.25 6.25c0-.331-.132-.649-.366-.884-.235-.234-.552-.366-.884-.366-2.336 0-12.164 0-14.5 0-.332 0-.649.132-.884.366-.234.235-.366.553-.366.884v1c0 .331.132.649.366.884.235.234.552.366.884.366h14.5c.332 0 .649-.132.884-.366.234-.235.366-.553.366-.884zm-15.5.25v.5h14v-.5z"/><path d="m19.5 14c-1.794 0-3.25 1.456-3.25 3.25s1.456 3.25 3.25 3.25 3.25-1.456 3.25-3.25-1.456-3.25-3.25-3.25zm0 1.5c.966 0 1.75.784 1.75 1.75s-.784 1.75-1.75 1.75-1.75-.784-1.75-1.75.784-1.75 1.75-1.75z"/><path d="m7.25 12.25v5.5c0 .749.477 1.416 1.186 1.657.71.241 1.494.004 1.951-.59.015-.019.028-.038.041-.059l3.207-5.109c.22-.351.114-.814-.236-1.034-.351-.22-.814-.114-1.034.236l-3.182 5.069c-.067.072-.17.099-.264.067-.101-.035-.169-.13-.169-.237v-5.5c0-.414-.336-.75-.75-.75s-.75.336-.75.75z"/></g></svg>