<svg clip-rule="evenodd" fill-rule="evenodd" height="512" stroke-linejoin="round" stroke-miterlimit="2" viewBox="0 0 24 24" width="512" xmlns="http://www.w3.org/2000/svg"><g id="Icon"><path d="m4 5.231h-2c-.414 0-.75.336-.75.75 0 .413.336.75.75.75h2c.414 0 .75-.337.75-.75 0-.414-.336-.75-.75-.75z"/><path d="m22 5.231h-6c-.414 0-.75.336-.75.75 0 .413.336.75.75.75h6c.414 0 .75-.337.75-.75 0-.414-.336-.75-.75-.75z"/><path d="m16 5.231c-.414 0-.75.335-.75.75v12.019c0 .414.336.75.75.75h3c.968 0 1.75-.782 1.75-1.75v-11.019c0-.415-.336-.75-.75-.75zm.75 1.5h2.5v10.269c0 .138-.112.25-.25.25h-2.25z"/><path d="m15 22.731c.968 0 1.75-.783 1.75-1.75v-17c0-.69.56-1.25 1.25-1.25.414 0 .75-.336.75-.75 0-.415-.336-.75-.75-.75h-12c-1.518 0-2.75 1.232-2.75 2.75v17c0 .967.782 1.75 1.75 1.75zm0-1.5h-10c-.138 0-.25-.112-.25-.25v-17c0-.69.56-1.25 1.25-1.25h9.55c-.192.375-.3.8-.3 1.25v17c0 .138-.112.25-.25.25z"/><path d="m18 1.25c-1.519 0-2.75 1.231-2.75 2.75v1.981c0 .414.336.75.75.75h4c.414 0 .75-.336.75-.75v-1.981c0-1.519-1.231-2.75-2.75-2.75zm0 1.5c.69 0 1.25.56 1.25 1.25v1.231h-2.5v-1.231c0-.69.56-1.25 1.25-1.25z"/></g></svg>