<svg clip-rule="evenodd" fill-rule="evenodd" height="512" stroke-linejoin="round" stroke-miterlimit="2" viewBox="0 0 24 24" width="512" xmlns="http://www.w3.org/2000/svg"><g id="Icon"><path d="m12 4.75c-4.001 0-7.25 3.249-7.25 7.25s3.249 7.25 7.25 7.25 7.25-3.249 7.25-7.25-3.249-7.25-7.25-7.25zm0 1.5c3.174 0 5.75 2.576 5.75 5.75s-2.576 5.75-5.75 5.75-5.75-2.576-5.75-5.75 2.576-5.75 5.75-5.75z"/><path d="m12 1.25c-5.933 0-10.75 4.817-10.75 10.75s4.817 10.75 10.75 10.75 10.75-4.817 10.75-10.75-4.817-10.75-10.75-10.75zm0 1.5c5.105 0 9.25 4.145 9.25 9.25s-4.145 9.25-9.25 9.25-9.25-4.145-9.25-9.25 4.145-9.25 9.25-9.25z"/><path d="m12 4.75c-.989 0-1.93.552-2.671 1.561-.943 1.285-1.579 3.352-1.579 5.689s.636 4.404 1.579 5.689c.741 1.009 1.682 1.561 2.671 1.561s1.93-.552 2.671-1.561c.943-1.285 1.579-3.352 1.579-5.689s-.636-4.404-1.579-5.689c-.741-1.009-1.682-1.561-2.671-1.561zm0 1.5c.557 0 1.044.38 1.462.949.794 1.081 1.288 2.833 1.288 4.801s-.494 3.72-1.288 4.801c-.418.569-.905.949-1.462.949s-1.044-.38-1.462-.949c-.794-1.081-1.288-2.833-1.288-4.801s.494-3.72 1.288-4.801c.418-.569.905-.949 1.462-.949z"/><path d="m18 9.25h-12c-.414 0-.75.336-.75.75s.336.75.75.75h12c.414 0 .75-.336.75-.75s-.336-.75-.75-.75z"/><path d="m18 13.25h-12c-.414 0-.75.336-.75.75s.336.75.75.75h12c.414 0 .75-.336.75-.75s-.336-.75-.75-.75z"/></g></svg>