<svg clip-rule="evenodd" fill-rule="evenodd" height="512" stroke-linejoin="round" stroke-miterlimit="2" viewBox="0 0 24 24" width="512" xmlns="http://www.w3.org/2000/svg"><g id="Icon"><path d="m12 1.25c-2.893 0-5.397.625-6.644 1.484-.749.516-1.106 1.145-1.106 1.766s.357 1.25 1.106 1.766c1.247.859 3.751 1.484 6.644 1.484s5.397-.625 6.644-1.484c.749-.516 1.106-1.145 1.106-1.766s-.357-1.25-1.106-1.766c-1.247-.859-3.751-1.484-6.644-1.484zm0 1.5c2.182 0 4.121.364 5.32.948.329.16.595.332.774.524.086.091.156.177.156.278s-.07.187-.156.278c-.179.192-.445.364-.774.524-1.199.584-3.138.948-5.32.948s-4.121-.364-5.32-.948c-.329-.16-.595-.332-.774-.524-.086-.091-.156-.177-.156-.278s.07-.187.156-.278c.179-.192.445-.364.774-.524 1.199-.584 3.138-.948 5.32-.948z"/><path d="m11 5.25h2c.414 0 .75-.336.75-.75s-.336-.75-.75-.75h-2c-.414 0-.75.336-.75.75s.336.75.75.75z"/><path d="m20.527 12.075.605 2.117-2.562 1.794c-.201.14-.32.369-.32.614v2.9c0 .101-.07.187-.156.278-.179.192-.445.364-.774.524-1.199.584-3.138.948-5.32.948s-4.121-.364-5.32-.948c-.329-.16-.595-.332-.774-.524-.086-.091-.156-.177-.156-.278v-5.4c0-.245-.119-.474-.32-.614l-2.562-1.794.605-2.117 1.192.596c.232.116.508.104.729-.033s.356-.378.356-.638v-5c0-.414-.336-.75-.75-.75s-.75.336-.75.75v3.786s-.376-.187-.376-.187c-.332-.167-.722-.176-1.062-.027-.34.15-.596.444-.699.801l-.736 2.578c-.147.513.048 1.062.485 1.368 0 0 2.388 1.671 2.388 1.671v5.01c0 .621.357 1.25 1.106 1.766 1.247.859 3.751 1.484 6.644 1.484s5.397-.625 6.644-1.484c.749-.516 1.106-1.145 1.106-1.766v-2.51s2.388-1.671 2.388-1.671c.437-.306.632-.855.485-1.368l-.736-2.578c-.103-.357-.359-.651-.699-.801-.34-.149-.73-.14-1.062.027 0 0-.376.187-.376.187v-6.286c0-.414-.336-.75-.75-.75s-.75.336-.75.75v7.5c0 .26.135.501.356.638s.497.149.729.033z"/><path d="m7.75 18v3.5c0 .414.336.75.75.75s.75-.336.75-.75v-3.5c0-.414-.336-.75-.75-.75s-.75.336-.75.75z"/><path d="m14.75 15v6.5c0 .414.336.75.75.75s.75-.336.75-.75v-6.5c0-.414-.336-.75-.75-.75s-.75.336-.75.75z"/><path d="m11.25 13v2.5c0 .414.336.75.75.75s.75-.336.75-.75v-2.5c0-.414-.336-.75-.75-.75s-.75.336-.75.75z"/><path d="m11.25 20v2c0 .414.336.75.75.75s.75-.336.75-.75v-2c0-.414-.336-.75-.75-.75s-.75.336-.75.75z"/><path d="m11.25 7v2c0 .414.336.75.75.75s.75-.336.75-.75v-2c0-.414-.336-.75-.75-.75s-.75.336-.75.75z"/><path d="m7.75 7v8c0 .414.336.75.75.75s.75-.336.75-.75v-8c0-.414-.336-.75-.75-.75s-.75.336-.75.75z"/><path d="m14.75 7v5c0 .414.336.75.75.75s.75-.336.75-.75v-5c0-.414-.336-.75-.75-.75s-.75.336-.75.75z"/></g></svg>