<svg clip-rule="evenodd" fill-rule="evenodd" height="512" stroke-linejoin="round" stroke-miterlimit="2" viewBox="0 0 24 24" width="512" xmlns="http://www.w3.org/2000/svg"><g id="Icon"><path d="m6.973 22.741c.203.032.409-.021.572-.146s.267-.311.289-.515c.114-1.064.504-1.881.834-2.405.785 1.19.814 2.337.814 2.337.003.213.097.414.257.554.161.14.374.205.585.178 1.496-.187 2.452-.724 3.051-1.412.904-1.04 1.017-2.485.735-3.899-.419-2.093-1.673-4.083-1.673-4.083-.161-.256-.461-.39-.759-.34-.298.051-.537.275-.605.569-.039.165-.087.324-.141.475-.149-.476-.366-.914-.62-1.311-.958-1.499-2.446-2.387-2.446-2.387-.248-.148-.558-.141-.798.019-.241.159-.369.441-.33.727.182 1.318-.623 2.058-1.442 2.845-1.113 1.069-2.29 2.184-2.489 4.045-.217 2.03.854 3.236 1.989 3.929 1.063.649 2.177.82 2.177.82zm-.486-1.675c-.273-.095-.594-.232-.909-.425-.721-.441-1.418-1.199-1.279-2.49.156-1.46 1.163-2.283 2.036-3.122.802-.77 1.516-1.547 1.8-2.567.167.159.341.339.508.539.669.799 1.268 1.929.869 3.287-.095.325.038.672.325.85s.658.141.905-.089c0 0 .618-.573 1.154-1.522.286.626.584 1.404.743 2.2.189.945.208 1.926-.396 2.621-.302.347-.751.608-1.377.771-.171-.808-.598-2.052-1.662-3.171-.138-.145-.328-.229-.528-.234-.2-.004-.393.072-.537.211 0 0-1.185 1.126-1.652 3.141z"/><path d="m21.242 21.889-3-20c-.062-.41-.444-.692-.853-.631-.41.062-.692.444-.631.853l3 20c.062.41.444.692.853.631.41-.062.692-.444.631-.853z"/><path d="m18.808 8.316-3.334-1.5c-.377-.17-.821-.001-.991.376-.17.378-.002.822.376.992l3.333 1.5c.378.17.822.001.992-.376.17-.378.001-.822-.376-.992z"/><path d="m10.308 4.491-1.5-.675c-.378-.17-.822-.001-.992.376-.17.378-.001.822.376.992l1.5.675c.378.17.822.001.992-.376.17-.378.001-.822-.376-.992z"/><path d="m12.565 3.371c-.869-.422-1.916-.059-2.338.81l-.874 1.799c-.422.87-.059 1.917.81 2.339.784.38 1.915.929 2.699 1.31.869.422 1.916.059 2.339-.81l.873-1.799c.422-.87.06-1.917-.81-2.339zm-.655 1.349 2.699 1.311c.124.06.176.209.116.334 0 0-.874 1.799-.874 1.799-.06.124-.21.176-.334.116l-2.699-1.311c-.124-.06-.176-.209-.115-.334 0 0 .873-1.799.873-1.799.06-.124.21-.176.334-.116z"/></g></svg>