<svg clip-rule="evenodd" fill-rule="evenodd" height="512" stroke-linejoin="round" stroke-miterlimit="2" viewBox="0 0 24 24" width="512" xmlns="http://www.w3.org/2000/svg"><g id="Icon"><path d="m12 22.75c3.176 0 5.75-2.574 5.75-5.75v-4c0-3.176-2.574-5.75-5.75-5.75s-5.75 2.574-5.75 5.75v4c0 3.176 2.574 5.75 5.75 5.75zm0-1.5c-2.348 0-4.25-1.903-4.25-4.25v-4c0-2.348 1.902-4.25 4.25-4.25s4.25 1.902 4.25 4.25v4c0 2.347-1.902 4.25-4.25 4.25z"/><path d="m12 14.75c.968 0 1.75-.782 1.75-1.75v-1.2c0-.966-.782-1.75-1.75-1.75s-1.75.784-1.75 1.75v1.2c0 .968.782 1.75 1.75 1.75zm0-1.5c-.138 0-.25-.112-.25-.25v-1.2c0-.138.112-.25.25-.25s.25.112.25.25v1.2c0 .138-.112.25-.25.25z"/><path d="m11.25 8v2.8c0 .414.336.75.75.75s.75-.336.75-.75v-2.8c0-.414-.336-.75-.75-.75s-.75.336-.75.75z"/><path d="m11.25 14v2.4c0 .414.336.75.75.75s.75-.336.75-.75v-2.4c0-.414-.336-.75-.75-.75s-.75.336-.75.75z"/><path d="m6.486 4.689c1.411-1.203 3.362-1.939 5.514-1.939 2.151 0 4.103.736 5.514 1.939.315.268.788.231 1.057-.085.268-.315.231-.788-.085-1.057-1.661-1.415-3.953-2.297-6.486-2.297-2.534 0-4.825.882-6.486 2.297-.316.269-.353.742-.085 1.057.269.316.742.353 1.057.085z"/><path d="m8.867 6.753c.797-.631 1.907-1.008 3.133-1.008s2.336.377 3.133 1.008c.325.257.797.202 1.054-.123.256-.325.201-.797-.123-1.054-1.037-.819-2.471-1.331-4.064-1.331s-3.027.512-4.064 1.331c-.324.257-.38.729-.123 1.054s.729.38 1.054.123z"/></g></svg>