<svg clip-rule="evenodd" fill-rule="evenodd" height="512" stroke-linejoin="round" stroke-miterlimit="2" viewBox="0 0 24 24" width="512" xmlns="http://www.w3.org/2000/svg"><g id="Icon"><path d="m10.132 17.659c-.293-.293-.293-.768 0-1.061s.768-.293 1.061 0l2.564 2.564c.292.293.292.768 0 1.061-.293.292-.768.292-1.061 0z"/><path d="m11.193 20.223c-.293.292-.768.292-1.061 0-.293-.293-.293-.768 0-1.061l2.564-2.564c.293-.293.768-.293 1.061 0 .292.293.292.768 0 1.061z"/><path d="m11.944 14.071c2.396 0 4.34 1.944 4.34 4.339s-1.944 4.34-4.34 4.34c-2.395 0-4.339-1.945-4.339-4.34s1.944-4.339 4.339-4.339zm0 1.5c-1.567 0-2.839 1.272-2.839 2.839 0 1.568 1.272 2.84 2.839 2.84 1.568 0 2.84-1.272 2.84-2.84 0-1.567-1.272-2.839-2.84-2.839z"/><path d="m18.154 20.186c-.414 0-.75-.336-.75-.75s.336-.75.75-.75h1.025c.346 0 .677-.137.921-.381s.381-.575.381-.92v-10.257c0-.345-.137-.676-.381-.92s-.575-.381-.921-.381h-14.358c-.346 0-.677.137-.921.381s-.381.575-.381.92v10.257c0 .345.137.676.381.92s.575.381.921.381h1.025c.414 0 .75.336.75.75s-.336.75-.75.75h-1.025c-.743 0-1.456-.295-1.981-.821-.526-.525-.821-1.237-.821-1.98v-10.257c0-.743.295-1.455.821-1.981.525-.525 1.238-.82 1.981-.82h14.358c.743 0 1.456.295 1.981.82.526.526.821 1.238.821 1.981v10.257c0 .743-.295 1.455-.821 1.98-.525.526-1.238.821-1.981.821z"/><path d="m17.878 3.538v1.539c0 .414-.336.75-.75.75h-10.256c-.414 0-.75-.336-.75-.75v-1.539c0-.606.241-1.189.67-1.618s1.011-.67 1.618-.67h7.18c.607 0 1.189.241 1.618.67s.67 1.012.67 1.618zm-1.5 0c0-.209-.083-.409-.231-.557s-.348-.231-.557-.231h-7.18c-.209 0-.409.083-.557.231s-.231.348-.231.557v.789h8.756z"/><path d="m21.231 9.968c.414 0 .75.336.75.75s-.336.75-.75.75h-18.462c-.414 0-.75-.336-.75-.75s.336-.75.75-.75z"/><path d="m16.378 9.692c0-.414.336-.75.75-.75s.75.336.75.75v2.052c0 .414-.336.75-.75.75s-.75-.336-.75-.75z"/><path d="m6.122 9.692c0-.414.336-.75.75-.75s.75.336.75.75v2.052c0 .414-.336.75-.75.75s-.75-.336-.75-.75z"/></g></svg>