<svg clip-rule="evenodd" fill-rule="evenodd" stroke-linejoin="round" stroke-miterlimit="1.414" viewBox="0 0 32 32" xmlns="http://www.w3.org/2000/svg" xmlns:serif="http://www.serif.com/"><path id="hospital-health-sick-pharmacy" d="m0 0h32v32h-32z" fill="none"/><g id="hospital-health-sick-pharmacy1"><path d="m9 9h-1c-.479-.019-.913-.373-.988-.844-.011-.069-.009-.086-.012-.156v-4c.019-.479.373-.913.844-.988.069-.011.086-.009.156-.012h16c.026.001.052.002.078.003.502.06.902.484.922.997v4c-.009.241-.034.281-.076.383-.15.361-.528.601-.924.617h-13v18h2v-5s.045-.48.323-.736c.182-.168.427-.254.677-.264h4c.533.022.978.46 1 1v5h2v-15c.023-.56.497-1.021 1.083-.997.501.063.896.487.917.997v1h5c.025.001.05.002.075.003.228.026.264.05.359.096.336.162.552.524.566.901v14c-.018.483-.377.917-.851.989-.066.01-.083.009-.149.011h-6-4c-.534-.022-.978-.46-1-1v-5h-2v5c-.022.534-.46.978-1 1h-10c-.27-.011-.343-.048-.476-.121-.527-.285-.686-1.093-.26-1.556.187-.203.458-.311.736-.323h5v-12h-4v9s-.058.587-.464.844c-.557.354-1.439-.016-1.528-.719-.007-.055-.006-.069-.008-.125v-10c.006-.193.022-.225.049-.309.116-.358.45-.636.826-.683.055-.007.069-.006.125-.008h5zm14 18h4v-12h-4zm-8-14v-1c.003-.163.018-.216.05-.313.136-.413.553-.703 1.01-.685.482.038.899.438.937.919.003.035.002.044.003.079v1h1c.013 0 .027.001.04.001.721.043 1.231.987.752 1.609-.186.242-.484.384-.792.39h-1v1c-.015.769-1.052 1.301-1.671.741-.207-.186-.324-.465-.329-.741v-1h-1c-.87-.017-1.402-1.401-.459-1.888.106-.055.221-.091.34-.105.039-.005.079-.006.119-.007zm-6-8v2h14v-2c-4.667 0-9.333 0-14 0z" fill-rule="nonzero"/></g></svg>