<svg clip-rule="evenodd" fill-rule="evenodd" stroke-linejoin="round" stroke-miterlimit="2" viewBox="0 0 32 32" xmlns="http://www.w3.org/2000/svg" xmlns:serif="http://www.serif.com/"><path id="school-dorm-college" d="m0 0h32v32h-32z" fill="none"/><path d="m8.983 10.693-.759.189s-1.036-.014-1.215-.729c-.114-.457.141-.978.58-1.164.065-.028.082-.031.149-.05l8.013-2.004c.211-.044.215-.029.278-.029.136.01.166.021.208.029l8.013 2.004c.5.146.51.279.616.456.4.666-.246 1.666-1.101 1.487l-7.771-1.942-5.008 1.252v9.735c-.027.877-1.446 1.409-1.908.426-.059-.125-.088-.194-.095-.426v-4.727l-4.007 1.002v8.733h5.008 3.005v-5.008c.005-.176.021-.229.055-.328.137-.394.46-.662.947-.674h4.007c.015.001.031.001.047.001.176.013.228.032.325.071.372.149.618.459.629.93v5.008h2.004v-11.018s.007-.035.025-.092c.064-.458.432-.891.941-.909.031-.001.062 0 .093.001.003.001.007.001.011.001h.003.005c.034.004.059.004.166.027l8.013 2.004c.514.144.536.301.644.505.341.649-.275 1.603-1.075 1.45-.018-.003-.036-.008-.055-.012l-.758-.19v9.235c-.006.193-.022.225-.049.309-.131.403-.436.676-.953.692h-6.01-12.02-6.009c-.206-.006-.262-.028-.369-.07-.373-.148-.617-.432-.633-.931v-9.235l-.759.19c-.842.186-1.703-1.06-.883-1.742.11-.092.176-.139.397-.201l7.255-1.814zm8.013 14.242v-4.006h-2.003v4.006zm10.016-8.733-4.006-1.002v9.735h4.006zm-13.001-3.286c.514.015.966.462.981.981.007.67.092 1.414-.359 1.79-.562.47-1.618.1-1.643-.748-.009-.904.027-1.976.961-2.023.02 0 .04-.001.06 0zm4.007 0c.514.015.966.462.981.981.007.67.092 1.414-.359 1.79-.563.47-1.619.1-1.644-.748-.009-.904.028-1.976.962-2.023.02 0 .04-.001.06 0z"/></svg>