<svg clip-rule="evenodd" fill-rule="evenodd" height="512" stroke-linejoin="round" stroke-miterlimit="2" viewBox="0 0 24 24" width="512" xmlns="http://www.w3.org/2000/svg"><g id="Icon"><path d="m12 1.25c-5.933 0-10.75 4.817-10.75 10.75s4.817 10.75 10.75 10.75 10.75-4.817 10.75-10.75-4.817-10.75-10.75-10.75zm0 1.5c5.105 0 9.25 4.145 9.25 9.25s-4.145 9.25-9.25 9.25-9.25-4.145-9.25-9.25 4.145-9.25 9.25-9.25z"/><path d="m11.361 1.607c-2.213 3.595-2.209 7.19 0 10.786.217.352.679.463 1.032.246.352-.217.463-.679.246-1.032-1.887-3.071-1.891-6.142 0-9.214.217-.352.107-.815-.246-1.032-.352-.217-.815-.107-1.032.246z"/><path d="m5.901 3.655c-1.808 4.562-1.126 8.685 2.029 12.373.269.314.743.351 1.058.082.314-.269.351-.743.082-1.057-2.765-3.232-3.36-6.847-1.775-10.846.153-.385-.036-.821-.421-.973-.385-.153-.821.036-.973.421z"/><path d="m3.319 17.75c4.22.119 7.331-1.682 9.341-5.393.197-.364.061-.819-.303-1.017-.364-.197-.819-.061-1.017.303-1.716 3.17-4.374 4.709-7.979 4.607-.414-.011-.759.315-.771.729s.315.759.729.771z"/><path d="m8.415 21.987c4.703-.827 7.82-3.544 9.354-8.147.131-.393-.082-.818-.474-.949-.393-.131-.818.082-.949.474-1.344 4.033-4.07 6.42-8.191 7.144-.408.072-.681.461-.609.869s.461.68.869.609z"/><path d="m21.32 16.643c-2.007-3.714-5.122-5.508-9.341-5.393-.413.012-.74.357-.729.771.012.413.357.74.771.729 3.603-.099 6.265 1.433 7.979 4.607.197.364.653.5 1.017.303s.5-.652.303-1.017z"/><path d="m22.329 10.925c-3.065-3.647-6.972-4.982-11.719-4.011-.405.083-.667.48-.584.885.083.406.48.668.885.585 4.159-.851 7.584.311 10.27 3.506.266.317.74.358 1.056.091.317-.266.358-.74.092-1.056z"/></g></svg>