<svg clip-rule="evenodd" fill-rule="evenodd" height="512" stroke-linejoin="round" stroke-miterlimit="2" viewBox="0 0 24 24" width="512" xmlns="http://www.w3.org/2000/svg"><g id="Icon"><circle cx="5.25" cy="5" r=".75"/><circle cx="7.75" cy="5" r=".75"/><circle cx="10.25" cy="5" r=".75"/><path d="m22.75 10v-5.5c0-1.795-1.455-3.25-3.25-3.25h-15c-1.795 0-3.25 1.455-3.25 3.25v15c0 1.795 1.455 3.25 3.25 3.25h5.5c.414 0 .75-.336.75-.75s-.336-.75-.75-.75h-5.5c-.967 0-1.75-.783-1.75-1.75v-15c0-.967.783-1.75 1.75-1.75h15c.967 0 1.75.783 1.75 1.75v5.5c0 .414.336.75.75.75s.75-.336.75-.75z"/><path d="m22 7.25h-20c-.414 0-.75.336-.75.75s.336.75.75.75h20c.414 0 .75-.336.75-.75s-.336-.75-.75-.75z"/><path d="m17 11.25c-3.174 0-5.75 2.576-5.75 5.75s2.576 5.75 5.75 5.75 5.75-2.576 5.75-5.75-2.576-5.75-5.75-5.75zm0 1.5c2.346 0 4.25 1.904 4.25 4.25s-1.904 4.25-4.25 4.25-4.25-1.904-4.25-4.25 1.904-4.25 4.25-4.25z"/><path d="m17 11.25c-.534 0-1.069.275-1.513.85-.709.921-1.237 2.765-1.237 4.9s.528 3.979 1.237 4.9c.444.575.979.85 1.513.85s1.069-.275 1.513-.85c.709-.921 1.237-2.765 1.237-4.9s-.528-3.979-1.237-4.9c-.444-.575-.979-.85-1.513-.85zm0 1.5c.082 0 .144.068.216.14.111.113.211.26.306.434.452.829.728 2.169.728 3.676s-.276 2.847-.728 3.676c-.095.174-.195.321-.306.434-.072.072-.134.14-.216.14s-.144-.068-.216-.14c-.111-.113-.211-.26-.306-.434-.452-.829-.728-2.169-.728-3.676s.276-2.847.728-3.676c.095-.174.195-.321.306-.434.072-.072.134-.14.216-.14z"/><path d="m21.605 14.593-9.209-.01c-.413 0-.75.336-.75.75-.001.413.335.75.749.75l9.209.01c.413.001.75-.335.75-.749.001-.414-.335-.75-.749-.751z"/><path d="m21.605 17.926-9.209-.009c-.413-.001-.75.335-.75.749-.001.414.335.75.749.751l9.209.009c.413.001.75-.335.75-.749.001-.414-.335-.75-.749-.751z"/></g></svg>