<svg clip-rule="evenodd" fill-rule="evenodd" height="512" stroke-linejoin="round" stroke-miterlimit="2" viewBox="0 0 24 24" width="512" xmlns="http://www.w3.org/2000/svg"><g id="Icon"><path d="m9.25 10.25c1.243 0 2.25 1.007 2.25 2.25v3c0 .414-.336.75-.75.75s-.75-.336-.75-.75v-3c0-.414-.336-.75-.75-.75s-.75.336-.75.75v3c0 .414-.336.75-.75.75s-.75-.336-.75-.75v-3c0-1.243 1.007-2.25 2.25-2.25z"/><path d="m12.5 15.5v-4.5c0-.414.336-.75.75-.75h1.5c1.243 0 2.25 1.007 2.25 2.25v1.5c0 1.243-1.007 2.25-2.25 2.25h-1.5c-.414 0-.75-.336-.75-.75zm1.5-.75h.75c.414 0 .75-.336.75-.75v-1.5c0-.414-.336-.75-.75-.75h-.75z"/><path d="m10.75 12.75c.414 0 .75.336.75.75s-.336.75-.75.75h-3c-.414 0-.75-.336-.75-.75s.336-.75.75-.75z"/><path d="m21.75 8v10.5c0 .729-.29 1.429-.805 1.945-.516.515-1.216.805-1.945.805h-14c-.729 0-1.429-.29-1.945-.805-.515-.516-.805-1.216-.805-1.945v-10.5c0-.729.29-1.429.805-1.945.516-.515 1.216-.805 1.945-.805h14c.729 0 1.429.29 1.945.805.515.516.805 1.216.805 1.945zm-1.5 0c0-.332-.132-.649-.366-.884-.235-.234-.552-.366-.884-.366h-14c-.332 0-.649.132-.884.366-.234.235-.366.552-.366.884v10.5c0 .332.132.649.366.884.235.234.552.366.884.366h14c.332 0 .649-.132.884-.366.234-.235.366-.552.366-.884z"/><path d="m8.4 2.45c-.248-.331-.181-.802.15-1.05s.802-.181 1.05.15l2.4 3.2 2.4-3.2c.248-.331.719-.398 1.05-.15s.398.719.15 1.05l-3 4c-.142.189-.364.3-.6.3s-.458-.111-.6-.3z"/><path d="m18.25 22c0 .414-.336.75-.75.75s-.75-.336-.75-.75v-1.5c0-.414.336-.75.75-.75s.75.336.75.75z"/><path d="m7.25 22c0 .414-.336.75-.75.75s-.75-.336-.75-.75v-1.5c0-.414.336-.75.75-.75s.75.336.75.75z"/></g></svg>