<svg clip-rule="evenodd" fill-rule="evenodd" height="512" stroke-linejoin="round" stroke-miterlimit="2" viewBox="0 0 24 24" width="512" xmlns="http://www.w3.org/2000/svg"><g id="Icon"><path d="m20.676 14.824c-.081-.337-.382-.574-.729-.574h-14.625c-.346 0-.648.237-.729.574l-1.39 5.766c-.125.521-.005 1.071.327 1.493.332.421.838.667 1.375.667h15.46c.536 0 1.043-.246 1.375-.667.332-.422.452-.972.326-1.493zm-1.319.926 1.251 5.191c.018.075.001.154-.046.214-.048.06-.12.095-.197.095h-15.46c-.077 0-.149-.035-.197-.095-.047-.06-.064-.139-.046-.214 0 0 1.251-5.191 1.251-5.191z"/><path d="m21.385 14v-1c0-.967-.784-1.75-1.75-1.75h-14c-.967 0-1.75.783-1.75 1.75v1c0 .967.783 1.75 1.75 1.75h14c.966 0 1.75-.783 1.75-1.75zm-1.5-1v1c0 .138-.112.25-.25.25h-14c-.138 0-.25-.112-.25-.25v-1c0-.138.112-.25.25-.25h14c.138 0 .25.112.25.25z"/><path d="m19.885 12v-6.086c0-.464-.185-.909-.513-1.237-.659-.66-2.254-2.255-2.914-2.914-.328-.329-.773-.513-1.237-.513h-8.086c-.967 0-1.75.783-1.75 1.75v9c0 .414.336.75.75.75h13c.414 0 .75-.336.75-.75zm-1.5-6.086v5.336h-11.5v-8.25c0-.138.112-.25.25-.25h8.086c.066 0 .13.026.176.073.66.66 2.255 2.255 2.915 2.914.047.047.073.111.073.177z"/><path d="m14.885 2.5v2.5c0 .966.783 1.75 1.75 1.75h2c.414 0 .75-.336.75-.75s-.336-.75-.75-.75h-2c-.138 0-.25-.112-.25-.25v-2.5c0-.414-.336-.75-.75-.75s-.75.336-.75.75z"/><path d="m4.635 12.75h-1c-.967 0-1.75.783-1.75 1.75v2c0 .414.336.75.75.75s.75-.336.75-.75v-2c0-.138.112-.25.25-.25h1c.414 0 .75-.336.75-.75s-.336-.75-.75-.75z"/><path d="m9.135 6.75h3c.414 0 .75-.336.75-.75s-.336-.75-.75-.75h-3c-.414 0-.75.336-.75.75s.336.75.75.75z"/><path d="m7.635 19.229h1.5c.414 0 .75-.336.75-.75s-.336-.75-.75-.75h-1.5c-.414 0-.75.336-.75.75s.336.75.75.75z"/><path d="m11.885 19.229h1.5c.414 0 .75-.336.75-.75s-.336-.75-.75-.75h-1.5c-.414 0-.75.336-.75.75s.336.75.75.75z"/><path d="m16.135 19.229h1.5c.414 0 .75-.336.75-.75s-.336-.75-.75-.75h-1.5c-.414 0-.75.336-.75.75s.336.75.75.75z"/><path d="m9.135 9.75h6.5c.414 0 .75-.336.75-.75s-.336-.75-.75-.75h-6.5c-.414 0-.75.336-.75.75s.336.75.75.75z"/></g></svg>