<svg clip-rule="evenodd" fill-rule="evenodd" stroke-linejoin="round" stroke-miterlimit="1.414" viewBox="0 0 32 32" xmlns="http://www.w3.org/2000/svg" xmlns:serif="http://www.serif.com/"><path id="notification-alert-badge" d="m0 0h32v32h-32z" fill="none"/><path d="m16.105 4.999c.081.011.103.011.182.034.751.213.983 1.452.172 1.856-.138.069-.29.098-.446.105-3.337 0-6.674-.021-10.011 0-.515.01-.976.45-.986.987-.038 6.006-.037 12.014 0 18.02.01.517.465.978.987.988 6.007.037 12.014.038 18.021 0 .52-.01.983-.457.987-1.003v-9.994c.003-.082.002-.103.017-.184.148-.794 1.458-1.104 1.877-.262.069.137.098.29.105.446v10c-.01 1.553-1.344 2.965-2.961 2.996-6.012.038-12.024 0-18.036 0-1.558-.009-2.966-1.35-2.996-2.962-.038-6.012-.001-12.024-.001-18.035.01-1.569 1.349-2.986 2.996-2.997h10.001c.031.002.062.003.092.005zm7.938-2.004c2.309.022 4.46 1.802 4.883 4.084.525 2.834-1.81 5.894-4.883 5.913-2.377.015-4.628-1.883-4.978-4.27-.394-2.692 1.732-5.515 4.594-5.715.128-.009.256-.012.384-.012zm-.052 2c-1.347.012-2.62 1.025-2.911 2.357-.295 1.354.484 2.863 1.765 3.406 1.656.7 3.844-.436 4.131-2.307.255-1.667-1.102-3.416-2.907-3.456-.026 0-.052-.001-.078 0z" fill-rule="nonzero"/></svg>