<svg clip-rule="evenodd" fill-rule="evenodd" height="512" stroke-linejoin="round" stroke-miterlimit="2" viewBox="0 0 24 24" width="512" xmlns="http://www.w3.org/2000/svg"><g id="Icon"><path d="m22.75 4c0-1.518-1.232-2.75-2.75-2.75-1.517 0-2.75 1.232-2.75 2.75s1.233 2.75 2.75 2.75c1.518 0 2.75-1.232 2.75-2.75zm-1.5 0c0 .69-.56 1.25-1.25 1.25-.689 0-1.25-.56-1.25-1.25s.561-1.25 1.25-1.25c.69 0 1.25.56 1.25 1.25z"/><path d="m22.75 12.248c0-1.254-1.018-2.272-2.272-2.272s-2.272 1.018-2.272 2.272 1.018 2.272 2.272 2.272 2.272-1.018 2.272-2.272zm-1.5 0c0 .426-.346.772-.772.772s-.772-.346-.772-.772.346-.772.772-.772.772.346.772.772z"/><path d="m6.706 20.022c0-1.506-1.222-2.729-2.728-2.729s-2.728 1.223-2.728 2.729 1.222 2.728 2.728 2.728 2.728-1.222 2.728-2.728zm-1.5 0c0 .678-.55 1.228-1.228 1.228s-1.228-.55-1.228-1.228.55-1.229 1.228-1.229 1.228.551 1.228 1.229z"/><path d="m14.502 20.5c0-1.242-1.008-2.25-2.25-2.25-1.241 0-2.25 1.008-2.25 2.25s1.009 2.25 2.25 2.25c1.242 0 2.25-1.008 2.25-2.25zm-1.5 0c0 .414-.336.75-.75.75s-.75-.336-.75-.75.336-.75.75-.75.75.336.75.75z"/><path d="m8.537 11.456c-.292.293-.292.768 0 1.061l2.937 2.937c.293.293.768.293 1.061 0l2.937-2.937c.293-.293.293-.768 0-1.061l-2.937-2.937c-.293-.293-.768-.293-1.061 0zm1.591.53 1.877-1.876s1.876 1.876 1.876 1.876-1.876 1.877-1.876 1.877z"/><path d="m17.424 5.471-4.49 4.51c-.292.293-.29.768.003 1.061.293.292.768.29 1.061-.003l4.49-4.51c.292-.293.29-.768-.003-1.061-.293-.292-.768-.29-1.061.003z"/><path d="m10.008 12.927-4.58 4.54c-.294.292-.296.767-.005 1.061.292.294.767.296 1.061.005l4.58-4.54c.294-.292.296-.767.005-1.061-.292-.294-.767-.296-1.061-.005z"/><path d="m11.727 19.208c-.457-.8-.721-1.733-.721-2.718 0-.853.193-1.651.544-2.371.182-.372.027-.821-.345-1.003-.372-.181-.821-.027-1.003.345-.449.92-.696 1.94-.696 3.029 0 1.255.336 2.443.919 3.462.205.36.664.485 1.023.279.36-.205.485-.664.279-1.023z"/><path d="m14.145 11.534c.72-.351 1.519-.544 2.371-.544.975 0 1.889.255 2.68.703.36.204.818.077 1.022-.283s.078-.818-.282-1.022c-1.009-.572-2.175-.898-3.42-.898-1.088 0-2.109.248-3.029.696-.372.182-.527.631-.345 1.003.181.372.631.527 1.003.345z"/></g></svg>