<svg clip-rule="evenodd" fill-rule="evenodd" height="512" stroke-linejoin="round" stroke-miterlimit="2" viewBox="0 0 24 24" width="512" xmlns="http://www.w3.org/2000/svg"><g id="Icon"><path d="m6.259 12c0-1.518-1.232-2.75-2.75-2.75s-2.75 1.232-2.75 2.75 1.232 2.75 2.75 2.75 2.75-1.232 2.75-2.75zm-1.5 0c0 .69-.56 1.25-1.25 1.25s-1.25-.56-1.25-1.25.56-1.25 1.25-1.25 1.25.56 1.25 1.25z"/><path d="m6.259 20c0-1.518-1.232-2.75-2.75-2.75s-2.75 1.232-2.75 2.75 1.232 2.75 2.75 2.75 2.75-1.232 2.75-2.75zm-1.5 0c0 .69-.56 1.25-1.25 1.25s-1.25-.56-1.25-1.25.56-1.25 1.25-1.25 1.25.56 1.25 1.25z"/><path d="m6.259 4c0-1.518-1.232-2.75-2.75-2.75s-2.75 1.232-2.75 2.75 1.232 2.75 2.75 2.75 2.75-1.232 2.75-2.75zm-1.5 0c0 .69-.56 1.25-1.25 1.25s-1.25-.56-1.25-1.25.56-1.25 1.25-1.25 1.25.56 1.25 1.25z"/><path d="m2.75 6v3.991c0 .414.336.75.75.75s.75-.336.75-.75v-3.991c0-.414-.336-.75-.75-.75s-.75.336-.75.75z"/><path d="m2.759 14.027v3.973c0 .414.336.75.75.75s.75-.336.75-.75v-3.973c0-.414-.336-.75-.75-.75s-.75.336-.75.75z"/><path d="m9.5 6h6.5c.414 0 .75-.336.75-.75s-.336-.75-.75-.75h-6.5c-.414 0-.75.336-.75.75s.336.75.75.75z"/><path d="m9.5 14h6.5c.414 0 .75-.336.75-.75s-.336-.75-.75-.75h-6.5c-.414 0-.75.336-.75.75s.336.75.75.75z"/><path d="m9.5 22h6.5c.414 0 .75-.336.75-.75s-.336-.75-.75-.75h-6.5c-.414 0-.75.336-.75.75s.336.75.75.75z"/><path d="m9.5 3.5h12.5c.414 0 .75-.336.75-.75s-.336-.75-.75-.75h-12.5c-.414 0-.75.336-.75.75s.336.75.75.75z"/><path d="m9.5 11.5h12.5c.414 0 .75-.336.75-.75s-.336-.75-.75-.75h-12.5c-.414 0-.75.336-.75.75s.336.75.75.75z"/><path d="m9.5 19.5h12.5c.414 0 .75-.336.75-.75s-.336-.75-.75-.75h-12.5c-.414 0-.75.336-.75.75s.336.75.75.75z"/></g></svg>