<svg clip-rule="evenodd" fill-rule="evenodd" height="512" stroke-linejoin="round" stroke-miterlimit="2" viewBox="0 0 24 24" width="512" xmlns="http://www.w3.org/2000/svg"><g id="Icon"><path d="m12.394 9.06-2.902 4c-.165.228-.189.53-.061.781s.386.409.668.409h2.331s-2.038 2.81-2.038 2.81c-.243.335-.168.804.167 1.047s.804.168 1.047-.167l2.902-4c.165-.228.189-.53.061-.781s-.386-.409-.668-.409h-2.331s2.038-2.81 2.038-2.81c.243-.335.168-.804-.167-1.047s-.804-.168-1.047.167z"/><path d="m12.501 1.442c-.285-.256-.717-.256-1.002 0 0 0-2.82 2.532-5.075 5.766-1.561 2.238-2.83 4.814-2.83 7.136 0 4.64 3.767 8.406 8.406 8.406s8.406-3.766 8.406-8.406c0-2.322-1.269-4.898-2.83-7.136-2.255-3.234-5.075-5.766-5.075-5.766zm-.501 1.587c.88.85 2.759 2.761 4.346 5.037 1.378 1.977 2.56 4.227 2.56 6.278 0 3.812-3.095 6.906-6.906 6.906s-6.906-3.094-6.906-6.906c0-2.051 1.182-4.301 2.56-6.278 1.587-2.276 3.466-4.187 4.346-5.037z"/></g></svg>