<svg clip-rule="evenodd" fill-rule="evenodd" height="512" stroke-linejoin="round" stroke-miterlimit="2" viewBox="0 0 24 24" width="512" xmlns="http://www.w3.org/2000/svg"><g id="Icon"><path d="m18.75 21v-.75h1.336c.464 0 .909-.184 1.237-.513l.921-.924c.328-.328.512-.78.507-1.25-.005-6.869-1.246-9.918-1.795-10.98-.019-.038-.042-.073-.067-.107-.303-.402-.71-.712-1.177-.899.001 0-3.962-1.585-3.962-1.585v-.992c0-.464-.184-.909-.513-1.237-.328-.329-.773-.513-1.237-.513-1.11 0-2.89 0-4 0-.464 0-.909.184-1.237.513-.329.328-.513.773-.513 1.237v.993c-.924.37-2.969 1.192-3.962 1.604-.461.185-.863.494-1.162.891-.023.03-.043.062-.061.095-.566 1.051-1.811 4.103-1.82 10.987-.004.464.181.917.514 1.249l.918.918c.328.329.773.513 1.237.513h1.336v.75c0 .464.184.909.513 1.237.328.329.773.513 1.237.513h10c.464 0 .909-.184 1.237-.513.329-.328.513-.773.513-1.237zm-1.5-1.5v1.5c0 .066-.026.13-.073.177s-.111.073-.177.073h-10c-.066 0-.13-.026-.177-.073s-.073-.111-.073-.177v-1.5c0-.414-.336-.75-.75-.75h-2.086c-.066 0-.13-.026-.177-.073l-.918-.919c-.048-.048-.074-.112-.074-.179 0-.003 0-.005 0-.007.009-6.312 1.071-9.186 1.61-10.22.135-.165.304-.288.496-.365.003-.001.006-.003.009-.004 1.3-.539 4.419-1.787 4.419-1.787.284-.114.471-.389.471-.696v-1.5c0-.066.026-.13.073-.177s.111-.073.177-.073h4c.066 0 .13.026.177.073s.073.111.073.177v1.5c0 .307.187.582.471.696l4.435 1.774c.194.077.365.202.498.362.528 1.05 1.592 3.928 1.597 10.24v.007c.001.066-.025.13-.072.177l-.916.921c-.047.047-.111.073-.177.073-.711 0-2.086 0-2.086 0-.414 0-.75.336-.75.75z"/><path d="m14.357 4.886s1.56 2.6 2.43 4.05c.303.505.463 1.083.463 1.672v8.892c0 .414.336.75.75.75s.75-.336.75-.75c0 0 0-6.289 0-8.892 0-.861-.234-1.706-.677-2.444-.87-1.45-2.43-4.05-2.43-4.05-.213-.355-.674-.47-1.029-.257s-.47.674-.257 1.029z"/><path d="m8.357 4.114s-1.56 2.6-2.43 4.05c-.443.738-.677 1.583-.677 2.444v8.892c0 .414.336.75.75.75s.75-.336.75-.75v-8.892c0-.589.16-1.167.463-1.672l2.43-4.05c.213-.355.098-.816-.257-1.029s-.816-.098-1.029.257z"/><path d="m11.25 2v20c0 .414.336.75.75.75s.75-.336.75-.75v-20c0-.414-.336-.75-.75-.75s-.75.336-.75.75z"/><path d="m15 3.75h-6c-.414 0-.75.336-.75.75s.336.75.75.75h6c.414 0 .75-.336.75-.75s-.336-.75-.75-.75z"/><path d="m15.171 18.335 1-2c.185-.37.035-.821-.336-1.006-.37-.185-.821-.035-1.006.336l-1 2c-.185.37-.035.821.336 1.006.37.185.821.035 1.006-.336z"/><path d="m10.171 17.665-1-2c-.185-.371-.636-.521-1.006-.336-.371.185-.521.636-.336 1.006l1 2c.185.371.636.521 1.006.336.371-.185.521-.636.336-1.006z"/></g></svg>