<svg clip-rule="evenodd" fill-rule="evenodd" height="512" stroke-linejoin="round" stroke-miterlimit="2" viewBox="0 0 24 24" width="512" xmlns="http://www.w3.org/2000/svg"><g id="Icon"><path d="m12 1.25c-4.829 0-8.75 3.921-8.75 8.75s3.921 8.75 8.75 8.75 8.75-3.921 8.75-8.75-3.921-8.75-8.75-8.75zm0 1.5c4.001 0 7.25 3.249 7.25 7.25s-3.249 7.25-7.25 7.25-7.25-3.249-7.25-7.25 3.249-7.25 7.25-7.25z"/><path d="m11.876 6.584-2 3c-.153.23-.168.526-.037.77.13.244.384.396.661.396h1.599s-1.223 1.834-1.223 1.834c-.23.344-.136.81.208 1.04s.81.136 1.04-.208l2-3c.153-.23.168-.526.037-.77-.13-.244-.384-.396-.661-.396h-1.599s1.223-1.834 1.223-1.834c.23-.344.136-.81-.208-1.04s-.81-.136-1.04.208z"/><path d="m6.25 16.5v2c0 .597.237 1.169.659 1.591s.994.659 1.591.659h7c.597 0 1.169-.237 1.591-.659s.659-.994.659-1.591c0-.95 0-2 0-2 0-.414-.336-.75-.75-.75s-.75.336-.75.75v2c0 .199-.079.39-.22.53-.14.141-.331.22-.53.22h-7c-.199 0-.39-.079-.53-.22-.141-.14-.22-.331-.22-.53v-2c0-.414-.336-.75-.75-.75s-.75.336-.75.75z"/><path d="m11.25 20v2c0 .414.336.75.75.75s.75-.336.75-.75v-2c0-.414-.336-.75-.75-.75s-.75.336-.75.75z"/></g></svg>