<svg clip-rule="evenodd" fill-rule="evenodd" height="512" stroke-linejoin="round" stroke-miterlimit="2" viewBox="0 0 24 24" width="512" xmlns="http://www.w3.org/2000/svg"><g id="Icon"><path d="m15.55 8.4c0-1.573 1.277-2.85 2.85-2.85s2.85 1.277 2.85 2.85-1.277 2.85-2.85 2.85h-16.4c-.414 0-.75.336-.75.75s.336.75.75.75h16.4c2.401 0 4.35-1.949 4.35-4.35s-1.949-4.35-4.35-4.35-4.35 1.949-4.35 4.35c0 .414.336.75.75.75s.75-.336.75-.75z"/><path d="m7.85 6.1c0-.911.739-1.65 1.65-1.65s1.65.739 1.65 1.65-.739 1.65-1.65 1.65h-7.5c-.414 0-.75.336-.75.75s.336.75.75.75h7.5c1.739 0 3.15-1.411 3.15-3.15s-1.411-3.15-3.15-3.15-3.15 1.411-3.15 3.15c0 .414.336.75.75.75s.75-.336.75-.75z"/><path d="m14.45 17.9c0 1.739 1.411 3.15 3.15 3.15s3.15-1.411 3.15-3.15-1.411-3.15-3.15-3.15h-15.6c-.414 0-.75.336-.75.75s.336.75.75.75h15.6c.911 0 1.65.739 1.65 1.65s-.739 1.65-1.65 1.65-1.65-.739-1.65-1.65c0-.414-.336-.75-.75-.75s-.75.336-.75.75z"/></g></svg>