<svg clip-rule="evenodd" fill-rule="evenodd" height="512" stroke-linejoin="round" stroke-miterlimit="2" viewBox="0 0 24 24" width="512" xmlns="http://www.w3.org/2000/svg"><g id="Icon"><path d="m15.463 20.579c-1.07.433-2.239.671-3.463.671-5.105 0-9.25-4.145-9.25-9.25s4.145-9.25 9.25-9.25 9.25 4.145 9.25 9.25c0 1.208-.232 2.362-.654 3.421-.153.384.034.821.419.974.384.154.821-.034.974-.419.491-1.23.761-2.572.761-3.976 0-5.933-4.817-10.75-10.75-10.75s-10.75 4.817-10.75 10.75 4.817 10.75 10.75 10.75c1.423 0 2.782-.277 4.025-.78.384-.156.569-.593.414-.977s-.593-.569-.976-.414z"/><path d="m18.475 4.603c-1.669 1.637-3.955 2.647-6.475 2.647s-4.806-1.01-6.475-2.647c-.295-.29-.771-.285-1.06.011-.29.295-.286.77.01 1.06 1.94 1.902 4.596 3.076 7.525 3.076s5.585-1.174 7.525-3.076c.296-.29.3-.765.01-1.06-.289-.296-.765-.301-1.06-.011z"/><path d="m14.149 15.604c-.694-.141-1.413-.215-2.149-.215-2.929 0-5.585 1.173-7.525 3.076-.296.289-.3.765-.01 1.06.289.296.765.3 1.06.01 1.669-1.636 3.955-2.646 6.475-2.646.634 0 1.253.063 1.851.185.405.083.801-.18.884-.585.082-.406-.18-.802-.586-.885z"/><path d="m14.529 19.342c-.702 1.152-1.552 1.908-2.529 1.908-.886 0-1.668-.629-2.332-1.603-1.176-1.724-1.918-4.511-1.918-7.647s.742-5.923 1.918-7.647c.664-.974 1.446-1.603 2.332-1.603s1.668.629 2.332 1.603c1.176 1.724 1.918 4.511 1.918 7.647 0 .659-.033 1.302-.096 1.924-.042.412.258.78.67.822s.78-.258.822-.67c.068-.671.104-1.365.104-2.076 0-3.487-.871-6.575-2.178-8.492-.992-1.454-2.25-2.258-3.572-2.258s-2.58.804-3.572 2.258c-1.307 1.917-2.178 5.005-2.178 8.492s.871 6.575 2.178 8.492c.992 1.454 2.25 2.258 3.572 2.258 1.428 0 2.785-.945 3.81-2.627.215-.354.103-.816-.251-1.031-.353-.215-.815-.103-1.03.25z"/><path d="m19.057 19.057 2.801-1.12c.547-.219.901-.751.892-1.34-.01-.588-.381-1.109-.934-1.31l-7.404-2.692c-.518-.189-1.098-.06-1.487.33-.39.389-.519.969-.33 1.487l2.692 7.404c.201.553.722.924 1.31.934.589.009 1.121-.345 1.34-.892zm2.046-2.433-2.635 1.054c-.361.144-.646.429-.79.79l-1.054 2.635-2.56-7.039z"/><path d="m22 11.25h-20c-.414 0-.75.336-.75.75s.336.75.75.75h20c.414 0 .75-.336.75-.75s-.336-.75-.75-.75z"/></g></svg>