<svg clip-rule="evenodd" fill-rule="evenodd" height="512" stroke-linejoin="round" stroke-miterlimit="2" viewBox="0 0 24 24" width="512" xmlns="http://www.w3.org/2000/svg"><g id="Icon"><path d="m7 15.25h-3.492c-.101 0-.192-.061-.231-.154-.341-.974-.527-2.014-.527-3.096 0-5.105 4.145-9.25 9.25-9.25s9.25 4.145 9.25 9.25c0 1.082-.186 2.121-.528 3.087-.036.096-.128.159-.231.159 0 0-.001 0-.002 0-1.179.004-3.489.004-3.489.004-.414 0-.75.336-.75.75s.336.75.75.75c0 0 2.313 0 3.494-.004.73 0 1.384-.457 1.637-1.144 0-.003.001-.005.002-.008.399-1.124.617-2.334.617-3.594 0-5.933-4.817-10.75-10.75-10.75s-10.75 4.817-10.75 10.75c0 1.259.217 2.468.612 3.593.001.004.002.007.003.011.254.689.91 1.146 1.644 1.146h3.491c.414 0 .75-.336.75-.75s-.336-.75-.75-.75z"/><path d="m12 5.25c-1.38 0-2.5 1.12-2.5 2.5 0 .396.184.905.485 1.406.556.924 1.48 1.869 1.48 1.869.141.144.334.225.535.225s.394-.081.535-.225c0 0 .924-.945 1.48-1.869.301-.501.485-1.01.485-1.406 0-1.38-1.12-2.5-2.5-2.5zm0 1.5c.552 0 1 .448 1 1 0 .273-.244.616-.481.956-.169.242-.353.474-.519.672-.166-.198-.35-.43-.519-.672-.237-.34-.481-.683-.481-.956 0-.552.448-1 1-1z"/><path d="m13.034 9.884c1.855.492 3.216 2.267 3.216 4.366 0 2.474-1.894 4.5-4.25 4.5s-4.25-2.026-4.25-4.5c0-2.07 1.323-3.824 3.138-4.344.398-.114.628-.53.514-.928s-.529-.628-.927-.514c-2.427.696-4.225 3.019-4.225 5.786 0 3.321 2.587 6 5.75 6s5.75-2.679 5.75-6c0-2.808-1.851-5.158-4.332-5.816-.4-.106-.811.133-.917.533s.133.811.533.917z"/><path d="m15.47 10.97-1.879 1.878c-.422.422-.994.659-1.591.659s-1.169-.237-1.591-.659l-1.879-1.878c-.292-.293-.768-.293-1.06 0-.293.292-.293.768 0 1.06 0 0 .92.921 1.878 1.879.704.703 1.657 1.098 2.652 1.098s1.948-.395 2.652-1.098c.958-.958 1.878-1.879 1.878-1.879.293-.292.293-.768 0-1.06-.292-.293-.768-.293-1.06 0z"/><path d="m15.5 21.25h-7c-.414 0-.75.336-.75.75s.336.75.75.75h7c.414 0 .75-.336.75-.75s-.336-.75-.75-.75z"/><path d="m14.25 22v-2.5c0-.414-.336-.75-.75-.75s-.75.336-.75.75v2.5c0 .414.336.75.75.75s.75-.336.75-.75z"/><path d="m11.25 22v-2.5c0-.414-.336-.75-.75-.75s-.75.336-.75.75v2.5c0 .414.336.75.75.75s.75-.336.75-.75z"/><path d="m11.25 2v1.5c0 .414.336.75.75.75s.75-.336.75-.75v-1.5c0-.414-.336-.75-.75-.75s-.75.336-.75.75z"/><path d="m6.35 3.715.75 1.299c.207.358.667.481 1.025.274s.481-.666.275-1.024l-.75-1.299c-.207-.359-.667-.482-1.025-.275s-.481.666-.275 1.025z"/><path d="m2.965 7.65 1.299.75c.358.206.817.083 1.024-.275s.084-.818-.274-1.025l-1.299-.75c-.359-.206-.818-.083-1.025.275s-.084.818.275 1.025z"/><path d="m2 12.75h1.5c.414 0 .75-.336.75-.75s-.336-.75-.75-.75h-1.5c-.414 0-.75.336-.75.75s.336.75.75.75z"/><path d="m20.5 12.75h1.5c.414 0 .75-.336.75-.75s-.336-.75-.75-.75h-1.5c-.414 0-.75.336-.75.75s.336.75.75.75z"/><path d="m19.736 8.4 1.299-.75c.359-.207.482-.667.275-1.025s-.666-.481-1.025-.275l-1.299.75c-.358.207-.481.667-.274 1.025s.666.481 1.024.275z"/><path d="m16.9 5.014.75-1.299c.206-.359.083-.818-.275-1.025s-.818-.084-1.025.275l-.75 1.299c-.206.358-.083.817.275 1.024s.818.084 1.025-.274z"/></g></svg>