<svg clip-rule="evenodd" fill-rule="evenodd" height="512" stroke-linejoin="round" stroke-miterlimit="2" viewBox="0 0 24 24" width="512" xmlns="http://www.w3.org/2000/svg"><g id="Icon"><path d="m20.218 9.265c-.351-1.753-1.89-3.015-3.677-3.015-2.644 0-6.825 0-9.5 0-1.833 0-3.397 1.325-3.699 3.133l-1.306 7.836c-.229 1.377.159 2.786 1.061 3.851.903 1.066 2.229 1.68 3.625 1.68h10.399c1.423 0 2.771-.638 3.673-1.739.902-1.1 1.264-2.547.985-3.943zm-1.471.294 1.561 7.804c.191.954-.057 1.944-.674 2.697s-1.54 1.19-2.513 1.19c-3.165 0-7.266 0-10.399 0-.955 0-1.862-.42-2.48-1.149-.617-.729-.883-1.693-.726-2.635l1.306-7.836c.181-1.085 1.12-1.88 2.219-1.88h9.5c1.072 0 1.996.757 2.206 1.809z"/><path d="m12 1.25c-1.794 0-3.25 1.456-3.25 3.25s1.456 3.25 3.25 3.25 3.25-1.456 3.25-3.25-1.456-3.25-3.25-3.25zm0 1.5c.966 0 1.75.784 1.75 1.75s-.784 1.75-1.75 1.75-1.75-.784-1.75-1.75.784-1.75 1.75-1.75z"/><path d="m7.148 12v4.5c0 .414.336.75.75.75s.75-.336.75-.75v-4.5c0-.414-.336-.75-.75-.75s-.75.336-.75.75z"/><path d="m8.677 15.068 2.711-2.341c.313-.271.348-.745.077-1.058-.27-.313-.744-.348-1.057-.078l-2.711 2.341c-.313.271-.348.745-.077 1.058.27.313.744.348 1.057.078z"/><path d="m7.697 14.397 2.711 2.341c.313.271.787.236 1.057-.077.271-.314.236-.788-.077-1.058l-2.711-2.341c-.313-.271-.787-.236-1.057.077-.271.314-.236.788.077 1.058z"/><path d="m15.31 15.25c-.102.291-.38.5-.706.5 0 0-.001 0-.002 0-.414 0-.75-.336-.75-.75v-1.5c0-.414.336-.75.75-.75.222 0 .422.097.559.25.276.309.751.335 1.059.059.309-.276.335-.751.059-1.059-.412-.46-1.011-.75-1.677-.75-1.242 0-2.25 1.008-2.25 2.25v1.5c0 1.243 1.008 2.25 2.25 2.25h.002c1.242 0 2.248-1.006 2.248-2.248v-.502c0-.414-.336-.75-.75-.75h-1c-.414 0-.75.336-.75.75s.336.75.75.75z"/></g></svg>