<svg clip-rule="evenodd" fill-rule="evenodd" height="512" stroke-linejoin="round" stroke-miterlimit="2" viewBox="0 0 24 24" width="512" xmlns="http://www.w3.org/2000/svg"><g id="Icon"><path d="m20 22.75c.729 0 1.429-.29 1.945-.805.515-.516.805-1.216.805-1.945 0-3.832 0-12.168 0-16 0-.729-.29-1.429-.805-1.945-.516-.515-1.216-.805-1.945-.805-3.832 0-12.168 0-16 0-.729 0-1.429.29-1.945.805-.515.516-.805 1.216-.805 1.945v16c0 .729.29 1.429.805 1.945.516.515 1.216.805 1.945.805zm0-1.5h-16c-.332 0-.649-.132-.884-.366-.234-.235-.366-.552-.366-.884v-16c0-.332.132-.649.366-.884.235-.234.552-.366.884-.366h16c.332 0 .649.132.884.366.234.235.366.552.366.884v16c0 .332-.132.649-.366.884-.235.234-.552.366-.884.366z"/><path d="m19.5 12.75c.414 0 .75-.336.75-.75v-2.5c0-.414-.336-.75-.75-.75h-15c-.414 0-.75.336-.75.75v2.5c0 .414.336.75.75.75zm-.75-1.5h-13.5v-1h13.5z"/><path d="m12 20.25c.414 0 .75-.336.75-.75v-5c0-.414-.336-.75-.75-.75h-7.5c-.414 0-.75.336-.75.75v5c0 .414.336.75.75.75zm-.75-1.5h-6v-3.5h6z"/><path d="m2 7.75h20c.414 0 .75-.336.75-.75s-.336-.75-.75-.75h-20c-.414 0-.75.336-.75.75s.336.75.75.75z"/><path d="m8.5 5.25h1c.414 0 .75-.336.75-.75s-.336-.75-.75-.75h-1c-.414 0-.75.336-.75.75s.336.75.75.75z"/><path d="m5 5.25h1c.414 0 .75-.336.75-.75s-.336-.75-.75-.75h-1c-.414 0-.75.336-.75.75s.336.75.75.75z"/><path d="m14.5 15.25h5c.414 0 .75-.336.75-.75s-.336-.75-.75-.75h-5c-.414 0-.75.336-.75.75s.336.75.75.75z"/><path d="m14.5 17.75h5c.414 0 .75-.336.75-.75s-.336-.75-.75-.75h-5c-.414 0-.75.336-.75.75s.336.75.75.75z"/><path d="m14.5 20.25h5c.414 0 .75-.336.75-.75s-.336-.75-.75-.75h-5c-.414 0-.75.336-.75.75s.336.75.75.75z"/></g></svg>