<svg clip-rule="evenodd" fill-rule="evenodd" height="512" stroke-linejoin="round" stroke-miterlimit="2" viewBox="0 0 24 24" width="512" xmlns="http://www.w3.org/2000/svg"><g id="Icon"><path d="m18.75 10.5c0-1.519-1.231-2.75-2.75-2.75h-8c-1.519 0-2.75 1.231-2.75 2.75v9.503c0 1.519 1.231 2.75 2.75 2.75h8c1.519 0 2.75-1.231 2.75-2.75zm-1.5 0v9.503c0 .691-.56 1.25-1.25 1.25h-8c-.69 0-1.25-.559-1.25-1.25v-9.503c0-.69.56-1.25 1.25-1.25h8c.69 0 1.25.56 1.25 1.25z"/><path d="m16.75 8.5v-6.003c0-.691-.56-1.25-1.25-1.25h-7c-.69 0-1.25.559-1.25 1.25v6.003c0 .414.336.75.75.75h8c.414 0 .75-.336.75-.75zm-8-5.753h6.5v5.003h-6.5z"/><path d="m9.5 4h1.5v1.501h-1.5z"/><path d="m13 4h1.5v1.501h-1.5z"/><path d="m10 19.75h4c.414 0 .75-.336.75-.75s-.336-.75-.75-.75h-4c-.414 0-.75.336-.75.75s.336.75.75.75z"/></g></svg>