<svg clip-rule="evenodd" fill-rule="evenodd" height="512" stroke-linejoin="round" stroke-miterlimit="2" viewBox="0 0 24 24" width="512" xmlns="http://www.w3.org/2000/svg"><g id="Icon"><path d="m14.107 5.386 1.5 2.5c.213.355.674.47 1.029.257s.47-.674.257-1.029l-1.5-2.5c-.213-.355-.674-.47-1.029-.257s-.47.674-.257 1.029z"/><path d="m14.626 9.637c-.078-.045-.126-.128-.126-.217v-1.42c0-.414-.336-.75-.75-.75h-4.5c-.236 0-.458.111-.6.3 0 0-1.783 2.378-2.6 3.467-.357.476-.55 1.055-.55 1.65v7.333c0 .729.29 1.429.805 1.945.516.515 1.216.805 1.945.805h7c.729 0 1.429-.29 1.945-.805.515-.516.805-1.216.805-1.945 0-2.049 0-5.165 0-6.839 0-.987-.529-1.898-1.386-2.388zm-.744 1.302 1.988 1.136c.39.223.63.637.63 1.086v6.839c0 .332-.132.649-.366.884-.235.234-.552.366-.884.366h-7c-.332 0-.649-.132-.884-.366-.234-.235-.366-.552-.366-.884v-7.333c0-.271.088-.534.25-.75 0 0 2.375-3.167 2.375-3.167h3.375v.67c0 .628.337 1.208.882 1.519z"/><path d="m6.711 5.749.039.001h.5c.332 0 .649.132.884.366.234.235.366.552.366.884v.987c0 .704.75.763.75.763h4.5c.414 0 .75-.336.75-.75 0 0 0-.621 0-1.172 0-.331.132-.649.366-.883 0 0 .695-.695.695-.695h2.189c.414 0 .75-.336.75-.75v-2.5c0-.414-.336-.75-.75-.75h-8.5c-.095 0-.19.018-.279.054l-2.5 1c-.284.114-.471.389-.471.696v2c0 .401.315.729.711.749zm3.289 1.501v-.25c0-.729-.29-1.429-.805-1.945-.457-.456-1.057-.735-1.695-.793v-.754s1.894-.758 1.894-.758h7.606v1h-1.75c-.199 0-.39.079-.53.22 0 0-.494.493-.915.914-.515.516-.805 1.215-.805 1.944v.422z"/><path d="m16 4.5v-2.5c0-.414-.336-.75-.75-.75s-.75.336-.75.75v2.5c0 .414.336.75.75.75s.75-.336.75-.75z"/><path d="m6.25 16.75h1.947c1.324 0 2.618-.392 3.719-1.126.855-.57 1.859-.874 2.887-.874h2.197c.414 0 .75-.336.75-.75s-.336-.75-.75-.75c0 0-1.136 0-2.197 0-1.324 0-2.618.392-3.719 1.126-.855.57-1.859.874-2.887.874h-1.947c-.414 0-.75.336-.75.75s.336.75.75.75z"/></g></svg>