<svg clip-rule="evenodd" fill-rule="evenodd" height="512" stroke-linejoin="round" stroke-miterlimit="2" viewBox="0 0 24 24" width="512" xmlns="http://www.w3.org/2000/svg"><g id="Icon"><circle cx="6.5" cy="4.5" r="1"/><circle cx="9.5" cy="4.5" r="1"/><path d="m12 8.75c-3.174 0-5.75 2.576-5.75 5.75s2.576 5.75 5.75 5.75 5.75-2.576 5.75-5.75-2.576-5.75-5.75-5.75zm0 1.5c2.346 0 4.25 1.904 4.25 4.25s-1.904 4.25-4.25 4.25-4.25-1.904-4.25-4.25 1.904-4.25 4.25-4.25z"/><path d="m9.238 10.132c-.281-.241-.695-.241-.976 0-1.232 1.055-2.012 2.621-2.012 4.368s.78 3.313 2.012 4.368c.281.241.695.241.976 0 1.232-1.055 2.012-2.621 2.012-4.368s-.78-3.313-2.012-4.368zm-.488 1.631c.624.74 1 1.695 1 2.737s-.376 1.997-1 2.737c-.624-.739-1-1.695-1-2.737s.376-1.997 1-2.737z"/><path d="m21.75 4c0-.729-.29-1.429-.805-1.945-.516-.515-1.216-.805-1.945-.805-3.463 0-10.537 0-14 0-.729 0-1.429.29-1.945.805-.515.516-.805 1.216-.805 1.945v16c0 .729.29 1.429.805 1.945.516.515 1.216.805 1.945.805h14c.729 0 1.429-.29 1.945-.805.515-.516.805-1.216.805-1.945zm-1.5 0v16c0 .332-.132.649-.366.884-.235.234-.552.366-.884.366h-14c-.332 0-.649-.132-.884-.366-.234-.235-.366-.552-.366-.884v-16c0-.332.132-.649.366-.884.235-.234.552-.366.884-.366h14c.332 0 .649.132.884.366.234.235.366.552.366.884z"/><path d="m21 6.25h-18c-.414 0-.75.336-.75.75s.336.75.75.75h18c.414 0 .75-.336.75-.75s-.336-.75-.75-.75z"/><path d="m18 3.75h-2c-.414 0-.75.336-.75.75s.336.75.75.75h2c.414 0 .75-.336.75-.75s-.336-.75-.75-.75z"/></g></svg>