<svg clip-rule="evenodd" fill-rule="evenodd" height="512" stroke-linejoin="round" stroke-miterlimit="2" viewBox="0 0 24 24" width="512" xmlns="http://www.w3.org/2000/svg"><g id="Icon"><path d="m7.85 14.589c-.414 0-.75.336-.75.75v1.037c0 1.025.407 2.007 1.131 2.732.725.724 1.707 1.131 2.732 1.131h1.037c.414 0 .75-.336.75-.75v-1.038c0-1.024-.407-2.006-1.131-2.731-.725-.724-1.707-1.131-2.731-1.131zm.75 1.5h.288c.626 0 1.227.249 1.67.692s.692 1.044.692 1.67v.288h-.287c-.627 0-1.228-.249-1.671-.692s-.692-1.044-.692-1.671z"/><path d="m16.9 15.339c0-.414-.336-.75-.75-.75h-1.038c-1.024 0-2.006.407-2.731 1.131-.724.725-1.131 1.707-1.131 2.731v1.038c0 .414.336.75.75.75h1.037c1.025 0 2.007-.407 2.732-1.131.724-.725 1.131-1.707 1.131-2.732zm-1.5.75v.287c0 .627-.249 1.228-.692 1.671s-1.044.692-1.671.692h-.287v-.288c0-.626.249-1.227.692-1.67s1.044-.692 1.67-.692z"/><path d="m7.85 10.024c-.414 0-.75.336-.75.75v1.037c0 1.025.407 2.007 1.131 2.732.725.724 1.707 1.131 2.732 1.131h1.037c.414 0 .75-.336.75-.75v-1.038c0-1.024-.407-2.006-1.131-2.731-.725-.724-1.707-1.131-2.731-1.131zm.75 1.5h.288c.626 0 1.227.249 1.67.692s.692 1.044.692 1.67v.288h-.287c-.627 0-1.228-.249-1.671-.692s-.692-1.044-.692-1.671z"/><path d="m16.9 10.774c0-.414-.336-.75-.75-.75h-1.038c-1.024 0-2.006.407-2.731 1.131-.724.725-1.131 1.707-1.131 2.731v1.038c0 .414.336.75.75.75h1.037c1.025 0 2.007-.407 2.732-1.131.724-.725 1.131-1.707 1.131-2.732zm-1.5.75v.287c0 .627-.249 1.228-.692 1.671s-1.044.692-1.671.692h-.287v-.288c0-.626.249-1.227.692-1.67s1.044-.692 1.67-.692z"/><path d="m7.85 5.459c-.414 0-.75.336-.75.75v1.037c0 1.025.407 2.007 1.131 2.732.725.724 1.707 1.131 2.732 1.131h1.037c.414 0 .75-.336.75-.75v-1.038c0-1.024-.407-2.006-1.131-2.731-.725-.724-1.707-1.131-2.731-1.131zm.75 1.5h.288c.626 0 1.227.249 1.67.692s.692 1.044.692 1.67v.288h-.287c-.627 0-1.228-.249-1.671-.692s-.692-1.044-.692-1.671z"/><path d="m12.53 1.47c-.293-.293-.767-.293-1.06 0l-.734.733c-.724.725-1.131 1.707-1.131 2.731 0 1.025.407 2.007 1.131 2.732 0 0 .734.733.734.733.293.293.767.293 1.06 0l.734-.733c.724-.725 1.131-1.707 1.131-2.732 0-1.024-.407-2.006-1.131-2.731 0 0-.734-.733-.734-.733zm-.53 1.591.203.203c.443.443.692 1.044.692 1.67 0 .627-.249 1.228-.692 1.671l-.203.203-.203-.203c-.443-.443-.692-1.044-.692-1.671 0-.626.249-1.227.692-1.67z"/><path d="m16.9 6.209c0-.414-.336-.75-.75-.75h-1.038c-1.024 0-2.006.407-2.731 1.131-.724.725-1.131 1.707-1.131 2.731v1.038c0 .414.336.75.75.75h1.037c1.025 0 2.007-.407 2.732-1.131.724-.725 1.131-1.707 1.131-2.732zm-1.5.75v.287c0 .627-.249 1.228-.692 1.671s-1.044.692-1.671.692h-.287v-.288c0-.626.249-1.227.692-1.67s1.044-.692 1.67-.692z"/><path d="m11.25 19.489v2.511c0 .414.336.75.75.75s.75-.336.75-.75v-2.511c0-.414-.336-.75-.75-.75s-.75.336-.75.75z"/></g></svg>