<svg clip-rule="evenodd" fill-rule="evenodd" stroke-linejoin="round" stroke-miterlimit="1.414" viewBox="0 0 32 32" xmlns="http://www.w3.org/2000/svg" xmlns:serif="http://www.serif.com/"><path id="thumb-good-like-nice" d="m0 0h32v32h-32z" fill="none"/><path d="m12.228 24v1c-.007.21-.025.244-.057.335-.122.343-.443.606-.806.656-.061.008-.076.007-.137.009h-6.237c-.21-.007-.245-.026-.335-.058-.343-.121-.606-.442-.656-.806-.008-.06-.007-.075-.009-.136v-12c.007-.209.025-.244.057-.334.122-.343.443-.606.806-.656.061-.008.076-.007.137-.01h6.237c.023.001.046.002.069.003.208.021.242.042.33.08.354.154.588.525.601.917v1h.514l3.724-7.447s.383-.537.894-.552c.435 0 .87-.002 1.305 0 1.829.02 3.418 1.968 2.785 3.891l-1.141 3.425c-.086.232-.145.297-.256.404-.481.462-1.447.269-1.653-.442-.04-.135-.05-.279-.03-.419.008-.059.024-.118.041-.176.383-1.147.787-2.288 1.148-3.443.172-.566-.292-1.233-.909-1.24h-.672l-3.723 7.447c-.085.157-.11.178-.167.238-.186.198-.454.306-.728.314h-1.132v6h3.132s.072.002.157.012c.197.04.314.063.55.281l1.707 1.707c1.977 0 3.954.033 5.93 0 .448-.013.855-.358.941-.798.494-2.681.915-5.375 1.345-8.068.082-.559-.377-1.129-.977-1.134h-1.653c-.256-.01-.326-.043-.454-.109-.552-.281-.719-1.132-.253-1.598.185-.185.443-.282.707-.293h1.66c1.661.012 3.155 1.582 2.963 3.314-.004.041-.01.081-.016.122-.43 2.695-.897 5.384-1.345 8.076-.238 1.375-1.504 2.48-2.938 2.488h-6.324c-.41-.016-.496-.098-.707-.293l-1.707-1.707zm-6.237-10v10h4.237v-10c-1.333 0-2.904 0-4.237 0z" fill-rule="nonzero"/></svg>