<svg clip-rule="evenodd" fill-rule="evenodd" height="512" stroke-linejoin="round" stroke-miterlimit="2" viewBox="0 0 24 24" width="512" xmlns="http://www.w3.org/2000/svg"><g id="Icon"><path d="m12.629 1.848c-.138-.213-.375-.342-.629-.342s-.491.129-.629.342l-.786 1.211s-1.394.373-1.394.373c-.246.066-.441.251-.52.493-.078.241-.029.507.131.704l.909 1.121s-.076 1.441-.076 1.441c-.014.254.102.497.308.647.205.149.473.184.71.093l1.347-.518s1.347.518 1.347.518c.237.091.505.056.71-.093.206-.15.322-.393.308-.647l-.076-1.441s.909-1.121.909-1.121c.16-.197.209-.463.131-.704-.079-.242-.274-.427-.52-.493l-1.394-.373s-.786-1.211-.786-1.211zm-.629 1.787.313.482c.101.156.256.269.436.317l.555.149s-.362.446-.362.446c-.117.144-.176.327-.166.512l.03.575s-.537-.207-.537-.207c-.173-.066-.365-.066-.538 0l-.537.207s.03-.575.03-.575c.01-.185-.049-.368-.166-.512l-.362-.446s.555-.149.555-.149c.18-.048.335-.161.436-.317z"/><path d="m9.417 17.744c0-.464-.185-.91-.513-1.238s-.773-.512-1.237-.512c-1.259 0-3.408 0-4.667 0-.464 0-.909.184-1.237.512-.329.328-.513.774-.513 1.238v4c0 .414.336.75.75.75h6.667c.414 0 .75-.336.75-.75zm-1.5 0v3.25h-5.167v-3.25c0-.067.026-.13.073-.177s.111-.073.177-.073h4.667c.066 0 .13.026.176.073.047.047.074.11.074.177z"/><path d="m16.083 21.744v-10c0-.967-.783-1.75-1.75-1.75-1.258 0-3.408 0-4.666 0-.967 0-1.75.783-1.75 1.75v10c0 .414.335.75.75.75h6.666c.415 0 .75-.336.75-.75zm-1.5-10v9.25h-5.166v-9.25c0-.138.112-.25.25-.25h4.666c.138 0 .25.112.25.25z"/><path d="m22.75 14.744c0-.464-.184-.91-.513-1.238-.328-.328-.773-.512-1.237-.512-1.259 0-3.408 0-4.667 0-.464 0-.909.184-1.237.512s-.513.774-.513 1.238v7c0 .414.336.75.75.75h6.667c.414 0 .75-.336.75-.75zm-1.5 0v6.25h-5.167v-6.25c0-.067.027-.13.074-.177.046-.047.11-.073.176-.073h4.667c.066 0 .13.026.177.073s.073.11.073.177z"/></g></svg>