<svg clip-rule="evenodd" fill-rule="evenodd" height="512" stroke-linejoin="round" stroke-miterlimit="2" viewBox="0 0 24 24" width="512" xmlns="http://www.w3.org/2000/svg"><g id="Icon"><path d="m13.586 4c-.877 0-1.733.2-2.507.575-.372.18-.528.629-.348 1.002.181.372.63.528 1.002.348.572-.277 1.205-.425 1.853-.425 1.127 0 2.208.448 3.005 1.245s1.245 1.878 1.245 3.005v2.5c0 .303.182.577.463.693.28.116.603.052.817-.163 0 0 .5-.5 1-1 .259-.259.68-.259.939 0h.001c.259.26.259.68 0 .939-.001.001-3.001 3.001-3.001 3.001-.14.14-.219.331-.219.53v1.5c0 .138-.112.25-.25.25h-6.586c-.414 0-.75.336-.75.75s.336.75.75.75h6.586c.966 0 1.75-.784 1.75-1.75v-1.189l2.78-2.781c.845-.845.845-2.215 0-3.06-.757-.758-1.936-.836-2.78-.237v-.733c0-1.525-.606-2.988-1.684-4.066-1.079-1.078-2.541-1.684-4.066-1.684z"/><path d="m8.836 19.25v1c0 .966.783 1.75 1.75 1.75h6c.966 0 1.75-.784 1.75-1.75v-1.5c0-.414-.336-.75-.75-.75h-6.586c-.414 0-.75.336-.75.75s.336.75.75.75h5.836v.75c0 .138-.112.25-.25.25h-6c-.138 0-.25-.112-.25-.25v-1c0-.414-.336-.75-.75-.75s-.75.336-.75.75z"/><path d="m7 2c-1.525 0-2.988.606-4.066 1.684s-1.684 2.541-1.684 4.066v8c0 .967.784 1.75 1.75 1.75h8c.967 0 1.75-.784 1.75-1.75v-1.189l2.78-2.781c.846-.845.846-2.215 0-3.06-.757-.758-1.935-.836-2.78-.237v-.733c0-1.525-.606-2.988-1.684-4.066s-2.541-1.684-4.066-1.684zm4.25 8.25c0 .303.183.577.463.693s.603.052.817-.163c0 0 .5-.5 1-1 .26-.259.68-.259.94 0 .259.26.259.68 0 .939 0 .001-3 3.001-3 3.001-.141.14-.22.331-.22.53v1.5c0 .138-.112.25-.25.25h-8c-.138 0-.25-.112-.25-.25v-8c0-1.127.448-2.208 1.245-3.005s1.878-1.245 3.005-1.245c1.127 0 2.208.448 3.005 1.245s1.245 1.878 1.245 3.005z"/><path d="m11.75 16.75c0-.414-.336-.75-.75-.75h-8c-.414 0-.75.336-.75.75v1.5c0 .966.783 1.75 1.75 1.75h6c.967 0 1.75-.784 1.75-1.75zm-1.5.75v.75c0 .138-.112.25-.25.25h-6c-.138 0-.25-.112-.25-.25v-.75z"/></g></svg>