<svg clip-rule="evenodd" fill-rule="evenodd" height="512" stroke-linejoin="round" stroke-miterlimit="2" viewBox="0 0 24 24" width="512" xmlns="http://www.w3.org/2000/svg"><g id="Icon"><path d="m20 21.75c.729 0 1.429-.29 1.945-.805.515-.516.805-1.216.805-1.945 0-3.463 0-10.537 0-14 0-.729-.29-1.429-.805-1.945-.516-.515-1.216-.805-1.945-.805-3.832 0-12.168 0-16 0-.729 0-1.429.29-1.945.805-.515.516-.805 1.216-.805 1.945v14c0 .729.29 1.429.805 1.945.516.515 1.216.805 1.945.805zm0-1.5h-16c-.332 0-.649-.132-.884-.366-.234-.235-.366-.552-.366-.884v-14c0-.332.132-.649.366-.884.235-.234.552-.366.884-.366h16c.332 0 .649.132.884.366.234.235.366.552.366.884v14c0 .332-.132.649-.366.884-.235.234-.552.366-.884.366z"/><path d="m2 8.75h20c.414 0 .75-.336.75-.75s-.336-.75-.75-.75h-20c-.414 0-.75.336-.75.75s.336.75.75.75z"/><path d="m8.5 6.25h1c.414 0 .75-.336.75-.75s-.336-.75-.75-.75h-1c-.414 0-.75.336-.75.75s.336.75.75.75z"/><path d="m5 6.25h1c.414 0 .75-.336.75-.75s-.336-.75-.75-.75h-1c-.414 0-.75.336-.75.75s.336.75.75.75z"/><path d="m10.75 16.25h-1.5c-.966 0-1.75-.784-1.75-1.75s.784-1.75 1.75-1.75h1.5c.414 0 .75-.336.75-.75s-.336-.75-.75-.75h-1.5c-1.795 0-3.25 1.455-3.25 3.25s1.455 3.25 3.25 3.25h1.5c.414 0 .75-.336.75-.75s-.336-.75-.75-.75z"/><path d="m13.25 17.75h1.5c1.795 0 3.25-1.455 3.25-3.25s-1.455-3.25-3.25-3.25h-1.5c-.414 0-.75.336-.75.75s.336.75.75.75h1.5c.966 0 1.75.784 1.75 1.75s-.784 1.75-1.75 1.75h-1.5c-.414 0-.75.336-.75.75s.336.75.75.75z"/><path d="m10 15.25h4c.414 0 .75-.336.75-.75s-.336-.75-.75-.75h-4c-.414 0-.75.336-.75.75s.336.75.75.75z"/></g></svg>