<svg clip-rule="evenodd" fill-rule="evenodd" stroke-linejoin="round" stroke-miterlimit="1.414" viewBox="0 0 32 32" xmlns="http://www.w3.org/2000/svg" xmlns:serif="http://www.serif.com/"><path id="star-rating-rate-full" d="m0 0h32v32h-32z" fill="none"/><path d="m16.148 3.006c.085.016.107.017.189.044.308.104.544.359.661.669l2.587 7.962h8.372s.693.079.942.589c.185.38.111.869-.18 1.178-.06.063-.079.074-.146.128l-7.389 5.368c-.754.496-1.965-.269-1.592-1.227.067-.17.107-.264.361-.468l4.78-3.473h-5.909s-.205-.005-.368-.067c-.293-.11-.516-.357-.628-.657l-1.826-5.619-1.826 5.619s-.069.194-.177.33c-.195.245-.5.38-.819.394h-5.909l4.78 3.473s.163.126.259.271c.172.261.207.592.122.901l-1.826 5.619 4.78-3.473s.17-.116.337-.162c.302-.083.628-.014.895.162l4.78 3.473-.661-2.036-.027-.096c-.015-.087-.022-.109-.024-.197-.02-.69.774-1.283 1.455-.995.275.116.481.359.588.641l1.658 5.102c.22.802-.65 1.647-1.445 1.271-.078-.038-.095-.052-.167-.1l-6.773-4.921-6.773 4.921-.081.054c-.281.149-.38.15-.559.146-.64-.015-1.155-.704-.972-1.371l2.587-7.962-6.773-4.921s-.38-.301-.426-.738c-.054-.517.335-1.042.848-1.139.085-.016.107-.014.194-.018h8.372l2.587-7.962s.072-.201.186-.34c.225-.275.58-.409.956-.373z" fill-rule="nonzero"/></svg>