<svg clip-rule="evenodd" fill-rule="evenodd" height="512" stroke-linejoin="round" stroke-miterlimit="2" viewBox="0 0 24 24" width="512" xmlns="http://www.w3.org/2000/svg"><g id="Icon"><path d="m2.75 8v-4c0-.69.56-1.25 1.25-1.25h6c.414 0 .75-.336.75-.75s-.336-.75-.75-.75c0 0-3.63 0-6 0-1.519 0-2.75 1.231-2.75 2.75v4c0 .414.336.75.75.75s.75-.336.75-.75z"/><path d="m21.25 15.5v4.5c0 .69-.56 1.25-1.25 1.25h-5c-.414 0-.75.336-.75.75s.336.75.75.75h5c1.519 0 2.75-1.231 2.75-2.75v-4.5c0-.414-.336-.75-.75-.75s-.75.336-.75.75z"/><path d="m6.752 14.53c-3.036 0-5.502 2.466-5.502 5.503 0 .779.491 1.458 1.394 1.925.997.516 2.551.792 4.108.792 1.558 0 3.112-.276 4.109-.792.903-.467 1.394-1.146 1.394-1.925 0-3.037-2.466-5.503-5.503-5.503zm0 1.5c2.209 0 4.003 1.794 4.003 4.003 0 .272-.267.429-.583.593-.828.428-2.126.624-3.42.624-1.293 0-2.591-.196-3.419-.624-.316-.164-.583-.321-.583-.593 0-2.209 1.793-4.003 4.002-4.003z"/><path d="m6.752 9.25c-1.871 0-3.39 1.519-3.39 3.39s1.519 3.39 3.39 3.39 3.391-1.519 3.391-3.39-1.52-3.39-3.391-3.39zm0 1.5c1.044 0 1.891.847 1.891 1.89s-.847 1.89-1.891 1.89c-1.043 0-1.89-.847-1.89-1.89s.847-1.89 1.89-1.89z"/><path d="m13.556 12.25h6.444c.967 0 1.75-.784 1.75-1.75 0-1.785 0-5.333 0-5.333 0-.236-.111-.459-.3-.6l-4.222-3.167c-.267-.2-.634-.2-.9 0l-4.222 3.167c-.189.141-.3.364-.3.6v5.333c0 .966.783 1.75 1.75 1.75zm6.444-1.5h-6.444c-.139 0-.25-.112-.25-.25v-4.958s3.472-2.604 3.472-2.604c0-.001 3.472 2.604 3.472 2.604v4.958c0 .138-.112.25-.25.25z"/><path d="m22.45 5.317-5.222-3.917c-.267-.2-.633-.2-.899-.001l-5.278 3.945c-.332.247-.4.718-.152 1.049.248.332.718.4 1.05.152l4.828-3.608s4.773 3.58 4.773 3.58c.331.248.802.181 1.05-.15s.181-.802-.15-1.05z"/></g></svg>