<svg clip-rule="evenodd" fill-rule="evenodd" height="512" stroke-linejoin="round" stroke-miterlimit="2" viewBox="0 0 24 24" width="512" xmlns="http://www.w3.org/2000/svg"><g id="Icon"><circle cx="17.759" cy="15" r=".759"/><path d="m21.75 10c0-.729-.29-1.429-.805-1.945-.516-.515-1.216-.805-1.945-.805-3.463 0-10.537 0-14 0-.729 0-1.429.29-1.945.805-.515.516-.805 1.216-.805 1.945v10c0 .729.29 1.429.805 1.945.516.515 1.216.805 1.945.805h14c.729 0 1.429-.29 1.945-.805.515-.516.805-1.216.805-1.945zm-1.5 0v10c0 .332-.132.649-.366.884-.235.234-.552.366-.884.366h-14c-.332 0-.649-.132-.884-.366-.234-.235-.366-.552-.366-.884v-10c0-.332.132-.649.366-.884.235-.234.552-.366.884-.366h14c.332 0 .649.132.884.366.234.235.366.552.366.884z"/><path d="m18.714 8.663c.38-.202.686-.526.864-.923.212-.472.229-1.008.045-1.492-.405-1.069-1.013-2.67-1.418-3.74-.184-.483-.552-.874-1.024-1.086-.471-.212-1.008-.229-1.491-.045-.836.317-2.023.767-3.144 1.192-.387.147-.582.581-.436.968.147.387.581.582.968.435l3.144-1.193c.111-.042.235-.038.344.011s.194.139.236.25l1.419 3.74c.042.112.038.236-.011.345-.041.091-.111.166-.199.212-.366.194-.505.649-.311 1.014.194.366.648.506 1.014.312z"/><path d="m13.259 2.508c-.183-.483-.551-.874-1.023-1.086s-1.008-.229-1.492-.045c-1.412.535-3.823 1.45-5.236 1.986-.483.183-.874.551-1.086 1.023s-.229 1.008-.045 1.492c.255.673.591 1.558.906 2.388.11.291.389.484.701.484h7.433c.123 0 .243-.03.352-.087.38-.202.685-.526.864-.923.212-.472.228-1.008.045-1.492zm-1.402.532 1.418 3.74c.043.112.039.236-.01.345-.021.046-.049.088-.084.125h-6.679l-.723-1.904c-.042-.112-.038-.236.011-.344.049-.109.139-.194.25-.237l5.236-1.986c.112-.042.236-.038.345.011.108.049.193.139.236.25z"/><path d="m21.75 12c0-.414-.336-.75-.75-.75h-4c-1.519 0-2.75 1.231-2.75 2.75v2c0 1.519 1.231 2.75 2.75 2.75h4c.414 0 .75-.336.75-.75zm-1.5.75v4.5h-3.25c-.69 0-1.25-.56-1.25-1.25v-2c0-.69.56-1.25 1.25-1.25z"/></g></svg>