<svg clip-rule="evenodd" fill-rule="evenodd" height="512" stroke-linejoin="round" stroke-miterlimit="2" viewBox="0 0 24 24" width="512" xmlns="http://www.w3.org/2000/svg"><g id="Icon"><path d="m13.474 19.7c.293-.293.293-.768 0-1.061l-.755-.754c-2.377-2.377-6.231-2.377-8.608 0 0 0-.755.754-.755.754-.292.293-.292.768 0 1.061l.755.755c2.377 2.377 6.231 2.377 8.608 0 0 0 .755-.755.755-.755zm-1.591-.53-.225.224c-1.791 1.791-4.695 1.791-6.486 0 0 0-.225-.224-.225-.224s.225-.225.225-.225c1.791-1.791 4.695-1.791 6.486 0z"/><path d="m20.876 8.633c.869-1.35 1.374-2.957 1.374-4.682v-1.581c0-.414-.336-.75-.75-.75h-1.581c-1.792 0-3.458.546-4.839 1.479-.343.232-.433.698-.201 1.041.231.343.698.434 1.041.202 1.141-.771 2.518-1.222 3.999-1.222h.831v.831c0 1.426-.417 2.754-1.135 3.869-.225.348-.124.813.224 1.037s.812.124 1.037-.224z"/><path d="m4.486 18.676c-1.476-1.802-1.373-4.464.308-6.146 0 0 .225-.224.225-.224s.224.224.224.224c1.129 1.129 1.546 2.7 1.253 4.156-.082.406.181.802.586.883.406.082.802-.181.884-.586.39-1.932-.164-4.016-1.662-5.513 0 0-.755-.755-.755-.755-.293-.293-.768-.293-1.06 0l-.755.755c-2.232 2.232-2.368 5.765-.409 8.157.263.32.736.367 1.056.104.32-.262.367-.735.105-1.055z"/><path d="m2.53 22.342 2.264-2.265c.293-.292.293-.767 0-1.06-.292-.293-.767-.293-1.06 0l-2.264 2.264c-.293.293-.293.768 0 1.061.292.292.768.292 1.06 0z"/><path d="m6.516 12.106c.135-.949.567-1.864 1.297-2.594 0-.001.225-.225.225-.225s.224.224.224.224c1.791 1.792 1.791 4.696 0 6.487-.293.293-.293.768 0 1.061.293.292.768.292 1.061 0 2.377-2.377 2.377-6.231 0-8.608 0 0-.755-.755-.755-.755-.293-.293-.768-.293-1.061 0l-.754.755c-.97.969-1.543 2.184-1.722 3.444-.059.41.227.79.637.848s.79-.227.848-.637z"/><path d="m12.554 6.068c.134-.949.567-1.864 1.297-2.594 0 0 .224-.225.224-.225s.225.225.225.225c1.791 1.791 1.791 4.695 0 6.486-.293.293-.293.768 0 1.061s.768.293 1.061 0c2.377-2.377 2.377-6.231 0-8.608 0 0-.755-.755-.755-.755-.293-.293-.768-.293-1.061 0l-.755.755c-.969.969-1.543 2.184-1.722 3.444-.058.41.228.79.638.848.409.058.789-.227.848-.637z"/><path d="m15.313 16.139c1.26-.179 2.475-.753 3.444-1.722 0 0 .754-.755.754-.755.293-.292.293-.767 0-1.06l-.754-.755c-2.377-2.377-6.231-2.377-8.608 0-.293.293-.293.768 0 1.061.293.292.768.292 1.061 0 1.791-1.791 4.695-1.792 6.486 0 0 0 .224.224.224.224s-.224.224-.224.224c-.73.731-1.645 1.163-2.594 1.298-.41.058-.696.438-.637.848.058.41.438.695.848.637z"/><path d="m12.294 19.158c1.26-.179 2.475-.753 3.444-1.722 0 0 .755-.755.755-.755.292-.293.292-.767 0-1.06l-.755-.755c-1.498-1.498-3.582-2.052-5.513-1.662-.406.082-.669.478-.587.883.082.406.478.669.884.587 1.455-.294 3.026.124 4.155 1.253 0 0 .225.224.225.224s-.225.224-.225.224c-.73.73-1.645 1.163-2.594 1.298-.409.058-.695.438-.637.848.059.41.439.695.848.637z"/><path d="m18.332 13.12c1.26-.179 2.475-.753 3.444-1.722 0 0 .754-.754.754-.754.293-.293.293-.768 0-1.061l-.754-.755c-1.498-1.497-3.582-2.052-5.513-1.662-.406.082-.669.478-.587.884.082.405.478.668.883.586 1.456-.293 3.027.124 4.156 1.253 0 0 .224.224.224.224s-.224.225-.224.225c-.73.73-1.645 1.162-2.594 1.297-.41.058-.695.438-.637.848s.438.695.848.637z"/><path d="m9.535 9.086c.135-.949.567-1.863 1.297-2.593 0 0 .225-.225.225-.225s.224.225.224.225c1.129 1.128 1.546 2.699 1.252 4.155-.082.406.181.802.587.884s.802-.181.884-.587c.389-1.932-.165-4.015-1.662-5.513 0 0-.755-.755-.755-.755-.293-.293-.768-.293-1.061 0l-.754.755c-.969.969-1.543 2.184-1.722 3.443-.059.41.227.79.637.848.409.059.789-.227.848-.637z"/></g></svg>