<svg clip-rule="evenodd" fill-rule="evenodd" height="512" stroke-linejoin="round" stroke-miterlimit="2" viewBox="0 0 24 24" width="512" xmlns="http://www.w3.org/2000/svg"><g id="Icon"><path d="m22.75 12c0-.995-.395-1.948-1.098-2.652-.704-.703-1.657-1.098-2.652-1.098-3.776 0-10.224 0-14 0-.995 0-1.948.395-2.652 1.098-.703.704-1.098 1.657-1.098 2.652v3c0 .995.395 1.948 1.098 2.652.704.703 1.657 1.098 2.652 1.098h14c.995 0 1.948-.395 2.652-1.098.703-.704 1.098-1.657 1.098-2.652zm-1.5 0v3c0 .597-.237 1.169-.659 1.591s-.994.659-1.591.659c-3.776 0-10.224 0-14 0-.597 0-1.169-.237-1.591-.659s-.659-.994-.659-1.591v-3c0-.597.237-1.169.659-1.591s.994-.659 1.591-.659h14c.597 0 1.169.237 1.591.659s.659.994.659 1.591z"/><path d="m14.75 18c0-.414-.336-.75-.75-.75h-4c-.414 0-.75.336-.75.75v3.5c0 .414.336.75.75.75h4c.414 0 .75-.336.75-.75zm-1.5.75v2h-2.5v-2z"/><path d="m17.5 20.75h-11c-.414 0-.75.336-.75.75s.336.75.75.75h11c.414 0 .75-.336.75-.75s-.336-.75-.75-.75z"/><path d="m12 10.75c-1.518 0-2.75 1.232-2.75 2.75s1.232 2.75 2.75 2.75 2.75-1.232 2.75-2.75-1.232-2.75-2.75-2.75zm0 1.5c.69 0 1.25.56 1.25 1.25s-.56 1.25-1.25 1.25-1.25-.56-1.25-1.25.56-1.25 1.25-1.25z"/><path d="m10.367 6.654c.455-.256 1.021-.404 1.632-.404.612 0 1.178.148 1.633.404.361.203.818.075 1.022-.286.203-.361.075-.818-.286-1.022-.66-.371-1.48-.596-2.369-.596-.888 0-1.708.225-2.368.596-.361.204-.489.661-.286 1.022.204.361.661.489 1.022.286z"/><path d="m8.855 3.994c.876-.47 1.966-.744 3.145-.744s2.269.274 3.145.744c.365.196.82.059 1.016-.306s.058-.82-.306-1.015c-1.075-.577-2.409-.923-3.855-.923s-2.78.346-3.855.923c-.364.195-.502.65-.306 1.015s.651.502 1.016.306z"/><path d="m17 14.25h1.5c.414 0 .75-.336.75-.75s-.336-.75-.75-.75h-1.5c-.414 0-.75.336-.75.75s.336.75.75.75z"/><path d="m5.5 14.25h1.5c.414 0 .75-.336.75-.75s-.336-.75-.75-.75h-1.5c-.414 0-.75.336-.75.75s.336.75.75.75z"/></g></svg>