<svg clip-rule="evenodd" fill-rule="evenodd" height="512" stroke-linejoin="round" stroke-miterlimit="2" viewBox="0 0 24 24" width="512" xmlns="http://www.w3.org/2000/svg"><g id="Icon"><path d="m2.922 21.713c.717.717 1.876.717 2.593 0 0 0 12.553-12.553 12.553-12.553.717-.717.717-1.876 0-2.593 0 0-.635-.635-.635-.635-.716-.717-1.875-.717-2.592 0 0 0-12.554 12.554-12.554 12.554-.717.717-.717 1.875 0 2.592zm1.061-1.06-.635-.635c-.13-.131-.13-.341 0-.472 0 0 12.553-12.553 12.553-12.553.131-.13.341-.13.472 0 0 0 .635.635.635.635.13.13.13.341 0 .471 0 0-12.554 12.554-12.554 12.554-.13.13-.341.13-.471 0z"/><path d="m14.5 11.667-2.167-2.167c-.292-.293-.767-.293-1.06 0s-.293.768 0 1.061l2.167 2.167c.293.293.768.293 1.06 0 .293-.293.293-.768 0-1.061z"/><path d="m20.498 4.563 1.533-1.533c.292-.293.292-.768-.001-1.061-.293-.292-.768-.292-1.061.001l-1.532 1.533c-.292.293-.292.768.001 1.061.293.292.768.292 1.06-.001z"/><path d="m12.837 3.503-1.532-1.533c-.293-.293-.768-.293-1.061-.001-.293.293-.293.768 0 1.061l1.532 1.533c.292.293.768.293 1.06.001.293-.293.293-.768.001-1.061z"/><path d="m19.437 12.224 1.532 1.533c.293.293.768.293 1.061.001.293-.293.293-.768.001-1.061l-1.533-1.533c-.292-.293-.767-.293-1.06-.001-.293.293-.293.768-.001 1.061z"/></g></svg>