<svg clip-rule="evenodd" fill-rule="evenodd" stroke-linejoin="round" stroke-miterlimit="2" viewBox="0 0 32 32" xmlns="http://www.w3.org/2000/svg" xmlns:serif="http://www.serif.com/"><path id="laptop-online-learning" d="m0 0h32v32h-32z" fill="none"/><path d="m5 17.877v-13.877c.023-.537.462-.977 1-1h20c.029.001.058.003.087.004.499.065.891.486.913.996v14c-.023.537-.462.977-1 1h-8.982c-.851-.037-.921-.47-.984-.826-.091-.514.287-1.067.811-1.159.076-.013.096-.012.173-.015h.941c-.075-.668-.281-1.285-.849-1.664-1.174-.782-3.1.057-3.11 1.667v.997c-.002.081-.017.159-.043.233-.035.175-.117.341-.25.474-.18.18-.316.276-.707.293h-6.219l-1.781 7.123v.877h22v-.877l-.97-3.88c-.153-.764.71-1.496 1.422-1.135.248.126.395.241.518.649l1 4c.01.05.024.085.03.243v2c-.025.537-.451.975-1 1h-24c-.536-.025-.975-.46-1-1v-2c.006-.158.02-.193.03-.243zm13 7.123h-4c-.987-.02-1.477-1.971 0-2 1.347 0 2.693-.026 4.04.001.975.058 1.437 1.97-.04 1.999zm2-8h5v-12h-18v12h5v-.003c.007-1.161.566-2.265 1.439-3.017-1.016-.9-1.627-2.284-1.377-3.687.323-1.801 1.992-3.257 3.887-3.293h.102c2.256.043 4.235 2.241 3.91 4.558-.133.952-.653 1.819-1.381 2.445.85.739 1.413 1.815 1.42 2.994zm-4.026-8c-1.325.025-2.391 1.593-1.777 2.866.704 1.461 3.48 1.4 3.78-.561.174-1.141-.762-2.313-2.003-2.305z"/></svg>