<svg clip-rule="evenodd" fill-rule="evenodd" height="512" stroke-linejoin="round" stroke-miterlimit="2" viewBox="0 0 24 24" width="512" xmlns="http://www.w3.org/2000/svg"><g id="Icon"><path d="m17 16v2c0 .284.161.544.415.671l1 .5c.371.185.821.035 1.007-.336.185-.37.034-.821-.336-1.006l-.586-.293v-1.536c0-.414-.336-.75-.75-.75s-.75.336-.75.75z"/><path d="m22.5 18c0-2.622-2.128-4.75-4.75-4.75s-4.75 2.128-4.75 4.75 2.128 4.75 4.75 4.75 4.75-2.128 4.75-4.75zm-1.5 0c0 1.794-1.456 3.25-3.25 3.25s-3.25-1.456-3.25-3.25 1.456-3.25 3.25-3.25 3.25 1.456 3.25 3.25z"/><path d="m12.75 21.25h-8.5c-.332 0-.649-.132-.884-.366-.234-.235-.366-.552-.366-.884v-16c0-.332.132-.649.366-.884.235-.234.552-.366.884-.366h7.113c.063 0 .123.023.169.065l4.886 4.442c.052.048.082.115.082.185v4.558c0 .414.336.75.75.75s.75-.336.75-.75c0 0 0-3.335 0-4.558 0-.493-.208-.963-.573-1.295-.991-.901-3.952-3.592-4.886-4.442-.323-.293-.742-.455-1.178-.455-1.182 0-4.807 0-7.113 0-.729 0-1.429.29-1.945.805-.515.516-.805 1.216-.805 1.945v16c0 .729.29 1.429.805 1.945.516.515 1.216.805 1.945.805h8.5c.414 0 .75-.336.75-.75s-.336-.75-.75-.75z"/><path d="m12.5 6.25v-3.75c0-.414-.336-.75-.75-.75s-.75.336-.75.75v4c0 .332.132.649.366.884.235.234.553.366.884.366h4.5c.414 0 .75-.336.75-.75s-.336-.75-.75-.75z"/><path d="m5.75 9.75h3.5c.414 0 .75-.336.75-.75s-.336-.75-.75-.75h-3.5c-.414 0-.75.336-.75.75s.336.75.75.75z"/><path d="m5.75 13.25h6.5c.414 0 .75-.336.75-.75s-.336-.75-.75-.75h-6.5c-.414 0-.75.336-.75.75s.336.75.75.75z"/><path d="m5.75 16.75h4c.414 0 .75-.336.75-.75s-.336-.75-.75-.75h-4c-.414 0-.75.336-.75.75s.336.75.75.75z"/></g></svg>