<svg clip-rule="evenodd" fill-rule="evenodd" height="512" stroke-linejoin="round" stroke-miterlimit="2" viewBox="0 0 24 24" width="512" xmlns="http://www.w3.org/2000/svg"><g id="Icon"><g fill-rule="nonzero"><path d="m9.75 9.75c0 .414-.336.75-.75.75s-.75-.336-.75-.75.336-.75.75-.75.75.336.75.75"/><path d="m12.75 9.75c0 .414-.336.75-.75.75s-.75-.336-.75-.75.336-.75.75-.75.75.336.75.75"/><path d="m15.75 9.75c0 .414-.336.75-.75.75s-.75-.336-.75-.75.336-.75.75-.75.75.336.75.75"/></g><path d="m1.313 8.169c0 .003.001.006.001.009.588 5.379 5.151 9.572 10.686 9.572 5.534 0 10.098-4.192 10.695-9.57 0-.003.001-.007.001-.01.048-.492-.114-.981-.446-1.346-.332-.366-.803-.574-1.297-.574-3.452 0-14.455 0-17.908.008-.49 0-.958.208-1.288.572-.331.364-.492.85-.444 1.339zm1.493-.148c-.006-.067.016-.134.062-.184.045-.05.111-.079.179-.079h.001c3.452-.008 14.453-.008 17.905-.008h.001c.07 0 .138.03.185.082.046.05.069.117.065.185-.518 4.629-4.443 8.233-9.204 8.233-4.76 0-8.686-3.603-9.194-8.229z"/><path d="m18.75 7c0 3.725-3.025 6.75-6.75 6.75s-6.75-3.025-6.75-6.75c0-.414-.336-.75-.75-.75s-.75.336-.75.75c0 4.553 3.697 8.25 8.25 8.25s8.25-3.697 8.25-8.25c0-.414-.336-.75-.75-.75s-.75.336-.75.75z"/></g></svg>