<svg clip-rule="evenodd" fill-rule="evenodd" height="512" stroke-linejoin="round" stroke-miterlimit="2" viewBox="0 0 24 24" width="512" xmlns="http://www.w3.org/2000/svg"><g id="Icon"><circle cx="12" cy="12" r="1"/><circle cx="15" cy="9" r="1"/><circle cx="16.5" cy="12" r=".5"/><circle cx="12.097" cy="8.812" r=".5"/><circle cx="7.72" cy="12.051" r=".5"/><circle cx="12.198" cy="15.694" r=".5"/><circle cx="15" cy="15" r="1"/><circle cx="9" cy="9" r="1"/><circle cx="9" cy="15" r="1"/><path d="m12 4.25c4.277 0 7.75 3.473 7.75 7.75s-3.473 7.75-7.75 7.75-7.75-3.473-7.75-7.75 3.473-7.75 7.75-7.75zm0 1.5c-3.449 0-6.25 2.801-6.25 6.25s2.801 6.25 6.25 6.25 6.25-2.801 6.25-6.25-2.801-6.25-6.25-6.25z"/><path d="m12.75 5c0 .414-.336.75-.75.75s-.75-.336-.75-.75v-3c0-.414.336-.75.75-.75s.75.336.75.75z"/><path d="m7.581 6.52c.292.293.292.768 0 1.061-.293.292-.768.292-1.061 0l-2.121-2.122c-.293-.292-.293-.768 0-1.06.292-.293.768-.293 1.06 0z"/><path d="m5 11.25c.414 0 .75.336.75.75s-.336.75-.75.75h-3c-.414 0-.75-.336-.75-.75s.336-.75.75-.75z"/><path d="m6.52 16.419c.293-.292.768-.292 1.061 0 .292.293.292.768 0 1.061l-2.122 2.121c-.292.293-.768.293-1.06 0-.293-.292-.293-.768 0-1.06z"/><path d="m11.25 19c0-.414.336-.75.75-.75s.75.336.75.75v3c0 .414-.336.75-.75.75s-.75-.336-.75-.75z"/><path d="m16.419 17.48c-.292-.293-.292-.768 0-1.061.293-.292.768-.292 1.061 0l2.121 2.122c.293.292.293.768 0 1.06-.292.293-.768.293-1.06 0z"/><path d="m19 12.75c-.414 0-.75-.336-.75-.75s.336-.75.75-.75h3c.414 0 .75.336.75.75s-.336.75-.75.75z"/><path d="m17.48 7.581c-.293.292-.768.292-1.061 0-.292-.293-.292-.768 0-1.061l2.122-2.121c.292-.293.768-.293 1.06 0 .293.292.293.768 0 1.06z"/><path d="m13.5 1.25c.414 0 .75.336.75.75s-.336.75-.75.75h-3c-.414 0-.75-.336-.75-.75s.336-.75.75-.75z"/><path d="m5.459 3.338c.293-.293.768-.293 1.061 0s.293.768 0 1.061l-2.121 2.121c-.293.293-.768.293-1.061 0s-.293-.768 0-1.061z"/><path d="m1.25 10.5c0-.414.336-.75.75-.75s.75.336.75.75v3c0 .414-.336.75-.75.75s-.75-.336-.75-.75z"/><path d="m3.338 18.541c-.293-.293-.293-.768 0-1.061s.768-.293 1.061 0l2.121 2.121c.293.293.293.768 0 1.061s-.768.293-1.061 0z"/><path d="m13.5 21.25c.414 0 .75.336.75.75s-.336.75-.75.75h-3c-.414 0-.75-.336-.75-.75s.336-.75.75-.75z"/><path d="m19.601 17.48c.293-.293.768-.293 1.061 0s.293.768 0 1.061l-2.121 2.121c-.293.293-.768.293-1.061 0s-.293-.768 0-1.061z"/><path d="m21.25 10.5c0-.414.336-.75.75-.75s.75.336.75.75v3c0 .414-.336.75-.75.75s-.75-.336-.75-.75z"/><path d="m17.48 4.399c-.293-.293-.293-.768 0-1.061s.768-.293 1.061 0l2.121 2.121c.293.293.293.768 0 1.061s-.768.293-1.061 0z"/><path d="m18.754 10.014c-.382.159-.821-.023-.98-.406-.158-.382.024-.821.406-.98l1.848-.765c.382-.158.821.023.98.406.158.382-.024.821-.406.98z"/><path d="m15.372 5.82c-.159.382-.598.564-.98.406-.383-.159-.565-.598-.406-.98l.765-1.848c.159-.382.598-.564.98-.406.383.159.564.598.406.98z"/><path d="m10.014 5.246c.159.382-.023.821-.406.98-.382.158-.821-.024-.98-.406l-.765-1.848c-.158-.382.023-.821.406-.98.382-.158.821.024.98.406z"/><path d="m5.82 8.628c.382.159.564.598.406.98-.159.383-.598.565-.98.406l-1.848-.765c-.382-.159-.564-.598-.406-.98.159-.383.598-.564.98-.406z"/><path d="m5.246 13.986c.382-.159.821.023.98.406.158.382-.024.821-.406.98l-1.848.765c-.382.158-.821-.023-.98-.406-.158-.382.024-.821.406-.98z"/><path d="m8.628 18.18c.159-.382.598-.564.98-.406.383.159.565.598.406.98l-.765 1.848c-.159.382-.598.564-.98.406-.383-.159-.564-.598-.406-.98z"/><path d="m13.986 18.754c-.159-.382.023-.821.406-.98.382-.158.821.024.98.406l.765 1.848c.158.382-.023.821-.406.98-.382.158-.821-.024-.98-.406z"/><path d="m18.18 15.372c-.382-.159-.564-.598-.406-.98.159-.383.598-.565.98-.406l1.848.765c.382.159.564.598.406.98-.159.383-.598.564-.98.406z"/></g></svg>