<svg clip-rule="evenodd" fill-rule="evenodd" stroke-linejoin="round" stroke-miterlimit="1.414" viewBox="0 0 32 32" xmlns="http://www.w3.org/2000/svg" xmlns:serif="http://www.serif.com/"><path id="folder-archive-file-document" d="m0 0h32v32h-32z" fill="none"/><path d="m18 26.993h-11.991c-1.557-.009-2.964-1.349-2.994-2.96-.033-5.341 0-10.683 0-16.024.009-1.558 1.348-2.964 2.959-2.994 1.747-.011 3.494-.011 5.241 0 .764.014 1.506.321 2.056.851.96.948 1.901 1.913 2.861 2.861.183.176.431.279.685.284 3.059.019 6.119 0 9.178 0 1.552.01 2.963 1.342 2.994 2.959.025 4.009 0 8.019 0 12.029-.009 1.558-1.348 2.984-2.994 2.994h-3.999c-.774-.037-1.287-1.039-.755-1.653.146-.168.347-.285.566-.327.083-.016.105-.014.189-.018 1.336 0 2.673.009 4.009 0 .516-.01.976-.464.986-.986.025-4.004.025-8.01 0-12.014-.01-.514-.45-.976-.986-.986-3.059-.019-6.119 0-9.179 0-.175-.001-.349-.018-.521-.05-.098.031-.201.047-.303.05h-7.992c-.23-.007-.305-.037-.434-.099-.61-.294-.75-1.285-.144-1.715.167-.119.373-.178.578-.184h5.578c-.569-.573-1.138-1.147-1.712-1.714-.183-.177-.432-.279-.685-.284-1.731-.011-3.461-.011-5.192 0-.517.009-.977.464-.986.986-.033 5.337-.033 10.673 0 16.01.009.519.457.983 1.002.986h11.985c.778.037 1.288 1.039.755 1.653-.146.169-.347.285-.566.327-.083.016-.105.014-.189.018z" fill-rule="nonzero"/></svg>