<svg clip-rule="evenodd" fill-rule="evenodd" height="512" stroke-linejoin="round" stroke-miterlimit="2" viewBox="0 0 24 24" width="512" xmlns="http://www.w3.org/2000/svg"><g id="Icon"><circle cx="4" cy="6" r="1.5"/><circle cx="20" cy="18" r="1.5"/><path d="m12 4.25c-4.277 0-7.75 3.473-7.75 7.75s3.473 7.75 7.75 7.75 7.75-3.473 7.75-7.75-3.473-7.75-7.75-7.75zm0 1.5c3.449 0 6.25 2.801 6.25 6.25s-2.801 6.25-6.25 6.25-6.25-2.801-6.25-6.25 2.801-6.25 6.25-6.25z"/><path d="m5.397 5.525c1.679-1.712 4.018-2.775 6.603-2.775 2.52 0 4.806 1.01 6.475 2.647.597.585 1.115 1.251 1.536 1.979.208.358.667.48 1.025.273s.481-.667.273-1.025c-.489-.845-1.091-1.618-1.784-2.298-1.94-1.902-4.596-3.076-7.525-3.076-3.004 0-5.723 1.235-7.674 3.225-.29.295-.285.771.01 1.06.296.29.771.286 1.061-.01z"/><path d="m20.958 9.687c.191.74.292 1.515.292 2.313 0 .414.336.75.75.75s.75-.336.75-.75c0-.928-.118-1.828-.339-2.687-.104-.401-.513-.643-.914-.539-.401.103-.642.512-.539.913z"/><path d="m18.475 18.603c-1.669 1.637-3.955 2.647-6.475 2.647-2.585 0-4.924-1.063-6.603-2.775-.543-.554-1.017-1.175-1.408-1.851-.208-.358-.667-.48-1.025-.273s-.481.667-.273 1.025c.454.784 1.004 1.506 1.635 2.149 1.951 1.99 4.67 3.225 7.674 3.225 2.929 0 5.585-1.174 7.525-3.076.296-.29.3-.765.01-1.06-.289-.296-.765-.301-1.06-.011z"/><path d="m2.935 13.851c-.121-.598-.185-1.217-.185-1.851 0-.414-.336-.75-.75-.75s-.75.336-.75.75c0 .736.074 1.455.215 2.149.083.406.479.668.885.586.405-.083.668-.479.585-.884z"/><path d="m12 4.25c-.991 0-1.943.589-2.686 1.679-.935 1.371-1.564 3.577-1.564 6.071s.629 4.7 1.564 6.071c.743 1.09 1.695 1.679 2.686 1.679s1.943-.589 2.686-1.679c.935-1.371 1.564-3.577 1.564-6.071s-.629-4.7-1.564-6.071c-.743-1.09-1.695-1.679-2.686-1.679zm0 1.5c.555 0 1.031.414 1.447 1.024.803 1.178 1.303 3.084 1.303 5.226s-.5 4.048-1.303 5.226c-.416.61-.892 1.024-1.447 1.024s-1.031-.414-1.447-1.024c-.803-1.178-1.303-3.084-1.303-5.226s.5-4.048 1.303-5.226c.416-.61.892-1.024 1.447-1.024z"/><path d="m11.25 5v14c0 .414.336.75.75.75s.75-.336.75-.75v-14c0-.414-.336-.75-.75-.75s-.75.336-.75.75z"/><path d="m17.95 9.25h-11.9c-.414 0-.75.336-.75.75s.336.75.75.75h11.9c.414 0 .75-.336.75-.75s-.336-.75-.75-.75z"/><path d="m17.95 13.25h-11.9c-.414 0-.75.336-.75.75s.336.75.75.75h11.9c.414 0 .75-.336.75-.75s-.336-.75-.75-.75z"/></g></svg>