<svg clip-rule="evenodd" fill-rule="evenodd" height="512" stroke-linejoin="round" stroke-miterlimit="2" viewBox="0 0 24 24" width="512" xmlns="http://www.w3.org/2000/svg"><g id="Icon"><path d="m21 22.75c.464 0 .909-.184 1.237-.513.329-.328.513-.773.513-1.237 0-3.414 0-14.586 0-18 0-.464-.184-.909-.513-1.237-.328-.329-.773-.513-1.237-.513-3.414 0-14.586 0-18 0-.464 0-.909.184-1.237.513-.329.328-.513.773-.513 1.237v18c0 .464.184.909.513 1.237.328.329.773.513 1.237.513zm0-1.5h-18c-.066 0-.13-.026-.177-.073s-.073-.111-.073-.177v-18c0-.066.026-.13.073-.177s.111-.073.177-.073h18c.066 0 .13.026.177.073s.073.111.073.177v18c0 .066-.026.13-.073.177s-.111.073-.177.073z"/><path d="m17 18.75c.464 0 .909-.184 1.237-.513.329-.328.513-.773.513-1.237 0-2.26 0-7.74 0-10 0-.464-.184-.909-.513-1.237-.328-.329-.773-.513-1.237-.513-2.26 0-7.74 0-10 0-.464 0-.909.184-1.237.513-.329.328-.513.773-.513 1.237v10c0 .464.184.909.513 1.237.328.329.773.513 1.237.513zm0-1.5h-10c-.066 0-.13-.026-.177-.073s-.073-.111-.073-.177v-10c0-.066.026-.13.073-.177s.111-.073.177-.073h10c.066 0 .13.026.177.073s.073.111.073.177v10c0 .066-.026.13-.073.177s-.111.073-.177.073z"/><path d="m20.72 2.22-3.5 3.5c-.293.292-.293.768 0 1.06.292.293.768.293 1.06 0l3.5-3.5c.293-.292.293-.768 0-1.06-.292-.293-.768-.293-1.06 0z"/><path d="m21.78 20.72-3.5-3.5c-.292-.293-.768-.293-1.06 0-.293.292-.293.768 0 1.06l3.5 3.5c.292.293.768.293 1.06 0 .293-.292.293-.768 0-1.06z"/><path d="m2.22 3.28 3.5 3.5c.292.293.768.293 1.06 0 .293-.292.293-.768 0-1.06l-3.5-3.5c-.292-.293-.768-.293-1.06 0-.293.292-.293.768 0 1.06z"/><path d="m3.03 22.03 3.75-3.75c.293-.292.293-.768 0-1.06-.292-.293-.768-.293-1.06 0l-3.75 3.75c-.293.292-.293.768 0 1.06.292.293.768.293 1.06 0z"/><path d="m18 11.25h-12c-.414 0-.75.336-.75.75s.336.75.75.75h12c.414 0 .75-.336.75-.75s-.336-.75-.75-.75z"/></g></svg>