<svg clip-rule="evenodd" fill-rule="evenodd" height="512" stroke-linejoin="round" stroke-miterlimit="2" viewBox="0 0 24 24" width="512" xmlns="http://www.w3.org/2000/svg"><g id="Icon"><path d="m12.75 22v-4c0-.414-.336-.75-.75-.75s-.75.336-.75.75v4c0 .414.336.75.75.75s.75-.336.75-.75z"/><path d="m14.75 10c0-1.518-1.232-2.75-2.75-2.75s-2.75 1.232-2.75 2.75 1.232 2.75 2.75 2.75 2.75-1.232 2.75-2.75zm-1.5 0c0 .69-.56 1.25-1.25 1.25s-1.25-.56-1.25-1.25.56-1.25 1.25-1.25 1.25.56 1.25 1.25z"/><path d="m14 9.25c-.414 0-.75.336-.75.75 0 .69-.56 1.25-1.25 1.25-.414 0-.75.336-.75.75v3c0 .414.336.75.75.75h4.971c.673 0 1.286-.386 1.577-.993.629-1.309 2.128-4.432 2.128-4.432.112-.233.096-.506-.041-.724-.138-.219-.377-.351-.635-.351zm.646 1.5h4.162l-1.612 3.358c-.041.087-.129.142-.225.142h-4.221v-1.604c.915-.259 1.637-.98 1.896-1.896z"/><path d="m10.75 10c0-.414-.336-.75-.75-.75h-3c-.414 0-.75.336-.75.75v4.971c0 .673.386 1.286.993 1.577 1.309.629 4.432 2.128 4.432 2.128.233.112.506.096.724-.041.219-.138.351-.377.351-.635v-6c0-.414-.336-.75-.75-.75-.69 0-1.25-.56-1.25-1.25zm-1.396.75c.259.915.981 1.637 1.896 1.896v4.162l-3.358-1.612c-.087-.041-.142-.129-.142-.225v-4.221z"/><path d="m12 8.75c.414 0 .75-.336.75-.75v-3c0-.414-.336-.75-.75-.75h-4.971c-.673 0-1.286.386-1.577.993-.629 1.309-2.128 4.432-2.128 4.432-.112.233-.096.506.041.724.138.219.377.351.635.351h6c.414 0 .75-.336.75-.75 0-.69.56-1.25 1.25-1.25zm-.75-1.396c-.915.259-1.637.981-1.896 1.896h-4.162l1.612-3.358c.041-.087.129-.142.225-.142h4.221z"/><path d="m12.325 1.324c-.233-.112-.506-.096-.724.041-.219.138-.351.377-.351.635v6c0 .414.336.75.75.75.69 0 1.25.56 1.25 1.25 0 .414.336.75.75.75h3c.414 0 .75-.336.75-.75v-4.971c0-.673-.386-1.286-.993-1.577-1.309-.629-4.432-2.128-4.432-2.128zm.425 1.868 3.358 1.612c.087.041.142.129.142.225v4.221h-1.604c-.259-.915-.981-1.637-1.896-1.896z"/></g></svg>