<svg clip-rule="evenodd" fill-rule="evenodd" height="512" stroke-linejoin="round" stroke-miterlimit="2" viewBox="0 0 24 24" width="512" xmlns="http://www.w3.org/2000/svg"><g id="Icon"><path d="m22.75 11v-6c0-.995-.395-1.948-1.098-2.652-.704-.703-1.657-1.098-2.652-1.098-3.776 0-10.224 0-14 0-2.071 0-3.75 1.679-3.75 3.75v14c0 .995.395 1.948 1.098 2.652.704.703 1.657 1.098 2.652 1.098h6c.414 0 .75-.336.75-.75s-.336-.75-.75-.75c0 0-3.382 0-6 0-.597 0-1.169-.237-1.591-.659s-.659-.994-.659-1.591v-14c0-1.243 1.007-2.25 2.25-2.25h14c.597 0 1.169.237 1.591.659s.659.994.659 1.591v6c0 .414.336.75.75.75s.75-.336.75-.75z"/><path d="m22 6.25h-20c-.414 0-.75.336-.75.75s.336.75.75.75h20c.414 0 .75-.336.75-.75s-.336-.75-.75-.75z"/><circle cx="12.75" cy="4.5" r=".75"/><circle cx="15.5" cy="4.5" r=".75"/><circle cx="18.25" cy="4.5" r=".75"/><path d="m16.5 10.25c-3.449 0-6.25 2.801-6.25 6.25s2.801 6.25 6.25 6.25 6.25-2.801 6.25-6.25-2.801-6.25-6.25-6.25zm0 1.5c2.622 0 4.75 2.128 4.75 4.75s-2.128 4.75-4.75 4.75-4.75-2.128-4.75-4.75 2.128-4.75 4.75-4.75z"/><path d="m16.5 10.25c-.772 0-1.535.483-2.114 1.417-.676 1.091-1.136 2.848-1.136 4.833s.46 3.742 1.136 4.833c.579.934 1.342 1.417 2.114 1.417s1.535-.483 2.114-1.417c.676-1.091 1.136-2.848 1.136-4.833s-.46-3.742-1.136-4.833c-.579-.934-1.342-1.417-2.114-1.417zm0 1.5c.333 0 .589.304.839.707.564.911.911 2.386.911 4.043s-.347 3.132-.911 4.043c-.25.403-.506.707-.839.707s-.589-.304-.839-.707c-.564-.911-.911-2.386-.911-4.043s.347-3.132.911-4.043c.25-.403.506-.707.839-.707z"/><path d="m21.654 14h-10.154c-.414 0-.75.336-.75.75s.336.75.75.75h10.154c.414 0 .75-.336.75-.75s-.336-.75-.75-.75z"/><path d="m21.577 17.5h-10.154c-.414 0-.75.336-.75.75s.336.75.75.75h10.154c.414 0 .75-.336.75-.75s-.336-.75-.75-.75z"/></g></svg>