<svg clip-rule="evenodd" fill-rule="evenodd" height="512" stroke-linejoin="round" stroke-miterlimit="2" viewBox="0 0 24 24" width="512" xmlns="http://www.w3.org/2000/svg"><g id="Icon"><path d="m21.75 13c0-.414-.336-.75-.75-.75h-18c-.414 0-.75.336-.75.75v9c0 .414.336.75.75.75h18c.414 0 .75-.336.75-.75zm-1.5.75v7.5h-16.5v-7.5z"/><path d="m14.742 7.106c.031-.215-.033-.433-.175-.597-.143-.165-.35-.259-.567-.259h-4c-.217 0-.424.094-.567.259-.142.164-.206.382-.175.597l.5 3.5c.052.37.369.644.742.644h3c.373 0 .69-.274.742-.644zm-1.607.644-.285 2h-1.7s-.285-2-.285-2z"/><path d="m21 15.25h-18c-.414 0-.75.336-.75.75s.336.75.75.75h18c.414 0 .75-.336.75-.75s-.336-.75-.75-.75z"/><path d="m21 18.25h-18c-.414 0-.75.336-.75.75s.336.75.75.75h18c.414 0 .75-.336.75-.75s-.336-.75-.75-.75z"/><path d="m13.75 13v3c0 .414.336.75.75.75s.75-.336.75-.75v-3c0-.414-.336-.75-.75-.75s-.75.336-.75.75z"/><path d="m13.75 19v3c0 .414.336.75.75.75s.75-.336.75-.75v-3c0-.414-.336-.75-.75-.75s-.75.336-.75.75z"/><path d="m11.25 16v3c0 .414.336.75.75.75s.75-.336.75-.75v-3c0-.414-.336-.75-.75-.75s-.75.336-.75.75z"/><path d="m17.25 16v3c0 .414.336.75.75.75s.75-.336.75-.75v-3c0-.414-.336-.75-.75-.75s-.75.336-.75.75z"/><path d="m8.75 13v3c0 .414.336.75.75.75s.75-.336.75-.75v-3c0-.414-.336-.75-.75-.75s-.75.336-.75.75z"/><path d="m8.75 19v3c0 .414.336.75.75.75s.75-.336.75-.75v-3c0-.414-.336-.75-.75-.75s-.75.336-.75.75z"/><path d="m5.25 16v3c0 .414.336.75.75.75s.75-.336.75-.75v-3c0-.414-.336-.75-.75-.75s-.75.336-.75.75z"/><path d="m19.25 13v-11c0-.414-.336-.75-.75-.75s-.75.336-.75.75v11c0 .414.336.75.75.75s.75-.336.75-.75z"/><path d="m6.25 13v-11c0-.414-.336-.75-.75-.75s-.75.336-.75.75v11c0 .414.336.75.75.75s.75-.336.75-.75z"/><path d="m19.5 2.75h-15c-.414 0-.75.336-.75.75s.336.75.75.75h15c.414 0 .75-.336.75-.75s-.336-.75-.75-.75z"/><path d="m11.25 3.5v3.5c0 .414.336.75.75.75s.75-.336.75-.75v-3.5c0-.414-.336-.75-.75-.75s-.75.336-.75.75z"/></g></svg>