<svg clip-rule="evenodd" fill-rule="evenodd" stroke-linejoin="round" stroke-miterlimit="1.414" viewBox="0 0 32 32" xmlns="http://www.w3.org/2000/svg" xmlns:serif="http://www.serif.com/"><path id="bandage-band-treatment" d="m0 0h32v32h-32z" fill="none"/><path d="m25.103 18.06c.245.021.473.123.652.292l1.547 1.547c1.092 1.106 1.16 3.036.025 4.216-1.061 1.075-2.136 2.136-3.204 3.204-1.115 1.101-3.068 1.158-4.241 0l-1.546-1.546c-.158-.167-.189-.241-.237-.377-.223-.637.374-1.442 1.113-1.317.147.025.289.084.411.17.046.033.088.07.129.109.52.521 1.031 1.051 1.562 1.562.37.348 1.002.352 1.377 0 1.091-1.05 2.162-2.121 3.212-3.212.353-.377.358-1.015-.021-1.398l-1.542-1.543c-.317-.334-.281-.465-.292-.651-.031-.556.471-1.072 1.055-1.056zm-16.539-2.059-3.87-3.87c-1.092-1.105-1.148-3.051-.025-4.217 1.061-1.074 2.135-2.136 3.203-3.203.566-.559 1.358-.882 2.157-.877.777.014 1.529.328 2.085.877l3.879 3.879c1.297-1.292 2.594-2.585 3.889-3.879.566-.559 1.357-.882 2.156-.877.766.013 1.505.318 2.06.852 1.075 1.061 2.136 2.135 3.204 3.203 1.091 1.105 1.16 3.037.025 4.217-5.039 5.103-10.142 10.142-15.213 15.213-1.106 1.092-3.05 1.147-4.217.025-1.074-1.062-2.136-2.136-3.203-3.204-1.094-1.107-1.148-3.05-.025-4.216 1.294-1.311 2.593-2.618 3.895-3.923zm1.841.922c-1.448 1.459-2.886 2.927-4.312 4.408-.348.37-.352 1.002 0 1.377 1.05 1.091 2.121 2.162 3.211 3.212.371.348 1.003.352 1.378 0 5.169-4.977 10.244-10.052 15.221-15.221.349-.372.35-1.004 0-1.378-1.05-1.09-2.121-2.161-3.212-3.211-.188-.177-.443-.276-.701-.275-.254.005-.502.107-.686.284-1.503 1.484-3.01 2.966-4.514 4.45-.08.128-.188.238-.32.316-1.886 1.862-3.769 3.729-5.639 5.609-.092.182-.237.336-.426.429zm1.618.093c.245.01.478.107.659.273.683.664 1.348 1.347 2.022 2.021.526.541.198 1.659-.652 1.707-.271.015-.542-.087-.743-.272-.684-.664-1.348-1.347-2.022-2.021-.554-.57-.234-1.722.736-1.708zm6.004-6.005c.246.01.479.107.66.273.683.665 1.348 1.348 2.022 2.021.512.527.213 1.589-.568 1.699-.296.042-.604-.058-.828-.264-.683-.664-1.348-1.347-2.021-2.021-.549-.564-.234-1.721.735-1.708zm-3.45-1.01c-1.292-1.304-2.573-2.618-3.895-3.891-.372-.349-1.005-.351-1.378 0-1.09 1.05-2.161 2.121-3.211 3.211-.354.377-.358 1.015.02 1.399l3.866 3.865c1.53-1.53 3.064-3.057 4.598-4.584z" fill-rule="nonzero"/></svg>