<svg clip-rule="evenodd" fill-rule="evenodd" height="512" stroke-linejoin="round" stroke-miterlimit="2" viewBox="0 0 24 24" width="512" xmlns="http://www.w3.org/2000/svg"><g id="Icon"><path d="m2 12.75h16c2.623 0 4.75-2.127 4.75-4.75 0-2.071-1.679-3.75-3.75-3.75s-3.75 1.679-3.75 3.75c0 .414.336.75.75.75s.75-.336.75-.75c0-1.243 1.007-2.25 2.25-2.25s2.25 1.007 2.25 2.25c0 1.795-1.455 3.25-3.25 3.25h-16c-.414 0-.75.336-.75.75s.336.75.75.75z"/><path d="m2 9.75h9c2.071 0 3.75-1.679 3.75-3.75 0-1.518-1.232-2.75-2.75-2.75s-2.75 1.232-2.75 2.75c0 .414.336.75.75.75s.75-.336.75-.75c0-.69.56-1.25 1.25-1.25s1.25.56 1.25 1.25c0 1.243-1.007 2.25-2.25 2.25h-9c-.414 0-.75.336-.75.75s.336.75.75.75z"/><path d="m2 15.75h12c1.243 0 2.25 1.007 2.25 2.25 0 .69-.56 1.25-1.25 1.25s-1.25-.56-1.25-1.25c0-.414-.336-.75-.75-.75s-.75.336-.75.75c0 1.518 1.232 2.75 2.75 2.75s2.75-1.232 2.75-2.75c0-2.071-1.679-3.75-3.75-3.75h-12c-.414 0-.75.336-.75.75s.336.75.75.75z"/></g></svg>