<svg clip-rule="evenodd" fill-rule="evenodd" height="512" stroke-linejoin="round" stroke-miterlimit="2" viewBox="0 0 24 24" width="512" xmlns="http://www.w3.org/2000/svg"><g id="Icon"><path d="m12 1.25c3.174 0 5.75 2.576 5.75 5.75s-2.576 5.75-5.75 5.75-5.75-2.576-5.75-5.75 2.576-5.75 5.75-5.75zm0 1.5c-2.346 0-4.25 1.904-4.25 4.25s1.904 4.25 4.25 4.25 4.25-1.904 4.25-4.25-1.904-4.25-4.25-4.25z"/><path d="m21.25 21c0 .966-.783 1.75-1.75 1.75h-15c-.967 0-1.75-.784-1.75-1.75 0-4.28 3.47-7.75 7.75-7.75h3c4.28 0 7.75 3.47 7.75 7.75zm-.729.729c-.013.005-.021.011-.021.021zm-16.271-.729c0 .138.112.25.25.25h15c.137 0 .248-.11.25-.25 0-3.452-2.798-6.25-6.25-6.25h-3c-3.452 0-6.25 2.798-6.25 6.25z"/></g></svg>