<svg clip-rule="evenodd" fill-rule="evenodd" height="512" stroke-linejoin="round" stroke-miterlimit="2" viewBox="0 0 24 24" width="512" xmlns="http://www.w3.org/2000/svg"><g id="Icon"><path d="m17.75 9.5c0-.729-.29-1.429-.805-1.945-.516-.515-1.216-.805-1.945-.805-1.743 0-4.257 0-6 0-.729 0-1.429.29-1.945.805-.515.516-.805 1.216-.805 1.945v5c0 .061.008.122.022.182l.478 1.91v3.408c0 1.519 1.231 2.75 2.75 2.75h5c1.519 0 2.75-1.231 2.75-2.75v-3.408s.478-1.91.478-1.91c.014-.06.022-.121.022-.182zm-1.5 0v4.908s-.478 1.91-.478 1.91c-.014.06-.022.121-.022.182v3.5c0 .69-.56 1.25-1.25 1.25-1.488 0-3.512 0-5 0-.69 0-1.25-.56-1.25-1.25v-3.5c0-.061-.008-.122-.022-.182l-.478-1.91v-4.908c0-.332.132-.649.366-.884.235-.234.552-.366.884-.366h6c.332 0 .649.132.884.366.234.235.366.552.366.884z"/><path d="m15.75 7v-5c0-.414-.336-.75-.75-.75s-.75.336-.75.75v5c0 .414.336.75.75.75s.75-.336.75-.75z"/><path d="m10.25 7.5v-1c0-.414-.336-.75-.75-.75s-.75.336-.75.75v1c0 .414.336.75.75.75s.75-.336.75-.75z"/><path d="m15.75 13v-2.5c0-.464-.184-.909-.513-1.237-.328-.329-.773-.513-1.237-.513-1.11 0-2.89 0-4 0-.464 0-.909.184-1.237.513-.329.328-.513.773-.513 1.237v2.5c0 .464.184.909.513 1.237.328.329.773.513 1.237.513h4c.464 0 .909-.184 1.237-.513.329-.328.513-.773.513-1.237zm-1.5-2.5v2.5c0 .066-.026.13-.073.177s-.111.073-.177.073h-4c-.066 0-.13-.026-.177-.073s-.073-.111-.073-.177v-2.5c0-.066.026-.13.073-.177s.111-.073.177-.073h4c.066 0 .13.026.177.073s.073.111.073.177z"/><path d="m10 17.25h4c.414 0 .75-.336.75-.75s-.336-.75-.75-.75h-4c-.414 0-.75.336-.75.75s.336.75.75.75z"/><path d="m10 19.75h4c.414 0 .75-.336.75-.75s-.336-.75-.75-.75h-4c-.414 0-.75.336-.75.75s.336.75.75.75z"/><path d="m8.376 5.052c.33-.191.714-.302 1.124-.302s.794.111 1.124.302c.358.208.817.086 1.025-.272.207-.359.085-.818-.273-1.026-.551-.319-1.191-.504-1.876-.504-.684 0-1.325.185-1.876.505-.358.207-.48.667-.273 1.025.208.358.667.48 1.025.272z"/><path d="m6.876 3.451c.771-.447 1.667-.701 2.624-.701s1.853.254 2.624.701c.358.207.817.085 1.025-.273.207-.358.085-.817-.273-1.025-.991-.575-2.144-.903-3.376-.903s-2.385.328-3.376.903c-.358.208-.48.667-.273 1.025.208.358.667.48 1.025.273z"/></g></svg>