<svg clip-rule="evenodd" fill-rule="evenodd" height="512" stroke-linejoin="round" stroke-miterlimit="2" viewBox="0 0 24 24" width="512" xmlns="http://www.w3.org/2000/svg"><g id="Icon"><path d="m15.75 12c0-2.07-1.68-3.75-3.75-3.75s-3.75 1.68-3.75 3.75 1.68 3.75 3.75 3.75 3.75-1.68 3.75-3.75zm-1.5 0c0 1.242-1.008 2.25-2.25 2.25s-2.25-1.008-2.25-2.25 1.008-2.25 2.25-2.25 2.25 1.008 2.25 2.25z"/><path d="m22.195 13.018c.01-.013.019-.026.029-.039.403-.59.403-1.367 0-1.958-.009-.013-.019-.026-.029-.039-1.083-1.383-4.302-4.732-10.195-4.732-5.894 0-9.112 3.349-10.195 4.732-.01.013-.019.026-.029.039-.403.59-.403 1.367 0 1.958.009.013.019.026.029.039 1.083 1.383 4.302 4.732 10.195 4.732 5.894 0 9.112-3.349 10.195-4.732zm-1.201-.9c-.976 1.236-3.825 4.132-8.994 4.132-5.16 0-8.009-2.885-8.99-4.125-.046-.081-.047-.168-.006-.239.977-1.24 3.826-4.136 8.996-4.136 5.16 0 8.009 2.886 8.99 4.125.046.081.046.168.007.239z"/></g></svg>