<svg clip-rule="evenodd" fill-rule="evenodd" height="512" stroke-linejoin="round" stroke-miterlimit="2" viewBox="0 0 24 24" width="512" xmlns="http://www.w3.org/2000/svg"><g id="Icon"><path d="m10.065 3.67s-4.957-.737-7.386 2.972c-1.525 2.329-2.099 6.539.599 14.082.14.389.569.593.959.453.39-.139.593-.569.454-.959-2.446-6.838-2.139-10.643-.757-12.754 1.934-2.953 5.902-2.311 5.902-2.311.409.063.792-.218.855-.627.064-.409-.217-.793-.626-.856z"/><path d="m5.717 9.449c-.81 3.702-1.942 8.878-2.451 11.202-.113.518.014 1.059.347 1.471.332.413.833.653 1.363.653h9.416c.533 0 1.037-.243 1.369-.66.332-.418.456-.964.336-1.483l-.949-4.11c-.018-.08.004-.163.059-.224s.136-.091.217-.08l2.963.381c1.069.138 2.146-.192 2.955-.904.809-.711 1.273-1.737 1.273-2.815 0-.348 0-.694 0-1.025 0-1.674-1.11-3.146-2.72-3.606-2.17-.62-5.557-1.588-8.233-2.352-1.261-.361-2.615-.183-3.741.489-1.126.673-1.924 1.782-2.204 3.063zm1.465.32c.192-.876.738-1.635 1.508-2.095.771-.46 1.697-.582 2.56-.335 0 0 8.233 2.352 8.233 2.352.966.276 1.632 1.159 1.632 2.164v1.025c0 .646-.278 1.262-.764 1.689-.485.427-1.131.625-1.773.542 0 0-2.963-.381-2.963-.381-.568-.073-1.136.136-1.52.561-.385.424-.537 1.01-.408 1.568l.948 4.11c.017.074 0 .152-.048.212-.047.059-.119.094-.195.094h-9.416c-.076 0-.147-.034-.195-.093-.047-.059-.066-.136-.049-.21z"/><path d="m15.309 7.241s-1.072-2.68-1.674-4.184c-.197-.494-.609-.872-1.118-1.026-.51-.154-1.062-.068-1.5.234-.013.009-.026.019-.039.029-.993.784-2.279 2.127-2.296 4.2-.003.414.33.753.744.757.414.003.753-.33.756-.744.013-1.491.974-2.437 1.695-3.012.068-.04.139-.048.205-.028.073.022.132.076.16.146l1.674 4.185c.154.385.591.572.975.418s.572-.59.418-.975z"/><path d="m2.879 9.672 4.663-1.166c.401-.1.646-.508.545-.909-.1-.402-.507-.646-.909-.546l-4.663 1.166c-.401.1-.646.508-.545.909.1.402.508.646.909.546z"/><path d="m2.879 14.334 2.591-.647c.401-.101.646-.508.545-.91-.1-.401-.508-.646-.909-.545l-2.591.647c-.401.101-.646.508-.545.91.1.401.508.646.909.545z"/><path d="m18.152 3.36.375 5.249c.029.413.389.724.801.695.413-.03.725-.389.695-.802 0 0-.298-4.167-.442-6.184-.034-.479-.362-.886-.822-1.021-.461-.136-.957.029-1.245.413l-3.631 4.842c-.248.331-.181.801.15 1.05.331.248.802.181 1.05-.15z"/><path d="m15.131 9.86h-1.036c-.414 0-.75.336-.75.75s.336.75.75.75h1.036c.414 0 .75-.336.75-.75s-.336-.75-.75-.75z"/></g></svg>