<svg clip-rule="evenodd" fill-rule="evenodd" height="512" stroke-linejoin="round" stroke-miterlimit="2" viewBox="0 0 24 24" width="512" xmlns="http://www.w3.org/2000/svg"><g id="Icon"><circle cx="21.024" cy="11.553" r=".75"/><circle cx="19" cy="17.75" r=".75"/><circle cx="2.75" cy="17.75" r=".75"/><circle cx="4" cy="11.5" r=".75"/><path d="m22 8h-20c-.414 0-.75.336-.75.75s.336.75.75.75h20c.414 0 .75-.336.75-.75s-.336-.75-.75-.75z"/><path d="m22 19.5h-20c-.414 0-.75.336-.75.75s.336.75.75.75h20c.414 0 .75-.336.75-.75s-.336-.75-.75-.75z"/><path d="m22 3h-20c-.414 0-.75.336-.75.75s.336.75.75.75h20c.414 0 .75-.336.75-.75s-.336-.75-.75-.75z"/><path d="m3.5 7h1c.414 0 .75-.336.75-.75s-.336-.75-.75-.75h-1c-.414 0-.75.336-.75.75s.336.75.75.75z"/><path d="m7.5 7h1c.414 0 .75-.336.75-.75s-.336-.75-.75-.75h-1c-.414 0-.75.336-.75.75s.336.75.75.75z"/><path d="m11.5 7h1c.414 0 .75-.336.75-.75s-.336-.75-.75-.75h-1c-.414 0-.75.336-.75.75s.336.75.75.75z"/><path d="m15.5 7h1c.414 0 .75-.336.75-.75s-.336-.75-.75-.75h-1c-.414 0-.75.336-.75.75s.336.75.75.75z"/><path d="m19.5 7h1c.414 0 .75-.336.75-.75s-.336-.75-.75-.75h-1c-.414 0-.75.336-.75.75s.336.75.75.75z"/><path d="m7.634 16.642c1.153-.227 2.51-.227 3.663 0 .178.035.357.071.535.106 1.701.335 3.704.335 5.405 0 1.219-.241 2.013-1.425 1.772-2.643-.24-1.219-1.424-2.013-2.643-1.772-1.153.227-2.51.227-3.663 0-.178-.035-.357-.071-.535-.106-1.701-.335-3.704-.335-5.405 0-1.219.24-2.013 1.425-1.772 2.643.24 1.218 1.424 2.012 2.643 1.772zm-.291-1.472c-.406.081-.8-.184-.881-.59-.08-.406.185-.801.591-.881 1.519-.3 3.306-.3 4.825 0 .177.035.357.07.535.105 1.336.264 2.908.264 4.244 0 .406-.08.8.185.881.591.08.406-.185.801-.591.881-1.519.3-3.306.3-4.825 0-.177-.035-.357-.071-.535-.106-1.336-.263-2.908-.263-4.244 0z"/></g></svg>