<svg clip-rule="evenodd" fill-rule="evenodd" height="512" stroke-linejoin="round" stroke-miterlimit="2" viewBox="0 0 24 24" width="512" xmlns="http://www.w3.org/2000/svg"><g id="Icon"><path d="m10.41 6.41c.405-.405.967-.66 1.59-.66.622 0 1.185.255 1.59.66.292.293.768.293 1.06 0 .293-.292.293-.768 0-1.06-.675-.675-1.613-1.1-2.65-1.1-1.038 0-1.975.425-2.65 1.1-.293.292-.293.768 0 1.06.292.293.768.293 1.06 0z"/><path d="m8.293 4.288c.944-.953 2.256-1.538 3.707-1.538s2.763.585 3.707 1.538c.291.294.767.296 1.061.005.294-.292.296-.767.005-1.061-1.216-1.227-2.904-1.982-4.773-1.982s-3.557.755-4.773 1.982c-.291.294-.289.769.005 1.061.294.291.769.289 1.061-.005z"/><path d="m12 22.75c2.623 0 4.75-2.127 4.75-4.75v-5c0-2.623-2.127-4.75-4.75-4.75s-4.75 2.127-4.75 4.75v5c0 2.623 2.127 4.75 4.75 4.75zm0-1.5c-1.795 0-3.25-1.455-3.25-3.25v-5c0-1.795 1.455-3.25 3.25-3.25s3.25 1.455 3.25 3.25v5c0 1.795-1.455 3.25-3.25 3.25z"/><path d="m12.75 13.5v-1.5c0-.414-.336-.75-.75-.75s-.75.336-.75.75v1.5c0 .414.336.75.75.75s.75-.336.75-.75z"/></g></svg>