<svg clip-rule="evenodd" fill-rule="evenodd" height="512" stroke-linejoin="round" stroke-miterlimit="2" viewBox="0 0 24 24" width="512" xmlns="http://www.w3.org/2000/svg"><g id="Icon"><path d="m14.25 20.5c0-1.242-1.008-2.25-2.25-2.25s-2.25 1.008-2.25 2.25 1.008 2.25 2.25 2.25 2.25-1.008 2.25-2.25zm-1.5 0c0 .414-.336.75-.75.75s-.75-.336-.75-.75.336-.75.75-.75.75.336.75.75z"/><path d="m8.25 3.5c0-1.242-1.008-2.25-2.25-2.25s-2.25 1.008-2.25 2.25 1.008 2.25 2.25 2.25 2.25-1.008 2.25-2.25zm-1.5 0c0 .414-.336.75-.75.75s-.75-.336-.75-.75.336-.75.75-.75.75.336.75.75z"/><path d="m20.25 3.5c0-1.242-1.008-2.25-2.25-2.25s-2.25 1.008-2.25 2.25 1.008 2.25 2.25 2.25 2.25-1.008 2.25-2.25zm-1.5 0c0 .414-.336.75-.75.75s-.75-.336-.75-.75.336-.75.75-.75.75.336.75.75z"/><path d="m12.75 19.006v-5.006c0-.414-.336-.75-.75-.75s-.75.336-.75.75v5.006c0 .414.336.75.75.75s.75-.336.75-.75z"/><path d="m5.25 4.994v5.006c0 .414.336.75.75.75s.75-.336.75-.75v-5.006c0-.414-.336-.75-.75-.75s-.75.336-.75.75z"/><path d="m17.25 4.994v5.006c0 .414.336.75.75.75s.75-.336.75-.75v-5.006c0-.414-.336-.75-.75-.75s-.75.336-.75.75z"/><path d="m20 16.25c.269 0 .518-.144.651-.378l2-3.5c.132-.23.132-.514 0-.744l-2-3.5c-.133-.234-.382-.378-.651-.378h-18c-.267 0-.514.142-.649.374-.134.231-.135.516-.002.748l1.787 3.128s-1.787 3.128-1.787 3.128c-.133.232-.132.517.002.748.135.232.382.374.649.374zm-.435-1.5h-16.273s1.359-2.378 1.359-2.378c.132-.23.132-.514 0-.744l-1.359-2.378h16.273s1.571 2.75 1.571 2.75z"/><path d="m13.349 8.872 1.787 3.128s-1.787 3.128-1.787 3.128c-.206.359-.081.818.279 1.023.359.206.818.081 1.023-.279l2-3.5c.132-.23.132-.514 0-.744l-2-3.5c-.205-.36-.664-.485-1.023-.279-.36.205-.485.664-.279 1.023z"/><path d="m7.349 8.872 1.787 3.128s-1.787 3.128-1.787 3.128c-.206.359-.081.818.279 1.023.359.206.818.081 1.023-.279l2-3.5c.132-.23.132-.514 0-.744l-2-3.5c-.205-.36-.664-.485-1.023-.279-.36.205-.485.664-.279 1.023z"/></g></svg>