<svg clip-rule="evenodd" fill-rule="evenodd" height="512" stroke-linejoin="round" stroke-miterlimit="2" viewBox="0 0 24 24" width="512" xmlns="http://www.w3.org/2000/svg"><g id="Icon"><circle cx="16.976" cy="11.75" r="1"/><path d="m15.226 7.25c0 .015 0 .031.001.046.011.243.115.402.242.507.133.122.311.197.507.197 0 0 .75-.043.75-.75 0-1.519-1.232-2.75-2.75-2.75-.414 0-.75.336-.75.75s.336.75.75.75c.69 0 1.25.56 1.25 1.25z"/><path d="m16.226 4.25c0 .015 0 .031.001.046.011.243.115.402.242.507.133.122.311.197.507.197 0 0 .75-.043.75-.75 0-1.519-1.232-2.75-2.75-2.75-.414 0-.75.336-.75.75s.336.75.75.75c.69 0 1.25.56 1.25 1.25z"/><path d="m17.226 7.25c0 .015 0 .031.001.046.011.243.115.402.242.507.133.122.311.197.507.197 0 0 .75-.043.75-.75 0-.69.559-1.25 1.25-1.25.414 0 .75-.336.75-.75s-.336-.75-.75-.75c-1.519 0-2.75 1.231-2.75 2.75z"/><path d="m13.019 20.099c5.279-.306 10.137-3.108 9.705-9.4-.015-.209-.116-.403-.279-.534 0 0-2.24-1.814-5.504-1.664-3.099.142-4.72 1.809-6.294 2.575-1.127.549-3.182 1.163-4.244-.634.251-.242.556-.581.81-.995.387-.632.652-1.43.502-2.321-.057-.344-.345-.603-.693-.625 0 0-.768-.05-1.573.201-.372.116-.747.296-1.072.558-.554-.347-1.439-.774-2.412-.76-.406.006-.733.333-.739.739 0 0-.017.921.364 1.871.23.576.603 1.156 1.183 1.58.114.856.493 3.04 1.546 5.062.945 1.811 2.424 3.477 4.667 4.07.4.106.811-.133.917-.534.106-.4-.134-.811-.534-.916-1.805-.477-2.96-1.856-3.719-3.313-1.208-2.318-1.427-4.873-1.427-4.873-.022-.25-.167-.473-.387-.594-.445-.244-.698-.65-.854-1.039-.055-.137-.098-.272-.131-.401.66.235 1.126.658 1.126.658.162.145.38.212.596.184.216-.029.409-.149.529-.331.191-.291.502-.438.793-.529.105-.032.208-.057.307-.076-.059.222-.158.425-.268.605-.369.602-.891.974-.891.974-.285.202-.393.573-.262.895.435 1.07 1.06 1.731 1.753 2.124 1.555.882 3.537.368 4.77-.232.621-.302 1.248-.75 1.971-1.191.96-.586 2.111-1.159 3.735-1.234 2.069-.095 3.638.765 4.234 1.153.159 5.052-3.963 7.197-8.312 7.45-.413.024-.729.379-.705.792s.379.729.792.705z"/><path d="m22.046 11.503s-1.018-.095-1.967.15c-.779.201-1.487.635-1.795 1.369-.482 1.149-1.846 3.149-4.89 3.482-.328.036-.593.282-.655.605 0 0-.418 2.151-2.374 3.534-.163-.676-.32-1.887-.143-3.825.02-.21-.051-.419-.193-.574-.143-.156-.344-.245-.555-.244 0 0-1.575-.022-4.142-1.41-.364-.197-.819-.061-1.016.303-.197.365-.061.82.303 1.017 1.832.99 3.238 1.364 4.055 1.505-.196 3.497.671 4.742.671 4.742.208.322.626.435.969.263 2.462-1.244 3.429-3.476 3.754-4.495 3.457-.578 5.022-2.948 5.599-4.323.127-.302.465-.414.787-.497.7-.18 1.451-.108 1.451-.108.412.039.778-.264.817-.676s-.264-.779-.676-.818z"/></g></svg>