<svg clip-rule="evenodd" fill-rule="evenodd" height="512" stroke-linejoin="round" stroke-miterlimit="2" viewBox="0 0 24 24" width="512" xmlns="http://www.w3.org/2000/svg"><g id="Icon"><path d="m22.75 13.5c0-2.672-1.746-4.75-3.75-4.75s-3.75 2.078-3.75 4.75 1.746 4.75 3.75 4.75 3.75-2.078 3.75-4.75zm-1.5 0c0 1.102-.384 2.086-1.003 2.692-.351.343-.779.558-1.247.558s-.896-.215-1.247-.558c-.619-.606-1.003-1.59-1.003-2.692s.384-2.086 1.003-2.692c.351-.343.779-.558 1.247-.558s.896.215 1.247.558c.619.606 1.003 1.59 1.003 2.692z"/><path d="m8.286 8.75h-3.286c-2.006 0-3.75 2.076-3.75 4.75s1.744 4.75 3.75 4.75h14c.414 0 .75-.336.75-.75s-.336-.75-.75-.75h-14c-.469 0-.896-.215-1.248-.558-.619-.605-1.002-1.59-1.002-2.692s.383-2.087 1.002-2.692c.352-.343.779-.558 1.248-.558h3.691c.433 0 .836-.224 1.063-.593.228-.368.249-.829.055-1.216l-.595-1.191h1.822l1.155 2.309c.212.424.645.691 1.118.691h5.691c.414 0 .75-.336.75-.75s-.336-.75-.75-.75h-5.536l-1.155-2.309c-.212-.423-.645-.691-1.118-.691-.529 0-1.623 0-2.382 0-.433 0-.836.224-1.063.593-.228.368-.249.829-.055 1.216z"/><path d="m16 13.75h-5c-.414 0-.75.336-.75.75s.336.75.75.75h5c.414 0 .75-.336.75-.75s-.336-.75-.75-.75z"/><path d="m3 13.25h4c.414 0 .75-.336.75-.75s-.336-.75-.75-.75h-4c-.414 0-.75.336-.75.75s.336.75.75.75z"/></g></svg>