<svg clip-rule="evenodd" fill-rule="evenodd" height="512" stroke-linejoin="round" stroke-miterlimit="2" viewBox="0 0 24 24" width="512" xmlns="http://www.w3.org/2000/svg"><g id="Icon"><path d="m9.621 7.035c-.12.117-.258.227-.399.342-.533.433-1.147.848-1.725 1.297-1.787 1.384-3.169 3.084-3.139 5.461.048 3.79 2.491 7.585 2.491 7.585.001.002.002.003.003.004.719 1.098 2.194 1.407 3.293.688 1.098-.719 1.407-2.195.688-3.294-.001-.001-.002-.003-.003-.004 0 0-1.683-2.513-1.714-5.039-.006-.438.277-.732.565-1.016.417-.412.916-.77 1.4-1.125.316-.231.625-.463.919-.699.294.236.603.468.919.699.484.355.983.713 1.4 1.125.288.284.571.578.565 1.016-.031 2.526-1.714 5.039-1.714 5.039-.001.001-.002.003-.003.004-.719 1.099-.41 2.575.688 3.294 1.099.719 2.574.41 3.293-.688.001-.001.002-.002.003-.004 0 0 2.443-3.795 2.491-7.585.03-2.377-1.352-4.077-3.139-5.461-.578-.449-1.192-.864-1.725-1.297-.141-.115-.279-.225-.399-.342v-3.456c0-1.313-1.066-2.379-2.379-2.379s-2.379 1.066-2.379 2.379zm1.43.799c.11-.141.17-.314.17-.493v-3.762c0-.43.349-.779.779-.779s.779.349.779.779v3.762c0 .179.06.352.17.493.217.277.507.53.82.785.542.44 1.166.864 1.754 1.32 1.384 1.072 2.542 2.335 2.519 4.176-.042 3.314-2.164 6.627-2.233 6.733-.235.36-.718.46-1.078.225-.359-.236-.46-.719-.225-1.078-.003.004 1.941-2.944 1.978-5.9.012-.908-.444-1.585-1.04-2.174-.472-.466-1.032-.876-1.58-1.278-.471-.345-.927-.692-1.335-1.051-.302-.267-.755-.267-1.058 0-.408.359-.864.706-1.335 1.051-.548.402-1.108.812-1.58 1.278-.596.589-1.052 1.266-1.04 2.174.037 2.956 1.981 5.904 1.981 5.904.232.355.131.838-.228 1.074-.36.235-.843.135-1.078-.225-.069-.106-2.191-3.419-2.233-6.733-.023-1.841 1.135-3.104 2.519-4.176.588-.456 1.212-.88 1.754-1.32.313-.255.603-.508.82-.785z"/></g></svg>