<svg clip-rule="evenodd" fill-rule="evenodd" height="512" stroke-linejoin="round" stroke-miterlimit="2" viewBox="0 0 24 24" width="512" xmlns="http://www.w3.org/2000/svg"><g id="Icon"><circle cx="5.25" cy="5" r=".75"/><circle cx="7.75" cy="5" r=".75"/><circle cx="10.25" cy="5" r=".75"/><path d="m19.5 22.75c1.795 0 3.25-1.455 3.25-3.25 0-3.842 0-11.158 0-15 0-1.795-1.455-3.25-3.25-3.25-3.842 0-11.158 0-15 0-1.795 0-3.25 1.455-3.25 3.25v15c0 1.795 1.455 3.25 3.25 3.25zm0-1.5h-15c-.967 0-1.75-.783-1.75-1.75v-15c0-.967.783-1.75 1.75-1.75h15c.967 0 1.75.783 1.75 1.75v15c0 .967-.783 1.75-1.75 1.75z"/><path d="m22 7.25h-20c-.414 0-.75.336-.75.75s.336.75.75.75h20c.414 0 .75-.336.75-.75s-.336-.75-.75-.75z"/><path d="m6.25 14.5v-1.75c0-.414-.336-.75-.75-.75s-.75.336-.75.75v2c0 .69.56 1.25 1.25 1.25h2c.414 0 .75-.336.75-.75s-.336-.75-.75-.75z"/><path d="m11.75 12c-.966 0-1.75.783-1.75 1.75v2.5c0 .967.784 1.75 1.75 1.75h.5c.966 0 1.75-.783 1.75-1.75v-2.5c0-.967-.784-1.75-1.75-1.75zm0 1.5h.5c.138 0 .25.112.25.25v2.5c0 .138-.112.25-.25.25h-.5c-.138 0-.25-.112-.25-.25v-2.5c0-.138.112-.25.25-.25z"/><path d="m16.75 14.5v-1.75c0-.414-.336-.75-.75-.75s-.75.336-.75.75v2c0 .69.56 1.25 1.25 1.25h2c.414 0 .75-.336.75-.75s-.336-.75-.75-.75z"/><path d="m7.25 12.75v4.5c0 .414.336.75.75.75s.75-.336.75-.75v-4.5c0-.414-.336-.75-.75-.75s-.75.336-.75.75z"/><path d="m17.75 12.75v4.5c0 .414.336.75.75.75s.75-.336.75-.75v-4.5c0-.414-.336-.75-.75-.75s-.75.336-.75.75z"/></g></svg>