<svg clip-rule="evenodd" fill-rule="evenodd" height="512" stroke-linejoin="round" stroke-miterlimit="2" viewBox="0 0 24 24" width="512" xmlns="http://www.w3.org/2000/svg"><g id="Icon"><path d="m17.503 11.75c.5 0 1.002-.254 1.418-.795.642-.837 1.123-2.512 1.123-4.452 0-1.941-.481-3.616-1.123-4.452-.416-.541-.918-.795-1.418-.795s-1.002.254-1.418.795c-.643.836-1.124 2.511-1.124 4.452 0 1.94.481 3.615 1.124 4.452.416.541.918.795 1.418.795zm0-1.5c-.055 0-.089-.055-.137-.103-.095-.096-.181-.224-.262-.373-.401-.737-.643-1.93-.643-3.271s.242-2.534.643-3.271c.081-.15.167-.277.262-.374.048-.048.082-.102.137-.102.054 0 .089.054.136.102.095.097.181.224.263.374.4.737.642 1.93.642 3.271s-.242 2.534-.642 3.271c-.082.149-.168.277-.263.373-.047.048-.082.103-.136.103z"/><path d="m13.006 7.253h8.994c.414 0 .75-.336.75-.75s-.336-.75-.75-.75h-8.994c-.414 0-.75.336-.75.75s.336.75.75.75z"/><path d="m17.497 1.256c-2.896 0-5.247 2.351-5.247 5.247s2.351 5.247 5.247 5.247 5.247-2.351 5.247-5.247-2.351-5.247-5.247-5.247zm0 1.5c2.068 0 3.747 1.679 3.747 3.747s-1.679 3.747-3.747 3.747-3.747-1.679-3.747-3.747 1.679-3.747 3.747-3.747z"/><path d="m11.75 14.5c0-.464-.184-.909-.513-1.237-.328-.329-.773-.513-1.237-.513-1.732 0-5.268 0-7 0-.464 0-.909.184-1.237.513-.329.328-.513.773-.513 1.237v6.5c0 .464.184.909.513 1.237.328.329.773.513 1.237.513h7c.464 0 .909-.184 1.237-.513.329-.328.513-.773.513-1.237zm-1.5 0v6.5c0 .066-.026.13-.073.177s-.111.073-.177.073h-7c-.066 0-.13-.026-.177-.073s-.073-.111-.073-.177v-6.5c0-.066.026-.13.073-.177s.111-.073.177-.073h7c.066 0 .13.026.177.073s.073.111.073.177z"/><path d="m4.25 13.5v3c0 .414.336.75.75.75h3c.414 0 .75-.336.75-.75v-3c0-.414-.336-.75-.75-.75s-.75.336-.75.75v2.25h-1.5v-2.25c0-.414-.336-.75-.75-.75s-.75.336-.75.75z"/><path d="m14 22.75h6c1.519 0 2.75-1.231 2.75-2.75 0-2.37 0-6 0-6 0-.414-.336-.75-.75-.75s-.75.336-.75.75v6c0 .69-.56 1.25-1.25 1.25h-6c-.414 0-.75.336-.75.75s.336.75.75.75z"/><path d="m10 1.25s-3.63 0-6 0c-1.519 0-2.75 1.231-2.75 2.75v6c0 .414.336.75.75.75s.75-.336.75-.75v-6c0-.69.56-1.25 1.25-1.25h6c.414 0 .75-.336.75-.75s-.336-.75-.75-.75z"/></g></svg>