<svg clip-rule="evenodd" fill-rule="evenodd" height="512" stroke-linejoin="round" stroke-miterlimit="2" viewBox="0 0 24 24" width="512" xmlns="http://www.w3.org/2000/svg"><g id="Icon"><path d="m14.037 18.695c.293-.293.293-.768 0-1.061l-.959-.959c-.903-.904-2.129-1.411-3.407-1.411s-2.503.507-3.407 1.411c0 0-.959.959-.959.959-.293.293-.293.768 0 1.061l.959.959c.904.903 2.129 1.411 3.407 1.411s2.504-.508 3.407-1.411c0 0 .959-.959.959-.959zm-1.591-.531-.428.429c-.623.622-1.467.972-2.347.972s-1.724-.35-2.346-.972c0 0-.429-.429-.429-.429l.429-.428c.622-.623 1.466-.972 2.346-.972s1.724.349 2.347.972z"/><path d="m6.366 9.963c-.293-.293-.768-.293-1.061 0l-.959.959c-.903.903-1.411 2.129-1.411 3.407s.508 2.503 1.411 3.407c0 0 .959.959.959.959.293.293.768.293 1.061 0l.959-.959c.904-.904 1.411-2.129 1.411-3.407s-.507-2.504-1.411-3.407c0 0-.959-.959-.959-.959zm-.53 1.591.428.428c.623.623.972 1.467.972 2.347s-.349 1.724-.972 2.346c0 0-.428.429-.428.429l-.429-.429c-.622-.622-.972-1.466-.972-2.346s.35-1.724.972-2.347z"/><path d="m18.257 14.475c.292-.292.292-.767 0-1.06l-.959-.959c-.904-.904-2.13-1.411-3.407-1.411-1.278 0-2.504.507-3.408 1.411 0 0-.958.959-.958.959-.293.293-.293.768 0 1.06l.958.959c.904.904 2.13 1.412 3.408 1.412 1.277 0 2.503-.508 3.407-1.412 0 0 .959-.959.959-.959zm-1.591-.53-.429.429c-.622.622-1.466.972-2.346.972-.881 0-1.725-.35-2.347-.972 0 0-.428-.429-.428-.429l.428-.428c.622-.623 1.466-.972 2.347-.972.88 0 1.724.349 2.346.972z"/><path d="m10.585 5.743c-.293-.292-.768-.292-1.06 0l-.959.959c-.904.904-1.412 2.13-1.412 3.407 0 1.278.508 2.504 1.412 3.408 0 0 .959.958.959.958.292.293.767.293 1.06 0l.959-.958c.904-.904 1.411-2.13 1.411-3.408 0-1.277-.507-2.503-1.411-3.407 0 0-.959-.959-.959-.959zm-.53 1.591.428.429c.623.622.972 1.466.972 2.346 0 .881-.349 1.725-.972 2.347 0 0-.428.428-.428.428l-.429-.428c-.622-.622-.972-1.466-.972-2.347 0-.88.35-1.724.972-2.346z"/><path d="m22.476 10.256c.293-.293.293-.768 0-1.06l-.959-.959c-.904-.904-2.129-1.412-3.407-1.412s-2.504.508-3.407 1.412c0 0-.959.959-.959.959-.293.292-.293.767 0 1.06l.959.959c.903.904 2.129 1.411 3.407 1.411s2.503-.507 3.407-1.411c0 0 .959-.959.959-.959zm-1.591-.53-.429.428c-.622.623-1.466.972-2.346.972s-1.724-.349-2.347-.972c0 0-.428-.428-.428-.428l.428-.429c.623-.622 1.467-.972 2.347-.972s1.724.35 2.346.972z"/><path d="m22.75 2c0-.414-.336-.75-.75-.75h-1.356c-1.278 0-2.504.508-3.407 1.411-.904.904-1.411 2.129-1.411 3.407v1.356c0 .415.335.75.75.75h1.356c1.278 0 2.503-.507 3.407-1.411.903-.903 1.411-2.129 1.411-3.407zm-1.5.75v.606c0 .88-.35 1.724-.972 2.347-.622.622-1.466.971-2.346.971h-.606v-.606c0-.88.349-1.724.971-2.346.623-.622 1.467-.972 2.347-.972z"/><path d="m14.804 1.524c-.292-.293-.767-.293-1.06 0l-.959.959c-.904.904-1.411 2.129-1.411 3.407s.507 2.504 1.411 3.407c0 0 .959.959.959.959.293.293.768.293 1.06 0l.959-.959c.904-.903 1.412-2.129 1.412-3.407s-.508-2.503-1.412-3.407c0 0-.959-.959-.959-.959zm-.53 1.591.429.429c.622.622.972 1.466.972 2.346s-.35 1.724-.972 2.347c0 0-.429.428-.429.428l-.428-.428c-.623-.623-.972-1.467-.972-2.347s.349-1.724.972-2.346z"/><path d="m5.305 17.634-3.835 3.836c-.293.292-.293.768 0 1.06.292.293.768.293 1.06 0l3.836-3.835c.293-.293.293-.768 0-1.061s-.768-.293-1.061 0z"/></g></svg>