<svg clip-rule="evenodd" fill-rule="evenodd" stroke-linejoin="round" stroke-miterlimit="1.414" viewBox="0 0 32 32" xmlns="http://www.w3.org/2000/svg" xmlns:serif="http://www.serif.com/"><path id="shop-sell-market-purchase-" d="m0 0h32v32h-32z" fill="none"/><path d="m27.974 3.006c.019.001.037.001.056.002.182.015.231.035.326.074.328.136.571.456.611.811.005.05.005.062.006.112 0 1.418.065 2.844-.007 4.252-.095 1.889-1.365 3.673-3.128 4.381-1.993.8-4.481.132-5.807-1.576-.021-.027-.041-.054-.062-.081-.543.729-1.276 1.317-2.123 1.657-1.987.798-4.462.135-5.789-1.553-.028-.036-.056-.072-.083-.109-.643.857-1.547 1.521-2.583 1.822-.776.225-1.605.246-2.395.083-.004 4.371-.027 8.742 0 13.114.01.514.446.976.986.986 1.003.006 2.007.011 3.01.015v-11.003c.007-.21.025-.244.057-.335.122-.343.442-.605.806-.655.06-.008.075-.007.136-.009h7.991c.023.001.046.001.069.002.461.048.858.404.921.861.008.06.007.075.009.136v7.991c-.002.061-.001.076-.009.136-.095.691-1.043 1.108-1.62.639-.194-.158-.325-.391-.359-.639-.009-.06-.008-.075-.01-.136v-6.992h-5.993v10.011c3.667.008 7.334.001 11.001-.022.521-.01.983-.457.986-1.002v-9.986c.013-.284.054-.361.134-.5.302-.522 1.125-.654 1.571-.207.145.145.242.332.278.533.013.077.012.096.015.174v9.992c-.009 1.512-1.277 2.913-2.848 2.991-.037.001-.075.002-.112.003-5.341.033-10.682 0-16.023 0-1.553-.009-2.984-1.362-2.994-2.994v-13.988-.002c-.149-.111-.292-.23-.428-.358-.98-.924-1.557-2.249-1.57-3.604v-.03-3.998s.039-.453.293-.706c.158-.159.371-.261.594-.286.05-.006.062-.005.112-.007zm-.999 1.998h-5.986c.014 1.029.038 2.058-.006 3.079.052 1.493 1.349 2.845 2.859 2.912 1.601.071 3.128-1.297 3.133-2.996zm-7.992 0h-5.986c.012 1.027.033 2.056-.006 3.07.046 1.496 1.346 2.854 2.86 2.921 1.6.071 3.127-1.297 3.132-2.996zm-7.991 0h-5.994v2.995c.004 1.277.898 2.497 2.123 2.87 1.768.538 3.864-.877 3.871-2.87z" fill-rule="nonzero"/></svg>