<svg clip-rule="evenodd" fill-rule="evenodd" height="512" stroke-linejoin="round" stroke-miterlimit="2" viewBox="0 0 24 24" width="512" xmlns="http://www.w3.org/2000/svg"><g id="Icon"><path d="m20.567 19.158c.235-.226.297-.577.154-.87-.511-1.044-1.522-1.851-2.789-2.074-1.266-.223-2.492.189-3.329.995-.235.226-.297.578-.153.871.511 1.043 1.521 1.85 2.788 2.073 1.266.224 2.492-.189 3.329-.995zm-1.537-.72c-.448.24-.984.335-1.532.238-.547-.096-1.019-.369-1.357-.747.447-.239.983-.334 1.531-.238.548.097 1.019.37 1.358.747z"/><path d="m3.279 18.288c-.143.293-.081.644.154.87.837.806 2.063 1.219 3.329.995 1.267-.223 2.277-1.03 2.788-2.073.144-.293.082-.645-.153-.871-.837-.806-2.063-1.218-3.329-.995-1.267.223-2.278 1.03-2.789 2.074zm1.691.15c.339-.377.81-.65 1.358-.747.548-.096 1.084-.001 1.531.238-.338.378-.81.651-1.357.747-.548.097-1.084.002-1.532-.238z"/><path d="m22.7 13.939c.117-.304.025-.649-.229-.853-.904-.73-2.161-1.034-3.403-.702-1.243.333-2.179 1.225-2.597 2.309-.118.304-.025.649.228.854.905.73 2.162 1.034 3.404.701s2.178-1.225 2.597-2.309zm-1.698-.002c-.305.405-.75.718-1.287.862-.538.144-1.08.096-1.547-.103.305-.406.751-.719 1.288-.863s1.079-.096 1.546.104z"/><path d="m1.529 13.086c-.254.204-.346.549-.229.853.419 1.084 1.355 1.976 2.597 2.309s2.499.029 3.404-.701c.253-.205.346-.55.228-.854-.418-1.084-1.354-1.976-2.597-2.309-1.242-.332-2.499-.028-3.403.702zm1.469.851c.467-.2 1.009-.248 1.546-.104s.983.457 1.288.863c-.467.199-1.009.247-1.547.103-.537-.144-.982-.457-1.287-.862z"/><path d="m22.104 8.211c-.051-.322-.303-.575-.625-.625-1.148-.18-2.389.185-3.298 1.094-.91.91-1.275 2.15-1.095 3.298.051.322.303.575.625.625 1.148.18 2.389-.185 3.298-1.094.91-.91 1.275-2.15 1.095-3.298zm-1.472.846c-.061.504-.29.998-.683 1.391-.394.393-.888.623-1.391.684.061-.504.29-.998.684-1.391.393-.393.887-.623 1.39-.684z"/><path d="m2.521 7.586c-.322.05-.574.303-.625.625-.18 1.148.185 2.388 1.095 3.298.909.909 2.15 1.274 3.298 1.094.322-.05.574-.303.625-.625.18-1.148-.185-2.388-1.095-3.298-.909-.909-2.15-1.274-3.298-1.094zm.847 1.471c.503.061.997.291 1.39.684.394.393.623.887.684 1.391-.503-.061-.997-.291-1.391-.684-.393-.393-.622-.887-.683-1.391z"/><path d="m19.217 3.029c-.204-.254-.549-.346-.853-.229-1.085.419-1.976 1.355-2.309 2.597s-.029 2.499.701 3.404c.205.253.55.346.854.228 1.084-.418 1.976-1.354 2.308-2.597.333-1.242.029-2.499-.701-3.403zm-.851 1.469c.199.467.248 1.009.104 1.546s-.457.983-.863 1.288c-.199-.467-.247-1.009-.103-1.547.144-.537.456-.982.862-1.287z"/><path d="m5.636 2.8c-.304-.117-.649-.025-.853.229-.73.904-1.034 2.161-.701 3.403.332 1.243 1.224 2.179 2.308 2.597.304.118.649.025.854-.228.73-.905 1.034-2.162.701-3.404s-1.224-2.178-2.309-2.597zm-.002 1.698c.406.305.718.75.862 1.287.144.538.096 1.08-.103 1.547-.406-.305-.719-.751-.863-1.288s-.095-1.079.104-1.546z"/><path d="m10.643 20.886.877-1.461c.223-.373.625-.602 1.06-.606 1.152-.011 2.872-.352 4.161-1.929 1.189-1.454 2.046-4.045 1.504-8.648-.049-.411-.422-.706-.833-.657-.411.048-.705.421-.657.832.47 3.993-.144 6.262-1.176 7.524-.931 1.139-2.181 1.37-3.013 1.378-.957.009-1.84.514-2.332 1.334l-.877 1.461c-.213.355-.098.816.257 1.029s.816.098 1.029-.257z"/><path d="m14.643 20.114-.877-1.461c-.492-.82-1.375-1.325-2.332-1.334-.832-.008-2.082-.239-3.013-1.378-1.032-1.262-1.646-3.531-1.176-7.524.048-.411-.246-.784-.657-.832-.411-.049-.784.246-.833.657-.542 4.603.315 7.194 1.504 8.648 1.289 1.577 3.009 1.918 4.161 1.929.435.004.837.233 1.06.606 0 0 .877 1.461.877 1.461.213.355.674.47 1.029.257s.47-.674.257-1.029z"/></g></svg>