<svg clip-rule="evenodd" fill-rule="evenodd" height="512" stroke-linejoin="round" stroke-miterlimit="2" viewBox="0 0 24 24" width="512" xmlns="http://www.w3.org/2000/svg"><g id="Icon"><path d="m12.75 4.964v-1.414c0-.414-.336-.75-.75-.75s-.75.336-.75.75v1.414c0 .414.336.75.75.75s.75-.336.75-.75z"/><path d="m11.25 19.036v1.414c0 .414.336.75.75.75s.75-.336.75-.75v-1.414c0-.414-.336-.75-.75-.75s-.75.336-.75.75z"/><path d="m9.03 5.97-1-1.001c-.293-.293-.768-.293-1.061 0s-.293.768 0 1.061l1.001 1c.292.293.768.293 1.06 0 .293-.292.293-.768 0-1.06z"/><path d="m7.97 16.97-1.001 1c-.293.293-.293.768 0 1.061s.768.293 1.061 0l1-1.001c.293-.292.293-.768 0-1.06-.292-.293-.768-.293-1.06 0z"/><path d="m16.03 7.03 1-1c.293-.293.293-.768 0-1.061-.292-.293-.768-.293-1.06 0l-1.001 1.001c-.293.292-.293.768 0 1.06.293.293.768.293 1.061 0z"/><path d="m14.969 18.03 1.001 1.001c.292.293.768.293 1.06 0 .293-.293.293-.768 0-1.061l-1-1c-.293-.293-.768-.293-1.061 0-.293.292-.293.768 0 1.06z"/><path d="m10.506 8.25c-1.007-.008-1.511-.017-2.519 0-2.039.035-3.737 1.684-3.737 3.75s1.698 3.715 3.737 3.75c1.008.017 1.512.008 2.519 0 .414-.004.747-.342.744-.756-.004-.414-.342-.747-.756-.744-.993.008-1.489.017-2.481 0-1.23-.021-2.263-1.005-2.263-2.25s1.033-2.229 2.263-2.25c.992-.017 1.488-.008 2.481 0 .414.003.752-.33.756-.744.003-.414-.33-.752-.744-.756z"/><path d="m13.506 9.75c.993-.008 1.489-.017 2.481 0 1.23.021 2.263 1.005 2.263 2.25s-1.033 2.229-2.263 2.25c-.992.017-1.488.008-2.481 0-.414-.003-.752.33-.756.744-.003.414.33.752.744.756 1.007.008 1.511.017 2.519 0 2.039-.035 3.737-1.684 3.737-3.75s-1.698-3.715-3.737-3.75c-1.008-.017-1.512-.008-2.519 0-.414.004-.747.342-.744.756.004.414.342.747.756.744z"/><path d="m7 11.25h-5c-.414 0-.75.336-.75.75s.336.75.75.75h5c.414 0 .75-.336.75-.75s-.336-.75-.75-.75z"/><path d="m17 12.75h5c.414 0 .75-.336.75-.75s-.336-.75-.75-.75h-5c-.414 0-.75.336-.75.75s.336.75.75.75z"/></g></svg>