<svg clip-rule="evenodd" fill-rule="evenodd" height="512" stroke-linejoin="round" stroke-miterlimit="2" viewBox="0 0 24 24" width="512" xmlns="http://www.w3.org/2000/svg"><g id="Icon"><path d="m21.75 20.5c0-.327 0-.673 0-1 0-.597-.237-1.169-.659-1.591s-.994-.659-1.591-.659c-3.39 0-11.61 0-15 0-.597 0-1.169.237-1.591.659s-.659.994-.659 1.591v1c0 .597.237 1.169.659 1.591s.994.659 1.591.659h15c.597 0 1.169-.237 1.591-.659s.659-.994.659-1.591zm-1.5-1v1c0 .199-.079.39-.22.53-.14.141-.331.22-.53.22h-15c-.199 0-.39-.079-.53-.22-.141-.14-.22-.331-.22-.53v-1c0-.199.079-.39.22-.53.14-.141.331-.22.53-.22h15c.199 0 .39.079.53.22.141.14.22.331.22.53z"/><path d="m13.813 6.978c3.127.805 5.437 3.644 5.437 7.022v3.25h-14.5v-3.25c0-3.378 2.31-6.217 5.437-7.022.401-.103.643-.512.539-.913-.103-.401-.512-.642-.913-.539-3.774.971-6.563 4.397-6.563 8.474v4c0 .414.336.75.75.75h16c.414 0 .75-.336.75-.75v-4c0-4.077-2.789-7.503-6.563-8.474-.401-.103-.81.138-.913.539-.104.401.138.81.539.913z"/><path d="m15.25 4.5c0-1.794-1.456-3.25-3.25-3.25s-3.25 1.456-3.25 3.25 1.456 3.25 3.25 3.25 3.25-1.456 3.25-3.25zm-1.5 0c0 .966-.784 1.75-1.75 1.75s-1.75-.784-1.75-1.75.784-1.75 1.75-1.75 1.75.784 1.75 1.75z"/></g></svg>