<svg clip-rule="evenodd" fill-rule="evenodd" height="512" stroke-linejoin="round" stroke-miterlimit="2" viewBox="0 0 24 24" width="512" xmlns="http://www.w3.org/2000/svg"><g id="Icon"><path d="m8.25 15.5v2c0 .967.784 1.75 1.75 1.75h4c.966 0 1.75-.783 1.75-1.75v-2c0-.414-.336-.75-.75-.75s-.75.336-.75.75v2c0 .138-.112.25-.25.25h-4c-.138 0-.25-.112-.25-.25v-2c0-.414-.336-.75-.75-.75s-.75.336-.75.75z"/><path d="m11.842 5.142-1.902 3.5c-.126.232-.121.514.015.741.135.228.38.367.644.367h1.541s-1.3 2.392-1.3 2.392c-.197.364-.062.819.301 1.017.364.198.82.063 1.017-.301l1.902-3.5c.126-.232.121-.514-.015-.741-.135-.228-.38-.367-.644-.367h-1.541s1.3-2.392 1.3-2.392c.197-.364.062-.819-.301-1.017-.364-.198-.82-.063-1.017.301z"/><path d="m11.25 18.5v3.5c0 .414.336.75.75.75s.75-.336.75-.75v-3.5c0-.414-.336-.75-.75-.75s-.75.336-.75.75z"/><path d="m12 1.25c-4.277 0-7.75 3.473-7.75 7.75s3.473 7.75 7.75 7.75 7.75-3.473 7.75-7.75-3.473-7.75-7.75-7.75zm0 1.5c3.449 0 6.25 2.801 6.25 6.25s-2.801 6.25-6.25 6.25-6.25-2.801-6.25-6.25 2.801-6.25 6.25-6.25z"/></g></svg>