<svg clip-rule="evenodd" fill-rule="evenodd" height="512" stroke-linejoin="round" stroke-miterlimit="2" viewBox="0 0 24 24" width="512" xmlns="http://www.w3.org/2000/svg"><g id="Icon"><circle cx="17.759" cy="15" r=".759"/><path d="m21.75 10v10c0 .729-.29 1.429-.805 1.945-.516.515-1.216.805-1.945.805h-9c-.414 0-.75-.336-.75-.75v-1.378l-.962-2.885c-.047-.143-.051-.298-.009-.443l.41-1.436s-1.389.993-1.389.992l.444 3.557c.004.031.006.062.006.093v1.5c0 .414-.336.75-.75.75h-2c-1.519 0-2.75-1.231-2.75-2.75v-10c0-.729.29-1.429.805-1.945.516-.515 1.216-.805 1.945-.805h14c.729 0 1.429.29 1.945.805.515.516.805 1.216.805 1.945zm-1.5 0c0-.332-.132-.649-.366-.884-.235-.234-.552-.366-.884-.366h-14c-.332 0-.649.132-.884.366-.234.235-.366.552-.366.884v10c0 .69.56 1.25 1.25 1.25h1.25v-.703l-.494-3.954c-.034-.273.084-.543.308-.703l3.5-2.5c.26-.186.608-.187.868-.003.261.184.377.512.289.819l-.936 3.277.927 2.78c.025.076.038.156.038.237v.75h8.25c.332 0 .649-.132.884-.366.234-.235.366-.552.366-.884z"/><path d="m18.714 8.663c-.366.194-.82.054-1.014-.312-.194-.365-.055-.82.311-1.014.088-.046.158-.121.199-.212.049-.109.053-.233.011-.345l-1.419-3.74c-.042-.111-.127-.201-.236-.25s-.233-.053-.344-.011l-3.144 1.193c-.387.147-.821-.048-.968-.435-.146-.387.049-.821.436-.968l3.144-1.192c.483-.184 1.02-.167 1.491.045.472.212.84.603 1.024 1.086l1.418 3.74c.184.484.167 1.02-.045 1.492-.178.397-.484.721-.864.923z"/><path d="m13.259 2.508 1.419 3.74c.183.484.167 1.02-.045 1.492-.179.397-.484.721-.864.923-.109.057-.229.087-.352.087h-7.433c-.312 0-.591-.193-.701-.484l-.906-2.388c-.184-.484-.167-1.02.045-1.492s.603-.84 1.086-1.023l5.236-1.986c.484-.184 1.02-.167 1.492.045s.84.603 1.023 1.086zm-1.402.532c-.043-.111-.128-.201-.236-.25-.109-.049-.233-.053-.345-.011l-5.236 1.986c-.111.043-.201.128-.25.237-.049.108-.053.232-.011.344l.723 1.904h6.679c.035-.037.063-.079.084-.125.049-.109.053-.233.01-.345z"/><path d="m21.75 12v6c0 .414-.336.75-.75.75h-4c-1.519 0-2.75-1.231-2.75-2.75v-2c0-1.519 1.231-2.75 2.75-2.75h4c.414 0 .75.336.75.75zm-1.5.75h-3.25c-.69 0-1.25.56-1.25 1.25v2c0 .69.56 1.25 1.25 1.25h3.25z"/></g></svg>