<svg clip-rule="evenodd" fill-rule="evenodd" height="512" stroke-linejoin="round" stroke-miterlimit="2" viewBox="0 0 24 24" width="512" xmlns="http://www.w3.org/2000/svg"><g id="Icon"><path d="m12 21.24c-5.105 0-9.25-4.145-9.25-9.25 0-3.127 1.555-5.894 3.934-7.569.338-.238.42-.706.181-1.045-.238-.338-.706-.42-1.045-.181-2.763 1.946-4.57 5.161-4.57 8.795 0 5.933 4.817 10.75 10.75 10.75.414 0 .75-.336.75-.75s-.336-.75-.75-.75z"/><path d="m12.597 2.759c4.827.307 8.653 4.326 8.653 9.231 0 2.819-1.264 5.345-3.255 7.042-.315.268-.353.742-.084 1.057.268.315.742.353 1.057.084 2.314-1.972 3.782-4.908 3.782-8.183 0-5.701-4.447-10.371-10.058-10.728-.413-.027-.77.287-.796.701-.027.413.287.769.701.796z"/><path d="m20.29 19.899-2.102-.494s.499-2.12.499-2.12c.095-.403-.156-.807-.559-.902s-.807.156-.901.559l-.67 2.85c-.095.403.155.807.558.901l2.832.666c.403.095.807-.155.901-.558.095-.403-.155-.807-.558-.902z"/><path d="m4.236 3.398 2.167.26c0 .001-.265 2.202-.265 2.202-.05.411.244.785.655.834s.785-.244.834-.655l.354-2.946c.05-.411-.244-.785-.655-.834l-2.911-.35c-.411-.05-.785.244-.834.655-.05.411.244.785.655.834z"/><path d="m12.009 17.747c.533 0 1.067-.275 1.51-.851.706-.92 1.231-2.762 1.231-4.896s-.525-3.976-1.231-4.896c-.443-.576-.977-.851-1.51-.851s-1.066.275-1.509.851c-.706.92-1.231 2.762-1.231 4.896s.525 3.976 1.231 4.896c.443.576.976.851 1.509.851zm0-1.5c-.08 0-.141-.068-.211-.139-.11-.112-.211-.26-.305-.434-.45-.828-.724-2.168-.724-3.674s.274-2.846.724-3.674c.094-.174.195-.322.305-.434.07-.071.131-.139.211-.139.081 0 .141.068.212.139.11.112.21.26.305.434.45.828.724 2.168.724 3.674s-.274 2.846-.724 3.674c-.095.174-.195.322-.305.434-.071.071-.131.139-.212.139z"/><path d="m7.012 12.75h9.994c.414 0 .75-.336.75-.75s-.336-.75-.75-.75h-9.994c-.414 0-.75.336-.75.75s.336.75.75.75z"/><path d="m12.003 6.253c-3.172 0-5.747 2.575-5.747 5.747s2.575 5.747 5.747 5.747 5.747-2.575 5.747-5.747-2.575-5.747-5.747-5.747zm0 1.5c2.344 0 4.247 1.903 4.247 4.247s-1.903 4.247-4.247 4.247-4.247-1.903-4.247-4.247 1.903-4.247 4.247-4.247z"/></g></svg>