<svg clip-rule="evenodd" fill-rule="evenodd" height="512" stroke-linejoin="round" stroke-miterlimit="2" viewBox="0 0 24 24" width="512" xmlns="http://www.w3.org/2000/svg"><g id="Icon"><path d="m22.295 21.07c-.306-.13-.577-.326-.795-.57-.142-.159-.345-.25-.559-.25-.213 0-.416.091-.558.25-.413.46-1.011.75-1.677.75s-1.264-.29-1.677-.75c-.142-.159-.345-.25-.558-.25-.214 0-.417.091-.559.25-.412.46-1.011.75-1.677.75s-1.264-.29-1.676-.75c-.143-.159-.346-.25-.559-.25s-.416.091-.559.25c-.412.46-1.01.75-1.676.75s-1.265-.29-1.677-.75c-.142-.159-.345-.25-.559-.25-.213 0-.416.091-.558.25-.413.46-1.011.75-1.677.75s-1.264-.29-1.677-.75c-.142-.159-.345-.25-.558-.25-.214 0-.417.091-.559.25-.218.244-.489.44-.795.57-.38.163-.557.604-.395.985.163.38.604.557.985.395.272-.117.529-.265.764-.44.624.465 1.398.74 2.235.74s1.611-.275 2.236-.74c.624.465 1.397.74 2.235.74.837 0 1.611-.275 2.235-.74.624.465 1.398.74 2.235.74.838 0 1.611-.275 2.236-.74.624.465 1.398.74 2.235.74s1.611-.275 2.236-.74c.234.175.49.323.763.44.381.162.822-.015.985-.395.162-.381-.015-.822-.395-.985z"/><path d="m20.7 1.313c-2.031.886-3.45 2.912-3.45 5.27v13.002c0 .414.336.75.75.75s.75-.336.75-.75v-13.002c0-1.743 1.049-3.24 2.55-3.896.379-.165.553-.608.387-.987-.165-.379-.608-.553-.987-.387z"/><path d="m2.7 2.687c1.501.656 2.55 2.153 2.55 3.896v13.002c0 .414.336.75.75.75s.75-.336.75-.75c0 0 0-7.987 0-13.002 0-2.358-1.419-4.384-3.45-5.27-.379-.166-.822.008-.987.387-.166.379.008.822.387.987z"/><path d="m15.75 19v-4c0-.414-.336-.75-.75-.75s-.75.336-.75.75v4c0 .414.336.75.75.75s.75-.336.75-.75z"/><path d="m9.75 9v-3c0-.414-.336-.75-.75-.75s-.75.336-.75.75v3c0 .414.336.75.75.75s.75-.336.75-.75z"/><path d="m9.75 19v-3c0-.414-.336-.75-.75-.75s-.75.336-.75.75v3c0 .414.336.75.75.75s.75-.336.75-.75z"/><path d="m13.25 16v-4.5c0-.414-.336-.75-.75-.75s-.75.336-.75.75v4.5c0 .414.336.75.75.75s.75-.336.75-.75z"/><path d="m16.25 10v-3.5c0-.414-.336-.75-.75-.75s-.75.336-.75.75v3.5c0 .414.336.75.75.75s.75-.336.75-.75z"/><path d="m13.25 7v-3c0-.414-.336-.75-.75-.75s-.75.336-.75.75v3c0 .414.336.75.75.75s.75-.336.75-.75z"/><path d="m9.75 13.5v-1c0-.414-.336-.75-.75-.75s-.75.336-.75.75v1c0 .414.336.75.75.75s.75-.336.75-.75z"/></g></svg>