<svg clip-rule="evenodd" fill-rule="evenodd" height="512" stroke-linejoin="round" stroke-miterlimit="2" viewBox="0 0 24 24" width="512" xmlns="http://www.w3.org/2000/svg"><g id="Icon"><path d="m21.73 15.524c-.213-.753-.901-1.274-1.684-1.274-1.392 0-4.344 0-5.736 0-.783 0-1.471.521-1.684 1.274l-.989 3.5c-.149.528-.042 1.095.289 1.532s.847.694 1.396.694h7.713c.548 0 1.064-.257 1.395-.694s.438-1.004.289-1.532zm-1.443.408.988 3.5c.022.075.006.156-.041.219-.047.062-.121.099-.199.099h-7.713c-.079 0-.153-.037-.2-.099-.047-.063-.062-.144-.041-.219 0 0 .989-3.5.989-3.5.03-.108.128-.182.24-.182h5.736c.112 0 .21.074.241.182z"/><path d="m16.552 10.024c-.213-.753-.901-1.274-1.684-1.274-1.392 0-4.344 0-5.736 0-.783 0-1.471.521-1.684 1.274l-.989 3.5c-.149.528-.042 1.095.289 1.532s.847.694 1.395.694h7.714c.548 0 1.064-.257 1.395-.694s.438-1.004.289-1.532zm-1.443.408.988 3.5c.021.075.006.156-.041.219-.047.062-.121.099-.199.099h-7.714c-.078 0-.152-.037-.199-.099-.047-.063-.062-.144-.041-.219 0 0 .988-3.5.988-3.5.031-.108.129-.182.241-.182h5.736c.112 0 .21.074.241.182z"/><path d="m11.374 15.524c-.213-.753-.901-1.274-1.684-1.274-1.392 0-4.344 0-5.736 0-.783 0-1.471.521-1.684 1.274l-.989 3.5c-.149.528-.042 1.095.289 1.532s.847.694 1.395.694h7.713c.549 0 1.065-.257 1.396-.694s.438-1.004.289-1.532zm-1.444.408.989 3.5c.021.075.006.156-.041.219-.047.062-.121.099-.2.099h-7.713c-.078 0-.152-.037-.199-.099-.047-.063-.063-.144-.041-.219 0 0 .988-3.5.988-3.5.031-.108.129-.182.241-.182h5.736c.112 0 .21.074.24.182z"/><path d="m19.25 7.5v2c0 .414.336.75.75.75s.75-.336.75-.75v-2c0-.414-.336-.75-.75-.75s-.75.336-.75.75z"/><path d="m3.25 7.5v2c0 .414.336.75.75.75s.75-.336.75-.75v-2c0-.414-.336-.75-.75-.75s-.75.336-.75.75z"/><path d="m11.25 3.5v2c0 .414.336.75.75.75s.75-.336.75-.75v-2c0-.414-.336-.75-.75-.75s-.75.336-.75.75z"/><path d="m19 9.25h2c.414 0 .75-.336.75-.75s-.336-.75-.75-.75h-2c-.414 0-.75.336-.75.75s.336.75.75.75z"/><path d="m3 9.25h2c.414 0 .75-.336.75-.75s-.336-.75-.75-.75h-2c-.414 0-.75.336-.75.75s.336.75.75.75z"/><path d="m11 5.25h2c.414 0 .75-.336.75-.75s-.336-.75-.75-.75h-2c-.414 0-.75.336-.75.75s.336.75.75.75z"/></g></svg>