<svg clip-rule="evenodd" fill-rule="evenodd" stroke-linejoin="round" stroke-miterlimit="2" viewBox="0 0 32 32" xmlns="http://www.w3.org/2000/svg" xmlns:serif="http://www.serif.com/"><path id="cube-geometry-3d" d="m0 0h32v32h-32z" fill="none"/><path d="m9.993 3.001.007-.001h18c.031.002.062.003.092.004.5.07.884.484.908.996v18c-.014.32-.026.398-.161.559-.062.119-.154.222-.282.299l-1.85 1.849c-.478.435-.794.328-1.056.23-.616-.23-.832-1.123-.358-1.644l.373-.373c-.226-.081-.408-.21-.527-.412-.346-.586.084-1.476.833-1.508.343-.004.685-.007 1.028-.007v-15.993h-15.96c.029.817-.008 1.553-.532 1.861-.497.294-1.213.028-1.438-.516l-2.655 2.655h15.165c.566-.574 1.143-1.137 1.713-1.707.199-.194.401-.297.735-.292.764.032 1.275 1.059.699 1.686-.568.584-1.149 1.154-1.727 1.728v17.585c-.022.533-.46.977-1 1h-18c-.446-.019-.831-.33-.957-.748-.03-.091-.046-.188-.043-.291v-17.961c.001-.015.002-.03.003-.045.009-.183.066-.363.169-.515.048-.071.064-.085.121-.147l6-6 .012-.011c.045-.051.096-.095.153-.134.14-.113.22-.131.434-.143.032-.003.066-.004.101-.004zm-3.573 23.999h14.58v-16h-16v14.585c.098-.098.196-.195.293-.292.2-.194.4-.297.735-.293.764.032 1.276 1.06.699 1.687-.102.105-.204.209-.307.313zm3.595-6c.757.019 1.317 1.044.706 1.693-.585.597-1.133 1.371-1.819 1.306-.726-.07-1.198-1.081-.626-1.689.537-.548 1.02-1.273 1.679-1.309.02-.001.04-.001.06-.001zm8.013 0c.85.036 1.365 1.439.406 1.901-.126.061-.265.093-.406.098-1.167.017-2.453.248-2.889-.491-.346-.586.084-1.476.833-1.508.685-.009 1.371-.009 2.056 0zm-8-8c.513.022.95.452.972.972.015 1.086.253 2.308-.376 2.81-.564.45-1.588.078-1.623-.754-.018-1.284-.308-3.046 1.027-3.028z"/></svg>