<svg clip-rule="evenodd" fill-rule="evenodd" stroke-linejoin="round" stroke-miterlimit="1.414" viewBox="0 0 32 32" xmlns="http://www.w3.org/2000/svg" xmlns:serif="http://www.serif.com/"><path id="ambulance-truck-transport-emergency" d="m0 0h32v32h-32z" fill="none"/><path d="m11 11.016v-3c.009-.241.034-.28.076-.383.15-.362.528-.601.924-.617 4.68 0 9.359-.029 14.039 0 1.553.03 2.951 1.368 2.961 2.997v12.003c-.019.481-.373.913-.844.988-.069.011-.086.009-.156.012h-3.196c-.29.784-.891 1.459-1.67 1.778-1.395.57-3.176-.105-3.837-1.477-.685-1.42-.02-3.34 1.435-4.02.384-.179.807-.273 1.229-.281h.078c1.22.024 2.365.86 2.786 2h2.175c0-3.671.023-7.342 0-11.013-.01-.525-.464-.983-1.003-.987h-12.997v9s-.206.941-.922.997c-.493.039-.987-.341-1.066-.84-.011-.069-.009-.087-.012-.157v-5h-2.586l-3.414 3.414v4.586h.217c.264-.737.792-1.381 1.515-1.719.384-.179.807-.273 1.229-.281h.078c1.219.024 2.365.86 2.786 2h5.175l.048.001c.756.055 1.245 1.077.684 1.68-.187.201-.459.313-.732.319h-5.196c-.29.784-.891 1.459-1.67 1.778-1.395.57-3.176-.105-3.837-1.477-.048-.098-.089-.198-.123-.301h-1.174c-.205-.006-.261-.028-.368-.07-.331-.131-.579-.448-.624-.805-.007-.055-.006-.069-.008-.125v-6c.008-.264.111-.514.293-.707l4-4c.192-.181.442-.285.707-.293zm-3.013 10c-.766.015-1.312 1.104-.685 1.715.514.503 1.578.215 1.688-.574.08-.566-.375-1.145-1.003-1.141zm14 0c-.766.015-1.312 1.104-.685 1.715.514.503 1.578.215 1.688-.574.08-.566-.377-1.145-1.003-1.141zm-2.987-8v-1c.003-.163.018-.216.05-.313.133-.402.542-.687.97-.687.163.007.216.023.312.057.387.136.66.529.668.943v1h1l.04.001c.754.045 1.25 1.064.701 1.67-.186.207-.465.324-.741.329h-1v1c-.012.601-.613 1.111-1.217.976-.44-.097-.774-.519-.783-.976v-1h-1c-.601-.012-1.11-.613-.976-1.217.098-.439.519-.774.976-.783z" fill-rule="nonzero"/></svg>