<svg clip-rule="evenodd" fill-rule="evenodd" height="512" stroke-linejoin="round" stroke-miterlimit="2" viewBox="0 0 24 24" width="512" xmlns="http://www.w3.org/2000/svg"><g id="Icon"><path d="m6 1.25c-1.527 0-2.875.488-3.714 1.203-.669.57-1.036 1.287-1.036 2.047s.367 1.477 1.036 2.047c.839.715 2.187 1.203 3.714 1.203s2.875-.488 3.714-1.203c.669-.57 1.036-1.287 1.036-2.047s-.367-1.477-1.036-2.047c-.839-.715-2.187-1.203-3.714-1.203zm0 1.5c1.122 0 2.124.319 2.741.845.303.258.509.561.509.905s-.206.647-.509.905c-.617.526-1.619.845-2.741.845s-2.124-.319-2.741-.845c-.303-.258-.509-.561-.509-.905s.206-.647.509-.905c.617-.526 1.619-.845 2.741-.845z"/><path d="m6 11.25c-1.527 0-2.875.488-3.714 1.203-.669.57-1.036 1.287-1.036 2.047s.367 1.477 1.036 2.047c.839.715 2.187 1.203 3.714 1.203s2.875-.488 3.714-1.203c.669-.57 1.036-1.287 1.036-2.047s-.367-1.477-1.036-2.047c-.839-.715-2.187-1.203-3.714-1.203zm0 1.5c1.122 0 2.124.319 2.741.845.303.258.509.561.509.905s-.206.647-.509.905c-.617.526-1.619.845-2.741.845s-2.124-.319-2.741-.845c-.303-.258-.509-.561-.509-.905s.206-.647.509-.905c.617-.526 1.619-.845 2.741-.845z"/><path d="m18 1.25c-1.527 0-2.875.488-3.714 1.203-.669.57-1.036 1.287-1.036 2.047s.367 1.477 1.036 2.047c.839.715 2.187 1.203 3.714 1.203s2.875-.488 3.714-1.203c.669-.57 1.036-1.287 1.036-2.047s-.367-1.477-1.036-2.047c-.839-.715-2.187-1.203-3.714-1.203zm0 1.5c1.122 0 2.124.319 2.741.845.303.258.509.561.509.905s-.206.647-.509.905c-.617.526-1.619.845-2.741.845s-2.124-.319-2.741-.845c-.303-.258-.509-.561-.509-.905s.206-.647.509-.905c.617-.526 1.619-.845 2.741-.845z"/><path d="m18 9.25c-1.527 0-2.875.488-3.714 1.203-.669.57-1.036 1.287-1.036 2.047s.367 1.477 1.036 2.047c.839.715 2.187 1.203 3.714 1.203s2.875-.488 3.714-1.203c.669-.57 1.036-1.287 1.036-2.047s-.367-1.477-1.036-2.047c-.839-.715-2.187-1.203-3.714-1.203zm0 1.5c1.122 0 2.124.319 2.741.845.303.258.509.561.509.905s-.206.647-.509.905c-.617.526-1.619.845-2.741.845s-2.124-.319-2.741-.845c-.303-.258-.509-.561-.509-.905s.206-.647.509-.905c.617-.526 1.619-.845 2.741-.845z"/><path d="m9.25 4.5v15c0 .344-.206.647-.509.905-.617.526-1.619.845-2.741.845s-2.124-.319-2.741-.845c-.303-.258-.509-.561-.509-.905v-15c0-.414-.336-.75-.75-.75s-.75.336-.75.75v15c0 .76.367 1.477 1.036 2.047.839.715 2.187 1.203 3.714 1.203s2.875-.488 3.714-1.203c.669-.57 1.036-1.287 1.036-2.047v-15c0-.414-.336-.75-.75-.75s-.75.336-.75.75z"/><path d="m21.25 4.5v15c0 .344-.206.647-.509.905-.617.526-1.619.845-2.741.845s-2.124-.319-2.741-.845c-.303-.258-.509-.561-.509-.905v-15c0-.414-.336-.75-.75-.75s-.75.336-.75.75v15c0 .76.367 1.477 1.036 2.047.839.715 2.187 1.203 3.714 1.203s2.875-.488 3.714-1.203c.669-.57 1.036-1.287 1.036-2.047v-15c0-.414-.336-.75-.75-.75s-.75.336-.75.75z"/></g></svg>