<svg clip-rule="evenodd" fill-rule="evenodd" height="512" stroke-linejoin="round" stroke-miterlimit="2" viewBox="0 0 24 24" width="512" xmlns="http://www.w3.org/2000/svg"><g id="Icon"><path d="m12 1.25c-5.933 0-10.75 4.817-10.75 10.75s4.817 10.75 10.75 10.75 10.75-4.817 10.75-10.75-4.817-10.75-10.75-10.75zm0 1.5c5.105 0 9.25 4.145 9.25 9.25s-4.145 9.25-9.25 9.25-9.25-4.145-9.25-9.25 4.145-9.25 9.25-9.25z"/><path d="m12 16.174c-.552 0-1-.448-1-1s.448-1 1-1 1 .448 1 1-.448 1-1 1" fill-rule="nonzero"/><path d="m10.03 12.932c.502-.502 1.199-.818 1.97-.818s1.468.316 1.97.818c.292.293.768.293 1.06 0 .293-.293.293-.768 0-1.061-.771-.772-1.844-1.257-3.03-1.257s-2.258.485-3.03 1.257c-.293.293-.293.768 0 1.061.292.293.768.293 1.06 0z"/><path d="m7.533 10.429c1.138-1.148 2.718-1.853 4.467-1.853s3.329.705 4.467 1.853c.292.294.767.297 1.061.005.294-.291.296-.766.005-1.06-1.41-1.423-3.367-2.298-5.533-2.298s-4.123.875-5.533 2.298c-.291.294-.289.769.005 1.06.294.292.769.289 1.061-.005z"/></g></svg>