<svg clip-rule="evenodd" fill-rule="evenodd" height="512" stroke-linejoin="round" stroke-miterlimit="2" viewBox="0 0 24 24" width="512" xmlns="http://www.w3.org/2000/svg"><g id="Icon"><path d="m10.085 10.943-.833 11c-.016.209.056.414.198.567s.341.24.55.24h4c.209 0 .408-.087.55-.24s.214-.358.198-.567l-.833-11c-.032-.412-.392-.722-.805-.691s-.722.392-.691.805l.772 10.193h-2.382s.772-10.193.772-10.193c.031-.413-.278-.774-.691-.805s-.773.279-.805.691z"/><path d="m12 7.75c-1.242 0-2.25 1.008-2.25 2.25s1.008 2.25 2.25 2.25 2.25-1.008 2.25-2.25-1.008-2.25-2.25-2.25zm0 1.5c.414 0 .75.336.75.75s-.336.75-.75.75-.75-.336-.75-.75.336-.75.75-.75z"/><path d="m12.5 2.882v6.118c0 .414.336.75.75.75s.75-.336.75-.75v-7c0-.219-.096-.427-.261-.569-.166-.143-.386-.205-.603-.172l-.925.142c-.042.006-.084.016-.124.029-.685.229-.973.651-1.139 1.216-.07.234-.111.504-.176.797l-.754 3.394c-.03.133-.022.271.02.4l.5 1.5c.131.393.556.605.949.475.393-.131.605-.556.475-.949l-.435-1.303s.709-3.192.709-3.192c.046-.204.078-.396.118-.572.029-.125.039-.247.146-.314z"/><path d="m5.009 12.013 5.88-2.141c.389-.141.59-.572.449-.961-.142-.389-.573-.59-.962-.448l-6.578 2.394c-.38.138-.582.553-.456.938l.279.852c.028.084.07.163.125.232.377.475.854.64 1.398.645.347.002.73-.077 1.114-.128l3.448-.452c.135-.017.262-.071.369-.156l1.238-.983c.324-.257.379-.729.121-1.053-.257-.325-.729-.379-1.053-.122l-1.076.854s-3.242.425-3.242.425c-.265.035-.529.091-.778.11-.097.007-.195.026-.276-.006z"/><path d="m18.346 12.842-5.577-2.03c-.389-.142-.82.059-.962.448-.141.389.06.82.449.961l6.578 2.395c.228.083.482.05.682-.088s.321-.365.324-.608l.012-.944c.026-1.03-.399-1.331-1.27-1.887l-2.932-1.87c-.115-.073-.247-.114-.383-.117l-1.58-.043c-.414-.012-.759.315-.771.729-.011.414.316.759.73.77l1.372.037s2.757 1.759 2.757 1.759c.164.104.307.189.428.276.077.057.127.114.143.212z"/><path d="m16 21.25h-8c-.414 0-.75.336-.75.75s.336.75.75.75h8c.414 0 .75-.336.75-.75s-.336-.75-.75-.75z"/><path d="m2 8.75h2.5c.414 0 .75-.336.75-.75s-.336-.75-.75-.75h-2.5c-.414 0-.75.336-.75.75s.336.75.75.75z"/><path d="m16.5 8.75h2.5c.414 0 .75-.336.75-.75s-.336-.75-.75-.75h-2.5c-.414 0-.75.336-.75.75s.336.75.75.75z"/><path d="m5 5.75h2.5c.414 0 .75-.336.75-.75s-.336-.75-.75-.75h-2.5c-.414 0-.75.336-.75.75s.336.75.75.75z"/><path d="m19.5 5.75h2.5c.414 0 .75-.336.75-.75s-.336-.75-.75-.75h-2.5c-.414 0-.75.336-.75.75s.336.75.75.75z"/></g></svg>