<svg clip-rule="evenodd" fill-rule="evenodd" stroke-linejoin="round" stroke-miterlimit="1.414" viewBox="0 0 32 32" xmlns="http://www.w3.org/2000/svg" xmlns:serif="http://www.serif.com/"><path id="flag-alert-report" d="m0 0h32v32h-32z" fill="none"/><path d="m8.993 17.012v9.009c-.01.256-.044.326-.109.454-.282.553-1.133.72-1.6.254-.185-.186-.283-.444-.293-.708v-16.016c.019-.482.374-.914.845-.989.149-.023.186-.011.235-.009.502.06.902.485.922.998v5.005h7.007s.072.002.157.012c.469.094.825.504.844.989v1.001h6.006v-8.008h-6.006v3.003c-.021.76-1.043 1.305-1.668.746-.182-.162-.3-.392-.328-.634-.005-.05-.005-.062-.006-.112v-5.005h-7.007s-.594-.065-.847-.468c-.354-.563.028-1.448.735-1.528.05-.005.062-.005.112-.006h8.008c.019.001.037.001.056.002.182.015.232.035.327.074.328.136.572.457.612.813.005.05.005.062.006.112v1.001h7.007c.241.009.281.034.383.076.363.151.602.528.618.925v10.01c-.019.48-.374.914-.845.989-.069.01-.086.009-.156.012h-8.008c-.241-.01-.281-.034-.383-.076-.362-.15-.602-.528-.618-.925v-1.001z" fill-rule="nonzero"/></svg>