<svg clip-rule="evenodd" fill-rule="evenodd" height="512" stroke-linejoin="round" stroke-miterlimit="2" viewBox="0 0 24 24" width="512" xmlns="http://www.w3.org/2000/svg"><g id="Icon"><path d="m22.75 20.991v-.01c0-2.624-2.127-4.75-4.75-4.75-1.957 0-3.896 0-3.896 0-1.853 0-3.354-1.502-3.354-3.354v-1.253c0-.928.645-1.791 1.567-1.884 1.048-.105 1.933.714 1.933 1.741v2.5c0 .303.183.576.463.692.28.117.603.052.817-.162l2.293-2.293c.586-.586.924-1.384.927-2.212.015-5.16-4.437-9.286-9.708-8.724-4.482.477-7.792 4.449-7.792 8.957v4.742c0 4.28 3.47 7.75 7.75 7.75h12c.464 0 .909-.185 1.237-.513.326-.326.51-.767.513-1.227zm-1.5-.01c0 .066-.026.129-.073.176s-.111.074-.177.074h-12c-3.452 0-6.25-2.799-6.25-6.25v-4.742c0-3.747 2.726-7.069 6.45-7.466h.001c4.368-.466 8.062 2.952 8.049 7.228-.001.434-.181.85-.487 1.156 0 0-1.013 1.013-1.013 1.013v-.689c0-1.906-1.639-3.429-3.583-3.234-1.68.169-2.917 1.688-2.917 3.377v1.253c0 2.681 2.173 4.854 4.854 4.854h3.896c1.795 0 3.25 1.455 3.25 3.25z"/><path d="m12.386 21.337c-2.876-1.725-4.636-4.834-4.636-8.187v-2.169c0-1.795 1.455-3.25 3.25-3.25s3.25 1.455 3.25 3.25v.953c0 .413.336.75.75.75s.75-.337.75-.75v-.953c0-2.624-2.127-4.75-4.75-4.75s-4.75 2.126-4.75 4.75v2.169c0 3.88 2.036 7.477 5.364 9.474.355.213.816.097 1.029-.258s.098-.816-.257-1.029z"/></g></svg>